<svg role="img" aria-labelledby="artwork-title" shape-rendering="geometricPrecision" xmlns="http://www.w3.org/2000/svg" width="1200" height="1200" viewBox="0 0 1200 1200" version="1.1">
	<title id="artwork-title">Mascot waving hello</title>
	<path d="M 801 80.867 C 801 81.343, 797.063 82.242, 792.251 82.863 C 787.440 83.484, 783.352 84.444, 783.168 84.996 C 782.984 85.548, 781.858 86.002, 780.667 86.004 C 778.341 86.008, 770.004 89.958, 763.500 94.139 C 761.300 95.553, 759.132 96.745, 758.681 96.787 C 758.231 96.830, 755.183 99.596, 751.908 102.933 C 748.632 106.270, 745.625 109, 745.226 109 C 744.827 108.999, 742.563 106.749, 740.195 104 C 737.827 101.250, 735.239 99, 734.445 99 C 733.650 99, 733 98.550, 733 98 C 733 97.450, 732.459 97, 731.798 97 C 731.136 97, 729.224 95.687, 727.548 94.081 C 723.972 90.657, 715.503 86, 712.851 86 C 711.833 86, 711 85.596, 711 85.103 C 711 83.616, 699.248 82.153, 686.508 82.053 C 674.418 81.958, 664 83.355, 664 85.071 C 664 85.582, 662.794 86, 661.321 86 C 658.747 86, 652.037 87.947, 651 88.995 C 650.360 89.641, 646.471 91.899, 642 94.220 C 636.973 96.829, 622.422 110.424, 620.847 113.984 C 620.113 115.643, 619.184 117, 618.784 117 C 618.017 117, 610.657 131.908, 609.527 135.750 C 608.837 138.095, 607.532 138.669, 606.539 137.063 C 605.678 135.671, 599.965 133, 597.846 133 C 596.831 133, 596 132.622, 596 132.160 C 596 129.998, 587.243 128.650, 572.711 128.577 C 558.189 128.503, 548 129.932, 548 132.042 C 548 132.472, 546.213 133.126, 544.029 133.495 C 541.846 133.864, 538.962 135.029, 537.622 136.083 C 536.281 137.137, 534.679 138, 534.061 138 C 533.443 138, 532.678 138.675, 532.362 139.500 C 532.045 140.325, 531.349 141, 530.814 141 C 529.097 141, 518.162 151.103, 514.161 156.384 C 508.651 163.659, 504.268 172.463, 501.907 181 C 501.223 183.475, 500.289 185.928, 499.831 186.450 C 498.640 187.812, 498.793 208.754, 500 209.500 C 500.550 209.840, 501 211.177, 501 212.471 C 501 214.437, 500.342 214.935, 497 215.500 C 494.800 215.872, 493 216.496, 493 216.888 C 493 217.279, 490.300 218.158, 487 218.839 C 483.700 219.521, 480.996 220.398, 480.992 220.789 C 480.983 221.630, 476.123 224, 474.408 224 C 473.751 224, 472.955 224.675, 472.638 225.500 C 472.322 226.325, 471.471 227, 470.747 227 C 469.128 227, 459 237.115, 459 238.732 C 459 239.375, 458.438 240.260, 457.750 240.700 C 453.175 243.627, 446 261.993, 446 270.776 C 446 272.916, 445.725 274.942, 445.389 275.278 C 444.650 276.017, 444.566 288.487, 445.292 289.666 C 445.574 290.125, 446.123 292.750, 446.511 295.500 C 446.899 298.250, 447.775 301.400, 448.457 302.500 C 449.139 303.600, 450.279 306.300, 450.990 308.500 C 451.701 310.700, 452.894 312.860, 453.641 313.300 C 454.389 313.740, 455 314.705, 455 315.445 C 455 317.279, 468.703 331, 470.534 331 C 471.340 331, 472 331.444, 472 331.987 C 472 332.529, 473.520 333.608, 475.378 334.385 C 479.322 336.032, 480.720 337.786, 478.706 338.559 C 477.925 338.859, 476.690 340.993, 475.963 343.302 C 475.235 345.611, 474.179 348.106, 473.617 348.847 C 472.073 350.881, 472.191 371.221, 473.750 371.746 C 474.455 371.983, 475 373.814, 475 375.948 C 475 378.195, 475.799 380.746, 476.967 382.231 C 478.049 383.607, 478.649 385.017, 478.301 385.366 C 477.952 385.715, 478.192 386, 478.833 386 C 479.475 386, 480 386.722, 480 387.604 C 480 390.064, 491.375 400.639, 495.477 401.992 C 498.900 403.122, 499.074 403.381, 498.394 406.347 C 497.614 409.748, 497.661 413.414, 498.559 419.105 L 499.127 422.711 494.353 423.365 C 490.154 423.941, 482.103 428.144, 481.167 430.250 C 480.983 430.663, 480.284 431, 479.613 431 C 478.203 431, 472.008 437.128, 471.983 438.548 C 471.973 439.071, 470.906 440.504, 469.611 441.731 C 465.985 445.169, 460.063 458.050, 458.854 465.135 C 458.256 468.636, 457.369 471.927, 456.883 472.450 C 455.745 473.674, 455.725 496.297, 456.861 497.550 C 457.335 498.072, 458.301 502.002, 459.008 506.282 C 459.715 510.562, 460.685 514.305, 461.163 514.601 C 461.641 514.896, 461.743 515.607, 461.388 516.181 C 461.034 516.754, 461.148 517.511, 461.642 517.862 C 462.136 518.213, 463.124 519.625, 463.837 521 C 466.807 526.727, 468.759 529.812, 473.013 535.500 C 475.481 538.800, 477.850 541.654, 478.277 541.842 C 478.704 542.031, 481.364 544.011, 484.188 546.243 C 487.068 548.519, 491.775 551.027, 494.911 551.955 L 500.500 553.610 500.725 559.055 C 501.084 567.735, 503.315 585, 504.077 585 C 504.460 585, 505.325 587.925, 506 591.500 C 506.675 595.075, 507.626 598, 508.113 598 C 508.601 598, 509 598.540, 509 599.201 C 509 601.529, 512.453 612, 513.222 612 C 513.650 612, 514 612.614, 514 613.365 C 514 614.116, 514.800 615.803, 515.777 617.115 C 516.755 618.427, 518.169 621.300, 518.918 623.500 C 519.668 625.700, 520.624 627.725, 521.042 628 C 522.217 628.773, 529 639.087, 529 640.100 C 529 640.595, 529.450 641, 530 641 C 530.550 641, 531 641.658, 531 642.461 C 531 645.288, 562.290 676.878, 567.670 679.483 C 569.413 680.327, 570.988 681.351, 571.170 681.759 C 571.683 682.911, 577.690 686.932, 580.486 687.995 C 581.869 688.520, 583 689.359, 583 689.859 C 583 690.358, 584.013 691.119, 585.250 691.550 C 587.119 692.201, 586.780 692.400, 583.250 692.724 C 580.913 692.939, 579 693.539, 579 694.057 C 579 694.576, 577.124 695, 574.832 695 C 568.823 695, 558 697.038, 558 698.170 C 558 698.701, 557.138 698.861, 556.084 698.527 C 555.030 698.192, 553.911 698.335, 553.597 698.844 C 553.282 699.353, 550.094 700.322, 546.512 700.998 C 542.931 701.674, 540 702.626, 540 703.113 C 540 703.601, 539.017 704, 537.816 704 C 536.614 704, 533.802 704.836, 531.566 705.857 C 529.330 706.879, 525.587 708.301, 523.250 709.017 C 520.913 709.734, 519 710.698, 519 711.160 C 519 711.622, 518.176 712, 517.169 712 C 516.163 712, 513.125 713.123, 510.419 714.496 C 507.714 715.869, 505.050 717.004, 504.500 717.018 C 503.950 717.033, 502.375 717.924, 501 719 C 499.625 720.076, 497.867 720.966, 497.094 720.978 C 496.321 720.990, 494.215 722.124, 492.413 723.499 C 490.611 724.873, 488.079 726.400, 486.786 726.891 C 485.492 727.383, 482.308 729.409, 479.709 731.393 C 477.109 733.377, 474.496 735, 473.901 735 C 473.306 735, 470.449 737.025, 467.552 739.500 C 464.655 741.975, 461.770 744, 461.142 744 C 460.514 744, 460 744.444, 460 744.987 C 460 745.531, 458.088 747.175, 455.750 748.642 C 453.413 750.108, 447.848 754.614, 443.385 758.654 C 438.922 762.694, 434.897 766, 434.440 766 C 433.145 766, 397.041 802.257, 397.537 803.060 C 397.780 803.452, 397.360 804.286, 396.606 804.912 C 395.021 806.228, 394 804.468, 394 800.418 C 394 799.088, 393.597 798, 393.105 798 C 392.613 798, 391.955 796.313, 391.643 794.250 C 391.332 792.188, 390.799 788.700, 390.460 786.500 C 390.121 784.300, 389.216 781.108, 388.449 779.406 C 387.682 777.704, 386.755 773.767, 386.389 770.656 C 386.024 767.545, 385.337 765, 384.862 765 C 382.743 765, 384.316 760.568, 387.500 757.565 C 389.425 755.749, 391 753.929, 391 753.521 C 391 753.112, 392.747 750.690, 394.883 748.139 C 397.018 745.587, 399.501 741.925, 400.401 740 C 401.300 738.075, 402.778 735.150, 403.684 733.500 C 406.803 727.827, 407.743 725.491, 408.416 721.750 C 408.787 719.688, 409.462 718, 409.915 718 C 410.369 718, 411.284 715.188, 411.948 711.750 C 412.613 708.313, 413.796 704.503, 414.578 703.285 C 415.360 702.067, 416 700.364, 416 699.500 C 416 698.636, 416.788 696.734, 417.750 695.274 C 419.762 692.219, 425.788 680.890, 429.415 673.342 C 430.778 670.505, 432.367 667.891, 432.947 667.533 C 433.526 667.175, 434.003 666.121, 434.006 665.191 C 434.010 664.261, 434.756 662.150, 435.665 660.500 C 437.654 656.891, 438.225 638.392, 436.385 637.214 C 435.771 636.821, 434.973 635.549, 434.611 634.386 C 433.590 631.112, 424.467 623.950, 420.495 623.305 C 418.573 622.994, 417 622.347, 417 621.869 C 417 621.391, 414.975 621, 412.500 621 C 410.025 621, 408 621.360, 408 621.800 C 408 622.240, 405.300 623.158, 402 623.839 C 398.700 624.521, 396 625.505, 396 626.026 C 396 626.547, 394.538 627.605, 392.750 628.378 C 388.972 630.010, 377.818 641.120, 375.559 645.500 L 374.012 648.500 373.963 643 C 373.630 605.881, 372.907 580.587, 372.153 579.651 C 371.642 579.018, 370.911 576.025, 370.528 573 C 368.908 560.201, 358.386 548.662, 347.119 547.328 C 343.295 546.875, 341.287 547.279, 336.793 549.405 C 330.712 552.282, 323.444 559.381, 322.425 563.441 C 321.487 567.180, 320.605 566.599, 319.099 561.250 C 318.364 558.638, 316.691 554.822, 315.381 552.771 C 314.071 550.721, 313 548.808, 313 548.521 C 313 547.882, 309.872 544.860, 307.803 543.500 C 306.965 542.950, 305.054 541.635, 303.554 540.578 C 299.552 537.758, 292.502 536.980, 286.089 538.649 C 283.113 539.424, 280.188 540.639, 279.589 541.349 C 278.990 542.059, 277.375 543.337, 276 544.189 C 272.567 546.317, 268.234 554.758, 267.418 560.906 C 267.046 563.708, 266.529 566, 266.268 566 C 266.007 566, 263.554 563.986, 260.816 561.525 C 254.283 555.650, 248.351 553.980, 239.976 555.655 C 236.051 556.440, 224 567.775, 224 570.682 C 224 571.737, 223.457 573.143, 222.794 573.806 C 221.993 574.607, 221.573 579.008, 221.544 586.903 C 221.500 598.816, 221.340 599.246, 218 596.432 C 217.175 595.736, 213.725 594.597, 210.333 593.901 C 205.320 592.871, 203.355 592.877, 199.837 593.931 C 192.755 596.053, 184.318 606.061, 184.896 611.654 C 185.018 612.839, 184.642 614.104, 184.059 614.464 C 182.498 615.428, 182.675 627.996, 184.250 628.015 C 185.170 628.027, 185.142 628.258, 184.143 628.890 C 183.143 629.524, 183.093 629.940, 183.952 630.471 C 184.593 630.867, 185.025 632.161, 184.910 633.346 C 184.796 634.530, 184.968 636.175, 185.292 637 C 185.617 637.825, 186.390 641.087, 187.012 644.250 C 187.633 647.413, 188.537 650, 189.021 650 C 189.504 650, 190.431 652.700, 191.080 656 C 191.729 659.300, 192.593 662, 193 662 C 193.407 662, 194.307 664.025, 195 666.500 C 195.693 668.975, 196.595 671, 197.005 671 C 197.415 671, 198.021 672.357, 198.353 674.016 C 198.685 675.674, 200.091 679.430, 201.478 682.362 C 202.865 685.294, 204 688.376, 204 689.212 C 204 690.047, 204.853 691.815, 205.896 693.141 C 207.076 694.641, 208.065 698.093, 208.513 702.276 C 208.909 705.974, 209.559 709, 209.957 709 C 210.356 709, 211.234 711.467, 211.909 714.483 C 212.584 717.499, 213.516 720.201, 213.981 720.488 C 214.446 720.775, 215.138 722.921, 215.519 725.255 C 215.900 727.590, 216.989 730.850, 217.939 732.500 C 218.889 734.150, 220.263 737.413, 220.993 739.750 C 221.723 742.087, 222.648 744, 223.049 744 C 223.450 744, 224.077 745.599, 224.444 747.553 C 224.810 749.506, 225.761 751.355, 226.555 751.660 C 227.350 751.964, 228 752.666, 228 753.218 C 228 753.771, 229.842 756.422, 232.093 759.111 C 234.344 761.800, 235.899 764, 235.548 764 C 235.198 764, 237.319 766.362, 240.263 769.250 L 245.615 774.500 245.357 786 C 245.023 800.920, 246.983 836.399, 248.167 836.847 C 248.671 837.038, 248.547 837.841, 247.891 838.631 C 246.992 839.714, 246.978 840.614, 247.831 842.284 C 248.454 843.503, 249.436 851.250, 250.013 859.500 C 251.139 875.596, 251.830 880.918, 253 882.500 C 253.407 883.050, 254.294 888.675, 254.972 895 C 255.650 901.325, 256.549 906.950, 256.971 907.500 C 257.392 908.050, 258.311 911.611, 259.012 915.413 C 259.714 919.216, 260.896 923.491, 261.638 924.913 C 262.380 926.336, 262.990 928.258, 262.994 929.185 C 262.997 930.112, 263.525 932.137, 264.166 933.685 C 264.808 935.233, 265.370 936.800, 265.416 937.167 C 265.462 937.533, 265.838 938.171, 266.250 938.583 C 266.663 938.996, 267 940.164, 267 941.180 C 267 942.941, 268.820 946.938, 270.105 948 C 270.438 948.275, 271.291 950.300, 272 952.500 C 272.709 954.700, 273.562 956.725, 273.895 957 C 275.076 957.976, 277 961.995, 277 963.486 C 277 964.319, 277.450 965, 278 965 C 278.550 965, 279 965.605, 279 966.344 C 279 967.084, 281.250 970.260, 284 973.403 C 286.750 976.545, 289 979.567, 289 980.118 C 289 981.387, 298.985 992, 300.179 992 C 300.668 992, 302.387 993.350, 304 995 C 305.613 996.650, 307.336 998, 307.829 998 C 308.322 998, 310.424 999.350, 312.500 1001 C 314.576 1002.650, 316.687 1004, 317.191 1004 C 317.694 1004, 319.762 1005.125, 321.785 1006.500 C 323.941 1007.965, 326.921 1009.013, 328.982 1009.032 C 330.917 1009.049, 333.329 1009.692, 334.342 1010.459 C 335.355 1011.227, 338.055 1012.164, 340.342 1012.541 C 342.629 1012.918, 345.120 1013.728, 345.877 1014.341 C 347.764 1015.869, 383.312 1015.816, 385.161 1014.283 C 385.897 1013.672, 389.824 1012.712, 393.887 1012.149 C 397.950 1011.586, 401.752 1010.648, 402.337 1010.063 C 402.922 1009.478, 404.449 1009, 405.732 1009 C 407.015 1009, 409.737 1008.258, 411.782 1007.351 C 413.827 1006.444, 415.950 1005.653, 416.500 1005.593 C 417.050 1005.533, 419.300 1004.641, 421.500 1003.610 C 423.700 1002.579, 427.525 1000.855, 430 999.780 C 436.159 997.105, 442.198 993.951, 444 992.470 C 444.825 991.791, 446.442 990.950, 447.593 990.601 C 448.744 990.251, 452.088 988.173, 455.023 985.982 C 457.959 983.792, 460.755 982, 461.237 982 C 461.718 982, 464.893 979.750, 468.292 977 C 472.885 973.283, 475.309 972, 477.736 972 C 479.531 972, 481 971.550, 481 971 C 481 970.450, 481.694 970, 482.543 970 C 483.391 970, 486.386 967.863, 489.197 965.250 C 493.709 961.057, 494.241 960.793, 493.732 963 C 493.414 964.375, 492.836 969.100, 492.446 973.500 C 492.057 977.900, 491.394 981.725, 490.975 982 C 490.555 982.275, 489.679 989.920, 489.029 998.989 C 488.378 1008.057, 487.498 1015.707, 487.072 1015.989 C 486.286 1016.508, 485.373 1026.657, 484.327 1046.500 C 484.008 1052.550, 483.386 1057.731, 482.946 1058.014 C 481.901 1058.685, 479.735 1093.544, 480.564 1096.348 C 480.914 1097.532, 482.756 1099.963, 484.656 1101.750 C 488.481 1105.348, 493.792 1106.161, 496.010 1103.488 C 496.962 1102.341, 497.594 1102.248, 498.627 1103.105 C 499.376 1103.727, 501.105 1104.022, 502.469 1103.761 C 504.080 1103.453, 505.539 1103.938, 506.630 1105.143 C 507.554 1106.165, 509.114 1107, 510.096 1107 C 511.078 1107, 512.160 1107.450, 512.500 1108 C 513.382 1109.427, 523 1109.285, 523 1107.845 C 523 1107.150, 523.723 1107.344, 524.813 1108.331 C 526.836 1110.162, 531.129 1110.517, 538.292 1109.447 C 542.445 1108.826, 543.401 1109.029, 545.462 1110.964 C 547.515 1112.893, 549.032 1113.218, 556.581 1113.349 C 563.007 1113.460, 565.439 1113.153, 565.765 1112.189 C 566.102 1111.191, 566.683 1111.308, 568.199 1112.680 C 569.911 1114.230, 572.256 1114.501, 584.944 1114.619 C 596.485 1114.726, 600.220 1115.097, 602.099 1116.324 C 604.039 1117.592, 607.474 1117.872, 620 1117.785 C 628.525 1117.725, 641.125 1118.069, 648 1118.550 C 674.497 1120.401, 846.540 1118.310, 847.947 1116.120 C 848.251 1115.646, 853.462 1115.059, 859.527 1114.814 C 866.768 1114.522, 871.638 1113.828, 873.712 1112.794 C 876.510 1111.398, 876.936 1111.390, 877.448 1112.725 C 877.929 1113.978, 879.334 1114.110, 885.763 1113.510 C 890.018 1113.113, 893.760 1112.373, 894.077 1111.865 C 894.394 1111.357, 898.166 1110.548, 902.459 1110.066 C 906.937 1109.564, 910.607 1108.635, 911.069 1107.888 C 911.626 1106.988, 913.899 1106.659, 918.412 1106.825 C 924.416 1107.047, 925.195 1106.831, 927.974 1104.175 C 930.544 1101.720, 931 1100.538, 931 1096.342 C 931 1093.624, 930.460 1090.860, 929.800 1090.200 C 928.867 1089.267, 928.867 1089, 929.800 1089 C 931.263 1089, 931.551 1026.977, 930.094 1025.450 C 929.596 1024.927, 928.945 1018.425, 928.647 1011 C 928.349 1003.575, 927.794 993.408, 927.414 988.407 L 926.723 979.315 932.611 978.278 C 935.850 977.708, 939.804 977.187, 941.399 977.120 C 942.993 977.053, 944.861 976.530, 945.550 975.959 C 946.238 975.387, 952.130 974.225, 958.643 973.377 C 965.156 972.528, 970.713 971.489, 970.992 971.067 C 971.272 970.645, 976.442 969.751, 982.483 969.079 C 988.523 968.408, 993.923 967.499, 994.483 967.060 C 995.413 966.330, 998.097 965.838, 1009.500 964.311 C 1011.700 964.016, 1013.950 963.435, 1014.500 963.020 C 1015.050 962.605, 1020 961.687, 1025.500 960.980 C 1031 960.273, 1036.471 959.063, 1037.657 958.293 C 1039.180 957.304, 1040.015 957.216, 1040.496 957.994 C 1040.871 958.600, 1042.150 958.962, 1043.339 958.798 C 1045.226 958.538, 1045.517 959.008, 1045.633 962.500 C 1045.707 964.700, 1046.011 967.175, 1046.311 968 C 1047.150 970.315, 1049.006 990.761, 1049.003 997.667 C 1049.001 1001.058, 1049.398 1003.983, 1049.885 1004.167 C 1051.314 1004.705, 1052.553 1046.410, 1051.868 1070.906 C 1051.238 1093.431, 1051.664 1098, 1054.392 1098 C 1055.185 1098, 1056.013 1098.540, 1056.234 1099.201 C 1056.528 1100.083, 1057.574 1099.955, 1060.179 1098.719 C 1065.356 1096.263, 1066.182 1094.804, 1065.896 1088.625 C 1065.729 1085.013, 1066.130 1082.547, 1067.071 1081.413 C 1068.261 1079.978, 1068.489 1072.862, 1068.432 1038.917 C 1068.387 1011.897, 1068.008 997.698, 1067.309 996.822 C 1066.300 995.560, 1065.750 990.594, 1064.390 970.500 C 1064.055 965.550, 1063.524 961.073, 1063.209 960.551 C 1062.101 958.716, 1062.652 953.833, 1064.068 952.937 C 1064.856 952.438, 1067.103 952.024, 1069.063 952.015 C 1074.695 951.991, 1078.347 947.546, 1078.302 940.769 C 1078.265 934.961, 1076.188 922.788, 1075.101 922 C 1074.722 921.725, 1073.822 917.900, 1073.101 913.500 C 1072.380 909.100, 1071.474 905.275, 1071.087 905 C 1070.700 904.725, 1069.800 901.800, 1069.087 898.500 C 1068.374 895.200, 1067.439 891.600, 1067.009 890.500 C 1066.580 889.400, 1065.648 886.475, 1064.940 884 C 1064.232 881.525, 1063.316 879.108, 1062.904 878.628 C 1062.493 878.149, 1062.380 877.172, 1062.654 876.459 C 1062.928 875.745, 1062.486 874.113, 1061.672 872.831 C 1060.858 871.549, 1059.884 868.587, 1059.508 866.250 C 1059.132 863.912, 1058.486 862, 1058.072 862 C 1057.659 862, 1056.752 860.088, 1056.058 857.750 C 1055.363 855.413, 1054.166 852.306, 1053.398 850.846 C 1052.629 849.386, 1052 847.621, 1052 846.924 C 1052 846.228, 1051.418 844.947, 1050.707 844.079 C 1049.996 843.210, 1048.842 840.700, 1048.143 838.500 C 1046.871 834.497, 1042.630 824.823, 1040.909 822 C 1040.407 821.175, 1039.515 819.376, 1038.928 818.002 C 1038.341 816.628, 1037.270 814.828, 1036.549 814.002 C 1035.827 813.176, 1034.897 811.375, 1034.481 810 C 1034.066 808.625, 1032.329 805.475, 1030.622 803 C 1026.705 797.322, 1024.368 793.381, 1022.468 789.250 C 1021.646 787.463, 1020.515 786, 1019.955 786 C 1019.395 786, 1018.647 785.212, 1018.292 784.250 C 1017.938 783.288, 1015.702 780.201, 1013.324 777.392 C 1010.946 774.583, 1008.996 771.883, 1008.990 771.392 C 1008.985 770.901, 1007.189 768.925, 1005 767 C 1002.811 765.075, 1001.015 763.038, 1001.010 762.473 C 1000.997 761.111, 987.750 748, 986.388 748 C 985.803 748, 983.565 745.987, 981.413 743.527 C 979.261 741.067, 976.974 739.042, 976.332 739.027 C 975.689 739.012, 972.791 736.975, 969.891 734.500 C 966.992 732.025, 964.065 730, 963.386 730 C 962.708 730, 960.816 728.875, 959.182 727.500 C 957.548 726.125, 955.714 725, 955.106 725 C 954.498 725, 954 724.550, 954 724 C 954 723.450, 953.365 723, 952.590 723 C 951.814 723, 948.878 721.181, 946.064 718.957 C 943.251 716.733, 940.542 715.165, 940.044 715.473 C 939.546 715.781, 938.856 715.575, 938.510 715.016 C 938.165 714.457, 937.069 714, 936.076 714 C 935.082 714, 933.121 713.096, 931.716 711.991 C 930.311 710.886, 927.786 709.707, 926.104 709.371 C 924.421 709.034, 922.530 708.138, 921.900 707.379 C 921.270 706.621, 920.023 705.998, 919.128 705.996 C 918.232 705.994, 916.113 705.146, 914.417 704.112 C 912.721 703.078, 909.796 701.911, 907.917 701.518 C 906.038 701.125, 903.451 700.139, 902.169 699.326 C 900.887 698.513, 899.214 698.088, 898.451 698.380 C 897.688 698.673, 896.817 698.513, 896.515 698.024 C 896.213 697.536, 893.499 696.584, 890.483 695.909 C 887.467 695.234, 885 694.346, 885 693.935 C 885 693.524, 882.638 692.878, 879.750 692.500 C 876.862 692.122, 873.193 691.180, 871.596 690.406 C 869.999 689.633, 867.749 688.982, 866.596 688.961 C 864.894 688.929, 865.064 688.671, 867.500 687.591 C 869.150 686.860, 872.594 684.402, 875.153 682.131 C 877.713 679.859, 880.466 678, 881.271 678 C 883.108 678, 911 649.490, 911 647.613 C 911 646.854, 912.813 644.594, 915.030 642.592 C 917.388 640.462, 919.314 637.681, 919.672 635.890 C 920.009 634.206, 920.895 632.594, 921.642 632.307 C 922.389 632.020, 923.010 631.272, 923.022 630.643 C 923.034 630.014, 923.924 628.375, 925 627 C 926.076 625.625, 926.966 623.914, 926.978 623.197 C 926.990 622.480, 928.125 620.238, 929.500 618.215 C 930.875 616.191, 932 613.924, 932 613.176 C 932 612.428, 932.900 610.671, 934 609.273 C 935.100 607.874, 936 605.882, 936 604.846 C 936 603.298, 936.491 603.079, 938.750 603.619 C 940.263 603.980, 941.950 604.624, 942.500 605.049 C 943.050 605.474, 947.213 606.364, 951.750 607.026 C 961.469 608.444, 973.345 607.138, 979.565 603.967 C 981.687 602.885, 984.247 602, 985.254 602 C 986.261 602, 989.522 600.200, 992.500 598 C 995.478 595.800, 998.398 594, 998.988 594 C 999.964 594, 1010 584.285, 1010 583.341 C 1010 583.119, 1011.575 581.493, 1013.500 579.726 C 1015.425 577.959, 1017 575.964, 1017 575.292 C 1017 574.620, 1018.350 572.532, 1020 570.653 C 1021.650 568.774, 1023 566.508, 1023 565.618 C 1023 564.728, 1023.414 564, 1023.921 564 C 1024.427 564, 1025.150 562.538, 1025.528 560.750 C 1025.906 558.963, 1027.020 556.150, 1028.002 554.500 C 1028.985 552.850, 1030.113 549.475, 1030.510 547 C 1030.906 544.525, 1031.492 542.063, 1031.812 541.528 C 1032.131 540.993, 1032.273 538.901, 1032.127 536.880 C 1031.981 534.858, 1032.343 532.906, 1032.931 532.543 C 1034.380 531.647, 1034.373 514, 1032.923 514 C 1032.317 514, 1031.970 512.574, 1032.128 510.736 C 1032.283 508.940, 1032.144 507.028, 1031.820 506.486 C 1031.496 505.944, 1030.924 503.644, 1030.549 501.376 C 1030.174 499.108, 1028.322 494.906, 1026.433 492.039 C 1024.545 489.171, 1023 486.371, 1023 485.815 C 1023 485.260, 1020.001 481.699, 1016.336 477.903 C 1011.195 472.578, 1010.127 471, 1011.662 471 C 1012.756 471, 1014.708 469.875, 1016 468.500 C 1017.292 467.125, 1018.781 466, 1019.310 466 C 1020.479 466, 1025 461.245, 1025 460.016 C 1025 459.531, 1025.900 458.849, 1027 458.500 C 1028.100 458.151, 1029 457.398, 1029 456.827 C 1029 456.255, 1030.237 454.148, 1031.750 452.144 C 1033.263 450.140, 1035.244 446.925, 1036.154 445 C 1042.398 431.785, 1042.296 432.185, 1042.400 420.430 C 1042.469 412.594, 1042.115 408.725, 1041.250 407.856 C 1040.563 407.165, 1040 405.655, 1040 404.500 C 1040 403.345, 1039.471 401.871, 1038.824 401.224 C 1037.321 399.721, 1040.189 396.289, 1044.500 394.431 C 1048.420 392.742, 1058.402 382.549, 1061.099 377.481 C 1067.580 365.302, 1068.953 362.231, 1069.559 358.551 C 1069.926 356.323, 1070.607 354.025, 1071.073 353.445 C 1071.539 352.865, 1072.222 348.781, 1072.590 344.369 C 1073.104 338.203, 1072.906 335.555, 1071.734 332.924 C 1070.895 331.041, 1069.651 326.688, 1068.968 323.250 C 1068.285 319.813, 1067.338 317, 1066.863 317 C 1066.389 317, 1066 316.507, 1066 315.904 C 1066 315.302, 1065.069 313.502, 1063.932 311.904 C 1062.794 310.307, 1062.186 309, 1062.580 309 C 1062.974 309, 1061.954 307.716, 1060.312 306.148 C 1058.670 304.579, 1057.039 302.544, 1056.686 301.625 C 1056.334 300.706, 1055.261 299.653, 1054.301 299.285 C 1053.342 298.917, 1051.322 297.353, 1049.812 295.808 C 1048.303 294.264, 1046.715 292.990, 1046.284 292.978 C 1045.853 292.966, 1044.403 292.112, 1043.062 291.081 C 1041.721 290.051, 1040.105 289.406, 1039.472 289.649 C 1038.839 289.892, 1037.743 289.396, 1037.038 288.546 C 1036.332 287.695, 1034.546 287, 1033.069 287 C 1031.591 287, 1029.562 286.400, 1028.559 285.667 C 1026.878 284.438, 1026.858 284.144, 1028.300 281.917 C 1030.429 278.626, 1032.291 263.952, 1031.518 256.550 C 1030.689 248.616, 1028.858 240, 1028.001 240 C 1027.626 240, 1026.734 238.223, 1026.017 236.052 C 1025.301 233.881, 1024.104 231.870, 1023.357 231.584 C 1022.611 231.297, 1022 230.337, 1022 229.450 C 1022 227.517, 1006.297 212, 1004.341 212 C 1003.589 212, 1002.191 211.604, 1001.236 211.119 C 991.049 205.951, 989.662 205.621, 977.876 205.560 L 966.232 205.500 965.781 198.500 C 965.534 194.650, 964.841 190.600, 964.241 189.500 C 963.642 188.400, 962.606 185.351, 961.939 182.724 C 961.271 180.098, 960.331 177.704, 959.848 177.406 C 959.365 177.107, 958.363 175.432, 957.622 173.682 C 956.038 169.940, 942.258 156, 940.143 156 C 939.343 156, 937.296 154.943, 935.594 153.651 C 933.892 152.359, 930.701 150.968, 928.502 150.559 C 926.304 150.151, 924.245 149.396, 923.928 148.883 C 923.611 148.370, 919.472 147.509, 914.732 146.971 C 905.814 145.957, 892.509 147.091, 890.571 149.029 C 890.037 149.563, 888.812 150, 887.850 150 C 886.452 150, 885.962 148.787, 885.418 143.978 C 885.043 140.665, 884.388 137.740, 883.962 137.477 C 883.536 137.213, 883.423 136.098, 883.711 134.999 C 884.003 133.882, 883.741 133, 883.117 133 C 882.502 133, 882 132.248, 882 131.329 C 882 129.323, 876.118 117, 875.161 117 C 874.791 117, 873.938 115.756, 873.265 114.236 C 871.554 110.371, 860.890 100.149, 860.283 101.792 C 859.611 103.609, 857 101.349, 857 98.951 C 857 96.882, 857.824 97.361, 833.660 85.396 C 832.097 84.622, 825.685 83.444, 819.410 82.778 C 813.134 82.111, 808 81.214, 808 80.783 C 808 80.352, 806.425 80, 804.500 80 C 802.575 80, 801 80.390, 801 80.867 M 674.250 100.334 C 670.813 100.894, 668 101.722, 668 102.176 C 668 102.629, 667.035 103, 665.855 103 C 658.981 103, 637.973 117.907, 633.997 125.607 C 633.175 127.198, 632.277 128.725, 632.002 129 C 631.726 129.275, 630.628 131.300, 629.562 133.500 C 624.595 143.755, 623.284 150.808, 627.500 144.595 C 628.875 142.569, 630 140.678, 630 140.394 C 630 139.232, 643.930 126.157, 645.800 125.564 C 646.911 125.211, 648.365 124.265, 649.032 123.461 C 649.699 122.658, 650.908 122, 651.718 122 C 652.528 122, 654.386 121.153, 655.846 120.118 C 657.306 119.082, 661.080 117.702, 664.233 117.050 C 667.385 116.399, 670.243 115.415, 670.584 114.865 C 670.924 114.314, 672.707 113.994, 674.547 114.152 C 676.387 114.311, 678.217 114.116, 678.613 113.720 C 679.612 112.721, 686.766 112.813, 687.397 113.833 C 687.680 114.292, 689.282 114.465, 690.956 114.220 C 692.793 113.950, 694 114.215, 694 114.887 C 694 115.499, 695.132 116, 696.516 116 C 699.727 116, 707 118.250, 707 119.243 C 707 119.660, 707.434 120, 707.965 120 C 710.125 120, 718.121 125.973, 723.920 131.918 C 727.314 135.397, 730.203 138.076, 730.341 137.872 C 730.479 137.667, 731.337 135.074, 732.249 132.109 C 733.726 127.305, 733.745 126.408, 732.427 123.859 C 731.614 122.287, 730.510 121, 729.974 121 C 729.438 121, 729 120.422, 729 119.716 C 729 118.158, 719.201 108.523, 716.750 107.671 C 715.788 107.337, 715 106.599, 715 106.031 C 715 105.464, 714.195 105, 713.211 105 C 712.228 105, 709.663 104.103, 707.512 103.006 C 703.571 100.997, 690.556 98.865, 684.026 99.159 C 682.087 99.246, 677.688 99.775, 674.250 100.334 M 796.563 100.129 C 791.647 100.601, 787.372 101.377, 787.063 101.853 C 786.753 102.329, 784.813 103.322, 782.750 104.060 C 780.688 104.798, 779 105.761, 779 106.201 C 779 106.640, 778.319 107, 777.486 107 C 773.341 107, 762.457 116.589, 758.094 124.084 C 757.321 125.413, 756.213 127.267, 755.632 128.205 C 755.051 129.142, 754.816 130.150, 755.111 130.444 C 755.751 131.084, 760.981 128.780, 760.992 127.852 C 761.002 127.002, 775.575 120, 777.334 120 C 778.081 120, 780.224 119.229, 782.096 118.288 C 787.014 115.814, 815.067 115.711, 819.500 118.151 C 821.150 119.060, 824.417 120.316, 826.760 120.944 C 829.279 121.620, 832.521 123.588, 834.695 125.762 C 836.716 127.783, 838.901 129.515, 839.549 129.610 C 841.956 129.963, 853 143.123, 853 145.638 C 853 146.387, 853.430 147, 853.955 147 C 854.480 147, 855.205 148.688, 855.567 150.750 C 855.929 152.813, 856.849 155.497, 857.612 156.715 C 859.318 159.437, 859.416 164.184, 857.800 165.800 C 857.140 166.460, 856.883 167, 857.229 167 C 857.575 167, 860.130 164.637, 862.908 161.750 L 867.957 156.500 867.978 149.417 C 867.990 145.521, 867.663 141.996, 867.250 141.583 C 866.837 141.171, 866.462 140.533, 866.416 140.167 C 866.262 138.940, 864.013 133.517, 863.028 132 C 862.493 131.175, 861.320 129.046, 860.422 127.268 C 858.482 123.428, 847.164 112, 845.302 112 C 844.586 112, 844 111.536, 844 110.969 C 844 110.401, 843.212 109.645, 842.250 109.289 C 841.288 108.932, 838.925 107.637, 837 106.411 C 835.075 105.186, 831.925 103.860, 830 103.466 C 828.075 103.071, 826.273 102.395, 825.995 101.962 C 825.448 101.109, 811.230 98.915, 807.678 99.135 C 806.480 99.209, 801.478 99.657, 796.563 100.129 M 562.430 145.113 C 562.222 145.450, 559.902 146.292, 557.276 146.984 C 551.454 148.519, 544 151.886, 544 152.981 C 544 153.422, 542.936 154.050, 541.635 154.377 C 537.780 155.344, 526.874 167.853, 522.741 176.047 C 519.661 182.153, 518.875 184.946, 518.392 191.500 C 518.067 195.900, 517.378 200.019, 516.859 200.653 C 516.264 201.381, 516.283 201.933, 516.912 202.153 C 517.460 202.344, 518.323 205.425, 518.830 209 C 519.497 213.697, 519.787 214.476, 519.877 211.809 C 519.944 209.779, 520.450 207.840, 521 207.500 C 521.550 207.160, 522 205.478, 522 203.762 C 522 200.020, 524.040 194, 525.308 194 C 525.806 194, 525.960 193.339, 525.651 192.532 C 525.341 191.725, 525.525 190.794, 526.059 190.464 C 526.593 190.133, 527.640 188.432, 528.385 186.682 C 531.694 178.912, 545.342 165.948, 555.016 161.385 C 564.569 156.881, 566.713 156.115, 573.136 154.917 C 578.265 153.960, 581.086 153.942, 585.553 154.839 C 588.732 155.478, 592.513 156, 593.955 156 C 595.397 156, 598.360 156.912, 600.539 158.027 C 604.222 159.911, 604.526 159.931, 604.864 158.315 C 605.064 157.358, 604.671 156.390, 603.989 156.163 C 603.308 155.936, 601.906 154.906, 600.875 153.875 C 599.844 152.844, 598.759 152, 598.465 152 C 598.170 152, 596.728 151.213, 595.260 150.251 C 591.973 148.097, 586.207 146.035, 583.417 146.015 C 582.271 146.007, 581.070 145.737, 580.748 145.415 C 579.956 144.622, 562.906 144.341, 562.430 145.113 M 678.250 151.491 C 676.462 152.268, 675 153.375, 675 153.952 C 675 155.561, 676.218 155.159, 679.500 152.469 C 682.932 149.656, 682.767 149.527, 678.250 151.491 M 897.750 164.672 C 895.688 164.919, 894 165.544, 894 166.060 C 894 166.577, 893.127 167, 892.059 167 C 890.991 167, 889.840 167.450, 889.500 168 C 889.160 168.550, 888.009 169, 886.941 169 C 885.873 169, 885.002 169.563, 885.005 170.250 C 885.009 171.163, 887.658 171.506, 894.836 171.524 C 902.427 171.542, 905.259 171.940, 907.295 173.274 C 908.744 174.223, 910.764 175, 911.785 175 C 912.805 175, 915.480 176.575, 917.729 178.500 C 919.978 180.425, 922.099 182, 922.443 182 C 924.237 182, 934.240 194.870, 935.958 199.389 C 936.557 200.965, 937.327 205.572, 937.670 209.627 C 938.013 213.682, 938.383 217, 938.493 217 C 939.619 217, 945 213.631, 945 212.927 C 945 212.417, 945.618 212, 946.373 212 C 947.830 212, 949.326 202.394, 948.164 200.500 C 947.826 199.950, 947.684 198.686, 947.848 197.690 C 948.012 196.695, 947.728 195.345, 947.218 194.690 C 946.708 194.036, 945.663 191.315, 944.896 188.645 C 943.307 183.112, 934.328 172.371, 930.486 171.407 C 929.198 171.084, 927.918 170.230, 927.642 169.509 C 927.365 168.789, 925.195 167.879, 922.820 167.487 C 920.444 167.095, 918.037 166.403, 917.472 165.949 C 916.200 164.928, 902.836 164.063, 897.750 164.672 M 735.598 172.736 C 735.269 173.064, 735 174.201, 735 175.262 C 735 176.323, 734.051 178.524, 732.891 180.153 C 729.726 184.598, 731.248 184.641, 736.786 180.264 C 740.786 177.102, 741.518 176.069, 740.616 174.865 C 739.293 173.100, 736.443 171.891, 735.598 172.736 M 615.360 186.460 C 614.263 187.229, 611.596 188.002, 609.433 188.179 C 606.746 188.398, 605.500 188.975, 605.500 190 C 605.500 191.128, 607.111 191.624, 612 192 C 615.575 192.275, 618.997 192.824, 619.606 193.220 C 621.018 194.139, 620.196 189.212, 618.532 186.781 C 617.503 185.279, 617.105 185.238, 615.360 186.460 M 574.426 206.525 C 572.386 209.014, 570.995 211.328, 571.335 211.668 C 572.177 212.510, 575 210.058, 575 208.485 C 575 207.786, 575.613 206.979, 576.361 206.692 C 577.526 206.245, 579.437 202, 578.473 202 C 578.287 202, 576.465 204.036, 574.426 206.525 M 970.500 223.611 C 969.400 223.889, 967.825 224.389, 967 224.722 C 966.175 225.055, 965.185 225.366, 964.800 225.414 C 964.415 225.461, 963.609 225.991, 963.008 226.592 C 962.219 227.381, 963.522 227.667, 967.708 227.622 C 971.309 227.584, 974.787 228.211, 976.904 229.280 C 978.776 230.226, 980.919 231, 981.667 231 C 984.248 231, 991 235.930, 991 237.815 C 991 238.263, 992.583 239.384, 994.518 240.307 C 996.453 241.230, 998.568 243.226, 999.219 244.742 C 999.870 246.259, 1001.130 248.625, 1002.020 250 C 1003.992 253.048, 1006 259.792, 1006 263.366 C 1006 264.815, 1006.450 266, 1007 266 C 1008.216 266, 1008.351 273.697, 1007.144 274.167 C 1006.673 274.350, 1006.060 276.579, 1005.781 279.120 C 1005.328 283.258, 1005.469 283.690, 1007.137 283.254 C 1008.162 282.986, 1009.003 282.257, 1009.006 281.633 C 1009.010 281.010, 1009.682 279.215, 1010.501 277.645 C 1012.997 272.859, 1013.960 263.897, 1012.844 255.844 C 1012.286 251.811, 1011.508 248.284, 1011.115 248.006 C 1010.723 247.728, 1009.840 245.576, 1009.153 243.224 C 1007.673 238.155, 998.461 228.377, 994.246 227.399 C 992.736 227.049, 990.446 226.103, 989.157 225.297 C 986.789 223.816, 974.190 222.678, 970.500 223.611 M 870.461 227.455 C 868.832 228.756, 867.725 230.046, 868 230.321 C 868.275 230.596, 869.832 229.756, 871.461 228.455 C 873.089 227.153, 874.197 225.864, 873.922 225.589 C 873.647 225.314, 872.089 226.153, 870.461 227.455 M 495 233.875 C 494.175 234.317, 490.451 236.214, 486.724 238.090 C 478.256 242.351, 474.284 246.431, 469.162 256.129 C 464.132 265.653, 462.561 273.679, 463.616 284.473 C 464.047 288.888, 464.554 291.375, 464.742 290 C 464.930 288.625, 465.488 286.600, 465.982 285.500 C 466.477 284.400, 467.337 281.214, 467.894 278.419 C 468.869 273.527, 475.320 261.054, 479.161 256.634 C 481.162 254.331, 485.253 250.156, 488.565 247.034 C 490.854 244.877, 499.437 240.258, 505.285 238.037 C 511.193 235.793, 509.874 233.550, 502.490 233.285 C 499.195 233.166, 495.825 233.432, 495 233.875 M 694.500 236.338 C 692.300 236.861, 690.194 237.762, 689.819 238.341 C 688.878 239.797, 669.021 239.652, 668.113 238.183 C 667.733 237.568, 665.882 236.938, 663.999 236.782 L 660.577 236.500 659.767 241.954 C 659.322 244.954, 658.479 247.704, 657.893 248.066 C 657.308 248.428, 656.980 248.961, 657.165 249.251 C 657.349 249.541, 656.263 251.669, 654.750 253.979 C 653.237 256.289, 652 258.573, 652 259.055 C 652 260.578, 645.854 267, 644.396 267 C 643.628 267, 643 267.635, 643 268.411 C 643 269.187, 641.538 270.994, 639.750 272.426 C 637.962 273.858, 635.849 275.574, 635.053 276.238 C 633.198 277.788, 628.459 280.460, 624 282.472 C 622.075 283.340, 619.764 284.461, 618.864 284.962 C 617.964 285.464, 614.364 286.401, 610.864 287.045 C 607.364 287.689, 603.719 288.617, 602.764 289.108 C 600.541 290.250, 589.288 290.275, 588.586 289.140 C 588.294 288.666, 585.980 287.995, 583.445 287.647 C 580.909 287.300, 577.635 286.388, 576.168 285.621 C 574.700 284.853, 572.375 283.715, 571 283.092 C 569.625 282.469, 566.990 280.999, 565.145 279.826 L 561.791 277.694 559.145 280.982 C 555.150 285.948, 544 306.169, 544 308.447 C 544 308.853, 543.100 310.329, 542 311.727 C 540.900 313.126, 539.997 315.672, 539.993 317.385 C 539.990 319.098, 539.102 321.843, 538.019 323.485 C 536.937 325.126, 535.759 328.501, 535.400 330.985 C 535.041 333.468, 534.413 335.950, 534.004 336.500 C 533.595 337.050, 532.701 340.650, 532.017 344.500 C 531.333 348.350, 530.401 352.400, 529.946 353.500 C 528.683 356.553, 527 365.689, 527 369.490 C 527 371.356, 526.570 373.148, 526.044 373.473 C 525.518 373.798, 525.341 374.725, 525.651 375.532 C 525.960 376.339, 525.716 377, 525.107 377 C 524.468 377, 524 378.834, 524 381.341 C 524 387.209, 522.090 402.025, 521.015 404.500 C 520.537 405.600, 519.956 408.525, 519.724 411 L 519.302 415.500 525.635 415.573 C 529.119 415.612, 533.138 416.271, 534.568 417.037 C 536.968 418.321, 537.314 418.238, 539.062 415.964 C 540.103 414.609, 540.966 413.092, 540.978 412.594 C 541.021 410.841, 549.090 403.783, 553.746 401.426 C 556.336 400.114, 560.940 398.498, 563.978 397.833 C 567.015 397.168, 569.735 396.285, 570.022 395.872 C 572.514 392.283, 628.525 392.324, 636.500 395.920 C 637.600 396.416, 641.313 397.374, 644.750 398.048 C 648.188 398.722, 651 399.622, 651 400.049 C 651 400.475, 652.715 401.114, 654.811 401.468 C 656.907 401.822, 659.944 403.006, 661.561 404.099 C 663.177 405.191, 665.850 406.671, 667.500 407.388 C 672.580 409.592, 681.816 418.814, 684.243 424.106 C 685.852 427.612, 686.929 428.855, 687.999 428.439 C 688.825 428.118, 692.552 427.596, 696.282 427.280 C 700.013 426.963, 703.302 426.321, 703.591 425.852 C 704.332 424.653, 716.749 424.785, 717.500 426 C 717.840 426.550, 719.644 427, 721.510 427 C 725.518 427, 735.284 428.967, 736 429.919 C 736.275 430.285, 738.525 431.217, 741 431.990 C 743.475 432.763, 746.585 434.081, 747.910 434.918 C 750.118 436.312, 750.411 436.285, 751.410 434.586 C 752.010 433.566, 753.513 431.490, 754.750 429.972 C 755.987 428.453, 757 426.714, 757 426.106 C 757 425.498, 757.563 424.987, 758.250 424.972 C 758.938 424.957, 761.268 423.607, 763.428 421.972 C 765.589 420.337, 767.839 418.997, 768.428 418.994 C 769.018 418.990, 770.721 418.351, 772.213 417.572 C 773.705 416.794, 777.530 415.619, 780.713 414.962 C 783.896 414.305, 786.816 413.265, 787.202 412.653 C 788.151 411.145, 828.845 411.150, 829.817 412.658 C 830.193 413.241, 833.875 414.042, 838 414.438 C 842.125 414.834, 846.850 415.739, 848.500 416.450 C 850.150 417.160, 853.525 418.302, 856 418.988 C 858.475 419.674, 861.175 420.477, 862 420.771 C 862.825 421.066, 863.950 421.376, 864.500 421.460 C 867.407 421.908, 879.751 427.896, 883.594 430.724 C 885.296 431.976, 887.096 433.031, 887.594 433.069 C 888.883 433.167, 898 445.658, 898 447.325 C 898 448.318, 900.043 448.903, 905.176 449.380 C 909.122 449.747, 912.843 450.455, 913.444 450.954 C 914.045 451.453, 917.679 452.398, 921.519 453.053 C 925.358 453.709, 928.991 454.637, 929.592 455.114 C 930.193 455.592, 931.005 455.662, 931.396 455.270 C 931.788 454.878, 932.422 455.037, 932.804 455.622 C 933.187 456.207, 934.877 456.953, 936.560 457.280 L 939.620 457.874 940.635 450.187 C 941.613 442.781, 941.010 438.561, 938.742 436.923 C 938.303 436.606, 937.426 433.569, 936.795 430.173 C 936.164 426.778, 935.242 424, 934.747 424 C 934.252 424, 933.980 422.449, 934.144 420.554 C 934.307 418.658, 934.116 416.783, 933.720 416.387 C 932.788 415.455, 932.779 402.555, 933.709 401.624 C 934.099 401.234, 934.288 399.111, 934.129 396.906 C 933.970 394.702, 934.254 392.359, 934.760 391.699 C 935.267 391.040, 936.244 387.238, 936.931 383.250 C 937.619 379.262, 938.541 376, 938.980 376 C 939.418 376, 940.055 374.538, 940.394 372.750 C 940.733 370.962, 941.697 368.186, 942.535 366.579 C 944.513 362.787, 943.564 361.892, 935.901 360.329 C 928.773 358.875, 916.208 352.915, 912.942 349.438 C 911.682 348.097, 910.245 347, 909.749 347 C 908.723 347, 903 341.494, 903 340.507 C 903 340.151, 901.650 337.898, 900 335.500 C 898.350 333.102, 897 330.658, 897 330.070 C 897 329.481, 896.600 329, 896.111 329 C 895.623 329, 894.945 327.538, 894.606 325.750 C 894.267 323.962, 893.264 321.150, 892.378 319.500 C 890.141 315.336, 889.798 291.155, 891.940 288.574 C 893.277 286.961, 893.100 286.889, 889.440 287.550 C 887.273 287.941, 884.868 288.765, 884.096 289.380 C 882.206 290.888, 858.794 290.888, 856.904 289.380 C 856.132 288.765, 853.772 287.949, 851.660 287.568 C 849.548 287.187, 845.498 285.564, 842.660 283.960 C 839.822 282.356, 836.315 280.375, 834.866 279.557 C 831.949 277.909, 822 268.219, 822 267.026 C 822 266.610, 821.162 265.197, 820.138 263.885 C 819.113 262.573, 817.935 260.375, 817.519 259 C 817.104 257.625, 816.192 255.825, 815.493 255 C 814.794 254.175, 813.914 251.925, 813.537 250 C 811.986 242.086, 811.229 241.335, 809 245.500 C 808.264 246.875, 807.256 248, 806.760 248 C 806.265 248, 803.753 249.775, 801.179 251.943 C 795.732 256.534, 786.901 261.436, 782.250 262.450 C 780.462 262.840, 779 263.496, 779 263.908 C 779 264.897, 769.766 267, 765.424 267 C 763.541 267, 762 267.450, 762 268 C 762 268.588, 758.500 269, 753.500 269 C 748.825 269, 745 268.597, 745 268.105 C 745 267.613, 743.087 266.931, 740.750 266.590 C 738.413 266.249, 735.593 265.835, 734.485 265.669 C 731.453 265.216, 721.502 260.310, 720.039 258.547 C 719.333 257.696, 718.009 257, 717.096 257 C 715.103 257, 703.649 245.684, 704.640 244.694 C 705.021 244.312, 704.808 244, 704.167 244 C 703.525 244, 703 243.526, 703 242.947 C 703 242.368, 701.987 240.430, 700.750 238.640 C 698.597 235.526, 698.328 235.427, 694.500 236.338 M 933 240.583 C 933 242.349, 935.153 242.042, 935.771 240.188 C 935.989 239.534, 935.454 239, 934.583 239 C 933.712 239, 933 239.713, 933 240.583 M 779 242.722 C 779 243.302, 777.313 244.090, 775.250 244.472 C 773.188 244.853, 770.125 245.813, 768.444 246.605 C 766.763 247.396, 761.873 248.236, 757.578 248.471 C 750.195 248.874, 745.598 250, 751.333 250 C 752.800 250, 754 250.540, 754 251.200 C 754 252.133, 754.267 252.133, 755.200 251.200 C 755.860 250.540, 757.945 250, 759.834 250 C 763.901 250, 770.702 248.163, 773.473 246.315 C 774.557 245.592, 776.218 245, 777.163 245 C 779.016 245, 780.580 243.246, 779.600 242.267 C 779.270 241.937, 779 242.142, 779 242.722 M 740.083 248.367 C 740.313 248.569, 742.300 249.009, 744.500 249.344 C 747.288 249.768, 747.894 249.678, 746.500 249.047 C 744.580 248.177, 739.224 247.610, 740.083 248.367 M 976 253 C 976 253.550, 976.567 254, 977.259 254 C 977.952 254, 979.081 254.900, 979.768 256 C 980.455 257.100, 981.547 258, 982.196 258 C 982.844 258, 982.081 256.650, 980.500 255 C 977.553 251.924, 976 251.234, 976 253 M 610.500 266.724 C 609.400 266.994, 607.939 267.671, 607.253 268.228 C 606.567 268.785, 602.517 269.573, 598.253 269.980 C 591.652 270.610, 591.260 270.741, 595.614 270.860 C 602.381 271.045, 610.741 269.402, 612.628 267.515 C 614.183 265.960, 613.953 265.875, 610.500 266.724 M 849 266.726 C 849.825 267.038, 850.859 267.900, 851.297 268.642 C 851.736 269.384, 853.873 270.276, 856.047 270.624 C 858.221 270.971, 860 271.648, 860 272.128 C 860 272.608, 860.900 273, 862 273 C 863.100 273, 864 272.602, 864 272.117 C 864 271.159, 860.613 270.036, 857.658 270.014 C 856.644 270.006, 854.671 269.100, 853.273 268 C 851.874 266.900, 850.003 266.036, 849.115 266.079 C 847.754 266.145, 847.736 266.247, 849 266.726 M 1020 304.023 C 1018.729 304.863, 1018.882 305.315, 1021 306.985 C 1022.375 308.069, 1023.879 308.966, 1024.341 308.978 C 1025.715 309.014, 1035.987 319.391, 1035.994 320.750 C 1035.997 321.438, 1036.378 322, 1036.840 322 C 1037.302 322, 1038.283 323.913, 1039.020 326.250 C 1039.757 328.587, 1040.677 330.950, 1041.064 331.500 C 1041.451 332.050, 1042.325 335.667, 1043.006 339.537 C 1044.424 347.595, 1042.974 362.771, 1040.441 366.388 C 1039.648 367.519, 1039 369.210, 1039 370.146 C 1039 371.081, 1037.875 373.184, 1036.500 374.818 C 1032.050 380.106, 1033.853 380.577, 1038.978 375.465 C 1041.716 372.734, 1043.966 370.132, 1043.978 369.683 C 1043.990 369.234, 1045.125 367.392, 1046.500 365.589 C 1047.875 363.786, 1049 361.566, 1049 360.656 C 1049 359.745, 1049.413 359, 1049.917 359 C 1051.316 359, 1053 349.727, 1053 342.027 C 1053 333.717, 1051.286 325.443, 1048.820 321.846 C 1047.819 320.386, 1047 318.794, 1047 318.308 C 1047 317.003, 1037.625 308, 1036.265 308 C 1035.624 308, 1034.740 307.428, 1034.300 306.729 C 1032.316 303.576, 1023.266 301.863, 1020 304.023 M 480 314.820 C 480 316.057, 484.794 319.971, 487.629 321.049 C 492.550 322.920, 492.311 321.952, 487.202 319.320 C 484.341 317.846, 482 316.046, 482 315.320 C 482 314.594, 481.550 314, 481 314 C 480.450 314, 480 314.369, 480 314.820 M 1009 327.174 C 1009 328.843, 1009.274 329.018, 1010.411 328.074 C 1011.376 327.273, 1012.027 327.235, 1012.470 327.951 C 1013.264 329.236, 1015 329.336, 1015 328.098 C 1015 327.602, 1013.650 326.725, 1012 326.150 C 1009.296 325.207, 1009 325.308, 1009 327.174 M 915.654 327.784 C 916.371 330.528, 921 334.924, 921 332.861 C 921 332.043, 919.677 330.107, 918.060 328.557 C 915.522 326.126, 915.193 326.020, 915.654 327.784 M 266.861 341.607 C 265.047 342.566, 264.010 344.133, 263.544 346.618 C 262.801 350.579, 263.798 362.905, 264.991 364.500 C 265.402 365.050, 265.999 367.525, 266.317 370 C 267.934 382.574, 269.158 389.695, 270.013 391.500 C 270.535 392.600, 271.405 397.198, 271.949 401.718 C 273.055 410.930, 274.902 413.785, 280.325 414.665 C 284.267 415.305, 288.513 412.283, 289.308 408.273 C 289.919 405.187, 288.276 391.615, 286.914 388.500 C 286.432 387.400, 285.579 382.675, 285.016 378 C 284.454 373.325, 283.563 369.356, 283.036 369.180 C 282.509 369.004, 282.342 367.542, 282.664 365.932 C 282.986 364.322, 282.786 362.441, 282.221 361.752 C 281.655 361.064, 280.877 357.800, 280.490 354.500 C 279.748 348.157, 278.113 344.608, 274.625 341.772 C 272.128 339.742, 270.457 339.706, 266.861 341.607 M 495.185 345.492 C 493.970 347.037, 492.699 350.033, 492.360 352.150 C 492.021 354.268, 491.352 356, 490.872 356 C 490.392 356, 490.014 356.788, 490.032 357.750 C 490.060 359.311, 490.227 359.284, 491.575 357.500 C 492.407 356.400, 493.366 354.375, 493.708 353 C 494.050 351.625, 495.207 349.306, 496.280 347.848 C 499.018 344.126, 497.993 341.922, 495.185 345.492 M 617 349 C 617 349.550, 615.399 350, 613.443 350 C 608.167 350, 601.277 351.862, 594.303 355.173 C 588.196 358.072, 582 363.752, 582 366.451 C 582 367.211, 581.438 368.030, 580.750 368.271 C 579.834 368.591, 579.967 369.235, 581.250 370.683 C 582.212 371.769, 583 373.300, 583 374.085 C 583 376.245, 588.572 378.299, 592.546 377.604 C 594.446 377.272, 597.688 376.722, 599.750 376.381 C 601.813 376.041, 604.069 375.306, 604.765 374.747 C 606.371 373.456, 619.287 372.495, 621.690 373.488 C 622.685 373.899, 626.087 374.150, 629.250 374.047 C 632.413 373.943, 635 374.278, 635 374.790 C 635 375.302, 637.307 375.995, 640.126 376.329 C 642.946 376.663, 646.305 377.625, 647.591 378.468 C 648.877 379.311, 651.188 380, 652.725 380 C 656.009 380, 661 375.789, 661 373.019 C 661 371.973, 661.450 370.840, 662 370.500 C 662.550 370.160, 663 368.559, 663 366.941 C 663 365.323, 662.550 364, 662 364 C 661.450 364, 661 363.372, 661 362.604 C 661 361.047, 654.531 355, 652.866 355 C 652.281 355, 650.384 354.354, 648.651 353.564 C 643.859 351.380, 637.960 350.012, 633.309 350.006 C 631.004 350.003, 628.840 349.550, 628.500 349 C 628.160 348.450, 625.434 348, 622.441 348 C 619.448 348, 617 348.450, 617 349 M 806 368.250 C 803.525 368.852, 801.275 369.605, 801 369.923 C 800.725 370.240, 799.600 370.987, 798.500 371.582 C 797.400 372.177, 796.056 373.639, 795.513 374.832 C 794.970 376.024, 794.203 377, 793.808 377 C 793.414 377, 792.798 378.562, 792.439 380.472 C 791.890 383.400, 792.282 384.568, 794.939 387.923 C 796.907 390.407, 798.637 391.693, 799.545 391.344 C 800.345 391.037, 801 391.284, 801 391.893 C 801 393.273, 804.660 393.360, 805.500 392 C 806.269 390.756, 822.394 390.672, 824.764 391.900 C 825.719 392.394, 830.100 393.342, 834.500 394.004 C 838.900 394.667, 842.725 395.547, 843 395.960 C 843.275 396.372, 845.097 397.231, 847.050 397.866 C 849.002 398.502, 853.191 400.368, 856.359 402.011 C 859.527 403.655, 862.880 404.985, 863.810 404.967 C 865.603 404.931, 870 401.701, 870 400.418 C 870 400, 870.704 398.880, 871.564 397.929 C 872.727 396.644, 872.944 395.217, 872.409 392.365 C 871.561 387.845, 863.770 379.811, 856.837 376.308 C 849.668 372.686, 844.579 370.680, 843.150 370.913 C 842.408 371.034, 840.248 370.396, 838.349 369.496 C 834.056 367.458, 812.642 366.634, 806 368.250 M 169.590 376.055 C 167.022 378.310, 166 380.032, 166 382.104 C 166 383.697, 166.450 385, 167 385 C 167.550 385, 168 385.674, 168 386.497 C 168 387.321, 169.575 389.738, 171.500 391.868 C 173.425 393.999, 175 396.025, 175 396.371 C 175 396.717, 175.694 397.788, 176.543 398.750 C 180.787 403.563, 187 411.989, 187 412.933 C 187 413.520, 187.464 414, 188.031 414 C 188.599 414, 189.364 414.785, 189.732 415.744 C 190.100 416.703, 192.561 420.168, 195.201 423.444 C 197.840 426.720, 200 429.809, 200 430.309 C 200 431.286, 202.114 433.827, 208.618 440.668 C 214.617 446.978, 218.813 446.323, 223.044 438.418 C 224.119 436.409, 224.152 435.513, 223.201 434.185 C 222.538 433.258, 221.553 431.476, 221.013 430.224 C 220.472 428.973, 219.348 427.687, 218.515 427.367 C 217.682 427.048, 217 426.255, 217 425.605 C 217 424.956, 215.668 422.866, 214.041 420.962 C 212.413 419.058, 211.063 416.938, 211.041 416.250 C 211.018 415.563, 210.575 415, 210.055 415 C 209.535 415, 208.522 413.950, 207.805 412.666 C 206.034 409.497, 199.902 401.052, 197.750 398.817 C 196.787 397.818, 196 396.748, 196 396.440 C 196 395.600, 182.692 379.931, 179.117 376.563 C 177.403 374.948, 176 373.990, 176 374.435 C 176 374.881, 175.365 374.718, 174.590 374.074 C 173.468 373.144, 172.444 373.550, 169.590 376.055 M 1019.032 407.167 C 1019.049 407.900, 1019.692 409.329, 1020.459 410.342 C 1021.227 411.355, 1022.152 413.943, 1022.516 416.092 C 1022.879 418.242, 1023.586 420, 1024.088 420 C 1025.187 420, 1025.300 417.631, 1024.250 416.590 C 1023.837 416.181, 1023.050 413.780, 1022.500 411.254 C 1021.591 407.080, 1018.956 403.974, 1019.032 407.167 M 567.500 419.904 C 561.272 422.100, 557.874 424.331, 556.308 427.253 C 554.184 431.219, 552.104 438.534, 552.044 442.250 C 552.020 443.762, 551.550 445, 551 445 C 550.450 445, 550 445.450, 550 446 C 550 448.182, 552 446.833, 552.596 444.250 C 553.236 441.475, 557.856 433.786, 559.256 433.165 C 559.672 432.980, 559.778 432.450, 559.492 431.987 C 559.206 431.524, 561.501 428.412, 564.593 425.072 C 567.686 421.733, 570.054 419.045, 569.858 419.100 C 569.661 419.155, 568.600 419.517, 567.500 419.904 M 520.250 434.463 C 518.199 435.385, 518 436.155, 518 443.178 C 518 447.731, 517.547 451.162, 516.893 451.566 C 516.114 452.048, 516.169 452.486, 517.079 453.049 C 518.041 453.643, 518.087 454.191, 517.257 455.191 C 516.533 456.063, 515.941 465.847, 515.570 483.086 L 514.998 509.637 517.499 511.812 C 518.874 513.008, 520 514.863, 520 515.934 C 520 517.006, 520.450 518.160, 521 518.500 C 522.383 519.355, 522.260 527.340, 520.842 528.758 C 519.966 529.634, 519.977 530.268, 520.891 531.369 C 521.711 532.357, 521.762 533.029, 521.049 533.470 C 520.472 533.826, 520 536.390, 520 539.166 C 520 543.613, 520.208 544.118, 521.750 543.411 C 524.348 542.219, 529.879 542.479, 531.258 543.858 C 531.922 544.522, 532.634 548.537, 532.840 552.782 C 533.047 557.027, 533.701 561.097, 534.294 561.826 C 535.079 562.792, 535.015 563.373, 534.058 563.964 C 533.302 564.431, 533.075 565.313, 533.525 566.040 C 534.136 567.029, 534.543 566.981, 535.403 565.817 C 537 563.654, 541.308 562.863, 544.819 564.087 C 548.543 565.385, 549.401 568.348, 549.137 579 L 548.952 586.500 550.867 583.641 C 553.121 580.277, 557.755 577.016, 560.295 577.007 C 561.283 577.003, 563.195 578.105, 564.545 579.455 C 566.687 581.596, 567 582.808, 567 588.955 C 567 596.442, 567.783 597.506, 570.379 593.545 C 576.538 584.145, 585.170 585.047, 586.549 595.236 C 587.932 605.457, 588.846 606.422, 590.822 599.750 C 591.962 595.904, 596.961 591, 599.742 591 C 600.819 591, 602.742 586.251, 603.589 581.500 C 603.981 579.300, 605.359 576.108, 606.651 574.406 C 607.943 572.704, 609 570.976, 609 570.566 C 609 568.841, 614.668 564, 616.688 564 C 617.895 564, 619.177 563.522, 619.538 562.938 C 619.899 562.354, 621.287 561.461, 622.623 560.953 C 623.958 560.446, 625.332 559.236, 625.675 558.265 C 626.527 555.852, 630.096 552, 631.480 552 C 632.102 552, 634.136 550.875, 636 549.500 C 637.906 548.094, 640.751 547, 642.503 547 C 644.216 547, 646.491 546.339, 647.559 545.532 C 650.212 543.525, 657 543.502, 657 545.500 C 657 547.430, 658.890 547.450, 659.628 545.527 C 659.939 544.717, 661.700 543.772, 663.542 543.426 C 666.516 542.868, 666.925 542.398, 667.196 539.236 C 667.466 536.074, 667.960 535.506, 671.590 534.188 C 676.421 532.434, 679.729 533.060, 683.817 536.500 C 685.575 537.979, 688.043 539, 689.859 539 C 691.827 539, 693.286 539.667, 693.923 540.856 C 695.496 543.796, 705.357 544.471, 710.501 541.992 C 713.327 540.629, 717.059 539.991, 723.211 539.819 C 731.189 539.596, 732.132 539.776, 734.460 541.962 C 735.857 543.275, 737 545.223, 737 546.291 C 737 547.849, 737.445 548.093, 739.250 547.523 C 744.162 545.973, 747.133 545.833, 751.714 546.935 C 755.429 547.828, 757.006 548.860, 758.759 551.543 C 761.070 555.079, 762.406 555.771, 763.500 554 C 764.262 552.766, 771 552.662, 771 553.883 C 771 554.369, 771.933 555.011, 773.074 555.309 C 774.215 555.607, 775.384 556.754, 775.673 557.857 C 775.961 558.959, 776.828 560.104, 777.599 560.399 C 778.369 560.695, 779 561.851, 779 562.969 C 779 564.697, 779.644 565, 783.326 565 C 787.747 565, 790.883 567.180, 792.320 571.250 C 792.659 572.212, 793.548 573, 794.294 573 C 795.866 573, 800 577.124, 800 578.692 C 800 579.277, 800.670 580.311, 801.489 580.991 C 802.308 581.671, 802.751 582.595, 802.473 583.044 C 802.195 583.494, 802.386 584.120, 802.897 584.436 C 805.225 585.875, 808.063 594.053, 808.169 599.625 C 808.248 603.742, 808.818 606.098, 810.074 607.500 C 812.613 610.332, 813.995 614.458, 814.032 619.315 C 814.061 623.212, 814.165 623.366, 815.532 621.559 C 816.339 620.491, 817 618.859, 817 617.931 C 817 617.004, 817.661 615.697, 818.468 615.027 C 819.275 614.356, 819.841 613.514, 819.726 613.154 C 819.355 612, 822.425 608.357, 824.855 607.067 C 827.680 605.568, 833.263 606.407, 835.087 608.604 C 835.849 609.523, 836.268 612.165, 836.113 615.078 C 835.966 617.838, 836.287 620, 836.843 620 C 837.388 620, 839.258 617.075, 841 613.500 C 842.742 609.925, 844.527 607, 844.967 607 C 845.407 607, 845.994 606.130, 846.272 605.066 C 846.893 602.693, 852.671 601.394, 856.696 602.723 C 859.013 603.488, 859.659 604.461, 860.418 608.324 C 861.527 613.979, 862.454 614.215, 864.053 609.250 C 864.717 607.188, 865.659 604.995, 866.146 604.379 C 866.633 603.762, 867.715 600.956, 868.550 598.143 C 870.634 591.126, 876.252 585.609, 880.484 586.425 C 883.634 587.032, 887 590.227, 887 592.611 C 887 593.375, 887.371 594, 887.823 594 C 888.276 594, 889.164 591.222, 889.795 587.827 C 890.426 584.431, 891.335 581.394, 891.814 581.077 C 892.293 580.759, 892.988 578.947, 893.358 577.048 C 894.731 570.003, 902.036 566.358, 905.337 571.071 C 906.687 572.998, 906.833 572.704, 907.449 566.821 C 907.813 563.344, 908.474 559.600, 908.917 558.500 C 909.360 557.400, 910.269 554.799, 910.937 552.720 C 912.245 548.647, 916.248 544, 918.447 544 C 919.361 544, 920.031 542.042, 920.500 537.998 C 920.883 534.697, 921.603 531.746, 922.098 531.439 C 922.594 531.133, 923 529.853, 923 528.596 C 923 527.339, 923.848 525.543, 924.883 524.606 C 926.209 523.406, 926.897 521.099, 927.207 516.816 C 927.485 512.965, 928.202 510.322, 929.159 509.616 C 929.991 509.002, 930.964 506.250, 931.321 503.500 C 932.348 495.595, 933.047 491.618, 933.696 490 C 934.027 489.175, 934.190 487.422, 934.058 486.104 C 933.926 484.786, 934.377 482.664, 935.060 481.388 C 936.951 477.854, 934.948 476.330, 926.695 475.023 C 922.738 474.397, 918.600 473.498, 917.500 473.025 C 914.130 471.579, 903.624 469.993, 901.388 470.594 C 899.551 471.087, 899.204 472.123, 898.716 478.571 C 898.408 482.647, 897.482 487.331, 896.659 488.981 C 895.837 490.630, 894.855 493.386, 894.477 495.104 C 893.670 498.781, 887.823 510.139, 884.399 514.683 C 883.079 516.434, 882 518.162, 882 518.523 C 882 519.376, 868.300 533, 867.442 533 C 867.082 533, 865.148 534.290, 863.144 535.866 C 861.140 537.443, 858.487 539.048, 857.250 539.434 C 856.013 539.819, 855 540.519, 855 540.988 C 855 541.457, 853.538 542.146, 851.750 542.519 C 849.962 542.891, 847.578 543.779, 846.450 544.490 C 839.742 548.724, 807.071 549.052, 797.500 544.983 C 796.400 544.515, 793.813 543.562, 791.750 542.865 C 789.688 542.168, 788 541.239, 788 540.799 C 788 540.360, 787.161 540, 786.135 540 C 785.109 540, 783.144 539.115, 781.769 538.033 C 780.393 536.951, 779.051 536.282, 778.787 536.547 C 778.068 537.265, 762.132 522.327, 758.396 517.432 C 756.612 515.094, 755.418 512.916, 755.743 512.591 C 756.067 512.266, 755.880 512, 755.327 512 C 754.773 512, 753.726 510.200, 753 508 C 752.274 505.800, 751.355 504, 750.959 504 C 750.562 504, 749.701 501.868, 749.045 499.263 C 748.389 496.658, 747.491 494.071, 747.049 493.513 C 745.346 491.364, 743.889 478.126, 744.102 466.731 C 744.343 453.882, 744.214 453.536, 738.750 452.348 C 737.237 452.019, 736 451.410, 736 450.994 C 736 450.578, 733.868 449.701, 731.263 449.045 C 728.658 448.389, 725.888 447.323, 725.108 446.676 C 723.197 445.092, 695.223 445.037, 694.213 446.615 C 693.821 447.229, 692.552 448.026, 691.393 448.387 C 689.621 448.939, 689.187 450.096, 688.669 455.637 C 688.331 459.263, 687.676 462.741, 687.215 463.365 C 686.754 463.989, 685.792 466.892, 685.079 469.815 C 684.366 472.738, 683.137 476.563, 682.349 478.315 C 680.965 481.394, 680.125 483.026, 675.609 491.419 C 674.449 493.575, 671.362 497.688, 668.750 500.560 C 666.138 503.431, 664 506.280, 664 506.890 C 664 507.501, 663.492 508, 662.871 508 C 662.250 508, 660.003 509.571, 657.877 511.492 C 655.751 513.413, 652.007 515.927, 649.557 517.078 C 647.107 518.230, 644.574 519.809, 643.928 520.586 C 643.283 521.364, 641.851 522, 640.746 522 C 639.640 522, 637.333 522.845, 635.618 523.878 C 633.903 524.911, 629.579 526.071, 626.010 526.455 C 622.440 526.839, 618.953 527.624, 618.260 528.199 C 617.355 528.950, 617 528.873, 617 527.922 C 617 526.894, 616.733 526.867, 615.800 527.800 C 614.331 529.269, 599.391 529.441, 598.500 528 C 598.160 527.450, 596.176 527, 594.090 527 C 590.286 527, 586.092 525.922, 580.500 523.507 C 578.850 522.794, 576.038 521.903, 574.250 521.526 C 572.462 521.149, 571 520.400, 571 519.862 C 571 519.323, 570.629 519.111, 570.175 519.392 C 569.721 519.672, 566.684 517.757, 563.425 515.135 C 560.166 512.513, 556.702 510.071, 555.727 509.707 C 554.752 509.343, 553.659 508.248, 553.298 507.273 C 552.937 506.298, 550.248 502.800, 547.324 499.500 C 543.916 495.655, 541.445 491.705, 540.444 488.500 C 539.585 485.750, 538.275 482.375, 537.533 481 C 536.791 479.625, 535.852 476.700, 535.448 474.500 C 535.043 472.300, 534.265 470.211, 533.719 469.857 C 533.164 469.497, 532.506 461.924, 532.226 452.671 L 531.724 436.129 527.612 435.442 C 525.350 435.064, 523.275 434.462, 523 434.103 C 522.725 433.745, 521.487 433.907, 520.250 434.463 M 494.298 441.590 C 489.179 444.067, 482.217 451.127, 479.989 456.100 C 479.398 457.420, 478.278 459.616, 477.500 460.980 C 476.723 462.344, 475.781 465.944, 475.408 468.980 C 475.035 472.016, 474.279 474.789, 473.728 475.143 C 472.359 476.023, 472.424 495.026, 473.799 495.875 C 474.388 496.240, 475.180 499.004, 475.559 502.019 C 475.938 505.033, 477.093 508.903, 478.124 510.618 C 479.156 512.333, 480 514.315, 480 515.024 C 480 515.732, 481.125 517.786, 482.500 519.589 C 483.875 521.392, 485 523.162, 485 523.522 C 485 525.011, 497.818 536.051, 498.046 534.758 C 498.071 534.616, 498.352 519.650, 498.671 501.500 C 499.014 481.995, 499.659 467.989, 500.248 467.250 C 500.944 466.378, 500.845 466, 499.922 466 C 498.894 466, 498.867 465.733, 499.800 464.800 C 501.132 463.468, 501.560 438.973, 500.250 439.037 C 499.837 439.057, 497.159 440.206, 494.298 441.590 M 776.342 441.265 C 771.334 444.132, 765.983 448.639, 765.379 450.500 C 765.022 451.600, 764.409 452.725, 764.017 453 C 763.625 453.275, 762.989 455.525, 762.604 458 L 761.905 462.500 764.405 459 C 765.780 457.075, 767.602 454.787, 768.453 453.916 C 769.304 453.045, 770 451.906, 770 451.385 C 770 450.864, 772.240 448.089, 774.978 445.219 C 779.986 439.968, 780.325 438.985, 776.342 441.265 M 123.250 462.606 C 122.563 462.914, 122 464.029, 122 465.083 C 122 466.137, 121.550 467, 121 467 C 120.450 467, 120 468.093, 120 469.429 C 120 472.286, 125.937 479, 128.464 479 C 129.414 479, 131.611 479.739, 133.346 480.643 C 138.961 483.567, 139.955 484, 141.058 484 C 141.655 484, 142.786 484.643, 143.571 485.428 C 144.357 486.214, 147.587 487.423, 150.750 488.114 C 153.912 488.806, 156.840 489.928, 157.256 490.608 C 157.672 491.288, 159.472 492.160, 161.256 492.547 C 163.040 492.935, 164.738 493.624, 165.030 494.079 C 165.321 494.534, 167.463 495.210, 169.790 495.582 C 173.768 496.218, 174.236 496.030, 177.638 492.422 C 179.628 490.312, 180.749 488.416, 180.128 488.209 C 179.508 488.003, 179 487.049, 179 486.091 C 179 484.145, 175.031 480, 173.167 480 C 172.504 480, 169.432 478.650, 166.340 477 C 163.248 475.350, 159.882 474, 158.859 474 C 157.837 474, 157 473.622, 157 473.160 C 157 472.698, 155.088 471.723, 152.750 470.993 C 150.412 470.263, 147.150 468.890, 145.500 467.941 C 143.850 466.992, 140.925 465.886, 139 465.482 C 137.075 465.079, 135.241 464.343, 134.925 463.848 C 134.241 462.778, 125.045 461.800, 123.250 462.606 M 552.338 468 C 552.687 469.375, 552.979 471.288, 552.986 472.250 C 553.004 474.551, 554.669 474.487, 555.926 472.138 C 556.717 470.661, 556.383 469.783, 554.313 467.888 L 551.704 465.500 552.338 468 M 977.559 481.532 C 976.491 482.339, 974.805 483, 973.812 483 C 971.545 483, 964.352 489.418, 962.410 493.175 C 961.606 494.729, 960.347 496, 959.612 496 C 958.700 496, 958.060 498.109, 957.594 502.657 C 957.194 506.561, 956.149 510.387, 955.068 511.907 C 953.651 513.900, 953.235 516.260, 953.274 522.100 C 953.313 528.069, 952.828 530.724, 951.011 534.477 C 949.486 537.628, 948.647 541.286, 948.545 545.227 C 948.431 549.694, 947.964 551.441, 946.696 552.150 C 945.409 552.870, 945 554.481, 945 558.827 C 945 562.057, 944.401 565.415, 943.628 566.527 C 942.873 567.612, 941.929 570.075, 941.530 572 C 941.130 573.925, 940.173 576.497, 939.402 577.715 C 937.602 580.559, 937.620 580.667, 940 581.290 C 941.231 581.612, 942 582.654, 942 584 C 942 585.346, 942.769 586.388, 944 586.710 C 945.100 586.998, 946 587.599, 946 588.046 C 946 590.054, 957.309 591.225, 964.930 590.006 C 969.093 589.340, 972.950 588.472, 973.500 588.078 C 974.050 587.683, 976.413 586.757, 978.750 586.020 C 981.087 585.283, 983 584.308, 983 583.853 C 983 583.399, 984.462 582.408, 986.250 581.651 C 988.038 580.895, 990.357 579.314, 991.405 578.138 C 992.453 576.962, 993.915 576, 994.655 576 C 995.395 576, 996 575.507, 996 574.903 C 996 574.300, 997.839 571.718, 1000.086 569.164 C 1002.334 566.611, 1004.817 563.167, 1005.604 561.511 C 1006.391 559.855, 1007.673 557.375, 1008.453 556 C 1011.207 551.142, 1012.849 546.426, 1014.026 540 C 1014.680 536.425, 1015.617 532.719, 1016.108 531.764 C 1017.390 529.268, 1017.239 518, 1015.923 518 C 1015.331 518, 1014.944 516.538, 1015.062 514.750 C 1015.180 512.962, 1015.043 510.825, 1014.756 510 C 1014.470 509.175, 1013.649 506.475, 1012.932 504 C 1012.214 501.525, 1010.811 498.306, 1009.814 496.846 C 1008.816 495.386, 1008 493.944, 1008 493.641 C 1008 491.170, 996.620 483.412, 991.750 482.563 C 989.688 482.204, 988 481.480, 988 480.955 C 988 479.447, 979.709 479.905, 977.559 481.532 M 287.750 554.661 C 286.238 555.457, 285 556.505, 285 556.989 C 285 557.474, 284.484 559.137, 283.854 560.685 C 283.224 562.233, 282.807 564.737, 282.929 566.250 C 283.051 567.763, 282.667 569, 282.075 569 C 281.398 569, 281 571.960, 281 577 C 281 582.207, 281.388 585, 282.113 585 C 282.862 585, 283.096 587.290, 282.830 592 C 282.613 595.850, 282.720 599, 283.070 599 C 283.419 599, 284.259 603.837, 284.937 609.750 C 285.614 615.663, 286.542 621.400, 286.999 622.500 C 288.359 625.776, 290.313 642.617, 289.643 645.288 C 289.288 646.701, 288.053 648.021, 286.761 648.367 C 280.047 650.166, 277.128 647.747, 275.801 639.284 C 275.307 636.135, 274.561 633.320, 274.143 633.029 C 273.725 632.738, 272.800 629.800, 272.087 626.500 C 271.374 623.200, 270.429 619.600, 269.988 618.500 C 269.547 617.400, 268.650 614.250, 267.995 611.500 C 267.340 608.750, 266.555 605.825, 266.249 605 C 265.943 604.175, 265.625 603.050, 265.542 602.500 C 265.459 601.950, 264.853 600.233, 264.195 598.685 C 263.538 597.137, 262.997 594.887, 262.993 593.685 C 262.990 592.483, 262.093 590.150, 261 588.500 C 259.907 586.850, 259.010 584.735, 259.007 583.800 C 259.003 582.865, 258.438 581.740, 257.750 581.300 C 257.063 580.860, 255.754 579.150, 254.842 577.500 C 253.931 575.850, 251.906 573.825, 250.342 573 C 248.779 572.175, 247.198 571.082, 246.830 570.570 C 245.791 569.128, 239.107 574.763, 238.260 577.795 C 236.698 583.387, 238.039 606.913, 240.068 609.519 C 240.504 610.079, 241.398 613.679, 242.053 617.519 C 242.709 621.358, 243.618 624.968, 244.072 625.541 C 244.526 626.113, 245.379 628.813, 245.966 631.541 C 246.554 634.268, 247.428 637.400, 247.908 638.500 C 249.215 641.491, 252 651.042, 252 652.532 C 252 653.248, 252.542 654.014, 253.203 654.234 C 255.333 654.944, 254.443 662.223, 251.982 664.216 C 247.299 668.008, 241.559 665.068, 238.362 657.240 C 237.522 655.183, 235.747 651.165, 234.417 648.312 C 233.088 645.458, 232 642.615, 232 641.992 C 232 641.370, 230.650 638.898, 229 636.500 C 227.350 634.102, 226 631.634, 226 631.017 C 226 630.399, 224.875 628.238, 223.500 626.215 C 222.125 624.191, 221 622.126, 221 621.626 C 221 619.756, 211.774 610, 210.006 610 C 208.994 610, 207.995 609.486, 207.786 608.858 C 207.087 606.762, 200.208 612.211, 199.578 615.359 C 198.497 620.763, 198.995 630.467, 200.501 633.354 C 201.320 634.924, 201.759 636.580, 201.478 637.035 C 201.197 637.490, 201.373 638.112, 201.868 638.419 C 202.364 638.725, 203.089 641.118, 203.480 643.738 C 203.871 646.357, 204.788 649.625, 205.518 651 C 208.104 655.870, 211 662.648, 211 663.828 C 211 664.486, 212.682 668.506, 214.738 672.762 C 216.794 677.018, 218.522 680.725, 218.578 681 C 218.635 681.275, 219.428 683.173, 220.340 685.218 C 221.253 687.263, 222 690.049, 222 691.409 C 222 692.769, 222.410 694.135, 222.910 694.445 C 223.411 694.754, 224.352 698.155, 225.001 702.004 C 225.650 705.852, 226.531 709, 226.960 709 C 227.388 709, 227.990 710.552, 228.298 712.449 C 228.606 714.346, 229.522 717.383, 230.334 719.199 C 231.147 721.015, 232.605 724.750, 233.575 727.500 C 234.545 730.250, 235.938 733.210, 236.669 734.079 C 237.401 734.947, 238 736.322, 238 737.134 C 238 737.947, 239.125 740.136, 240.500 742 C 241.875 743.864, 243.004 745.864, 243.009 746.444 C 243.020 747.818, 251.617 757.847, 256.328 761.984 C 258.348 763.757, 260 766.023, 260 767.020 C 260 768.017, 260.379 768.983, 260.841 769.167 C 262.529 769.835, 262.989 775.869, 261.467 777.390 C 259.829 779.028, 259.513 783.092, 260.910 784.550 C 261.411 785.073, 262.344 798.319, 262.984 813.987 C 263.629 829.760, 264.597 843.014, 265.154 843.686 C 265.708 844.353, 266.064 846.609, 265.946 848.699 C 265.829 850.790, 265.980 853.175, 266.282 854 C 266.584 854.825, 267.099 859.550, 267.425 864.500 C 268.132 875.217, 268.775 879.802, 269.951 882.500 C 270.431 883.600, 271.344 888.542, 271.981 893.482 C 272.619 898.422, 273.507 902.922, 273.955 903.482 C 274.404 904.042, 275.313 907.761, 275.975 911.746 C 276.638 915.732, 277.569 919.234, 278.046 919.528 C 278.522 919.823, 279.442 922.760, 280.091 926.056 C 280.739 929.352, 281.639 932.277, 282.091 932.556 C 282.543 932.836, 282.659 933.725, 282.349 934.532 C 282.040 935.339, 282.212 936, 282.733 936 C 283.254 936, 284.307 937.913, 285.073 940.250 C 285.839 942.587, 287.767 946.975, 289.357 950 C 290.948 953.025, 292.756 956.509, 293.375 957.742 C 293.994 958.975, 294.837 959.988, 295.250 959.992 C 295.663 959.996, 296 960.713, 296 961.584 C 296 962.456, 300.837 968.016, 306.750 973.940 C 315.669 982.877, 318.807 985.333, 325.172 988.356 C 329.391 990.360, 333.516 992, 334.339 992 C 335.161 992, 336.001 992.502, 336.205 993.115 C 336.409 993.728, 340.272 994.725, 344.788 995.330 C 349.305 995.934, 353 996.783, 353 997.215 C 353 998.394, 381.770 998.188, 382.167 997.006 C 382.350 996.460, 386.073 995.560, 390.441 995.007 C 394.808 994.453, 398.633 993.635, 398.941 993.189 C 399.248 992.742, 402.538 991.567, 406.250 990.577 C 409.962 989.588, 413 988.378, 413 987.889 C 413 987.400, 413.788 987, 414.750 987 C 416.222 987.001, 425.703 982.855, 431 979.895 C 431.825 979.434, 434.750 977.885, 437.500 976.453 C 440.250 975.022, 443.400 973.037, 444.500 972.042 C 445.600 971.048, 447.887 969.534, 449.582 968.678 C 451.278 967.822, 454.583 965.520, 456.927 963.561 C 459.271 961.602, 461.737 960, 462.408 960 C 463.078 960, 464.903 958.667, 466.463 957.038 C 469.264 954.115, 469.292 953.965, 468.634 945.406 C 468.268 940.637, 467.331 935.332, 466.552 933.617 C 465.774 931.903, 464.624 927.913, 463.998 924.750 C 463.371 921.587, 462.414 919, 461.870 919 C 461.327 919, 461.160 918.550, 461.500 918 C 461.840 917.450, 461.681 917, 461.147 917 C 460.613 917, 459.879 915.242, 459.516 913.092 C 459.152 910.943, 458.227 908.355, 457.459 907.342 C 456.692 906.329, 456.049 904.867, 456.032 904.094 C 456.014 903.321, 454.953 901.296, 453.672 899.594 C 452.392 897.892, 450.675 895.150, 449.856 893.500 C 447.505 888.760, 445.570 885.552, 444.665 884.888 C 444.205 884.552, 443.980 884.091, 444.165 883.864 C 445.358 882.397, 418.342 854.558, 414.568 853.366 C 413.431 853.006, 411.025 851.589, 409.223 850.217 C 407.420 848.844, 405.620 848.070, 405.223 848.497 C 404.825 848.924, 405.063 849.475, 405.750 849.720 C 406.438 849.966, 407 851.335, 407 852.762 C 407 855.411, 408.552 861.125, 410.113 864.221 C 410.590 865.167, 411.274 869.096, 411.632 872.952 C 412.221 879.291, 412.055 880.298, 409.892 883.474 C 406.700 888.162, 403.266 888.206, 399.233 883.612 C 396.978 881.044, 396.085 878.808, 395.540 874.362 C 395.145 871.138, 394.212 867.150, 393.467 865.500 C 392.722 863.850, 391.578 859.688, 390.926 856.250 C 390.274 852.813, 389.348 850, 388.870 850 C 388.391 850, 388 848.717, 388 847.149 C 388 844.446, 386.836 839.915, 385.006 835.500 C 384.551 834.400, 383.645 830.575, 382.995 827 C 382.344 823.425, 381.558 819.825, 381.247 819 C 380.937 818.175, 380.778 817.091, 380.894 816.592 C 381.010 816.092, 380.724 815.417, 380.258 815.092 C 379.793 814.766, 378.822 810.900, 378.101 806.500 C 377.380 802.100, 376.435 798.275, 375.999 798 C 375.564 797.725, 374.665 793.900, 374.002 789.500 C 373.339 785.100, 372.507 781.050, 372.154 780.500 C 371.800 779.950, 370.972 776.358, 370.312 772.519 C 369.652 768.679, 368.637 765.379, 368.056 765.185 C 366.712 764.737, 366.659 756, 368 756 C 368.550 756, 369 755.265, 369 754.366 C 369 753.468, 372.150 749.416, 376 745.363 C 379.850 741.310, 383 737.390, 383 736.652 C 383 735.914, 383.900 734.495, 385 733.500 C 386.100 732.505, 387 731.268, 387 730.753 C 387 730.237, 387.888 728.686, 388.974 727.306 C 390.059 725.926, 391.234 723.268, 391.585 721.399 C 391.936 719.529, 392.541 718, 392.931 718 C 393.320 718, 394.259 715.721, 395.017 712.937 C 395.776 710.152, 396.737 707.662, 397.154 707.405 C 397.571 707.147, 397.657 706.270, 397.344 705.455 C 397.032 704.641, 397.207 703.418, 397.733 702.737 C 398.259 702.057, 399.268 699.362, 399.975 696.750 C 400.682 694.138, 401.579 692, 401.970 692 C 402.360 692, 403.274 690.200, 404 688 C 404.726 685.800, 405.626 684, 406 684 C 406.374 684, 407.274 682.200, 408 680 C 408.726 677.800, 409.677 676, 410.113 676 C 410.549 676, 411.836 674.087, 412.973 671.750 C 414.109 669.413, 416.367 665.025, 417.989 662 C 419.612 658.975, 421.236 654.543, 421.598 652.150 C 422.379 646.998, 420.571 640, 418.460 640 C 417.657 640, 417 639.570, 417 639.045 C 417 638.520, 415.481 637.806, 413.624 637.457 C 408.250 636.449, 400.495 640.719, 393.120 648.746 C 384.411 658.226, 382.550 660.857, 379.016 668.686 C 376.849 673.484, 373.622 675.964, 369.132 676.280 C 367.411 676.401, 366.003 676.728, 366.002 677.006 C 366.001 677.284, 364.630 678.118, 362.955 678.859 C 358.795 680.701, 345.641 693.752, 343.915 697.750 C 343.143 699.538, 342.224 701, 341.873 701 C 341.521 701, 340.999 701.898, 340.712 702.995 C 340.425 704.092, 339.360 705.297, 338.345 705.672 C 337.330 706.047, 336.184 706.829, 335.797 707.409 C 335.358 708.069, 334.004 707.420, 332.186 705.679 C 329.503 703.108, 329.342 702.554, 330.098 698.507 C 330.548 696.096, 332.117 691.827, 333.585 689.020 C 336.381 683.672, 347.084 672.020, 349.243 671.972 C 349.935 671.957, 352.268 670.607, 354.428 668.972 C 356.589 667.337, 358.839 666.001, 359.428 666.001 C 360.710 666.003, 360.368 655.492, 358.989 652.500 C 358.482 651.400, 357.838 635.425, 357.558 617 C 357.051 583.741, 356.527 575.444, 354.865 574.417 C 354.389 574.123, 354 573.043, 354 572.018 C 354 570.992, 352.835 568.769, 351.411 567.077 C 346.579 561.335, 337.829 564.040, 335.490 572 C 335.086 573.375, 334.375 574.979, 333.910 575.564 C 332.433 577.421, 330.969 593.808, 330.318 615.750 C 329.971 627.438, 329.361 637, 328.961 637 C 328.561 637, 327.998 637.900, 327.710 639 C 327.218 640.884, 324.931 641.575, 321 641.028 C 318.722 640.711, 315.866 637.790, 316.421 636.345 C 316.691 635.641, 316.551 634.841, 316.110 634.568 C 315.668 634.295, 314.760 627.868, 314.092 620.286 C 313.424 612.704, 312.492 605.600, 312.021 604.500 C 311.550 603.400, 310.592 597.663, 309.892 591.750 C 309.192 585.837, 308.309 581, 307.931 581 C 307.553 581, 306.727 577.532, 306.097 573.294 C 305.467 569.055, 304.599 565.343, 304.169 565.044 C 303.738 564.745, 302.802 563.055, 302.088 561.288 C 300.607 557.626, 295.021 552.948, 292.317 553.106 C 291.318 553.164, 289.262 553.864, 287.750 554.661 M 702 573.354 C 702 575.691, 697.290 580.365, 692.377 582.903 C 689.497 584.391, 687.407 584.755, 684.250 584.321 C 681.913 584, 680 583.346, 680 582.868 C 680 582.391, 679.325 582, 678.500 582 C 676.118 582, 673 578.243, 673 575.373 C 673 572.759, 672.976 572.768, 668.522 576.873 C 664.559 580.526, 663.488 581, 659.197 581 C 655.318 581, 653.879 580.500, 652 578.500 C 649.177 575.495, 648.329 575.387, 647.523 577.927 C 646.714 580.476, 640.620 584, 637.022 584 C 634.672 584, 634.044 584.523, 633.518 586.916 C 633.166 588.521, 632.230 590.081, 631.439 590.385 C 630.648 590.689, 630 591.578, 630 592.360 C 630 593.143, 628.875 594.066, 627.500 594.411 C 625.012 595.035, 624.630 596.048, 624.959 601.151 C 625.053 602.609, 624.643 604.102, 624.049 604.470 C 623.454 604.837, 623.257 605.607, 623.612 606.181 C 623.966 606.754, 623.636 607.658, 622.878 608.188 C 621.812 608.934, 621.783 609.267, 622.750 609.659 C 624.187 610.243, 624.413 613.149, 623.130 614.550 C 622.652 615.072, 622.005 617.188, 621.693 619.250 C 621.211 622.435, 621.404 623, 622.974 623 C 625.688 623, 629.711 628.331, 630.494 632.965 C 630.869 635.184, 631.586 637, 632.088 637 C 632.590 637, 633 638.870, 633 641.155 C 633 645.117, 633.085 645.233, 634.829 643.655 C 637.110 641.591, 641.594 641.498, 642.362 643.500 C 642.678 644.325, 643.626 645, 644.469 645 C 645.311 645, 646 645.671, 646 646.492 C 646 647.312, 646.900 648.545, 648 649.232 C 649.100 649.919, 650.007 651.385, 650.015 652.491 C 650.024 653.596, 650.467 655.175, 651 656 C 651.843 657.304, 651.971 657.287, 651.985 655.867 C 652.029 651.164, 668.036 652.667, 670.816 657.635 C 671.800 659.395, 671.906 659.395, 673.835 657.649 C 675.078 656.524, 676.099 653.884, 676.535 650.670 C 676.921 647.826, 678.324 643.632, 679.655 641.349 C 682.982 635.639, 687.500 634.728, 692.250 638.807 C 693.372 639.771, 694 639.896, 694 639.155 C 694 637.332, 701.092 637.744, 702.485 639.648 C 703.597 641.170, 703.936 641.151, 706.887 639.408 C 708.919 638.207, 710.343 637.887, 710.792 638.530 C 711.182 639.086, 712.747 640.089, 714.270 640.758 C 717.368 642.119, 719.196 645.907, 718.957 650.467 C 718.463 659.864, 719.762 664.638, 722.158 662.242 C 722.841 661.559, 724.666 661, 726.214 661 C 727.761 661, 729.945 660.438, 731.066 659.750 C 732.882 658.636, 733.523 658.946, 736.947 662.598 L 740.789 666.697 743.145 662.847 C 745.369 659.212, 750.781 655, 753.228 655 C 753.841 655, 755.156 655.736, 756.150 656.636 C 757.827 658.154, 758.007 658.146, 758.624 656.536 C 760.664 651.220, 768.423 647.550, 772.738 649.860 C 774.603 650.858, 774.801 650.560, 775.432 645.805 C 775.806 642.982, 776.987 639.561, 778.056 638.201 C 779.125 636.842, 780 635.278, 780 634.725 C 780 634.173, 780.754 633.169, 781.676 632.495 C 782.908 631.594, 783.454 629.317, 783.739 623.905 C 783.958 619.736, 784.637 616.224, 785.304 615.812 C 786.171 615.276, 786.023 614.309, 784.741 612.138 C 783.783 610.517, 783 608.303, 783 607.218 C 783 606.133, 782.369 604.721, 781.598 604.082 C 780.827 603.442, 779.604 600.912, 778.880 598.459 C 778.156 596.007, 777.212 594, 776.782 594 C 776.352 594, 775.964 593.212, 775.921 592.250 C 775.874 591.205, 775.639 591.003, 775.338 591.750 C 774.596 593.588, 771.204 593.277, 766.349 590.927 C 763.243 589.423, 761.471 587.660, 759.895 584.505 C 757.984 580.677, 757.500 580.295, 755.862 581.318 C 754.838 581.958, 754 583.004, 754 583.643 C 754 584.975, 748.811 587, 745.398 587 C 740.623 587, 734.265 582.739, 732.612 578.431 C 732.027 576.906, 731.575 577.161, 729.528 580.174 C 728.208 582.115, 725.743 584.278, 724.048 584.980 C 720.326 586.522, 712.064 585.792, 710.561 583.790 C 709.977 583.012, 708.712 582.081, 707.750 581.719 C 706.788 581.358, 706 580.374, 706 579.531 C 706 578.689, 705.523 578, 704.941 578 C 704.359 578, 704.160 577.551, 704.499 577.002 C 704.838 576.453, 704.415 575.003, 703.558 573.779 C 702.215 571.862, 702 571.804, 702 573.354 M 653.381 592.528 C 650.380 595.529, 650.785 599.717, 654.422 603.294 C 657.583 606.401, 665.615 612, 666.913 612 C 667.511 612, 668 612.369, 668 612.819 C 668 613.270, 670.279 614.259, 673.063 615.017 C 675.848 615.776, 678.354 616.764, 678.632 617.214 C 678.911 617.664, 679.544 617.782, 680.041 617.475 C 680.537 617.168, 681.969 617.561, 683.222 618.348 C 684.475 619.135, 688.875 620.092, 693 620.475 C 697.125 620.857, 701.082 621.653, 701.792 622.243 C 702.718 623.011, 703.414 622.986, 704.242 622.158 C 705.765 620.635, 710.514 620.680, 713.014 622.241 C 714.549 623.199, 715.429 623.213, 716.886 622.303 C 717.924 621.655, 721.636 620.813, 725.136 620.431 C 728.636 620.049, 732.400 619.236, 733.500 618.623 C 734.600 618.010, 735.950 617.464, 736.500 617.408 C 739.468 617.107, 754 610.056, 754 608.917 C 754 608.413, 754.597 608, 755.326 608 C 757.702 608, 761 603.500, 761 600.258 C 761 598.086, 760.203 596.519, 758.365 595.073 C 754.898 592.345, 752.079 592.457, 747.595 595.500 C 745.569 596.875, 743.663 598, 743.360 598 C 743.057 598, 741.582 598.873, 740.084 599.940 C 738.585 601.008, 735.253 602.411, 732.679 603.059 C 730.106 603.707, 728 604.576, 728 604.989 C 728 605.403, 723.163 606.259, 717.250 606.892 C 706.278 608.066, 692.196 607.207, 688.319 605.127 C 687.319 604.591, 684.310 603.594, 681.634 602.913 C 677.006 601.736, 668.949 596.689, 664.395 592.114 C 661.452 589.158, 656.567 589.342, 653.381 592.528 M 823.750 709.689 C 822.788 709.941, 822 710.514, 822 710.962 C 822 711.410, 820.377 712.082, 818.393 712.454 C 816.410 712.826, 813.597 713.624, 812.143 714.227 C 810.689 714.830, 809.115 715.235, 808.645 715.126 C 808.174 715.018, 807.274 715.353, 806.645 715.871 C 806.015 716.389, 802.575 717.349, 799 718.005 C 795.425 718.661, 791.150 719.773, 789.500 720.475 C 787.850 721.178, 783.830 722.047, 780.566 722.406 C 777.302 722.766, 774.152 723.454, 773.566 723.935 C 772.980 724.416, 766.425 725.348, 759 726.005 C 751.575 726.662, 745.201 727.682, 744.835 728.271 C 743.858 729.846, 692.328 729.517, 690.408 727.923 C 689.621 727.271, 684.998 726.455, 680.134 726.111 C 675.270 725.768, 670.611 724.922, 669.779 724.232 C 668.948 723.542, 664.505 722.506, 659.906 721.929 C 655.307 721.352, 651.309 720.512, 651.022 720.061 C 650.735 719.610, 647.913 718.665, 644.750 717.961 C 641.587 717.258, 639 716.255, 639 715.734 C 639 715.213, 638.380 715.024, 637.622 715.315 C 636.864 715.606, 635.851 715.487, 635.372 715.051 C 634.148 713.938, 629 712.814, 629 713.660 C 629 714.768, 631.432 721.448, 632.037 722 C 632.338 722.275, 633.236 724.525, 634.034 727 C 635.108 730.333, 637.729 733.769, 644.141 740.250 C 648.903 745.063, 653.519 749, 654.399 749 C 655.280 749, 656 749.358, 656 749.796 C 656 750.983, 671.822 758.717, 677 760.061 C 679.475 760.703, 682.175 761.471, 683 761.768 C 683.825 762.064, 684.950 762.376, 685.500 762.460 C 686.050 762.545, 687.175 762.907, 688 763.266 C 696.436 766.930, 742.003 766.587, 746.676 762.825 C 747.323 762.304, 748.448 762, 749.176 762.149 C 749.904 762.298, 751.400 761.934, 752.500 761.341 C 753.600 760.748, 756.168 759.962, 758.208 759.594 C 760.247 759.226, 763.172 758.270, 764.708 757.469 C 766.243 756.668, 768.486 756.010, 769.691 756.006 C 770.896 756.003, 772.147 755.572, 772.470 755.048 C 772.794 754.525, 776.083 752.616, 779.779 750.806 C 787.868 746.844, 795.717 742.204, 800.772 738.394 C 809.922 731.497, 821.334 719.093, 825.758 711.235 C 827.032 708.974, 826.894 708.868, 823.750 709.689 M 509.994 865.250 C 509.990 865.938, 509.336 867.750, 508.539 869.278 C 507.742 870.806, 506.561 874.743, 505.915 878.028 C 505.269 881.313, 504.434 884, 504.061 884 C 503.688 884, 502.799 888.163, 502.086 893.250 C 501.372 898.337, 500.417 902.959, 499.962 903.521 C 499.219 904.439, 496.722 919.901, 496.615 924.250 C 496.591 925.212, 496.198 926, 495.742 926 C 495.286 926, 495.003 926.563, 495.114 927.250 C 495.225 927.938, 495.057 929.175, 494.740 930 C 494.424 930.825, 493.960 933.303, 493.710 935.507 C 493.328 938.879, 493.643 939.807, 495.696 941.355 C 497.984 943.081, 498.214 943.090, 499.380 941.495 C 500.064 940.560, 501.187 934.112, 501.876 927.167 C 502.565 920.221, 503.541 914.284, 504.045 913.972 C 504.550 913.660, 505.484 908.814, 506.122 903.203 C 506.760 897.591, 507.703 893, 508.218 893 C 508.732 893, 509.056 891.538, 508.938 889.750 C 508.820 887.962, 508.956 885.825, 509.242 885 C 509.763 883.491, 512 867.434, 512 865.198 C 512 864.539, 511.550 864, 511 864 C 510.450 864, 509.997 864.563, 509.994 865.250 M 899.630 903.250 C 898.597 907.104, 898.929 921.838, 900.064 922.539 C 900.674 922.917, 901.053 926.035, 900.953 929.849 C 900.856 933.507, 901.020 937.175, 901.316 938 C 901.825 939.416, 902.938 954.928, 903.267 965.180 L 903.418 969.860 906.906 969.637 C 909.957 969.441, 910.505 968.991, 911.268 966.047 C 911.988 963.269, 911.748 962.151, 909.898 959.648 C 908.424 957.654, 908.057 956.481, 908.828 956.224 C 910.154 955.782, 910.439 950.389, 909.178 949.610 C 908.726 949.331, 907.762 942.104, 907.036 933.551 C 906.310 924.998, 905.394 918, 905.001 918 C 904.607 918, 904.002 915.289, 903.655 911.975 C 902.558 901.482, 901.006 898.117, 899.630 903.250" stroke="none" fill="#171916" fill-rule="evenodd"/>
</svg>