<svg role="img" aria-labelledby="artwork-title" shape-rendering="geometricPrecision" xmlns="http://www.w3.org/2000/svg" width="1200" height="1200" viewBox="0 0 1200 1200" version="1.1">
	<title id="artwork-title">Mascot introducing himself with an open hand</title>
	<path d="M 825 87.796 C 825 88.234, 821.846 89.134, 817.991 89.795 C 805.516 91.934, 790.209 100.821, 780.936 111.309 L 777.371 115.341 771.813 109.920 C 764.110 102.408, 760.660 99.949, 751.940 95.758 C 736.834 88.499, 713.871 88.229, 698.261 95.127 C 695.929 96.157, 693.454 97.008, 692.761 97.018 C 692.067 97.028, 689.520 98.378, 687.100 100.018 C 684.679 101.658, 682.102 103, 681.373 103 C 680.643 103, 679.294 104.148, 678.375 105.551 C 677.455 106.954, 675.399 108.777, 673.805 109.601 C 670.513 111.303, 659.617 125.651, 657.800 130.675 C 657.139 132.504, 656.239 134, 655.799 134 C 655.360 134, 655 134.646, 655 135.435 C 655 136.224, 654.564 138.017, 654.031 139.420 L 653.061 141.970 647.281 138.954 C 639.577 134.935, 633.258 133.252, 622.861 132.449 C 612.393 131.641, 601.424 133.258, 594.668 136.606 C 592.010 137.923, 589.391 139, 588.847 139 C 588.303 139, 584.966 141.064, 581.432 143.586 C 573.504 149.243, 562.674 160.956, 559.792 166.990 C 558.607 169.471, 557.349 171.725, 556.996 172 C 555.366 173.270, 552 185.727, 552 190.490 C 552 192.355, 551.550 194.160, 551 194.500 C 549.785 195.251, 549.658 201.699, 550.850 202.167 C 551.317 202.350, 551.951 205.007, 552.259 208.070 L 552.818 213.641 545.430 214.882 C 541.366 215.565, 537.776 216.553, 537.452 217.078 C 537.127 217.603, 536.443 217.774, 535.931 217.457 C 535.419 217.141, 535 217.268, 535 217.740 C 535 218.212, 533.490 219.144, 531.645 219.811 C 526.577 221.644, 512 233.321, 512 235.548 C 512 235.913, 510.732 237.852, 509.182 239.856 C 506.062 243.890, 503 250.021, 503 252.234 C 503 253.022, 502.662 254.004, 502.250 254.417 C 501.837 254.829, 501.461 255.467, 501.414 255.833 C 501.366 256.200, 500.916 257.400, 500.414 258.500 C 499.037 261.513, 499.254 284.654, 500.672 286.072 C 501.316 286.716, 501.606 287.864, 501.315 288.622 C 501.024 289.380, 501.203 290, 501.712 290 C 502.222 290, 503.281 292.361, 504.067 295.246 C 505.930 302.089, 514.747 313.228, 523.612 319.939 C 527.290 322.722, 530.906 325, 531.649 325 C 532.392 325, 533 325.450, 533 326 C 533 326.550, 532.663 327.002, 532.250 327.004 C 531.206 327.009, 528.044 334.956, 527.326 339.380 C 526.998 341.398, 526.341 343.289, 525.865 343.583 C 524.650 344.334, 524.777 356, 526 356 C 526.550 356, 527 356.960, 527 358.134 C 527 361.753, 529.249 368.305, 531.937 372.516 C 533.347 374.726, 534.990 377.411, 535.589 378.484 C 536.187 379.557, 537.808 381.125, 539.190 381.968 C 540.571 382.810, 543.006 384.361, 544.601 385.414 C 546.195 386.466, 548.561 387.971, 549.857 388.757 C 551.580 389.802, 551.916 390.484, 551.107 391.293 C 549.540 392.860, 549.734 399.259, 551.449 402.564 C 553.166 405.874, 552.697 407, 549.601 407 C 545.346 407, 534.637 413.240, 529.179 418.899 C 523.283 425.013, 516.512 437.881, 515.380 445.123 C 515.004 447.530, 514.202 449.821, 513.598 450.214 C 512.061 451.212, 512.122 478.920, 513.669 482.099 C 514.311 483.419, 515.620 487.555, 516.577 491.288 C 517.750 495.862, 519.978 500.541, 523.409 505.634 C 526.209 509.791, 529.087 514.274, 529.805 515.596 C 530.522 516.918, 531.749 518, 532.532 518 C 533.314 518, 534.691 519.125, 535.592 520.500 C 536.493 521.875, 537.622 523, 538.100 523 C 538.578 523, 541.114 524.302, 543.735 525.894 C 546.356 527.486, 549.896 529.082, 551.603 529.442 C 554.686 530.090, 554.707 530.138, 554.814 536.797 C 554.945 544.901, 555.852 550.790, 557.087 551.554 C 557.589 551.864, 558 553.255, 558 554.645 C 558 557.857, 562.112 572.306, 563.249 573.092 C 563.720 573.417, 563.998 574.092, 563.867 574.592 C 563.736 575.091, 564.400 577.274, 565.343 579.442 C 566.286 581.610, 567.310 584.389, 567.619 585.618 C 567.927 586.847, 569.039 588.631, 570.090 589.581 C 571.140 590.532, 572 592.213, 572 593.317 C 572 594.420, 574.694 598.806, 577.987 603.062 C 581.280 607.319, 584.421 611.977, 584.967 613.413 C 585.513 614.849, 587.094 616.541, 588.480 617.173 C 589.866 617.804, 591 618.922, 591 619.658 C 591 621.189, 604.770 636, 606.194 636 C 606.711 636, 608.584 637.462, 610.355 639.250 C 614.358 643.289, 628.029 653.069, 632.026 654.753 C 633.662 655.442, 635 656.346, 635 656.761 C 635 657.177, 637.463 658.638, 640.473 660.008 C 643.483 661.379, 645.958 662.768, 645.973 663.096 C 645.988 663.424, 640.938 664.705, 634.750 665.944 C 628.563 667.183, 622.600 668.567, 621.500 669.019 C 620.400 669.471, 615.332 670.829, 610.238 672.036 C 605.144 673.242, 600.742 674.608, 600.456 675.071 C 600.170 675.534, 599.275 675.659, 598.468 675.349 C 597.661 675.040, 597 675.231, 597 675.774 C 597 676.318, 594.862 677.291, 592.250 677.938 C 589.638 678.584, 585.700 679.962, 583.500 681 C 581.300 682.038, 576.800 683.879, 573.500 685.092 C 570.200 686.305, 567.275 687.607, 567 687.985 C 566.725 688.363, 561.775 691.241, 556 694.382 C 550.225 697.523, 543.475 701.589, 541 703.417 C 538.525 705.246, 536.210 706.577, 535.855 706.377 C 535.500 706.176, 534.947 706.695, 534.627 707.530 C 534.307 708.365, 533.148 709.380, 532.052 709.785 C 528.125 711.238, 506.515 731.775, 493.419 746.500 C 486.081 754.750, 479.160 762.528, 478.039 763.785 C 476.918 765.042, 475.988 766.392, 475.974 766.785 C 475.960 767.178, 472.150 772, 467.509 777.500 C 462.868 783, 459.055 787.954, 459.035 788.509 C 459.016 789.065, 458.100 790.081, 457 790.768 C 455.900 791.455, 455 792.476, 455 793.037 C 455 793.598, 451.850 798.051, 448 802.931 C 444.150 807.812, 441 812.191, 441 812.662 C 441 813.133, 440.100 814.081, 439 814.768 C 437.900 815.455, 437 816.655, 437 817.436 C 437 818.216, 435.985 819.675, 434.746 820.677 C 432.203 822.733, 430 827.103, 430 830.090 C 430 831.188, 431.579 835.010, 433.509 838.584 C 437.522 846.016, 437.409 848.582, 432.925 851.897 C 431.316 853.087, 430 854.718, 430 855.521 C 430 856.325, 429.100 857.545, 428 858.232 C 426.900 858.919, 426 860.048, 426 860.741 C 426 862.855, 424.623 862.092, 422 858.524 C 419.203 854.719, 394.540 825.962, 390.560 821.865 C 389.152 820.416, 388 818.936, 388 818.576 C 388 818.216, 383.612 812.539, 378.250 805.961 C 367.139 792.330, 355 775.714, 355 774.135 C 355 773.550, 354.119 772.599, 353.043 772.023 C 350.869 770.860, 350.632 769.715, 349.071 752.858 C 348.479 746.455, 347.323 739.930, 346.503 738.358 C 345.683 736.786, 345.010 734.885, 345.006 734.134 C 344.996 731.836, 341.583 723, 340.706 723 C 340.253 723, 340.160 722.550, 340.500 722 C 340.840 721.450, 340.641 721, 340.059 721 C 339.477 721, 339 720.392, 339 719.649 C 339 718.906, 336.882 715.419, 334.292 711.899 C 329.223 705.009, 319.351 695.932, 308.363 688.057 C 304.588 685.352, 300.390 682.321, 299.033 681.320 C 294.716 678.135, 277.242 660, 278.490 660 C 278.760 660, 278.331 659.213, 277.537 658.250 C 276.742 657.288, 273.783 653.575, 270.959 650 C 264.411 641.709, 257.929 636.341, 252.655 634.843 C 250.370 634.194, 248.133 633.349, 247.684 632.966 C 246.090 631.603, 234.106 634.654, 230.073 637.450 C 221.462 643.417, 218.110 650.416, 218.044 662.568 C 217.981 674.145, 220.660 683.344, 226.685 692.237 C 232.798 701.259, 233.416 702.775, 231.199 703.300 C 225.890 704.558, 167.273 702.853, 163 701.317 C 162.175 701.020, 158.507 700.856, 154.849 700.953 C 151.035 701.053, 147.917 700.674, 147.539 700.064 C 146.734 698.760, 118.844 698.589, 117.450 699.879 C 116.927 700.363, 114.897 701.270, 112.938 701.895 C 107.691 703.568, 101.966 709.916, 100.502 715.682 C 99.392 720.054, 98.925 720.597, 95.445 721.574 C 89.903 723.128, 83.228 729.267, 82.425 733.547 C 82.067 735.458, 81.374 737.269, 80.887 737.570 C 79.662 738.327, 79.765 746, 81 746 C 81.550 746, 82 746.839, 82 747.865 C 82 748.891, 82.952 750.940, 84.115 752.419 C 86.056 754.887, 86.126 755.477, 84.969 759.612 C 83.969 763.183, 83.959 765.239, 84.921 769.538 C 87.229 779.852, 100.976 789.462, 136 805.244 C 139.025 806.608, 144.200 808.522, 147.500 809.499 C 150.800 810.476, 153.950 811.615, 154.500 812.030 C 155.050 812.445, 159.100 813.781, 163.500 815 C 167.900 816.219, 171.950 817.572, 172.500 818.007 C 173.050 818.442, 178.225 819.843, 184 821.120 C 189.775 822.397, 194.725 823.709, 195 824.035 C 195.275 824.362, 200.900 825.674, 207.500 826.951 C 214.100 828.229, 219.950 829.609, 220.500 830.020 C 221.050 830.430, 227.332 831.742, 234.461 832.935 C 241.589 834.129, 247.975 835.564, 248.651 836.126 C 249.327 836.687, 250.695 837.044, 251.690 836.919 C 252.686 836.795, 254.175 836.967, 255 837.303 C 255.825 837.639, 257.836 838.046, 259.468 838.207 C 261.603 838.418, 262.867 839.343, 263.968 841.500 C 264.811 843.150, 265.838 844.650, 266.250 844.833 C 266.663 845.017, 267 845.750, 267 846.462 C 267 847.175, 268.225 850.400, 269.722 853.629 C 271.219 856.858, 272.496 859.725, 272.560 860 C 272.745 860.789, 280.504 877.749, 286.373 890.188 C 288.368 894.417, 290 898.579, 290 899.438 C 290 900.297, 290.367 901, 290.816 901 C 291.265 901, 292.704 903.587, 294.013 906.750 C 295.323 909.913, 296.766 912.950, 297.220 913.500 C 297.674 914.050, 300.774 919.900, 304.109 926.500 C 309.687 937.538, 313.395 944.569, 317.862 952.580 C 318.807 954.274, 321.249 958.175, 323.290 961.249 C 325.330 964.324, 327 967.277, 327 967.812 C 327 968.348, 327.675 969.045, 328.500 969.362 C 329.325 969.678, 330 970.451, 330 971.080 C 330 972.505, 342.578 988.299, 347.414 992.946 C 349.386 994.842, 351.025 996.867, 351.056 997.446 C 351.087 998.026, 353.575 1000.525, 356.586 1003 C 359.596 1005.475, 364.859 1009.854, 368.280 1012.732 C 371.701 1015.610, 376.300 1018.892, 378.500 1020.026 C 380.700 1021.160, 383.625 1022.739, 385 1023.536 C 386.998 1024.693, 393.367 1027.565, 396 1028.496 C 396.275 1028.593, 397.175 1028.920, 398 1029.222 C 410.139 1033.669, 433.756 1033.951, 443.878 1029.770 C 445.320 1029.175, 447.287 1028.786, 448.250 1028.907 C 449.212 1029.027, 450 1028.719, 450 1028.221 C 450 1027.724, 451.912 1026.760, 454.250 1026.080 C 456.587 1025.400, 461.048 1023.347, 464.161 1021.518 C 467.275 1019.688, 470.762 1017.893, 471.911 1017.528 C 473.060 1017.164, 474 1016.457, 474 1015.958 C 474 1015.459, 475.463 1014.300, 477.250 1013.382 C 479.038 1012.463, 483.758 1009.077, 487.740 1005.856 C 491.722 1002.635, 495.431 1000, 495.982 1000 C 496.532 1000, 497.545 999.100, 498.232 998 C 498.919 996.900, 500.046 996, 500.736 996 C 501.426 996, 511.780 986.253, 523.745 974.339 C 535.710 962.426, 545.902 952.772, 546.393 952.887 C 546.885 953.002, 548.602 952.637, 550.208 952.077 L 553.130 951.059 552.437 961.779 C 552.056 967.676, 551.407 972.950, 550.995 973.500 C 550.131 974.654, 548.091 1001.209, 546.464 1032.500 C 546.063 1040.200, 545.348 1046.992, 544.875 1047.594 C 544.402 1048.195, 543.745 1058.770, 543.415 1071.094 L 542.816 1093.500 545.513 1096.320 C 548.156 1099.082, 548.377 1099.127, 556.468 1098.552 C 563.101 1098.079, 564.970 1098.258, 565.968 1099.461 C 569.063 1103.191, 579.857 1105.659, 581.493 1103.011 C 581.874 1102.396, 582.934 1102.561, 584.302 1103.450 C 585.751 1104.392, 589.069 1104.849, 594.041 1104.792 C 598.373 1104.742, 602.586 1105.243, 603.943 1105.969 C 605.366 1106.731, 610.821 1107.316, 617.677 1107.442 C 624.787 1107.573, 629.491 1108.091, 630.225 1108.825 C 631.653 1110.253, 641 1110.404, 641 1109 C 641 1107.782, 647.668 1107.654, 648.412 1108.857 C 649.972 1111.382, 678.859 1112.282, 760.500 1112.347 C 792.400 1112.372, 826.150 1112.069, 835.500 1111.673 C 844.850 1111.277, 859.660 1110.734, 868.412 1110.465 C 877.164 1110.196, 884.814 1109.571, 885.412 1109.077 C 886.010 1108.582, 892.350 1107.863, 899.500 1107.479 C 906.650 1107.095, 915.200 1106.242, 918.500 1105.582 C 921.800 1104.923, 925.883 1104.674, 927.572 1105.029 C 931.348 1105.822, 943.038 1104.539, 943.883 1103.238 C 944.222 1102.716, 948.021 1101.772, 952.325 1101.140 C 956.629 1100.507, 960.941 1099.567, 961.907 1099.050 C 962.873 1098.533, 966.129 1098.364, 969.142 1098.675 C 974.335 1099.211, 974.754 1099.081, 977.203 1096.171 L 979.786 1093.101 979.346 1064.301 C 979.103 1048.460, 978.511 1034.600, 978.029 1033.500 C 977.547 1032.400, 976.911 1024.300, 976.614 1015.500 C 975.958 996.038, 973.226 966.853, 971.939 965.550 C 968.640 962.212, 972.599 959.195, 981.851 957.993 C 990.538 956.865, 998.996 955.158, 1001.500 954.027 C 1002.600 953.531, 1005.075 952.937, 1007 952.708 C 1012.178 952.093, 1026.198 949.061, 1028.500 948.059 C 1029.600 947.580, 1034.325 946.426, 1039 945.495 C 1043.675 944.565, 1048.807 943.172, 1050.404 942.402 C 1052.001 941.631, 1054.351 941, 1055.628 941 C 1058.491 941, 1073.417 937.265, 1077.500 935.527 C 1079.150 934.825, 1081.680 933.974, 1083.123 933.638 C 1086.047 932.955, 1086.068 933.032, 1087.587 950 C 1087.956 954.125, 1088.521 957.950, 1088.842 958.499 C 1089.164 959.049, 1089.290 960.802, 1089.122 962.396 C 1088.955 963.989, 1089.273 966.239, 1089.827 967.396 C 1091.033 969.912, 1092.742 991.749, 1093.652 1016.288 C 1094.015 1026.071, 1094.714 1034.323, 1095.205 1034.627 C 1095.723 1034.947, 1095.710 1035.665, 1095.172 1036.339 C 1094.664 1036.978, 1094.027 1048.841, 1093.757 1062.701 C 1093.273 1087.615, 1093.292 1087.926, 1095.448 1089.951 C 1096.682 1091.111, 1098.980 1092, 1100.743 1092 C 1103.623 1092, 1104.555 1091.419, 1107.620 1087.716 C 1110.877 1083.780, 1111.121 988.429, 1107.879 986.425 C 1107.395 986.126, 1107 983.724, 1107 981.087 C 1107 973.310, 1102.965 938.584, 1101.941 937.550 C 1101.423 937.028, 1101 934.942, 1101 932.915 C 1101 928.642, 1103.361 926.584, 1109.604 925.417 C 1114.677 924.469, 1120 919.289, 1120 915.299 C 1120 913.704, 1119.110 908.371, 1118.022 903.449 C 1116.934 898.527, 1116.034 893.443, 1116.022 892.151 C 1116.010 890.859, 1115.361 888.384, 1114.581 886.651 C 1113.801 884.918, 1112.127 879.225, 1110.861 874 C 1109.596 868.775, 1108.281 864.275, 1107.939 864 C 1107.597 863.725, 1106.295 859.675, 1105.047 855 C 1103.798 850.325, 1102.475 846.275, 1102.106 846 C 1101.736 845.725, 1100.838 843.025, 1100.108 840 C 1099.379 836.975, 1097.921 832.995, 1096.869 831.155 C 1095.817 829.316, 1095.046 827.291, 1095.156 826.655 C 1095.267 826.020, 1094.649 823.925, 1093.784 822 C 1091.962 817.945, 1089.715 812.725, 1089.481 812 C 1088.565 809.167, 1082.842 796.607, 1079.685 790.500 C 1079.116 789.400, 1076.793 784.900, 1074.522 780.500 C 1069.674 771.105, 1066.265 765.089, 1064.605 763 C 1063.950 762.175, 1062.759 760.150, 1061.959 758.500 C 1061.158 756.850, 1059.984 755.165, 1059.350 754.755 C 1058.716 754.346, 1056.843 751.646, 1055.188 748.755 C 1049.254 738.389, 1025.749 714.448, 1016.158 709 C 1014.705 708.175, 1012.925 706.712, 1012.202 705.750 C 1011.478 704.788, 1010.305 704, 1009.593 704 C 1008.882 704, 1006.502 702.697, 1004.304 701.105 C 1002.106 699.513, 998.776 697.426, 996.904 696.466 C 995.032 695.506, 993.275 694.441, 993 694.100 C 992.725 693.758, 990.025 692.363, 987 691 C 983.975 689.637, 981.275 688.279, 981 687.983 C 980.339 687.271, 973.160 684.298, 970 683.427 C 968.625 683.048, 966.306 681.897, 964.846 680.869 C 963.386 679.841, 961.343 679, 960.307 679 C 959.271 679, 956.686 678.115, 954.564 677.032 C 952.441 675.950, 950.321 675.302, 949.852 675.591 C 949.383 675.881, 949 675.735, 949 675.266 C 949 674.798, 947.087 673.903, 944.750 673.278 C 942.413 672.653, 939.150 671.584, 937.500 670.904 C 935.850 670.224, 934.275 669.591, 934 669.497 C 933.725 669.404, 932.825 669.077, 932 668.771 C 931.175 668.465, 926.450 667.234, 921.500 666.036 C 916.550 664.838, 911.600 663.442, 910.500 662.934 C 908.687 662.097, 897.651 659.486, 890.750 658.261 C 889.237 657.993, 888 657.374, 888 656.887 C 888 656.399, 886.994 656, 885.765 656 C 883.994 656, 884.355 655.558, 887.498 653.873 C 889.680 652.703, 892.866 650.678, 894.577 649.373 C 896.289 648.068, 898.205 647, 898.836 647 C 899.467 647, 900.545 646.100, 901.232 645 C 901.919 643.900, 903.081 643, 903.815 643 C 905.459 643, 933 615.796, 933 614.171 C 933 612.954, 933.953 611.667, 938.809 606.326 C 940.396 604.580, 942.285 601.655, 943.007 599.826 C 943.728 597.997, 945.281 595.375, 946.457 594 C 947.633 592.625, 949.200 589.700, 949.940 587.500 C 950.679 585.300, 952.121 582.427, 953.142 581.115 C 954.164 579.803, 955 578.134, 955 577.406 C 955 576.677, 956.237 574.033, 957.750 571.530 C 959.692 568.314, 960.939 567.172, 962 567.641 C 962.825 568.006, 964.967 568.511, 966.759 568.763 C 968.552 569.015, 970.266 569.621, 970.568 570.110 C 971.325 571.335, 982.735 571.237, 983.500 570 C 983.840 569.450, 985.367 569, 986.894 569 C 993.029 569, 1003.489 564.609, 1014.500 557.410 C 1023.379 551.605, 1039 534.997, 1039 531.362 C 1039 530.613, 1039.342 530, 1039.759 530 C 1040.176 530, 1041.590 526.962, 1042.901 523.250 C 1044.211 519.538, 1045.617 516.050, 1046.025 515.500 C 1047.653 513.304, 1048.999 503.363, 1048.976 493.701 C 1048.949 482.690, 1047.963 476.777, 1045.107 470.500 C 1044.107 468.300, 1042.998 465.295, 1042.643 463.823 C 1042.288 462.350, 1038.286 457.282, 1033.749 452.559 C 1026.551 445.067, 1025.755 443.892, 1027.499 443.340 C 1030.084 442.522, 1043 430.067, 1043 428.393 C 1043 427.689, 1043.787 426.525, 1044.750 425.807 C 1046.570 424.448, 1050 417.845, 1050 415.701 C 1050 415.024, 1050.956 412.687, 1052.124 410.508 C 1053.799 407.382, 1054.274 404.643, 1054.374 397.523 C 1054.443 392.560, 1054.062 387.825, 1053.526 387 C 1052.991 386.175, 1052.515 385.050, 1052.469 384.500 C 1052.368 383.290, 1051.175 380.106, 1049.972 377.836 C 1049.315 376.595, 1049.707 375.767, 1051.510 374.586 C 1052.841 373.713, 1054.395 373, 1054.965 373 C 1055.534 373, 1056 372.550, 1056 372 C 1056 371.450, 1056.577 371, 1057.281 371 C 1058.908 371, 1070 359.855, 1070 358.221 C 1070 357.549, 1070.338 356.996, 1070.750 356.992 C 1071.162 356.988, 1071.987 355.975, 1072.582 354.742 C 1073.178 353.509, 1074.804 350.475, 1076.196 348 C 1080.642 340.097, 1082.778 325.751, 1080.990 315.817 C 1079.397 306.970, 1077.701 301, 1076.782 301 C 1076.352 301, 1076 300.519, 1076 299.930 C 1076 298.356, 1070.710 290.939, 1066.853 287.106 C 1059.595 279.893, 1049.817 274, 1045.108 274 C 1044.420 274, 1043.254 273.397, 1042.517 272.660 C 1041.397 271.540, 1041.423 270.186, 1042.672 264.410 C 1043.701 259.657, 1044.026 254.066, 1043.715 246.500 C 1043.311 236.674, 1042.912 234.753, 1039.982 228.500 C 1033.915 215.557, 1022.421 204.379, 1012.250 201.532 C 1009.087 200.647, 1005.489 199.415, 1004.254 198.795 C 1001.806 197.565, 988.787 197.271, 985.382 198.368 C 983.403 199.006, 983.219 198.601, 982.589 192.210 C 981.739 183.582, 979.872 177.342, 976.580 172.127 C 975.161 169.879, 974 167.597, 974 167.055 C 974 166.513, 973.105 165.591, 972.010 165.006 C 970.916 164.420, 969.329 162.604, 968.485 160.970 C 967.640 159.337, 966.337 158, 965.589 158 C 964.842 158, 963.493 156.875, 962.592 155.500 C 961.691 154.125, 960.246 153, 959.381 153 C 958.516 153, 956.467 152.045, 954.828 150.877 C 953.188 149.710, 950.419 148.385, 948.674 147.934 C 946.928 147.482, 943.700 146.648, 941.500 146.080 C 935.570 144.549, 921.243 144.786, 914.568 146.524 C 911.349 147.363, 908.543 147.876, 908.333 147.666 C 908.122 147.456, 907.456 144.407, 906.852 140.892 C 905.696 134.164, 901.330 123.889, 897.126 118 C 893.856 113.421, 885.814 105, 884.711 105 C 884.235 105, 882.509 103.662, 880.874 102.027 C 875.659 96.813, 856.396 89, 848.753 89 C 847.239 89, 846 88.550, 846 88 C 846 87.397, 841.833 87, 835.500 87 C 829.725 87, 825 87.358, 825 87.796 M 827.113 104.081 C 823.600 104.536, 818.767 105.829, 816.374 106.954 C 813.980 108.079, 811.410 109, 810.661 109 C 805.492 109, 787 127.035, 787 132.077 C 787 134.717, 787.761 134.530, 793.429 130.500 C 796.137 128.575, 798.966 127, 799.717 127 C 800.467 127, 802.309 126.092, 803.810 124.983 C 805.310 123.873, 810.130 122.277, 814.519 121.436 C 818.909 120.595, 823.281 119.478, 824.236 118.953 C 826.419 117.755, 835.451 117.707, 837.764 118.882 C 838.719 119.367, 841.525 120.235, 844 120.811 C 846.475 121.388, 849.850 122.416, 851.500 123.096 C 853.150 123.776, 854.797 124.370, 855.159 124.416 C 858.946 124.897, 876 139.646, 876 142.440 C 876 142.771, 877.105 144.721, 878.456 146.771 C 879.807 148.822, 881.483 153.533, 882.182 157.240 L 883.452 163.979 888.226 159.277 C 892.881 154.693, 894.293 150.917, 891.906 149.442 C 891.304 149.070, 891.019 147.683, 891.272 146.359 C 891.525 145.035, 891.342 143.711, 890.866 143.417 C 890.390 143.123, 890 141.769, 890 140.408 C 890 138.293, 887.552 132.888, 883.448 125.941 C 882.149 123.743, 874.474 116, 873.594 116 C 873.241 116, 870.713 114.460, 867.977 112.578 C 865.241 110.696, 861.314 108.612, 859.251 107.948 C 857.188 107.283, 855.050 106.392, 854.500 105.968 C 853.567 105.249, 836.708 102.856, 834.500 103.130 C 833.950 103.198, 830.626 103.626, 827.113 104.081 M 719.500 106 C 719.160 106.550, 717.640 107, 716.122 107 C 706.767 107, 691.972 114.273, 682.509 123.523 C 675.206 130.662, 669.339 140.491, 667.600 148.500 L 666.949 151.500 668.929 149 C 670.019 147.625, 671.493 145.378, 672.205 144.007 C 673.658 141.211, 679.244 135.280, 682.571 133 C 693.568 125.467, 697.311 123.475, 703.500 121.860 C 707.350 120.856, 711.711 120.027, 713.191 120.017 C 714.671 120.008, 716.160 119.550, 716.500 119 C 717.257 117.774, 725.673 117.663, 726.419 118.868 C 726.714 119.346, 729.259 120.042, 732.075 120.416 C 741.610 121.680, 754.466 129.279, 761.015 137.519 L 763.919 141.173 764.578 138.336 C 764.941 136.776, 765.890 134.457, 766.686 133.183 C 768.010 131.064, 767.915 130.577, 765.567 127.499 C 764.155 125.648, 763 123.935, 763 123.692 C 763 122.873, 756.365 116, 755.574 116 C 755.143 116, 752.766 114.634, 750.292 112.964 C 745.592 109.793, 736.116 107.040, 729.809 107.015 C 727.779 107.007, 725.840 106.550, 725.500 106 C 725.160 105.450, 723.810 105, 722.500 105 C 721.190 105, 719.840 105.450, 719.500 106 M 741 143.238 C 741 144.089, 741.739 145.070, 742.643 145.417 C 745.106 146.361, 745.261 145.546, 743.006 143.506 C 741.310 141.971, 741 141.930, 741 143.238 M 610 147.603 C 609.175 147.920, 607.082 148.814, 605.349 149.590 C 603.616 150.365, 601.759 151, 601.223 151 C 600.687 151, 597.624 152.161, 594.416 153.580 C 587.888 156.467, 576.598 167.112, 573.791 173.028 C 571.045 178.816, 569.666 182.451, 569.874 183.355 C 569.982 183.826, 569.509 184.887, 568.823 185.713 C 567.105 187.783, 567.037 208.134, 568.741 210.188 C 569.424 211.011, 569.723 211.944, 569.406 212.261 C 569.088 212.578, 569.768 213.341, 570.916 213.955 C 572.906 215.020, 572.995 214.849, 572.833 210.286 C 572.739 207.654, 573.013 203.525, 573.443 201.110 C 574.298 196.298, 580.653 183, 582.097 183 C 582.593 183, 583 182.428, 583 181.728 C 583 178.814, 598.611 164, 601.682 164 C 602.141 164, 604.537 162.937, 607.008 161.637 C 613.909 158.006, 621.236 156.638, 629.903 157.362 C 640.141 158.217, 643.972 158.934, 647.189 160.598 C 651.319 162.733, 651.660 162.298, 648.468 158.967 C 645.290 155.649, 637.921 151.004, 635.822 150.994 C 635.095 150.990, 633.150 150.266, 631.500 149.385 C 628.456 147.758, 612.944 146.473, 610 147.603 M 705.453 162.250 L 701.500 166.500 705.750 162.547 C 709.702 158.871, 710.460 158, 709.703 158 C 709.540 158, 707.627 159.912, 705.453 162.250 M 920.500 160.617 C 919.400 160.902, 917.143 161.751, 915.485 162.503 C 913.827 163.255, 911.239 164.339, 909.735 164.911 C 908.174 165.504, 906.999 166.712, 906.999 167.725 C 906.997 169.241, 907.765 169.453, 912.249 169.178 C 920.149 168.694, 931.705 171.449, 936.641 174.994 C 938.943 176.647, 941.144 178, 941.531 178 C 941.918 178, 944.060 179.824, 946.289 182.054 C 950.054 185.819, 951.067 187.279, 954.579 194 C 955.298 195.375, 956.346 199.372, 956.908 202.882 C 957.471 206.393, 958.111 209.444, 958.330 209.663 C 958.548 209.882, 960.589 208.842, 962.864 207.353 C 966.324 205.088, 967.032 204.061, 967.197 201.072 C 967.501 195.571, 966.934 188.636, 966.088 187.512 C 965.670 186.955, 964.299 183.908, 963.044 180.741 C 960.376 174.012, 952.244 165.878, 946.257 163.949 C 944.191 163.284, 941.971 162.321, 941.325 161.810 C 940 160.761, 923.574 159.820, 920.500 160.617 M 806.500 167.568 C 803.695 170.049, 803.247 170.747, 805 169.907 C 806.375 169.247, 807.860 168.099, 808.300 167.354 C 808.740 166.609, 809.725 166, 810.491 166 C 811.256 166, 812.160 165.550, 812.500 165 C 813.922 162.699, 810.208 164.288, 806.500 167.568 M 769.383 174.662 C 768.998 176.223, 767.972 178.625, 767.103 180 C 765.612 182.359, 765.729 182.331, 769.189 179.500 C 773.235 176.190, 773.724 174.846, 771.541 173.034 C 770.334 172.033, 769.962 172.314, 769.383 174.662 M 876.583 185.643 C 875.639 188.106, 876.454 188.261, 878.494 186.006 C 880.029 184.310, 880.070 184, 878.762 184 C 877.911 184, 876.930 184.739, 876.583 185.643 M 659.648 186.474 C 659.244 187.527, 657.677 188, 654.590 188 C 647.985 188, 648.116 189.685, 654.765 190.242 C 657.919 190.506, 661.230 191.036, 662.122 191.419 C 663.432 191.982, 663.652 191.629, 663.262 189.589 C 662.626 186.262, 660.449 184.387, 659.648 186.474 M 921 191.385 C 921 191.597, 922.158 192.529, 923.573 193.456 C 926.087 195.103, 926.121 195.094, 925.038 193.071 C 924.122 191.360, 921 190.057, 921 191.385 M 794.559 209.532 C 793.491 210.339, 791.804 211, 790.809 211 C 789.814 211, 789 211.499, 789 212.108 C 789 213.717, 793.746 212.315, 796.274 209.960 C 798.714 207.687, 797.424 207.365, 794.559 209.532 M 985.413 214.879 C 981.297 215.948, 980 216.830, 980 218.559 C 980 219.623, 981.317 220, 985.032 220 C 987.800 220, 991.680 220.675, 993.654 221.500 C 995.629 222.325, 998.086 223, 999.114 223 C 1000.142 223, 1004.261 226.262, 1008.266 230.250 C 1015.599 237.550, 1020 245.532, 1020 251.530 C 1020 252.824, 1020.450 254.160, 1021 254.500 C 1022.672 255.534, 1022.182 265.793, 1020.324 268.628 C 1018.679 271.140, 1018.692 271.179, 1021.074 270.843 C 1022.903 270.584, 1023.811 269.518, 1024.772 266.500 C 1025.473 264.300, 1026.330 261.825, 1026.677 261 C 1027.024 260.175, 1027.198 258.645, 1027.065 257.599 C 1026.932 256.554, 1027.389 254.642, 1028.081 253.349 C 1029.090 251.463, 1029.090 250.537, 1028.081 248.651 C 1027.389 247.358, 1026.932 245.446, 1027.065 244.401 C 1027.198 243.355, 1027.077 241.825, 1026.796 241 C 1026.515 240.175, 1025.492 237.025, 1024.523 234 C 1023.062 229.444, 1021.670 227.556, 1016.410 223 C 1012.917 219.975, 1009.708 217.484, 1009.280 217.465 C 1008.851 217.445, 1007.430 216.836, 1006.123 216.111 C 1003.297 214.545, 989.793 213.741, 985.413 214.879 M 900.500 216.162 C 897.564 217.779, 891.995 223.226, 892.030 224.446 C 892.047 225.026, 892.521 224.709, 893.084 223.743 C 893.647 222.777, 895.828 221.108, 897.930 220.036 C 900.033 218.963, 902.020 217.391, 902.345 216.543 C 903.039 214.735, 903.077 214.743, 900.500 216.162 M 547.991 229.623 C 547.987 230.105, 545.248 231.353, 541.904 232.395 C 538.561 233.438, 535.592 234.900, 535.306 235.645 C 535.020 236.390, 534.212 237, 533.511 237 C 531.757 237, 524.203 244.701, 522.288 248.440 C 521.426 250.123, 520.349 251.742, 519.894 252.038 C 518.295 253.079, 515.768 265.531, 515.746 272.477 C 515.723 279.809, 517.781 288.425, 520.471 292.257 C 522.005 294.442, 522.028 294.410, 521.390 291 C 521.030 289.075, 520.345 287.073, 519.868 286.550 C 518.777 285.356, 518.718 277, 519.800 277 C 520.240 277, 521.145 274.360, 521.812 271.133 C 522.478 267.906, 524.360 263.294, 525.994 260.883 C 527.627 258.472, 528.972 256.110, 528.982 255.634 C 528.999 254.799, 542.686 241, 543.496 241 C 543.714 241, 546.504 239.488, 549.696 237.639 C 552.888 235.791, 556.808 233.964, 558.406 233.581 C 561.056 232.945, 561.173 232.744, 559.731 231.302 C 558.030 229.602, 548.006 228.168, 547.991 229.623 M 729.500 232.643 C 725.456 234.161, 710.143 234.048, 703.750 232.453 C 701.191 231.815, 701 231.984, 701 234.883 C 701 236.598, 700.600 238, 700.111 238 C 699.622 238, 699.262 238.563, 699.311 239.250 C 699.444 241.120, 693.996 252, 692.927 252 C 692.417 252, 692 252.648, 692 253.440 C 692 254.232, 689.041 257.810, 685.424 261.391 C 678.340 268.406, 667.680 274.831, 659.500 277.016 C 656.750 277.751, 654.181 278.831, 653.792 279.417 C 652.843 280.845, 629.167 280.855, 628.208 279.428 C 627.819 278.849, 624.925 277.578, 621.778 276.603 C 618.630 275.629, 614.959 273.969, 613.620 272.916 C 612.280 271.862, 610.806 271.010, 610.342 271.021 C 609.134 271.052, 604 278.543, 604 280.275 C 604 281.075, 603.122 282.847, 602.048 284.212 C 600.974 285.577, 599.360 288.675, 598.461 291.097 C 594.762 301.062, 594.242 302.232, 593.236 302.854 C 592.657 303.212, 591.852 305.304, 591.448 307.502 C 591.043 309.701, 589.651 313.834, 588.356 316.686 C 587.060 319.538, 586.006 322.463, 586.013 323.186 C 586.032 325.132, 582.898 339.184, 581.929 341.500 C 581.166 343.322, 578.441 358.436, 577.330 367 C 577.080 368.925, 576.394 371.482, 575.805 372.683 C 575.216 373.883, 574.984 375.516, 575.289 376.311 C 575.594 377.106, 575.478 378.149, 575.030 378.628 C 574.583 379.108, 573.936 382.425, 573.592 386 C 573.249 389.575, 572.714 394.313, 572.404 396.529 L 571.839 400.558 576.170 400.553 C 578.551 400.551, 582.525 400.908, 585 401.347 C 589.259 402.102, 589.590 401.992, 591.180 399.286 C 594.064 394.380, 599.316 389.558, 604 387.517 C 606.475 386.438, 608.779 385.161, 609.120 384.680 C 610.025 383.400, 624.795 380.074, 629.750 380.034 C 632.087 380.015, 634 379.550, 634 379 C 634 377.757, 666.647 377.619, 667.413 378.859 C 667.705 379.331, 670.994 380.029, 674.722 380.410 C 681.243 381.076, 688.859 382.549, 692 383.753 C 692.825 384.069, 693.725 384.405, 694 384.500 C 699.884 386.533, 708.472 390.436, 708.830 391.241 C 709.012 391.649, 710.707 392.716, 712.597 393.613 C 717.034 395.718, 724.957 404.534, 725.685 408.175 C 726.110 410.299, 726.825 411, 728.566 411 C 729.840 411, 731.148 410.570, 731.473 410.044 C 731.798 409.518, 732.730 409.343, 733.545 409.656 C 734.359 409.968, 735.753 409.620, 736.643 408.881 C 738.867 407.036, 760.082 406.994, 762.295 408.830 C 763.151 409.541, 764.448 410.023, 765.176 409.903 C 765.904 409.783, 767.175 409.943, 768 410.259 C 768.825 410.575, 772.763 411.784, 776.750 412.945 C 780.737 414.107, 784 415.532, 784 416.112 C 784 418.293, 786.327 416.267, 788.511 412.185 C 789.756 409.857, 792.288 406.856, 794.137 405.516 C 798.490 402.363, 804.620 399, 806.015 399 C 806.617 399, 808.999 398.139, 811.308 397.088 C 820.431 392.931, 843.004 391.834, 863.666 394.543 C 870.139 395.391, 875.674 396.434, 875.967 396.860 C 876.260 397.286, 880.100 398.450, 884.500 399.447 C 896.076 402.070, 908.298 408.298, 915.158 415.070 C 918.270 418.142, 920.970 421.746, 921.158 423.078 C 921.475 425.321, 922.091 425.565, 929.500 426.385 C 933.900 426.872, 937.725 427.600, 938 428.003 C 938.275 428.406, 942.550 429.453, 947.500 430.329 C 952.450 431.206, 957.625 432.205, 959 432.548 C 960.933 433.032, 961.160 432.934, 960 432.117 C 958.829 431.293, 958.747 430.662, 959.626 429.242 C 960.246 428.242, 961.068 425.555, 961.454 423.272 C 962.029 419.871, 961.710 418.342, 959.688 414.811 C 958.331 412.440, 956.664 408.025, 955.984 405 C 955.304 401.975, 954.518 398.825, 954.236 398 C 953.954 397.175, 953.822 395.015, 953.942 393.200 C 954.063 391.385, 953.654 389.288, 953.032 388.539 C 952.205 387.543, 952.201 386.994, 953.015 386.491 C 953.682 386.078, 954.058 383.140, 953.953 379.151 C 953.856 375.493, 954.018 371.825, 954.313 371 C 954.607 370.175, 955.586 366.021, 956.488 361.770 C 957.390 357.518, 958.556 353.774, 959.080 353.450 C 959.604 353.127, 959.743 352.393, 959.388 351.819 C 959.034 351.246, 959.148 350.489, 959.642 350.138 C 960.136 349.787, 961.051 348.336, 961.674 346.914 C 962.802 344.341, 962.777 344.323, 956.404 343.056 C 952.882 342.356, 950 341.382, 950 340.891 C 950 340.401, 949.382 340, 948.627 340 C 946.426 340, 938 335.998, 938 334.953 C 938 334.429, 937.355 334, 936.567 334 C 934.594 334, 921.759 321.199, 922.511 319.982 C 922.845 319.442, 922.663 319, 922.106 319 C 921.017 319, 917 310.640, 917 308.373 C 917 307.618, 916.595 307, 916.100 307 C 913.577 307, 911.556 283.125, 913.547 276.852 C 914.074 275.193, 913.846 274.908, 912.349 275.358 C 906.188 277.208, 895.636 278.200, 888.058 277.640 C 879.833 277.033, 870.205 274.796, 869.052 273.225 C 868.748 272.811, 866.280 271.354, 863.567 269.987 C 860.853 268.619, 857.149 265.925, 855.336 264 C 850.646 259.022, 845.023 251.677, 845.001 250.500 C 844.990 249.950, 843.875 247.250, 842.522 244.500 C 841.169 241.750, 840.048 238.485, 840.031 237.244 C 840.003 235.232, 839.521 235.474, 835.558 239.494 C 833.115 241.972, 830.817 244, 830.452 244 C 830.087 244, 828.148 245.251, 826.144 246.781 C 824.140 248.310, 821.375 250.074, 820 250.700 C 818.625 251.326, 814.967 252.987, 811.871 254.392 C 804.418 257.771, 794.315 259.237, 782.310 258.680 C 769.393 258.081, 767.214 257.526, 757.481 252.348 C 748.556 247.600, 741.115 240.604, 738.608 234.603 C 736.928 230.584, 735.692 230.318, 729.500 232.643 M 952.114 232.363 C 951.198 233.466, 951.461 233.635, 953.491 233.246 C 954.871 232.983, 956 232.369, 956 231.883 C 956 230.517, 953.377 230.840, 952.114 232.363 M 812.176 235.034 C 807.215 238.059, 801.214 239.946, 794.500 240.592 C 791.200 240.909, 787.825 241.430, 787 241.748 C 786.175 242.067, 785.200 242.366, 784.833 242.414 C 784.467 242.461, 783.792 242.899, 783.333 243.387 C 782.850 243.901, 785.428 243.985, 789.472 243.586 C 793.307 243.208, 796.682 242.536, 796.972 242.094 C 797.263 241.651, 799.279 240.961, 801.453 240.561 C 805.533 239.810, 811.001 237.316, 814.500 234.610 C 817.335 232.418, 816.096 232.644, 812.176 235.034 M 991 240.777 C 991 241.875, 997.170 247.163, 997.761 246.572 C 998.336 245.997, 992.854 240, 991.753 240 C 991.339 240, 991 240.350, 991 240.777 M 654 261 C 654 261.550, 652.763 262.036, 651.250 262.079 C 649.737 262.122, 649.082 262.391, 649.793 262.677 C 651.573 263.391, 656 262.182, 656 260.981 C 656 260.441, 655.550 260, 655 260 C 654.450 260, 654 260.450, 654 261 M 550.985 264.046 C 549.618 265.096, 548.976 265.966, 549.559 265.978 C 551.004 266.008, 554.621 263.288, 553.983 262.650 C 553.701 262.368, 552.352 262.996, 550.985 264.046 M 1031.979 288.525 C 1030.882 289.847, 1031.054 290.345, 1033.091 291.743 C 1038.207 295.258, 1047.874 305.288, 1049.065 308.320 C 1049.753 310.069, 1051.230 313.525, 1052.347 316 C 1054.791 321.415, 1055.265 337.771, 1053.054 340.435 C 1052.340 341.296, 1052.125 342, 1052.578 342 C 1053.030 342, 1052.860 342.540, 1052.200 343.200 C 1051.540 343.860, 1051 344.990, 1051 345.711 C 1051 347.749, 1046.757 356.374, 1045.158 357.587 C 1044.370 358.185, 1043.899 359.183, 1044.112 359.804 C 1044.647 361.362, 1055.381 351.759, 1059.025 346.464 C 1060.664 344.082, 1062.531 339.853, 1063.174 337.067 C 1063.817 334.280, 1064.716 332, 1065.172 332 C 1066.639 332, 1066.095 318.411, 1064.506 315.364 C 1063.685 313.789, 1063.010 311.669, 1063.006 310.654 C 1063 308.674, 1060.002 302.722, 1058.729 302.160 C 1058.305 301.972, 1057.281 300.510, 1056.453 298.910 C 1055.626 297.309, 1054.318 296, 1053.547 296 C 1052.776 296, 1051.325 294.965, 1050.323 293.701 C 1046.870 289.346, 1034.253 285.785, 1031.979 288.525 M 1023 309.490 C 1023 310.781, 1026.596 313, 1028.688 313 C 1029.642 313, 1026.759 309.942, 1024.832 308.910 C 1023.420 308.154, 1023 308.287, 1023 309.490 M 546.749 334.750 C 546.084 336.262, 545.244 337.725, 544.882 338 C 543.946 338.710, 541.992 346.115, 542.110 348.500 C 542.174 349.788, 542.623 349.255, 543.372 347 C 544.956 342.227, 547.816 336.957, 550.291 334.250 L 552.349 332 550.153 332 C 548.717 332, 547.539 332.952, 546.749 334.750 M 653.250 339.195 C 650.362 339.722, 648 340.568, 648 341.076 C 648 341.584, 647.297 342, 646.438 342 C 644.186 342, 634 346.973, 634 348.073 C 634 348.583, 633.393 349, 632.652 349 C 630.752 349, 627.859 356.735, 628.973 358.837 C 629.458 359.752, 630.088 361.263, 630.374 362.195 C 631.235 364.998, 637.561 365.548, 644.965 363.464 C 653.893 360.951, 672.598 360.638, 682.294 362.840 C 691.531 364.937, 699.436 364.993, 701.453 362.976 C 702.291 362.138, 703.231 359.438, 703.543 356.976 C 704.288 351.084, 701.876 347.231, 695.396 343.967 C 692.703 342.610, 690.265 341.189, 689.977 340.808 C 688.133 338.370, 663.668 337.295, 653.250 339.195 M 562.345 343.543 C 561.535 345.653, 562.887 346.793, 564.039 344.971 C 565.263 343.035, 565.239 342, 563.969 342 C 563.401 342, 562.671 342.694, 562.345 343.543 M 838.322 352.326 C 836.574 352.972, 834.811 353.837, 834.405 354.250 C 833.999 354.663, 832.686 355, 831.488 355 C 828.792 355, 826.791 357.258, 824.698 362.663 C 823.289 366.300, 823.270 366.979, 824.543 368.036 C 825.344 368.701, 826 370.063, 826 371.063 C 826 372.064, 826.563 373.238, 827.250 373.672 C 827.938 374.107, 835.475 374.523, 844 374.597 C 859.829 374.735, 866.420 375.707, 873.500 378.947 C 879.988 381.915, 885.464 384.357, 886 384.520 C 886.275 384.604, 887.251 385.006, 888.169 385.412 C 890.367 386.386, 894.877 383.400, 896.231 380.075 C 898.790 373.788, 896.805 369.681, 888.132 363.323 C 884.484 360.649, 878.800 357.601, 875.500 356.548 C 872.200 355.496, 869.050 354.308, 868.500 353.910 C 864.865 351.275, 844.115 350.186, 838.322 352.326 M 1034.080 385.500 C 1036.977 390.612, 1037 390.637, 1037 388.722 C 1037 387.836, 1035.833 385.849, 1034.407 384.306 L 1031.814 381.500 1034.080 385.500 M 611.771 406.555 C 606.509 409.294, 604.783 411.951, 603.101 419.896 C 601.931 425.421, 602.212 428.277, 603.443 423.373 C 604.254 420.140, 609.061 412.971, 613.917 407.750 C 618 403.361, 617.955 403.336, 611.771 406.555 M 843 409 C 843 409.550, 843.900 410, 845 410 C 846.100 410, 847 409.550, 847 409 C 847 408.450, 846.100 408, 845 408 C 843.900 408, 843 408.450, 843 409 M 572.750 417.701 C 571.191 418.098, 570.284 421.937, 570.931 425.399 C 571.024 425.894, 570.803 427.019, 570.441 427.899 C 570.080 428.780, 569.862 432.762, 569.957 436.750 C 570.066 441.322, 569.737 444, 569.065 444 C 567.606 444, 567.715 450.315, 569.200 451.800 C 570.133 452.733, 570.133 453.267, 569.200 454.200 C 567.755 455.645, 567.578 467, 569 467 C 569.550 467, 570 468.098, 570 469.441 C 570 470.784, 569.550 472.160, 569 472.500 C 568.450 472.840, 568 476.432, 568 480.482 C 568 487.371, 568.198 488.044, 571.076 490.922 L 574.151 493.997 573.826 507.846 L 573.500 521.695 576.130 519.748 C 578.237 518.188, 579.171 518.021, 580.829 518.908 C 584.992 521.136, 586 523.961, 586 533.397 L 586 542.349 588.314 540.174 C 591.510 537.172, 594.298 537.451, 597.990 541.144 C 600.640 543.794, 601.093 544.939, 600.878 548.434 C 600.738 550.715, 600.972 553.145, 601.398 553.835 C 601.824 554.524, 601.613 555.762, 600.928 556.586 C 599.986 557.721, 599.966 558.366, 600.842 559.242 C 601.719 560.119, 602 559.974, 602 558.644 C 602 556.253, 607.933 551, 610.634 551 C 611.850 551, 613.973 552.367, 615.411 554.077 C 617.608 556.688, 618 558.125, 618 563.577 C 618 570.916, 619.090 571.732, 621.349 566.085 C 623.161 561.558, 623.355 561.396, 628.008 560.535 C 632.944 559.621, 634.814 561.408, 635.736 567.917 C 636.464 573.051, 639 576.402, 639 572.229 C 639 570.098, 643.248 565, 645.024 565 C 647.381 565, 650.537 559.987, 651.538 554.650 C 652.839 547.714, 661.815 537.634, 666.770 537.544 C 668.535 537.512, 669.802 536.427, 671.395 533.581 C 672.601 531.426, 674.469 529.176, 675.544 528.581 C 676.620 527.986, 677.838 526.977, 678.251 526.338 C 678.663 525.699, 680.882 524.858, 683.181 524.469 C 685.480 524.081, 688.742 522.993, 690.430 522.053 C 695.173 519.410, 697.667 519.078, 700.082 520.770 C 702.054 522.151, 702.413 522.155, 703.401 520.805 C 704.009 519.972, 705.487 518.980, 706.684 518.600 C 708.038 518.170, 709.114 516.757, 709.530 514.862 C 710.862 508.798, 718.641 508.024, 727.612 513.063 C 729.483 514.114, 731.349 515.050, 731.757 515.142 C 732.166 515.235, 733.934 515.910, 735.687 516.643 C 739.718 518.327, 749.227 517.736, 752.489 515.599 C 755.280 513.771, 758.666 513.498, 759.187 515.060 C 759.416 515.747, 760.569 515.586, 762.467 514.601 C 764.366 513.616, 765.797 513.416, 766.539 514.033 C 767.169 514.555, 767.910 514.757, 768.185 514.481 C 768.814 513.853, 773.299 517.957, 774.823 520.555 C 775.771 522.171, 776.122 522.259, 776.899 521.075 C 778.309 518.926, 787.191 519.051, 789.392 521.250 C 790.355 522.212, 791.795 523, 792.593 523 C 793.390 523, 794.555 524.125, 795.182 525.500 C 796.389 528.148, 797.484 528.644, 798.500 527 C 798.840 526.450, 800.396 526, 801.959 526 C 804.126 526, 805.991 527.304, 809.826 531.500 C 813.759 535.804, 815.499 537, 817.823 537 C 819.965 537, 821.649 537.975, 823.866 540.500 C 825.556 542.425, 827.324 544, 827.795 544 C 829.242 544, 832.668 548.336, 833.723 551.501 C 834.273 553.152, 835.910 556.252, 837.361 558.391 C 839.529 561.585, 840 563.415, 840 568.640 C 840 572.275, 840.435 575, 841.015 575 C 842.960 575, 845.993 581.520, 846.132 586 C 846.209 588.475, 846.467 589.487, 846.706 588.250 C 846.944 587.013, 847.522 586, 847.990 586 C 848.458 586, 849.135 584.662, 849.494 583.027 C 850.329 579.225, 854.903 574.313, 858.435 573.427 C 861.677 572.613, 866.676 575.802, 866.206 578.384 C 866.045 579.273, 866.382 580, 866.956 580 C 867.530 580, 868.036 581.237, 868.079 582.750 C 868.124 584.306, 868.397 584.849, 868.708 584 C 873.577 570.733, 880.343 565.336, 886.266 569.994 C 888.464 571.723, 889.001 572.965, 889.004 576.323 L 889.007 580.500 890.833 577.500 C 891.838 575.850, 893.649 571.237, 894.858 567.250 C 896.068 563.263, 897.446 560, 897.920 560 C 898.395 560, 899.046 558.952, 899.368 557.671 C 900.728 552.253, 910.241 551.966, 912.474 557.277 L 913.729 560.260 914.454 556.380 C 914.853 554.246, 915.530 552.050, 915.959 551.500 C 916.388 550.950, 917.056 548.745, 917.443 546.600 C 918.579 540.304, 926.241 534.345, 928.500 538 C 929.885 540.240, 930.664 538.569, 932.320 529.806 C 934.265 519.518, 937.437 514, 941.407 514 C 943.562 514, 943.749 513.504, 944.291 506.333 C 944.689 501.069, 945.469 497.856, 946.779 496.083 C 947.828 494.662, 948.937 491.268, 949.244 488.539 C 949.629 485.112, 950.475 483.034, 951.979 481.816 C 953.615 480.491, 954.104 479.113, 953.945 476.276 C 953.828 474.199, 953.976 471.825, 954.273 471 C 954.793 469.555, 957.004 453.664, 957.001 451.387 C 957.001 450.775, 953.632 449.731, 949.516 449.067 C 945.399 448.403, 941.799 447.484, 941.515 447.024 C 941.231 446.564, 940.069 446.431, 938.933 446.728 C 937.798 447.025, 935.886 446.794, 934.684 446.215 C 931.128 444.501, 926.378 444.022, 925.146 445.254 C 924.516 445.884, 924 448.758, 924 451.641 C 924 454.524, 923.543 457.165, 922.984 457.510 C 922.425 457.856, 922.215 458.539, 922.518 459.028 C 922.820 459.518, 922.642 460.724, 922.123 461.709 C 921.603 462.694, 920.428 465.750, 919.511 468.500 C 915.966 479.142, 910.572 488.155, 902.730 496.541 C 898.456 501.111, 893.619 505.444, 891.980 506.169 C 890.341 506.895, 889 507.785, 889 508.147 C 889 509.592, 874.861 515.871, 868.194 517.388 C 854.197 520.571, 833.005 518.901, 822 513.748 C 819.525 512.589, 815.939 510.934, 814.031 510.070 C 809.575 508.053, 791.998 490.508, 789.886 485.969 C 788.998 484.061, 787.097 480.025, 785.661 477 C 784.225 473.975, 782.541 468.125, 781.919 464 C 781.298 459.875, 780.386 455.719, 779.894 454.764 C 778.605 452.260, 778.795 447.617, 780.250 446.075 C 781.250 445.015, 781.250 444.658, 780.250 444.292 C 778.758 443.745, 778.582 440.376, 780 439.500 C 780.550 439.160, 781 437.759, 781 436.386 C 781 434.300, 780.056 433.485, 775.250 431.425 C 772.087 430.069, 768.375 428.357, 767 427.620 C 761.798 424.832, 750.185 423.863, 740.680 425.423 C 730.493 427.095, 729 428.011, 729 432.584 C 729 437.311, 724.900 456, 723.863 456 C 723.388 456, 723 456.513, 723 457.140 C 723 458.273, 718.962 467.042, 717.999 468 C 717.723 468.275, 716.823 469.839, 715.998 471.476 C 715.174 473.113, 710.675 478.288, 706 482.976 C 697.317 491.683, 688.941 496.962, 679 499.990 C 676.525 500.743, 674.020 501.716, 673.433 502.150 C 672.847 502.585, 668.008 503.476, 662.680 504.131 C 652.794 505.346, 635.410 504.177, 634.079 502.208 C 633.760 501.737, 631.250 500.771, 628.500 500.061 C 625.750 499.351, 621.333 497.472, 618.684 495.885 C 616.035 494.298, 613.451 493, 612.942 493 C 612.433 493, 611.455 492.100, 610.768 491 C 610.081 489.900, 609.036 489, 608.447 489 C 606.999 489, 602 483.699, 602 482.164 C 602 481.489, 601.370 480.695, 600.600 480.400 C 598.762 479.695, 592.360 469.273, 590.465 463.900 C 589.644 461.575, 588.579 459.184, 588.096 458.586 C 586.173 456.204, 584 441.288, 584 430.472 L 584 419.159 580.750 418.505 C 578.962 418.145, 576.825 417.717, 576 417.553 C 575.175 417.389, 573.712 417.456, 572.750 417.701 M 808.277 421.928 C 807.615 422.988, 805.853 424.451, 804.361 425.178 C 801.508 426.569, 798.797 430.636, 797.647 435.250 C 796.633 439.319, 798.432 438.585, 800.452 434.106 C 801.418 431.964, 804.186 428.271, 806.604 425.898 C 809.022 423.525, 811 421.227, 811 420.792 C 811 419.346, 809.498 419.973, 808.277 421.928 M 552 421.943 C 551.175 422.397, 549.150 423.373, 547.500 424.113 C 545.070 425.203, 537 432.511, 537 433.622 C 537 433.782, 535.730 436.069, 534.178 438.706 C 530.722 444.577, 529.369 449.897, 528.471 461.139 C 527.244 476.514, 530.920 489.872, 539.789 502.271 C 542.760 506.426, 551.606 513.823, 552.435 512.846 C 552.749 512.475, 553.996 420.960, 553.685 421.059 C 553.583 421.091, 552.825 421.489, 552 421.943 M 602.604 450.726 C 603.303 453.690, 605 456.208, 605 454.282 C 605 453.667, 605.230 452.563, 605.512 451.830 C 605.793 451.096, 605.107 449.923, 603.987 449.224 C 602.084 448.035, 601.993 448.134, 602.604 450.726 M 1000.530 452.951 C 1000.174 453.528, 998.821 454, 997.524 454 C 994.088 454, 986.061 457.677, 985.328 459.587 C 984.982 460.488, 983.035 462.924, 981.001 464.999 C 977.905 468.157, 977.192 469.706, 976.630 474.491 C 976.260 477.637, 975.436 481.175, 974.798 482.355 C 974.160 483.535, 973.542 487.693, 973.424 491.596 C 973.306 495.499, 972.760 499.549, 972.212 500.596 C 969.513 505.750, 968.634 508.820, 968.886 512.204 C 969.181 516.155, 967.176 523, 965.724 523 C 965.243 523, 964.942 524.913, 965.056 527.250 C 965.170 529.587, 964.754 532.767, 964.132 534.315 C 963.509 535.863, 963 537.798, 963 538.615 C 963 539.431, 962.336 541.383, 961.525 542.951 C 960.108 545.692, 960.185 545.950, 963.476 549.543 C 966.250 552.572, 967.909 553.443, 972.201 554.122 C 977.611 554.978, 988.220 553.844, 990.350 552.181 C 990.982 551.687, 993.627 550.576, 996.227 549.710 C 998.826 548.845, 1002.469 546.981, 1004.321 545.569 C 1006.173 544.156, 1008.067 543, 1008.530 543 C 1009.578 543, 1022.274 530.006, 1021.247 529.985 C 1020.836 529.976, 1020.974 529.639, 1021.553 529.235 C 1022.542 528.544, 1027.398 521.087, 1027.566 520 C 1027.608 519.725, 1028.164 518.375, 1028.800 517 C 1034.125 505.503, 1034.078 482.322, 1028.711 472.500 C 1027.810 470.850, 1026.408 468.150, 1025.596 466.500 C 1022.618 460.449, 1016.145 456.181, 1007.500 454.567 C 1005.300 454.157, 1002.978 453.389, 1002.339 452.862 C 1001.590 452.243, 1000.948 452.275, 1000.530 452.951 M 740.500 548.251 C 739.400 549.997, 736.941 552.475, 735.035 553.758 C 732.038 555.775, 730.823 556.001, 726.035 555.431 C 720.252 554.743, 715.033 551.268, 714.968 548.063 C 714.941 546.735, 714.736 546.763, 713.608 548.250 C 712.877 549.212, 711.875 550, 711.380 550 C 710.886 550, 709.905 550.922, 709.202 552.049 C 708.114 553.791, 707.072 554.053, 702.236 553.799 C 697.441 553.547, 696.369 553.136, 695.396 551.176 L 694.242 548.852 692.104 551.854 C 689.889 554.965, 684.006 557.600, 681.459 556.623 C 680.656 556.315, 680 556.523, 680 557.086 C 680 557.649, 679.103 560.078, 678.007 562.484 C 676.637 565.492, 675.309 566.959, 673.757 567.180 C 671.953 567.436, 671.460 568.203, 671.299 571 C 670.745 580.644, 669.636 589.107, 668.864 589.584 C 668.389 589.878, 668 591.022, 668 592.126 C 668 593.639, 668.465 593.987, 669.885 593.536 C 673.116 592.511, 676.634 597.902, 677.994 605.962 C 678.646 609.833, 679.395 613, 679.656 613 C 679.918 613, 681.024 612.522, 682.115 611.939 C 684.453 610.687, 690.986 612.439, 691.022 614.328 C 691.034 614.972, 691.924 616.625, 693 618 C 694.076 619.375, 694.966 621.288, 694.978 622.250 C 695.005 624.396, 696.335 624.506, 698 622.500 C 700.594 619.375, 712.399 621.929, 715.169 626.215 C 715.775 627.152, 716.167 626.891, 716.617 625.250 C 716.956 624.013, 717.580 623, 718.003 623 C 718.426 623, 719.093 620.862, 719.485 618.250 C 721.109 607.423, 727.493 602.155, 733.712 606.511 C 735.077 607.467, 736.098 607.650, 736.493 607.011 C 737.451 605.461, 742.598 605.811, 744.019 607.523 C 745.147 608.881, 745.557 608.865, 747.840 607.369 C 749.504 606.279, 750.526 606.077, 750.763 606.790 C 750.965 607.394, 751.714 607.663, 752.429 607.389 C 753.144 607.114, 754.938 608.326, 756.415 610.081 C 758.607 612.686, 759.082 614.211, 759.001 618.386 C 758.833 627.127, 760.715 632.791, 762.362 628.500 C 762.695 627.632, 764.190 627, 765.910 627 C 767.544 627, 769.160 626.550, 769.500 626 C 770.574 624.262, 772.753 624.907, 775.673 627.827 C 778.250 630.404, 778.642 630.515, 780.088 629.077 C 780.961 628.210, 781.961 626.706, 782.312 625.735 C 783.151 623.409, 787.669 621.753, 791.857 622.236 C 794.535 622.545, 795.412 622.189, 796.192 620.477 C 797.721 617.123, 802.650 614.681, 806.599 615.322 C 809.820 615.845, 810 615.719, 810 612.937 C 810 611.322, 810.450 610, 811 610 C 811.550 610, 812 609.317, 812 608.482 C 812 606.515, 816.969 597, 817.996 597 C 818.428 597, 818.993 593.513, 819.253 589.250 C 819.688 582.087, 819.470 580.932, 816.365 574 C 810.667 561.276, 810.806 561.461, 807.202 561.826 C 804.205 562.130, 797.052 558.875, 796.967 557.168 C 796.948 556.801, 796.009 555.389, 794.879 554.031 C 793.013 551.788, 792.737 551.719, 791.862 553.282 C 791.333 554.228, 789.046 555.897, 786.781 556.992 L 782.662 558.982 777.246 556.332 C 773.925 554.707, 771.479 552.759, 770.923 551.297 L 770.016 548.912 766.977 552.373 C 763.328 556.530, 758.197 557.739, 752.039 555.893 C 748.478 554.827, 747.556 553.948, 745.687 549.843 C 744.484 547.202, 743.275 545.049, 743 545.059 C 742.725 545.069, 741.600 546.505, 740.500 548.251 M 699 561.264 C 697.398 562.086, 696.382 563.569, 696.172 565.394 C 695.583 570.507, 696.803 572.809, 701.258 574.990 C 703.591 576.132, 707.075 577.946, 709 579.021 C 722.187 586.389, 745.581 589.961, 761.201 586.993 C 771.286 585.077, 776.505 583.738, 777.750 582.749 C 778.438 582.202, 779 581.968, 779 582.228 C 779 583.564, 793.651 575.114, 795.340 572.803 C 797.164 570.308, 797.202 569.821, 795.848 566.303 C 794.448 562.667, 794.187 562.502, 789.892 562.550 C 786.749 562.586, 784.785 563.215, 783.356 564.644 C 782.233 565.767, 779.218 567.305, 776.657 568.062 C 774.095 568.818, 772 569.837, 772 570.325 C 772 570.814, 771.380 570.976, 770.622 570.685 C 769.864 570.394, 768.851 570.545, 768.372 571.020 C 767.234 572.146, 752.279 574, 744.325 574 C 738.525 574, 729.464 572.650, 726 571.270 C 725.175 570.942, 724.275 570.595, 724 570.500 C 718.208 568.499, 712.004 565.421, 709 563.057 C 705.591 560.375, 701.991 559.729, 699 561.264 M 241.397 647.769 C 240.241 647.951, 237.766 649.678, 235.897 651.606 C 232.594 655.014, 232.500 655.337, 232.508 663.306 C 232.515 669.844, 232.970 672.365, 234.758 675.781 C 235.991 678.135, 237 680.530, 237 681.102 C 237 681.674, 239.025 684.979, 241.500 688.448 C 243.975 691.916, 246 695.099, 246 695.522 C 246 695.944, 246.920 697.237, 248.043 698.395 C 258.260 708.920, 260.292 714.498, 255.539 718.963 C 253.529 720.851, 252.387 721.162, 249.297 720.661 C 247.217 720.323, 245.362 719.587, 245.175 719.024 C 244.954 718.361, 235.769 717.994, 219.167 717.984 C 205.050 717.975, 183.825 717.291, 172 716.464 C 126.825 713.305, 118.817 713.326, 115.532 716.611 C 112.701 719.442, 113.660 721, 118.234 721 C 123.751 721, 145.353 724.181, 146 725.088 C 146.275 725.474, 155.950 726.800, 167.500 728.035 C 189.787 730.419, 194.426 731.646, 196.246 735.640 C 197.653 738.728, 194.948 744.519, 191.703 745.367 C 189.258 746.007, 181.359 745.197, 178.500 744.014 C 177.400 743.558, 168.175 742.213, 158 741.024 C 147.825 739.835, 138.825 738.602, 138 738.283 C 137.175 737.964, 135.464 737.805, 134.197 737.930 C 132.930 738.055, 131.355 737.740, 130.697 737.229 C 128.792 735.753, 106.996 733.826, 102.186 734.708 C 96.829 735.691, 94.301 739.061, 95.860 743.143 C 96.865 745.774, 96.910 745.784, 105.262 745.263 C 111.548 744.871, 116.772 745.316, 126.077 747.035 C 132.910 748.298, 138.725 749.625, 139 749.985 C 139.439 750.558, 151.969 753.350, 160.500 754.775 C 162.150 755.051, 163.725 755.577, 164 755.945 C 164.275 756.313, 168.325 757.207, 173 757.932 C 181.757 759.289, 186.397 761.803, 185.321 764.606 C 185.027 765.373, 185.250 766, 185.816 766 C 187.560 766, 184.060 771.846, 181.907 772.529 C 180.036 773.123, 161.300 770.579, 158 769.282 C 157.175 768.958, 156.050 768.624, 155.500 768.540 C 154.950 768.455, 153.825 768.106, 153 767.765 C 152.175 767.423, 148.350 766.651, 144.500 766.049 C 135.526 764.645, 127.641 762.760, 126.991 761.863 C 126.711 761.477, 121.835 760.582, 116.157 759.873 C 103.759 758.326, 100.721 759.280, 100.178 764.891 C 99.842 768.376, 102.976 773, 105.674 773 C 106.403 773, 107 773.426, 107 773.947 C 107 774.468, 109.137 775.993, 111.750 777.336 C 114.362 778.679, 118.300 780.724, 120.500 781.881 C 126.455 785.014, 132.834 787.889, 139 790.219 C 142.025 791.362, 144.725 792.601, 145 792.971 C 145.275 793.342, 148.425 794.441, 152 795.413 C 155.575 796.385, 159.549 797.849, 160.831 798.666 C 162.113 799.483, 163.745 799.928, 164.459 799.654 C 165.172 799.380, 166.149 799.542, 166.628 800.014 C 167.108 800.486, 171.325 801.826, 176 802.992 C 180.675 804.158, 185.400 805.510, 186.500 805.997 C 189.182 807.185, 205.372 811, 207.727 811 C 208.757 811, 210.027 811.422, 210.550 811.939 C 211.072 812.455, 217.350 813.893, 224.500 815.134 C 231.650 816.376, 237.725 817.661, 238 817.991 C 238.275 818.321, 244.575 819.618, 252 820.873 C 259.425 822.128, 266.281 823.570, 267.236 824.077 C 268.191 824.585, 269.576 825, 270.312 825 C 272.137 825, 275.613 828.947, 276.479 832 C 276.868 833.375, 279.091 838.550, 281.419 843.500 C 283.746 848.450, 286.737 854.975, 288.065 858 C 289.393 861.025, 290.748 863.725, 291.077 864 C 291.406 864.275, 291.944 865.400, 292.271 866.500 C 293.907 871.988, 296.307 877.622, 298.054 880.076 C 299.124 881.579, 300 883.154, 300 883.575 C 300 885.706, 326.035 937.669, 327.735 938.932 C 328.156 939.244, 329.625 941.856, 331 944.734 C 332.375 947.613, 333.860 949.976, 334.301 949.984 C 334.742 949.993, 335.721 951.462, 336.477 953.250 C 339.742 960.970, 359.595 985.813, 369 993.947 C 378.262 1001.959, 392.965 1011.091, 400 1013.202 C 403.575 1014.275, 407.555 1015.667, 408.845 1016.296 C 411.776 1017.726, 432.266 1017.816, 434.132 1016.408 C 434.885 1015.841, 437.975 1014.791, 441 1014.076 C 446.946 1012.671, 459.954 1006.488, 466.680 1001.870 C 468.979 1000.291, 471.234 999, 471.690 999 C 472.146 999, 473.081 998.100, 473.768 997 C 474.455 995.900, 475.619 995, 476.356 995 C 477.743 995, 488.693 986.069, 500 975.715 C 516.001 961.063, 522.889 954.438, 522.942 953.649 C 522.974 953.181, 525.935 949.628, 529.521 945.754 C 534.536 940.337, 535.908 938.224, 535.461 936.605 C 534.543 933.281, 526.841 917.810, 524.457 914.500 C 523.268 912.850, 522.018 910.712, 521.679 909.750 C 521.340 908.788, 520.599 908, 520.031 908 C 519.464 908, 519 907.516, 519 906.924 C 519 901.624, 476.861 858.995, 469.226 856.572 C 468.002 856.183, 467 855.479, 467 855.008 C 467 854.536, 464.434 852.760, 461.297 851.062 C 456.498 848.462, 455.463 848.208, 454.764 849.457 C 454.307 850.274, 449.898 855.662, 444.967 861.431 C 440.035 867.199, 436 872.550, 436 873.322 C 436 874.093, 440.275 879.515, 445.500 885.371 C 453.999 894.896, 455 896.422, 455 899.854 C 455 905.104, 452.328 907.477, 447.330 906.666 C 445.287 906.335, 443.232 905.378, 442.763 904.541 C 441.458 902.208, 434.634 894.403, 425.637 884.951 C 415.532 874.334, 405 862.358, 405 861.485 C 405 861.124, 403.598 859.404, 401.885 857.664 C 397.175 852.880, 376.970 828.878, 375.052 825.789 C 374.127 824.298, 372.161 822.128, 370.685 820.967 C 369.208 819.805, 368 818.216, 368 817.436 C 368 816.655, 367.100 815.455, 366 814.768 C 364.900 814.081, 364 813.117, 364 812.627 C 364 812.136, 361.026 808.093, 357.390 803.643 C 353.755 799.193, 350.386 794.516, 349.905 793.250 C 349.424 791.984, 348.348 790.687, 347.515 790.367 C 346.682 790.048, 345.984 789.272, 345.964 788.643 C 345.944 788.014, 343.697 784.575, 340.970 781 C 337.998 777.103, 336.011 773.465, 336.007 771.917 C 336.003 770.496, 335.697 769.030, 335.326 768.659 C 334.956 768.289, 334.763 765.262, 334.899 761.933 C 335.035 758.605, 334.719 755.345, 334.197 754.691 C 333.674 754.036, 332.942 750.979, 332.570 747.897 C 330.434 730.221, 319.171 713.080, 302.923 702.782 C 298.062 699.700, 285.584 689.438, 279.520 683.534 C 274.808 678.947, 262 663.420, 262 662.295 C 262 661.622, 261.100 660.589, 260 660 C 258.900 659.411, 258 658.362, 258 657.668 C 258 656.974, 256.259 654.705, 254.130 652.627 C 250.332 648.918, 245.590 647.109, 241.397 647.769 M 860.500 668.435 C 859.400 669.283, 855.711 670.860, 852.301 671.940 C 848.892 673.020, 844.167 674.784, 841.801 675.861 C 839.436 676.938, 835.700 678.108, 833.500 678.461 C 827.409 679.438, 820.559 681.267, 820 682.066 C 819.351 682.992, 801.365 686.048, 793.035 686.647 C 789.479 686.903, 785.923 687.649, 785.131 688.306 C 783.030 690.050, 731.597 689.998, 729.850 688.250 C 729.096 687.496, 725.911 687, 721.820 687 C 718.091 687, 713.344 686.362, 711.270 685.582 C 709.197 684.803, 704.760 683.952, 701.412 683.692 C 698.063 683.432, 694.463 682.736, 693.412 682.145 C 692.360 681.554, 688.350 680.203, 684.500 679.143 C 680.650 678.083, 676.712 676.893, 675.750 676.500 C 674.409 675.953, 674 676.282, 674 677.907 C 674 679.073, 674.434 680.809, 674.964 681.764 C 675.495 682.719, 676.805 686.745, 677.877 690.712 C 679.275 695.891, 681.088 699.554, 684.308 703.712 C 690.858 712.168, 700.458 720.252, 706.261 722.197 C 708.042 722.795, 710.175 723.848, 711 724.537 C 713.175 726.355, 720.953 728.794, 727.141 729.598 C 730.088 729.981, 732.756 730.686, 733.069 731.163 C 734.823 733.841, 776.168 733.720, 779.490 731.028 C 780.046 730.578, 784.325 729.443, 789 728.507 C 793.675 727.570, 798.850 726.013, 800.500 725.046 C 802.150 724.080, 805.678 722.704, 808.341 721.989 C 811.004 721.274, 813.414 720.084, 813.698 719.345 C 813.982 718.605, 814.771 718, 815.452 718 C 816.133 718, 819.475 716.200, 822.879 714 C 826.283 711.800, 829.415 710, 829.839 710 C 831.611 710, 844.385 698.480, 849.534 692.238 C 856.099 684.281, 863.252 671.698, 862.811 668.883 C 862.525 667.052, 862.341 667.016, 860.500 668.435 M 248.696 754.054 C 244.953 754.489, 241.353 755.256, 240.696 755.757 C 240.038 756.259, 236.800 757.238, 233.500 757.934 C 227.577 759.182, 221 763.721, 221 766.561 C 221 768.971, 225.167 773, 227.658 773 C 229.881 773, 240.945 770.588, 245 769.219 C 245.825 768.941, 247.738 768.811, 249.250 768.932 C 250.762 769.052, 252 768.667, 252 768.075 C 252 766.632, 268.650 766.625, 269.542 768.068 C 269.905 768.656, 270.817 768.900, 271.569 768.612 C 272.321 768.323, 273.168 768.462, 273.451 768.921 C 274.384 770.431, 282.544 771.949, 285.491 771.161 C 290.592 769.797, 290.938 761.470, 286 758.906 C 275.464 753.435, 265.341 752.119, 248.696 754.054 M 569 861.956 C 569 865.741, 563.758 901.843, 563.016 903.171 C 562.159 904.703, 560 919.060, 560 923.224 C 560 924.201, 560.450 925, 561 925 C 561.550 925, 562 924.100, 562 923 C 562 921.900, 562.497 921, 563.105 921 C 563.791 921, 564.065 919.484, 563.829 917 C 563.619 914.800, 563.705 913, 564.020 913 C 564.335 913, 565.407 904.788, 566.402 894.750 C 567.398 884.712, 568.554 876.050, 568.972 875.500 C 570.249 873.819, 571.182 861, 570.028 861 C 569.463 861, 569 861.430, 569 861.956 M 942.570 882.500 C 942.833 885.800, 943.712 895.819, 944.524 904.765 C 945.336 913.710, 946 923.696, 946 926.956 C 946 930.215, 946.403 933.131, 946.895 933.435 C 947.388 933.740, 948.106 937.550, 948.491 941.903 C 949.099 948.764, 949.468 949.889, 951.270 950.360 C 952.412 950.659, 953.719 950.674, 954.174 950.393 C 955.295 949.700, 955.227 946, 954.094 946 C 953.595 946, 953.423 945.098, 953.712 943.995 C 954 942.892, 953.788 941.429, 953.239 940.745 C 952.691 940.060, 951.716 934.775, 951.073 929 C 949.451 914.436, 947.906 904.683, 947.033 903.500 C 946.627 902.950, 945.764 897.977, 945.114 892.450 C 943.705 880.454, 941.821 873.085, 942.570 882.500 M 1099.750 909.080 C 1097.058 910.648, 1097.677 911.962, 1100.492 910.656 C 1101.863 910.020, 1102.988 909.163, 1102.992 908.750 C 1103.003 907.736, 1101.857 907.853, 1099.750 909.080" stroke="none" fill="#171916" fill-rule="evenodd"/>
</svg>