<svg role="img" aria-labelledby="artwork-title" shape-rendering="geometricPrecision" xmlns="http://www.w3.org/2000/svg" width="1200" height="1200" viewBox="0 0 1200 1200" version="1.1">
	<title id="artwork-title">Mascot pointing toward himself</title>
	<path d="M 588.833 80.768 C 588.650 81.191, 584.225 82.602, 579 83.904 C 573.775 85.206, 569.275 86.547, 569 86.885 C 568.725 87.223, 566.475 88.578, 564 89.895 C 561.525 91.213, 558.571 93.125, 557.436 94.145 C 556.300 95.165, 555.041 96, 554.637 96 C 553.698 96, 539 110.670, 539 111.607 C 539 111.994, 537.858 113.809, 536.461 115.640 C 535.065 117.470, 533.257 120.888, 532.445 123.234 C 531.632 125.580, 530.678 128.175, 530.325 129 C 529.971 129.825, 529.778 130.909, 529.894 131.408 C 530.420 133.668, 527.407 133.650, 524.426 131.376 C 520.581 128.443, 509.178 125, 503.312 125 C 501.005 125, 498.840 124.550, 498.500 124 C 498.160 123.450, 495.460 123, 492.500 123 C 489.540 123, 486.840 123.450, 486.500 124 C 486.160 124.550, 484.446 125.005, 482.691 125.011 C 477.786 125.027, 470.343 127.497, 459.038 132.858 C 454.323 135.094, 435.922 153.554, 433.477 158.500 C 432.390 160.700, 431.191 162.640, 430.814 162.812 C 430.437 162.984, 429.176 166.359, 428.011 170.312 C 426.847 174.265, 425.396 178.398, 424.785 179.496 C 423.355 182.069, 423.473 202.873, 424.926 204.326 C 426.874 206.274, 426.083 206.665, 417.500 208 C 412.825 208.727, 409 209.700, 409 210.161 C 409 210.623, 408.438 211.003, 407.750 211.007 C 404.423 211.025, 385 225.992, 385 228.539 C 385 228.964, 383.852 230.816, 382.449 232.656 C 381.046 234.496, 379.240 237.576, 378.435 239.500 C 377.631 241.425, 376.501 243, 375.924 243 C 375.347 243, 374.972 243.787, 375.091 244.750 C 375.210 245.713, 375.048 247.175, 374.731 248 C 373.856 250.280, 372.166 258.887, 371.475 264.582 C 370.666 271.253, 372.681 285.705, 374.950 289.500 C 375.936 291.150, 377.061 293.850, 377.449 295.500 C 378.395 299.521, 391.398 316, 393.624 316 C 393.857 316, 396.209 317.486, 398.850 319.303 L 403.651 322.605 401.458 326.070 C 396.031 334.646, 395.558 357.817, 400.652 365.592 C 401.473 366.844, 403.125 369.808, 404.322 372.177 C 406.632 376.745, 417.176 386, 420.071 386 C 421.466 386, 421.721 387.030, 421.621 392.250 C 421.554 395.688, 421.846 399.738, 422.269 401.250 C 422.952 403.693, 422.773 404, 420.668 404 C 413.778 404, 396 415.334, 396 419.728 C 396 420.462, 395.354 421.311, 394.565 421.614 C 391.972 422.609, 384.974 438.308, 383.857 445.635 C 383.282 449.411, 382.404 452.928, 381.906 453.450 C 380.666 454.751, 380.751 473.728, 382 474.500 C 382.550 474.840, 383 476.298, 383 477.741 C 383 485.969, 390.269 503.658, 395.399 507.916 C 396.279 508.647, 397 509.710, 397 510.278 C 397 512.250, 402.120 518.011, 405.302 519.618 C 407.061 520.507, 409.427 522.080, 410.561 523.114 C 411.694 524.147, 415.069 525.825, 418.061 526.841 L 423.500 528.690 423.663 537.457 C 423.752 542.280, 424.315 546.715, 424.913 547.313 C 425.511 547.911, 426 549.454, 426 550.742 C 426 555.125, 429.170 568.483, 431.401 573.500 C 432.624 576.250, 434.255 580.525, 435.026 583 C 435.797 585.475, 437.231 588.088, 438.214 588.807 C 439.196 589.525, 440 591.178, 440 592.480 C 440 593.782, 441.056 596.119, 442.348 597.673 C 443.639 599.228, 445.327 601.664, 446.098 603.087 C 448.846 608.157, 454.822 616.539, 457.390 618.924 C 458.826 620.258, 460 621.650, 460 622.018 C 460 622.386, 464.694 627.370, 470.431 633.094 C 480.051 642.691, 493.865 653.768, 500.084 656.871 C 501.506 657.580, 503.965 659.194, 505.549 660.457 L 508.429 662.754 502.215 663.475 C 498.797 663.872, 496 664.563, 496 665.010 C 496 665.458, 494.087 666.132, 491.750 666.509 C 487.263 667.232, 478.861 669.583, 475.500 671.055 C 474.400 671.537, 470.350 672.883, 466.500 674.046 C 462.650 675.208, 458.825 676.423, 458 676.744 C 457.175 677.065, 456.275 677.396, 456 677.480 C 455.725 677.563, 453.700 678.434, 451.500 679.415 C 446.679 681.564, 441.370 683.897, 434 687.106 C 430.975 688.422, 428.350 689.837, 428.167 690.250 C 427.983 690.662, 427.145 691, 426.303 691 C 424.816 691, 417.005 694.878, 416 696.116 C 415.725 696.454, 413.475 697.743, 411 698.980 C 408.525 700.217, 405.068 702.302, 403.317 703.614 C 401.566 704.926, 399.790 706, 399.370 706 C 398.235 706, 391.026 710.979, 386.747 714.720 C 384.683 716.524, 382.331 718, 381.520 718 C 380.709 718, 379.309 719.125, 378.408 720.500 C 377.507 721.875, 376.259 723, 375.635 723 C 373.075 723, 345.161 748.581, 326.428 768.092 C 314.923 780.076, 298 799.576, 298 800.850 C 298 801.444, 297.100 802.411, 296 803 C 294.900 803.589, 294 804.537, 294 805.107 C 294 805.677, 290.625 810.339, 286.500 815.468 C 282.375 820.597, 279 825.304, 279 825.928 C 279 826.552, 278.325 827.322, 277.500 827.638 C 276.675 827.955, 275.996 828.728, 275.990 829.357 C 275.985 829.986, 274.399 832.489, 272.466 834.921 C 266.649 842.240, 266.702 845.451, 272.753 852.149 L 276.302 856.077 273.138 860.288 C 271.397 862.605, 269.042 866.243, 267.903 868.374 C 266.764 870.505, 264.520 874.060, 262.916 876.274 C 261.312 878.488, 260 880.908, 260 881.650 C 260 882.393, 259.539 883, 258.975 883 C 258.412 883, 257.519 884.135, 256.991 885.523 C 256.464 886.911, 254.543 890.398, 252.722 893.273 C 249.451 898.440, 231 935.020, 231 936.339 C 231 936.715, 230.136 938.929, 229.079 941.261 C 228.023 943.592, 226.148 948.650, 224.913 952.500 C 223.678 956.350, 222.331 959.950, 221.918 960.501 C 220.934 961.815, 217 982.253, 217 986.051 C 217 987.673, 216.495 989, 215.878 989 C 215.148 989, 215.235 989.582, 216.128 990.663 C 217.198 991.959, 217.225 992.418, 216.250 992.746 C 214.681 993.274, 214.437 1017, 216 1017 C 216.550 1017, 217 1018.268, 217 1019.818 C 217 1023.907, 220.709 1037.403, 221.947 1037.816 C 222.526 1038.009, 223 1038.747, 223 1039.456 C 223 1041.867, 226.992 1049.783, 228.499 1050.361 C 229.325 1050.678, 230 1051.569, 230 1052.341 C 230 1053.874, 244.405 1068, 245.968 1068 C 246.498 1068, 248.931 1069.268, 251.375 1070.819 C 253.820 1072.369, 258.448 1074.216, 261.660 1074.923 C 264.872 1075.631, 268.483 1076.672, 269.684 1077.239 C 270.886 1077.805, 272.798 1078.025, 273.933 1077.728 C 275.069 1077.431, 276.250 1077.596, 276.558 1078.094 C 277.273 1079.251, 287.705 1079.286, 288.417 1078.134 C 288.711 1077.658, 290.120 1077.492, 291.548 1077.764 C 292.976 1078.037, 295.124 1077.794, 296.322 1077.223 C 297.520 1076.652, 300.750 1075.633, 303.500 1074.958 C 309.038 1073.598, 322.147 1067.341, 328.800 1062.882 C 331.165 1061.297, 333.528 1060, 334.050 1060 C 334.573 1060, 335 1059.536, 335 1058.969 C 335 1058.401, 335.787 1057.668, 336.750 1057.338 C 337.712 1057.009, 339.850 1055.489, 341.500 1053.961 C 343.150 1052.433, 347.272 1048.636, 350.660 1045.525 C 354.048 1042.413, 358.084 1037.985, 359.628 1035.684 C 361.173 1033.383, 363.042 1030.825, 363.781 1030 C 367.155 1026.237, 373.980 1016.376, 373.989 1015.250 C 373.995 1014.563, 374.473 1014, 375.051 1014 C 375.629 1014, 376.713 1012.538, 377.460 1010.750 C 378.207 1008.962, 379.755 1006.309, 380.900 1004.853 C 382.045 1003.398, 383.899 1000.248, 385.019 997.853 C 386.140 995.459, 388.156 991.700, 389.499 989.500 L 391.942 985.500 391.491 989 C 390.830 994.123, 389.231 1014.703, 389.046 1020.467 C 388.957 1023.198, 388.508 1025.898, 388.047 1026.467 C 387.586 1027.035, 386.703 1035.825, 386.086 1046 C 385.469 1056.175, 384.540 1070.734, 384.022 1078.353 C 383.190 1090.601, 383.279 1092.628, 384.790 1095.853 C 385.731 1097.859, 387.512 1099.944, 388.750 1100.487 C 389.988 1101.030, 391 1101.818, 391 1102.237 C 391 1103.442, 394.475 1103.125, 395.800 1101.800 C 396.733 1100.867, 397.267 1100.867, 398.200 1101.800 C 398.860 1102.460, 401.412 1103, 403.871 1103 C 406.549 1103, 409.045 1103.636, 410.094 1104.585 C 411.057 1105.456, 413.792 1106.424, 416.172 1106.735 C 418.553 1107.045, 420.808 1107.774, 421.185 1108.354 C 421.650 1109.069, 422.715 1108.955, 424.500 1108 C 426.775 1106.783, 427.252 1106.789, 428.034 1108.046 C 428.724 1109.157, 431.243 1109.500, 438.719 1109.500 C 445.415 1109.500, 449.288 1109.955, 451 1110.942 C 452.713 1111.930, 457.108 1112.445, 464.962 1112.577 C 472.341 1112.701, 476.556 1113.167, 476.795 1113.885 C 477.036 1114.609, 480.803 1115, 487.549 1115 C 493.259 1115, 502.839 1115.684, 508.836 1116.521 C 514.834 1117.358, 524.637 1117.920, 530.621 1117.771 C 536.604 1117.622, 549.150 1117.925, 558.500 1118.444 C 573.328 1119.267, 607.091 1119.407, 682.500 1118.956 C 693.500 1118.890, 707.450 1118.437, 713.500 1117.948 C 719.550 1117.460, 731.475 1116.830, 740 1116.549 C 764.083 1115.754, 779 1114.772, 779 1113.980 C 779 1112.940, 788.134 1111.782, 798 1111.571 C 809.643 1111.323, 821.876 1109.225, 825.110 1106.922 C 827.016 1105.565, 828.691 1105.188, 830.877 1105.625 C 833.478 1106.146, 834.497 1105.703, 837.417 1102.783 C 840.742 1099.458, 840.889 1098.997, 841.188 1090.912 C 842.510 1055.246, 839.629 970.718, 837.033 969 C 836.618 968.725, 835.962 964.813, 835.575 960.307 L 834.873 952.115 838.186 951.649 C 851.150 949.826, 856.503 948.827, 857.432 948.056 C 858.347 947.297, 869.555 945.496, 887 943.304 C 889.475 942.993, 892 942.344, 892.611 941.862 C 893.222 941.380, 897.047 940.553, 901.111 940.023 C 905.175 939.493, 910.072 938.596, 911.993 938.030 C 913.915 937.463, 916.877 937, 918.577 937 C 920.276 937, 921.989 936.678, 922.383 936.284 C 923.108 935.559, 940.061 932.219, 947.610 931.314 C 951.272 930.875, 951.788 931.076, 952.346 933.160 C 952.691 934.447, 952.979 936.711, 952.986 938.191 C 952.994 939.671, 953.450 941.160, 954 941.500 C 954.550 941.840, 955 944.466, 955 947.335 C 955 950.205, 955.437 956.141, 955.972 960.526 C 957.639 974.195, 957.915 978.807, 958.543 1003.500 C 958.911 1017.959, 959.601 1028.419, 960.279 1029.812 C 961.120 1031.539, 961.108 1032.597, 960.233 1033.998 C 959.444 1035.262, 959.029 1042.776, 958.959 1057.061 C 958.903 1068.714, 958.406 1079.430, 957.855 1080.874 C 957.304 1082.318, 957.142 1085.435, 957.495 1087.799 C 958.042 1091.457, 958.659 1092.346, 961.636 1093.766 C 964.749 1095.251, 965.420 1095.273, 967.720 1093.967 C 973.434 1090.724, 973.793 1089.292, 975.080 1064.605 C 976.923 1029.254, 974.825 955.709, 971.884 952.550 C 971.398 952.028, 970.991 949.328, 970.980 946.550 C 970.969 943.773, 970.506 938.354, 969.950 934.509 C 969.055 928.318, 969.138 927.373, 970.667 926.254 C 971.618 925.559, 973.155 925.232, 974.084 925.527 C 978.780 927.017, 985.582 915.767, 983.176 910.487 C 982.548 909.108, 981.495 903.934, 980.837 898.990 C 980.178 894.045, 979.243 890, 978.757 890 C 978.272 890, 978.004 889.212, 978.162 888.250 C 978.321 887.288, 978.191 886.050, 977.874 885.500 C 977.557 884.950, 976.714 881.575, 976 878 C 975.286 874.425, 974.230 870.600, 973.652 869.500 C 973.074 868.400, 972.726 866.464, 972.879 865.197 C 973.032 863.930, 972.710 862.355, 972.164 861.697 C 971.617 861.039, 970.213 856.751, 969.043 852.169 C 967.873 847.588, 966.534 843.088, 966.068 842.169 C 965.601 841.251, 964.202 837.125, 962.959 833 C 961.715 828.875, 960.354 825.050, 959.934 824.500 C 959.514 823.950, 958.165 820.575, 956.937 817 C 955.709 813.425, 954.433 810.275, 954.102 810 C 953.389 809.408, 951.250 803.913, 949.820 799 C 949.260 797.075, 948.217 794.825, 947.503 794 C 946.789 793.175, 945.093 790.250, 943.736 787.500 C 939.012 777.932, 935.412 771.463, 931.491 765.500 C 929.322 762.200, 926.861 758.288, 926.023 756.807 C 921.366 748.572, 890.686 717.908, 884.999 715.804 C 883.900 715.397, 883 714.589, 883 714.007 C 883 713.426, 881.962 712.556, 880.694 712.074 C 879.425 711.591, 877.063 710.103, 875.444 708.766 C 873.825 707.429, 870.925 705.472, 869 704.418 C 867.075 703.363, 865.275 702.215, 865 701.866 C 864.725 701.517, 862.025 699.890, 859 698.251 C 855.975 696.612, 851.700 694.236, 849.500 692.970 C 845.281 690.544, 836.205 686.019, 829.500 682.999 C 819.095 678.313, 817.439 677.655, 816.592 677.873 C 816.092 678.001, 815.417 677.744, 815.092 677.303 C 814.355 676.303, 807.300 673, 805.902 673 C 805.335 673, 802.412 671.875, 799.406 670.500 C 796.400 669.125, 793.424 668, 792.791 668 C 791.213 668, 785.035 666.007, 782 664.519 C 780.625 663.845, 776.700 662.718, 773.278 662.016 L 767.055 660.738 771.468 657.369 C 773.894 655.516, 776.320 654, 776.857 654 C 777.394 654, 777.983 653.662, 778.167 653.250 C 778.350 652.837, 781.044 650.767, 784.154 648.650 C 794.495 641.608, 820.763 613.278, 822.870 606.895 C 823.523 604.915, 825.170 602.249, 826.529 600.973 C 827.888 599.696, 829.003 597.942, 829.007 597.076 C 829.010 596.209, 829.924 594.150, 831.038 592.500 C 832.151 590.850, 833.772 587.925, 834.639 586 C 835.507 584.075, 836.955 580.925, 837.858 579 C 838.761 577.075, 839.556 575.369, 839.625 575.208 C 839.771 574.869, 847.416 577.665, 850.840 579.310 C 853.881 580.771, 870.365 580.666, 873.262 579.167 C 874.493 578.530, 878.650 576.976, 882.500 575.713 C 890.759 573.005, 898.776 567.964, 904.958 561.594 C 907.410 559.067, 909.998 557, 910.708 557 C 911.419 557, 912 556.570, 912 556.044 C 912 555.019, 914.815 550.692, 919.250 544.902 C 920.763 542.927, 922 540.848, 922 540.282 C 922 539.715, 923.081 537.283, 924.401 534.876 C 925.722 532.469, 927.131 528.932, 927.532 527.015 C 927.934 525.098, 928.832 522.623, 929.529 521.515 C 931.636 518.162, 933.078 501.431, 932.031 492.479 C 930.903 482.836, 929.906 477.671, 929.041 477 C 928.687 476.725, 927.578 474.250, 926.577 471.500 C 925.575 468.750, 924.248 466.043, 923.628 465.483 C 923.008 464.924, 921.821 463.148, 920.992 461.537 C 920.162 459.925, 917.118 456.679, 914.228 454.323 L 908.972 450.038 912.236 448.492 C 918.800 445.384, 926 439.554, 926 437.350 C 926 436.687, 927.027 435.325, 928.282 434.323 C 930.216 432.778, 935.298 425.586, 935.576 424 C 935.624 423.725, 936.639 421.325, 937.832 418.667 C 939.024 416.009, 940 412.596, 940 411.084 C 940 409.571, 940.278 408.055, 940.618 407.716 C 941.327 407.007, 941.414 396.249, 940.729 394 C 940.478 393.175, 939.741 390.475, 939.092 388 C 938.444 385.525, 937.673 382.781, 937.380 381.903 C 937.008 380.788, 937.851 379.894, 940.173 378.942 C 944.098 377.333, 955.479 366.393, 958.060 361.748 C 968.686 342.627, 971.306 331.478, 968.567 317.039 C 966.748 307.452, 963.276 299.372, 958.379 293.332 C 956.521 291.039, 955 288.677, 955 288.082 C 955 287.487, 954.586 287, 954.081 287 C 953.575 287, 950.560 284.780, 947.381 282.067 C 944.201 279.353, 941.352 277.182, 941.050 277.241 C 940.747 277.301, 939.375 276.876, 938 276.298 C 936.625 275.719, 934.197 274.853, 932.604 274.373 C 928.561 273.154, 927.173 270.685, 929.322 268.535 C 930.245 267.612, 931.023 266.327, 931.051 265.679 C 931.080 265.030, 931.460 261.350, 931.896 257.500 C 932.822 249.329, 931.706 237.147, 929.674 233.233 C 928.893 231.730, 927.577 228.913, 926.750 226.974 C 924.102 220.766, 915.879 209.948, 911.897 207.435 C 909.776 206.096, 907.826 205, 907.564 205 C 907.303 205, 905.431 203.875, 903.405 202.500 C 901.379 201.125, 899.138 200, 898.426 200 C 897.713 200, 895.863 199.478, 894.315 198.840 C 892.767 198.201, 890.938 197.771, 890.250 197.883 C 889.563 197.996, 889 197.710, 889 197.250 C 889 195.685, 876.507 195.855, 873.418 197.463 C 870.636 198.910, 870.470 198.877, 869.850 196.741 C 869.492 195.508, 869.155 192.453, 869.100 189.950 C 869.045 187.448, 868.632 184.973, 868.183 184.450 C 867.733 183.928, 866.769 181.025, 866.040 178 C 865.311 174.975, 863.366 170.475, 861.719 168 C 857.396 161.507, 848.069 152.155, 844 150.235 C 842.075 149.327, 840.050 148.066, 839.500 147.434 C 838.374 146.138, 827.532 143, 824.184 143 C 822.983 143, 822 142.550, 822 142 C 822 141.404, 818.167 141, 812.500 141 C 807.275 141, 803 141.375, 803 141.833 C 803 142.291, 800.525 143.114, 797.500 143.662 C 792.742 144.525, 791.991 144.446, 791.931 143.080 C 791.832 140.800, 791.201 136.015, 790.491 132.163 C 788.780 122.869, 773.629 100.011, 769.170 99.994 C 768.252 99.990, 766.733 98.640, 765.797 96.994 C 764.860 95.347, 763.397 94, 762.547 94 C 761.696 94, 761 93.589, 761 93.087 C 761 92.083, 748.718 86.031, 742.721 84.079 C 740.642 83.403, 736.480 82.595, 733.471 82.285 C 730.462 81.974, 728 81.333, 728 80.860 C 728 80.387, 722.825 80, 716.500 80 C 710.175 80, 705 80.389, 705 80.864 C 705 81.339, 702.862 82.016, 700.250 82.367 C 694.051 83.201, 686.676 85.793, 680.706 89.235 C 678.069 90.756, 675.530 92, 675.063 92 C 674.596 92, 673.955 92.675, 673.638 93.500 C 673.322 94.325, 672.497 95, 671.806 95 C 671.116 95, 667.501 98.025, 663.775 101.723 C 660.049 105.421, 657 107.830, 657 107.076 C 657 104.694, 649.809 96.818, 646.291 95.348 C 644.433 94.572, 642.652 93.257, 642.333 92.426 C 641.205 89.486, 623.646 82.028, 617.809 82.009 C 616.329 82.004, 614.840 81.550, 614.500 81 C 613.616 79.570, 608.278 79.762, 607.583 81.250 C 607.117 82.250, 606.883 82.250, 606.417 81.250 C 606.040 80.443, 603.589 80, 599.500 80 C 595.369 80, 592.991 80.435, 592.662 81.250 C 592.259 82.250, 592.142 82.250, 592.079 81.250 C 591.994 79.897, 589.379 79.510, 588.833 80.768 M 713.564 97.040 C 710.848 97.506, 708.266 97.664, 707.825 97.392 C 707.383 97.119, 705.555 97.543, 703.761 98.334 C 701.967 99.125, 697.575 100.814, 694 102.088 C 690.425 103.362, 686.905 104.988, 686.179 105.702 C 685.452 106.416, 684.420 107, 683.886 107 C 682.324 107, 673 116.138, 673 117.668 C 673 118.435, 672.323 119.323, 671.495 119.640 C 669.918 120.246, 666.397 126.731, 667.207 127.540 C 667.911 128.244, 674.079 124.956, 674.600 123.600 C 674.849 122.951, 677.291 121.551, 680.026 120.490 C 682.762 119.428, 685 118.182, 685 117.721 C 685 117.259, 685.450 117.160, 686 117.500 C 686.550 117.840, 687 117.700, 687 117.190 C 687 116.679, 688.462 116.006, 690.250 115.693 C 692.038 115.380, 697.550 114.395, 702.500 113.504 C 713.132 111.590, 725.898 112.785, 732.239 116.289 C 734.295 117.426, 736.265 118.068, 736.616 117.717 C 737.553 116.780, 746 122.858, 746 124.469 C 746 125.223, 747.267 126.119, 748.816 126.460 C 754.451 127.697, 764.941 144.258, 765.751 153.196 L 766.285 159.081 768.457 157.040 C 769.652 155.918, 771.114 155, 771.707 155 C 772.646 155, 773.851 153.191, 774.539 150.750 C 774.655 150.338, 774.847 149.775, 774.966 149.500 C 775.418 148.453, 775.230 143.435, 774.685 142 C 774.372 141.175, 773.396 137.575, 772.517 134 C 771.638 130.425, 769.703 125.700, 768.218 123.500 C 764.755 118.370, 755.124 108.924, 751.388 106.993 C 749.800 106.172, 747.980 105.013, 747.345 104.417 C 746.711 103.821, 743.561 102.549, 740.345 101.591 C 737.130 100.632, 733.600 99.466, 732.500 99 C 731.400 98.534, 728.700 97.917, 726.500 97.629 C 724.300 97.340, 721.600 96.899, 720.500 96.649 C 719.400 96.398, 716.279 96.574, 713.564 97.040 M 593 97.681 C 591.625 97.962, 590.050 98.556, 589.500 99.002 C 588.950 99.448, 586.355 100.132, 583.734 100.522 C 578.718 101.269, 574.440 103.126, 569.292 106.792 C 567.587 108.006, 565.779 109, 565.276 109 C 564.773 109, 563.381 110.013, 562.183 111.250 C 560.985 112.487, 559.272 114.231, 558.377 115.125 C 551.113 122.379, 545.800 131.730, 544.529 139.500 L 543.874 143.500 545.546 140.283 C 547.537 136.451, 563.370 121, 565.305 121 C 566.049 121, 568.653 119.678, 571.092 118.063 C 575.229 115.322, 587.088 112.003, 592.750 112.001 C 593.987 112, 595 111.550, 595 111 C 595 109.776, 603.669 109.655, 604.419 110.868 C 604.714 111.346, 607.328 112.037, 610.228 112.405 C 617.332 113.305, 625.022 115.893, 625.678 117.604 C 625.973 118.372, 626.831 119, 627.586 119 C 628.340 119, 632.308 122.263, 636.402 126.250 L 643.847 133.500 646.019 128.839 C 648.123 124.324, 648.065 120, 645.901 120 C 645.371 120, 644.663 119.213, 644.328 118.250 C 643.487 115.834, 634.856 107, 633.337 107 C 632.656 107, 631.740 106.438, 631.300 105.750 C 630.369 104.295, 621.597 100, 619.557 100 C 618.792 100, 618.015 99.545, 617.830 98.990 C 617.467 97.901, 597.163 96.832, 593 97.681 M 618.548 135.646 C 619.896 137.101, 621 138.676, 621 139.146 C 621 139.616, 622.013 139.981, 623.250 139.958 C 625.274 139.921, 625.107 139.570, 621.583 136.458 C 616.961 132.377, 615.042 131.864, 618.548 135.646 M 480.500 141.943 C 478.300 143.037, 475.797 143.947, 474.937 143.966 C 471.069 144.050, 453 156.682, 453 159.302 C 453 159.803, 451.712 161.852, 450.137 163.856 C 446.306 168.732, 444 173.390, 444 176.250 C 444 177.543, 443.438 179.162, 442.750 179.850 C 440.920 181.680, 441.118 200.544, 443.012 204.734 C 445.593 210.444, 446.499 209.249, 446.512 200.121 C 446.520 194.416, 447.015 190.654, 447.977 189 C 448.775 187.625, 449.474 186.275, 449.530 186 C 450.769 179.830, 464.778 162, 468.386 162 C 469.156 162, 470.021 161.388, 470.308 160.640 C 471.198 158.322, 484.416 152.266, 492.525 150.462 C 499.367 148.940, 501.278 148.893, 509.350 150.050 C 514.359 150.768, 519.591 151.948, 520.978 152.672 C 524.232 154.370, 525 154.337, 525 152.500 C 525 151.675, 524.539 151, 523.976 151 C 523.413 151, 520.653 149.419, 517.843 147.486 C 515.033 145.553, 511.556 143.691, 510.117 143.348 C 508.678 143.005, 506.879 142.233, 506.121 141.633 C 505.363 141.032, 500.188 140.409, 494.621 140.247 C 486.135 140.001, 483.854 140.275, 480.500 141.943 M 805 158.621 C 803.625 158.883, 801.825 159.375, 801 159.713 C 800.175 160.051, 799.275 160.407, 799 160.504 C 797.316 161.099, 791 164.067, 791 164.263 C 791 164.394, 794.713 164.537, 799.250 164.581 C 805.477 164.643, 808.651 165.195, 812.195 166.831 C 814.777 168.024, 817.536 169, 818.324 169 C 819.780 169, 824.968 173.306, 832.094 180.430 C 837.557 185.892, 841.003 193.648, 841.709 202.074 C 842.029 205.883, 842.427 209, 842.595 209 C 842.763 209, 844.947 207.618, 847.450 205.929 C 851.368 203.285, 852.024 202.348, 852.175 199.179 C 852.465 193.080, 851.876 187.632, 850.696 185.507 C 850.082 184.403, 849.695 182.938, 849.834 182.250 C 849.974 181.563, 849.708 181, 849.245 181 C 848.781 181, 847.844 179.457, 847.162 177.572 C 845.672 173.451, 834.985 163.272, 831.200 162.369 C 829.715 162.014, 827.938 161.281, 827.250 160.740 C 826.563 160.198, 826 160.090, 826 160.500 C 826 160.910, 825.379 160.730, 824.621 160.100 C 823.149 158.879, 809.169 157.825, 805 158.621 M 649 168.132 C 649 169.305, 648.063 171.780, 646.918 173.632 C 644.345 177.796, 645.199 177.911, 649.653 174 C 651.532 172.350, 653.504 171, 654.035 171 C 654.566 171, 655 170.550, 655 170 C 655 169.450, 654.100 169, 653 169 C 651.889 169, 651 168.333, 651 167.500 C 651 166.675, 650.550 166, 650 166 C 649.450 166, 649 166.959, 649 168.132 M 534 182.500 C 533.003 183.702, 533.012 184, 534.049 184 C 534.760 184, 536.168 184.747, 537.177 185.661 C 539.599 187.852, 540.277 186.996, 538.740 183.685 C 537.341 180.674, 535.829 180.296, 534 182.500 M 874.500 214.362 C 871.750 214.988, 868.600 216.049, 867.500 216.720 C 865.702 217.816, 865.889 217.942, 869.346 217.970 C 873.897 218.006, 883.469 220.645, 887 222.837 C 891.827 225.834, 901.715 236.571, 903.052 240.266 C 903.794 242.320, 904.700 244, 905.064 244 C 906.624 244, 908.253 256.466, 907.749 264.548 C 907.299 271.749, 907.432 272.886, 908.609 271.910 C 909.374 271.275, 910 270.277, 910 269.693 C 910 269.109, 911.002 266.577, 912.226 264.066 C 914.047 260.331, 914.455 257.772, 914.464 250 C 914.476 240.931, 914.298 240.144, 910.545 232.652 C 907.979 227.530, 905.812 224.499, 904.306 223.926 C 903.038 223.444, 902 222.621, 902 222.098 C 902 220.295, 884.226 212.903, 880.500 213.156 C 879.950 213.194, 877.250 213.736, 874.500 214.362 M 417.939 225.335 C 415.430 226.028, 411.986 227.586, 410.284 228.797 C 408.583 230.009, 406.852 231, 406.437 231 C 404.953 231, 396.003 240.533, 396.001 242.115 C 396.001 243.003, 395.161 244.803, 394.136 246.115 C 392.162 248.640, 389 258.369, 389 261.917 C 389 263.078, 388.438 264.935, 387.750 266.044 C 386.853 267.492, 386.811 268.264, 387.603 268.781 C 388.209 269.176, 389.013 271.975, 389.390 275 C 390.532 284.165, 392.955 290.379, 394.704 288.629 C 395.110 288.223, 394.780 287.482, 393.971 286.982 C 392.124 285.840, 391.902 270.520, 393.680 266.901 C 394.329 265.581, 396.303 261.350, 398.067 257.500 C 400.605 251.960, 403.205 248.580, 410.529 241.296 C 415.619 236.234, 420.997 231.788, 422.480 231.416 C 426.395 230.433, 434.279 226.287, 433.318 225.716 C 431.151 224.426, 422.047 224.201, 417.939 225.335 M 609.500 227.589 C 604.562 230.184, 596.371 231.075, 588.557 229.868 C 584.675 229.268, 581.208 228.312, 580.851 227.743 C 579.452 225.514, 577.119 228.025, 576.451 232.477 C 576.072 235.004, 574.685 238.659, 573.368 240.600 C 572.051 242.540, 570.328 245.672, 569.540 247.559 C 567.550 252.321, 553.515 265.360, 546.400 269.056 C 538.403 273.210, 530.369 276, 526.402 276 C 524.596 276, 522.840 276.450, 522.500 277 C 521.743 278.225, 509.329 278.342, 508.581 277.132 C 508.286 276.654, 505.897 275.960, 503.272 275.589 C 500.648 275.219, 496.635 273.922, 494.356 272.708 C 492.077 271.493, 488.609 269.638, 486.650 268.586 L 483.087 266.671 481.055 269.086 C 479.937 270.413, 477.879 273.863, 476.482 276.750 C 475.085 279.637, 473.617 282.002, 473.221 282.004 C 472.824 282.006, 471.633 284.143, 470.574 286.754 C 469.514 289.364, 468.341 291.725, 467.966 292 C 467.032 292.685, 463 301.973, 463 303.439 C 463 304.091, 462.068 306.554, 460.928 308.912 C 459.789 311.271, 458.422 315.896, 457.892 319.191 C 457.361 322.486, 456.303 326.153, 455.540 327.341 C 454.242 329.362, 451.478 342.824, 450.272 353 C 449.978 355.475, 449.298 358.055, 448.761 358.733 C 448.223 359.411, 447.396 363.236, 446.922 367.233 C 446.448 371.230, 445.870 375.850, 445.636 377.500 C 445.402 379.150, 444.885 383.544, 444.487 387.264 C 444.090 390.984, 443.367 394.273, 442.882 394.573 C 440.774 395.876, 442.321 397.002, 446.250 397.024 C 448.587 397.038, 452.525 397.516, 455 398.087 C 459.176 399.050, 459.608 398.958, 461 396.812 C 464.597 391.268, 470.285 386.164, 474.753 384.473 C 477.364 383.485, 480.400 382.119, 481.500 381.438 C 484.063 379.851, 496.838 377, 501.388 377 C 503.310 377, 505.172 376.531, 505.527 375.957 C 506.267 374.759, 533.545 374.818, 535.981 376.023 C 536.816 376.436, 543.074 377.516, 549.887 378.424 C 556.700 379.332, 564.213 380.958, 566.582 382.037 C 568.952 383.117, 571.350 384, 571.911 384 C 573.405 384, 580.442 387.368, 580.842 388.275 C 581.030 388.701, 582.707 389.687, 584.570 390.465 C 589.826 392.661, 597.680 400.597, 599.617 405.666 C 601.052 409.424, 601.665 410.052, 603.414 409.556 C 604.561 409.231, 608.313 408.683, 611.750 408.338 C 615.188 407.993, 618 407.326, 618 406.855 C 618 406.385, 621.150 406, 625 406 C 629 406, 632 406.429, 632 407 C 632 407.550, 633.553 408, 635.451 408 C 640.206 408, 648.695 410.324, 655.227 413.414 C 658.233 414.836, 661.152 416, 661.714 416 C 662.275 416, 663.925 414.201, 665.380 412.002 C 668.088 407.910, 679.314 399, 681.762 399 C 682.976 399, 691.032 396.722, 695 395.257 C 695.825 394.952, 697.536 394.805, 698.803 394.930 C 700.070 395.055, 701.804 394.577, 702.658 393.869 C 704.505 392.336, 733.935 392.292, 734.905 393.821 C 735.232 394.337, 738.425 395.065, 742 395.438 C 750.526 396.329, 762.867 398.976, 763.536 400.057 C 763.826 400.528, 764.725 400.659, 765.532 400.349 C 766.339 400.040, 767 400.212, 767 400.733 C 767 401.254, 769.536 402.289, 772.636 403.033 C 775.736 403.776, 780.123 405.640, 782.386 407.174 C 784.649 408.708, 787.014 409.972, 787.642 409.982 C 789.318 410.009, 799 418.963, 799 420.486 C 799 421.201, 799.633 422.029, 800.406 422.325 C 801.179 422.622, 802.101 424.182, 802.454 425.792 C 803.080 428.639, 803.299 428.734, 810.516 429.280 C 814.818 429.605, 818.882 430.505, 820.190 431.420 C 821.430 432.289, 823.329 433, 824.409 433 C 827.371 433, 839.325 436.105, 840.750 437.245 C 841.701 438.006, 842 437.427, 842 434.822 C 842 432.940, 842.391 430.972, 842.870 430.450 C 844.819 428.321, 844.898 422.140, 843.006 419.735 C 841.030 417.223, 838 406.891, 838 402.665 C 838 401.264, 837.550 399.840, 837 399.500 C 835.696 398.694, 835.696 383.306, 837 382.500 C 837.550 382.160, 838.003 380.221, 838.007 378.191 C 838.015 374.070, 841.415 359.006, 842.956 356.267 C 843.502 355.295, 844.599 352.846, 845.392 350.825 C 846.987 346.762, 846.369 346, 841.477 346 C 840.180 346, 838.878 345.612, 838.585 345.137 C 838.291 344.663, 835.902 343.674, 833.276 342.940 C 823.201 340.126, 807.328 328.118, 804.273 321 C 803.447 319.075, 801.901 316.275, 800.838 314.778 C 797.693 310.352, 795.815 298.871, 796.177 286.292 L 796.500 275.085 794 275.696 C 792.625 276.033, 791.254 276.679, 790.954 277.132 C 790.189 278.289, 773.571 279.449, 771.338 278.502 C 770.327 278.074, 768.083 277.816, 766.351 277.929 C 764.619 278.043, 762.905 277.655, 762.542 277.068 C 762.179 276.481, 761.004 276, 759.930 276 C 757.364 276, 748.721 271.977, 747.700 270.308 C 747.260 269.588, 745.977 269, 744.848 269 C 741.784 269, 731.012 257.113, 726.686 248.958 C 724.631 245.084, 722.671 239.878, 722.330 237.391 L 721.710 232.868 717.605 236.779 C 715.347 238.930, 711.925 241.749, 710 243.044 C 708.075 244.340, 706.140 245.985, 705.700 246.700 C 705.260 247.415, 704.135 248.014, 703.200 248.032 C 702.265 248.049, 700.626 248.724, 699.559 249.532 C 698.491 250.339, 697.001 251, 696.247 251 C 695.493 251, 692.484 252.132, 689.561 253.515 C 678.202 258.888, 648.878 257.736, 639.047 251.530 C 636.768 250.091, 633.800 248.494, 632.451 247.982 C 631.103 247.469, 630 246.588, 630 246.025 C 630 245.461, 629.350 245, 628.555 245 C 626.643 245, 619.569 236.644, 616.746 231.050 C 614.101 225.810, 613.465 225.506, 609.500 227.589 M 836.008 230.491 C 835.297 231.347, 834.911 232.245, 835.151 232.485 C 835.999 233.333, 840.077 231.730, 839.728 230.685 C 839.143 228.929, 837.380 228.837, 836.008 230.491 M 689.500 233.351 C 687.850 233.976, 685.949 235.010, 685.276 235.647 C 684.092 236.768, 676.652 238.226, 670.500 238.543 C 663.655 238.896, 662.907 239.041, 663.441 239.905 C 664.019 240.841, 670.355 240.719, 673 239.721 C 673.825 239.410, 676.300 238.864, 678.500 238.507 C 684.373 237.555, 691.888 234.734, 692.449 233.272 C 692.718 232.573, 692.839 232.048, 692.719 232.106 C 692.598 232.165, 691.150 232.725, 689.500 233.351 M 644 233.783 C 644 234.708, 648.993 237.340, 649.598 236.735 C 649.785 236.548, 648.602 235.606, 646.969 234.641 C 645.336 233.676, 644 233.290, 644 233.783 M 920.500 291 C 919.505 292.100, 919.184 293, 919.788 293 C 921.677 293, 932.680 303.826, 935.915 308.867 C 937.621 311.526, 939.512 316.323, 940.142 319.590 C 940.769 322.840, 941.668 325.928, 942.141 326.450 C 943.356 327.794, 943.227 342, 942 342 C 941.450 342, 941 342.826, 941 343.835 C 941 347.143, 936.854 358.385, 935.158 359.675 C 934.246 360.369, 933.940 360.951, 934.478 360.968 C 935.016 360.986, 937.237 359.087, 939.414 356.750 C 943.011 352.887, 944.574 350.531, 948.538 343 C 949.261 341.625, 950.392 336.760, 951.050 332.190 C 953.191 317.335, 949.550 307.273, 938.321 297.011 C 935.304 294.253, 931.635 291.745, 930.168 291.438 C 928.700 291.131, 926.719 290.456, 925.764 289.940 C 923.284 288.598, 922.538 288.748, 920.500 291 M 909.008 311.250 C 909.016 312.626, 914.020 315.313, 914.912 314.421 C 915.494 313.839, 911.060 310.061, 909.750 310.022 C 909.337 310.010, 909.004 310.563, 909.008 311.250 M 821 314.889 C 821 315.284, 822.575 317.134, 824.500 319 C 826.425 320.866, 828 321.937, 828 321.380 C 828 320.823, 826.425 318.974, 824.500 317.269 C 822.575 315.565, 821 314.494, 821 314.889 M 419.396 329.825 C 417.028 331.805, 414.645 338.075, 415.248 340.742 C 415.510 341.899, 416.015 341.239, 416.725 338.811 C 417.319 336.782, 419.027 333.520, 420.521 331.561 C 423.414 327.768, 422.867 326.924, 419.396 329.825 M 535 334.741 C 524.987 335.432, 510.600 340.547, 505.279 345.307 C 502.502 347.791, 500.178 354.226, 501.856 354.785 C 502.485 354.995, 503.014 355.917, 503.031 356.833 C 503.085 359.689, 507.694 362.254, 511.819 361.724 C 517.082 361.048, 527.235 358.898, 529 358.087 C 531.662 356.862, 559.610 359.746, 563.212 361.617 C 568.498 364.363, 571.964 363.970, 575.737 360.196 C 577.558 358.376, 578.754 356.411, 578.396 355.831 C 578.037 355.251, 578.331 354.413, 579.049 353.970 C 580.076 353.335, 579.827 352.138, 577.883 348.361 C 575.723 344.164, 574.440 343.068, 567.691 339.658 C 560.591 336.069, 559.108 335.705, 549.235 335.128 C 543.331 334.783, 536.925 334.609, 535 334.741 M 721.450 350.948 C 720.928 351.470, 717.800 352.587, 714.500 353.431 C 707.725 355.163, 703 359.529, 703 364.059 C 703 366.951, 705.482 372.562, 707.242 373.650 C 707.855 374.029, 715.723 374.382, 724.725 374.436 C 735.324 374.499, 741.341 374.916, 741.797 375.621 C 742.183 376.220, 744.975 377.297, 748 378.014 C 751.025 378.732, 756.425 380.820, 760 382.655 C 763.575 384.489, 767.648 385.992, 769.051 385.995 C 772.401 386.002, 776.982 383.833, 776.992 382.236 C 776.996 381.541, 777.516 380.147, 778.146 379.137 C 778.827 378.048, 778.999 376.123, 778.570 374.401 C 777.597 370.494, 767.768 361.561, 762.073 359.407 C 759.558 358.455, 756.600 357.119, 755.500 356.438 C 752.571 354.624, 739.891 352, 734.053 352 C 731.274 352, 729 351.550, 729 351 C 729 349.728, 722.715 349.685, 721.450 350.948 M 482.260 404.634 C 478.748 406.752, 477.762 408.062, 476.514 412.265 C 475.685 415.057, 475.155 417.489, 475.337 417.670 C 475.519 417.852, 477.392 415.413, 479.500 412.250 C 481.609 409.088, 484.496 405.490, 485.917 404.255 C 489.349 401.272, 487.523 401.461, 482.260 404.634 M 442.901 415.700 C 441.037 416.153, 440.402 424.620, 439.335 463.278 L 438.679 487.056 441.513 490.014 C 444.316 492.940, 444.345 493.097, 444.187 504.617 C 444.089 511.727, 443.577 516.805, 442.871 517.655 C 441.096 519.795, 442.196 520.046, 446.538 518.493 C 450.467 517.088, 450.524 517.103, 453.299 520.288 C 455.779 523.133, 456.075 524.194, 455.889 529.585 C 455.773 532.932, 456.015 536.215, 456.425 536.879 C 456.836 537.544, 456.628 538.743, 455.964 539.544 C 455.273 540.376, 455.184 541, 455.755 541 C 456.305 541, 457.315 540.325, 458 539.500 C 459.276 537.963, 462.858 537.587, 466.616 538.595 C 469.332 539.324, 470.980 544.704, 471.063 553.116 C 471.109 557.671, 471.371 558.895, 471.980 557.388 C 473.153 554.485, 477.801 551, 480.500 551 C 481.727 551, 483.897 551.918, 485.324 553.040 C 487.649 554.869, 487.951 555.877, 488.241 562.790 C 488.553 570.244, 488.609 570.398, 489.930 567.438 C 491.521 563.872, 496.936 560, 500.331 560 C 504.108 560, 506.114 563.177, 506.757 570.176 L 507.337 576.500 508.755 573 C 510.451 568.811, 515.391 564, 517.994 564 C 519.992 564, 520.475 562.937, 521.515 556.250 C 521.878 553.913, 522.542 552, 522.990 552 C 523.438 552, 524.260 550.694, 524.816 549.098 C 526.499 544.271, 532.825 538, 536.013 538 C 538.565 538, 542.715 534.476, 545.667 529.800 C 549.009 524.507, 566.701 518.354, 572.751 520.381 C 574.329 520.910, 575.857 520.526, 577.864 519.097 C 579.438 517.976, 581.012 517.346, 581.363 517.696 C 581.713 518.047, 582 517.338, 582 516.121 C 582 509.604, 592.068 506.662, 597.818 511.500 C 599.452 512.875, 601.927 514, 603.318 514 C 604.709 514, 607.278 515.204, 609.027 516.676 C 611.484 518.744, 612.582 519.117, 613.859 518.320 C 614.979 517.621, 616.028 517.615, 617.119 518.303 C 618.038 518.883, 619.537 518.968, 620.614 518.500 C 621.651 518.051, 622.909 517.778, 623.408 517.894 C 623.908 518.010, 624.667 517.539, 625.094 516.847 C 625.601 516.028, 629.052 515.475, 634.980 515.262 C 643.814 514.945, 644.173 515.019, 646.881 517.727 C 648.417 519.263, 649.898 521.190, 650.174 522.010 C 650.563 523.167, 650.990 523.241, 652.087 522.339 C 656.568 518.659, 668.843 521.173, 670.021 526.013 C 670.585 528.330, 670.989 528.477, 675.917 528.168 C 681.094 527.844, 681.304 527.939, 685.604 532.557 C 688.022 535.153, 690 537.665, 690 538.139 C 690 538.612, 691.634 539, 693.631 539 C 696.785 539, 698.165 539.901, 704.131 545.855 C 707.932 549.649, 711 553.582, 711 554.661 C 711 555.734, 712.135 558.150, 713.522 560.029 C 716.668 564.294, 718.326 570.240, 717.464 574.166 C 716.968 576.424, 717.306 577.698, 718.836 579.332 C 721.482 582.157, 722.983 586.232, 723.068 590.815 C 723.133 594.392, 723.169 594.426, 724.290 592 C 724.925 590.625, 725.852 589.213, 726.350 588.862 C 726.849 588.511, 726.957 587.740, 726.592 587.148 C 726.226 586.557, 727.743 584.257, 729.964 582.036 C 737.185 574.815, 744 577.635, 744 587.845 C 744 590.065, 744.450 592.160, 745 592.500 C 745.550 592.840, 746 592.429, 746 591.588 C 746 588.346, 750.851 579.303, 754.021 576.636 C 756.814 574.286, 757.911 573.948, 760.921 574.510 C 765.623 575.389, 767 576.646, 767 580.063 C 767 583.287, 768.801 584.923, 770.097 582.878 C 770.577 582.120, 771.660 579.025, 772.503 576 C 773.347 572.975, 774.480 569.825, 775.021 569 C 775.562 568.175, 776.422 566.540, 776.933 565.368 C 778.001 562.914, 783.119 559, 785.258 559 C 787.092 559, 792 563.489, 792 565.167 C 792 568.578, 794.857 562.880, 795.889 557.409 C 797.382 549.497, 798.851 546.519, 802.254 544.509 C 804.744 543.038, 805.339 543.022, 808.015 544.358 L 811 545.847 811 542.482 C 811 540.632, 811.462 538.833, 812.027 538.484 C 812.591 538.135, 812.969 537.321, 812.866 536.675 C 812.763 536.029, 813.201 534.233, 813.840 532.685 C 814.478 531.137, 815 529.089, 815 528.134 C 815 524.342, 817.469 521.019, 820.750 520.395 C 823.821 519.811, 824 519.539, 824 515.448 C 824 513.066, 824.450 510.840, 825 510.500 C 825.550 510.160, 826.003 508.671, 826.006 507.191 C 826.010 505.711, 826.685 503.211, 827.506 501.636 C 828.328 500.060, 829 497.046, 829 494.937 C 829 492.302, 829.733 490.313, 831.342 488.576 C 833.242 486.526, 833.920 484.107, 834.929 475.779 C 835.614 470.132, 836.516 465.283, 836.935 465.005 C 837.354 464.727, 837.996 462.579, 838.363 460.231 C 839.159 455.133, 839.169 455.138, 825 452.478 C 819.775 451.496, 815.050 450.353, 814.500 449.936 C 813.950 449.520, 811.896 448.879, 809.936 448.513 C 805.400 447.666, 804.461 448.822, 803.624 456.283 C 802.821 463.434, 800.852 471, 799.793 471 C 799.357 471, 799 471.635, 799 472.411 C 799 477.457, 791.993 489.644, 783.817 498.821 C 782.387 500.426, 780.442 502.923, 779.494 504.370 C 778.546 505.816, 777.331 507, 776.794 507 C 776.257 507, 773.978 508.575, 771.728 510.501 C 769.479 512.426, 766.145 514.541, 764.319 515.202 C 762.494 515.862, 761 516.710, 761 517.086 C 761 518.053, 752.594 520.658, 745.500 521.890 C 738.955 523.027, 722.403 523.527, 720 522.661 C 719.175 522.364, 714.947 521.415, 710.605 520.552 C 706.263 519.690, 701.260 518.088, 699.487 516.992 C 697.715 515.897, 695.702 515, 695.016 515 C 694.330 515, 691.622 513.425, 689 511.500 C 686.378 509.575, 683.919 508, 683.537 508 C 682.199 508, 674.401 499.438, 669.419 492.500 C 665.070 486.444, 659.013 472.975, 658.850 469 C 658.839 468.725, 658.306 467.869, 657.665 467.097 C 656.915 466.193, 656.410 460.143, 656.248 450.097 C 655.981 433.579, 655.506 432, 650.809 432 C 649.814 432, 649 431.613, 649 431.141 C 649 430.049, 636.775 426, 633.479 426 C 632.116 426, 631 425.550, 631 425 C 631 423.756, 616.336 423.648, 615.570 424.887 C 615.269 425.374, 613.330 426.073, 611.261 426.440 C 604.137 427.703, 604 427.815, 604 432.367 C 604 434.695, 603.604 437.028, 603.120 437.550 C 602.635 438.073, 601.498 441.904, 600.592 446.065 C 599.687 450.226, 598.058 455.287, 596.973 457.312 C 595.888 459.336, 595 461.455, 595 462.020 C 595 463.281, 588.924 472.654, 586.078 475.785 C 584.935 477.042, 584 478.439, 584 478.890 C 584 481.560, 561.888 498, 558.297 498 C 557.545 498, 555.885 498.684, 554.609 499.521 C 546.087 505.104, 507.176 505.245, 498.684 499.724 C 497.483 498.942, 494.806 497.748, 492.736 497.069 C 490.665 496.391, 486.741 494.072, 484.015 491.918 C 481.289 489.763, 478.786 488, 478.452 488 C 477.626 488, 472 482.320, 472 481.486 C 472 481.119, 470.425 478.978, 468.499 476.728 C 466.574 474.479, 464.459 471.145, 463.798 469.319 C 463.138 467.494, 462.290 466, 461.914 466 C 461.162 466, 458.607 458.503, 457.483 453 C 457.091 451.075, 456.338 448.964, 455.812 448.310 C 455.285 447.655, 454.956 446.305, 455.081 445.310 C 455.205 444.314, 454.974 442.736, 454.566 441.801 C 454.159 440.867, 453.977 434.884, 454.163 428.506 C 454.481 417.568, 454.386 416.888, 452.500 416.521 C 447.962 415.638, 444.407 415.334, 442.901 415.700 M 418.452 421.412 C 412.439 424.148, 404.962 432.400, 402.516 439 C 401.600 441.475, 400.409 444.321, 399.870 445.324 C 399.331 446.327, 398.379 450.974, 397.753 455.651 C 396.476 465.193, 397.673 477.236, 400.421 482.500 C 401.283 484.150, 401.990 486.087, 401.994 486.805 C 402.004 488.955, 405.974 497, 407.025 497 C 407.561 497, 408 497.579, 408 498.288 C 408 499.883, 417.136 509, 418.735 509 C 419.376 509, 420.359 509.788, 420.920 510.750 C 421.756 512.185, 421.951 511.870, 422.004 509 C 423.003 455.170, 424.032 420.862, 424.681 419.750 C 425.381 418.549, 423.842 418.960, 418.452 421.412 M 683.500 424.469 C 681.850 425.821, 679.989 426.944, 679.364 426.964 C 678.027 427.006, 675.401 432.231, 674.571 436.500 C 674.250 438.150, 674.272 438.881, 674.619 438.125 C 674.966 437.369, 675.878 436.019, 676.645 435.125 C 679.213 432.132, 687.026 422, 686.762 422.005 C 686.618 422.008, 685.150 423.117, 683.500 424.469 M 897.500 444 C 897.139 444.583, 898.156 445, 899.941 445 C 901.623 445, 903 444.550, 903 444 C 903 443.450, 901.902 443, 900.559 443 C 899.216 443, 897.840 443.450, 897.500 444 M 473.032 447.750 C 473.049 448.163, 473.669 449.298, 474.409 450.273 C 475.686 451.956, 475.781 451.947, 476.267 450.088 C 476.575 448.910, 476.192 447.904, 475.308 447.565 C 473.370 446.821, 472.994 446.852, 473.032 447.750 M 879.500 459.901 C 875.016 461.065, 871.062 463.885, 865.343 470 C 860.688 474.976, 860.131 476.071, 859.493 481.500 C 859.105 484.800, 858.089 488.606, 857.235 489.958 C 856.180 491.627, 855.754 494.402, 855.906 498.608 C 856.035 502.157, 855.676 505.082, 855.065 505.460 C 854.479 505.822, 854 506.737, 854 507.494 C 854 508.251, 853.496 510.137, 852.879 511.685 C 852.263 513.233, 851.669 516.817, 851.560 519.649 C 851.442 522.736, 850.606 525.940, 849.473 527.649 C 848.434 529.217, 847.705 531.480, 847.854 532.679 C 848.225 535.664, 844.315 547.994, 842.288 550.234 C 840.745 551.940, 840.779 552.157, 842.819 553.586 C 844.018 554.426, 845 555.684, 845 556.382 C 845 558.831, 849.554 561.805, 855.205 563.045 C 859.807 564.056, 862.370 564.049, 868.455 563.008 C 872.605 562.298, 876 561.304, 876 560.800 C 876 560.295, 876.450 560.160, 877 560.500 C 877.550 560.840, 878 560.641, 878 560.059 C 878 559.477, 878.639 559, 879.419 559 C 880.916 559, 886.220 556.351, 888.907 554.260 C 892.647 551.351, 902 542.324, 902 541.624 C 902 541.204, 903.375 538.861, 905.056 536.418 C 906.737 533.975, 908.602 530.519, 909.201 528.738 C 909.800 526.957, 910.647 525.038, 911.082 524.473 C 912.779 522.273, 915.307 508.105, 915.359 500.500 C 915.414 492.374, 912.561 478, 910.892 478 C 910.402 478, 910 477.149, 910 476.108 C 910 473.563, 901.411 464.141, 898.402 463.386 C 897.081 463.055, 896 462.433, 896 462.005 C 896 460.339, 883.807 458.784, 879.500 459.901 M 613.629 550.539 C 611.568 553.005, 608.284 555.690, 606.332 556.506 C 599.558 559.336, 589.488 555.692, 588.349 549.997 L 587.749 546.994 583.822 550.542 C 581.662 552.493, 578.906 554.461, 577.698 554.916 C 575.380 555.788, 569.022 555.220, 568.968 554.137 C 568.951 553.786, 568.273 552.623, 567.463 551.552 C 566.037 549.667, 565.863 549.728, 562.035 553.466 C 558.847 556.579, 557.395 557.301, 554.540 557.194 C 551.436 557.077, 551 557.355, 551 559.454 C 551 562.191, 546.522 568, 544.411 568 C 543.415 568, 543 569.265, 543 572.300 C 543 574.665, 542.549 577.051, 541.997 577.603 C 541.446 578.154, 540.751 582.069, 540.452 586.303 C 540.021 592.419, 540.191 594, 541.281 594 C 542.868 594, 547 598.119, 547 599.700 C 547 600.289, 547.672 602.060, 548.494 603.636 C 549.315 605.211, 549.990 608.428, 549.994 610.785 C 549.999 614.711, 550.162 614.984, 551.934 614.035 C 552.998 613.466, 554.782 613, 555.899 613 C 558.561 613, 565 618.692, 565 621.045 C 565 622.055, 565.457 623.165, 566.016 623.510 C 566.575 623.856, 566.774 624.557, 566.457 625.069 C 565.595 626.464, 567.241 626.133, 569.441 624.468 C 573.092 621.707, 583.895 623.775, 586.300 627.696 C 587.634 629.872, 588.804 629.172, 589.548 625.750 C 589.937 623.962, 590.873 621.612, 591.628 620.527 C 592.382 619.443, 593 617.524, 593 616.263 C 593 615.002, 594.488 612.347, 596.306 610.363 C 599.239 607.163, 599.980 606.837, 602.874 607.472 C 604.667 607.866, 606.363 608.781, 606.641 609.506 C 607.044 610.557, 607.725 610.491, 610.012 609.178 C 612.735 607.616, 613.021 607.640, 615.757 609.662 C 618.487 611.681, 618.777 611.706, 621.353 610.146 C 623.269 608.985, 624.280 608.829, 624.785 609.615 C 625.178 610.229, 626.485 611.038, 627.688 611.413 C 630.594 612.319, 631.875 616.654, 632.207 626.708 L 632.479 634.915 635.044 632.458 C 639.966 627.742, 651 629.727, 651 635.329 C 651 636.248, 651.450 637, 652 637 C 652.550 637, 653 636.406, 653 635.680 C 653 633.517, 659.770 626.275, 662.412 625.612 C 663.759 625.273, 665.905 625.394, 667.181 625.879 C 669.623 626.807, 671.051 625.941, 672.248 622.806 C 673.134 620.483, 680.646 618.246, 682.232 619.832 C 684.154 621.754, 684.875 621.195, 685.565 617.250 C 685.926 615.188, 687.133 611.925, 688.247 610 C 689.360 608.075, 691.094 605.054, 692.099 603.286 C 693.297 601.177, 693.903 598.160, 693.859 594.513 C 693.822 591.456, 694.315 588.325, 694.954 587.556 C 695.739 586.609, 695.802 585.565, 695.149 584.328 C 692.644 579.584, 687 567.021, 687 566.189 C 687 565.675, 684.776 565.041, 682.057 564.779 C 676.351 564.231, 672 561.774, 672 559.099 C 672 558.079, 671.312 556.674, 670.471 555.976 C 669.212 554.931, 668.548 555.042, 666.721 556.603 C 663.154 559.650, 660.222 561.002, 657.264 560.967 C 653.904 560.926, 646.961 556.306, 645.322 553.019 L 644.128 550.624 642.949 553.212 C 641.265 556.909, 635.187 559.394, 629.421 558.744 C 624.006 558.134, 620.526 555.216, 618.628 549.695 L 617.377 546.056 613.629 550.539 M 572.196 563.738 C 567.944 564.504, 567.101 572.005, 570.789 576.250 C 571.626 577.212, 572.878 578, 573.572 578 C 574.266 578, 574.983 578.361, 575.167 578.803 C 575.870 580.497, 587.774 586.869, 593.500 588.615 C 596.800 589.622, 599.725 590.722, 600 591.061 C 601.202 592.539, 619.448 594.244, 627.719 593.651 C 641.455 592.665, 643.758 592.283, 646.180 590.586 C 647.426 589.714, 649.384 589, 650.531 589 C 651.679 589, 655.233 587.425, 658.430 585.500 C 661.627 583.575, 664.483 582, 664.777 582 C 665.071 582, 666.816 580.852, 668.656 579.449 C 672.832 576.263, 673.171 572.080, 669.545 568.455 C 666.765 565.674, 661.553 565.116, 660.638 567.500 C 660.322 568.325, 659.529 569, 658.876 569 C 658.223 569, 656.280 570.074, 654.558 571.388 C 651.093 574.031, 644.741 576.402, 638.255 577.473 C 635.921 577.859, 633.757 578.585, 633.446 579.087 C 632.716 580.269, 611.294 580.284, 610.564 579.104 C 610.259 578.610, 606.970 577.678, 603.255 577.032 C 597.287 575.994, 593.558 574.336, 584.549 568.717 C 583.476 568.048, 581.901 566.760, 581.049 565.856 C 579.302 564.001, 575.624 563.121, 572.196 563.738 M 729.500 678.529 C 723.598 680.032, 716.251 682.472, 715.250 683.260 C 714.563 683.802, 714 683.910, 714 683.500 C 714 683.090, 713.333 683.308, 712.519 683.984 C 711.704 684.660, 708.442 685.578, 705.269 686.023 C 698.557 686.965, 691.352 688.649, 688.500 689.943 C 685.206 691.437, 651.356 695, 640.453 695 C 636.969 695, 633.840 695.450, 633.500 696 C 632.720 697.262, 628.709 697.305, 627.450 696.064 C 626.928 695.550, 619.075 694.652, 610 694.069 C 592.400 692.938, 582 691.336, 582 689.756 C 582 689.223, 581.369 689.028, 580.598 689.324 C 579.827 689.620, 578.901 689.567, 578.540 689.207 C 578.180 688.846, 576.223 688.501, 574.192 688.440 C 570.844 688.339, 560.737 685.913, 557 684.315 C 556.175 683.962, 555.275 683.627, 555 683.571 C 554.725 683.515, 554.050 683.187, 553.500 682.842 C 552.950 682.497, 550.770 681.740, 548.655 681.161 C 544.816 680.110, 544.812 680.113, 545.478 682.770 C 545.846 684.233, 546.967 687.246, 547.970 689.465 C 548.972 691.684, 550.500 695.209, 551.365 697.297 C 552.230 699.386, 556.449 704.561, 560.740 708.797 C 567.086 715.062, 570.406 717.408, 578.522 721.365 C 584.010 724.040, 589.299 726.639, 590.276 727.139 C 593.678 728.882, 611.547 731.981, 618.250 731.991 C 622.077 731.996, 625 732.433, 625 733 C 625 734.213, 631.667 734.348, 632.407 733.150 C 632.696 732.683, 636.885 732.001, 641.716 731.635 C 650.787 730.948, 666.119 728.109, 667 726.954 C 667.275 726.593, 668.625 726.052, 670 725.750 C 673.662 724.948, 679.140 722.967, 682 721.411 C 683.375 720.663, 686.366 719.175, 688.647 718.105 C 690.927 717.035, 695.085 714.549, 697.886 712.580 C 700.688 710.611, 703.326 709, 703.749 709 C 704.173 709, 705.081 708.100, 705.768 707 C 706.455 705.900, 707.587 705, 708.284 705 C 709.876 705, 724 690.870, 724 689.276 C 724 688.629, 724.675 687.721, 725.501 687.259 C 726.826 686.518, 731.341 678.923, 730.735 678.455 C 730.606 678.355, 730.050 678.388, 729.500 678.529 M 429.445 752.959 C 426.636 754.096, 421 760.673, 421 762.812 C 421 763.771, 420.221 765.668, 419.268 767.027 C 418.316 768.387, 417.580 769.725, 417.633 770 C 417.854 771.144, 414.017 779.695, 409.639 787.815 C 407.319 792.120, 395.352 805, 393.673 805 C 393.186 805, 391.903 806.125, 390.821 807.500 C 389.740 808.875, 388.223 810, 387.450 810 C 386.678 810, 385.358 811.051, 384.516 812.335 C 383.675 813.619, 381.865 815.270, 380.493 816.004 C 379.122 816.737, 378 817.742, 378 818.236 C 378 818.729, 375.525 821.442, 372.500 824.264 C 369.475 827.085, 367 829.825, 367 830.352 C 367 830.880, 365.940 832.704, 364.644 834.406 C 363.349 836.108, 361.263 839.525, 360.010 842 C 358.757 844.475, 357.427 846.725, 357.055 847 C 356.164 847.659, 352 861.068, 352 863.278 C 352 864.225, 351.606 865, 351.125 865 C 350.644 865, 349.980 866.352, 349.649 868.004 C 349.243 870.034, 346.688 873.186, 341.774 877.717 C 337.773 881.407, 319.798 899.067, 301.828 916.963 C 266.382 952.263, 265.265 953.104, 261.742 947.141 C 258.792 942.147, 260.093 936.900, 265.200 933.193 C 266.190 932.475, 267 931.331, 267 930.651 C 267 929.972, 269.708 926.820, 273.017 923.647 C 276.326 920.474, 279.753 916.780, 280.632 915.439 C 281.511 914.098, 282.566 913, 282.976 913 C 283.387 913, 289.857 906.851, 297.355 899.336 L 310.988 885.671 308.058 883.889 C 306.446 882.909, 304.633 881.183, 304.029 880.054 C 303.424 878.924, 302.274 878, 301.472 878 C 300.671 878, 297.218 875.355, 293.800 872.122 L 287.586 866.245 286.226 868.872 C 285.479 870.318, 284.062 872.400, 283.078 873.500 C 282.094 874.600, 280.436 877.062, 279.394 878.970 C 278.352 880.879, 277.129 882.904, 276.675 883.470 C 275.474 884.968, 271.454 891.807, 268.721 897 C 267.418 899.475, 264.923 903.726, 263.176 906.446 C 261.429 909.166, 260 911.978, 260 912.696 C 260 913.413, 259.550 914, 259 914 C 258.450 914, 258.092 914.337, 258.203 914.750 C 258.315 915.163, 256.242 920, 253.597 925.500 C 245.087 943.194, 243.224 947.413, 241.898 952 C 241.183 954.475, 240.329 956.725, 240 957 C 239.125 957.733, 237.291 964.568, 235.975 972 C 235.342 975.575, 234.423 978.986, 233.931 979.580 C 233.440 980.173, 232.577 985.924, 232.012 992.358 C 230.973 1004.215, 231.958 1020.106, 233.960 1023.786 C 234.474 1024.729, 235.659 1027.953, 236.594 1030.952 C 240.026 1041.952, 249.679 1052.394, 261.833 1058.253 C 268.363 1061.400, 268.788 1061.466, 282.500 1061.467 C 294.922 1061.468, 297.029 1061.216, 301.195 1059.234 C 303.777 1058.005, 306.477 1056.980, 307.195 1056.957 C 307.913 1056.933, 310.300 1055.816, 312.500 1054.476 C 314.700 1053.135, 318.300 1051.129, 320.500 1050.017 C 328.283 1046.086, 351.298 1023.525, 355.203 1016 C 355.916 1014.625, 357.288 1012.912, 358.250 1012.193 C 359.212 1011.475, 360 1010.457, 360 1009.932 C 360 1009.407, 361.800 1006.340, 364 1003.117 C 366.200 999.894, 368 996.749, 368 996.129 C 368 995.508, 368.406 995, 368.902 995 C 369.398 995, 370.302 993.763, 370.911 992.250 C 371.519 990.737, 374.249 985.450, 376.976 980.500 C 379.703 975.550, 383.297 968.800, 384.962 965.500 C 386.626 962.200, 389.103 957.475, 390.466 955 C 391.829 952.525, 392.956 949.782, 392.972 948.905 C 392.987 948.028, 393.900 946.495, 395 945.500 C 396.100 944.505, 397 943.191, 397 942.581 C 397 941.971, 398.854 940.669, 401.119 939.687 C 404.340 938.292, 406.685 938.038, 411.869 938.525 C 419.201 939.214, 438.921 937.606, 441.718 936.092 C 442.698 935.561, 447.100 934.339, 451.500 933.377 C 455.900 932.414, 461.457 930.597, 463.848 929.340 C 466.240 928.082, 469.840 926.788, 471.848 926.464 C 473.857 926.140, 477.349 925.003, 479.610 923.937 C 481.870 922.872, 484.380 922, 485.188 922 C 488.587 922, 497.698 914.500, 498.551 911 C 498.618 910.725, 499.013 909.728, 499.430 908.785 C 499.925 907.664, 499.409 905.979, 497.940 903.916 C 495.797 900.906, 495.459 900.788, 490.597 901.353 C 484.893 902.016, 484.106 901.681, 482.065 897.723 C 479.820 893.370, 481.572 889.742, 486.518 888.500 C 488.708 887.950, 490.950 887.215, 491.500 886.868 C 492.050 886.520, 493.916 885.932, 495.646 885.561 C 500.386 884.545, 502.343 881.763, 502.427 875.919 C 502.489 871.685, 502.104 870.584, 500 868.966 C 497.351 866.930, 489 866.196, 489 868 C 489 870.031, 482.393 869.047, 480.174 866.686 C 475.158 861.346, 479.087 855.740, 489 854.094 C 496.886 852.784, 500.194 850.515, 501.450 845.556 C 502.616 840.952, 500.834 837.176, 496.513 835.099 C 494.067 833.923, 492.130 833.901, 484.429 834.958 C 474.337 836.344, 472.126 836.032, 470.203 832.954 C 468.493 830.215, 470.480 824.400, 473.425 823.525 C 474.566 823.186, 477.949 822.237, 480.943 821.417 C 483.936 820.596, 486.861 819.548, 487.443 819.088 C 488.024 818.628, 489.850 818.010, 491.500 817.715 C 495.979 816.914, 507.427 813.609, 508 812.952 C 508.275 812.637, 511.875 811.338, 516 810.066 C 520.125 808.794, 523.950 807.432, 524.500 807.040 C 525.050 806.649, 528.200 805.516, 531.500 804.524 C 546.481 800.019, 559 792.179, 559 787.304 C 559 786.037, 559.416 785, 559.923 785 C 561.372 785, 558.061 779.103, 555.990 777.995 C 553.262 776.535, 541.663 776.785, 532.500 778.501 C 520.456 780.757, 518.590 781.198, 517.500 782.047 C 516.950 782.476, 512.520 783.788, 507.656 784.963 C 502.792 786.139, 498.067 787.499, 497.156 787.987 C 496.245 788.475, 491.675 789.852, 487 791.049 C 482.325 792.245, 478.275 793.543, 478 793.934 C 477.725 794.325, 474.575 795.454, 471 796.443 C 467.425 797.432, 463.375 798.725, 462 799.316 C 460.625 799.907, 459.050 800.461, 458.500 800.546 C 457.950 800.632, 455.827 801.444, 453.782 802.351 C 451.737 803.258, 449.629 804, 449.097 804 C 448.565 804, 446.863 804.523, 445.315 805.161 C 443.767 805.800, 442.091 806.227, 441.592 806.109 C 441.092 805.991, 440.417 806.258, 440.092 806.703 C 439.209 807.909, 432.715 810, 429.853 810 C 427.087 810, 423 806.280, 423 803.762 C 423 801.307, 427.353 796.717, 431.651 794.640 C 433.768 793.617, 436.175 792.447, 437 792.040 C 437.825 791.633, 439.344 788.645, 440.375 785.400 C 441.406 782.155, 442.756 778.414, 443.375 777.087 C 444.871 773.879, 444.710 760.737, 443.168 760.223 C 442.526 760.009, 442 759.003, 442 757.989 C 442 753.755, 434.701 750.831, 429.445 752.959 M 805 895.300 C 805 899.865, 805.425 904.028, 805.944 904.550 C 806.463 905.072, 807.111 911.350, 807.382 918.500 C 808.038 935.749, 809.046 946.237, 810.185 947.672 C 810.697 948.317, 812.491 949.324, 814.171 949.910 C 817.069 950.920, 817.189 950.860, 816.495 948.737 C 816.093 947.507, 815.801 945.229, 815.847 943.676 C 815.893 942.122, 814.872 939.173, 813.577 937.123 C 811.578 933.955, 810.983 930.843, 809.626 916.447 C 807.084 889.498, 806.765 887, 805.858 887 C 805.386 887, 805 890.735, 805 895.300" stroke="none" fill="#171916" fill-rule="evenodd"/>
</svg>