<svg role="img" aria-labelledby="artwork-title" shape-rendering="geometricPrecision" xmlns="http://www.w3.org/2000/svg" width="1200" height="1200" viewBox="0 0 1200 1200" version="1.1">
	<title id="artwork-title">Mascot holding a personal profile card</title>
	<path d="M 570 80.995 C 569.175 81.478, 564.675 82.814, 560 83.966 C 553.224 85.634, 549.777 87.220, 543.006 91.780 C 535.322 96.955, 521 110.156, 521 112.064 C 521 112.487, 520.656 112.983, 520.235 113.167 C 519.114 113.655, 513 127.362, 513 129.386 C 513 131.006, 512.799 131.001, 509.768 129.307 C 507.991 128.313, 505.973 126.976, 505.283 126.337 C 504.594 125.697, 500.986 124.140, 497.265 122.877 C 491.434 120.899, 488.497 120.582, 476 120.585 C 462.113 120.588, 461.246 120.709, 455.500 123.449 C 452.200 125.023, 448.938 126.221, 448.250 126.111 C 447.563 126.002, 447 126.331, 447 126.842 C 447 127.354, 445.420 128.522, 443.490 129.438 C 435.954 133.014, 420 148.940, 420 152.886 C 420 153.420, 419.358 154.499, 418.574 155.283 C 416.983 156.874, 414.564 162.212, 412.359 169 C 410.428 174.941, 409.460 192.446, 410.796 197.251 C 411.799 200.856, 411.735 201.022, 409.170 201.517 C 400.515 203.186, 396.724 204.591, 389.733 208.719 C 376.209 216.705, 366.173 230.532, 362.940 245.633 C 362.249 248.860, 361.410 251.822, 361.076 252.216 C 359.746 253.783, 361.877 274.703, 363.963 280.553 C 365.129 283.824, 366.512 287.850, 367.037 289.500 C 369.183 296.239, 378.305 305.923, 391.100 315.043 C 393.159 316.511, 393.188 316.737, 391.690 319.633 C 389.336 324.184, 387.664 335.502, 388.315 342.473 C 388.946 349.230, 392.297 359.220, 394.865 362 C 395.764 362.974, 397.747 365.595, 399.271 367.824 C 400.847 370.131, 404.381 373.215, 407.471 374.983 C 412.775 378.018, 412.896 378.188, 412.702 382.295 C 412.593 384.608, 412.851 388.140, 413.277 390.144 L 414.051 393.788 409.058 394.986 C 402.666 396.520, 396.387 400.702, 390.022 407.666 C 380.718 417.846, 377.056 426.699, 374.930 444.149 C 372.978 460.177, 377.095 478.277, 385.480 490.524 C 387.966 494.155, 390 497.501, 390 497.960 C 390 498.704, 391.745 500.318, 399.835 507.055 C 401.119 508.125, 402.582 509, 403.085 509 C 403.588 509, 404 509.398, 404 509.883 C 404 510.369, 404.788 511.021, 405.750 511.332 C 416.598 514.833, 418.501 515.797, 418.530 517.803 C 418.547 518.953, 418.884 520.217, 419.280 520.613 C 419.676 521.009, 420 522.721, 420.001 524.417 C 420.003 533.236, 425.641 553.388, 431.494 565.500 C 433.886 570.450, 436.533 576.194, 437.377 578.264 C 438.220 580.334, 439.602 582.294, 440.449 582.619 C 441.296 582.944, 441.740 583.612, 441.435 584.105 C 441.131 584.597, 441.359 585, 441.941 585 C 442.523 585, 443 585.405, 443 585.900 C 443 587.459, 450.027 597.320, 454.350 601.826 C 469.117 617.220, 481.651 628.555, 487.371 631.689 C 488.882 632.518, 488.072 632.847, 483.151 633.403 C 479.801 633.782, 476.820 634.482, 476.525 634.959 C 476.231 635.436, 474.079 636.120, 471.745 636.480 C 459.653 638.344, 434.230 644.532, 428.500 647.006 C 427.400 647.481, 420.875 649.766, 414 652.084 C 407.125 654.402, 400.600 656.778, 399.500 657.364 C 398.400 657.950, 397.275 658.485, 397 658.554 C 396.725 658.622, 394.250 659.709, 391.500 660.970 C 388.750 662.230, 383.716 664.511, 380.313 666.039 C 376.909 667.568, 372.184 670.113, 369.813 671.695 C 367.441 673.278, 362.869 675.869, 359.654 677.454 C 356.439 679.039, 353.578 680.935, 353.297 681.668 C 353.016 682.400, 352.232 683, 351.556 683 C 347.763 683, 318.941 707.041, 304.123 722.564 C 290.249 737.098, 270 762.255, 270 764.957 C 270 765.531, 269.569 766, 269.042 766 C 268.515 766, 266.885 768.138, 265.419 770.750 C 263.953 773.362, 260.823 778.425, 258.464 782 C 256.104 785.575, 252.374 791.934, 250.175 796.131 C 247.975 800.328, 245.094 805.503, 243.773 807.631 C 241.623 811.092, 234.120 826.133, 221.389 852.500 C 212.629 870.643, 211.249 877.765, 215.511 882.830 C 218.435 886.305, 218.534 885.890, 211.082 901.376 C 205.053 913.905, 200 925.838, 200 927.546 C 200 928.254, 199.545 928.985, 198.990 929.170 C 198.019 929.494, 195.898 934.849, 190.342 951 C 188.923 955.125, 187.404 958.950, 186.966 959.500 C 184.301 962.849, 177.021 996.658, 177.007 1005.750 C 177.003 1008.087, 176.550 1010, 176 1010 C 174.685 1010, 174.685 1024.687, 176 1025.500 C 176.550 1025.840, 177 1027.809, 177 1029.875 C 177 1040.444, 182.527 1059.411, 188.135 1068.087 C 190.261 1071.376, 192 1074.465, 192 1074.951 C 192 1077.055, 207.305 1091.923, 211.501 1093.895 C 213.975 1095.058, 216 1096.421, 216 1096.923 C 216 1098.458, 230.900 1102.870, 241.926 1104.600 C 250.821 1105.996, 253.684 1106.056, 261.426 1105.008 C 273.580 1103.364, 285.832 1099.245, 295.279 1093.626 C 299.557 1091.082, 303.222 1089, 303.423 1089 C 303.624 1089, 305.299 1087.585, 307.144 1085.855 C 308.990 1084.126, 312.863 1080.961, 315.750 1078.824 C 318.638 1076.686, 321 1074.378, 321 1073.696 C 321 1073.013, 322.800 1070.900, 325 1069 C 327.200 1067.100, 329 1065.144, 329 1064.655 C 329 1064.165, 330.237 1062.266, 331.750 1060.435 C 336.642 1054.512, 340.112 1049.656, 345.030 1041.846 C 348.997 1035.548, 350.428 1034.065, 353.108 1033.476 C 354.899 1033.083, 357.911 1031.893, 359.800 1030.831 C 361.689 1029.770, 363.437 1029.103, 363.683 1029.349 C 363.929 1029.596, 363.665 1035.805, 363.096 1043.148 C 362.527 1050.492, 361.763 1063.475, 361.398 1072 C 361.034 1080.525, 360.290 1088.063, 359.746 1088.750 C 359.064 1089.610, 359.141 1090, 359.991 1090 C 360.804 1090, 361.071 1091.060, 360.772 1093.097 C 360.409 1095.570, 360.974 1096.891, 363.575 1099.648 C 366.419 1102.664, 367.379 1103.073, 371.166 1102.879 C 373.550 1102.756, 376.625 1103.264, 378 1104.007 C 379.469 1104.800, 385.021 1105.546, 391.464 1105.816 C 399.981 1106.172, 403.217 1106.721, 405.964 1108.276 C 410.135 1110.636, 424.866 1111.186, 427.408 1109.076 C 428.596 1108.091, 429.428 1108.249, 431.691 1109.890 C 435.665 1112.772, 447.349 1114.058, 473.778 1114.524 C 486.031 1114.740, 496.381 1115.108, 496.778 1115.341 C 499.778 1117.103, 561.739 1119.176, 610.500 1119.145 C 619.850 1119.140, 636.050 1119.163, 646.500 1119.197 C 670.501 1119.275, 666.943 1119.324, 691.500 1118.578 C 703.050 1118.226, 719.284 1117.802, 727.576 1117.636 C 735.869 1117.469, 743.208 1116.989, 743.887 1116.570 C 744.566 1116.150, 751.282 1115.665, 758.811 1115.491 C 766.340 1115.317, 776.325 1114.591, 781 1113.877 C 785.675 1113.164, 791.525 1112.665, 794 1112.769 C 799.972 1113.019, 817.250 1110.213, 818.088 1108.857 C 818.557 1108.099, 818.946 1108.104, 819.421 1108.873 C 819.851 1109.568, 820.707 1109.633, 821.796 1109.055 C 826.236 1106.699, 831.880 1105.354, 835.659 1105.754 C 839.327 1106.141, 840.274 1105.775, 843.659 1102.664 L 847.500 1099.135 847.160 1075.817 C 846.948 1061.266, 846.419 1052.014, 845.752 1051.208 C 844.991 1050.285, 845.016 1049.584, 845.842 1048.758 C 847.262 1047.338, 847.371 1042.347, 846 1041.500 C 845.082 1040.932, 844.514 1035, 845.378 1035 C 845.586 1035, 847.381 1035.679, 849.368 1036.509 C 851.855 1037.548, 853.436 1039.107, 854.440 1041.509 C 855.242 1043.429, 856.397 1045, 857.008 1045 C 857.619 1045, 857.840 1045.450, 857.500 1046 C 857.160 1046.550, 857.359 1047, 857.941 1047 C 858.523 1047, 859 1047.475, 859 1048.055 C 859 1048.635, 860.883 1051.898, 863.183 1055.305 C 879.686 1079.744, 900.870 1098.953, 917.500 1104.559 C 920.250 1105.486, 923.625 1106.710, 925 1107.279 C 926.375 1107.847, 928.349 1108.203, 929.388 1108.070 C 930.426 1107.937, 931.647 1108.429, 932.101 1109.164 C 933.176 1110.903, 964.674 1111.119, 965.786 1109.394 C 966.179 1108.786, 968.108 1107.993, 970.073 1107.632 C 974.851 1106.754, 989.952 1099.288, 990.655 1097.456 C 990.963 1096.655, 991.769 1096, 992.447 1096 C 994.117 1096, 1006 1084.023, 1006 1082.340 C 1006 1081.603, 1006.477 1081, 1007.059 1081 C 1007.641 1081, 1007.840 1080.550, 1007.500 1080 C 1007.160 1079.450, 1007.337 1079, 1007.893 1079 C 1009.142 1079, 1016.456 1063.784, 1017.500 1059.015 C 1017.919 1057.098, 1018.860 1054.617, 1019.590 1053.503 C 1024.664 1045.758, 1026.074 1005.044, 1022.135 980 C 1020.880 972.025, 1019.437 965.350, 1018.927 965.167 C 1018.417 964.983, 1018 964.037, 1018 963.065 C 1018 960.407, 1009.308 925.298, 1008.222 923.566 C 1007.854 922.980, 1007.522 922.050, 1007.485 921.500 C 1007.448 920.950, 1006.920 919.375, 1006.313 918 C 1003.372 911.342, 999.055 894.482, 1000.194 894.102 C 1002.492 893.336, 1006 889.071, 1006 887.045 C 1006 885.920, 1006.450 885, 1007 885 C 1007.550 885, 1008 884.325, 1008 883.500 C 1008 882.675, 1007.550 882, 1007 882 C 1006.450 882, 1006 881.228, 1006 880.283 C 1006 879.339, 1005.372 876.752, 1004.604 874.533 C 1003.837 872.315, 1001.777 865.775, 1000.028 860 C 998.278 854.225, 996.260 848.375, 995.542 847 C 994.824 845.625, 992.564 839.550, 990.520 833.500 C 988.475 827.450, 985.966 820.925, 984.943 819 C 983.920 817.075, 981.765 812.125, 980.153 808 C 975.304 795.591, 973.602 791.525, 973.037 791 C 972.742 790.725, 970.475 786.225, 968 781 C 965.525 775.775, 962.928 771.135, 962.229 770.689 C 961.530 770.242, 961.219 769.455, 961.538 768.939 C 961.857 768.422, 961.721 768, 961.236 768 C 960.751 768, 958.690 764.677, 956.656 760.615 C 954.621 756.554, 951.467 751.266, 949.647 748.865 C 947.827 746.464, 945.160 742.475, 943.720 740 C 939.664 733.026, 925.412 716.562, 913.639 705.250 C 907.772 699.612, 902.615 695, 902.179 695 C 901.744 695, 899.212 692.975, 896.555 690.500 C 893.897 688.025, 891.330 686, 890.851 686 C 890.372 686, 886.047 683.368, 881.240 680.150 C 876.433 676.933, 870.925 673.342, 869 672.171 C 862.891 668.454, 844.792 660, 842.944 660 C 841.966 660, 841.008 659.523, 840.814 658.941 C 840.388 657.665, 831.425 653.906, 820.544 650.438 C 816.167 649.043, 812.102 647.499, 811.509 647.007 C 810.091 645.831, 792.114 640.763, 779.500 637.984 C 774 636.772, 768.798 635.430, 767.940 635.001 C 767.083 634.572, 763.723 633.669, 760.474 632.995 L 754.568 631.768 757.534 629.364 C 759.165 628.041, 762.376 625.393, 764.670 623.479 C 766.963 621.566, 769.233 620, 769.715 620 C 771.184 620, 791.181 598.739, 796.500 591.521 C 801.692 584.476, 803.095 582.208, 809.503 570.500 C 814.382 561.587, 817.537 555.130, 818.457 552.178 C 818.976 550.511, 819.649 550.049, 820.840 550.543 C 824.004 551.854, 829.517 552.952, 833.050 552.976 C 835.003 552.989, 837.140 553.540, 837.800 554.200 C 838.573 554.973, 839 555.019, 839 554.329 C 839 553.740, 841.813 552.942, 845.250 552.556 C 848.688 552.170, 854.367 550.930, 857.870 549.801 C 863.960 547.839, 876.155 540.500, 878.712 537.259 C 879.378 536.414, 880.909 535.223, 882.113 534.611 C 885.418 532.934, 896.857 515.637, 899.630 508.122 C 900.975 504.480, 902.357 500.825, 902.701 500 C 903.045 499.175, 903.373 498.275, 903.429 498 C 903.485 497.725, 903.870 496.966, 904.285 496.313 C 907.070 491.934, 907.418 463.501, 904.765 457.134 C 904.161 455.685, 903.617 454.275, 903.556 454 C 902.729 450.307, 894.676 438.038, 890.465 434.055 C 887.525 431.275, 885.469 429, 885.896 429 C 887.709 429, 895.992 421.563, 900.643 415.758 C 906.505 408.442, 906.975 407.612, 910.111 399 C 913.196 390.530, 913.519 371.907, 910.692 365.551 L 908.935 361.601 912.218 359.141 C 918.687 354.291, 927.552 344.237, 930.406 338.513 C 933.386 332.536, 937 320.403, 937 316.377 C 937 315.134, 937.450 313.840, 938 313.500 C 939.297 312.699, 939.297 308.301, 938 307.500 C 937.450 307.160, 936.991 305.671, 936.979 304.191 C 936.941 299.347, 932.195 285.142, 929.155 280.774 C 926.185 276.507, 920.454 270.731, 914.183 265.686 C 912.359 264.218, 907.823 262.093, 904.104 260.963 L 897.340 258.909 899.155 249.704 C 900.669 242.025, 900.793 239.287, 899.905 233.178 C 898.628 224.390, 895.046 214.116, 891.448 208.924 C 887.682 203.491, 878.086 194.594, 873.425 192.217 C 864.346 187.585, 848.306 185.156, 840.750 187.269 C 838.180 187.988, 838 187.837, 838 184.966 C 838 181.227, 835.019 167.695, 834.042 167 C 833.655 166.725, 832.250 164.257, 830.919 161.516 C 827.604 154.688, 816.879 144.318, 810 141.290 C 806.975 139.959, 802.475 137.903, 800 136.722 C 792.063 132.935, 771.633 134.068, 764.391 138.697 C 762.365 139.992, 762.232 139.808, 760.991 133.958 C 758.064 120.167, 749.240 106.917, 736.425 97.074 C 732.708 94.219, 725.115 89.229, 723 88.250 C 718.035 85.954, 706.819 83.037, 700.449 82.385 C 696.871 82.018, 693.705 81.331, 693.413 80.859 C 692.716 79.732, 688.438 79.758, 686.236 80.903 C 685.281 81.399, 681.350 82.364, 677.500 83.047 C 662.521 85.703, 647.948 93.462, 639.177 103.452 C 636.505 106.494, 635.646 106.951, 634.455 105.963 C 633.655 105.299, 633 104.223, 633 103.574 C 633 101.942, 626.970 96.362, 624.358 95.577 C 623.180 95.223, 622.009 94.142, 621.756 93.173 C 621.104 90.682, 606.740 83.985, 599.250 82.682 C 595.813 82.083, 593 81.235, 593 80.797 C 593 79.713, 571.881 79.895, 570 80.995 M 568.288 99.920 C 564.321 100.894, 560.455 102.207, 559.696 102.837 C 558.937 103.467, 558.122 103.788, 557.884 103.551 C 557.647 103.314, 554.313 105.258, 550.476 107.872 C 538.812 115.817, 529.275 129.641, 527.621 141 L 526.966 145.500 529.428 141.245 C 532.288 136.301, 543.036 123, 544.171 123 C 544.595 123, 548.218 121.064, 552.221 118.698 C 562.373 112.699, 567.293 111.495, 581.500 111.529 C 593.463 111.559, 593.525 111.571, 601.426 115.529 C 606.904 118.274, 611.426 121.562, 616.067 126.175 L 622.782 132.851 623.998 128.507 C 625.135 124.447, 625.028 123.821, 622.357 118.904 C 616.869 108.801, 603.707 100.713, 590.026 99.038 C 579.098 97.699, 576.971 97.786, 568.288 99.920 M 681.771 100.022 C 674.690 101.135, 659.958 108.145, 654.638 112.932 C 649.170 117.852, 645 123.826, 645 126.739 L 645 129.178 648.065 126.599 C 651.863 123.403, 662.685 117.002, 664.304 116.994 C 664.962 116.990, 666.664 116.380, 668.087 115.638 C 676.680 111.154, 696.035 111.066, 705.341 115.468 C 708.285 116.861, 711.057 118, 711.502 118 C 711.947 118, 713.786 119.125, 715.589 120.500 C 717.392 121.875, 719.244 123, 719.704 123 C 720.520 123, 721.816 124.234, 727.663 130.579 C 731.962 135.244, 735.985 143.313, 737.352 150.010 L 738.577 156.018 742.228 152.259 L 745.879 148.500 744.539 140.846 C 741.551 123.767, 725.968 106.595, 708.998 101.681 C 701.970 99.646, 689.135 98.864, 681.771 100.022 M 467.583 137.750 C 467.171 138.162, 466.533 138.538, 466.167 138.584 C 465.490 138.669, 463.605 139.402, 454.301 143.202 C 448.453 145.591, 437.166 155.991, 434.704 161.261 C 431.383 168.369, 429.618 172.548, 429.534 173.500 C 429.486 174.050, 429.167 174.950, 428.825 175.500 C 426.677 178.955, 427.201 199.535, 429.496 201.829 C 430.677 203.010, 431.325 200.750, 430.284 199.083 C 429.657 198.078, 429.490 196.861, 429.913 196.378 C 430.337 195.895, 431.259 192.800, 431.962 189.500 C 432.665 186.200, 434.489 181.025, 436.015 178 C 438.942 172.195, 448.357 159.773, 450.334 159.107 C 450.975 158.891, 452.752 157.838, 454.281 156.767 C 461.304 151.849, 470.539 147.908, 477.447 146.880 C 486.546 145.527, 498.748 147.553, 504.904 151.439 C 508.765 153.877, 510.180 153.403, 508.224 150.328 C 507.048 148.480, 498.622 142.020, 497.372 142.010 C 496.752 142.004, 494.502 141.242, 492.372 140.316 C 490.242 139.390, 487.971 138.727, 487.325 138.843 C 486.679 138.958, 485.865 138.591, 485.516 138.027 C 484.792 136.854, 468.727 136.606, 467.583 137.750 M 776.500 152.965 C 772.241 153.883, 762.004 158.154, 762.001 159.013 C 762.001 159.295, 765.538 159.526, 769.862 159.526 C 774.989 159.526, 778.290 159.996, 779.349 160.875 C 780.243 161.617, 781.655 161.963, 782.487 161.643 C 783.319 161.324, 784 161.499, 784 162.031 C 784 162.564, 785.037 163, 786.304 163 C 789.147 163, 797.208 167.957, 802.317 172.847 C 807.438 177.749, 812.663 186.524, 814.324 193.012 L 815.682 198.318 817.975 196.025 C 820.083 193.917, 820.222 193.120, 819.704 186.116 C 818.880 174.975, 816.640 169.571, 810.086 162.919 C 801.636 154.342, 788.358 150.407, 776.500 152.965 M 666.223 159.557 C 665 160.413, 664 161.538, 664 162.057 C 664 163.816, 665.763 163.011, 667.408 160.500 C 669.325 157.574, 669.198 157.473, 666.223 159.557 M 736.335 176.695 C 735.144 176.927, 733.918 177.771, 733.611 178.570 C 733.149 179.775, 733.604 179.744, 736.277 178.385 C 741.198 175.882, 741.203 175.745, 736.335 176.695 M 518.727 180.452 C 517.065 181.672, 517.094 181.791, 519.183 182.338 C 521.847 183.034, 521.925 182.973, 521.124 180.824 C 520.597 179.408, 520.226 179.350, 518.727 180.452 M 839.500 205.213 C 835.660 206.564, 833.873 207.986, 834.580 209.130 C 834.887 209.626, 835.491 209.815, 835.922 209.548 C 837.417 208.624, 848.865 211.029, 853.755 213.295 C 860.558 216.447, 868.997 225.383, 872.510 233.155 C 875.039 238.750, 875.385 240.696, 875.439 249.619 C 875.481 256.623, 875.843 259.607, 876.615 259.314 C 877.519 258.970, 879.813 255.255, 880.512 253 C 880.598 252.725, 881.192 251.233, 881.834 249.685 C 882.475 248.137, 883 244.003, 883 240.500 C 883 236.997, 882.475 232.863, 881.834 231.315 C 881.192 229.767, 880.592 228.275, 880.500 228 C 880.408 227.725, 879.808 226.233, 879.166 224.685 C 878.525 223.137, 878 221.650, 878 221.382 C 878 219.646, 872.448 213.318, 868.037 210.027 C 860.586 204.468, 847.765 202.306, 839.500 205.213 M 401.646 222.003 C 399.527 223.061, 397.116 224.488, 396.290 225.175 C 395.463 225.861, 393.857 226.889, 392.720 227.461 C 391.584 228.032, 389.944 229.666, 389.077 231.090 C 388.210 232.515, 386.178 235.665, 384.561 238.090 C 379.242 246.072, 377.073 256.703, 378.520 267.691 L 379.285 273.500 380.662 265.578 C 381.420 261.221, 382.536 257.059, 383.143 256.328 C 383.749 255.598, 383.970 255, 383.633 255 C 383.297 255, 384.817 252.067, 387.011 248.482 C 389.205 244.898, 391 241.680, 391 241.332 C 391 239.305, 404.451 228.434, 410.727 225.389 C 414.702 223.460, 418.217 221.459, 418.536 220.941 C 419.680 219.091, 405.723 219.968, 401.646 222.003 M 596.767 225.111 C 595.881 225.606, 591.701 226.727, 587.477 227.600 C 581.001 228.939, 578.755 228.996, 573.149 227.961 C 569.492 227.286, 565.749 226.348, 564.831 225.875 C 563.429 225.154, 562.985 225.843, 562.054 230.184 C 560.918 235.482, 554.173 248.782, 551.495 251.004 C 550.673 251.686, 550 252.814, 550 253.509 C 550 254.904, 538.790 264.317, 532.500 268.203 C 528.017 270.973, 516.745 275, 513.472 275 C 512.296 275, 511.036 275.297, 510.673 275.660 C 509.750 276.584, 496.643 276.122, 489.791 274.925 C 484.055 273.922, 473.539 269.681, 472.460 267.935 C 471.354 266.146, 470.293 267.026, 468.462 271.250 C 467.449 273.587, 464.681 278.334, 462.310 281.798 C 459.940 285.262, 458 288.326, 458 288.607 C 458 288.887, 456.618 290.837, 454.929 292.939 C 453.239 295.041, 451.960 297.377, 452.086 298.130 C 452.212 298.884, 452.054 300.175, 451.734 301 C 449.342 307.166, 443.946 332.404, 442.326 345 C 442.079 346.925, 441.475 349.400, 440.986 350.500 C 440.280 352.087, 436 383.410, 436 386.991 C 436 387.477, 437.518 387.628, 439.373 387.327 C 441.228 387.026, 445.165 387.302, 448.123 387.941 C 452.844 388.960, 453.622 388.900, 454.500 387.447 C 458.438 380.930, 462.147 377.622, 469.092 374.436 C 473.166 372.566, 477.288 371.029, 478.250 371.018 C 479.212 371.008, 480 370.564, 480 370.031 C 480 369.499, 480.681 369.324, 481.513 369.643 C 482.345 369.963, 483.582 369.763, 484.263 369.200 C 489.758 364.650, 542.186 364.589, 547.652 369.126 C 548.328 369.687, 549.695 370.044, 550.690 369.919 C 551.686 369.795, 553.400 370.054, 554.500 370.496 C 555.600 370.937, 560.222 372.775, 564.771 374.579 C 577.690 379.704, 586.735 387.272, 588.417 394.365 C 589.037 396.982, 589.374 397.172, 592.298 396.556 C 611.048 392.605, 629.412 393.669, 642.518 399.466 C 648.478 402.101, 648.692 402.012, 652.536 395.304 C 653.543 393.547, 654.687 392.307, 655.079 392.549 C 655.470 392.791, 656.039 392.340, 656.343 391.548 C 657.004 389.827, 665.358 385.792, 673 383.503 C 676.025 382.597, 679.222 381.475, 680.104 381.011 C 684.240 378.832, 704.541 377.652, 717.455 378.840 C 724.533 379.491, 730.813 380.418, 731.412 380.899 C 732.010 381.380, 734.525 382.108, 737 382.516 C 743.081 383.518, 755.977 387.428, 760.126 389.527 C 761.982 390.466, 767.100 393.627, 771.500 396.552 C 777.473 400.522, 779.970 402.870, 781.354 405.817 C 783.146 409.634, 783.412 409.788, 789.354 410.455 C 796.110 411.213, 808.639 413.658, 811 414.679 C 811.825 415.035, 812.800 415.366, 813.167 415.414 C 813.533 415.461, 814.171 415.837, 814.583 416.250 C 814.996 416.663, 816.067 417, 816.963 417 C 819.378 417, 821.516 401.949, 819.640 398.155 C 815.701 390.190, 814.532 383.539, 814.516 369 C 814.502 356.382, 814.855 353.144, 817.235 344.050 C 820.248 332.540, 820.271 332.619, 813.627 331.556 C 809.304 330.865, 797.733 326.100, 797.167 324.778 C 796.983 324.350, 796.530 324, 796.160 324 C 794.266 324, 782.854 311.696, 779.684 306.236 C 777.683 302.791, 775.966 299.641, 775.868 299.236 C 775.770 298.831, 775.130 297.150, 774.447 295.500 C 772.560 290.940, 770.761 278.096, 771.250 272.674 C 771.658 268.154, 771.553 267.889, 769.593 268.490 C 758.639 271.847, 739.640 271.163, 731 267.101 C 720.457 262.144, 711 255.711, 711 253.496 C 711 252.800, 709.975 251.558, 708.722 250.738 C 706.127 249.037, 701.642 240.431, 699.840 233.693 L 698.624 229.143 693.062 234.241 C 685.384 241.278, 680.075 244.464, 670.610 247.713 C 663.176 250.264, 661.333 250.489, 648.500 250.408 C 637.096 250.337, 633.358 249.933, 628.343 248.232 C 618.585 244.921, 607.556 236.498, 600.353 226.855 C 598.881 224.884, 597.966 224.439, 596.767 225.111 M 669 226.638 C 665.425 227.964, 661.825 229.316, 661 229.642 C 660.175 229.968, 656.958 230.152, 653.850 230.051 C 650.723 229.949, 647.906 230.343, 647.541 230.933 C 646.752 232.211, 641.791 232.354, 640.450 231.138 C 639.928 230.664, 637.700 229.816, 635.500 229.253 C 633.300 228.690, 629.772 227.479, 627.659 226.563 C 625.547 225.647, 624.111 225.370, 624.468 225.949 C 624.826 226.527, 625.766 227, 626.559 227 C 627.352 227, 628 227.340, 628 227.756 C 628 228.780, 632.964 230.905, 639.287 232.589 C 645.535 234.252, 653.037 234.381, 658.500 232.918 C 662.868 231.749, 674.837 226.072, 675.626 224.795 C 675.897 224.358, 675.979 224.051, 675.809 224.114 C 675.639 224.177, 672.575 225.313, 669 226.638 M 482 252.003 C 485.965 255.108, 497.122 259, 502.061 259 C 507.115 259, 517.962 256.441, 519.500 254.886 C 520.152 254.226, 519.543 254.236, 517.745 254.914 C 513.114 256.662, 499.833 257.344, 494.150 256.126 C 491.257 255.505, 487.236 253.873, 485.213 252.499 C 480.878 249.553, 478.380 249.167, 482 252.003 M 889.538 276.938 C 889.220 277.454, 890.891 279.205, 893.252 280.830 C 898.006 284.100, 905.079 291.411, 907.047 295.088 C 909.329 299.352, 911.966 311.366, 911.966 317.500 C 911.966 322.876, 909.378 335.585, 907.560 339.137 C 907.176 339.887, 908.468 338.738, 910.431 336.583 C 912.394 334.429, 914 332.067, 914 331.333 C 914 330.600, 914.395 330, 914.879 330 C 916.080 330, 917.680 325.778, 919.483 317.854 C 920.781 312.149, 920.807 310.215, 919.666 304.182 C 917.393 292.158, 908.316 280.326, 899.956 278.490 C 898.343 278.136, 896.766 277.431, 896.452 276.923 C 895.706 275.716, 890.286 275.728, 889.538 276.938 M 397.286 297.315 C 398.504 298.587, 399.837 299.461, 400.250 299.255 C 400.663 299.050, 401 299.434, 401 300.108 C 401 300.782, 401.320 301.013, 401.711 300.622 C 402.102 300.231, 401.089 298.823, 399.461 297.492 C 395.684 294.405, 394.402 294.300, 397.286 297.315 M 795.329 300.668 C 796.707 303.333, 800.352 306.424, 806.750 310.351 C 810.040 312.370, 807.405 309.923, 802.522 306.425 C 799.508 304.266, 797.033 301.993, 797.022 301.372 C 797.010 300.752, 796.255 299.627, 795.345 298.872 C 793.807 297.596, 793.806 297.723, 795.329 300.668 M 408.310 326.728 C 407.106 329.327, 406.380 331.690, 406.697 331.977 C 407.014 332.265, 407.470 331.952, 407.709 331.283 C 407.949 330.614, 409.237 328.456, 410.572 326.489 C 413.359 322.382, 413.459 322, 411.750 322.001 C 411.063 322.001, 409.515 324.128, 408.310 326.728 M 521 326.611 C 505.151 329.373, 493.667 336.704, 493.667 344.060 C 493.667 351.328, 499.720 354.289, 509.076 351.596 C 522.704 347.673, 541.123 347.654, 551.270 351.552 C 559.080 354.552, 563.975 353.098, 566.928 346.901 C 568.470 343.665, 568.440 343.274, 566.321 338.851 C 562.182 330.215, 553.738 326.811, 535.500 326.428 C 528.900 326.289, 522.375 326.372, 521 326.611 M 700 338.839 C 691.109 341.146, 689.262 342.392, 687.876 347.019 C 686.503 351.601, 688.141 358.470, 690.966 359.982 C 691.848 360.454, 698.405 360.653, 705.535 360.423 C 722.122 359.889, 734.317 362.546, 743.146 368.620 C 751.922 374.657, 760.733 369.167, 758.510 359.047 C 757.789 355.764, 754.421 351, 752.821 351 C 752.253 351, 750.148 349.712, 748.144 348.137 C 742.920 344.033, 739.286 342.357, 730.373 339.944 C 719.880 337.103, 708.313 336.682, 700 338.839 M 891.974 370.468 C 892.644 371.276, 893.830 373.863, 894.609 376.218 L 896.026 380.500 895.424 376.518 C 894.717 371.842, 893.364 369, 891.842 369 C 891.119 369, 891.163 369.491, 891.974 370.468 M 479 391.897 C 471.332 395.198, 469.410 397.892, 467.515 408 L 466.858 411.500 468.923 408.500 C 470.058 406.850, 470.990 404.994, 470.993 404.376 C 470.999 403.365, 475.011 398.425, 479.619 393.754 C 481.552 391.794, 481.262 390.923, 479 391.897 M 435.647 405.762 C 434.749 407.216, 433.948 422.636, 433.444 448.198 C 432.962 472.674, 433.028 473.945, 434.832 474.910 C 438.366 476.801, 439.336 481.317, 438.719 493.009 L 438.145 503.896 440.637 502.948 C 444.432 501.505, 445.870 501.779, 448.545 504.455 C 450.797 506.706, 451 507.672, 451 516.146 C 451 523.720, 451.225 525.095, 452.250 523.785 C 455.800 519.248, 465.807 522.085, 466.185 527.735 C 466.286 529.256, 466.467 531.400, 466.586 532.500 C 466.705 533.600, 466.847 535.703, 466.901 537.173 L 467 539.846 469.923 536.923 C 473.530 533.316, 477.243 533.152, 480.545 536.455 C 482.627 538.536, 483.003 539.867, 483.017 545.205 L 483.034 551.500 485.086 548.295 C 486.215 546.533, 488.120 544.785, 489.320 544.411 C 490.519 544.036, 491.796 543.270, 492.157 542.707 C 492.583 542.042, 494.039 542.265, 496.309 543.342 C 499.994 545.091, 501.885 548.678, 502.136 554.399 C 502.239 556.740, 502.378 556.951, 502.705 555.258 C 503.274 552.305, 508.427 547.221, 511.258 546.818 C 513.104 546.556, 513.695 545.527, 514.605 541 C 516.236 532.885, 519.737 526.251, 523.869 523.443 C 525.846 522.099, 528.099 521, 528.875 521 C 529.651 521, 533.259 517.911, 536.893 514.135 C 543.014 507.775, 544.114 507.078, 551.851 504.654 C 557.900 502.759, 560.705 502.307, 562.028 503.015 C 563.345 503.720, 565.126 503.446, 568.427 502.031 C 572.346 500.352, 573 499.659, 573 497.191 C 573 491.752, 579.294 488.746, 585.108 491.407 C 586.974 492.261, 589.175 493.386, 590 493.908 C 592.087 495.227, 595.332 496.356, 596.362 496.121 C 596.837 496.013, 597.737 496.617, 598.362 497.462 C 600.097 499.806, 611.997 499.887, 615.519 497.579 C 617.148 496.512, 619.393 495.977, 621.157 496.236 C 622.769 496.473, 624.320 496.292, 624.603 495.833 C 624.886 495.375, 627.076 495, 629.470 495 C 633.102 495, 634.250 495.509, 636.411 498.077 C 637.835 499.769, 639 502.029, 639 503.100 C 639 504.939, 639.136 504.957, 641.467 503.430 C 643.272 502.247, 645.026 501.997, 648.002 502.500 C 652.335 503.232, 658 507.249, 658 509.589 C 658 511.382, 659.020 511.375, 661.603 509.565 C 663.449 508.273, 664.165 508.423, 668.826 511.085 C 672.140 512.978, 674 514.708, 674 515.898 C 674 518.331, 676.543 520.548, 677.520 518.968 C 679.053 516.487, 688 521.302, 688 524.607 C 688 525.299, 688.906 526.153, 690.012 526.504 C 692.310 527.233, 697 533.659, 697 536.077 C 697 536.964, 697.831 538.442, 698.847 539.361 C 701.429 541.698, 703.158 548.157, 702.427 552.731 C 701.891 556.082, 702.206 557.009, 704.832 559.820 C 706.493 561.599, 708.179 564.504, 708.577 566.277 L 709.300 569.500 710.687 565.390 C 714.682 553.548, 727.445 553.104, 728.196 564.780 L 728.500 569.500 730.397 565.500 C 735.939 553.810, 740.468 549.744, 745.995 551.498 C 748.114 552.171, 751.401 558.543, 750.434 560.106 C 750.131 560.598, 750.145 561, 750.466 561 C 750.949 561, 753.047 556.774, 753.444 555 C 753.506 554.725, 754.781 551.858, 756.278 548.629 C 757.775 545.400, 759 542.448, 759 542.068 C 759 541.688, 759.918 540.392, 761.039 539.189 C 763.995 536.016, 769.250 536.231, 771.927 539.635 C 773.067 541.084, 774 541.788, 774 541.200 C 774 540.612, 774.525 538.863, 775.166 537.315 C 775.808 535.767, 776.409 534.275, 776.503 534 C 779.873 524.097, 783.682 520.168, 788.236 521.900 C 790.681 522.829, 790.907 522.676, 791.497 519.699 C 794.744 503.290, 797.258 498, 801.808 498 C 803.448 498, 803.793 496.976, 804.343 490.470 C 804.693 486.329, 805.743 481.491, 806.677 479.720 C 807.611 477.949, 808.254 475.239, 808.106 473.698 C 807.959 472.157, 808.651 469.682, 809.643 468.198 C 810.636 466.714, 811.499 465.275, 811.560 465 C 811.622 464.725, 811.926 463.825, 812.235 463 C 813.236 460.330, 816.315 435.981, 815.726 435.393 C 815.024 434.691, 809.039 433.323, 798.500 431.455 C 785.791 429.202, 786.306 429.012, 785.503 436.250 C 784.340 446.727, 781.114 457.102, 776.445 465.381 C 774 469.715, 772 473.589, 772 473.988 C 772 475.073, 754.227 492, 753.088 492 C 752.549 492, 749.496 493.527, 746.304 495.393 C 738.287 500.081, 731.206 501.998, 719.500 502.649 C 708.122 503.281, 692.194 501.134, 686.172 498.155 C 670.647 490.477, 667.958 488.689, 661.121 481.491 C 657.205 477.368, 654 473.569, 654 473.051 C 654 472.532, 652.474 469.496, 650.609 466.304 C 644.669 456.138, 642.740 448.270, 642.481 433.157 L 642.252 419.814 637.376 417.031 C 627.336 411.298, 609.067 409.480, 597.250 413.037 L 593 414.317 593 419.599 C 593 422.505, 592.543 425.165, 591.984 425.510 C 591.425 425.856, 591.253 426.600, 591.602 427.164 C 591.950 427.729, 591.761 429.160, 591.180 430.345 C 590.599 431.530, 589.383 435.175, 588.478 438.444 C 586.122 446.950, 581.492 455.942, 576.138 462.413 C 571.010 468.609, 562.146 476.228, 557.501 478.432 C 554.014 480.087, 544.734 484.259, 544 484.502 C 543.725 484.593, 542.371 485.140, 540.990 485.718 C 531.773 489.574, 504.738 489.208, 495.729 485.104 C 493.189 483.947, 490.620 483, 490.022 483 C 488.092 483, 479.622 478.317, 474.385 474.355 C 462.937 465.693, 453.167 450.593, 449.894 436.500 C 449.124 433.185, 448.500 425.268, 448.500 418.807 L 448.500 407.114 444.307 406.057 C 439.361 404.810, 436.300 404.706, 435.647 405.762 M 669 409 C 667.075 410.620, 664.938 411.958, 664.250 411.973 C 663.563 411.988, 662.997 412.563, 662.994 413.250 C 662.990 413.938, 662.385 415.655, 661.648 417.067 C 659.867 420.480, 658.771 425.005, 659.731 424.980 C 660.154 424.969, 661.850 422.624, 663.500 419.768 C 665.150 416.912, 668.245 412.646, 670.377 410.288 C 674.837 405.357, 674.122 404.688, 669 409 M 411.500 411.610 C 404.980 414.946, 403.718 416.150, 398.450 424.076 C 395.199 428.965, 393.620 432.676, 392.477 438.111 C 389.274 453.335, 390.705 464.313, 397.699 478.181 C 401.279 485.279, 403.262 487.938, 407.352 491.119 C 410.184 493.321, 413.304 495.780, 414.287 496.583 C 415.980 497.967, 416.066 497.561, 415.930 488.772 C 415.851 483.672, 416.045 463.637, 416.363 444.250 C 416.680 424.863, 416.840 409.012, 416.720 409.026 C 416.599 409.040, 414.250 410.203, 411.500 411.610 M 468 437.691 C 468 440.272, 468.060 440.303, 469.468 438.441 C 471.358 435.943, 471.366 435, 469.500 435 C 468.538 435, 468 435.966, 468 437.691 M 851.786 440.196 C 848.317 442.003, 845.564 444.464, 840.367 450.403 C 839.056 451.900, 837.775 455.475, 837.044 459.670 C 836.390 463.427, 835.249 467.850, 834.508 469.500 C 833.767 471.150, 832.853 475.650, 832.475 479.500 C 832.098 483.350, 831.082 487.850, 830.218 489.500 C 829.354 491.150, 828.756 494.130, 828.890 496.121 C 829.025 498.113, 828.429 501.431, 827.567 503.493 C 826.705 505.556, 826 508.472, 826 509.973 C 826 513.136, 824.598 517.734, 821.795 523.757 L 819.815 528.014 822.657 531.415 C 826.870 536.455, 829.738 537.349, 839.833 536.774 C 849.404 536.228, 854.698 534.388, 862.717 528.821 C 865.347 526.994, 868.365 525.050, 869.423 524.500 C 870.481 523.950, 872.056 522.326, 872.923 520.891 C 873.790 519.455, 876.432 515.457, 878.793 512.004 C 885.252 502.563, 887.927 494.689, 889.540 480.372 C 890.410 472.650, 887.862 459.216, 884.399 453.267 C 881.210 447.787, 875.742 442.513, 871.700 441.017 C 869.940 440.366, 867.719 439.421, 866.764 438.917 C 863.930 437.421, 855.776 438.117, 851.786 440.196 M 602.714 532.556 C 598.468 537.453, 594.817 538.649, 587.474 537.548 C 583.039 536.883, 578 533.060, 578 530.360 C 578 529.722, 576.470 530.730, 574.600 532.600 C 571.719 535.481, 570.498 536, 566.600 536 C 563.256 536, 561.425 535.425, 559.894 533.894 L 557.787 531.787 554.989 534.851 C 552.156 537.952, 548.097 539.635, 545.683 538.708 C 544.797 538.369, 543.968 539.671, 543.170 542.653 C 542.311 545.868, 541.151 547.576, 538.996 548.802 C 536.462 550.244, 536.012 551.107, 536.006 554.527 C 536.003 556.743, 535.320 559.526, 534.489 560.712 C 533.533 562.077, 533.350 563.098, 533.989 563.493 C 535.338 564.327, 535.283 568.707, 533.913 569.554 C 533.315 569.923, 533.042 571.053, 533.307 572.065 C 533.571 573.076, 533.273 574.115, 532.644 574.373 C 532.015 574.631, 532.625 574.881, 534 574.928 C 537.575 575.051, 540.826 580.375, 542.343 588.591 C 543.069 592.528, 543.929 594.924, 544.363 594.222 C 544.778 593.550, 546.578 593, 548.363 593 C 552.396 593, 557.659 598.044, 558.615 602.825 L 559.269 606.096 561.449 604.048 C 564.903 600.803, 574.536 602.071, 577.391 606.147 C 579.216 608.754, 580.665 607.901, 581.482 603.739 C 582.756 597.253, 586.403 588, 587.685 588 C 588.408 588, 589 587.550, 589 587 C 589 585.235, 594.933 585.933, 596.933 587.933 C 598.590 589.590, 599.036 589.661, 600.056 588.433 C 601.641 586.523, 603.927 586.624, 606.227 588.706 C 607.766 590.098, 608.466 590.190, 610.042 589.206 C 612.696 587.548, 615.110 587.729, 617.633 589.772 C 620.960 592.468, 621.806 594.968, 622.166 603.180 C 622.498 610.772, 622.745 611.112, 626 608.485 C 630.683 604.706, 639.184 606.718, 640.544 611.928 L 641.215 614.500 642.114 612.145 C 644.868 604.931, 651.727 600.879, 655.674 604.137 C 657.078 605.296, 657.400 605.276, 657.823 604 C 658.097 603.175, 659.830 600.986, 661.675 599.136 C 665.009 595.791, 666.583 595.514, 671.204 597.461 C 672.637 598.064, 673.014 597.377, 673.577 593.129 C 674.003 589.923, 675.471 586.221, 677.598 582.991 C 680.507 578.574, 680.871 577.336, 680.359 573.602 C 680.022 571.142, 680.250 568.401, 680.893 567.201 C 681.753 565.592, 681.682 564.329, 680.589 561.801 C 679.804 559.985, 678.285 556.475, 677.212 554 C 676.139 551.525, 674.934 548.446, 674.534 547.157 C 673.908 545.143, 673.352 544.899, 670.571 545.421 C 666.588 546.168, 661.601 543.128, 658.179 537.866 L 655.857 534.297 653.005 537.148 C 648.274 541.879, 638.086 540.833, 634.421 535.240 L 632.815 532.787 629.362 536.133 C 626.199 539.199, 625.409 539.473, 619.925 539.398 C 614.756 539.328, 613.531 538.925, 610.944 536.446 C 609.296 534.867, 607.621 532.363, 607.224 530.882 L 606.500 528.189 602.714 532.556 M 562.189 546.039 C 560.773 547.358, 560 549.269, 560 551.450 C 560 555.877, 562.862 558.239, 576.284 564.893 C 585.963 569.691, 587.779 570.228, 599.442 571.746 C 610.034 573.124, 613.598 573.201, 621.299 572.220 C 630.995 570.984, 641.263 567.879, 643.695 565.448 C 644.491 564.651, 645.795 564, 646.593 564 C 648.296 564, 655.944 559.281, 657.750 557.116 C 659.604 554.894, 659.278 549.561, 657.171 547.655 C 654.743 545.457, 649.840 545.555, 646.885 547.860 C 637.506 555.176, 620.584 559.655, 606.305 558.602 C 590.837 557.460, 580.512 553.816, 571.673 546.379 C 568.207 543.462, 565.075 543.350, 562.189 546.039 M 524.560 654.750 C 525.964 661.203, 532.083 671.705, 537.937 677.709 C 546.251 686.235, 559.634 694.891, 569.500 698.123 C 579.464 701.387, 586.193 703, 589.848 703 C 591.398 703, 592.991 703.324, 593.387 703.720 C 593.783 704.116, 595.613 704.311, 597.453 704.152 C 599.293 703.994, 601.095 704.345, 601.458 704.932 C 601.871 705.600, 606.945 706, 615 706 C 623.055 706, 628.129 705.600, 628.542 704.932 C 628.905 704.345, 630.619 703.958, 632.351 704.073 C 634.083 704.188, 636.767 703.769, 638.315 703.141 C 639.863 702.513, 642.168 702, 643.436 702 C 648.107 702, 667.750 695.184, 675.506 690.872 C 679.903 688.427, 684.792 685.776, 686.372 684.979 C 690.438 682.929, 703.112 671.940, 707.663 666.518 C 710.858 662.712, 717.452 652, 716.600 652 C 716.235 652, 701.775 656.970, 700 657.706 C 699.175 658.048, 698.275 658.404, 698 658.497 C 697.725 658.591, 696.299 659.167, 694.832 659.778 C 693.365 660.388, 691.340 660.874, 690.332 660.856 C 689.324 660.838, 686.025 661.548, 683 662.434 C 675.839 664.530, 661.753 667.165, 655.817 667.520 C 653.241 667.674, 650.553 668.158, 649.844 668.596 C 649.136 669.034, 646.833 669.268, 644.727 669.116 C 642.621 668.964, 640.259 669.370, 639.478 670.018 C 637.563 671.607, 596.375 671.556, 594.455 669.962 C 593.721 669.354, 589.087 668.477, 584.157 668.015 C 579.227 667.552, 574.280 666.685, 573.162 666.087 C 572.045 665.489, 569.594 665, 567.715 665 C 563.095 665, 544.208 660.259, 541.628 658.452 C 540.488 657.653, 538.811 657, 537.902 657 C 536.993 657, 533.705 655.875, 530.596 654.500 C 523.633 651.421, 523.834 651.412, 524.560 654.750 M 405.655 734.381 C 401.097 736.098, 397 739.697, 397 741.983 C 397 742.882, 396.339 744.491, 395.532 745.559 C 394.298 747.190, 394.059 753.988, 394.032 788.125 L 394 828.750 397.223 829.395 C 401.006 830.151, 413.118 836.204, 417.683 839.619 C 419.434 840.928, 421.234 842.001, 421.683 842.003 C 422.132 842.004, 423.400 843.350, 424.500 844.994 L 426.500 847.982 427 813.587 L 427.500 779.193 430.620 774.846 C 432.336 772.456, 435.586 769.461, 437.843 768.190 L 441.946 765.880 497.440 765.959 C 527.961 766.002, 553.511 766.216, 554.217 766.435 C 554.923 766.654, 556.729 767.102, 558.232 767.431 C 559.734 767.760, 562.570 769.439, 564.533 771.163 C 571.730 777.483, 571.372 773.654, 571.120 841.500 C 570.991 876.094, 570.481 904.070, 569.941 906.128 C 568.546 911.442, 561.423 917.664, 555.762 918.513 C 549.901 919.392, 439.968 918.569, 437.905 917.630 C 436.775 917.117, 435.541 917.913, 433.674 920.361 L 431.038 923.816 433.659 928.505 C 436.738 934.014, 437.150 941.155, 434.768 947.750 L 433.234 952 468.367 952.122 C 487.690 952.189, 516.775 952.385, 533 952.557 C 559.644 952.840, 758.307 953.287, 767.180 953.084 C 770.846 953, 770.857 952.987, 769.930 949.757 C 768.110 943.411, 768.800 935.138, 771.575 930.040 L 774.150 925.309 771.576 921.517 C 764.768 911.485, 765.971 898.572, 774.604 889.017 L 778.402 884.812 776.269 883.156 C 773.517 881.021, 771.444 871.194, 772.400 864.821 C 774.155 853.115, 788.187 839.701, 804.106 834.511 C 813.630 831.406, 812.783 835.704, 813.080 788.957 C 813.257 761.053, 812.992 746.683, 812.268 745 C 810.547 740.995, 804.568 735.923, 800.372 734.908 C 798.072 734.351, 717.930 733.760, 603 733.451 C 435.588 733.002, 408.982 733.127, 405.655 734.381 M 450.178 780.003 C 443.052 780.570, 441.404 782.109, 441.879 787.750 C 442.033 789.574, 441.681 791, 441.077 791 C 440.329 791, 440 801.263, 440 824.566 C 440 858.168, 439.638 862, 436.465 862 C 435.384 862, 435 863.245, 434.999 866.750 C 434.999 871.682, 431.685 881.926, 429.660 883.254 C 428.852 883.784, 429.152 884.543, 430.650 885.757 C 432.952 887.623, 439 898.393, 439 900.627 C 439 902.197, 445.168 905, 448.622 905 C 450.812 905, 451 904.601, 451 899.945 C 451 897.165, 451.820 893.002, 452.823 890.695 C 453.826 888.388, 455.486 884.475, 456.512 882 C 458.628 876.897, 464.464 869.142, 466.885 868.215 C 467.773 867.875, 469.175 866.796, 470 865.817 C 471.878 863.588, 483.958 859.027, 488.273 858.918 L 491.500 858.837 488.500 857.511 C 483.615 855.352, 473.699 846.024, 471.591 841.603 C 468.685 835.510, 468.733 820.048, 471.675 814.500 C 474.481 809.208, 480.126 803.510, 485.306 800.742 C 488.848 798.848, 491.055 798.500, 499.500 798.500 C 508.559 798.500, 509.931 798.754, 514.084 801.195 C 520.111 804.738, 525.297 810.591, 527.485 816.322 C 530.012 822.938, 529.240 835.779, 525.939 842.051 C 523.452 846.777, 514.841 854.802, 510.497 856.443 C 506.900 857.802, 507.383 858.513, 512.750 859.763 C 518.395 861.077, 527 864.770, 527 865.877 C 527 866.308, 529.008 868.103, 531.463 869.866 C 536.716 873.639, 542.910 885.025, 543.747 892.446 C 544.032 894.976, 544.656 897.287, 545.133 897.582 C 545.610 897.877, 546 899.666, 546 901.559 C 546 904.877, 546.136 905, 549.800 905 C 551.890 905, 554.140 904.460, 554.800 903.800 C 555.646 902.954, 556 897.197, 556 884.286 C 556 871.378, 556.369 865.378, 557.250 863.956 C 558.280 862.295, 558.237 861.775, 557.008 861.011 C 555.820 860.272, 555.770 859.830, 556.758 858.842 C 558.311 857.289, 558.437 843.837, 556.913 842.313 C 556.130 841.530, 556.130 841.038, 556.913 840.554 C 557.653 840.097, 558 831.163, 558 812.587 L 558 785.292 555.548 782.646 L 553.095 780 513.798 779.971 C 492.184 779.955, 470.450 779.842, 465.500 779.721 C 460.550 779.599, 453.655 779.726, 450.178 780.003 M 601.101 789.368 C 598.612 790.479, 596.617 795.216, 597.485 797.953 C 599.135 803.151, 596.482 802.985, 684.415 803.399 C 729.374 803.611, 767.361 803.466, 768.830 803.078 C 772.005 802.237, 774.425 797.830, 773.574 794.439 C 772.181 788.887, 775.388 789.094, 685.758 788.782 C 640.025 788.623, 602.184 788.885, 601.101 789.368 M 600.337 837.182 C 596.374 839.099, 595.916 845.007, 599.455 848.545 L 601.909 851 677.873 851 C 719.653 851, 754.565 850.720, 755.455 850.379 C 756.346 850.037, 757.768 848.416, 758.616 846.776 C 760.860 842.436, 758.992 838.370, 754.135 837.021 C 749.059 835.611, 603.269 835.764, 600.337 837.182 M 362 841.208 C 357.875 841.625, 353.600 842.356, 352.500 842.833 C 351.400 843.309, 347.125 844.744, 343 846.022 C 332.929 849.141, 324.673 853.795, 317.177 860.578 C 305.572 871.080, 299.328 880.785, 293.422 897.500 C 292.451 900.250, 291.341 902.950, 290.957 903.500 C 288.871 906.484, 285.171 930.204, 284.639 944 C 284.202 955.328, 283.950 956.033, 279.478 958.442 L 276.005 960.312 272.630 956.837 C 269.985 954.114, 268.801 953.530, 267.157 954.138 C 262.697 955.787, 231.369 978.976, 229.488 982.020 C 228.524 983.580, 223.706 983.115, 221.270 981.228 C 220.043 980.277, 218.739 977.988, 218.373 976.139 C 217.741 972.955, 218.092 972.414, 225.103 965.801 C 232.805 958.534, 249.589 945.822, 256.500 942.019 C 267.686 935.864, 270 933.915, 270.005 930.646 C 270.008 928.916, 270.915 922.144, 272.020 915.598 C 273.125 909.052, 273.910 903.628, 273.764 903.545 C 273.619 903.462, 272.348 902.676, 270.940 901.799 C 268.040 899.991, 237.473 891, 234.227 891 C 233.491 891, 231.742 893.587, 230.340 896.750 C 228.938 899.913, 225.857 906.550, 223.493 911.500 C 221.128 916.450, 217.537 924.775, 215.511 930 C 213.485 935.225, 210.758 941.750, 209.451 944.500 C 208.144 947.250, 205.489 954.450, 203.552 960.500 C 201.615 966.550, 199.597 972.244, 199.068 973.152 C 197.883 975.186, 194.394 990.167, 193.019 999.121 C 190.745 1013.937, 192.285 1037.396, 196.229 1048 C 199.900 1057.872, 206.039 1067.743, 212.143 1073.586 C 223.905 1084.848, 242.450 1091.376, 257.500 1089.553 C 264.927 1088.653, 273 1086.782, 273 1085.960 C 273 1085.562, 274.913 1084.753, 277.250 1084.162 C 279.587 1083.570, 284.142 1081.491, 287.371 1079.543 C 290.600 1077.594, 293.388 1076, 293.566 1076 C 293.743 1076, 295.601 1074.400, 297.694 1072.444 C 299.787 1070.489, 302.689 1068.252, 304.142 1067.474 C 305.595 1066.697, 308.293 1064.134, 310.136 1061.780 C 311.980 1059.426, 314.537 1056.653, 315.819 1055.619 C 317.101 1054.584, 318.562 1052.784, 319.067 1051.619 C 319.571 1050.453, 322.913 1045.519, 326.492 1040.652 C 331.283 1034.139, 333 1030.966, 333 1028.625 C 333 1024.075, 335.409 1021.183, 339.779 1020.489 C 345.061 1019.649, 352.410 1017.751, 353 1017.074 C 353.939 1015.996, 359.496 1012.366, 361.144 1011.754 C 363.776 1010.777, 367.679 1004.936, 369.551 999.172 C 370.503 996.242, 372.680 992.389, 374.391 990.610 C 377.176 987.713, 378.596 987.188, 388 985.582 C 404.546 982.756, 412 978.618, 412 972.260 C 412 966.795, 410.665 965.414, 404.015 964.003 C 395.532 962.203, 374.671 963.226, 365.681 965.883 C 356.516 968.592, 352 966.690, 352 960.122 C 352 955.675, 356.063 952.912, 365.531 950.921 C 370.464 949.883, 375.662 949.027, 377.083 949.017 C 378.504 949.008, 379.976 948.690, 380.355 948.312 C 381.324 947.343, 402.621 947.936, 407.779 949.076 C 413.036 950.238, 417.152 948.443, 420.011 943.742 C 424.548 936.282, 416.903 928.554, 402.365 925.906 C 399.139 925.319, 396.073 924.425, 395.550 923.919 C 394.325 922.734, 370.521 922.716, 368.236 923.899 C 366.055 925.029, 352.244 928.030, 349.307 928.013 C 346.715 927.998, 344 924.518, 344 921.212 C 344 916.851, 346.178 914.479, 352 912.497 C 352.275 912.404, 353.175 912.055, 354 911.721 C 357.913 910.140, 375.394 908, 384.426 907.995 C 394.511 907.991, 411 910.640, 411 912.264 C 411 912.734, 411.493 912.813, 412.095 912.441 C 412.698 912.069, 414.321 912.369, 415.702 913.108 C 418.010 914.344, 418.408 914.227, 420.607 911.670 C 423.992 907.735, 423.922 900.898, 420.449 896.344 C 419.046 894.505, 417.351 893, 416.681 893 C 416.012 893, 413.897 891.954, 411.982 890.676 C 404.380 885.601, 389.638 882.012, 376.360 882.004 C 370.002 882, 356.926 884.125, 348.881 886.469 C 343.232 888.114, 340.236 886.961, 338.391 882.429 C 337.278 879.695, 337.380 879.062, 339.320 876.670 C 344.845 869.860, 371.734 865.267, 390.592 867.911 C 396.697 868.767, 409.293 871.726, 414.021 873.416 C 416.023 874.131, 419.384 871.442, 418.704 869.670 C 418.403 868.885, 418.642 867.758, 419.236 867.164 C 420.008 866.392, 419.915 865.603, 418.908 864.389 C 418.133 863.456, 417.666 862.497, 417.869 862.257 C 418.072 862.018, 416.765 859.855, 414.964 857.452 C 411.324 852.593, 398.735 845.461, 391.859 844.361 C 389.736 844.022, 388 843.297, 388 842.750 C 388 842.181, 387.387 842.264, 386.567 842.944 C 385.448 843.873, 384.625 843.813, 382.817 842.672 C 379.875 840.816, 371.616 840.235, 362 841.208 M 816.500 846.929 C 804.048 849.615, 794.250 855.476, 789.419 863.128 C 786.993 866.971, 786.126 873, 788 873 C 788.550 873, 789 873.726, 789 874.613 C 789 876.519, 790.629 876.306, 802.500 872.844 C 809.555 870.787, 812.509 870.520, 827.500 870.584 C 843.026 870.651, 845.280 870.894, 853.500 873.386 C 863.240 876.338, 863.848 876.734, 866.780 882.046 C 868.736 885.591, 868.736 885.593, 866.618 888.141 C 863.871 891.448, 861.624 892.188, 858.241 890.902 C 856.734 890.328, 855.275 889.853, 855 889.845 C 854.725 889.837, 854.025 889.436, 853.445 888.954 C 851.652 887.466, 835.144 884.999, 827.119 885.020 C 818.221 885.043, 807.456 886.457, 803.371 888.140 C 801.792 888.791, 800.206 889.265, 799.846 889.193 C 799.486 889.122, 798.644 889.725, 797.973 890.532 C 797.303 891.339, 796.317 892, 795.782 892 C 795.247 892, 793.399 893.013, 791.675 894.250 C 789.952 895.487, 787.654 896.953, 786.569 897.506 C 785.483 898.059, 783.955 900.573, 783.173 903.092 C 781.899 907.195, 781.927 908.044, 783.442 911.237 C 785.790 916.184, 788.620 916.598, 797 913.219 C 797.825 912.886, 798.950 912.577, 799.500 912.531 C 800.050 912.485, 801.175 912.009, 802 911.474 C 804.217 910.035, 837.295 910.385, 837.784 911.853 C 837.997 912.491, 838.625 912.732, 839.181 912.388 C 839.736 912.045, 841.160 912.225, 842.345 912.788 C 843.530 913.350, 847.780 914.815, 851.789 916.043 C 856.057 917.350, 859.476 919.020, 860.039 920.072 C 861.617 923.021, 861.138 927.565, 859.050 929.455 C 856.814 931.479, 853.725 931.304, 842 928.490 C 836.765 927.233, 830.575 926.690, 821.500 926.690 C 797.319 926.690, 784 931.950, 784 941.500 C 784 948.409, 789.956 952.113, 798.955 950.801 C 811.097 949.031, 829.346 950.807, 843.102 955.097 C 848.760 956.861, 849.936 957.643, 851.331 960.568 C 852.458 962.932, 852.689 964.687, 852.083 966.281 C 851.207 968.587, 848 971.900, 848 970.500 C 848 970.090, 847.365 970.282, 846.589 970.926 C 845.672 971.687, 844.961 971.746, 844.557 971.092 C 844.215 970.540, 843.230 970.358, 842.367 970.689 C 841.504 971.021, 840.453 970.733, 840.032 970.051 C 838.172 967.043, 814.211 964.362, 801.500 965.741 C 794.671 966.481, 794.455 966.591, 792.667 970.251 C 788.593 978.589, 794.641 983.854, 812 987.082 C 818.325 988.258, 824.761 989.685, 826.303 990.253 C 829.083 991.278, 833 997.276, 833 1000.508 C 833 1001.382, 834.515 1004.464, 836.366 1007.358 C 841.739 1015.758, 851.202 1022.170, 859.862 1023.281 C 865.773 1024.038, 869.601 1027.771, 870.235 1033.395 C 870.805 1038.447, 875.254 1045.723, 885.781 1058.815 C 899.593 1075.992, 916.341 1088.181, 931.716 1092.244 C 943.587 1095.381, 957.059 1095.080, 967.948 1091.433 C 972.594 1089.877, 977.207 1087.793, 978.198 1086.802 C 979.189 1085.811, 980.439 1085, 980.975 1085 C 982.629 1085, 994 1073.305, 994 1071.604 C 994 1070.722, 994.455 1070, 995.010 1070 C 996.662 1070, 1002.785 1055.848, 1004.575 1047.890 C 1005.490 1043.825, 1006.502 1040.056, 1006.824 1039.514 C 1007.146 1038.972, 1007.281 1037.037, 1007.124 1035.214 C 1006.967 1033.391, 1007.370 1031.260, 1008.019 1030.477 C 1009.684 1028.470, 1009.658 997.497, 1007.989 995.487 C 1007.323 994.684, 1006.963 992.446, 1007.188 990.514 C 1007.414 988.581, 1007.239 987, 1006.799 987 C 1006.360 987, 1006 985.955, 1006 984.678 C 1006 983.401, 1004.452 974.963, 1002.561 965.928 C 998.022 944.250, 996.927 939.698, 995.961 938.490 C 995.517 937.934, 994.233 934.109, 993.109 929.990 C 989.259 915.882, 986.347 906.370, 985.439 904.935 C 984.939 904.146, 984.485 903.275, 984.429 903 C 983.588 898.863, 981.622 898.202, 976.651 900.383 C 974.918 901.143, 970.575 902.463, 967 903.316 C 950.313 907.296, 943.063 908.954, 937.750 910.005 C 933.438 910.857, 932.015 911.562, 932.058 912.821 C 932.090 913.744, 932.706 919.675, 933.426 926 C 934.146 932.325, 934.573 937.788, 934.376 938.140 C 934.179 938.492, 935.626 939.544, 937.591 940.476 C 944.902 943.946, 967.484 960.867, 976.992 970 C 977.850 970.825, 980.060 972.756, 981.902 974.291 C 983.744 975.826, 984.974 977.360, 984.634 977.699 C 984.295 978.038, 984.519 978.920, 985.131 979.658 C 985.955 980.651, 985.921 981.390, 985 982.500 C 984.315 983.325, 984.090 984, 984.500 984 C 985.897 984, 982.589 987.206, 980.291 988.079 C 976.973 989.341, 973.720 987.760, 967.830 982.022 C 964.994 979.260, 962.338 977, 961.929 977 C 961.519 977, 958.780 975.045, 955.842 972.656 C 952.904 970.267, 946.929 965.786, 942.564 962.697 L 934.629 957.081 932.845 960.014 C 930.724 963.503, 926.779 964.755, 923.476 962.987 C 920.188 961.227, 919.869 959.993, 919.479 947.500 C 919.111 935.756, 916.402 915.190, 915 913.500 C 914.534 912.939, 913.270 909.109, 912.191 904.990 C 909.719 895.551, 904.056 881.959, 902.319 881.292 C 901.594 881.014, 901 880.365, 901 879.850 C 901 876.376, 881.827 857, 878.390 857 C 877.743 857, 876.981 856.392, 876.695 855.648 C 875.927 853.646, 861.648 848.207, 852.662 846.494 C 842.508 844.558, 826.605 844.750, 816.500 846.929 M 600.500 885.183 C 597.699 886.788, 597.033 888.030, 597.015 891.677 C 597.004 893.930, 597.767 895.458, 599.635 896.927 C 602.237 898.975, 603.046 899, 665.524 899 C 724.329 899, 728.921 898.877, 730.802 897.250 C 734.322 894.207, 734.415 891.496, 731.128 887.817 L 728.165 884.500 665.332 884.268 C 619.545 884.099, 601.957 884.347, 600.500 885.183 M 524.200 1097.200 C 522.567 1098.833, 522.692 1100, 524.500 1100 C 525.333 1100, 526 1099.111, 526 1098 C 526 1095.669, 525.814 1095.586, 524.200 1097.200" stroke="none" fill="#171916" fill-rule="evenodd"/>
</svg>