<svg role="img" aria-labelledby="artwork-title" shape-rendering="geometricPrecision" xmlns="http://www.w3.org/2000/svg" width="1200" height="1200" viewBox="0 0 1200 1200" version="1.1">
	<title id="artwork-title">Mascot holding a logo symbol</title>
	<path d="M 606 80.860 C 606 81.333, 603.638 81.970, 600.750 82.275 C 594.558 82.929, 582.247 86.850, 576.268 90.071 C 571.198 92.804, 558.761 103.967, 554.994 109.167 L 552.298 112.889 548.399 108.892 C 542.826 103.178, 536.470 99.380, 528.465 96.979 C 524.634 95.831, 520.825 94.626, 520 94.302 C 519.175 93.978, 517.307 93.807, 515.849 93.921 C 514.391 94.036, 512.902 93.651, 512.540 93.065 C 511.706 91.715, 502 91.655, 502 93 C 502 93.550, 500.515 94, 498.701 94 C 493.308 94, 477.763 99.386, 471.872 103.297 C 464.410 108.250, 454.017 119.227, 449.905 126.500 C 448.038 129.800, 446.477 132.725, 446.434 133 C 446.392 133.275, 445.847 134.625, 445.223 136 C 444.599 137.375, 443.595 141.049, 442.991 144.165 L 441.894 149.830 438.898 148.971 C 421.061 143.855, 399.258 150.017, 384.665 164.299 C 369.210 179.424, 362.929 197.335, 365.842 217.968 C 366.422 222.076, 366.755 225.578, 366.583 225.750 C 366.410 225.923, 363.283 226.918, 359.633 227.962 C 355.984 229.006, 352.291 230.566, 351.427 231.430 C 350.564 232.293, 349.325 233, 348.675 233 C 346.789 233, 338.728 239.140, 334.889 243.500 C 329.176 249.991, 327.209 253.305, 324.436 261.113 C 322.992 265.176, 321.344 269.483, 320.772 270.684 C 320.200 271.886, 319.975 273.798, 320.273 274.934 C 320.570 276.070, 320.338 277, 319.758 277 C 318.454 277, 319.424 294.583, 320.824 296.325 C 321.344 296.971, 322.095 299.075, 322.493 301 C 324.704 311.692, 337.938 328.081, 348.505 333.215 C 352.727 335.266, 352.831 335.427, 351.560 337.919 C 346.010 348.799, 347.428 366.754, 354.704 377.734 C 358.798 383.910, 362.510 387.211, 369.143 390.572 C 373.798 392.931, 374 393.210, 374.006 397.267 C 374.010 399.595, 374.693 402.804, 375.524 404.399 C 376.355 405.993, 376.915 407.397, 376.768 407.519 C 376.621 407.641, 374.359 408.675, 371.742 409.818 C 369.125 410.960, 364.767 413.764, 362.058 416.048 C 357.060 420.262, 349 431.161, 349 433.705 C 349 434.470, 348.149 436.858, 347.109 439.011 C 344.072 445.296, 342.648 452.825, 342.572 463 C 342.503 472.107, 344.612 487, 345.971 487 C 346.329 487, 347.436 489.719, 348.432 493.043 C 352.103 505.299, 365.513 520.767, 377.442 526.504 C 381.439 528.427, 385.675 530, 386.855 530 C 388.035 530, 389 530.484, 389 531.077 C 389 531.695, 390.468 532.027, 392.446 531.856 C 394.342 531.693, 396.217 531.884, 396.613 532.280 C 397.009 532.676, 398.383 533, 399.667 533 C 401.364 533, 402 533.567, 402 535.083 C 402 537.937, 405.884 552.929, 407.277 555.452 C 407.899 556.578, 408.444 557.950, 408.490 558.500 C 408.535 559.050, 409.397 561.300, 410.406 563.500 C 411.415 565.700, 413.398 570.097, 414.814 573.270 C 416.229 576.444, 418.216 579.791, 419.230 580.708 C 420.243 581.625, 421.916 584.204, 422.947 586.438 C 423.978 588.672, 426.838 592.638, 429.302 595.250 C 431.767 597.863, 433.611 600, 433.401 600 C 432.773 600, 436.157 603.952, 442.097 610.155 C 445.176 613.370, 448.069 616, 448.526 616 C 448.984 616, 450.787 617.463, 452.534 619.250 C 454.281 621.038, 459.151 624.910, 463.355 627.856 C 467.560 630.802, 471 633.562, 471 633.991 C 471 634.419, 468.415 635.092, 465.256 635.487 C 455.479 636.709, 432.103 641.659, 426 643.801 C 425.175 644.090, 424.275 644.405, 424 644.500 C 423.725 644.595, 422.825 644.956, 422 645.301 C 421.175 645.647, 416 647.486, 410.500 649.389 C 394.117 655.055, 390.563 656.440, 389.259 657.669 C 388.577 658.313, 386.327 659.387, 384.259 660.056 C 380.074 661.411, 370.362 666.508, 367.919 668.630 C 367.049 669.386, 366.074 669.741, 365.752 669.419 C 365.430 669.097, 364.292 669.708, 363.223 670.777 C 362.155 671.845, 359.234 673.742, 356.733 674.991 C 350.183 678.262, 327.561 697.455, 318.118 707.752 C 306.270 720.671, 294.746 735.401, 289.367 744.500 C 286.766 748.900, 283.633 753.850, 282.405 755.500 C 281.176 757.150, 278.049 762.663, 275.455 767.750 C 272.861 772.837, 270.377 777, 269.936 777 C 269.495 777, 268.815 778.013, 268.425 779.250 C 268.034 780.487, 265.979 785.057, 263.858 789.404 C 261.736 793.751, 260 797.881, 260 798.582 C 260 799.283, 259.402 800.455, 258.672 801.186 C 256.451 803.406, 247.814 825.566, 247.708 829.314 C 247.591 833.453, 249.292 835.805, 253.750 837.668 C 255.538 838.416, 257 839.259, 257 839.544 C 257 839.828, 255.837 842.824, 254.415 846.202 C 252.993 849.580, 250.543 856.128, 248.970 860.753 C 247.396 865.379, 245.683 869.689, 245.163 870.332 C 244.355 871.328, 237.596 891.291, 235.456 899 C 235.074 900.375, 233.923 903.371, 232.898 905.659 C 229.202 913.902, 222 944.932, 222 952.610 C 222 954.475, 221.550 956, 221 956 C 219.719 956, 219.653 979.377, 220.927 981.764 C 221.437 982.719, 222.287 986.425, 222.816 990 C 224.095 998.639, 229.090 1011.332, 234.210 1018.957 C 240.648 1028.546, 252.049 1038.065, 260.500 1040.909 C 262.700 1041.649, 266.300 1043.115, 268.500 1044.166 C 270.700 1045.217, 275.875 1046.551, 280 1047.132 C 288.032 1048.263, 305.609 1047.442, 306.568 1045.890 C 306.881 1045.383, 307.577 1045.238, 308.113 1045.570 C 308.649 1045.901, 309.656 1045.700, 310.351 1045.124 C 311.046 1044.547, 314.064 1043.426, 317.057 1042.634 C 324.173 1040.750, 337.623 1034.286, 340.579 1031.330 C 341.861 1030.048, 343.556 1029, 344.346 1029 C 345.137 1029, 348.082 1026.933, 350.892 1024.407 C 353.701 1021.881, 355.997 1020.419, 355.994 1021.157 C 355.990 1021.896, 355.345 1030.600, 354.559 1040.500 C 353.774 1050.400, 352.866 1063.900, 352.542 1070.500 C 352.219 1077.100, 351.697 1085.508, 351.382 1089.185 C 350.924 1094.536, 351.166 1096.473, 352.596 1098.893 C 355.114 1103.155, 359.046 1104.622, 362.857 1102.721 C 366.381 1100.963, 370.106 1101.404, 375.364 1104.201 C 378.506 1105.872, 380.421 1106.160, 385.624 1105.742 C 390.934 1105.316, 392.438 1105.556, 394.472 1107.157 C 397.907 1109.859, 406.240 1110.728, 409.325 1108.706 C 411.502 1107.280, 411.859 1107.287, 413.357 1108.785 C 414.544 1109.973, 417.568 1110.583, 424.250 1110.985 C 429.338 1111.291, 434.574 1112.143, 435.886 1112.879 C 437.557 1113.815, 440.252 1114.037, 444.886 1113.620 C 455.506 1112.665, 461.667 1112.987, 465.052 1114.676 C 467.506 1115.900, 469.814 1116.102, 475.357 1115.577 C 484.032 1114.755, 484.364 1114.753, 490 1115.450 C 497.806 1116.416, 521.468 1117.819, 522.217 1117.361 C 523.547 1116.548, 535.482 1116.752, 537.500 1117.623 C 539.492 1118.483, 542.766 1118.540, 559.073 1117.998 C 563.789 1117.841, 570.539 1118.283, 574.073 1118.979 C 579.115 1119.973, 582.548 1119.997, 590 1119.088 C 595.225 1118.451, 600.063 1117.993, 600.750 1118.069 C 601.438 1118.146, 604.813 1118.213, 608.250 1118.218 C 622.103 1118.241, 632.167 1118.299, 645.500 1118.432 C 653.200 1118.509, 662.061 1118.213, 665.190 1117.774 C 670.305 1117.056, 696.564 1116.041, 722 1115.578 C 732.445 1115.388, 757.827 1113.225, 759.141 1112.413 C 759.597 1112.131, 764.364 1111.742, 769.735 1111.549 C 778.439 1111.235, 784.091 1110.031, 787.681 1107.726 C 788.330 1107.309, 789.144 1107.425, 789.490 1107.984 C 790.232 1109.185, 802 1109.374, 802 1108.185 C 802 1106.383, 808.480 1104.311, 811.500 1105.147 C 814.528 1105.985, 823.365 1103.837, 824.510 1101.984 C 824.804 1101.509, 826.496 1101.727, 828.272 1102.469 C 832.476 1104.226, 836.722 1103.353, 838.706 1100.325 C 840.095 1098.207, 840.211 1094.646, 839.644 1071.591 C 839.289 1057.117, 838.706 1041.163, 838.349 1036.138 C 837.992 1031.112, 838.019 1027, 838.408 1027 C 839.217 1027, 847.944 1031.758, 849.597 1033.100 C 851.316 1034.496, 870.894 1041.553, 877 1042.978 C 880.025 1043.684, 882.972 1044.633, 883.548 1045.086 C 887.078 1047.861, 919.336 1048.626, 922.489 1046.009 C 923.146 1045.464, 923.913 1045.246, 924.193 1045.527 C 924.473 1045.807, 926.007 1045.355, 927.601 1044.524 C 929.196 1043.693, 931.175 1043.009, 932 1043.005 C 935.969 1042.987, 946.334 1036.677, 953.364 1029.999 C 960.312 1023.399, 970 1009.625, 970 1006.347 C 970 1005.678, 970.525 1003.863, 971.166 1002.315 C 971.808 1000.767, 972.408 999.275, 972.500 999 C 972.592 998.725, 973.160 997.318, 973.762 995.874 C 978.348 984.868, 980.305 951.631, 977.492 932.500 C 975.444 918.571, 973.711 909.358, 973.002 908.628 C 972.537 908.149, 972.396 907.130, 972.690 906.365 C 972.984 905.600, 972.764 904.418, 972.201 903.737 C 971.639 903.057, 970.862 900.700, 970.474 898.500 C 969.231 891.452, 962.401 866.924, 960.310 862 C 959.959 861.175, 959.596 860.275, 959.503 860 C 959.409 859.725, 958.762 858.150, 958.064 856.500 C 956.104 851.862, 954 845.843, 954 844.874 C 954 844.393, 954.875 844, 955.944 844 C 957.014 844, 959.151 842.914, 960.694 841.586 C 963.049 839.560, 963.473 838.465, 963.333 834.765 C 963.242 832.341, 962.237 828.702, 961.100 826.679 C 959.964 824.655, 959.307 823, 959.640 823 C 959.972 823, 959.792 822.437, 959.238 821.750 C 958.358 820.658, 953.443 808.231, 949.328 796.692 C 948.581 794.597, 947.333 791.897, 946.554 790.692 C 945.775 789.486, 944.040 785.562, 942.697 781.971 C 941.354 778.380, 938.796 772.755, 937.011 769.471 C 935.226 766.187, 931.325 758.790, 928.341 753.032 C 925.357 747.275, 922.316 741.875, 921.582 741.032 C 920.848 740.190, 918.370 736.380, 916.075 732.568 C 902.887 710.656, 873.620 680.938, 856.844 672.424 C 854.282 671.124, 852.032 669.641, 851.844 669.127 C 851.655 668.614, 847.450 666.076, 842.500 663.487 C 837.550 660.898, 832.825 658.207, 832 657.508 C 831.175 656.809, 829.375 655.905, 828 655.499 C 826.625 655.094, 823.475 653.852, 821 652.740 C 818.525 651.629, 812.675 649.393, 808 647.773 C 803.325 646.153, 799.050 644.476, 798.500 644.047 C 796.727 642.662, 784.858 639.232, 770.500 635.953 C 762.800 634.195, 756.050 632.403, 755.500 631.971 C 754.710 631.350, 744.174 629, 742.181 629 C 741.933 629, 742.874 628.100, 744.273 627 C 745.671 625.900, 747.227 625, 747.730 625 C 748.233 625, 751.893 621.963, 755.865 618.250 C 759.836 614.538, 764.416 610.453, 766.043 609.174 C 767.669 607.895, 769 606.207, 769 605.424 C 769 604.641, 769.450 604, 770 604 C 770.550 604, 771 603.532, 771 602.961 C 771 602.390, 772.748 600.157, 774.884 597.999 C 777.020 595.841, 780.809 590.797, 783.303 586.788 C 785.797 582.780, 789.044 578.038, 790.517 576.251 C 791.990 574.464, 793.832 570.887, 794.609 568.303 C 795.387 565.718, 796.526 563.293, 797.139 562.914 C 798.277 562.211, 801.628 553.556, 805.177 542.153 C 806.951 536.453, 807.374 535.873, 809.326 536.457 C 817.881 539.016, 824.125 539.370, 832.442 537.767 C 841.860 535.951, 846.230 534.172, 853.240 529.296 C 855.847 527.483, 858.233 526, 858.543 526 C 859.679 526, 866 520.469, 866 519.474 C 866 518.910, 868.250 516.266, 871 513.599 C 873.750 510.931, 876 508.136, 876 507.388 C 876 506.641, 877.575 503.060, 879.500 499.431 C 881.425 495.803, 883 491.971, 883 490.917 C 883 489.863, 883.478 489, 884.063 489 C 884.647 489, 885.027 488.213, 884.907 487.250 C 884.786 486.288, 885.241 484.150, 885.918 482.500 C 886.594 480.850, 887.655 474.440, 888.275 468.255 C 889.417 456.860, 888.683 449.171, 885.783 442.167 C 885.176 440.700, 884.771 438.938, 884.883 438.250 C 884.996 437.562, 884.674 437, 884.169 437 C 883.663 437, 882.998 435.762, 882.690 434.250 C 881.861 430.173, 876.746 422.996, 870.381 416.975 L 864.751 411.652 867.799 409.076 C 871.831 405.669, 876 399.272, 876 396.494 C 876 395.030, 877.596 393.024, 880.664 390.634 C 883.229 388.635, 884.917 386.986, 884.414 386.970 C 883.911 386.953, 884.294 386.477, 885.264 385.912 C 887.997 384.321, 893.644 371.273, 894.958 363.513 C 896.432 354.810, 895.547 346.110, 892.496 339.312 L 890.167 334.123 897.084 326.984 C 900.888 323.057, 904 319.473, 904 319.018 C 904 318.564, 905.575 315.406, 907.500 312 C 919.090 291.496, 916.536 266.492, 900.876 247.138 C 896.256 241.429, 884.855 233, 881.752 233 C 880.867 233, 879.548 232.406, 878.821 231.681 C 877.375 230.236, 869.470 228, 865.807 228 C 863.503 227.999, 863.500 227.978, 863.469 213.250 C 863.444 200.947, 863.127 197.836, 861.560 194.500 C 860.526 192.300, 859.613 190.275, 859.531 190 C 859.448 189.725, 857.872 186.378, 856.029 182.562 C 851.400 172.979, 842.139 163.959, 832.078 159.234 C 827.910 157.276, 824.275 155.629, 824 155.572 C 823.725 155.516, 822.982 155.140, 822.349 154.737 C 821.716 154.334, 817.787 153.474, 813.619 152.826 C 805.747 151.602, 790.974 152.957, 788.329 155.145 C 787.468 155.857, 786.972 154.576, 786.454 150.307 C 786.067 147.113, 785.481 144.050, 785.152 143.500 C 784.822 142.950, 784.527 142.050, 784.495 141.500 C 784.464 140.950, 783.664 138.758, 782.719 136.628 C 781.773 134.498, 780.996 132.248, 780.991 131.628 C 780.960 127.953, 766.556 109, 763.794 109 C 763.240 109, 761.964 107.953, 760.958 106.673 C 758.550 103.613, 749.010 98.608, 741.500 96.466 C 738.200 95.525, 735.050 94.489, 734.501 94.164 C 733.951 93.840, 732.263 93.704, 730.751 93.862 C 729.238 94.021, 728 93.667, 728 93.075 C 728 91.777, 712.867 91.578, 711.450 92.858 C 710.928 93.330, 707.575 94.306, 704 95.026 C 700.425 95.746, 695.505 97.179, 693.067 98.211 C 688.005 100.352, 677.669 107.526, 674.076 111.392 C 672.742 112.826, 671.167 113.992, 670.576 113.981 C 669.984 113.971, 668.150 111.700, 666.500 108.936 C 663.588 104.056, 655.227 96.411, 646.563 90.705 C 640.338 86.605, 628.594 82.912, 619.750 82.274 C 615.487 81.966, 612 81.329, 612 80.857 C 612 80.386, 610.650 80, 609 80 C 607.350 80, 606 80.387, 606 80.860 M 599.938 98.947 C 590.443 100.951, 586.870 102.540, 579.500 108.038 C 570.425 114.808, 562.988 124.917, 563.015 130.446 L 563.029 133.500 564.265 131.079 C 565.533 128.592, 573.611 122.185, 575.628 122.066 C 576.248 122.030, 577.279 121.369, 577.919 120.597 C 580.265 117.770, 590.188 114.011, 599.486 112.426 C 609.846 110.660, 617.691 111.321, 627 114.743 C 635.352 117.814, 646.261 126.631, 652.296 135.190 L 656.492 141.139 657.146 137.940 C 657.506 136.181, 658.315 133.780, 658.945 132.604 C 659.894 130.830, 659.628 129.614, 657.391 125.483 C 655.907 122.742, 654.074 119.304, 653.319 117.841 C 652.563 116.379, 650.045 113.568, 647.722 111.593 C 645.400 109.619, 642.712 107.328, 641.750 106.502 C 640.788 105.676, 640 105.311, 640 105.691 C 640 106.071, 639.438 105.672, 638.750 104.804 C 636.903 102.473, 627.403 99.302, 618.594 98.076 C 609.281 96.781, 610.467 96.726, 599.938 98.947 M 712.500 108.989 C 705.382 110.041, 694.014 114.832, 690.648 118.198 C 689.071 119.775, 686.296 122.198, 684.481 123.583 C 681.137 126.133, 678 131.411, 678 134.485 C 678 135.837, 678.738 135.587, 681.750 133.217 C 692.485 124.770, 710.447 121.008, 725.201 124.117 C 728.115 124.731, 730.950 125.572, 731.500 125.986 C 732.050 126.401, 734.110 127.257, 736.077 127.890 C 738.044 128.523, 740.645 130.382, 741.857 132.020 C 743.069 133.659, 744.630 135, 745.327 135 C 746.611 135, 754 142.027, 754 143.248 C 754 143.613, 755.272 146.069, 756.827 148.706 C 758.381 151.343, 759.700 153.725, 759.756 154 C 759.813 154.275, 760.381 155.850, 761.019 157.500 C 761.657 159.150, 762.477 163.385, 762.840 166.911 L 763.500 173.322 764.952 170.411 C 765.751 168.810, 767.512 166.273, 768.866 164.774 C 771.306 162.073, 771.318 161.964, 770.189 152.774 C 768.600 139.832, 764.324 131.339, 755.098 122.797 C 746.847 115.158, 740.272 111.812, 729.230 109.632 C 720.356 107.881, 720.068 107.870, 712.500 108.989 M 499 109.671 C 490.969 110.953, 481.965 115.323, 475.804 120.928 C 473.128 123.363, 470.082 125.955, 469.037 126.687 C 466.675 128.341, 461.390 139.354, 460.443 144.595 C 460.055 146.743, 459.502 148.907, 459.215 149.403 C 458.467 150.697, 458.569 157.902, 459.346 158.679 C 459.706 159.039, 460 160.860, 460 162.726 C 460 164.733, 460.408 165.866, 461 165.500 C 461.550 165.160, 462.011 164.121, 462.024 163.191 C 462.071 159.840, 466.885 149.834, 471.042 144.445 C 473.376 141.420, 478.034 136.797, 481.393 134.173 C 491.736 126.090, 500.368 123.459, 513.989 124.235 C 524.252 124.820, 532.949 128.324, 539.143 134.369 C 542.668 137.809, 542.806 137.853, 543.380 135.712 C 544.957 129.828, 544.113 127.208, 538.987 122.082 C 532.713 115.808, 527.222 112.590, 519.356 110.574 C 513.653 109.113, 504.924 108.726, 499 109.671 M 731.918 147.391 C 732.698 148.336, 734.273 149.608, 735.418 150.218 C 737.312 151.228, 737.372 151.173, 736.082 149.609 C 735.302 148.664, 733.727 147.392, 732.582 146.782 C 730.688 145.772, 730.628 145.827, 731.918 147.391 M 588.306 161.468 C 586.763 162.826, 585.984 163.951, 586.576 163.968 C 587.167 163.986, 588.708 162.875, 590 161.500 C 593.019 158.286, 591.946 158.266, 588.306 161.468 M 413 164.553 C 406.912 166.465, 393.061 175.795, 390.809 179.500 C 389.047 182.399, 383.673 192.981, 383.444 194 C 383.383 194.275, 382.767 195.850, 382.077 197.500 C 381.257 199.458, 380.956 203.801, 381.208 210 C 381.545 218.246, 381.954 220.061, 384.311 223.750 C 385.804 226.088, 387.132 228, 387.263 228 C 387.393 228, 387.568 224.287, 387.650 219.750 C 387.921 204.872, 393.952 192.226, 405.326 182.684 C 415.742 173.947, 423.305 170.959, 435.597 170.724 C 443.258 170.577, 444.548 169.691, 441.515 166.657 C 438.017 163.160, 421.351 161.930, 413 164.553 M 565.633 165.515 C 564.532 168.382, 564.944 169.199, 566.636 167.507 C 567.729 166.413, 567.939 165.539, 567.268 164.868 C 566.598 164.198, 566.056 164.412, 565.633 165.515 M 799.366 169.217 C 799.100 169.648, 797.911 170, 796.724 170 C 792.523 170, 786 173.160, 786 175.195 C 786 176.277, 786.457 176.836, 787.045 176.472 C 788.851 175.356, 800.274 175.922, 805.742 177.399 C 808.624 178.178, 812.875 180.206, 815.189 181.907 C 817.502 183.608, 819.965 185, 820.662 185 C 822.772 185, 828.991 191.063, 831.079 195.155 C 832.158 197.270, 833.508 199, 834.079 199 C 834.651 199, 834.840 199.450, 834.500 200 C 834.160 200.550, 834.252 201, 834.705 201 C 837.471 201, 841.460 217.968, 840.809 226.963 C 840.569 230.283, 840.669 233, 841.031 233 C 842.366 233, 844.865 229.413, 845.560 226.500 C 845.954 224.850, 846.713 222.945, 847.246 222.267 C 848.629 220.510, 848.664 206.648, 847.293 203.848 C 846.660 202.557, 845.370 199.025, 844.425 196 C 840.616 183.804, 830.945 174.279, 819 170.959 C 813.267 169.365, 800.002 168.189, 799.366 169.217 M 548.964 175.583 C 547.884 178.104, 547 180.358, 547 180.592 C 547 180.827, 549.029 179.110, 551.509 176.776 C 555.341 173.170, 555.754 172.428, 554.259 171.837 C 551.278 170.657, 550.988 170.862, 548.964 175.583 M 661.030 174.832 C 658.796 181.076, 658.721 181.642, 660.403 179.580 C 661.264 178.524, 663.050 176.949, 664.371 176.080 L 666.774 174.500 664.558 172.832 C 662.395 171.205, 662.311 171.253, 661.030 174.832 M 455.216 195.845 C 452.881 197.327, 454.836 199.678, 458.015 199.211 C 460.543 198.840, 460.811 198.516, 459.941 196.890 C 458.861 194.873, 457.295 194.526, 455.216 195.845 M 776.335 196.695 C 775.144 196.927, 773.920 197.766, 773.616 198.558 C 772.993 200.181, 774.545 200.545, 775.500 199 C 775.840 198.450, 776.991 198, 778.059 198 C 779.127 198, 780 197.550, 780 197 C 780 196.450, 779.663 196.061, 779.250 196.136 C 778.837 196.211, 777.526 196.462, 776.335 196.695 M 805.021 198.750 C 805.053 199.871, 813.029 205.304, 813.683 204.651 C 814.919 203.415, 812.894 200.982, 809.421 199.532 C 805.213 197.773, 804.992 197.734, 805.021 198.750 M 645.687 213.910 C 645.978 215.024, 646.811 216.429, 647.539 217.032 C 648.605 217.917, 648.719 217.596, 648.126 215.380 C 647.722 213.868, 646.888 212.463, 646.274 212.258 C 645.593 212.031, 645.364 212.676, 645.687 213.910 M 430.012 221.750 C 428.401 225.132, 427.018 233.107, 428.165 232.398 C 428.624 232.114, 429 230.654, 429 229.152 C 429 227.651, 429.851 224.753, 430.892 222.711 C 431.933 220.670, 432.455 219, 432.053 219 C 431.650 219, 430.732 220.238, 430.012 221.750 M 506.393 221.582 C 506.727 222.452, 507 223.352, 507 223.582 C 507 223.812, 507.422 224, 507.938 224 C 508.454 224, 508.808 223.100, 508.725 222 C 508.642 220.900, 507.947 220, 507.180 220 C 506.320 220, 506.018 220.606, 506.393 221.582 M 632.250 227.496 C 631.563 228.277, 631 229.330, 631 229.836 C 631 231.061, 618.497 242, 617.096 242 C 616.493 242, 616 242.445, 616 242.990 C 616 244.978, 599.521 251.974, 591 253.604 C 586.325 254.498, 581.719 255.628, 580.764 256.115 C 578.498 257.270, 573.436 257.247, 571.236 256.072 C 570.281 255.562, 566.323 254.672, 562.441 254.094 C 549.346 252.146, 535.197 244.683, 527.087 235.447 L 524.194 232.152 523.538 235.649 C 523.177 237.572, 521.247 242.150, 519.248 245.823 C 517.250 249.495, 514.636 254.300, 513.438 256.500 C 512.241 258.700, 510.395 260.904, 509.336 261.399 C 508.277 261.893, 506.080 264.086, 504.455 266.271 C 500.277 271.890, 486.099 280.705, 476.799 283.467 C 465.206 286.910, 445.063 285.892, 438.400 281.527 C 436.158 280.057, 436.069 280.117, 435.431 283.517 C 435.069 285.445, 434.367 287.273, 433.870 287.580 C 433.374 287.887, 433.238 288.577, 433.570 289.113 C 433.901 289.649, 433.746 290.630, 433.225 291.294 C 431.066 294.042, 426.157 312.952, 423.471 328.861 C 422.695 333.460, 421.662 337.735, 421.175 338.361 C 420.688 338.988, 419.744 343.775, 419.077 349 C 418.411 354.225, 417.655 359.400, 417.399 360.500 C 416.965 362.361, 414.663 381.402, 413.349 394 L 412.775 399.500 422.865 399.500 L 432.956 399.500 435.411 394.987 C 438.184 389.890, 440.922 387.147, 445.982 384.394 C 447.897 383.352, 450.023 381.981, 450.706 381.347 C 452.652 379.542, 467.537 375.227, 478 373.434 C 491.406 371.137, 517.698 371.144, 529.464 373.447 C 540.196 375.547, 551.818 379.628, 554.289 382.164 C 555.273 383.174, 556.558 384, 557.145 384 C 559.467 384, 565.961 390.289, 568.011 394.522 C 569.203 396.985, 570.594 399, 571.102 399 C 571.610 399, 575.273 398.100, 579.243 397 C 583.212 395.900, 587.905 395, 589.671 395 C 591.437 395, 593.160 394.550, 593.500 394 C 593.840 393.450, 595.415 393, 597 393 C 598.585 393, 600.160 393.450, 600.500 394 C 600.840 394.550, 603.089 395, 605.497 395 C 610.510 395, 620.976 397.256, 626.321 399.489 L 629.955 401.008 631.936 397.126 C 633.025 394.991, 635.903 391.501, 638.330 389.372 C 655.641 374.186, 688.282 369.376, 725 376.601 C 743.912 380.322, 759.854 389.016, 764.602 398.198 C 765.688 400.298, 766.784 401, 768.974 401 C 772.562 401, 794.797 403.844, 797.351 404.630 C 798.984 405.132, 799.119 404.804, 798.496 401.850 C 798.107 400.007, 797.387 398.072, 796.895 397.550 C 795.731 396.315, 795.731 380.495, 796.894 378.236 C 798.216 375.669, 799.779 366, 798.873 366 C 798.443 366, 796.526 363.949, 794.612 361.442 C 791.655 357.571, 789.404 352.678, 785.433 341.500 C 785.043 340.400, 784.816 338.083, 784.929 336.351 C 785.043 334.619, 784.655 332.905, 784.068 332.542 C 782.757 331.732, 782.652 322.624, 783.927 320.236 C 784.437 319.281, 785.293 315.575, 785.829 312 C 786.365 308.425, 786.960 304.939, 787.152 304.253 C 787.407 303.339, 784.961 302.898, 778 302.603 C 757.588 301.738, 741.168 292.342, 731.131 275.783 C 727.930 270.503, 725 259.495, 725 252.753 C 725 249.589, 724.626 247, 724.169 247 C 723.711 247, 719.416 248.984, 714.623 251.410 C 709.830 253.835, 705.709 255.873, 705.465 255.937 C 705.221 256.002, 704.454 256.235, 703.760 256.456 C 700.707 257.427, 688.932 259, 684.717 259 C 678.766 259, 670.572 257.323, 665.500 255.067 C 663.300 254.088, 660.375 253.009, 659 252.670 C 652.650 251.100, 636.629 234.910, 635.330 228.750 C 634.681 225.673, 634.073 225.425, 632.250 227.496 M 742.081 234.849 C 741.486 235.960, 741.018 237.461, 741.040 238.184 C 741.062 238.908, 741.772 238.223, 742.618 236.662 C 743.464 235.100, 743.933 233.599, 743.659 233.326 C 743.386 233.052, 742.676 233.738, 742.081 234.849 M 589.500 236.493 C 587.300 237.199, 581.499 237.815, 576.609 237.863 C 571.718 237.910, 567.443 238.234, 567.109 238.582 C 565.753 239.990, 588.584 238.320, 592 236.761 C 596.192 234.847, 595.021 234.722, 589.500 236.493 M 670.500 239.627 C 672.655 240.848, 676.318 241.401, 683.500 241.589 L 693.500 241.851 685 241.083 C 680.325 240.661, 675.375 239.983, 674 239.578 C 668.496 237.956, 667.574 237.969, 670.500 239.627 M 366 243.063 C 366 243.647, 365.212 244.010, 364.250 243.868 C 362.120 243.554, 354.800 247.244, 349.891 251.106 C 334.779 262.995, 331.518 288.102, 342.703 306.448 C 344.619 309.591, 347.981 312.755, 354.169 317.237 C 358.991 320.730, 359.219 319.473, 354.454 315.670 C 352.503 314.114, 349.512 310.064, 347.806 306.670 C 344.982 301.053, 344.695 299.595, 344.602 290.405 C 344.540 284.304, 344.943 279.753, 345.620 278.905 C 346.235 278.132, 347.299 275.700, 347.984 273.500 C 351.103 263.477, 361.691 251.981, 371.453 248.019 C 376.839 245.833, 377.002 245.660, 375.381 243.869 C 373.542 241.836, 366 241.188, 366 243.063 M 856.750 245.555 C 855.351 247.006, 855.991 247.561, 860.654 248.937 C 867.024 250.818, 874.442 257.143, 880.084 265.505 C 882.680 269.352, 884.627 272.684, 884.410 272.908 C 884.194 273.132, 884.408 273.807, 884.886 274.408 C 886.939 276.989, 889.205 289.599, 888.586 294.997 C 887.698 302.739, 885.699 311, 884.714 311 C 884.256 311, 884.160 311.450, 884.500 312 C 884.840 312.550, 884.714 313, 884.220 313 C 883.725 313, 882.808 314.125, 882.182 315.500 C 880.438 319.328, 882.508 318.583, 887.287 313.664 C 889.732 311.148, 892.474 306.846, 893.819 303.414 C 895.095 300.161, 896.565 296.707, 897.086 295.737 C 898.440 293.217, 899.415 282.483, 898.486 280.323 C 898.055 279.320, 897.792 277.564, 897.901 276.421 C 898.223 273.034, 890.276 258.482, 885.991 254.611 C 879.727 248.952, 872.714 245.898, 864.610 245.301 C 860.700 245.013, 857.163 245.127, 856.750 245.555 M 408.262 250.690 C 409.192 251.620, 410.233 252.100, 410.576 251.757 C 411.561 250.773, 410.050 249, 408.227 249 C 406.700 249, 406.703 249.132, 408.262 250.690 M 830.079 265.265 C 828.747 265.944, 827.476 267.175, 827.253 268 C 826.991 268.969, 827.140 269.109, 827.674 268.395 C 828.128 267.788, 829.850 266.568, 831.500 265.685 C 834.991 263.817, 833.677 263.429, 830.079 265.265 M 851.098 266.786 C 852.182 268.521, 856 269.328, 856 267.821 C 856 266.938, 852.605 265, 851.057 265 C 850.307 265, 850.319 265.538, 851.098 266.786 M 419.583 272.643 C 419.237 273.547, 419.159 274.492, 419.410 274.743 C 420.205 275.538, 422 273.942, 422 272.441 C 422 270.479, 420.361 270.617, 419.583 272.643 M 394 322.003 L 391.500 323.961 394.750 322.761 C 396.538 322.101, 398 321.210, 398 320.781 C 398 319.509, 396.661 319.918, 394 322.003 M 503.627 329.083 C 500.397 329.565, 497.247 330.358, 496.627 330.847 C 496.007 331.335, 492.626 332.715, 489.114 333.913 C 478.363 337.581, 470 344.645, 470 350.060 C 470 351.298, 471.148 353.816, 472.551 355.656 C 475.627 359.688, 479.533 360.070, 485.539 356.926 C 494.627 352.168, 512.555 349.894, 524 352.047 C 527.025 352.616, 531.877 353.345, 534.782 353.667 C 540.788 354.333, 542.922 353.074, 545.698 347.224 C 547.210 344.038, 547.186 343.629, 545.283 340.171 C 543.729 337.347, 541.493 335.609, 535.593 332.638 C 528.586 329.111, 527.126 328.752, 518.711 328.492 C 513.645 328.336, 506.857 328.602, 503.627 329.083 M 680.450 330.814 C 679.928 331.261, 676.800 332.435, 673.500 333.421 C 666.564 335.496, 664.267 337.216, 662.333 341.788 C 661.112 344.673, 661.145 345.503, 662.601 348.572 C 665.470 354.618, 670.203 356.414, 676.685 353.915 C 682.580 351.642, 704.347 352.995, 710.500 356.017 C 713.963 357.718, 724.370 361.170, 727.589 361.686 C 731.708 362.346, 735.862 358.791, 736.633 353.945 C 737.094 351.049, 736.695 349.791, 734.484 347.164 C 728.749 340.347, 715.509 333.932, 704.034 332.410 C 701.241 332.040, 698.714 331.346, 698.419 330.868 C 697.739 329.769, 681.726 329.720, 680.450 330.814 M 847.619 340.868 C 846.006 342.651, 846.045 342.714, 848.464 342.252 C 849.859 341.985, 851 341.144, 851 340.383 C 851 338.459, 849.620 338.657, 847.619 340.868 M 366.878 342.769 C 364.689 348.421, 363.675 356.535, 364.778 359.571 C 365.761 362.276, 365.848 362.072, 365.921 356.919 C 365.975 353.071, 366.775 349.812, 368.496 346.419 C 371.456 340.586, 371.329 341.340, 369.468 340.626 C 368.431 340.228, 367.594 340.921, 366.878 342.769 M 872.013 341.250 C 872.020 341.387, 873.370 344.151, 875.013 347.391 C 877.198 351.701, 878.027 354.787, 878.100 358.891 L 878.201 364.500 879.120 360.581 C 880.767 353.558, 877.499 341, 874.025 341 C 872.911 341, 872.006 341.113, 872.013 341.250 M 382.182 350.500 C 380.843 353.438, 382.426 353.940, 383.965 351.066 C 385.219 348.721, 385.266 348, 384.161 348 C 383.699 348, 382.808 349.125, 382.182 350.500 M 456.418 401.533 L 451.336 403.993 449.556 411.747 C 448.577 416.011, 447.339 420.341, 446.806 421.368 C 446.167 422.597, 446.187 423.587, 446.863 424.263 C 447.565 424.965, 448.074 424.375, 448.474 422.395 C 449.352 418.051, 455.059 407.302, 458.828 402.893 C 460.658 400.752, 462.008 399.016, 461.828 399.037 C 461.648 399.057, 459.213 400.180, 456.418 401.533 M 650.231 406.206 C 644.728 410.804, 644.003 411.843, 643.451 415.927 C 643.110 418.442, 642.601 421.400, 642.319 422.500 C 642.037 423.600, 643.458 421.800, 645.478 418.500 C 647.497 415.200, 650.979 410.126, 653.216 407.225 C 655.453 404.323, 657.082 401.749, 656.837 401.504 C 656.592 401.259, 653.619 403.375, 650.231 406.206 M 587.461 412.335 C 584.139 413.021, 579.977 414.181, 578.211 414.913 C 575.085 416.207, 575 416.407, 575 422.438 C 575 428.606, 573.374 439.596, 572.180 441.500 C 571.835 442.050, 571.515 442.950, 571.469 443.500 C 571.423 444.050, 571.003 445.400, 570.535 446.500 C 570.067 447.600, 568.850 450.667, 567.831 453.316 C 561.780 469.040, 545.784 484.545, 529.500 490.471 C 525.650 491.872, 521.717 493.465, 520.759 494.012 C 518.346 495.389, 506.816 496.956, 498.917 496.980 C 492.184 497, 481.294 495.300, 479.500 493.949 C 478.950 493.535, 476.475 492.668, 474 492.023 C 466.502 490.070, 456.761 483.603, 449.327 475.643 C 443.170 469.050, 436 458.038, 436 455.175 C 436 454.600, 435.475 452.863, 434.834 451.315 C 434.192 449.767, 433.623 448.275, 433.568 448 C 433.514 447.725, 433.168 447.028, 432.800 446.452 C 431.649 444.648, 429.127 427.753, 429.180 422.199 C 429.208 419.283, 429.014 416.680, 428.748 416.415 C 427.644 415.311, 414.044 415.556, 412.900 416.700 C 410.942 418.658, 410.606 457.337, 412.514 461.028 C 413.547 463.024, 414 467.046, 414 474.213 C 414 483.822, 414.148 484.593, 416.168 485.513 C 417.361 486.056, 418.641 487.175, 419.013 488 C 419.385 488.825, 420.209 490.506, 420.845 491.736 C 421.480 492.966, 422 497.954, 422 502.820 C 422 507.686, 422.274 511.940, 422.608 512.274 C 422.942 512.609, 423.999 512.393, 424.957 511.795 C 426.943 510.555, 430.569 511.299, 433.500 513.549 C 435.183 514.841, 435.556 516.513, 435.851 524.095 C 436.126 531.130, 436.455 532.777, 437.351 531.607 C 439.694 528.553, 443.547 528.623, 447.085 531.784 C 450.150 534.523, 450.423 535.285, 450.942 542.534 C 451.459 549.756, 451.599 550.150, 452.828 547.837 C 454.449 544.790, 458.769 542.268, 461.561 542.741 C 464.576 543.251, 466.924 547.977, 467.659 555.013 L 468.305 561.196 470.903 556.617 C 473.682 551.716, 477.513 549.393, 480.995 550.499 C 484.018 551.458, 486.992 556.815, 486.996 561.309 C 487 565.563, 488.429 565.539, 489.319 561.271 C 490.049 557.773, 494.478 553, 496.995 553 C 498.436 553, 499.054 552.073, 499.495 549.250 C 500.576 542.329, 501.912 538.529, 504.945 533.748 C 507.979 528.963, 513.061 525.011, 516.188 525.004 C 517.116 525.002, 519.343 522.956, 521.137 520.458 C 524.817 515.334, 529.560 512, 533.168 512 C 534.506 512, 536.028 511.592, 536.550 511.094 C 538.363 509.365, 545.070 506, 546.702 506 C 547.604 506, 549.084 506.671, 549.990 507.491 C 551.462 508.823, 551.995 508.717, 555.013 506.491 C 556.869 505.121, 558.976 504, 559.694 504 C 560.412 504, 561 502.901, 561 501.557 C 561 500.165, 561.957 498.443, 563.223 497.557 C 565.958 495.641, 572.864 495.526, 575.527 497.352 C 576.612 498.096, 579.503 499.016, 581.950 499.396 C 584.398 499.777, 586.957 500.549, 587.636 501.113 C 589.944 503.028, 597.922 502.790, 601.829 500.689 C 603.848 499.604, 607.075 498.577, 609 498.406 C 610.925 498.235, 614.300 497.806, 616.500 497.453 C 619.720 496.935, 621.036 497.232, 623.250 498.977 C 624.763 500.170, 626 501.787, 626 502.573 C 626 504.376, 626.403 504.360, 630.181 502.406 C 635.240 499.790, 641.661 501.300, 646.147 506.159 C 648.310 508.503, 650.074 509.689, 650.462 509.061 C 650.823 508.478, 652.736 508, 654.714 508 C 657.641 508, 659.058 508.787, 662.336 512.232 C 665.224 515.269, 667.023 516.378, 668.702 516.158 C 671.825 515.749, 676.889 518.074, 677.573 520.232 C 677.876 521.185, 680.085 523.373, 682.481 525.094 C 684.981 526.889, 687.117 529.348, 687.491 530.862 C 687.849 532.313, 689.334 534.753, 690.791 536.284 C 693.020 538.627, 693.501 540.169, 693.832 546.034 C 694.116 551.058, 694.606 553, 695.590 553 C 697.622 553, 700.323 557.706, 700.973 562.380 L 701.547 566.500 703.966 559.727 C 705.858 554.431, 707.032 552.632, 709.347 551.477 C 715.736 548.289, 720 551.100, 720 558.500 C 720 562.980, 721.540 564.583, 722.641 561.250 C 726.315 550.121, 727.659 547.649, 731.291 545.336 L 735.083 542.923 737.989 544.992 C 739.957 546.393, 741.200 548.423, 741.840 551.280 C 742.360 553.601, 742.834 554.767, 742.893 553.872 C 742.952 552.977, 743.759 550.502, 744.686 548.372 C 745.613 546.242, 746.272 544.115, 746.151 543.645 C 746.029 543.174, 746.330 542.274, 746.820 541.645 C 747.309 541.015, 748.331 538.336, 749.090 535.692 C 751.082 528.756, 753.673 526.877, 759.128 528.415 C 760.921 528.920, 762.049 530.162, 762.682 532.328 C 763.543 535.278, 763.738 534.869, 765.465 526.500 C 766.487 521.550, 767.933 516.269, 768.679 514.764 C 770.171 511.757, 773.634 510.440, 777.500 511.411 C 779.801 511.988, 780 511.766, 780 508.626 C 780 501.834, 783.126 489.721, 785.360 487.854 C 786.537 486.871, 787.998 486.052, 788.606 486.033 C 789.255 486.014, 789.943 483.008, 790.272 478.750 C 790.580 474.762, 791.382 470.150, 792.054 468.500 C 792.725 466.850, 793.339 463.539, 793.416 461.143 C 793.528 457.676, 794.164 456.239, 796.528 454.112 C 799.249 451.665, 799.523 450.815, 799.774 444.043 C 799.924 439.976, 800.409 436.164, 800.851 435.574 C 801.896 434.176, 802.264 423.003, 801.265 422.991 C 800.844 422.987, 794.875 422.315, 788 421.500 C 781.125 420.685, 774.038 420.013, 772.250 420.009 L 769 420 769 425.511 C 769 432.097, 765.667 447.703, 762.948 453.851 C 761.877 456.273, 761 458.824, 761 459.520 C 761 460.216, 760.432 461.004, 759.739 461.270 C 759.045 461.536, 757.395 463.947, 756.072 466.627 C 753.098 472.651, 738.916 486.979, 733.500 489.429 C 731.300 490.425, 727.346 492.300, 724.714 493.597 C 716.830 497.479, 705.111 499.363, 693.018 498.690 C 681.456 498.048, 675.685 496.614, 666.234 492.035 C 662.788 490.366, 659.634 489, 659.227 489 C 656.892 489, 638 470.117, 638 467.783 C 638 467.369, 636.592 464.742, 634.872 461.946 C 629.677 453.504, 626.937 443.130, 626.287 429.450 L 625.715 417.400 622.107 416.128 C 609.412 411.651, 597.232 410.317, 587.461 412.335 M 385.500 420.930 C 372.666 424.035, 362.661 435.452, 359.970 450.063 C 359.318 453.603, 358.383 457.281, 357.892 458.236 C 356.635 460.682, 356.780 468.746, 358.096 469.559 C 358.698 469.932, 359.014 471.758, 358.796 473.618 C 358.579 475.478, 358.761 477, 359.201 477 C 359.640 477, 360 477.871, 360 478.936 C 360 480.001, 361.421 484.503, 363.158 488.940 C 368.786 503.318, 381.190 513.831, 394.714 515.684 L 399.305 516.314 398.661 511.907 C 398.306 509.483, 397.752 501.650, 397.430 494.500 C 397.108 487.350, 396.454 480.600, 395.979 479.500 C 395.503 478.400, 394.915 464.959, 394.673 449.631 C 394.168 417.682, 394.509 418.751, 385.500 420.930 M 835.431 421.939 C 830.341 423.157, 826.380 426.061, 825.143 429.480 C 824.500 431.258, 823.080 433.523, 821.987 434.512 C 820.441 435.911, 820 437.592, 820 442.090 C 820 445.269, 819.476 449.137, 818.835 450.685 C 818.194 452.233, 817.588 457.334, 817.488 462.021 C 817.388 466.707, 816.703 472.332, 815.965 474.521 C 815.228 476.709, 814.748 479.787, 814.899 481.359 C 815.050 482.932, 814.696 486.982, 814.113 490.359 C 813.529 493.737, 812.527 499.988, 811.885 504.250 C 811.242 508.512, 810.427 512, 810.073 512 C 808.297 512, 809.799 516.482, 812.599 519.539 C 815.618 522.835, 816.093 523, 822.547 523 C 828.626 523, 839.707 520.553, 841 518.925 C 841.275 518.579, 843.176 517.508, 845.225 516.546 C 847.274 515.583, 851.829 511.744, 855.348 508.014 C 862.475 500.459, 867.215 491.572, 869.695 481.113 C 870.558 477.476, 871.654 473.719, 872.132 472.764 C 873.337 470.353, 873.226 453.258, 872 452.500 C 871.450 452.160, 871 450.658, 871 449.163 C 871 447.667, 869.487 443.287, 867.638 439.428 C 860.990 425.556, 848.549 418.800, 835.431 421.939 M 449.079 443.185 C 449.036 443.562, 449.476 445.121, 450.057 446.651 C 450.904 448.878, 451.300 449.140, 452.042 447.966 C 453.356 445.889, 453.218 445, 451.583 445 C 450.804 445, 449.940 444.438, 449.662 443.750 C 449.385 443.063, 449.122 442.808, 449.079 443.185 M 593.014 533.478 C 589.376 539.365, 582.156 541.823, 574.310 539.848 C 571.112 539.043, 569.288 537.877, 568.056 535.852 L 566.317 532.992 564.409 535.134 C 560.029 540.049, 551.991 541.354, 547.561 537.869 L 544.852 535.739 541.176 539.120 C 536.068 543.819, 533.529 545.129, 532.165 543.765 C 531.377 542.977, 530.781 543.483, 530.017 545.587 C 528.072 550.940, 526.597 553.147, 524.081 554.466 C 521.884 555.617, 521.618 556.336, 521.871 560.440 C 522.028 563.006, 521.650 565.717, 521.030 566.464 C 520.254 567.398, 520.230 568.024, 520.951 568.470 C 522.286 569.295, 522.321 573.684, 521 574.500 C 520.450 574.840, 520 576.472, 520 578.126 C 520 580.610, 520.326 581.031, 521.870 580.541 C 525.436 579.409, 531.801 589.296, 531.944 596.191 C 532.018 599.756, 533.136 600.278, 536.791 598.454 C 539.598 597.054, 540.129 597.100, 543.899 599.065 C 547.103 600.735, 548.196 602.013, 549.014 605.052 C 550.325 609.920, 551.252 610.486, 553.616 607.862 C 558.156 602.822, 563.574 603.445, 568 609.516 C 569.375 611.402, 570.825 612.957, 571.221 612.972 C 571.618 612.988, 572.892 609.737, 574.052 605.750 C 578.436 590.688, 579.534 589, 584.955 589 C 586.960 589, 589.072 589.472, 589.648 590.048 C 590.378 590.778, 591.520 590.720, 593.418 589.855 C 595.468 588.921, 596.865 588.888, 599.070 589.721 C 601.097 590.486, 602.847 590.515, 604.750 589.816 C 608.489 588.441, 612.719 590.198, 614.180 593.732 C 614.809 595.254, 615.843 600.775, 616.477 606 C 617.567 614.987, 617.702 615.352, 618.973 612.756 C 620.408 609.823, 626.013 605.986, 628.807 606.022 C 631.180 606.053, 634.749 609.054, 635.776 611.881 C 636.583 614.103, 636.787 613.922, 638.837 609.157 C 640.045 606.350, 641.896 603.591, 642.951 603.026 C 645.442 601.693, 650.309 601.709, 651.656 603.056 C 652.396 603.796, 653.092 603.192, 653.988 601.030 C 655.140 598.249, 660.156 593.573, 661.113 594.389 C 661.326 594.570, 662.680 595.001, 664.122 595.346 C 666.637 595.948, 666.792 595.737, 667.880 590.202 C 668.533 586.886, 670.423 582.294, 672.323 579.409 C 675.082 575.219, 675.479 573.938, 674.722 571.666 C 674.187 570.062, 674.179 567.415, 674.702 565.222 C 675.507 561.845, 675.181 560.809, 671.194 554.052 C 668.777 549.956, 666.398 545.547, 665.907 544.255 C 665.135 542.225, 664.555 541.993, 661.629 542.542 C 657.351 543.344, 652.949 541.175, 649.903 536.765 C 648.662 534.969, 647.490 533.300, 647.297 533.057 C 647.104 532.813, 645.651 534.031, 644.069 535.763 C 638.907 541.415, 631.263 541.341, 626.215 535.592 L 623.278 532.247 619.751 535.991 C 613.373 542.763, 604.446 541.898, 599.203 534 C 596.111 529.342, 595.596 529.299, 593.014 533.478 M 641.416 546.064 C 639.262 547.106, 636.825 548.422, 636 548.989 C 625.128 556.467, 611.069 561.004, 598.792 560.996 C 591.904 560.992, 575.836 558.647, 573.787 557.347 C 573.079 556.898, 572.238 556.524, 571.918 556.515 C 571.598 556.507, 568.448 554.774, 564.918 552.666 C 554.736 546.582, 549.745 546.840, 548.435 553.516 C 547.401 558.790, 551.450 562.120, 567 568.778 C 573.833 571.704, 574.330 571.837, 584.770 573.532 C 591.403 574.608, 597.206 574.909, 603 574.475 C 611.247 573.858, 626.988 570.400, 628 568.984 C 628.275 568.599, 630.721 567.309, 633.435 566.116 C 640.621 562.960, 648.969 557.161, 650.193 554.477 C 651.619 551.346, 650.540 547.584, 647.678 545.709 C 645.540 544.308, 644.986 544.339, 641.416 546.064 M 701.529 651.550 C 697.145 653.473, 691.745 655.321, 689.529 655.656 C 687.313 655.992, 684.825 656.805, 684 657.464 C 680.566 660.205, 670.058 663.098, 656.500 665.035 C 648.287 666.209, 639.935 668.042, 637.345 669.240 C 636.160 669.788, 634.729 669.950, 634.164 669.602 C 633.600 669.253, 632.849 669.435, 632.496 670.007 C 631.786 671.155, 630.621 671.194, 597.238 671.167 C 575.103 671.149, 573.806 671.043, 570.451 668.970 C 567.825 667.346, 566.068 666.952, 563.557 667.423 C 561.527 667.804, 558.463 667.454, 555.844 666.542 C 553.455 665.710, 550.482 665.023, 549.238 665.015 C 546.834 664.999, 526.240 659.802, 521.617 658.044 C 517.914 656.636, 517.964 656.597, 519.150 660 C 519.725 661.650, 520.625 663, 521.149 663 C 521.673 663, 522.719 664.462, 523.473 666.250 C 525.373 670.757, 531.114 677.201, 537.832 682.370 C 545.867 688.551, 564.740 697.308, 575.511 699.853 C 590.800 703.465, 618.758 704.338, 631.065 701.587 C 646.864 698.055, 652.915 696.181, 661 692.313 C 666.225 689.813, 671.400 687.421, 672.500 686.997 C 675.779 685.733, 690.135 675.166, 695.377 670.159 C 700.207 665.544, 712 650.408, 712 648.823 C 712 647.370, 709.677 647.975, 701.529 651.550 M 434 742.910 C 432.625 743.290, 429.827 744.366, 427.782 745.301 C 425.737 746.235, 423.667 747, 423.182 747 C 420.965 747, 413.686 753.504, 410.452 758.374 C 405.174 766.324, 403.979 774.790, 404.434 801.003 C 404.635 812.625, 405.069 822.402, 405.397 822.731 C 405.725 823.059, 408.296 824.138, 411.109 825.129 C 417.520 827.386, 426.424 834.160, 430.436 839.832 C 432.121 842.214, 433.539 844.464, 433.586 844.832 C 433.634 845.199, 434.084 846.400, 434.586 847.500 C 435.783 850.120, 435.555 861.030, 434.286 861.857 C 433.743 862.211, 432.739 863.562, 432.055 864.861 C 430.930 866.996, 431.150 867.570, 434.357 870.861 C 439.133 875.763, 441 880.677, 441 888.346 C 441 894.336, 439.634 899.143, 436.786 903.177 C 435.827 904.536, 436.114 905.793, 438.301 909.812 C 443.127 918.679, 440.927 932.775, 433.889 938.084 C 431.640 939.780, 431.618 939.921, 433.324 941.805 C 437.254 946.148, 437.878 958.979, 434.331 962.526 C 433.520 963.337, 433.227 964.014, 433.679 964.030 C 434.130 964.047, 433.712 964.519, 432.750 965.080 C 431.788 965.641, 431 966.729, 431 967.499 C 431 970.704, 419.697 976.805, 409.556 979.075 L 403.970 980.325 404.351 1005.413 C 404.747 1031.429, 406.020 1040.303, 409.554 1041.659 C 410.349 1041.964, 411 1042.918, 411 1043.778 C 411 1046.554, 419.264 1053.400, 425.025 1055.398 C 428.036 1056.442, 431.132 1057.792, 431.904 1058.398 C 433.918 1059.979, 734.111 1059.963, 736.096 1058.382 C 736.868 1057.768, 739.961 1056.461, 742.968 1055.480 C 746.932 1054.185, 749.902 1052.229, 753.767 1048.363 C 763.165 1038.966, 764.791 1032.306, 764.979 1002.445 C 765.118 980.307, 766.019 982.002, 753 979.919 C 742.129 978.180, 733.142 974.483, 729.216 970.136 C 724.914 965.373, 720.708 958.959, 721.419 958.248 C 721.729 957.938, 721.479 957.078, 720.864 956.337 C 719.367 954.533, 720.482 947.983, 723.071 943.374 L 725.122 939.721 722.173 936.611 C 717.645 931.834, 715.998 927.735, 716.022 921.300 C 716.043 915.626, 718.555 908.011, 720.878 906.575 C 721.588 906.136, 721.018 904.472, 719.232 901.771 C 716.785 898.069, 716.502 896.745, 716.519 889.069 C 716.539 879.757, 717.575 876.831, 723.073 870.569 C 726.012 867.222, 726.059 867.016, 724.555 864.106 C 722.526 860.184, 722.522 849.086, 724.546 844.218 C 726.411 839.735, 734 831.788, 739.500 828.560 C 743.904 825.976, 759.288 821, 762.873 821 L 765.143 821 764.783 793.750 C 764.374 762.803, 764.302 762.466, 756.193 753.746 C 751.912 749.142, 743.824 744.213, 741.592 744.847 C 741.092 744.989, 740.321 744.519, 739.878 743.803 C 739.223 742.743, 710.889 742.474, 587.787 742.359 C 504.579 742.281, 435.375 742.529, 434 742.910 M 578.073 800.635 C 576.933 802.084, 576 804.353, 576 805.677 C 576 809.561, 572.911 823.471, 571.973 823.815 C 571.500 823.988, 571.360 824.775, 571.663 825.565 C 571.966 826.354, 571.716 827, 571.107 827 C 570.498 827, 569.998 827.788, 569.995 828.750 C 569.985 832.389, 561.021 850.190, 556.056 856.429 C 550.183 863.810, 539.583 873.842, 535.346 876.028 C 533.781 876.836, 529.458 879.195, 525.740 881.272 C 517.338 885.963, 506.295 889.530, 494.286 891.432 C 489.218 892.235, 484.160 893.379, 483.046 893.975 C 479.981 895.616, 477.712 900.593, 478.963 902.931 C 480.895 906.542, 485.101 908.999, 489.385 909.022 C 499.277 909.074, 523.427 916.525, 528.242 921.011 C 529.416 922.105, 530.798 923, 531.312 923 C 533.039 923, 544.490 931.723, 548.551 936.132 C 557.988 946.379, 565.763 959.619, 569.149 971.211 C 569.839 973.570, 570.862 975.813, 571.422 976.196 C 571.983 976.578, 572.122 977.212, 571.730 977.604 C 571.338 977.995, 571.404 978.807, 571.877 979.408 C 572.641 980.379, 573.508 984.649, 575.510 997.306 C 577.217 1008.103, 589.050 1007.248, 590.512 996.222 C 591.549 988.397, 594.158 975.697, 595.280 973.017 C 595.859 971.633, 596.397 970.275, 596.477 970 C 596.556 969.725, 597.382 967.813, 598.311 965.750 C 599.240 963.688, 600.718 960.335, 601.597 958.301 C 606.209 947.616, 617.887 934.093, 629.343 926.174 C 633.459 923.328, 637.379 921, 638.053 921 C 638.728 921, 639.779 920.327, 640.390 919.504 C 642.723 916.361, 668.688 909, 677.442 909 C 682.076 909, 687.250 904.564, 687.250 900.591 C 687.250 895.656, 683.519 893.143, 674.487 891.998 C 662.047 890.421, 652.477 887.431, 640 881.222 C 629.508 876.001, 627.569 874.573, 617.875 864.921 C 608.228 855.317, 606.820 853.428, 602.585 844.421 C 600.020 838.965, 597.322 833.375, 596.588 832 C 595.106 829.220, 592.276 817.027, 590.972 807.801 C 590.505 804.497, 589.350 800.940, 588.406 799.897 C 585.813 797.031, 580.615 797.402, 578.073 800.635 M 364.500 835.553 C 360.100 836.380, 353.800 838.322, 350.500 839.868 C 344.610 842.628, 331.983 851.982, 331 854.314 C 330.725 854.966, 329.329 857.300, 327.899 859.500 C 316.388 877.200, 311.592 901.593, 314.528 927.500 C 315.561 936.605, 315.543 938.952, 314.428 941.123 C 312.788 944.314, 309.471 945.335, 306.059 943.700 C 302.565 942.025, 301.202 938.697, 300.147 929.268 C 299.651 924.833, 298.964 920.750, 298.620 920.194 C 298.234 919.569, 295.990 920.150, 292.748 921.715 C 289.861 923.107, 285.091 925.312, 282.147 926.614 C 276.847 928.958, 268.830 934.326, 264 938.765 C 257.439 944.795, 249.315 940.848, 251.377 932.632 C 252.025 930.054, 260.792 921.001, 262.643 921.001 C 263.272 921, 264.027 920.371, 264.322 919.603 C 264.617 918.835, 269.053 916.082, 274.179 913.486 C 279.306 910.891, 284.081 908.299, 284.791 907.727 C 285.501 907.155, 288.841 905.737, 292.213 904.576 C 299.169 902.181, 299.066 902.364, 301.002 889 C 302.332 879.823, 306.712 864.958, 308.437 863.765 C 309.022 863.361, 309.076 863.024, 308.559 863.015 C 308.041 863.007, 308.450 862.391, 309.467 861.648 C 311.165 860.406, 310.834 860.067, 305.441 857.515 C 302.209 855.987, 298.425 854.378, 297.033 853.941 C 289.501 851.576, 274.445 845.845, 273.635 845.035 C 272.091 843.491, 268.921 850.590, 260.254 875 C 259.375 877.475, 258.257 880.027, 257.770 880.672 C 256.908 881.814, 248 908.676, 248 910.136 C 248 910.540, 247.475 912.137, 246.834 913.685 C 246.192 915.233, 245.591 916.725, 245.497 917 C 245.404 917.275, 245.035 918.175, 244.677 919 C 243.476 921.771, 239.214 939.429, 237.919 947 C 237.213 951.125, 236.646 961.025, 236.658 969 C 236.683 984.359, 238.575 994.253, 243.255 1003.500 C 245.964 1008.851, 253.529 1018.404, 257.385 1021.343 C 264.591 1026.834, 276.094 1031, 284.049 1031 C 285.672 1031, 287 1031.338, 286.999 1031.750 C 286.998 1032.578, 293.626 1032.525, 296 1031.678 C 296.825 1031.384, 300.650 1030.630, 304.500 1030.003 C 308.350 1029.376, 313.470 1027.994, 315.877 1026.931 C 318.285 1025.869, 320.843 1025, 321.562 1025 C 323.562 1025, 340.051 1013.635, 343.984 1009.545 C 346.311 1007.125, 347.521 1004.871, 347.627 1002.757 C 347.819 998.946, 351.057 996, 355.052 996 C 356.608 996, 358.160 995.550, 358.500 995 C 358.840 994.450, 360.012 994, 361.105 994 C 363.703 994, 371.786 989.675, 373.457 987.390 C 374.583 985.850, 374.442 985.349, 372.441 983.775 C 371.164 982.770, 369.838 981.065, 369.496 979.986 C 368.729 977.570, 371.843 972.002, 373.966 971.994 C 374.810 971.990, 376.796 971.312, 378.380 970.486 C 379.964 969.660, 387.389 968.050, 394.880 966.909 C 410.040 964.599, 417.086 962.092, 420.028 957.960 C 423.817 952.640, 421.639 946.342, 415.154 943.863 C 408.689 941.391, 378.963 942.161, 377.017 944.851 C 376.733 945.244, 374.220 946.134, 371.434 946.828 C 364.754 948.493, 361.514 947.318, 360.633 942.915 C 359.663 938.066, 362.306 934.776, 369 932.497 C 369.275 932.404, 370.175 932.053, 371 931.718 C 377.381 929.127, 382.132 928.637, 401.867 928.537 C 422.962 928.430, 423.259 928.399, 425.117 926.103 C 427.523 923.132, 427.506 919.341, 425.067 915.341 C 423.595 912.928, 421.848 911.807, 417.666 910.591 C 414.656 909.716, 411.549 909, 410.763 909 C 409.977 909, 409.009 908.676, 408.613 908.280 C 408.217 907.884, 406.342 907.693, 404.446 907.856 C 402.468 908.027, 401 907.695, 401 907.077 C 401 905.678, 393.322 905.670, 392.458 907.068 C 392.095 907.655, 389.481 908.067, 386.649 907.983 C 383.817 907.898, 381.275 907.900, 381 907.985 C 380.144 908.252, 362.637 912.151, 359.962 912.671 C 356.306 913.382, 352.667 910.139, 352.667 906.169 C 352.667 901.649, 355.146 899.523, 362.777 897.499 C 366.475 896.518, 369.950 895.369, 370.500 894.945 C 372.117 893.699, 386.477 891.999, 395.322 892.008 C 404.530 892.016, 415.407 893.480, 418.683 895.152 C 423.118 897.416, 427.686 892.469, 426.584 886.595 C 424.008 872.866, 391.590 867.040, 363.230 875.209 C 357.390 876.891, 355.470 877.080, 353.466 876.166 C 349.808 874.500, 348.455 870.916, 350.141 867.363 C 351.287 864.949, 352.911 864.051, 360.500 861.637 C 365.450 860.062, 370.175 858.540, 371 858.253 C 371.825 857.967, 374.142 857.824, 376.148 857.935 C 378.155 858.047, 380.094 857.657, 380.457 857.069 C 380.841 856.448, 384.629 856, 389.500 856 C 394.371 856, 398.159 856.448, 398.543 857.069 C 398.906 857.657, 400.845 858.047, 402.852 857.935 C 404.858 857.824, 407.175 857.964, 408 858.247 C 417.777 861.596, 420 861.047, 420 855.279 C 420 850.596, 417.387 845.391, 413.609 842.545 C 404.603 835.762, 381.147 832.422, 364.500 835.553 M 772 834.666 C 764.193 835.551, 753.514 838.127, 749.141 840.181 C 740.301 844.332, 734.499 854.430, 738.250 859.135 C 739.422 860.606, 740.253 860.635, 746.526 859.422 C 750.362 858.680, 755.386 858.057, 757.691 858.037 C 759.996 858.017, 762.160 857.550, 762.500 857 C 763.328 855.660, 771.707 855.717, 772.542 857.069 C 772.906 857.657, 775.295 858.050, 777.852 857.944 C 780.408 857.837, 783.175 857.996, 784 858.297 C 784.825 858.598, 787.975 859.398, 791 860.074 C 803.314 862.826, 806.758 865.628, 805.833 872.139 C 805.205 876.556, 801.197 877.351, 791.795 874.924 C 774.849 870.547, 750.361 871.457, 739.709 876.859 C 731.008 881.272, 727.392 889.493, 732.189 893.961 C 734.338 895.964, 740 896.822, 740 895.145 C 740 894.676, 744.612 893.746, 750.250 893.079 C 761.157 891.790, 782.075 892.884, 785.687 894.933 C 786.684 895.498, 790.084 896.676, 793.241 897.549 C 799.475 899.273, 802 901.753, 802 906.151 C 802 910.446, 799.446 912.246, 794.093 911.723 C 789.213 911.246, 777.507 909.183, 775 908.358 C 772.771 907.625, 752 907.401, 752 908.110 C 752 908.446, 749.504 908.978, 746.453 909.293 C 740.479 909.909, 732.734 913.759, 731.018 916.966 C 729.623 919.573, 729.793 924.144, 731.363 926.211 C 733.562 929.104, 737.043 929.815, 744 928.792 C 755.117 927.157, 777.745 928.772, 785 931.718 C 785.825 932.053, 786.725 932.385, 787 932.456 C 787.275 932.526, 788.956 933.361, 790.736 934.310 C 796.020 937.129, 796.462 945.113, 791.440 947.023 C 789.048 947.932, 780.253 946.449, 779 944.925 C 777.790 943.453, 759.260 941.825, 751.281 942.490 C 743.512 943.137, 742.564 943.458, 739.419 946.513 C 736.830 949.027, 736 950.671, 736 953.280 C 736 959.225, 739.557 961.643, 754 965.515 C 754.825 965.737, 760.817 966.603, 767.315 967.440 C 773.813 968.277, 779.663 969.301, 780.315 969.716 C 780.967 970.130, 781.725 970.493, 782 970.523 C 783.732 970.707, 790.183 974.516, 791.837 976.331 C 804.534 990.259, 808.493 992.978, 816.100 992.994 C 819.096 993.001, 827 998.351, 827 1000.373 C 827 1002.618, 842.355 1011.914, 862.500 1021.864 C 870.064 1025.600, 885.613 1029.985, 893.750 1030.677 C 897.737 1031.016, 901 1031.565, 900.999 1031.897 C 900.998 1032.603, 909.805 1032.430, 912 1031.681 C 912.825 1031.399, 915.852 1030.928, 918.728 1030.634 C 932.338 1029.242, 946.587 1018.579, 953.447 1004.651 C 955.384 1000.718, 957.257 996.038, 957.609 994.250 C 957.962 992.462, 958.630 991, 959.094 991 C 959.558 991, 959.678 990.325, 959.362 989.500 C 959.045 988.675, 959.196 988, 959.698 988 C 960.818 988, 962.786 976.430, 963.610 965 C 964.242 956.234, 961.557 923.425, 960.051 921.507 C 959.615 920.953, 958.470 916.450, 957.504 911.500 C 954.768 897.469, 949.324 876.602, 947.154 871.829 C 946.071 869.448, 943.824 863.518, 942.160 858.650 C 940.495 853.783, 938.903 849.569, 938.620 849.287 C 938.075 848.742, 909.554 855.755, 907.004 857.061 C 906.177 857.484, 902.350 858.719, 898.500 859.803 C 877.156 865.817, 871.771 867.518, 868.072 869.418 C 866.657 870.144, 863.475 871.413, 861 872.238 C 856.065 873.883, 855.567 875.464, 858.082 881.500 C 858.770 883.150, 859.409 884.725, 859.503 885 C 859.596 885.275, 859.929 886.175, 860.243 887 C 860.556 887.825, 861.305 891.162, 861.906 894.417 C 862.508 897.671, 863.147 900.481, 863.327 900.661 C 863.508 900.841, 868.345 902.131, 874.078 903.527 C 879.810 904.923, 885.175 906.349, 886 906.696 C 886.825 907.043, 887.725 907.405, 888 907.500 C 888.275 907.595, 889.175 907.912, 890 908.205 C 890.825 908.498, 895.775 909.996, 901 911.534 C 918.144 916.581, 929 922.843, 929 927.685 C 929 928.463, 928.342 930.371, 927.538 931.926 C 925.466 935.933, 921.653 936.442, 915.500 933.532 C 905.123 928.626, 894.516 925.120, 880 921.799 C 877.525 921.232, 875.050 920.433, 874.500 920.022 C 873.950 919.612, 872.150 918.967, 870.500 918.590 C 868.850 918.213, 866.712 917.671, 865.750 917.385 C 864.292 916.952, 864 917.521, 864 920.798 C 864 928.678, 856.787 932.908, 852.039 927.811 C 850.522 926.183, 850 924.274, 850 920.352 C 850 913.966, 848.187 900.260, 846.978 897.500 C 846.496 896.400, 845.127 891.914, 843.937 887.531 C 841.512 878.601, 837.901 870.623, 833.176 863.755 C 831.429 861.217, 830 858.720, 830 858.207 C 830 857.240, 823.092 850.698, 816.623 845.538 C 807.850 838.542, 785.612 833.123, 772 834.666 M 581.148 842.426 C 578.865 850.694, 566.665 868.879, 557.929 877.035 C 554.668 880.079, 552 882.381, 552 882.150 C 552 881.919, 551.067 882.916, 549.927 884.365 C 548.788 885.814, 547.486 887, 547.035 887 C 546.585 887, 542.290 889.465, 537.491 892.477 C 532.693 895.490, 527.295 898.487, 525.496 899.138 L 522.225 900.320 528.863 903.528 C 532.513 905.292, 537.908 908.370, 540.850 910.368 C 543.793 912.366, 546.551 914, 546.979 914 C 548.744 914, 562.592 927.890, 565.756 932.835 C 567.634 935.770, 569.920 938.920, 570.835 939.837 C 572.440 941.443, 580.197 956.479, 581.457 960.425 C 581.959 961.997, 582.545 961.447, 584.652 957.425 C 595.678 936.381, 598.291 932.717, 610.466 921.227 C 618.723 913.434, 620.594 912.194, 635.955 904.329 C 640.606 901.948, 643.756 899.999, 642.955 899.998 C 642.155 899.996, 637.450 897.689, 632.500 894.870 C 627.550 892.051, 622.159 889.042, 620.521 888.184 C 616.661 886.164, 600 870.112, 600 868.414 C 600 867.699, 599 866.413, 597.777 865.557 C 596.555 864.701, 595.880 864, 596.277 864 C 596.675 864, 596.146 863.146, 595.103 862.103 C 594.060 861.060, 590.875 855.550, 588.027 849.860 C 585.178 844.170, 582.689 839.356, 582.497 839.163 C 582.304 838.970, 581.697 840.438, 581.148 842.426" stroke="none" fill="#171916" fill-rule="evenodd"/>
</svg>