<svg role="img" aria-labelledby="artwork-title" shape-rendering="geometricPrecision" xmlns="http://www.w3.org/2000/svg" width="1200" height="1200" viewBox="0 0 1200 1200" version="1.1">
	<title id="artwork-title">Mascot standing beside a large logo</title>
	<path d="M 401 80.861 C 401 81.335, 398.326 81.965, 395.059 82.261 C 391.791 82.557, 386.720 83.897, 383.790 85.239 C 377.735 88.011, 367.153 97.349, 363.861 102.825 C 362.647 104.846, 361.549 106.644, 361.423 106.820 C 361.297 106.996, 359.238 106.140, 356.847 104.919 C 348.681 100.749, 329.597 101.200, 320.500 105.778 C 314.602 108.747, 305.679 116.592, 301.432 122.542 C 296.220 129.846, 294.114 135.675, 293.763 143.760 L 293.500 149.831 289 150.490 C 285.061 151.067, 277.284 154.343, 270.277 158.378 C 269.054 159.082, 266.654 161.419, 264.943 163.572 C 263.233 165.724, 261.530 167.714, 261.159 167.993 C 259.880 168.955, 255 178.775, 255 180.385 C 255 181.273, 254.612 182, 254.139 182 C 253.665 182, 253.482 183.072, 253.733 184.383 C 253.983 185.693, 253.696 187.070, 253.094 187.442 C 251.661 188.328, 251.637 203.658, 253.068 204.542 C 253.656 204.905, 253.931 205.738, 253.679 206.393 C 253.428 207.048, 253.847 208.438, 254.611 209.483 C 255.375 210.528, 256 212.115, 256 213.011 C 256 213.907, 257.557 216.459, 259.460 218.683 L 262.921 222.726 260.442 225.054 C 255.365 229.824, 253.383 244.898, 256.594 254.321 C 257.583 257.224, 259.859 260.591, 262.594 263.198 C 266.853 267.257, 267 267.600, 267.004 273.449 C 267.006 277.690, 267.593 280.460, 268.964 282.709 L 270.920 285.917 267.555 290.918 C 265.704 293.669, 263.883 297.735, 263.508 299.955 C 263.133 302.174, 262.415 304.243, 261.913 304.554 C 260.749 305.273, 260.708 322.701, 261.869 323.419 C 262.346 323.714, 263.026 325.763, 263.380 327.972 C 265.875 343.575, 282.179 359.184, 297.770 360.896 L 303.265 361.500 304.781 366.500 C 306.430 371.943, 314.370 388.714, 315.906 390 C 316.234 390.275, 317.177 391.805, 318.001 393.401 C 320.323 397.896, 336.050 414.027, 344.001 420.067 L 351.152 425.500 346.326 426.185 C 337.367 427.456, 330 429.268, 330 430.200 C 330 430.709, 329.212 430.996, 328.250 430.838 C 327.288 430.679, 326.050 430.808, 325.500 431.124 C 324.950 431.440, 319.775 433.210, 314 435.057 C 308.225 436.904, 303.140 438.997, 302.700 439.708 C 302.260 440.419, 301.190 441, 300.322 441 C 298.553 441, 289.139 446.135, 284.406 449.681 C 282.704 450.957, 280.858 452, 280.304 452 C 276.888 452, 249.041 480.155, 246.898 485.776 C 246.421 487.027, 245.348 488.313, 244.515 488.633 C 243.682 488.952, 243 489.624, 243 490.124 C 243 490.625, 240.075 495.379, 236.500 500.688 C 232.925 505.998, 230 510.751, 230 511.251 C 230 511.752, 228.484 514.487, 226.632 517.331 C 224.779 520.174, 219.810 529.498, 215.588 538.052 C 208.093 553.239, 207.949 553.672, 209.430 556.528 C 210.264 558.136, 211.967 560.221, 213.213 561.161 L 215.479 562.870 213.634 567.685 C 212.619 570.333, 211.362 574.282, 210.842 576.461 C 210.321 578.639, 209.453 580.954, 208.913 581.605 C 208.372 582.257, 208.024 583.174, 208.139 583.645 C 208.255 584.115, 207.833 585.625, 207.202 587 C 205.884 589.875, 203.186 602.220, 201.593 612.669 C 200.992 616.612, 200.162 620.174, 199.750 620.586 C 198.695 621.638, 198.810 641, 199.871 641 C 200.350 641, 201.034 643.201, 201.391 645.890 C 202.143 651.556, 206.537 666.737, 207.902 668.381 C 208.412 668.997, 208.828 669.725, 208.826 670 C 208.816 671.514, 217.462 688.765, 220.471 693.232 C 222.412 696.115, 224 698.794, 224 699.185 C 224 699.577, 225.125 701.111, 226.500 702.595 C 227.875 704.078, 229 705.749, 229 706.307 C 229 707.420, 237.269 718.743, 245.653 729.111 C 248.594 732.748, 251 736.183, 251 736.746 C 251 737.309, 252.125 738.507, 253.500 739.408 C 254.875 740.309, 256.015 741.598, 256.033 742.273 C 256.052 742.948, 258.952 746.859, 262.478 750.964 C 267.332 756.614, 268.629 758.742, 267.816 759.721 C 266.087 761.804, 269.250 808.861, 271.202 810.106 C 271.725 810.440, 272.066 813.365, 271.959 816.606 C 271.852 819.848, 272.005 823.175, 272.298 824 C 273.021 826.034, 275.619 856.261, 277.583 885.500 C 278.470 898.700, 279.454 910.175, 279.771 911 C 280.087 911.825, 281.121 923.579, 282.068 937.119 C 283.015 950.660, 284.303 962.697, 284.930 963.869 C 286.480 966.765, 291.020 966.672, 293.826 963.686 C 295.022 962.413, 296 960.903, 296 960.331 C 296 959.759, 299.038 956.632, 302.750 953.381 C 313.357 944.093, 326.695 933, 327.255 933 C 327.735 933, 333.285 928.025, 339.107 922.376 C 340.541 920.985, 343.277 918.869, 345.187 917.673 C 347.098 916.478, 352.739 911.964, 357.723 907.643 C 367.001 899.598, 375 894.136, 375 895.845 C 375 896.372, 373.407 898.085, 371.459 899.652 C 369.511 901.218, 366.438 903.850, 364.629 905.500 C 361.751 908.124, 336.066 930.368, 319.922 944.216 C 316.855 946.847, 314.013 949, 313.608 949 C 313.203 949, 311.735 950.350, 310.347 952 C 308.958 953.650, 307.268 955, 306.591 955 C 305.914 955, 303.440 956.644, 301.093 958.653 C 297.920 961.369, 296.934 962.872, 297.248 964.515 C 297.750 967.142, 294.246 970.016, 293 968 C 292.474 967.149, 291.738 967.108, 290.384 967.856 C 289.348 968.428, 283.971 969.783, 278.435 970.868 C 263.583 973.777, 247 982.325, 247 987.070 C 247 987.510, 246.487 989.137, 245.859 990.685 C 245.231 992.233, 244.816 994.962, 244.936 996.750 C 245.055 998.539, 244.669 1000, 244.077 1000 C 242.653 1000, 242.646 1012.663, 244.069 1013.543 C 244.657 1013.906, 245.049 1016.070, 244.940 1018.352 C 244.831 1020.633, 244.980 1023.175, 245.271 1024 C 245.562 1024.825, 246.340 1029.550, 247 1034.500 C 248.785 1047.893, 252.018 1064.369, 253.073 1065.450 C 253.583 1065.972, 254 1067.205, 254 1068.188 C 254 1071.213, 260.118 1089.394, 261.761 1091.250 C 262.613 1092.212, 262.945 1093, 262.500 1093 C 262.055 1093, 262.366 1093.787, 263.193 1094.750 C 264.020 1095.712, 265.007 1097.175, 265.387 1098 C 268.251 1104.215, 276.788 1112.714, 283.110 1115.642 C 299.645 1123.303, 319.481 1119.512, 327.446 1107.169 C 331.534 1100.835, 333.066 1090.908, 332.796 1072.494 C 332.622 1060.590, 332.893 1055.707, 333.778 1054.822 C 334.450 1054.150, 335 1052.121, 335 1050.314 C 335 1048.507, 335.511 1044.885, 336.136 1042.264 C 338.027 1034.339, 338.005 1034.390, 338.923 1035.875 C 339.371 1036.601, 339.275 1039.017, 338.710 1041.244 C 337.277 1046.891, 339.205 1048.200, 348.280 1047.736 L 355.065 1047.390 352.591 1049.864 C 350.407 1052.048, 349.362 1052.310, 343.683 1052.104 C 337.676 1051.887, 337.218 1052.025, 336.772 1054.186 C 336 1057.928, 336.492 1090.384, 337.341 1091.750 C 337.769 1092.438, 339.126 1093, 340.359 1093 C 341.592 1093, 343.029 1093.429, 343.554 1093.954 C 345.317 1095.717, 367.333 1098.073, 387.500 1098.658 C 405.739 1099.186, 415.414 1098.660, 430.250 1096.333 C 433.742 1095.785, 434 1095.917, 434 1098.250 C 434 1101.725, 432.170 1102.926, 424.306 1104.611 C 409.577 1107.767, 355.884 1106.396, 351.255 1102.745 C 350.571 1102.206, 349.108 1102, 348.005 1102.288 C 346.902 1102.577, 346 1102.511, 346 1102.143 C 346 1101.081, 336.395 1099.084, 334.132 1099.676 C 331.869 1100.267, 329.584 1105.751, 330.550 1108.270 C 331.059 1109.597, 332.483 1110.630, 335 1111.500 C 335.275 1111.595, 336.175 1111.915, 337 1112.210 C 341.035 1113.657, 349.220 1115.071, 367.500 1117.480 C 384.399 1119.707, 419.663 1118.625, 431.609 1115.514 C 442.076 1112.787, 445.990 1108.284, 445.996 1098.960 C 446.001 1092.588, 443.482 1081.926, 441.706 1080.797 C 441.043 1080.376, 440.853 1080.024, 441.284 1080.015 C 441.716 1080.007, 439.016 1076.950, 435.284 1073.221 C 428.829 1066.772, 416.406 1059, 412.552 1059 C 411.698 1059, 410.999 1058.662, 410.998 1058.250 C 410.996 1057.838, 408.409 1056.237, 405.248 1054.693 C 402.086 1053.149, 397.318 1050.300, 394.652 1048.362 L 389.804 1044.838 391.868 1042.640 C 393.858 1040.523, 393.901 1039.866, 393.045 1024.753 C 392.557 1016.124, 391.870 1008.599, 391.520 1008.032 C 390.094 1005.726, 385.664 1007.031, 382.096 1010.808 C 378.219 1014.913, 364.540 1025.550, 359.250 1028.574 C 357.462 1029.595, 356 1030.748, 356 1031.136 C 356 1031.524, 354.623 1032.144, 352.939 1032.513 C 350.555 1033.037, 348.971 1032.585, 345.769 1030.466 C 341.856 1027.876, 341.595 1027.833, 340.329 1029.564 C 339.598 1030.564, 339 1031.746, 339 1032.191 C 339 1032.636, 338.550 1033, 338 1033 C 336.403 1033, 336.877 1031.711, 339.623 1028.588 C 342.127 1025.739, 342.243 1025.712, 344.995 1027.338 C 349.837 1030.198, 352.583 1029.450, 360.921 1023 C 365.187 1019.700, 369.099 1017, 369.616 1017 C 370.132 1017, 372.032 1015.650, 373.839 1014 C 375.645 1012.350, 377.369 1011, 377.668 1011 C 377.968 1011, 383.903 1006.569, 390.857 1001.153 C 397.810 995.737, 404.935 990.564, 406.689 989.658 C 408.443 988.753, 410.468 987.192, 411.189 986.190 C 411.910 985.188, 413.205 984.106, 414.066 983.786 C 414.928 983.466, 421.378 978.545, 428.399 972.852 C 435.421 967.158, 441.916 962.045, 442.833 961.489 C 444.694 960.360, 446.805 958.431, 462.250 943.751 C 468.163 938.131, 473.002 933.075, 473.005 932.516 C 473.007 931.957, 474.582 929.787, 476.505 927.694 C 478.427 925.601, 480 923.678, 480 923.420 C 480 923.162, 481.840 920.038, 484.088 916.477 C 488.351 909.728, 492.171 900.340, 493.438 893.500 C 493.846 891.300, 494.573 889.023, 495.055 888.440 C 496.389 886.823, 498.755 870.765, 500.086 854.284 C 501.452 837.375, 500.796 772.273, 499.005 747 C 498.401 738.475, 497.815 730.190, 497.703 728.588 C 497.525 726.038, 497.934 725.564, 501 724.765 C 502.925 724.264, 505.138 723.232, 505.918 722.473 C 507.465 720.967, 507.449 721.187, 508.455 686 C 508.825 673.075, 509.291 658.655, 509.492 653.956 C 509.693 649.257, 509.948 630.807, 510.059 612.956 C 510.170 595.105, 510.402 580.245, 510.576 579.934 C 510.749 579.622, 514.178 582.447, 518.195 586.211 C 526.737 594.214, 529.001 595.115, 533.051 592.121 L 535.941 589.984 544.804 596.465 C 549.679 600.030, 554.955 603.614, 556.528 604.430 C 559.145 605.788, 559.223 605.977, 557.444 606.657 C 554.866 607.642, 539 623.787, 539 625.425 C 539 625.650, 537.051 629.134, 534.670 633.167 C 528.121 644.256, 523 663.961, 523 678.072 C 523 681.267, 522.550 684.160, 522 684.500 C 520.553 685.394, 520.622 1021.648, 522.069 1022.543 C 522.657 1022.906, 523.047 1024.845, 522.935 1026.852 C 522.824 1028.858, 522.975 1031.175, 523.271 1032 C 523.567 1032.825, 524.527 1037.325, 525.406 1042 C 527.891 1055.220, 535.337 1069.122, 545.501 1079.514 C 552.394 1086.562, 554.956 1088.403, 564.001 1092.813 C 571.692 1096.563, 576.907 1098.364, 583.500 1099.548 C 588.450 1100.436, 593.331 1101.607, 594.347 1102.150 C 595.363 1102.694, 598.312 1103.026, 600.900 1102.888 C 603.488 1102.751, 606.257 1103.057, 607.053 1103.569 C 608.819 1104.705, 910.362 1104.417, 910.738 1103.279 C 910.880 1102.850, 913.744 1102.655, 917.104 1102.844 C 920.661 1103.045, 923.669 1102.731, 924.306 1102.094 C 924.908 1101.492, 926.602 1101, 928.072 1101 C 929.541 1101, 934.978 1099.926, 940.154 1098.613 C 955.988 1094.596, 972.869 1083.758, 981.407 1072.127 C 986.754 1064.843, 992.581 1053.193, 994.476 1046 C 995.417 1042.425, 996.632 1038.561, 997.175 1037.414 C 997.718 1036.266, 998.055 1034.691, 997.924 1033.914 C 997.792 1033.136, 998.093 1031.600, 998.592 1030.500 C 999.485 1028.533, 999.945 672.978, 999.069 662.197 C 998.832 659.280, 998.330 656.704, 997.953 656.471 C 997.576 656.238, 997.475 654.965, 997.728 653.641 C 997.981 652.317, 997.696 650.930, 997.094 650.558 C 996.492 650.186, 996 649.018, 996 647.962 C 996 644.658, 990.935 630.749, 987.638 625 C 985.903 621.975, 983.812 618.183, 982.992 616.572 C 981.048 612.757, 967.198 598.923, 963.428 597.031 C 961.817 596.222, 958.522 594.243, 956.103 592.632 C 951.557 589.602, 941.039 585.640, 934.336 584.431 C 932.226 584.051, 929.964 583.315, 929.310 582.797 C 928.655 582.278, 927.305 581.956, 926.310 582.081 C 925.314 582.205, 923.825 582.013, 923 581.653 C 918.580 579.727, 867.556 578.500, 791.838 578.500 L 742.175 578.500 741.551 574.598 C 740.854 570.233, 735.075 559.283, 732.001 556.501 C 730.901 555.505, 729.975 554.197, 729.943 553.595 C 729.862 552.022, 719.370 544.607, 713.496 541.971 C 710.748 540.738, 706.644 538.887, 704.375 537.857 C 702.107 536.827, 695.582 535.270, 689.875 534.397 C 673.595 531.905, 656.559 533.788, 647.609 539.068 C 645.140 540.525, 642.971 540.842, 637.483 540.546 C 633.643 540.339, 624.989 540.614, 618.254 541.158 L 606.009 542.145 600.177 537.073 C 596.969 534.283, 593.817 532, 593.172 532 C 591.410 532, 591.758 530.529, 594 528.500 C 598.582 524.354, 597.678 523.134, 568.250 493.747 C 541.278 466.814, 528.827 455.594, 522.553 452.569 C 520.874 451.759, 517.025 449.490, 514 447.527 C 510.975 445.563, 506.123 443.067, 503.218 441.980 C 500.313 440.893, 496.938 439.363, 495.718 438.579 C 494.498 437.795, 489.962 436.135, 485.638 434.890 C 478.915 432.954, 478.114 432.502, 480.110 431.764 C 481.393 431.289, 482.681 430.585, 482.972 430.200 C 483.262 429.815, 485.665 428.375, 488.311 427 C 500.417 420.710, 520.517 400.330, 527.439 387.328 C 528.847 384.681, 530 381.972, 530 381.308 C 530 380.643, 530.580 379.740, 531.289 379.300 C 531.999 378.860, 533.444 375.741, 534.501 372.370 L 536.423 366.240 542.598 365.744 C 549.500 365.190, 556.066 362.100, 562.397 356.427 C 564.540 354.506, 566.790 352.612, 567.397 352.217 C 568.004 351.823, 568.994 350.600, 569.597 349.500 C 578.815 332.693, 580.727 325.919, 579.553 314.239 C 578.907 307.807, 575.472 298.757, 572.166 294.774 C 570.910 293.260, 570.996 292.437, 572.867 288.088 C 574.111 285.196, 575 281.018, 575 278.065 C 575 274.371, 575.382 273, 576.411 273 C 577.187 273, 579.009 271.538, 580.460 269.750 C 581.911 267.962, 583.922 265.592, 584.930 264.482 C 590.244 258.631, 591.587 243.951, 587.593 235.373 C 586.280 232.552, 584.670 229.914, 584.016 229.510 C 583.190 228.999, 583.755 227.815, 585.862 225.637 C 589.465 221.915, 591.548 217.253, 592.520 210.738 C 592.911 208.118, 593.629 205.729, 594.115 205.429 C 595.266 204.718, 595.266 198.282, 594.115 197.571 C 593.629 197.271, 592.913 194.882, 592.525 192.262 C 590.426 178.096, 577.769 164.826, 564.902 163.302 L 560.168 162.741 560.714 159.373 C 562.321 149.472, 554.754 133.179, 545.500 126.616 C 536.922 120.532, 532.287 118.815, 524 118.649 C 519.875 118.567, 515.150 118.725, 513.500 119 C 510.894 119.434, 510.454 119.172, 510.152 117 C 508.998 108.706, 502.127 98.763, 491.774 90.405 C 486.260 85.955, 477.265 83.528, 466.500 83.588 C 453.910 83.658, 446.698 85.721, 440.823 90.935 L 436.502 94.769 431.744 90.786 C 426.666 86.534, 415.685 82.056, 410.250 82.021 C 408.462 82.009, 407 81.550, 407 81 C 407 80.450, 405.650 80, 404 80 C 402.350 80, 401 80.388, 401 80.861 M 397.310 94.060 C 390.181 94.988, 388.582 95.729, 381.190 101.531 C 375.553 105.955, 372.809 110.543, 371.707 117.385 C 371.141 120.903, 371.217 121.092, 372.509 119.385 C 373.294 118.348, 373.951 117.007, 373.968 116.404 C 374.001 115.262, 383 106.639, 383 107.750 C 383 108.098, 383.563 107.656, 384.250 106.768 C 386.054 104.439, 395.383 101.998, 402.432 102.012 C 410.681 102.028, 418.194 104.193, 422.882 107.906 C 425.030 109.608, 427.061 111, 427.394 111 C 427.727 111, 428 109.513, 428 107.696 C 428 104.075, 424.011 99.471, 418.500 96.734 C 415.707 95.346, 405.778 92.841, 404.201 93.127 C 403.815 93.197, 400.714 93.616, 397.310 94.060 M 460.723 95.135 C 455.433 95.918, 448.792 99.427, 445.079 103.401 C 441.906 106.798, 442.611 107.256, 448.039 105.323 C 450.493 104.449, 455.932 103.514, 460.127 103.245 C 469.158 102.667, 475.756 104.493, 480.842 108.977 C 482.680 110.598, 485.042 112.196, 486.092 112.529 C 487.141 112.862, 488 113.534, 488 114.023 C 488 114.511, 489.113 116.551, 490.474 118.556 C 491.834 120.561, 493.223 123.670, 493.560 125.466 C 494.129 128.502, 494.341 128.652, 496.578 127.615 C 498.302 126.816, 498.987 125.682, 498.992 123.616 C 499.002 119.845, 496.933 113, 495.783 113 C 495.287 113, 495.131 112.597, 495.435 112.105 C 495.740 111.612, 495.316 110.952, 494.494 110.636 C 493.672 110.321, 493 109.511, 493 108.836 C 493 107.462, 488.068 102, 486.828 102 C 486.389 102, 483.871 100.672, 481.232 99.048 C 475.705 95.647, 467.650 94.110, 460.723 95.135 M 332.070 114.729 C 324.058 116.236, 310.949 127.761, 308.996 135.016 C 308.429 137.122, 307.538 138.992, 307.017 139.173 C 305.407 139.729, 304.553 150.757, 305.987 152.484 C 307.513 154.323, 308.819 154.453, 308.664 152.750 C 308.382 149.646, 310.452 142.244, 312.518 138.971 C 315.083 134.908, 324.027 126.555, 328.027 124.486 C 333.086 121.870, 343.288 120.710, 349.641 122.029 C 352.835 122.692, 355.949 123.427, 356.560 123.662 C 357.173 123.896, 357.606 123.188, 357.525 122.086 C 357.390 120.256, 353.156 116.014, 351.285 115.835 C 350.853 115.794, 349.458 115.364, 348.185 114.880 C 345.832 113.986, 336.490 113.898, 332.070 114.729 M 513.250 131.119 C 511.462 131.635, 510 132.474, 510 132.983 C 510 133.980, 515.767 135.338, 518.088 134.888 C 521.354 134.256, 530.182 139.419, 535.175 144.882 C 541.061 151.321, 542.776 154.823, 543.200 161.262 C 543.455 165.151, 543.723 165.656, 545 164.664 C 547.604 162.643, 547.969 161.628, 547.985 156.371 C 548.005 149.494, 544.122 141.083, 539.221 137.387 C 537.174 135.844, 535.050 134.019, 534.500 133.331 C 532.269 130.540, 519.764 129.238, 513.250 131.119 M 287 163.700 C 278.595 166.741, 271.639 172.982, 267.787 180.940 C 264.456 187.820, 264.563 201.644, 268 208.455 C 269.375 211.180, 271.175 213.609, 272 213.851 C 273.191 214.201, 273.142 213.888, 271.761 212.330 C 269.581 209.870, 268.046 199.136, 269.081 193.595 C 270.202 187.595, 277.694 175.059, 281.326 173.106 C 282.969 172.223, 285.156 170.699, 286.187 169.720 C 287.217 168.741, 290.634 167.355, 293.780 166.640 C 299.004 165.453, 299.311 165.239, 297.316 164.170 C 295.082 162.974, 289.688 162.728, 287 163.700 M 383.610 174.750 C 380.567 181.489, 379.801 182.438, 373.112 187.767 C 368.851 191.161, 364.544 193.605, 361 194.638 C 357.975 195.520, 354.870 196.749, 354.099 197.369 C 352.039 199.026, 335.722 198.841, 333.667 197.137 C 331.513 195.351, 331.284 196.117, 330.702 207.048 C 330.144 217.526, 327.973 222.249, 320.396 229.472 C 315.241 234.386, 313.639 238.041, 316 239.500 C 317.543 240.453, 317.185 251.417, 315.506 254.636 C 314.685 256.211, 314.010 258.225, 314.006 259.110 C 314.003 259.996, 312.900 262.341, 311.557 264.322 C 309.673 267.097, 309.244 268.729, 309.684 271.441 C 309.998 273.377, 310.636 274.725, 311.100 274.438 C 313.425 273.001, 327.666 269.950, 329.685 270.457 C 331.186 270.834, 332.013 270.592, 332.036 269.769 C 332.056 269.071, 333.068 267.340, 334.286 265.923 C 341.646 257.355, 356.045 253.366, 376.271 254.291 C 388.180 254.837, 402 257.870, 402 259.939 C 402 260.403, 403.075 261.053, 404.389 261.383 C 407.148 262.075, 413 268.340, 413 270.602 C 413 271.591, 413.621 271.952, 414.750 271.621 C 415.712 271.338, 418.300 270.825, 420.500 270.481 C 422.700 270.137, 425.512 269.362, 426.750 268.759 C 428.327 267.990, 429.673 267.973, 431.250 268.700 C 432.488 269.271, 436.200 270.360, 439.500 271.119 L 445.500 272.500 447.532 269.500 C 449.655 266.365, 458.234 261.064, 461.250 261.023 C 462.212 261.011, 463 260.628, 463 260.173 C 463 258.985, 474.687 257, 481.682 257 C 488.085 257, 498.254 258.522, 501.500 259.966 C 502.600 260.455, 506.584 261.840, 510.353 263.044 C 517.439 265.306, 526 271.944, 526 275.176 C 526 276.171, 527.012 276.724, 528.930 276.779 C 530.542 276.825, 532.974 277.592, 534.334 278.484 L 536.809 280.105 537.232 274.302 C 537.499 270.643, 537.181 267.706, 536.371 266.352 C 535.665 265.170, 534.545 261.120, 533.882 257.352 C 533.220 253.583, 532.388 250.160, 532.034 249.745 C 531.680 249.330, 531.782 245.280, 532.260 240.745 C 533.103 232.759, 533.057 232.455, 530.815 231.063 C 526.882 228.621, 516 217.191, 516 215.502 C 516 214.623, 515.100 212.041, 514 209.764 C 512.900 207.487, 512 204.876, 512 203.962 C 512 202.549, 510.763 202.296, 503.750 202.272 C 493.898 202.240, 487.925 200.224, 479.722 194.164 C 475.203 190.826, 469.061 183.140, 468.402 180 C 468.345 179.725, 467.739 178.044, 467.056 176.264 C 466.015 173.552, 465.517 173.188, 463.973 174.014 C 461.602 175.284, 457.383 175.276, 454.995 173.997 C 453.736 173.324, 452.915 173.329, 452.492 174.012 C 452.146 174.572, 450.432 175.715, 448.682 176.552 C 446.932 177.388, 443.475 179.136, 441 180.435 C 436.596 182.747, 426.598 184.426, 418.862 184.152 C 409.091 183.806, 398.037 179.736, 389.406 173.305 C 387.704 172.037, 386.084 171, 385.807 171 C 385.530 171, 384.541 172.688, 383.610 174.750 M 413 173 C 414.375 173.440, 416.400 173.839, 417.500 173.885 C 419.148 173.955, 419.236 173.799, 418 173 C 417.175 172.467, 415.150 172.069, 413.500 172.115 C 410.560 172.198, 410.550 172.215, 413 173 M 555.054 175.899 C 554.171 177.549, 554.657 178.085, 558.769 179.992 C 566.699 183.670, 574 192.249, 574 197.889 C 574 198.971, 574.646 200.503, 575.436 201.293 C 576.414 202.271, 576.546 203.054, 575.849 203.751 C 575.151 204.449, 575.172 204.988, 575.913 205.446 C 578.054 206.770, 576.979 211.739, 572.927 219.250 C 571.735 221.460, 572.902 221.445, 575.507 219.217 C 583.260 212.584, 583.347 192.647, 575.662 183.359 C 571.355 178.154, 569.002 176.317, 565.171 175.169 C 559.496 173.469, 556.228 173.705, 555.054 175.899 M 372.500 228.799 C 365.308 229.515, 353.662 234.794, 350.250 238.884 C 348.424 241.072, 348.723 245.439, 350.829 247.345 C 353.154 249.449, 354.368 249.422, 360.500 247.130 C 368.224 244.241, 376.588 243.691, 385.325 245.496 C 389.495 246.357, 394.085 246.766, 395.526 246.404 C 398.159 245.743, 400 242.650, 400 238.887 C 400 236.648, 395.759 232.314, 392 230.714 C 389.209 229.525, 377.125 228.338, 372.500 228.799 M 269.907 232.130 C 265.294 238.609, 266.620 253.121, 272.093 256.050 C 274.010 257.076, 273.968 256.847, 271.594 253.353 C 268.530 248.845, 268.016 240.850, 270.557 237.223 C 271.413 236, 271.793 235, 271.402 235 C 271.010 235, 271.514 234.089, 272.521 232.976 C 273.804 231.559, 274.037 230.637, 273.299 229.899 C 272.561 229.161, 271.545 229.830, 269.907 232.130 M 473.173 231.798 C 468.834 232.472, 462.569 236.442, 461.629 239.112 C 460.409 242.584, 461.539 246.683, 464.095 248.051 C 465.627 248.871, 467.485 248.843, 471.228 247.945 C 479.088 246.060, 490.110 247.352, 496.374 250.893 C 501.913 254.023, 504.016 253.886, 507.353 250.176 C 508.819 248.546, 509.011 247.530, 508.274 245.308 C 507.069 241.673, 500.070 236.348, 494.708 234.985 C 492.394 234.398, 489.600 233.470, 488.500 232.925 C 486.382 231.874, 477.083 231.190, 473.173 231.798 M 571.707 236.627 C 571.362 236.972, 571.712 238.476, 572.485 239.970 C 574.897 244.636, 575.398 252.112, 573.588 256.444 C 571.413 261.649, 572.277 262.049, 575.424 257.294 C 578.151 253.173, 578.854 248.037, 577.513 242.014 C 576.576 237.804, 573.440 234.894, 571.707 236.627 M 345.274 273.565 C 342.534 275.724, 338.966 283.382, 340.184 284.489 C 340.358 284.646, 342.381 281.676, 344.681 277.888 C 346.980 274.099, 348.780 271.005, 348.681 271.011 C 348.581 271.017, 347.048 272.166, 345.274 273.565 M 458.637 277.250 C 457.275 278.488, 455.859 280.625, 455.488 282 L 454.815 284.500 456.564 282 C 457.525 280.625, 459.220 278.488, 460.330 277.250 C 461.440 276.012, 462.070 275, 461.730 275 C 461.390 275, 459.998 276.012, 458.637 277.250 M 424.500 281.436 C 423.950 281.656, 421.813 282.118, 419.750 282.463 C 416.081 283.077, 416 283.185, 416 287.486 C 416 289.904, 415.519 292.179, 414.932 292.542 C 414.344 292.905, 414.084 293.777, 414.354 294.479 C 414.623 295.182, 414.499 296.149, 414.079 296.628 C 413.658 297.108, 412.561 299.975, 411.640 303 C 408.170 314.406, 394.902 326.594, 383.240 329.089 C 380.083 329.764, 377.072 330.695, 376.550 331.158 C 375.310 332.257, 370.270 332.246, 369.588 331.143 C 369.297 330.672, 366.683 330.032, 363.779 329.721 C 356.566 328.949, 349.815 325.729, 343.953 320.263 C 339.414 316.031, 337.811 313.685, 332.838 304 C 330.775 299.982, 329 291.546, 329 285.757 C 329 282.364, 328.745 281.892, 327.250 282.515 C 326.288 282.916, 323.475 283.668, 321 284.186 C 318.525 284.704, 315.012 285.887, 313.192 286.814 L 309.885 288.500 310.372 298 C 310.640 303.225, 311.420 311.663, 312.105 316.750 C 313.155 324.540, 313.636 326, 315.157 326 C 317.348 326, 318.379 329.441, 318.408 336.857 C 318.419 339.804, 318.595 341.716, 318.798 341.107 C 319.442 339.175, 323.823 339.910, 325.443 342.223 C 326.341 343.505, 327 346.532, 327 349.377 C 327 354.093, 327.081 354.237, 328.829 352.655 C 332.933 348.940, 336.515 351.864, 337.566 359.787 C 338.219 364.710, 338.362 364.928, 339.690 363.032 C 342.696 358.741, 349 362.008, 349 367.857 L 349 370.270 351.073 367.635 C 352.212 366.186, 353.943 365, 354.918 365 C 357.274 365, 360 368.126, 360 370.829 C 360 373.554, 361.654 373.667, 362.500 371 C 362.849 369.900, 363.779 369, 364.567 369 C 365.528 369, 366 367.887, 366 365.622 C 366 359.514, 370.871 351.154, 374.500 351.033 C 375.050 351.015, 376.880 349.356, 378.568 347.346 C 380.255 345.337, 382.571 343.624, 383.716 343.539 C 384.860 343.455, 387.475 341.912, 389.527 340.110 C 392.061 337.886, 393.913 337.006, 395.299 337.368 C 398.342 338.164, 406.083 335.812, 408.857 333.250 C 411.668 330.653, 414.233 330.371, 415.973 332.468 C 416.644 333.275, 417.486 333.849, 417.846 333.743 C 418.206 333.637, 420.639 334.161, 423.254 334.907 C 429.078 336.567, 435.372 335.840, 439.113 333.075 C 440.656 331.934, 442.534 331, 443.285 331 C 444.917 331, 449 335.141, 449 336.795 C 449 337.969, 451.657 338.783, 455.659 338.834 C 458.457 338.870, 464.827 342.997, 465.563 345.250 C 465.878 346.212, 467.012 347, 468.084 347 C 469.960 347, 479 355.459, 479 357.214 C 479 357.685, 479.711 359.156, 480.580 360.482 C 481.493 361.874, 482.050 364.502, 481.898 366.697 C 481.623 370.700, 483.612 375, 485.741 375 C 486.433 375, 487 374.582, 487 374.071 C 487 372.460, 490.064 370, 492.071 370 C 493.132 370, 494.858 370.858, 495.906 371.906 C 497.781 373.781, 497.824 373.753, 498.496 370.156 C 498.872 368.145, 499.644 365.938, 500.212 365.250 C 501.454 363.747, 505.630 363.592, 506.510 365.016 C 507.403 366.462, 509 365.217, 509 363.076 C 509 359.879, 513.012 355.769, 515.643 356.272 C 517.329 356.594, 518.002 356.264, 518.006 355.111 C 518.009 354.225, 518.475 351.830, 519.042 349.788 C 519.917 346.638, 520.596 345.979, 523.536 345.427 C 526.806 344.814, 527 344.552, 527 340.755 C 527 335.071, 528.947 329.247, 531.029 328.703 C 532.333 328.362, 532.943 326.846, 533.376 322.871 C 534.299 314.406, 535.964 291.631, 535.681 291.348 C 535.540 291.207, 533.594 290.799, 531.357 290.441 L 527.289 289.791 526.616 294.145 C 525.699 300.085, 522.977 308.166, 521.344 309.799 C 520.605 310.538, 520 311.760, 520 312.514 C 520 315.291, 508.674 326.175, 503.041 328.811 C 499.994 330.237, 497.275 331.464, 497 331.538 C 496.725 331.612, 495.600 332.084, 494.500 332.586 C 493.400 333.089, 488.450 333.457, 483.500 333.405 C 475.118 333.316, 474 333.049, 467.225 329.517 C 456.435 323.893, 447.272 313.003, 444.492 302.500 C 444.055 300.850, 443.429 296.129, 443.099 292.009 C 442.539 285.011, 442.312 284.429, 439.646 283.155 C 436.855 281.821, 426.482 280.644, 424.500 281.436 M 286.500 290.202 C 277.980 293.166, 273.432 301.927, 273.626 315 C 273.900 333.481, 282.501 345.690, 296.638 347.663 L 300.776 348.241 299.931 343.871 C 299.467 341.467, 299.068 337.356, 299.044 334.736 C 299.020 332.116, 298.442 329.079, 297.759 327.986 C 296.805 326.459, 296.789 325.568, 297.688 324.128 C 298.581 322.698, 298.579 321.979, 297.678 321.078 C 297.030 320.430, 296.431 316.885, 296.347 313.200 C 296.263 309.515, 296.117 302.989, 296.022 298.697 C 295.860 291.374, 295.697 290.835, 293.360 289.947 C 290.449 288.840, 290.410 288.841, 286.500 290.202 M 550.356 296.772 C 548.110 298.583, 546.699 306.164, 546.405 318 C 546.243 324.562, 544.363 339.064, 542.549 347.750 C 541.526 352.651, 541.509 354, 542.473 354 C 545.384 354, 550.432 351.502, 553.833 348.378 C 555.850 346.525, 557.805 345.007, 558.177 345.005 C 558.823 345, 559.973 343.030, 564.130 334.798 C 565.159 332.762, 566 330.212, 566 329.132 C 566 328.051, 566.492 327.003, 567.094 326.802 C 568.492 326.336, 568.644 312.500, 567.270 310.770 C 566.715 310.072, 565.722 307.827, 565.064 305.783 C 563.734 301.655, 558.890 297, 555.923 297 C 554.865 297, 554 296.550, 554 296 C 554 294.550, 552.798 294.804, 550.356 296.772 M 424.109 357.791 C 421.083 360.857, 420.289 361.168, 416.715 360.689 C 413.054 360.198, 411.701 359.262, 410.653 356.500 C 410.445 355.950, 409.200 356.445, 407.887 357.601 C 406.574 358.757, 404.825 359.935, 404 360.220 C 401.721 361.006, 398 359.274, 398 357.426 C 398 356.246, 397.189 356.657, 395.099 358.894 C 393.051 361.087, 391.279 362, 389.074 362 C 386.587 362, 385.738 362.560, 384.906 364.748 C 384.331 366.260, 383.270 368.172, 382.549 368.998 C 380.642 371.181, 379.983 381.741, 381.666 383.138 C 382.400 383.747, 383 385.990, 383 388.122 C 383 391.273, 383.358 392, 384.911 392 C 385.962 392, 387.891 393.270, 389.196 394.822 C 390.502 396.373, 392.049 397.484, 392.634 397.289 C 394.519 396.660, 399 398.903, 399 400.475 C 399 402.287, 399.472 402.353, 402.159 400.915 C 404.793 399.505, 408.736 400.521, 409.283 402.751 C 409.520 403.713, 410.068 402.536, 410.503 400.136 C 410.937 397.736, 412.264 394.642, 413.452 393.261 C 415.416 390.977, 416.333 390.747, 423.575 390.716 C 434.168 390.672, 435.585 391.526, 436.453 398.472 C 437.108 403.711, 438.125 405.226, 439.497 403.005 C 440.906 400.725, 443.668 400.115, 446.330 401.496 C 448.294 402.515, 449.015 402.566, 449.055 401.691 C 449.150 399.648, 454.925 395.747, 457.036 396.299 C 458.400 396.656, 459.608 395.955, 460.999 394.002 C 462.099 392.456, 463 390.782, 463 390.283 C 463 389.783, 464.319 388.110, 465.932 386.565 C 468.422 384.180, 468.686 383.469, 467.682 381.855 C 466.736 380.333, 466.840 379.361, 468.203 376.977 C 469.140 375.340, 469.487 374, 468.973 374 C 468.459 374, 467.017 371.759, 465.769 369.020 C 463.841 364.789, 463.080 364.038, 460.705 364.020 C 459.091 364.009, 456.872 362.962, 455.455 361.545 C 454.105 360.195, 453 359.485, 453 359.966 C 453 360.447, 451.613 361.146, 449.918 361.518 C 447.569 362.034, 446.321 361.714, 444.668 360.173 C 442.525 358.174, 442.473 358.173, 440.139 360.075 C 438.841 361.134, 436.989 362, 436.024 362 C 433.889 362, 429.083 358.354, 428.167 356.040 C 427.601 354.610, 426.989 354.874, 424.109 357.791 M 395.200 363.200 C 394.540 363.860, 394 365.172, 394 366.115 C 394 368.584, 402.573 375.851, 409 378.828 C 413.857 381.078, 415.785 381.373, 425.500 381.350 C 434.464 381.329, 437.566 380.910, 442.258 379.087 C 449.370 376.324, 455.321 371.053, 454.359 368.369 C 452.470 363.096, 449.625 362.722, 443.663 366.960 C 433.420 374.242, 415.623 373.413, 405.215 365.170 C 401.060 361.879, 397.267 361.133, 395.200 363.200 M 365.378 435.136 C 365.746 436.436, 366.335 438.850, 366.686 440.500 C 367.084 442.371, 370.017 446.202, 374.479 450.680 C 381.919 458.145, 388.202 461.796, 397.537 464.076 C 400.267 464.743, 403.115 465.773, 403.868 466.364 C 405.681 467.791, 426.876 467.800, 427.805 466.374 C 428.187 465.788, 429.850 464.982, 431.500 464.585 C 441.826 462.095, 452.522 452.641, 455.072 443.750 C 455.859 441.003, 455.768 440.890, 453.200 441.421 C 443.093 443.510, 430.109 444.990, 422 444.977 C 409.149 444.956, 387.421 441.500, 380 438.298 C 375.675 436.431, 369.593 434.142, 367.104 433.444 C 364.956 432.842, 364.777 433.017, 365.378 435.136 M 570.931 551.750 C 564.586 558.212, 555.883 567.258, 551.591 571.850 L 543.788 580.200 547.533 583.350 C 554.252 589, 566.138 596.871, 568.849 597.466 C 570.516 597.832, 573.892 597.111, 577.940 595.524 C 581.481 594.136, 585.194 593, 586.190 593 C 587.185 593, 588 592.502, 588 591.893 C 588 591.284, 588.675 591.045, 589.500 591.362 C 590.325 591.678, 591 591.501, 591 590.969 C 591 590.436, 592.462 589.997, 594.250 589.994 C 596.038 589.991, 599.075 589.567, 601 589.052 C 604.147 588.210, 621.585 586.334, 631.250 585.799 C 634.661 585.610, 635 585.333, 635 582.730 C 635 578.061, 636.657 576, 640.413 576 C 644.358 576, 645.527 577.223, 646.281 582.145 C 646.852 585.866, 647.820 587.380, 654.037 594.275 C 656.907 597.458, 658.429 598.294, 662.106 598.709 C 671.891 599.811, 672.762 590.812, 663.787 581.348 C 661.294 578.719, 660.911 577.681, 661.480 575.090 C 662.410 570.856, 665.052 569.577, 669.246 571.329 C 675.931 574.123, 682 586.018, 682 596.329 C 682 600.616, 682.486 602.232, 684.392 604.289 C 689.395 609.687, 695 603.731, 695 593.017 C 695 587.967, 694.329 585.336, 691.500 579.296 C 686.729 569.108, 687.086 566, 693.026 566 C 699.980 566, 707.003 581.700, 706.335 595.750 C 706.006 602.651, 706.568 603.156, 711.038 599.973 C 713.141 598.476, 714.056 596.806, 714.538 593.592 C 715.263 588.760, 713.751 579.941, 711.478 575.734 C 710.665 574.230, 709.339 571.777, 708.531 570.282 C 707.177 567.778, 707.230 567.384, 709.205 565.282 C 713.719 560.477, 718.260 563.373, 722.475 573.746 C 723.847 577.122, 725.264 582.397, 725.625 585.470 C 726.419 592.223, 727.390 593.080, 729.538 588.926 C 733.240 581.768, 727.601 566.564, 718.805 559.986 C 710.461 553.747, 707.022 551.862, 700.500 549.954 C 696.650 548.827, 692.518 547.417, 691.317 546.820 C 690.117 546.223, 688.444 545.999, 687.599 546.323 C 686.755 546.648, 685.798 546.482, 685.473 545.956 C 684.749 544.784, 668.321 544.671, 667.603 545.833 C 667.320 546.292, 665.718 546.465, 664.044 546.220 C 662.207 545.950, 661 546.215, 661 546.887 C 661 547.499, 660.288 548, 659.418 548 C 658.547 548, 654.754 549.352, 650.989 551.005 C 644.592 553.812, 643.801 553.936, 638.934 552.892 C 633.476 551.722, 607.920 553.151, 605.614 554.756 C 603.265 556.391, 597.934 554.287, 596.908 551.320 C 596.312 549.596, 585.095 540, 583.676 540 C 583.012 540, 577.277 545.288, 570.931 551.750 M 510.100 564.327 L 510 578.153 512.402 575.299 C 514.432 572.886, 514.721 571.708, 514.270 567.699 C 513.975 565.089, 513.344 562.713, 512.867 562.418 C 512.390 562.123, 511.955 560.446, 511.900 558.691 C 511.845 556.936, 511.440 554.375, 511 553 C 510.509 551.467, 510.161 555.848, 510.100 564.327 M 226.447 568.915 C 226.758 569.418, 226.647 569.980, 226.200 570.165 C 225.409 570.491, 220 585.964, 220 587.900 C 220 588.433, 219.478 590.137, 218.840 591.685 C 218.201 593.233, 217.779 595.096, 217.901 595.824 C 218.022 596.552, 217.629 597.742, 217.027 598.468 C 215.123 600.761, 212 619.713, 212 628.970 C 212 638.345, 214.069 650.428, 216.514 655.328 C 217.313 656.931, 217.724 658.638, 217.425 659.121 C 217.126 659.605, 217.359 660, 217.941 660 C 218.523 660, 219 660.597, 219 661.328 C 219 663.942, 224.259 675.527, 229.086 683.547 C 231.789 688.038, 234 692.227, 234 692.856 C 234 693.485, 234.438 694, 234.974 694 C 235.510 694, 236.689 695.462, 237.594 697.250 C 239.441 700.898, 242.904 705.801, 251.067 716.324 C 254.129 720.271, 257.656 725.193, 258.906 727.263 C 260.156 729.332, 262.039 731.485, 263.089 732.048 C 264.140 732.610, 265 733.562, 265 734.163 C 265 735.215, 277.647 750.632, 280.350 752.876 C 281.357 753.711, 282.643 753.141, 285.745 750.486 C 287.985 748.569, 290.323 747, 290.940 747 C 291.558 747, 292.361 746.223, 292.726 745.272 C 293.090 744.322, 294.764 742.136, 296.444 740.413 C 298.125 738.691, 299.950 736.568, 300.500 735.695 C 301.050 734.822, 303.665 730.935, 306.311 727.057 C 308.958 723.179, 311.208 718.767, 311.311 717.253 C 311.478 714.816, 310.799 714.155, 305.390 711.488 C 302.029 709.832, 298.555 707.875, 297.669 707.140 C 295.856 705.635, 285.196 684.158, 282.462 676.500 C 281.480 673.750, 280.104 670.600, 279.403 669.500 C 277.943 667.208, 273.003 652.812, 272.994 650.824 C 272.990 650.096, 272.354 648.285, 271.580 646.801 C 270.805 645.317, 269.422 641.523, 268.506 638.371 C 266.943 632.998, 266.947 632.292, 268.557 627.070 C 269.502 624.006, 270.616 621.050, 271.033 620.500 C 271.725 619.587, 272.725 616.616, 277.972 599.891 L 279.731 594.282 274.616 591.702 C 270.032 589.390, 256.268 582.927, 255 582.491 C 252.836 581.748, 238.239 574.461, 233.137 571.577 C 226.463 567.805, 225.533 567.435, 226.447 568.915 M 765.337 591.063 C 764.670 591.730, 759.937 592.009, 752.635 591.813 C 742.033 591.528, 740.996 591.658, 740.998 593.276 C 741.001 595.751, 732.542 603.963, 729.776 604.171 C 728.524 604.265, 726.574 604.378, 725.443 604.421 C 724.312 604.464, 721.908 606.182, 720.100 608.238 C 715.880 613.038, 710.451 614.802, 704.665 613.252 C 701.073 612.289, 700.225 612.382, 698.500 613.925 C 695.950 616.206, 690.188 619, 688.034 619 C 685.007 619, 678.332 615.142, 675.213 611.590 C 673.522 609.663, 671.986 608.541, 671.801 609.096 C 671.323 610.532, 663.969 612.025, 661.015 611.286 C 659.648 610.945, 656.498 609.399, 654.015 607.851 C 651.532 606.303, 648.529 604.605, 647.342 604.078 C 646.155 603.551, 644.355 601.712, 643.342 599.993 C 641.557 596.964, 641.328 596.883, 636 597.397 C 632.975 597.689, 626.900 598.214, 622.500 598.564 C 618.100 598.914, 613.964 599.638, 613.310 600.173 C 612.655 600.708, 611.305 601.044, 610.310 600.919 C 609.314 600.795, 607.825 600.949, 607 601.263 C 606.175 601.576, 602.992 602.090, 599.927 602.404 C 592.074 603.210, 580.283 607.153, 573.049 611.392 C 569.663 613.376, 566.541 615, 566.112 615 C 565.682 615, 564.151 616.237, 562.709 617.750 C 561.267 619.263, 558.718 621.547, 557.044 622.826 C 555.370 624.105, 554 625.564, 554 626.067 C 554 626.571, 552.365 629.124, 550.367 631.741 C 547.067 636.064, 545.374 639.273, 539.944 651.500 C 537.559 656.870, 535.166 670.382, 534.543 682 C 533.403 703.274, 532.956 1004.539, 534.045 1017.500 C 535.255 1031.886, 537.685 1042.909, 541.321 1050.500 C 542.638 1053.250, 544.539 1057.256, 545.544 1059.401 C 548.701 1066.141, 560.218 1076.680, 568.860 1080.738 C 573.062 1082.711, 576.725 1084.380, 577 1084.448 C 577.275 1084.516, 578.400 1085.052, 579.500 1085.639 C 581.742 1086.837, 592.238 1088.615, 605 1089.959 C 609.675 1090.451, 677.850 1090.896, 756.500 1090.948 C 877.654 1091.027, 901.868 1090.809, 915 1089.518 C 931.572 1087.889, 939.646 1086.419, 941.904 1084.619 C 942.676 1084.004, 943.351 1083.635, 943.404 1083.801 C 943.457 1083.966, 946.475 1082.753, 950.110 1081.104 C 960.610 1076.343, 971.299 1065.626, 977.263 1053.881 C 979.883 1048.721, 982.497 1042.925, 983.071 1041 C 984.791 1035.240, 986.963 1019.923, 986.982 1013.417 C 986.992 1010.071, 987.223 1007.110, 987.496 1006.838 C 988.111 1006.223, 988.226 684.846, 987.612 682.905 C 987.367 682.132, 986.923 677, 986.626 671.500 C 986.005 660.035, 983.562 646.164, 981.259 641.022 C 980.391 639.085, 979.628 637.275, 979.564 637 C 979.500 636.725, 978.712 635.375, 977.813 634 C 976.913 632.625, 975.206 629.400, 974.018 626.834 C 971.697 621.818, 960.061 609.660, 954.741 606.692 C 949.124 603.557, 943.519 600.594, 943 600.484 C 942.725 600.426, 940.925 599.688, 938.999 598.844 C 931.824 595.700, 917.829 593.943, 895.500 593.385 C 883.400 593.082, 872.825 592.573, 872 592.253 C 869.570 591.313, 868.573 591.323, 867.263 592.301 C 866.582 592.808, 865.232 592.913, 864.263 592.533 C 863.293 592.154, 855.413 591.898, 846.750 591.965 C 835.356 592.053, 831 591.764, 831 590.921 C 831 590.047, 830.657 590.040, 829.629 590.893 C 827.991 592.253, 802.270 592.246, 801.430 590.886 C 800.555 589.472, 776.620 589.780, 775.175 591.225 C 774.208 592.192, 773.536 592.192, 771.989 591.225 C 769.575 589.718, 766.751 589.649, 765.337 591.063 M 291.162 600.543 C 290.523 601.946, 290 603.710, 290 604.464 C 290 605.217, 289.647 605.983, 289.215 606.167 C 288.265 606.570, 280.987 628.778, 280.995 631.250 C 280.998 632.212, 280.495 633, 279.878 633 C 279.159 633, 279.084 633.450, 279.668 634.250 C 280.170 634.938, 281.330 637.975, 282.245 641 C 283.161 644.025, 284.345 647.850, 284.876 649.500 L 285.842 652.500 285.920 648.500 C 286.045 642.034, 288.090 627.682, 289.222 625.316 C 289.797 624.114, 290.025 622.202, 289.728 621.067 C 289.431 619.931, 289.603 618.745, 290.110 618.432 C 290.618 618.118, 290.853 617.555, 290.633 617.181 C 290.414 616.806, 290.796 612.450, 291.483 607.500 C 292.170 602.550, 292.640 598.386, 292.528 598.246 C 292.416 598.106, 291.802 599.140, 291.162 600.543 M 294.136 662.367 C 294.040 663.685, 293.440 664.087, 292.093 663.735 C 290.387 663.288, 290.292 663.539, 291.192 666.120 C 291.745 667.706, 292.589 669.246, 293.069 669.543 C 294.209 670.247, 295.290 665.860, 294.719 662.852 C 294.399 661.167, 294.234 661.029, 294.136 662.367 M 753.718 687.823 C 751.343 688.790, 748.015 693.958, 748.007 696.691 C 748.003 697.896, 747.610 699.123, 747.134 699.417 C 746.658 699.711, 746.492 701.120, 746.764 702.548 C 747.037 703.976, 746.768 706.124, 746.165 707.322 C 745.562 708.520, 744.661 711.750, 744.163 714.500 C 743.066 720.545, 739.158 734.948, 738.211 736.433 C 737.837 737.020, 737.485 737.725, 737.429 738 C 736.847 740.861, 729.809 756.438, 728.618 757.500 C 728.001 758.050, 726.597 760.235, 725.498 762.356 C 721.078 770.887, 703.269 789.400, 692.821 796.326 C 680.822 804.281, 664.237 811.552, 653.498 813.566 C 651.562 813.930, 649.727 814.633, 649.420 815.130 C 649.113 815.626, 648.423 815.762, 647.887 815.430 C 647.351 815.099, 646.370 815.257, 645.706 815.782 C 645.043 816.308, 640.675 817.343, 636 818.084 C 624.856 819.849, 622.541 821.875, 623.249 829.242 C 623.834 835.323, 625.238 836.596, 632.327 837.474 C 639.197 838.325, 653.118 840.950, 655 841.749 C 655.825 842.099, 656.950 842.455, 657.500 842.540 C 658.050 842.624, 659.175 842.975, 660 843.318 C 660.825 843.662, 665.323 845.336, 669.996 847.037 C 687.882 853.550, 706.455 867.875, 718.593 884.517 C 725.568 894.080, 730.352 902.371, 733.010 909.500 C 734.240 912.800, 735.721 916.625, 736.302 918 C 736.882 919.375, 737.427 920.725, 737.512 921 C 737.598 921.275, 738.220 922.839, 738.894 924.475 C 739.569 926.111, 741.279 933.536, 742.695 940.975 C 744.110 948.414, 745.714 955.476, 746.260 956.669 C 746.805 957.861, 747.047 960.224, 746.799 961.919 C 746.550 963.613, 746.718 965, 747.173 965 C 747.628 965, 748 966.047, 748 967.326 C 748 970.813, 751.964 974, 756.302 974 C 759.512 974, 760.300 973.486, 762.554 969.915 C 763.972 967.668, 765.038 964.630, 764.923 963.165 C 764.807 961.699, 764.950 959.825, 765.241 959 C 765.531 958.175, 766.540 953, 767.484 947.500 C 769.334 936.718, 771.760 927.106, 773.036 925.500 C 773.473 924.950, 773.863 924.160, 773.904 923.745 C 773.944 923.330, 774.657 921.363, 775.489 919.373 C 776.320 917.384, 777 915.405, 777 914.977 C 777 913.659, 781.422 904.731, 784.285 900.270 C 785.778 897.943, 787 895.774, 787 895.449 C 787 895.124, 789.027 892.018, 791.504 888.547 C 801.539 874.484, 816.848 860.525, 830.775 852.741 C 838.932 848.181, 845.748 845, 847.360 845 C 848.017 845, 849.555 844.299, 850.777 843.443 C 852 842.587, 853 842.192, 853 842.566 C 853 842.939, 853.563 842.781, 854.250 842.215 C 855.900 840.855, 870.810 837.396, 878.974 836.479 C 884.507 835.857, 885.941 835.259, 888.834 832.366 C 891.847 829.353, 892.144 828.581, 891.536 825.341 C 890.727 821.025, 887.812 818.315, 883 817.403 C 881.075 817.038, 878.961 816.313, 878.303 815.791 C 877.645 815.270, 876.070 814.945, 874.803 815.070 C 873.536 815.195, 871.825 815.019, 871 814.680 C 870.175 814.340, 865.045 813.149, 859.601 812.033 C 854.157 810.917, 847.322 808.878, 844.413 807.502 C 841.504 806.126, 838.640 805, 838.048 805 C 837.457 805, 836.191 804.566, 835.236 804.035 C 820.861 796.045, 813.130 791.359, 809.202 788.254 C 802.575 783.016, 789.307 768.413, 786.255 763 C 784.860 760.525, 782.729 756.925, 781.520 755 C 780.311 753.075, 778.093 748.350, 776.591 744.500 C 775.089 740.650, 773.193 736.032, 772.377 734.237 C 770.765 730.690, 766.407 710.313, 765.365 701.453 C 765.009 698.423, 764.331 695.705, 763.859 695.413 C 763.387 695.121, 763 694.095, 763 693.132 C 763 689.144, 757.792 686.165, 753.718 687.823 M 311 700.386 C 311 700.872, 317.695 704.074, 318.732 704.084 C 319.154 704.088, 321.750 705.352, 324.500 706.892 C 327.250 708.432, 333.775 711.133, 339 712.893 C 344.225 714.653, 349.400 716.525, 350.500 717.053 C 351.600 717.581, 354.525 718.430, 357 718.939 C 359.475 719.448, 363.300 720.310, 365.500 720.855 C 372.039 722.476, 383.974 724.359, 384.483 723.850 C 384.743 723.590, 380.353 722.336, 374.728 721.063 C 369.103 719.790, 363.375 718.142, 362 717.401 C 359.562 716.086, 344.305 711, 342.800 711 C 342.384 711, 338.546 709.362, 334.272 707.361 C 322.217 701.716, 311 698.354, 311 700.386 M 755.949 723.250 C 755.839 723.663, 755.687 724.337, 755.610 724.750 C 755.533 725.163, 755.192 725.950, 754.852 726.500 C 754.513 727.050, 753.916 729.075, 753.527 731 C 751.369 741.665, 742.913 760.406, 734.590 772.971 C 725.166 787.198, 706.049 804.892, 692.163 812.240 C 689.048 813.888, 686.034 815.608, 685.465 816.063 C 684.895 816.517, 681.070 818.203, 676.965 819.809 C 672.859 821.415, 668.600 823.089, 667.500 823.528 C 666.400 823.968, 665.275 824.373, 665 824.429 C 664.725 824.485, 664.047 824.820, 663.492 825.175 C 662.938 825.529, 660.780 826.138, 658.696 826.529 C 656.612 826.920, 655.085 827.418, 655.303 827.636 C 655.521 827.854, 659.705 829.192, 664.600 830.608 C 669.495 832.025, 673.950 833.548, 674.500 833.993 C 675.050 834.437, 678.246 835.912, 681.603 837.270 C 684.959 838.629, 691.126 842.049, 695.307 844.870 C 699.489 847.692, 703.102 850, 703.337 850 C 703.572 850, 705.572 851.688, 707.781 853.750 C 709.990 855.813, 714.543 859.975, 717.898 863 C 721.253 866.025, 723.999 868.904, 723.999 869.397 C 724 869.890, 725.507 872.140, 727.348 874.397 C 731.120 879.018, 741 894.006, 741 895.105 C 741 895.499, 742.582 899.199, 744.515 903.328 C 748.375 911.571, 750.790 918.702, 753.462 929.750 C 754.426 933.737, 755.504 936.998, 755.858 936.995 C 756.211 936.992, 757.530 932.829, 758.788 927.745 C 760.047 922.660, 762.122 916.250, 763.398 913.500 C 764.675 910.750, 767.245 905.125, 769.110 901 C 770.974 896.875, 773.042 893.050, 773.705 892.500 C 774.368 891.950, 775.328 890.375, 775.838 889 C 777.010 885.843, 784.806 875.318, 791.765 867.500 C 807.810 849.474, 829.918 835.300, 852 828.883 C 857.225 827.364, 860.299 826.095, 858.831 826.061 C 857.363 826.027, 854.888 825.356, 853.331 824.568 C 851.774 823.780, 846.450 821.896, 841.500 820.380 C 824.611 815.208, 808.753 805.934, 794.748 793.037 C 787.403 786.273, 775 771.357, 775 769.288 C 775 768.580, 774.523 768, 773.941 768 C 773.359 768, 773.160 767.550, 773.500 767 C 773.840 766.450, 773.684 766, 773.153 766 C 772.082 766, 766 753.577, 766 751.388 C 766 750.624, 765.523 750, 764.941 750 C 764.359 750, 764.160 749.550, 764.500 749 C 764.840 748.450, 764.673 748, 764.130 748 C 763.116 748, 761.044 741.826, 757.921 729.500 C 756.945 725.650, 756.058 722.837, 755.949 723.250 M 391.670 791.750 C 391.423 792.163, 390.658 796.775, 389.969 802 C 389.280 807.225, 388.391 811.950, 387.995 812.500 C 386.724 814.260, 383.180 842.142, 380.907 868.250 C 380.249 875.813, 379.325 882, 378.855 882 C 378.385 882, 378 884.250, 378 887 C 378 889.750, 378.281 892, 378.624 892 C 380.473 892, 391.865 878.940, 392.990 875.531 C 394.575 870.727, 393.838 855.465, 390.897 832.201 C 389.402 820.380, 389.134 815.543, 389.921 814.595 C 390.831 813.498, 393.975 796.251, 393.994 792.250 C 394.001 790.888, 392.392 790.542, 391.670 791.750 M 302.304 981.528 C 300.714 985.428, 301.673 996.369, 304.098 1002.007 C 305.382 1004.991, 307.014 1008.122, 307.724 1008.966 C 308.435 1009.810, 310.250 1011.946, 311.758 1013.713 C 313.266 1015.481, 317.601 1018.518, 321.392 1020.463 C 329.299 1024.521, 329 1024.436, 329 1022.622 C 329 1021.865, 329.674 1020.686, 330.497 1020.003 C 331.781 1018.936, 331.108 1017.775, 325.747 1011.810 C 322.311 1007.987, 319.050 1004.156, 318.500 1003.296 C 317.950 1002.437, 316.524 1000.725, 315.331 999.493 C 314.138 998.261, 311.978 995.058, 310.530 992.376 C 309.083 989.694, 306.821 985.713, 305.503 983.528 C 303.358 979.971, 303.024 979.762, 302.304 981.528 M 259.272 990.961 C 256.664 993.391, 255.453 1002.896, 256.425 1013.312 C 257.445 1024.240, 260.940 1046.296, 261.936 1048.092 C 262.422 1048.968, 263.550 1053.579, 264.442 1058.340 C 266.746 1070.639, 269.562 1079.150, 274.395 1088.428 C 277.980 1095.310, 284.932 1104.293, 285.032 1102.173 C 285.049 1101.803, 285.612 1102.210, 286.282 1103.079 C 287.907 1105.185, 296.475 1108.019, 300.928 1107.923 C 302.893 1107.881, 306.300 1107.276, 308.500 1106.580 L 312.500 1105.314 307.700 1104.536 C 305.061 1104.108, 302.354 1103.250, 301.685 1102.629 C 301.017 1102.008, 298.746 1100.619, 296.640 1099.541 C 291.919 1097.127, 284.689 1089.233, 282.356 1083.946 C 281.398 1081.776, 280.307 1080, 279.929 1080 C 279.198 1080, 275.538 1070.305, 274.567 1065.794 C 274.246 1064.306, 273.467 1061.831, 272.836 1060.294 C 272.205 1058.757, 271.620 1057.050, 271.537 1056.500 C 271.454 1055.950, 271.108 1054.825, 270.769 1054 C 269.172 1050.112, 264.404 1019.129, 263.845 1009 C 263.738 1007.075, 263.423 1005.074, 263.145 1004.553 C 262.658 1003.643, 262.792 997.499, 263.424 991.745 C 263.781 988.490, 262.238 988.198, 259.272 990.961 M 303.502 1034.996 C 302.748 1036.217, 303.730 1038, 305.158 1038 C 306.214 1038, 310.034 1039.567, 317.814 1043.194 C 320.187 1044.300, 322.380 1044.953, 322.688 1044.645 C 324.081 1043.252, 321.640 1040.956, 315.818 1038.182 C 308.396 1034.645, 304.364 1033.602, 303.502 1034.996 M 301 1051.242 C 301 1052.184, 302.765 1053.213, 305.750 1054.014 C 310.751 1055.356, 317.307 1058.457, 320.250 1060.873 C 321.838 1062.177, 322 1062.065, 322 1059.665 C 322 1057.371, 321.113 1056.618, 315.327 1053.994 C 307.046 1050.239, 301 1049.078, 301 1051.242 M 375.954 1054.361 C 370.892 1055.726, 364 1060.487, 364 1062.619 C 364 1064.271, 365.606 1064.446, 366.563 1062.898 C 366.938 1062.292, 368.764 1061.161, 370.622 1060.385 C 372.480 1059.608, 374 1058.536, 374 1058.001 C 374 1057.466, 376.019 1056.520, 378.488 1055.899 C 380.956 1055.277, 382.729 1054.371, 382.429 1053.884 C 381.767 1052.814, 381.660 1052.822, 375.954 1054.361 M 387.500 1062.935 C 381.754 1064.334, 374.385 1069.195, 375.435 1070.894 C 375.829 1071.533, 377.855 1070.921, 380.785 1069.280 C 389.329 1064.494, 390.473 1064.012, 393.309 1064.006 C 394.926 1064.003, 395.856 1063.576, 395.500 1063 C 394.805 1061.875, 391.950 1061.852, 387.500 1062.935" stroke="none" fill="#171916" fill-rule="evenodd"/>
</svg>