<svg role="img" aria-labelledby="artwork-title" shape-rendering="geometricPrecision" xmlns="http://www.w3.org/2000/svg" width="1200" height="1200" viewBox="0 0 1200 1200" version="1.1">
	<title id="artwork-title">Mascot drawing his own logo</title>
	<path d="M 630 101.775 C 630 102.201, 626.639 103.084, 622.530 103.738 C 604.769 106.564, 584.232 121.348, 577.100 136.444 L 573.967 143.076 570.733 140.698 C 568.955 139.390, 565.925 137.728, 564 137.005 C 562.075 136.281, 559.105 134.864, 557.399 133.856 C 555.694 132.847, 550.778 131.532, 546.474 130.933 C 535.270 129.375, 523.991 131.142, 513.191 136.148 C 508.621 138.267, 504.626 140, 504.313 140 C 504 140, 500.687 142.267, 496.950 145.037 C 484.660 154.148, 473.514 172.272, 472.219 185.250 C 471.959 187.863, 471.302 190, 470.759 190 C 470.217 190, 469.974 191.369, 470.220 193.043 C 470.582 195.511, 470.367 195.968, 469.083 195.462 C 466.121 194.294, 455.693 192.904, 454.199 193.477 C 453.380 193.791, 449.528 194.500, 445.638 195.051 C 441.749 195.603, 437.426 196.805, 436.033 197.722 C 434.640 198.639, 430.818 200.764, 427.541 202.445 C 421.509 205.537, 409.001 216.277, 408.999 218.365 C 408.999 218.989, 407.494 221.191, 405.654 223.257 C 402.334 226.987, 398.423 235.908, 395.902 245.500 C 393.971 252.846, 394.429 266.245, 396.875 273.965 C 399.145 281.126, 399.415 280.545, 392 284.451 C 385.599 287.823, 381.765 292.331, 377.501 301.500 C 375.455 305.900, 373.268 310.583, 372.640 311.906 C 371.276 314.784, 371.097 336.617, 372.414 339.500 C 372.916 340.600, 373.406 341.725, 373.503 342 C 374.631 345.216, 378.828 353.161, 380.934 356.067 C 384.927 361.580, 394.563 369.626, 399.636 371.684 C 403.586 373.287, 404.047 373.794, 403.562 376 C 402.007 383.073, 401.836 388.516, 402.998 393.992 C 403.700 397.296, 404.606 400, 405.013 400 C 405.421 400, 406.743 402.300, 407.952 405.111 C 410.979 412.146, 417.472 418.185, 425.065 421.024 C 428.461 422.294, 431.860 423.333, 432.620 423.333 C 433.555 423.333, 434 424.578, 434 427.199 C 434 429.325, 434.675 432.680, 435.500 434.654 C 436.325 436.629, 437 438.358, 437 438.497 C 437 438.636, 435.749 439, 434.221 439.306 C 432.692 439.612, 430.244 440.971, 428.781 442.328 C 427.317 443.684, 425.688 444.952, 425.160 445.147 C 423.684 445.690, 416 455.312, 416 456.617 C 416 457.252, 415.335 459.053, 414.522 460.620 C 410.236 468.881, 409.960 488.307, 413.962 500 C 416.889 508.551, 421.116 517.107, 422.719 517.722 C 423.423 517.993, 424 518.812, 424 519.544 C 424 522.231, 437.749 533.264, 444.710 536.164 C 448.444 537.719, 452.297 539.454, 453.272 540.018 C 454.246 540.583, 457.036 541.317, 459.471 541.651 C 463.428 542.193, 463.970 542.589, 464.578 545.379 C 464.952 547.096, 466.398 550.975, 467.791 554 C 469.183 557.025, 470.396 559.725, 470.485 560 C 471.088 561.864, 480.694 580.401, 483.116 584.373 C 484.750 587.054, 485.955 589.349, 485.793 589.473 C 484.119 590.764, 468.985 600.939, 466.624 602.360 C 464.925 603.382, 462.974 605.020, 462.289 605.998 C 461.603 606.977, 458.635 609.376, 455.691 611.329 C 452.748 613.283, 448.690 616.708, 446.673 618.941 C 444.656 621.173, 442.661 623, 442.241 623 C 441.346 623, 410 654.234, 410 655.126 C 410 655.458, 406.850 659.033, 403 663.071 C 399.150 667.108, 396 670.915, 396 671.529 C 396 672.144, 393.444 675.265, 390.320 678.464 C 385.071 683.840, 384.635 684.643, 384.570 689.035 C 384.520 692.412, 385.063 694.410, 386.446 695.939 L 388.393 698.092 364.454 722.046 C 351.288 735.221, 340.062 745.988, 339.508 745.972 C 338.954 745.957, 331.617 732.120, 323.204 715.222 C 296.840 662.268, 297.864 663.819, 289.205 663.706 C 282.934 663.625, 277.733 666.250, 270.750 673.022 C 265.392 678.218, 265 678.912, 265 683.196 C 265 687.664, 269.954 698.866, 277.518 711.500 C 278.836 713.700, 279.933 715.972, 279.957 716.549 C 279.980 717.126, 283.633 724.481, 288.073 732.892 C 292.514 741.304, 296.001 748.291, 295.823 748.419 C 295.645 748.547, 292.575 750.138, 289 751.953 C 274.246 759.446, 269.060 763.079, 261.806 771.001 C 257.788 775.389, 253.820 780.221, 252.990 781.739 C 252.159 783.258, 249.105 788.415, 246.203 793.199 C 239.235 804.688, 233.026 823.064, 232.986 832.313 C 232.957 839.210, 232.239 840.091, 227.129 839.512 C 217.563 838.429, 109.038 835.796, 98.293 836.387 C 86.958 837.011, 82 838.286, 82 840.577 C 82 841.268, 81.438 842.034, 80.750 842.279 C 79.894 842.585, 80.264 843.556, 81.924 845.363 C 84.291 847.937, 84.640 848, 96.615 848 C 103.714 848, 109.142 848.421, 109.500 849 C 110.318 850.324, 115.705 850.287, 116.530 848.951 C 116.942 848.285, 117.602 848.247, 118.339 848.846 C 119.438 849.738, 193.342 852.552, 225.500 852.925 L 232.500 853.007 234.147 861.501 C 237.451 878.533, 249.838 895.314, 266.360 905.137 L 273.219 909.216 270.789 910.858 C 269.452 911.761, 267.293 913.513, 265.991 914.750 C 264.688 915.987, 263.227 917, 262.743 917 C 262.260 917, 254.060 922.175, 244.521 928.500 C 234.983 934.825, 226.872 940, 226.497 940 C 226.122 940, 215.043 947.200, 201.877 956 C 188.711 964.800, 177.674 972, 177.350 972 C 177.027 972, 173.328 974.401, 169.131 977.335 C 161.719 982.517, 152.424 988.909, 137 999.431 C 132.875 1002.246, 128.191 1005.212, 126.592 1006.024 C 124.992 1006.836, 122.476 1008.625, 121 1010 C 119.524 1011.375, 117.082 1013.159, 115.573 1013.965 C 110.955 1016.430, 108 1019.759, 108 1022.498 C 108 1026.292, 111.970 1029.737, 117.124 1030.416 C 119.531 1030.733, 128.475 1031.908, 137 1033.027 C 145.525 1034.146, 159.025 1035.951, 167 1037.038 C 201.314 1041.714, 211.607 1043, 214.707 1043 C 216.518 1043, 218 1043.371, 218 1043.824 C 218 1044.277, 223.738 1045.412, 230.750 1046.346 C 270.349 1051.624, 290.557 1054.287, 308 1056.527 C 318.725 1057.904, 328.447 1059.515, 329.604 1060.106 C 330.761 1060.698, 333.011 1061.076, 334.604 1060.947 C 336.197 1060.818, 338.175 1060.966, 339 1061.274 C 339.825 1061.583, 342.525 1062.083, 345 1062.385 C 350.642 1063.075, 384.638 1067.410, 404.500 1069.974 C 412.750 1071.038, 425.575 1072.655, 433 1073.566 C 440.425 1074.477, 447.445 1075.663, 448.599 1076.200 C 449.754 1076.737, 451.554 1077.068, 452.599 1076.935 C 453.645 1076.802, 455.175 1076.957, 456 1077.280 C 457.505 1077.869, 477.615 1080.517, 507.500 1084.060 C 516.300 1085.104, 528.900 1086.658, 535.500 1087.515 C 542.100 1088.371, 551.325 1089.529, 556 1090.087 C 560.675 1090.646, 565.175 1091.371, 566 1091.700 C 566.825 1092.029, 568.578 1092.190, 569.896 1092.058 C 571.214 1091.926, 573.239 1092.271, 574.396 1092.824 C 577.029 1094.082, 609.500 1098.007, 617.244 1098.003 C 622.853 1098, 623.059 1097.900, 626.049 1093.750 C 629.540 1088.904, 640.764 1076.503, 649.250 1068.114 C 652.413 1064.988, 655 1061.955, 655 1061.374 C 655 1060.793, 657.925 1057.508, 661.500 1054.075 C 665.075 1050.643, 668 1047.444, 668 1046.967 C 668 1046.490, 668.584 1045.740, 669.297 1045.300 C 670.010 1044.860, 678.421 1036.175, 687.988 1026 C 705.434 1007.445, 728.352 983.355, 756.961 953.500 C 765.394 944.700, 773.651 936.928, 775.310 936.230 C 777.581 935.273, 779.691 935.211, 783.847 935.980 C 794.080 937.871, 817.930 936.538, 825.062 933.675 C 826.953 932.916, 829.400 931.930, 830.500 931.484 C 831.600 931.038, 832.725 930.595, 833 930.500 C 837.063 929.096, 846.663 923.865, 850.769 920.817 C 853.668 918.666, 856.468 917.171, 856.994 917.496 C 858.070 918.161, 903.722 918.232, 914.500 917.586 C 930.493 916.626, 946.523 914.811, 947.711 913.825 C 948.410 913.245, 950.356 912.972, 952.035 913.218 C 953.714 913.465, 955.320 913.292, 955.603 912.833 C 955.886 912.375, 957.435 912, 959.045 912 C 960.654 912, 963.890 911.558, 966.236 911.017 C 968.581 910.476, 975.900 908.876, 982.500 907.462 C 994.184 904.958, 1007.285 900.838, 1009.555 898.954 C 1010.174 898.440, 1013.340 896.616, 1016.590 894.899 C 1019.841 893.182, 1023.949 890.690, 1025.719 889.361 C 1028.691 887.131, 1029.575 886.986, 1037.219 887.483 C 1095.905 891.300, 1114.348 892.002, 1116.636 890.503 C 1121.868 887.075, 1120.051 879.560, 1113.758 878.593 C 1109.788 877.983, 1099.403 877.133, 1088 876.485 C 1083.325 876.219, 1072.308 875.551, 1063.517 875.001 C 1054.726 874.450, 1045.829 874, 1043.744 874 C 1040.024 874, 1039.982 873.958, 1041.454 871.710 C 1043.659 868.345, 1047.869 854.544, 1049.144 846.500 C 1050.506 837.905, 1049.688 814.643, 1047.627 803.388 C 1045.807 793.446, 1040.215 771.980, 1039.073 770.547 C 1038.614 769.971, 1036.286 764.100, 1033.901 757.500 C 1031.515 750.900, 1027.448 741.337, 1024.863 736.249 L 1020.162 726.997 1022.507 726.409 C 1028.990 724.782, 1030.206 717.055, 1025.436 707.806 C 1023.821 704.674, 1019.632 696.443, 1016.127 689.514 C 1012.622 682.586, 1008.622 675.248, 1007.238 673.209 C 1003.718 668.022, 993 650.968, 993 650.553 C 993 650.365, 991.763 648.885, 990.250 647.264 C 988.737 645.643, 986.839 643.008, 986.031 641.408 C 981.751 632.937, 965.067 613.621, 949.054 598.599 C 939.824 589.939, 925.069 578, 923.598 578 C 922.947 578, 915.716 573.104, 915.016 572.190 C 914.330 571.294, 908.776 568.244, 897 562.297 C 891.775 559.659, 887.213 557.105, 886.862 556.622 C 886.511 556.139, 885.723 556.053, 885.112 556.431 C 884.500 556.809, 884 556.695, 884 556.178 C 884 555.069, 869.027 549.612, 853.500 545.062 C 847.450 543.289, 841.825 541.581, 841 541.266 C 840.175 540.950, 838.712 540.790, 837.750 540.909 C 836.788 541.028, 836 540.743, 836 540.275 C 836 539.808, 829.964 538.357, 822.586 537.052 L 809.172 534.679 810.106 532.089 C 810.621 530.665, 811.434 528.600, 811.915 527.500 C 813.941 522.861, 815.896 516.067, 817.021 509.759 C 818.202 503.139, 818.270 503.031, 820.862 503.759 C 825.257 504.994, 838.154 504.356, 844.057 502.612 C 847.113 501.709, 851.862 499.515, 854.610 497.735 C 860.500 493.922, 870.969 484.888, 870.987 483.603 C 870.994 483.110, 872.593 480.761, 874.541 478.385 C 878.918 473.043, 882.649 464.833, 885.169 455 C 888.463 442.147, 887.382 419.692, 883.058 411.152 C 882.598 410.243, 881.384 407.773, 880.361 405.662 C 879.337 403.552, 876.976 400.033, 875.114 397.844 L 871.727 393.864 875.207 390.182 C 880.726 384.341, 883.001 380.470, 885.157 373.244 C 888.075 363.470, 887.763 351.891, 884.372 344.072 L 881.803 338.148 884.884 335.324 C 894.986 326.065, 900.759 310.728, 899.795 295.712 C 898.870 281.289, 887.199 263.672, 874.366 257.327 C 870.706 255.517, 866.089 253.777, 864.106 253.461 C 855.661 252.112, 856.078 252.444, 857.571 248.260 C 858.308 246.192, 858.932 243.128, 858.956 241.450 C 858.980 239.773, 859.540 237.860, 860.200 237.200 C 861.133 236.267, 861.133 235.733, 860.200 234.800 C 859.540 234.140, 858.995 231.552, 858.988 229.050 C 858.958 217.604, 852.545 204.411, 842.601 195.340 C 839.080 192.128, 834.692 188.756, 832.850 187.846 C 824.569 183.758, 820.029 181.899, 818.814 182.099 C 818.091 182.218, 816.697 181.965, 815.714 181.537 C 813.078 180.388, 796.186 181.414, 794.792 182.808 C 792.838 184.762, 792.122 184.203, 791.515 180.250 C 788.602 161.273, 785.034 153.226, 775.032 143.079 C 763.085 130.959, 753.163 126.338, 737 125.368 C 721.746 124.452, 709.606 127.773, 699.822 135.539 C 695.514 138.959, 695.497 138.963, 694.624 136.735 C 691.129 127.818, 683.342 118.406, 674.760 112.727 C 668.894 108.845, 652.928 103, 648.190 103 C 646.501 103, 644.840 102.550, 644.500 102 C 643.781 100.836, 630 100.622, 630 101.775 M 633.589 116.856 C 633.230 117.437, 632.321 117.677, 631.569 117.388 C 630.817 117.100, 629.905 117.344, 629.542 117.932 C 629.179 118.519, 627.575 119, 625.978 119 C 615.878 119, 599.256 130.286, 591.655 142.305 C 590.242 144.541, 586 156.035, 586 157.630 C 586 159.134, 588.024 157.227, 590.887 153.026 C 594.574 147.618, 601.067 142.994, 615 135.855 L 623.500 131.500 635.073 131.500 C 646.024 131.500, 646.869 131.648, 650.802 134.250 C 653.087 135.762, 655.579 137, 656.339 137 C 657.099 137, 659.379 138.125, 661.405 139.500 C 663.431 140.875, 665.431 142, 665.848 142 C 667.523 142, 672.887 148.847, 675.679 154.550 L 678.640 160.599 681.261 155.904 C 683.090 152.628, 683.674 150.497, 683.191 148.854 C 681.768 144.008, 674.773 133.028, 670.853 129.486 C 666.344 125.413, 656.390 120.340, 651 119.370 C 649.075 119.023, 647.050 118.391, 646.500 117.966 C 644.741 116.606, 634.298 115.708, 633.589 116.856 M 718.623 143.708 C 711.918 145.958, 709.954 147.176, 705.422 151.892 C 702.494 154.939, 700.232 157.565, 700.395 157.728 C 700.558 157.891, 702.673 157.154, 705.095 156.090 C 716.917 150.897, 730.352 151.094, 743.380 156.651 C 751.345 160.048, 760 166.848, 760 169.708 C 760 170.419, 760.450 171, 761 171 C 761.550 171, 762 171.675, 762 172.500 C 762 173.325, 762.418 174, 762.928 174 C 764.193 174, 767.879 184.097, 768.772 190.010 L 769.500 194.826 772.411 192.497 C 774.857 190.540, 775.396 189.266, 775.790 184.515 C 776.736 173.109, 771.182 159.964, 761.771 151.335 C 755.937 145.985, 752.376 144.188, 744.164 142.447 C 734.336 140.364, 727.598 140.697, 718.623 143.708 M 526.907 146.889 C 524.931 147.299, 521.331 148.661, 518.907 149.916 C 512.700 153.130, 498.859 163.204, 498.183 165 C 497.872 165.825, 496.369 168.235, 494.842 170.355 C 491.640 174.800, 488 183.942, 488 187.538 C 488 188.892, 487.550 190, 487 190 C 486.450 190, 486 192.475, 486 195.500 C 486 198.525, 486.450 201, 487 201 C 487.550 201, 488.017 199.988, 488.038 198.750 C 488.126 193.534, 501.285 173, 504.540 173 C 505.173 173, 506.462 172.147, 507.405 171.105 C 510.416 167.778, 520.307 162.250, 526.429 160.474 C 530.950 159.163, 534.752 158.866, 542.429 159.228 C 553.408 159.745, 558.194 161.244, 564.191 166.045 C 566.222 167.670, 568.134 169, 568.441 169 C 568.749 169, 568.974 166.863, 568.943 164.250 C 568.889 159.774, 568.588 159.254, 563.723 155.233 C 555.106 148.110, 550.889 146.526, 540 146.322 C 534.775 146.223, 528.883 146.479, 526.907 146.889 M 610.119 184.865 L 606.739 189.500 610.490 185.863 C 612.553 183.862, 614.075 181.776, 613.871 181.227 C 613.667 180.679, 611.979 182.316, 610.119 184.865 M 577.407 201.587 L 576.449 206.814 579.683 203.157 C 583.576 198.755, 583.573 198.773, 580.674 197.430 C 578.467 196.408, 578.322 196.593, 577.407 201.587 M 801.500 197.135 C 798.229 197.898, 789 201.741, 789 202.339 C 789 202.428, 792.038 202.512, 795.750 202.527 C 803.526 202.559, 813.371 205.100, 817 208.012 C 818.375 209.115, 820.502 210.449, 821.728 210.976 C 825.404 212.557, 832.793 223.589, 835.034 230.845 C 837.215 237.902, 837.594 249.840, 835.751 253.402 C 834.937 254.975, 835.061 255.191, 836.465 254.652 C 837.399 254.293, 838.346 254, 838.568 254 C 839.599 254, 842.078 246.158, 842.644 241.109 C 842.990 238.024, 843.712 234.943, 844.248 234.263 C 844.785 233.582, 844.886 232.232, 844.473 231.263 C 844.060 230.293, 843.619 228.825, 843.493 228 C 843.041 225.039, 839.762 216.442, 837.961 213.500 C 835.030 208.709, 828.851 203.285, 824.250 201.464 C 821.913 200.540, 820 199.459, 820 199.064 C 820 198.401, 808.389 195.873, 806.385 196.100 C 805.898 196.156, 803.700 196.621, 801.500 197.135 M 445.110 211.037 C 437.292 213.343, 432.330 216.604, 424.464 224.607 C 411.985 237.302, 407.178 254.247, 411.872 269 L 413.622 274.500 414.796 265.500 C 415.663 258.855, 416.897 254.618, 419.512 249.307 C 423.259 241.696, 433.323 228.519, 437.313 226 C 445.708 220.700, 450.821 217.898, 453 217.402 C 454.375 217.089, 456.175 216.579, 457 216.268 C 457.825 215.957, 459.512 215.802, 460.750 215.923 C 461.988 216.044, 463 215.661, 463 215.072 C 463 213.718, 468.669 213.655, 469.500 215 C 470.510 216.634, 473.177 216.149, 472.823 214.397 C 472.343 212.013, 463.349 208.990, 457 209.077 C 453.975 209.119, 448.625 210.001, 445.110 211.037 M 806 224.456 C 807.375 225.956, 809.400 227.653, 810.500 228.228 C 812.143 229.085, 812.054 228.785, 810 226.544 C 808.625 225.044, 806.600 223.347, 805.500 222.772 C 803.857 221.915, 803.946 222.215, 806 224.456 M 481 238.060 L 477.500 239.904 483.258 239.952 C 488.771 239.998, 488.964 239.915, 487.768 238 C 486.287 235.629, 485.603 235.636, 481 238.060 M 625.924 254.620 C 621.637 259.252, 608.549 267, 605.011 267 C 603.866 267, 601.804 267.737, 600.429 268.639 C 597.944 270.266, 593.228 270.220, 583 268.467 C 580.162 267.980, 579.835 268.080, 581.268 268.993 C 583.973 270.716, 595.961 271.389, 601.770 270.143 C 604.623 269.531, 608.880 268.126, 611.229 267.021 C 616.055 264.750, 627.525 255.680, 628.377 253.460 C 629.167 251.402, 628.696 251.625, 625.924 254.620 M 645.500 256.736 C 643.850 259.306, 641.799 262.535, 640.943 263.910 C 637.876 268.838, 618.927 281.584, 610.708 284.248 C 601.961 287.084, 584.523 287.262, 577.500 284.588 C 568.411 281.127, 559.825 274.459, 554.964 267.087 L 553.427 264.757 547.964 267.625 C 543.656 269.885, 540.882 270.567, 534.855 270.847 C 527.249 271.200, 527.206 271.218, 526.605 274.226 C 526.272 275.889, 526 278.330, 526 279.650 C 526 287.302, 516.836 303.359, 507.848 311.457 C 497.557 320.728, 491.114 323.572, 477.960 324.647 C 470.625 325.247, 460.441 323.405, 457.430 320.933 C 455.548 319.387, 452.028 329.257, 449.560 343 C 448.023 351.560, 445.837 378.220, 446.497 380.353 C 446.692 380.984, 447.084 387.394, 447.367 394.598 C 448.005 410.803, 451.407 439, 452.725 439 C 452.947 439, 454.288 437.623, 455.705 435.939 C 458.389 432.749, 467.555 426.288, 474.221 422.887 C 484.939 417.420, 509.260 413.497, 527.696 414.262 C 545.407 414.998, 558.374 419.552, 564.293 427.115 L 566.619 430.087 569.168 428.083 C 576.086 422.641, 594.242 419.075, 605.624 420.923 C 609.406 421.537, 613.366 422.143, 614.424 422.270 C 615.848 422.440, 617.361 420.750, 620.246 415.767 C 622.390 412.064, 625.357 408.170, 626.840 407.114 C 631.807 403.577, 647.983 395.523, 652 394.586 C 652.275 394.522, 653.003 394.149, 653.618 393.757 C 656.634 391.836, 674.585 389.713, 688 389.692 C 703.935 389.666, 712.496 390.809, 719.181 393.855 C 721.595 394.954, 724.799 396.162, 726.302 396.540 C 727.805 396.917, 731.270 399.235, 734.002 401.692 L 738.970 406.158 749.735 404.495 C 776.566 400.351, 785.606 398.890, 787 398.475 C 788.169 398.126, 788.425 396.701, 788.161 392.014 C 787.975 388.706, 787.439 386, 786.970 386 C 786.501 386, 784.005 383.255, 781.424 379.901 C 770.897 366.220, 768.586 347.939, 774.473 324.913 C 775.092 322.495, 774.937 322.356, 772.103 322.772 C 767.574 323.436, 754.673 320.245, 748.201 316.859 C 738.333 311.696, 728.772 300.901, 724.570 290.179 C 722.679 285.352, 721.242 277.713, 721.036 271.392 C 721.016 270.762, 717.218 271.843, 712.250 273.892 C 703.925 277.325, 702.942 277.499, 692 277.485 C 680.147 277.470, 675.938 276.546, 667.404 272.089 C 661.877 269.203, 655.044 261.811, 651.377 254.750 C 650.591 253.238, 649.623 252.014, 649.224 252.032 C 648.826 252.049, 647.150 254.166, 645.500 256.736 M 683 260.919 C 683.825 261.497, 685.513 261.976, 686.750 261.985 C 687.987 261.993, 689 262.450, 689 263 C 689 263.550, 689.450 264, 690 264 C 692.189 264, 690.829 262, 688.250 261.426 C 686.737 261.090, 684.600 260.601, 683.500 260.342 C 681.866 259.955, 681.774 260.061, 683 260.919 M 853.316 269.449 C 855.415 270.197, 857.926 271.528, 858.895 272.405 C 859.864 273.282, 861.100 274, 861.642 274 C 863.662 274, 871.689 284.519, 873.851 290 C 875.537 294.275, 876.324 296.474, 876.414 297.167 C 876.461 297.533, 876.837 298.171, 877.250 298.583 C 878.217 299.551, 878.232 313.435, 877.267 314.400 C 876.452 315.215, 874.006 323, 874.565 323 C 875.793 323, 880.181 316.935, 881.072 314.008 C 881.659 312.078, 882.616 309.521, 883.199 308.324 C 883.808 307.074, 884.073 302.603, 883.821 297.812 C 883.469 291.100, 882.837 288.472, 880.581 284.327 C 874.967 274.011, 865.701 267.971, 855.601 268.044 L 849.500 268.088 853.316 269.449 M 840.677 285.600 C 840.998 286.437, 842.645 287, 844.774 287 C 849.012 287, 848.778 286.558, 843.820 285.204 C 840.795 284.379, 840.235 284.449, 840.677 285.600 M 742.057 291.500 C 744.340 294.920, 750.403 301.110, 752.500 302.160 C 753.600 302.711, 753.067 301.991, 751.315 300.559 C 749.563 299.128, 746.463 296.054, 744.426 293.728 C 742.389 291.403, 741.323 290.400, 742.057 291.500 M 404.546 294.791 C 400.613 295.665, 393.513 302.870, 390.250 309.299 C 386.410 316.865, 385.251 325.092, 386.908 333.021 C 388.935 342.718, 391.078 344.062, 390.066 335 C 389.728 331.975, 389.734 328.825, 390.079 328 C 390.424 327.175, 391.711 323.350, 392.939 319.500 C 395.636 311.044, 399.894 304.102, 405.139 299.613 C 408.079 297.096, 408.726 296.040, 407.769 295.317 C 407.071 294.789, 405.621 294.553, 404.546 294.791 M 491.531 304.552 C 490.448 305.371, 487.815 306.511, 485.680 307.086 C 483.545 307.661, 481.981 308.315, 482.205 308.539 C 483.012 309.345, 489.890 306.908, 492.170 305.008 C 494.900 302.733, 494.404 302.380, 491.531 304.552 M 867 347.074 C 867 347.351, 867.946 349.360, 869.102 351.539 C 870.987 355.092, 871.135 355.191, 870.536 352.500 C 869.982 350.010, 867 345.435, 867 347.074 M 663.500 349 C 662.400 349.473, 660.344 349.891, 658.931 349.930 C 657.518 349.968, 653.018 351.721, 648.931 353.824 C 642.221 357.277, 641.369 358.056, 640.148 361.848 C 638.387 367.317, 639.300 370.592, 643.277 373.071 C 646.896 375.327, 648.906 375.190, 657.202 372.124 C 666.156 368.814, 680.420 368.270, 691.100 370.830 C 703.343 373.765, 707.543 372.288, 707.831 364.950 C 708.062 359.057, 705.875 356.551, 697.436 353.038 C 688.007 349.112, 668.609 346.804, 663.500 349 M 502.170 374.116 C 498.138 375.184, 493.413 377.047, 491.670 378.254 C 481.715 385.147, 478.058 388.394, 477.076 391.212 C 475.773 394.949, 475.673 399, 476.883 399 C 477.369 399, 478.002 399.900, 478.290 401 C 478.793 402.923, 480.893 403.555, 485.406 403.143 C 486.454 403.047, 490.893 401.176, 495.271 398.984 C 499.649 396.793, 504.278 395, 505.557 395 C 506.836 395, 508.160 394.550, 508.500 394 C 509.382 392.573, 528.313 392.713, 529.758 394.158 C 530.634 395.034, 531.289 395.005, 532.458 394.035 C 533.306 393.331, 534 393.119, 534 393.565 C 534 394.010, 535.278 393.150, 536.839 391.654 C 542.406 386.320, 539.675 378.048, 531.130 374.360 C 525.441 371.905, 510.972 371.783, 502.170 374.116 M 833.441 398.468 C 832.374 399.276, 830.801 399.951, 829.946 399.968 C 827.483 400.019, 822.488 406.056, 820.552 411.324 C 819.576 413.977, 818.207 416.367, 817.509 416.635 C 816.591 416.987, 816.381 418.876, 816.750 423.470 C 817.039 427.069, 816.764 431.237, 816.116 433.096 C 815.345 435.309, 815.303 436.703, 815.987 437.387 C 817.403 438.803, 817.257 451.616, 815.798 453.952 C 814.853 455.466, 814.875 456.399, 815.905 458.323 C 816.765 459.930, 816.977 462.175, 816.523 464.865 C 816.142 467.118, 815.719 472.932, 815.582 477.787 L 815.332 486.613 819.427 488.307 C 826.634 491.287, 837.661 490.161, 846.749 485.515 C 852.071 482.795, 860.816 474.150, 864.355 468.112 C 871.599 455.752, 874.711 437.220, 871.596 425 C 867.891 410.471, 861.031 401.481, 851.101 398.143 C 846.200 396.495, 835.796 396.687, 833.441 398.468 M 775.500 416.072 C 770 417.117, 762.511 418.654, 758.857 419.486 C 755.203 420.319, 751.035 421, 749.593 421 C 744.385 421, 743.276 422.616, 744.189 428.875 C 745.988 441.200, 742.508 459.823, 736.348 470.838 C 731.997 478.619, 719.456 491.572, 712.664 495.301 C 693.334 505.912, 670.085 506.539, 650 496.989 C 642.969 493.646, 641.950 492.890, 634.469 485.472 C 629.101 480.148, 626.439 476.450, 623.210 469.829 C 620.884 465.060, 618.697 459.660, 618.350 457.829 C 618.003 455.998, 617.280 453.942, 616.745 453.260 C 616.209 452.578, 615.540 449.133, 615.256 445.605 L 614.742 439.191 609.055 437.596 C 600.594 435.221, 586.748 435.957, 582.500 439.006 C 581.950 439.401, 580.275 440.017, 578.779 440.374 C 574.616 441.368, 573.705 444.012, 575.094 451.074 C 576.705 459.260, 575.677 474.842, 573.022 482.490 C 566.441 501.448, 550.059 517.232, 532 522.015 C 529.525 522.671, 527.202 523.685, 526.838 524.269 C 525.928 525.732, 500.766 525.854, 498.905 524.405 C 498.132 523.803, 495.250 522.719, 492.500 521.997 C 485.385 520.128, 479.231 516.853, 473.750 512.019 C 468.499 507.388, 467.370 508.509, 471.362 514.392 C 472.661 516.306, 474.027 519.814, 474.398 522.186 C 474.768 524.559, 475.789 529.087, 476.667 532.250 C 478.014 537.101, 478.620 538, 480.543 538 C 484.551 538, 489.972 546.651, 489.994 553.083 C 490.003 555.560, 491.046 556.012, 493.365 554.545 C 496.028 552.860, 499.377 553.999, 501.149 557.194 C 501.853 558.462, 502.445 559.800, 502.465 560.167 C 502.484 560.533, 502.837 561.171, 503.250 561.583 C 503.663 561.996, 504.007 563.496, 504.015 564.917 C 504.024 566.338, 504.467 568.175, 505 569 C 505.799 570.237, 505.972 570.140, 505.985 568.450 C 506.022 563.475, 512.510 562.291, 515.927 566.635 C 517.067 568.084, 518 570.082, 518 571.076 C 518 572.069, 518.457 573.165, 519.016 573.510 C 519.575 573.856, 519.793 574.526, 519.500 575 C 519.207 575.474, 519.425 576.144, 519.984 576.490 C 520.570 576.852, 521 576.045, 521 574.582 C 521 571.384, 525.027 568.539, 528.366 569.377 C 530.526 569.919, 531.522 571.485, 533.375 577.250 C 533.684 578.212, 534.432 579, 535.036 579 C 535.657 579, 535.875 578.181, 535.536 577.115 C 535.124 575.816, 535.803 574.494, 537.719 572.864 C 540.281 570.685, 540.509 569.905, 540.608 562.973 C 540.734 554.279, 542.730 549.357, 546.518 548.406 C 547.883 548.063, 549 547.245, 549 546.587 C 549 544.138, 555.074 535.926, 557.738 534.773 C 559.257 534.116, 561.814 532.512, 563.421 531.210 C 565.666 529.389, 567.080 528.980, 569.532 529.440 C 573.464 530.178, 576.021 527.935, 574.011 525.513 C 572.282 523.430, 573.543 519.345, 576.517 517.397 C 578.839 515.876, 579.347 515.902, 584.251 517.796 C 596.521 522.536, 603.971 522.615, 610.118 518.071 C 611.659 516.932, 613.500 515.998, 614.210 515.996 C 614.919 515.994, 616.973 515.094, 618.774 513.996 C 620.575 512.898, 623.062 512, 624.302 512 C 627.120 512, 631 514.639, 631 516.557 C 631 518.397, 631.505 518.370, 634.555 516.372 C 637.970 514.135, 645.323 515.015, 648.552 518.049 C 650.829 520.188, 651.093 520.226, 652.818 518.664 C 655.926 515.852, 660.521 516.572, 664.941 520.565 C 668.277 523.580, 669.202 523.962, 670.923 523.041 C 673.305 521.767, 677.400 522.573, 679.129 524.656 C 679.796 525.459, 681.849 526.746, 683.693 527.516 C 685.537 528.287, 687.823 530.283, 688.773 531.952 C 689.723 533.621, 691.010 534.990, 691.634 534.994 C 693.785 535.006, 699.719 542.686, 700.406 546.348 C 700.906 549.014, 701.599 550, 702.973 550 C 705.505 550, 708.606 554.138, 709.523 558.741 L 710.272 562.500 711.757 556 C 713.319 549.163, 717.196 544, 720.768 544 C 723.688 544, 726.769 546.770, 728.001 550.503 C 728.636 552.426, 729.519 554, 729.963 554 C 730.407 554, 731.706 550.559, 732.849 546.353 C 735.109 538.041, 738.010 534, 741.720 534 C 744.630 534, 749 538.174, 749 540.955 C 749 545.608, 750.767 542.502, 751.962 535.750 C 754.247 522.831, 755.860 517.556, 758.075 515.750 C 761.794 512.718, 766.496 513.706, 768.249 517.886 C 769.224 520.210, 769.441 519.613, 770.208 512.500 C 771.405 501.406, 772.686 497.252, 775.472 495.426 C 777.295 494.232, 778.343 494.113, 779.867 494.929 C 780.968 495.518, 782.011 495.996, 782.184 495.991 C 782.358 495.986, 782.572 490.995, 782.661 484.900 C 782.805 474.930, 783.045 473.581, 785.056 471.440 C 786.285 470.132, 787.707 469.319, 788.216 469.634 C 788.774 469.978, 788.867 467.423, 788.451 463.196 C 787.925 457.860, 788.119 455.467, 789.266 453.169 C 790.251 451.195, 790.594 448.576, 790.258 445.595 C 789.898 442.407, 790.221 440.312, 791.331 438.618 C 792.559 436.743, 792.701 435.443, 791.958 432.855 C 791.431 431.017, 790.995 427.710, 790.989 425.507 C 790.983 423.303, 790.699 419.813, 790.358 417.750 C 789.627 413.325, 789.829 413.348, 775.500 416.072 M 635.688 425.809 C 631.532 430.029, 630.875 431.286, 630.335 436.059 C 629.997 439.052, 630.032 441.213, 630.414 440.863 C 631.086 440.245, 640.958 421, 640.602 421 C 640.504 421, 638.293 423.164, 635.688 425.809 M 469.313 448.250 C 466.606 451.107, 466.162 452.407, 465.641 459 L 465.048 466.500 466.574 461.500 C 467.413 458.750, 468.354 455.488, 468.666 454.250 C 468.978 453.012, 469.706 452, 470.283 452 C 470.861 452, 471.060 451.727, 470.727 451.394 C 470.393 451.060, 470.993 449.850, 472.060 448.705 C 473.127 447.560, 474 446.258, 474 445.811 C 474 444.196, 472.331 445.065, 469.313 448.250 M 437 454.500 C 436.315 455.325, 435.242 456, 434.615 456 C 433.987 456, 433.030 456.841, 432.487 457.870 C 431.944 458.898, 430.504 461.548, 429.287 463.757 C 426.393 469.011, 424.784 479.436, 425.615 487.546 C 426.236 493.608, 427.024 495.603, 434.289 509.500 C 436.720 514.151, 456.765 528.568, 458.453 526.880 C 458.692 526.641, 458.432 524.433, 457.874 521.973 C 457.317 519.513, 456.657 515.937, 456.408 514.028 C 456.159 512.118, 455.551 510.151, 455.056 509.656 C 454.561 509.161, 454.396 508.130, 454.690 507.365 C 454.984 506.600, 454.799 505.418, 454.280 504.737 C 453.760 504.057, 452.835 501.025, 452.222 498 C 451.610 494.975, 450.394 489.125, 449.520 485 C 448.066 478.138, 446.020 466.409, 446.006 464.858 C 446.003 464.506, 444.976 463.960, 443.725 463.646 C 441.308 463.039, 437.574 456.382, 439.116 455.428 C 440.258 454.723, 440.262 453, 439.122 453 C 438.640 453, 437.685 453.675, 437 454.500 M 470.032 484.750 C 470.076 485.797, 472.584 489, 473.360 489 C 474.730 489, 473.911 485.180, 472.418 484.607 C 470.366 483.819, 469.993 483.842, 470.032 484.750 M 652.495 544.017 C 651.806 546.185, 646.171 549, 642.517 549 C 641.286 549, 638.621 547.875, 636.595 546.500 C 632.353 543.621, 632 543.530, 632 545.313 C 632 547.047, 627.080 551.600, 624.299 552.439 C 620.960 553.447, 614.354 551.265, 612.111 548.414 L 610.115 545.877 608.559 548.887 C 606.484 552.898, 600.954 557, 597.620 557 C 594.889 557, 590.108 554.508, 588.760 552.381 C 588.263 551.597, 586.745 552.490, 584.128 555.107 C 579.931 559.304, 577.665 559.854, 574.295 557.494 C 572.285 556.086, 572.005 556.184, 570.006 558.992 C 568.830 560.644, 566.885 562.242, 565.684 562.544 C 564.219 562.912, 563.451 563.926, 563.351 565.624 C 563.269 567.017, 562.242 569.178, 561.068 570.427 C 559.270 572.341, 559.101 573.135, 559.991 575.476 C 560.572 577.004, 561.327 581.572, 561.670 585.627 C 562.277 592.801, 562.366 593, 564.972 593 C 569.068 593, 571.942 596.696, 575.364 606.363 C 575.838 607.701, 576.372 607.939, 577.262 607.210 C 581.070 604.086, 587.722 606.501, 589.919 611.805 L 591.145 614.764 593.646 612.263 C 595.692 610.217, 596.793 609.867, 599.697 610.338 C 601.650 610.655, 604.015 611.609, 604.953 612.457 C 607.658 614.906, 607.999 614.382, 608.015 607.750 C 608.036 598.661, 609.398 596.569, 615.535 596.206 C 618.266 596.044, 622.156 595.813, 624.180 595.692 C 626.204 595.572, 628.191 595.142, 628.596 594.737 C 629.002 594.332, 630.854 594, 632.712 594 C 636.700 594, 640.982 597.707, 641.034 601.205 C 641.053 602.467, 641.921 605.300, 642.964 607.500 C 644.447 610.628, 645.004 611.129, 645.520 609.796 C 646.263 607.873, 652.334 604, 654.605 604 C 655.425 604, 657.127 605.199, 658.388 606.664 L 660.680 609.329 661.824 604.786 C 662.751 601.103, 663.615 599.936, 666.393 598.618 C 668.276 597.724, 670.444 597.233, 671.209 597.527 C 672.094 597.866, 673.209 596.786, 674.272 594.557 C 675.405 592.179, 676.836 590.856, 678.721 590.443 C 683.922 589.301, 684 589.208, 684 584.146 C 684 581.442, 684.625 577.743, 685.389 575.926 C 686.580 573.093, 686.574 572.044, 685.341 568.561 C 684.551 566.328, 684.127 563.645, 684.398 562.600 C 684.753 561.233, 683.081 558.933, 678.446 554.410 C 674.901 550.951, 672 547.628, 672 547.026 C 672 546.252, 671.431 546.234, 670.066 546.965 C 666.305 548.977, 661.276 548.181, 657.653 545 C 653.606 541.447, 653.327 541.394, 652.495 544.017 M 648 557.101 C 645.525 559.326, 641.652 562.243, 639.394 563.584 C 633.991 566.791, 621.501 571, 617.384 571 C 615.588 571, 613.826 571.472, 613.470 572.049 C 613.069 572.697, 612.379 572.748, 611.661 572.182 C 611.022 571.678, 607.736 571.028, 604.358 570.738 C 600.905 570.441, 595.628 569.048, 592.303 567.555 C 585.408 564.461, 581.515 565.099, 580.409 569.505 C 578.092 578.739, 605.101 585.896, 625.819 581.538 C 638.216 578.930, 646.701 574.543, 655.750 566.063 C 660.489 561.622, 661.356 557.537, 658.171 554.655 C 655.355 552.106, 652.901 552.696, 648 557.101 M 767.500 600.288 C 759.816 608.392, 737.965 625.508, 732.500 627.703 C 731.400 628.144, 727.125 630.437, 723 632.797 C 713.343 638.321, 713.224 638.387, 708.500 640.757 C 703.897 643.067, 693.437 646.731, 680.500 650.565 C 675.550 652.033, 671.050 653.574, 670.500 653.991 C 669.365 654.851, 666.794 655.356, 652 657.622 C 646.225 658.507, 639.587 659.235, 637.250 659.240 C 634.913 659.245, 633 659.446, 633 659.687 C 633 659.928, 635.991 661.481, 639.646 663.139 C 658.655 671.758, 688.090 670.852, 709.500 660.989 C 710.600 660.482, 714.087 658.952, 717.250 657.589 C 720.413 656.226, 723 654.666, 723 654.122 C 723 653.579, 724.013 652.815, 725.250 652.424 C 727.906 651.584, 732.305 648.428, 740.404 641.549 C 746.663 636.234, 760 620.384, 760 618.261 C 760 617.567, 760.450 617, 761 617 C 761.550 617, 762 616.487, 762 615.860 C 762 615.233, 762.625 614.221, 763.389 613.610 C 764.500 612.723, 773.365 594.981, 772.685 595.007 C 772.583 595.011, 770.250 597.387, 767.500 600.288 M 379.564 726.179 L 356.823 748.358 359.147 750.111 C 360.425 751.075, 361.660 751.673, 361.893 751.440 C 362.126 751.208, 362.807 751.404, 363.408 751.876 C 364.009 752.348, 367.200 753.728, 370.500 754.942 C 388.158 761.440, 406.064 776.102, 413.483 790.139 C 418.333 799.314, 419.704 808.610, 418.211 822.199 C 417.589 827.864, 416.186 835.087, 415.094 838.250 L 413.108 844 415.621 844 C 417.003 844, 419.791 842.777, 421.817 841.283 C 427 837.459, 454.086 810.259, 462.652 800.277 C 466.585 795.693, 470.973 791.023, 472.402 789.899 C 473.831 788.775, 475.005 787.325, 475.011 786.677 C 475.017 786.030, 476.832 783.607, 479.044 781.294 L 483.067 777.087 477.476 768.048 C 474.400 763.076, 471.010 758.541, 469.942 757.969 C 468.874 757.397, 468 756.273, 468 755.470 C 468 753.207, 446.435 731.986, 437.500 725.457 C 433.100 722.242, 429.350 719.249, 429.167 718.806 C 428.983 718.363, 428.182 718, 427.385 718 C 426.589 718, 425.678 717.325, 425.362 716.500 C 425.045 715.675, 424.353 715, 423.823 715 C 423.294 715, 420.979 713.711, 418.680 712.135 C 414.103 708.997, 404.585 704, 403.186 704 C 402.701 704, 392.072 713.981, 379.564 726.179 M 990.261 731.478 C 985.179 732.721, 980.389 734.262, 979.616 734.904 C 978.843 735.545, 977.826 735.983, 977.355 735.876 C 976.885 735.770, 975.600 736.045, 974.500 736.487 C 973.400 736.930, 968.450 738.836, 963.500 740.723 C 958.550 742.610, 952.025 745.307, 949 746.717 C 940.300 750.773, 920.233 762.704, 913.848 767.617 C 908.109 772.033, 908.045 772.138, 909.614 774.534 C 910.491 775.872, 912.437 780.237, 913.938 784.233 C 915.784 789.147, 917.126 791.389, 918.084 791.156 C 926.015 789.233, 940.122 787, 944.347 787 C 950.136 787, 954 789.418, 954 793.039 C 954 795.893, 950.439 799, 947.167 799 C 945.608 799, 944.024 799.309, 943.646 799.687 C 943.268 800.065, 942.181 800.464, 941.230 800.573 C 937.828 800.966, 924.368 804.071, 917 806.163 C 896.376 812.019, 886.494 815.200, 885.890 816.178 C 885.524 816.771, 884.723 816.947, 884.112 816.569 C 883.500 816.191, 883 816.359, 883 816.941 C 883 817.523, 882.384 818, 881.632 818 C 879.280 818, 842.178 830.607, 840.548 831.960 C 839.696 832.667, 839 832.910, 839 832.500 C 839 832.090, 838.438 832.215, 837.750 832.778 C 834.077 835.782, 823.179 837.020, 797.500 837.350 C 775.372 837.633, 769.936 838.012, 761 839.894 C 743.224 843.636, 731.811 848.278, 717.331 857.653 C 714.487 859.494, 711.874 861, 711.524 861 C 711.174 861, 708.759 863.138, 706.157 865.750 C 703.556 868.362, 699.109 872.414, 696.275 874.753 C 687.694 881.835, 675.621 901.965, 677.312 906.371 C 678.867 910.423, 688.883 910.354, 690.446 906.281 C 691.538 903.436, 701.191 892.695, 708.135 886.599 C 717.888 878.036, 726.303 872.450, 733.998 869.431 C 740.073 867.048, 741.047 866.916, 743.553 868.139 C 746.732 869.689, 747.589 874.190, 745.030 875.895 C 744.189 876.456, 738.611 880.160, 732.636 884.127 C 715.652 895.403, 700.811 911.030, 699.989 918.506 C 699.176 925.893, 701.630 927.610, 710.143 925.612 C 718.013 923.765, 720.696 922.006, 726.380 914.965 C 739.486 898.728, 763.099 885.499, 768.800 891.200 C 771.812 894.212, 769.001 902, 764.900 902 C 762.191 902, 748.509 910.794, 742.884 916.151 C 733.125 925.446, 730.734 931.469, 735.550 934.625 C 739.397 937.145, 747.140 935.108, 761.737 927.735 C 771.775 922.665, 774.741 921.595, 778.237 921.784 C 780.582 921.911, 789.700 922.071, 798.500 922.140 C 813.881 922.259, 814.871 922.143, 824.089 919.137 C 829.363 917.417, 834.944 914.922, 836.491 913.592 C 838.038 912.263, 840.473 910.585, 841.902 909.864 C 843.331 909.142, 845.943 907.334, 847.706 905.845 L 850.913 903.138 874.706 903.712 C 899.268 904.305, 921.566 903.253, 945.500 900.373 C 952.650 899.513, 959.261 898.415, 960.190 897.933 C 961.120 897.451, 964.945 896.581, 968.690 895.998 C 978.278 894.507, 999.312 888.382, 1005.345 885.325 C 1008.136 883.911, 1013.872 880.077, 1018.092 876.806 C 1024.686 871.695, 1026.272 869.834, 1029.362 863.582 C 1035.994 850.162, 1037.906 835.458, 1035.548 816 C 1033.168 796.362, 1028.147 777.615, 1021.438 763.319 C 1020.101 760.470, 1017.899 755.066, 1016.544 751.311 C 1015.190 747.556, 1012.188 741, 1009.874 736.742 C 1004.962 727.703, 1005.313 727.797, 990.261 731.478 M 345.897 761.750 C 346.399 762.712, 350.718 771.563, 355.493 781.417 C 360.268 791.272, 364.473 798.877, 364.837 798.317 C 367.350 794.458, 372.489 795.097, 375.564 799.651 C 377.238 802.130, 377.500 804.449, 377.581 817.500 L 377.674 832.500 381.318 839.500 C 383.323 843.350, 384.971 847.037, 384.981 847.693 C 385.006 849.298, 388.989 852, 391.329 852 C 392.365 852, 394.177 850.781, 395.356 849.292 C 397.892 846.088, 402.496 833.979, 403.513 827.837 C 403.908 825.452, 404.446 823.137, 404.709 822.694 C 405.513 821.339, 405.551 806.999, 404.750 807 C 404.337 807, 403.996 805.987, 403.990 804.750 C 403.951 795.825, 390.624 781.012, 374.370 771.829 C 366.850 767.580, 348.184 760, 345.242 760 C 345.099 760, 345.394 760.788, 345.897 761.750 M 296 763.856 C 291.844 765.483, 285.214 769.570, 277.286 775.392 C 272.505 778.903, 257.564 799.602, 253.716 808.047 C 250.864 814.302, 247.098 830.652, 246.411 839.755 C 244.643 863.173, 255.376 883.545, 274.745 893.532 C 277.910 895.165, 280.651 896.840, 280.835 897.256 C 281.020 897.672, 281.633 897.727, 282.197 897.378 C 282.762 897.029, 283.559 897.286, 283.968 897.948 C 284.377 898.611, 288.490 900.028, 293.106 901.097 C 302.825 903.349, 316.122 903.588, 323.500 901.644 L 328.500 900.326 320.500 896.565 C 304.478 889.033, 302.428 887.940, 298.331 884.748 C 296.038 882.962, 291.763 879.648, 288.831 877.385 C 281.469 871.703, 273.226 862.750, 272.428 859.569 C 271.559 856.108, 274.298 853, 278.215 853 C 280.303 853, 282.578 854.357, 286.310 857.828 C 294.318 865.277, 304.069 873.080, 306.922 874.322 C 308.340 874.940, 312.425 877.210, 316 879.366 C 328.881 887.136, 344.496 890.683, 350.940 887.304 C 354.938 885.208, 356.080 883, 353.167 883 C 352.067 883, 351.017 882.663, 350.833 882.250 C 350.650 881.837, 347.262 879.325, 343.305 876.668 C 335.882 871.682, 300.007 836.137, 299.992 833.752 C 299.987 833.063, 297.512 829.809, 294.492 826.520 C 291.471 823.232, 289 819.805, 289 818.905 C 289 816.033, 292.953 812, 295.768 812 C 298.164 812, 304 816.326, 304 818.102 C 304 818.502, 306.721 821.680, 310.046 825.165 C 341.902 858.541, 354.909 869.932, 362.500 871.098 C 366.398 871.697, 369.791 870.019, 371.897 866.450 C 374.077 862.755, 374.749 857, 373 857 C 372.450 857, 372 855.964, 372 854.697 C 372 851.153, 360.172 828.235, 357.600 826.796 C 356.874 826.390, 353.670 822.135, 350.480 817.341 C 343.833 807.352, 323.074 785.487, 315.144 780.123 C 309.772 776.489, 309.062 775.540, 305.144 766.750 C 302.790 761.471, 302.403 761.348, 296 763.856 M 516.769 770.851 C 513.069 775.058, 507.357 781.375, 504.077 784.889 C 498.287 791.092, 497.994 791.263, 494.054 790.734 C 490.517 790.260, 489.730 790.530, 487.921 792.845 C 482.613 799.636, 454.534 829.575, 443.950 839.728 L 438.500 844.957 448.500 845.165 C 454 845.279, 459.850 845.460, 461.500 845.567 C 463.150 845.673, 479.125 846.282, 497 846.920 C 514.875 847.558, 530.285 848.244, 531.245 848.445 C 532.575 848.723, 532.882 848.298, 532.536 846.655 C 532.286 845.470, 531.607 838.875, 531.026 832 C 529.711 816.418, 526.212 783.350, 524.663 771.851 L 523.497 763.201 516.769 770.851 M 404.486 859.641 C 402.844 861.076, 400.038 862.876, 398.250 863.639 C 396.462 864.402, 395 865.420, 395 865.901 C 395 866.381, 399.068 866.813, 404.039 866.859 C 414.382 866.957, 442.175 868.524, 486.500 871.509 C 513.760 873.345, 540.874 875.150, 554.500 876.035 C 563.300 876.607, 572.525 877.247, 575 877.457 C 577.475 877.668, 587.600 878.373, 597.500 879.024 C 607.400 879.676, 616.175 880.438, 617 880.719 C 617.825 880.999, 621.340 881.145, 624.812 881.043 C 628.283 880.941, 631.658 881.278, 632.312 881.792 C 632.965 882.306, 638.450 883.003, 644.500 883.340 C 650.550 883.678, 658.977 884.254, 663.226 884.622 C 670.236 885.228, 671.017 885.114, 671.651 883.395 C 672.036 882.353, 674.138 879.189, 676.322 876.365 C 678.507 873.541, 680.116 870.853, 679.897 870.394 C 679.679 869.934, 677.250 869.484, 674.500 869.394 C 669.751 869.238, 655.838 868.642, 628 867.401 C 621.125 867.094, 615.140 866.496, 614.700 866.072 C 614.260 865.648, 611.943 865.748, 609.551 866.296 C 607.158 866.843, 604.368 866.952, 603.350 866.537 C 602.333 866.123, 598.277 865.860, 594.337 865.954 C 590.041 866.057, 586.371 865.624, 585.168 864.873 C 583.551 863.863, 582.856 863.875, 581.581 864.933 C 580.522 865.811, 579.587 865.923, 578.750 865.270 C 577.672 864.429, 553.504 863.069, 511 861.458 C 504.675 861.219, 493.650 860.797, 486.500 860.520 C 479.350 860.244, 461.575 859.566, 447 859.012 C 432.425 858.459, 417.569 857.787, 413.986 857.518 C 408.035 857.072, 407.215 857.255, 404.486 859.641 M 404.502 884.652 C 407.769 890.371, 408.987 893.596, 408.993 896.542 C 408.997 898.766, 410.123 906.416, 411.495 913.542 C 414.989 931.696, 414.735 934, 409.234 934 C 405.940 934, 403.294 932.452, 397.463 927.112 C 387.312 917.816, 383.805 915, 382.383 915 C 380.201 915, 376 911.963, 376 910.385 C 376 909.623, 375.127 908.127, 374.060 907.060 C 372.994 905.994, 370.896 902.619, 369.398 899.560 C 367.901 896.502, 366.368 894, 365.993 894 C 365.617 894, 364.453 894.964, 363.405 896.141 C 361.179 898.643, 354.406 901.946, 351.438 901.978 C 350.304 901.990, 348.426 903.285, 347.266 904.854 C 345.985 906.587, 342.471 908.834, 338.328 910.571 C 334.572 912.145, 331.275 913.729, 331 914.089 C 330.220 915.112, 320.204 917.087, 312.743 917.689 C 308.433 918.036, 302.566 917.618, 296.544 916.534 L 287.102 914.834 282.601 917.931 C 280.125 919.634, 277.285 921.359, 276.289 921.764 C 275.293 922.169, 263.833 929.587, 250.822 938.250 C 237.811 946.913, 226.914 954, 226.607 954 C 226.040 954, 221.597 956.920, 202.929 969.562 C 181.843 983.841, 180.086 985, 179.524 985 C 178.912 985, 170.145 990.689, 166 993.775 C 164.625 994.799, 159.225 998.560, 154 1002.133 C 148.775 1005.706, 141.333 1010.894, 137.462 1013.661 C 133.592 1016.428, 129.793 1018.902, 129.021 1019.160 C 128.249 1019.417, 132.315 1020.182, 138.058 1020.859 C 162.013 1023.683, 180.595 1026.157, 182 1026.709 C 182.825 1027.032, 184.578 1027.190, 185.896 1027.058 C 187.214 1026.926, 189.239 1027.284, 190.396 1027.853 C 191.553 1028.421, 200.150 1029.872, 209.500 1031.076 C 218.850 1032.280, 227.400 1033.386, 228.500 1033.533 C 229.600 1033.681, 234.775 1034.287, 240 1034.879 C 245.225 1035.472, 257.825 1037.105, 268 1038.508 C 278.175 1039.911, 290.325 1041.516, 295 1042.074 C 299.675 1042.632, 304.400 1043.511, 305.500 1044.027 C 307.243 1044.845, 325.169 1047.274, 368 1052.495 C 374.325 1053.266, 386.700 1054.860, 395.500 1056.038 C 404.300 1057.215, 413.525 1058.396, 416 1058.662 C 418.475 1058.928, 421.400 1059.538, 422.500 1060.016 C 423.600 1060.495, 434.175 1062.035, 446 1063.440 C 457.825 1064.844, 472.225 1066.666, 478 1067.490 C 489.107 1069.072, 501.483 1070.628, 529.959 1074.022 C 539.562 1075.166, 547.887 1076.472, 548.459 1076.925 C 549.032 1077.377, 551.750 1077.990, 554.500 1078.288 C 570.350 1080.002, 595.196 1083.112, 599.500 1083.920 C 602.250 1084.437, 607.247 1085.131, 610.604 1085.463 L 616.707 1086.066 620.104 1082.082 C 621.972 1079.891, 625.747 1075.376, 628.493 1072.049 C 631.239 1068.722, 634.052 1066, 634.743 1066 C 635.434 1066, 636 1065.636, 636 1065.190 C 636 1062.945, 686.390 1009.002, 729.694 964.890 C 738.662 955.755, 746 947.937, 746 947.518 C 746 947.098, 745.326 947.314, 744.502 947.998 C 743.534 948.802, 740.918 949.090, 737.100 948.814 C 730.552 948.340, 725.074 945.062, 722.115 939.845 C 721.059 937.982, 719.981 937.208, 719 937.606 C 714.266 939.528, 705.043 941.016, 701.503 940.428 C 693.435 939.089, 687.477 933.836, 686.402 927.115 C 685.813 923.431, 685.748 923.384, 681.153 923.368 C 675.043 923.347, 670.830 921.020, 667.223 915.676 C 663.706 910.464, 662.726 905.900, 663.970 900.525 C 664.572 897.926, 664.540 896.334, 663.877 895.924 C 663.319 895.579, 656.931 894.997, 649.682 894.630 C 634.192 893.845, 626.611 893.328, 611 891.989 C 600.203 891.064, 566.666 888.724, 546.500 887.489 C 541.550 887.186, 532.100 886.527, 525.500 886.023 C 518.900 885.520, 504.725 884.588, 494 883.951 C 483.275 883.315, 473.825 882.566, 473 882.289 C 472.175 882.011, 468.208 881.862, 464.183 881.959 C 460.159 882.056, 456.334 881.716, 455.683 881.204 C 455.033 880.692, 449.775 879.984, 444 879.631 C 438.225 879.277, 431.250 878.806, 428.500 878.583 C 425.750 878.361, 418.217 877.869, 411.760 877.491 L 400.019 876.804 404.502 884.652 M 394.469 904.355 L 391.438 906.500 395.276 909.917 L 399.113 913.334 398.421 907.917 C 398.040 904.938, 397.678 902.435, 397.615 902.355 C 397.552 902.275, 396.136 903.175, 394.469 904.355 M 478.500 908.092 C 468.592 908.997, 446.791 912.891, 446 913.898 C 445.725 914.248, 441.900 915.559, 437.500 916.811 C 433.100 918.063, 428.375 919.899, 427 920.892 C 421.825 924.630, 424.107 933, 430.301 933 C 432.090 933, 434.555 932.299, 435.777 931.443 C 437 930.587, 438 930.192, 438 930.566 C 438 930.939, 438.593 930.753, 439.318 930.151 C 441.611 928.248, 461.056 924.041, 473 922.864 C 487.018 921.483, 512.705 922.278, 523 924.411 C 532.494 926.378, 541.114 929.135, 542.821 930.750 C 543.548 931.438, 544.630 932, 545.225 932 C 545.820 932, 548.756 933.159, 551.749 934.575 C 559.571 938.275, 571.200 950.043, 573.345 956.428 C 577.108 967.632, 574.153 980.690, 565.805 989.742 C 557.331 998.932, 555.185 1001, 554.118 1001 C 553.523 1001, 548.539 994.973, 543.043 987.606 C 531.457 972.078, 530.484 971.463, 520.983 973.658 C 513.530 975.380, 513.917 975.642, 508.382 965.116 C 506.247 961.055, 503.456 956.568, 502.181 955.146 C 500.905 953.723, 499.610 951.299, 499.302 949.760 C 498.994 948.220, 497.358 945.796, 495.666 944.373 C 493.056 942.176, 491.944 941.873, 488.315 942.370 C 485.964 942.692, 482.344 943.711, 480.270 944.633 C 478.197 945.555, 476.115 946.224, 475.645 946.119 C 475.174 946.015, 474.274 946.354, 473.645 946.873 C 473.015 947.391, 468.225 949.473, 463 951.500 C 448.742 957.030, 441.949 959.970, 437.326 962.611 C 433.077 965.038, 430.589 964.978, 429.609 962.423 C 429.036 960.929, 424.869 960.464, 423.583 961.750 C 423.171 962.163, 422.533 962.538, 422.167 962.584 C 421.800 962.630, 420.150 963.225, 418.500 963.905 C 415.583 965.109, 402.606 969.766, 388.601 974.637 C 384.807 975.956, 381.479 976.813, 381.207 976.540 C 380.195 975.528, 384.312 966.785, 387.994 962.126 C 390.088 959.477, 394.546 954.923, 397.901 952.005 C 402.545 947.965, 404 946.057, 404 944.005 C 404 940.391, 401.122 938, 396.773 938 C 393.736 938, 392.092 939.037, 385.764 944.947 C 370.502 959.199, 365.497 968.731, 365.518 983.500 C 365.534 994.599, 368.221 1001.182, 376.162 1009.577 C 380.758 1014.437, 389.072 1021, 390.632 1021 C 390.924 1021, 393.827 1022.561, 397.082 1024.469 C 400.337 1026.376, 403 1027.716, 403 1027.446 C 403 1027.175, 404.012 1027.600, 405.250 1028.390 C 414.807 1034.488, 452.480 1039.851, 476.914 1038.591 C 497.506 1037.529, 524.226 1032.723, 531.259 1028.816 C 532.492 1028.131, 533.725 1027.517, 534 1027.452 C 538.431 1026.395, 558.573 1015.801, 563.762 1011.798 C 570.132 1006.884, 579.750 996.658, 581.343 993.106 C 581.980 991.688, 583.226 989.795, 584.114 988.899 C 589.466 983.502, 591.293 960.973, 587.141 951.585 C 580.675 936.968, 565.772 923.477, 549.500 917.510 C 545.650 916.098, 541.600 914.546, 540.500 914.062 C 534.512 911.425, 522.890 909.299, 507.500 908.025 C 494.074 906.914, 491.338 906.920, 478.500 908.092 M 482.500 958.029 C 479.651 959.301, 472.593 962.290, 472 962.476 C 471.725 962.562, 469.925 963.352, 468 964.233 C 460.819 967.516, 457.172 969, 456.278 969 C 455.773 969, 451.116 970.826, 445.929 973.058 C 437.991 976.473, 435.788 977.025, 432 976.546 C 424.459 975.592, 423.236 975.709, 418.789 977.814 C 413.628 980.256, 388.620 989.614, 384.750 990.551 C 383.238 990.917, 382 991.681, 382 992.249 C 382 994.215, 396.526 1007.550, 402 1010.608 C 417.817 1019.445, 442.089 1024.380, 469.500 1024.333 C 492.132 1024.294, 516.728 1020.093, 530.500 1013.916 C 533.250 1012.682, 535.784 1011.729, 536.131 1011.797 C 536.478 1011.865, 537.529 1011.073, 538.467 1010.036 C 540.081 1008.253, 540.051 1007.988, 537.898 1005.076 C 536.647 1003.384, 535.259 1002, 534.812 1002 C 534.365 1002, 534 1001.325, 534 1000.500 C 534 999.675, 533.536 999, 532.969 999 C 532.401 999, 531.652 998.212, 531.302 997.250 C 530.953 996.288, 529.306 993.700, 527.641 991.500 C 525.976 989.300, 524.515 987.351, 524.394 987.170 C 524.273 986.988, 521.398 987.551, 518.006 988.420 C 510.346 990.382, 509.604 990.380, 505.401 988.386 C 503.306 987.392, 502 986.048, 502 984.886 C 502 983.849, 501.550 983, 501 983 C 500.450 983, 500 982.546, 500 981.991 C 500 980.909, 489.980 963.233, 487.185 959.383 C 485.302 956.790, 485.285 956.785, 482.500 958.029" stroke="none" fill="#171916" fill-rule="evenodd"/>
</svg>