<svg role="img" aria-labelledby="artwork-title" shape-rendering="geometricPrecision" xmlns="http://www.w3.org/2000/svg" width="1200" height="1200" viewBox="0 0 1200 1200" version="1.1">
	<title id="artwork-title">Mascot holding a signature</title>
	<path d="M 683 81 C 683 81.550, 681.430 82, 679.511 82 C 670.286 82, 651.030 89.890, 645.593 95.897 C 644.546 97.054, 643.121 98, 642.426 98 C 640.915 98, 630.059 112.003, 627.151 117.704 C 626.021 119.919, 624.571 123.817, 623.930 126.366 C 623.288 128.915, 622.660 131, 622.535 131 C 622.410 131, 621.001 130.370, 619.404 129.600 C 604.571 122.448, 605.363 122.648, 591.527 122.572 C 578.814 122.502, 578.337 122.578, 571.747 125.750 C 568.033 127.537, 564.410 129, 563.694 129 C 562.070 129, 554.740 134.182, 549.662 138.919 C 535.566 152.070, 529.441 167.298, 530.226 187.238 L 530.649 197.975 527.074 198.568 C 515.045 200.561, 507.500 204.497, 498.740 213.346 C 491.714 220.442, 489.111 225.012, 485.835 236 C 485.262 237.925, 484.353 240.040, 483.816 240.699 C 483.279 241.359, 482.970 243.702, 483.129 245.906 C 483.288 248.111, 483.099 250.234, 482.709 250.624 C 481.716 251.617, 481.820 259.771, 482.833 260.397 C 483.292 260.680, 483.465 262.282, 483.220 263.956 C 482.950 265.793, 483.215 267, 483.887 267 C 484.499 267, 485 267.858, 485 268.907 C 485 270.741, 489.697 281.365, 492.336 285.500 C 494.002 288.110, 503.787 297.989, 504.753 298.036 C 505.164 298.056, 506.765 299.107, 508.312 300.373 L 511.123 302.673 509.312 306.587 C 508.315 308.739, 507.228 310.628, 506.895 310.785 C 506.563 310.942, 506.493 312.126, 506.740 313.418 C 506.986 314.709, 506.696 316.070, 506.094 316.442 C 504.668 317.323, 504.645 331.662, 506.068 332.542 C 506.656 332.905, 506.895 333.832, 506.600 334.601 C 506.304 335.371, 506.499 336, 507.031 336 C 507.564 336, 508 336.922, 508 338.048 C 508 342.928, 517.924 354.841, 525.064 358.533 C 527.533 359.810, 527.968 360.516, 527.386 362.302 C 526.428 365.247, 526.863 372.130, 528.102 373.622 C 529.296 375.062, 529.022 375.238, 522 377.526 C 512.325 380.679, 500.790 391.230, 498.524 399 C 498.123 400.375, 496.896 403.064, 495.798 404.976 C 490.183 414.749, 489.375 441.085, 494.347 452.232 C 499.712 464.260, 501.718 468.057, 505.196 472.765 C 509.304 478.326, 515.098 483.084, 521 485.743 C 522.925 486.610, 524.725 487.420, 525 487.544 C 525.275 487.668, 526.513 488.098, 527.750 488.501 C 529.956 489.219, 530.659 491.867, 530.131 497.471 C 530.029 498.555, 530.633 502.766, 531.473 506.828 C 533.447 516.375, 533.507 516.073, 529.895 514.814 C 526.699 513.699, 518.473 514.020, 501 515.939 C 495.775 516.513, 484.750 517.731, 476.500 518.644 C 468.250 519.558, 460.960 520.723, 460.300 521.233 C 459.641 521.744, 457.841 522.060, 456.300 521.937 C 454.760 521.814, 452.825 521.985, 452 522.318 C 451.175 522.650, 446 523.383, 440.500 523.946 C 435 524.510, 423.409 525.949, 414.743 527.145 C 406.077 528.341, 398.777 529.110, 398.520 528.854 C 398.264 528.597, 397.360 525.038, 396.512 520.944 C 395.664 516.850, 394.678 512.825, 394.321 512 C 393.965 511.175, 393.594 510.275, 393.497 510 C 393.401 509.725, 392.338 507.250, 391.135 504.500 C 382.919 485.712, 372.345 473.295, 359.500 467.351 C 357.300 466.333, 355.265 465.190, 354.979 464.811 C 354.692 464.432, 351.284 463.460, 347.405 462.652 C 336.268 460.329, 299.602 462.018, 297 464.973 C 296.725 465.285, 294.250 466.278, 291.500 467.179 C 281.977 470.300, 279.468 471.463, 272.657 475.917 C 263.818 481.696, 254.955 489.632, 247.768 498.203 C 242.563 504.411, 240.387 508.039, 233.493 522 C 230.937 527.178, 227 544.170, 227 550.028 C 227 553.573, 226.737 554, 224.559 554 C 223.216 554, 221.822 554.479, 221.460 555.065 C 221.098 555.651, 219.609 556.036, 218.151 555.921 C 216.693 555.807, 214.825 555.966, 214 556.274 C 211.981 557.030, 197.771 559.711, 191.215 560.572 C 185.268 561.354, 181.854 563.582, 179.561 568.178 C 177.776 571.757, 177.593 574.274, 178.938 576.764 C 179.454 577.719, 180.574 584.800, 181.428 592.500 C 182.281 600.200, 184.089 614.825, 185.445 625 C 186.801 635.175, 188.192 645.750, 188.535 648.500 C 188.878 651.250, 189.557 654.400, 190.043 655.500 C 190.529 656.600, 191.635 663.350, 192.500 670.500 C 196.887 706.742, 200.603 734.606, 201.169 735.500 C 201.517 736.050, 202.743 744.150, 203.893 753.500 C 207.272 780.958, 209.893 803.030, 210.601 810 C 210.965 813.575, 211.521 816.944, 211.836 817.486 C 212.151 818.028, 212.281 819.963, 212.124 821.786 C 211.967 823.609, 212.271 825.640, 212.801 826.300 C 213.330 826.960, 214.294 831.550, 214.943 836.500 C 215.592 841.450, 217.005 851.800, 218.084 859.500 C 220.447 876.379, 220.715 878.533, 221.575 887.500 C 221.944 891.350, 222.508 894.944, 222.828 895.486 C 223.148 896.028, 223.281 897.963, 223.124 899.786 C 222.967 901.609, 223.270 903.640, 223.798 904.300 C 224.325 904.960, 225.074 908.650, 225.462 912.500 C 225.850 916.350, 227.496 928.500, 229.120 939.500 C 230.744 950.500, 232.532 963.086, 233.095 967.468 C 233.657 971.850, 234.477 975.900, 234.917 976.468 C 235.356 977.036, 236.332 981.775, 237.085 987 C 238.716 998.321, 240.675 1000.984, 247.396 1001.024 C 253.512 1001.061, 286.416 996.773, 287.038 995.858 C 287.334 995.423, 290.259 994.797, 293.538 994.468 C 296.817 994.138, 301.525 993.455, 304 992.949 C 306.475 992.444, 310.300 991.833, 312.500 991.592 C 314.700 991.350, 320.775 990.489, 326 989.676 C 331.225 988.864, 340 987.631, 345.500 986.935 C 351 986.240, 355.952 985.332, 356.505 984.917 C 357.057 984.502, 361.332 983.664, 366.005 983.054 C 370.677 982.444, 380.159 981.057, 387.076 979.970 C 401.777 977.661, 413.872 975.953, 419.500 975.391 C 421.700 975.171, 424.175 974.699, 425 974.342 C 425.825 973.985, 427.314 973.795, 428.310 973.919 C 429.305 974.044, 430.655 973.713, 431.310 973.184 C 431.964 972.655, 435.313 971.903, 438.750 971.513 C 444.862 970.819, 445 970.856, 445 973.179 C 445 977.097, 451.927 985.823, 457.250 988.611 C 458.762 989.403, 460 990.888, 460 991.911 C 460 995.429, 468.941 1009.449, 476.140 1017.218 C 480.106 1021.498, 483.741 1025, 484.217 1025 C 484.694 1025, 487.073 1026.463, 489.503 1028.250 C 494.538 1031.953, 494.462 1031.520, 492.948 1048 C 488.543 1095.944, 488.527 1093.262, 493.245 1097.586 C 496.789 1100.834, 499.824 1101.843, 501.376 1100.291 C 502.574 1099.093, 510.358 1100.060, 512.947 1101.728 C 515.831 1103.586, 527.374 1105.266, 538.192 1105.403 C 542.885 1105.462, 546.374 1105.987, 547.142 1106.750 C 547.834 1107.438, 549.183 1108, 550.141 1108 C 551.099 1108, 552.160 1108.450, 552.500 1109 C 553.351 1110.377, 564.335 1110.265, 565.736 1108.864 C 566.583 1108.017, 567.263 1108.120, 568.416 1109.273 C 570.390 1111.247, 575.089 1111.877, 587.233 1111.793 C 594.140 1111.746, 597.452 1112.129, 598.643 1113.113 C 599.866 1114.125, 603.591 1114.504, 612.410 1114.514 C 619.059 1114.521, 625.625 1114.851, 627 1115.246 C 630.491 1116.249, 653.705 1117.419, 671 1117.463 C 678.975 1117.483, 685.971 1117.807, 686.546 1118.183 C 687.121 1118.559, 704.221 1118.865, 724.546 1118.865 C 765.754 1118.863, 766.108 1118.864, 778 1118.994 C 782.675 1119.046, 787.956 1118.651, 789.737 1118.117 C 791.932 1117.459, 793.183 1117.486, 793.624 1118.201 C 794.048 1118.886, 797.805 1119.063, 804.388 1118.706 C 809.949 1118.404, 822.150 1117.874, 831.500 1117.528 C 840.850 1117.182, 851.650 1116.408, 855.500 1115.807 C 859.350 1115.206, 865.875 1114.800, 870 1114.906 C 874.125 1115.011, 881.100 1114.401, 885.500 1113.549 C 889.900 1112.697, 895.952 1112, 898.948 1112 C 907.038 1112, 921.011 1109.954, 925 1108.186 C 926.925 1107.333, 930.913 1106.592, 933.861 1106.539 C 943.660 1106.363, 944.174 1103.958, 941.905 1068.869 L 940.810 1051.938 946.235 1045.719 C 949.219 1042.298, 953.607 1036.575, 955.986 1033 C 961.608 1024.553, 975 998.520, 975 996.040 C 975 994.983, 975.400 993.871, 975.889 993.568 C 976.378 993.266, 977.074 991.840, 977.436 990.399 C 977.798 988.958, 979.002 985.847, 980.112 983.485 C 982.375 978.671, 983.880 973.698, 988.129 957 C 989.738 950.675, 991.210 945.050, 991.400 944.500 C 991.590 943.950, 991.690 943.232, 991.623 942.904 C 991.555 942.576, 992.004 941.676, 992.620 940.904 C 993.235 940.132, 994.043 937.813, 994.415 935.750 C 995.052 932.217, 995.305 931.999, 998.795 931.986 C 1007.522 931.954, 1009.880 929.207, 1012.518 916 C 1013.452 911.325, 1014.600 906.600, 1015.071 905.500 C 1016.098 903.098, 1018.431 883.107, 1020.083 862.552 C 1021.405 846.097, 1020.783 801.144, 1019.043 787.500 C 1016.879 770.524, 1015.723 764, 1014.878 764 C 1014.395 764, 1013.989 762.987, 1013.976 761.750 C 1013.948 758.995, 1011.048 748.074, 1007.672 738 C 1005.010 730.061, 993.712 707.191, 991.616 705.500 C 990.934 704.950, 990.114 703.825, 989.793 703 C 989.472 702.175, 985.535 697.116, 981.045 691.758 C 969.159 677.576, 952.395 662.954, 943.750 659.228 C 942.237 658.576, 941 657.604, 941 657.068 C 941 656.532, 939.087 655.183, 936.750 654.070 C 934.413 652.957, 930.250 650.696, 927.500 649.046 C 924.750 647.396, 920.475 645.101, 918 643.947 C 915.525 642.792, 910.667 640.532, 907.205 638.924 C 903.743 637.316, 900.255 636, 899.455 636 C 898.655 636, 898 635.603, 898 635.119 C 898 634.634, 896.087 633.567, 893.750 632.748 C 884.314 629.440, 869.251 623.711, 865.261 621.912 C 862.929 620.860, 856.404 618.456, 850.761 616.570 C 842.661 613.862, 840.434 612.715, 840.187 611.122 C 839.716 608.078, 841.411 605.718, 845.660 603.500 C 847.768 602.400, 850.547 600.263, 851.835 598.750 C 853.124 597.238, 854.918 596, 855.822 596 C 857.739 596, 878 576.146, 878 574.268 C 878 573.571, 878.385 573, 878.856 573 C 879.953 573, 887.893 562.412, 889.021 559.446 C 889.491 558.208, 890.352 556.900, 890.933 556.541 C 891.514 556.182, 894.724 550.289, 898.066 543.444 C 903.303 532.720, 904.339 531.196, 905.557 532.414 C 910.280 537.137, 936.011 537.132, 940.735 532.408 C 941.509 531.634, 943.064 531, 944.191 531 C 949.801 531, 967.559 516.840, 972.615 508.335 C 973.976 506.044, 975.722 503.646, 976.494 503.005 C 977.266 502.364, 978.436 500.189, 979.094 498.170 C 979.752 496.152, 980.608 494.275, 980.997 494 C 982.530 492.916, 986.145 480.299, 987.123 472.617 C 989.773 451.810, 983.950 433.187, 971.312 422.048 L 967.124 418.357 970.472 417.146 C 977.029 414.775, 994.393 394.063, 992.454 390.925 C 992.139 390.416, 992.305 390, 992.822 390 C 994.307 390, 996 381.741, 996 374.500 C 996 367.817, 994.452 359.452, 992.829 357.365 C 992.239 356.607, 992.759 356.026, 994.391 355.617 C 997.995 354.712, 1009.550 344.468, 1011.427 340.513 C 1012.319 338.632, 1013.819 336.324, 1014.760 335.383 C 1018.235 331.908, 1021.913 318.440, 1021.964 309 C 1022.005 301.562, 1019.996 290.891, 1017.615 285.904 C 1015.063 280.558, 1006.483 269.673, 1003.346 267.804 C 995.205 262.951, 989.238 259.854, 987 259.320 C 983.363 258.452, 982.787 257.961, 983.874 256.652 C 984.408 256.008, 985.592 251.496, 986.505 246.624 C 987.875 239.313, 987.967 236.609, 987.034 231.133 C 985.525 222.283, 982.550 214.483, 978.951 209.939 C 977.328 207.889, 976 205.793, 976 205.280 C 976 204.165, 971.864 200.166, 969.101 198.611 C 968.016 198, 964.737 196.104, 961.814 194.397 C 953.367 189.466, 949.797 188.665, 938.927 189.264 L 929.205 189.800 928.546 184.150 C 927.657 176.522, 926.456 172.755, 922.284 164.500 C 913.637 147.393, 899.089 138.515, 880 138.696 C 874.550 138.747, 868.475 139.429, 865.750 140.295 L 861 141.804 860.994 138.652 C 860.985 133.586, 859.187 128.127, 854.245 118.169 C 850.466 110.554, 848.299 107.610, 842.469 102.169 C 838.539 98.501, 834.013 94.826, 832.412 94.002 C 830.810 93.177, 829.236 92.145, 828.913 91.706 C 827.457 89.730, 810.675 85.062, 801.336 84.036 C 792.993 83.119, 789.498 83.191, 781.836 84.439 C 765.810 87.050, 756.227 91.751, 745.249 102.387 L 738.999 108.443 737.347 105.972 C 733.933 100.864, 723.270 91.734, 717 88.552 C 709.640 84.816, 698.513 82, 691.112 82 C 688.365 82, 685.840 81.550, 685.500 81 C 685.160 80.450, 684.459 80, 683.941 80 C 683.423 80, 683 80.450, 683 81 M 673 99.099 C 668.875 100.226, 664.790 101.790, 663.921 102.574 C 663.053 103.358, 661.970 104, 661.516 104 C 661.061 104, 659.214 105.125, 657.411 106.500 C 655.608 107.875, 653.738 109, 653.254 109 C 650.937 109, 640.928 123.094, 638.683 129.520 C 637.918 131.709, 637.016 135.300, 636.679 137.500 L 636.066 141.500 637.783 137.966 C 639.333 134.777, 651.891 121, 653.249 121 C 653.556 121, 656.551 119.449, 659.904 117.554 C 663.257 115.659, 666 114.364, 666 114.677 C 666 114.989, 666.563 114.790, 667.250 114.234 C 671.376 110.897, 692.925 110.063, 699.500 112.987 C 701.150 113.721, 703.063 114.229, 703.750 114.117 C 704.438 114.004, 705 114.347, 705 114.879 C 705 115.410, 706.606 116.375, 708.568 117.022 C 710.555 117.678, 715.316 121.257, 719.315 125.100 C 723.264 128.895, 726.550 132, 726.617 132 C 726.685 132, 727.313 129.953, 728.013 127.452 C 729.551 121.959, 728.804 120.169, 721.738 112.417 C 712.787 102.598, 703.368 98.371, 688.532 97.514 C 682.421 97.162, 678.706 97.541, 673 99.099 M 792.880 98.454 C 792.596 98.737, 788.821 99.462, 784.492 100.064 C 780.162 100.667, 774.792 102.103, 772.560 103.255 C 770.327 104.408, 767.150 106.012, 765.500 106.819 C 758.160 110.410, 747.979 121.409, 748.015 125.707 C 748.026 126.940, 748.273 127.119, 748.805 126.281 C 750.012 124.381, 766.913 116, 769.537 116 C 770.827 116, 772.179 115.519, 772.542 114.932 C 772.905 114.344, 773.777 114.084, 774.479 114.354 C 775.182 114.623, 776.274 114.326, 776.906 113.694 C 778.525 112.075, 797.227 112.115, 799.188 113.741 C 800.011 114.424, 800.969 114.697, 801.318 114.349 C 801.666 114, 802.525 114.189, 803.226 114.769 C 803.927 115.349, 806.950 116.753, 809.944 117.889 C 812.938 119.025, 816.313 120.800, 817.444 121.833 C 825.193 128.909, 829.770 134.091, 831.500 137.748 C 832.600 140.074, 833.765 141.982, 834.090 141.989 C 834.414 141.995, 835.260 145.078, 835.970 148.840 L 837.260 155.679 841.277 151.970 C 844.473 149.020, 845.315 147.518, 845.397 144.630 C 845.454 142.633, 845.163 140.999, 844.750 140.999 C 844.337 141, 844 139.520, 844 137.712 C 844 133.683, 841.284 125.779, 838.182 120.779 C 832.459 111.557, 815.816 101.700, 803.200 100.063 C 799.515 99.585, 795.801 98.911, 794.948 98.566 C 794.094 98.220, 793.163 98.170, 792.880 98.454 M 576.500 140.441 C 573.200 141.654, 569.150 143.361, 567.500 144.234 C 560.994 147.676, 550.873 159.387, 548.257 166.500 C 546.034 172.545, 544.770 183.026, 545.473 189.590 C 546.262 196.957, 546.562 197.275, 547.278 191.500 C 547.996 185.714, 550.275 178, 551.266 178 C 551.735 178, 551.840 177.550, 551.500 177 C 551.160 176.450, 551.272 176, 551.749 176 C 552.225 176, 553.442 174.127, 554.452 171.837 C 557.211 165.584, 567.576 155.767, 575.117 152.265 C 586.157 147.139, 588.408 146.230, 591.913 145.490 C 595.519 144.729, 613 146.889, 613 148.096 C 613 149.067, 618.688 150.978, 619.415 150.252 C 620.558 149.109, 619.947 148.301, 615.551 145.144 C 605.515 137.937, 588.791 135.922, 576.500 140.441 M 680.750 144.573 C 678.688 145.924, 677 147.232, 677 147.481 C 677 148.143, 683.908 143.957, 684.562 142.899 C 685.339 141.642, 684.996 141.793, 680.750 144.573 M 870 155.121 C 861.552 157.392, 856.029 161, 861 161 C 862.100 161, 863 160.460, 863 159.800 C 863 158.867, 863.267 158.867, 864.200 159.800 C 864.860 160.460, 867.090 161, 869.155 161 C 874.900 161, 885.317 165.242, 890.758 169.797 C 899.685 177.271, 905.980 188.436, 905.994 196.818 L 906 200.136 909 198 C 911.336 196.337, 912 195.104, 912 192.432 C 912 190.361, 912.496 188.994, 913.250 188.985 C 914.111 188.974, 914.159 188.741, 913.404 188.235 C 912.801 187.831, 912.015 185.309, 911.657 182.631 C 909.973 170.039, 901.159 158.642, 890.768 155.621 C 884.696 153.856, 875.528 153.635, 870 155.121 M 730.421 165.459 C 730.081 166.811, 729.173 168.442, 728.402 169.081 C 727.631 169.721, 727 170.656, 727 171.158 C 727 172.277, 729.498 170.871, 733.500 167.500 C 736.009 165.386, 736.254 164.813, 735 164.002 C 732.524 162.399, 731.073 162.861, 730.421 165.459 M 628 173.966 C 627.175 174.433, 624.475 175.403, 622 176.121 L 617.500 177.428 623.500 178.040 C 626.800 178.377, 630.288 179.004, 631.250 179.433 C 633.384 180.385, 633.498 179.156, 631.535 176.354 C 630.730 175.204, 630.355 173.979, 630.702 173.631 C 631.600 172.733, 629.782 172.958, 628 173.966 M 593.873 189.750 C 592.106 191.903, 588 199.475, 588 200.582 C 588 201.027, 589.350 199.263, 591 196.661 C 592.650 194.059, 594 191.519, 594 191.015 C 594 190.511, 594.788 189.641, 595.750 189.080 C 596.712 188.519, 597.007 188.047, 596.405 188.030 C 595.803 188.014, 594.663 188.787, 593.873 189.750 M 933.559 205.532 C 932.491 206.339, 930.859 207, 929.931 207 C 929.004 207, 927.736 207.613, 927.114 208.363 C 926.198 209.467, 926.463 209.634, 928.508 209.243 C 932.976 208.389, 945.081 212.976, 949.362 217.146 C 951.487 219.215, 953.555 221.041, 953.958 221.204 C 954.361 221.367, 956.301 223.756, 958.269 226.512 C 963.061 233.227, 965.293 242.695, 964.101 251.251 C 963.622 254.688, 963.292 257.576, 963.367 257.668 C 963.442 257.761, 964.271 257.275, 965.210 256.588 C 966.149 255.902, 967.490 253.126, 968.192 250.420 C 968.893 247.714, 969.924 245.179, 970.483 244.786 C 971.043 244.393, 971.442 240.793, 971.371 236.786 C 971.255 230.266, 970.782 228.613, 966.871 221.061 C 963.039 213.663, 961.883 212.279, 957.500 209.844 C 954.750 208.316, 951.033 206.775, 949.239 206.419 C 947.445 206.064, 945.731 205.374, 945.430 204.887 C 944.543 203.452, 935.671 203.934, 933.559 205.532 M 846.139 210.033 C 844.841 211.115, 844.228 212, 844.778 212 C 845.328 212, 846.841 211.115, 848.139 210.033 C 849.438 208.952, 850.050 208.067, 849.500 208.067 C 848.950 208.067, 847.438 208.952, 846.139 210.033 M 526.995 214.059 C 518.529 216.011, 507.433 225.229, 503.055 233.948 C 499.900 240.232, 498.497 249.067, 498.999 259.500 C 499.164 262.951, 499.495 262.254, 501.403 254.425 C 505.591 237.245, 517.852 222.940, 532.250 218.434 C 537.803 216.696, 539.357 215.355, 536.750 214.552 C 533.287 213.485, 530.166 213.327, 526.995 214.059 M 694.849 217.166 C 690.742 219.308, 679.417 219.750, 672.500 218.038 C 670.300 217.493, 668.221 217.037, 667.881 217.024 C 667.540 217.011, 667.004 218.587, 666.689 220.527 C 666.375 222.467, 664.151 227.304, 661.748 231.277 C 659.345 235.250, 657.083 239.287, 656.721 240.250 C 656.359 241.213, 655.629 242, 655.100 242 C 654.570 242, 651.598 244.419, 648.497 247.376 C 643.248 252.379, 631.911 259, 628.592 259 C 627.795 259, 626.419 259.724, 625.535 260.608 C 624.508 261.635, 622.839 262.057, 620.919 261.775 C 619.265 261.532, 617.680 261.708, 617.397 262.167 C 617.114 262.625, 614.910 263, 612.500 263 C 610.090 263, 607.886 262.625, 607.603 262.167 C 607.320 261.708, 605.718 261.535, 604.044 261.780 C 602.207 262.050, 601 261.785, 601 261.113 C 601 260.501, 600.065 260, 598.922 260 C 597.779 260, 593.474 258.379, 589.356 256.399 C 585.238 254.418, 581.561 253.096, 581.185 253.461 C 580.024 254.585, 574.123 264.305, 572.357 268 C 567.207 278.779, 565.084 283.843, 564.497 286.750 C 564.136 288.538, 563.407 290, 562.877 290 C 562.346 290, 562.026 290.563, 562.166 291.250 C 562.305 291.938, 561.797 293.625, 561.037 295 C 559.576 297.642, 558.299 302.900, 554.968 320 C 553.842 325.775, 552.643 331.175, 552.302 332 C 551.961 332.825, 551.783 333.925, 551.906 334.445 C 552.029 334.964, 551.703 336.314, 551.181 337.445 C 550.259 339.443, 548.601 349.353, 547.493 359.500 C 547.193 362.250, 546.734 365.850, 546.475 367.500 C 546.007 370.478, 546.037 370.500, 550.752 370.500 C 553.363 370.500, 556.962 370.826, 558.750 371.225 C 561.275 371.788, 562 371.621, 562 370.475 C 562 369.664, 562.363 369, 562.807 369 C 563.252 369, 564.970 367.078, 566.625 364.730 C 569.063 361.271, 570.953 359.949, 576.568 357.774 C 580.380 356.298, 585.750 354.555, 588.500 353.901 C 591.250 353.246, 594.073 352.262, 594.774 351.713 C 596.703 350.202, 635.264 350.293, 635.770 351.809 C 635.988 352.464, 637.431 353, 638.976 353 C 644.024 353, 657.013 356.119, 664.048 359.020 C 675.663 363.809, 682.997 369.840, 687.486 378.293 C 688.778 380.725, 689.973 381.840, 690.906 381.483 C 694.741 380.011, 708.313 378.868, 715 379.453 C 724.945 380.324, 739 384.161, 739 386.005 C 739 386.424, 740.087 386.975, 741.416 387.229 C 743.362 387.601, 744.407 386.876, 746.782 383.507 C 755.096 371.712, 773.637 366.122, 800.500 367.312 C 813.031 367.867, 828.258 370.439, 834.500 373.055 C 836.150 373.747, 838.288 374.214, 839.250 374.093 C 840.212 373.973, 841 374.353, 841 374.937 C 841 375.522, 841.563 376, 842.250 376.001 C 844.880 376.002, 856.492 382.225, 861.163 386.137 C 863.850 388.386, 867.197 392.187, 868.601 394.583 C 870.696 398.157, 871.813 399.043, 874.827 399.520 C 881.714 400.612, 893.491 403.203, 897.928 404.603 C 904.878 406.796, 905.626 406.541, 906.881 401.557 C 908.350 395.724, 908.292 393.397, 906.613 390.715 C 905.849 389.497, 904.666 386.025, 903.982 383 C 903.298 379.975, 902.235 376.867, 901.619 376.092 C 899.855 373.873, 900.471 353.190, 902.410 349.500 C 903.278 347.850, 903.990 345.558, 903.994 344.407 C 903.997 343.255, 904.939 339.655, 906.088 336.407 C 910.426 324.132, 910.736 325.396, 902.927 323.482 C 888.709 319.998, 876.082 309.486, 868.880 295.138 L 864.544 286.500 864.522 273.251 C 864.510 265.965, 864.163 260.002, 863.750 260.001 C 863.337 260.001, 863 260.478, 863 261.063 C 863 261.647, 862.212 262.028, 861.250 261.909 C 860.288 261.790, 858.600 262.099, 857.500 262.596 C 854.519 263.943, 837.329 263.729, 835.928 262.328 C 835.284 261.684, 834.191 261.373, 833.501 261.638 C 832.810 261.903, 830.728 261.195, 828.873 260.064 C 827.018 258.933, 824.969 258.006, 824.319 258.004 C 818.980 257.987, 802 241.589, 802 236.450 C 802 235.652, 801.475 235, 800.833 235 C 800.192 235, 799.945 234.721, 800.286 234.381 C 800.626 234.040, 800.278 233.135, 799.512 232.369 C 798.746 231.603, 797.817 228.964, 797.448 226.505 L 796.778 222.033 790.671 227.559 C 780.080 237.144, 769.559 241.907, 754.164 244.086 C 746.108 245.226, 744.197 245.178, 737.772 243.675 C 733.773 242.740, 729.762 241.980, 728.859 241.987 C 726.217 242.008, 709.746 230.681, 706.809 226.823 C 705.329 224.879, 703.146 221.424, 701.958 219.144 C 699.534 214.493, 699.819 214.573, 694.849 217.166 M 767.473 222.465 C 760.602 225.610, 752.962 226.969, 743.750 226.684 C 732.403 226.334, 734.262 228.405, 746 229.190 C 749.888 229.450, 757.949 228.172, 759.500 227.050 C 760.050 226.653, 763.095 225.298, 766.267 224.040 C 769.439 222.783, 772.278 221.359, 772.576 220.877 C 773.251 219.785, 773.489 219.711, 767.473 222.465 M 624 243.045 C 622.625 243.502, 619.250 244.551, 616.500 245.377 C 613.750 246.202, 612.175 246.899, 613 246.926 C 615.477 247.009, 625.220 244.180, 626.349 243.051 C 627.521 241.879, 627.502 241.879, 624 243.045 M 975.687 275.374 C 975.381 276.171, 976.220 277.315, 977.686 278.099 C 981.728 280.263, 989.247 289.126, 992.500 295.564 C 995.315 301.135, 995.500 302.208, 995.500 313 C 995.500 324.211, 995.409 324.682, 991.882 331.750 C 989.893 335.738, 988.703 339, 989.239 339 C 992.318 339, 998.258 332.268, 1001.962 324.579 C 1009.246 309.459, 1008.280 299.262, 998.165 284.525 C 993.450 277.654, 977.330 271.092, 975.687 275.374 M 513 284.310 C 513 285.201, 513.900 286.411, 515 287 C 516.100 287.589, 517 287.674, 517 287.190 C 517 286.706, 516.100 285.495, 515 284.500 C 513.235 282.902, 513 282.880, 513 284.310 M 966 294.906 C 966 296.320, 966.517 296.678, 968 296.290 C 970.401 295.662, 970.592 294.441, 968.418 293.607 C 966.133 292.730, 966 292.802, 966 294.906 M 886 295.911 C 886 296.709, 889.706 300.253, 891.750 301.410 C 893.960 302.662, 893.091 301.449, 889.500 298.269 C 887.575 296.565, 886 295.504, 886 295.911 M 524.591 311.250 C 523.790 312.488, 522.877 314.850, 522.562 316.500 C 522.246 318.150, 522.278 318.825, 522.633 318 C 522.987 317.175, 524.124 314.813, 525.159 312.750 C 527.230 308.623, 526.883 307.706, 524.591 311.250 M 619.515 314.504 C 615.673 315.305, 611.398 316.874, 610.015 317.989 C 608.632 319.105, 606.488 320.453, 605.250 320.984 C 601.155 322.743, 596.723 333, 600.059 333 C 600.641 333, 600.877 333.390, 600.583 333.866 C 600.288 334.343, 600.914 335.517, 601.974 336.476 C 604.141 338.438, 606.875 338.294, 618.884 335.584 C 627.797 333.572, 640.336 334.181, 649.709 337.080 C 661.339 340.676, 667.063 338.936, 668.582 331.340 C 669.345 327.525, 666.800 322.254, 663.607 321.041 C 662.344 320.560, 660.678 319.566, 659.905 318.832 C 654.968 314.139, 632.705 311.754, 619.515 314.504 M 795.833 328.985 C 795.650 329.527, 793.250 330.390, 790.501 330.903 C 786.705 331.610, 784.839 332.628, 782.751 335.130 C 779.627 338.871, 779.338 341.366, 781.522 345.743 C 783.402 349.513, 786.236 350.295, 794.913 349.440 C 802.018 348.740, 816.272 350.433, 816.833 352.043 C 817.017 352.570, 818.074 353, 819.183 353 C 820.292 353, 824.834 354.575, 829.276 356.500 C 839.523 360.941, 844.084 361.094, 846.932 357.096 C 848.069 355.498, 848.998 353.136, 848.996 351.846 C 848.991 348.773, 845.437 343, 843.550 343 C 842.736 343, 841.624 342.166, 841.079 341.147 C 839.232 337.696, 825.779 332.057, 815.241 330.317 C 813.448 330.021, 811.734 329.379, 811.432 328.890 C 810.678 327.670, 796.248 327.759, 795.833 328.985 M 975 362.966 C 975 363.589, 975.723 365.497, 976.606 367.205 C 977.519 368.971, 978.253 372.942, 978.306 376.406 C 978.357 379.758, 978.578 381.600, 978.796 380.500 C 979.015 379.400, 979.547 378.126, 979.979 377.668 C 980.411 377.210, 980.386 375.635, 979.924 374.168 C 979.462 372.701, 978.728 369.511, 978.292 367.081 C 977.856 364.650, 976.938 362.475, 976.250 362.247 C 975.563 362.020, 975 362.343, 975 362.966 M 582.751 375.869 C 578.663 378.134, 577.786 379.196, 576.448 383.500 C 575.593 386.250, 574.467 389.281, 573.947 390.236 C 572.762 392.410, 572.732 394, 573.877 394 C 574.359 394, 575.753 391.676, 576.975 388.836 C 578.197 385.996, 581.468 381.271, 584.243 378.336 C 589.864 372.393, 589.653 372.045, 582.751 375.869 M 544.628 395.639 C 544.252 400.513, 543.671 414.696, 543.339 427.159 L 542.734 449.817 545.117 453.159 C 547.330 456.262, 547.481 457.285, 547.232 467.500 C 547.084 473.550, 546.687 479.400, 546.349 480.500 C 545.759 482.419, 545.814 482.429, 547.696 480.750 C 550.289 478.437, 553.534 478.534, 556 481 C 557.707 482.707, 558 484.333, 558 492.089 L 558 501.178 561.077 498.589 C 564.909 495.364, 565.511 495.369, 568.548 498.646 C 570.722 500.992, 571.005 502.210, 571.040 509.396 C 571.077 516.959, 571.175 517.326, 572.497 514.893 C 574.183 511.792, 578.160 509, 580.892 509 C 584.489 509, 587 513.629, 587 520.257 C 587 525.466, 587.195 526.083, 588.500 525 C 589.325 524.315, 590 523.168, 590 522.450 C 590 520.725, 594.801 517, 597.024 517 C 600.747 517, 603.191 520.355, 603.980 526.549 C 604.397 529.822, 604.797 531.853, 604.869 531.062 C 605.069 528.862, 609.339 523.015, 610.750 523.007 C 611.438 523.003, 612 522.475, 612 521.833 C 612 521.192, 612.279 520.945, 612.619 521.286 C 613.759 522.426, 615.686 519.489, 616.430 515.475 C 617.833 507.907, 625.955 497.606, 631.312 496.601 C 633.340 496.221, 635 495.495, 635 494.988 C 635 493.386, 641.898 487.093, 645.882 485.060 C 651.203 482.346, 661.627 480.027, 662.880 481.280 C 664.558 482.958, 671.274 479.674, 671.686 476.973 C 672.628 470.805, 678.023 469.810, 686.952 474.156 C 690.554 475.909, 694.175 477.892, 695 478.563 C 697.245 480.389, 705.063 480.821, 708.718 479.321 C 710.488 478.594, 713.949 478, 716.409 478 C 718.869 478, 721.158 477.554, 721.494 477.009 C 722.211 475.849, 729.073 478.439, 730.209 480.298 C 732.754 484.464, 732.759 484.467, 735.375 483.067 C 740.548 480.299, 752 484.039, 752 488.497 C 752 489.212, 753.803 489.618, 756.773 489.573 C 760.199 489.521, 762.306 490.097, 764.239 491.617 C 765.720 492.782, 766.647 494.019, 766.299 494.367 C 765.951 494.715, 766.143 495, 766.725 495 C 767.307 495, 768.112 496.238, 768.515 497.750 C 768.917 499.262, 769.454 499.938, 769.707 499.250 C 769.960 498.563, 771.229 498, 772.527 498 C 775.517 498, 787 509.033, 787 511.906 C 787 513.015, 787.888 514.750, 788.974 515.761 C 792.041 518.618, 794.219 525.833, 793.499 530.750 C 793.157 533.087, 793.258 535, 793.723 535 C 795.470 535, 798.001 540.967, 798.030 545.154 C 798.057 548.978, 798.204 549.260, 799.254 547.500 C 799.911 546.400, 800.480 545.275, 800.519 545 C 800.558 544.725, 801.601 542.569, 802.836 540.210 C 806.188 533.806, 811.367 532.276, 815.545 536.455 C 817.348 538.257, 818.022 540.051, 818.084 543.205 L 818.169 547.500 820.207 543.056 C 821.328 540.612, 822.865 537.993, 823.622 537.235 C 824.380 536.477, 825 535.240, 825 534.485 C 825 532.609, 828.936 530, 831.768 530 C 835.202 530, 838.991 534.273, 839.044 538.205 L 839.088 541.500 840.910 538 C 841.912 536.075, 843.042 532.787, 843.422 530.694 C 843.801 528.601, 844.986 526.014, 846.056 524.944 C 847.125 523.875, 848 522.395, 848 521.655 C 848 519.579, 851.384 517, 854.106 517 C 857.731 517, 860.984 519.701, 861.102 522.807 C 861.215 525.798, 861.052 526.241, 865.118 511.913 C 866.575 506.781, 867.551 505.070, 869.541 504.163 C 872.811 502.673, 875.286 502.686, 876.800 504.200 C 877.733 505.133, 878 504.591, 878 501.759 C 878 499.756, 878.389 497.877, 878.865 497.583 C 879.341 497.289, 880.269 494.310, 880.928 490.962 C 882.108 484.963, 884.676 481, 887.383 481 C 889.082 481, 890.238 477.593, 890.014 473.250 C 889.922 471.462, 890.331 470, 890.923 470 C 891.516 470, 892 469.200, 892 468.223 C 892 467.245, 892.611 465.557, 893.358 464.473 C 894.105 463.388, 894.959 460.277, 895.256 457.561 C 895.554 454.844, 896.429 452.144, 897.202 451.561 C 898.044 450.925, 899.103 446.716, 899.848 441.048 C 900.531 435.850, 901.476 431.125, 901.948 430.548 C 902.420 429.972, 902.962 428.187, 903.153 426.583 C 903.488 423.766, 903.295 423.620, 897.500 422.330 C 894.200 421.596, 890.600 420.579, 889.500 420.070 C 886.355 418.617, 874.199 416.253, 873.238 416.909 C 872.761 417.234, 871.813 421.325, 871.129 426 C 870.121 432.899, 868.764 436.788, 863.926 446.647 C 860.228 454.182, 857.004 459.423, 855.434 460.451 C 854.043 461.363, 852.093 463.443, 851.101 465.075 C 849.103 468.360, 836.868 477.229, 830.244 480.194 C 824.887 482.592, 812.423 485.011, 805.662 484.965 C 798.018 484.913, 785.894 482.517, 777.980 479.493 C 774.141 478.025, 771 476.524, 771 476.157 C 771 475.789, 769.744 474.932, 768.210 474.253 C 764.143 472.453, 754.243 463.335, 751.205 458.593 C 741.146 442.886, 737.446 430.221, 738.260 414.276 L 738.791 403.868 735.646 402.535 C 733.916 401.802, 730.475 400.428, 728 399.481 C 725.525 398.535, 722.419 397.252, 721.099 396.630 C 716.944 394.675, 700.151 395.203, 695.250 397.442 C 691.608 399.107, 690.998 399.822, 690.985 402.442 C 690.968 405.972, 688.302 417.861, 687.175 419.436 C 686.756 420.021, 685.571 422.975, 684.543 426 C 679.455 440.969, 664.759 455.642, 648.500 461.986 C 645.200 463.274, 642.004 464.703, 641.398 465.163 C 640.792 465.623, 635.605 466.494, 629.872 467.099 C 618.755 468.272, 602.874 467.122, 602.199 465.096 C 602.004 464.512, 600.120 463.571, 598.012 463.003 C 590.310 460.929, 583.225 456.887, 577.039 451.037 C 570.368 444.728, 570.228 444.533, 564.435 433.500 C 559.074 423.290, 557.259 415.251, 557.060 400.837 C 556.967 394.083, 556.690 388.356, 556.444 388.111 C 556.199 387.865, 553.594 387.465, 550.655 387.221 L 545.313 386.778 544.628 395.639 M 523.195 393.061 C 516.823 396.715, 510.809 405.283, 509.022 413.251 C 508.374 416.138, 507.590 419.175, 507.279 420 C 506.968 420.825, 506.807 422.693, 506.921 424.151 C 507.036 425.609, 506.651 427.098, 506.065 427.460 C 504.683 428.314, 504.686 432.688, 506.068 433.542 C 506.655 433.905, 507.013 435.626, 506.863 437.365 C 506.713 439.105, 506.849 440.972, 507.164 441.514 C 507.479 442.056, 508.736 445.770, 509.957 449.768 C 511.285 454.116, 513.750 459.128, 516.091 462.244 C 520.234 467.758, 525.714 472.619, 526.688 471.645 C 527.008 471.325, 527.438 461.979, 527.642 450.875 C 527.863 438.924, 528.439 430.175, 529.056 429.433 C 529.778 428.562, 529.776 427.979, 529.049 427.530 C 528.472 427.174, 528 424.910, 528 422.500 C 528 420.090, 528.472 417.826, 529.049 417.470 C 529.753 417.035, 529.671 416.306, 528.799 415.248 C 527.771 414.003, 527.761 413.587, 528.750 413.254 C 530.134 412.788, 530.624 389.992, 529.250 390.009 C 528.837 390.015, 526.113 391.388, 523.195 393.061 M 764.250 393.566 C 761.913 394.967, 760 396.538, 760 397.057 C 760 397.576, 759.375 398, 758.611 398 C 757.798 398, 756.932 399.553, 756.522 401.750 C 756.136 403.813, 755.356 406.063, 754.788 406.750 C 754.220 407.438, 754.163 408, 754.662 408 C 755.161 408, 756.352 406.674, 757.310 405.053 C 758.267 403.432, 761.334 399.607, 764.126 396.553 C 766.917 393.499, 769.043 391.004, 768.850 391.009 C 768.658 391.015, 766.587 392.165, 764.250 393.566 M 573.800 415.200 C 574.460 415.860, 575 417.210, 575 418.200 C 575 420.444, 576.572 420.557, 577.410 418.373 C 577.782 417.405, 577.319 416.203, 576.267 415.405 C 574.063 413.732, 572.176 413.576, 573.800 415.200 M 938.609 427.236 C 935.842 427.968, 932.918 430.147, 928.480 434.786 C 922.989 440.526, 922.173 441.894, 921.660 446.222 C 921.340 448.925, 920.380 452.536, 919.528 454.245 C 918.675 455.954, 918.233 458.159, 918.545 459.143 C 919.446 461.979, 917.183 472.235, 915.003 475.197 C 913.822 476.802, 913.420 478.141, 914.009 478.506 C 915.613 479.497, 915.137 483.274, 913 486.500 C 911.907 488.150, 911.010 491.178, 911.007 493.230 C 911 497.015, 909.081 503.192, 906.314 508.332 C 904.887 510.984, 904.924 511.258, 906.895 512.639 C 908.053 513.450, 909 514.751, 909 515.531 C 909 517.196, 913.997 520, 916.964 520 C 918.099 520, 919.893 520.541, 920.952 521.202 C 922.451 522.138, 923.387 522.138, 925.188 521.198 C 926.460 520.535, 929.966 519.536, 932.981 518.978 C 944.223 516.898, 957.698 505.813, 964.333 493.186 C 966.350 489.348, 968.003 485.598, 968.006 484.854 C 968.010 484.109, 968.691 482.199, 969.520 480.609 C 972.303 475.273, 973.450 464.598, 972.150 456.148 C 969.961 441.930, 962.404 431.171, 952.037 427.513 C 947.202 425.807, 944.241 425.746, 938.609 427.236 M 328.500 478.128 C 326.300 478.622, 319.941 479.009, 314.368 478.989 C 305.443 478.957, 303.191 479.331, 295.470 482.124 C 290.648 483.869, 285.870 486.130, 284.852 487.148 C 283.833 488.167, 282.500 489, 281.889 489 C 281.278 489, 276.890 492.112, 272.139 495.915 C 259.989 505.641, 252.874 514.710, 248.928 525.500 C 247.721 528.800, 246.358 531.979, 245.899 532.564 C 244.809 533.953, 242.034 545.759, 242.015 549.088 L 242 551.676 251.250 550.349 C 256.337 549.620, 261.694 548.343, 263.154 547.511 C 269.669 543.802, 274.787 546.747, 281.547 558.096 C 284.300 562.718, 287.351 568.075, 288.326 570 C 296.929 586.976, 314.723 587.452, 312.469 570.646 C 311.151 560.820, 305.803 546.599, 300.421 538.607 C 294.891 530.395, 296.256 524, 303.540 524 C 306.482 524, 307.452 524.703, 310.788 529.250 C 315.934 536.265, 317.419 539.060, 321.014 548.500 C 322.689 552.900, 324.526 557.425, 325.095 558.555 C 325.664 559.686, 326.028 561.036, 325.903 561.555 C 325.779 562.075, 326.200 563.767, 326.839 565.315 C 327.477 566.863, 328 568.729, 328 569.462 C 328 570.194, 329.591 572.189, 331.535 573.896 C 336.584 578.330, 341.147 578.184, 345.614 573.447 C 347.457 571.493, 348.901 569.581, 348.824 569.197 C 348.746 568.814, 349.030 567.704, 349.456 566.731 C 350.378 564.619, 349.202 552.243, 348.009 551.505 C 347.550 551.222, 346.859 549.125, 346.474 546.845 C 345.512 541.150, 341.352 529.408, 338.424 524.124 C 335.940 519.641, 335.216 515, 337 515 C 337.550 515, 338 514.325, 338 513.500 C 338 511.110, 345.389 511.196, 348.106 513.617 C 350.513 515.763, 356.614 528.819, 357.665 534.074 C 357.987 535.683, 358.672 537, 359.188 537 C 359.704 537, 360.028 537.788, 359.909 538.750 C 359.790 539.712, 360.041 541.303, 360.467 542.285 C 360.892 543.266, 361.996 548.571, 362.919 554.073 C 364.522 563.630, 364.747 564.168, 367.949 566.115 C 371.226 568.108, 371.377 568.113, 374.771 566.327 C 382.730 562.138, 385.875 551.380, 384.050 534.586 C 383.458 529.133, 382.590 524.183, 382.121 523.586 C 381.652 522.989, 380.089 518.675, 378.647 514 C 375.513 503.840, 369.956 494.989, 362.347 488.035 C 355.381 481.668, 352.876 480.367, 343.974 478.494 C 336.146 476.848, 334.388 476.806, 328.500 478.128 M 699.466 509.669 C 695.603 514.143, 695.167 514.360, 689.199 514.792 C 683.097 515.233, 682.893 515.167, 679.550 511.621 C 677.671 509.630, 675.832 508, 675.462 508 C 675.091 508, 673.452 509.125, 671.818 510.500 C 667.370 514.243, 658 513.541, 658 509.465 C 658 507.276, 657.250 507.645, 653.866 511.500 C 651.487 514.210, 650.026 515, 647.396 515 C 644.809 515, 644 515.423, 644 516.777 C 644 518.747, 638.720 525, 637.056 525 C 636.457 525, 636 527.138, 636 529.941 C 636 532.659, 635.543 535.165, 634.984 535.510 C 634.425 535.856, 634.210 536.531, 634.507 537.011 C 634.803 537.491, 634.661 540.342, 634.189 543.347 C 633.538 547.500, 633.623 548.698, 634.546 548.344 C 636.260 547.686, 639.828 552.565, 640.585 556.601 C 640.936 558.471, 641.623 560, 642.111 560 C 642.600 560, 643 561.536, 643 563.413 C 643 566.785, 643.036 566.813, 645.979 565.702 C 648.515 564.745, 649.369 564.883, 651.729 566.636 C 654.396 568.617, 656.281 571.482, 657.438 575.312 C 657.942 576.981, 658.161 577.001, 660.215 575.562 C 664.235 572.747, 669.767 573.764, 674.665 578.219 C 676.826 580.185, 676.833 580.184, 678.290 577.844 C 679.093 576.555, 680.286 573.250, 680.940 570.500 C 681.595 567.750, 682.761 564.527, 683.531 563.337 C 685.275 560.644, 690.501 559.341, 692.594 561.078 C 693.562 561.881, 697.170 562.310, 702.615 562.268 C 710.035 562.211, 711.456 562.488, 713.722 564.437 C 715.974 566.375, 716.364 567.594, 716.643 573.586 C 717.136 584.169, 717.140 584.183, 719.034 582.469 C 719.920 581.667, 723.011 580.913, 725.930 580.786 C 730.587 580.583, 731.500 580.880, 733.548 583.261 C 735.709 585.773, 735.919 585.829, 736.486 584.045 C 737.338 581.361, 743.674 576, 745.995 576 C 747.055 576, 748.482 576.601, 749.168 577.335 C 750.192 578.431, 750.691 578.122, 751.958 575.607 C 753.776 571.996, 759.106 569.961, 762.004 571.771 C 763.569 572.748, 763.879 572.457, 764.435 569.494 C 764.785 567.627, 766.743 563.233, 768.786 559.732 C 772.271 553.757, 772.493 552.877, 772.382 545.433 C 772.254 536.795, 771.420 532.328, 769.504 530 C 768.824 529.175, 767.975 527.263, 767.615 525.750 C 767.052 523.378, 766.465 523, 763.349 523 C 758.716 523, 753.994 520.055, 751.675 515.718 L 749.849 512.305 747.001 515.152 C 744.927 517.227, 743.177 518, 740.557 518 C 736.315 518, 729.312 513.928, 728.015 510.707 C 727.440 509.277, 727.104 509.055, 727.063 510.076 C 727.029 510.942, 725.883 512.701, 724.517 513.984 C 722.519 515.861, 720.872 516.333, 716.086 516.398 C 709.163 516.492, 705.722 514.151, 704.325 508.394 L 703.500 504.997 699.466 509.669 M 661.174 522.314 C 657.081 526.671, 658.584 530.296, 666.774 535.821 C 669.923 537.945, 674.750 540.507, 677.500 541.514 C 680.250 542.521, 682.954 543.682, 683.509 544.094 C 685.878 545.856, 698.767 547.992, 707.286 548.034 C 722.427 548.110, 726.739 547.015, 743.500 538.837 C 746.800 537.227, 750.063 535.169, 750.750 534.263 C 752.820 531.538, 752.297 526.322, 749.777 524.557 C 746.623 522.347, 744.896 522.597, 739.900 525.982 C 737.480 527.622, 733.250 529.707, 730.500 530.614 C 727.750 531.522, 725.050 532.615, 724.500 533.044 C 723.950 533.473, 719.864 534.380, 715.420 535.059 C 706.805 536.376, 693.108 535.165, 690.305 532.838 C 689.561 532.220, 688.699 531.968, 688.390 532.277 C 687.432 533.235, 672.132 524.983, 670.118 522.423 C 667.704 519.353, 663.998 519.309, 661.174 522.314 M 506 530.477 C 501.325 531.166, 497.275 531.832, 497 531.957 C 496.725 532.083, 494.631 532.112, 492.348 532.023 C 490.064 531.934, 487.364 532.310, 486.348 532.859 C 484.692 533.753, 471.495 535.574, 448.500 538.080 C 444.100 538.560, 434.002 539.863, 426.061 540.976 C 418.119 542.089, 409.933 543, 407.870 543 C 405.806 543, 403.840 543.450, 403.500 544 C 403.160 544.550, 402.089 545, 401.120 545 C 399.696 545, 399.132 546.458, 398.174 552.617 C 396.672 562.283, 394.285 567.651, 388.884 573.510 C 382.568 580.362, 378.055 582.359, 370.293 581.735 C 366.821 581.457, 363.302 580.665, 362.472 579.977 C 361.208 578.927, 360.190 579.533, 356.168 583.727 C 349.482 590.700, 345.662 592.320, 337.045 591.833 C 331.925 591.543, 329.315 590.869, 327.169 589.283 L 324.253 587.127 321.376 590.178 C 312.849 599.225, 295.007 599.051, 286.289 589.837 C 285.073 588.552, 282.710 586.082, 281.039 584.349 C 279.367 582.616, 278 580.978, 278 580.710 C 278 580.085, 271.009 568.196, 268.895 565.225 C 267.333 563.029, 267.080 563, 259.395 564.115 C 255.053 564.746, 250.960 565.689, 250.300 566.212 C 249.640 566.734, 247.615 567.063, 245.800 566.942 C 243.985 566.822, 241.825 566.986, 241 567.306 C 240.175 567.627, 235.225 568.573, 230 569.409 C 224.775 570.244, 214.675 571.857, 207.555 572.992 C 200.436 574.127, 194.395 575.272, 194.131 575.536 C 193.638 576.029, 197.346 607.237, 199.048 616.917 C 199.571 619.896, 200 623.571, 200 625.083 C 200 626.596, 200.367 627.983, 200.816 628.167 C 201.592 628.483, 203.011 638.493, 208.589 683 C 209.933 693.725, 211.506 703.331, 212.086 704.348 C 212.665 705.364, 213.047 707.839, 212.936 709.848 C 212.824 711.856, 212.995 714.175, 213.315 715 C 213.635 715.825, 214.351 720.325, 214.905 725 C 219.727 765.662, 223.189 791.764, 223.941 793.108 C 224.435 793.992, 225.350 800.067, 225.975 806.608 C 226.599 813.149, 227.763 823, 228.561 828.500 C 230.417 841.291, 231.613 850.129, 233.097 862 C 233.750 867.225, 234.628 871.950, 235.049 872.500 C 235.470 873.050, 236.327 878, 236.953 883.500 C 237.579 889, 239.432 903.400, 241.072 915.500 C 242.711 927.600, 244.297 939.525, 244.595 942 C 244.893 944.475, 245.533 947.400, 246.017 948.500 C 246.500 949.600, 247.830 957.475, 248.971 966 C 250.112 974.525, 251.269 982.513, 251.542 983.750 C 252.045 986.031, 254.754 986.777, 256.550 985.128 C 257.073 984.649, 263.350 983.486, 270.500 982.543 C 298.011 978.919, 323.588 974.897, 325.604 973.880 C 326.761 973.296, 329.011 972.955, 330.604 973.122 C 332.198 973.290, 333.951 973.157, 334.501 972.827 C 335.050 972.498, 337.975 971.921, 341 971.545 C 344.025 971.169, 356.625 969.348, 369 967.499 C 381.375 965.649, 394.200 963.836, 397.500 963.471 C 400.800 963.106, 403.950 962.465, 404.500 962.046 C 405.477 961.302, 417.919 959.332, 437 956.900 C 444.385 955.958, 447.139 955.159, 449.370 953.308 C 456.756 947.182, 460.975 946.311, 496.855 943.511 C 507.500 942.680, 516.709 942, 517.318 942 C 517.927 942, 516.356 939.862, 513.828 937.250 C 508.966 932.226, 506.426 928.268, 506.817 926.325 C 506.947 925.679, 506.591 924.865, 506.027 924.516 C 504.707 923.701, 504.686 917.312, 506 916.500 C 506.550 916.160, 507 915.209, 507 914.386 C 507 909.778, 514.928 899, 518.317 899 C 518.663 899, 521.448 897.815, 524.506 896.367 C 527.565 894.919, 530.348 894.015, 530.692 894.358 C 531.035 894.702, 531.990 894.424, 532.813 893.741 C 534.557 892.295, 567.828 892.154, 570.125 893.583 C 570.881 894.053, 572.536 894.304, 573.803 894.141 C 575.070 893.977, 576.768 894.392, 577.577 895.064 C 578.386 895.736, 579.233 896.101, 579.458 895.875 C 579.683 895.650, 579.229 890.748, 578.449 884.983 C 577.668 879.217, 576.482 870.225, 575.811 865 C 575.141 859.775, 574.304 855.275, 573.950 855 C 573.597 854.725, 573.018 852.475, 572.664 850 C 572.310 847.525, 571.114 839.425, 570.006 832 C 568.104 819.253, 565.832 802.670, 564.457 791.500 C 564.118 788.750, 563.452 785.600, 562.977 784.500 C 562.501 783.400, 561.397 777.100, 560.523 770.500 C 559.650 763.900, 558.307 753.775, 557.539 748 C 556.772 742.225, 555.408 731.875, 554.509 725 C 553.609 718.125, 552.412 711.555, 551.848 710.401 C 551.285 709.246, 550.964 707.446, 551.137 706.401 C 551.309 705.355, 551.146 704.016, 550.774 703.425 C 550.403 702.834, 549.153 695.184, 547.998 686.425 C 544.339 658.686, 542.201 645.135, 541.238 643.576 C 540.882 643, 540.719 641.037, 540.876 639.214 C 541.033 637.391, 540.725 635.360, 540.190 634.700 C 539.656 634.040, 538.958 631.700, 538.639 629.500 C 538.321 627.300, 536.907 617.850, 535.497 608.500 C 534.087 599.150, 532.496 588.125, 531.962 584 C 530.686 574.145, 529.875 569.723, 529.119 568.500 C 528.778 567.950, 527.150 558.950, 525.500 548.500 L 522.500 529.500 518.500 529.363 C 516.300 529.287, 510.675 529.789, 506 530.477 M 538.527 537.750 C 538.866 539.813, 539.542 542.400, 540.029 543.500 C 540.729 545.083, 546.588 581.998, 549.543 603.450 C 549.843 605.623, 550.571 607.983, 551.162 608.695 C 551.753 609.407, 552 610.891, 551.712 611.994 C 551.424 613.096, 551.596 614.250, 552.094 614.558 C 552.592 614.866, 553 616.385, 553 617.934 C 553 619.483, 553.284 622.168, 553.630 623.901 C 554.299 627.246, 554.708 627.291, 561 624.706 C 562.375 624.141, 564.096 623.779, 564.824 623.901 C 565.552 624.022, 566.677 623.694, 567.324 623.172 C 568.819 621.964, 582.180 618.684, 597 615.886 C 603.325 614.691, 608.845 613.411, 609.266 613.041 C 610.071 612.334, 596.027 603, 594.156 603 C 593.559 603, 592.620 602.159, 592.070 601.130 C 591.519 600.102, 589.549 598.539, 587.691 597.658 C 583.784 595.804, 562 575.395, 562 573.588 C 562 572.921, 560.650 571.378, 559 570.158 C 557.350 568.938, 556 567.019, 556 565.893 C 556 564.767, 554.763 562.608, 553.250 561.094 C 550.360 558.203, 542 542.924, 542 540.535 C 542 539.769, 541.296 538.439, 540.436 537.579 C 539.576 536.719, 539.153 535.562, 539.495 535.008 C 539.838 534.453, 539.621 534, 539.014 534 C 538.295 534, 538.125 535.308, 538.527 537.750 M 808.568 622.890 C 807.758 624.200, 793.151 628.864, 784.238 630.659 C 779.982 631.516, 775.375 632.454, 774 632.743 C 772.625 633.032, 770.957 633.697, 770.294 634.220 C 769.630 634.744, 768.649 634.901, 768.113 634.570 C 767.577 634.238, 766.888 634.372, 766.583 634.866 C 766.109 635.632, 760.495 636.544, 750 637.558 C 748.625 637.691, 743.067 638.302, 737.650 638.916 C 726.844 640.139, 693.306 639.447, 689.283 637.917 C 687.956 637.413, 684.524 637, 681.657 637 C 678.558 637, 675.544 636.369, 674.223 635.443 C 673 634.587, 672 634.192, 672 634.566 C 672 634.939, 671.438 634.802, 670.750 634.260 C 670.063 633.718, 666.800 633.003, 663.500 632.672 C 660.200 632.340, 654.350 630.985, 650.500 629.662 C 646.650 628.338, 642.204 626.949, 640.620 626.575 C 637.974 625.952, 637.793 626.084, 638.394 628.198 C 638.753 629.464, 639.564 632.638, 640.196 635.250 C 640.827 637.862, 641.681 640, 642.094 640 C 642.507 640, 643.393 641.660, 644.062 643.688 C 644.807 645.944, 648.039 650.117, 652.390 654.438 C 661.463 663.449, 675.763 670.838, 689.500 673.612 C 703.620 676.464, 727.165 675.995, 741.421 672.578 C 747.428 671.139, 752.828 669.558, 753.421 669.066 C 754.014 668.573, 754.950 668.075, 755.500 667.958 C 761.598 666.663, 776.550 659.160, 783.522 653.896 C 786.360 651.753, 789.046 650, 789.491 650 C 790.183 650, 802 637.968, 802 637.264 C 802 637.126, 804.219 633.992, 806.931 630.299 C 811.486 624.096, 812.261 622, 810 622 C 809.515 622, 808.871 622.400, 808.568 622.890 M 384.756 644.688 C 379.530 646.055, 366.488 653.558, 359.500 659.218 C 349.337 667.450, 330.089 687.898, 328.888 691.739 C 328.674 692.420, 327.248 694.445, 325.718 696.239 C 322.064 700.521, 312.184 715.802, 307.768 724 C 305.842 727.575, 303.169 732.525, 301.828 735 C 300.487 737.475, 297.674 743.550, 295.577 748.500 C 293.481 753.450, 291.415 757.950, 290.987 758.500 C 289.875 759.929, 284.393 776.323, 282.459 784 C 281.558 787.575, 280.486 790.950, 280.076 791.500 C 278.951 793.010, 277.175 802.574, 276.455 811 C 275.880 817.729, 276.037 818.783, 277.980 821.250 C 282.265 826.692, 288.104 823.454, 288.448 815.445 C 288.777 807.781, 290.159 800, 291.192 800 C 291.705 800, 292.028 799.212, 291.909 798.250 C 291.790 797.288, 291.965 795.825, 292.298 795 C 292.630 794.175, 294.015 789.450, 295.375 784.500 C 300.444 766.042, 304.503 756.658, 320.458 726.500 C 322.495 722.650, 324.688 719.050, 325.331 718.500 C 325.974 717.950, 327.144 716.253, 327.931 714.728 C 331.592 707.634, 348.769 686.503, 358.446 677.186 C 369.963 666.100, 377.235 660.861, 383.536 659.112 C 390.156 657.274, 392.919 657.657, 394.025 660.565 C 395.197 663.650, 395.326 672, 394.201 672 C 393.761 672, 393.579 673.522, 393.796 675.382 C 394.014 677.242, 393.698 679.068, 393.096 679.441 C 392.493 679.813, 391.999 681.104, 391.997 682.309 C 391.995 684.247, 389.475 694.575, 384.386 713.500 C 383.499 716.800, 382.432 719.725, 382.015 720 C 381.598 720.275, 380.219 723.734, 378.952 727.687 C 376.757 734.529, 376.403 735.005, 371.573 737.589 C 364.553 741.345, 354.391 749.751, 347.928 757.149 C 340.237 765.952, 331.292 777.899, 329.365 781.942 C 328.463 783.835, 325.874 788.176, 323.612 791.589 C 315.722 803.496, 310.199 814.337, 305.324 827.489 C 304.511 829.683, 303.543 831.708, 303.173 831.989 C 301.510 833.252, 293 862.413, 293 866.845 C 293 868.515, 292.550 870.160, 292 870.500 C 291.450 870.840, 291 874.231, 291 878.035 C 291 886.006, 292.873 890.028, 298.053 893.178 L 301.306 895.157 305.512 892.994 C 307.825 891.804, 311.281 888.956, 313.191 886.665 C 317.732 881.218, 330 863.213, 330 861.995 C 330 861.474, 332.587 856.649, 335.750 851.274 C 341.338 841.776, 350.437 823.907, 360.079 803.500 C 366.271 790.394, 370.342 781.621, 370.520 781 C 370.599 780.725, 371.639 778.325, 372.832 775.667 C 374.024 773.009, 375 770.618, 375 770.353 C 375 770.088, 376.063 767.538, 377.362 764.686 C 378.661 761.834, 380.071 758.396, 380.494 757.047 C 380.918 755.697, 381.879 753.978, 382.632 753.225 C 383.384 752.473, 384 751.214, 384 750.429 C 384 747.295, 385.867 749.251, 386.510 753.058 C 387.210 757.200, 384.260 772.179, 381.499 778.500 C 380.779 780.150, 379.658 783.525, 379.008 786 C 378.358 788.475, 376.922 793.574, 375.817 797.332 C 373.498 805.219, 373.970 810.165, 377.262 812.471 C 380.992 815.083, 384.013 814.345, 388.421 809.743 C 392.631 805.350, 400.663 793.593, 402.764 788.750 C 403.420 787.237, 404.417 786, 404.979 786 C 405.540 786, 406 785.506, 406 784.902 C 406 784.299, 409.938 778.170, 414.750 771.283 C 419.563 764.396, 423.950 758.087, 424.500 757.264 C 425.602 755.615, 429.339 751.131, 433.470 746.500 L 436.147 743.500 435.587 747.591 C 435.279 749.842, 433.881 755.639, 432.480 760.474 C 430.369 767.755, 430.118 769.827, 431.014 772.544 C 431.610 774.347, 432.787 776.088, 433.630 776.412 C 437.907 778.053, 440.925 776.861, 449.243 770.250 C 453.914 766.538, 459.932 761.920, 462.618 759.990 C 470.962 753.991, 491.584 743.004, 500.083 740.030 C 509.227 736.829, 513 734.099, 513 730.681 C 513 726.171, 505.591 722.067, 502.450 724.838 C 501.928 725.299, 498.575 726.709, 495 727.972 C 491.425 729.234, 487.612 730.882, 486.527 731.633 C 485.443 732.385, 483.840 733, 482.966 733 C 482.092 733, 480.505 733.800, 479.439 734.779 C 478.372 735.757, 474.946 737.798, 471.825 739.316 C 468.703 740.833, 462.783 744.532, 458.669 747.537 C 454.554 750.542, 450.844 753, 450.423 753 C 450.002 753, 448.874 753.709, 447.916 754.576 C 446.274 756.062, 446.231 755.905, 447.178 751.826 C 447.730 749.447, 448.413 746.825, 448.697 746 C 449.575 743.447, 449.271 736.635, 448.154 733.802 C 445.404 726.832, 438.383 726.514, 430.248 732.991 C 425.137 737.061, 411.146 753.563, 408.527 758.610 C 407.709 760.186, 405.855 762.831, 404.407 764.488 C 402.959 766.145, 400.218 770.200, 398.318 773.500 C 396.417 776.800, 395.127 778.375, 395.450 777 C 399.047 761.731, 399.871 752.606, 398.345 744.973 C 397.961 743.056, 396.048 740.103, 393.734 737.858 C 389.482 733.731, 389.352 732.364, 392.554 725.500 C 394.989 720.280, 403 691.399, 403 687.840 C 403 686.828, 403.482 686, 404.072 686 C 404.661 686, 405.044 684.987, 404.923 683.750 C 404.802 682.513, 405.091 680.600, 405.566 679.500 C 406.041 678.400, 406.445 673, 406.465 667.500 C 406.497 658.301, 406.284 657.168, 403.805 653.357 C 400.865 648.837, 395.566 644.532, 394.076 645.453 C 393.560 645.772, 392.856 645.575, 392.510 645.016 C 391.880 643.997, 388.021 643.834, 384.756 644.688 M 657 677.893 C 657 679.002, 660.076 680.257, 660.864 679.469 C 661.182 679.151, 660.780 678.473, 659.971 677.961 C 658.101 676.778, 657 676.753, 657 677.893 M 360.846 760.778 C 357.246 764.475, 353.247 769.075, 351.958 771 C 350.669 772.925, 348.759 775.400, 347.714 776.500 C 344.370 780.019, 331.349 800.841, 328.016 808 C 327.632 808.825, 325.912 812.034, 324.195 815.131 C 322.478 818.228, 319.979 823.668, 318.642 827.220 C 317.304 830.772, 315.050 836.133, 313.631 839.132 C 310.723 845.280, 305.502 864.983, 304.465 873.724 L 303.780 879.500 306.862 875.500 C 308.557 873.300, 309.957 871.124, 309.972 870.663 C 309.987 870.203, 311.417 867.854, 313.148 865.443 C 314.880 863.032, 318.228 857.784, 320.589 853.780 C 330.966 836.180, 358 781.595, 358 778.242 C 358 777.650, 358.449 777.017, 358.999 776.833 C 360.174 776.441, 368.470 755.137, 367.734 754.401 C 367.545 754.212, 364.445 757.081, 360.846 760.778 M 496.500 784.497 C 495.950 784.683, 490.775 786.283, 485 788.051 C 479.225 789.820, 473.600 791.747, 472.500 792.334 C 469.184 794.103, 449.664 802.110, 447.250 802.691 C 446.012 802.989, 445 803.576, 445 803.995 C 445 804.414, 443.538 805.334, 441.750 806.039 C 435.563 808.478, 423.494 814.450, 422.179 815.722 C 421.452 816.425, 420.343 817, 419.714 817 C 418.292 817, 403.050 824.797, 400.978 826.585 C 400.140 827.307, 395.891 829.764, 391.534 832.045 C 387.178 834.327, 382.238 837.213, 380.557 838.461 C 378.876 839.708, 374.238 842.609, 370.250 844.908 C 366.262 847.207, 363 849.518, 363 850.044 C 363 850.570, 362.488 851, 361.862 851 C 360.209 851, 345.162 862.019, 342.507 865.174 C 340.036 868.110, 340.125 872.029, 342.710 874.175 C 345.196 876.238, 350.172 875.204, 353.336 871.968 C 354.932 870.335, 356.684 869, 357.229 869 C 357.774 869, 361.208 866.848, 364.860 864.218 C 374.210 857.485, 382.681 852, 383.731 852 C 384.221 852, 385.495 851.197, 386.561 850.215 C 387.628 849.232, 390.300 847.509, 392.500 846.385 C 394.700 845.261, 399.425 842.622, 403 840.521 C 408.780 837.124, 422.082 830.010, 433.500 824.211 C 435.700 823.093, 440.425 820.919, 444 819.380 C 447.575 817.840, 451.175 816.060, 452 815.425 C 453.600 814.192, 471.885 806.992, 473.403 806.997 C 473.900 806.999, 477.050 805.708, 480.403 804.129 C 483.756 802.549, 490.385 800.076, 495.133 798.632 C 503.814 795.992, 507 793.526, 507 789.445 C 507 785.988, 500.768 783.051, 496.500 784.497 M 853.569 803.750 C 852.651 806.362, 850.754 811.875, 849.354 816 C 847.953 820.125, 846.346 824.063, 845.781 824.750 C 845.217 825.438, 845.090 826, 845.500 826 C 845.910 826, 845.681 826.679, 844.993 827.509 C 844.304 828.339, 842.942 831.826, 841.967 835.259 C 840.991 838.692, 838.981 845.775, 837.500 851 C 836.018 856.225, 834.478 860.950, 834.078 861.500 C 833.035 862.933, 831 870.369, 831 872.747 C 831 873.883, 832.558 875.951, 834.567 877.484 C 836.708 879.116, 838.060 879.664, 837.949 878.852 C 837.556 875.990, 838.069 874.303, 839.949 872.285 C 841.578 870.537, 841.723 869.723, 840.829 867.346 C 839.972 865.066, 840.230 862.809, 842.129 856 C 843.433 851.325, 844.437 846.938, 844.361 846.250 C 844.285 845.563, 844.649 845, 845.170 845 C 845.691 845, 845.809 844.500, 845.431 843.888 C 845.053 843.277, 845.170 842.489, 845.692 842.138 C 846.213 841.787, 848.563 833.625, 850.914 824 C 853.265 814.375, 855.561 806.108, 856.016 805.628 C 856.471 805.149, 856.604 804.130, 856.310 803.365 C 856.016 802.600, 856.332 801.305, 857.011 800.487 C 858.010 799.283, 857.959 799, 856.741 799 C 855.848 799, 854.560 800.929, 853.569 803.750 M 854 867.981 C 854 868.541, 855.425 869, 857.167 869 C 860.808 869, 860.676 868.563, 856.750 867.622 C 855.117 867.230, 854 867.376, 854 867.981 M 851.558 886.250 C 851.349 886.938, 850.192 892, 848.987 897.500 C 847.782 903, 846.427 907.892, 845.976 908.372 C 845.525 908.851, 845.396 909.870, 845.690 910.635 C 845.984 911.400, 845.772 912.582, 845.220 913.263 C 844.365 914.317, 837 938.620, 837 940.387 C 837 940.724, 838.376 941, 840.057 941 C 841.739 941, 845.132 941.508, 847.598 942.129 C 854.483 943.863, 856.832 950.025, 852.325 954.532 C 850.990 955.867, 846.114 956.064, 816.141 955.988 C 759.006 955.843, 670.949 952.865, 668.500 950.994 C 667.950 950.574, 661.875 949.665, 655 948.974 C 648.125 948.283, 641.620 947.266, 640.544 946.714 C 639.469 946.161, 635.419 942.718, 631.544 939.061 C 627.670 935.404, 622.025 930.556, 619 928.287 C 613.012 923.797, 598.168 916.062, 591 913.697 C 575.751 908.665, 542.462 906.788, 530.816 910.302 C 521.316 913.169, 518.333 919.676, 523.630 925.972 C 527.001 929.978, 533.433 933.205, 543.500 935.941 C 547.900 937.137, 552.175 938.384, 553 938.711 C 553.825 939.039, 555.288 939.210, 556.250 939.091 C 557.212 938.972, 558 939.353, 558 939.937 C 558 940.522, 558.867 941, 559.927 941 C 561.967 941, 566 945.369, 566 947.579 C 566 948.299, 564.937 950.124, 563.637 951.635 C 561.406 954.230, 560.754 954.394, 551.887 954.609 C 546.724 954.734, 538 955.306, 532.500 955.879 C 527 956.453, 518.225 957.165, 513 957.461 C 489.696 958.784, 484.971 959.140, 476.503 960.212 C 471.554 960.839, 466.910 961.947, 466.181 962.676 C 465.453 963.404, 464.284 964, 463.584 964 C 462.883 964, 461.525 964.867, 460.566 965.927 C 459.040 967.613, 458.989 968.204, 460.161 970.640 C 462.775 976.077, 472.905 980.497, 488.500 983.005 C 492.350 983.624, 496.400 984.566, 497.500 985.098 C 498.600 985.629, 507.092 986.405, 516.371 986.822 C 533.156 987.576, 533.255 987.595, 535.621 990.346 C 538.535 993.734, 538.625 995.953, 535.961 998.811 C 533.667 1001.273, 534.210 1001.208, 516.500 1001.168 C 503.618 1001.139, 483.575 998.679, 481.339 996.852 C 478.813 994.788, 479.170 997.935, 481.888 1001.686 C 484.947 1005.910, 495.069 1015, 496.712 1015 C 497.260 1015, 498.821 1016.013, 500.182 1017.250 C 502.850 1019.676, 517.215 1027, 519.305 1027 C 520.005 1027, 522.204 1027.829, 524.192 1028.843 C 530.707 1032.165, 541.118 1034.337, 559 1036.106 C 569.614 1037.157, 574.895 1037.090, 594 1035.666 C 624.684 1033.378, 625.870 1033.425, 638.946 1037.440 C 645.108 1039.332, 650.679 1041.292, 651.325 1041.795 C 651.971 1042.299, 653.400 1042.949, 654.500 1043.240 C 655.600 1043.531, 660.100 1044.764, 664.500 1045.980 C 668.900 1047.197, 674.975 1048.834, 678 1049.618 C 681.025 1050.402, 684.175 1051.332, 685 1051.685 C 685.825 1052.038, 686.725 1052.405, 687 1052.500 C 687.275 1052.595, 688.175 1052.944, 689 1053.275 C 691.086 1054.113, 713.829 1059.563, 723.500 1061.542 C 727.900 1062.442, 731.950 1063.540, 732.500 1063.981 C 734.588 1065.658, 785.411 1074, 793.534 1074 C 795.375 1074, 797.179 1074.481, 797.542 1075.068 C 797.907 1075.659, 800.530 1076.028, 803.415 1075.894 C 806.283 1075.761, 809.257 1076.041, 810.024 1076.515 C 811.817 1077.623, 852.282 1077.562, 854.084 1076.448 C 854.832 1075.986, 857.100 1075.727, 859.125 1075.873 C 861.149 1076.019, 863.636 1075.678, 864.652 1075.114 C 865.669 1074.550, 870.304 1073.362, 874.953 1072.473 C 889.670 1069.659, 899.685 1065.485, 911.252 1057.345 C 913.866 1055.505, 916.162 1054, 916.355 1054 C 916.548 1054, 919.823 1050.951, 923.632 1047.223 C 934.133 1036.949, 944.909 1022.810, 950.857 1011.500 C 957.121 999.590, 962.096 988.306, 965.403 978.500 C 967.444 972.450, 969.554 966.600, 970.092 965.500 C 971.222 963.190, 975.098 949.324, 978.059 937 C 979.182 932.325, 980.730 927.150, 981.500 925.500 C 982.269 923.850, 982.584 922.196, 982.199 921.824 C 979.352 919.070, 947.794 904.882, 947.404 906.180 C 947.351 906.356, 946.656 905.959, 945.860 905.299 C 943.980 903.738, 924.815 897.470, 919 896.514 C 916.525 896.107, 913.938 895.320, 913.250 894.764 C 912.563 894.209, 912 894.090, 912 894.500 C 912 894.910, 911.438 894.793, 910.750 894.240 C 908.604 892.515, 881.906 887.485, 867.144 886.025 C 853.837 884.708, 852.018 884.734, 851.558 886.250" stroke="none" fill="#171916" fill-rule="evenodd"/>
</svg>