<svg role="img" aria-labelledby="artwork-title" shape-rendering="geometricPrecision" xmlns="http://www.w3.org/2000/svg" width="1200" height="1200" viewBox="0 0 1200 1200" version="1.1">
	<title id="artwork-title">Mascot adjusting his sunglasses</title>
	<path d="M 742.710 82 C 742.332 83.448, 741.346 84, 739.143 84 C 735.439 84, 725.880 85.948, 724.500 86.984 C 723.950 87.397, 721.250 88.474, 718.500 89.376 C 710.695 91.938, 694.731 104.820, 687.011 114.787 C 685.642 116.554, 684.168 118, 683.735 118 C 683.302 118, 680.951 116.088, 678.511 113.750 C 672.593 108.080, 668.816 105.261, 665.397 103.961 C 663.840 103.369, 661.922 102.348, 661.136 101.692 C 659.740 100.527, 655.637 99.308, 643.500 96.453 C 632.765 93.928, 617.958 94.816, 601 99.001 C 598.525 99.612, 595.600 100.693, 594.500 101.404 C 593.400 102.115, 590.790 103.257, 588.700 103.943 C 586.609 104.628, 584.364 106.046, 583.709 107.094 C 583.055 108.142, 581.969 109, 581.296 109 C 577.909 109, 560 129.039, 560 132.829 C 560 133.447, 559.102 135.425, 558.004 137.226 C 556.906 139.027, 556.006 141.033, 556.004 141.685 C 556.002 142.337, 555.462 144.137, 554.805 145.685 C 554.147 147.233, 553.520 148.950, 553.410 149.500 C 552.975 151.685, 551.744 155, 551.368 155 C 551.149 155, 548.592 153.658, 545.686 152.018 C 542.040 149.961, 537.936 148.697, 532.451 147.943 C 528.078 147.342, 524.073 146.433, 523.550 145.925 C 522.355 144.761, 515.299 144.706, 514.590 145.855 C 514.299 146.325, 510.560 146.960, 506.281 147.265 C 501.596 147.600, 496.709 148.644, 494 149.889 C 491.525 151.026, 488.647 151.966, 487.604 151.978 C 483.306 152.028, 465.243 166.968, 459.769 175 C 458.832 176.375, 456.701 179.428, 455.033 181.785 C 453.365 184.142, 452 186.251, 452 186.470 C 452 186.690, 451.604 187.912, 451.120 189.185 C 450.636 190.458, 450.154 191.950, 450.049 192.500 C 449.943 193.050, 449.256 194.175, 448.522 195 C 446.197 197.611, 444.848 204.959, 444.873 214.887 C 444.899 225.622, 445.938 230.241, 449.081 233.586 C 452.024 236.719, 451.027 237.629, 443.955 238.270 C 440.598 238.575, 437.098 239.464, 436.176 240.247 C 435.254 241.030, 433.037 242.249, 431.250 242.957 C 429.462 243.664, 428 244.608, 428 245.054 C 428 245.500, 427.211 246.116, 426.246 246.422 C 424.729 246.903, 414.299 256.597, 410.561 261 C 406.134 266.213, 399 284.616, 399 290.820 C 399 292.569, 398.550 294, 398 294 C 396.695 294, 396.695 304.693, 398 305.500 C 398.550 305.840, 399 307.721, 399 309.681 C 399 313.780, 408.495 334, 410.419 334 C 411.747 334, 417 339.126, 417 340.422 C 417 340.869, 415.229 342.953, 413.064 345.054 C 410.728 347.321, 407.818 351.847, 405.907 356.187 C 402.969 362.858, 402.689 364.378, 402.719 373.500 C 402.746 381.713, 403.239 384.927, 405.479 391.483 C 408.758 401.081, 415.849 409.982, 422.932 413.390 C 426.344 415.032, 427.426 416.083, 427.206 417.544 C 427.044 418.620, 426.891 421.391, 426.865 423.703 C 426.801 429.385, 425.089 430.706, 419.671 429.257 C 410.831 426.893, 397.280 425.750, 384.500 426.291 C 370.679 426.876, 353.722 429.452, 353.165 431.050 C 352.980 431.580, 352.418 431.758, 351.915 431.447 C 351.412 431.136, 351 431.359, 351 431.941 C 351 432.523, 350.163 433, 349.141 433 C 346.061 433, 335.929 438.886, 328.707 444.871 C 324.970 447.967, 320.783 451.099, 319.401 451.831 C 318.019 452.563, 316.475 454.251, 315.969 455.581 C 315.463 456.912, 314.619 458, 314.092 458 C 313.566 458, 312.872 458.828, 312.551 459.839 C 311.453 463.298, 301.964 471.633, 295.414 474.893 C 290.774 477.202, 286.272 480.758, 279.935 487.119 C 275.021 492.052, 271 496.464, 271 496.922 C 271 497.381, 268.674 500.295, 265.832 503.398 C 262.990 506.501, 260.177 509.867, 259.582 510.877 C 257.024 515.219, 253.003 520.880, 252.065 521.460 C 251.506 521.805, 249.433 524.881, 247.457 528.294 C 245.482 531.707, 242.529 536.300, 240.896 538.500 C 239.262 540.700, 236.319 545.875, 234.355 550 C 232.392 554.125, 229.073 561.100, 226.981 565.500 C 224.889 569.900, 221.738 579.125, 219.978 586 C 218.219 592.875, 216.518 599.175, 216.197 600 C 215.877 600.825, 215.577 601.950, 215.531 602.500 C 215.485 603.050, 215.178 603.950, 214.849 604.500 C 214.520 605.050, 213.539 610, 212.669 615.500 C 209.615 634.802, 208.783 645.685, 209.483 657.176 L 210.172 668.500 206.117 674.250 C 203.887 677.413, 202.352 680, 202.705 680 C 203.059 680, 202.400 681.013, 201.241 682.250 C 200.082 683.488, 198.646 685.625, 198.051 687 C 197.027 689.364, 195.267 692.636, 186.757 708 C 177.163 725.319, 156 767.200, 156 768.866 C 156 769.424, 154.133 773.846, 151.851 778.691 C 147.943 786.985, 145.528 793.349, 140.915 807.500 C 139.840 810.800, 138.657 814.175, 138.287 815 C 137.917 815.825, 137.545 816.950, 137.460 817.500 C 137.376 818.050, 137.048 819.175, 136.731 820 C 135.267 823.814, 133.082 832.243, 131.547 840 C 130.621 844.675, 129.445 850.075, 128.932 852 C 128.420 853.925, 127.472 861.913, 126.826 869.750 C 126.181 877.587, 125.281 884, 124.826 884 C 124.372 884, 124 885.800, 124 888 C 124 890.200, 124.384 892, 124.854 892 C 125.323 892, 126.223 897.090, 126.854 903.310 C 128.103 915.629, 131.216 929.363, 134.029 934.955 C 135.009 936.905, 137.496 942.063, 139.556 946.418 C 142.705 953.075, 145.069 956.119, 154.401 965.531 C 160.505 971.689, 167.300 977.695, 169.500 978.880 C 171.700 980.064, 176.265 982.555, 179.644 984.415 C 183.023 986.276, 186.839 988.132, 188.125 988.540 C 189.410 988.947, 191.595 990.102, 192.981 991.105 C 194.366 992.109, 197.300 993.384, 199.500 993.939 C 205.088 995.348, 215.314 997.856, 223 999.702 C 226.575 1000.560, 234.347 1001.487, 240.271 1001.761 C 246.195 1002.035, 251.284 1002.650, 251.580 1003.129 C 252.353 1004.380, 320.725 1004.254, 321.500 1003 C 321.840 1002.450, 324.564 1002, 327.553 1002 C 332.798 1002, 333.095 1002.148, 336.061 1006.250 C 341.231 1013.397, 347.405 1015.651, 355.814 1013.460 C 358.898 1012.657, 364.419 1012, 368.084 1012 C 371.750 1012, 376.493 1011.390, 378.624 1010.644 C 380.756 1009.899, 387 1008.748, 392.500 1008.088 C 401.519 1007.005, 406.649 1005.946, 411 1004.270 C 411.825 1003.953, 413.248 1003.783, 414.161 1003.894 C 415.075 1004.005, 416.114 1003.624, 416.470 1003.048 C 417.432 1001.492, 421.572 1001.779, 423 1003.500 C 423.994 1004.697, 423.992 1005.305, 422.991 1006.511 C 422.141 1007.535, 421.602 1013.262, 421.320 1024.261 C 421.087 1033.342, 420.291 1042.924, 419.514 1046 C 418.608 1049.585, 417.923 1060.378, 417.545 1077 C 417.227 1091.025, 416.715 1106.438, 416.408 1111.250 L 415.850 1120 660.925 1120 L 906 1120 906 1113.667 C 906 1110.183, 905.700 1107.033, 905.333 1106.667 C 904.967 1106.300, 904.774 1103.047, 904.904 1099.438 C 905.035 1095.829, 904.721 1092.342, 904.206 1091.688 C 903.691 1091.035, 902.978 1086.838, 902.621 1082.362 C 901.858 1072.798, 901.654 1072.995, 912.332 1073.010 C 919.666 1073.019, 948.297 1070.229, 951 1069.241 C 951.825 1068.939, 953.314 1068.795, 954.310 1068.919 C 955.305 1069.044, 956.655 1068.708, 957.310 1068.174 C 958.572 1067.143, 971.908 1064.053, 988.577 1060.930 C 994.119 1059.892, 1000.419 1058.282, 1002.577 1057.352 C 1004.735 1056.423, 1007.760 1055.774, 1009.300 1055.912 C 1010.841 1056.049, 1012.641 1055.769, 1013.300 1055.290 C 1014.606 1054.343, 1022.305 1051.875, 1031 1049.618 C 1034.025 1048.833, 1037.504 1047.872, 1038.732 1047.483 C 1041.719 1046.537, 1043 1049.940, 1043 1058.822 C 1043 1062.502, 1043.475 1067.085, 1044.057 1069.007 C 1044.638 1070.928, 1045.324 1077.398, 1045.581 1083.385 C 1045.838 1089.371, 1046.313 1094.698, 1046.637 1095.222 C 1046.961 1095.745, 1047.152 1101.535, 1047.061 1108.087 L 1046.897 1120 1057.823 1120 L 1068.750 1120 1069.312 1117.189 C 1070.234 1112.578, 1065.166 1050.294, 1063.417 1044.750 C 1062.487 1041.801, 1063.850 1039.453, 1067.770 1037.249 C 1069.832 1036.091, 1072.580 1033.706, 1073.878 1031.951 C 1076.032 1029.038, 1076.199 1028.009, 1075.788 1020.186 C 1075.541 1015.471, 1074.878 1011.459, 1074.314 1011.271 C 1073.751 1011.084, 1073.503 1009.818, 1073.763 1008.459 C 1074.023 1007.100, 1073.788 1005.429, 1073.241 1004.744 C 1072.694 1004.060, 1071.940 1000.800, 1071.565 997.500 C 1070.594 988.947, 1062.335 955.257, 1060.043 950.500 C 1058.983 948.300, 1057.676 944.700, 1057.137 942.500 C 1056.208 938.703, 1051.669 925.977, 1048.934 919.500 C 1048.238 917.850, 1047.593 916.275, 1047.502 916 C 1047.411 915.725, 1045.865 912.350, 1044.066 908.500 C 1042.267 904.650, 1040.220 899.908, 1039.517 897.963 C 1038.814 896.017, 1036.385 891.397, 1034.119 887.695 C 1031.854 883.993, 1030 880.703, 1030 880.383 C 1030 879.095, 1022.652 868, 1021.799 868 C 1021.295 868, 1021.160 867.550, 1021.500 867 C 1021.840 866.450, 1021.672 866, 1021.126 866 C 1020.581 866, 1019.834 865.054, 1019.467 863.897 C 1018.481 860.791, 1014.823 855.652, 1005.883 844.814 C 996.859 833.875, 988.873 826.134, 976.793 816.613 C 964.318 806.781, 964.006 806.565, 956.815 802.763 C 953.139 800.820, 948.752 798.247, 947.065 797.047 C 945.379 795.846, 944 795.122, 944 795.438 C 944 795.754, 942.132 794.660, 939.850 793.006 C 937.567 791.353, 935.148 790, 934.472 790 C 933.797 790, 932.685 789.325, 932 788.500 C 931.315 787.675, 929.982 787, 929.037 787 C 927.507 787, 923.059 785.029, 910.719 778.883 C 908.640 777.847, 906.433 777, 905.816 777 C 905.198 777, 902.400 775.925, 899.596 774.611 C 896.793 773.298, 892.623 771.914, 890.328 771.537 C 888.034 771.159, 885.925 770.247, 885.642 769.509 C 885.359 768.772, 882.532 767.629, 879.360 766.971 C 876.189 766.313, 872.223 765.184, 870.547 764.463 C 868.871 763.743, 864.575 762.426, 861 761.537 C 854.932 760.029, 853.021 759.596, 847.250 758.420 C 843.474 757.651, 844.711 755.321, 850.887 751.569 C 854.125 749.602, 858.399 746.194, 860.384 743.996 C 862.370 741.798, 864.386 740, 864.864 740 C 866.047 740, 873 730.976, 873 729.439 C 873 727.799, 879.671 722, 881.557 722 C 884.202 722, 891.549 714.246, 894.545 708.294 C 896.149 705.107, 899.260 699.800, 901.459 696.500 C 903.657 693.200, 906.432 688.418, 907.625 685.873 C 910.214 680.351, 911.481 679.405, 914.345 680.855 C 916.361 681.875, 929.379 684.470, 938.554 685.681 C 940.839 685.982, 945.347 685.514, 948.885 684.608 C 952.337 683.724, 956.178 683, 957.421 683 C 959.367 683, 969.388 678.746, 974 675.963 C 974.825 675.465, 978.116 673.616, 981.314 671.855 C 984.511 670.094, 987.951 667.606, 988.958 666.327 C 989.964 665.047, 991.192 664, 991.686 664 C 992.980 664, 1000.042 656.373, 1004.418 650.250 C 1006.482 647.362, 1008.488 645, 1008.877 645 C 1009.265 645, 1010.307 643.537, 1011.192 641.750 C 1012.077 639.962, 1014.421 635.408, 1016.401 631.630 C 1018.380 627.851, 1020 623.913, 1020 622.880 C 1020 621.846, 1020.498 621, 1021.107 621 C 1021.716 621, 1021.955 620.325, 1021.638 619.500 C 1021.322 618.675, 1021.389 618, 1021.788 618 C 1022.986 618, 1024.712 611.161, 1026.535 599.188 C 1028.236 588.014, 1028.230 587.734, 1026.028 576.188 C 1024.801 569.760, 1023.297 563.600, 1022.684 562.500 C 1022.072 561.400, 1021.553 560.275, 1021.532 560 C 1021.510 559.725, 1020.257 557.395, 1018.746 554.822 C 1017.236 552.249, 1016 549.740, 1016 549.246 C 1016 548.753, 1014.875 547.292, 1013.500 546 C 1012.125 544.708, 1011.013 542.942, 1011.029 542.076 C 1011.060 540.411, 1016.411 534, 1017.770 534 C 1018.797 534, 1029 523.690, 1029 522.652 C 1029 521.978, 1033.512 515.466, 1034.994 514 C 1041.049 508.013, 1044.138 483.309, 1039.978 474.141 C 1038.890 471.743, 1038 468.924, 1038 467.877 C 1038 466.820, 1040.778 463.418, 1044.239 460.236 C 1055.865 449.547, 1062.757 441.789, 1064.762 437.137 C 1069.169 426.908, 1071.084 421.084, 1071.670 416.135 C 1072.009 413.278, 1072.671 410.703, 1073.143 410.412 C 1074.279 409.710, 1074.252 394.274, 1073.113 393.570 C 1072.626 393.269, 1071.921 391.330, 1071.547 389.261 C 1070.555 383.770, 1066.883 373.957, 1064.527 370.500 C 1056.374 358.539, 1048.729 350.513, 1042.250 347.111 C 1039.377 345.603, 1039.244 340.994, 1042 338.500 C 1043.100 337.505, 1044 336.267, 1044 335.749 C 1044 335.232, 1045.011 333.389, 1046.246 331.654 C 1047.481 329.919, 1048.435 328.275, 1048.366 328 C 1048.296 327.725, 1048.678 326.375, 1049.214 325 C 1050.736 321.098, 1052.992 306.099, 1052.996 299.860 C 1053.002 291.281, 1050.209 278.246, 1046.812 271 C 1039.808 256.059, 1038.146 253.417, 1030.809 245.558 C 1023.560 237.792, 1010.884 228, 1008.081 228 C 1007.381 228, 1005.614 227.380, 1004.154 226.622 C 998.577 223.726, 996.280 222.845, 994.914 223.079 C 994.136 223.212, 992.236 222.800, 990.691 222.163 C 985.641 220.081, 979.964 219.690, 974.170 221.027 C 971.052 221.747, 967.997 222.716, 967.383 223.180 C 965.084 224.917, 963.893 221.064, 963.566 210.835 C 962.915 190.465, 961.659 183.908, 956.654 174.760 C 947.240 157.553, 930.659 143.203, 911.981 136.099 C 908.945 134.945, 905.484 134, 904.290 134 C 903.095 134, 901.822 133.521, 901.460 132.935 C 901.098 132.349, 899.609 131.995, 898.150 132.148 C 896.692 132.301, 894.926 132.072, 894.226 131.640 C 892.746 130.725, 874.980 131.890, 873.500 132.999 C 872.950 133.411, 871.150 133.996, 869.500 134.299 C 865.484 135.035, 854.627 138.998, 854 139.957 C 853.725 140.377, 852.038 141.470, 850.250 142.386 C 848.462 143.302, 847 144.748, 847 145.599 C 847 146.534, 846.307 147.014, 845.250 146.812 C 843.992 146.571, 843.354 145.209, 842.979 141.968 C 842.459 137.458, 838.492 129.483, 835.558 127.048 C 834.700 126.336, 834 124.210, 834 122.319 C 834 120.428, 833.614 119.121, 833.142 119.412 C 832.670 119.704, 831.441 118.378, 830.411 116.465 C 829.382 114.553, 827.743 112.736, 826.769 112.427 C 825.796 112.118, 825 111.221, 825 110.433 C 825 109.645, 824.515 109, 823.922 109 C 823.329 109, 820.966 107.022, 818.672 104.604 C 816.377 102.186, 813.487 99.906, 812.250 99.537 C 811.013 99.167, 810 98.455, 810 97.953 C 810 97.451, 808.313 96.110, 806.250 94.971 C 804.188 93.833, 801.375 92.278, 800 91.514 C 792.283 87.230, 786.841 85.229, 781.417 84.680 C 773.840 83.915, 771.978 83.220, 772.670 81.417 C 773.125 80.233, 770.748 80, 758.224 80 C 744.074 80, 743.204 80.112, 742.710 82 M 751 104 C 749.625 104.440, 746.389 104.845, 743.809 104.900 C 741.229 104.955, 738.822 105.479, 738.460 106.065 C 738.098 106.651, 736.594 107.003, 735.119 106.849 C 733.644 106.694, 730.823 107.565, 728.850 108.784 C 726.878 110.003, 724.561 111, 723.701 111 C 718.826 111, 695.695 130.384, 694.396 135.557 C 694.079 136.820, 694.444 139.123, 695.206 140.676 C 697.147 144.632, 699.854 144.027, 707.065 138.026 C 710.359 135.284, 714.045 132.511, 715.256 131.863 C 716.468 131.215, 718.063 130.080, 718.801 129.342 C 719.539 128.604, 720.905 128, 721.836 128 C 722.768 128, 725.137 127.139, 727.101 126.086 C 729.065 125.033, 732.884 123.855, 735.586 123.467 C 738.289 123.080, 742.147 121.856, 744.160 120.748 C 746.362 119.536, 748.862 118.932, 750.434 119.232 C 751.872 119.507, 753.289 119.342, 753.583 118.866 C 754.268 117.758, 760.716 117.731, 761.397 118.833 C 761.680 119.292, 763.265 119.468, 764.919 119.225 C 766.772 118.953, 768.503 119.360, 769.426 120.283 C 770.251 121.108, 773.305 122.336, 776.213 123.013 C 779.121 123.690, 782.903 125.089, 784.618 126.122 C 786.333 127.155, 788.403 128, 789.217 128 C 791.040 128, 805.131 138.397, 810.533 143.728 C 815.679 148.806, 818.632 152.976, 821.008 158.518 C 822.816 162.736, 825.129 164.219, 826.483 162.028 C 826.813 161.494, 826.392 160.002, 825.548 158.713 C 824.703 157.425, 823.720 154.149, 823.363 151.435 C 823.006 148.721, 821.653 144.479, 820.357 142.008 C 819.061 139.537, 818 137.054, 818 136.490 C 818 135.592, 809.102 126.385, 800.674 118.562 C 797.472 115.590, 787.441 110, 785.310 110 C 784.535 110, 782.461 109.241, 780.700 108.313 C 778.940 107.385, 776.240 106.746, 774.700 106.893 C 773.159 107.041, 771.359 106.740, 770.700 106.225 C 767.390 103.642, 756.100 102.367, 751 104 M 616.500 117.343 C 614.850 117.965, 613.227 118.852, 612.894 119.314 C 612.560 119.776, 611.660 120.048, 610.894 119.919 C 608.698 119.550, 603.744 121.615, 594.119 126.912 C 590.804 128.736, 586.621 132.393, 583.222 136.436 C 580.188 140.046, 577.322 143, 576.853 143 C 576.384 143, 575.998 143.787, 575.996 144.750 C 575.994 145.713, 575.094 147.973, 573.996 149.774 C 571.850 153.294, 571.355 157, 573.031 157 C 573.599 157, 574.349 156.213, 574.698 155.250 C 575.299 153.594, 578.663 149.316, 584.776 142.432 C 588.859 137.835, 599.664 130.587, 607 127.525 C 616.372 123.613, 622.829 122.729, 637.336 123.373 C 647.823 123.839, 650.772 124.314, 653.454 125.971 C 655.259 127.087, 657.694 128, 658.865 128 C 660.036 128, 662.739 129.576, 664.872 131.503 C 668.236 134.543, 668.915 134.808, 669.997 133.503 C 671.390 131.825, 669.844 129, 667.533 129 C 666.860 129, 665.495 128.100, 664.500 127 C 663.505 125.900, 662.305 125, 661.834 125 C 661.363 125, 659.071 124.149, 656.739 123.108 C 651.477 120.760, 648.793 119.731, 647.500 119.565 C 646.950 119.495, 644.758 118.664, 642.628 117.719 C 638.108 115.713, 621.462 115.473, 616.500 117.343 M 873 155.723 C 867.902 157.642, 866.500 158.117, 866.500 157.928 C 866.500 157.811, 863.455 159.580, 859.732 161.858 C 856.010 164.136, 852.618 166, 852.195 166 C 850.590 166, 845.079 171.586, 844.796 173.500 C 844.306 176.811, 849.578 176.778, 853.053 173.449 C 855.097 171.491, 856.585 170.879, 858.439 171.233 C 859.847 171.502, 861 171.429, 861 171.071 C 861 170.713, 864.757 169.843, 869.350 169.138 C 877.279 167.922, 886.673 168.561, 892 170.680 C 892.825 171.008, 894.985 171.178, 896.800 171.058 C 899.050 170.908, 901.175 171.659, 903.483 173.419 C 905.344 174.839, 907.331 176, 907.899 176 C 909.935 176, 917.974 181.771, 922.791 186.690 C 932.311 196.412, 937.409 205.535, 939.123 215.914 C 940.385 223.558, 942 225.384, 942 219.167 C 942 217.058, 942.294 215.039, 942.654 214.679 C 943.504 213.829, 943.504 206.171, 942.654 205.321 C 942.294 204.961, 942 203.647, 942 202.401 C 942 199.770, 936.806 186.406, 935.134 184.734 C 934.510 184.110, 934 183.035, 934 182.345 C 934 179.970, 919.589 166.437, 914.500 164.032 C 911.750 162.733, 908.150 160.733, 906.500 159.589 C 904.850 158.444, 903.500 157.648, 903.500 157.818 C 903.500 157.989, 902.825 157.900, 902 157.619 C 894.791 155.168, 877.481 154.036, 873 155.723 M 552.451 158.080 C 552.073 158.691, 552.492 159.920, 553.382 160.810 C 554.873 162.301, 555 162.259, 555 160.273 C 555 157.780, 553.457 156.452, 552.451 158.080 M 510.293 167.967 C 505.525 168.510, 502.209 169.477, 500.496 170.825 C 499.071 171.945, 496.608 173.147, 495.022 173.495 C 493.436 173.844, 491.602 174.775, 490.947 175.564 C 490.291 176.354, 489.240 177, 488.610 177 C 487.225 177, 477 185.807, 477 187.001 C 477 187.466, 475.650 189.196, 474 190.846 C 472.350 192.496, 471 194.799, 471 195.963 C 471 197.127, 470.172 199.749, 469.161 201.790 C 466.428 207.303, 464.636 218.912, 465.974 222.432 C 467.365 226.089, 467.820 225.530, 469.572 218.023 C 471.361 210.355, 475.503 201.128, 477.501 200.361 C 478.325 200.045, 479 199.331, 479 198.775 C 479 196.082, 496.699 180, 499.662 180 C 500.437 180, 502.113 179.317, 503.387 178.482 C 507.037 176.090, 515.729 174.052, 525.284 173.348 C 530.115 172.991, 534.331 172.274, 534.652 171.754 C 536.781 168.309, 524.314 166.371, 510.293 167.967 M 542.470 171.048 C 542.114 171.624, 540.850 171.962, 539.661 171.798 C 536.327 171.338, 537.029 174.195, 540.500 175.213 C 542.150 175.697, 544.965 176.820, 546.756 177.707 C 548.547 178.595, 550.226 179.107, 550.489 178.845 C 551.144 178.189, 548.733 171.671, 547.500 170.765 C 546.030 169.685, 543.215 169.843, 542.470 171.048 M 461.842 236 C 460.154 238.283, 458.832 239, 456.312 239 C 453.739 239, 453 239.419, 453 240.878 C 453 241.910, 453.675 243.315, 454.500 244 C 456.757 245.873, 456.433 251.698, 454 253 C 452.900 253.589, 452 254.730, 452 255.535 C 452 257.403, 456.937 257.497, 459.428 255.677 C 460.996 254.530, 461.106 253.737, 460.251 249.728 C 459.117 244.411, 460.249 241.069, 463.702 239.541 C 465.964 238.540, 468.305 234.638, 467.266 233.600 C 465.939 232.272, 463.946 233.155, 461.842 236 M 963 243.771 C 962.175 244.041, 960.748 244.915, 959.829 245.714 C 958.911 246.513, 956.760 247.916, 955.051 248.833 C 953.341 249.750, 951.950 250.950, 951.960 251.500 C 951.970 252.072, 956.797 252.744, 963.239 253.070 C 970.551 253.441, 975.804 254.230, 978.218 255.320 C 980.263 256.244, 982.744 257, 983.731 257 C 986.437 257, 995.281 263.323, 1003.516 271.146 C 1009.577 276.903, 1011.660 279.764, 1015.431 287.515 C 1017.944 292.681, 1020 297.577, 1020 298.395 C 1020 299.213, 1020.481 300.179, 1021.068 300.542 C 1021.656 300.905, 1021.900 301.817, 1021.612 302.569 C 1021.323 303.321, 1021.518 304.202, 1022.044 304.527 C 1023.300 305.303, 1023.288 319, 1022.031 319 C 1021.499 319, 1021.324 319.681, 1021.643 320.513 C 1021.963 321.345, 1021.743 322.605, 1021.156 323.312 C 1020.568 324.020, 1019.779 326.528, 1019.402 328.885 C 1019.025 331.243, 1018.106 333.406, 1017.358 333.693 C 1015.803 334.290, 1015.485 339, 1017 339 C 1017.550 339, 1018 338.546, 1018 337.991 C 1018 337.436, 1019.350 335.569, 1021 333.843 C 1022.650 332.116, 1024 330.077, 1024 329.312 C 1024 328.547, 1025.013 326.026, 1026.250 323.710 C 1028.339 319.802, 1028.499 318.244, 1028.490 302 L 1028.481 284.500 1025.219 278 C 1020.234 268.067, 1014.381 260.264, 1009.717 257.334 C 1007.398 255.877, 1003.700 253.533, 1001.500 252.125 C 999.300 250.718, 997.275 249.524, 997 249.472 C 996.725 249.421, 994.700 248.582, 992.500 247.608 C 986.883 245.122, 966.846 242.516, 963 243.771 M 936 250.500 C 936 252.587, 936.475 253, 938.878 253 C 942.381 253, 944.511 250.911, 942.776 249.176 C 942.129 248.529, 940.340 248, 938.800 248 C 936.480 248, 936 248.429, 936 250.500 M 441 260.129 C 433.726 264.539, 421.958 277.625, 423.701 279.367 C 424.022 279.689, 423.835 280.525, 423.284 281.226 C 420.887 284.278, 419 292.778, 419 300.523 C 419 307.740, 419.284 309.019, 421.443 311.532 C 422.787 313.096, 423.727 314.633, 423.532 314.949 C 423.337 315.264, 423.769 316.332, 424.493 317.321 C 425.216 318.310, 426.042 318.740, 426.329 318.277 C 427.007 317.180, 425.056 307.784, 423.895 306.550 C 422.749 305.334, 422.727 299.287, 423.865 298.583 C 424.341 298.289, 425.271 295.225, 425.933 291.774 C 426.594 288.323, 428.452 282.936, 430.062 279.802 C 432.929 274.220, 444.781 261, 446.918 261 C 447.513 261, 448 260.325, 448 259.500 C 448 257.384, 445.099 257.644, 441 260.129 M 573.621 266.250 C 572.838 267.488, 571.898 269.931, 571.534 271.681 C 571.170 273.430, 570.225 275.398, 569.436 276.053 C 568.646 276.709, 568 277.635, 568 278.111 C 568 278.587, 567.363 279.770, 566.584 280.739 C 565.806 281.707, 563.191 284.975, 560.775 288 C 558.358 291.025, 554.832 294.541, 552.940 295.814 C 551.048 297.086, 548.375 299.124, 547 300.341 C 538.369 307.984, 519.807 311.953, 508.544 308.563 C 501.659 306.491, 500.397 307.590, 499.527 316.420 C 499.144 320.314, 498.464 323.950, 498.017 324.500 C 497.570 325.050, 496.524 327.807, 495.693 330.626 C 493.673 337.476, 490.148 342.852, 482.966 350.034 C 479.685 353.315, 477 356.675, 477 357.500 C 477 358.325, 476.663 358.999, 476.250 358.998 C 475.837 358.996, 475.649 362.678, 475.832 367.180 C 476.104 373.887, 475.806 376.008, 474.184 378.932 C 473.095 380.894, 471.677 385.200, 471.032 388.500 C 470.387 391.800, 469.242 396.300, 468.488 398.500 C 467.734 400.700, 466.822 405.200, 466.461 408.500 C 466.100 411.800, 465.127 416.075, 464.299 418 C 463.351 420.202, 462.854 424.153, 462.959 428.652 C 463.055 432.804, 462.679 436.080, 462.062 436.461 C 461.478 436.823, 461 438.824, 461 440.910 C 461 442.995, 460.497 446.145, 459.881 447.910 C 458.899 450.728, 459.034 451.407, 460.989 453.489 C 463.165 455.804, 463.629 455.861, 481.242 455.953 C 491.157 456.005, 499.742 456.340, 500.320 456.698 C 500.898 457.055, 503.717 457.239, 506.585 457.106 C 509.470 456.972, 512.093 457.341, 512.458 457.932 C 512.821 458.519, 515.004 459.029, 517.309 459.065 C 522.128 459.141, 544.099 463.714, 554.683 466.845 C 564.430 469.728, 586 480.882, 586 483.038 C 586 484.031, 591.106 489.103, 593.595 490.582 C 594.596 491.178, 595.762 493.002, 596.186 494.637 C 596.610 496.272, 597.983 498.574, 599.237 499.753 C 601.282 501.674, 601.983 501.787, 606.009 500.850 C 612.871 499.253, 627.158 500.537, 639.252 503.838 C 645.166 505.452, 651.016 507.387, 652.252 508.139 C 655.980 510.404, 658.159 509.733, 661.419 505.317 C 669.910 493.812, 678.249 490.547, 705.500 488.055 C 716.771 487.024, 725.066 487.496, 747.590 490.449 C 760.026 492.080, 772.941 494.787, 774.592 496.108 C 775.193 496.589, 775.913 496.754, 776.193 496.473 C 776.473 496.193, 778.007 496.645, 779.601 497.476 C 781.196 498.307, 783.215 498.990, 784.090 498.994 C 786.327 499.003, 802.431 504.670, 807.378 507.189 C 815.449 511.300, 828.352 522.406, 830.044 526.698 C 831.816 531.192, 834.667 532.013, 845.020 531.011 C 861.894 529.378, 883.311 527.973, 891.128 527.987 C 900.688 528.003, 901.829 527.033, 899.987 520.453 C 898.093 513.690, 899.235 501.777, 902.221 497.155 C 905.508 492.065, 905.027 490.060, 899.705 486.674 C 898.168 485.696, 896.497 483.806, 895.991 482.476 C 895.485 481.145, 893.705 478.626, 892.035 476.880 C 890.366 475.133, 889 473.073, 889 472.302 C 889 471.531, 888.319 469.585, 887.488 467.976 C 885.365 463.872, 885.238 447.806, 887.286 442.500 C 888.135 440.300, 889.088 437.315, 889.404 435.868 C 889.720 434.420, 891.786 430.370, 893.996 426.868 C 900.659 416.304, 900.649 416.234, 892.232 413.165 C 888.954 411.970, 884.176 409.147, 881.615 406.892 C 877.449 403.226, 868 391.946, 868 390.641 C 868 390.360, 867.475 388.863, 866.834 387.315 C 866.192 385.767, 865.611 384.275, 865.542 384 C 865.473 383.725, 864.535 381.925, 863.458 380 C 861.790 377.018, 861.500 374.548, 861.500 363.300 C 861.500 354.073, 861.876 349.723, 862.750 348.850 C 863.438 348.162, 864 346.647, 864 345.481 C 864 343.402, 863.739 343.371, 849.879 343.813 C 835.771 344.264, 826.161 343.124, 823.096 340.639 C 822.324 340.012, 821.532 339.623, 821.335 339.772 C 821.139 339.922, 818.170 338.659, 814.739 336.966 C 804.565 331.946, 790.009 315.925, 789.995 309.731 C 789.992 308.504, 788.881 305.700, 787.526 303.500 C 785.836 300.757, 785.053 298.008, 785.031 294.750 C 785.014 292.137, 784.546 290, 783.991 290 C 783.437 290, 781.119 291.350, 778.841 293 C 776.564 294.650, 774.373 296, 773.974 296 C 773.575 296, 770.830 297.070, 767.874 298.377 C 764.918 299.684, 762.232 300.697, 761.904 300.627 C 761.576 300.557, 760.641 301.053, 759.826 301.729 C 759.012 302.405, 755.054 303.425, 751.031 303.996 C 747.008 304.566, 742.719 305.283, 741.500 305.589 C 738.733 306.284, 725.280 304.467, 721.394 302.874 C 719.802 302.221, 717.712 301.786, 716.750 301.907 C 715.788 302.027, 715 301.647, 715 301.063 C 715 300.478, 714.362 300, 713.583 300 C 712.804 300, 712.017 299.663, 711.833 299.250 C 711.650 298.837, 708.914 297.208, 705.754 295.629 C 697.951 291.731, 691.959 286.235, 687.066 278.486 C 682.822 271.768, 680.572 270.570, 677.661 273.482 C 676.846 274.297, 676.026 275.352, 675.839 275.827 C 675.454 276.807, 674.021 277.621, 660.966 284.279 C 655.812 286.908, 651.011 288.834, 650.297 288.561 C 649.584 288.287, 649 288.466, 649 288.960 C 649 290.866, 638.087 292.250, 626.388 291.826 C 616.075 291.454, 613.746 291.039, 608.812 288.698 C 605.683 287.214, 602.849 286, 602.514 286 C 602.178 286, 599.520 284.475, 596.607 282.612 C 590.653 278.803, 585.301 273.500, 584.382 270.500 C 583.399 267.288, 579.841 264, 577.349 264 C 576.050 264, 574.425 264.981, 573.621 266.250 M 245.786 290.796 C 239.176 291.600, 236.140 300.466, 239.679 308.628 C 240.602 310.758, 241.414 312.950, 241.483 313.500 C 241.553 314.050, 242.196 315.850, 242.914 317.500 C 243.632 319.150, 245.959 326.021, 248.085 332.770 C 250.211 339.518, 252.503 346.043, 253.179 347.270 C 253.855 348.496, 254.432 349.950, 254.462 350.500 C 254.540 351.946, 257.747 358.113, 259.829 360.819 C 260.971 362.304, 263.049 363.331, 265.605 363.674 C 268.952 364.123, 270.130 363.762, 272.885 361.443 C 277.459 357.595, 278.229 355.011, 276.514 349.268 C 273.034 337.613, 271.040 330.222, 270.418 326.670 C 270.049 324.564, 269.132 322.604, 268.379 322.315 C 267.627 322.027, 267.249 321.406, 267.540 320.936 C 267.830 320.466, 267.649 319.276, 267.137 318.291 C 265.835 315.786, 261.240 303.016, 260.556 300 C 259.202 294.034, 252.663 289.959, 245.786 290.796 M 160.042 355.845 C 156.540 359.177, 156 360.266, 156 363.999 C 156 367.772, 156.518 368.785, 160.166 372.154 C 162.458 374.269, 164.953 376, 165.712 376 C 166.470 376, 168.263 377.172, 169.694 378.604 C 171.126 380.036, 173.534 381.948, 175.044 382.854 C 177.873 384.550, 187.338 391.097, 197 398.043 C 200.025 400.218, 202.878 401.997, 203.340 401.998 C 203.802 401.999, 204.927 402.922, 205.840 404.049 C 206.753 405.176, 209.242 406.491, 211.372 406.972 C 215.003 407.790, 215.501 407.605, 219.357 404.008 C 222.964 400.644, 223.457 399.659, 223.362 396.013 C 223.276 392.742, 222.544 391.125, 219.930 388.428 C 218.103 386.543, 216.133 384.993, 215.554 384.984 C 214.974 384.976, 212.253 382.951, 209.507 380.484 C 206.760 378.018, 203.961 376, 203.287 376 C 202.612 376, 198.559 373.184, 194.280 369.743 C 186.972 363.865, 175.661 356, 174.515 356 C 174.232 356, 173.100 355.100, 172 354 C 168.803 350.803, 164.673 351.440, 160.042 355.845 M 1024 366.231 C 1024 367.566, 1025.720 370.076, 1028.283 372.481 C 1034.537 378.351, 1037.459 382.692, 1040.073 390 C 1043.294 399.006, 1043.383 414.539, 1040.269 424.174 C 1038.314 430.223, 1036.335 434.665, 1035 436 C 1034.135 436.865, 1034.183 440, 1035.060 440 C 1036.582 440, 1042.034 433.548, 1042.666 431 C 1043.006 429.625, 1044.273 426.700, 1045.479 424.500 C 1046.686 422.300, 1047.479 419.922, 1047.242 419.216 C 1047.005 418.510, 1047.399 417.224, 1048.117 416.358 C 1049.925 414.180, 1050.005 393.917, 1048.215 391.759 C 1047.508 390.907, 1047.038 389.826, 1047.170 389.355 C 1047.303 388.885, 1046.035 385.575, 1044.353 382 C 1041.288 375.484, 1034.416 368, 1031.497 368 C 1030.674 368, 1030 367.622, 1030 367.161 C 1030 366.434, 1025.729 364, 1024.453 364 C 1024.204 364, 1024 365.004, 1024 366.231 M 511.500 416.599 C 491.980 421.874, 485.870 435.401, 498.922 444.446 C 502.569 446.973, 503.513 447.190, 508.184 446.570 C 511.045 446.191, 513.786 445.632, 514.277 445.329 C 515.378 444.648, 527.517 444.594, 528.666 445.265 C 529.125 445.533, 532.609 446.521, 536.408 447.462 C 543.717 449.272, 559.848 455.448, 561.450 457.050 C 563.046 458.646, 564.871 458.144, 570.445 454.579 C 574.550 451.952, 576.078 450.267, 577.017 447.329 C 577.691 445.223, 578.575 443.135, 578.982 442.689 C 579.389 442.243, 578.885 440.235, 577.861 438.227 C 576.837 436.220, 576 434.032, 576 433.366 C 576 431.973, 568.162 425, 566.595 425 C 565.411 425, 552.444 420.288, 549.709 418.864 C 548.724 418.352, 547.487 418.199, 546.959 418.525 C 546.432 418.851, 546 418.744, 546 418.286 C 546 415.271, 520.948 414.046, 511.500 416.599 M 735.624 443.709 C 735.234 444.099, 733.111 444.288, 730.906 444.129 C 728.702 443.970, 726.359 444.269, 725.699 444.794 C 725.040 445.318, 722.425 446.048, 719.888 446.414 C 713.849 447.288, 704.795 452.712, 703.889 456 C 702.650 460.493, 702.968 465.864, 704.685 469.466 C 705.612 471.410, 706.779 473, 707.277 473 C 707.776 473, 709.329 473.900, 710.727 475 C 713.816 477.430, 722.429 477.658, 728.500 475.471 C 738.593 471.835, 764.137 476.654, 777 484.621 C 778.925 485.813, 782.877 487.334, 785.783 488.002 C 792.446 489.532, 795.420 488.438, 800.975 482.411 C 805.338 477.678, 806.409 472.414, 803.500 470 C 802.675 469.315, 801.981 468.248, 801.957 467.628 C 801.897 466.035, 793.627 459.851, 785.976 455.678 C 778.764 451.744, 766.127 447.517, 758.500 446.488 C 755.750 446.117, 752.943 445.355, 752.263 444.795 C 751.582 444.234, 750.359 444.032, 749.545 444.344 C 748.730 444.657, 747.798 444.482, 747.473 443.956 C 746.793 442.855, 736.689 442.645, 735.624 443.709 M 370.625 448.650 C 361.452 450.345, 351.297 453.707, 347 456.473 C 345.075 457.712, 341.163 460.196, 338.306 461.994 C 335.450 463.793, 332.877 465.879, 332.588 466.632 C 332.299 467.384, 331.374 468, 330.531 468 C 329.689 468, 329 468.441, 329 468.981 C 329 470.936, 322.113 480.665, 318.275 484.133 C 316.112 486.087, 311.881 488.890, 308.872 490.362 C 305.494 492.014, 301.700 495.030, 298.951 498.248 C 296.503 501.113, 293.488 504.500, 292.250 505.774 C 291.012 507.048, 290 508.386, 290 508.747 C 290 509.107, 286.230 513.024, 281.623 517.451 C 277.015 521.878, 272.336 527.300, 271.225 529.500 C 270.114 531.700, 266.459 537.193, 263.103 541.707 C 259.746 546.221, 257 550.318, 257 550.811 C 257 551.304, 255.875 552.922, 254.500 554.405 C 253.125 555.889, 252 557.759, 252 558.561 C 252 559.362, 250.049 564.627, 247.665 570.259 C 241.545 584.717, 241.662 584.411, 241.878 585.359 C 241.985 585.832, 241.176 588.082, 240.079 590.359 C 238.983 592.637, 237.804 596.525, 237.459 599 C 237.114 601.475, 236.016 606.425, 235.018 610 C 232.069 620.566, 230.627 640.127, 231.380 659.347 L 232.052 676.500 228.963 679.500 C 221.265 686.976, 219.883 688.731, 218.938 692.236 C 218.384 694.291, 216.821 697.169, 215.465 698.632 C 214.109 700.095, 213 701.683, 213 702.161 C 213 702.966, 210.705 707.110, 203.754 718.859 C 202.243 721.411, 200.498 724.625, 199.875 726 C 195.772 735.057, 192.318 741.911, 190.553 744.500 C 189.428 746.150, 188.693 747.500, 188.919 747.500 C 189.146 747.500, 188.614 749.075, 187.737 751 C 180.486 766.926, 178.637 770.700, 177.416 772.070 C 176.646 772.933, 175.163 776.083, 174.120 779.070 C 173.078 782.056, 171.228 786.975, 170.010 790 C 168.792 793.025, 167 798.308, 166.027 801.741 C 165.055 805.174, 163.793 808.549, 163.222 809.241 C 161.761 811.013, 158.191 823.857, 153.978 842.500 C 152.735 848, 151.486 853.175, 151.202 854 C 150.917 854.825, 150.792 856.136, 150.924 856.914 C 151.055 857.691, 150.717 859.266, 150.173 860.414 C 148.833 863.236, 147 880.105, 147 889.610 C 147 898.077, 148.699 909.814, 150.196 911.690 C 150.718 912.345, 151.043 913.695, 150.917 914.690 C 150.791 915.686, 151.208 917.767, 151.844 919.315 C 152.480 920.863, 153.002 922.438, 153.005 922.815 C 153.014 924.250, 157.589 934.610, 159.255 936.973 C 160.215 938.332, 161 939.747, 161 940.117 C 161 940.486, 163.242 943.199, 165.982 946.144 C 168.723 949.090, 170.980 951.950, 170.998 952.500 C 171.016 953.050, 173.992 955.525, 177.610 958 C 181.229 960.475, 185.384 963.426, 186.845 964.557 C 190.083 967.066, 199.561 971.648, 203.056 972.395 C 204.461 972.695, 207.836 973.945, 210.556 975.173 C 213.275 976.401, 216.136 977.278, 216.914 977.122 C 217.691 976.965, 219.266 977.266, 220.414 977.791 C 229.989 982.167, 270.661 984.695, 304.728 983.031 C 345.508 981.040, 352.716 979.473, 353.607 972.405 C 354.017 969.154, 355.538 955.637, 356.521 946.500 C 356.876 943.200, 357.375 939.846, 357.630 939.047 C 358.261 937.066, 358.220 900.166, 357.586 899.139 C 357.307 898.688, 356.581 894.084, 355.973 888.909 C 354.056 872.604, 348.838 851.255, 345.817 847.355 C 345.329 846.726, 345.017 845.826, 345.124 845.355 C 345.230 844.885, 344.093 841.800, 342.597 838.500 C 341.101 835.200, 339.220 831.003, 338.418 829.173 C 336.698 825.251, 334.621 825.451, 334.207 829.577 C 334.046 831.185, 333.639 833.175, 333.303 834 C 332.967 834.825, 332.795 836.314, 332.919 837.310 C 333.044 838.305, 332.711 839.655, 332.180 840.310 C 331.116 841.622, 328.454 851.296, 327.477 857.400 C 326.057 866.276, 317.281 869.867, 311.106 864.099 C 307.416 860.652, 307.232 858.308, 309.882 848.480 C 310.917 844.641, 312.046 838.226, 312.392 834.223 C 312.737 830.221, 313.660 823.471, 314.444 819.223 C 315.228 814.976, 316.399 806.888, 317.047 801.250 C 317.695 795.612, 318.611 791, 319.081 791 C 319.552 791, 319.676 790.319, 319.357 789.487 C 319.037 788.655, 319.215 787.418, 319.752 786.737 C 320.288 786.057, 321.026 782.142, 321.390 778.038 C 322.002 771.157, 326.474 745.570, 328.913 735 C 329.484 732.525, 329.962 729.067, 329.976 727.315 C 329.989 725.563, 330.497 722.863, 331.104 721.315 C 332.389 718.038, 332.848 709.998, 331.750 709.999 C 330.624 710, 330.847 706.212, 332.016 705.490 C 332.575 705.144, 332.806 704.495, 332.529 704.047 C 331.617 702.571, 343.066 693.332, 347.241 692.175 C 347.649 692.061, 349.449 691.080, 351.241 689.993 C 353.034 688.906, 355.625 687.459, 357 686.778 C 370.276 680.200, 384.616 664.846, 392.281 649 C 395.074 643.225, 397.403 638.275, 397.457 638 C 397.510 637.725, 399.197 634.115, 401.205 629.977 C 404.397 623.401, 406.882 620.444, 420.961 606.477 C 438.399 589.176, 444.950 580.791, 445.763 574.730 C 446.213 571.375, 445.852 570.443, 442.943 567.442 C 439.713 564.109, 439.365 564, 431.945 564 C 425.530 564, 423.404 564.452, 418.891 566.775 C 412.314 570.160, 400.001 579.097, 399.996 580.488 C 399.994 581.045, 398.646 584.200, 397 587.500 C 395.354 590.800, 394.006 594.007, 394.004 594.628 C 394.002 595.248, 393.278 596.354, 392.396 597.086 C 391.514 597.819, 390.418 599.401, 389.961 600.603 C 389.024 603.068, 383.845 606, 380.428 606 C 379.183 606, 377.435 606.280, 376.545 606.621 C 374.925 607.243, 371.414 612.856, 371.787 614.227 C 371.896 614.627, 371.086 616.427, 369.988 618.227 C 368.890 620.027, 367.334 622.910, 366.530 624.634 C 365.027 627.861, 357.660 634.907, 352.767 637.797 C 351.245 638.696, 350 639.784, 350 640.216 C 350 640.647, 349.376 641, 348.614 641 C 347.852 641, 345.940 641.672, 344.364 642.494 C 342.789 643.315, 339.418 643.990, 336.872 643.994 C 331.514 644.001, 330.463 644.977, 329.749 650.608 C 328.981 656.664, 326.173 661.849, 320.465 667.750 C 314.545 673.870, 311.004 674.587, 306.646 670.548 C 303.634 667.757, 303.009 662.594, 305.563 661.614 C 306.423 661.284, 306.816 660.511, 306.435 659.895 C 306.055 659.280, 306.213 658.487, 306.786 658.132 C 307.359 657.778, 308.289 654.161, 308.853 650.096 C 309.910 642.470, 309.046 633.733, 306.794 629.252 C 306.172 628.015, 305.951 626.716, 306.302 626.364 C 307.747 624.920, 302.435 619.726, 297.137 617.404 C 294.037 616.045, 290.938 614.187, 290.250 613.275 C 285.895 607.501, 292.926 599, 302.056 599 C 304.592 599, 306.998 599.332, 307.404 599.737 C 307.809 600.143, 308.672 600.496, 309.321 600.522 C 312.018 600.631, 321.798 606.265, 322.822 608.300 C 323.431 609.510, 324.841 613.170, 325.954 616.434 C 327.067 619.698, 328.535 622.713, 329.217 623.134 C 332.618 625.236, 345.260 620.871, 349.181 616.241 C 351.120 613.950, 353 607.207, 353 602.538 C 353 594.511, 350.184 588.202, 343.653 581.593 C 332.483 570.292, 327.345 567.739, 310.226 564.981 C 306.226 564.337, 302.288 563.146, 301.476 562.334 C 300.664 561.522, 299.997 561.227, 299.994 561.679 C 299.990 562.130, 299.315 561.211, 298.494 559.636 C 294.448 551.878, 299.879 543.014, 308.685 543.004 C 312.638 542.999, 324.528 545.457, 328.523 547.105 C 330.160 547.780, 331.725 548.383, 332 548.444 C 332.275 548.506, 335.142 549.781, 338.371 551.278 C 341.600 552.775, 344.690 554, 345.239 554 C 345.787 554, 350.618 558.422, 355.974 563.827 C 363.402 571.323, 365.869 574.488, 366.372 577.167 C 367.091 581.001, 371.201 585.612, 372.940 584.537 C 374.825 583.372, 377.782 576.636, 378.495 571.885 C 379.295 566.546, 375.812 555.080, 371.858 550.039 C 370.561 548.386, 368.488 545.718, 367.252 544.110 C 364.854 540.993, 349.186 530, 347.141 530 C 346.470 530, 344.251 529.151, 342.210 528.113 C 340.170 527.075, 335.403 525.745, 331.618 525.158 C 322.299 523.714, 317 520.250, 317 515.602 C 317 512.919, 317.846 511.468, 321.155 508.479 L 325.310 504.725 333.554 505.307 C 338.087 505.627, 343.530 506.660, 345.648 507.604 C 347.767 508.547, 349.800 509.360, 350.167 509.410 C 350.533 509.459, 351.171 509.837, 351.583 510.250 C 351.996 510.663, 353.158 511, 354.167 511 C 355.175 511, 356 511.450, 356 512 C 356 512.550, 356.567 513, 357.261 513 C 359.602 513, 372.419 522.309, 378.499 528.426 C 381.819 531.766, 385.997 536.660, 387.783 539.300 C 389.568 541.940, 391.419 543.859, 391.895 543.565 C 392.897 542.946, 396 533.873, 396 531.562 C 396 530.703, 396.375 530, 396.833 530 C 397.292 530, 397.667 529.325, 397.667 528.500 C 397.667 527.675, 397.292 527, 396.833 527 C 396.375 527, 396 526.381, 396 525.624 C 396 522.677, 391.026 513.276, 387.142 508.880 C 383.317 504.553, 373.730 496.574, 372.192 496.439 C 371.811 496.406, 369.700 495.584, 367.500 494.614 C 365.300 493.643, 360.213 492.268, 356.195 491.559 C 350.574 490.567, 348.200 489.608, 345.896 487.400 C 342.059 483.724, 342.645 480.869, 348.287 475.750 C 351.599 472.744, 353.206 472, 356.378 472 C 363.908 472, 373.530 474.240, 380.945 477.719 C 388.786 481.398, 389.539 481.455, 403.536 479.418 C 405.792 479.090, 410.998 479.538, 415.340 480.435 C 426.605 482.762, 434.734 481.266, 440.124 475.876 C 445.359 470.641, 445.342 467.342, 440.053 462.053 C 435.194 457.194, 432.207 455.620, 420.607 451.807 C 413.117 449.345, 409.369 448.738, 399.500 448.384 C 392.900 448.148, 385.250 447.825, 382.500 447.667 C 379.750 447.509, 374.406 447.951, 370.625 448.650 M 175.500 455.490 C 168.900 456.151, 163.387 456.788, 163.250 456.905 C 162.627 457.435, 151.079 457.167, 150.164 456.601 C 149.600 456.253, 148.902 456.350, 148.613 456.817 C 148.324 457.284, 146.751 457.470, 145.117 457.230 C 142.883 456.903, 141.819 457.317, 140.832 458.897 C 140.110 460.054, 138.945 461, 138.243 461 C 137.542 461, 136.224 462.559, 135.315 464.465 C 133.946 467.335, 133.859 468.588, 134.808 471.755 C 136.587 477.691, 142.240 480.013, 154.777 479.956 C 160.125 479.932, 167.875 479.487, 172 478.967 C 176.125 478.447, 183.325 477.731, 188 477.375 C 195.724 476.788, 196.888 476.416, 200.750 473.298 C 204.402 470.349, 205 469.331, 205 466.068 C 205 459.362, 198.684 453.864, 191.300 454.144 C 189.210 454.223, 182.100 454.829, 175.500 455.490 M 484.226 480.709 C 482.976 480.949, 480.979 482.463, 479.788 484.073 C 478.598 485.683, 477.239 487, 476.768 487 C 475.528 487, 463.978 496.619, 460.756 500.336 C 456.223 505.564, 453 513.578, 453 519.621 C 453 523.307, 453.400 525, 454.272 525 C 455.657 525, 470 510.602, 470 509.213 C 470 508.238, 474.637 504.016, 475.758 503.969 C 476.166 503.952, 479.425 500.970, 483 497.343 C 486.575 493.715, 491.863 489.216, 494.750 487.343 C 498.153 485.136, 500 483.246, 500 481.969 C 500 480.191, 499.344 480.013, 493.250 480.136 C 489.538 480.211, 485.477 480.469, 484.226 480.709 M 405 502.893 C 405 503.934, 405.609 505.020, 406.353 505.305 C 407.097 505.591, 409.205 508.676, 411.037 512.162 C 414.338 518.442, 414.368 518.625, 414.394 532.250 C 414.412 542.156, 414.750 546, 415.603 546 C 417.662 546, 418.329 542.796, 418.520 532 C 418.622 526.225, 419.464 517.321, 420.390 512.214 C 421.316 507.107, 421.806 502.495, 421.478 501.964 C 421.150 501.434, 417.309 501, 412.941 501 C 405.816 501, 405 501.195, 405 502.893 M 702 514.503 C 700.075 515.826, 697.956 517.379, 697.292 517.954 C 696.628 518.529, 695.615 519, 695.042 519 C 694.469 519, 694 519.450, 694 520 C 694 520.550, 693.355 521, 692.567 521 C 691.779 521, 690.858 521.788, 690.520 522.750 C 690.183 523.712, 688.041 525.994, 685.760 527.820 C 683.480 529.646, 681.139 531.969, 680.557 532.982 C 679.976 533.995, 677.958 537.001, 676.074 539.662 C 673.374 543.475, 672.553 545.734, 672.198 550.324 C 671.465 559.830, 672.688 559.664, 683.743 548.760 C 694.349 538.297, 715.986 519.843, 720 517.836 C 723.231 516.221, 726 513.917, 726 512.845 C 726 512.380, 721.388 512.022, 715.750 512.049 C 706.606 512.093, 705.122 512.358, 702 514.503 M 609.851 525.917 C 602.365 526.700, 600.011 528.840, 599.966 534.905 C 599.947 537.432, 599.063 541.300, 598 543.500 C 596.937 545.700, 596.050 548.400, 596.028 549.500 C 595.988 551.505, 595.454 552.647, 590.652 561 C 589.229 563.475, 587.383 566.700, 586.550 568.167 C 583.912 572.810, 573.035 584.444, 567.069 589.005 C 565.273 590.377, 562.607 592.461, 561.143 593.636 C 559.680 594.810, 556.912 596.510, 554.992 597.412 C 553.071 598.315, 550.375 599.710, 549 600.512 C 547.625 601.314, 545.134 601.977, 543.465 601.985 C 541.796 601.993, 537.746 602.953, 534.465 604.117 C 529.268 605.962, 527.019 606.167, 517 605.708 C 507.380 605.267, 497.206 603.623, 490 601.345 C 489.175 601.084, 488.435 601.012, 488.355 601.185 C 488.275 601.358, 487.353 600.724, 486.305 599.776 C 485.258 598.828, 482.623 597.408, 480.450 596.621 C 473.991 594.280, 467.125 591.012, 466.482 589.972 C 465.115 587.760, 462.249 589.123, 460.639 592.750 C 458.599 597.343, 456.800 600.431, 454.813 602.743 C 452.045 605.966, 451.952 607.872, 454.447 610.242 C 457.255 612.908, 458.987 618.635, 458.994 625.281 C 458.998 628.247, 459.475 630.197, 460.250 630.417 C 460.938 630.612, 463.338 631.269, 465.585 631.877 C 470.098 633.097, 471.991 635.871, 472.014 641.297 C 472.042 647.856, 472.846 649, 477.426 649 C 479.731 649, 482.370 649.563, 483.289 650.250 C 486.424 652.596, 490 658.384, 490 661.112 C 490 662.611, 490.273 664.548, 490.607 665.418 C 491.283 667.181, 494 667.599, 494 665.941 C 494 665.359, 494.450 665.160, 495 665.500 C 495.550 665.840, 496 665.641, 496 665.059 C 496 664.477, 497.022 664, 498.272 664 C 501.542 664, 507.829 669.560, 508.801 673.311 C 509.656 676.611, 513 678.413, 513 675.573 C 513 674.708, 513.477 674, 514.059 674 C 514.641 674, 514.813 673.507, 514.441 672.905 C 514.069 672.302, 514.236 670.840, 514.812 669.655 C 515.388 668.470, 516.589 664.049, 517.480 659.831 C 518.371 655.613, 519.753 651.620, 520.550 650.958 C 521.348 650.297, 522 649.241, 522 648.614 C 522 647.986, 524.729 644.448, 528.065 640.752 C 533.786 634.413, 535.820 633.020, 543.790 629.979 C 545.599 629.289, 547.624 627.976, 548.290 627.062 C 550.429 624.123, 555.618 622.680, 561.540 623.376 C 565.412 623.831, 568.077 623.577, 570.631 622.510 C 578.457 619.240, 595.702 621.137, 602.308 625.995 C 607.189 629.584, 610.115 629.768, 614.346 626.750 C 618.512 623.778, 625.955 623.811, 631.485 626.827 C 633.903 628.145, 637.246 629.001, 639.985 629.004 C 642.818 629.006, 645.794 629.797, 647.974 631.126 C 649.919 632.311, 654.429 633.618, 658.216 634.093 C 665.332 634.987, 667.668 636.108, 675 642.150 C 677.475 644.189, 680.737 646.115, 682.250 646.429 C 683.763 646.743, 686.106 647.229, 687.457 647.508 C 689.709 647.974, 704 663.541, 704 665.528 C 704 665.959, 705.236 667.929, 706.747 669.906 C 708.257 671.883, 709.495 673.800, 709.497 674.167 C 709.499 674.533, 709.837 675.171, 710.250 675.583 C 710.663 675.996, 711 677.143, 711 678.132 C 711 679.121, 711.664 681.886, 712.476 684.278 C 713.288 686.669, 714.143 690.847, 714.375 693.563 C 714.608 696.278, 714.844 698.837, 714.899 699.250 C 714.955 699.663, 716.237 700.006, 717.750 700.014 C 722.708 700.038, 724.471 701.085, 726.602 705.272 C 729.231 710.436, 730.489 710.883, 732.348 707.314 C 733.155 705.766, 735.587 702.587, 737.754 700.250 C 741.289 696.436, 742.165 696, 746.295 696 C 750.381 696, 751.198 696.394, 753.568 699.500 C 756.069 702.779, 760 704.281, 760 701.958 C 760 700.765, 761.514 698.786, 764.750 695.750 C 765.987 694.589, 767 693.019, 767 692.261 C 767 691.502, 767.450 691.160, 768 691.500 C 768.550 691.840, 769 691.641, 769 691.059 C 769 690.447, 771.241 690, 774.315 690 C 779.404 690, 779.700 690.148, 781.299 693.500 C 782.217 695.425, 783.445 697, 784.029 697 C 785.555 697, 790 692.339, 790 690.740 C 790 688.662, 794.633 682.811, 798.701 679.750 C 803.289 676.299, 807.298 676.232, 811.232 679.541 C 815.006 682.717, 816.201 682.338, 817.548 677.536 C 818.881 672.784, 824.048 668, 827.847 668 C 830.577 668, 833.699 664.374, 837.799 656.445 C 839.326 653.492, 845.293 650.491, 847.619 651.507 C 848.654 651.958, 849.725 652.382, 850 652.449 C 850.275 652.516, 851.551 653.154, 852.836 653.866 C 854.120 654.579, 855.310 655.013, 855.479 654.831 C 855.797 654.490, 858.082 646.429, 860.447 637.306 C 861.188 634.449, 863.303 630.260, 865.147 627.996 C 868.385 624.023, 868.662 623.899, 873.241 624.393 C 879.066 625.020, 879.524 624.343, 880.274 614 C 880.661 608.672, 881.606 604.908, 883.538 601 C 887.384 593.223, 890.189 591, 896.156 591 C 898.820 591, 901 590.571, 901 590.047 C 901 588.516, 898.730 583.700, 896.790 581.115 C 894.477 578.033, 894.294 564.625, 896.493 559.362 C 897.315 557.396, 897.759 555.419, 897.481 554.970 C 896.446 553.295, 866.723 555.080, 851.500 557.732 C 838.992 559.911, 836.043 560.762, 833.750 562.859 C 832.237 564.243, 831.007 566.302, 831.015 567.437 C 831.028 569.258, 828.811 574.281, 821.716 588.500 C 815.235 601.490, 802.600 615.585, 790.177 623.682 C 785.512 626.722, 780.302 629.653, 778.598 630.193 C 776.894 630.734, 774.150 631.816, 772.500 632.596 C 769.791 633.878, 756.046 636.330, 743.817 637.712 C 741.241 638.003, 735.391 637.539, 730.817 636.680 C 726.242 635.822, 719.800 634.841, 716.500 634.501 C 708.664 633.693, 700.337 630.656, 690.500 625.020 C 687.750 623.444, 683.937 621.426, 682.027 620.535 C 677.521 618.434, 661 601.541, 661 599.035 C 661 597.978, 660.103 596.485, 659.006 595.717 C 657.910 594.949, 657.310 594.023, 657.673 593.660 C 658.036 593.297, 657.808 593, 657.167 593 C 656.525 593, 656 592.334, 656 591.520 C 656 590.706, 654.917 587.218, 653.593 583.770 C 649.522 573.168, 647.627 560.396, 648.282 547.976 L 648.858 537.058 645.679 534.372 C 637.796 527.710, 623.948 524.442, 609.851 525.917 M 961.530 546.985 C 959.388 548.077, 957.432 548.765, 957.181 548.514 C 956.461 547.795, 951.131 551.888, 943 559.405 C 934.537 567.228, 929.996 572.827, 930.676 574.599 C 930.929 575.258, 930.656 576.095, 930.068 576.458 C 929.481 576.821, 929 577.977, 929 579.027 C 929 580.077, 926.750 583.259, 924 586.097 C 921.250 588.935, 919 591.672, 919 592.178 C 919 592.685, 919.739 594.529, 920.643 596.277 C 922.064 599.025, 922.134 600.472, 921.156 606.977 C 920.535 611.115, 920.092 617.248, 920.173 620.607 C 920.301 625.932, 919.947 627.202, 917.410 630.529 C 914.779 633.978, 914.479 635.167, 914.277 642.922 C 914.154 647.640, 913.929 652.603, 913.777 653.952 C 913.541 656.042, 914.384 656.852, 919.500 659.444 C 925.146 662.305, 926.178 662.485, 937 662.492 C 947.011 662.499, 949.650 662.123, 957.380 659.590 C 964.826 657.149, 967.609 655.576, 974.627 649.840 C 979.229 646.078, 983.445 643, 983.997 643 C 984.549 643, 985 642.582, 985 642.072 C 985 641.562, 987.362 637.946, 990.250 634.038 C 993.138 630.130, 995.512 626.610, 995.526 626.216 C 995.540 625.822, 996.339 624.324, 997.301 622.887 C 998.997 620.354, 1002.183 610.680, 1004.016 602.500 C 1005.321 596.679, 1005.099 576.041, 1003.694 572.453 C 1003.037 570.778, 1001.644 567.178, 1000.598 564.453 C 999.256 560.961, 997.187 558.244, 993.583 555.241 C 982.300 545.841, 969.992 542.670, 961.530 546.985 M 420.573 638.756 C 420.161 639.165, 419.176 640.850, 418.385 642.500 C 417.594 644.150, 416.290 646.625, 415.488 648 C 414.686 649.375, 414.023 651.672, 414.015 653.104 C 414.007 654.536, 412.875 656.922, 411.500 658.405 C 410.125 659.889, 409 661.667, 409 662.357 C 409 663.047, 407.988 664.983, 406.750 666.660 C 405.512 668.337, 403.600 670.963, 402.500 672.495 C 400.383 675.444, 389.544 687.411, 384.500 692.368 C 379.567 697.217, 367.110 706.094, 360.596 709.403 C 353.718 712.897, 354.101 711.983, 351.968 730 C 351.349 735.225, 349.978 743.712, 348.921 748.860 C 347.865 754.008, 347 759.944, 347 762.051 C 347 764.158, 346.543 766.165, 345.984 766.510 C 345.425 766.856, 345.240 767.580, 345.574 768.119 C 345.907 768.659, 345.389 770.765, 344.422 772.800 C 343.454 774.835, 342.457 778.638, 342.204 781.250 C 341.670 786.787, 343.153 787.452, 348.131 783.907 C 349.748 782.755, 351.730 782.066, 352.535 782.375 C 353.341 782.684, 354 782.501, 354 781.969 C 354 781.436, 355.464 781, 357.253 781 C 359.042 781, 363.430 780.165, 367.003 779.144 C 370.576 778.124, 376.200 776.977, 379.500 776.595 C 382.800 776.213, 387.525 775.277, 390 774.513 C 392.475 773.750, 397.583 772.628, 401.352 772.019 C 405.120 771.411, 409.170 770.290, 410.352 769.528 C 411.533 768.766, 416.006 767.663, 420.291 767.076 C 424.577 766.489, 429.302 765.387, 430.791 764.628 C 432.281 763.868, 437.550 762.939, 442.500 762.563 C 447.450 762.187, 455.100 761.178, 459.500 760.320 C 463.900 759.463, 473.539 758.477, 480.920 758.131 C 490.089 757.700, 494.467 757.115, 494.742 756.284 C 494.963 755.615, 492.749 753.513, 489.822 751.614 C 486.895 749.715, 483.455 746.586, 482.177 744.662 C 480.732 742.485, 477.720 740.119, 474.204 738.399 C 467.186 734.965, 463.684 731.270, 459.845 723.248 C 457.826 719.029, 455.092 715.452, 451.439 712.248 C 448.462 709.637, 446.020 706.924, 446.013 706.220 C 445.984 703.306, 440.537 692.240, 437.442 688.810 C 432.234 683.036, 431 679.850, 431 672.172 C 431 667.052, 430.584 664.900, 429.405 663.922 C 427.408 662.264, 422.879 653.005, 423.541 651.933 C 423.811 651.496, 423.575 650.856, 423.016 650.510 C 421.787 649.750, 421.666 644.775, 422.845 643.450 C 423.868 642.300, 421.639 637.696, 420.573 638.756 M 599.300 660.256 C 597.672 662.812, 591.055 667, 588.643 667 C 587.274 667, 584.090 665.425, 581.568 663.500 C 576.757 659.828, 574.200 659.200, 572.200 661.200 C 570.310 663.090, 570.793 665.820, 573.250 667.124 C 574.487 667.780, 576.088 669.146, 576.807 670.159 C 577.525 671.171, 578.613 672, 579.223 672 C 579.833 672, 581.045 672.673, 581.916 673.495 C 590.082 681.201, 600.826 684.600, 614 683.645 C 625.437 682.816, 636.161 680.464, 637.232 678.550 C 637.709 677.697, 638.704 677, 639.443 677 C 641.671 677, 642.094 674.121, 640.029 673.015 C 638.985 672.457, 637.575 672, 636.894 672 C 636.214 672, 634.814 671.236, 633.782 670.303 C 631.360 668.111, 625.034 668.232, 623.374 670.504 C 620.114 674.961, 611.178 671.166, 604.587 662.525 C 601.709 658.753, 600.569 658.263, 599.300 660.256 M 553.156 661.250 C 552.472 661.938, 550.469 662.989, 548.706 663.586 C 543.635 665.305, 536.824 678.537, 540 680.500 C 540.550 680.840, 541 682.216, 541 683.559 C 541 684.902, 540.550 686, 540 686 C 537.910 686, 538.965 692.618, 541.422 694.927 C 542.755 696.179, 544.637 699.847, 545.605 703.079 C 547.242 708.543, 547.650 709.049, 551.433 710.291 C 555.042 711.477, 555.662 712.159, 556.936 716.347 L 558.372 721.067 562.451 720.455 C 565.685 719.970, 567.079 720.274, 569.173 721.922 C 573.561 725.373, 578 724.138, 578 719.467 C 578 718.293, 578.337 716.996, 578.750 716.583 C 579.163 716.171, 579.500 715.413, 579.500 714.900 C 579.500 714.386, 581.026 712.174, 582.891 709.983 C 585.942 706.399, 586.747 706, 590.919 706 C 593.726 706, 596.531 706.690, 598.027 707.750 C 599.771 708.984, 603.230 709.658, 609.764 710.036 C 622.488 710.773, 623.739 712.011, 624.644 724.769 C 625.418 735.666, 626.241 736.844, 631.898 735.149 C 637.271 733.539, 639.356 733.705, 642.241 735.975 C 645.849 738.813, 650.413 738.900, 653.302 736.186 C 656.371 733.303, 661.417 731.883, 665.993 732.615 C 669.809 733.225, 669.419 733.522, 677.285 724.034 C 677.953 723.228, 679.962 720.823, 681.750 718.690 C 684.994 714.818, 685 714.791, 685 703.560 C 685 693.383, 684.799 692.128, 682.890 690.405 C 681.730 689.357, 679.893 686.615, 678.809 684.312 C 676.727 679.889, 672.554 676.295, 671.493 678.011 C 669.871 680.636, 664.593 678.439, 658.623 672.652 C 654.519 668.674, 650.795 668.057, 650.186 671.254 C 649.968 672.400, 650.981 673.613, 653.113 674.754 C 658.051 677.398, 661 680.630, 661 683.399 C 661 686.464, 652.437 695.225, 647.728 696.976 C 645.953 697.637, 643.375 698.760, 642 699.473 C 640.625 700.185, 636.217 701.345, 632.205 702.052 C 628.193 702.758, 624.679 703.711, 624.396 704.168 C 623.675 705.335, 609.611 705.211, 608.428 704.028 C 607.894 703.494, 602.838 702.411, 597.194 701.622 C 591.549 700.833, 586.384 699.757, 585.716 699.232 C 585.047 698.706, 583.150 697.960, 581.500 697.575 C 574.794 696.008, 560.833 684.053, 558.912 678.235 C 557.476 673.883, 559.206 669.462, 563.141 667.427 C 566.631 665.622, 566.774 664.245, 563.597 663.037 C 562.276 662.534, 560.899 661.646, 560.538 661.062 C 559.634 659.599, 554.673 659.725, 553.156 661.250 M 774.516 792.356 C 772.875 792.985, 770.809 794.216, 769.925 795.091 C 768.960 796.046, 765.711 796.925, 761.785 797.291 C 758.191 797.627, 753.507 798.780, 751.375 799.853 C 748.992 801.054, 744.229 802.070, 739 802.491 C 734.325 802.868, 729.889 803.683, 729.141 804.301 C 728.392 804.921, 721.769 805.733, 714.365 806.112 C 706.235 806.528, 700.367 807.281, 699.474 808.022 C 698.663 808.695, 698 808.910, 698 808.500 C 698 808.090, 697.292 808.343, 696.427 809.061 C 695.528 809.806, 691.283 810.554, 686.527 810.803 C 679.254 811.185, 677.692 810.955, 674.191 808.987 L 670.182 806.734 666.841 809.117 C 663.776 811.303, 662.357 811.527, 649.667 811.827 C 636.600 812.136, 635.547 812.015, 630.667 809.651 C 626.390 807.579, 623.549 807.061, 614.174 806.640 C 606.112 806.278, 602.137 805.664, 600.378 804.512 C 599.018 803.621, 594.481 802.508, 590.295 802.039 C 585.036 801.449, 582.408 800.693, 581.792 799.593 C 580.924 798.041, 575.965 797.369, 574.702 798.631 C 573.503 799.831, 578.913 806.662, 589.147 816.872 C 598.119 825.822, 601.708 828.638, 605.294 829.538 C 606.737 829.900, 608.442 830.827, 609.081 831.598 C 609.721 832.369, 610.760 833, 611.390 833 C 612.020 833, 614.157 834.102, 616.139 835.449 C 618.121 836.795, 621.038 838.185, 622.621 838.537 C 624.205 838.889, 628.425 840.149, 632 841.338 C 637.939 843.313, 640.442 843.491, 661 843.393 C 678.798 843.309, 684.649 842.941, 689 841.634 C 692.025 840.726, 697.148 839.517, 700.383 838.948 C 703.619 838.379, 707.669 837.164, 709.383 836.249 C 711.098 835.333, 712.800 834.565, 713.167 834.542 C 713.533 834.519, 714.171 834.163, 714.583 833.750 C 714.996 833.337, 716.597 833, 718.142 833 C 719.688 833, 722.425 832.102, 724.226 831.004 C 726.027 829.906, 728.457 829.006, 729.628 829.004 C 730.798 829.002, 732.296 828.348, 732.958 827.551 C 733.619 826.754, 735.698 825.595, 737.577 824.975 C 739.456 824.354, 741.565 823.031, 742.263 822.035 C 742.961 821.038, 745.100 819.485, 747.016 818.584 C 753.915 815.341, 760.302 810.587, 772.628 799.522 C 781.149 791.873, 781.752 789.583, 774.516 792.356 M 349.409 807.376 C 348.562 809.584, 349.689 810.711, 351.217 809.183 C 352.119 808.281, 352.122 807.722, 351.233 806.833 C 350.343 805.943, 349.909 806.072, 349.409 807.376 M 918.245 808.250 C 918.878 810.173, 923 810.450, 923 808.570 C 923 807.549, 922.097 807, 920.417 807 C 918.797 807, 917.987 807.466, 918.245 808.250 M 943.399 822.163 C 943.064 822.705, 943.812 824.236, 945.061 825.565 C 947.476 828.136, 955.767 832.566, 956.602 831.732 C 957.349 830.985, 947.425 821.680, 945.595 821.411 C 944.722 821.283, 943.734 821.621, 943.399 822.163 M 1039.386 963.437 C 1038.650 965.354, 1039.568 968, 1040.969 968 C 1042.297 968, 1042.318 963.315, 1040.993 962.496 C 1040.439 962.153, 1039.716 962.577, 1039.386 963.437 M 868.009 1000.050 C 868.022 1008.126, 869.141 1016, 870.276 1016 C 870.920 1016, 871.023 1012.540, 870.568 1006.250 C 869.789 995.494, 867.994 991.147, 868.009 1000.050 M 871.525 1024 C 873.767 1051.720, 874.095 1053, 878.956 1053 C 883.069 1053, 883.229 1052.078, 879.858 1047.821 C 876.435 1043.499, 875.491 1040.167, 874.466 1028.785 C 874.084 1024.542, 873.148 1020.267, 872.386 1019.285 C 871.176 1017.727, 871.066 1018.327, 871.525 1024 M 438.592 1069.361 C 438.245 1071.209, 438.356 1073.787, 438.837 1075.089 L 439.713 1077.456 441.353 1074.284 C 442.579 1071.914, 442.748 1070.466, 442.021 1068.556 C 440.685 1065.040, 439.344 1065.355, 438.592 1069.361" stroke="none" fill="#171916" fill-rule="evenodd"/>
</svg>