<svg role="img" aria-labelledby="artwork-title" shape-rendering="geometricPrecision" xmlns="http://www.w3.org/2000/svg" width="1200" height="1200" viewBox="0 0 1200 1200" version="1.1">
	<title id="artwork-title">Mascot standing confidently with crossed arms</title>
	<path d="M 706 81.441 C 706 83.728, 704.481 84.166, 693.506 85.045 C 686.343 85.618, 681.930 86.505, 679.126 87.936 C 676.900 89.071, 674.249 90, 673.234 90 C 672.219 90, 669.864 91.125, 668 92.500 C 666.136 93.875, 663.769 95, 662.738 95 C 660.609 95, 652.402 101.436, 646.484 107.748 C 644.293 110.085, 642.075 111.997, 641.555 111.998 C 640.104 112.001, 635 106.795, 635 105.313 C 635 104.591, 634.161 104, 633.135 104 C 632.109 104, 630.197 103.185, 628.885 102.190 C 624.447 98.820, 615.320 95, 611.709 95 C 609.734 95, 607.823 94.523, 607.464 93.941 C 607.104 93.358, 605.839 92.973, 604.654 93.085 C 603.470 93.197, 600.714 92.502, 598.532 91.540 C 594.225 89.642, 584.590 90.039, 580.549 92.282 C 579.422 92.908, 577.971 93.313, 577.325 93.183 C 576.679 93.053, 575.865 93.409, 575.516 93.973 C 575.167 94.538, 573.446 95.010, 571.691 95.022 C 569.936 95.034, 566.648 95.885, 564.384 96.913 C 562.120 97.941, 558.970 99.071, 557.384 99.424 C 555.798 99.778, 552.652 101.289, 550.393 102.783 C 548.134 104.278, 544.473 106.711, 542.257 108.191 C 534.692 113.242, 522 127.731, 522 131.315 C 522 131.983, 521.166 134.098, 520.147 136.015 C 519.128 137.932, 517.733 141.863, 517.047 144.750 C 515.898 149.590, 515.574 150, 512.900 150 C 511.305 150, 510 149.583, 510 149.073 C 510 148.563, 507.413 146.877, 504.250 145.327 C 499.040 142.773, 497.326 142.478, 486 142.186 C 474.844 141.898, 473.283 142.067, 471.478 143.758 C 470.367 144.800, 468.860 145.453, 468.130 145.210 C 466.894 144.798, 463.526 146.011, 460 148.136 C 459.175 148.633, 457.114 149.680, 455.420 150.462 C 453.727 151.244, 451.759 152.585, 451.048 153.442 C 450.337 154.299, 449.061 155, 448.212 155 C 447.364 155, 444.568 157.250, 442 160 C 439.432 162.750, 436.848 165, 436.258 165 C 435.320 165, 423.568 181.472, 423.458 182.941 C 423.435 183.248, 422.642 184.950, 421.696 186.723 C 419.718 190.431, 417 203.613, 417 209.507 C 417 211.710, 417.427 215.003, 417.950 216.824 C 419.564 222.455, 417.998 224.645, 411.802 225.419 C 408.863 225.786, 405.344 226.730, 403.980 227.517 C 402.616 228.303, 400.112 229.608, 398.415 230.418 C 396.719 231.227, 394.019 233.196, 392.415 234.794 C 386.728 240.464, 381 246.845, 381 247.514 C 381 247.886, 380.145 249.391, 379.101 250.858 C 378.056 252.325, 376.229 256.895, 375.041 261.013 C 373.853 265.131, 372.457 269.281, 371.940 270.236 C 370.773 272.392, 370.691 290.251, 371.842 291.550 C 372.304 292.073, 373.709 295.875, 374.962 300 C 376.902 306.382, 377.989 308.198, 382.253 312.183 C 387.088 316.700, 388.132 320, 384.728 320 C 382.577 320, 377.621 326.025, 374.446 332.500 C 372.828 335.800, 371.465 338.725, 371.418 339 C 371.371 339.275, 370.713 340.850, 369.956 342.500 C 368.009 346.740, 368.016 364.673, 369.965 368 C 370.770 369.375, 371.471 370.725, 371.522 371 C 372.451 376.007, 384.133 391, 387.106 391 C 387.572 391, 388.663 392.082, 389.530 393.405 C 390.958 395.585, 390.960 396.159, 389.553 399.527 C 387.257 405.023, 387.491 418.158, 390.003 424.769 C 392.361 430.972, 396.066 436.970, 397.550 436.988 C 398.128 436.994, 399.119 437.519, 399.753 438.153 C 401.404 439.804, 399.679 442.544, 395.207 445.378 C 386.449 450.926, 379.406 459.597, 375.007 470.250 C 373.701 473.412, 372.233 476, 371.744 476 C 371.256 476, 370.956 477.012, 371.077 478.250 C 371.198 479.488, 371.054 481.175, 370.756 482 C 366.886 492.716, 366.863 515.290, 370.713 525 C 371.040 525.825, 371.226 527.193, 371.126 528.040 C 370.949 529.552, 377.177 542.747, 380.708 548.339 C 382.743 551.562, 393.901 562.933, 396.670 564.605 C 398.138 565.491, 398.548 567.174, 398.742 573.105 C 399.217 587.584, 400.958 600.195, 402.926 603.402 C 403.971 605.106, 405.282 608.975, 405.838 612 C 407.260 619.738, 408.390 622.287, 412.953 628.059 C 415.155 630.846, 417.467 635.010, 418.089 637.313 C 419.959 644.236, 421.134 646.051, 430.166 655.977 C 444.068 671.254, 448.766 675.698, 451.723 676.368 C 453.401 676.748, 456.083 678.971, 458.500 681.984 C 460.700 684.727, 462.818 686.978, 463.206 686.986 C 464.150 687.005, 471.317 691.894, 471.985 692.976 C 472.276 693.447, 475.410 695.367, 478.950 697.244 C 485.318 700.620, 487.647 703, 484.583 703 C 483.712 703, 483 703.372, 483 703.827 C 483 704.282, 481.667 704.458, 480.039 704.219 C 478.271 703.960, 475.321 704.634, 472.723 705.892 C 470.328 707.051, 467.048 708.020, 465.434 708.044 C 463.820 708.068, 460.700 708.758, 458.500 709.577 C 456.300 710.396, 452.250 711.468, 449.500 711.958 C 446.750 712.448, 442.250 713.876, 439.500 715.130 C 436.750 716.385, 434.133 717.309, 433.685 717.184 C 433.237 717.059, 431.592 717.866, 430.030 718.978 C 428.469 720.090, 426.621 721, 425.925 721 C 424.310 721, 412.368 726.723, 408.750 729.230 C 407.238 730.279, 406 730.850, 406 730.500 C 406 730.150, 404.762 730.715, 403.250 731.754 C 401.738 732.794, 398.733 734.459, 396.573 735.453 C 392.299 737.422, 373.133 750.930, 371.045 753.446 C 370.336 754.301, 369.455 755, 369.088 755 C 368.291 755, 360.915 761.394, 352.938 769 C 349.765 772.025, 345.556 775.814, 343.585 777.419 C 341.613 779.025, 340 780.868, 340 781.514 C 340 782.161, 336.962 785.600, 333.250 789.156 C 326.429 795.689, 307.720 818.499, 300.675 828.870 C 298.572 831.966, 295.023 836.870, 292.790 839.767 C 290.557 842.664, 288.003 846.394, 287.115 848.055 C 286.227 849.717, 282.327 856.121, 278.448 862.288 C 274.570 868.455, 270.788 875.075, 270.044 877 C 269.300 878.925, 268.198 880.961, 267.596 881.525 C 266.562 882.492, 264.575 885.868, 261.235 892.332 C 259.082 896.499, 259.973 905.692, 262.916 909.672 L 265.238 912.813 261.649 918.657 C 259.674 921.870, 257.359 926.525, 256.503 929 C 255.648 931.475, 254.391 933.950, 253.711 934.500 C 253.031 935.050, 251.720 937.750, 250.798 940.500 C 246.844 952.287, 245.084 956.928, 243.358 960.114 C 242.348 961.976, 241.474 963.950, 241.415 964.500 C 241.355 965.050, 240.971 966.400, 240.560 967.500 C 238.913 971.907, 238.094 974.744, 236.948 980 C 236.289 983.025, 235.142 987.462, 234.398 989.859 C 233.655 992.257, 232.282 1000.469, 231.346 1008.109 C 230.411 1015.749, 229.275 1022, 228.823 1022 C 228.370 1022, 228 1026.950, 228 1033 C 228 1039.667, 228.394 1044, 229 1044 C 229.550 1044, 230.007 1046.588, 230.015 1049.750 C 230.032 1056.496, 231.681 1063.967, 235.982 1076.795 C 240.895 1091.447, 250.268 1104.471, 263.445 1114.957 L 269.784 1120 293.392 1120 C 307.890 1120, 317 1119.628, 317 1119.035 C 317 1117.533, 313.962 1116.332, 308.500 1115.672 C 305.667 1115.331, 300.683 1113.553, 297 1111.572 C 293.425 1109.648, 289.114 1107.409, 287.420 1106.595 C 285.727 1105.781, 283.759 1104.415, 283.048 1103.558 C 282.337 1102.701, 281.137 1102, 280.380 1102 C 278.936 1102, 271 1095.280, 271 1094.057 C 271 1093.666, 268.975 1091.141, 266.500 1088.445 C 264.025 1085.749, 262 1083.119, 262 1082.601 C 262 1082.082, 260.706 1078.922, 259.124 1075.579 C 252.847 1062.309, 252.143 1060.060, 250.487 1048.024 C 249.353 1039.785, 249.005 1033.332, 249.462 1029.024 C 249.843 1025.436, 250.532 1018.599, 250.992 1013.831 C 251.452 1009.064, 252.583 1003.574, 253.505 1001.632 C 254.426 999.690, 254.888 997.628, 254.531 997.050 C 254.174 996.473, 254.319 996, 254.853 996 C 255.387 996, 256.135 994.087, 256.515 991.750 C 257.770 984.032, 262.250 967.535, 263.637 965.527 C 264.387 964.443, 265 962.453, 265 961.107 C 265 958.817, 268.544 950.313, 273.044 941.802 C 274.120 939.768, 275 937.638, 275 937.068 C 275 935.738, 279.666 926.302, 284.360 918.138 C 286.372 914.639, 288.289 910.697, 288.620 909.378 C 289.414 906.214, 290.110 905.871, 297.886 904.816 C 311.921 902.913, 326.902 902.709, 333.849 904.327 C 337.507 905.178, 343.425 906.182, 347 906.556 C 350.575 906.930, 355.075 907.806, 357 908.502 C 358.925 909.198, 362.359 910.272, 364.631 910.889 C 366.904 911.505, 369.319 912.679, 369.998 913.497 C 370.677 914.316, 373.010 915.464, 375.182 916.049 C 380.316 917.431, 386.914 922.021, 386.962 924.243 C 386.983 925.202, 383.015 929.927, 378.145 934.743 C 368.741 944.044, 362 951.999, 362 953.796 C 362 954.396, 361.103 955.515, 360.006 956.283 C 358.910 957.051, 358.310 957.977, 358.673 958.340 C 359.036 958.703, 358.808 959, 358.167 959 C 357.525 959, 356.981 959.788, 356.958 960.750 C 356.935 961.712, 356.078 964.075, 355.053 966 C 353.208 969.465, 353.123 969.500, 346.501 969.500 C 340.270 969.500, 339.649 969.705, 337.412 972.500 C 334.888 975.652, 334.320 979.862, 335.996 982.992 C 337.153 985.155, 346.742 989, 350.978 989 C 352.575 989, 354.178 989.479, 354.540 990.065 C 354.902 990.651, 356.391 991.036, 357.849 990.921 C 359.307 990.807, 361.175 990.965, 362 991.273 C 367.682 993.394, 373.068 994.960, 376.500 995.489 C 381.222 996.217, 389.161 999.099, 397.500 1003.113 C 400.800 1004.701, 404.007 1006.001, 404.628 1006 C 405.248 1006, 406.315 1006.675, 407 1007.500 C 407.685 1008.325, 408.984 1009, 409.887 1009 C 410.791 1009, 413.323 1009.974, 415.515 1011.165 C 417.707 1012.356, 421.678 1013.686, 424.340 1014.119 C 427.441 1014.625, 430.096 1015.823, 431.727 1017.454 C 433.127 1018.854, 434.864 1020, 435.587 1020 C 436.309 1020, 437.260 1020.573, 437.700 1021.274 C 438.140 1021.975, 439.625 1023.311, 441 1024.243 C 442.375 1025.176, 445.300 1027.293, 447.500 1028.948 C 449.700 1030.603, 452.577 1032.430, 453.894 1033.009 C 455.211 1033.587, 457.975 1035.396, 460.038 1037.030 C 462.100 1038.663, 464.014 1040, 464.291 1040 C 464.568 1040, 466.122 1041.165, 467.744 1042.588 C 470.504 1045.011, 483.337 1054.164, 496.058 1062.785 C 499.115 1064.856, 503.615 1068.171, 506.058 1070.151 C 508.501 1072.131, 512.075 1074.537, 514 1075.498 C 515.925 1076.459, 521.946 1080.453, 527.381 1084.373 C 532.815 1088.293, 538.827 1092.432, 540.741 1093.571 C 544.942 1096.072, 546.555 1098.524, 544.762 1099.683 C 544.068 1100.132, 540.800 1101.012, 537.500 1101.639 C 534.200 1102.265, 529.700 1103.483, 527.500 1104.345 C 525.300 1105.207, 521.888 1105.932, 519.917 1105.956 C 517.946 1105.980, 515.996 1106.338, 515.583 1106.750 C 515.171 1107.163, 514.533 1107.519, 514.167 1107.542 C 513.800 1107.565, 512.150 1108.296, 510.500 1109.168 C 508.850 1110.039, 503.900 1111.079, 499.500 1111.479 C 495.100 1111.879, 489.546 1112.867, 487.158 1113.674 C 484.769 1114.482, 479.034 1115.532, 474.412 1116.009 C 465.788 1116.899, 464 1117.423, 464 1119.059 C 464 1119.639, 495.792 1120, 546.969 1120 C 619.347 1120, 629.866 1119.813, 629.376 1118.538 C 629.068 1117.734, 627.844 1116.781, 626.658 1116.421 C 625.471 1116.060, 622.124 1114.693, 619.220 1113.383 C 616.317 1112.072, 613.384 1111, 612.702 1111 C 612.021 1111, 609.809 1109.875, 607.785 1108.500 C 605.762 1107.125, 603.468 1106, 602.688 1106 C 601.908 1106, 600.197 1105.162, 598.885 1104.138 C 597.573 1103.113, 595.375 1101.926, 594 1101.500 C 592.625 1101.074, 590.427 1099.887, 589.115 1098.862 C 587.803 1097.838, 586.171 1097, 585.488 1097 C 584.804 1097, 583.627 1096.255, 582.872 1095.345 C 582.118 1094.435, 580.150 1093.068, 578.500 1092.308 C 576.850 1091.547, 573.475 1089.596, 571 1087.971 C 568.525 1086.346, 565.263 1084.518, 563.750 1083.910 C 562.237 1083.302, 561 1082.323, 561 1081.736 C 561 1081.148, 560.703 1080.964, 560.340 1081.327 C 559.977 1081.690, 559.051 1081.090, 558.283 1079.994 C 557.515 1078.897, 556.008 1078, 554.934 1078 C 553.859 1078, 552.210 1077.100, 551.268 1076 C 550.326 1074.900, 549.136 1074, 548.622 1074 C 548.109 1074, 546.195 1072.861, 544.369 1071.468 C 542.543 1070.075, 540.849 1069.063, 540.605 1069.218 C 540.361 1069.373, 539.017 1068.425, 537.618 1067.111 C 534.892 1064.550, 532.373 1062.943, 527.317 1060.541 C 525.566 1059.710, 523.501 1058.125, 522.727 1057.021 C 521.954 1055.916, 521.023 1055.310, 520.660 1055.673 C 520.297 1056.036, 520 1055.851, 520 1055.262 C 520 1054.672, 517.870 1052.942, 515.266 1051.416 C 512.662 1049.890, 510.074 1048.275, 509.516 1047.828 C 503.652 1043.132, 499.457 1040.090, 495.959 1038 C 493.658 1036.625, 490.857 1034.713, 489.735 1033.750 C 488.612 1032.787, 487.176 1032, 486.542 1032 C 485.909 1032, 483.627 1030.384, 481.471 1028.410 C 479.315 1026.435, 476.190 1024.122, 474.526 1023.269 C 471.894 1021.920, 462.472 1014.714, 458 1010.630 C 457.175 1009.876, 455.150 1008.517, 453.500 1007.610 C 451.850 1006.703, 448.475 1004.424, 446 1002.546 C 442.306 999.744, 440.595 999.121, 436.444 999.066 C 432.693 999.017, 430.514 998.355, 428 996.500 C 426.136 995.125, 423.777 994, 422.758 994 C 421.739 994, 419.862 992.875, 418.588 991.500 C 417.313 990.125, 415.422 988.997, 414.385 988.993 C 413.348 988.990, 411.150 988.093, 409.500 987 C 407.850 985.907, 405.818 985.010, 404.985 985.007 C 404.152 985.003, 401.858 984.136, 399.887 983.079 C 397.916 982.023, 394.339 980.630, 391.937 979.983 C 389.535 979.336, 386.481 977.951, 385.150 976.904 C 383.819 975.857, 381.328 974.993, 379.615 974.985 C 377.902 974.976, 375.851 974.558, 375.057 974.056 C 373.516 973.081, 373.347 973.591, 378.049 965 C 381.728 958.278, 392.137 948.073, 401.876 941.639 C 407.169 938.142, 412.625 934.941, 414 934.526 C 415.375 934.111, 417.850 932.982, 419.500 932.015 C 421.150 931.049, 424.075 930.012, 426 929.710 C 427.925 929.407, 431.300 928.371, 433.500 927.406 C 435.700 926.441, 438.470 925.756, 439.654 925.885 C 440.839 926.013, 442.104 925.642, 442.464 925.059 C 443.366 923.599, 481.637 923.604, 482.540 925.065 C 482.902 925.651, 484.391 926.035, 485.849 925.919 C 487.307 925.803, 489.850 926.255, 491.500 926.924 C 493.150 927.594, 496.300 928.539, 498.500 929.026 C 500.700 929.513, 504.525 930.362, 507 930.913 C 518.778 933.534, 524.843 935.282, 528.680 937.159 C 530.980 938.284, 533.342 938.907, 533.930 938.543 C 534.519 938.179, 535 938.359, 535 938.941 C 535 939.523, 536.368 940, 538.040 940 C 539.712 940, 542.844 940.900, 545 942 C 547.156 943.100, 550.088 944, 551.515 944 C 552.942 944, 555.998 944.850, 558.305 945.889 C 560.612 946.928, 564.460 948.100, 566.856 948.495 C 569.251 948.889, 571.995 949.995, 572.954 950.954 C 573.912 951.912, 576.506 952.985, 578.719 953.339 C 580.932 953.693, 584.713 954.877, 587.121 955.969 C 589.530 957.062, 592.500 957.966, 593.723 957.978 C 594.946 957.990, 597.871 958.877, 600.223 959.949 C 602.575 961.022, 606.173 962.164, 608.218 962.489 C 610.263 962.813, 612.555 963.698, 613.311 964.454 C 614.068 965.210, 616.895 966.497, 619.593 967.313 C 622.292 968.129, 625.850 969.515, 627.500 970.392 C 629.150 971.270, 631.530 971.990, 632.790 971.994 C 634.049 971.997, 636.844 972.900, 639 974 C 641.156 975.100, 643.557 976, 644.334 976 C 645.112 976, 647.717 977.074, 650.124 978.388 C 652.531 979.701, 656.279 981.088, 658.453 981.471 C 660.628 981.854, 664.003 982.965, 665.953 983.941 C 667.904 984.917, 671.192 985.976, 673.260 986.296 C 675.327 986.616, 678.391 987.854, 680.067 989.048 C 681.744 990.241, 683.358 990.975, 683.655 990.678 C 683.952 990.381, 686.338 991.457, 688.958 993.069 C 691.578 994.681, 694.346 996.037, 695.111 996.081 C 696.480 996.162, 701.643 998.890, 714.350 1006.250 C 717.911 1008.313, 721.439 1010, 722.190 1010 C 722.941 1010, 724.498 1010.660, 725.650 1011.467 C 726.802 1012.274, 729.939 1013.407, 732.622 1013.984 C 735.305 1014.562, 738.513 1015.553, 739.750 1016.186 C 741.365 1017.013, 742.635 1017.039, 744.250 1016.279 C 745.488 1015.697, 748.414 1014.702, 750.754 1014.069 C 754.179 1013.142, 756.015 1011.660, 760.183 1006.459 L 765.359 1000 774.190 1000 C 781.114 1000, 784 999.540, 787.549 997.872 C 791.885 995.834, 799 988.549, 799 986.147 C 799 985.516, 799.498 985, 800.107 985 C 800.716 985, 800.966 984.354, 800.663 983.565 C 800.360 982.775, 800.613 981.962, 801.225 981.758 C 801.880 981.540, 802.527 977.790, 802.797 972.654 C 803.252 963.982, 803.277 963.911, 806.377 962.615 C 808.095 961.897, 810.118 960.565, 810.872 959.655 C 811.627 958.745, 812.752 957.999, 813.372 957.999 C 813.993 957.998, 815.557 955.635, 816.848 952.749 C 819.596 946.606, 819.417 937.223, 816.490 933.989 C 813.265 930.426, 817.047 928.733, 822.213 931.428 C 823.705 932.206, 827.530 933.381, 830.713 934.039 C 833.896 934.697, 837.708 936.092, 839.185 937.139 C 840.662 938.187, 842.237 938.961, 842.685 938.860 C 843.552 938.665, 847.510 940.350, 850 941.973 C 850.825 942.511, 853.075 943.641, 855 944.483 C 858.971 946.220, 863.263 948.774, 871.671 954.402 C 874.877 956.548, 879.166 959.407, 881.203 960.755 C 883.239 962.103, 885.612 964.285, 886.476 965.603 C 887.339 966.921, 888.598 968.003, 889.273 968.006 C 890.870 968.014, 901 977.348, 901 978.811 C 901 979.428, 902.462 981.462, 904.250 983.329 C 912.025 991.453, 913.276 994.782, 910.148 999.014 C 908.987 1000.583, 907.593 1003.856, 907.048 1006.286 C 906.181 1010.154, 902.600 1018.518, 899.892 1023 C 899.021 1024.441, 897.881 1026.811, 896.525 1030 C 895.113 1033.320, 888.624 1043.941, 880.131 1056.832 C 876.629 1062.150, 873.506 1067.175, 873.192 1068 C 872.414 1070.045, 864.017 1082.259, 862.536 1083.500 C 861.880 1084.050, 856.814 1089.946, 851.278 1096.602 C 845.743 1103.259, 838.916 1110.684, 836.108 1113.102 C 833.299 1115.521, 831.001 1118.063, 831 1118.750 C 831 1119.724, 838.025 1120, 862.794 1120 L 894.588 1120 894.243 1098.750 C 893.956 1081.040, 894.153 1077.084, 895.423 1075 C 896.261 1073.625, 897.663 1070.981, 898.539 1069.124 C 899.415 1067.268, 902.029 1062.543, 904.347 1058.624 C 910.709 1047.871, 913 1043.387, 913 1041.691 C 913 1040.845, 914.165 1038.769, 915.589 1037.077 C 917.013 1035.385, 917.928 1034, 917.623 1034 C 916.860 1034, 923.094 1022.656, 924.293 1021.862 C 924.823 1021.511, 927.545 1020.920, 930.343 1020.549 C 934.757 1019.963, 936.104 1019.187, 940.516 1014.687 C 945.315 1009.794, 945.874 1008.651, 950.399 994.500 C 953.038 986.250, 955.451 978.825, 955.762 978 C 956.073 977.175, 956.404 976.275, 956.497 976 C 956.591 975.725, 957.226 974.150, 957.909 972.500 C 958.592 970.850, 959.609 967.025, 960.170 964 C 960.730 960.975, 961.791 957.055, 962.527 955.288 C 963.264 953.522, 964.159 949.922, 964.518 947.288 C 965.463 940.346, 968.091 929.693, 969.201 928.303 C 969.727 927.645, 970.055 926.070, 969.930 924.803 C 969.805 923.536, 970.107 921.600, 970.601 920.500 C 972.072 917.227, 971.751 841.611, 970.259 839.812 C 969.576 838.989, 969.296 838.037, 969.637 837.696 C 969.978 837.356, 969.334 835.115, 968.207 832.717 C 967.080 830.319, 965.872 826.589, 965.523 824.429 C 963.696 813.126, 949.127 782.295, 942.235 775.144 C 940.456 773.299, 939 771.123, 939 770.309 C 939 768.351, 916.565 746, 914.599 746 C 913.758 746, 912.568 745.062, 911.955 743.915 C 911.341 742.769, 909.413 741.176, 907.670 740.375 C 905.926 739.575, 901.125 736.477, 897 733.491 C 892.875 730.505, 887.582 727.096, 885.237 725.915 C 882.893 724.734, 880.729 723.370, 880.428 722.884 C 880.128 722.398, 879.121 721.997, 878.191 721.994 C 876.463 721.988, 875.907 721.728, 865.500 716.072 C 862.200 714.278, 855.450 711.466, 850.500 709.822 C 845.550 708.178, 840.150 706.019, 838.500 705.024 C 836.850 704.030, 833.925 702.903, 832 702.520 C 830.075 702.137, 826.025 701.004, 823 700.002 C 817.358 698.133, 802.625 694.635, 795.500 693.473 C 793.300 693.115, 790.985 692.396, 790.355 691.875 C 789.726 691.355, 788.826 691.017, 788.355 691.124 C 787.885 691.230, 786.825 691.043, 786 690.708 C 785.175 690.372, 783.410 689.964, 782.078 689.799 C 778.787 689.393, 778.294 687.219, 781.239 686.099 C 782.560 685.597, 786.534 682.405, 790.070 679.005 C 793.607 675.606, 797.851 672.258, 799.503 671.566 C 802.583 670.276, 808.397 663.736, 811 658.634 C 811.804 657.058, 816.070 652.484, 820.481 648.469 C 828.168 641.472, 830.512 638.113, 834.769 628 C 836.769 623.249, 839.310 617.932, 842.315 612.213 C 844.020 608.967, 844.351 608.801, 847.815 609.455 C 857.256 611.236, 867.038 611.605, 875.047 610.484 C 884.118 609.213, 895.508 605.717, 898.079 603.414 C 898.947 602.636, 899.994 602, 900.405 602 C 901.944 602, 912.731 592.932, 919.037 586.337 C 929.208 575.700, 935.107 567.277, 936.430 561.500 C 936.808 559.850, 937.953 556.700, 938.974 554.500 C 939.995 552.300, 941.144 548.025, 941.527 545 C 941.910 541.975, 942.679 538.938, 943.234 538.250 C 943.790 537.563, 943.910 537, 943.500 537 C 943.090 537, 943.373 536.255, 944.128 535.345 C 945.956 533.139, 946.064 512.985, 944.259 510.811 C 943.576 509.989, 943.303 509.031, 943.651 508.682 C 944 508.334, 943.830 507.475, 943.273 506.774 C 942.716 506.073, 941.945 503.700, 941.559 501.500 C 940.908 497.783, 937.232 489.453, 933.210 482.577 C 932.269 480.970, 930.038 478.336, 928.250 476.724 C 926.462 475.112, 925 473.391, 925 472.899 C 925 472.408, 926.483 470.317, 928.296 468.253 C 934.970 460.653, 939.434 451.382, 941.073 441.717 C 942.139 435.437, 940.791 420.391, 939.003 418.603 C 936.576 416.176, 939.627 411.804, 945.192 409.736 C 946.122 409.390, 947.668 407.846, 948.626 406.304 C 949.585 404.762, 951.249 402.504, 952.324 401.287 C 953.399 400.071, 954.778 398.218, 955.389 397.170 C 956 396.122, 957.325 394.102, 958.333 392.680 C 959.342 391.259, 961.363 386.812, 962.825 382.798 C 965.195 376.289, 965.467 374.202, 965.339 363.500 C 965.199 351.770, 964.961 350.550, 960.659 339.500 C 958.895 334.969, 953.718 327.941, 949.113 323.823 C 944.348 319.563, 944.107 317.863, 947.424 311.876 C 949.012 309.010, 950.584 303.169, 951.978 294.952 L 954.108 282.405 951.987 272.170 C 948.898 257.265, 943.039 246.806, 932.257 236.952 C 925.036 230.353, 918.240 226.045, 915 226.014 C 913.625 226.001, 910.700 224.881, 908.500 223.526 C 905.302 221.556, 903.141 221.056, 897.719 221.031 C 889.926 220.995, 888.531 219.625, 891.328 214.751 C 893.163 211.554, 893.611 202.496, 891.984 201.490 C 891.425 201.144, 891.238 200.423, 891.570 199.887 C 891.901 199.351, 891.742 198.370, 891.216 197.706 C 890.691 197.043, 889.954 193.686, 889.580 190.246 C 888.964 184.583, 885.633 176.065, 882.445 172 C 881.798 171.175, 880.963 169.215, 880.589 167.644 C 880.215 166.074, 879.126 164.584, 878.169 164.334 C 877.213 164.084, 875.126 161.966, 873.531 159.628 C 871.937 157.290, 869.095 154.280, 867.216 152.939 C 865.336 151.597, 862.943 149.713, 861.899 148.750 C 860.855 147.787, 859.585 147, 859.077 147 C 858.569 147, 856.812 145.871, 855.173 144.492 C 853.254 142.877, 848.692 141.096, 842.369 139.492 C 825.298 135.161, 809.840 136.258, 796.244 142.763 C 794.453 143.620, 792.748 144.081, 792.454 143.787 C 792.160 143.493, 791.554 140.942, 791.108 138.119 C 790.662 135.295, 789.587 132.201, 788.719 131.242 C 787.852 130.284, 787.057 129.050, 786.951 128.500 C 786.501 126.141, 785.043 123.145, 784.047 122.529 C 783.454 122.163, 782.313 120.292, 781.511 118.372 C 779.903 114.523, 764.635 99, 762.457 99 C 761.187 99, 757.029 96.567, 751 92.297 C 746.935 89.417, 739.102 86.927, 729.526 85.470 C 717.031 83.568, 715.970 83.241, 716.642 81.490 C 717.107 80.279, 716.163 80, 711.607 80 C 707.392 80, 706 80.358, 706 81.441 M 700.500 103.763 C 697.200 104.587, 693.518 105.712, 692.317 106.264 C 691.117 106.815, 689.444 107.001, 688.599 106.677 C 687.755 106.352, 686.820 106.482, 686.522 106.965 C 686.223 107.448, 683.846 108.633, 681.240 109.600 C 678.633 110.567, 675.306 112.177, 673.846 113.179 C 672.386 114.181, 670.506 115, 669.668 115 C 668.831 115, 667.212 116.186, 666.073 117.635 C 664.933 119.084, 664 119.923, 664 119.500 C 664 119.077, 663.067 119.916, 661.927 121.365 C 660.788 122.814, 659.297 124, 658.615 124 C 656.784 124, 652 129.331, 652 131.370 C 652 134.529, 653.990 137, 656.535 137 C 657.964 137, 659 136.420, 659 135.620 C 659 133.935, 667.273 127, 669.283 127 C 670.079 127, 671.803 126.169, 673.115 125.152 C 674.427 124.136, 676.783 122.991, 678.350 122.608 C 679.918 122.225, 682.543 120.919, 684.184 119.706 C 687.003 117.622, 688.171 117.500, 705.334 117.500 C 722.137 117.500, 723.763 117.661, 727 119.639 C 728.925 120.816, 732.300 122.091, 734.500 122.473 C 740.167 123.457, 749.242 129.321, 758.500 137.979 C 762.988 142.176, 763.304 142.619, 769.065 152.801 C 771.337 156.816, 773.714 159.931, 774.348 159.724 C 775.676 159.288, 776.445 153.601, 775.506 151.155 C 775.157 150.245, 774.850 149.275, 774.826 149 C 774.801 148.725, 773.930 147.306, 772.890 145.846 C 771.851 144.386, 771 142.561, 771 141.790 C 771 141.019, 769.875 138.864, 768.500 137 C 767.125 135.136, 766 132.832, 766 131.878 C 766 130.925, 764.814 129.212, 763.365 128.073 C 761.916 126.933, 761.128 125.982, 761.615 125.960 C 762.102 125.938, 761.293 125.265, 759.819 124.464 C 758.344 123.663, 756.840 122.072, 756.477 120.929 C 756.114 119.785, 755.567 119.100, 755.260 119.406 C 754.954 119.713, 753.982 119.184, 753.102 118.232 C 751.670 116.683, 732.486 106.602, 730.833 106.529 C 730.467 106.513, 729.829 106.162, 729.417 105.750 C 729.004 105.338, 727.238 105, 725.492 105 C 723.746 105, 720.109 104.330, 717.409 103.511 C 711.543 101.731, 708.454 101.778, 700.500 103.763 M 579.721 113.125 C 572.396 114.068, 569.230 115.259, 561.500 119.983 C 558.750 121.663, 555.600 123.431, 554.500 123.912 C 551.778 125.102, 545.132 131.878, 543.379 135.250 C 542.592 136.762, 541.503 138, 540.958 138 C 539.244 138, 534 152.635, 534 157.419 C 534 158.877, 533.276 161.176, 532.390 162.527 C 530.593 165.270, 531.131 168, 533.469 168 C 534.650 168, 535 166.796, 535 162.737 C 535 158.378, 535.602 156.580, 538.500 152.276 C 540.425 149.418, 542 146.806, 542 146.473 C 542 143.823, 556.814 128.504, 560.489 127.354 C 561.595 127.008, 563.573 125.887, 564.885 124.862 C 566.197 123.838, 568.005 123, 568.903 123 C 569.801 123, 572.328 121.763, 574.518 120.250 C 578.454 117.532, 578.685 117.500, 594.416 117.500 C 605.861 117.500, 610.445 117.835, 610.731 118.694 C 610.950 119.350, 611.771 119.641, 612.556 119.340 C 613.341 119.039, 614.255 119.502, 614.588 120.369 C 614.921 121.236, 616.695 122.227, 618.531 122.572 C 620.367 122.916, 622.643 124.053, 623.590 125.099 C 625.418 127.120, 629 127.696, 629 125.969 C 629 125.401, 628.212 124.635, 627.250 124.266 C 626.288 123.897, 623.635 122.336, 621.355 120.797 C 619.075 119.259, 616.861 118, 616.434 118 C 616.007 118, 614.947 117.395, 614.079 116.657 C 612.104 114.976, 596.604 111.957, 590.820 112.126 C 588.444 112.196, 583.449 112.645, 579.721 113.125 M 641.694 148.639 C 640.676 149.657, 641.952 151, 643.937 151 C 644.937 151, 646.315 150.325, 647 149.500 C 648.059 148.224, 647.803 148, 645.289 148 C 643.663 148, 642.046 148.288, 641.694 148.639 M 816.484 158.027 C 816.135 158.591, 815.321 158.972, 814.675 158.873 C 814.029 158.774, 811.925 159.386, 810 160.233 C 808.075 161.079, 804.925 162.097, 803 162.494 C 798.772 163.366, 794.325 165.961, 791.009 169.490 C 788.941 171.692, 788.786 172.253, 790.026 173.037 C 792.054 174.320, 792.342 174.262, 794.654 172.108 C 795.771 171.067, 800.401 169.252, 804.941 168.075 C 813.575 165.837, 813.107 165.820, 828 168.921 C 832.264 169.809, 836 171.730, 836 173.035 C 836 173.566, 836.860 174, 837.910 174 C 841.224 174, 856.900 187.647, 856.973 190.595 C 856.988 191.197, 857.874 192.481, 858.943 193.449 C 860.012 194.416, 861.193 196.623, 861.568 198.354 C 861.942 200.084, 863.121 202.734, 864.188 204.243 C 865.254 205.752, 865.866 207.408, 865.547 207.924 C 865.228 208.440, 865.425 209.144, 865.984 209.490 C 866.543 209.835, 867 213.338, 867 217.273 C 867 223.860, 867.128 224.300, 868.615 222.813 C 872.469 218.959, 870.968 194.078, 866.449 186.920 C 865.102 184.786, 863.994 182.693, 863.986 182.270 C 863.953 180.497, 853.614 169.938, 848.748 166.709 C 845.736 164.709, 840.495 162.474, 836.492 161.483 C 832.647 160.531, 829.068 159.498, 828.541 159.188 C 828.013 158.877, 825.651 158.742, 823.291 158.887 C 820.732 159.045, 819 158.717, 819 158.076 C 819 156.708, 817.319 156.675, 816.484 158.027 M 513.187 163.500 C 510.661 166.405, 508.203 166.586, 494.742 164.860 C 487.059 163.874, 484.670 163.964, 477.175 165.518 C 472.404 166.507, 466.250 168.483, 463.500 169.908 C 457.126 173.212, 446.431 183.712, 444.379 188.679 C 443.511 190.780, 442.123 193.263, 441.296 194.195 C 439.624 196.077, 438.216 214.738, 439.392 219.424 C 440.463 223.692, 442 221.351, 442 215.452 C 442 206.622, 445.756 198.788, 455.250 187.818 C 456.762 186.070, 458 184.271, 458 183.820 C 458 183.369, 458.500 183, 459.111 183 C 459.722 183, 462.310 181.268, 464.861 179.150 C 467.413 177.033, 470.783 174.988, 472.350 174.606 C 473.918 174.224, 476.543 172.919, 478.184 171.706 C 480.892 169.704, 482.341 169.500, 493.857 169.500 C 506.530 169.500, 506.552 169.504, 511.737 172.831 C 514.592 174.663, 517.401 175.870, 517.979 175.513 C 518.557 175.156, 519.787 173.207, 520.712 171.182 C 521.638 169.157, 522.565 167.173, 522.773 166.773 C 523.268 165.822, 518.056 161, 516.534 161 C 515.889 161, 514.382 162.125, 513.187 163.500 M 778.154 171.438 C 778.345 172.355, 778.950 173.082, 779.500 173.053 C 780.984 172.974, 780.712 170.737, 779.154 170.218 C 778.313 169.938, 777.939 170.395, 778.154 171.438 M 865.040 238.452 C 863.074 240.821, 864.207 243.464, 867.343 243.825 C 872.426 244.408, 873.185 243.416, 870.230 240.049 C 867.187 236.581, 866.713 236.436, 865.040 238.452 M 881.590 242.332 C 878.080 243.831, 877.514 246.250, 880.122 248.610 C 881.598 249.946, 882.322 250.078, 883.224 249.176 C 884.665 247.735, 892.642 247.611, 893.510 249.016 C 893.856 249.575, 894.497 249.811, 894.935 249.540 C 895.374 249.269, 896.539 249.938, 897.525 251.028 C 898.511 252.117, 901.109 253.491, 903.298 254.080 C 908.222 255.406, 921.383 268.272, 922.887 273.229 C 923.432 275.028, 924.561 278.300, 925.396 280.500 C 926.310 282.911, 926.930 287.952, 926.956 293.191 C 926.999 301.648, 928.009 304.786, 929.549 301.244 C 929.966 300.285, 930.217 298.752, 930.106 297.839 C 929.995 296.925, 930.376 295.886, 930.952 295.530 C 932.342 294.671, 932.331 278.323, 930.941 277.464 C 930.358 277.104, 929.991 275.839, 930.125 274.654 C 930.580 270.614, 924.072 258.912, 917.982 252.822 C 911.732 246.572, 910.194 245.746, 899.500 242.898 C 891.423 240.747, 885.725 240.567, 881.590 242.332 M 413.462 245.061 C 402.872 251.028, 393.572 262.555, 391.844 271.855 C 390.759 277.698, 391.460 291.448, 393.057 295.650 C 394.879 300.443, 395.813 297.786, 395.658 288.250 C 395.571 282.887, 395.943 277.825, 396.485 277 C 397.026 276.175, 397.497 275.275, 397.532 275 C 397.566 274.725, 399.204 271.125, 401.171 267 C 404.702 259.596, 415.067 247.734, 416.636 249.302 C 417.012 249.679, 417.969 249.062, 418.761 247.931 C 419.554 246.799, 421.281 245.463, 422.601 244.962 C 423.920 244.460, 425 243.588, 425 243.025 C 425 241.081, 418.486 242.230, 413.462 245.061 M 546.358 248.772 C 545.180 249.723, 543.481 251.963, 542.582 253.750 C 541.684 255.537, 540.528 257, 540.013 257 C 539.498 257, 538.592 258.803, 537.999 261.006 C 536.358 267.099, 524.828 278.041, 515.269 282.578 C 506.205 286.879, 502.825 288.343, 501.500 288.539 C 500.950 288.621, 499.233 289.208, 497.685 289.844 C 493.992 291.360, 481.468 291.330, 478.684 289.798 C 473.489 286.939, 472.426 288.119, 471.750 297.500 C 471.210 304.996, 465.302 320, 462.890 320 C 462.217 320, 461.889 320.222, 462.160 320.493 C 462.821 321.154, 455.609 328.633, 449.907 333.198 L 445.314 336.876 444.659 349.827 C 444.254 357.834, 443.280 365.207, 442.108 369.139 C 441.065 372.638, 439.704 380.225, 439.084 386 C 438.463 391.775, 437.541 396.642, 437.034 396.815 C 436.527 396.988, 436.360 397.775, 436.663 398.565 C 436.966 399.354, 436.756 400, 436.197 400 C 434.647 400, 433.618 415.949, 434.946 419.396 L 436.061 422.291 438.281 420.291 C 440.531 418.263, 445.271 415.676, 452.465 412.550 C 454.700 411.579, 462.337 410.225, 469.965 409.447 C 477.409 408.688, 486.253 407.769, 489.617 407.405 C 498.196 406.477, 527.923 408.768, 537.500 411.096 C 552.329 414.701, 568.722 423.895, 573.020 431.018 C 578.403 439.939, 578.727 440.088, 588.500 438.124 C 599.803 435.853, 619.574 438.372, 627.876 443.142 C 631.057 444.969, 631.361 444.983, 633.126 443.386 C 634.157 442.453, 635 441.171, 635 440.536 C 635 436.732, 650.182 423.949, 656.500 422.432 C 658.150 422.036, 661.411 420.828, 663.746 419.748 C 666.082 418.667, 668.655 418.037, 669.464 418.348 C 670.274 418.659, 671.160 418.551, 671.433 418.108 C 671.706 417.666, 676.561 416.733, 682.220 416.034 C 694.952 414.464, 727.519 415.540, 733 417.713 C 733.825 418.040, 735.314 418.205, 736.310 418.081 C 737.305 417.956, 738.655 418.295, 739.310 418.835 C 739.964 419.374, 744.516 420.767, 749.425 421.930 C 754.334 423.094, 758.834 424.423, 759.425 424.885 C 760.016 425.347, 761.850 426.042, 763.500 426.431 C 771.536 428.325, 787.469 441.290, 791.366 449.106 C 792.369 451.120, 794.098 451.659, 805.822 453.616 C 813.146 454.839, 819.895 456.169, 820.819 456.573 C 821.744 456.977, 822.950 457.376, 823.500 457.460 C 824.050 457.545, 825.349 457.998, 826.386 458.466 C 829.435 459.844, 831.439 457.742, 832.170 452.397 C 832.539 449.703, 833.132 446.375, 833.489 445 C 834.024 442.937, 833.248 441.548, 829.050 437.053 C 822.511 430.052, 821.705 427.120, 822.143 411.920 C 822.456 401.026, 822.773 399.117, 824.720 396.387 C 825.942 394.675, 826.721 393.054, 826.453 392.786 C 825.925 392.259, 827.474 389.077, 830.313 384.856 C 832.974 380.900, 831.708 377, 827.763 377 C 824.686 377, 815.240 372.199, 812.995 369.494 C 812.313 368.672, 811.135 368, 810.378 368 C 809.620 368, 809 367.380, 809 366.622 C 809 365.865, 808.279 364.647, 807.399 363.916 C 803.377 360.578, 798.836 351.557, 797.285 343.828 C 795.958 337.211, 795.878 334.372, 796.808 326.826 C 797.421 321.843, 798.645 316.664, 799.528 315.316 C 800.787 313.396, 800.877 312.556, 799.944 311.433 C 798.539 309.739, 795.835 309.565, 794.327 311.073 C 793.738 311.662, 789.035 312.392, 783.877 312.694 C 773.426 313.305, 764.097 311.548, 755.887 307.423 C 751.375 305.156, 739.645 293.469, 737.898 289.500 C 737.414 288.400, 736.107 286.371, 734.994 284.991 C 733.620 283.288, 732.765 280.289, 732.332 275.651 C 731.940 271.451, 731.191 268.627, 730.387 268.318 C 729.668 268.042, 726.685 268.950, 723.758 270.335 C 720.830 271.720, 717.100 273.173, 715.468 273.564 C 713.835 273.956, 711.985 274.680, 711.355 275.173 C 710.726 275.666, 709.826 275.982, 709.355 275.874 C 708.885 275.765, 707.150 276.241, 705.500 276.930 C 702.120 278.342, 686.413 278.005, 683.983 276.468 C 683.167 275.953, 682.275 275.485, 682 275.429 C 680.886 275.202, 677.163 273.593, 671.029 270.685 C 666.524 268.550, 662.166 265.245, 656.686 259.809 C 652.356 255.514, 648.440 252, 647.983 252 C 647.527 252, 645.150 253.529, 642.702 255.398 C 640.254 257.267, 637.182 259.348, 635.875 260.023 C 634.569 260.698, 632.600 262.003, 631.500 262.924 C 628.667 265.297, 619.231 268.906, 612.888 270.043 C 601.297 272.122, 596.475 272.219, 587.603 270.552 C 575.268 268.234, 568.565 264.572, 559.099 254.978 C 554.769 250.590, 550.614 247.010, 549.864 247.022 C 549.114 247.034, 547.536 247.822, 546.358 248.772 M 397.280 301.163 C 396.032 302.666, 397.810 306, 399.860 306 C 401.386 306, 401.304 303.798, 399.697 301.601 C 398.624 300.134, 398.198 300.056, 397.280 301.163 M 931.378 337.008 C 930.202 338.199, 931.694 342.976, 933.248 342.992 C 933.659 342.996, 935.165 345.363, 936.594 348.250 C 938.656 352.414, 939.417 356.033, 940.277 365.750 C 941.021 374.167, 941.744 378, 942.587 378 C 943.296 378, 943.605 377.205, 943.319 376.113 C 943.048 375.075, 943.315 373.923, 943.913 373.554 C 945.313 372.688, 945.378 354.352, 943.984 353.490 C 943.425 353.144, 943.195 352.494, 943.473 352.044 C 943.751 351.595, 943.282 350.649, 942.431 349.943 C 941.580 349.237, 940.283 347.273, 939.547 345.580 C 937.374 340.577, 932.698 335.670, 931.378 337.008 M 505.500 364.097 C 503.850 364.681, 501.825 365.419, 501 365.737 C 500.175 366.055, 498.971 366.233, 498.325 366.131 C 497.679 366.030, 496.865 366.409, 496.516 366.973 C 496.167 367.538, 494.784 368, 493.441 368 C 492.098 368, 491 368.414, 491 368.921 C 491 369.427, 489.675 370.132, 488.056 370.488 C 481.380 371.954, 472.995 380.707, 473.004 386.200 C 473.010 389.790, 476.635 394.858, 480.523 396.712 C 484.379 398.551, 488.213 397.992, 496.500 394.383 C 498.700 393.425, 501.248 392.743, 502.161 392.868 C 503.075 392.993, 504.114 392.624, 504.470 392.048 C 504.843 391.445, 508.887 391, 514 391 C 519.113 391, 523.157 391.445, 523.530 392.048 C 523.886 392.624, 524.925 393.004, 525.839 392.892 C 526.752 392.779, 528.850 393.243, 530.500 393.921 C 535.283 395.888, 543.647 397.306, 546.396 396.616 C 550.107 395.684, 556 387.513, 556 383.298 C 556 378.528, 551.007 372.642, 544.072 369.236 C 541.007 367.731, 538.050 366.458, 537.500 366.406 C 536.950 366.354, 535.150 365.730, 533.500 365.019 C 529.656 363.362, 509.456 362.697, 505.500 364.097 M 692.500 371.854 C 682.334 373.695, 676 380.255, 676 388.944 C 676 393.749, 676.346 394.590, 679.571 397.632 C 683.613 401.444, 684.352 401.533, 698.013 399.842 C 709.912 398.369, 724.582 399.785, 731.705 403.094 C 734.342 404.319, 736.725 405.365, 737 405.417 C 737.275 405.469, 739.088 406.497, 741.028 407.700 C 750.063 413.305, 757.681 412.915, 762.483 406.603 C 767.386 400.159, 766.355 394.528, 759.167 388.500 C 754.823 384.857, 754.138 384.444, 744.858 379.886 C 731.409 373.279, 725.033 371.729, 710 371.413 C 702.575 371.257, 694.700 371.455, 692.500 371.854 M 431.154 428.905 C 429.399 429.990, 430.080 434.500, 432 434.500 C 433.655 434.500, 434.663 430.263, 433.326 428.926 C 432.863 428.463, 431.885 428.453, 431.154 428.905 M 482.500 429.693 C 480.850 429.909, 478.825 430.363, 478 430.702 C 477.175 431.040, 476.247 431.274, 475.938 431.222 C 475.630 431.169, 469.471 436.892, 462.254 443.939 C 449.080 456.801, 446.581 460.345, 444.980 468.432 C 443.274 477.050, 445.594 476.989, 453.998 468.194 C 461.411 460.435, 483.850 439.166, 489.924 434.141 C 492.157 432.294, 493.736 430.382, 493.433 429.891 C 492.889 429.011, 488.334 428.928, 482.500 429.693 M 686 438.379 C 678.208 440.095, 673.932 443.195, 661.909 455.850 C 650.933 467.401, 651.362 466.675, 647.221 480.750 C 646.094 484.581, 651.550 480.206, 666.818 465.036 C 676.852 455.067, 685.357 447.460, 687.446 446.587 C 689.401 445.770, 691 444.641, 691 444.077 C 691 443.513, 692.382 442.337, 694.071 441.463 C 696.574 440.169, 696.921 439.610, 695.948 438.438 C 694.554 436.758, 693.393 436.751, 686 438.379 M 402.313 463.750 C 397.913 468.418, 392.805 477.072, 391.298 482.409 C 388.317 492.972, 388.048 494.726, 388.068 503.500 C 388.080 509.126, 388.662 513.999, 389.619 516.500 C 390.461 518.700, 391.596 522.382, 392.141 524.683 C 392.687 526.983, 393.778 529.401, 394.567 530.055 C 395.355 530.710, 396.010 531.752, 396.022 532.372 C 396.056 534.084, 399.770 538.563, 400.528 537.806 C 400.893 537.440, 402.099 532.947, 403.207 527.821 C 404.729 520.786, 405.413 512.490, 405.996 494 C 406.421 480.525, 407.105 467.587, 407.516 465.250 C 408.151 461.640, 408.010 461, 406.584 461 C 405.660 461, 403.738 462.238, 402.313 463.750 M 591 461.674 C 589.625 461.894, 586.813 462.801, 584.750 463.689 C 581.154 465.237, 581 465.503, 581 470.152 C 581 472.897, 580.541 475, 579.941 475 C 579.359 475, 579.176 475.475, 579.534 476.056 C 579.893 476.636, 579.065 479.449, 577.694 482.306 C 573.069 491.944, 571 497.045, 571 498.812 C 571 501.904, 559.431 518.405, 553.398 523.919 C 543.271 533.174, 534.578 538.353, 524.500 541.133 C 510.743 544.927, 508.699 545.197, 496.659 544.801 C 485.093 544.421, 480.534 543.546, 468.500 539.392 C 460.877 536.761, 446.807 526.683, 441.539 520.081 C 438.810 516.661, 436.092 513.556, 435.498 513.182 C 434.115 512.308, 429.193 501.213, 428.375 497.125 C 427.152 491.012, 425.039 494.673, 425.014 502.946 C 425.004 506.100, 424.238 508.493, 422.378 511.176 L 419.757 514.959 423.006 518.660 C 426.134 522.222, 426.233 522.599, 425.662 528.721 C 425.335 532.219, 424.722 535.626, 424.299 536.291 C 423.876 536.956, 423.485 537.725, 423.429 538 C 423.373 538.275, 422.980 539.289, 422.556 540.252 C 421.295 543.116, 422.709 546.397, 426.058 548.375 C 430.058 550.738, 431.746 554.842, 432.878 564.952 C 433.891 574.007, 434.998 576, 439.016 576 C 442.921 576, 452.745 586.128, 453.566 591 C 454.561 596.903, 454.758 597.200, 456.919 596.043 C 459.403 594.714, 465.565 594.697, 468.022 596.012 C 470.144 597.147, 472.088 602.946, 471.326 605.863 C 470.694 608.279, 472.448 609.420, 474.742 608.085 C 475.709 607.521, 476.102 607.047, 475.615 607.030 C 474.120 606.979, 479.718 603, 481.286 603 C 485.008 603, 489.980 606.081, 490.575 608.756 C 491.696 613.793, 492.130 615, 492.819 615 C 494.308 615, 498.177 605.966, 498.868 600.877 C 499.597 595.503, 500.711 592.956, 506.463 583.516 C 510.609 576.712, 518.767 568.124, 522.610 566.518 C 524.353 565.790, 527.550 563.594, 529.714 561.639 C 534.421 557.387, 537.742 556, 543.215 556 C 545.542 556, 549.497 554.926, 552.402 553.504 C 556.752 551.376, 559.122 550.971, 568.501 550.754 C 579.350 550.503, 579.581 550.546, 585.437 553.864 L 591.374 557.228 596.537 554.614 C 602.649 551.519, 612.929 551.086, 619.500 553.646 C 621.700 554.504, 626.215 555.541, 629.532 555.951 C 632.850 556.361, 636.450 557.157, 637.532 557.721 C 638.615 558.284, 641.638 559.054, 644.250 559.433 C 646.862 559.812, 649 560.432, 649 560.811 C 649 561.190, 650.592 562.770, 652.537 564.322 C 655.126 566.388, 657.455 567.247, 661.231 567.528 C 664.355 567.760, 667.480 568.718, 669.154 569.956 C 670.675 571.080, 672.387 572, 672.960 572 C 673.532 572, 674.004 572.563, 674.009 573.250 C 674.014 573.938, 676.911 576.975, 680.446 580 C 683.981 583.025, 686.902 585.885, 686.937 586.355 C 686.972 586.825, 688.148 589.494, 689.550 592.287 C 690.967 595.108, 692.486 600.430, 692.967 604.261 C 693.443 608.054, 694.540 611.939, 695.404 612.894 C 696.268 613.849, 697.475 616.063, 698.085 617.815 C 699.425 621.659, 700.880 621.821, 704.024 618.474 C 705.329 617.085, 707.727 615.285, 709.353 614.474 C 712.134 613.087, 712.512 613.153, 715.717 615.598 C 717.591 617.027, 719.535 619.277, 720.037 620.598 C 721.333 624.005, 723.055 623.554, 726.494 618.907 C 732.318 611.037, 740.009 608.654, 743.845 613.531 L 745.836 616.061 750.465 610.046 C 758.925 599.052, 766.056 595.886, 771.290 600.803 C 772.576 602.011, 773.884 603, 774.195 603 C 774.507 603, 776.021 600.413, 777.560 597.250 C 781.111 589.952, 786.223 582.059, 787.421 582.026 C 787.928 582.012, 789.167 581.254, 790.175 580.341 C 791.708 578.954, 792.443 578.881, 794.663 579.893 C 797.644 581.251, 798.957 580.195, 798.985 576.417 C 798.993 575.271, 799.337 573.996, 799.750 573.583 C 800.163 573.171, 800.528 572.533, 800.563 572.167 C 800.692 570.808, 805.535 561.473, 806.500 560.723 C 807.050 560.295, 808.754 559.673, 810.286 559.341 C 814.053 558.522, 816 555.424, 816 550.245 C 816 544.203, 818.208 539.593, 822.673 536.312 C 826.393 533.579, 826.491 533.348, 826.191 528.045 C 825.875 522.477, 826.933 519.192, 830.278 515.357 C 832.107 513.260, 832.102 513.114, 830.028 508.562 C 828.127 504.389, 828.015 503.218, 828.941 497.205 C 829.508 493.517, 830.242 489.339, 830.570 487.920 C 831.628 483.357, 829.042 482.482, 804.212 478.994 C 793.611 477.505, 793.211 477.850, 791.457 490 C 791.100 492.475, 790.075 495.625, 789.180 497 C 788.285 498.375, 787.540 499.800, 787.526 500.167 C 787.512 500.533, 787.163 501.171, 786.750 501.583 C 786.337 501.996, 786 502.961, 786 503.729 C 786 505.698, 781.208 515.592, 777.828 520.600 C 773.555 526.931, 761.735 539.239, 756.830 542.465 C 754.449 544.031, 751.308 546.122, 749.851 547.111 C 746.493 549.392, 734.257 553.264, 722 555.925 L 712.500 557.988 696 555.552 C 678.611 552.985, 674.115 551.610, 664.686 545.975 C 661.488 544.064, 658.106 542.050, 657.170 541.500 C 652.946 539.017, 648 534.639, 648 533.381 C 648 532.622, 647.421 532, 646.714 532 C 645.266 532, 639 524.266, 639 522.478 C 639 521.453, 636.228 515.822, 630.752 505.724 C 629.790 503.951, 628.998 501.375, 628.991 500 C 628.984 498.625, 628.291 495.250, 627.451 492.500 C 626.449 489.219, 626.017 484.458, 626.195 478.648 C 626.522 467.991, 626.155 467.541, 613.960 463.607 C 606.279 461.130, 598.480 460.473, 591 461.674 M 889 479.958 C 877.807 482.188, 863.477 495.677, 856.818 510.250 C 856.127 511.762, 855.192 513, 854.740 513 C 853.444 513, 848 517.276, 848 518.294 C 848 518.799, 849.125 520.097, 850.500 521.179 C 852.917 523.080, 853 523.540, 853 535.086 C 853 541.654, 852.596 547.809, 852.103 548.764 C 848.202 556.313, 847.616 559.137, 848.791 564.739 C 849.850 569.790, 849.737 570.956, 847.581 577.154 L 845.202 583.995 849.851 587.247 C 854.344 590.391, 854.836 590.500, 864.500 590.500 C 871.477 590.500, 875.256 590.057, 877 589.035 C 878.375 588.230, 879.725 587.539, 880 587.500 C 880.275 587.461, 881.400 586.955, 882.500 586.376 C 883.600 585.796, 887.063 584.307, 890.196 583.067 C 894.588 581.328, 897.597 579.032, 903.335 573.045 C 907.428 568.773, 911.114 564.203, 911.526 562.889 C 911.938 561.575, 913.113 559.427, 914.138 558.115 C 915.162 556.803, 916 555.086, 916 554.298 C 916 553.511, 917.125 551.392, 918.500 549.589 C 919.875 547.786, 921 545.381, 921 544.245 C 921 543.108, 921.894 539.326, 922.987 535.839 C 924.177 532.045, 924.974 526.690, 924.975 522.500 C 924.975 513.750, 921.076 499.135, 917.561 494.711 C 916.157 492.945, 913.995 490.234, 912.755 488.686 C 907.743 482.430, 896.792 478.406, 889 479.958 M 556.494 590.087 C 553.260 591.718, 550.431 593.236, 550.206 593.460 C 549.982 593.685, 551.611 594.357, 553.828 594.954 C 556.044 595.550, 559.774 597.640, 562.118 599.598 C 571.598 607.518, 583.328 610.732, 598 609.427 C 608.121 608.527, 620.033 604.514, 622.598 601.139 C 623.202 600.345, 624.168 599.986, 624.744 600.341 C 625.319 600.697, 626.063 600.279, 626.395 599.412 C 627.317 597.011, 627.126 596.001, 625.750 595.994 C 625.063 595.990, 623.306 595.365, 621.847 594.603 C 620.387 593.842, 617.528 592.669, 615.493 591.998 C 612.180 590.904, 611.492 591, 608.906 592.912 C 602.998 597.279, 598.864 596.610, 591.756 590.136 C 588.610 587.271, 583.959 586.851, 581.280 589.190 C 575.851 593.928, 570.470 594.229, 565.722 590.060 L 562.374 587.121 556.494 590.087 M 534.594 593.997 C 531.895 596.106, 528.408 599.738, 526.844 602.067 C 524.074 606.190, 524.001 606.643, 524.028 619.400 L 524.055 632.500 527.471 635 C 529.349 636.375, 531.414 638.625, 532.059 640 C 532.704 641.375, 533.563 643.175, 533.967 644 C 534.372 644.825, 536.325 645.638, 538.307 645.808 C 541.373 646.069, 542.093 646.616, 543.123 649.462 C 543.933 651.704, 544.806 652.628, 545.767 652.259 C 546.556 651.956, 547.572 652.308, 548.025 653.040 C 548.709 654.148, 549.117 654.148, 550.449 653.042 C 551.795 651.925, 552.573 651.994, 555.315 653.470 C 560.612 656.323, 562.328 655.347, 563.635 648.739 C 564.793 642.888, 566.123 640.251, 569.934 636.250 C 572.364 633.700, 579.685 633.085, 581.850 635.250 C 582.667 636.067, 586.252 636.500, 592.191 636.500 C 600.036 636.500, 601.434 636.758, 602.391 638.384 C 603.001 639.420, 604.513 641.510, 605.750 643.028 C 607.518 645.197, 608 647.055, 608 651.694 C 608 657.831, 609.106 660, 612.235 660 C 613.245 660, 615.169 660.720, 616.513 661.600 C 618.787 663.090, 619.253 663.056, 623.298 661.098 C 627.199 659.209, 628.217 659.110, 633.280 660.127 L 638.917 661.260 644.118 656.584 C 646.978 654.012, 649.922 652.140, 650.659 652.423 C 651.397 652.706, 652 652.475, 652 651.910 C 652 651.338, 652.554 651.228, 653.250 651.663 C 655.866 653.297, 657.194 652.710, 660.024 648.669 C 661.630 646.376, 663.915 643.529, 665.103 642.342 C 666.974 640.471, 667.366 638.544, 668.048 627.862 C 668.875 614.917, 668.849 614.776, 664.079 606.262 C 660.792 600.395, 658.649 599.018, 656.362 601.304 C 655.980 601.687, 654.332 602, 652.700 602 C 650.462 602, 648.523 600.771, 644.811 597 C 639.823 591.933, 637.521 591.116, 633.817 593.098 C 631.884 594.132, 632.018 594.364, 636.111 597.073 C 642.059 601.011, 643.562 605.760, 640.642 611.390 C 637.863 616.745, 628.284 622.838, 620 624.520 C 618.075 624.911, 615.943 625.679, 615.263 626.227 C 614.582 626.775, 613.374 626.974, 612.577 626.668 C 611.781 626.362, 610.950 626.650, 610.731 627.306 C 610.179 628.963, 575.837 629.011, 575.285 627.356 C 575.076 626.727, 574.076 626.429, 573.065 626.693 C 572.053 626.958, 570.923 626.685, 570.554 626.087 C 570.184 625.489, 568.939 625, 567.787 625 C 565.130 625, 555.735 620.590, 554.039 618.547 C 553.333 617.696, 552.211 617, 551.545 617 C 550.284 617, 545.175 611.098, 543.162 607.316 C 541.101 603.441, 541.801 600.289, 545.529 596.669 L 549.059 593.241 545.009 591.620 C 542.782 590.729, 540.631 590.036, 540.230 590.081 C 539.828 590.125, 537.292 591.888, 534.594 593.997 M 737 711.519 C 732.048 714.165, 719.103 720, 718.184 720 C 717.668 720, 716.727 720.624, 716.094 721.387 C 715.461 722.149, 711.928 723.096, 708.242 723.491 C 704.556 723.885, 700.644 724.837, 699.548 725.604 C 698.390 726.415, 695.030 727.010, 691.527 727.024 C 683.713 727.055, 677.881 728.442, 676.263 730.655 C 675.149 732.179, 672.481 732.520, 656.736 733.151 C 644.468 733.643, 637.191 734.378, 634.500 735.397 C 629.125 737.433, 604.867 737.581, 598.785 735.615 C 596.428 734.853, 590.900 734.211, 586.500 734.190 C 576.617 734.141, 565.570 732.420, 562.586 730.464 C 561.352 729.656, 556.815 728.547, 552.504 728 C 548.192 727.454, 543.917 726.330, 543.004 725.503 C 542.090 724.676, 540.333 724, 539.099 724 C 536.955 724, 536.887 724.254, 537.544 729.750 C 537.922 732.913, 539.061 737.075, 540.074 739 C 541.088 740.925, 542.556 744.113, 543.338 746.085 C 544.939 750.122, 555.840 762.236, 559.865 764.452 C 561.314 765.250, 563.625 766.429, 565 767.073 C 566.375 767.717, 569.135 769.089, 571.134 770.121 C 573.133 771.153, 578.758 773.189, 583.634 774.645 C 595.283 778.124, 620.589 779.219, 629.790 776.642 C 632.931 775.763, 639.100 774.560, 643.500 773.970 C 647.900 773.379, 653.750 771.860, 656.500 770.592 C 662.238 767.948, 670.352 765.002, 674 764.239 C 675.375 763.951, 677.700 762.876, 679.166 761.850 C 680.632 760.823, 683.258 759.698, 685.002 759.350 C 686.745 759.001, 688.405 758.107, 688.691 757.364 C 688.976 756.620, 689.612 756.260, 690.105 756.565 C 690.597 756.869, 691 756.672, 691 756.126 C 691 755.581, 691.949 754.834, 693.109 754.465 C 698.694 752.693, 711.660 742.314, 724.493 729.342 C 738.577 715.107, 742 711.423, 742 710.500 C 742 709.639, 739.604 710.127, 737 711.519 M 784.797 830.387 C 783.311 832.250, 781.808 834.917, 781.457 836.314 C 781.107 837.710, 779.961 839.631, 778.910 840.581 C 777.860 841.532, 777 842.881, 777 843.578 C 777 844.276, 775.987 846.122, 774.750 847.681 C 771.659 851.575, 770.354 853.691, 767.462 859.500 C 766.093 862.250, 764.088 865.962, 763.007 867.750 C 761.925 869.538, 761.369 871.014, 761.770 871.030 C 762.172 871.047, 761.748 871.500, 760.828 872.036 C 759.909 872.573, 758.410 875.259, 757.498 878.006 C 756.586 880.753, 755.497 883, 755.078 883 C 754.132 883, 751.665 890.998, 752.388 891.721 C 753.641 892.975, 755.894 890.849, 757.051 887.320 C 757.740 885.219, 759.128 882.779, 760.134 881.898 C 761.140 881.018, 761.745 880.078, 761.477 879.810 C 761.209 879.543, 763.242 875.538, 765.994 870.912 C 768.747 866.285, 770.999 862.007, 770.999 861.405 C 771 860.803, 771.937 859.462, 773.083 858.425 C 774.228 857.389, 775.794 855.181, 776.562 853.520 C 777.331 851.859, 778.371 849.825, 778.873 849 C 779.375 848.175, 780.314 846.375, 780.960 845 C 783.638 839.296, 785.920 835.848, 789.361 832.305 C 793.723 827.814, 793.860 827, 790.250 827 C 788.323 827, 786.691 828.014, 784.797 830.387 M 420.688 841.646 C 419.689 842.644, 419.844 847, 420.878 847 C 422.108 847, 423.635 844.773, 423.561 843.083 C 423.492 841.485, 421.730 840.603, 420.688 841.646 M 417.250 851.684 C 416.563 852.886, 416 855.925, 416 858.438 C 416 861.097, 415.164 864.567, 414 866.739 C 412.900 868.791, 412 871.463, 412 872.676 C 412 873.889, 411.543 875.165, 410.984 875.510 C 410.425 875.856, 410.238 876.577, 410.570 877.113 C 410.901 877.649, 410.598 878.779, 409.896 879.625 C 407.451 882.572, 404.846 905, 406.949 905 C 407.562 905, 408.274 904.325, 408.531 903.500 C 408.789 902.675, 409.283 901.212, 409.629 900.250 C 409.975 899.288, 410.168 896.620, 410.058 894.323 C 409.931 891.672, 410.523 889.141, 411.679 887.396 C 412.681 885.883, 414.251 880.337, 415.170 875.072 C 416.088 869.808, 417.356 863.390, 417.988 860.811 C 418.619 858.232, 418.993 854.632, 418.818 852.811 C 418.512 849.627, 418.452 849.584, 417.250 851.684 M 289.067 881.874 C 288.304 883.301, 288.496 884.138, 289.870 885.382 C 291.545 886.898, 291.796 886.883, 293.346 885.170 C 294.909 883.443, 294.899 883.218, 293.179 881.662 C 290.842 879.547, 290.298 879.575, 289.067 881.874 M 403.667 910.667 C 403.300 911.033, 403 912.196, 403 913.250 C 403 915.843, 405.415 914.920, 405.820 912.172 C 406.129 910.069, 405.031 909.302, 403.667 910.667 M 730 912.063 C 730 912.647, 729.212 912.996, 728.250 912.838 C 727.288 912.679, 726.045 912.836, 725.489 913.186 C 724.932 913.537, 721.557 914.368, 717.989 915.035 C 711.792 916.192, 702.744 919.373, 696.669 922.529 C 695.112 923.338, 693.199 924, 692.419 924 C 691.639 924, 691 924.477, 691 925.059 C 691 925.641, 690.550 925.840, 690 925.500 C 689.450 925.160, 689 925.309, 689 925.831 C 689 926.353, 686.862 927.777, 684.250 928.996 C 681.638 930.215, 677.086 933.189, 674.135 935.606 C 671.184 938.023, 668.324 940, 667.779 940 C 667.235 940, 665.522 941.013, 663.973 942.250 C 656.507 948.215, 655.419 948.974, 654.312 948.987 C 653.658 948.994, 651.693 950.307, 649.944 951.904 C 646.673 954.891, 646.692 957, 649.990 957 C 652.920 957, 668.303 962.187, 670.250 963.832 C 671.212 964.645, 672 964.925, 672 964.455 C 672 963.985, 672.540 964.140, 673.200 964.800 C 673.860 965.460, 675.329 966, 676.465 966 C 677.600 966, 680.209 966.900, 682.261 968 C 684.314 969.100, 686.560 970, 687.254 970 C 687.948 970, 690.629 971.125, 693.212 972.500 C 695.795 973.875, 698.588 975, 699.419 975 C 700.250 975, 701.403 975.885, 701.982 976.966 C 702.561 978.047, 704.826 979.415, 707.017 980.005 C 709.208 980.594, 711 981.504, 711 982.025 C 711 982.547, 712.462 983.645, 714.250 984.466 C 716.038 985.286, 720.248 987.768, 723.607 989.980 C 728.956 993.502, 730.665 994.082, 737.384 994.650 C 744.499 995.251, 745.233 995.130, 747.527 992.975 C 750.624 990.065, 750.610 989.372, 747.342 983.376 C 743.533 976.386, 741.506 974.369, 732.247 968.349 C 723.784 962.848, 715.693 959.755, 706 958.316 C 700.728 957.534, 700.463 957.349, 699.599 953.852 C 698.873 950.917, 699.079 949.548, 700.651 946.852 C 702.597 943.515, 702.643 943.499, 711.053 943.203 C 717.382 942.980, 721.004 943.398, 725.500 944.872 C 728.800 945.954, 732.966 947.136, 734.758 947.501 C 736.550 947.865, 738.470 949.009, 739.024 950.044 C 739.577 951.079, 740.641 951.691, 741.386 951.405 C 742.132 951.119, 742.998 951.552, 743.311 952.367 C 743.623 953.182, 745.374 954.558, 747.200 955.425 C 751.130 957.289, 759 964.682, 759 966.508 C 759 967.211, 759.653 968.037, 760.451 968.343 C 761.248 968.649, 762.886 971.190, 764.091 973.990 C 766.579 979.773, 768.263 981, 773.712 981 C 781.083 981, 784.915 974.902, 781.572 968.491 C 780.714 966.846, 780.003 964.825, 779.992 964 C 779.971 962.484, 776.249 958.366, 767.967 950.698 C 764.016 947.040, 749.367 938.683, 746.511 938.458 C 745.955 938.414, 743.827 937.618, 741.782 936.689 C 739.737 935.760, 736.670 935, 734.966 935 C 729.466 935, 728 933.520, 728 927.965 C 728 920.371, 729.908 919, 740.473 919 C 746.630 919, 750.116 919.519, 753.223 920.900 C 755.575 921.944, 758.625 923.302, 760 923.916 C 761.375 924.530, 764.525 926.373, 767 928.013 C 769.475 929.653, 772.940 931.667, 774.700 932.490 C 776.460 933.312, 779.796 935.788, 782.113 937.993 C 784.430 940.197, 786.624 942, 786.988 942 C 787.353 942, 788.708 943.125, 790 944.500 C 792.990 947.682, 795.511 947.675, 797.606 944.479 C 798.776 942.693, 799.097 940.724, 798.707 937.729 C 798.236 934.107, 797.208 932.614, 791.547 927.326 C 784.676 920.909, 777.304 916, 774.540 916 C 773.658 916, 771.263 915.253, 769.218 914.340 C 767.173 913.428, 765.200 912.640, 764.833 912.590 C 764.467 912.541, 763.829 912.163, 763.417 911.750 C 762.197 910.530, 730 910.831, 730 912.063" stroke="none" fill="#171916" fill-rule="evenodd"/>
</svg>