<svg role="img" aria-labelledby="artwork-title" shape-rendering="geometricPrecision" xmlns="http://www.w3.org/2000/svg" width="1200" height="1200" viewBox="0 0 1200 1200" version="1.1">
	<title id="artwork-title">Mascot giving a thumbs-up</title>
	<path d="M 775 81.465 C 775 83.352, 772.586 84.588, 767.136 85.491 C 762.717 86.224, 753.962 90.154, 750.743 92.851 C 749.777 93.660, 748.154 94.812, 747.136 95.411 C 742.994 97.849, 737.394 101.884, 735.720 103.636 C 732.498 107.008, 730 110.292, 730 111.153 C 730 113.572, 726.194 111.299, 720.537 105.500 C 717.049 101.925, 713.452 99, 712.545 99 C 711.638 99, 709.120 98.100, 706.948 97 C 704.777 95.900, 701.180 94.075, 698.956 92.945 C 695.212 91.042, 684.038 88.634, 672.816 87.311 C 670.232 87.006, 666.646 87.287, 664.816 87.939 C 662.992 88.588, 657.491 89.388, 652.592 89.718 C 646.008 90.160, 643.225 90.775, 641.925 92.075 C 640.958 93.042, 639.904 93.571, 639.583 93.250 C 639.262 92.929, 639 93.192, 639 93.833 C 639 94.475, 638.115 95, 637.034 95 C 632.712 95, 621.390 102.478, 612.909 110.934 C 604.069 119.747, 599.439 127.282, 596.988 136.839 C 595.905 141.061, 592.235 149, 591.366 149 C 591.128 149, 589.358 147.425, 587.433 145.500 C 585.508 143.575, 582.936 141.995, 581.717 141.988 C 580.498 141.982, 575.900 141.087, 571.500 140 C 561.300 137.480, 553.910 137.480, 546.740 140 C 543.611 141.100, 539.629 142, 537.893 142 C 536.157 142, 533.108 143.009, 531.118 144.243 C 527.512 146.479, 525.615 147.577, 518.327 151.647 C 512.437 154.937, 500.787 166.739, 496.154 174.108 C 493.869 177.742, 492 181.023, 492 181.399 C 492 181.774, 491.108 183.300, 490.017 184.790 C 488.123 187.379, 484.029 204.602, 484.009 210.068 C 484.004 211.481, 484.694 214.974, 485.542 217.831 C 486.806 222.087, 487.973 223.688, 492.005 226.698 C 496.176 229.812, 496.907 230.852, 496.806 233.528 C 496.631 238.182, 497.645 239.154, 502.313 238.807 C 505.545 238.566, 506.512 238.867, 506.782 240.197 C 507.195 242.235, 500.463 246, 496.406 246 C 493.179 246, 486 248.054, 486 248.977 C 486 249.340, 483.384 251.357, 480.188 253.459 C 473.784 257.670, 467.848 265, 462.783 274.949 C 459.518 281.362, 459.501 281.471, 459.686 294.761 C 459.907 310.603, 458.668 311.779, 455.308 298.918 C 452.582 288.487, 452.506 284.156, 454.917 276.470 C 459.421 262.105, 465.633 255.222, 483.129 245.212 C 490.486 241.003, 491.967 238.225, 489.413 233.425 C 486.909 228.717, 484.844 227.719, 477.925 227.876 C 471.941 228.011, 462.196 232.126, 459 235.866 C 458.175 236.832, 455.158 239.531, 452.296 241.865 C 449.434 244.199, 446.329 247.547, 445.397 249.305 C 444.465 251.062, 442.773 254.300, 441.636 256.500 C 440.500 258.700, 438.542 262.025, 437.285 263.890 C 436.028 265.754, 435 268.554, 435 270.111 C 435 271.669, 434.253 276.344, 433.339 280.501 C 431.724 287.852, 431.740 288.351, 433.941 298.779 C 436.180 309.387, 439.551 317.098, 444.675 323.327 C 447.695 326.998, 447.686 330.562, 444.652 332.218 C 441.630 333.868, 437.006 339.288, 433.748 345 C 428.042 355.004, 426.328 372.067, 429.879 383.500 C 432.285 391.245, 435.908 397.883, 438.750 399.751 C 439.988 400.564, 441 401.801, 441 402.499 C 441 404.275, 448.061 410.461, 452.487 412.561 C 455.853 414.158, 456.126 414.588, 455.561 417.407 C 455.220 419.108, 454.675 424.167, 454.350 428.648 C 453.819 435.977, 454.017 437.357, 456.316 442.379 C 457.722 445.450, 460.926 450.841, 463.436 454.358 C 468.780 461.847, 469.232 464.657, 465.250 465.644 C 461.439 466.588, 455 470.979, 455 472.633 C 455 473.385, 454.424 474, 453.720 474 C 451.238 474, 446.311 480.617, 441.063 491 C 435.326 502.349, 433.441 510.596, 432.287 529.397 C 431.556 541.309, 435.590 565.245, 438.518 566.368 C 439.229 566.641, 440.125 568.294, 440.509 570.040 C 442.036 576.991, 451.795 588.807, 463 597.270 C 466.932 600.240, 467.473 601.100, 467.284 604.084 C 466.774 612.170, 468.788 633.028, 470.302 635.339 C 471.156 636.642, 472.137 639.461, 472.482 641.604 C 473.540 648.164, 476.428 658, 477.297 658 C 477.748 658, 477.840 658.450, 477.500 659 C 477.160 659.550, 477.359 660, 477.941 660 C 478.523 660, 479 660.492, 479 661.094 C 479 661.696, 481.053 664.888, 483.563 668.188 C 486.073 671.488, 489.426 676.746, 491.014 679.872 C 492.798 683.383, 496.693 688.227, 501.201 692.545 C 505.272 696.443, 509.606 701.726, 511 704.489 C 512.791 708.039, 515.201 710.647, 519.500 713.685 C 522.800 716.018, 525.950 717.789, 526.500 717.619 C 527.050 717.450, 530.650 720.227, 534.500 723.789 C 538.350 727.352, 543.413 731.091, 545.750 732.098 C 552.481 734.998, 550.943 737, 541.983 737 C 539.314 737, 535.945 737.451, 534.495 738.002 C 533.046 738.553, 528.637 739.504, 524.698 740.115 C 520.759 740.726, 516.403 741.696, 515.018 742.269 C 513.633 742.843, 511.712 743.214, 510.750 743.093 C 509.787 742.973, 509 743.353, 509 743.937 C 509 744.522, 507.636 745, 505.968 745 C 504.300 745, 501.263 745.728, 499.218 746.618 C 497.173 747.509, 493.025 748.833, 490 749.562 C 482.141 751.455, 472.626 754.995, 471.765 756.346 C 471.361 756.981, 471.010 757.050, 470.985 756.500 C 470.960 755.950, 470.481 756.288, 469.920 757.250 C 469.359 758.212, 467.910 759.014, 466.700 759.031 C 465.490 759.048, 462.250 760.169, 459.500 761.522 C 456.750 762.875, 453.669 763.986, 452.654 763.991 C 451.639 763.996, 449.614 764.827, 448.154 765.837 C 445.820 767.453, 442.486 769.127, 441 769.429 C 440.725 769.485, 439.825 769.968, 439 770.502 C 436.088 772.389, 424.602 778, 423.652 778 C 423.122 778, 421.184 779.148, 419.344 780.551 C 417.505 781.954, 416 782.823, 416 782.483 C 416 782.142, 414.762 782.737, 413.250 783.803 C 411.738 784.870, 408.700 786.615, 406.500 787.682 C 404.300 788.748, 401.600 790.101, 400.500 790.688 C 399.400 791.276, 396.925 792.500, 395 793.410 C 393.075 794.320, 390.287 795.826, 388.804 796.757 C 386.201 798.391, 386.019 798.367, 383.554 796.051 C 382.149 794.731, 381 793.167, 381 792.576 C 381.001 790.919, 374.723 778.765, 372.711 776.528 C 371.728 775.435, 370.661 773.406, 370.342 772.020 C 370.023 770.634, 369.177 768.558, 368.461 767.408 C 367.746 766.257, 365.951 761.351, 364.473 756.506 C 361.637 747.205, 361.550 743.564, 363.819 729 C 365.092 720.828, 366.986 702.686, 367.524 693.500 C 368.336 679.632, 363.032 657.101, 358.550 655.381 C 357.697 655.054, 357 654.216, 357 653.520 C 357 652.050, 348.547 644, 347.002 644 C 346.429 644, 344.175 642.873, 341.993 641.496 C 339.811 640.118, 337.683 639.066, 337.263 639.157 C 336.843 639.248, 335.236 638.801, 333.691 638.164 C 328.680 636.096, 323.078 635.710, 316.947 637.011 C 313.644 637.712, 310.715 638.652, 310.439 639.099 C 310.162 639.547, 309.298 639.668, 308.519 639.369 C 307.740 639.070, 304.670 640.440, 301.698 642.413 C 298.725 644.386, 295.963 646, 295.560 646 C 294.403 646, 288 652.327, 288 653.470 C 288 654.037, 286.219 656.449, 284.042 658.831 C 281.865 661.213, 279.793 664.138, 279.438 665.331 C 279.082 666.524, 278.237 668.400, 277.559 669.500 C 276.881 670.600, 275.048 675.775, 273.487 681 C 271.926 686.225, 270.242 691.040, 269.744 691.699 C 269.247 692.359, 268.936 694.609, 269.054 696.699 C 269.171 698.790, 268.870 701.400, 268.384 702.500 C 267.139 705.318, 267.256 741.357, 268.516 743.097 C 269.809 744.883, 269.675 746.800, 268.016 750.231 C 266.504 753.360, 265.849 753.615, 257 754.523 C 253.425 754.889, 249.442 755.862, 248.148 756.685 C 246.854 757.507, 242.809 758.603, 239.158 759.120 C 232.709 760.033, 217.490 765.398, 216.415 767.137 C 216.122 767.612, 215.009 768, 213.941 768 C 212.873 768, 212 768.477, 212 769.059 C 212 769.641, 211.597 769.869, 211.105 769.565 C 210.612 769.260, 209.957 769.670, 209.648 770.474 C 209.340 771.279, 207.508 772.597, 205.578 773.403 C 203.648 774.209, 198.515 778.386, 194.171 782.685 C 188.039 788.753, 185.411 792.288, 182.414 798.500 C 180.291 802.900, 178.526 806.725, 178.491 807 C 178.457 807.275, 177.770 808.625, 176.965 810 C 175.863 811.880, 175.485 816.220, 175.440 827.500 C 175.387 840.500, 175.109 843.033, 173.355 846.500 C 172.242 848.700, 170.293 855.614, 169.025 861.863 C 166.351 875.040, 166.620 884.993, 169.958 896.473 C 171.785 902.752, 171.876 904.346, 170.876 912.473 C 169.466 923.939, 170.422 938.459, 173.021 945.054 C 174.110 947.815, 175 950.957, 175 952.037 C 175 953.117, 175.900 954.900, 177 956 C 178.100 957.100, 178.743 958, 178.429 958 C 178.114 958, 178.564 958.707, 179.429 959.571 C 180.293 960.436, 181.048 962.348, 181.107 963.821 C 181.545 974.770, 182.048 978.391, 184.050 985 C 185.300 989.125, 187.407 994.230, 188.733 996.345 C 191.247 1000.353, 203.669 1013, 205.092 1013 C 205.541 1013, 207.034 1014.125, 208.409 1015.500 C 209.956 1017.047, 212.044 1018, 213.885 1018 C 216.250 1018, 218.557 1019.643, 225.120 1025.996 C 235.366 1035.918, 254.295 1050, 257.385 1050 C 258.097 1050, 261.410 1051.364, 264.747 1053.031 C 268.083 1054.698, 271.192 1055.965, 271.656 1055.845 C 272.120 1055.726, 274.201 1056.370, 276.280 1057.276 C 283.222 1060.301, 292.242 1061.266, 314 1061.313 C 335.542 1061.360, 346.894 1060.133, 354.500 1056.937 C 356.150 1056.244, 357.823 1055.745, 358.217 1055.828 C 358.612 1055.911, 361.042 1054.858, 363.616 1053.489 C 366.191 1052.120, 368.973 1051, 369.799 1051 C 371.309 1051, 375.166 1049.306, 389 1042.568 C 396.863 1038.738, 397.651 1038.336, 402.500 1035.679 C 404.150 1034.775, 406.886 1033.378, 408.580 1032.576 C 410.273 1031.773, 412.241 1030.415, 412.952 1029.558 C 414.374 1027.845, 418 1027.426, 418 1028.974 C 418 1030.633, 423.707 1033, 427.700 1032.998 C 429.790 1032.998, 433.075 1032.143, 435 1031.098 C 436.925 1030.054, 442.186 1027.321, 446.691 1025.024 C 451.195 1022.727, 455.413 1020.207, 456.063 1019.424 C 456.713 1018.641, 457.875 1018, 458.646 1018 C 460.145 1018, 459.844 1027.042, 457.881 1041 C 455.863 1055.341, 455.024 1064.334, 454.013 1082.424 C 453.422 1093.015, 452.475 1101.927, 451.864 1102.664 C 451.262 1103.389, 450.972 1105.356, 451.218 1107.035 C 451.465 1108.714, 451.292 1110.320, 450.833 1110.603 C 450.375 1110.886, 450 1113.116, 450 1115.559 L 450 1120 694.617 1120 L 939.233 1120 938.604 1117.250 C 938.257 1115.737, 937.549 1106.850, 937.029 1097.500 C 936.509 1088.150, 935.566 1076.900, 934.935 1072.500 C 932.921 1058.470, 933.594 1057, 942.024 1057 C 944.578 1057, 946.967 1056.700, 947.333 1056.333 C 947.700 1055.967, 950.953 1055.774, 954.562 1055.904 C 958.171 1056.035, 961.658 1055.722, 962.312 1055.207 C 962.965 1054.693, 966.102 1053.981, 969.283 1053.624 C 975.004 1052.982, 977.340 1052.503, 990 1049.377 C 993.575 1048.495, 998.750 1047.366, 1001.500 1046.869 C 1009.318 1045.457, 1015 1043.813, 1015 1042.964 C 1015 1042.537, 1015.849 1042.409, 1016.887 1042.681 C 1017.925 1042.952, 1019.077 1042.685, 1019.446 1042.087 C 1019.816 1041.489, 1021.003 1041, 1022.084 1041 C 1023.165 1041, 1026.611 1040.100, 1029.740 1039 C 1032.870 1037.900, 1036.571 1036.980, 1037.965 1036.956 C 1039.359 1036.932, 1042.300 1036.223, 1044.500 1035.381 C 1046.700 1034.539, 1051.357 1033.207, 1054.849 1032.420 C 1058.341 1031.633, 1062.339 1030.092, 1063.734 1028.995 C 1065.129 1027.898, 1066.929 1027, 1067.734 1027 C 1068.539 1027, 1070.744 1026.266, 1072.635 1025.369 C 1074.525 1024.472, 1076.316 1023.983, 1076.616 1024.282 C 1079.539 1027.206, 1085.286 1073.133, 1086.622 1104.250 L 1087.299 1120 1098.253 1120 L 1109.208 1120 1108.577 1105.250 C 1107.775 1086.483, 1106.249 1068.951, 1104.429 1057.574 C 1103.643 1052.664, 1103 1047.178, 1103 1045.383 C 1103 1043.587, 1102.625 1041.886, 1102.167 1041.603 C 1101.708 1041.320, 1101.535 1039.718, 1101.780 1038.044 C 1102.026 1036.370, 1101.807 1035, 1101.294 1035 C 1099.987 1035, 1097.481 1018.956, 1098.662 1018.143 C 1112.525 1008.599, 1114.177 1005.528, 1111.436 994.401 C 1110.637 991.155, 1109.327 984.900, 1108.527 980.500 C 1107.100 972.662, 1103.639 958.970, 1102.333 956 C 1101.970 955.175, 1101.596 954.275, 1101.503 954 C 1101.409 953.725, 1100.759 952.150, 1100.059 950.500 C 1099.358 948.850, 1097.043 941.425, 1094.914 934 C 1092.785 926.575, 1090.503 919.375, 1089.843 918 C 1089.183 916.625, 1088.583 915.275, 1088.511 915 C 1088.438 914.725, 1087.614 912.747, 1086.680 910.605 C 1085.745 908.462, 1084.294 904.637, 1083.454 902.105 C 1082.082 897.968, 1077.746 888.665, 1066.625 866 C 1053.703 839.665, 1044.523 826.727, 1024 805.928 C 1010.631 792.378, 991.258 776.742, 983.250 773.037 C 980.912 771.956, 979 770.628, 979 770.087 C 979 769.199, 967.204 763, 965.515 763 C 965.130 763, 963.671 762.100, 962.273 761 C 960.874 759.900, 958.828 759, 957.725 759 C 956.623 759, 955.221 758.320, 954.610 757.488 C 953.581 756.087, 944.979 752.525, 935.500 749.575 C 933.300 748.890, 929.827 747.581, 927.782 746.665 C 925.737 745.749, 923.646 745, 923.134 745 C 922.623 745, 920.246 743.880, 917.852 742.512 C 915.458 741.144, 912.150 739.999, 910.500 739.968 C 908.850 739.937, 905.700 739.255, 903.500 738.451 C 901.300 737.648, 896.512 736.352, 892.861 735.572 C 889.209 734.792, 884.259 733.198, 881.861 732.030 C 878.987 730.631, 875.990 729.995, 873.071 730.166 C 870.524 730.314, 868.486 729.958, 868.276 729.328 C 867.803 727.910, 877.015 720.050, 884.266 715.683 C 892.005 711.023, 896.860 706.580, 898.499 702.657 C 900.204 698.576, 907.312 691.345, 911.429 689.504 C 916.605 687.188, 921.823 681.472, 922.584 677.284 C 923.448 672.519, 926.159 667.068, 928.894 664.595 C 930.052 663.547, 931 662.330, 931 661.890 C 931 661.451, 932.115 659.976, 933.477 658.614 C 934.907 657.184, 936.234 654.391, 936.614 652.010 C 936.977 649.740, 938.045 646.932, 938.986 645.769 C 940.617 643.755, 940.929 643.723, 945.599 645.078 C 948.590 645.946, 954.983 646.495, 962 646.487 C 971.494 646.476, 974.510 646.084, 979.288 644.237 C 982.471 643.007, 985.935 642, 986.986 642 C 988.037 642, 990.111 640.875, 991.595 639.500 C 993.078 638.125, 994.795 637, 995.409 637 C 999.369 637, 1014.038 623.964, 1022.656 612.786 C 1027.169 606.932, 1037.145 588.454, 1036.815 586.557 C 1036.715 585.975, 1037.355 583.842, 1038.238 581.815 C 1043.468 569.812, 1042.555 535.193, 1036.826 528.290 C 1036.097 527.411, 1035.723 526.649, 1035.996 526.596 C 1037.366 526.330, 1030.032 514.303, 1025.821 509.911 C 1023.169 507.145, 1021 504.325, 1021 503.644 C 1021 502.963, 1022.839 500.627, 1025.086 498.453 C 1028.652 495.003, 1036.453 484.479, 1036.526 483.020 C 1036.540 482.734, 1037.343 481.318, 1038.311 479.873 C 1041.151 475.630, 1042.001 471.137, 1041.978 460.507 C 1041.961 452.707, 1041.520 449.539, 1039.978 446.141 C 1038.890 443.743, 1038 441.194, 1038 440.476 C 1038 439.758, 1040.362 437.312, 1043.250 435.041 C 1047.968 431.330, 1057.976 419.607, 1057.993 417.772 C 1057.997 417.371, 1059.550 413.734, 1061.444 409.689 C 1063.338 405.643, 1065.423 400.205, 1066.078 397.603 C 1068.247 388.991, 1065.847 362, 1062.913 362 C 1062.499 362, 1061.413 359.750, 1060.500 356.999 C 1058.768 351.787, 1049.321 338.777, 1045.961 336.979 C 1043.225 335.515, 1042.475 331.588, 1044.405 328.832 C 1045.282 327.580, 1046 325.958, 1046 325.229 C 1046 324.500, 1046.889 322.064, 1047.975 319.816 C 1049.061 317.567, 1049.729 315.370, 1049.459 314.933 C 1049.188 314.496, 1049.425 313.856, 1049.984 313.510 C 1050.601 313.129, 1051 306.841, 1051 297.500 C 1051 288.159, 1050.601 281.871, 1049.984 281.490 C 1049.425 281.144, 1049.215 280.461, 1049.518 279.972 C 1049.820 279.482, 1049.624 278.276, 1049.083 277.291 C 1048.541 276.306, 1046.328 271.664, 1044.166 266.976 C 1041.229 260.611, 1038.404 256.494, 1033.011 250.719 C 1029.039 246.465, 1024.744 242.723, 1023.468 242.403 C 1022.191 242.082, 1020.369 240.961, 1019.419 239.910 C 1018.468 238.860, 1016.964 238, 1016.077 238 C 1015.190 238, 1012.858 236.909, 1010.895 235.575 C 1008.604 234.018, 1004.669 232.749, 999.913 232.034 C 995.836 231.420, 990.860 230.659, 988.856 230.342 C 984.499 229.652, 981.881 226.053, 983.935 223.578 C 984.616 222.758, 984.901 221.649, 984.570 221.113 C 984.238 220.577, 984.425 219.856, 984.984 219.510 C 986.111 218.813, 986.396 208.729, 985.318 207.652 C 984.944 207.277, 984.749 204.545, 984.886 201.581 C 985.024 198.616, 984.694 195.360, 984.154 194.345 C 983.614 193.330, 982.183 189.575, 980.974 186 C 977.845 176.750, 971.254 166.557, 965.250 161.682 C 964.013 160.677, 963 159.213, 963 158.427 C 963 157.642, 962.497 157, 961.882 157 C 961.267 157, 959.226 155.650, 957.347 154 C 955.468 152.350, 953.455 151, 952.873 151 C 952.291 151, 950.671 150.100, 949.273 149 C 947.874 147.900, 945.736 147, 944.520 147 C 943.305 147, 941.519 146.126, 940.551 145.057 C 938.632 142.936, 938.337 142.859, 923 140.507 C 913.006 138.975, 912.066 138.989, 903.494 140.813 C 897.913 142.001, 893.011 143.731, 890.604 145.365 C 884.289 149.650, 880.248 148.608, 880.852 142.850 C 881.005 141.391, 880.651 139.902, 880.065 139.540 C 879.479 139.178, 878.996 137.671, 878.991 136.191 C 878.986 134.711, 877.875 131.250, 876.522 128.500 C 875.169 125.750, 874.048 123.182, 874.031 122.794 C 873.971 121.432, 869.436 115.457, 865.239 111.210 C 862.908 108.850, 861 106.588, 861 106.182 C 861 105.057, 855.666 100.624, 852.667 99.258 C 851.200 98.590, 850 97.638, 850 97.143 C 850 96.648, 848.683 95.697, 847.072 95.030 C 845.462 94.363, 843.390 92.984, 842.469 91.965 C 841.547 90.947, 839.520 89.834, 837.965 89.492 C 836.410 89.151, 834.620 88.247, 833.987 87.485 C 833.354 86.722, 830.736 85.793, 828.168 85.421 C 822.470 84.595, 820 83.399, 820 81.465 C 820 80.222, 816.593 80, 797.500 80 C 778.407 80, 775 80.222, 775 81.465 M 779 103.319 C 774.325 104.518, 769.908 105.883, 769.183 106.350 C 768.459 106.818, 767.609 106.943, 767.295 106.628 C 766.980 106.313, 765.400 107.168, 763.784 108.528 C 762.169 109.888, 760.454 111, 759.973 111 C 758.089 111, 749.198 117.772, 743.497 123.549 C 738.408 128.707, 737.509 130.154, 737.589 133.066 C 737.742 138.657, 741.801 138.229, 746.228 132.156 C 748.045 129.664, 756.122 124.445, 760.293 123.068 C 762.244 122.424, 764.377 121.251, 765.033 120.460 C 765.690 119.669, 766.595 119.249, 767.044 119.527 C 767.494 119.805, 768.144 119.575, 768.490 119.016 C 768.835 118.457, 770.383 118, 771.929 118 C 773.475 118, 777.557 117.100, 781 116 C 785.202 114.658, 790.014 114, 795.634 114 C 802.097 114, 804.859 114.456, 807.739 116 C 809.974 117.198, 813.381 118, 816.235 118 C 818.922 118, 821 118.462, 821 119.059 C 821 119.641, 821.450 119.840, 822 119.500 C 822.550 119.160, 823 119.381, 823 119.992 C 823 120.603, 824.539 121.745, 826.421 122.531 C 828.302 123.317, 831.832 125.304, 834.264 126.946 C 839.221 130.291, 851 141.861, 851 143.384 C 851 143.927, 851.936 145.368, 853.080 146.585 C 854.224 147.803, 856.462 152.557, 858.052 157.150 C 859.642 161.742, 861.294 165.275, 861.722 165 C 862.150 164.725, 862.500 160.675, 862.500 156 C 862.500 149.215, 861.998 146.289, 860.010 141.500 C 858.640 138.200, 856.952 135.140, 856.260 134.700 C 855.567 134.260, 854.346 132.636, 853.547 131.090 C 850.751 125.683, 834.293 111, 831.029 111 C 829.521 111, 825.640 108.717, 824.724 107.292 C 824.297 106.627, 823.254 106.349, 822.406 106.674 C 821.559 107, 819.883 106.788, 818.683 106.204 C 806.816 100.432, 793.909 99.493, 779 103.319 M 655.966 110.869 C 654.022 111.279, 651.890 111.950, 651.228 112.359 C 650.566 112.768, 647.526 113.754, 644.473 114.549 C 641.313 115.372, 636.610 117.702, 633.557 119.958 C 627.440 124.477, 617 136.312, 617 138.728 C 617 139.616, 616.388 141.053, 615.641 141.921 C 614.893 142.790, 613.744 145.709, 613.087 148.408 C 612.429 151.108, 611.241 154.246, 610.446 155.381 C 608.826 157.694, 608.545 163.731, 609.953 165.959 C 610.615 167.005, 611.072 165.937, 611.572 162.172 C 612.050 158.565, 612.850 156.615, 614.134 155.928 C 615.160 155.379, 616 154.189, 616 153.284 C 616 151.365, 624.895 138.015, 629.402 133.170 C 632.993 129.310, 639.772 124.522, 643.156 123.456 C 644.445 123.050, 647.067 121.656, 648.982 120.359 C 650.897 119.061, 653.822 117.990, 655.482 117.978 C 657.142 117.966, 660.462 117.066, 662.859 115.978 C 665.257 114.890, 669.243 114, 671.718 114 C 675.486 114, 689.653 116.916, 695 118.791 C 695.825 119.081, 696.784 119.264, 697.131 119.198 C 697.478 119.133, 698.560 119.962, 699.536 121.040 C 700.512 122.118, 701.856 123, 702.524 123 C 703.192 123, 705.999 124.800, 708.763 127 C 714.475 131.548, 715.060 131.696, 717.345 129.171 C 719.447 126.848, 719.466 125, 717.386 125 C 715.961 125, 708.323 121.323, 707 120 C 705.159 118.159, 699.821 115, 698.551 115 C 697.710 115, 694.654 114.044, 691.761 112.875 C 687.496 111.152, 683.944 110.690, 673 110.436 C 665.575 110.263, 657.910 110.458, 655.966 110.869 M 727.177 148.667 C 727.663 151.176, 730 151.520, 730 149.083 C 730 147.855, 729.354 147, 728.427 147 C 727.495 147, 726.985 147.680, 727.177 148.667 M 594.279 155.213 C 593.675 156.471, 592.957 158.217, 592.683 159.092 C 592.408 159.968, 590.459 161.504, 588.350 162.504 C 584.941 164.122, 583.795 164.190, 578.008 163.121 C 561.220 160.020, 557.490 159.777, 551.950 161.422 C 549.028 162.290, 545.703 163, 544.561 163 C 541.867 163, 533.862 167.219, 527.360 172.067 C 522.967 175.342, 513 186.822, 513 188.607 C 513 188.928, 512.137 190.403, 511.083 191.884 C 509.219 194.501, 507 206.291, 507 213.572 C 507 218.610, 509.654 218.064, 510.995 212.750 C 512.811 205.553, 515.896 197.953, 518.252 194.870 C 522.696 189.056, 531.586 180.359, 536 177.507 C 538.475 175.909, 541.451 173.770, 542.613 172.755 C 543.775 171.739, 545.125 171.001, 545.613 171.113 C 546.101 171.226, 547.175 171.064, 548 170.754 C 558.693 166.733, 570.482 165.848, 578 168.500 C 580.338 169.325, 583.320 170, 584.626 170 C 585.932 170, 587 170.436, 587 170.969 C 587 171.501, 587.593 171.710, 588.317 171.432 C 589.042 171.154, 591.698 172.743, 594.221 174.963 C 599.515 179.623, 600.494 179.821, 603.056 176.750 C 605.665 173.623, 605.484 173.184, 601.622 173.294 C 596.504 173.439, 593.318 170.839, 592.471 165.830 C 591.942 162.700, 592.100 161.467, 593.070 161.143 C 595.296 160.401, 599.171 156.014, 598.741 154.722 C 598.023 152.566, 595.412 152.854, 594.279 155.213 M 903 162.893 C 896.705 163.864, 889.411 166.798, 883.250 170.839 C 878.003 174.281, 876.450 177.010, 879.750 176.989 C 882.423 176.973, 891.097 174.166, 893.654 172.491 C 897.108 170.228, 909.971 170.477, 914.193 172.889 C 916.012 173.928, 919.177 175.072, 921.226 175.430 C 925.632 176.200, 935.969 181.399, 937.750 183.740 C 938.438 184.643, 939 185.130, 939 184.821 C 939 184.512, 941.392 186.595, 944.316 189.449 C 948.044 193.089, 951.046 197.488, 954.364 204.175 C 956.967 209.419, 959.003 214.113, 958.890 214.605 C 958.776 215.097, 958.966 216.175, 959.312 217 C 959.658 217.825, 960.067 220.644, 960.220 223.265 C 960.636 230.346, 962.374 229.073, 963.400 220.936 C 964.655 210.992, 961.567 192, 958.696 192 C 958.248 192, 958.160 191.550, 958.500 191 C 958.840 190.450, 958.641 190, 958.059 190 C 957.477 190, 957 189.325, 957 188.500 C 957 187.675, 956.550 187, 956 187 C 955.450 187, 955 186.247, 955 185.328 C 955 182.992, 939.309 168.096, 936.119 167.403 C 934.678 167.090, 931.475 166.022, 929 165.029 C 923.943 163, 909.826 161.840, 903 162.893 M 955.200 246.200 C 953.545 247.855, 953.654 253, 955.345 253 C 956.085 253, 957.466 252.143, 958.413 251.096 C 959.880 249.475, 959.942 248.880, 958.828 247.096 C 957.315 244.674, 956.843 244.557, 955.200 246.200 M 973.500 251.724 C 970.128 252.552, 968.813 254.069, 970.110 255.633 C 970.899 256.583, 973.723 257.001, 979.372 257.004 C 988.223 257.009, 992.153 258.436, 1000.958 264.841 C 1010 271.418, 1022 288.487, 1022 294.770 C 1022 295.932, 1022.450 297.160, 1023 297.500 C 1024.234 298.263, 1024.335 311.240, 1023.117 312.550 C 1022.631 313.072, 1021.923 315.677, 1021.542 318.338 C 1020.925 322.658, 1021.044 323.138, 1022.655 322.828 C 1023.647 322.637, 1024.862 321.135, 1025.356 319.490 C 1025.849 317.846, 1026.973 314.737, 1027.854 312.583 C 1030.371 306.423, 1029.845 292.166, 1026.796 283.886 C 1025.456 280.249, 1023.379 276.025, 1022.180 274.501 C 1020.981 272.977, 1020 271.429, 1020 271.061 C 1020 268.826, 1009.672 260.056, 1002.500 256.199 C 996.451 252.947, 979.295 250.299, 973.500 251.724 M 630.754 255.389 C 629.794 256.118, 626.240 257.004, 622.857 257.357 C 615.353 258.141, 614.278 258.960, 613.444 264.526 C 611.721 276.013, 591.981 294.184, 576 298.994 C 573.525 299.738, 571.072 300.720, 570.550 301.174 C 568.855 302.648, 552.482 302.132, 549.364 300.506 C 542.983 297.178, 541.007 299.050, 540.978 308.450 C 540.963 313.299, 540.339 316.861, 538.978 319.859 C 537.890 322.257, 537 324.917, 537 325.771 C 537 329.697, 526.749 343.871, 519.161 350.438 C 516.598 352.657, 514.193 354.906, 513.817 355.436 C 513.442 355.966, 513.380 360.922, 513.680 366.450 C 514.280 377.511, 512.809 390.736, 510.520 394.853 C 508.370 398.722, 505 414.325, 505 420.412 C 505 423.302, 504.689 425.977, 504.310 426.357 C 503.930 426.736, 503.736 429.240, 503.879 431.922 C 504.021 434.603, 503.657 437.094, 503.069 437.458 C 501.641 438.340, 501.702 444.302, 503.154 445.754 C 504.027 446.627, 506.127 445.211, 511.756 439.954 C 515.852 436.130, 519.832 433, 520.601 433 C 521.371 433, 522 432.502, 522 431.893 C 522 431.284, 522.675 431.045, 523.500 431.362 C 524.325 431.678, 525 431.551, 525 431.080 C 525 429.744, 536.226 427.312, 550.500 425.555 C 570.019 423.152, 590.474 423.478, 608.470 426.478 C 622.037 428.740, 624.248 429.417, 633.799 434.228 C 648.913 441.843, 649.954 442.423, 649.978 443.232 C 649.990 443.635, 651.999 446.051, 654.442 448.601 C 656.886 451.151, 659.604 454.753, 660.483 456.605 C 662.567 460.996, 665.339 462.497, 668.841 461.128 C 670.303 460.557, 673.643 459.792, 676.262 459.429 C 678.882 459.066, 681.271 458.371, 681.571 457.885 C 682.272 456.750, 694.710 456.722, 695.409 457.853 C 695.699 458.322, 699.438 459.279, 703.718 459.979 C 707.998 460.679, 712.988 462.095, 714.807 463.126 C 719.801 465.956, 721.639 465.515, 724.714 460.750 C 728.744 454.506, 736.026 448.070, 740.750 446.576 C 741.987 446.185, 743 445.397, 743 444.826 C 743 444.254, 743.675 444.045, 744.500 444.362 C 745.325 444.678, 746 444.557, 746 444.092 C 746 442.680, 762.817 438.998, 774.500 437.851 C 791.312 436.201, 816.281 437.411, 832.271 440.651 C 839.547 442.125, 845.642 443.682, 845.815 444.110 C 845.988 444.537, 846.775 444.640, 847.565 444.337 C 848.354 444.034, 849 444.208, 849 444.725 C 849 445.241, 850.913 446.138, 853.250 446.719 C 864.712 449.566, 878.719 456.861, 885.464 463.497 C 888.126 466.115, 894.225 475, 893.362 475 C 892.992 475, 893.505 475.900, 894.500 477 C 895.678 478.301, 897.580 479, 899.945 479 C 903.624 479, 914.321 481.444, 916.380 482.756 C 916.996 483.148, 917.725 483.514, 918 483.568 C 918.275 483.623, 919.821 484.213, 921.434 484.879 C 927.668 487.453, 928.443 486.546, 929.019 476 C 929.338 470.173, 930.164 465.272, 931.156 463.323 L 932.774 460.146 927.780 454.323 C 923.441 449.264, 920.114 443.734, 919.917 441.255 C 919.884 440.840, 919.169 439.739, 918.327 438.808 C 915.056 435.195, 914.879 414.743, 918.067 408.939 C 918.804 407.598, 919.454 406.050, 919.511 405.500 C 919.699 403.678, 921.274 400.528, 923.010 398.500 C 925.484 395.611, 927.207 389.955, 926.042 388.550 C 925.515 387.916, 923.023 386.367, 920.503 385.109 C 917.984 383.850, 914.432 381.286, 912.610 379.410 C 910.788 377.535, 908.893 375.992, 908.399 375.982 C 907.411 375.962, 901.766 369.386, 900.689 367 C 900.317 366.175, 898.230 362.676, 896.051 359.224 C 889.981 349.606, 888.702 338.194, 891.625 319.750 C 892.317 315.381, 891.262 315.008, 885.904 317.727 C 878.679 321.394, 849 319.088, 849 314.861 C 849 314.322, 848.550 314.160, 848 314.500 C 847.450 314.840, 847 314.641, 847 314.059 C 847 313.477, 846.325 313, 845.500 313 C 844.675 313, 844 312.550, 844 312 C 844 311.450, 843.429 311, 842.732 311 C 840.805 311, 832.661 303.931, 827.018 297.362 C 821.791 291.276, 820.625 288.392, 819.525 278.815 C 818.924 273.584, 818.644 273.081, 816.009 272.502 C 814.145 272.093, 811.987 272.491, 809.823 273.645 C 807.995 274.619, 806.275 275.474, 806 275.544 C 805.725 275.615, 804.825 275.954, 804 276.299 C 794.174 280.400, 788.991 281.472, 779 281.471 C 771.460 281.471, 766.949 280.951, 763 279.629 C 754.705 276.851, 744.173 270.182, 737.926 263.750 C 734.854 260.587, 731.839 258, 731.226 258 C 730.613 258, 728.399 259.609, 726.306 261.577 C 721.073 266.495, 716.247 269.499, 710.429 271.462 C 707.718 272.377, 704.487 273.782, 703.250 274.585 C 702.013 275.389, 701 275.756, 701 275.401 C 701 275.046, 700.287 275.347, 699.415 276.071 C 697.484 277.673, 668.321 278.045, 667.202 276.481 C 666.816 275.942, 666.050 275.481, 665.500 275.458 C 663.556 275.376, 652.979 270.086, 649.586 267.498 C 647.694 266.055, 644.258 262.427, 641.951 259.437 C 637.515 253.686, 634.454 252.580, 630.754 255.389 M 466.154 320.552 C 466.345 321.532, 467.105 322.536, 467.846 322.782 C 468.706 323.069, 469.066 322.588, 468.846 321.448 C 468.655 320.468, 467.895 319.464, 467.154 319.218 C 466.294 318.931, 465.934 319.412, 466.154 320.552 M 459.920 342.330 C 456.442 345.255, 452.986 351.198, 453.063 354.118 L 453.127 356.500 454.079 354.120 C 454.603 352.811, 456.865 350.065, 459.105 348.017 C 461.863 345.495, 463.068 343.627, 462.839 342.227 L 462.500 340.161 459.920 342.330 M 1026.012 353.250 C 1026.019 353.938, 1027.909 356.525, 1030.211 359 C 1037.055 366.357, 1040.580 374.195, 1041.471 384.040 L 1042.237 392.500 1043.700 388.500 C 1045.726 382.961, 1044.813 371.591, 1042.042 367.842 C 1040.919 366.324, 1040 364.328, 1040 363.407 C 1040 361.042, 1030.532 352, 1028.056 352 C 1026.925 352, 1026.006 352.563, 1026.012 353.250 M 582 379.919 C 579.675 381.160, 570.937 383.781, 566.500 384.568 C 559.873 385.743, 549.594 394.021, 548.483 399.076 C 547.483 403.631, 549.673 409.631, 553.275 412.200 C 557.551 415.250, 563.327 415.066, 573 411.573 C 579.692 409.156, 581.901 408.862, 593.500 408.849 C 604.142 408.837, 607.572 409.212, 612.407 410.917 C 615.655 412.063, 620.735 413, 623.695 413 C 628.577 413, 629.469 412.635, 633.289 409.072 C 637.255 405.372, 637.500 404.822, 637.500 399.620 C 637.500 394.558, 637.177 393.766, 633.638 390.141 C 629.779 386.189, 622.542 382.862, 614.739 381.453 C 612.670 381.079, 610.731 380.374, 610.430 379.887 C 609.751 378.788, 584.064 378.816, 582 379.919 M 787.358 389.954 C 785.630 390.366, 783.380 391.069, 782.358 391.515 C 781.336 391.962, 780.219 392.366, 779.876 392.414 C 779.533 392.461, 776.956 393.988, 774.149 395.806 C 765.466 401.433, 764.604 410.278, 772.031 417.530 C 776.508 421.902, 774.171 421.628, 797 420.456 C 808.452 419.868, 810.423 420.041, 820.500 422.517 C 831.067 425.114, 837.809 427.754, 841 430.545 C 841.825 431.267, 842.725 431.861, 843 431.864 C 843.275 431.868, 844.346 432.196, 845.381 432.593 C 847.978 433.589, 853.481 430.444, 857.071 425.910 C 859.341 423.044, 860 421.186, 860 417.651 C 860 413.488, 859.541 412.626, 854.750 407.789 C 851.862 404.873, 847.925 401.768, 846 400.889 C 844.075 400.009, 840.475 398.329, 838 397.156 C 835.525 395.982, 831.925 394.729, 830 394.370 C 828.075 394.012, 825.943 393.282, 825.263 392.747 C 824.582 392.213, 823.345 392.037, 822.513 392.357 C 821.681 392.676, 821 392.563, 821 392.107 C 821 389.646, 795.492 388.014, 787.358 389.954 M 559.500 448.010 C 558.400 448.477, 556.005 448.891, 554.178 448.930 C 548.123 449.058, 539.049 455.921, 528.303 468.500 C 521.244 476.764, 518 483.202, 518 488.949 C 518 491.507, 517.508 494.092, 516.907 494.693 C 516.116 495.484, 516.306 496.537, 517.592 498.500 C 519.261 501.047, 519.451 501.103, 520.685 499.416 C 521.408 498.427, 522 497.274, 522 496.853 C 522 494.001, 530.290 484.559, 550.262 464.663 C 559.006 455.953, 566.011 448.697, 565.830 448.538 C 564.736 447.579, 561.206 447.285, 559.500 448.010 M 777 460.980 C 769.132 463.274, 745.307 485.513, 740.450 495.098 C 737.610 500.703, 736.686 509.062, 738.828 509.776 C 739.441 509.980, 745.707 504.377, 752.754 497.324 C 764.232 485.835, 775.973 474.900, 784.500 467.756 C 786.150 466.374, 788.400 465.070, 789.500 464.858 C 790.699 464.627, 791.500 463.678, 791.500 462.486 C 791.500 460.739, 790.778 460.485, 785.500 460.376 C 782.200 460.307, 778.375 460.579, 777 460.980 M 677.726 482.398 C 676.200 483.228, 674.739 483.931, 674.479 483.960 C 674.218 483.990, 672.249 484.717, 670.101 485.576 C 665.681 487.345, 665.034 488.828, 665.014 497.226 C 665.004 501.169, 664.378 503.971, 663.004 506.226 C 661.906 508.027, 661.006 511.083, 661.004 513.018 C 661.002 515.117, 659.992 518.019, 658.500 520.215 C 657.125 522.238, 656 524.231, 656 524.643 C 656 526.654, 641.245 545.609, 638.363 547.300 C 637.613 547.740, 637 548.727, 637 549.495 C 637 550.263, 635.934 551.478, 634.632 552.195 C 633.329 552.913, 628.058 556.313, 622.917 559.750 C 617.776 563.188, 612.994 566, 612.289 566 C 611.584 566, 608.419 566.877, 605.254 567.950 C 589.480 573.295, 558.079 573.275, 546.308 567.912 C 543.999 566.861, 541.423 566, 540.585 566 C 537.912 566, 524.381 556.119, 517.201 548.925 C 513.386 545.103, 509.193 539.847, 507.882 537.246 C 506.572 534.644, 504.919 532.055, 504.209 531.491 C 502.898 530.451, 497.049 511.956, 497.017 508.750 C 497.008 507.788, 496.615 507, 496.145 507 C 495.048 507, 494.016 517.922, 494.007 529.615 C 494.001 536.830, 493.625 539.227, 492.202 541.115 C 489.925 544.135, 489.981 544.767, 492.882 548.838 C 495.101 551.951, 495.216 552.756, 494.595 560.838 C 494.228 565.602, 493.665 571.610, 493.344 574.188 L 492.759 578.876 497.232 580.979 C 502.603 583.504, 504.362 586.410, 503.838 591.899 C 503.623 594.154, 503.797 596, 504.224 596 C 504.651 596, 505 596.652, 505 597.450 C 505 598.247, 506.371 600.931, 508.046 603.413 C 510.556 607.132, 512.043 608.227, 516.490 609.628 C 521.327 611.153, 522.152 611.841, 524.444 616.257 C 526.054 619.360, 527 622.816, 527 625.592 C 527 630.394, 529.038 631.667, 530.964 628.068 C 532.261 625.643, 535.684 624.493, 537.390 625.909 C 538.102 626.499, 538.893 626.774, 539.148 626.519 C 539.403 626.264, 540.984 627.510, 542.661 629.287 C 545.020 631.789, 545.872 633.817, 546.427 638.260 C 546.821 641.417, 547.333 644, 547.563 644 C 547.794 644, 550.046 642.425, 552.568 640.500 C 555.090 638.575, 557.583 637, 558.109 637 C 560.506 637, 566 640.047, 566 641.378 C 566 642.191, 566.683 643.540, 567.518 644.375 C 568.353 645.210, 568.915 646.469, 568.768 647.173 C 568.621 647.877, 569.443 648.598, 570.595 648.776 C 573.038 649.152, 575.446 643.906, 576.971 634.888 C 578.607 625.208, 579.206 623.135, 580.512 622.634 C 581.219 622.362, 582.362 620.421, 583.051 618.320 C 583.739 616.219, 585.880 612.567, 587.808 610.205 C 593.264 603.522, 606.340 593.077, 610.153 592.356 C 611.994 592.007, 615.750 590.098, 618.500 588.111 C 623.205 584.713, 623.902 584.514, 630.324 584.738 C 635.240 584.909, 638.036 584.494, 640.324 583.255 C 642.776 581.928, 646.026 581.532, 654.583 581.518 C 665.209 581.501, 665.841 581.620, 669.871 584.412 C 673.646 587.027, 680 588.544, 680 586.830 C 680 586.462, 682.267 585.408, 685.037 584.488 C 688.748 583.255, 692.629 582.905, 699.787 583.157 C 708.449 583.463, 709.931 583.798, 713.482 586.250 C 716.745 588.503, 718.550 589, 723.473 589 C 728.266 589, 730.900 589.688, 736.491 592.400 C 740.346 594.271, 745.616 596.095, 748.202 596.455 C 752.135 597.001, 753.245 597.661, 754.992 600.487 C 756.428 602.811, 758.549 604.405, 761.790 605.595 C 766.719 607.406, 773 612.486, 773 614.663 C 773 615.362, 774.575 617.508, 776.500 619.433 C 778.425 621.358, 780 623.683, 780 624.599 C 780 625.515, 780.892 627.707, 781.982 629.470 C 783.348 631.681, 784.170 635.367, 784.629 641.339 C 784.995 646.102, 785.582 650, 785.933 650 C 786.283 650, 787.904 652.473, 789.535 655.497 C 792.738 661.434, 795.539 662.684, 796.557 658.629 C 796.884 657.324, 798.889 654.561, 801.012 652.488 C 804.533 649.050, 805.235 648.768, 809.013 649.275 C 813.706 649.904, 816.538 652.024, 817.429 655.574 C 818.581 660.165, 820.987 658.388, 825.155 649.869 C 827.158 645.776, 833.319 642, 837.996 642 C 839.850 642, 842.227 643.139, 844.454 645.094 L 847.978 648.188 848.909 645.739 C 851.185 639.753, 856.400 632.850, 860.431 630.487 C 865.618 627.448, 866.306 627.427, 870.056 630.199 C 872.799 632.228, 873.156 632.272, 874.652 630.776 C 875.544 629.884, 876.636 626.865, 877.078 624.067 C 877.647 620.473, 878.937 617.693, 881.473 614.598 C 885.753 609.375, 889.639 607.554, 894.980 608.270 C 897.368 608.591, 899.277 608.346, 899.824 607.650 C 900.320 607.017, 901.003 603.066, 901.340 598.868 C 902.104 589.375, 906.716 580.303, 911.271 579.332 C 914.818 578.576, 915.054 578.131, 916.014 570.387 C 916.455 566.834, 917.412 563.208, 918.142 562.328 C 918.873 561.449, 919.502 560.227, 919.542 559.614 C 919.582 559.002, 919.888 557.825, 920.224 557 C 920.559 556.175, 921.104 554.263, 921.436 552.750 C 921.767 551.237, 922.705 550, 923.519 550 C 924.334 550, 925 549.550, 925 549 C 925 547.649, 928.328 547.728, 929.713 549.113 C 930.325 549.725, 931.311 549.926, 931.903 549.560 C 932.999 548.883, 929.726 543.291, 927.328 541.744 C 925.315 540.445, 924.940 535.866, 925.973 525.157 C 927.046 514.035, 926.413 511, 923.024 511 C 921.976 511, 920.866 510.592, 920.558 510.094 C 920.250 509.596, 919.069 509.431, 917.933 509.728 C 916.798 510.025, 914.886 509.808, 913.684 509.247 C 912.483 508.686, 908.459 507.676, 904.742 507.003 C 898.987 505.961, 897.647 506.001, 895.705 507.274 C 893.808 508.517, 893.491 509.459, 893.818 512.884 C 894.063 515.459, 893.796 517, 893.105 517 C 892.497 517, 892 517.810, 892 518.800 C 892 519.790, 891.592 521.027, 891.093 521.550 C 890.594 522.072, 889.727 524.075, 889.166 526 C 886.093 536.546, 880.171 546.846, 871.731 556.327 C 865.257 563.600, 852.657 574.235, 847.990 576.366 C 846.070 577.243, 843.825 578.354, 843 578.835 C 840.417 580.343, 831.787 583.055, 824.500 584.649 C 820.650 585.491, 816.943 586.640, 816.263 587.202 C 815.582 587.764, 814.359 587.968, 813.545 587.656 C 812.730 587.343, 811.798 587.518, 811.473 588.044 C 810.748 589.217, 802.317 589.322, 801.603 588.167 C 801.320 587.708, 799.718 587.535, 798.044 587.780 C 796.370 588.026, 795 587.792, 795 587.260 C 795 586.728, 789.776 585.763, 783.392 585.116 C 777.007 584.469, 770.550 583.301, 769.043 582.522 C 767.535 581.743, 764.223 580.581, 761.681 579.941 C 759.140 579.301, 756.542 578.153, 755.908 577.389 C 755.274 576.625, 754.239 576, 753.608 576 C 752.244 576, 744.376 569.420, 737.781 562.763 C 733.551 558.494, 726 547.958, 726 546.325 C 726 545.975, 724.875 544.214, 723.500 542.411 C 722.125 540.608, 720.990 538.316, 720.978 537.317 C 720.966 536.318, 720.005 533.475, 718.843 531 C 717.023 527.126, 716.644 523.932, 716.115 508.045 L 715.500 489.590 710.703 487.876 C 708.064 486.933, 704.014 485.175, 701.703 483.969 C 696.157 481.075, 681.879 480.139, 677.726 482.398 M 466.500 489.862 C 461.745 494.444, 456.835 503.083, 455.591 509.058 C 455.298 510.465, 454.301 513.390, 453.377 515.558 C 451.668 519.564, 451.288 523.291, 452.313 526 C 452.625 526.825, 453.099 530.875, 453.366 535 C 453.899 543.211, 457.058 558.128, 458.702 560.196 C 459.273 560.913, 460.262 563.075, 460.900 565 C 462.293 569.198, 466.607 574.361, 468.002 573.499 C 468.551 573.160, 469 570.447, 469 567.472 C 469 564.388, 470.092 558.718, 471.538 554.286 C 473.952 546.893, 474.096 545.168, 474.471 519.183 C 474.802 496.212, 475.122 491.463, 476.474 489.399 C 480.631 483.054, 473.207 483.398, 466.500 489.862 M 225.196 501.298 C 222.629 503.946, 222 505.424, 222 508.808 C 222 512.471, 227.983 539.854, 229.690 544 C 230.030 544.825, 230.205 546.314, 230.081 547.310 C 229.956 548.305, 230.278 549.655, 230.796 550.310 C 231.314 550.964, 232.308 553.975, 233.004 557 C 235.420 567.501, 237.890 572.769, 241.422 574.952 C 243.245 576.078, 245.449 577, 246.321 577 C 248.738 577, 253 574.817, 253 573.580 C 253 572.976, 253.900 571.919, 255 571.232 C 256.601 570.232, 257 568.900, 257 564.551 C 257 561.563, 256.550 558.840, 256 558.500 C 255.450 558.160, 255 556.911, 255 555.723 C 255 554.536, 254.137 549.950, 253.082 545.532 C 252.028 541.115, 249.964 531.650, 248.496 524.500 C 247.028 517.350, 244.853 509.543, 243.663 507.152 C 238.891 497.561, 231.185 495.118, 225.196 501.298 M 974.988 518.104 C 964.802 526.155, 957.334 535.757, 955.487 543.175 C 955.121 544.646, 953.277 547.653, 951.390 549.857 C 948.125 553.672, 948.008 554.073, 948.955 558.183 C 950.959 566.871, 949.513 575.314, 945.250 579.821 C 943.723 581.435, 943.594 587.631, 945.068 588.542 C 945.656 588.905, 945.916 589.777, 945.646 590.479 C 945.377 591.182, 945.631 592.231, 946.211 592.811 C 946.813 593.413, 946.928 594.645, 946.479 595.683 C 946.047 596.682, 945.796 598.321, 945.922 599.324 C 946.048 600.327, 945.169 603.237, 943.969 605.790 C 942.769 608.343, 941.722 612.443, 941.643 614.901 C 941.489 619.712, 940.929 619.137, 950.028 623.517 C 955.862 626.326, 969.373 625.189, 980 620.996 C 984.675 619.151, 989.772 616.372, 991.327 614.821 C 992.882 613.269, 994.472 612, 994.861 612 C 996.076 612, 1005.639 601.663, 1007.582 598.250 C 1008.599 596.462, 1009.811 595, 1010.275 595 C 1010.738 595, 1010.859 594.580, 1010.541 594.067 C 1010.224 593.554, 1011.048 591.191, 1012.372 588.817 C 1018.974 576.979, 1021.934 551.842, 1018.092 540.254 C 1017.043 537.089, 1015.929 533.342, 1015.617 531.927 C 1014.496 526.834, 1008.097 519.961, 1001.628 516.900 C 996.528 514.488, 994.215 514.001, 987.840 514.001 C 980.380 514, 980.044 514.107, 974.988 518.104 M 130.711 556.250 C 127.875 558.372, 124 564.280, 124 566.482 C 124 567.634, 126.138 570.811, 128.750 573.544 C 134.884 579.959, 155.515 599, 156.332 599 C 156.677 599, 158.825 601.025, 161.107 603.500 C 163.388 605.975, 165.768 608, 166.395 608 C 167.022 608, 169.680 610.056, 172.303 612.569 C 178.900 618.890, 182.858 619.489, 187.643 614.890 C 191.851 610.846, 194.352 606.407, 193.373 604.721 C 190.784 600.261, 184.706 594.098, 169.480 580.497 C 159.940 571.973, 151.954 565, 151.733 565 C 151.513 565, 149.345 563.153, 146.916 560.896 C 140.590 555.018, 134.639 553.312, 130.711 556.250 M 667.660 623.500 C 662.242 628.766, 659.275 629.210, 654.390 625.484 C 649.952 622.099, 646.164 621.487, 641.558 623.411 C 636.879 625.366, 634.089 625.382, 631.559 623.468 C 628.457 621.122, 624.678 621.682, 621.545 624.953 C 619.260 627.338, 617.741 627.962, 613.635 628.203 C 608.885 628.481, 608.410 628.755, 606.373 632.395 C 605.175 634.537, 603.896 638.812, 603.531 641.895 C 603.166 644.978, 602.362 648.946, 601.745 650.714 C 600.899 653.141, 600.919 654.489, 601.829 656.214 C 602.491 657.471, 603.363 661.868, 603.767 665.984 L 604.500 673.469 608.272 674.080 C 612.654 674.791, 616.993 678.436, 617.015 681.424 C 617.042 685.087, 618.517 686.347, 621.969 685.656 C 625.789 684.892, 630.007 686.835, 632.375 690.449 C 634.298 693.384, 638.931 693.926, 641.357 691.500 C 642.182 690.675, 643.539 690, 644.372 690 C 646.639 690, 649 686.001, 649 682.160 C 649 676.979, 655.331 671, 660.817 671 C 663.046 671, 666.137 671.503, 667.685 672.118 C 673.070 674.257, 677.057 674.795, 680.272 673.819 C 684.110 672.653, 688.712 674.073, 689.720 676.735 C 690.087 677.706, 690.976 679.095, 691.694 679.821 C 692.545 680.683, 693 683.874, 693 688.988 C 693 697.639, 693.773 698.728, 698.132 696.221 C 700.549 694.832, 701.128 694.883, 705.198 696.854 C 710.833 699.582, 711.869 699.548, 716 696.500 C 719.814 693.686, 725.096 693.206, 727 695.500 C 728.841 697.719, 733.728 697.432, 734.480 695.062 C 735.416 692.115, 741.761 687, 744.481 687 C 746.318 687, 747.782 685.630, 750.622 681.250 C 752.673 678.087, 755.217 674.523, 756.276 673.329 C 757.828 671.578, 758.286 669.193, 758.641 661.009 C 759.042 651.751, 758.863 650.405, 756.595 645.680 C 755.228 642.831, 753.861 639.298, 753.556 637.830 C 752.912 634.727, 748.394 633.183, 745.108 634.942 C 743.529 635.787, 741.931 635.502, 737.656 633.611 C 734.663 632.288, 731.828 630.596, 731.357 629.852 C 729.243 626.517, 727.424 625.942, 724.150 627.575 C 720.273 629.509, 720.149 630.760, 723.750 631.615 C 729.615 633.009, 732.476 637.693, 730.915 643.345 C 729.679 647.823, 721.870 654.498, 715.315 656.680 C 712.667 657.562, 710.050 658.631, 709.500 659.055 C 706.538 661.340, 690.594 664, 679.863 663.999 C 658.721 663.998, 642.891 659.148, 632.480 649.484 L 626 643.468 626 637.755 C 626 632.115, 626.051 632.015, 629.920 630.041 C 633.812 628.055, 633.869 628.055, 638.232 629.984 C 640.648 631.053, 643.454 632.844, 644.467 633.964 C 645.481 635.084, 646.899 636, 647.620 636 C 648.340 636, 649.402 636.883, 649.980 637.963 C 650.598 639.116, 651.643 639.691, 652.515 639.356 C 653.332 639.042, 654 639.235, 654 639.784 C 654 640.332, 655.462 641.020, 657.250 641.312 C 659.038 641.605, 662.975 642.586, 666 643.494 C 670.164 644.743, 673.681 645.004, 680.481 644.567 C 688.230 644.068, 691.644 643.309, 700 640.226 C 700.825 639.922, 701.725 639.618, 702 639.551 C 702.275 639.484, 703.625 638.774, 705 637.974 C 706.375 637.174, 709.039 636.061, 710.920 635.500 C 715.726 634.068, 715.762 632.481, 711.036 630.396 C 708.799 629.409, 706.290 627.566, 705.461 626.301 C 703.522 623.341, 701.510 623.393, 697.818 626.500 C 695.495 628.455, 693.729 629, 689.724 629 C 684.870 629, 684.356 628.738, 679.908 624 C 677.326 621.250, 674.556 619, 673.752 619 C 672.948 619, 670.207 621.025, 667.660 623.500 M 319.500 657.993 C 307.382 660.855, 296.741 672.457, 291.794 688.201 C 289.596 695.194, 289.503 696.821, 289.583 727 L 289.665 758.500 297.083 759.042 C 301.162 759.340, 305.958 760.316, 307.740 761.210 C 309.522 762.105, 312.447 763.147, 314.240 763.526 C 316.033 763.905, 318.903 765.067, 320.618 766.108 C 322.333 767.149, 324.183 768, 324.728 768 C 325.274 768, 327.390 769.575, 329.431 771.500 C 331.472 773.425, 333.697 775, 334.375 775 C 335.759 775, 342 781.114, 342 782.469 C 342 782.949, 342.657 784.069, 343.460 784.956 C 344.264 785.844, 346.310 789.173, 348.007 792.354 C 351.725 799.320, 352.854 807.131, 351.906 819.319 C 351.298 827.144, 350.835 828.675, 347.612 833.529 C 345.625 836.521, 344 839.425, 344 839.982 C 344 840.539, 345.523 842.683, 347.385 844.747 C 349.247 846.811, 351.994 851.409, 353.489 854.965 C 356.009 860.961, 356.173 862.196, 355.744 871.965 C 355.216 883.994, 352.203 893.132, 346.992 898.509 C 345.346 900.206, 344 902.158, 344 902.846 C 344 903.533, 345.585 906.574, 347.522 909.602 C 352.415 917.251, 353.545 923.273, 352.067 933.836 C 351.205 939.995, 350.223 943.152, 348.443 945.486 C 347.099 947.248, 346 949.037, 346 949.462 C 346 949.888, 344.650 951.774, 343 953.653 C 339.498 957.641, 339.513 957.518, 341.629 964.796 C 344.936 976.171, 342 990.602, 334.264 1001 C 330.622 1005.895, 321.505 1014, 319.641 1014 C 319.003 1014, 317.954 1014.844, 317.310 1015.876 C 316.665 1016.907, 314.471 1018.064, 312.433 1018.447 C 310.396 1018.829, 307.109 1020.010, 305.129 1021.071 C 303.149 1022.132, 300.499 1023, 299.240 1023 C 297.980 1023, 294.389 1023.900, 291.260 1025 C 286.862 1026.546, 283.006 1027, 274.285 1027 C 268.078 1027, 263 1027.374, 263 1027.831 C 263 1028.288, 264.238 1029.294, 265.750 1030.067 C 267.262 1030.839, 269.625 1032.220, 271 1033.134 C 272.375 1034.049, 275.645 1035.060, 278.267 1035.382 C 280.889 1035.703, 284.489 1036.731, 286.267 1037.665 C 289.054 1039.129, 292.951 1039.368, 314.500 1039.393 C 337.794 1039.420, 339.924 1039.271, 345.718 1037.211 C 349.139 1035.995, 352.745 1035, 353.733 1035 C 354.721 1035, 357.209 1034.100, 359.261 1033 C 361.314 1031.900, 363.916 1031, 365.044 1031 C 366.172 1031, 368.087 1029.934, 369.298 1028.631 C 370.509 1027.328, 373.075 1025.923, 375 1025.509 C 376.925 1025.095, 380.170 1023.911, 382.210 1022.878 C 384.251 1021.845, 386.525 1021, 387.264 1021 C 388.004 1021, 390.834 1019.586, 393.554 1017.858 C 398.075 1014.986, 402.409 1012.519, 411.983 1007.373 C 413.899 1006.343, 415.993 1004.811, 416.636 1003.969 C 417.280 1003.128, 420.703 1000.983, 424.243 999.204 C 433.117 994.745, 434.646 992.833, 436.003 984.500 C 436.630 980.650, 437.399 976.825, 437.710 976 C 438.022 975.175, 438.184 973.083, 438.071 971.351 C 437.957 969.619, 438.345 967.905, 438.932 967.542 C 440.380 966.647, 440.379 942.352, 438.931 941.457 C 438.343 941.094, 437.987 939.061, 438.140 936.941 C 438.293 934.820, 438.099 932.766, 437.709 932.376 C 437.319 931.986, 437 930.725, 437 929.574 C 437 927.379, 430.590 902.953, 429.108 899.500 C 427.618 896.030, 425.819 891.519, 425.717 891 C 425.663 890.725, 422.939 886.225, 419.662 881 C 413.187 870.673, 406.646 861.966, 404.412 860.700 C 403.635 860.260, 403 859.406, 403 858.801 C 403 857.417, 396.461 851, 395.050 851 C 393.809 851, 393.705 851.752, 393.938 859 C 394.040 862.154, 393.071 868.552, 391.666 874 C 390.319 879.225, 388.902 886.200, 388.518 889.500 C 386.967 902.818, 376.386 911.495, 369.921 904.750 C 364.567 899.163, 363.492 891.207, 366.780 881.500 C 371.164 868.557, 372.258 834.835, 368.694 822.500 C 367.900 819.750, 366.474 814.350, 365.526 810.500 C 364.579 806.650, 362.661 801.250, 361.265 798.500 C 359.868 795.750, 356.928 789.900, 354.731 785.500 C 352.534 781.100, 349.756 776.150, 348.560 774.500 C 342.887 766.680, 341.765 761.722, 341.663 744.034 C 341.594 732.246, 342.031 725.347, 343.184 720 C 346.836 703.067, 346.226 678.925, 341.935 670.610 C 337.043 661.129, 327.927 656.002, 319.500 657.993 M 95.549 662.759 C 91.373 664.227, 90.468 665.009, 89.770 667.750 C 89.315 669.538, 88.506 671, 87.971 671 C 86.478 671, 86.807 673.225, 88.959 677.679 C 91.630 683.207, 95.700 684.996, 105.651 685.016 C 109.968 685.024, 116.200 685.695, 119.500 686.506 C 122.800 687.316, 132.092 688.278, 140.150 688.641 C 154.304 689.280, 154.896 689.227, 157.650 687.067 C 167.987 678.960, 162.589 667, 148.591 667 C 146.131 667, 143.833 666.538, 143.484 665.973 C 143.135 665.409, 142.321 665.030, 141.675 665.131 C 141.029 665.233, 139.825 665.061, 139 664.750 C 138.175 664.438, 130.300 663.681, 121.500 663.066 C 112.700 662.451, 104.375 661.739, 103 661.483 C 101.625 661.228, 98.272 661.802, 95.549 662.759 M 811.467 756.053 C 811.110 756.632, 810.304 756.935, 809.678 756.726 C 809.052 756.517, 807.856 757.170, 807.020 758.176 C 806.184 759.183, 803.475 760.411, 801 760.906 C 798.525 761.402, 792.900 762.716, 788.500 763.827 C 784.100 764.938, 778.827 766.124, 776.782 766.463 C 774.737 766.802, 772.358 767.785, 771.495 768.647 C 770.506 769.637, 768.816 770.053, 766.919 769.775 C 765.265 769.532, 763.680 769.708, 763.397 770.167 C 763.114 770.625, 757.041 771, 749.901 771 C 739.234 771, 736.259 771.332, 733.210 772.863 C 728.475 775.240, 709.238 775.977, 676 775.056 C 656.670 774.520, 651.932 774.103, 649.300 772.702 C 647.539 771.766, 644.304 771, 642.109 771 C 639.914 771, 637.877 770.610, 637.583 770.134 C 637.289 769.658, 635.872 769.493, 634.434 769.768 C 632.862 770.068, 630.362 769.464, 628.160 768.252 C 626.147 767.144, 622.250 765.923, 619.500 765.540 C 616.750 765.156, 612.623 763.916, 610.330 762.784 C 604.851 760.079, 602.610 760.891, 603.517 765.249 C 603.889 767.037, 605.073 770.028, 606.148 771.895 C 607.223 773.761, 607.869 775.899, 607.583 776.645 C 607.297 777.390, 607.499 778, 608.031 778 C 608.564 778, 609 778.869, 609 779.931 C 609 784.209, 616.908 794.533, 625.363 801.292 C 638.163 811.524, 643.775 814.215, 660 817.901 C 669.752 820.116, 700.736 822.236, 701.654 820.751 C 701.909 820.338, 703.695 820, 705.623 820 C 710.405 820, 732.344 815.384, 735.746 813.662 C 737.261 812.895, 740.142 811.970, 742.149 811.607 C 744.155 811.244, 746.931 810.055, 748.317 808.965 C 749.704 807.875, 752.214 806.707, 753.896 806.371 C 755.579 806.034, 757.468 805.141, 758.094 804.387 C 758.720 803.632, 761.077 802.518, 763.331 801.911 C 765.585 801.304, 768.519 799.951, 769.850 798.904 C 771.181 797.857, 772.707 797, 773.241 797 C 777.313 797, 817.034 758.482, 815.508 756.013 C 814.690 754.690, 812.295 754.713, 811.467 756.053 M 254.500 776.468 C 252.300 777.294, 248.610 777.977, 246.299 777.985 C 239.557 778.009, 231.724 780.074, 228.673 782.631 C 227.119 783.934, 225.174 785, 224.351 785 C 220.833 785, 206 795.630, 206 798.151 C 206 798.561, 204.874 800.112, 203.498 801.596 C 202.122 803.081, 200.043 807.492, 198.876 811.398 C 197.044 817.536, 196.847 819.941, 197.424 829.119 C 198.056 839.179, 197.947 840.088, 195.368 846.369 C 193.870 850.016, 192.248 853, 191.764 853 C 191.279 853, 191.172 853.470, 191.527 854.044 C 191.882 854.618, 191.698 855.659, 191.118 856.358 C 189.554 858.243, 187.032 869.815, 187.015 875.185 C 186.997 880.776, 189.610 893.826, 191.109 895.632 C 191.694 896.336, 191.901 897.351, 191.570 897.887 C 191.238 898.423, 191.425 899.144, 191.984 899.490 C 193.244 900.269, 193.332 906.677, 192.094 907.442 C 191.596 907.750, 191.410 908.851, 191.681 909.888 C 191.952 910.926, 191.685 912.077, 191.087 912.446 C 189.626 913.349, 189.611 931, 191.072 931 C 191.661 931, 192.046 932.013, 191.927 933.250 C 191.808 934.487, 192.451 937.173, 193.356 939.218 C 194.260 941.263, 195 943.328, 195 943.808 C 195 944.288, 196.448 947.565, 198.219 951.090 C 200.929 956.488, 201.481 958.789, 201.712 965.669 C 201.864 970.161, 202.515 975.111, 203.160 976.669 C 203.805 978.226, 204.370 979.788, 204.416 980.139 C 204.462 980.491, 205.738 982.669, 207.250 984.979 C 208.762 987.289, 210.016 989.477, 210.036 989.840 C 210.156 992.046, 220.437 1001, 222.850 1001 C 223.269 1001, 225.104 1002.101, 226.929 1003.448 C 228.754 1004.794, 231.636 1006.200, 233.334 1006.573 C 235.031 1006.946, 238.056 1008.104, 240.054 1009.145 C 245.603 1012.037, 254.790 1012.090, 258.405 1009.250 C 260.589 1007.535, 262.605 1006.994, 266.885 1006.973 C 276.608 1006.926, 291.059 1005.196, 292.633 1003.890 C 294.447 1002.384, 304.306 998.146, 308.500 997.069 C 311.910 996.194, 318 991.199, 318 989.277 C 318 988.575, 318.457 988, 319.015 988 C 321.100 988, 323.993 981.500, 323.996 976.806 C 323.999 973.280, 323.399 971.413, 321.584 969.306 L 319.169 966.500 291.834 966.500 C 263.777 966.500, 260 966.022, 260 962.473 C 260 961.672, 259.100 960.455, 258 959.768 C 255.250 958.051, 255.476 956.889, 259.250 953.316 C 264.892 947.976, 266.305 947.633, 286 946.817 C 300.668 946.210, 322.508 944.632, 323.710 944.094 C 325.259 943.399, 329.387 937.547, 330.640 934.268 C 334.132 925.133, 330.599 916.008, 321.563 910.829 C 317.617 908.567, 316.633 908.486, 287.313 908 L 257.126 907.500 254.063 904.563 C 250.015 900.681, 249.897 896.131, 253.750 892.463 C 257.388 888.999, 260.132 888, 266.006 888 C 268.688 888, 271.160 887.550, 271.500 887 C 272.297 885.710, 293.280 885.680, 294.566 886.966 C 295.962 888.362, 326.343 888.472, 326.806 887.082 C 327.007 886.480, 327.516 886.201, 327.939 886.462 C 328.361 886.723, 329.945 884.407, 331.459 881.316 C 334.692 874.713, 335.276 864.349, 332.695 859.404 C 329.598 853.472, 321.837 847.988, 311.885 844.700 C 302.661 841.653, 281.382 840.459, 267.208 842.194 C 256.172 843.544, 252.211 842.339, 249.979 836.948 C 248.790 834.079, 248.857 833.312, 250.569 830.178 C 252.129 827.323, 253.653 826.243, 258.500 824.561 C 261.800 823.415, 265.067 822.116, 265.760 821.674 C 266.453 821.232, 270.396 820.969, 274.522 821.089 C 278.649 821.210, 282.320 821.014, 282.679 820.654 C 283.559 819.774, 290.485 819.818, 291.376 820.709 C 291.766 821.099, 293.889 821.288, 296.094 821.129 C 298.298 820.970, 300.641 821.269, 301.301 821.794 C 301.960 822.319, 303.850 822.980, 305.500 823.262 C 307.150 823.544, 311.109 824.501, 314.299 825.388 C 324.132 828.122, 325.766 827.755, 328.292 822.250 C 331.402 815.470, 331.368 803.730, 328.225 799.316 C 327.001 797.597, 326 795.698, 326 795.096 C 326 794.493, 325.613 794, 325.140 794 C 324.667 794, 322.541 792.360, 320.415 790.355 C 318.289 788.350, 314.964 786.049, 313.025 785.241 C 311.086 784.432, 308.360 782.961, 306.966 781.971 C 305.573 780.982, 302.648 779.872, 300.466 779.506 C 298.285 779.140, 294.700 778.131, 292.500 777.264 C 286.666 774.964, 259.994 774.406, 254.500 776.468 M 948 780.941 C 948 782.673, 949.760 782.994, 951.009 781.489 C 952.038 780.250, 951.889 780, 950.122 780 C 948.955 780, 948 780.423, 948 780.941 M 968.651 790.756 C 967.355 792.853, 980.497 803.436, 983.644 802.830 C 986.463 802.287, 985.682 800.695, 981.639 798.742 C 979.637 797.775, 978 796.321, 978 795.511 C 978 794.701, 976.893 793.760, 975.541 793.421 C 974.189 793.081, 972.558 792.173, 971.919 791.402 C 970.631 789.851, 969.365 789.600, 968.651 790.756 M 888.747 937.217 C 888.148 938.779, 890.126 949, 891.028 949 C 892.181 949, 891.546 936.683, 890.373 936.292 C 889.753 936.085, 889.022 936.501, 888.747 937.217 M 1073.755 946.208 C 1073.484 946.918, 1073.667 948.589, 1074.162 949.920 C 1075.271 952.904, 1077.337 951.376, 1076.835 947.944 C 1076.456 945.355, 1074.499 944.252, 1073.755 946.208 M 892 957.727 C 892 958.757, 892.494 960.094, 893.098 960.698 C 893.728 961.328, 894.048 964.187, 893.848 967.400 C 893.657 970.481, 893.837 973.002, 894.250 973.001 C 894.663 973.001, 895 974.070, 895 975.378 C 895 976.685, 895.684 978.323, 896.520 979.017 C 897.866 980.133, 897.964 979.431, 897.377 972.889 C 896.134 959.030, 895.593 956.545, 893.739 956.188 C 892.587 955.966, 892 956.485, 892 957.727 M 485.711 957.622 C 484.707 958.626, 484.855 963.222, 485.947 964.948 C 486.674 966.097, 486.991 965.886, 487.483 963.924 C 488.166 961.203, 486.842 956.492, 485.711 957.622 M 1079.624 973.130 C 1078.902 976.738, 1082.132 983, 1084.713 983 C 1086.813 983, 1085.915 976.122, 1083.356 972.610 C 1080.934 969.285, 1080.377 969.363, 1079.624 973.130 M 897.640 981.774 C 896.882 983.001, 898.668 1004.289, 899.966 1009.500 C 900.514 1011.700, 901.641 1018.623, 902.471 1024.885 C 903.300 1031.147, 904.489 1036.884, 905.112 1037.635 C 906.571 1039.393, 912 1039.441, 912 1037.696 C 912 1036.978, 910.620 1034.215, 908.933 1031.556 C 906.516 1027.745, 905.907 1025.743, 906.058 1022.110 C 906.164 1019.575, 906.013 1016.825, 905.724 1016 C 904.599 1012.795, 901.908 998.122, 901.074 990.649 C 900.233 983.114, 898.916 979.709, 897.640 981.774 M 1083.750 996.470 C 1081.520 999.536, 1081.529 1001, 1083.778 1001 C 1085.702 1001, 1089.207 997.540, 1088.251 996.585 C 1087.930 996.263, 1088.218 996, 1088.892 996 C 1089.566 996, 1089.840 995.550, 1089.500 995 C 1088.419 993.251, 1085.559 993.981, 1083.750 996.470 M 475 1072.500 C 475 1073.875, 475.342 1075, 475.759 1075 C 476.876 1075, 478.985 1071.318, 478.274 1070.608 C 476.809 1069.142, 475 1070.187, 475 1072.500" stroke="none" fill="#171916" fill-rule="evenodd"/>
</svg>