<svg role="img" aria-labelledby="artwork-title" shape-rendering="geometricPrecision" xmlns="http://www.w3.org/2000/svg" width="1200" height="1200" viewBox="0 0 1200 1200" version="1.1">
	<title id="artwork-title">Mascot smiling with sparkle elements</title>
	<path d="M 551.563 112.898 C 551.258 113.392, 547.764 114.122, 543.799 114.520 C 533.876 115.517, 514.671 123.087, 513.353 126.521 C 513.041 127.335, 512.272 128.011, 511.643 128.024 C 508.497 128.088, 490 148.346, 490 151.727 C 490 154.217, 485.724 159.985, 483.872 159.993 C 482.977 159.997, 481.656 159.290, 480.935 158.422 C 479.622 156.839, 470.375 151.633, 468.500 151.420 C 467.950 151.358, 466.825 151.043, 466 150.722 C 456.165 146.887, 441.465 145.866, 434 148.500 C 431.662 149.325, 428.867 150, 427.789 150 C 425.318 150, 413.931 155.575, 407.836 159.769 C 401.964 163.809, 391.873 173.871, 387.895 179.652 C 386.212 182.099, 383.931 186.778, 382.826 190.050 C 381.721 193.323, 380.375 196, 379.837 196 C 379.298 196, 378.988 197.012, 379.148 198.250 C 379.307 199.488, 379.032 201.154, 378.535 201.953 C 378.038 202.752, 377.691 207.252, 377.764 211.953 L 377.897 220.500 365.699 220.520 C 354.725 220.538, 353.048 220.782, 349 222.958 C 329.392 233.495, 312.697 254.913, 309.858 273.172 C 308.477 282.055, 309.859 297.460, 312.578 303.500 C 313.568 305.700, 314.406 307.780, 314.439 308.123 C 314.473 308.466, 315.719 310.218, 317.209 312.016 C 320.020 315.409, 319.799 318.096, 316.609 319.320 C 314.729 320.041, 305 332.888, 305 334.649 C 305 335.392, 304.550 336, 304 336 C 303.450 336, 303 336.675, 303 337.500 C 303 338.325, 302.523 339, 301.941 339 C 301.359 339, 301.136 339.412, 301.447 339.915 C 301.758 340.418, 301.672 340.980, 301.255 341.165 C 299.777 341.819, 297 354.924, 297.017 361.164 C 297.055 375.375, 303.891 390.453, 314.549 399.834 C 316.997 401.989, 319 404.035, 319 404.381 C 319 404.727, 317.875 407.342, 316.500 410.192 C 314.608 414.114, 314 416.982, 314 421.987 C 314 425.624, 314.394 429.027, 314.877 429.550 C 315.359 430.072, 316.743 433.200, 317.953 436.500 C 320.793 444.246, 323.492 448.662, 328.037 453 C 331.296 456.111, 331.777 457.220, 332.360 462.975 C 332.987 469.164, 332.873 469.649, 329.766 473.975 C 327.979 476.464, 326.606 478.604, 326.715 478.732 C 326.824 478.859, 326.258 480.532, 325.457 482.450 C 324.655 484.367, 324 486.608, 324 487.430 C 324 488.252, 322.987 491.529, 321.750 494.712 C 319.666 500.073, 319.500 502.085, 319.500 522 C 319.500 540.590, 319.737 543.933, 321.250 546.700 C 323.399 550.631, 323.526 558.496, 321.518 563.302 C 320.704 565.252, 319.572 570.819, 319.004 575.674 C 318.436 580.528, 317.538 586.300, 317.009 588.500 C 316.480 590.700, 316.037 599.059, 316.024 607.076 C 316.003 619.896, 316.288 622.485, 318.395 628.576 C 319.712 632.384, 321.318 638.200, 321.964 641.500 C 324.115 652.498, 324.938 654.589, 330.425 662.975 C 333.649 667.904, 336.153 672.982, 336.554 675.405 C 337.507 681.162, 338.365 682.484, 347.007 691.507 C 351.225 695.912, 355.431 701.106, 356.354 703.050 C 357.276 704.995, 359.712 708.205, 361.766 710.184 C 368.700 716.867, 381.791 728.476, 386.661 732.261 C 389.322 734.329, 394.090 738.196, 397.256 740.854 C 400.422 743.512, 404.837 746.234, 407.068 746.902 C 410.323 747.878, 411.062 748.530, 410.812 750.207 C 410.547 751.982, 409.161 752.568, 401.630 754.088 C 396.752 755.073, 391.005 756.581, 388.860 757.439 C 386.715 758.298, 384.129 759, 383.115 759 C 382.100 759, 380.084 759.933, 378.635 761.073 C 377.186 762.212, 376 762.832, 376 762.450 C 376 762.068, 375.437 762.198, 374.750 762.740 C 374.063 763.281, 372.150 764.032, 370.500 764.409 C 367.388 765.119, 359.426 768.043, 352.500 771.020 C 350.300 771.965, 347.547 773.034, 346.382 773.395 C 345.217 773.756, 343.460 774.940, 342.477 776.026 C 341.494 777.111, 340.292 778, 339.805 778 C 339.317 778, 337.587 778.900, 335.960 780 C 334.332 781.100, 331.668 782.900, 330.040 784 C 328.413 785.100, 326.457 786, 325.694 786 C 324.931 786, 322.750 787.462, 320.846 789.250 C 318.943 791.038, 314.611 794.469, 311.219 796.875 C 303.944 802.035, 279 827.246, 279 829.438 C 279 830.272, 277.949 831.642, 276.665 832.484 C 275.381 833.325, 273.694 835.241, 272.915 836.741 C 271.205 840.039, 263.371 851.908, 261.525 854 C 260.797 854.825, 257.842 860, 254.957 865.500 C 252.072 871, 248.875 876.697, 247.853 878.159 C 246.830 879.622, 244.152 884.797, 241.901 889.659 C 232.134 910.761, 230.809 913.592, 229.929 915.236 C 229.418 916.191, 229 917.416, 229 917.958 C 229 918.500, 227.802 921.543, 226.339 924.721 C 224.875 927.900, 223.600 930.725, 223.505 931 C 223.410 931.275, 222.870 932.625, 222.304 934 C 221.738 935.375, 220.710 938.300, 220.020 940.500 C 219.330 942.700, 217.732 947.425, 216.469 951 C 215.206 954.575, 213.625 959.300, 212.956 961.500 C 212.287 963.700, 211.386 965.950, 210.955 966.500 C 210.523 967.050, 210.161 967.725, 210.150 968 C 210.138 968.275, 209.906 969.175, 209.633 970 C 206.898 978.270, 206.123 982.942, 206.987 985.953 C 208.199 990.182, 210.704 993.998, 212.273 994.006 C 214.977 994.020, 218.318 1003.067, 216.121 1004.425 C 215.637 1004.724, 214.460 1009.363, 213.503 1014.734 C 212.547 1020.105, 211.315 1025.060, 210.764 1025.745 C 210.214 1026.429, 210 1027.892, 210.288 1028.995 C 210.577 1030.098, 210.514 1031, 210.148 1031 C 209.160 1031, 205.993 1048.657, 205.840 1055.016 C 205.672 1061.957, 207.839 1066.400, 212.119 1067.892 C 216.831 1069.534, 218.519 1069.275, 221.959 1066.381 C 226.227 1062.790, 227.996 1058.970, 228.020 1053.300 C 228.031 1050.660, 228.659 1044.900, 229.416 1040.500 C 230.172 1036.100, 231.604 1027.655, 232.597 1021.733 C 234.059 1013.019, 234.811 1010.698, 236.542 1009.564 C 238.461 1008.307, 238.972 1008.412, 241.496 1010.581 C 243.044 1011.912, 244.719 1013, 245.217 1013 C 245.716 1013, 248.683 1014.149, 251.812 1015.553 C 254.940 1016.957, 259.075 1018.807, 261 1019.664 C 262.925 1020.521, 265.306 1021.637, 266.291 1022.145 C 267.276 1022.652, 268.513 1022.801, 269.041 1022.475 C 269.568 1022.149, 270 1022.322, 270 1022.861 C 270 1023.873, 286.819 1029.762, 293 1030.915 L 296.500 1031.567 296.229 1040.034 C 296.080 1044.690, 295.483 1055.141, 294.902 1063.257 C 293.885 1077.466, 293.924 1078.140, 295.943 1081.408 C 298.320 1085.253, 299.726 1086, 304.588 1086 C 306.995 1086, 308.659 1085.257, 310.187 1083.500 C 312.927 1080.349, 313.876 1080.372, 320.283 1083.750 L 325.500 1086.500 536.596 1086.784 C 679.873 1086.977, 748.563 1086.736, 750.404 1086.036 C 753.109 1085.008, 753.117 1084.978, 752.928 1075.618 C 752.824 1070.456, 753.006 1065.800, 753.332 1065.272 C 753.658 1064.744, 760.029 1064.036, 767.489 1063.699 C 774.949 1063.362, 781.603 1062.740, 782.276 1062.318 C 782.949 1061.895, 784.314 1061.684, 785.310 1061.848 C 786.305 1062.012, 787.668 1061.691, 788.338 1061.135 C 789.008 1060.579, 793.143 1059.841, 797.528 1059.495 C 801.913 1059.149, 809.325 1058.199, 814 1057.384 C 818.675 1056.569, 825.425 1055.452, 829 1054.901 C 832.575 1054.351, 837.300 1053.434, 839.500 1052.864 C 841.700 1052.293, 846.200 1051.363, 849.500 1050.796 C 852.800 1050.230, 856.175 1049.525, 857 1049.230 C 857.825 1048.935, 858.950 1048.648, 859.500 1048.592 C 860.050 1048.536, 861.460 1047.943, 862.634 1047.273 C 863.807 1046.602, 868.082 1045.547, 872.134 1044.927 C 876.185 1044.308, 880.210 1043.170, 881.079 1042.400 C 883.038 1040.662, 887.420 1040.576, 888.746 1042.250 C 889.629 1043.365, 891.301 1066.414, 891.445 1079.467 C 891.512 1085.527, 893.629 1087.015, 902 1086.886 C 910.999 1086.747, 912.450 1086.028, 912.821 1081.528 C 912.998 1079.387, 912.690 1076.704, 912.138 1075.567 C 911.585 1074.430, 910.897 1069, 910.608 1063.500 C 910.319 1058, 909.604 1049.722, 909.019 1045.104 C 907.843 1035.823, 908.382 1034.405, 914.238 1031.377 C 920.909 1027.927, 921.912 1020.123, 918.153 1000.908 C 917.034 995.183, 915.810 988.025, 915.435 985 C 915.059 981.975, 914.283 978.375, 913.710 977 C 913.136 975.625, 912.591 974.275, 912.497 974 C 912.404 973.725, 912.072 972.825, 911.759 972 C 911.446 971.175, 909.782 964.875, 908.060 958 C 905.145 946.358, 901.548 933.487, 900.237 930 C 899.927 929.175, 899.593 928.275, 899.496 928 C 899.399 927.725, 898.572 925.827, 897.660 923.782 C 896.747 921.737, 896 919.761, 896 919.390 C 896 918.801, 890.434 904.072, 888.106 898.500 C 887.647 897.400, 887.114 896.050, 886.922 895.500 C 886.730 894.950, 884.869 891.400, 882.786 887.612 C 880.704 883.823, 879 880.198, 879 879.557 C 879 878.916, 877.731 876.391, 876.181 873.946 C 874.630 871.501, 873.293 869.152, 873.210 868.728 C 873.127 868.303, 872.347 866.953, 871.476 865.728 C 870.605 864.502, 868.130 860.800, 865.976 857.500 C 863.822 854.200, 860.710 849.592, 859.060 847.259 C 857.411 844.927, 855.401 841.777, 854.595 840.259 C 853.788 838.742, 851.231 835.475, 848.912 833 C 832.287 815.255, 828.688 811.891, 821.035 806.942 C 817.991 804.974, 814.806 802.719, 813.958 801.931 C 813.110 801.144, 811.665 800.050, 810.748 799.500 C 809.830 798.950, 805.177 795.817, 800.406 792.537 C 795.636 789.258, 790.781 786.075, 789.617 785.464 C 788.452 784.854, 786.600 783.850, 785.500 783.232 C 780.403 780.371, 758.023 770.033, 754 768.681 C 751.525 767.849, 748.150 766.459, 746.500 765.591 C 744.850 764.723, 742.894 764.010, 742.154 764.006 C 741.414 764.003, 739.568 763.117, 738.053 762.037 C 736.537 760.958, 733.111 759.585, 730.439 758.986 C 727.768 758.388, 725.113 757.520, 724.541 757.057 C 723.968 756.595, 720.800 755.687, 717.500 755.040 C 708.377 753.250, 708 753.071, 708 750.531 C 708 748.282, 710.543 746.126, 717.936 742.106 C 729.051 736.063, 739.560 726.552, 747.350 715.487 C 748.367 714.041, 752.241 710.909, 755.958 708.527 C 762.355 704.426, 767 699.064, 767 695.778 C 767 694.961, 768.121 693.082, 769.492 691.604 C 770.862 690.125, 772.272 687.697, 772.626 686.208 C 772.979 684.718, 773.809 682.825, 774.470 682 C 775.130 681.175, 776.249 679.038, 776.957 677.250 C 778.506 673.334, 781.306 673.001, 787.496 675.998 C 794.249 679.267, 810.211 679.773, 821.500 677.075 C 832.660 674.408, 835.166 673.444, 841.702 669.299 C 844.563 667.485, 847.295 666, 847.774 666 C 849.049 666, 863.047 654.184, 867.938 648.979 C 872.014 644.641, 878 636.510, 878 635.311 C 878 634.987, 879.902 630.848, 882.226 626.111 C 884.551 621.375, 886.507 617.050, 886.573 616.500 C 886.639 615.950, 886.951 614.825, 887.266 614 C 887.580 613.175, 888.047 611.375, 888.303 610 C 888.559 608.625, 889.552 604.575, 890.511 601 C 891.853 595.993, 892.128 592.203, 891.709 584.500 C 890.745 566.757, 887.726 558.151, 878.318 546.332 C 876.493 544.039, 875 541.808, 875 541.373 C 875 540.939, 877.142 538.539, 879.761 536.041 C 890.653 525.651, 896.026 513.074, 895.965 498.111 C 895.942 492.539, 895.425 488.618, 894.500 487 C 892.305 483.160, 892.585 482.557, 898.750 477.888 C 910.202 469.213, 914.779 464.065, 919.503 454.546 C 921.976 449.562, 924 444.502, 924 443.301 C 924 442.101, 924.477 440.823, 925.059 440.464 C 925.642 440.104, 926.025 438.839, 925.910 437.654 C 925.796 436.470, 926.100 434.600, 926.586 433.500 C 927.916 430.487, 927.713 414.313, 926.328 412.928 C 925.684 412.284, 925.396 411.130, 925.690 410.365 C 925.984 409.600, 925.783 408.418, 925.244 407.737 C 924.705 407.057, 923.517 404.250, 922.604 401.500 C 920.465 395.059, 909.736 381, 906.960 381 C 905.291 381, 905.917 377.925, 908.250 374.659 C 911.991 369.421, 913.692 365.740, 915.500 358.964 C 918.375 348.192, 918.911 344.813, 918.956 337.164 C 919.070 318.093, 909.805 299.909, 893.245 286.695 C 882.354 278.006, 871.845 274.024, 859.750 274.006 C 856.005 274, 856 273.995, 856.008 269.750 C 856.012 267.413, 856.489 262.580, 857.068 259.011 C 858.900 247.716, 853.830 223.812, 847.984 216.181 C 837.654 202.698, 833.276 198.311, 822.357 190.500 C 817.496 187.023, 810.677 184.072, 806.010 183.426 C 803.530 183.082, 799.136 182.139, 796.248 181.329 C 789.085 179.321, 771.660 181.539, 764.172 185.411 C 762.395 186.330, 760.568 186.851, 760.112 186.569 C 759.656 186.287, 759.038 183.356, 758.739 180.054 C 758.439 176.753, 757.546 173.403, 756.754 172.611 C 755.961 171.819, 754.753 169.670, 754.068 167.835 C 750.765 158.990, 744.818 150.089, 736.847 142.062 C 730.572 135.741, 719.877 128, 717.422 128 C 716.724 128, 714.881 126.945, 713.327 125.656 C 706.415 119.926, 685.652 116.376, 668.402 117.975 C 652.762 119.425, 643.133 122.492, 634 128.933 C 629.875 131.842, 625.279 134.959, 623.787 135.859 C 622.294 136.758, 620.520 138.528, 619.844 139.792 C 618.130 142.993, 614.977 142.256, 612.516 138.078 C 609.715 133.323, 600.301 124.248, 595.500 121.675 C 587.873 117.587, 576.707 114.064, 571.250 114.024 C 569.462 114.011, 568 113.550, 568 113 C 568 111.747, 552.335 111.650, 551.563 112.898 M 541 135.406 C 538.192 137.030, 535 138.339, 533.500 138.480 C 529.931 138.817, 514 150.310, 514 152.548 C 514 153.267, 512.814 154.788, 511.365 155.927 C 509.916 157.067, 509.041 158, 509.421 158 C 509.801 158, 508.969 159.012, 507.574 160.250 C 504.576 162.908, 502.756 171, 505.157 171 C 505.933 171, 507.376 169.633, 508.363 167.962 C 511.188 163.181, 524.465 150.715, 529.203 148.397 C 544.223 141.047, 559.377 138.260, 569.884 140.913 C 571.873 141.416, 575.975 142.374, 579 143.042 C 582.025 143.711, 584.950 144.598, 585.500 145.013 C 586.050 145.429, 587.850 146.068, 589.500 146.432 C 591.197 146.808, 594.879 149.453, 597.976 152.522 C 601.523 156.038, 603.794 157.606, 604.424 156.976 C 605.559 155.841, 601.039 150.844, 594.866 146.413 C 592.634 144.811, 589.276 142.216, 587.404 140.646 C 585.532 139.077, 584 138.057, 584 138.379 C 584 138.702, 582.313 137.969, 580.250 136.751 C 576.854 134.745, 574.944 134.509, 560 134.248 C 547.023 134.022, 542.966 134.269, 541 135.406 M 665.826 139.173 C 665.097 139.544, 661.125 140.823, 657 142.016 C 648.015 144.614, 641.085 147.937, 635 152.567 C 632.525 154.450, 628.918 157.056, 626.985 158.359 C 622.263 161.542, 620.580 163.623, 622.013 164.508 C 622.624 164.886, 623.534 166.276, 624.037 167.597 C 625.268 170.836, 627.300 170.621, 630.411 166.923 C 631.835 165.231, 633 164.192, 633 164.614 C 633 165.037, 633.574 164.598, 634.275 163.639 C 635.719 161.664, 649.555 155.047, 652.298 155.018 C 653.287 155.008, 655.959 154.100, 658.236 153 C 664.008 150.211, 679.832 150.143, 685.562 152.883 C 687.728 153.918, 691.075 155.103, 693 155.516 C 694.925 155.929, 698.068 157.107, 699.985 158.133 C 701.902 159.160, 704.152 160.010, 704.985 160.022 C 705.818 160.034, 707.625 160.924, 709 162 C 710.375 163.076, 711.889 163.966, 712.364 163.978 C 713.447 164.006, 724.506 173.487, 728.101 177.470 C 731.532 181.271, 734.681 187.345, 736.022 192.750 C 737.848 200.106, 739.338 197.903, 738.764 188.698 C 738.022 176.806, 733.091 167.173, 722.007 155.965 C 716.263 150.156, 705.934 144.320, 699.706 143.364 C 697.393 143.009, 693.766 141.849, 691.647 140.786 C 688.681 139.299, 685.417 138.813, 677.473 138.677 C 671.797 138.580, 666.556 138.803, 665.826 139.173 M 437 170.347 C 432.875 171.028, 427.017 172.767, 423.983 174.212 C 416.547 177.752, 405.685 187.868, 402.387 194.325 C 399.585 199.810, 395.537 217.442, 396.662 219.262 C 397.285 220.270, 401.886 211.755, 401.964 209.449 C 402.031 207.482, 409.845 196.315, 413.680 192.706 C 420.150 186.618, 430.094 180.874, 440 177.503 C 440.275 177.409, 441.850 176.768, 443.500 176.078 C 445.150 175.389, 447.947 174.583, 449.715 174.287 C 453.098 173.722, 467.707 176.717, 468.598 178.159 C 468.884 178.621, 469.879 179.003, 470.809 179.006 C 471.739 179.010, 473.820 179.701, 475.434 180.542 C 479.291 182.554, 481.217 181.736, 480.817 178.256 C 480.528 175.743, 480.060 175.453, 475.500 174.969 C 472.750 174.678, 468.360 173.418, 465.745 172.170 C 459.826 169.347, 447.709 168.578, 437 170.347 M 501 182.961 C 501 183.490, 499.177 184.414, 496.949 185.014 C 492.519 186.207, 491.091 188.200, 493.011 190.513 C 495.006 192.918, 497.581 192.238, 500.381 188.567 C 503.048 185.070, 503.805 182, 502 182 C 501.450 182, 501 182.433, 501 182.961 M 775.484 203.027 C 775.135 203.591, 774.321 203.947, 773.675 203.817 C 773.029 203.687, 771.375 204.203, 770 204.965 C 768.625 205.726, 765.700 206.881, 763.500 207.530 C 760.649 208.373, 759.231 209.466, 758.564 211.336 C 758.049 212.780, 757.910 214.243, 758.255 214.588 C 758.600 214.933, 763.290 214.464, 768.676 213.546 C 779.973 211.621, 788.091 212.249, 797 215.740 C 797.825 216.063, 798.725 216.388, 799 216.461 C 799.275 216.535, 801.075 217.585, 803 218.794 C 804.925 220.003, 806.958 220.994, 807.517 220.996 C 808.754 221.001, 819 229.848, 819 230.911 C 819 231.327, 820.752 233.565, 822.893 235.884 C 825.034 238.204, 827.031 241.091, 827.330 242.301 C 827.629 243.510, 828.787 246.975, 829.904 250 C 831.227 253.582, 831.946 258.007, 831.967 262.691 C 832.003 270.583, 832.959 272.315, 835.085 268.342 C 836.972 264.816, 836.941 243.838, 835.045 241.554 C 834.313 240.673, 833.991 239.676, 834.328 239.339 C 834.665 239.002, 834.120 237.550, 833.116 236.113 C 832.113 234.676, 830.977 232.201, 830.592 230.613 C 829.908 227.786, 826.988 223.384, 822 217.658 C 819.130 214.364, 809.915 208, 808.015 208 C 807.311 208, 805.141 207.014, 803.192 205.810 C 800.720 204.282, 798.371 203.698, 795.426 203.879 C 793.104 204.022, 790.906 203.657, 790.543 203.069 C 789.696 201.700, 776.327 201.662, 775.484 203.027 M 363.419 239.924 C 361.174 240.290, 358.076 241.582, 356.534 242.795 C 354.992 244.008, 353.192 245, 352.534 245 C 350.647 245, 341.208 253.902, 337.903 258.799 C 336.251 261.246, 334.643 264.655, 334.328 266.374 C 334.014 268.093, 333.142 270.488, 332.390 271.697 C 330.605 274.567, 329.604 286.409, 330.716 291.500 C 331.833 296.616, 334.390 296.931, 334.770 292 C 335.380 284.087, 338.226 274.035, 341.170 269.393 C 350.507 254.671, 364.321 244.080, 374.264 244.022 C 376.334 244.010, 378.893 243.459, 379.952 242.798 C 381.469 241.850, 382.405 241.879, 384.371 242.931 C 385.869 243.733, 387.591 243.948, 388.683 243.469 C 389.682 243.031, 390.950 242.634, 391.500 242.586 C 392.050 242.539, 392.500 241.846, 392.500 241.047 C 392.500 239.862, 390.189 239.563, 380 239.426 C 373.125 239.334, 365.663 239.559, 363.419 239.924 M 499.887 271.826 C 498.574 273.656, 496.600 276.191, 495.500 277.460 C 494.400 278.730, 491.700 282.065, 489.500 284.873 C 487.300 287.681, 484.488 290.257, 483.250 290.597 C 482.012 290.938, 481 291.866, 481 292.659 C 481 293.453, 479.456 294.747, 477.568 295.536 C 475.681 296.324, 473.876 297.392, 473.557 297.908 C 473.238 298.424, 471.572 299.155, 469.855 299.532 C 468.137 299.909, 464.880 301.059, 462.616 302.087 C 459.474 303.514, 456.092 303.961, 448.322 303.978 C 439.599 303.997, 436.970 303.584, 429.917 301.088 C 420.897 297.897, 417.948 298.275, 418.759 302.520 C 418.995 303.755, 418.696 305.070, 418.094 305.442 C 417.492 305.814, 416.997 307.554, 416.993 309.309 C 416.990 311.064, 416.093 313.850, 415 315.500 C 413.907 317.150, 413.010 319.128, 413.007 319.896 C 412.986 324.345, 397.754 341.271, 392.609 342.562 C 391.174 342.922, 390 343.618, 390 344.108 C 390 344.599, 389.116 345, 388.035 345 C 385.035 345, 383.960 348.177, 384.243 356.214 C 384.490 363.250, 383.402 367.649, 379.720 374.500 C 375.483 382.383, 372.997 389.889, 371.771 398.500 C 371.223 402.350, 370.150 407.197, 369.387 409.270 C 368.624 411.344, 368 414.355, 368 415.961 C 368 417.568, 367.610 419.123, 367.134 419.417 C 366.658 419.711, 366.486 421.091, 366.752 422.482 C 367.018 423.873, 366.749 425.597, 366.155 426.313 C 364.768 427.984, 362 438.576, 362 442.210 C 362 445.242, 364.614 446.169, 365.638 443.500 C 365.955 442.675, 366.728 441.998, 367.357 441.996 C 367.986 441.994, 370.075 441.003, 372 439.794 C 373.925 438.585, 375.837 437.517, 376.250 437.423 C 376.663 437.328, 377.113 437.168, 377.250 437.067 C 377.387 436.967, 380.650 435.984, 384.500 434.884 C 393.125 432.418, 432.284 431.061, 443.021 432.855 C 461.319 435.913, 467.458 437.308, 470.338 439.065 C 472.077 440.125, 474.182 440.994, 475.015 440.996 C 475.848 440.998, 478.209 441.900, 480.261 443 C 482.314 444.100, 484.599 445, 485.340 445 C 489.559 445, 511 463.626, 511 467.291 C 511 468.096, 511.646 469.291, 512.436 469.947 C 513.225 470.602, 514.144 472.381, 514.478 473.899 C 515.132 476.876, 516.906 477.245, 520.684 475.189 C 521.952 474.499, 526.987 474.002, 532.684 474.004 C 540.527 474.007, 543.120 474.385, 545.583 475.888 C 547.279 476.922, 550.654 478.097, 553.083 478.499 C 555.512 478.901, 560.294 480.528, 563.708 482.115 C 567.123 483.702, 570.288 485, 570.743 485 C 571.197 485, 572.335 483.762, 573.271 482.250 C 575.566 478.542, 578.962 474.963, 582.742 472.267 C 585.646 470.196, 587.618 469.323, 597 465.957 C 598.925 465.266, 601.483 464.258, 602.684 463.717 C 603.886 463.175, 605.777 462.970, 606.886 463.260 C 607.996 463.550, 609.038 463.401, 609.202 462.929 C 610.209 460.029, 647.030 459.264, 653.500 462.009 C 655.150 462.709, 657.917 463.188, 659.649 463.073 C 661.381 462.958, 663.095 463.345, 663.458 463.932 C 663.821 464.519, 665.480 465, 667.145 465 C 673.069 465, 697.963 472.332, 703.169 475.611 C 705.187 476.882, 707.981 478.208, 709.378 478.559 C 710.775 478.909, 712.442 479.827, 713.081 480.598 C 713.721 481.369, 715.017 482, 715.961 482 C 717.955 482, 723.148 485.635, 730.200 491.969 C 736.622 497.737, 739.228 501.465, 739.948 505.913 C 740.526 509.480, 740.563 509.503, 746.515 510.089 C 752.782 510.706, 761.918 513.593, 770.685 517.727 C 777.595 520.984, 779.413 520.549, 779.822 515.539 C 780.035 512.938, 780.971 510.829, 782.572 509.345 C 785.517 506.616, 785.670 503.917, 783.016 501.515 C 780.356 499.107, 775 489.501, 775 487.137 C 775 486.096, 774.325 483.629, 773.500 481.654 C 772.675 479.680, 772.007 475.912, 772.015 473.282 C 772.030 468.353, 775.538 455.794, 778.378 450.500 C 779.263 448.850, 779.990 446.948, 779.994 446.273 C 779.997 445.598, 781.091 444.331, 782.425 443.457 C 784.486 442.107, 787 437.447, 787 434.979 C 787 434.581, 785.302 433.984, 783.228 433.652 C 778.541 432.903, 769.520 426.234, 764.486 419.797 C 761.349 415.786, 755.978 405.499, 756.420 404.347 C 756.705 403.606, 756.600 403, 756.187 403 C 753.030 403, 752.103 380.987, 754.987 374.500 C 755.721 372.850, 756.214 370.871, 756.083 370.102 C 755.952 369.333, 756.638 367.230, 757.608 365.429 C 759.023 362.801, 759.129 361.860, 758.142 360.672 C 756.907 359.182, 754.657 359.010, 753.362 360.304 C 752.404 361.262, 739 361.187, 739 360.224 C 739 359.797, 737.192 359.620, 734.981 359.830 C 732.771 360.041, 730.347 359.703, 729.596 359.080 C 728.844 358.456, 724.199 355.958, 719.274 353.528 C 712.366 350.121, 709.018 347.707, 704.628 342.965 C 699.170 337.069, 693 325.904, 693 321.921 C 693 320.929, 692.521 319.822, 691.935 319.460 C 691.311 319.074, 690.971 316.045, 691.115 312.151 C 691.338 306.096, 691.175 305.473, 689.291 305.195 C 688.125 305.023, 686.018 306.005, 684.465 307.445 C 682.949 308.850, 680.705 310, 679.480 310 C 678.254 310, 675.338 310.675, 673 311.500 C 666.304 313.863, 650.578 313.501, 642.271 310.793 C 638.547 309.579, 634.853 307.952, 634.063 307.177 C 633.272 306.402, 630.734 304.957, 628.421 303.966 C 621.805 301.130, 610 288.106, 610 283.642 C 610 281.381, 607.561 279.839, 606.176 281.224 C 605.529 281.871, 605 282.038, 605 281.596 C 605 281.154, 603.313 282.205, 601.250 283.931 C 599.188 285.657, 597.027 287.438, 596.448 287.889 C 593.626 290.088, 581.697 295.098, 580.435 294.613 C 579.646 294.311, 579 294.434, 579 294.887 C 579 295.658, 568.558 297.229, 563 297.294 C 557.428 297.359, 544 295.658, 544 294.888 C 544 294.434, 543.260 294.347, 542.355 294.694 C 541.446 295.043, 540.207 294.693, 539.584 293.912 C 538.965 293.136, 535.443 290.955, 531.758 289.067 C 524.694 285.448, 519.132 280.379, 514.260 273.121 C 511.547 269.078, 510.974 268.733, 506.798 268.621 C 502.755 268.513, 502.020 268.854, 499.887 271.826 M 827.995 288.500 C 827.331 290.150, 826.161 292.978, 825.394 294.784 C 824.627 296.590, 824.001 298.165, 824.001 298.284 C 824.002 298.403, 830.271 298.595, 837.932 298.711 C 849.781 298.890, 852.429 299.226, 855.666 300.961 C 857.758 302.082, 860.026 303, 860.705 303 C 864.866 303, 884 319.133, 884 322.641 C 884 323.346, 884.839 324.727, 885.865 325.711 C 889.199 328.909, 891.470 337.739, 891.584 347.948 C 891.698 358.133, 893.116 360.820, 894.941 354.312 C 897.809 344.085, 896.954 330.343, 892.888 321.305 C 891.849 318.998, 891 316.642, 891 316.071 C 891 314.312, 876.076 300, 874.234 299.993 C 873.280 299.990, 871.150 299.093, 869.500 298 C 867.850 296.907, 865.514 296.010, 864.309 296.007 C 863.104 296.003, 861.835 295.543, 861.490 294.984 C 861.144 294.425, 860.440 294.228, 859.924 294.547 C 859.408 294.866, 857.682 294.198, 856.089 293.063 C 852.426 290.455, 848.825 290.431, 846.500 293 C 845.360 294.260, 843.420 295, 841.257 295 C 838.434 295, 837.059 294.157, 833.513 290.250 L 829.200 285.500 827.995 288.500 M 333.787 329.812 C 331.527 331.294, 327.510 335.340, 323.190 340.484 C 321.719 342.236, 320.451 345.884, 319.595 350.830 C 318.809 355.366, 320.888 354.614, 323.500 349.419 C 326.411 343.628, 331.692 336.332, 333.465 335.652 C 334.309 335.328, 335 334.522, 335 333.860 C 335 333.199, 335.704 331.879, 336.565 330.928 C 338.753 328.510, 336.904 327.767, 333.787 329.812 M 437.500 390.433 C 424.374 392.354, 415.002 396.991, 411.285 403.404 C 408.616 408.011, 410.303 415.053, 414.954 418.718 C 417.161 420.457, 422.124 420.260, 433 418 C 444.383 415.635, 450.148 415.503, 456.072 417.472 C 458.507 418.281, 463.323 419.383, 466.773 419.920 C 470.223 420.457, 474.342 421.820, 475.927 422.948 C 477.512 424.077, 479.805 425, 481.022 425 C 485.870 425, 494 414.879, 494 408.844 C 494 405.781, 485.439 396.519, 481.651 395.484 C 480.468 395.161, 477.475 394.065, 475 393.049 C 470.780 391.316, 453.546 388.809, 448 389.122 C 446.625 389.199, 441.900 389.789, 437.500 390.433 M 889 395.965 C 889 397.046, 890.267 399.409, 891.817 401.215 C 894.363 404.185, 899.351 411.756, 899.581 413 C 899.631 413.275, 900.082 414.400, 900.582 415.500 C 902.071 418.775, 901.720 436.428, 900.128 438.346 C 899.373 439.256, 899.105 440, 899.533 440 C 899.960 440, 899.600 440.788, 898.733 441.750 C 897.866 442.712, 896.836 444.782, 896.445 446.349 C 895.834 448.796, 896 449.140, 897.617 448.790 C 898.653 448.565, 899.371 447.797, 899.214 447.082 C 899.057 446.368, 900.182 444.145, 901.714 442.142 C 904.432 438.588, 904.500 438.185, 904.500 425.500 C 904.500 413.438, 904.307 412.103, 901.822 407 C 897.254 397.620, 889 390.516, 889 395.965 M 636.500 417.013 C 625.190 420.169, 619.162 428.025, 622.008 435.901 C 623.515 440.073, 624.900 441.369, 630.805 444.130 C 634.540 445.876, 635.771 446, 640.104 445.071 C 647.188 443.552, 657.025 443.745, 662 445.500 C 664.338 446.325, 667.426 447, 668.861 447 C 670.297 447, 673.728 448.070, 676.486 449.378 C 679.244 450.686, 682.625 452.291, 684 452.945 C 687.645 454.678, 692.146 457.268, 694.973 459.259 C 697.737 461.205, 705.958 461.628, 709.034 459.982 C 710.081 459.421, 712.126 456.935, 713.579 454.455 C 716.004 450.317, 716.112 449.684, 714.889 446.731 C 714.156 444.962, 711.983 441.773, 710.060 439.645 C 706.702 435.928, 695.772 428, 694.006 428 C 693.537 428, 691.786 426.850, 690.115 425.443 C 688.444 424.037, 685.372 422.625, 683.288 422.305 C 681.205 421.984, 679.020 421.348, 678.433 420.890 C 675.460 418.573, 663.652 415.989, 654 415.544 C 645.556 415.155, 642.129 415.442, 636.500 417.013 M 157.500 430.551 C 151.211 432.701, 150.462 434.623, 147.396 456.500 C 147.088 458.700, 146.574 461.175, 146.254 462 C 145.934 462.825, 145.615 463.725, 145.544 464 C 145.473 464.275, 144.422 466.695, 143.208 469.377 C 141.994 472.060, 141 474.705, 141 475.255 C 141 477.193, 134.625 487.560, 130.193 492.829 C 122.310 502.201, 108.844 509.715, 98.245 510.656 C 91.298 511.272, 86.111 513.676, 84.884 516.847 C 84.385 518.137, 83.081 519.427, 81.988 519.713 C 79.574 520.345, 79.166 525, 81.525 525 C 82.363 525, 83.447 526.046, 83.934 527.325 C 85.234 530.745, 89.569 533.155, 96.956 534.565 C 102.975 535.713, 108.876 537.450, 116.457 540.302 C 120.693 541.895, 134.501 556.068, 137.319 561.716 C 139.326 565.736, 140.985 570.230, 144.810 582 C 145.078 582.825, 145.198 584.513, 145.077 585.750 C 144.956 586.987, 145.281 588, 145.799 588 C 146.318 588, 147.049 590.813, 147.425 594.250 C 148.565 604.675, 149.695 607.649, 153.388 609.931 C 160.744 614.477, 168.294 610.463, 169.470 601.380 C 169.818 598.696, 170.545 595.694, 171.085 594.709 C 171.626 593.724, 171.820 592.518, 171.518 592.028 C 171.215 591.539, 171.399 590.872, 171.926 590.546 C 172.453 590.220, 173.203 587.826, 173.592 585.227 C 176.156 568.095, 186.961 549.977, 198 544.300 C 199.925 543.310, 201.840 541.973, 202.256 541.328 C 202.672 540.684, 204.472 539.842, 206.256 539.458 C 208.040 539.073, 210.837 538.075, 212.471 537.239 C 214.105 536.404, 218.605 535.374, 222.471 534.951 C 229.084 534.228, 229.722 533.932, 233.250 529.962 C 237.141 525.584, 238.094 521.634, 235.500 520.638 C 234.675 520.322, 234 519.384, 234 518.554 C 234 516.483, 230.232 514.195, 224.931 513.049 C 215.481 511.006, 210.283 509.438, 207.939 507.925 C 206.598 507.059, 204.636 506.031, 203.579 505.641 C 200.558 504.525, 189.676 494.912, 186.441 490.500 C 179.947 481.646, 176.381 471.155, 173.802 453.320 C 173.141 448.744, 172.282 445, 171.893 445 C 171.505 445, 171.396 444.203, 171.651 443.228 C 172.310 440.705, 167.621 432.798, 164.302 430.839 C 161.833 429.381, 161.024 429.347, 157.500 430.551 M 403.575 455.951 C 400.005 458.293, 388.915 468.210, 382.326 474.953 C 374.339 483.127, 371.240 490.201, 371.903 498.750 C 372.081 501.040, 374.471 499.985, 377 496.500 C 378.375 494.605, 380.063 493.043, 380.750 493.028 C 381.438 493.012, 382 492.620, 382 492.155 C 382 490.821, 395.359 478.002, 396.750 478.001 C 397.438 478.001, 398 477.561, 398 477.024 C 398 475.950, 403.903 470.328, 406.850 468.596 C 414.584 464.050, 423 457.068, 423 455.199 C 423 453.348, 406.573 453.984, 403.575 455.951 M 158.292 482.217 C 157.737 482.923, 156.578 485.621, 155.715 488.214 C 152.270 498.565, 137.370 514.828, 127.513 518.995 C 122.473 521.125, 120.079 524, 123.345 524 C 125.799 524, 137.273 532.103, 142.721 537.683 C 149.257 544.377, 152.868 549.891, 155.046 556.500 C 156.992 562.404, 159.907 563.695, 161.819 559.499 C 162.468 558.073, 163 556.359, 163 555.690 C 163 551.006, 179.031 533.556, 188.768 527.641 C 192.196 525.559, 195 523.439, 195 522.930 C 195 522.422, 193.660 521.442, 192.021 520.753 C 185.239 517.900, 170.874 503.263, 166.257 494.500 C 165.098 492.300, 163.553 488.507, 162.825 486.072 C 161.419 481.372, 159.942 480.116, 158.292 482.217 M 620.685 484.106 C 619.137 484.521, 615.461 486.805, 612.517 489.181 C 609.573 491.556, 604.898 495.075, 602.129 497 C 599.359 498.925, 597.073 500.863, 597.047 501.306 C 597.021 501.749, 594.787 504.847, 592.083 508.190 C 589.378 511.532, 587.374 514.810, 587.628 515.473 C 587.883 516.137, 587.419 517.238, 586.597 517.920 C 584.233 519.881, 582.591 525.802, 583.955 527.446 C 584.881 528.561, 585.866 528.036, 589.295 524.601 C 593.347 520.541, 605.005 510.654, 609.837 507.180 C 611.123 506.256, 613.199 504.488, 614.452 503.250 C 615.704 502.012, 617.185 501, 617.742 501 C 618.299 501, 619.303 500.340, 619.973 499.533 C 620.642 498.726, 624.088 496.445, 627.629 494.465 C 631.170 492.484, 634.611 489.995, 635.274 488.932 C 635.938 487.869, 637.246 487, 638.182 487 C 640.421 487, 641.605 484.992, 639.964 483.978 C 638.361 482.987, 624.506 483.079, 620.685 484.106 M 347.556 498.250 C 344.294 521.095, 344.045 523.264, 344.588 524.143 C 344.887 524.625, 344.615 530.256, 343.985 536.655 C 342.910 547.563, 342.959 548.453, 344.755 550.895 C 347.983 555.284, 348.262 558.582, 345.977 565.349 C 344.586 569.466, 343.984 573.399, 344.190 577.028 L 344.500 582.500 348.250 582.810 C 350.703 583.013, 352 583.619, 352 584.560 C 352 585.352, 352.502 586, 353.117 586 C 353.741 586, 354.003 586.882, 353.711 587.999 C 353.423 589.098, 353.596 590.250, 354.094 590.558 C 354.592 590.866, 355 594.614, 355 598.886 L 355 606.654 358.081 606.201 C 359.776 605.953, 362.292 606.353, 363.672 607.092 C 366.873 608.805, 370.148 615.195, 370.407 620.232 C 370.634 624.652, 372.453 626.363, 375.301 624.839 C 378.529 623.111, 383.712 624.756, 386.481 628.386 C 388.420 630.929, 389 632.875, 389 636.844 C 389 641.189, 389.290 642, 390.845 642 C 391.860 642, 393.505 641.100, 394.500 640 C 396.541 637.745, 399.233 637.488, 403.872 639.105 C 407.733 640.451, 409 642.619, 409 647.875 C 409 652.893, 410.453 653.863, 413.574 650.930 C 415.285 649.323, 416 647.573, 416 644.991 C 416 641.453, 424.211 623.685, 427.585 619.921 C 428.363 619.053, 429.031 617.928, 429.068 617.421 C 429.106 616.915, 432.728 613.350, 437.118 609.500 C 443.967 603.493, 446.316 602.092, 453.676 599.625 C 459.726 597.596, 462.397 596.197, 462.743 594.875 C 463.384 592.423, 468.716 592.356, 472.882 594.747 C 475.794 596.418, 476.077 596.414, 479.378 594.636 C 481.277 593.613, 483.287 593.059, 483.846 593.405 C 484.405 593.750, 485.144 593.575, 485.490 593.016 C 486.200 591.868, 498.277 591.610, 499.387 592.720 C 499.783 593.116, 501.642 593.308, 503.517 593.147 C 506.908 592.855, 513.717 596.545, 516.930 600.416 C 518.693 602.540, 521.277 602.411, 525.226 600.004 C 527.908 598.368, 530.271 598.007, 538.300 598.004 C 548.778 598, 550.459 598.516, 559 604.361 C 561.475 606.054, 563.543 607.454, 563.596 607.470 C 563.649 607.487, 564.437 606.882, 565.346 606.128 C 566.256 605.373, 567 605.170, 567 605.677 C 567 606.184, 568.462 606.439, 570.250 606.245 C 572.937 605.953, 574.573 606.767, 579.692 610.944 C 583.098 613.723, 586.698 615.926, 587.692 615.840 C 593.772 615.312, 595.616 616.112, 601.316 621.750 C 617.706 637.963, 619.609 640.490, 620.524 647.269 C 620.912 650.146, 621.715 653.400, 622.307 654.500 C 622.899 655.600, 623.459 659.133, 623.552 662.351 C 623.694 667.277, 624.123 668.542, 626.266 670.351 C 627.666 671.533, 629.362 673.591, 630.034 674.924 L 631.256 677.347 636.225 672.055 C 640.977 666.995, 641.374 666.787, 645.291 667.312 C 648.863 667.791, 652.949 670.866, 652.817 672.976 C 652.729 674.370, 654.327 678, 655.028 678 C 655.954 678, 661 672.190, 661 671.124 C 661 669.557, 667.891 667.871, 669.901 668.947 C 672.925 670.565, 673.521 670.299, 676.500 666 C 678.025 663.800, 679.825 662, 680.501 662 C 681.177 662, 682.896 661.083, 684.320 659.963 C 687.144 657.742, 688.795 658.182, 693.834 662.500 L 696.168 664.500 698.584 661.694 C 699.913 660.151, 701.018 658.351, 701.039 657.694 C 701.100 655.821, 709.647 650, 712.336 650 C 713.666 650, 715.315 650.675, 716 651.500 C 719.117 655.256, 723.168 651.959, 724.459 644.614 C 725.770 637.151, 732.840 630.519, 739.497 630.507 C 741.695 630.503, 743.522 630.050, 743.558 629.500 C 743.593 628.950, 744.331 626.879, 745.198 624.898 C 746.065 622.917, 747.078 619.501, 747.448 617.306 C 748.259 612.507, 754.360 605.599, 757.145 606.328 C 759.804 607.023, 760.743 605.271, 763.472 594.513 C 765.988 584.595, 768.357 579.484, 769.975 580.484 C 770.463 580.786, 771.144 580.575, 771.490 580.016 C 771.835 579.457, 773.216 579, 774.559 579 C 777.700 579, 777.676 576.983, 774.500 574 C 771.507 571.189, 771.205 566.150, 773.500 557.339 C 776.366 546.336, 775.463 543, 769.618 543 C 768.398 543, 766.925 542.525, 766.344 541.944 C 765.337 540.937, 751.485 537.485, 743.923 536.357 C 739.510 535.698, 737.794 537.859, 736.047 546.273 C 735.397 549.404, 734.418 552.242, 733.871 552.580 C 732.930 553.161, 731.319 556.572, 731.172 558.294 C 731.135 558.730, 729.956 560.452, 728.552 562.121 C 727.148 563.789, 726 565.764, 726 566.511 C 726 568.662, 714.952 581.993, 708.181 588.013 C 700.395 594.935, 685.131 602.952, 676.750 604.521 C 674.688 604.907, 673 605.671, 673 606.218 C 673 606.766, 672.354 606.966, 671.565 606.663 C 670.775 606.360, 669.950 606.650, 669.731 607.306 C 669.443 608.170, 664.524 608.500, 651.917 608.500 C 635.913 608.500, 634.119 608.317, 629.805 606.250 C 627.223 605.013, 624.298 604.002, 623.305 604.005 C 620.544 604.012, 606.806 598.866, 604.115 596.816 C 602.803 595.817, 601.171 595, 600.488 595 C 599.804 595, 598.627 594.252, 597.872 593.338 C 597.118 592.424, 595.263 590.921, 593.751 589.999 C 592.239 589.077, 589.314 586.742, 587.251 584.809 C 583.846 581.620, 581.587 579.004, 575.441 571.136 C 571.928 566.638, 568.781 560.694, 567.427 556 C 566.714 553.525, 565.388 549.475, 564.481 547 C 563.132 543.320, 562.890 539.371, 563.150 525.317 C 563.325 515.867, 563.250 507.933, 562.984 507.685 C 562.350 507.097, 552.572 502.685, 552.258 502.846 C 552.126 502.914, 550.101 501.915, 547.758 500.626 C 542.297 497.621, 537.071 496.850, 527.584 497.652 C 518.002 498.462, 515.525 500.335, 514.558 507.500 C 513.754 513.460, 511.099 521, 509.805 521 C 509.297 521, 509.155 521.442, 509.489 521.982 C 509.823 522.523, 508.950 524.652, 507.548 526.714 C 506.147 528.777, 504.998 530.922, 504.996 531.482 C 504.982 534.810, 493.757 547.875, 483.476 556.531 C 476.579 562.338, 468 568.415, 468 567.494 C 468 567.147, 466.600 567.861, 464.889 569.079 C 461.996 571.139, 458.004 572.293, 444 575.119 C 432.967 577.344, 411.168 574.693, 400 569.768 C 397.525 568.676, 395.275 567.767, 395 567.746 C 394.725 567.726, 392.925 566.746, 391 565.569 C 389.075 564.392, 386.375 562.853, 385 562.148 C 378.239 558.682, 375.994 556.969, 369.730 550.496 C 363.237 543.786, 361.522 540.972, 353.579 523.986 C 351.139 518.769, 351 517.594, 351 502.236 C 351 493.306, 350.619 486, 350.153 486 C 349.687 486, 348.519 491.512, 347.556 498.250 M 1055.851 524.264 C 1053.128 525.344, 1050 532.443, 1050 537.543 C 1050 541.113, 1045.275 557.931, 1043.519 560.611 C 1042.658 561.925, 1042.243 563, 1042.596 563 C 1043.539 563, 1038.315 569.856, 1033.641 574.750 C 1031.410 577.087, 1029.218 579, 1028.770 579 C 1028.323 579, 1026.279 580.077, 1024.229 581.393 C 1022.146 582.730, 1017.410 584.311, 1013.500 584.976 C 1001.589 587.001, 996.287 588.819, 994.066 591.644 C 990.854 595.727, 991.390 599.535, 995.814 604.048 C 999.119 607.420, 1000.420 608.031, 1005.564 608.628 C 1011.014 609.260, 1017.497 612.003, 1024.706 616.727 C 1027.451 618.526, 1033 623.841, 1033 624.673 C 1033 624.958, 1033.912 626.471, 1035.026 628.036 C 1036.140 629.601, 1037.943 634.395, 1039.032 638.690 C 1040.122 642.986, 1041.288 647.175, 1041.624 648 C 1041.960 648.825, 1042.161 651.975, 1042.071 655 C 1041.902 660.630, 1043.762 665.741, 1047.876 670.950 C 1050.916 674.801, 1056.132 674.335, 1060.659 669.808 C 1063.753 666.714, 1064.438 665.141, 1065.599 658.466 C 1066.340 654.204, 1067.573 649.993, 1068.339 649.109 C 1069.105 648.224, 1070.047 646.150, 1070.433 644.500 C 1072.164 637.100, 1080.752 623, 1083.527 623 C 1084.275 623, 1085.587 622, 1086.443 620.777 C 1087.299 619.555, 1088 618.912, 1088 619.349 C 1088 619.786, 1088.707 619.436, 1089.571 618.571 C 1090.436 617.707, 1091.808 617, 1092.621 617 C 1093.434 617, 1095.401 616.327, 1096.991 615.505 C 1098.581 614.682, 1103.112 613.551, 1107.059 612.992 C 1111.006 612.432, 1115.550 611.197, 1117.157 610.248 C 1119.996 608.571, 1120.070 608.327, 1119.789 601.511 L 1119.500 594.500 1115.048 592.364 C 1112.599 591.189, 1108.099 589.678, 1105.048 589.007 C 1101.997 588.335, 1098.825 587.212, 1098 586.511 C 1097.175 585.810, 1095.375 584.899, 1094 584.486 C 1089.141 583.028, 1081.165 573.241, 1078.121 565 C 1075.690 558.420, 1073.006 545.867, 1072.990 541 C 1072.966 533.890, 1071.716 529.841, 1068.488 526.418 C 1065.033 522.755, 1061.270 522.114, 1055.851 524.264 M 829.500 548.865 C 821.151 551.052, 808.916 562.565, 801.692 575.031 C 800.248 577.523, 797.702 580.870, 796.033 582.468 C 792.664 585.696, 792.282 587.669, 794.468 590.559 C 796.847 593.704, 796.340 600.290, 793.301 605.697 C 791.080 609.650, 790.483 612.270, 789.928 620.500 C 789.237 630.737, 786.634 641.338, 784.050 644.444 C 783.253 645.403, 782.600 647.329, 782.600 648.724 C 782.600 651.225, 784.102 652.396, 792 656.055 C 793.375 656.692, 795.101 657.506, 795.836 657.862 C 798.203 659.012, 820.863 657.185, 823.776 655.609 C 825.274 654.799, 829.200 652.936, 832.500 651.470 C 835.800 650.004, 839.625 647.750, 841 646.462 C 842.375 645.173, 845.545 642.321, 848.044 640.122 C 850.543 637.924, 854.308 633.184, 856.411 629.588 C 858.513 625.993, 860.856 622.534, 861.617 621.903 C 862.378 621.272, 863 620.277, 863 619.693 C 863 619.109, 863.880 616.802, 864.957 614.566 C 866.838 610.656, 867.553 607.408, 870.150 590.990 C 871.168 584.548, 871.103 582.700, 869.693 577.990 C 868.789 574.971, 867.580 570.700, 867.007 568.500 C 865.648 563.290, 861.652 557.669, 855.781 552.710 C 851.112 548.768, 850.961 548.721, 841.781 548.402 C 836.676 548.225, 831.150 548.433, 829.500 548.865 M 1057.129 575.059 C 1055.601 579.444, 1039.958 594.631, 1036.097 595.479 C 1031.332 596.525, 1032.106 599.300, 1038.311 603.419 C 1044.460 607.500, 1051.513 616.479, 1053.048 622.178 C 1054.500 627.572, 1057.686 627.195, 1060.521 621.294 C 1062.816 616.516, 1067.728 611, 1069.687 611 C 1070.409 611, 1071 610.325, 1071 609.500 C 1071 608.675, 1071.675 608, 1072.500 608 C 1073.325 608, 1074 607.523, 1074 606.941 C 1074 606.359, 1074.403 606.131, 1074.895 606.435 C 1075.388 606.740, 1076.031 606.361, 1076.325 605.595 C 1076.619 604.828, 1078.466 603.671, 1080.430 603.023 C 1082.393 602.375, 1084 601.470, 1084 601.012 C 1084 600.553, 1081.975 599.198, 1079.501 598 C 1074.618 595.637, 1065 585.636, 1065 582.923 C 1065 582, 1064.372 580.724, 1063.605 580.087 C 1062.837 579.450, 1061.917 577.370, 1061.559 575.464 C 1060.754 571.172, 1058.554 570.971, 1057.129 575.059 M 464.250 631.220 C 463.012 631.817, 462 632.687, 462 633.153 C 462 633.619, 459.555 634, 456.567 634 C 451.804 634, 451.050 634.277, 450.448 636.250 C 450.070 637.487, 448.589 640.975, 447.157 644 C 445.725 647.025, 444.502 649.725, 444.440 650 C 444.378 650.275, 444.048 651.175, 443.706 652 C 443.365 652.825, 442.649 655.975, 442.116 659 C 441.311 663.566, 441.427 664.925, 442.797 667 C 443.705 668.375, 444.460 669.800, 444.474 670.167 C 444.488 670.533, 444.837 671.171, 445.250 671.583 C 445.663 671.996, 446.007 673.946, 446.015 675.917 C 446.033 680.161, 446.564 681.017, 450.406 683 C 452.281 683.968, 453.792 685.893, 454.664 688.425 C 456.390 693.433, 456.245 693.320, 461.729 693.959 C 465.921 694.447, 466.576 694.889, 468.459 698.500 C 470.683 702.765, 470.016 702.566, 480 701.944 C 482.988 701.758, 486 699.316, 486 697.080 C 486 694.532, 489.924 687.809, 493.546 684.153 C 497.845 679.812, 502.219 679.540, 507.158 683.307 C 510.801 686.085, 516.653 686.947, 518.607 684.993 C 520.060 683.540, 526.139 686.781, 529.502 690.801 C 532.028 693.821, 532.262 694.799, 532.246 702.301 C 532.236 706.810, 532.682 711.063, 533.237 711.750 C 534.636 713.485, 540.491 713.318, 542 711.500 C 543.739 709.405, 545.433 709.617, 550 712.500 C 555.080 715.707, 556.193 715.647, 560.408 711.947 C 564.692 708.185, 568.378 707.063, 574.266 707.727 C 578.424 708.195, 578.947 708, 580.592 705.369 C 581.579 703.791, 585.156 699.575, 588.540 696 L 594.695 689.500 595.403 679.808 C 596.192 669.020, 595.598 664.176, 592.853 659.015 C 591.834 657.098, 591 655.016, 591 654.387 C 591 652.156, 588.210 650.992, 582.141 650.691 C 576.144 650.394, 575.874 650.258, 571.246 645.186 C 566.072 639.516, 565.019 639.209, 559.016 641.610 C 554.004 643.616, 549.152 642.840, 545.034 639.376 L 542.010 636.831 538.441 639.036 C 535.617 640.782, 533.840 641.143, 529.931 640.767 C 525.579 640.349, 524.493 639.739, 520.815 635.646 C 516.039 630.331, 513.081 629.731, 509.691 633.388 C 504.567 638.918, 493.063 638.926, 490.963 633.402 C 490.460 632.081, 489.476 630.948, 488.775 630.885 C 486.068 630.640, 483.470 631.258, 481.552 632.601 C 478.803 634.527, 476.039 634.344, 472.500 632 C 469.153 629.783, 467.545 629.631, 464.250 631.220 M 470.500 638.334 C 466.779 640.355, 466.478 640.844, 466.191 645.364 C 465.626 654.238, 471.703 660.458, 489 668.711 C 509.836 678.653, 537.279 679.642, 552.374 670.996 C 554.093 670.011, 556.619 668.870, 557.987 668.460 C 564.875 666.396, 571 660.012, 571 654.896 C 571 652.735, 563.717 645, 561.683 645 C 560.705 645, 551.907 648.908, 546.849 651.590 C 542.920 653.674, 529.483 656.002, 521.500 655.983 C 508.029 655.950, 490.498 649.653, 486.900 643.554 C 485.746 641.599, 484.284 639.990, 483.651 639.978 C 483.018 639.966, 481.375 639.076, 480 638 C 476.882 635.561, 475.517 635.609, 470.500 638.334 M 949.435 707.558 C 946.337 709.087, 942.984 715.861, 942.995 720.568 C 943.013 728.012, 935.378 741.202, 929.203 744.395 C 927.669 745.188, 923.509 746.342, 919.958 746.960 C 916.406 747.578, 912.825 748.363, 912 748.705 C 911.175 749.047, 910.164 749.366, 909.753 749.414 C 909.343 749.461, 907.611 750.818, 905.904 752.428 C 903.122 755.054, 902.868 755.773, 903.445 759.379 C 904.425 765.513, 905.296 766.148, 917.291 769.474 C 926.456 772.015, 934.789 781.030, 936.525 790.280 C 936.909 792.326, 937.513 794, 937.868 794 C 938.224 794, 938.353 796.033, 938.155 798.517 C 937.747 803.648, 940.175 809.766, 944.437 814.348 C 947.796 817.960, 951.210 817.388, 955.601 812.478 C 957.984 809.814, 958.961 807.451, 959.818 802.277 C 960.888 795.824, 965.374 785.572, 968.852 781.634 C 972.591 777.399, 979.151 773.874, 985.254 772.820 C 993.537 771.389, 996.732 769.630, 998.755 765.387 C 1000.261 762.229, 1000.281 761.591, 998.942 759.205 C 996.754 755.307, 991.665 752.279, 985.989 751.498 C 976.368 750.175, 968.508 741.937, 966.430 731 C 966.064 729.075, 965.511 727.074, 965.202 726.553 C 964.892 726.032, 964.751 723.485, 964.889 720.893 C 965.280 713.510, 959.554 705.910, 953.685 706.023 C 953.033 706.035, 951.121 706.726, 949.435 707.558 M 948.853 751.858 C 946.904 754.136, 944.799 756, 944.177 756 C 943.555 756, 942.267 757.190, 941.314 758.644 C 939.606 761.250, 939.625 761.324, 942.659 763.894 C 944.352 765.327, 946.482 767.962, 947.394 769.750 C 949.595 774.065, 953.319 774.217, 955.459 770.079 C 956.290 768.472, 958.327 766.192, 959.985 765.011 C 963.912 762.215, 963.788 760.715, 959.250 756.132 C 957.188 754.049, 954.802 751.303, 953.949 750.030 L 952.399 747.716 948.853 751.858 M 658.500 771.522 C 647.838 776.475, 644.119 778, 642.702 778 C 641.820 778, 638.584 778.655, 635.513 779.455 C 632.441 780.255, 629.284 780.663, 628.498 780.361 C 627.223 779.872, 624.496 780.528, 609.500 784.937 C 607.300 785.584, 596.725 786.370, 586 786.684 C 575.249 786.999, 565.928 787.711, 565.226 788.270 C 564.525 788.828, 563.666 789, 563.318 788.651 C 562.969 788.303, 562.072 788.525, 561.325 789.145 C 559.725 790.474, 542.060 790.773, 540.011 789.507 C 539.251 789.037, 536.212 788.765, 533.257 788.901 C 530.051 789.050, 527.273 788.642, 526.366 787.889 C 525.428 787.110, 519.801 786.350, 511.673 785.904 C 504.400 785.505, 496.301 784.469, 493.591 783.591 C 490.891 782.716, 487.233 782, 485.462 782 C 483.691 782, 479.825 780.931, 476.871 779.624 C 469.083 776.179, 467.635 775.663, 466.325 775.869 C 465.679 775.970, 464.865 775.591, 464.516 775.027 C 464.167 774.462, 462.839 774, 461.563 774 C 460.288 774, 458.685 773.325, 458 772.500 C 456.493 770.684, 452.992 770.508, 453.020 772.250 C 453.116 778.325, 455.431 787.500, 458.213 792.835 C 460.021 796.302, 462.262 800.621, 463.194 802.434 C 464.126 804.246, 467.951 808.833, 471.694 812.628 C 481.664 822.734, 498.075 830.486, 514.692 832.938 C 523.659 834.262, 547.185 834.285, 556.500 832.979 C 565.709 831.688, 580.109 829.006, 582 828.230 C 582.825 827.891, 583.950 827.547, 584.500 827.465 C 585.050 827.383, 587.679 826.343, 590.343 825.154 C 593.006 823.964, 596.312 822.709, 597.689 822.363 C 601.100 821.507, 611.605 816.372, 616.549 813.144 C 618.776 811.690, 622.757 809.375, 625.396 808 C 628.034 806.625, 631.642 804.150, 633.412 802.500 C 635.183 800.850, 638.177 798.307, 640.066 796.848 C 647.127 791.396, 661 776.784, 661 774.798 C 661 774.171, 661.745 772.835, 662.655 771.829 C 664.706 769.563, 662.990 769.436, 658.500 771.522 M 327.500 809.469 C 325.850 810.821, 325.042 811.944, 325.705 811.964 C 326.367 811.984, 328.034 810.875, 329.409 809.500 C 332.617 806.292, 331.400 806.272, 327.500 809.469 M 298.052 836.364 C 297.558 837.664, 296.444 838.999, 295.577 839.332 C 293.877 839.984, 293.374 843, 294.965 843 C 295.495 843, 296.466 841.987, 297.122 840.750 C 297.777 839.513, 299.135 837.779, 300.139 836.898 C 301.142 836.018, 301.672 835.005, 301.315 834.648 C 300.081 833.414, 298.947 834.010, 298.052 836.364 M 331.667 916.667 C 330.629 917.704, 330.883 921, 332 921 C 332.550 921, 333 919.875, 333 918.500 C 333 915.882, 332.769 915.564, 331.667 916.667 M 330.702 927.031 C 330.391 928.221, 330.483 930.132, 330.907 931.278 C 331.584 933.108, 331.760 932.952, 332.351 929.993 C 333.100 926.248, 331.608 923.568, 330.702 927.031 M 327.250 942.138 C 325.780 943.622, 325.548 953, 326.981 953 C 328.336 953, 329.202 949.041, 328.820 944.593 C 328.563 941.613, 328.252 941.127, 327.250 942.138 M 717.667 954.667 C 716.629 955.704, 716.883 959, 718 959 C 718.550 959, 719 957.875, 719 956.500 C 719 953.882, 718.769 953.564, 717.667 954.667 M 717.500 969.497 C 717.500 974.171, 717.837 977.997, 718.250 977.998 C 718.663 977.999, 719 978.675, 719 979.500 C 719 980.325, 719.469 981, 720.042 981 C 721.023 981, 720.605 969.058, 719.421 963.250 C 718.430 958.390, 717.500 961.413, 717.500 969.497 M 229.400 976.400 C 229.034 977.354, 229.229 978.629, 229.834 979.234 C 230.634 980.034, 231.116 979.861, 231.600 978.600 C 231.966 977.646, 231.771 976.371, 231.166 975.766 C 230.366 974.966, 229.884 975.139, 229.400 976.400 M 722.030 998.007 C 722.014 1003.785, 722.476 1010.085, 723.058 1012.007 C 723.639 1013.928, 724.738 1021.497, 725.498 1028.826 C 726.930 1042.613, 727.914 1045.306, 731.334 1044.798 C 734.297 1044.358, 734.426 1042.487, 731.675 1039.840 C 729.568 1037.813, 729.164 1036.297, 728.653 1028.500 C 728.328 1023.550, 727.439 1017.475, 726.676 1015 C 725.914 1012.525, 724.986 1006.048, 724.615 1000.607 C 723.651 986.486, 722.068 984.894, 722.030 998.007 M 892.711 991.622 C 891.647 992.686, 891.854 996.792, 893.007 997.504 C 893.561 997.847, 894.252 997.506, 894.543 996.748 C 895.213 995.003, 893.664 990.669, 892.711 991.622 M 894.653 1013.831 C 892.717 1015.970, 893.306 1016.994, 896.058 1016.275 C 897.126 1015.995, 898 1014.919, 898 1013.883 C 898 1011.502, 896.778 1011.483, 894.653 1013.831" stroke="none" fill="#171916" fill-rule="evenodd"/>
</svg>