<svg role="img" aria-labelledby="artwork-title" shape-rendering="geometricPrecision" xmlns="http://www.w3.org/2000/svg" width="1200" height="1200" viewBox="0 0 1200 1200" version="1.1">
	<title id="artwork-title">Mascot peeking from behind a card</title>
	<path d="M 706 81.525 C 706 83.551, 701.935 85, 696.251 85 C 693.710 85, 689.802 85.855, 687.566 86.901 C 685.330 87.946, 681.848 89.319, 679.830 89.952 C 677.811 90.585, 675.597 91.780, 674.910 92.609 C 674.222 93.438, 672.273 94.705, 670.580 95.425 C 665.839 97.441, 654.852 108.109, 650.253 115.161 C 647.979 118.648, 645.252 122.625, 644.192 124 C 643.133 125.375, 641.932 128.023, 641.524 129.884 C 641.116 131.745, 639.941 135.120, 638.913 137.384 C 637.653 140.158, 637.037 143.842, 637.022 148.682 C 636.998 156.460, 637.746 157.556, 645.288 160.794 C 647.675 161.819, 647.921 162.279, 647.002 163.996 C 644.951 167.828, 639.473 166.354, 632.750 160.160 C 631.237 158.766, 630 157.990, 630 158.435 C 630 158.881, 629.299 158.663, 628.442 157.952 C 626.150 156.049, 597.951 155.981, 595.662 157.872 C 594.748 158.627, 594 158.895, 594 158.467 C 594 158.040, 593.212 158.379, 592.250 159.222 C 591.288 160.064, 588.475 161.723, 586 162.909 C 577.693 166.887, 576.270 167.965, 571.980 173.526 C 569.630 176.572, 567.210 179.388, 566.603 179.782 C 564.713 181.012, 560.081 192.267, 559.409 197.262 C 558.674 202.734, 557.574 203.941, 556.001 201.001 C 554.613 198.409, 556.392 184.353, 558.398 182.061 C 559.149 181.202, 560.107 179.375, 560.528 178 C 561.832 173.734, 572.992 160.022, 575.173 160.005 C 575.544 160.002, 577.158 158.897, 578.761 157.548 C 580.363 156.199, 585.852 153.661, 590.958 151.907 C 599.537 148.960, 600.903 148.765, 608.942 149.335 C 613.728 149.675, 619.273 150.634, 621.266 151.466 C 625.542 153.253, 627.382 152.761, 631.750 148.659 C 636.471 144.226, 636.197 140.569, 630.750 135.324 C 626.041 130.789, 623.607 129.840, 610.563 127.448 C 601.648 125.813, 601.597 125.815, 590.063 128.469 C 583.703 129.932, 577.825 131.563, 577 132.093 C 576.175 132.623, 574.223 133.832, 572.663 134.779 C 556.649 144.496, 548.527 152.502, 542.679 164.334 C 536.987 175.852, 534.774 184.152, 534.853 193.684 C 534.898 199.117, 534.508 202.192, 533.711 202.696 C 533.045 203.117, 529.575 203.542, 526 203.641 C 521.128 203.775, 517.824 204.589, 512.809 206.893 C 509.129 208.583, 505.754 210.546, 505.309 211.254 C 504.864 211.963, 503.311 213.063, 501.857 213.701 C 499.109 214.906, 489.144 226.175, 485.272 232.458 C 483.130 235.933, 481.597 240.567, 478.313 253.500 C 476.355 261.210, 477.167 275.778, 479.843 280.950 C 480.854 282.903, 482.005 285.814, 482.402 287.421 C 482.799 289.028, 483.996 291.451, 485.062 292.806 C 488.144 296.724, 487.488 299.079, 482 303.805 C 479.250 306.173, 477 308.714, 477 309.452 C 477 310.189, 475.409 312.189, 473.465 313.896 L 469.930 317 455.215 317.023 C 427.484 317.067, 350.505 318.949, 336 319.937 C 321.177 320.946, 302.664 321.478, 244.500 322.565 C 222.147 322.982, 209.725 323.616, 206 324.530 C 202.221 325.457, 189.389 326.081, 165 326.523 L 129.500 327.167 121.250 331.093 C 114.996 334.070, 113 335.501, 113 337.010 C 113 338.105, 112.550 339, 112 339 C 111.450 339, 111 339.900, 111 341 C 111 342.100, 111.419 343, 111.930 343 C 112.442 343, 113.005 344.012, 113.180 345.250 C 113.395 346.759, 114.983 348.250, 118 349.775 C 121.768 351.680, 123.558 351.965, 129 351.527 C 132.575 351.240, 156.200 350.317, 181.500 349.476 C 206.800 348.635, 229.975 347.527, 233 347.012 C 236.025 346.498, 262.800 345.601, 292.500 345.019 C 348.506 343.921, 390.656 342.330, 392.407 341.249 C 392.963 340.905, 395.303 340.739, 397.607 340.881 C 399.911 341.023, 402.094 340.657, 402.457 340.069 C 403.371 338.591, 416.301 338.701, 417.800 340.200 C 418.733 341.133, 419.267 341.133, 420.200 340.200 C 421.806 338.594, 487.553 338.467, 488.542 340.068 C 488.905 340.656, 489.799 340.907, 490.528 340.628 C 491.257 340.348, 492.390 340.765, 493.046 341.555 C 493.701 342.345, 496.096 343.536, 498.369 344.202 C 504.157 345.899, 511.695 350.889, 518.069 357.245 C 531.521 370.656, 533.234 376.013, 537.502 418 C 538.312 425.975, 538.981 437.986, 538.988 444.691 C 538.994 451.396, 539.375 457.114, 539.833 457.397 C 540.292 457.680, 540.458 459.332, 540.204 461.067 C 539.949 462.802, 540.210 464.512, 540.783 464.866 C 541.385 465.238, 542.312 473.974, 542.973 485.505 C 543.603 496.502, 544.987 516.750, 546.049 530.500 C 547.111 544.250, 548.439 565.850, 549.001 578.500 C 549.562 591.150, 550.457 604.425, 550.991 608 C 551.524 611.575, 551.969 616.563, 551.980 619.083 C 551.991 621.604, 552.277 623.943, 552.615 624.281 C 552.953 624.619, 553.154 630.357, 553.062 637.032 C 552.970 643.707, 553.311 649.693, 553.819 650.334 C 554.328 650.975, 555.040 657.350, 555.403 664.500 C 555.765 671.650, 556.494 680.425, 557.022 684 C 557.551 687.575, 558.658 705.575, 559.482 724 C 560.307 742.425, 561.432 758.831, 561.983 760.458 C 563.354 764.511, 562.315 765.242, 553.911 766.140 C 550.002 766.557, 545.722 767.607, 544.401 768.473 C 543.081 769.338, 542 769.847, 542 769.603 C 542 769.360, 538.838 770.700, 534.974 772.580 C 531.109 774.461, 527.372 776, 526.669 776 C 521.822 776, 506.712 790.114, 501.409 799.596 C 497.219 807.088, 495.718 817.520, 497.081 829.675 C 497.905 837.018, 498.550 838.600, 502.220 842.289 C 504.430 844.510, 504.549 850.308, 502.429 852.429 C 501.564 853.293, 501.200 854, 501.620 854 C 502.039 854, 501.585 854.583, 500.610 855.296 C 499.618 856.021, 498.175 859.437, 497.336 863.046 C 493.290 880.437, 494.886 891.317, 503.040 901.936 C 508.629 909.214, 508.939 911.027, 505.946 918.901 C 502.290 928.519, 505.631 943.341, 513.541 952.600 C 523.350 964.081, 535.194 969.938, 548.691 969.983 C 554.736 970.003, 555.227 970.535, 556.091 978 C 556.971 985.608, 560.440 998.363, 562.385 1001.139 C 563.273 1002.407, 564 1004.227, 564 1005.182 C 564 1006.137, 565.037 1007.950, 566.303 1009.210 C 569.391 1012.280, 575.412 1019.976, 576.845 1022.684 C 577.480 1023.886, 578 1028.648, 578 1033.268 C 578 1037.887, 578.266 1041.933, 578.591 1042.258 C 578.916 1042.583, 579.122 1050.308, 579.049 1059.425 C 578.961 1070.341, 579.271 1076, 579.958 1076 C 580.602 1076, 581 1079.385, 581 1084.874 C 581 1090.206, 581.599 1095.446, 582.500 1098 C 583.401 1100.554, 584 1105.794, 584 1111.126 L 584 1120 625 1120 C 647.550 1120, 666 1119.644, 666 1119.209 C 666 1118.774, 663.731 1115.511, 660.959 1111.959 C 658.186 1108.407, 654.991 1104.037, 653.860 1102.250 C 652.728 1100.463, 651.441 1099, 650.999 1099 C 650.557 1099, 649.749 1097.717, 649.202 1096.150 C 648.656 1094.582, 647.149 1092.142, 645.854 1090.727 C 641.805 1086.302, 639 1082.239, 639 1080.799 C 639 1080.037, 636.578 1075.608, 633.617 1070.957 C 630.656 1066.306, 627.330 1061.080, 626.225 1059.344 C 625.121 1057.609, 623.684 1054.571, 623.031 1052.594 C 622.379 1050.617, 621.503 1049, 621.085 1049 C 620.667 1049, 619.125 1046.551, 617.660 1043.557 C 616.194 1040.564, 614.546 1037.837, 613.997 1037.498 C 612.646 1036.663, 612.727 1028.673, 614.101 1027.299 C 615.967 1025.433, 614.094 1020.167, 610.668 1017.644 C 608.926 1016.361, 604.895 1014.282, 601.710 1013.024 C 594.653 1010.234, 583.585 998.888, 581.932 992.746 C 581.372 990.669, 580.076 987.514, 579.051 985.735 C 576.670 981.603, 575.681 972.061, 576.902 965 C 579.406 950.519, 569.220 942.767, 552.428 946.374 C 547.631 947.404, 545.503 947.426, 542.303 946.481 C 537.550 945.078, 531.255 940.352, 530.346 937.504 C 529.996 936.406, 529.055 935.029, 528.255 934.445 C 527.455 933.860, 526.421 931.383, 525.956 928.941 C 525.159 924.752, 525.350 924.150, 529.306 918.346 C 531.613 914.962, 533.790 912.371, 534.145 912.590 C 534.500 912.809, 535.028 912.369, 535.319 911.611 C 537.044 907.115, 562.612 904.140, 570.654 907.500 C 575.878 909.682, 579.669 909.354, 583.567 906.381 C 586.547 904.108, 587 903.191, 587 899.427 C 587 895.445, 586.622 894.803, 582.356 891.546 C 579.802 889.596, 576.877 888, 575.856 888 C 574.835 888, 574 887.523, 574 886.941 C 574 886.359, 573.588 886.136, 573.085 886.447 C 572.582 886.758, 571.982 886.447, 571.752 885.756 C 571.164 883.991, 544.939 883.978, 542.813 885.741 C 541.990 886.424, 541.078 886.745, 540.788 886.455 C 540.498 886.165, 537.627 887.293, 534.408 888.963 C 531.189 890.634, 527.577 892, 526.383 892 C 523.518 892, 520.101 888.335, 517.895 882.896 C 515.557 877.134, 515.595 872.489, 518.022 867.141 C 519.110 864.743, 520 862.209, 520 861.509 C 520 858.872, 536.635 849.003, 541.083 849.001 C 541.954 849, 543.004 848.663, 543.417 848.250 C 543.829 847.838, 544.467 847.462, 544.833 847.416 C 545.200 847.370, 546.767 846.808, 548.315 846.166 C 552.393 844.477, 565.885 844.692, 569.354 846.501 C 570.924 847.320, 572.611 847.740, 573.104 847.436 C 573.597 847.131, 574 847.287, 574 847.782 C 574 848.277, 576.434 849.226, 579.409 849.892 C 583.860 850.888, 585.418 850.852, 588.206 849.687 C 591.905 848.142, 597 842.732, 597 840.350 C 597 838.238, 588.093 829.672, 584.498 828.325 C 575.742 825.045, 565.673 823.711, 554.125 824.300 C 542.026 824.917, 536.084 826.400, 531.183 830.023 C 523.964 835.360, 518.477 829.665, 519.373 817.767 C 520.061 808.648, 523.540 803.591, 532.798 798.254 C 544.204 791.677, 553.969 788.798, 564.500 788.906 C 584.911 789.115, 596.414 791.427, 607.186 797.484 C 611.453 799.884, 615.970 802.169, 617.222 802.561 C 620.230 803.502, 625.187 807.662, 626.746 810.552 C 627.431 811.823, 628.928 813.160, 630.071 813.523 C 631.215 813.886, 631.917 814.417, 631.631 814.703 C 631.345 814.988, 632.436 816.337, 634.055 817.700 C 635.675 819.063, 637 820.676, 637 821.285 C 637 822.296, 639.111 825.808, 644.225 833.302 C 646.206 836.205, 647.949 840.835, 653.149 857 C 654.829 862.225, 656.605 866.991, 657.094 867.592 C 657.583 868.193, 657.686 868.981, 657.323 869.344 C 656.960 869.706, 657.172 871.015, 657.793 872.252 C 659.554 875.755, 661.778 884.734, 663.042 893.441 C 663.676 897.809, 664.643 902.534, 665.191 903.941 C 665.738 905.348, 666.760 912.211, 667.462 919.190 C 668.642 930.927, 668.969 932.173, 671.823 935.777 C 673.520 937.919, 678.079 941.800, 681.954 944.400 C 685.829 947, 689 949.848, 689 950.730 C 689 951.612, 689.275 952.058, 689.611 951.722 C 689.947 951.386, 691.337 952.436, 692.700 954.055 C 694.063 955.675, 695.606 957, 696.130 957 C 697.146 957, 732.460 986.280, 737.500 991.301 C 739.150 992.945, 742.750 995.964, 745.500 998.010 C 748.250 1000.056, 752.300 1003.342, 754.500 1005.313 C 756.700 1007.284, 759.175 1009.495, 760 1010.227 C 760.825 1010.958, 762.737 1012.183, 764.250 1012.947 C 765.763 1013.712, 767 1014.925, 767 1015.643 C 767 1016.361, 768.327 1017.635, 769.948 1018.473 C 774.661 1020.910, 781.168 1025.554, 785.653 1029.680 C 791.534 1035.090, 805.748 1047.983, 810.601 1052.309 C 812.857 1054.319, 814.930 1055.736, 815.209 1055.458 C 815.487 1055.179, 816.284 1055.638, 816.980 1056.476 C 819.109 1059.042, 821.556 1058.205, 825.991 1053.394 C 829.873 1049.183, 830.196 1048.429, 829.763 1044.588 C 829.365 1041.056, 828.389 1039.536, 823.645 1035.048 C 820.540 1032.112, 817.983 1029.213, 817.961 1028.605 C 817.940 1027.997, 816.627 1026.600, 815.042 1025.500 C 813.458 1024.400, 807.400 1019.489, 801.581 1014.586 C 794.010 1008.208, 791 1005.042, 791 1003.458 C 791 999.715, 794.057 993.633, 797.314 990.896 C 799.904 988.720, 801.159 988.362, 804.956 988.719 C 807.455 988.954, 810.425 989.592, 811.555 990.138 C 812.686 990.683, 814.036 991.029, 814.555 990.906 C 815.075 990.783, 816.175 990.953, 817 991.283 C 817.825 991.613, 823.093 992.356, 828.708 992.933 C 834.322 993.510, 840.622 994.642, 842.708 995.448 C 844.793 996.254, 849.366 997.412, 852.868 998.022 C 856.371 998.632, 859.971 999.530, 860.868 1000.017 C 861.766 1000.504, 864.300 1001.641, 866.500 1002.543 C 868.700 1003.445, 872.349 1005.042, 874.610 1006.091 C 876.870 1007.141, 879.241 1008, 879.878 1008 C 880.516 1008, 883.568 1009.350, 886.660 1011 C 889.752 1012.650, 892.845 1014, 893.534 1014 C 894.223 1014, 895.052 1014.694, 895.378 1015.542 C 895.703 1016.390, 897.664 1017.853, 899.735 1018.792 C 907.866 1022.481, 929.650 1040.538, 937.247 1049.888 C 940.515 1053.909, 940.711 1057.183, 938 1062.500 C 936.900 1064.658, 936 1067.522, 936 1068.865 C 936 1070.208, 934.783 1073.825, 933.296 1076.904 C 931.809 1079.982, 930.534 1082.725, 930.462 1083 C 930.240 1083.856, 927.983 1088.381, 926.472 1091 C 925.679 1092.375, 925.023 1094.200, 925.015 1095.056 C 925.007 1095.911, 923.875 1098.136, 922.500 1100 C 921.125 1101.864, 920 1103.915, 920 1104.559 C 920 1105.203, 919.022 1106.973, 917.827 1108.492 C 915.515 1111.432, 912 1117.898, 912 1119.211 C 912 1119.645, 917.600 1120, 924.445 1120 L 936.891 1120 938.409 1117.250 C 940.517 1113.432, 943.003 1108.159, 943.121 1107.255 C 943.176 1106.840, 944.020 1105.375, 944.998 1104 C 945.976 1102.625, 947.460 1099.250, 948.296 1096.500 C 951.764 1085.090, 955.083 1079.994, 957.658 1082.131 C 958.352 1082.707, 959.050 1082.728, 959.387 1082.183 C 959.698 1081.680, 961.094 1081.486, 962.489 1081.753 C 964.589 1082.155, 966.115 1081.112, 971.338 1075.706 C 977.285 1069.550, 977.721 1068.771, 978.898 1062.185 C 979.584 1058.342, 981.013 1053.580, 982.073 1051.602 C 983.133 1049.625, 984 1047.162, 984 1046.129 C 984 1045.097, 984.710 1042.282, 985.577 1039.876 C 986.444 1037.469, 988.254 1030.100, 989.598 1023.500 C 993.226 1005.690, 994.419 1000.638, 995.327 999.227 C 995.777 998.528, 996.032 995.804, 995.892 993.174 C 995.753 990.545, 995.939 987.908, 996.306 987.313 C 1000.459 980.594, 1000.150 915.065, 995.954 912.472 C 995.477 912.177, 995.343 911.270, 995.656 910.455 C 995.968 909.641, 995.785 908.418, 995.249 907.737 C 994.713 907.057, 994.007 903.575, 993.681 900 C 993.354 896.425, 992.438 891.475, 991.644 889 C 990.850 886.525, 988.713 879.775, 986.896 874 C 985.078 868.225, 982.558 861.975, 981.296 860.110 C 980.033 858.246, 979 856.213, 979 855.593 C 979 854.972, 977.875 852.809, 976.500 850.785 C 975.125 848.762, 974 846.586, 974 845.951 C 974 843.885, 961.354 825.721, 953.764 816.884 C 946.721 808.685, 938.805 801.200, 926.191 790.814 C 923.061 788.236, 920.109 786.098, 919.632 786.064 C 919.155 786.029, 917.259 784.763, 915.419 783.250 C 908.700 777.727, 906.153 776, 904.727 776 C 903.925 776, 902.197 775.198, 900.885 774.217 C 892.866 768.223, 861.902 752.547, 849 747.951 C 841.442 745.258, 838.957 742.664, 842.676 741.349 C 848.035 739.455, 850.362 738.153, 861.675 730.716 C 865.621 728.122, 869.272 726, 869.788 726 C 871.583 726, 878.531 719.891, 883.088 714.306 C 885.840 710.934, 889.908 707.444, 893.249 705.591 C 900.068 701.808, 907 695.538, 907 693.154 C 907 692.183, 908.125 689.864, 909.500 688 C 910.875 686.136, 912 684.230, 912 683.764 C 912 681.875, 918.621 674.075, 920.255 674.039 C 921.220 674.018, 924.336 675.122, 927.178 676.493 C 930.021 677.865, 932.565 678.769, 932.831 678.502 C 933.098 678.235, 933.925 678.523, 934.669 679.140 C 936.571 680.719, 960.254 680.737, 960.780 679.159 C 960.995 678.515, 961.633 678.273, 962.197 678.622 C 962.762 678.971, 963.511 678.833, 963.862 678.316 C 964.213 677.798, 967.200 676.594, 970.500 675.639 C 987.433 670.740, 1002.744 659.093, 1016.273 640.817 C 1017.773 638.791, 1019 636.653, 1019 636.067 C 1019 635.480, 1019.902 634.098, 1021.005 632.995 C 1023.726 630.274, 1029.617 615.170, 1031.505 606.075 C 1032.353 601.991, 1033.536 598.059, 1034.135 597.337 C 1034.734 596.616, 1034.963 595.345, 1034.643 594.513 C 1034.324 593.681, 1034.499 593, 1035.031 593 C 1036.237 593, 1036.335 576.325, 1035.134 575.583 C 1034.658 575.289, 1034.486 573.909, 1034.752 572.518 C 1035.018 571.127, 1034.773 569.429, 1034.207 568.744 C 1033.642 568.060, 1032.440 564.575, 1031.536 561 C 1030.633 557.425, 1029.049 553.323, 1028.017 551.885 C 1026.984 550.447, 1025.467 547.661, 1024.646 545.695 L 1023.153 542.121 1026.826 539.398 C 1033.637 534.351, 1042.688 524.165, 1045.340 518.563 C 1046.789 515.504, 1048.356 513, 1048.823 513 C 1050.287 513, 1053 499.532, 1053 492.266 C 1053 488.444, 1052.328 483.109, 1051.506 480.409 L 1050.012 475.500 1053.256 472.720 C 1055.040 471.191, 1058.075 469.097, 1060 468.068 C 1065.879 464.924, 1081 448.436, 1081 445.170 C 1081 444.666, 1081.839 442.285, 1082.865 439.877 C 1084.665 435.654, 1086.143 432.040, 1086.497 431 C 1086.591 430.725, 1087.229 429.150, 1087.915 427.500 C 1089.748 423.089, 1089.029 397.941, 1087 395.498 C 1086.175 394.505, 1085.616 393.535, 1085.758 393.342 C 1086.509 392.323, 1077.306 375.594, 1074.863 373.538 C 1073.288 372.213, 1072 370.703, 1072 370.181 C 1072 369.660, 1071.120 369.003, 1070.046 368.722 C 1067.847 368.147, 1066.230 363.342, 1067.603 361.461 C 1072.995 354.075, 1076.298 348.348, 1078.538 342.500 C 1084.697 326.420, 1082.091 291.703, 1074.101 283.401 C 1072.935 282.190, 1071.321 279.620, 1070.516 277.692 C 1068.764 273.501, 1059.778 264, 1057.565 264 C 1056.704 264, 1056 263.399, 1056 262.663 C 1056 261.527, 1052.920 259.699, 1038.346 252.185 C 1033.400 249.635, 1031.038 248.907, 1025.511 248.229 L 1019.522 247.494 1019.494 229.497 C 1019.467 211.883, 1019.400 211.317, 1016.349 202.924 C 1011.241 188.874, 1009.521 186.152, 998.518 174.717 C 991.595 167.523, 984.294 162, 981.705 162 C 980.715 162, 978.912 160.930, 977.700 159.621 C 976.383 158.201, 972.878 156.541, 968.998 155.500 C 952.990 151.206, 944.245 150.961, 933.403 154.500 C 921.435 158.407, 921.095 158.297, 919.459 150 C 919.080 148.075, 918.259 145.868, 917.635 145.096 C 917.011 144.324, 916.572 143.424, 916.659 143.096 C 916.746 142.768, 916.142 140.925, 915.315 139 C 914.489 137.075, 913.189 133.782, 912.427 131.683 C 908.266 120.218, 886.651 99.226, 875.697 96.011 C 873.606 95.397, 871.021 94.021, 869.953 92.953 C 868.885 91.885, 866.092 90.581, 863.747 90.055 C 861.402 89.530, 857.687 88.302, 855.492 87.328 C 852.204 85.868, 848.592 85.552, 835 85.535 C 819.547 85.515, 817.949 85.694, 809.811 88.355 C 805.033 89.918, 799.658 92.277, 797.867 93.598 C 796.076 94.919, 794.094 96, 793.461 96 C 792.828 96, 791.495 96.900, 790.500 98 C 789.505 99.100, 788.148 100, 787.486 100 C 785.694 100, 777 107.947, 777 109.585 C 777 111.454, 773.398 115, 771.500 115 C 770.495 115, 770 113.994, 770 111.950 C 770 110.273, 769.362 107.686, 768.582 106.200 C 766.592 102.408, 760.115 96.554, 756.212 95.019 C 754.403 94.308, 752.503 92.940, 751.989 91.979 C 751.475 91.019, 749.401 89.923, 747.381 89.544 C 745.361 89.165, 742.709 88.201, 741.490 87.401 C 740.270 86.602, 736.453 85.451, 733.008 84.845 C 728.291 84.014, 726.624 83.280, 726.256 81.871 C 725.820 80.202, 724.698 80, 715.883 80 C 707.694 80, 706 80.261, 706 81.525 M 706.750 104.716 C 705.237 104.945, 704 105.585, 704 106.138 C 704 106.691, 702.987 107.044, 701.750 106.923 C 698.918 106.646, 697.586 107.148, 686.346 112.727 C 679.205 116.272, 675.743 118.775, 670.596 124.118 C 666.968 127.885, 664 131.813, 664 132.848 C 664 133.883, 663.052 135.936, 661.893 137.409 C 659.597 140.328, 658.819 146.046, 660.631 146.687 C 661.253 146.907, 662.022 146.055, 662.340 144.794 C 663.652 139.592, 683.221 121, 687.384 121 C 688.273 121, 689 120.523, 689 119.941 C 689 119.359, 689.403 119.131, 689.895 119.435 C 690.388 119.740, 691.039 119.340, 691.344 118.547 C 691.648 117.754, 693.833 116.623, 696.199 116.034 C 698.564 115.445, 702.689 114.296, 705.365 113.481 C 711.544 111.600, 724.809 111.566, 729.730 113.420 C 731.803 114.202, 735.095 115.105, 737.044 115.427 C 740.906 116.066, 749.392 120.979, 755.122 125.894 C 759.541 129.684, 761.366 129.788, 763.703 126.381 C 764.691 124.940, 766.513 122.751, 767.750 121.516 C 770.154 119.117, 770.825 115.571, 768.750 116.231 C 768.063 116.450, 767.066 117.590, 766.535 118.763 C 765.885 120.200, 764.276 121.115, 761.609 121.566 C 758.099 122.159, 757.429 121.937, 755.740 119.618 C 754.691 118.178, 753.253 117, 752.543 117 C 751.834 117, 747.884 114.975, 743.766 112.500 C 739.649 110.025, 735.568 108, 734.699 108 C 733.829 108, 732.866 107.592, 732.558 107.094 C 732.250 106.596, 731.200 106.396, 730.224 106.652 C 729.249 106.907, 727.112 106.417, 725.475 105.564 C 722.634 104.082, 713.626 103.675, 706.750 104.716 M 815.500 110.850 C 804.925 113.724, 801.229 115.490, 794.790 120.750 C 792.601 122.537, 790.438 124, 789.982 124 C 787.882 124, 783 129.353, 783 131.655 C 783 138.157, 787.264 139.279, 792 134.023 C 795.425 130.222, 803.442 126.413, 809.705 125.610 C 812.568 125.243, 816.787 124.281, 819.081 123.472 C 825.293 121.280, 840.808 121.504, 846.223 123.864 C 848.575 124.889, 852.750 126.502, 855.500 127.449 C 866.600 131.271, 866.962 131.476, 876.419 139.250 C 878.259 140.762, 880.267 142, 880.882 142 C 881.497 142, 882 142.564, 882 143.253 C 882 143.943, 883.366 145.796, 885.035 147.371 C 887.789 149.970, 891.430 155.598, 890.774 156.240 C 890.628 156.383, 891.629 158.075, 893 160 C 894.476 162.073, 895.697 165.447, 895.996 168.278 C 896.273 170.907, 896.950 173.050, 897.500 173.042 C 899.397 173.012, 899.159 162.981, 897.100 156.160 C 895.994 152.497, 894.794 147.813, 894.433 145.750 C 894.073 143.688, 893.417 142, 892.977 142 C 892.536 142, 890.259 139.188, 887.916 135.750 C 883.267 128.929, 878.909 124.423, 876.096 123.530 C 875.105 123.216, 873.099 121.618, 871.639 119.979 C 870.179 118.341, 868.270 117, 867.397 117 C 866.523 117, 864.584 116.128, 863.088 115.062 C 861.591 113.997, 857.471 112.402, 853.933 111.519 C 850.395 110.636, 845.925 109.494, 844 108.981 C 837.464 107.238, 826.036 107.988, 815.500 110.850 M 257.846 140.166 C 253.978 144.357, 253.132 147.472, 254.969 150.764 C 255.969 152.553, 256.796 155.485, 262.440 177.245 C 264.258 184.254, 266.308 190.667, 266.995 191.495 C 267.683 192.323, 267.971 193, 267.637 193 C 267.303 193, 267.921 194.463, 269.011 196.250 C 270.101 198.037, 270.994 200.445, 270.996 201.601 C 271.001 204.199, 275.554 213.054, 277.758 214.750 C 280.843 217.124, 286.623 216.270, 290.499 212.867 C 292.461 211.144, 293.831 209.498, 293.542 209.209 C 293.254 208.920, 293.576 208.007, 294.259 207.179 C 295.166 206.080, 295.192 205.571, 294.356 205.289 C 293.727 205.078, 293.450 203.996, 293.740 202.886 C 294.030 201.777, 293.798 199.886, 293.225 198.684 C 292.071 196.268, 289.707 187.358, 284.817 167 C 283.034 159.575, 281.333 153.275, 281.037 153 C 280.742 152.725, 280.481 152.050, 280.458 151.500 C 280.350 148.939, 274.981 139.100, 272.894 137.638 C 271.581 136.719, 268.610 136, 266.124 136 C 262.207 136, 261.247 136.483, 257.846 140.166 M 936 177.474 C 934.075 178.178, 929.350 179.522, 925.500 180.460 C 918.435 182.181, 915 184.202, 915 186.636 C 915 188.851, 919.554 189.271, 925.335 187.591 C 938.635 183.725, 957.115 187.324, 969.117 196.119 C 975.628 200.891, 984.893 211.379, 987.994 217.489 C 990.075 221.589, 991.737 227.074, 992.811 233.383 C 994.525 243.460, 995.993 245.148, 997.189 238.418 C 998.838 229.135, 997.536 215, 995.032 215 C 994.607 215, 993.665 212.863, 992.937 210.250 C 991.078 203.575, 986.345 194.913, 983.250 192.522 C 981.811 191.410, 978.916 188.985, 976.817 187.134 C 974.718 185.282, 973 184.098, 973 184.502 C 973 184.907, 971.538 184.143, 969.750 182.805 C 965.731 179.797, 951.223 175.935, 944.500 176.084 C 941.750 176.145, 937.925 176.770, 936 177.474 M 168.454 202.750 C 164.439 207.122, 163.902 211.664, 166.908 215.846 C 168.919 218.644, 185.728 232.508, 195.586 239.500 C 197.137 240.600, 199.837 242.738, 201.585 244.250 C 203.333 245.762, 205.215 247, 205.767 247 C 206.319 247, 207.485 248.091, 208.358 249.424 C 209.232 250.757, 210.901 252.151, 212.068 252.522 C 213.235 252.892, 216.696 254.951, 219.760 257.097 C 226.538 261.845, 228.737 261.951, 233.339 257.750 C 240.642 251.084, 239.071 245.284, 227.338 235.594 C 206.580 218.449, 201.036 214, 200.433 214 C 200.066 214, 198.042 212.224, 195.935 210.053 C 193.828 207.882, 190.707 205.383, 188.999 204.500 C 187.291 203.616, 185.018 202.018, 183.947 200.947 C 182.532 199.532, 180.621 199, 176.949 199 C 172.391 199, 171.562 199.366, 168.454 202.750 M 527.913 225.909 C 525.939 226.307, 522.945 227.615, 521.258 228.816 C 519.571 230.017, 517.811 231.018, 517.346 231.041 C 516.881 231.063, 514.925 232.924, 513 235.177 C 511.075 237.429, 508.673 240.151, 507.662 241.224 C 506.652 242.297, 505.158 244.772, 504.343 246.723 C 503.527 248.673, 501.936 251.520, 500.807 253.047 C 498.990 255.505, 498.802 256.921, 499.171 265.373 C 499.780 279.280, 501.549 280.191, 503.135 267.415 C 503.664 263.156, 505.151 257.383, 506.439 254.586 C 507.728 251.789, 508.943 249.050, 509.141 248.500 C 509.892 246.409, 514.536 240.024, 515.315 240.012 C 515.763 240.006, 517.236 238.685, 518.588 237.078 C 521.400 233.736, 528.765 229.886, 533.962 229.041 C 536.164 228.683, 537.500 227.906, 537.500 226.983 C 537.500 225.267, 533.382 224.806, 527.913 225.909 M 657.340 245.352 C 655.409 246.637, 653.754 248.877, 653.085 251.109 C 652.483 253.119, 651.318 255.321, 650.495 256.004 C 649.673 256.686, 649 257.770, 649 258.413 C 649 259.976, 636.952 272, 635.386 272 C 634.708 272, 632.876 273.075, 631.315 274.389 C 629.754 275.702, 626.457 277.364, 623.988 278.082 C 621.520 278.799, 618.501 280.017, 617.280 280.789 C 615.701 281.786, 611.775 282.180, 603.687 282.154 C 593.866 282.123, 591.814 281.823, 588.649 279.955 C 583.620 276.989, 582.348 277.794, 581.810 284.283 C 581.517 287.811, 580.599 290.694, 579.205 292.466 C 578.021 293.971, 576.765 296.737, 576.413 298.612 C 576.061 300.488, 575.368 302.273, 574.872 302.579 C 574.377 302.885, 573.109 304.793, 572.055 306.818 C 569.361 311.993, 563.034 318.068, 557.340 320.948 C 554.678 322.295, 552.372 323.472, 552.216 323.566 C 552.059 323.659, 551.470 326.602, 550.906 330.105 C 550.341 333.609, 549.164 337.266, 548.290 338.232 C 547.254 339.377, 546.533 342.603, 546.218 347.500 C 545.776 354.395, 545.952 355.324, 548.368 358.810 C 549.816 360.898, 551 363.336, 551 364.227 C 551 365.118, 552.080 367.130, 553.399 368.698 C 555.299 370.955, 556.058 373.606, 557.041 381.416 C 558.800 395.396, 558.175 394.995, 578.250 395.021 C 588.887 395.034, 596.745 395.551, 601 396.515 C 604.575 397.326, 610.425 398.471, 614 399.061 C 617.575 399.650, 622.750 400.974, 625.500 402.003 C 630.835 404, 633.020 404.700, 634.294 404.821 C 634.730 404.862, 636.452 406.044, 638.121 407.448 C 639.789 408.852, 642.183 410, 643.442 410 C 644.700 410, 646.874 410.900, 648.273 412 C 649.671 413.100, 651.265 414, 651.815 414 C 652.907 414, 665.700 424.711, 670.500 429.644 C 675.318 434.596, 678.084 438.854, 679.388 443.325 L 680.605 447.500 689.092 447.149 C 695.168 446.897, 698.634 447.238, 701.291 448.348 C 703.333 449.201, 707.506 450.362, 710.566 450.928 C 713.625 451.493, 717.285 452.866, 718.699 453.978 C 720.113 455.090, 722.007 456, 722.907 456 C 723.808 456, 726.217 457.379, 728.262 459.064 C 732.808 462.812, 737.778 462.865, 739.601 459.186 C 741.336 455.686, 746.162 451, 748.032 451 C 748.944 451, 750.497 450.109, 751.482 449.020 C 752.468 447.930, 754.900 446.770, 756.887 446.442 C 758.874 446.113, 761.175 445.567, 762 445.229 C 762.825 444.891, 763.950 444.568, 764.500 444.511 C 765.050 444.454, 766.470 443.873, 767.655 443.220 C 768.840 442.566, 772.890 441.750, 776.655 441.406 C 784.153 440.721, 805.329 442.506, 805.785 443.862 C 805.942 444.328, 807.126 444.507, 808.418 444.260 C 809.709 444.014, 811.070 444.304, 811.442 444.906 C 811.814 445.508, 813.703 446, 815.641 446 C 817.579 446, 822.390 447.082, 826.332 448.405 C 830.274 449.728, 835.249 451.110, 837.386 451.476 C 839.523 451.842, 842.891 453.010, 844.871 454.071 C 846.851 455.132, 849.273 456, 850.255 456 C 851.237 456, 853.718 457.053, 855.770 458.340 C 857.821 459.627, 860.850 461.003, 862.500 461.398 C 864.150 461.794, 868.752 464.341, 872.727 467.058 C 876.701 469.776, 880.329 472, 880.789 472 C 881.249 472, 884.537 474.813, 888.095 478.250 C 895.492 485.397, 901 493.748, 901 497.815 C 901 501.033, 902.608 503, 905.240 503 C 906.252 503, 908.749 503.845, 910.790 504.878 C 912.830 505.911, 916.039 507.088, 917.919 507.495 C 919.800 507.901, 922.496 509.306, 923.909 510.617 C 926.755 513.256, 930.167 513.709, 931.857 511.673 C 933.882 509.232, 937.200 496.752, 936.609 493.797 C 936.294 492.218, 934.641 489.192, 932.937 487.071 C 931.232 484.950, 929.944 482.379, 930.073 481.357 C 930.202 480.336, 929.901 478.600, 929.404 477.500 C 928.907 476.400, 928.500 471.450, 928.500 466.500 C 928.500 461.550, 928.907 456.600, 929.404 455.500 C 929.901 454.400, 930.201 452.662, 930.072 451.638 C 929.867 450.018, 933.848 440.511, 937.248 434.500 C 937.870 433.400, 939.198 430.826, 940.198 428.781 C 941.199 426.735, 942.913 424.582, 944.009 423.995 C 945.104 423.409, 946 422.322, 946 421.580 C 946 419.977, 941.748 417, 939.459 417 C 937.019 417, 926.893 408.775, 923.500 404.037 C 921.850 401.733, 919.446 398.529, 918.157 396.919 C 913.448 391.032, 910.238 375.762, 911.974 367.500 C 912.552 364.750, 913.559 359.800, 914.213 356.500 C 914.915 352.954, 916.137 349.966, 917.200 349.193 C 918.190 348.475, 919 347.237, 919 346.443 C 919 345.252, 916.427 344.996, 904.250 344.978 C 891.930 344.960, 888.811 344.643, 885.319 343.058 C 877.736 339.615, 867.576 332.337, 862.730 326.875 C 855.820 319.089, 855.688 318.916, 851.451 312.052 C 847.624 305.851, 847.580 305.667, 847.356 294.642 C 847.097 281.905, 846.466 281.138, 839.366 284.944 C 837.256 286.075, 834.150 287, 832.465 287 C 830.779 287, 828.951 287.449, 828.403 287.997 C 826.917 289.483, 806.459 290.551, 805.615 289.187 C 805.242 288.582, 804.245 288.352, 803.401 288.677 C 802.556 289.001, 800.883 288.817, 799.683 288.269 C 798.482 287.720, 795.475 286.342, 793 285.205 C 790.525 284.069, 787.278 282.838, 785.785 282.470 C 784.291 282.102, 780.241 278.989, 776.785 275.553 C 768.112 266.932, 767.275 265.902, 765.517 261.695 C 764.488 259.233, 763.325 258, 762.031 258 C 759.980 258, 755.024 261.036, 751.085 264.706 C 749.790 265.913, 747.335 267.207, 745.630 267.581 C 743.924 267.956, 741.607 268.866, 740.481 269.605 C 733.891 273.922, 698.052 273.979, 693.147 269.680 C 692.241 268.886, 690.375 267.897, 689 267.482 C 685.422 266.402, 675.391 257.625, 665.207 246.662 C 662.163 243.386, 660.666 243.136, 657.340 245.352 M 989.297 265.850 C 988.748 266.207, 987.813 267.424, 987.219 268.554 C 985.600 271.635, 987.274 273.417, 991.671 273.292 C 993.764 273.233, 996.368 273.662, 997.458 274.245 C 998.548 274.828, 1002.451 275.208, 1006.131 275.089 C 1009.811 274.969, 1013.649 275.333, 1014.661 275.897 C 1015.672 276.461, 1018.975 278.097, 1022 279.532 C 1032.823 284.668, 1039.830 291.165, 1046.294 302.055 C 1051.396 310.651, 1053.262 318.400, 1052.841 329.233 C 1052.475 338.613, 1053.204 339.947, 1056.373 335.702 C 1059.172 331.954, 1059.917 314.444, 1057.552 308 C 1056.644 305.525, 1055.253 301.475, 1054.463 299 C 1052.907 294.133, 1045.085 284.351, 1039.175 279.885 C 1037.154 278.357, 1034.278 276.162, 1032.786 275.007 C 1029.024 272.097, 1020.201 270.539, 1009.189 270.841 C 1000.410 271.082, 999.604 270.928, 995.086 268.148 C 992.451 266.527, 989.846 265.492, 989.297 265.850 M 609.500 354 C 609.160 354.550, 607.864 355, 606.619 355 C 605.375 355, 602.364 355.640, 599.928 356.422 C 597.493 357.204, 593.886 358.111, 591.914 358.437 C 588.352 359.025, 578.113 367.446, 579.398 368.731 C 579.719 369.053, 579.486 369.914, 578.879 370.645 C 578.257 371.395, 578.112 372.743, 578.546 373.737 C 578.969 374.707, 579.238 376.003, 579.144 376.618 C 578.902 378.196, 586.956 384.550, 590.216 385.352 C 591.936 385.776, 595.120 385.263, 598.901 383.955 L 604.871 381.889 618.685 384.029 C 630.832 385.910, 633.566 386.709, 641.330 390.646 C 651.637 395.873, 653.368 395.821, 660.027 390.086 C 664.479 386.252, 664.500 386.204, 664.500 379.665 C 664.500 373.352, 664.344 372.937, 660.500 368.992 C 655.889 364.262, 646.520 359.439, 640 358.440 C 637.525 358.061, 633.278 356.682, 630.563 355.375 C 626.673 353.504, 623.982 353, 617.872 353 C 613.607 353, 609.840 353.450, 609.500 354 M 1053.032 386.750 C 1053.049 387.163, 1053.724 388.374, 1054.532 389.441 C 1055.339 390.509, 1056 392.207, 1056 393.216 C 1056 394.271, 1057.105 395.470, 1058.602 396.039 C 1060.306 396.687, 1061.007 397.540, 1060.633 398.514 C 1060.319 399.331, 1060.499 400, 1061.031 400 C 1061.564 400, 1062.007 401.238, 1062.015 402.750 C 1062.024 404.262, 1062.467 406.175, 1063 407 C 1063.705 408.091, 1063.974 407.268, 1063.985 403.982 C 1063.995 400.793, 1063.265 398.383, 1061.500 395.785 C 1060.125 393.762, 1059 391.632, 1059 391.053 C 1059 390.474, 1058.100 389.100, 1057 388 C 1054.989 385.989, 1052.973 385.354, 1053.032 386.750 M 802.665 398.521 C 795.328 399.754, 794.598 400.110, 791.165 404.120 C 789.149 406.475, 787.500 408.724, 787.500 409.118 C 787.500 409.511, 787.163 410.171, 786.750 410.583 C 785.651 411.682, 785.835 415.780, 787.016 416.510 C 787.575 416.856, 787.819 417.484, 787.558 417.907 C 787.297 418.329, 788.884 420.436, 791.086 422.587 L 795.089 426.500 809.295 427.041 C 822.293 427.537, 823.924 427.813, 828.492 430.291 C 831.238 431.781, 834.474 433, 835.683 433 C 836.892 433, 838.128 433.398, 838.428 433.884 C 838.729 434.370, 840.893 435.726, 843.237 436.896 C 845.582 438.067, 849.525 440.601, 852 442.527 C 858.690 447.732, 862.713 449.292, 867.930 448.704 C 871.691 448.281, 873.031 447.492, 876.180 443.849 C 878.623 441.024, 879.951 438.485, 879.970 436.604 C 880.013 432.457, 874.134 424.152, 867.311 418.718 C 858.246 411.498, 856.738 410.469, 853.043 408.979 C 851.141 408.213, 848.779 406.779, 847.793 405.793 C 846.807 404.807, 844.816 404, 843.368 404 C 841.920 404, 839.333 403.155, 837.618 402.122 C 834.678 400.351, 817.434 396.880, 812.685 397.103 C 811.483 397.159, 806.974 397.797, 802.665 398.521 M 574 418.117 C 574 418.741, 573.118 419.003, 572.001 418.711 C 570.902 418.423, 569.750 418.596, 569.442 419.094 C 569.134 419.592, 567.574 420, 565.976 420 C 562.305 420, 561.207 422.005, 561.155 428.804 C 561.102 435.663, 562.746 436.328, 567.707 431.451 C 569.793 429.400, 573.525 426.849, 576 425.783 C 591.317 419.181, 592.683 417, 581.500 417 C 576.644 417, 574 417.394, 574 418.117 M 781.135 467.981 C 779.284 468.429, 776.575 469.678, 775.115 470.757 C 773.656 471.836, 771.363 473.068, 770.020 473.494 C 767.311 474.353, 752 489.376, 752 491.174 C 752 491.799, 750.845 493.825, 749.434 495.676 C 748.023 497.526, 746.614 500.606, 746.303 502.520 C 745.824 505.475, 746.026 506, 747.647 506 C 748.697 506, 750.248 505.212, 751.094 504.250 C 752.670 502.457, 761.142 495.002, 766.500 490.694 C 768.150 489.367, 770.962 487.532, 772.750 486.615 C 774.538 485.699, 776 484.586, 776 484.143 C 776 483.040, 785.444 477, 787.167 477 C 787.930 477, 789.550 476.303, 790.765 475.452 C 791.981 474.600, 794.668 473.318, 796.738 472.601 C 799.310 471.711, 800.500 470.698, 800.500 469.399 C 800.500 467.706, 799.634 467.482, 792.500 467.334 C 788.100 467.242, 782.986 467.534, 781.135 467.981 M 677.958 480.250 C 676.332 483.688, 675.001 487.207, 675.001 488.072 C 675 488.936, 673.663 491.411, 672.028 493.572 C 670.393 495.732, 669.043 497.917, 669.028 498.427 C 668.933 501.600, 648.932 526, 646.427 526 C 646.102 526, 643.961 527.504, 641.668 529.342 C 634.147 535.373, 626.056 539.219, 615.785 541.646 C 603.320 544.592, 594.309 544.629, 581.702 541.786 C 574.709 540.209, 571.684 539.892, 571.191 540.685 C 570.500 541.798, 571.876 593.124, 572.619 593.923 C 572.835 594.155, 574.631 592.455, 576.609 590.144 C 585.170 580.142, 597.401 570.241, 602.306 569.342 C 604.063 569.020, 606.426 568.183, 607.557 567.482 C 610.749 565.504, 624.669 564.485, 627.536 566.019 C 629.507 567.074, 630.953 566.996, 636.071 565.560 C 643.703 563.419, 652.247 564.163, 659.596 567.610 C 662.400 568.924, 665.100 570.008, 665.596 570.017 C 666.093 570.027, 667.564 571.156, 668.864 572.527 C 671.325 575.121, 675.092 576.562, 677.248 575.735 C 677.936 575.471, 678.768 575.310, 679.096 575.377 C 679.424 575.445, 680.417 574.899, 681.303 574.164 C 682.188 573.429, 683.461 573.167, 684.131 573.581 C 684.801 573.995, 687.926 574.229, 691.075 574.100 C 694.308 573.968, 697.086 574.331, 697.459 574.933 C 697.821 575.520, 698.936 576, 699.937 576 C 700.937 576, 702.344 576.710, 703.065 577.578 C 705.110 580.043, 713.064 583.663, 717.755 584.265 C 720.958 584.676, 723.432 586.025, 727.755 589.717 C 731.017 592.502, 735.391 595.170, 737.876 595.889 C 742.258 597.157, 752 605.117, 752 607.429 C 752 608.064, 754.082 610.590, 756.626 613.042 C 759.312 615.630, 762.473 620.145, 764.162 623.806 C 766.735 629.385, 767.143 631.615, 767.694 643.148 C 768.137 652.414, 768.692 656.328, 769.611 656.681 C 770.322 656.954, 771.410 658.712, 772.029 660.588 C 772.648 662.465, 773.704 664, 774.375 664 C 775.045 664, 777.348 662.204, 779.491 660.009 C 784.462 654.919, 788.631 653.991, 793.369 656.919 C 795.803 658.423, 797.066 660.117, 797.676 662.697 C 798.150 664.704, 798.996 666.499, 799.555 666.685 C 800.114 666.871, 802.214 664.869, 804.222 662.236 C 808.400 656.758, 813.291 654.457, 818.631 655.459 C 820.960 655.895, 822.457 656.908, 823.207 658.554 C 823.820 659.899, 825.036 660.984, 825.911 660.964 C 827.543 660.926, 832.975 654.538, 833.031 652.589 C 833.082 650.831, 837.773 647.911, 841.523 647.303 C 844.575 646.807, 845.394 647.179, 848.347 650.402 C 852.068 654.465, 851.916 654.530, 856.239 647 C 860.126 640.228, 864.272 636.722, 868.722 636.444 C 870.800 636.315, 872.840 636.162, 873.257 636.104 C 874.132 635.984, 878.458 631.167, 878.586 630.170 C 878.852 628.109, 880.647 625.119, 883.341 622.250 C 885.752 619.682, 887.195 619, 890.218 619 C 893.260 619, 894.221 618.539, 894.915 616.750 C 900.076 603.432, 901.240 601.395, 905.454 598.290 C 909.031 595.654, 909.940 594.312, 910.533 590.790 C 910.930 588.430, 912.098 585.427, 913.128 584.115 C 914.158 582.803, 915 581.134, 915 580.406 C 915 578.817, 920.066 573.923, 921.069 574.542 C 921.456 574.782, 922.336 574.299, 923.025 573.470 C 924.040 572.246, 923.968 571.622, 922.638 570.153 C 920.486 567.775, 920.477 559.136, 922.621 554.218 C 925.009 548.740, 925.974 542.820, 924.828 540.679 C 923.952 539.041, 918.196 535.856, 915.500 535.517 C 914.950 535.447, 913.375 534.906, 912 534.314 C 898.644 528.563, 898.655 528.562, 895.370 535.500 C 893.938 538.525, 892.383 541, 891.914 541 C 891.446 541, 891.317 541.662, 891.627 542.470 C 892.602 545.010, 879.639 562.913, 870.246 572 C 863.085 578.928, 851.638 587.326, 849.054 587.548 C 848.749 587.574, 846.981 588.548, 845.125 589.713 C 837.991 594.189, 802.844 598.128, 797.164 595.088 C 796.227 594.586, 791.932 593.447, 787.619 592.556 C 783.307 591.666, 778.483 590.267, 776.900 589.448 C 775.316 588.629, 773.795 587.962, 773.519 587.964 C 773.243 587.967, 771.551 587.082, 769.759 585.998 C 767.966 584.914, 764.250 582.950, 761.500 581.633 C 750.128 576.185, 731.612 555.614, 729.524 546.108 C 729.123 544.284, 727.862 540.701, 726.721 538.146 C 724.971 534.225, 724.580 530.926, 724.217 517 C 723.981 507.925, 724.206 498.237, 724.717 495.470 C 725.937 488.871, 724.874 486.236, 719.374 482.219 C 711.389 476.387, 703.245 474, 691.338 474 L 680.915 474 677.958 480.250 M 977 549.071 C 975.075 550.090, 972.375 551.162, 971 551.451 C 969.625 551.741, 966.404 553.895, 963.842 556.239 C 959.113 560.565, 947.013 574.635, 946.984 575.841 C 946.976 576.203, 944.726 577.601, 941.984 578.947 C 936.585 581.597, 936.313 582.350, 938.529 588.500 C 940.634 594.343, 940.345 597.882, 937.087 606.127 C 935.011 611.383, 934.051 615.797, 933.742 621.500 C 933.387 628.083, 932.738 630.581, 930.080 635.602 C 928.303 638.959, 926.611 643.478, 926.321 645.646 C 925.796 649.559, 925.836 649.614, 931.857 653.331 C 937.798 656.998, 938.128 657.075, 947.908 657.087 C 956.187 657.097, 958.714 656.714, 962.697 654.850 C 965.338 653.613, 967.725 652.566, 968 652.524 C 969.407 652.308, 981.978 644.731, 983.027 643.467 C 983.697 642.660, 984.879 642, 985.654 642 C 986.429 642, 987.355 641.212, 987.712 640.250 C 988.070 639.288, 990.531 636.326, 993.181 633.668 C 995.831 631.011, 998 628.268, 998 627.573 C 998 626.878, 998.900 625.495, 1000 624.500 C 1001.100 623.505, 1002 622.152, 1002 621.494 C 1002 620.836, 1003.125 618.182, 1004.500 615.596 C 1005.875 613.010, 1007 610.045, 1007 609.006 C 1007 607.968, 1007.430 606.852, 1007.956 606.527 C 1008.482 606.202, 1008.684 605.340, 1008.405 604.612 C 1008.125 603.885, 1008.933 601.536, 1010.198 599.395 C 1012.227 595.962, 1012.499 594.196, 1012.490 584.500 C 1012.482 575.396, 1012.139 572.897, 1010.502 570 C 1009.413 568.075, 1008.475 566.050, 1008.417 565.500 C 1007.934 560.913, 1001.755 553.102, 996.017 549.825 C 990.086 546.438, 982.537 546.138, 977 549.071 M 606.863 603.648 C 604.123 604.410, 597.008 613.665, 596.447 617.196 C 595.206 625.013, 593.616 631, 592.781 631 C 592.287 631, 592.191 631.500, 592.569 632.112 C 592.947 632.723, 592.709 633.562, 592.039 633.976 C 591.169 634.514, 591.668 635.692, 593.794 638.114 C 597.279 642.085, 600 648.139, 600 651.922 C 600 654.944, 601.621 657, 604.004 657 C 605.778 657, 611.112 662.237, 612.915 665.750 C 613.551 666.987, 614.842 668.003, 615.785 668.006 C 616.728 668.010, 618.789 668.685, 620.364 669.506 C 624.938 671.892, 626.785 671.359, 629.760 666.796 C 633.276 661.401, 642.542 652, 644.342 652 C 645.104 652, 646.864 653.136, 648.253 654.525 C 650.167 656.440, 652.317 657.237, 657.139 657.821 C 660.638 658.245, 665.801 659.696, 668.614 661.046 C 675.002 664.111, 676.380 667.268, 676.449 679 L 676.500 687.500 684.577 687.500 C 691.848 687.500, 693.015 687.775, 696.261 690.250 C 700.451 693.446, 703.972 693.824, 704.670 691.154 C 705.257 688.910, 714.136 684.849, 719.016 684.592 C 723.697 684.346, 724.488 683.744, 727.159 678.396 C 728.411 675.889, 730.259 673.396, 731.266 672.858 C 733.085 671.884, 735.513 667.311, 735.114 665.609 C 735 665.119, 735.690 663.094, 736.648 661.109 C 739.383 655.441, 739.679 645.763, 737.222 642.312 C 736.121 640.766, 735.108 639.050, 734.971 638.500 C 733.655 633.219, 732.859 632.422, 727.701 631.223 C 720.306 629.504, 720.317 629.499, 719.748 634.541 C 718.940 641.708, 713.440 646.085, 701 649.458 C 697.425 650.428, 693.524 651.678, 692.331 652.236 C 691.139 652.794, 688.756 653.044, 687.037 652.792 C 685.318 652.540, 683.680 652.708, 683.397 653.167 C 683.114 653.625, 680.910 654, 678.500 654 C 676.090 654, 673.886 653.625, 673.603 653.167 C 673.320 652.708, 671.682 652.540, 669.963 652.792 C 668.244 653.044, 665.861 652.794, 664.669 652.236 C 663.476 651.678, 658.225 649.981, 653 648.466 C 641.336 645.084, 639.195 644.025, 631.553 637.868 C 614.015 623.737, 611.550 617.987, 619.707 610.236 C 624.995 605.211, 623.968 603.533, 615.489 603.346 C 611.645 603.262, 607.763 603.397, 606.863 603.648 M 631.200 604.200 C 629.281 606.119, 629.794 607.902, 632.802 609.765 C 634.343 610.719, 637.343 613.438, 639.469 615.807 C 641.595 618.175, 644.722 620.761, 646.417 621.552 C 648.113 622.343, 650.966 623.886, 652.759 624.980 C 654.551 626.074, 656.241 626.971, 656.513 626.973 C 656.786 626.975, 658.695 627.688, 660.755 628.556 C 667.128 631.243, 675.085 632.258, 684.884 631.634 C 693.055 631.113, 694.877 630.646, 698.972 628.018 C 703.587 625.056, 709.285 624.035, 710.473 625.956 C 710.798 626.482, 711.679 626.677, 712.431 626.388 C 713.183 626.100, 714.095 626.344, 714.458 626.932 C 715.562 628.719, 718 628.124, 718 626.068 C 718 625.006, 716.606 623.143, 714.901 621.930 C 711.907 619.798, 711.684 619.780, 708.278 621.405 C 702.856 623.990, 697.206 622.728, 691.457 617.648 C 686.248 613.045, 685.274 612.725, 682.791 614.805 C 681.850 615.592, 679.073 616.463, 676.618 616.740 C 672.650 617.187, 671.703 616.868, 668.093 613.871 C 665.860 612.017, 663.540 609.038, 662.938 607.250 C 661.784 603.820, 660.623 603.182, 659.300 605.250 C 658.016 607.256, 651.225 610, 647.543 610 C 645.209 610, 642.725 608.910, 639.568 606.500 C 634.648 602.744, 633.085 602.315, 631.200 604.200 M 587.115 752.659 C 587.153 759.071, 587.416 764.921, 587.699 765.659 C 588.005 766.457, 589.762 767, 592.036 767 C 594.137 767, 596.456 767.599, 597.188 768.330 C 597.919 769.062, 599.035 769.488, 599.667 769.278 C 600.299 769.067, 601.110 769.368, 601.467 769.947 C 601.825 770.526, 602.886 771, 603.824 771 C 604.762 771, 607.130 771.858, 609.087 772.907 C 611.043 773.955, 614.529 775.378, 616.834 776.068 C 619.138 776.759, 621.524 777.926, 622.134 778.662 C 622.745 779.398, 623.692 780, 624.238 780 C 626.413 780, 639.594 789.667, 643.911 794.428 C 646.435 797.212, 650.525 801.516, 653 803.994 C 657.442 808.442, 657.576 808.495, 663.352 808.152 C 666.743 807.950, 669.665 808.265, 670.302 808.902 C 671.714 810.314, 683.672 810.339, 684.542 808.932 C 684.907 808.341, 687.530 807.972, 690.415 808.106 C 693.283 808.239, 696.050 808.100, 696.564 807.799 C 697.079 807.497, 700.200 806.941, 703.500 806.563 C 712.969 805.479, 732.396 800.536, 735.367 798.456 C 736.510 797.655, 738.245 797, 739.223 797 C 740.200 797, 741 796.502, 741 795.893 C 741 795.284, 741.692 795.052, 742.538 795.376 C 743.413 795.712, 744.321 795.327, 744.645 794.483 C 744.958 793.667, 745.728 792.996, 746.357 792.990 C 747.775 792.978, 759.731 785.932, 767.975 780.250 C 771.366 777.913, 774.456 776, 774.841 776 C 775.226 776, 778.199 773.565, 781.449 770.589 C 790.298 762.483, 789.509 759.676, 779.611 764.054 C 776.564 765.402, 770.935 766.471, 763.234 767.165 C 756.780 767.747, 750.488 768.698, 749.252 769.280 C 748.015 769.861, 746.706 770.040, 746.344 769.677 C 745.981 769.314, 745.103 769.499, 744.394 770.088 C 743.623 770.728, 736.949 771.227, 727.802 771.329 C 713.608 771.488, 712.212 771.337, 708.515 769.250 C 703.815 766.597, 702.479 766.502, 698.566 768.542 C 696.952 769.384, 695.054 769.851, 694.348 769.580 C 693.642 769.309, 692.798 769.518, 692.473 770.044 C 692.148 770.570, 688.110 771, 683.500 771 C 678.890 771, 674.852 770.570, 674.527 770.044 C 674.202 769.518, 673.245 769.352, 672.401 769.677 C 671.556 770.001, 669.883 769.776, 668.683 769.178 C 664.091 766.889, 655.391 765, 649.446 765 C 645.372 765, 641.665 764.297, 638.607 762.944 C 636.051 761.814, 631.606 760.501, 628.730 760.027 C 625.853 759.553, 622.150 758.603, 620.500 757.916 C 618.850 757.229, 617.275 756.619, 617 756.559 C 616.725 756.500, 614.475 755.493, 612 754.321 C 609.525 753.150, 605.400 751.450, 602.833 750.544 C 600.266 749.639, 596.147 747.121, 593.679 744.949 C 591.212 742.777, 588.710 741, 588.119 741 C 587.412 741, 587.069 744.976, 587.115 752.659 M 818.500 903 C 818.151 904.100, 817.513 905, 817.082 905 C 816.322 905, 810.938 912.756, 808.099 917.942 C 807.329 919.349, 806.126 920.840, 805.427 921.256 C 804.728 921.672, 803.840 923.451, 803.454 925.210 C 803.068 926.969, 801.717 929.221, 800.453 930.216 C 799.188 931.211, 797.835 933.481, 797.446 935.262 C 797.058 937.043, 795.898 939.573, 794.870 940.885 C 793.841 942.197, 793 943.957, 793 944.797 C 793 945.637, 791.779 948.389, 790.286 950.912 C 788.793 953.435, 787.696 956.288, 787.849 957.250 C 788.001 958.212, 787.647 959, 787.063 959 C 786.478 959, 786 959.527, 786 960.171 C 786 960.815, 785.270 962.149, 784.379 963.134 C 782.709 964.980, 783.104 968, 785.016 968 C 786.980 968, 790.779 962.990, 791.425 959.549 C 791.774 957.686, 793.391 953.539, 795.017 950.331 C 796.644 947.124, 797.980 944.007, 797.987 943.405 C 797.994 942.803, 798.891 941.503, 799.980 940.518 C 801.070 939.532, 802.239 937.242, 802.579 935.428 C 802.920 933.615, 804.028 931.380, 805.042 930.462 C 806.057 929.544, 807.190 927.377, 807.560 925.646 C 807.930 923.916, 809.081 921.695, 810.116 920.711 C 811.152 919.727, 812 918.437, 812 917.843 C 812 917.250, 813.237 915.259, 814.750 913.419 C 820.356 906.599, 822 904.144, 822 902.592 C 822 900.306, 819.254 900.626, 818.500 903" stroke="none" fill="#171916" fill-rule="evenodd"/>
</svg>