<svg role="img" aria-labelledby="artwork-title" shape-rendering="geometricPrecision" xmlns="http://www.w3.org/2000/svg" width="1200" height="1200" viewBox="0 0 1200 1200" version="1.1">
	<title id="artwork-title">Mascot reading an about document</title>
	<path d="M 630.361 81.666 C 630.460 82.855, 628.924 83.823, 625 85.045 C 618.524 87.062, 609.914 91.165, 605 94.575 C 594.795 101.658, 584.578 112.187, 582.456 117.807 C 579.742 124.994, 576.638 126.212, 575.568 120.510 C 574.968 117.314, 569.744 111.016, 567.683 111.005 C 567.234 111.002, 565.341 109.836, 563.476 108.414 C 561.612 106.992, 559.617 106.119, 559.043 106.473 C 558.469 106.828, 558 106.641, 558 106.059 C 558 105.477, 556.861 105, 555.468 105 C 554.075 105, 551.263 104.267, 549.218 103.370 C 544.421 101.267, 524.725 100.308, 518.487 101.874 C 516.019 102.493, 511.863 103.520, 509.250 104.155 C 506.637 104.791, 503.938 105.746, 503.250 106.278 C 502.563 106.810, 502 106.895, 502 106.467 C 502 106.040, 501.190 106.423, 500.200 107.319 C 499.211 108.214, 496.562 109.596, 494.315 110.389 C 486.221 113.245, 471.625 124.698, 467.500 131.429 C 464.893 135.684, 461.697 140.369, 460.971 141 C 458.444 143.197, 453 160.190, 453 165.882 C 453 172.950, 451.427 173.789, 445.133 170.078 C 440.591 167.400, 438.859 167.013, 428.694 166.406 C 417.425 165.732, 412.993 166.452, 402 170.742 C 401.175 171.064, 400.275 171.388, 400 171.462 C 399.386 171.628, 387.811 177.915, 384.159 180.066 C 381.488 181.640, 367.016 195.842, 366.982 196.922 C 366.972 197.240, 365.734 199.363, 364.232 201.641 C 361.490 205.796, 357.764 212.065, 357.479 213 C 357.396 213.275, 357.034 214.175, 356.674 215 C 350.053 230.214, 349.190 251.168, 354.705 262.791 C 359.180 272.222, 368.668 274.551, 373.500 267.404 C 376.123 263.525, 377.248 263.231, 378.685 266.049 C 380.017 268.660, 378.837 272, 376.584 272 C 375.843 272, 374.041 273.569, 372.578 275.486 L 369.919 278.972 372.063 281.872 C 374.797 285.570, 373.918 288.718, 369.654 290.502 C 362.906 293.324, 347 311.154, 347 315.895 C 347 316.431, 346.518 318.137, 345.930 319.685 C 345.341 321.233, 344.853 322.725, 344.845 323 C 344.837 323.275, 344.306 324.132, 343.665 324.905 C 341.948 326.976, 342.345 344.971, 344.133 346.103 C 344.885 346.580, 345.130 346.976, 344.679 346.985 C 344.227 346.993, 344.510 347.653, 345.308 348.451 C 346.106 349.249, 347.070 351.560, 347.450 353.587 C 347.831 355.614, 349.090 358.556, 350.250 360.124 C 351.409 361.692, 352.052 363.281, 351.679 363.654 C 350.552 364.781, 344.255 356.912, 340.925 350.217 C 337.840 344.011, 337.805 343.774, 338.150 331.171 C 338.411 321.657, 338.905 317.784, 340.092 315.954 C 340.967 314.604, 341.993 312.245, 342.371 310.711 C 343.004 308.141, 344.624 306.053, 351.568 298.858 C 352.970 297.404, 356.229 295.154, 358.809 293.858 C 365.835 290.326, 368 288.122, 368 284.500 C 368 281.271, 366.662 279.663, 360.290 275.232 C 356.168 272.365, 353.668 272.418, 348.437 275.484 C 336.664 282.384, 323.822 298.826, 321.479 310 C 321.075 311.925, 320.278 314.625, 319.706 316 C 319.135 317.375, 318.592 318.725, 318.500 319 C 318.408 319.275, 317.760 320.850, 317.061 322.500 C 315.634 325.865, 316.306 345.459, 317.914 347.397 C 318.418 348.004, 318.882 348.832, 318.945 349.237 C 319.008 349.643, 319.947 352.042, 321.030 354.570 C 322.114 357.098, 323 359.375, 323 359.631 C 323 359.887, 324.571 362.553, 326.492 365.555 C 330.418 371.692, 335.159 376.346, 339.250 378.078 C 342.734 379.554, 342.927 383.362, 339.698 386.945 C 338.433 388.350, 336.376 392.200, 335.129 395.500 C 333.882 398.800, 332.442 402.281, 331.931 403.236 C 330.794 405.357, 330.685 423.226, 331.800 424.550 C 332.240 425.072, 333.671 428.200, 334.980 431.500 C 337.383 437.560, 342.906 445.868, 346.910 449.445 C 348.108 450.514, 352.105 453.022, 355.794 455.019 L 362.500 458.648 362.588 465.574 C 362.731 476.864, 369.347 487.911, 378.500 492.141 C 380.150 492.903, 381.500 494.266, 381.500 495.169 C 381.500 496.741, 372.102 504, 370.067 504 C 368.618 504, 358.435 517.084, 354.970 523.398 C 352.664 527.601, 351.380 532.288, 349.425 543.643 C 347.102 557.141, 346.981 559.202, 348.034 567.460 C 348.668 572.432, 349.778 578.525, 350.502 581 C 351.225 583.475, 352.054 586.850, 352.343 588.500 C 352.632 590.150, 353.892 593.750, 355.142 596.500 C 356.393 599.250, 357.435 601.725, 357.459 602 C 357.483 602.275, 358.402 603.852, 359.502 605.504 C 362.344 609.777, 363.745 612.075, 365.596 615.500 C 369.274 622.304, 382.071 632.976, 388.483 634.585 C 389.867 634.933, 391.050 635.731, 391.112 636.358 C 391.174 636.986, 391.347 641.804, 391.498 647.066 C 391.717 654.755, 392.224 657.501, 394.081 661.066 C 395.351 663.504, 396.281 666.248, 396.147 667.161 C 396.014 668.075, 396.376 669.114, 396.952 669.470 C 397.528 669.827, 398 671.681, 398 673.592 C 398 677.504, 402.352 686.847, 405.062 688.751 C 406.041 689.439, 407.148 691.398, 407.523 693.103 C 407.897 694.808, 409.058 697.058, 410.102 698.102 C 411.146 699.146, 412 700.828, 412 701.839 C 412 704.184, 416.042 709.723, 422.851 716.709 C 425.793 719.729, 427.818 722.557, 427.351 722.994 C 426.232 724.039, 397.399 722.380, 383.818 720.488 C 377.943 719.670, 367.057 719, 359.627 719 C 351.148 719, 345.873 718.603, 345.460 717.935 C 345.088 717.334, 342.121 716.948, 338.651 717.049 C 335.268 717.148, 331.825 717.002, 331 716.726 C 327.360 715.505, 312.307 714.014, 298.500 713.505 C 279.454 712.804, 258.044 711.267, 241.792 709.434 C 234.802 708.645, 225.802 708.004, 221.792 708.010 C 212.587 708.022, 195.087 706.116, 192.656 704.837 C 191.642 704.303, 188.267 703.949, 185.156 704.051 C 182.045 704.152, 178.825 703.995, 178 703.702 C 175.115 702.675, 152.054 702.029, 149.788 702.911 C 148.529 703.401, 144.912 706.263, 141.750 709.272 C 136.009 714.735, 136 714.753, 136 720.684 C 136 724.946, 136.695 728.066, 138.458 731.720 C 139.809 734.522, 141.202 738.094, 141.553 739.657 C 142.366 743.286, 147.183 755.047, 150.466 761.419 C 151.860 764.125, 153 766.882, 153 767.545 C 153 768.208, 154.575 772.206, 156.500 776.431 C 158.425 780.655, 160 784.507, 160 784.990 C 160 785.474, 160.525 787.137, 161.166 788.685 C 161.808 790.233, 162.411 791.725, 162.507 792 C 162.602 792.275, 164.139 795.608, 165.921 799.406 C 167.703 803.205, 170.065 809.280, 171.168 812.906 C 172.272 816.533, 173.863 820.576, 174.704 821.892 C 175.544 823.208, 178.680 831.292, 181.672 839.856 C 184.663 848.421, 187.591 856.007, 188.178 856.714 C 188.765 857.421, 188.910 858, 188.500 858 C 188.090 858, 188.238 858.582, 188.829 859.294 C 189.880 860.560, 198.639 884.299, 199.698 888.750 C 199.992 889.987, 200.657 891, 201.176 891 C 201.694 891, 201.836 891.456, 201.492 892.012 C 201.148 892.569, 201.977 895.382, 203.335 898.262 C 204.693 901.143, 206.330 905.525, 206.973 908 C 207.617 910.475, 208.987 914.300, 210.020 916.500 C 212.696 922.203, 214.343 926.398, 214.198 927.140 C 214.130 927.492, 215.117 929.942, 216.392 932.584 C 217.668 935.227, 218.519 938.123, 218.284 939.021 C 217.817 940.809, 213.016 944, 210.793 944 C 207.249 944, 191.294 957.964, 185.753 965.915 C 184.061 968.343, 181.224 974.556, 179.449 979.721 C 177.673 984.886, 175.946 989.387, 175.610 989.723 C 174.429 990.904, 174.947 1014.547, 176.181 1015.781 C 176.995 1016.595, 177.430 1023.123, 177.579 1036.731 C 177.810 1057.763, 178.164 1059.693, 184.886 1076.500 C 187.930 1084.111, 188.322 1085.375, 188.137 1087 C 188.044 1087.825, 191.464 1095.475, 195.738 1104 L 203.509 1119.500 216.755 1119.779 C 231.963 1120.099, 232.414 1119.780, 226 1113.238 C 223.800 1110.993, 222 1108.277, 222 1107.201 C 222 1106.125, 221.337 1104.695, 220.526 1104.022 C 219.716 1103.349, 218.765 1101.265, 218.414 1099.391 C 218.062 1097.516, 216.876 1094.840, 215.777 1093.444 C 211.979 1088.616, 208.969 1081.472, 207.802 1074.519 C 207.069 1070.149, 205.380 1065.327, 203.287 1061.623 C 198.895 1053.852, 197.820 1048.684, 197.957 1036 C 198.020 1030.225, 198.033 1023.250, 197.985 1020.500 C 197.434 988.646, 197.436 988.606, 199.466 985.250 C 200.547 983.462, 201.728 982, 202.091 982 C 202.453 982, 203.025 980.762, 203.360 979.250 C 204.079 976.015, 206.465 973.249, 214.222 966.663 C 218.900 962.691, 221.668 961.293, 229.709 958.841 C 238.709 956.097, 240.429 955.889, 251 956.272 C 260.813 956.627, 263.380 957.086, 268.500 959.396 C 281.807 965.402, 288.285 977.101, 283.053 985.680 L 281.114 988.861 265.323 988.883 C 256.358 988.895, 249.396 989.311, 249.218 989.846 C 249.045 990.364, 248.078 990.572, 247.069 990.308 C 245.991 990.026, 244.670 990.607, 243.867 991.714 C 243.115 992.752, 241.097 994.171, 239.381 994.867 C 235.067 996.620, 230.163 1001.937, 229.415 1005.673 C 228.874 1008.382, 229.330 1009.330, 232.896 1012.896 C 237.698 1017.698, 239.632 1017.933, 245.013 1014.373 C 250.328 1010.856, 268.126 1009.089, 282.093 1010.692 L 291.371 1011.757 296.090 1016.705 C 303.323 1024.287, 304.463 1032.136, 299.673 1041.380 L 297.662 1045.261 289.257 1044.736 C 273.572 1043.758, 262.989 1046.157, 251.549 1053.284 C 246.307 1056.550, 244.015 1061.944, 246.420 1065.356 C 249.883 1070.267, 250.958 1071.119, 254.396 1071.677 C 257.247 1072.140, 258.838 1071.711, 261.974 1069.636 C 269.376 1064.738, 288.218 1062.872, 296.944 1066.173 C 300.374 1067.471, 305.898 1073.102, 305.292 1074.683 C 305.014 1075.407, 305.284 1076, 305.893 1076 C 307.127 1076, 307.434 1083.233, 306.250 1084.417 C 305.837 1084.829, 305.489 1085.467, 305.475 1085.833 C 305.423 1087.242, 299.234 1094.900, 298.633 1094.300 C 298.285 1093.952, 298 1094.192, 298 1094.833 C 298 1095.475, 297.325 1096, 296.500 1096 C 295.675 1096, 295 1096.340, 295 1096.756 C 295 1097.658, 293.346 1098.320, 275 1104.770 C 272.525 1105.640, 268.588 1107.902, 266.250 1109.796 C 262.768 1112.619, 262 1113.852, 262 1116.620 L 262 1120 281.921 1120 L 301.841 1120 302.505 1116.978 C 302.984 1114.795, 304.101 1113.567, 306.528 1112.553 C 311.005 1110.682, 322.758 1098.824, 323.628 1095.300 C 324.009 1093.760, 325.204 1090.791, 326.286 1088.702 C 327.902 1085.580, 328.167 1083.536, 327.777 1077.202 C 327.300 1069.465, 325.533 1064.667, 320.521 1057.500 C 317.857 1053.690, 317.886 1052.248, 320.704 1048.326 C 323.487 1044.454, 325.344 1032.865, 324.442 1025 C 323.794 1019.357, 320.511 1011, 318.942 1011 C 318.459 1011, 318.274 1010.438, 318.532 1009.750 C 319.036 1008.406, 307.804 995.959, 304.507 994.207 C 302.550 993.168, 302.559 993.089, 305.007 989.824 C 307.139 986.981, 307.491 985.468, 307.441 979.366 C 307.403 974.722, 306.845 971.406, 305.843 969.866 C 304.996 968.565, 303.734 965.765, 303.039 963.644 C 300.722 956.577, 281.868 940, 276.146 940 C 274.966 940, 274 939.522, 274 938.937 C 274 938.353, 273.212 937.992, 272.250 938.136 C 271.287 938.279, 269.023 937.613, 267.217 936.656 C 264.637 935.288, 261.384 934.909, 252.033 934.889 C 244.106 934.872, 239.816 934.469, 239.187 933.682 C 238.667 933.032, 237.762 930.025, 237.176 927 C 236.074 921.308, 232.493 910.470, 229.411 903.500 C 228.438 901.300, 227.585 899.050, 227.516 898.500 C 227.447 897.950, 226.412 895.475, 225.217 893 C 224.022 890.525, 223.023 887.600, 222.998 886.500 C 222.973 885.400, 221.840 881.800, 220.481 878.500 C 219.121 875.200, 218.007 871.592, 218.005 870.482 C 218.002 869.372, 216.952 866.897, 215.672 864.982 C 214.392 863.067, 212.643 859.475, 211.787 857 C 208.526 847.575, 207.715 845.356, 205.754 840.500 C 204.643 837.750, 203.520 834.038, 203.258 832.250 C 202.996 830.462, 202.354 829, 201.832 829 C 201.309 829, 201.160 828.550, 201.500 828 C 201.840 827.450, 201.641 827, 201.059 827 C 200.477 827, 200 826.325, 200 825.500 C 200 824.675, 199.600 824, 199.111 824 C 198.623 824, 197.914 822.313, 197.537 820.250 C 197.160 818.188, 196.227 815.529, 195.464 814.343 C 194.700 813.156, 193.540 810.006, 192.886 807.343 C 192.231 804.679, 190.914 801.375, 189.958 800 C 189.002 798.625, 188.176 797.160, 188.121 796.745 C 188.067 796.330, 187.302 794.305, 186.422 792.245 C 185.541 790.185, 183.781 785.575, 182.511 782 C 181.241 778.425, 179.403 773.250, 178.425 770.500 C 177.448 767.750, 176.260 765.238, 175.786 764.917 C 175.005 764.390, 173.623 760.939, 168.008 745.500 C 167.008 742.750, 165.467 738.815, 164.583 736.755 C 163.700 734.695, 163.002 732.767, 163.033 732.470 C 163.064 732.172, 162.176 730.767, 161.058 729.347 C 159.941 727.927, 159.273 726.368, 159.573 725.882 C 160.428 724.499, 179.369 724.885, 191.500 726.534 C 197.550 727.357, 209.925 728.283, 219 728.593 C 228.075 728.902, 236.400 729.534, 237.500 729.996 C 240.973 731.456, 268.090 734.070, 289.693 735.029 C 301.137 735.536, 314.325 736.385, 319 736.914 C 326.994 737.820, 340.289 738.783, 375.357 740.995 C 383.528 741.510, 390.823 742.438, 391.568 743.057 C 392.357 743.711, 395.450 744.039, 398.964 743.841 C 402.286 743.653, 405.116 743.815, 405.252 744.201 C 405.388 744.586, 416.300 745.395, 429.500 745.997 C 442.700 746.600, 455.975 747.547, 459 748.101 C 462.025 748.656, 476.853 749.538, 491.951 750.063 C 507.049 750.588, 520.999 751.508, 522.951 752.108 C 524.903 752.709, 539.309 753.557, 554.964 753.993 C 574.338 754.532, 583.547 755.141, 583.800 755.899 C 584.004 756.511, 584.549 756.779, 585.012 756.493 C 585.474 756.207, 586.370 758.567, 587.003 761.737 C 588.868 771.081, 590.080 775.371, 591.473 777.550 C 592.194 778.677, 593.273 782.751, 593.870 786.603 C 594.468 790.455, 595.613 794.933, 596.414 796.553 C 597.215 798.174, 598.309 802.425, 598.844 806 C 599.379 809.575, 600.513 814.300, 601.364 816.500 C 602.216 818.700, 602.932 821.962, 602.956 823.750 C 602.980 825.538, 603.525 827, 604.167 827 C 604.808 827, 605.055 827.279, 604.714 827.619 C 604.374 827.960, 604.706 828.849, 605.453 829.595 C 606.199 830.342, 607.375 834.226, 608.067 838.226 C 608.758 842.227, 610.095 847.525, 611.039 850 C 611.983 852.475, 613.089 856.525, 613.496 859 C 613.903 861.475, 614.952 864.850, 615.826 866.500 C 616.701 868.150, 617.435 869.800, 617.458 870.167 C 617.481 870.533, 617.837 871.171, 618.250 871.583 C 618.663 871.996, 619 873.829, 619 875.656 C 619 877.483, 619.899 881.346, 620.999 884.238 C 622.098 887.131, 623.266 891.749, 623.594 894.499 C 623.923 897.250, 624.986 901.750, 625.957 904.500 C 626.928 907.250, 628.023 912.170, 628.391 915.434 C 628.760 918.698, 629.459 921.848, 629.945 922.434 C 630.432 923.020, 630.837 923.725, 630.845 924 C 630.853 924.275, 631.323 925.720, 631.890 927.211 C 632.457 928.702, 633.207 932.302, 633.557 935.211 C 633.907 938.120, 635.078 941.758, 636.160 943.296 C 637.242 944.833, 637.986 947.083, 637.814 948.296 C 637.536 950.245, 636.811 950.535, 631.535 950.806 C 628.254 950.975, 625.036 951.555, 624.385 952.096 C 623.733 952.637, 620.383 953.533, 616.941 954.087 C 613.499 954.641, 608.841 955.920, 606.591 956.928 C 604.341 957.937, 601.382 959.104, 600.014 959.523 C 597.009 960.443, 590.696 965.300, 586.678 969.783 C 583.337 973.510, 577.524 981.370, 577.824 981.755 C 577.933 981.895, 577.288 983.695, 576.390 985.755 C 575.492 987.815, 574.528 992.995, 574.249 997.267 C 573.761 1004.736, 574.080 1006.447, 577.742 1016 C 578.059 1016.825, 578.233 1017.876, 578.130 1018.336 C 578.027 1018.795, 579.306 1020.723, 580.971 1022.620 C 584.715 1026.884, 584.773 1029.138, 581.250 1033.553 C 579.737 1035.449, 578.461 1037.337, 578.414 1037.750 C 578.366 1038.162, 578.055 1039.175, 577.721 1040 C 573.780 1049.757, 573.020 1057.718, 575.469 1063.581 C 577.502 1068.445, 585.857 1080.731, 587.583 1081.393 C 588.362 1081.692, 589 1082.626, 589 1083.469 C 589 1084.311, 589.659 1085, 590.465 1085 C 591.270 1085, 592.427 1085.930, 593.035 1087.066 C 593.930 1088.738, 593.651 1090.069, 591.570 1094.047 C 588.485 1099.948, 587.949 1109.807, 590.571 1112.429 C 591.436 1113.293, 591.854 1114, 591.500 1114 C 591.146 1114, 591.564 1114.707, 592.429 1115.571 C 593.293 1116.436, 594 1117.786, 594 1118.571 C 594 1119.741, 596.533 1120, 608 1120 C 620.118 1120, 622 1119.787, 622 1118.413 C 622 1117.540, 620.612 1116.303, 618.915 1115.663 C 616.625 1114.799, 615.209 1113.141, 613.415 1109.220 C 612.087 1106.317, 611 1103.159, 611 1102.202 C 611 1099.138, 615.938 1093.074, 620.284 1090.802 C 626.155 1087.734, 643.656 1086.989, 651.550 1089.472 C 654.835 1090.505, 658.129 1090.911, 659.962 1090.508 C 669.774 1088.353, 669.168 1072.201, 659.209 1070.407 C 657.169 1070.040, 654.940 1069.295, 654.256 1068.752 C 653.571 1068.209, 651.900 1067.977, 650.541 1068.237 C 649.182 1068.497, 647.942 1068.325, 647.785 1067.855 C 647.628 1067.385, 642.550 1066.888, 636.500 1066.750 C 627.174 1066.538, 624.891 1066.804, 621.500 1068.500 C 619.054 1069.723, 615.500 1070.500, 612.351 1070.500 C 607.435 1070.500, 606.941 1070.243, 601.440 1064.829 C 596.064 1059.538, 595.652 1058.801, 595.297 1053.829 C 595.045 1050.308, 595.418 1047.652, 596.398 1046 C 597.213 1044.625, 598.552 1042.054, 599.374 1040.286 C 600.352 1038.181, 601.840 1036.840, 603.684 1036.401 C 605.233 1036.033, 607.270 1035.062, 608.212 1034.245 C 609.240 1033.352, 613.636 1032.385, 619.212 1031.824 C 624.320 1031.311, 629.175 1030.617, 630 1030.282 C 632.259 1029.365, 633.396 1029.307, 634.500 1030.053 C 635.050 1030.425, 638.137 1030.988, 641.360 1031.304 C 644.583 1031.620, 649.355 1032.646, 651.964 1033.584 C 654.933 1034.652, 657.746 1035.030, 659.482 1034.594 C 663.056 1033.697, 668 1028.753, 668 1026.077 C 668 1024.935, 668.468 1024, 669.040 1024 C 669.613 1024, 668.938 1022.767, 667.540 1021.260 C 666.143 1019.753, 665 1018.008, 665 1017.382 C 665 1016.199, 663.845 1015.692, 653 1012.121 C 643.577 1009.017, 618.923 1008.978, 612.887 1012.058 C 606.600 1015.265, 603.277 1014.418, 599.060 1008.532 C 595.921 1004.152, 595.500 1002.851, 595.503 997.532 C 595.506 992.256, 595.937 990.901, 598.943 986.721 C 600.834 984.093, 603.432 981.679, 604.716 981.356 C 606.001 981.034, 607.484 979.964, 608.012 978.978 C 609.019 977.095, 618.037 973.604, 626.500 971.820 C 634.315 970.173, 659.233 971.520, 666 973.955 C 669.025 975.044, 672.887 975.949, 674.583 975.967 C 676.279 975.985, 678.004 976.337, 678.417 976.750 C 678.829 977.163, 679.467 977.519, 679.833 977.542 C 680.200 977.565, 681.850 978.296, 683.500 979.167 C 687.069 981.050, 696.999 984, 699.769 984 C 700.848 984, 702.916 983.067, 704.365 981.927 C 706.469 980.273, 707 979.003, 707 975.630 C 707 972.019, 706.419 970.839, 703 967.500 C 700.800 965.352, 699 963.964, 699 964.416 C 699 964.868, 697.507 964.099, 695.683 962.707 C 693.792 961.265, 690.245 959.863, 687.433 959.446 C 684.720 959.044, 680.932 957.879, 679.015 956.857 C 676.744 955.647, 673.433 954.995, 669.515 954.985 C 662.427 954.967, 660.705 954.122, 661.163 950.887 C 661.433 948.976, 662.198 948.429, 665 948.144 C 669.950 947.641, 688 950.031, 688 951.189 C 688 951.719, 689.483 952.025, 691.296 951.869 C 693.174 951.707, 696.292 952.466, 698.546 953.633 C 700.721 954.759, 703.774 955.995, 705.331 956.379 C 710.418 957.636, 727.386 970.201, 735.878 979 C 743.610 987.012, 755 1001.609, 755 1003.506 C 755 1004.157, 755.900 1005.505, 757 1006.500 C 758.100 1007.495, 759 1008.911, 759 1009.647 C 759 1010.382, 759.900 1011.545, 761 1012.232 C 762.100 1012.919, 763 1013.951, 763 1014.524 C 763 1015.695, 768.527 1024.707, 772.437 1029.911 C 773.847 1031.787, 775 1033.869, 775 1034.539 C 775 1035.208, 775.634 1036.281, 776.408 1036.924 C 777.182 1037.566, 778.568 1039.678, 779.488 1041.616 C 781.327 1045.490, 787.798 1049, 793.104 1049 C 797.238 1049, 817.364 1054.041, 818.149 1055.272 C 818.506 1055.833, 819.504 1056.021, 820.367 1055.689 C 821.230 1055.358, 822.202 1055.518, 822.527 1056.044 C 822.852 1056.570, 824.048 1057, 825.185 1057 C 826.322 1057, 832.482 1058.157, 838.876 1059.571 C 864.571 1065.254, 867.747 1065.884, 874 1066.541 C 877.575 1066.916, 881.073 1067.687, 881.774 1068.254 C 882.475 1068.821, 883.316 1069.017, 883.643 1068.690 C 883.970 1068.363, 884.859 1068.716, 885.618 1069.476 C 886.378 1070.235, 889.587 1071.125, 892.749 1071.453 C 902.202 1072.434, 909.112 1073.731, 916.268 1075.865 C 923.774 1078.103, 927.973 1077.518, 931.250 1073.777 C 934.778 1069.749, 932.832 1060, 928.501 1060 C 927.755 1060, 926.240 1058.849, 925.133 1057.442 C 924.027 1056.035, 922.531 1054.981, 921.811 1055.100 C 920.428 1055.327, 918.561 1054.748, 913.266 1052.451 C 911.488 1051.679, 905.625 1050.389, 900.238 1049.583 C 894.851 1048.778, 889.189 1047.642, 887.656 1047.059 C 886.124 1046.477, 883.576 1046, 881.994 1046 C 880.412 1046, 878.813 1045.506, 878.440 1044.902 C 878.067 1044.299, 877.840 1038.863, 877.936 1032.822 C 878.058 1025.181, 877.724 1021.373, 876.840 1020.307 C 874.798 1017.847, 880.508 1013.454, 887.664 1011.979 C 890.874 1011.318, 895.525 1010.177, 898 1009.444 C 900.475 1008.711, 907 1007.574, 912.500 1006.917 C 918 1006.260, 923.625 1005.263, 925 1004.701 C 926.375 1004.139, 928.096 1003.779, 928.824 1003.901 C 929.552 1004.022, 930.859 1003.532, 931.728 1002.811 C 933.994 1000.930, 988.974 1000.906, 991.240 1002.785 C 992.092 1003.492, 993.174 1003.982, 993.645 1003.874 C 994.115 1003.765, 995.803 1004.213, 997.395 1004.869 C 998.988 1005.525, 1003.038 1006.314, 1006.395 1006.623 C 1012.143 1007.151, 1024.693 1010.239, 1028 1011.938 C 1029.968 1012.949, 1030.595 1018.328, 1031.504 1042 C 1031.916 1052.725, 1032.540 1061.950, 1032.892 1062.500 C 1033.625 1063.646, 1033.563 1065.825, 1032.736 1068 C 1032.422 1068.825, 1031.889 1075.745, 1031.551 1083.379 C 1031.213 1091.012, 1030.052 1101.812, 1028.971 1107.379 C 1027.890 1112.945, 1027.005 1118.063, 1027.003 1118.750 C 1027.001 1119.676, 1029.922 1120, 1038.287 1120 L 1049.574 1120 1051.307 1107.750 C 1053.785 1090.241, 1054.831 1069.400, 1053.930 1055.500 C 1053.502 1048.900, 1053.118 1038.952, 1053.076 1033.393 L 1053 1023.286 1058 1018.286 L 1063 1013.286 1063 998.953 C 1063 986.446, 1061.962 975.992, 1060.225 971 C 1059.938 970.175, 1059.796 968.530, 1059.910 967.346 C 1060.025 966.161, 1059.642 964.896, 1059.059 964.536 C 1058.477 964.177, 1058 962.498, 1058 960.806 C 1058 955.646, 1049.691 917.675, 1047.320 912 C 1046.975 911.175, 1046.625 910.050, 1046.542 909.500 C 1046.459 908.950, 1045.805 907.150, 1045.088 905.500 C 1044.372 903.850, 1042.954 899.800, 1041.938 896.500 C 1038.544 885.481, 1035.083 875.805, 1034.121 874.646 C 1033.598 874.016, 1033.127 873.165, 1033.074 872.755 C 1033.022 872.345, 1031.859 869.476, 1030.489 866.380 C 1029.120 863.284, 1027.970 860.245, 1027.934 859.626 C 1027.898 859.007, 1026.210 855.309, 1024.184 851.408 C 1022.158 847.508, 1018.886 841.208, 1016.914 837.408 C 1013.068 830, 1008.617 823.081, 1001.536 813.500 C 999.097 810.200, 997.079 807.223, 997.051 806.884 C 996.929 805.410, 971.312 778.802, 968.930 777.676 C 968.144 777.304, 965.475 775.427, 963 773.505 C 955.342 767.557, 947.425 762.116, 942.500 759.416 C 940.850 758.512, 938.375 756.749, 937 755.498 C 935.625 754.248, 933.375 752.887, 932 752.475 C 930.625 752.062, 928.427 750.887, 927.115 749.862 C 925.803 748.838, 924.046 748, 923.210 748 C 922.373 748, 920.184 746.852, 918.344 745.449 C 916.505 744.046, 915 743.141, 915 743.437 C 915 743.733, 912.515 742.631, 909.477 740.988 C 906.440 739.345, 903.277 738, 902.447 738 C 901.618 738, 898.267 736.875, 895 735.500 C 891.733 734.125, 887.982 733, 886.665 733 C 885.348 733, 883.159 732.126, 881.802 731.059 C 880.444 729.991, 876.671 728.445, 873.417 727.624 C 870.162 726.802, 865.025 725.451, 862 724.622 C 854.164 722.472, 843.013 719.842, 839.500 719.314 C 837.850 719.066, 835.520 718.386, 834.322 717.801 C 833.124 717.217, 830.976 716.963, 829.548 717.236 C 828.120 717.508, 826.711 717.342, 826.417 716.866 C 826.123 716.390, 824.199 716, 822.141 716 C 818.617 716, 816 714.626, 816 712.777 C 816 712.324, 819.097 708.701, 822.882 704.727 C 831.981 695.173, 834.373 692.150, 835.954 688.212 C 836.680 686.403, 838.052 684.507, 839.003 683.998 C 840.099 683.412, 840.917 681.431, 841.237 678.585 C 841.674 674.715, 842.729 673.028, 848.910 666.319 C 852.852 662.042, 856.315 657.407, 856.607 656.021 C 856.898 654.634, 858.033 651.026, 859.129 648.002 C 860.225 644.978, 861.384 639.691, 861.705 636.252 C 862.026 632.814, 862.787 629.942, 863.395 629.870 C 864.003 629.799, 869.675 629.835, 876 629.950 C 887.837 630.165, 896.325 628.904, 898.984 626.536 C 899.818 625.794, 902.394 624.682, 904.708 624.066 C 907.022 623.450, 909.179 622.520, 909.501 621.999 C 909.822 621.479, 913.506 619.353, 917.687 617.276 C 921.869 615.199, 925.502 612.712, 925.761 611.750 C 926.021 610.788, 926.764 610, 927.414 610 C 928.708 610, 935.545 603.321, 937.361 600.283 C 940.858 594.433, 943.280 591, 943.912 591 C 944.305 591, 945.273 589.313, 946.063 587.250 C 946.854 585.188, 948.446 581.688, 949.603 579.474 C 950.760 577.259, 952.010 573.420, 952.382 570.941 C 952.753 568.463, 954.010 564.875, 955.173 562.967 C 958.315 557.821, 959.736 539.717, 958.272 523.494 C 957.655 516.650, 956.785 510.477, 956.340 509.775 C 955.895 509.074, 955.483 508.275, 955.425 508 C 955.367 507.725, 954.572 505.827, 953.660 503.782 C 952.747 501.737, 952 499.542, 952 498.904 C 952 496.544, 945.828 487.062, 940.990 481.989 C 938.245 479.112, 936 476.341, 936 475.831 C 936 475.321, 937.021 473.913, 938.269 472.702 C 944.762 466.400, 951.308 454.089, 953.071 444.863 C 953.740 441.363, 954.723 437.943, 955.255 437.263 C 955.788 436.582, 955.968 435.359, 955.656 434.545 C 955.343 433.730, 955.518 432.798, 956.044 432.473 C 957.296 431.699, 957.286 427, 956.031 427 C 955.499 427, 955.333 426.295, 955.664 425.433 C 955.995 424.570, 955.790 422.883, 955.209 421.683 C 954.628 420.482, 953.377 416.898, 952.430 413.718 C 951.482 410.538, 950.316 407.695, 949.838 407.400 C 949.360 407.105, 948.307 405.278, 947.498 403.341 C 945.902 399.522, 946.384 397.773, 949.907 394.584 C 951.058 393.542, 952 392.133, 952 391.452 C 952 390.771, 952.656 389.962, 953.457 389.655 C 956.701 388.410, 965.589 371.555, 966.640 364.652 C 966.988 362.368, 967.717 359.938, 968.259 359.250 C 968.801 358.563, 968.910 358, 968.500 358 C 968.090 358, 968.373 357.254, 969.128 356.343 C 970.765 354.366, 970.970 336.823, 969.362 336.287 C 968.807 336.102, 968.542 334.665, 968.773 333.094 C 969.004 331.523, 968.699 329.932, 968.096 329.559 C 967.493 329.187, 967 327.984, 967 326.886 C 967 324.182, 961.912 312.425, 958.610 307.500 C 954.411 301.237, 946.045 294.036, 939.750 291.268 C 936.587 289.877, 934 288.347, 934 287.869 C 934 287.391, 933.325 287, 932.500 287 C 930.614 287, 930.582 284.708, 932.418 281.158 C 933.198 279.650, 934.597 273.462, 935.526 267.406 L 937.217 256.397 934.637 243.126 C 932.652 232.918, 931.489 229.181, 929.597 226.933 C 928.245 225.326, 926.837 223.062, 926.469 221.902 C 924.346 215.212, 907.624 198.241, 898.820 193.841 C 885.316 187.093, 882.680 186.500, 866.180 186.500 C 853.566 186.500, 850.726 186.235, 850.103 185 C 849.686 184.175, 848.780 179.900, 848.089 175.500 C 845.766 160.706, 837.994 145.939, 826.973 135.377 C 822.116 130.721, 814.236 125.012, 812.658 125.004 C 812.194 125.002, 810.671 124.100, 809.273 123 C 807.874 121.900, 805.932 121, 804.957 121 C 803.982 121, 800.800 119.763, 797.886 118.250 C 793.120 115.776, 791.365 115.465, 780.428 115.151 C 766.999 114.765, 755.642 116.109, 753.132 118.381 C 752.234 119.193, 751.050 119.943, 750.500 120.049 C 747.079 120.702, 739.290 125.221, 735.844 128.551 C 734.896 129.467, 732.991 130.012, 731.386 129.826 C 729.055 129.555, 728.301 128.708, 726.906 124.797 C 725.225 120.081, 722.878 116.528, 717.750 110.932 C 716.237 109.281, 715 107.544, 715 107.071 C 715 105.935, 709.908 100.564, 708 99.689 C 707.175 99.310, 704.475 97.419, 702 95.486 C 699.525 93.553, 695.925 91.258, 694 90.386 C 692.075 89.514, 689.825 88.213, 689 87.495 C 688.175 86.777, 685.475 85.800, 683 85.324 C 679.806 84.709, 678.213 83.811, 677.513 82.229 C 676.533 80.016, 676.356 80, 653.374 80 C 632.381 80, 630.235 80.155, 630.361 81.666 M 636 103.129 C 634.075 103.702, 631.665 104.920, 630.645 105.835 C 629.625 106.751, 628.500 107.445, 628.145 107.377 C 622.327 106.271, 597.486 124.690, 594.938 132 C 594.266 133.925, 593.106 135.860, 592.359 136.300 C 591.611 136.740, 590.292 138.468, 589.427 140.141 C 587.981 142.937, 587.992 143.333, 589.560 145.066 C 591.207 146.887, 591.524 146.686, 598.883 139.161 C 607.899 129.942, 612.809 126.188, 616.932 125.364 C 618.595 125.031, 620.460 124.150, 621.078 123.406 C 621.696 122.662, 623.843 121.781, 625.850 121.449 C 627.858 121.116, 630.175 120.581, 631 120.258 C 631.825 119.936, 632.725 119.622, 633 119.560 C 633.275 119.499, 634.819 118.567, 636.431 117.491 C 640.600 114.706, 663.427 114.691, 669.500 117.469 C 671.700 118.476, 674.288 119.203, 675.250 119.087 C 676.212 118.970, 677 119.353, 677 119.937 C 677 120.522, 677.887 121, 678.970 121 C 687.261 121, 709.783 140.697, 711.410 149.372 C 711.853 151.732, 712.645 153, 713.677 153 C 717.251 153, 712.503 138.816, 705.678 129.105 C 698.943 119.520, 684.446 108, 679.119 108 C 677.954 108, 677 107.523, 677 106.941 C 677 106.359, 676.625 106.114, 676.166 106.398 C 675.707 106.681, 673.344 105.920, 670.916 104.707 C 667.100 102.800, 664.664 102.472, 653 102.294 C 645.575 102.180, 637.925 102.556, 636 103.129 M 516.500 125.500 C 506.233 128.207, 502.134 130.149, 494.475 135.931 C 489.376 139.781, 479 151.156, 479 152.896 C 479 153.332, 477.901 154.968, 476.557 156.532 C 475.213 158.096, 474.321 159.710, 474.573 160.119 C 474.826 160.527, 474.635 161.108, 474.148 161.408 C 473.662 161.709, 472.961 164.237, 472.591 167.025 C 472.221 169.813, 470.976 173.903, 469.824 176.112 C 468.196 179.237, 467.998 180.394, 468.932 181.315 C 470.620 182.978, 473.182 179.347, 472.814 175.812 C 472.641 174.152, 473.351 172.241, 474.671 170.812 C 475.847 169.541, 477.544 166.925, 478.444 165 C 482.048 157.285, 484.032 154.120, 486.458 152.212 C 487.856 151.112, 489 149.797, 489 149.290 C 489 147.835, 496.175 141.841, 499.682 140.367 C 501.432 139.632, 503.125 138.606, 503.446 138.088 C 503.766 137.570, 505.709 136.606, 507.764 135.947 C 509.819 135.287, 512.267 134.078, 513.205 133.259 C 514.664 131.986, 530.495 128.073, 535 127.871 C 535.825 127.834, 539.842 128.546, 543.927 129.452 C 551.702 131.178, 557.576 131.199, 557.391 129.500 C 557.331 128.950, 555.756 128.002, 553.891 127.393 C 552.026 126.784, 548.190 125.547, 545.366 124.643 C 538.133 122.329, 527.308 122.650, 516.500 125.500 M 763 139.121 C 753.427 141.695, 749.309 143.447, 744.521 146.984 C 741.646 149.108, 737.541 151.671, 735.397 152.681 C 731.962 154.298, 731.500 154.930, 731.500 158.008 C 731.500 161.268, 731.693 161.479, 734.405 161.188 C 736.003 161.016, 738.091 159.883, 739.045 158.670 C 741.765 155.212, 749.109 152.063, 758.178 150.467 C 779.562 146.704, 794.624 151.048, 811.467 165.837 C 813.410 167.543, 815 169.209, 815 169.539 C 815 169.869, 816.288 172.021, 817.863 174.320 C 819.438 176.619, 821.072 179.625, 821.494 181 C 821.917 182.375, 823.150 184.760, 824.235 186.300 C 825.320 187.840, 826.004 189.878, 825.755 190.829 C 825.115 193.275, 827.877 195.796, 829.104 193.888 C 830.279 192.060, 829.287 187.334, 826.833 183.073 C 825.747 181.189, 825.074 178.826, 825.336 177.823 C 825.598 176.821, 825.405 176, 824.906 176 C 824.408 176, 824 174.890, 824 173.534 C 824 170.880, 817.847 158.948, 815.455 156.963 C 814.655 156.299, 814 155.135, 814 154.378 C 814 153.620, 813.380 153, 812.622 153 C 811.865 153, 810.662 152.297, 809.949 151.438 C 807.160 148.078, 797.589 142.657, 790.436 140.386 C 782.406 137.836, 769.922 137.260, 763 139.121 M 453.704 183.973 C 453.087 185.609, 451.888 187.253, 451.041 187.627 C 450.193 188.002, 443.200 188.423, 435.500 188.563 C 421.072 188.826, 410.799 190.963, 401.874 195.557 C 392.694 200.283, 380.862 213.485, 378.362 221.793 C 377.619 224.262, 376.482 226.919, 375.836 227.698 C 375.190 228.476, 374.342 233.332, 373.952 238.487 C 372.665 255.502, 376.566 264.862, 378.409 249.181 C 379.262 241.916, 382.178 231, 383.265 231 C 383.731 231, 384.981 229.036, 386.043 226.636 C 388.352 221.416, 399.776 208.801, 405.447 205.209 C 407.676 203.797, 412.425 201.069, 416 199.146 L 422.500 195.651 438.976 195.575 L 455.452 195.500 456.362 192.500 C 457.717 188.038, 457.877 187.658, 459.244 185.691 C 460.299 184.171, 460.190 183.653, 458.559 182.441 C 455.772 180.372, 454.967 180.626, 453.704 183.973 M 849.685 211.614 C 843.871 215.420, 845.254 216.430, 857.080 217.016 C 864.228 217.369, 868.520 218.076, 870.750 219.266 C 872.538 220.220, 875.462 221.732, 877.250 222.627 C 887.874 227.947, 894.123 232.699, 896.682 237.402 C 897.682 239.240, 900.343 243.464, 902.596 246.788 C 905.440 250.985, 907.068 254.767, 907.926 259.166 C 908.605 262.650, 909.581 266.548, 910.094 267.829 C 911.761 271.981, 913.482 269.710, 913.814 262.921 C 914.352 251.940, 907.163 229.992, 901.966 226.747 C 900.885 226.071, 900 225.052, 900 224.482 C 900 222.165, 886.417 213, 882.983 213 C 882.514 213, 880.863 212.478, 879.315 211.840 C 877.767 211.201, 875.971 210.763, 875.325 210.866 C 874.679 210.969, 873.865 210.591, 873.516 210.027 C 873.149 209.432, 868.805 209.025, 863.191 209.059 C 854.598 209.111, 853.068 209.401, 849.685 211.614 M 827 214.500 C 827 215.325, 826.627 216, 826.171 216 C 824.925 216, 825.327 220.388, 826.652 221.245 C 828.061 222.156, 833.818 221.104, 834.632 219.786 C 835.194 218.877, 829.326 213.126, 827.750 213.041 C 827.337 213.018, 827 213.675, 827 214.500 M 587.787 278.399 C 570.740 297.840, 537.725 304.518, 514.333 293.259 C 510.187 291.263, 506.568 289.039, 506.291 288.315 C 506.013 287.592, 505.253 287, 504.601 287 C 503.950 287, 501.412 284.958, 498.963 282.463 C 493.417 276.811, 490.929 276.819, 489.756 282.492 C 489.302 284.688, 486.628 291.118, 483.814 296.781 C 479.407 305.647, 477.595 308.114, 470.765 314.539 C 466.403 318.642, 462.389 322, 461.845 322 C 461.301 322, 458.751 323.236, 456.178 324.746 C 453.605 326.257, 451.275 327.532, 451 327.580 C 450.725 327.628, 449.150 328.277, 447.500 329.023 C 445.722 329.826, 440.123 330.479, 433.756 330.626 C 427.847 330.763, 422.559 331.154, 422.006 331.496 C 420.707 332.299, 420.703 335.699, 422 336.500 C 423.272 337.286, 423.310 344.290, 422.048 345.552 C 421.525 346.075, 420.409 350.449, 419.568 355.271 C 417.483 367.226, 414.660 373.488, 408.419 380 L 403.148 385.500 403.227 405 C 403.271 415.725, 402.747 428.972, 402.064 434.438 C 401.123 441.960, 401.086 446.699, 401.912 453.938 C 402.512 459.197, 403.176 468.151, 403.386 473.835 C 403.820 485.525, 404.769 487.506, 408.332 484.158 C 409.629 482.939, 412.448 481.028, 414.595 479.910 C 418.052 478.110, 421.816 477.137, 437.500 473.991 C 439.700 473.549, 445.444 472.867, 450.265 472.474 C 455.086 472.082, 459.275 471.365, 459.574 470.880 C 460.276 469.744, 489.711 469.724, 490.413 470.859 C 490.705 471.331, 493.911 472.022, 497.538 472.394 C 501.165 472.765, 505.790 473.690, 507.816 474.449 C 509.842 475.208, 512.823 476.123, 514.440 476.481 C 517.539 477.169, 529.106 483.735, 532.500 486.734 C 533.600 487.705, 536.454 490.863, 538.843 493.750 C 543.470 499.343, 545.883 500.171, 549.723 497.482 C 550.915 496.647, 552.252 496.044, 552.695 496.143 C 553.138 496.242, 554.831 495.776, 556.457 495.107 C 564.535 491.787, 583.397 491.793, 591.631 495.118 C 595.345 496.617, 599.211 496.770, 600.599 495.472 C 601.204 494.907, 602.254 492.762, 602.932 490.705 C 604.419 486.199, 615.793 474.317, 620.034 472.838 C 621.665 472.270, 623 471.372, 623 470.843 C 623 470.315, 623.450 470.160, 624 470.500 C 624.550 470.840, 625 470.703, 625 470.195 C 625 469.687, 627.138 468.498, 629.750 467.553 C 632.362 466.608, 636.525 465.025, 639 464.036 C 641.475 463.047, 648 461.466, 653.500 460.523 C 659 459.580, 664.333 458.369, 665.352 457.832 C 667.780 456.552, 700.001 455.403, 699.998 456.597 C 699.997 457.093, 702.971 457.347, 706.608 457.160 C 710.508 456.959, 713.667 457.267, 714.310 457.910 C 714.909 458.509, 716.856 459, 718.635 459 C 726.692 459, 746.402 464.459, 754 468.795 C 758.752 471.507, 766.341 478.524, 767.152 480.955 C 767.566 482.198, 769.141 482.220, 778.566 481.119 C 784.580 480.416, 797.144 479.313, 806.487 478.667 C 825.563 477.348, 825.446 477.411, 822.917 469.750 C 821.911 466.701, 821.888 465.409, 822.812 463.929 C 825.230 460.057, 823.034 454, 819.212 454 C 817.472 454, 810.933 446.502, 807.616 440.703 C 804.712 435.626, 804.638 435.160, 804.593 421.500 C 804.551 408.724, 804.792 406.781, 807.347 399.277 C 811.267 387.761, 811.022 386.998, 802.500 384.209 C 798.650 382.949, 795.006 381.269, 794.401 380.475 C 793.797 379.681, 793.009 379.324, 792.651 379.682 C 792.293 380.040, 792 379.808, 792 379.167 C 792 378.525, 791.372 378, 790.603 378 C 788.468 378, 775 364.061, 775 361.851 C 775 360.783, 773.914 358.823, 772.587 357.496 C 767.908 352.817, 765.780 333.187, 768.468 319.500 C 769.274 315.398, 767.758 313.099, 765.643 315.214 C 763.254 317.603, 749.130 321, 741.586 321 C 732.357 321, 719.529 317.445, 715.561 313.787 C 714.495 312.804, 712.884 312, 711.982 312 C 709.889 312, 698 301.299, 698 299.416 C 698 298.637, 697.363 298, 696.585 298 C 694.706 298, 690.266 289.915, 688.666 283.577 C 687.111 277.417, 684.572 276.499, 679.919 280.415 C 678.247 281.822, 672.743 284.949, 667.689 287.363 C 660.275 290.904, 656.761 291.953, 649.500 292.796 C 639.126 293.999, 625.917 292.887, 620.186 290.327 C 618.159 289.422, 616.275 288.639, 616 288.588 C 613.997 288.214, 600.638 278.300, 598.957 275.940 C 595.859 271.588, 593.258 272.161, 587.787 278.399 M 921 308.844 C 921 309.309, 923.963 312.346, 927.584 315.594 C 935.421 322.624, 939.453 328.264, 940.448 333.591 C 940.850 335.741, 941.637 338.054, 942.196 338.731 C 942.756 339.408, 943.041 341.771, 942.830 343.981 C 942.620 346.192, 942.797 348, 943.224 348 C 944.161 348, 944.269 353.398, 943.351 354.316 C 942.118 355.549, 942.454 362.001, 943.750 362.001 C 944.438 362, 945 361.756, 945 361.458 C 945 361.160, 945.697 357.541, 946.549 353.417 C 948.588 343.547, 947.127 331.943, 943.137 326.308 C 937.805 318.777, 926.288 308, 923.573 308 C 922.158 308, 921 308.380, 921 308.844 M 665.500 411.053 C 660.550 412.082, 655.190 412.940, 653.588 412.961 C 649.237 413.019, 642.478 417.454, 637.885 423.265 C 633.151 429.254, 633.051 432.895, 637.479 438.157 C 643.278 445.049, 650.107 447.656, 654.527 444.666 C 658.535 441.955, 673.599 439, 683.412 439 C 689.348 439, 702.360 441.317, 708.760 443.513 C 709.454 443.751, 710.354 444.011, 710.760 444.091 C 711.167 444.171, 712.388 444.859, 713.473 445.618 C 717.446 448.401, 722.326 447.369, 727.361 442.680 C 731.671 438.667, 732 438.010, 731.995 433.430 C 731.989 427.923, 730.434 425.534, 723.340 420.139 C 717.706 415.853, 713.054 414.366, 696.228 411.470 C 679.501 408.591, 677.485 408.564, 665.500 411.053 M 926.180 414.240 C 926.356 415.472, 927.252 416.623, 928.170 416.798 C 929.869 417.121, 930.090 415.534, 928.663 413.250 C 927.388 411.209, 925.836 411.827, 926.180 414.240 M 468.500 424.048 C 466.850 424.512, 462.575 425.564, 459 426.385 C 450.472 428.344, 446.205 430.198, 440.880 434.258 C 438.471 436.096, 435.781 437.874, 434.902 438.210 C 433.053 438.917, 429 447.019, 429 450.009 C 429 452.779, 433.422 459.575, 436.564 461.634 C 439.677 463.673, 445.662 463.616, 447.972 461.525 C 448.899 460.686, 450.028 460, 450.482 460 C 450.935 460, 454.275 458.588, 457.903 456.863 C 464.210 453.865, 465.052 453.727, 477.059 453.726 C 484.531 453.726, 490.479 454.186, 491.744 454.863 C 494.722 456.457, 501.560 456.279, 504.965 454.518 C 506.645 453.649, 509.095 450.700, 510.890 447.387 L 513.950 441.738 511.975 438.965 C 510.889 437.439, 510 435.801, 510 435.323 C 510 434.846, 508.626 432.789, 506.947 430.752 C 503.365 426.406, 500.564 425.503, 486.144 424.046 C 474.438 422.864, 472.712 422.864, 468.500 424.048 M 659.470 483.048 C 659.114 483.624, 658.075 483.971, 657.161 483.818 C 652.878 483.103, 638 492.613, 638 496.067 C 638 496.645, 637.550 496.840, 637 496.500 C 636.450 496.160, 636 496.561, 636 497.391 C 636 498.221, 635.424 499.260, 634.720 499.700 C 632.560 501.049, 626.517 510.179, 623.685 516.371 C 621.186 521.834, 620.096 529.762, 621.631 531.298 C 622.812 532.479, 625.987 529.946, 628.001 526.217 C 630.438 521.705, 632.440 519.016, 641.551 508.014 C 645.430 503.331, 649.622 498.039, 650.868 496.252 C 652.114 494.466, 655.240 491.581, 657.816 489.840 C 660.392 488.100, 662.654 486.558, 662.841 486.413 C 663.029 486.269, 662.886 485.217, 662.524 484.075 C 661.809 481.824, 660.499 481.383, 659.470 483.048 M 898.399 484.164 C 898.114 484.624, 896.820 485, 895.523 485 C 893.330 485, 883.123 489.502, 882 490.965 C 881.725 491.323, 880.548 492.265, 879.385 493.058 C 877.099 494.617, 867 506.363, 867 507.463 C 867 507.832, 865.927 509.566, 864.615 511.317 C 862.902 513.604, 862.029 516.471, 861.513 521.500 C 860.615 530.247, 860.001 531.382, 855.114 533.338 C 852.945 534.206, 850.928 535.308, 850.632 535.787 C 850.336 536.266, 851.535 538.408, 853.297 540.547 C 856.468 544.397, 856.500 544.547, 856.526 555.468 C 856.541 561.906, 857.032 567.355, 857.706 568.554 C 859.043 570.933, 859.652 595.318, 858.534 601.706 C 857.696 606.496, 856.687 605.948, 870.254 608.071 C 880.134 609.617, 888.286 608.752, 896.712 605.263 C 902.179 603, 905.117 600.781, 912.956 593 C 930.723 575.364, 937.805 558.382, 937.144 535 C 936.824 523.691, 935.345 514.647, 932.957 509.405 C 931.881 507.043, 931 504.643, 931 504.072 C 931 502.841, 926.930 498.006, 921.853 493.207 C 918.709 490.236, 915.562 488.653, 904.500 484.477 C 901.519 483.352, 898.981 483.222, 898.399 484.164 M 447.500 494.796 C 446.400 495.040, 444.612 495.861, 443.527 496.620 C 442.443 497.379, 440.193 498.016, 438.527 498.035 C 434.160 498.087, 431.995 499.646, 425.388 507.500 C 416.884 517.609, 414.898 520.692, 413.548 525.877 C 411.085 535.334, 414.137 551.030, 416.983 543.544 C 417.543 542.073, 418 540.549, 418 540.156 C 418 539.763, 420.475 535.724, 423.500 531.179 C 426.525 526.634, 429 522.547, 429 522.096 C 429 521.646, 431.025 519.103, 433.500 516.445 C 435.975 513.788, 438 511.247, 438 510.799 C 438 510.351, 440.925 507.016, 444.500 503.388 C 448.075 499.760, 451 496.415, 451 495.955 C 451 494.712, 449.747 494.297, 447.500 494.796 M 806.500 504.157 C 795.167 504.982, 785.067 507.125, 782.226 509.307 C 781.525 509.845, 780.678 510.011, 780.343 509.676 C 780.008 509.342, 778.826 510.223, 777.716 511.634 C 776.201 513.560, 775.645 515.918, 775.487 521.081 C 775.372 524.865, 774.769 528.573, 774.147 529.322 C 773.526 530.071, 773.303 530.969, 773.651 531.318 C 774 531.666, 773.810 532.525, 773.230 533.226 C 772.650 533.927, 771.658 537.425, 771.025 541 C 770.392 544.575, 768.974 549.525, 767.874 552 C 764.282 560.084, 761.523 565.440, 760.246 566.807 C 759.557 567.546, 757.580 570.254, 755.853 572.825 C 751.795 578.868, 745.959 585, 744.266 585 C 743.535 585, 742.671 585.694, 742.345 586.543 C 742.020 587.391, 739.939 589.079, 737.721 590.293 C 725.267 597.109, 721.228 598.959, 718.750 598.978 C 717.237 598.990, 716 599.477, 716 600.059 C 716 600.641, 715.550 600.840, 715 600.500 C 714.450 600.160, 714 600.324, 714 600.863 C 714 603.401, 705.989 604.369, 684.461 604.434 C 662.517 604.500, 662.399 604.488, 657.316 601.853 C 654.508 600.397, 650.701 598.875, 648.856 598.472 C 647.010 598.069, 644.427 596.898, 643.115 595.870 C 641.803 594.841, 640.300 594, 639.773 594 C 638.129 594, 633.114 589.827, 623.639 580.576 C 615.045 572.185, 611.660 567.917, 608.903 562 C 605.744 555.217, 604.480 553, 603.773 553 C 603.348 553, 603 552.170, 603 551.157 C 603 550.143, 602.100 546.697, 601 543.500 C 599.899 540.299, 599 535.083, 599 531.891 C 599 525.490, 597.545 521.276, 595.098 520.590 C 587.912 518.576, 580.906 517.852, 571.472 518.151 C 561.010 518.482, 560.185 518.667, 555.370 521.759 L 550.296 525.019 549.744 538.964 C 549.346 549.007, 548.731 553.831, 547.546 556.204 C 546.641 558.017, 545.466 561.431, 544.936 563.791 C 544.407 566.151, 542.848 569.864, 541.474 572.041 C 540.099 574.219, 539.222 576, 539.524 576 C 540.129 576, 531.278 587.131, 527.733 590.829 C 519.724 599.183, 506.237 609, 502.768 609 C 502.012 609, 499.038 610.173, 496.161 611.607 C 493.283 613.041, 490.045 613.984, 488.965 613.701 C 487.885 613.419, 486.750 613.596, 486.442 614.094 C 485.728 615.249, 456 615.293, 456 614.139 C 456 613.665, 454.849 613.497, 453.442 613.766 C 451.835 614.073, 449.141 613.310, 446.192 611.712 C 443.612 610.313, 439.808 608.854, 437.739 608.471 C 435.670 608.087, 433.739 607.387, 433.448 606.915 C 433.156 606.443, 431.023 605.190, 428.709 604.131 C 426.394 603.072, 422.305 600.116, 419.622 597.562 C 416.939 595.008, 414.246 593.085, 413.638 593.287 C 412.984 593.505, 412.470 596.618, 412.382 600.890 C 412.249 607.349, 412.513 608.456, 414.851 611.234 C 417.096 613.903, 417.542 615.557, 417.984 622.863 L 418.500 631.381 422 632.264 C 426.881 633.495, 428.151 635.068, 429.097 641.050 C 430.173 647.857, 432.055 649.824, 437.852 650.200 C 441.893 650.462, 442.661 650.883, 443.872 653.500 C 444.635 655.150, 446.073 657.400, 447.069 658.500 C 448.064 659.600, 448.960 660.950, 449.059 661.500 C 449.158 662.050, 449.647 663.572, 450.145 664.882 C 450.991 667.107, 451.170 667.156, 452.854 665.632 C 457.653 661.289, 465.763 666.401, 468.662 675.596 L 470.374 681.029 473.485 678.015 C 477.325 674.292, 480.704 674.157, 486.020 677.513 C 488.878 679.317, 490 680.710, 490 682.454 C 490 683.789, 490.393 685.125, 490.873 685.421 C 491.353 685.718, 492.075 680.007, 492.477 672.730 C 493.105 661.373, 493.548 658.921, 495.604 655.412 C 496.922 653.164, 498 650.592, 498 649.697 C 498 648.802, 498.838 647.622, 499.863 647.073 C 500.887 646.525, 502.326 644.597, 503.061 642.788 C 504.782 638.547, 510.759 633, 513.606 633 C 514.824 633, 518.008 631.271, 520.681 629.158 C 527.571 623.712, 529.222 623, 534.964 623 C 538.199 623, 542.312 622.052, 546.225 620.405 C 554.814 616.790, 566.225 616.481, 570.398 619.750 C 573.903 622.496, 577.619 622.638, 579.840 620.109 C 580.822 618.991, 584.667 617.500, 589.250 616.460 C 593.513 615.493, 597 614.318, 597 613.851 C 597 612.099, 603.091 613.091, 607.521 615.564 C 611.973 618.049, 612.338 618.091, 619.537 616.930 C 628.515 615.481, 632.710 616.051, 637.618 619.386 C 640.677 621.465, 642.097 621.811, 645.599 621.331 C 651.186 620.566, 653.873 621.323, 658.439 624.952 C 660.514 626.600, 663.757 628.239, 665.647 628.593 C 668.011 629.037, 670.863 631.029, 674.791 634.980 C 685.040 645.287, 689.370 652.193, 690.386 659.849 C 691.296 666.709, 691.871 668, 694.018 668 C 695.795 668, 701 673.276, 701 675.077 C 701 677.194, 703.074 675.767, 704.382 672.750 C 705.157 670.962, 707.096 667.976, 708.691 666.114 C 711.137 663.257, 712.252 662.727, 715.816 662.727 C 720.414 662.727, 723.221 664.592, 725.628 669.248 C 727.644 673.147, 728.672 672.676, 729.448 667.497 C 730.976 657.308, 740.140 650.658, 746.407 655.190 C 750.025 657.806, 751.835 656.872, 753.673 651.442 C 756.162 644.089, 764.340 640.027, 769.650 643.506 C 772.632 645.460, 775 644.104, 775 640.443 C 775 636.687, 776.649 633.417, 780.473 629.594 C 784.166 625.901, 788.460 624.860, 790.713 627.113 C 792.816 629.216, 793.742 627.026, 794.216 618.824 C 794.684 610.737, 794.755 610.551, 798.596 607.229 C 801.549 604.675, 803.134 603.979, 805.104 604.372 C 808.857 605.121, 810 603.362, 810 596.834 C 810 588.964, 815.500 578.488, 820.170 577.463 C 823.223 576.792, 823.229 576.777, 822.725 571.145 C 822.225 565.556, 823.708 557, 825.176 557 C 825.595 557, 825.678 556.325, 825.362 555.500 C 825.045 554.675, 825.218 554, 825.745 554 C 826.273 554, 827.199 551.015, 827.804 547.366 C 828.534 542.956, 829.662 539.924, 831.168 538.321 C 833.049 536.318, 833.225 535.621, 832.202 534.205 C 828.433 528.985, 827.007 526.270, 827.004 524.309 C 827.002 523.104, 826.523 521.823, 825.939 521.462 C 825.308 521.072, 824.961 517.660, 825.083 513.041 C 825.196 508.770, 824.972 504.764, 824.585 504.138 C 823.816 502.894, 823.860 502.894, 806.500 504.157 M 377.772 527.250 C 376.417 529.038, 374.527 532.862, 373.573 535.750 C 372.620 538.638, 371.399 541, 370.861 541 C 370.322 541, 370.136 541.412, 370.447 541.915 C 370.758 542.418, 370.447 543.018, 369.756 543.248 C 368.246 543.751, 367.947 569.289, 369.414 572.500 C 369.916 573.600, 370.407 574.725, 370.504 575 C 370.601 575.275, 371.428 577.173, 372.340 579.218 C 373.253 581.263, 374.007 584.188, 374.015 585.718 C 374.023 587.248, 374.585 589.451, 375.265 590.614 C 375.944 591.777, 377.484 594.477, 378.686 596.614 C 381.179 601.045, 388.282 609, 389.746 609 C 390.283 609, 390.948 605.048, 391.223 600.217 C 391.907 588.222, 395.473 582, 401.663 582 C 402.884 582, 404.092 581.659, 404.350 581.243 C 404.776 580.553, 399.708 572.239, 397.038 569.250 C 396.424 568.563, 396.250 568, 396.652 568 C 397.054 568, 396.667 567.438, 395.793 566.750 C 394.919 566.063, 393.465 562.474, 392.562 558.776 C 391.659 555.078, 390.219 550.376, 389.363 548.327 C 388.507 546.278, 387.433 540.614, 386.976 535.741 C 386.518 530.867, 385.607 526.231, 384.950 525.439 C 383.019 523.113, 380.411 523.771, 377.772 527.250 M 630.459 651.066 C 630.097 651.652, 627.978 653.452, 625.750 655.066 C 620.902 658.578, 615.977 658.893, 611.226 655.996 C 606.805 653.301, 603.766 653.485, 599.973 656.676 C 597.656 658.626, 595.354 659.472, 591.499 659.792 C 586.397 660.215, 586.034 660.073, 581.473 655.868 L 576.740 651.506 575.120 653.981 C 572.371 658.182, 570.271 659.839, 566.117 661.083 C 562.597 662.138, 561.463 662.014, 556.627 660.052 C 550.716 657.653, 547.969 657.889, 544.452 661.100 C 541.123 664.139, 536.495 664.601, 534.361 662.108 C 531.556 658.833, 529.592 659.541, 524.262 665.750 L 519.326 671.500 519.415 683.043 C 519.504 694.560, 519.512 694.596, 522.836 698.793 C 524.669 701.107, 526.603 703, 527.135 703 C 527.667 703, 528.756 704.566, 529.556 706.480 C 531.253 710.542, 534.014 712.515, 539.295 713.442 C 541.945 713.907, 543.347 714.783, 543.941 716.345 C 545.442 720.292, 547.502 721.256, 552.863 720.519 C 556.013 720.086, 558.024 720.230, 558.451 720.921 C 560.182 723.722, 565.168 720.588, 565.485 716.500 C 565.679 713.988, 569.277 707.469, 571.759 705.130 C 574.426 702.616, 574.884 702.543, 588.793 702.414 C 601.754 702.293, 603.327 702.469, 605.665 704.308 C 608.888 706.843, 611 711.776, 611 716.768 C 611 718.876, 611.540 721.140, 612.200 721.800 C 613.654 723.254, 618.641 723.390, 619.500 722 C 620.393 720.555, 624.208 720.771, 628.346 722.500 C 632.956 724.426, 632.363 724.570, 636.977 720.402 C 640.599 717.129, 641.405 716.836, 645.897 717.152 C 650.952 717.508, 653 716.192, 653 712.585 C 653 710.387, 655.863 708, 658.500 708 C 662.678 708, 663.997 705.542, 664.035 697.679 C 664.057 693.351, 664.638 689.507, 665.500 688 C 666.286 686.625, 666.945 683.925, 666.964 682 C 667.006 677.827, 663.577 668.308, 661.020 665.500 C 660.019 664.400, 659.037 662.603, 658.838 661.508 C 658.327 658.697, 653.231 656.374, 650.845 657.865 C 649.845 658.489, 647.322 659, 645.239 659 C 642.043 659, 640.788 658.296, 637.216 654.500 C 632.855 649.866, 631.596 649.226, 630.459 651.066 M 626.297 657.700 C 625.086 657.934, 623.835 658.886, 623.517 659.813 C 622.328 663.285, 606.696 671.351, 597.935 673.012 C 595.136 673.543, 592.421 674.240, 591.903 674.560 C 589.760 675.884, 573.426 675.096, 569.500 673.479 C 564.863 671.569, 555.290 667.242, 552.764 665.913 C 550.433 664.688, 545 664.749, 545 666 C 545 666.550, 544.325 667, 543.500 667 C 542.675 667, 542 667.398, 542 667.883 C 542 668.369, 541.100 669.002, 540 669.290 C 534.916 670.619, 539.572 681.134, 547.447 686.110 C 561.929 695.261, 570.983 697.061, 593.036 695.172 C 604.357 694.202, 607.386 693.614, 608.911 692.089 C 609.948 691.052, 612.305 689.883, 614.148 689.491 C 615.992 689.098, 618.175 688.197, 619 687.488 C 619.825 686.779, 622.110 685.535, 624.077 684.723 C 626.044 683.911, 630.432 680.477, 633.827 677.093 C 639.277 671.659, 640 670.483, 640 667.051 C 640 661.770, 639.246 660.178, 635.928 658.463 C 633.161 657.032, 630.733 656.839, 626.297 657.700 M 776.426 746.750 C 774.650 748.561, 771.426 750.491, 764.438 753.929 C 762.204 755.028, 759.546 756.844, 758.533 757.964 C 757.519 759.084, 756.126 760, 755.437 760 C 753.312 760, 744.545 764.441, 733.825 770.948 C 730.154 773.177, 725.969 775, 724.525 775 C 721.406 775, 706.253 780.712, 703.748 782.832 C 701.847 784.440, 690.652 786.904, 684.977 786.963 C 683.040 786.983, 678.090 788.284, 673.977 789.854 C 668.427 791.973, 663.955 792.870, 656.625 793.336 C 651.193 793.681, 646.178 794.437, 645.480 795.017 C 644.782 795.596, 643.826 795.959, 643.355 795.823 C 642.885 795.686, 641.556 796.100, 640.402 796.741 C 637.715 798.235, 626.766 800.013, 624.270 799.360 C 623.212 799.084, 621.772 799.570, 621.039 800.452 C 619.927 801.793, 620.126 803.024, 622.307 808.272 C 623.730 811.697, 625.194 817.074, 625.559 820.220 C 625.932 823.435, 626.897 826.499, 627.761 827.217 C 630.239 829.273, 656.617 829.548, 667 827.626 C 683.067 824.651, 690.503 822.790, 692.149 821.332 C 693.057 820.529, 696.139 819.255, 699 818.500 C 701.861 817.745, 704.943 816.485, 705.851 815.698 C 706.758 814.912, 708.850 813.951, 710.500 813.563 C 712.150 813.175, 714.737 811.680, 716.250 810.242 C 717.763 808.803, 719 807.930, 719 808.301 C 719 808.672, 722.648 806.507, 727.106 803.488 C 731.564 800.470, 735.809 798, 736.539 798 C 737.268 798, 738.151 797.100, 738.500 796 C 738.849 794.900, 739.539 794, 740.033 794 C 740.527 794, 742.256 792.763, 743.876 791.250 C 745.496 789.737, 748.662 787.176, 750.911 785.558 C 753.160 783.940, 755 782.193, 755 781.676 C 755 780.526, 761.805 774, 763.004 774 C 763.478 774, 764.178 772.987, 764.559 771.750 C 764.941 770.513, 765.875 768.825, 766.634 768 C 767.393 767.175, 769.784 764.025, 771.947 761 C 774.110 757.975, 776.523 754.825, 777.310 754 C 778.723 752.518, 782 746.614, 782 745.550 C 782 744.278, 778.008 745.138, 776.426 746.750 M 909.504 765.994 C 909.196 766.492, 909.969 767.444, 911.222 768.109 C 912.475 768.773, 914.088 770.146, 914.807 771.159 C 916.129 773.021, 920 773.740, 920 772.122 C 920 770.961, 917.010 768.501, 916.967 769.628 C 916.948 770.107, 916.161 769.578, 915.217 768.451 C 913.149 765.983, 910.275 764.747, 909.504 765.994 M 941 787.531 C 941 788.374, 941.788 789.342, 942.750 789.683 C 943.712 790.025, 945.271 790.965, 946.213 791.773 C 947.171 792.595, 948.682 792.952, 949.644 792.583 C 951.119 792.017, 950.904 791.505, 948.119 788.962 C 944.628 785.773, 941 785.044, 941 787.531 M 290.396 831.706 C 284.436 834.643, 282.630 840.600, 285.798 846.866 C 287.942 851.107, 292.964 852.964, 302.343 852.985 C 306.106 852.993, 314.431 853.457, 320.843 854.015 C 327.254 854.573, 345.550 855.474, 361.500 856.016 C 396.888 857.221, 419.918 858.744, 422.236 860.034 C 424.610 861.354, 427.353 861.247, 428.825 859.775 C 429.792 858.808, 430.483 858.821, 432.105 859.833 C 433.452 860.675, 437.244 861.049, 443.108 860.920 C 448.030 860.812, 452.344 861.011, 452.695 861.362 C 453.657 862.324, 457.803 862.127, 458.445 861.089 C 459.065 860.085, 461.546 860.213, 462.638 861.304 C 463.020 861.687, 471.246 862.011, 480.917 862.024 C 490.588 862.038, 500.471 862.503, 502.881 863.059 C 510.969 864.924, 520.015 859.524, 519.985 852.849 C 519.934 841.284, 516.440 840.710, 432.500 838.485 C 400.957 837.648, 383.296 836.490, 381.684 835.152 C 380.624 834.273, 376.215 833.942, 366.838 834.036 C 359.502 834.109, 352.825 833.946, 352 833.674 C 351.175 833.401, 340.150 832.648, 327.500 832.001 C 314.850 831.353, 302.025 830.678, 299 830.500 C 295.486 830.293, 292.379 830.728, 290.396 831.706 M 316 903.769 C 314.072 904.731, 311.675 907.085, 310.663 909.008 C 308.950 912.264, 308.933 912.752, 310.419 916.233 C 312.580 921.295, 317.971 924, 325.901 924 C 329.191 924, 332.173 924.472, 332.530 925.048 C 332.934 925.702, 337.945 926.046, 345.839 925.962 C 352.802 925.888, 359.175 926.054, 360 926.330 C 361.893 926.964, 401.971 928.291, 412 928.052 C 416.125 927.953, 421.525 928.348, 424 928.928 C 426.489 929.512, 452.062 930.472, 481.228 931.077 C 535.492 932.202, 541 931.957, 541 928.422 C 541 927.640, 541.639 927, 542.421 927 C 544.084 927, 545.428 921.925, 544.522 919.069 C 544.177 917.982, 541.635 915.434, 538.872 913.406 L 533.850 909.720 493.675 908.914 C 471.579 908.471, 448.100 907.599, 441.500 906.975 C 428.642 905.759, 421.302 905.489, 377 904.602 C 350.175 904.064, 337.934 903.565, 325 902.482 C 321.027 902.149, 318.528 902.506, 316 903.769 M 853.158 961.250 C 853.071 966.063, 852.648 970, 852.217 970 C 851.277 970, 851.368 974.701, 852.326 975.659 C 852.697 976.030, 853 978.958, 853 982.167 C 853 985.389, 853.448 988, 854 988 C 855.144 988, 855.170 975.169, 854.053 961.500 L 853.317 952.500 853.158 961.250 M 343.500 973.442 C 342.950 973.653, 341.356 974.075, 339.957 974.380 C 338.173 974.769, 336.861 976.188, 335.561 979.134 C 333.864 982.980, 333.833 983.676, 335.196 987.417 C 337.689 994.258, 341.047 994.977, 375.494 996.046 C 391.447 996.541, 419.642 997.423, 438.150 998.005 C 468.944 998.973, 472.099 998.921, 475.322 997.384 C 478.915 995.670, 479.962 993.710, 479.986 988.650 C 480.003 985.223, 474.272 979, 471.100 979 C 469.945 979, 469 978.502, 469 977.893 C 469 977.284, 468.354 977.034, 467.565 977.337 C 466.775 977.640, 465.988 977.506, 465.815 977.040 C 465.642 976.574, 440.300 975.688, 409.500 975.071 C 378.700 974.453, 351.475 973.748, 349 973.504 C 346.525 973.259, 344.050 973.232, 343.500 973.442 M 1034.173 987.291 C 1033.375 988.253, 1033.631 988.913, 1035.178 989.879 C 1036.910 990.961, 1037.500 990.929, 1038.745 989.684 C 1039.565 988.863, 1039.932 987.699, 1039.559 987.096 C 1038.635 985.600, 1035.482 985.714, 1034.173 987.291 M 855.598 994.736 C 854.163 996.170, 855.093 999, 857 999 C 858.296 999, 859 998.333, 859 997.107 C 859 995.208, 856.717 993.616, 855.598 994.736" stroke="none" fill="#171916" fill-rule="evenodd"/>
</svg>