<svg role="img" aria-labelledby="artwork-title" shape-rendering="geometricPrecision" xmlns="http://www.w3.org/2000/svg" width="1200" height="1200" viewBox="0 0 1200 1200" version="1.1">
	<title id="artwork-title">Mascot pointing toward a timeline</title>
	<path d="M 328.573 280.881 C 328.274 281.366, 324.576 282.086, 320.356 282.481 C 307.176 283.716, 298.168 287.795, 289.523 296.440 C 286.191 299.773, 282.664 304.188, 281.685 306.250 C 279.622 310.599, 279.641 310.592, 276.154 308.110 C 274.694 307.070, 273.050 306.100, 272.500 305.954 C 271.950 305.808, 270.052 305.084, 268.282 304.345 C 266.512 303.605, 264.345 303, 263.466 303 C 262.588 303, 260.946 302.506, 259.818 301.903 C 258.327 301.105, 255.138 301.113, 248.134 301.931 C 239.056 302.992, 237.959 303.384, 229.114 308.722 C 221.345 313.410, 219.111 315.344, 216.150 319.943 C 210.744 328.338, 208.832 332.148, 208.091 336 C 207.556 338.780, 207.014 339.422, 205.459 339.119 C 204.381 338.910, 200.245 338.537, 196.267 338.291 C 184.646 337.571, 174.515 342.210, 163.765 353.172 C 157.096 359.973, 154.570 364.502, 151.946 374.361 C 149.655 382.975, 149.537 388.686, 151.500 396 C 153.435 403.208, 153.609 402.598, 148.750 405.602 C 134.984 414.113, 126.105 429.339, 126.026 444.572 C 125.985 452.551, 130.107 462.620, 136.308 469.685 C 138.025 471.640, 138.083 472.190, 136.869 474.935 C 136.122 476.621, 135.172 478, 134.756 478 C 134.340 478, 134 478.675, 134 479.500 C 134 480.325, 133.522 481, 132.937 481 C 132.353 481, 131.973 481.788, 132.093 482.750 C 132.214 483.712, 131.760 485.850, 131.084 487.500 C 130.408 489.150, 129.599 491.773, 129.286 493.329 C 128.635 496.575, 130.871 507, 132.219 507 C 132.713 507, 132.841 507.448, 132.503 507.995 C 132.165 508.543, 134.268 512.399, 137.176 516.566 C 142.412 524.065, 142.445 524.157, 140.431 525.820 C 139.313 526.744, 137.094 529.300, 135.502 531.500 C 133.909 533.700, 132.356 535.725, 132.051 536 C 131.746 536.275, 130.989 537.625, 130.368 539 C 122.991 555.340, 122.382 573.526, 128.636 590.750 C 130.083 594.737, 131.643 598, 132.103 598 C 132.562 598, 132.689 598.648, 132.385 599.439 C 132.072 600.256, 132.734 601.442, 133.916 602.180 C 135.062 602.896, 136 603.966, 136 604.559 C 136 605.950, 151.902 620.998, 153.380 621.006 C 153.996 621.010, 155.636 621.605, 157.024 622.329 C 162.664 625.273, 166.885 626.384, 174.500 626.928 L 182.500 627.500 182.807 631.750 C 182.977 634.087, 183.477 636, 183.919 636 C 184.361 636, 184.521 637.054, 184.275 638.343 C 183.961 639.986, 185.346 642.924, 188.913 648.182 C 191.711 652.305, 194 656.674, 194 657.889 C 194 660.977, 196.300 664.975, 200.102 668.494 C 201.881 670.140, 204.836 673.832, 206.669 676.697 C 208.503 679.563, 211.802 683.354, 214.001 685.121 C 216.201 686.889, 218 688.864, 218 689.512 C 218 690.230, 214.782 691.122, 209.750 691.800 C 199.711 693.152, 193.780 694.623, 188.500 697.069 C 186.300 698.089, 180.237 700.556, 175.027 702.553 C 169.816 704.549, 164.365 707.028, 162.914 708.061 C 161.462 709.095, 160.060 709.726, 159.798 709.464 C 159.536 709.202, 158.504 709.890, 157.506 710.994 C 156.507 712.097, 155.268 713, 154.752 713 C 152.089 713, 130.245 732.065, 124.834 739.111 C 123.550 740.783, 120.813 744.319, 118.750 746.969 C 116.687 749.618, 115 752.037, 115 752.343 C 115 752.649, 113.650 754.900, 112 757.345 C 110.350 759.790, 109 762.447, 109 763.249 C 109 764.051, 107.875 765.922, 106.500 767.405 C 105.125 768.889, 104 770.740, 104 771.518 C 104 772.886, 101.846 778.407, 99.718 782.493 C 99.147 783.589, 98.341 785.839, 97.928 787.493 C 96.944 791.424, 95.106 796.535, 92.888 801.500 C 91.192 805.295, 85.747 827.919, 84.464 836.500 C 83.247 844.635, 82.810 846, 81.421 846 C 80.281 846, 80 848.135, 80 856.799 L 80 867.598 83.405 868.829 C 85.277 869.506, 87.074 870.751, 87.398 871.595 C 87.722 872.439, 87.562 879.513, 87.043 887.315 C 86.524 895.117, 85.964 905.550, 85.799 910.500 L 85.500 919.500 92.250 919.796 L 99 920.091 99.159 915.796 C 99.246 913.433, 99.237 909.250, 99.140 906.500 C 99.042 903.750, 99.774 894.975, 100.766 887 L 102.570 872.500 107.401 872.190 C 118.126 871.503, 165.069 875.982, 167.397 877.915 C 168.221 878.598, 169.930 879.055, 171.197 878.930 C 172.464 878.805, 174.175 878.983, 175 879.326 C 175.825 879.669, 179.200 880.073, 182.500 880.225 L 188.500 880.500 188.419 884.500 C 188.374 886.700, 187.979 895.589, 187.541 904.254 L 186.744 920.008 312.122 919.754 L 437.500 919.500 437.515 901.500 C 437.530 884.105, 437.598 883.511, 439.515 883.835 C 440.607 884.020, 443.975 884.498, 447 884.898 C 450.459 885.355, 454.541 886.855, 458 888.941 C 461.025 890.764, 465.750 893.033, 468.500 893.983 C 471.250 894.933, 475.750 896.563, 478.500 897.605 C 485.406 900.222, 511.191 900.362, 518 897.819 C 520.475 896.895, 523.651 895.896, 525.058 895.598 C 529.990 894.557, 542.590 885.038, 552.110 875.160 C 560.962 865.976, 571 852.698, 571 850.172 C 571 849.590, 572 848.413, 573.223 847.557 C 574.445 846.701, 575.020 846, 574.500 846 C 573.980 846, 574.555 845.299, 575.777 844.443 C 577 843.587, 578 842.039, 578 841.002 C 578 839.966, 578.401 838.870, 578.891 838.568 C 579.381 838.265, 581.006 835.651, 582.503 832.759 C 583.999 829.866, 585.918 826.712, 586.767 825.750 C 587.616 824.788, 587.999 824, 587.619 824 C 587.239 824, 588.069 822.321, 589.464 820.268 C 590.859 818.215, 592 816.107, 592 815.584 C 592 814.055, 595.987 806.251, 597.300 805.211 C 597.960 804.688, 601.537 804.029, 605.250 803.745 C 608.997 803.459, 613.112 802.502, 614.500 801.592 C 615.875 800.691, 617 800.205, 617 800.513 C 617 800.821, 618.679 799.931, 620.732 798.536 C 624.054 796.278, 625.468 796, 633.605 796 C 645.145 796, 650.874 793.726, 658.865 785.974 C 666.107 778.948, 669.596 772.298, 670.269 764.240 C 670.511 761.347, 671.410 758.197, 672.267 757.240 C 675.073 754.107, 676.070 745.060, 674.399 737.896 C 673.195 732.737, 673.136 730.600, 674.088 726.633 C 675.880 719.162, 674.596 708.647, 671.375 704.425 C 668.955 701.253, 668.906 700.982, 670.640 700.438 C 671.663 700.117, 674.075 699.132, 676 698.249 C 677.925 697.365, 680.028 696.735, 680.673 696.848 C 681.318 696.960, 683.469 696.141, 685.453 695.026 C 687.438 693.912, 689.708 693, 690.500 693 C 691.865 693, 699.361 689.451, 701.500 687.792 C 702.050 687.365, 704.809 685.244, 707.632 683.078 C 710.454 680.913, 714.256 676.971, 716.080 674.320 C 719.129 669.888, 719.395 668.888, 719.376 661.889 L 719.356 654.278 713.928 648.801 C 710.931 645.777, 706.587 642.579, 704.230 641.662 C 698.885 639.582, 687.969 639.499, 681.409 641.489 C 678.709 642.308, 675.289 642.983, 673.809 642.989 C 672.329 642.995, 670.835 643.457, 670.490 644.016 C 670.144 644.575, 669.494 644.805, 669.044 644.527 C 668.595 644.249, 667.671 644.692, 666.991 645.511 C 666.311 646.330, 664.866 647, 663.779 647 C 662.692 647, 660.384 647.609, 658.651 648.353 C 656.918 649.097, 650.775 651.234, 645 653.102 C 639.225 654.969, 634.372 656.770, 634.215 657.103 C 634.058 657.437, 632.781 657.490, 631.375 657.221 C 629.868 656.933, 627.320 657.561, 625.160 658.752 C 622.368 660.293, 619.010 660.885, 611 661.248 C 605.225 661.510, 599.375 662.178, 598 662.733 C 596.625 663.287, 592.800 664.522, 589.500 665.477 C 582.778 667.421, 580.827 668.211, 576.496 670.744 C 560.367 680.173, 543.594 699.317, 539.033 713.500 C 538.326 715.700, 537.059 718.288, 536.219 719.250 C 535.378 720.212, 535.075 721, 535.545 721 C 536.015 721, 535.860 721.540, 535.200 722.200 C 534.540 722.860, 534 724.568, 534 725.996 C 534 727.953, 531.541 731.039, 524.001 738.546 C 518.502 744.021, 514.002 748.873, 514.001 749.328 C 514.001 749.784, 512.313 751.826, 510.250 753.867 C 508.188 755.908, 504.053 760.597, 501.062 764.289 C 498.070 767.980, 495.370 770.993, 495.062 770.985 C 493.968 770.955, 492.432 769.466, 490.725 766.782 C 489.774 765.287, 483.034 759.791, 475.748 754.568 C 468.462 749.346, 461.375 744.166, 460 743.058 C 458.625 741.951, 456.970 741.034, 456.321 741.022 C 455.673 741.010, 454.526 740.383, 453.773 739.630 C 453.019 738.876, 451.074 737.512, 449.451 736.599 C 447.828 735.686, 445.150 734.093, 443.500 733.059 C 438.694 730.047, 430.896 726, 429.897 726 C 429.392 726, 426.979 725.060, 424.536 723.912 C 422.093 722.764, 419.654 722.096, 419.116 722.428 C 418.578 722.761, 417.838 722.547, 417.471 721.953 C 416.682 720.677, 419.745 717, 421.598 717 C 423.695 717, 430.149 712.916, 435.398 708.267 C 438.092 705.880, 442.426 703.012, 445.028 701.893 C 448.781 700.278, 450.307 698.851, 452.406 694.996 C 453.861 692.322, 456.340 689.051, 457.913 687.726 C 460.835 685.268, 474 666.817, 474 665.181 C 474 664.684, 475.187 660.728, 476.637 656.389 C 478.087 652.050, 479.550 646.055, 479.887 643.067 C 480.485 637.768, 480.619 637.574, 485.311 635.239 C 487.957 633.923, 490.368 632.205, 490.668 631.423 C 490.968 630.640, 491.841 630, 492.607 630 C 493.373 630, 494 629.325, 494 628.500 C 494 627.675, 494.615 627, 495.367 627 C 496.607 627, 502 619.982, 502 618.368 C 502 617.997, 503.197 615.175, 504.660 612.096 C 506.123 609.018, 507.530 604.250, 507.787 601.500 C 508.043 598.750, 508.696 595.943, 509.238 595.263 C 509.780 594.582, 509.968 593.359, 509.656 592.545 C 509.343 591.730, 509.518 590.798, 510.044 590.473 C 511.259 589.722, 511.301 582.304, 510.094 581.558 C 509.596 581.250, 509.410 580.149, 509.681 579.112 C 509.952 578.074, 509.685 576.923, 509.087 576.554 C 508.489 576.184, 507.975 574.671, 507.944 573.191 C 507.853 568.821, 504.678 562.203, 500.147 556.944 C 496.561 552.780, 496.079 551.721, 496.992 550.015 C 497.585 548.907, 498.488 548, 498.999 548 C 500.842 548, 505 540.509, 505 537.188 C 505 534.408, 506.006 532.875, 510.945 528.131 C 520.205 519.237, 523.204 509.519, 519.456 500.549 C 517.195 495.139, 518.178 493.349, 525 490.450 C 526.264 489.912, 535.200 478.527, 535.556 477 C 535.620 476.725, 535.910 475.825, 536.200 475 C 539.019 466.979, 539.618 459.017, 537.886 452.616 C 536.346 446.928, 536.266 446.604, 536.172 445.715 C 536.127 445.283, 535.169 443.760, 534.045 442.330 C 532.920 440.900, 532 439.135, 532 438.407 C 532 437.680, 530.218 435.211, 528.041 432.922 L 524.082 428.761 526.910 423.130 C 531.730 413.536, 532.286 411.244, 532.355 400.695 C 532.446 386.828, 530.270 380.358, 522.083 370.150 C 519.046 366.362, 507 357.017, 507 358.448 C 507 358.735, 505.538 358.079, 503.750 356.989 C 501.170 355.416, 498.708 355.007, 491.809 355.004 C 483.212 355, 480.573 354.027, 482.887 351.713 C 484.233 350.367, 484.400 334.365, 483.077 333.548 C 482.569 333.234, 481.847 331.520, 481.471 329.739 C 479.850 322.043, 475.438 313.675, 470.024 308.026 C 465.544 303.351, 457.008 297, 455.205 297 C 454.690 297, 453.100 296.080, 451.670 294.955 C 450.240 293.831, 448.828 292.936, 448.530 292.967 C 448.233 292.998, 446.305 292.289, 444.245 291.393 C 435.389 287.539, 417.154 284.559, 407.500 285.389 C 400.499 285.991, 390.164 288.761, 385.812 291.203 C 382.965 292.800, 373.623 300.222, 373.167 301.250 C 372.317 303.162, 369.479 301.518, 364.049 295.969 C 356.943 288.707, 346.739 283.582, 337.250 282.510 C 333.813 282.121, 331 281.398, 331 280.902 C 331 279.744, 329.285 279.729, 328.573 280.881 M 316.999 297.863 C 309.012 299.553, 299.138 306.654, 294.453 314.075 C 292.016 317.935, 291.087 322.682, 293 321.500 C 293.550 321.160, 294 320.142, 294 319.237 C 294 317.404, 303.789 308.063, 305.750 308.025 C 306.438 308.011, 307 307.523, 307 306.941 C 307 306.359, 307.450 306.160, 308 306.500 C 308.550 306.840, 309 306.676, 309 306.137 C 309 304.900, 313.498 303.548, 322.619 302.041 C 334.276 300.116, 348.234 303.859, 355.708 310.915 C 357.987 313.067, 360 313.644, 360 312.145 C 360 310.460, 350.425 302.873, 345.016 300.272 C 340.427 298.066, 337.903 297.578, 330 297.371 C 324.775 297.235, 318.924 297.456, 316.999 297.863 M 398.499 302.881 C 395.748 303.887, 391.670 306.012, 389.437 307.605 C 378.500 315.405, 377.073 316.615, 377.038 318.128 C 376.960 321.455, 379.569 322.224, 382.638 319.780 C 387.751 315.707, 398.438 311.432, 406 310.434 C 412.553 309.569, 433.241 313.405, 439.931 316.726 C 450.252 321.849, 464 337.768, 464 344.597 C 464 347.787, 465.796 351.244, 467.050 350.469 C 469.445 348.989, 467.167 334.092, 463.445 326.894 C 459.685 319.623, 445.595 308, 440.540 308 C 439.693 308, 439 307.523, 439 306.941 C 439 306.359, 438.588 306.136, 438.085 306.447 C 437.582 306.758, 437.020 306.598, 436.835 306.091 C 436.266 304.525, 421.970 301.771, 412.500 301.403 C 405.603 301.135, 402.331 301.481, 398.499 302.881 M 245.578 317.120 C 243.421 317.626, 241.059 318.536, 240.328 319.142 C 239.598 319.749, 239 319.943, 239 319.574 C 239 318.058, 229.968 325.265, 226.296 329.712 C 222.298 334.554, 218.593 342.259, 219.720 343.387 C 220.788 344.455, 222 344.051, 222 342.626 C 222 341.870, 223.575 339.532, 225.500 337.430 C 227.425 335.329, 229 333.074, 229 332.420 C 229 330.529, 233.449 327.864, 245.284 322.663 C 250.816 320.232, 263.893 320.395, 268.916 322.957 C 272.783 324.930, 274 324.781, 274 322.333 C 274 321.585, 272.925 321, 271.550 321 C 270.202 321, 268.687 320.263, 268.182 319.362 C 266.594 316.523, 253.613 315.236, 245.578 317.120 M 190.407 354.407 C 175.646 357.990, 165.867 369.862, 164.291 386.113 C 163.702 392.186, 165.423 395.317, 166.588 390.291 C 169.145 379.256, 173.135 371.723, 179.279 366.328 C 183.477 362.642, 193.647 357.651, 195.506 358.364 C 196.293 358.666, 197.202 358.482, 197.527 357.956 C 198.316 356.680, 204.714 356.728, 205.510 358.016 C 206.229 359.179, 208 358.377, 208 356.890 C 208 355.488, 201.602 352.984, 198.282 353.085 C 196.752 353.132, 193.208 353.726, 190.407 354.407 M 478.524 368.961 C 477.374 370.823, 479.530 372.312, 483.975 372.727 C 491.948 373.470, 508 384.087, 508 388.618 C 508 389.378, 508.525 390, 509.167 390 C 509.808 390, 510.055 390.279, 509.714 390.619 C 509.374 390.960, 509.716 391.859, 510.476 392.618 C 512.367 394.510, 513.395 403.844, 512.625 412.130 C 512.273 415.909, 512.378 419, 512.857 419 C 514.877 419, 517 410.207, 517 401.839 C 517 394.299, 516.605 392.371, 513.779 386.122 C 512.007 382.205, 510.216 379, 509.799 379 C 509.382 379, 506.699 377.228, 503.837 375.061 C 500.974 372.895, 498.378 371.168, 498.066 371.223 C 497.755 371.278, 496.150 370.753, 494.500 370.057 C 490.084 368.193, 479.450 367.464, 478.524 368.961 M 461.380 371.452 C 461.074 372.251, 461.102 373.356, 461.443 373.908 C 462.410 375.472, 465 374.004, 465 371.893 C 465 369.675, 462.193 369.333, 461.380 371.452 M 300.250 400.662 C 299.563 400.940, 299 401.624, 299 402.182 C 299 406.823, 290.504 418.016, 284.684 421.043 C 282.383 422.240, 280.275 423.577, 279.999 424.015 C 279.724 424.452, 276.635 425.775, 273.135 426.955 C 267.910 428.715, 265.493 428.980, 259.635 428.439 C 255.711 428.076, 251.475 427.135, 250.222 426.348 C 247.107 424.391, 246 425.392, 246 430.165 C 246 435.423, 243.501 444.975, 240.734 450.293 C 237.942 455.660, 228.263 465.508, 225 466.304 C 219.445 467.658, 218.783 468.929, 219.935 476.029 C 222.231 490.177, 220.508 498.628, 213.255 508.791 C 209.980 513.381, 208.685 516.178, 208.607 518.827 L 208.500 522.500 221.750 522.540 C 229.037 522.562, 235 522.301, 235 521.960 C 235 521.618, 237.137 519.823, 239.750 517.971 C 242.363 516.119, 244.725 514.326, 245 513.988 C 246.104 512.631, 257.958 509.153, 265.257 508.045 C 273.238 506.833, 289.131 507.310, 300.500 509.103 C 308.475 510.360, 319 513.129, 319 513.970 C 319 514.340, 321.234 515.653, 323.965 516.887 C 328.993 519.160, 339 527.347, 339 529.188 C 339 529.740, 339.957 531.536, 341.127 533.179 C 342.769 535.484, 343.740 536.012, 345.377 535.489 C 353.879 532.774, 368.998 533.803, 374.609 537.479 C 375.885 538.316, 377.287 539, 377.723 539 C 378.159 539, 381.476 536.169, 385.093 532.708 C 393.816 524.363, 399.548 522.500, 416.500 522.500 C 428.161 522.500, 449 525.523, 449 527.215 C 449 527.612, 449.675 527.678, 450.500 527.362 C 451.325 527.045, 452 527.267, 452 527.854 C 452 528.442, 453.688 529.387, 455.750 529.955 C 459.070 530.869, 466.275 534.724, 471.222 538.233 C 474.754 540.738, 475.178 538.170, 475.268 513.727 L 475.355 490.236 472.309 486.368 C 468.013 480.912, 465.739 472.282, 466.158 463.031 L 466.500 455.500 461 454.963 C 457.975 454.667, 454.150 453.690, 452.500 452.792 C 446.770 449.673, 438.215 441.081, 436.027 436.249 C 434.844 433.637, 433.194 430.104, 432.360 428.398 C 431.526 426.692, 430.992 424.458, 431.172 423.434 C 431.611 420.945, 428.029 420.240, 426.383 422.491 C 425.695 423.431, 424.653 423.904, 424.067 423.541 C 423.480 423.179, 423 423.256, 423 423.714 C 423 425.073, 412.937 427, 405.843 427 C 401.852 427, 397.714 426.334, 395.372 425.314 C 393.242 424.387, 391.115 423.728, 390.645 423.849 C 390.174 423.971, 389.227 423.603, 388.540 423.033 C 387.852 422.463, 385.087 420.837, 382.395 419.422 C 377.155 416.666, 370.087 410.292, 370.033 408.273 C 370.015 407.598, 368.913 406.334, 367.585 405.464 C 365.280 403.953, 364.943 404.045, 360.174 407.470 C 357.426 409.444, 354.801 410.977, 354.339 410.875 C 353.878 410.774, 351.700 411.518, 349.500 412.529 C 346.501 413.907, 342.978 414.384, 335.421 414.434 C 325.569 414.499, 325.168 414.410, 317.569 410.502 C 313.294 408.303, 308.289 405.040, 306.448 403.252 C 303.071 399.973, 302.525 399.744, 300.250 400.662 M 145.699 426.511 C 144.215 428.371, 143 430.727, 143 431.747 C 143 432.766, 142.607 434.028, 142.127 434.550 C 140.846 435.944, 140.029 446.435, 141.074 448.085 C 141.654 449.001, 141.975 447.141, 141.985 442.809 C 141.993 439.129, 142.426 435.855, 142.947 435.533 C 144.225 434.743, 150 426.126, 150 425.009 C 150 422.775, 148.169 423.414, 145.699 426.511 M 510 439.500 C 510.685 440.325, 511.920 441, 512.745 441 C 513.965 441, 514.012 440.720, 513 439.500 C 512.315 438.675, 511.080 438, 510.255 438 C 509.035 438, 508.988 438.280, 510 439.500 M 516.381 445.433 C 517.822 447.322, 519 449.545, 519 450.374 C 519 451.203, 519.450 452.160, 520 452.500 C 520.550 452.840, 521 452.133, 521 450.927 C 521 447.953, 517.199 442, 515.300 442 C 514.127 442, 514.383 442.814, 516.381 445.433 M 522 460.941 C 522 463.109, 522.450 465.160, 523 465.500 C 523.611 465.878, 524 464.344, 524 461.559 C 524 459.052, 523.550 457, 523 457 C 522.450 457, 522 458.773, 522 460.941 M 277.228 480.263 C 269.492 482.643, 263.592 486.606, 261.743 490.665 C 260.843 492.641, 260.906 493.328, 262.057 494.056 C 262.851 494.558, 263.128 494.976, 262.673 494.985 C 262.219 494.993, 263.184 496.125, 264.818 497.500 C 268.284 500.417, 272.687 500.727, 279 498.500 C 286.632 495.807, 307.116 497.536, 311.776 501.266 C 313.632 502.753, 319.633 499.241, 321.372 495.651 C 323.004 492.282, 322.091 487.647, 319.234 484.790 C 313.098 478.653, 290.408 476.208, 277.228 480.263 M 411 494.579 C 405.615 496.301, 402.388 498.850, 401.014 502.464 C 399.607 506.163, 399.669 506.453, 402.597 509.932 L 405.193 513.018 417.483 512.793 C 426.555 512.626, 430.196 512.918, 431.387 513.906 C 432.274 514.642, 433 514.976, 433 514.648 C 433 514.320, 435.137 515.310, 437.750 516.848 C 444.341 520.727, 446.834 521.211, 450.148 519.254 C 456.163 515.700, 455.706 507.294, 449.220 502.197 C 443.549 497.741, 439.564 496.012, 431.343 494.439 C 422.101 492.670, 416.853 492.707, 411 494.579 M 305 528.667 C 305 529.346, 305.661 530.271, 306.469 530.723 C 309.334 532.326, 321.935 550.046, 322.987 553.950 C 323.574 556.131, 324.522 558.205, 325.094 558.558 C 326.645 559.517, 329.064 555.783, 327.844 554.312 C 327.300 553.656, 326.968 552.305, 327.107 551.310 C 327.443 548.911, 321.720 537.203, 318.563 533.827 C 317.187 532.357, 315.036 530.834, 313.781 530.443 C 312.527 530.051, 311.201 529.265, 310.836 528.695 C 309.885 527.213, 305 527.189, 305 528.667 M 155.054 533.061 C 142.303 538.845, 136.455 556.319, 140.365 576.952 C 142.349 587.423, 145.904 594.603, 152.452 601.365 C 158.005 607.099, 167.171 612.009, 172.277 611.985 C 175.946 611.968, 182.513 609.887, 184.190 608.210 C 185.024 607.376, 184.959 606.656, 183.941 605.429 C 182.397 603.568, 182.011 593.636, 183.361 590.500 C 183.835 589.400, 184.140 585.413, 184.040 581.640 C 183.893 576.090, 184.229 574.371, 185.795 572.640 C 188.977 569.123, 189.359 564.313, 186.747 560.648 C 185.513 558.917, 184.502 557.200, 184.502 556.833 C 184.501 556.467, 184.162 555.829, 183.750 555.417 C 183.338 555.004, 182.993 553.504, 182.984 552.083 C 182.975 550.663, 181.866 547.700, 180.521 545.500 C 179.176 543.300, 177.660 540.600, 177.152 539.500 C 175.828 536.630, 173.116 534.549, 168.230 532.655 C 162.734 530.525, 160.492 530.594, 155.054 533.061 M 206.260 541.387 C 205.959 541.875, 205.530 545.250, 205.306 548.887 C 205.006 553.748, 204.247 556.491, 202.441 559.241 C 199.990 562.972, 199.989 562.989, 201.966 564.966 C 204.728 567.728, 205.245 570.612, 204.189 577.349 L 203.277 583.162 207.639 588.271 C 210.973 592.177, 212.010 594.219, 212.041 596.940 C 212.069 599.398, 212.997 601.571, 215.041 603.962 C 217.321 606.630, 218 608.408, 218 611.712 C 218 615.585, 218.235 616, 220.427 616 C 223.561 616, 226.644 619.933, 227.505 625.029 C 228.127 628.713, 228.413 629, 231.453 629 C 235.618 629, 239.731 632.210, 240.825 636.313 C 241.626 639.318, 241.914 639.485, 245.864 639.229 C 251.651 638.854, 253.644 640.230, 255.699 646.016 C 257.641 651.484, 258.392 652.005, 260 649 C 261.229 646.704, 265.667 646.305, 268.329 648.251 C 269.270 648.939, 270.401 650.852, 270.842 652.501 C 271.283 654.151, 272.269 655.500, 273.032 655.500 C 274.822 655.500, 279 649.317, 279 646.668 C 279 640.030, 287.863 629.121, 299.380 621.584 C 307.585 616.214, 310.108 615.430, 322.368 614.442 C 325.045 614.226, 327.849 613.540, 328.599 612.918 C 329.450 612.211, 332.944 611.922, 337.905 612.147 C 344.960 612.468, 346.366 612.873, 350.479 615.772 C 354.784 618.806, 355.263 618.929, 357.278 617.518 C 360.015 615.601, 369.441 615.486, 371.181 617.349 C 371.874 618.091, 373.243 618.488, 374.222 618.232 C 375.202 617.975, 377.548 618.943, 379.435 620.383 C 381.322 621.822, 384.006 623, 385.398 623 C 389.714 623, 397.768 630.887, 404.215 641.427 C 407.526 646.841, 407.933 648.240, 407.965 654.316 C 407.984 658.064, 408.476 662.021, 409.058 663.109 C 410.073 665.005, 410.234 664.961, 412.960 662.043 C 416.114 658.667, 418.484 658.250, 421.705 660.506 C 423.712 661.912, 423.993 661.818, 425.928 659.102 C 427.067 657.501, 428 655.700, 428 655.098 C 428 653.564, 434.282 651.061, 435.450 652.130 C 437.448 653.959, 439.842 652.994, 440.477 650.104 C 441.016 647.649, 445 642.525, 445 644.286 C 445 646.042, 450.644 641.589, 451.965 638.790 C 452.893 636.826, 454.960 634.828, 457.117 633.813 C 460.052 632.431, 460.831 631.428, 461.322 628.402 C 461.654 626.359, 463.016 623.521, 464.351 622.094 C 466.342 619.964, 466.890 618.068, 467.409 611.500 C 467.758 607.100, 468.303 601.362, 468.622 598.750 C 468.941 596.138, 468.819 594.018, 468.351 594.040 C 467.883 594.062, 465.476 596.792, 463.003 600.107 C 454.112 612.022, 442.848 617, 424.781 617 C 409.610 617, 400.132 614.399, 392.328 608.095 C 379.742 597.928, 373.072 583.185, 373.024 565.424 C 373.002 557.105, 372.796 556.157, 370.553 554.050 C 367.384 551.072, 361.198 549.899, 352.686 550.661 C 344.822 551.365, 343 552.700, 343 557.756 C 343 563.771, 334.445 580.980, 327.681 588.568 C 320.583 596.532, 314.025 600.489, 303.500 603.157 C 301.300 603.714, 298.518 604.642, 297.317 605.218 C 296.117 605.794, 294.444 606.001, 293.599 605.677 C 292.755 605.352, 291.798 605.518, 291.473 606.044 C 290.751 607.212, 284 607.329, 284 606.173 C 284 605.718, 282.646 605.545, 280.991 605.788 C 279.336 606.031, 277.423 605.780, 276.741 605.230 C 276.058 604.681, 273.925 603.918, 272 603.535 C 262.530 601.652, 255.240 598.027, 248 591.601 C 236.487 581.382, 231.464 569.984, 230.107 551 L 229.500 542.500 226 542.211 C 224.075 542.053, 221.825 541.677, 221 541.376 C 218.442 540.442, 206.838 540.451, 206.260 541.387 M 439 542.864 C 439 543.339, 440.714 544.916, 442.809 546.368 C 445.082 547.943, 447.358 550.720, 448.451 553.254 C 449.459 555.589, 451.907 559.515, 453.892 561.979 C 455.876 564.442, 457.402 566.761, 457.282 567.133 C 457.162 567.504, 457.725 568.356, 458.532 569.027 C 459.339 569.697, 460 571.315, 460 572.622 C 460 575.315, 461.477 575.806, 462.393 573.418 C 463.699 570.015, 462.929 562.923, 460.803 558.781 C 456.034 549.488, 453.761 547.032, 447.123 543.999 C 442.525 541.899, 439 541.406, 439 542.864 M 486.360 565.226 C 485.944 565.900, 485.459 570.738, 485.284 575.976 C 485.109 581.214, 484.680 586.175, 484.330 587 C 483.980 587.825, 483.624 588.950, 483.540 589.500 C 483.455 590.050, 483.108 591.175, 482.769 592 C 480.375 597.821, 479.939 601.059, 481.013 605.047 C 481.631 607.344, 482.011 611.279, 481.856 613.791 C 481.496 619.649, 482.984 620.117, 486.631 615.294 C 490.725 609.880, 491.997 607.399, 493.648 601.611 C 494.449 598.800, 495.344 595.825, 495.636 595 C 496.784 591.756, 496.103 579.372, 494.579 575.782 C 493.710 573.737, 493 571.557, 493 570.936 C 493 569.419, 489.087 564, 487.991 564 C 487.511 564, 486.777 564.552, 486.360 565.226 M 327.500 640.243 C 325.850 640.809, 323.825 641.489, 323 641.753 C 321.667 642.180, 321.667 642.290, 323 642.750 C 323.825 643.035, 326.361 644.770, 328.635 646.607 C 339.150 655.097, 355.445 655.762, 370 648.295 C 371.375 647.589, 373.063 647.010, 373.750 647.006 C 375.436 646.998, 375.323 646.014, 373.389 643.877 C 371.850 642.177, 371.560 642.211, 366.933 644.630 C 361.314 647.568, 359.731 647.308, 353.278 642.382 L 348.828 638.986 345.944 641.040 C 344.358 642.169, 342.795 643.522, 342.471 644.047 C 341.293 645.953, 337.307 644.930, 334.500 642 C 332.919 640.350, 331.373 639.048, 331.063 639.106 C 330.753 639.165, 329.150 639.676, 327.500 640.243 M 312.135 641.520 C 310.285 642.334, 307.542 643, 306.040 643 C 301.403 643, 297.845 648.853, 296.531 658.646 C 296.020 662.461, 296.249 664.582, 297.420 666.846 C 298.289 668.526, 299 670.823, 299 671.950 C 299 673.104, 299.655 674, 300.497 674 C 301.321 674, 303.738 675.575, 305.868 677.500 C 307.999 679.425, 310.426 681, 311.260 681 C 312.095 681, 313.822 681.845, 315.098 682.878 C 316.951 684.379, 317.804 684.529, 319.339 683.628 C 320.804 682.768, 321.369 682.797, 321.714 683.750 C 321.963 684.438, 323.199 685, 324.461 685 C 327.103 685, 328.468 683.577, 329.340 679.912 C 329.679 678.489, 330.875 676.157, 331.998 674.729 C 333.997 672.188, 334.265 672.140, 344.605 672.429 C 357.291 672.784, 358.991 673.848, 359.766 681.917 C 360.268 687.145, 360.828 687.698, 363.938 686.033 C 365.046 685.440, 366.949 685.412, 368.858 685.959 C 371.540 686.729, 372.236 686.516, 373.883 684.422 C 374.935 683.085, 377.243 681.701, 379.013 681.347 C 382.715 680.607, 387.996 673.387, 388.006 669.054 C 388.009 667.649, 388.480 664.813, 389.053 662.750 C 389.881 659.769, 389.760 658.232, 388.464 655.250 C 385.609 648.683, 385.430 648.510, 381.148 648.193 C 376.654 647.859, 375.719 649.183, 379 651.232 C 380.100 651.919, 381 652.957, 381 653.538 C 381 655.363, 373.676 661.569, 369.500 663.281 C 358.462 667.807, 338.653 667.390, 327.358 662.395 C 320.068 659.171, 313 652.590, 313 649.028 C 313 646.014, 315.706 643, 318.412 643 C 320.754 643, 319.870 640.563, 317.422 640.270 C 316.365 640.143, 313.986 640.706, 312.135 641.520 M 999.141 656.725 C 997.844 658.204, 996.494 660.192, 996.141 661.143 C 995.789 662.093, 995.743 699.238, 996.039 743.686 C 996.336 788.134, 996.401 825.267, 996.185 826.204 C 995.954 827.200, 993.789 828.574, 990.975 829.508 C 982.722 832.250, 970.853 844.913, 969.845 852.053 L 969.500 854.500 924.115 854.760 C 877.094 855.030, 876 854.943, 876 850.949 C 876 849.956, 875.293 848.436, 874.429 847.571 C 873.564 846.707, 873.227 845.986, 873.679 845.970 C 874.130 845.953, 873.712 845.481, 872.750 844.920 C 871.788 844.359, 871 843.337, 871 842.648 C 871 839.953, 862.705 833.101, 856.173 830.400 C 852.503 828.882, 849.072 827.271, 848.550 826.820 C 848.027 826.369, 844.877 825.999, 841.550 825.997 C 835.990 825.995, 831.902 827.270, 825 831.159 C 824.175 831.624, 822.476 832.447, 821.224 832.987 C 818.056 834.355, 815.879 836.661, 812.004 842.750 C 810.167 845.638, 808.289 848, 807.832 848 C 807.374 848, 807 848.863, 807 849.918 C 807 855.261, 809.334 855, 761.548 855 C 712.290 855, 716.192 855.560, 712.734 848 C 709.635 841.223, 697.779 830.009, 693.700 829.996 C 693.040 829.994, 691.027 829.094, 689.226 827.996 C 685.768 825.888, 676.249 825.188, 674.450 826.909 C 673.928 827.409, 671.075 828.529, 668.111 829.397 C 657.926 832.379, 648.552 841.745, 645.488 852 L 644.442 855.500 630.422 856 C 619.159 856.402, 615.860 856.856, 613.642 858.312 C 609.685 860.909, 610.251 865.597, 614.898 868.718 C 617.924 870.750, 619.511 871.001, 629.398 871.014 C 643.747 871.031, 644.646 871.299, 645.490 875.799 C 645.863 877.788, 647.745 881.790, 649.672 884.693 C 658.096 897.384, 670.597 902.531, 687.180 900.136 C 695.336 898.957, 701.745 895.026, 707.539 887.645 C 711.377 882.756, 712.284 881.158, 714.854 874.750 L 715.957 872 760.872 872 C 809.231 872, 807 871.762, 807 876.927 C 807 877.897, 807.900 879.505, 809 880.500 C 810.100 881.495, 811 882.817, 811 883.436 C 811 885.282, 822.185 895.640, 826.502 897.792 C 831.704 900.386, 842.058 901.460, 849.174 900.145 C 854.034 899.246, 864.938 893.853, 865.787 891.928 C 865.945 891.570, 867.347 889.852, 868.902 888.109 C 870.458 886.367, 873.208 882.030, 875.015 878.471 L 878.299 872 923.631 872 L 968.962 872 969.542 874.750 C 972.026 886.524, 984.414 897.795, 997.348 900.047 C 1016.926 903.456, 1033.156 894.475, 1038.996 877 L 1040.500 872.500 1077.500 872 C 1112.497 871.527, 1114.647 871.392, 1117.219 869.500 C 1119.412 867.887, 1119.943 866.691, 1119.969 863.318 C 1119.995 859.825, 1119.522 858.795, 1117.096 857.068 C 1114.291 855.071, 1112.977 855, 1078.818 855 C 1048.421 855, 1043.132 854.781, 1041.223 853.443 C 1040 852.587, 1039 851.178, 1039 850.311 C 1039 848.316, 1035.464 842.356, 1032.091 838.665 C 1028.638 834.888, 1022.078 830.511, 1017.707 829.068 C 1011.311 826.958, 1011.516 828.393, 1011.809 787.679 C 1011.990 762.461, 1012.428 750.189, 1013.180 749.283 C 1013.788 748.551, 1014.478 748.145, 1014.714 748.381 C 1014.950 748.617, 1017.788 747.316, 1021.019 745.489 C 1024.250 743.663, 1027.931 741.864, 1029.197 741.492 C 1032.579 740.498, 1039.912 736.951, 1040.478 736.036 C 1040.747 735.601, 1046.487 732.456, 1053.233 729.047 C 1059.980 725.638, 1067.300 721.792, 1069.500 720.499 C 1071.700 719.206, 1075.525 717.187, 1078 716.011 C 1088.042 711.243, 1091 709.482, 1091 708.271 C 1091 707.572, 1091.450 707, 1092 707 C 1092.550 707, 1093 705.278, 1093 703.174 C 1093 700.463, 1092.345 698.769, 1090.750 697.359 C 1087.593 694.567, 1083.306 692.001, 1081.785 691.994 C 1080.247 691.986, 1066.530 685.225, 1063.027 682.748 C 1061.668 681.787, 1059.557 681, 1058.337 681 C 1057.116 681, 1055.857 680.578, 1055.539 680.063 C 1055.221 679.548, 1052.382 677.911, 1049.230 676.426 C 1046.079 674.941, 1041.619 672.438, 1039.320 670.863 C 1037.021 669.288, 1034.859 668, 1034.516 668 C 1033.395 668, 1013.577 658.139, 1010.500 656.050 C 1006.269 653.178, 1002.032 653.430, 999.141 656.725 M 681.726 656.459 C 680.200 657.255, 678.625 657.985, 678.226 658.081 C 677.827 658.176, 677.050 658.389, 676.500 658.553 C 675.950 658.717, 674.150 659.080, 672.500 659.358 C 669.637 659.842, 662.962 661.721, 656.500 663.861 C 654.850 664.407, 650.125 665.821, 646 667.003 C 641.875 668.185, 637.375 669.752, 635.999 670.486 C 633.139 672.010, 626.229 673.579, 614 675.481 C 600.656 677.556, 591.326 679.851, 587.503 681.998 C 585.568 683.085, 583.651 684.045, 583.243 684.132 C 580.948 684.621, 568.947 692.774, 567.338 694.938 C 566.699 695.797, 564.673 698.121, 562.838 700.103 C 560.143 703.012, 552.468 716.796, 549.533 724 C 549.197 724.825, 548.271 726.625, 547.476 728 C 546.680 729.375, 546.012 731.625, 545.992 733 C 545.970 734.400, 544.399 737.259, 542.419 739.500 C 530.940 752.489, 525.799 758.197, 519.926 764.474 C 516.310 768.338, 511.360 773.732, 508.926 776.459 C 506.492 779.187, 503.368 782.562, 501.984 783.959 C 498.115 787.867, 488.386 800.294, 487.710 802.192 C 487.379 803.122, 485.940 804.649, 484.513 805.584 C 481.223 807.739, 477.443 806.295, 475.924 802.301 C 474.477 798.494, 475.470 795.547, 479.835 790.691 C 481.908 788.386, 483.580 785.825, 483.552 785 C 483.305 777.826, 466.845 799.817, 460.161 816.250 C 459.546 817.763, 458.557 819, 457.962 819 C 457.368 819, 457.149 819.432, 457.475 819.959 C 457.801 820.487, 457.647 821.724, 457.134 822.709 C 456.081 824.728, 453.928 832.269, 451.581 842.164 C 449.975 848.936, 449.425 866.676, 450.765 868.500 C 451.927 870.082, 457.806 874, 459.017 874 C 459.621 874, 462.072 875.092, 464.463 876.428 C 466.855 877.763, 469.076 878.591, 469.400 878.267 C 469.723 877.944, 470.778 878.369, 471.744 879.212 C 472.710 880.056, 476.865 881.772, 480.977 883.026 C 495.231 887.374, 516.201 885.610, 523 879.492 C 523.825 878.750, 524.875 878.162, 525.332 878.185 C 527.499 878.295, 538.647 868.882, 544.249 862.211 C 559.924 843.544, 562.679 839.586, 570.978 823.802 C 583.022 800.897, 583.148 800.605, 582.506 797.178 C 581.451 791.555, 586.040 788.325, 592.894 789.865 C 595.201 790.383, 599.590 790.283, 604.082 789.609 C 612.465 788.351, 613.552 786.989, 610.072 782.101 C 607.946 779.115, 607.420 773.338, 608.925 769.500 C 609.417 768.245, 609.181 766.691, 608.290 765.327 C 607.509 764.131, 606.787 760.872, 606.685 758.084 C 606.583 755.297, 606.317 753.012, 606.094 753.008 C 605.871 753.004, 604.214 754.125, 602.411 755.500 C 600.608 756.875, 598.714 758, 598.202 758 C 597.689 758, 596.084 758.933, 594.635 760.073 C 593.186 761.212, 592 761.832, 592 761.450 C 592 761.068, 591.392 761.260, 590.649 761.876 C 589.906 762.493, 587.272 763.275, 584.795 763.615 C 576.231 764.789, 568.969 758.748, 572.489 753.377 C 573.837 751.320, 574.838 751, 579.933 751 C 585.280 751, 586.279 750.637, 590.823 747.046 C 597.227 741.983, 597.357 741.724, 594.986 738.710 C 591.110 733.782, 593.442 727, 599.013 727 C 600.309 727, 603.198 727.929, 605.434 729.066 C 609.589 731.176, 611.364 732.268, 619.090 737.467 C 625.450 741.745, 631.125 741.663, 635.082 737.234 C 638.642 733.250, 638.759 730.173, 635.610 723.409 C 632.487 716.702, 619.592 705.555, 610.762 701.928 C 603.389 698.901, 601.529 695.894, 604.357 691.577 C 605.631 689.634, 606.892 689, 609.489 689 C 614.697 689, 623.829 693.185, 630.603 698.675 C 635.522 702.661, 636.284 702.741, 638.410 699.497 C 640.309 696.599, 647.188 692, 649.624 692 C 652.081 692, 675.253 684.825, 677 683.524 C 677.825 682.909, 681.200 681.387, 684.500 680.142 C 696.836 675.488, 703 671.231, 703 667.365 C 703 666.614, 703.436 666, 703.969 666 C 704.501 666, 704.678 665.325, 704.362 664.500 C 704.042 663.668, 704.333 663, 705.015 663 C 705.981 663, 705.978 662.678, 705 661.500 C 704.315 660.675, 704.114 660, 704.552 660 C 704.990 660, 704.292 658.875, 703 657.500 C 700.870 655.232, 699.901 655.001, 692.576 655.006 C 687.484 655.010, 683.475 655.547, 681.726 656.459 M 646.750 706.716 C 643.213 707.252, 643.282 708.923, 647.063 714.287 C 649.624 717.921, 650.222 719.893, 650.708 726.317 C 651.027 730.542, 651.613 734, 652.009 734 C 653.870 734, 658.437 729.248, 660.104 725.579 C 662.564 720.162, 662.468 717.858, 659.546 712.092 C 656.446 705.972, 655.177 705.440, 646.750 706.716 M 246 712.545 C 246 713.395, 247.125 715.216, 248.500 716.591 C 249.875 717.966, 251 719.314, 251 719.587 C 251 722.670, 268.498 739.531, 275.166 742.874 C 277.550 744.069, 280.850 745.934, 282.500 747.018 C 297.868 757.117, 323.413 761.052, 339.729 755.835 C 343.453 754.644, 347.210 753.069, 348.079 752.335 C 348.947 751.601, 349.986 751, 350.387 751 C 353.426 751, 364 738.977, 364 735.521 C 364 733.673, 361.410 733.488, 360.720 735.287 C 359.959 737.272, 338.701 739.427, 333 738.098 C 330.525 737.521, 325.714 737.038, 322.309 737.024 C 318.904 737.011, 315.835 736.543, 315.490 735.984 C 315.144 735.425, 314.474 735.207, 314 735.500 C 313.526 735.793, 312.856 735.575, 312.510 735.016 C 312.165 734.457, 309.771 733.984, 307.191 733.965 C 304.611 733.945, 301.375 733.286, 300 732.500 C 298.625 731.714, 295.522 731.055, 293.105 731.035 C 290.191 731.012, 286.258 729.821, 281.433 727.500 C 277.431 725.575, 273.239 724, 272.119 724 C 270.153 724, 258.467 718.164, 250.770 713.339 C 246.365 710.577, 246 710.516, 246 712.545 M 656.119 746.553 C 654.450 747.958, 652.503 749.014, 651.792 748.900 C 651.081 748.786, 648.827 749.437, 646.782 750.346 C 644.737 751.256, 642.359 752, 641.497 752 C 640.635 752, 638.810 752.734, 637.442 753.630 C 635.500 754.902, 633.306 755.154, 627.445 754.778 C 623.314 754.513, 619.677 754.714, 619.361 755.225 C 618.294 756.952, 624.808 761.581, 627.675 761.131 C 628.321 761.030, 629.135 761.409, 629.484 761.973 C 630.317 763.321, 638.694 763.303, 639.530 761.952 C 639.886 761.376, 640.925 760.995, 641.839 761.106 C 645.839 761.591, 655.366 756.588, 658.873 752.161 C 664.285 745.327, 662.323 741.333, 656.119 746.553 M 648.472 773.613 C 646.489 776.757, 628.910 777.718, 625.383 774.876 C 624.680 774.310, 623.792 774.546, 622.990 775.512 C 621.510 777.295, 621.280 777.033, 626.781 779.826 C 631.080 782.010, 636.103 782.529, 641.831 781.384 C 644.924 780.765, 653 774.647, 653 772.922 C 653 771.371, 649.554 771.898, 648.472 773.613 M 671.798 844.362 C 668.317 845.907, 664.414 849.594, 661.823 853.787 C 660.254 856.326, 659.759 858.850, 659.723 864.503 C 659.677 871.557, 659.842 872.102, 663.310 876.333 C 673.370 888.611, 689.296 887.885, 697.630 874.770 C 702.064 867.792, 700.183 852.890, 694.225 847.787 C 689.262 843.537, 677.652 841.764, 671.798 844.362 M 834.500 844.503 C 829.867 846.142, 823 852.984, 823 855.961 C 823 857.083, 822.663 858, 822.250 857.999 C 821.837 857.999, 821.571 860.587, 821.658 863.749 C 822.011 876.556, 829.845 885, 841.376 885 C 846.056 885, 855 881.648, 855 879.894 C 855 879.481, 855.586 878.548, 856.302 877.821 C 858.168 875.928, 861.849 868.004, 862.594 864.278 C 863.044 862.028, 862.578 859.759, 860.992 856.483 C 857.460 849.188, 854.397 846.195, 848.743 844.516 C 842.518 842.668, 839.695 842.665, 834.500 844.503 M 996.773 844.317 C 983.887 850.291, 979.930 867.845, 989.237 877.752 C 1006.249 895.861, 1033.464 875.999, 1022.459 853.507 C 1020.430 849.358, 1018.972 847.840, 1015.209 845.957 C 1009.751 843.225, 1000.840 842.432, 996.773 844.317" stroke="none" fill="#171916" fill-rule="evenodd"/>
</svg>