<svg role="img" aria-labelledby="artwork-title" shape-rendering="geometricPrecision" xmlns="http://www.w3.org/2000/svg" width="1200" height="1200" viewBox="0 0 1200 1200" version="1.1">
	<title id="artwork-title">Mascot holding an identity card</title>
	<path d="M 837.500 144 C 837.160 144.550, 833.956 145, 830.379 145 C 825.559 145, 822.468 145.647, 818.438 147.500 C 815.447 148.875, 810.413 151.179, 807.250 152.621 C 798.309 156.696, 787.639 165.870, 785.841 171.026 C 784.429 175.076, 781 175.166, 781 171.153 C 781 166.120, 767.295 154.740, 759 152.885 C 757.075 152.455, 753.025 151.370, 750 150.475 C 742.037 148.118, 722.790 149.006, 714.500 152.113 C 711.200 153.350, 707.306 155.180, 705.846 156.181 C 704.386 157.181, 702.739 158, 702.185 158 C 701.632 158, 699.002 159.714, 696.340 161.809 C 693.678 163.904, 690.712 165.915, 689.750 166.278 C 688.788 166.640, 688 167.464, 688 168.107 C 688 168.750, 686.313 171.210, 684.250 173.572 C 675.270 183.860, 671.007 191.325, 670.985 196.803 C 670.962 202.375, 669.802 203.508, 667.193 200.507 C 665.994 199.128, 664.367 198, 663.578 198 C 662.789 198, 661.436 197.293, 660.571 196.429 C 659.707 195.564, 658.993 195.227, 658.985 195.679 C 658.976 196.130, 658.595 195.909, 658.136 195.186 C 656.954 193.322, 640.039 191.876, 633.518 193.081 C 630.676 193.607, 626.602 194.928, 624.464 196.018 C 622.326 197.108, 619.885 198.014, 619.039 198.031 C 614.013 198.133, 598.457 209.240, 591.210 217.901 C 582.892 227.842, 577.370 244.668, 578.331 257.142 C 578.994 265.739, 578.545 266.580, 573.514 266.154 C 569.378 265.803, 558.936 268.356, 555.406 270.581 C 542.542 278.689, 532.577 291.644, 529.371 304.426 C 526.448 316.084, 526.090 318.534, 526.584 323.500 C 528.026 337.988, 531.655 348.363, 536.828 352.783 L 539.500 355.066 535.235 358.783 C 532.889 360.827, 530.976 362.847, 530.985 363.271 C 530.993 363.696, 529.909 365.721, 528.575 367.771 C 527.241 369.822, 525.622 373.525, 524.977 376 C 524.332 378.475, 523.360 381.043, 522.816 381.706 C 522.273 382.370, 522.118 383.382, 522.473 383.956 C 522.828 384.530, 522.641 385, 522.059 385 C 520.842 385, 520.554 401.221, 521.750 402.417 C 522.162 402.829, 522.526 403.467, 522.557 403.833 C 522.589 404.200, 524.073 407.650, 525.854 411.500 C 529.473 419.319, 534.803 425.434, 539.864 427.572 C 542.773 428.801, 543.158 429.366, 542.713 431.747 C 542.430 433.261, 541.698 437.200, 541.086 440.500 C 539.339 449.915, 542.657 460.534, 549.725 468.151 C 552.728 471.387, 552.380 474.051, 548.726 475.803 C 543.151 478.475, 531.480 491.423, 528.140 498.642 C 526.395 502.414, 524.075 507.163, 522.985 509.195 C 520.078 514.616, 518.692 529.863, 519.776 544.500 C 520.560 555.085, 520.982 556.963, 523.357 560.426 C 524.838 562.585, 525.885 564.835, 525.684 565.426 C 525.270 566.644, 505.599 566.408, 484.500 564.932 C 477.350 564.432, 457.100 563.333, 439.500 562.490 C 421.900 561.647, 406.568 560.484, 405.430 559.906 C 404.257 559.310, 399.162 558.994, 393.677 559.177 C 388.352 559.355, 383.997 559.233, 383.998 558.907 C 383.999 558.581, 370.484 557.999, 353.963 557.615 C 337.443 557.230, 319.106 556.497, 313.213 555.985 C 307.321 555.473, 286.412 554.597, 266.748 554.039 C 228.335 552.949, 227.897 552.985, 217.868 558.077 C 214.072 560.004, 204.039 570.608, 204.014 572.719 C 204.006 573.390, 202.988 575.865, 201.750 578.219 L 199.500 582.500 199.500 642.461 L 199.500 702.423 196.500 703.873 C 194.850 704.670, 192.825 705.687, 192 706.131 C 191.175 706.575, 188.660 707.795, 186.411 708.842 C 184.161 709.889, 180.689 712.378, 178.694 714.373 C 176.699 716.368, 174.602 718, 174.033 718 C 173.465 718, 173 718.675, 173 719.500 C 173 720.325, 172.553 721, 172.008 721 C 169.491 721, 160.015 735.829, 160.004 739.785 C 160.002 740.492, 159.213 742.272, 158.250 743.741 C 156.143 746.956, 155.699 764.096, 157.672 766.071 C 158.316 766.716, 158.623 767.818, 158.354 768.521 C 158.084 769.223, 158.344 770.095, 158.932 770.458 C 160.671 771.533, 160.139 777.270, 158 780.500 C 155.146 784.810, 155.093 803.338, 157.918 809.390 C 161.085 816.175, 163.128 823.121, 164.012 830.113 C 164.472 833.749, 165.783 838.468, 166.924 840.598 C 168.066 842.728, 169 845.685, 169 847.170 C 169 848.655, 169.525 851.137, 170.166 852.685 C 170.808 854.233, 171.370 855.731, 171.416 856.013 C 171.858 858.718, 182.727 878.427, 184.581 879.885 C 185.912 880.932, 187 882.179, 187 882.658 C 187 885.480, 209.822 907, 212.815 907 C 213.382 907, 215.118 908.269, 216.673 909.819 C 219.685 912.822, 237.500 922, 240.319 922 C 241.243 922, 242 922.477, 242 923.059 C 242 923.641, 242.450 923.840, 243 923.500 C 243.550 923.160, 244 923.359, 244 923.941 C 244 924.523, 244.920 925, 246.045 925 C 248.843 925, 253 929.377, 253 932.322 C 253 934.694, 259.794 948.952, 263.622 954.615 C 264.694 956.202, 266.224 958.850, 267.021 960.500 C 269.479 965.586, 274.207 973.241, 278.449 979 C 283.215 985.471, 284.740 987.870, 285.601 990.250 C 285.949 991.212, 286.566 992, 286.972 992 C 287.378 992, 289.652 994.813, 292.026 998.250 C 303.977 1015.556, 335.015 1046.976, 342.500 1049.345 C 343.600 1049.693, 345.625 1050.999, 347 1052.247 C 352.226 1056.991, 352.333 1057, 403.143 1057 C 450.116 1057, 451.256 1056.954, 454.096 1054.932 C 455.693 1053.794, 457 1053.198, 457 1053.606 C 457 1054.015, 458.012 1053.420, 459.250 1052.284 C 460.488 1051.149, 463.975 1048.906, 467 1047.300 C 475.246 1042.923, 481 1039.095, 481 1037.987 C 481 1037.444, 481.563 1036.993, 482.250 1036.985 C 483.712 1036.967, 490.878 1032.074, 497.188 1026.785 C 501.403 1023.252, 501.800 1023.126, 505.294 1024.198 C 510.212 1025.708, 515.919 1023.972, 520.933 1019.441 C 523.028 1017.549, 525.250 1016, 525.871 1016 C 526.492 1016, 527 1015.454, 527 1014.786 C 527 1013.960, 527.421 1014.040, 528.316 1015.036 C 529.329 1016.162, 529.469 1018.921, 528.922 1027 C 528.532 1032.775, 528.164 1041.888, 528.106 1047.250 L 528 1057 745.378 1057 C 937.382 1057, 962.900 1056.825, 964 1055.500 C 964.847 1054.479, 964.925 1053.601, 964.244 1052.750 C 963.009 1051.208, 962.051 1035.535, 963.089 1033.856 C 963.549 1033.112, 967.876 1032.340, 974.172 1031.878 C 986.945 1030.941, 998.165 1029.235, 999.350 1028.050 C 999.842 1027.558, 1000.894 1027.406, 1001.689 1027.711 C 1002.484 1028.016, 1004.117 1027.812, 1005.317 1027.257 C 1010.521 1024.853, 1013.039 1024.143, 1018.597 1023.510 C 1029.072 1022.319, 1052.208 1016.751, 1054.372 1014.901 C 1054.851 1014.492, 1055.805 1014.372, 1056.491 1014.635 C 1057.176 1014.898, 1059.286 1014.243, 1061.179 1013.180 C 1063.072 1012.117, 1066.979 1010.741, 1069.861 1010.123 C 1072.742 1009.505, 1076.408 1008.323, 1078.006 1007.497 C 1079.605 1006.670, 1083.052 1005.883, 1085.666 1005.747 L 1090.419 1005.500 1091.203 1009.500 C 1091.634 1011.700, 1092.253 1015.075, 1092.579 1017 C 1092.904 1018.925, 1093.406 1021.175, 1093.694 1022 C 1093.981 1022.825, 1094.138 1026.792, 1094.041 1030.817 C 1093.935 1035.246, 1094.334 1038.697, 1095.053 1039.564 C 1095.706 1040.351, 1096.524 1044.483, 1096.870 1048.747 L 1097.500 1056.500 1106.409 1056.791 C 1111.309 1056.951, 1115.693 1056.707, 1116.153 1056.247 C 1117.231 1055.169, 1114.478 1028.984, 1110.388 1001.422 C 1109.795 997.429, 1109.890 997.267, 1114.891 993.674 L 1120 990.003 1120 979.488 C 1120 973.705, 1119.593 968.191, 1119.095 967.236 C 1118.597 966.281, 1116.060 956.601, 1113.457 945.724 C 1110.853 934.847, 1108.328 925.703, 1107.845 925.404 C 1107.363 925.106, 1107.238 924.423, 1107.570 923.887 C 1107.901 923.351, 1107.700 922.344, 1107.124 921.649 C 1106.547 920.954, 1105.406 917.936, 1104.588 914.943 C 1102.790 908.358, 1096.563 890.707, 1095.380 888.841 C 1094.913 888.103, 1094.484 887.275, 1094.426 887 C 1094.020 885.057, 1081.623 859.459, 1078.202 853.500 C 1076.623 850.750, 1073.861 845.800, 1072.064 842.500 C 1070.267 839.200, 1068.205 835.825, 1067.483 835 C 1066.760 834.175, 1064.218 830.724, 1061.834 827.332 C 1056.094 819.163, 1043.601 804.623, 1036.890 798.299 C 1024.806 786.914, 1006.689 772.852, 1000.750 770.249 C 999.237 769.585, 998 768.588, 998 768.031 C 998 767.475, 994.164 765.154, 989.475 762.873 C 984.785 760.593, 980.709 758.338, 980.415 757.863 C 980.122 757.388, 979.096 757, 978.135 757 C 977.175 757, 974.864 755.875, 973 754.500 C 971.136 753.125, 968.686 751.997, 967.556 751.993 C 966.425 751.990, 964.150 751.093, 962.500 750 C 960.850 748.907, 958.600 747.996, 957.500 747.975 C 956.400 747.954, 954.653 747.295, 953.618 746.512 C 952.584 745.728, 949.356 744.593, 946.445 743.989 C 943.535 743.384, 940.635 742.265, 940 741.500 C 939.365 740.735, 936.293 739.620, 933.173 739.021 C 930.053 738.422, 926.771 737.530, 925.880 737.039 C 924.989 736.547, 919.251 734.929, 913.130 733.443 C 907.008 731.956, 902 730.320, 902 729.806 C 902 728.538, 912.213 719.086, 913.635 719.038 C 914.259 719.017, 915.481 717.914, 916.351 716.587 C 917.221 715.260, 919.213 713.893, 920.778 713.549 C 924.152 712.808, 930.471 706.918, 932.900 702.250 C 933.544 701.013, 934.730 700, 935.535 700 C 936.341 700, 937 699.570, 937 699.045 C 937 698.520, 938.125 696.966, 939.500 695.591 C 940.875 694.216, 942 692.352, 942 691.450 C 942 689.353, 945.129 684.831, 950.961 678.500 C 955.512 673.560, 961.693 662.375, 964.500 654 C 966.105 649.213, 967.161 648, 969.725 648.004 C 971.251 648.006, 974.075 648.985, 976 650.180 C 980.794 653.155, 996.093 653.472, 1000.355 650.684 C 1001.882 649.685, 1005.909 648.420, 1009.303 647.874 C 1012.698 647.327, 1016.191 646.232, 1017.066 645.440 C 1017.942 644.648, 1019.025 644, 1019.475 644 C 1020.932 644, 1030.490 637.264, 1035.770 632.516 C 1041.051 627.768, 1048.982 618.202, 1052.780 612 C 1057.827 603.756, 1059.279 600.227, 1062.170 589.177 C 1065.100 577.974, 1065.204 576.870, 1064.738 562 C 1064.296 547.922, 1063.981 545.784, 1061.300 538.694 C 1059.677 534.401, 1057.600 530.014, 1056.684 528.944 C 1055.769 527.875, 1055.301 527, 1055.645 527 C 1055.988 527, 1055.084 526.067, 1053.635 524.927 C 1052.186 523.788, 1051 522.216, 1051 521.436 C 1051 520.655, 1050.100 519.455, 1049 518.768 C 1046.245 517.047, 1046.496 513.816, 1049.611 510.924 C 1052.535 508.210, 1060 497.617, 1060 496.182 C 1060 495.672, 1060.992 493.060, 1062.205 490.377 C 1064.002 486.401, 1064.397 483.744, 1064.346 476 C 1064.272 464.951, 1061.738 457.505, 1056.713 453.572 C 1054.413 451.773, 1053.895 450.778, 1054.515 449.358 C 1054.962 448.336, 1055.366 447.200, 1055.414 446.833 C 1055.461 446.467, 1055.838 445.829, 1056.250 445.417 C 1057.613 444.054, 1057.031 441.338, 1054.976 439.479 C 1053.605 438.237, 1053.280 437.320, 1053.970 436.630 C 1054.659 435.941, 1055.893 436.481, 1057.798 438.307 C 1059.344 439.788, 1061.346 441, 1062.246 441 C 1063.146 441, 1064.135 441.410, 1064.445 441.911 C 1065.294 443.285, 1071.403 439.906, 1074.230 436.500 C 1077.260 432.847, 1080 427.648, 1080 425.550 C 1080 424.697, 1080.498 424, 1081.107 424 C 1081.716 424, 1081.955 423.325, 1081.638 422.500 C 1081.322 421.675, 1081.448 421, 1081.918 421 C 1084.943 421, 1085.737 396.200, 1082.926 389.500 C 1082.234 387.850, 1081.591 386.275, 1081.497 386 C 1077.966 375.624, 1072.530 368.197, 1063.088 360.851 L 1059.684 358.202 1061.657 354.851 C 1062.742 353.008, 1064.472 348.125, 1065.501 344 C 1066.529 339.875, 1067.737 336.072, 1068.185 335.550 C 1069.331 334.214, 1069.205 320.605, 1068.036 319.436 C 1067.506 318.906, 1066.374 315.153, 1065.520 311.096 C 1063.112 299.649, 1058.767 291.605, 1050.903 284.036 C 1047.168 280.441, 1042.849 276.553, 1041.306 275.396 C 1034.753 270.484, 1022.977 267, 1012.923 267 C 1007.264 267, 1006.865 266.301, 1007.646 257.763 C 1008.235 251.317, 1007.086 242.779, 1004.920 237.500 C 1004.242 235.850, 1003.622 234.050, 1003.540 233.500 C 1003.459 232.950, 1001.862 229.356, 999.991 225.513 C 996.370 218.076, 982.707 202.651, 978.645 201.416 C 977.465 201.057, 975.825 200.195, 975 199.500 C 974.175 198.805, 972.375 197.905, 971 197.500 C 969.625 197.095, 967.756 196.112, 966.847 195.315 C 965.938 194.518, 961.257 193.046, 956.444 192.043 C 948.592 190.407, 946.912 190.359, 940.096 191.575 C 935.918 192.320, 931.422 192.946, 930.104 192.965 C 928.785 192.984, 925.334 194.575, 922.434 196.500 C 916.078 200.719, 915.228 200.798, 914.385 197.250 C 914.025 195.738, 913.152 193.825, 912.444 193 C 911.735 192.175, 910.843 190.150, 910.460 188.500 C 908.538 180.209, 900.227 168.204, 891.201 160.684 C 885.950 156.307, 873.810 149, 871.791 149 C 871.043 149, 867.870 148.100, 864.740 147 C 861.611 145.900, 857.239 145, 855.025 145 C 852.811 145, 851 144.550, 851 144 C 851 143.437, 848.186 143, 844.559 143 C 841.016 143, 837.840 143.450, 837.500 144 M 822 165.969 C 817.325 167.644, 813 169.686, 812.390 170.507 C 811.779 171.328, 810.879 172.032, 810.390 172.071 C 808.043 172.260, 793.329 184.882, 791.803 188.015 C 790.870 189.932, 789.725 191.950, 789.259 192.500 C 787.460 194.620, 786.905 196.038, 787.498 196.996 C 788.313 198.315, 793.422 195.663, 795.339 192.926 C 798.287 188.718, 811.360 180.729, 819.497 178.163 C 829.670 174.955, 847.449 174.519, 855.500 177.281 C 858.250 178.224, 862.413 179.464, 864.750 180.037 C 867.087 180.609, 869 181.644, 869 182.338 C 869 183.031, 870.501 184.141, 872.335 184.804 C 876.766 186.407, 887.425 196.149, 890.433 201.347 C 891.755 203.631, 893.336 207.394, 893.945 209.708 C 895.209 214.504, 896.468 215.687, 898.507 213.994 C 899.706 212.999, 899.717 212.483, 898.576 210.658 C 897.834 209.471, 896.674 205.457, 895.998 201.738 C 895.322 198.018, 894.364 194.725, 893.869 194.419 C 893.375 194.113, 892.351 192.381, 891.594 190.570 C 890.837 188.759, 889.381 186.264, 888.359 185.026 C 885.102 181.080, 876.582 173, 875.679 173 C 875.200 173, 873.493 172.063, 871.885 170.918 C 864.613 165.740, 857.187 163.755, 843.500 163.329 C 831.030 162.941, 830.153 163.049, 822 165.969 M 728.450 168.851 C 727.928 169.320, 724.592 170.495, 721.038 171.463 C 707.219 175.226, 698.563 182.239, 690.265 196.393 C 688.803 198.887, 688.616 202, 689.929 202 C 691.289 202, 694 199.061, 694 197.586 C 694 195.718, 704.519 185, 706.352 185 C 707.214 185, 708.950 183.933, 710.210 182.628 C 711.469 181.323, 714.045 179.968, 715.934 179.616 C 717.823 179.264, 720.234 178.194, 721.292 177.238 C 722.948 175.742, 725.393 175.502, 738.858 175.515 C 753.090 175.528, 754.886 175.731, 758.781 177.765 C 761.135 178.994, 763.932 180, 764.996 180 C 766.059 180, 767.411 180.900, 768 182 C 769.187 184.218, 774 184.795, 774 182.719 C 774 182.015, 772.763 180.897, 771.250 180.235 C 769.737 179.572, 766.250 177.620, 763.500 175.896 C 760.750 174.173, 756.025 172.118, 753 171.330 C 749.975 170.542, 747.072 169.470, 746.550 168.948 C 745.370 167.770, 729.750 167.686, 728.450 168.851 M 667.351 212.686 C 664.210 215.880, 658.999 216.568, 654.415 214.393 C 645.271 210.054, 626.995 213.429, 616.023 221.483 C 610.137 225.804, 602 235.015, 602 237.358 C 602 238.261, 601.647 239, 601.216 239 C 598.448 239, 594.538 254.978, 596.942 256.464 C 597.934 257.077, 600.529 252.443, 600.154 250.729 C 600.062 250.304, 602.041 246.837, 604.554 243.023 C 609.315 235.796, 618.581 226.557, 622.957 224.674 C 624.356 224.072, 626.524 222.813, 627.775 221.876 C 634.509 216.834, 658.257 217.134, 665.792 222.356 C 667.891 223.810, 670.610 225, 671.835 225 C 675.110 225, 675.779 222.096, 672.989 219.992 C 671.550 218.906, 670.445 216.768, 670.083 214.370 L 669.500 210.500 667.351 212.686 M 936.500 212.476 C 935.950 212.650, 932.293 213.778, 928.374 214.982 C 919.386 217.743, 915 220.368, 915 222.985 C 915 225.707, 917.499 225.548, 922.852 222.488 C 926.652 220.316, 928.414 220, 936.734 220 C 944.303 220, 946.906 220.388, 949.382 221.886 C 951.097 222.923, 953.625 224.112, 955 224.527 C 956.375 224.943, 960.003 226.907, 963.062 228.891 C 975.071 236.682, 985 252.885, 985 264.689 C 985 267.030, 985.409 268.028, 986.250 267.744 C 988.564 266.961, 987.844 250.549, 985.133 242.275 C 983.831 238.301, 982.143 234.534, 981.383 233.903 C 980.622 233.271, 980 232.181, 980 231.479 C 980 229.025, 969.649 219.658, 963.815 216.832 C 956.656 213.364, 941.374 210.927, 936.500 212.476 M 575.250 282.706 C 573.462 282.938, 572 283.548, 572 284.063 C 572 284.579, 571.132 285, 570.071 285 C 569.011 285, 567.468 285.675, 566.643 286.500 C 565.818 287.325, 564.765 288, 564.304 288 C 562.303 288, 552.969 297.397, 551.370 301.023 C 550.405 303.210, 549.225 305, 548.749 305 C 548.272 305, 548.122 305.389, 548.416 305.864 C 548.710 306.339, 547.964 308.702, 546.760 311.114 C 543.603 317.434, 543.682 327.968, 546.911 331.405 C 548.175 332.751, 548.930 334.304, 548.588 334.857 C 548.247 335.410, 548.425 336.144, 548.984 336.490 C 549.543 336.835, 550.069 338.104, 550.152 339.309 C 550.236 340.514, 550.643 335.425, 551.056 328 C 551.671 316.962, 552.236 313.588, 554.155 309.500 C 557.384 302.619, 561.563 297.057, 566.175 293.500 C 568.315 291.850, 571.427 289.425, 573.091 288.112 C 574.756 286.798, 577.463 285.448, 579.108 285.112 C 580.753 284.775, 582.189 284.050, 582.300 283.500 C 582.526 282.369, 580.031 282.088, 575.250 282.706 M 982.526 284.950 C 980.844 288.203, 980.532 291, 981.851 291 C 984.706 291, 989 288.588, 989 286.984 C 989 281.438, 984.993 280.180, 982.526 284.950 M 999.458 286.068 C 999.095 286.656, 998.168 286.895, 997.399 286.600 C 996.629 286.304, 996 286.466, 996 286.958 C 996 287.450, 995.218 288.004, 994.261 288.188 C 992.730 288.483, 992.804 288.804, 994.888 290.888 C 996.969 292.969, 997.902 293.187, 1002.633 292.698 C 1009.089 292.032, 1017.744 295.102, 1022.500 299.745 C 1024.150 301.356, 1027.075 303.725, 1029 305.009 C 1032.529 307.364, 1036.898 311.876, 1036.964 313.234 C 1036.984 313.638, 1038.360 316.775, 1040.022 320.206 C 1041.684 323.637, 1042.828 327.005, 1042.565 327.690 C 1042.302 328.375, 1042.518 329.202, 1043.044 329.527 C 1043.570 329.852, 1044.007 331.554, 1044.015 333.309 C 1044.040 338.450, 1045.456 339.761, 1047.542 336.576 C 1049.225 334.007, 1049.224 333.420, 1047.507 323.403 C 1045.861 313.803, 1045.266 312.245, 1040.456 304.932 C 1037.566 300.540, 1034.144 296.146, 1032.851 295.169 C 1029.892 292.932, 1018.770 288, 1016.684 288 C 1015.823 288, 1014.886 287.625, 1014.603 287.167 C 1014.320 286.708, 1012.772 286.527, 1011.162 286.763 C 1009.553 286.999, 1007.932 286.699, 1007.559 286.096 C 1006.689 284.687, 1000.325 284.665, 999.458 286.068 M 688.306 295.250 C 687.182 296.488, 685.974 298.722, 685.621 300.215 C 685.268 301.708, 683.678 304.858, 682.087 307.215 C 673.617 319.761, 662.334 328.419, 649.936 331.885 C 640.945 334.399, 635.844 334.533, 627.858 332.463 C 624.597 331.618, 621.529 331.173, 621.042 331.474 C 620.555 331.775, 619.865 335.054, 619.508 338.761 C 618.722 346.915, 614.353 359.762, 611.831 361.338 C 610.824 361.967, 609.997 363.160, 609.994 363.991 C 609.988 365.464, 602.262 373.445, 596.732 377.691 C 593.986 379.799, 593.961 379.926, 593.636 393.158 C 593.359 404.434, 592.974 407.152, 591.154 410.710 C 589.969 413.026, 589 416.288, 589 417.960 C 589 419.632, 588.612 421, 588.139 421 C 587.665 421, 587.492 422.123, 587.754 423.496 C 588.017 424.869, 587.524 427.483, 586.659 429.305 C 585.795 431.127, 584.572 436.867, 583.942 442.059 C 583.312 447.252, 582.392 452.258, 581.898 453.184 C 581.404 454.111, 581 455.573, 581 456.434 C 581 458.509, 585.340 458.500, 587.065 456.422 C 587.785 455.554, 590.490 453.772, 593.075 452.462 C 606.617 445.600, 654.829 445.386, 677.150 452.089 C 691.789 456.485, 707.713 468.284, 711.618 477.629 C 713.391 481.871, 716.322 482.690, 721.500 480.389 C 724.116 479.226, 742.920 479.238, 745.500 480.404 C 746.600 480.901, 748.288 481.210, 749.250 481.091 C 750.212 480.972, 751 481.353, 751 481.937 C 751 482.522, 751.788 482.998, 752.750 482.995 C 753.712 482.992, 756.671 483.768, 759.324 484.719 L 764.148 486.448 767.824 481.979 C 773.237 475.396, 775.594 473.399, 782.519 469.526 C 791.219 464.661, 798.843 463.078, 818.500 462.056 C 834.107 461.244, 836.879 461.374, 852.328 463.640 C 861.583 464.998, 870.358 466.609, 871.828 467.221 C 873.298 467.832, 874.725 468.409, 875 468.503 C 875.275 468.596, 876.175 468.955, 877 469.299 C 877.825 469.643, 881.440 471.010, 885.033 472.336 C 890.816 474.470, 899.668 479.547, 904.012 483.221 C 906.799 485.578, 915 495.703, 915 496.786 C 915 499.128, 918.272 501, 922.365 501 C 924.687 501, 933.217 501.919, 941.321 503.042 C 949.424 504.165, 956.492 504.814, 957.027 504.483 C 957.561 504.153, 957.893 501.322, 957.764 498.191 C 957.635 495.061, 957.891 490.025, 958.333 487 C 959.135 481.512, 959.125 481.482, 953.714 473.291 C 946.334 462.120, 945.079 456.283, 947.344 443.677 C 948.295 438.380, 949.820 433.382, 950.952 431.851 C 952.030 430.393, 953.197 428.063, 953.546 426.673 C 953.895 425.282, 954.815 423.901, 955.590 423.604 C 957.588 422.837, 957.342 419.048, 955.250 418.372 C 952.156 417.372, 943.563 412.769, 941.500 411.007 C 940.400 410.067, 938.706 409.018, 937.735 408.675 C 936.764 408.332, 935.509 407.027, 934.947 405.776 C 934.384 404.524, 932.365 401.255, 930.462 398.511 C 928.558 395.768, 927 392.981, 927 392.319 C 927 391.656, 925.987 389.401, 924.750 387.307 C 922.852 384.095, 922.507 382.091, 922.546 374.485 C 922.586 366.646, 922.897 365.058, 924.931 362.307 C 927.920 358.265, 927.138 355.521, 923.238 356.362 C 907.798 359.695, 896.981 359.173, 888.290 354.678 C 880.039 350.409, 865.015 335.377, 864.996 331.370 C 864.994 330.892, 863.869 328.286, 862.496 325.581 C 859.802 320.272, 859.429 317.971, 861.004 316.396 C 861.675 315.725, 861.546 314.761, 860.613 313.485 C 859.257 311.632, 859.108 311.653, 855.359 314.250 C 845.842 320.841, 823.125 324.923, 812.300 321.986 C 801.534 319.065, 791.243 311.683, 786.389 303.401 C 784.971 300.980, 783.481 299, 783.079 299 C 782.677 299, 781.265 300.154, 779.940 301.564 C 776.491 305.235, 764.122 313.193, 762.970 312.482 C 762.437 312.152, 762 312.359, 762 312.941 C 762 313.523, 761.303 314, 760.450 314 C 759.598 314, 757.592 314.677, 755.992 315.504 C 754.392 316.332, 749.736 317.474, 745.646 318.043 C 736.862 319.265, 728.847 318.227, 721.500 314.916 C 718.750 313.677, 716.275 312.624, 716 312.576 C 715.104 312.419, 709.945 308.573, 706.181 305.255 C 704.157 303.470, 702.163 302.007, 701.750 302.005 C 701.337 302.002, 701 301.526, 701 300.947 C 701 300.367, 699.763 298.342, 698.250 296.447 C 694.983 292.353, 691.335 291.914, 688.306 295.250 M 1043.778 344 C 1043.381 345.375, 1043.006 346.725, 1042.943 347 C 1042.881 347.275, 1042.354 348.073, 1041.772 348.774 C 1040.188 350.683, 1041.808 351.621, 1043.598 349.831 C 1044.558 348.871, 1045.024 346.990, 1044.824 344.890 C 1044.520 341.714, 1044.455 341.657, 1043.778 344 M 207.392 359.678 C 203.856 361.442, 200.488 367.917, 201.338 371.320 C 201.637 372.519, 203.484 380.250, 205.442 388.500 C 207.400 396.750, 209.298 404.175, 209.660 405 C 210.022 405.825, 210.230 406.885, 210.124 407.355 C 210.017 407.826, 210.361 408.730, 210.887 409.364 C 211.414 409.998, 212.539 413.512, 213.388 417.172 C 215.747 427.344, 217.996 431.770, 221.697 433.527 C 224.499 434.856, 225.365 434.874, 228.258 433.666 C 232.195 432.021, 235 428.146, 235 424.353 C 235 422.859, 234.080 418.006, 232.956 413.568 C 228.679 396.691, 227.172 390.377, 226.531 386.643 C 226.167 384.522, 225.379 381.597, 224.779 380.143 C 224.179 378.689, 223.620 377.050, 223.537 376.500 C 223.454 375.950, 223.033 374.600, 222.601 373.500 C 222.170 372.400, 221.039 369.475, 220.088 367 C 219.011 364.196, 217.105 361.652, 215.032 360.250 C 211.175 357.642, 211.434 357.662, 207.392 359.678 M 548.446 368.087 C 547.573 369.499, 549.501 371.427, 550.913 370.554 C 551.511 370.184, 552 369.234, 552 368.441 C 552 366.757, 549.426 366.501, 548.446 368.087 M 1047.386 375.437 C 1047.037 376.345, 1048.035 378.283, 1049.855 380.231 C 1058.773 389.778, 1060.174 393.192, 1060.765 406.821 C 1061.430 422.129, 1063.212 419.989, 1063.375 403.687 C 1063.481 393.110, 1063.235 390.931, 1061.750 389.284 C 1060.787 388.216, 1060 386.805, 1060 386.149 C 1060 384.700, 1052.347 376.256, 1049.798 374.892 C 1048.435 374.162, 1047.822 374.301, 1047.386 375.437 M 654 407.082 C 643.890 407.770, 631.514 410.901, 626.390 414.068 C 621.762 416.928, 618 422.908, 618 427.404 C 618 433.190, 624.561 439.067, 630 438.153 C 630.275 438.107, 633.875 436.895, 638 435.459 C 647.850 432.033, 660.528 431.888, 671.045 435.082 C 678.883 437.463, 684.945 437.265, 687.968 434.529 C 688.966 433.626, 690.787 430.992, 692.016 428.676 L 694.250 424.464 691.168 419.603 C 684.722 409.439, 673.740 405.740, 654 407.082 M 122.215 415.473 C 120.599 416.833, 118.570 419.403, 117.707 421.185 C 116.269 424.154, 116.278 424.664, 117.819 427.282 C 120.328 431.547, 151.893 461.771, 164.827 472.294 C 169.140 475.802, 172.914 475.788, 176.111 472.250 C 180.328 467.582, 181.453 464.508, 180.120 461.289 C 179.061 458.733, 160.619 439, 159.288 439 C 158.710 439, 157.243 437.704, 141.183 423 C 129.058 411.900, 127.293 411.199, 122.215 415.473 M 826.091 419.185 C 815.599 420.499, 809.484 424.070, 806.324 430.730 C 804.553 434.462, 805.056 437.530, 808.067 441.357 C 812.054 446.426, 815.250 447.340, 824.345 446.010 C 829.123 445.311, 835.577 445.108, 840.150 445.513 C 849.038 446.300, 863.968 451.320, 870.139 455.596 C 876.212 459.805, 880.269 459.437, 885.118 454.239 C 888.299 450.829, 889 449.348, 889 446.042 C 889 435.820, 871.063 424.605, 846.646 419.562 C 838.355 417.849, 836.969 417.824, 826.091 419.185 M 623.500 466.938 C 616.525 467.855, 605.682 475.133, 598.082 484 C 590.172 493.228, 589 495.793, 589 503.868 C 589 510.705, 590.258 513.213, 591.699 509.250 C 593.676 503.815, 621.195 475.529, 627.310 472.645 C 631.535 470.653, 633.029 468.265, 630.896 466.914 C 630.128 466.428, 629.275 466.087, 629 466.156 C 628.725 466.225, 626.250 466.577, 623.500 466.938 M 809.187 484.517 C 803.523 486.978, 787.748 502.229, 782.692 510.132 C 779.037 515.846, 776.885 525.193, 778.933 526.458 C 780.165 527.220, 785.860 523.099, 785.945 521.384 C 786.005 520.159, 805.459 501.060, 813.668 494.166 C 816.506 491.782, 820.329 489.082, 822.161 488.166 C 823.994 487.250, 825.641 485.712, 825.820 484.750 C 826.106 483.219, 825.291 483.005, 819.323 483.039 C 815.570 483.061, 811.009 483.726, 809.187 484.517 M 549.028 498.917 C 546.779 501.438, 544.690 504.625, 544.387 506 C 544.083 507.375, 542.891 510.750, 541.737 513.500 C 539.908 517.862, 539.638 520.542, 539.618 534.500 C 539.597 548.930, 539.811 550.961, 541.798 555.195 C 543.009 557.777, 544 561.008, 544 562.374 C 544 565.339, 546.398 568, 549.071 568 C 550.577 568, 551.004 567.287, 551.017 564.750 C 551.027 562.962, 551.720 558.350, 552.557 554.500 C 553.504 550.142, 554.240 540.139, 554.506 528 C 554.741 517.275, 555.205 505.313, 555.537 501.417 C 556.280 492.677, 555.024 492.195, 549.028 498.917 M 722.313 503.041 C 718.251 504.295, 715 508.409, 715 512.297 C 715 518.219, 707.628 540.465, 704.390 544.313 C 703.076 545.875, 702 547.522, 702 547.973 C 702 549.582, 686.011 564.918, 680.309 568.778 C 671.821 574.524, 669.420 575.586, 658.482 578.429 C 638.637 583.587, 613.924 580.230, 600.650 570.573 C 591.370 563.822, 578 548.787, 578 545.103 C 578 544.631, 577.240 542.502, 576.311 540.372 C 575.382 538.242, 574.556 536.275, 574.477 536 C 573.620 533.036, 571.804 529.862, 571.270 530.396 C 570.900 530.767, 570.553 535.981, 570.499 541.984 C 570.420 550.930, 570.083 553.251, 568.632 554.854 C 566.935 556.729, 566.952 557.019, 569.047 561.888 C 571.410 567.380, 571.280 571.619, 568.454 581.357 C 566.721 587.328, 567.673 589.528, 572.372 590.410 C 577.224 591.320, 578.431 593.319, 579 601.386 L 579.500 608.475 583.333 609.093 C 589.290 610.055, 592.242 613.695, 592.734 620.685 C 593.330 629.150, 593.537 629.533, 596.475 627.608 C 599.932 625.343, 602.611 625.602, 606.512 628.577 C 609.159 630.596, 610.157 632.341, 611.116 636.628 L 612.341 642.101 617.420 641.473 C 623.994 640.660, 627.761 642.095, 628.556 645.715 C 629.840 651.567, 629.992 651.679, 632.573 648.694 C 634.461 646.511, 635.005 644.735, 635.022 640.694 C 635.036 637.491, 635.865 633.775, 637.187 631 C 638.366 628.525, 639.370 626.275, 639.419 626 C 639.467 625.725, 640.801 623.297, 642.382 620.603 C 647.609 611.698, 662.515 598.637, 667.608 598.499 C 668.217 598.483, 670.491 597.239, 672.661 595.735 C 675.842 593.530, 677.722 593, 682.353 593 C 685.711 593, 689.411 592.322, 691.255 591.368 C 693.784 590.060, 696.071 589.864, 702.777 590.380 C 711.128 591.021, 715.489 592.475, 717.945 595.434 C 719.705 597.555, 723.621 597.406, 726.865 595.096 C 730.909 592.217, 737.389 591.680, 747.218 593.409 C 756.046 594.963, 759.507 596.299, 761.633 598.977 C 762.407 599.953, 765.527 600.654, 770.818 601.043 C 778.267 601.590, 779.221 601.926, 784.372 605.816 C 787.420 608.117, 790.807 610, 791.898 610 C 792.989 610, 794.165 610.457, 794.510 611.016 C 794.856 611.575, 795.493 611.813, 795.927 611.545 C 797.415 610.626, 814 629.687, 814 632.315 C 814 632.880, 814.708 634.125, 815.573 635.081 C 816.644 636.264, 817.372 639.912, 817.855 646.520 C 818.539 655.873, 818.684 656.329, 821.891 659.194 C 823.720 660.829, 825.530 663.337, 825.913 664.768 C 826.929 668.564, 828.645 668.579, 829.961 664.802 C 831.259 661.078, 835.340 657.455, 839.379 656.441 C 841.682 655.863, 842.655 656.377, 845.890 659.881 C 847.981 662.146, 849.981 664, 850.333 664 C 850.685 664, 851.593 662.516, 852.351 660.703 C 855.853 652.322, 866.326 648.894, 869.797 654.994 C 870.733 656.640, 872.030 657.990, 872.677 657.994 C 874.307 658.002, 878 653.116, 878 650.951 C 878 649.972, 879.606 647.518, 881.568 645.497 C 884.930 642.035, 885.437 641.846, 890.318 642.228 C 893.168 642.450, 896.203 642.956, 897.062 643.351 C 898.138 643.846, 898.955 643.359, 899.685 641.785 C 900.268 640.528, 901.925 636.944, 903.368 633.821 C 904.812 630.697, 907.301 627.210, 908.901 626.071 C 912.152 623.756, 916.955 623.355, 918.842 625.242 C 920.659 627.059, 921.966 624.507, 921.985 619.104 C 922.004 613.530, 927.490 604.722, 931.900 603.185 C 933.512 602.623, 935.090 602.424, 935.409 602.742 C 935.727 603.061, 936.890 602.504, 937.994 601.506 C 939.580 600.070, 940 598.426, 940 593.649 C 940 586.471, 943.346 580.522, 947.952 579.511 C 951.439 578.745, 953.850 574.729, 952.093 572.612 C 950.856 571.122, 951.008 570.566, 954.307 564.500 C 958.459 556.866, 958.371 557.301, 956.543 553.450 C 955.072 550.350, 954.968 548.874, 955.852 543.650 C 958.456 528.270, 958.556 528.542, 950 527.709 C 946.975 527.415, 939.186 526.643, 932.692 525.993 C 916.352 524.359, 916.423 524.329, 915.551 533.182 C 915.099 537.763, 913.958 542.049, 912.420 544.938 C 911.089 547.438, 910 549.893, 910 550.392 C 910 551.777, 904.862 562.173, 902.780 565 C 895.087 575.448, 891.357 579.186, 879.903 587.923 C 877.042 590.106, 871.846 592.189, 862.067 595.076 C 858.528 596.120, 855.316 597.488, 854.929 598.116 C 854.541 598.743, 853.723 598.947, 853.112 598.569 C 852.500 598.191, 852 598.359, 852 598.941 C 852 600.301, 824.366 600.401, 823.527 599.044 C 823.202 598.518, 822.384 598.299, 821.708 598.558 C 821.033 598.818, 818.702 598.123, 816.529 597.015 C 814.355 595.907, 811.503 595, 810.190 595 C 806.854 595, 791.709 587.534, 787.798 583.963 C 786.014 582.333, 784.170 581, 783.700 581 C 782.204 581, 777.324 575.545, 773.571 569.679 C 771.573 566.556, 769.502 564, 768.969 564 C 768.436 564, 768 563.467, 768 562.816 C 768 562.164, 767.126 559.802, 766.059 557.566 C 760.830 546.614, 759.802 542.524, 758.969 529.346 C 758.511 522.112, 758.372 515.295, 758.658 514.198 C 760.288 507.967, 750.395 502.931, 735.500 502.408 C 730 502.215, 724.066 502.500, 722.313 503.041 M 85.304 516.750 C 83.398 518.813, 81.424 520.388, 80.919 520.250 C 80.414 520.112, 80 521.350, 80 523 C 80 524.834, 80.518 526, 81.334 526 C 82.067 526, 84.642 527.823, 87.056 530.052 C 90.068 532.833, 92.238 534.043, 93.973 533.908 C 95.363 533.801, 97.175 533.973, 98 534.290 C 104.908 536.950, 141.831 539.775, 146.496 538.001 C 149.917 536.701, 153.205 531.180, 152.453 528 C 151.418 523.623, 146.204 519.213, 140.604 517.977 C 134.902 516.719, 99.918 513.072, 93.135 513.028 C 89.356 513.004, 88.304 513.504, 85.304 516.750 M 1004.955 527.286 C 999.011 530.182, 994 534.036, 994 535.713 C 994 536.448, 992.931 537.456, 991.624 537.953 C 989.405 538.796, 985 546.047, 985 548.856 C 985 551.361, 980.886 558.024, 978.041 560.128 C 974.009 563.109, 973.626 564.701, 975.980 568.691 C 978.444 572.867, 978.690 581.484, 976.464 585.636 C 975.306 587.793, 975.081 590.130, 975.551 595.104 C 976.049 600.382, 975.641 603.879, 973.519 612.516 C 972.059 618.460, 971.114 624.318, 971.419 625.532 C 972.221 628.729, 983.866 632.373, 991.163 631.711 C 1008.550 630.136, 1023.606 621.175, 1033.591 606.461 C 1036.384 602.346, 1041 592.486, 1041 590.637 C 1041 589.920, 1041.338 588.996, 1041.750 588.583 C 1042.162 588.171, 1042.516 587.533, 1042.535 587.167 C 1042.555 586.800, 1043.159 585.440, 1043.877 584.145 C 1044.595 582.849, 1045.624 577.031, 1046.163 571.215 C 1047.639 555.288, 1045.907 548.102, 1037.159 533.848 C 1032.107 525.615, 1015.379 522.207, 1004.955 527.286 M 230.198 573.589 C 228.997 574.188, 227.188 575.425, 226.178 576.339 C 225.169 577.252, 223.856 578, 223.260 578 C 222.665 578, 221.224 579.971, 220.058 582.381 C 217.969 586.694, 217.939 587.624, 218.050 642.805 C 218.175 704.573, 217.658 700, 224.517 700 C 226.361 700, 229.137 700.525, 230.685 701.166 C 232.233 701.808, 233.800 702.370, 234.167 702.416 C 234.533 702.462, 235.171 702.837, 235.583 703.250 C 235.996 703.663, 237.303 704, 238.489 704 C 239.674 704, 242.411 705.337, 244.572 706.972 C 246.732 708.607, 249.323 709.957, 250.329 709.972 C 251.335 709.987, 254.710 707.825, 257.829 705.166 C 265.611 698.533, 272.091 695.014, 276.678 694.930 C 278.780 694.891, 281.338 694.530, 282.363 694.127 C 284.015 693.478, 283.811 693.060, 280.567 690.447 C 271.428 683.085, 266.913 678.474, 265.328 674.882 C 264.386 672.747, 263.225 671, 262.749 671 C 262.272 671, 262.160 670.550, 262.500 670 C 262.840 669.450, 262.673 669, 262.130 669 C 260.450 669, 258 658.546, 258 651.380 C 258 643.291, 259.772 638.097, 265.806 628.500 C 270.644 620.805, 272.767 618.700, 277.986 616.425 C 279.904 615.589, 282.491 613.948, 283.736 612.778 C 284.981 611.608, 286 611.010, 286 611.448 C 286 611.886, 286.563 611.810, 287.250 611.278 C 290.460 608.794, 297.801 607.753, 303.192 609.017 C 306.111 609.702, 309.063 610.708, 309.750 611.253 C 310.438 611.799, 311 611.959, 311 611.610 C 311 610.584, 319.209 615.964, 322.838 619.368 C 329.862 625.957, 332.169 629.852, 334.618 639.253 C 337.199 649.160, 337.132 650.964, 333.753 662.399 C 331.249 670.875, 328.690 675.481, 323.032 681.699 C 318.610 686.557, 309.632 693, 307.284 693 C 306.578 693, 306 693.388, 306 693.863 C 306 694.338, 308.813 694.959, 312.250 695.244 C 315.688 695.529, 320.075 696.567, 322 697.551 C 323.925 698.534, 326.563 699.872, 327.862 700.523 C 331.351 702.271, 341.879 711.321, 341.944 712.628 C 341.975 713.248, 342.631 714.278, 343.401 714.918 C 345.375 716.556, 349.706 725.653, 351.058 731 C 351.684 733.475, 352.652 736.057, 353.210 736.737 C 353.767 737.418, 353.968 738.641, 353.656 739.455 C 353.343 740.270, 353.518 741.202, 354.044 741.527 C 354.570 741.852, 355 744.942, 355 748.392 C 355 754.053, 354.677 755.040, 351.700 758.485 C 348.772 761.872, 347.785 762.350, 342.950 762.725 C 333.397 763.466, 272.445 761.309, 270.285 760.153 C 267.019 758.405, 266.878 759.961, 269.902 764.377 C 271.455 766.645, 273.043 769.513, 273.430 770.750 C 273.818 771.987, 274.607 773, 275.184 773 C 275.767 773, 276.019 774.123, 275.751 775.524 C 275.485 776.912, 275.658 778.289, 276.134 778.583 C 277.317 779.314, 277.236 791.736, 276.044 792.473 C 275.518 792.798, 275.313 793.653, 275.589 794.372 C 275.865 795.091, 275.396 796.257, 274.546 796.962 C 272.467 798.687, 272.585 801.763, 274.750 802.296 C 275.712 802.534, 283.700 802.815, 292.500 802.921 C 301.300 803.028, 314.800 803.533, 322.500 804.043 C 330.200 804.553, 343.287 804.977, 351.583 804.985 C 359.879 804.993, 366.950 805.283, 367.296 805.629 C 367.642 805.976, 372.477 806.174, 378.040 806.071 C 383.603 805.968, 388.682 806.298, 389.327 806.806 C 389.972 807.313, 393.875 808.021, 398 808.379 C 407.468 809.200, 466.784 811.833, 494.504 812.663 C 514.383 813.258, 515.722 813.182, 519.504 811.244 C 523.893 808.995, 533 800.487, 533 798.636 C 533 797.995, 533.995 795.677, 535.211 793.485 C 537.772 788.869, 537.599 795.795, 538.159 674.987 L 538.500 601.474 535.410 596.807 C 529.973 588.596, 525.238 585.609, 518.197 585.950 C 515.831 586.064, 513.353 585.708, 512.692 585.159 C 511.354 584.049, 507.551 583.811, 464.500 582.148 C 448 581.511, 429.325 580.534, 423 579.977 C 416.675 579.420, 389.225 578.287, 362 577.460 C 334.775 576.634, 309.205 575.517, 305.178 574.979 C 301.150 574.440, 291.588 574, 283.928 574 C 276.267 574, 270 573.663, 270 573.250 C 270 572.037, 232.673 572.355, 230.198 573.589 M 714.425 628.083 C 712.390 630.332, 706.782 633, 704.090 633 C 703.174 633, 700.866 631.668, 698.962 630.041 C 695.106 626.744, 692.470 626.331, 689.522 628.559 C 688.101 629.633, 686.325 629.871, 683.216 629.405 C 679.575 628.859, 678.509 629.112, 676.500 631 C 674.749 632.645, 673.428 633.073, 671.555 632.603 C 670.150 632.251, 667.987 632.222, 666.750 632.539 C 663.509 633.370, 659.976 642.594, 658.915 652.997 C 658.101 660.982, 658.197 661.778, 660.524 666.228 C 661.886 668.832, 663 672.006, 663 673.282 C 663 676.356, 664.790 678, 668.136 678 C 670.287 678, 671.353 678.856, 673.120 682 C 675.504 686.241, 675.567 686.276, 681 686.412 C 683.622 686.478, 684.748 687.064, 685.487 688.750 C 686.030 689.987, 687.043 691, 687.737 691 C 688.432 691, 689 691.450, 689 692 C 689 693.417, 693.313 693.242, 695.192 691.750 C 696.057 691.063, 697.003 688.571, 697.293 686.213 C 697.654 683.271, 698.967 680.526, 701.477 677.463 C 704.726 673.498, 705.592 673, 709.238 673 C 711.653 673, 714.095 673.681, 715.170 674.654 C 716.572 675.923, 718.690 676.258, 724.271 676.095 C 732.058 675.868, 736.872 677.473, 738.158 680.725 C 738.544 681.701, 738.891 685.932, 738.930 690.128 C 739.018 699.728, 740.027 700.883, 746.811 699.147 C 752.456 697.702, 757.934 698.552, 760.059 701.202 C 761.575 703.092, 761.728 703.039, 765.559 699.309 C 771.180 693.836, 774.569 692.250, 777.170 693.874 C 779.922 695.593, 785 693.607, 785 690.813 C 785 687.906, 786.834 684.813, 790.312 681.853 C 793.188 679.407, 793.450 678.650, 793.774 671.853 C 793.967 667.809, 794.389 663.825, 794.711 663 C 795.583 660.769, 795.434 658.821, 794.151 655.685 C 793.518 654.137, 793 652.408, 793 651.843 C 793 651.278, 792.100 649.671, 791 648.273 C 789.900 646.874, 789 644.946, 789 643.988 C 789 641.048, 786.669 640.076, 780.057 640.260 L 773.717 640.435 769.401 635.667 C 765.200 631.028, 765.019 630.942, 762.668 632.482 C 761.340 633.352, 757.920 634.341, 755.070 634.678 C 750.853 635.178, 749.384 634.926, 747.193 633.328 C 742.676 630.035, 740.893 629.752, 738.546 631.956 C 737.368 633.063, 734.939 634.262, 733.148 634.620 C 730.208 635.208, 729.474 634.822, 725.576 630.636 C 720.744 625.448, 717.485 624.701, 714.425 628.083 M 679.484 635.611 C 676.146 639.213, 675.502 641.792, 677.412 643.903 C 678.288 644.871, 678.768 645.898, 678.479 646.187 C 677.217 647.450, 686.532 655.223, 692.729 658.078 C 696.453 659.794, 701.432 662.165, 703.793 663.349 C 707.761 665.337, 709.611 665.500, 728.210 665.500 C 743.474 665.500, 748.436 665.197, 748.753 664.244 C 748.983 663.553, 749.582 663.242, 750.085 663.553 C 750.588 663.864, 751 663.692, 751 663.170 C 751 662.649, 752.688 661.914, 754.750 661.537 C 762.110 660.191, 772.163 652.562, 773.612 647.223 C 774.459 644.103, 769.849 637.251, 766.304 636.362 C 764.502 635.909, 762.603 636.279, 760.556 637.482 C 745.349 646.417, 733.192 649.195, 717.921 647.224 C 708.335 645.986, 702.095 643.259, 694.641 637.048 C 688.545 631.969, 683.319 631.474, 679.484 635.611 M 385 642.076 C 382.219 643.229, 378.092 647.797, 378.036 649.785 C 377.964 652.352, 381.374 656.119, 385.391 657.911 C 389 659.521, 394.407 659.878, 429.862 660.843 C 456.330 661.563, 470.683 662.322, 471.557 663.048 C 472.291 663.656, 475.155 664.034, 477.922 663.887 C 480.689 663.740, 483.264 663.930, 483.643 664.310 C 484.023 664.689, 486.396 664.982, 488.917 664.959 C 499.619 664.864, 505.420 651.633, 496.952 646.631 C 494.374 645.108, 490.793 644.769, 473.208 644.389 C 461.819 644.142, 449.125 643.552, 445 643.078 C 440.875 642.604, 429.625 642.196, 420 642.172 C 410.375 642.147, 399.125 641.883, 395 641.584 C 390.747 641.276, 386.418 641.489, 385 642.076 M 557.578 664.874 C 556.615 666.433, 556.620 753.021, 557.583 753.967 C 558.130 754.505, 560.160 753.731, 562.619 752.048 C 564.884 750.497, 568.934 748.536, 571.619 747.691 C 579.879 745.092, 585.387 743.036, 588.004 741.575 C 589.382 740.806, 593.306 739.670, 596.725 739.050 C 600.143 738.430, 604.515 737.265, 606.438 736.461 C 608.362 735.658, 612.624 735, 615.909 735 C 622.301 735, 624.647 733.577, 620.718 732.083 C 614.845 729.850, 592.002 710.026, 585 701.085 C 583.625 699.329, 580.118 695.258, 577.207 692.037 C 569.185 683.162, 564.083 675.353, 561.503 668 C 560.154 664.155, 558.725 663.018, 557.578 664.874 M 382.128 694.250 C 376.644 698.610, 376.756 702.217, 382.500 706.184 C 386.472 708.928, 386.667 708.955, 410.500 709.963 C 423.700 710.521, 439.225 711.409, 445 711.935 C 450.775 712.462, 464.315 713.029, 475.088 713.196 L 494.677 713.500 497.321 711 C 501.296 707.242, 500.938 703.056, 496.303 699.097 C 494.270 697.360, 491.683 695.756, 490.553 695.531 C 489.424 695.307, 479.500 694.878, 468.500 694.579 C 457.500 694.279, 443.550 693.355, 437.500 692.526 C 430.737 691.598, 418.741 691.013, 406.358 691.008 L 386.216 691 382.128 694.250 M 200.500 721.698 C 192.688 724.489, 186.019 729.400, 182.616 734.867 C 177.657 742.833, 175.659 756.956, 178.164 766.322 C 179.158 770.040, 179.012 771.930, 177.164 779.301 C 174.007 791.887, 174.292 798.631, 178.500 810.860 C 180.777 817.477, 182 822.882, 182 826.322 C 182 830.394, 182.576 832.392, 184.500 835 C 186.247 837.368, 187 839.674, 187 842.656 C 187 847.688, 194.999 864.096, 200.259 869.853 C 210.216 880.753, 222.754 893.079, 224.442 893.626 C 225.510 893.973, 229.231 895.999, 232.710 898.128 C 236.189 900.258, 239.371 902, 239.782 902 C 240.193 902, 242.142 902.864, 244.113 903.921 C 246.084 904.977, 249.677 906.369, 252.098 907.014 C 254.519 907.658, 257.175 908.787, 258 909.522 C 258.825 910.256, 259.725 910.858, 260 910.858 C 261.773 910.862, 265.852 913.167, 267.808 915.270 C 269.674 917.277, 270.064 918.686, 269.842 922.626 C 269.593 927.076, 270.153 928.480, 276.284 938.762 C 279.978 944.957, 283.001 950.357, 283.001 950.762 C 283.002 951.168, 284.870 954.200, 287.152 957.500 C 298.512 973.928, 300.633 976.918, 304.657 982.174 C 307.045 985.295, 309 988.244, 309 988.729 C 309 989.213, 310.618 991.376, 312.596 993.535 C 314.574 995.695, 317.115 998.820, 318.243 1000.481 C 321.250 1004.907, 342.263 1026, 343.666 1026 C 344.326 1026, 345.119 1026.787, 345.430 1027.750 C 345.967 1029.415, 350.199 1032.464, 354.479 1034.270 C 355.568 1034.729, 357.225 1035.798, 358.160 1036.645 C 363.060 1041.079, 378.080 1047.625, 385 1048.342 C 387.475 1048.599, 392.766 1049.394, 396.759 1050.109 C 402.770 1051.187, 404.832 1051.180, 408.759 1050.071 C 411.366 1049.335, 415.750 1048.393, 418.500 1047.978 C 421.250 1047.564, 425.075 1046.527, 427 1045.673 C 428.925 1044.820, 431.749 1043.858, 433.275 1043.536 C 434.802 1043.213, 436.894 1042.106, 437.924 1041.076 C 438.954 1040.046, 441.161 1038.904, 442.829 1038.538 C 444.497 1038.171, 446.361 1037.270, 446.972 1036.534 C 447.582 1035.798, 449.266 1034.899, 450.712 1034.536 C 452.159 1034.173, 454.451 1033.004, 455.806 1031.938 C 457.161 1030.872, 458.624 1030, 459.058 1030 C 459.491 1030, 461.181 1028.763, 462.812 1027.250 C 467.294 1023.093, 468.804 1022, 470.063 1022 C 470.695 1022, 472.483 1020.987, 474.037 1019.750 C 475.591 1018.513, 478.495 1016.375, 480.492 1015 C 489.044 1009.109, 500.778 999.283, 502.011 996.979 C 502.807 995.493, 502.559 992.246, 501.041 984.242 C 499.920 978.334, 499.002 972.583, 499.002 971.461 C 499.001 970.340, 498.149 967.754, 497.109 965.714 C 496.069 963.674, 494.917 960.766, 494.550 959.252 C 493.426 954.620, 488.075 941.731, 485.520 937.500 C 481.557 930.939, 479.116 926.780, 476.150 921.536 C 470.527 911.593, 449.344 889.387, 442.750 886.522 C 441.513 885.985, 439.912 884.747, 439.193 883.772 C 436.411 879.999, 432.980 881.550, 423.209 890.997 C 413.111 900.761, 412.902 901.418, 418.494 905.816 C 419.872 906.901, 421 908.230, 421 908.771 C 421 909.312, 421.646 910.291, 422.435 910.946 C 424.223 912.430, 428 919.575, 428 921.474 C 428 922.250, 427.056 924.486, 425.901 926.443 C 424.098 929.500, 423.282 930, 420.103 930 C 417.174 930, 415.685 929.258, 412.952 926.432 C 408.489 921.820, 407.149 920.599, 385.433 901.357 C 375.750 892.778, 374.145 891.304, 359.602 877.629 C 345.864 864.711, 341.990 861.676, 337.990 860.697 C 332.997 859.475, 330.393 850.356, 333.046 843.380 C 333.621 841.868, 334.359 837.163, 334.685 832.925 C 335.420 823.392, 335.284 823.290, 321.500 823.100 C 316 823.023, 304.525 822.564, 296 822.079 C 287.475 821.594, 280.236 821.359, 279.913 821.557 C 279.590 821.755, 279.524 825.423, 279.765 829.708 C 280.181 837.070, 280.015 837.858, 276.762 844 C 272.621 851.819, 264.539 858.834, 256.158 861.884 C 249.200 864.416, 232.357 865.796, 229.178 864.095 C 227.991 863.460, 226.329 861.604, 225.485 859.970 C 224.098 857.288, 224.103 856.701, 225.541 853.921 C 227.258 850.601, 232.047 848.085, 238.250 847.245 C 240.313 846.965, 242 846.311, 242 845.792 C 242 845.272, 243.463 844.945, 245.250 845.064 C 253.135 845.593, 260.008 838.717, 259.993 830.316 C 259.986 826.262, 258.357 823.290, 253.500 818.475 C 250.503 815.503, 250.490 815.500, 238.334 815.500 C 227.285 815.500, 225.888 815.707, 223.124 817.750 C 216.192 822.876, 207.951 819.251, 208.039 811.115 C 208.072 808.043, 208.710 807.036, 212.289 804.411 C 219.737 798.949, 228.094 796.864, 241.429 797.141 C 255.885 797.442, 256.302 797.155, 256.839 786.524 C 257.151 780.347, 256.867 778.521, 255.171 775.777 C 253.452 772.995, 247.713 767.771, 246 767.427 C 245.725 767.372, 244.600 766.921, 243.500 766.425 C 240.115 764.899, 219.070 765.268, 218.079 766.872 C 217.613 767.626, 216.617 768.021, 215.866 767.749 C 215.115 767.477, 213.578 768.090, 212.452 769.112 C 211.325 770.133, 208.958 771.258, 207.190 771.612 C 204.385 772.173, 203.533 771.785, 200.488 768.556 C 197.195 765.065, 195.722 760, 198 760 C 198.550 760, 199 759.325, 199 758.500 C 199 757.675, 199.659 757, 200.465 757 C 201.270 757, 202.408 756.105, 202.994 755.012 C 203.579 753.918, 205.282 752.717, 206.779 752.343 C 208.275 751.968, 211.525 750.758, 214 749.653 C 217.671 748.014, 220.749 747.631, 230.714 747.572 C 244.669 747.490, 245.721 746.995, 247.018 739.903 C 247.780 735.735, 247.409 734.083, 244.630 729.280 C 243.190 726.791, 238.706 723, 237.201 723 C 236.661 723, 234.257 722.110, 231.859 721.022 C 225.225 718.012, 209.892 718.342, 200.500 721.698 M 383.246 739.739 C 380.918 741.380, 377 747.374, 377 749.294 C 377 750.342, 378.463 752.663, 380.252 754.452 C 383.299 757.499, 384.067 757.743, 392.502 758.344 C 397.451 758.696, 415.406 759.066, 432.403 759.166 L 463.305 759.347 465.653 756.618 C 470.339 751.170, 466.909 744.311, 458.994 743.303 C 456.522 742.988, 453.970 742.313, 453.323 741.803 C 452.676 741.293, 448.119 740.965, 443.196 741.073 C 438.273 741.181, 433.797 740.993, 433.248 740.654 C 431.604 739.637, 384.609 738.778, 383.246 739.739 M 853.250 752.564 C 850.913 753.860, 849 754.644, 849 754.306 C 849 753.967, 848.166 754.445, 847.146 755.368 C 845.005 757.305, 834.212 760.717, 825.500 762.210 C 822.200 762.775, 817.803 763.859, 815.730 764.619 C 813.656 765.378, 810.870 766, 809.539 766 C 808.207 766, 806.821 766.481, 806.458 767.068 C 806.089 767.666, 803.428 768.026, 800.414 767.886 C 797.453 767.749, 794.723 767.944, 794.348 768.318 C 793.337 769.329, 783.208 769.145, 782.564 768.104 C 781.956 767.120, 778.017 767.940, 771.007 770.510 C 767.222 771.898, 763.752 772.070, 749.007 771.600 C 717.995 770.613, 714.551 770.376, 711.500 769.020 C 709.850 768.287, 707.645 767.797, 706.599 767.932 C 705.554 768.067, 703.754 767.741, 702.599 767.208 C 701.445 766.675, 696 765.220, 690.500 763.974 C 685 762.728, 678.609 760.873, 676.297 759.851 C 673.986 758.829, 671.061 757.882, 669.797 757.747 C 667.595 757.510, 667.514 757.749, 667.848 763.500 C 668.435 773.616, 672.224 780.947, 682 790.882 C 686.675 795.633, 692.075 800.300, 694 801.254 C 695.925 802.207, 698.175 803.408, 699 803.922 C 700.433 804.814, 702.338 805.515, 704.500 805.944 C 705.050 806.053, 706.175 806.744, 707 807.478 C 707.825 808.213, 710.525 809.329, 713 809.958 C 715.475 810.587, 719.197 811.754, 721.270 812.551 C 727.469 814.933, 755.968 814.566, 764 812 C 767.443 810.900, 772.160 810, 774.481 810 C 776.988 810, 780.492 809.048, 783.109 807.657 C 785.533 806.368, 789.256 804.987, 791.381 804.588 C 793.507 804.189, 795.978 803.483, 796.873 803.018 C 797.768 802.554, 801.200 800.985, 804.500 799.532 C 814.014 795.344, 817 793.746, 817 792.843 C 817 792.379, 817.484 792, 818.075 792 C 821.184 792, 850.147 766.952, 852.119 762.557 C 852.627 761.426, 854.368 758.700, 855.988 756.500 C 858.832 752.637, 859.804 749.889, 858.250 750.103 C 857.837 750.160, 855.587 751.267, 853.250 752.564 M 992 790.500 C 992 791.325, 992.479 792, 993.065 792 C 993.650 792, 995.213 793.288, 996.537 794.862 C 999.346 798.200, 1004.710 801.048, 1006.729 800.274 C 1007.773 799.873, 1007.304 798.877, 1004.909 796.406 C 1003.135 794.576, 1001.370 793.271, 1000.987 793.508 C 1000.604 793.745, 999.247 792.827, 997.971 791.469 C 995.396 788.728, 992 788.177, 992 790.500 M 355.662 825.206 C 354.958 825.643, 354.639 828.212, 354.824 831.956 C 355.006 835.632, 354.720 838, 354.093 838 C 353.526 838, 353.324 838.681, 353.643 839.513 C 353.963 840.345, 353.702 841.655, 353.063 842.424 C 352.255 843.398, 352.226 844.022, 352.968 844.480 C 353.553 844.842, 353.798 845.518, 353.511 845.981 C 352.867 847.024, 369.656 862.671, 384.829 875.169 C 401.396 888.814, 399.907 888.254, 405.664 883 C 412.566 876.701, 413.341 875.430, 412.248 872.211 C 410.109 865.916, 413.146 861.982, 437.454 839.554 C 446.510 831.199, 447.935 829.491, 446.367 828.874 C 445.340 828.471, 438.109 828.109, 430.298 828.070 C 422.487 828.032, 408.537 827.338, 399.298 826.529 C 380.145 824.851, 357.347 824.160, 355.662 825.206 M 968 840.035 C 968 841.760, 968.305 841.907, 970 841 C 971.100 840.411, 972 839.495, 972 838.965 C 972 838.434, 971.100 838, 970 838 C 968.655 838, 968 838.667, 968 840.035 M 1084.396 927.410 C 1083.823 928.904, 1086.291 934.444, 1088 935.500 C 1089.697 936.549, 1090.251 933.292, 1089.014 929.541 C 1087.830 925.955, 1085.387 924.828, 1084.396 927.410 M 924 932.500 C 924 935.525, 924.450 938, 925 938 C 925.550 938, 926 935.525, 926 932.500 C 926 929.475, 925.550 927, 925 927 C 924.450 927, 924 929.475, 924 932.500 M 553.622 948.825 C 553.179 950.104, 553.083 951.417, 553.409 951.742 C 554.445 952.779, 555.174 951.250, 554.794 948.836 L 554.426 946.500 553.622 948.825 M 928.044 955.550 C 928.068 959.373, 928.533 964.525, 929.078 967 C 929.623 969.475, 930.844 977.203, 931.792 984.174 C 932.739 991.145, 933.849 997.182, 934.257 997.591 C 935.745 999.078, 935.021 979.381, 933.405 974.409 C 932.527 971.709, 931.486 965.331, 931.091 960.236 C 930.192 948.633, 927.979 945.231, 928.044 955.550 M 1091.561 956.701 C 1090.804 958.675, 1094.020 963.500, 1096.094 963.500 C 1098.140 963.500, 1098.391 960.245, 1096.560 957.451 C 1094.692 954.601, 1092.494 954.271, 1091.561 956.701 M 1095.707 977.500 C 1093.022 980.866, 1092.996 981, 1095.047 981 C 1097.252 981, 1100.908 977.448, 1100.967 975.250 C 1101.029 972.911, 1098.508 973.990, 1095.707 977.500 M 936 1007.545 C 936 1009.976, 936.772 1011.862, 938.455 1013.545 C 943.287 1018.378, 944.627 1015.538, 940.557 1009.090 C 939.213 1006.961, 938.388 1004.945, 938.723 1004.610 C 939.059 1004.274, 938.583 1004, 937.667 1004 C 936.425 1004, 936 1004.903, 936 1007.545" stroke="none" fill="#171916" fill-rule="evenodd"/>
</svg>