<svg role="img" aria-labelledby="artwork-title" shape-rendering="geometricPrecision" xmlns="http://www.w3.org/2000/svg" width="1200" height="1200" viewBox="0 0 1200 1200" version="1.1">
	<title id="artwork-title">Mascot beside a map pin</title>
	<path d="M 742 161 C 742 161.550, 740.742 162, 739.205 162 C 737.038 162, 735.613 163.065, 732.853 166.750 C 730.896 169.363, 728.636 172.850, 727.831 174.500 C 727.026 176.150, 725.889 178.400, 725.304 179.500 C 724.719 180.600, 723.623 182.954, 722.870 184.732 L 721.500 187.964 716.849 184.928 C 708.515 179.488, 687.869 178.825, 676.940 183.647 C 674.773 184.603, 673 185.775, 673 186.251 C 673 186.728, 672.558 186.845, 672.017 186.510 C 669.212 184.777, 651.471 200.583, 647.826 208.064 C 642.844 218.288, 641.793 222.383, 641.487 232.751 C 641.319 238.472, 640.920 243.414, 640.600 243.733 C 640.281 244.053, 638.102 244.654, 635.760 245.069 C 629.157 246.239, 622.700 248.917, 620.500 251.395 C 619.400 252.635, 616.431 255.277, 613.903 257.267 C 610.434 259.996, 608.230 263.046, 604.925 269.692 C 602.516 274.536, 600.529 279.031, 600.510 279.679 C 600.490 280.328, 600.143 281.191, 599.737 281.596 C 598.642 282.692, 598.844 303.785, 599.956 304.473 C 600.482 304.798, 600.665 305.709, 600.363 306.497 C 600.061 307.284, 600.677 309.182, 601.732 310.715 C 602.787 312.247, 604.220 314.930, 604.917 316.678 C 605.613 318.425, 607.042 320.633, 608.091 321.583 C 610.534 323.794, 610.508 325.585, 608 327.732 C 606.900 328.674, 606 330.004, 606 330.687 C 606 331.371, 604.624 333.498, 602.942 335.414 C 601.259 337.330, 599.852 339.258, 599.814 339.699 C 599.674 341.332, 598.856 343.581, 597.340 346.500 C 594.586 351.805, 594.446 360.149, 596.983 367.741 C 598.226 371.458, 599.693 375.063, 600.244 375.750 C 600.794 376.438, 600.918 377, 600.519 377 C 599.258 377, 606.190 384.360, 610.687 387.796 C 615.266 391.295, 615.927 392.986, 613.500 395 C 611.803 396.409, 611.363 406.489, 612.956 407.473 C 613.482 407.798, 613.677 408.679, 613.388 409.431 C 613.100 410.183, 613.318 411.079, 613.874 411.422 C 614.430 411.766, 615.179 414.011, 615.539 416.413 C 615.920 418.955, 617.616 422.779, 619.597 425.566 C 623.761 431.422, 623.814 432.528, 620.030 434.485 C 618.396 435.329, 616.580 436.916, 615.994 438.010 C 615.409 439.105, 614.248 440, 613.414 440 C 612.580 440, 611.201 441.688, 610.349 443.750 C 609.498 445.813, 608.131 448.255, 607.312 449.177 C 606.493 450.099, 605.452 452.349, 604.999 454.177 C 603.990 458.250, 602.050 463.871, 600.802 466.339 C 600.290 467.351, 599.973 471.291, 600.096 475.096 C 600.219 478.900, 600.023 482.310, 599.660 482.673 C 598.700 483.634, 598.850 490, 599.833 490 C 600.843 490, 600.707 493.047, 599.619 494.808 C 598.405 496.771, 595.070 495.237, 589.409 490.110 C 581.262 482.734, 574.194 480.500, 559.001 480.500 C 547.919 480.500, 546.018 480.758, 542.250 482.770 C 539.913 484.019, 538 485.491, 538 486.042 C 538 486.592, 536.940 487.526, 535.645 488.116 C 531.977 489.787, 527.040 486.634, 513.502 473.975 C 506.903 467.804, 499.591 461.439, 497.252 459.830 C 494.914 458.220, 493 456.548, 493 456.112 C 493 455.677, 491.987 454.799, 490.750 454.161 C 489.512 453.524, 486.475 451.450, 484 449.554 C 481.525 447.658, 477.025 444.678, 474 442.932 C 470.975 441.186, 466.306 438.350, 463.624 436.629 C 460.942 434.908, 458.467 433.479, 458.124 433.452 C 457.781 433.426, 455.925 432.415, 454 431.206 C 452.075 429.997, 449.780 429.006, 448.899 429.004 C 448.018 429.002, 445.182 427.875, 442.596 426.500 C 440.010 425.125, 437.170 424, 436.285 424 C 435.400 424, 432.836 422.930, 430.588 421.622 C 428.340 420.315, 424.056 418.727, 421.068 418.094 C 418.081 417.461, 415.096 416.494, 414.434 415.946 C 413.773 415.397, 409.781 414.288, 405.563 413.481 C 401.345 412.674, 397.040 411.556, 395.996 410.998 C 394.953 410.440, 390.590 409.700, 386.300 409.355 C 382.010 409.009, 377.940 408.285, 377.255 407.745 C 376.571 407.205, 375.108 407, 374.005 407.288 C 372.902 407.577, 372 407.472, 372 407.057 C 372 405.931, 348.238 403.985, 334.500 403.986 C 323.734 403.987, 308.996 405.356, 305 406.728 C 304.175 407.011, 301.183 407.157, 298.351 407.053 C 295.519 406.949, 292.905 407.345, 292.542 407.932 C 292.179 408.519, 290.319 409, 288.409 409 C 286.499 409, 283.343 409.665, 281.397 410.479 C 279.451 411.292, 274.015 412.628, 269.319 413.448 C 264.622 414.268, 260.260 415.369, 259.626 415.895 C 258.992 416.421, 256.229 417.397, 253.487 418.064 C 250.744 418.731, 247.578 420.107, 246.452 421.123 C 245.325 422.138, 242.850 423.256, 240.952 423.606 C 239.053 423.956, 235.620 425.313, 233.322 426.621 C 231.024 427.929, 228.471 429, 227.649 429 C 226.826 429, 224.769 430.165, 223.077 431.589 C 221.385 433.013, 220 433.823, 220 433.389 C 220 432.955, 219.460 433.140, 218.800 433.800 C 218.140 434.460, 216.592 435, 215.359 435 C 214.126 435, 212.817 435.487, 212.449 436.083 C 212.081 436.678, 209.917 438.041, 207.640 439.111 C 201.964 441.778, 196.475 445.205, 193.696 447.816 C 192.417 449.017, 190.907 450, 190.341 450 C 189.774 450, 188.495 450.900, 187.500 452 C 186.505 453.100, 185.040 454, 184.245 454 C 183.450 454, 181.225 455.575, 179.300 457.500 C 177.375 459.425, 175.492 461, 175.115 461 C 174.182 461, 148 486.010, 148 486.902 C 148 487.293, 145.928 489.838, 143.396 492.557 C 140.864 495.275, 138.173 498.698, 137.416 500.162 C 136.659 501.626, 134.974 503.662, 133.671 504.687 C 132.368 505.712, 128.772 510.364, 125.681 515.025 C 122.589 519.686, 118.286 526.057, 116.119 529.182 C 113.951 532.307, 111.864 535.907, 111.481 537.182 C 111.098 538.457, 108.877 543.100, 106.546 547.500 C 104.216 551.900, 101.755 557.300, 101.079 559.500 C 100.402 561.700, 99.216 564.850, 98.442 566.500 C 97.191 569.168, 93.965 576.684, 93.507 578 C 93.411 578.275, 92.775 579.850, 92.094 581.500 C 91.413 583.150, 90.451 586.525, 89.955 589 C 89.459 591.475, 88.425 595.525, 87.658 598 C 86.890 600.475, 85.652 607.181, 84.907 612.902 C 83.809 621.332, 83.215 623.393, 81.776 623.769 C 80.117 624.203, 80 626.545, 80 659.176 C 80 679.239, 80.378 693.885, 80.887 693.570 C 82.798 692.389, 84.219 696.323, 85.092 705.210 C 86.180 716.287, 87.293 722.436, 88.947 726.500 C 89.618 728.150, 90.605 732.200, 91.140 735.500 C 91.675 738.800, 92.728 742.444, 93.480 743.599 C 94.232 744.753, 96.270 750.378, 98.008 756.099 C 101.801 768.582, 105.081 777, 106.153 777 C 106.584 777, 106.684 777.659, 106.375 778.465 C 106.066 779.270, 106.706 781.182, 107.796 782.715 C 108.887 784.247, 111.678 790.341, 113.998 796.258 C 116.319 802.175, 118.613 807.261, 119.096 807.559 C 119.579 807.858, 121.582 811.566, 123.548 815.801 C 125.514 820.035, 127.630 824.400, 128.251 825.500 C 128.871 826.600, 130.218 829.075, 131.243 831 C 132.268 832.925, 134.643 836.975, 136.520 840 C 138.397 843.025, 140.736 847.075, 141.717 849 C 142.697 850.925, 144.053 852.854, 144.728 853.287 C 145.404 853.721, 147.532 857.216, 149.459 861.054 C 151.385 864.893, 154.692 870.388, 156.808 873.267 C 162.035 880.379, 168 889.828, 168 890.996 C 168 891.523, 169.125 892.691, 170.500 893.592 C 171.875 894.493, 173 896.078, 173 897.115 C 173 898.152, 173.340 899, 173.756 899 C 174.172 899, 175.095 900.317, 175.808 901.928 C 176.520 903.538, 178.318 906.438, 179.802 908.373 C 186.464 917.058, 192.073 925.065, 193.149 927.429 C 193.794 928.843, 194.657 930, 195.067 930 C 196.016 930, 203 939.675, 203 940.989 C 203 941.530, 205.363 944.792, 208.250 948.237 C 211.138 951.681, 214.834 956.284, 216.464 958.464 C 218.095 960.645, 220.120 963.142, 220.964 964.013 C 224.045 967.190, 229.561 973.664, 232 976.964 C 233.375 978.825, 236.638 982.922, 239.250 986.070 C 241.863 989.218, 244 992.249, 244 992.808 C 244 993.366, 245.385 994.987, 247.077 996.411 C 248.769 997.835, 249.859 999, 249.500 999 C 249.141 999, 250.231 1000.165, 251.923 1001.589 C 253.615 1003.013, 255.008 1004.700, 255.017 1005.339 C 255.035 1006.484, 260.807 1013.402, 273.845 1027.902 C 277.505 1031.974, 280.958 1035.931, 281.519 1036.696 C 282.730 1038.352, 300.781 1039.471, 305.500 1038.184 C 310.278 1036.880, 309.923 1033.869, 304.335 1028.288 C 301.697 1025.655, 297.529 1021.025, 295.072 1018 C 292.614 1014.975, 288.929 1010.700, 286.883 1008.500 C 284.837 1006.300, 281.881 1002.883, 280.316 1000.908 C 278.750 998.932, 275.999 995.845, 274.202 994.048 C 272.405 992.251, 269.726 989.142, 268.249 987.140 C 264.530 982.100, 255.953 971.812, 253.958 970 C 250.834 967.161, 241.799 955.653, 240.674 953.078 C 240.054 951.660, 237.624 948.513, 235.274 946.085 C 232.923 943.657, 231 941.253, 231 940.743 C 231 940.234, 229.987 938.504, 228.750 936.900 C 223.011 929.463, 220.329 925.870, 218.232 922.810 C 216.984 920.989, 213.159 915.675, 209.732 911 C 206.304 906.325, 202.825 901.191, 202 899.592 C 201.175 897.992, 199.263 895.357, 197.750 893.736 C 196.238 892.115, 195 890.557, 195 890.274 C 195 889.421, 189.787 881.330, 184.977 874.718 C 182.489 871.298, 178.937 865.575, 177.083 862 C 175.229 858.425, 171.815 852.780, 169.496 849.455 C 167.177 846.130, 163.998 840.617, 162.432 837.205 C 160.865 833.792, 159.201 831, 158.733 831 C 158.265 831, 158.160 830.550, 158.500 830 C 158.840 829.450, 158.689 829, 158.164 829 C 157.639 829, 155.954 826.638, 154.419 823.750 C 152.884 820.863, 150.375 816.250, 148.842 813.500 C 145.402 807.326, 132.637 781.172, 132.491 780 C 132.457 779.725, 131.893 778.536, 131.237 777.358 C 129.685 774.569, 125.489 763.411, 122.538 754.223 C 121.253 750.221, 119.739 746.391, 119.175 745.711 C 118.611 745.032, 117.462 741.781, 116.622 738.488 C 110.247 713.510, 108 703.487, 108 700.022 C 108 698.425, 107.625 696.886, 107.167 696.603 C 106.708 696.320, 106.535 694.714, 106.782 693.035 C 107.028 691.356, 106.727 689.376, 106.113 688.636 C 104.324 686.481, 102.855 659.077, 103.995 649.128 C 104.539 644.382, 104.987 638.164, 104.992 635.309 C 104.996 632.454, 105.479 629.822, 106.065 629.460 C 106.651 629.098, 107.036 627.609, 106.921 626.151 C 106.807 624.693, 106.964 622.825, 107.270 622 C 107.576 621.175, 108.078 619.150, 108.386 617.500 C 111.980 598.198, 116.969 579.504, 119.595 575.495 C 120.326 574.380, 121.633 571.456, 122.500 568.999 C 124.657 562.885, 128.858 554.073, 131.199 550.750 C 132.264 549.237, 132.827 548, 132.449 548 C 132.072 548, 132.874 546.537, 134.232 544.750 C 135.589 542.962, 137.599 539.475, 138.698 537 C 139.797 534.525, 142.293 530.419, 144.246 527.875 C 146.198 525.332, 148.326 522.259, 148.975 521.046 C 152.073 515.257, 165.835 500.217, 179.185 488.030 C 195.922 472.751, 193.273 474.870, 208.150 464.870 C 209.607 463.890, 211.995 462.788, 213.457 462.421 C 214.919 462.055, 216.816 460.685, 217.672 459.377 C 218.529 458.070, 220.015 457, 220.975 457 C 221.935 457, 224.312 455.920, 226.257 454.600 C 228.202 453.280, 230.853 451.865, 232.147 451.456 C 233.441 451.047, 235.850 449.684, 237.500 448.428 C 239.150 447.172, 240.725 446.141, 241 446.137 C 241.798 446.125, 245.168 444.852, 249.695 442.853 C 252.002 441.834, 254.615 441, 255.500 441 C 256.385 441, 259.204 440.046, 261.763 438.880 C 264.322 437.714, 269.557 436.366, 273.397 435.884 C 277.236 435.402, 280.736 434.443, 281.173 433.754 C 281.611 433.064, 281.983 432.950, 282 433.500 C 282.017 434.050, 282.387 433.939, 282.823 433.253 C 283.258 432.567, 287.414 431.516, 292.057 430.917 C 296.701 430.318, 305.951 428.967, 312.613 427.914 C 327.660 425.536, 350.856 425.354, 363 427.517 C 367.675 428.350, 375.763 429.481, 380.974 430.031 C 386.618 430.627, 391.941 431.810, 394.142 432.957 C 396.173 434.016, 400.631 435.389, 404.047 436.009 C 407.464 436.628, 411.882 438.005, 413.865 439.067 C 415.848 440.130, 418.377 441.006, 419.485 441.013 C 420.593 441.020, 424.159 442.374, 427.408 444.021 C 430.657 445.669, 433.525 446.808, 433.781 446.552 C 434.037 446.296, 435.654 447.157, 437.373 448.465 C 439.093 449.774, 441.850 451.170, 443.500 451.568 C 445.150 451.966, 447.694 453.126, 449.154 454.146 C 450.614 455.166, 452.267 456, 452.828 456 C 453.388 456, 455.119 457.056, 456.673 458.348 C 459.653 460.823, 462.619 462.549, 470 466.103 C 482.026 471.894, 511.779 501.165, 513.471 508.869 C 514.365 512.938, 513.311 516, 511.017 516 C 508.742 516, 503.392 522.567, 502.413 526.559 C 502.017 528.177, 500.862 531.068, 499.847 532.985 C 497.823 536.804, 497.448 546.052, 498.995 554 C 500.894 563.757, 503.051 572.226, 504.169 574.311 C 504.814 575.515, 505.889 580.193, 506.556 584.706 C 507.322 589.881, 508.418 593.561, 509.524 594.667 C 510.489 595.631, 511.884 597.872, 512.626 599.646 C 517.201 610.597, 529.939 622.263, 542.500 627.007 C 544.150 627.631, 545.725 628.147, 546 628.155 C 546.275 628.163, 547.129 628.694, 547.898 629.335 C 548.668 629.976, 552.706 630.725, 556.872 631 L 564.447 631.500 566.327 636.500 C 569.018 643.657, 569.306 679.666, 566.739 688.092 C 565.802 691.168, 564.731 697.648, 564.359 702.492 C 563.881 708.704, 563.019 712.547, 561.433 715.529 C 560.155 717.934, 558.871 722.691, 558.457 726.559 C 558.056 730.299, 556.942 735.191, 555.981 737.430 C 555.020 739.668, 553.947 743.812, 553.597 746.638 C 553.247 749.464, 551.827 753.908, 550.441 756.515 C 549.055 759.122, 548.150 761.484, 548.431 761.764 C 548.711 762.045, 548.035 763.547, 546.927 765.103 C 545.819 766.659, 544.270 770.084, 543.484 772.716 C 542.699 775.347, 541.144 779.283, 540.028 781.461 C 538.913 783.640, 538 786.212, 538 787.176 C 538 788.141, 537.115 789.403, 536.034 789.982 C 534.953 790.561, 533.559 792.923, 532.938 795.232 C 532.316 797.541, 530.951 800.519, 529.904 801.850 C 528.857 803.181, 528 804.722, 528 805.274 C 528 805.827, 526.624 808.515, 524.942 811.248 C 523.260 813.982, 522.108 816.442, 522.382 816.715 C 522.656 816.989, 522.017 818.138, 520.964 819.270 C 519.910 820.401, 518.532 822.889, 517.901 824.799 C 517.271 826.709, 515.685 829.849, 514.378 831.776 C 513.070 833.703, 512 835.822, 512 836.485 C 512 837.148, 511.108 838.497, 510.018 839.483 C 508.928 840.470, 506.395 844.599, 504.389 848.660 C 502.382 852.720, 500.396 856.255, 499.974 856.516 C 499.552 856.777, 498.211 858.905, 496.994 861.245 C 495.777 863.585, 494.441 865.725, 494.025 866 C 493.609 866.275, 492.315 868.382, 491.149 870.682 C 489.983 872.982, 488.572 875.146, 488.014 875.491 C 487.456 875.836, 487 876.917, 487 877.894 C 487 878.870, 485.650 880.872, 484 882.342 C 482.350 883.813, 481 885.842, 481 886.853 C 481 887.863, 480.100 889.505, 479 890.500 C 477.900 891.495, 477 892.837, 477 893.482 C 477 894.127, 474.525 897.880, 471.500 901.823 C 468.475 905.766, 466 909.374, 466 909.841 C 466 910.308, 465.100 911.505, 464 912.500 C 462.900 913.495, 462 914.938, 462 915.705 C 462 916.472, 460.425 918.721, 458.500 920.703 C 456.575 922.685, 455 924.718, 455 925.221 C 455 925.724, 452.986 928.692, 450.525 931.817 C 448.063 934.943, 444.884 939.075, 443.460 941 C 435.430 951.854, 428.810 960.684, 427.715 962 C 427.028 962.825, 424.938 965.634, 423.069 968.243 C 421.201 970.851, 418.621 973.674, 417.336 974.516 C 416.051 975.357, 415 976.639, 415 977.365 C 415 978.090, 414.078 979.767, 412.950 981.092 C 411.823 982.416, 405.932 989.556, 399.859 996.957 C 393.786 1004.359, 384.099 1015.474, 378.332 1021.657 C 363.647 1037.402, 364.432 1039.394, 384.940 1038.407 C 393.567 1037.992, 394.621 1037.717, 397.163 1035.226 C 398.693 1033.727, 399.957 1031.978, 399.972 1031.339 C 399.988 1030.700, 401.385 1029.013, 403.077 1027.589 C 404.769 1026.165, 405.833 1025, 405.442 1025 C 405.050 1025, 405.916 1024.067, 407.365 1022.927 C 408.814 1021.788, 410 1020.377, 410 1019.792 C 410 1019.208, 413.488 1014.916, 417.750 1010.256 C 422.013 1005.596, 426.981 999.920, 428.791 997.642 C 430.601 995.364, 432.838 992.600, 433.762 991.500 C 434.687 990.400, 436.856 987.409, 438.584 984.854 C 440.312 982.298, 444.937 976.393, 448.863 971.731 C 452.788 967.070, 456 963.017, 456 962.724 C 456 962.432, 457.406 960.605, 459.124 958.664 C 460.842 956.723, 462.755 954.296, 463.374 953.269 C 467.680 946.132, 468.774 944.454, 471 941.567 C 476.636 934.257, 484.111 923, 483.329 923 C 483.034 923, 484.077 921.477, 485.646 919.615 C 487.216 917.754, 489.995 913.745, 491.821 910.706 C 493.648 907.667, 496.010 904.396, 497.071 903.436 C 498.132 902.476, 499 901.358, 499 900.952 C 499 900.546, 502.321 895.278, 506.380 889.244 C 510.438 883.211, 514.376 877.147, 515.130 875.768 C 519.976 866.905, 521.249 864.723, 523.543 861.342 C 524.952 859.265, 527.469 854.852, 529.136 851.533 C 534.606 840.649, 535.240 839.521, 537.029 837.500 C 538.587 835.740, 540.444 832.488, 543.878 825.500 C 544.419 824.400, 545.100 822.366, 545.392 820.980 C 545.684 819.594, 546.822 817.495, 547.921 816.315 C 549.020 815.136, 550.231 812.895, 550.612 811.335 C 550.993 809.776, 552.125 807.442, 553.126 806.149 C 554.128 804.855, 555.241 802.155, 555.600 800.149 C 555.959 798.142, 556.827 795.825, 557.527 795 C 558.228 794.175, 559.252 791.840, 559.803 789.811 C 560.354 787.782, 561.899 784.632, 563.235 782.811 C 564.572 780.990, 566.237 777.475, 566.936 775 C 568.358 769.965, 569.640 768, 571.506 768 C 572.712 768, 574.385 771.526, 574.062 773.387 C 573.719 775.366, 578.953 779.416, 586.611 783.099 C 591.073 785.245, 595.264 787, 595.926 787 C 596.588 787, 599.238 787.865, 601.815 788.922 C 604.392 789.980, 609.650 792.056, 613.500 793.535 C 617.350 795.015, 621.625 796.847, 623 797.607 C 624.375 798.366, 627.638 799.874, 630.250 800.958 C 634.746 802.824, 634.998 803.131, 634.965 806.714 C 634.946 808.797, 634.280 813.425, 633.485 817 C 632.641 820.800, 631.597 834.716, 630.972 850.500 C 630.385 865.350, 629.476 878.805, 628.952 880.399 C 628.429 881.994, 628 884.780, 628 886.590 C 628 888.401, 627.530 890.173, 626.955 890.528 C 626.295 890.936, 625.963 896.507, 626.055 905.653 C 626.135 913.617, 625.931 920.403, 625.600 920.733 C 625.270 921.063, 624.991 927.671, 624.981 935.417 C 624.970 943.163, 624.528 957.317, 623.998 966.870 C 622.597 992.099, 622.604 1002.379, 624.023 1005.125 C 627.660 1012.165, 632.915 1013.851, 639.226 1010.004 C 643.259 1007.545, 645.186 1007.479, 646.637 1009.750 C 647.252 1010.713, 649.388 1012.360, 651.383 1013.411 C 654.944 1015.285, 655.114 1015.286, 660.553 1013.437 C 666.069 1011.562, 666.114 1011.564, 670.297 1013.680 C 679.178 1018.172, 681.414 1019, 684.667 1019 C 686.515 1019, 688.809 1018.615, 689.764 1018.145 C 692.452 1016.820, 704.346 1013, 705.779 1013 C 706.483 1013, 709.336 1014.800, 712.119 1017 C 717.673 1021.390, 721.915 1022.149, 725.777 1019.443 C 727 1018.587, 728 1018.227, 728 1018.643 C 728 1019.059, 728.540 1018.860, 729.200 1018.200 C 731.359 1016.041, 738.083 1016.785, 742.203 1019.641 C 745.809 1022.140, 746.481 1022.251, 754.757 1021.722 C 760.434 1021.358, 765.827 1021.646, 770.136 1022.543 C 778.780 1024.343, 815.614 1024.656, 822.184 1022.986 C 826.152 1021.978, 827.665 1022.060, 832.073 1023.524 C 837.640 1025.373, 838.031 1025.335, 855.212 1021.236 L 861.924 1019.634 867.226 1022.317 C 870.143 1023.793, 873.422 1024.989, 874.514 1024.976 C 878.120 1024.934, 891.249 1021.051, 894.729 1018.998 L 898.147 1016.981 902.688 1020.240 C 908.954 1024.737, 915.658 1024.755, 922.835 1020.293 C 930.303 1015.651, 931.174 1015.562, 935.500 1019 C 938.213 1021.156, 939.923 1021.843, 941.409 1021.373 C 944.319 1020.453, 948 1017.946, 948 1016.885 C 948 1015.732, 954.195 1015.743, 957.240 1016.901 C 958.677 1017.448, 961.362 1017.419, 964.055 1016.829 C 973.624 1014.733, 974.454 1014.739, 976.425 1016.917 C 978.722 1019.455, 979.946 1019.509, 983.904 1017.250 C 986.999 1015.483, 989 1011.620, 989 1007.410 C 989 1006.149, 989.493 1004.813, 990.096 1004.441 C 990.698 1004.068, 991.014 1002.249, 990.798 1000.398 C 990.582 998.546, 990.734 996.912, 991.135 996.766 C 991.537 996.620, 992.392 986.375, 993.036 974 C 993.959 956.235, 993.942 949.652, 992.953 942.716 C 992.264 937.885, 991.360 933.723, 990.944 933.465 C 990.528 933.208, 990.431 932.069, 990.728 930.933 C 991.025 929.798, 990.798 927.886, 990.224 926.684 C 988.596 923.275, 986.667 898.933, 987.925 897.675 C 988.501 897.099, 993.591 896.295, 999.236 895.888 C 1012.075 894.963, 1029.404 891.900, 1037 889.213 C 1037.825 888.921, 1038.925 888.783, 1039.445 888.906 C 1039.964 889.029, 1041.314 888.685, 1042.445 888.141 C 1043.575 887.598, 1052.600 885.033, 1062.500 882.441 C 1072.400 879.850, 1082.026 876.815, 1083.890 875.696 C 1087.142 873.747, 1087.335 873.737, 1088.599 875.467 C 1089.325 876.459, 1090.163 879.347, 1090.462 881.885 C 1091.249 888.564, 1093.083 898.325, 1093.756 899.413 C 1094.074 899.928, 1094.226 902.998, 1094.094 906.234 C 1093.942 909.944, 1094.338 912.703, 1095.165 913.698 C 1097.054 915.975, 1097.037 979.045, 1095.147 981.323 C 1094.336 982.300, 1093.936 985.219, 1094.068 989.188 C 1094.203 993.226, 1093.688 996.895, 1092.639 999.372 C 1090.294 1004.911, 1090.558 1008.649, 1093.500 1011.591 C 1094.875 1012.966, 1096 1014.470, 1096 1014.934 C 1096 1016.295, 1102.535 1017.127, 1105.215 1016.108 C 1108.208 1014.971, 1112.841 1009.650, 1113.432 1006.673 C 1113.669 1005.478, 1114.571 996.175, 1115.437 986 C 1118.496 950.052, 1117.003 910.409, 1111.396 878.673 C 1109.877 870.080, 1110.114 869.131, 1114.914 864.563 C 1116.611 862.948, 1118 861.035, 1118 860.313 C 1118 859.591, 1118.450 859, 1119 859 C 1120.497 859, 1120.205 852.718, 1118.553 849.404 C 1117.757 847.807, 1115.492 839.627, 1113.519 831.227 C 1111.547 822.827, 1109.428 814.727, 1108.810 813.227 C 1108.193 811.727, 1107.620 810.050, 1107.537 809.500 C 1107.454 808.950, 1107.086 807.825, 1106.720 807 C 1106.353 806.175, 1105.609 803.700, 1105.066 801.500 C 1103.927 796.887, 1100.507 786.322, 1098.268 780.500 C 1096.766 776.594, 1095.307 773.401, 1087.069 756 C 1081.440 744.108, 1070.586 725.927, 1067.546 723.298 C 1066.146 722.087, 1065 720.654, 1065 720.115 C 1065 718.951, 1043.227 697, 1042.073 697 C 1041.637 697, 1039.590 695.406, 1037.525 693.458 C 1035.459 691.511, 1031.656 688.846, 1029.072 687.536 C 1026.488 686.227, 1023.785 684.446, 1023.065 683.578 C 1022.344 682.710, 1021.170 682, 1020.454 682 C 1019.739 682, 1017.816 680.875, 1016.182 679.500 C 1014.548 678.125, 1012.777 677, 1012.245 677 C 1011.714 677, 1009.724 675.944, 1007.823 674.654 C 1005.921 673.364, 1003.097 671.990, 1001.546 671.601 C 999.996 671.212, 997.283 669.792, 995.519 668.447 C 993.755 667.101, 991.675 666, 990.898 666 C 990.120 666, 987.371 664.875, 984.788 663.500 C 982.205 662.125, 979.266 661, 978.257 661 C 977.248 661, 974.665 660.104, 972.518 659.009 C 970.370 657.914, 967.012 656.730, 965.056 656.379 C 963.100 656.027, 960.957 655.309, 960.294 654.784 C 959.630 654.258, 958.618 654.118, 958.044 654.473 C 957.470 654.828, 957 654.685, 957 654.157 C 957 652.842, 951.418 651, 947.433 651 C 939.577 651, 939.093 648.656, 946.092 644.500 C 948.870 642.850, 952.239 640.065, 953.577 638.310 C 954.915 636.556, 959.378 632.368, 963.494 629.005 C 967.610 625.642, 973.024 620.022, 975.526 616.516 C 978.028 613.010, 980.416 609.997, 980.834 609.821 C 981.252 609.644, 984.115 606.511, 987.195 602.857 C 991.079 598.250, 993.285 594.532, 994.391 590.726 C 995.269 587.708, 996.786 584.250, 997.764 583.043 L 999.541 580.848 1005.021 583.027 C 1012.446 585.980, 1027.637 585.394, 1036.033 581.831 C 1041.982 579.306, 1051.836 573.108, 1053.949 570.562 C 1054.662 569.703, 1055.781 569, 1056.435 569 C 1057.801 569, 1061.838 564.787, 1064.341 560.750 C 1065.279 559.237, 1066.786 558, 1067.690 558 C 1068.594 558, 1069.049 557.715, 1068.701 557.367 C 1068.353 557.019, 1069.178 555.862, 1070.534 554.795 C 1071.890 553.728, 1073 552.480, 1073 552.021 C 1073 551.563, 1075.284 547.308, 1078.075 542.565 C 1084.055 532.404, 1087 520.361, 1087 506.063 C 1087 497.267, 1083.919 481.827, 1082.035 481.185 C 1081.528 481.012, 1081.360 480.225, 1081.663 479.435 C 1081.966 478.646, 1081.716 478, 1081.107 478 C 1080.498 478, 1080 477.325, 1080 476.500 C 1080 475.675, 1079.550 475, 1079 475 C 1078.450 475, 1078 474.363, 1078 473.584 C 1078 472.805, 1076.200 470.237, 1074 467.878 C 1069.397 462.942, 1069.101 461.205, 1072.299 457.886 C 1075.390 454.679, 1081.628 445.035, 1084.017 439.771 C 1086.953 433.303, 1086.779 419.070, 1083.689 413 L 1081.398 408.500 1087.981 402 C 1095.938 394.143, 1099.657 387.763, 1101.565 378.693 C 1104.071 366.780, 1102.909 352.042, 1098.924 345.193 C 1097.866 343.374, 1097 341.458, 1097 340.936 C 1097 339.660, 1083.392 326, 1082.121 326 C 1079.835 326, 1079.917 323.517, 1082.363 318.657 C 1088.183 307.094, 1088.340 285.717, 1082.679 275.500 C 1082.070 274.400, 1081.514 273.275, 1081.445 273 C 1080.205 268.071, 1073.634 259.214, 1066.500 252.856 C 1058.262 245.514, 1043.896 239.641, 1036.613 240.640 C 1030.648 241.457, 1029.654 239.888, 1029.914 230.055 C 1030.029 225.718, 1029.651 221.344, 1029.076 220.335 C 1028.500 219.326, 1026.920 215.225, 1025.566 211.223 C 1024.211 207.221, 1022.180 202.773, 1021.052 201.338 C 1019.923 199.904, 1018.970 198.228, 1018.933 197.615 C 1018.794 195.308, 1003.756 183.384, 996.749 180.025 L 989.500 176.551 974.500 176.538 C 960.084 176.526, 959.277 176.634, 953.762 179.329 C 950.607 180.872, 947.608 181.875, 947.097 181.560 C 946.587 181.245, 944.993 177.952, 943.555 174.243 C 939.945 164.932, 937.190 162, 932.048 162 C 929.822 162, 928 161.550, 928 161 C 928 160.450, 925.750 160, 923 160 C 920.250 160, 918 160.450, 918 161 C 918 161.550, 916.480 162, 914.622 162 C 910.140 162, 907.774 164.631, 910.479 166.608 C 911.526 167.374, 912.834 168, 913.386 168 C 914.726 168, 919.989 173.091, 920.041 174.437 C 920.063 175.022, 921.394 177.036, 922.999 178.913 C 924.604 180.789, 925.672 182.722, 925.372 183.206 C 925.073 183.691, 925.355 184.723, 926 185.500 C 926.645 186.277, 926.881 187.383, 926.525 187.959 C 925.517 189.591, 922.503 187.517, 920.193 183.602 C 917.798 179.543, 907.784 171.403, 904.082 170.508 C 902.662 170.164, 899.523 168.937, 897.106 167.782 C 891.526 165.115, 875.778 164.183, 865.956 165.939 C 856.826 167.570, 846.344 173.173, 838.153 180.800 C 836.295 182.531, 833.608 181.919, 833.174 179.666 C 832.773 177.584, 839.427 171.012, 845.248 167.740 C 850.707 164.672, 849.855 162, 843.418 162 C 842.088 162, 841 161.550, 841 161 C 841 160.450, 838.750 160, 836 160 C 833.250 160, 831 160.450, 831 161 C 831 161.550, 829.002 162, 826.559 162 C 824.116 162, 821.840 161.550, 821.500 161 C 821.160 160.450, 819.334 160, 817.441 160 C 815.548 160, 814 160.450, 814 161 C 814 161.550, 812.300 162, 810.223 162 C 808.145 162, 805.332 162.787, 803.973 163.750 C 801.988 165.154, 798.538 165.612, 786.500 166.065 C 772.710 166.585, 771.016 166.860, 765.500 169.477 C 757.196 173.417, 745 183.524, 745 186.466 C 745 187.139, 744.100 188.505, 743 189.500 C 741.030 191.282, 741 191.247, 741 187.155 C 741 184.173, 741.413 183, 742.465 183 C 743.270 183, 744.468 181.988, 745.127 180.750 C 747.028 177.178, 752.391 171.038, 753.628 171.018 C 754.248 171.008, 755.291 170.354, 755.947 169.564 C 756.602 168.775, 758.452 167.840, 760.058 167.487 C 761.663 167.135, 763.276 166.362, 763.641 165.771 C 764.639 164.157, 761.051 162, 757.368 162 C 755.580 162, 753.840 161.550, 753.500 161 C 753.160 160.450, 750.434 160, 747.441 160 C 744.448 160, 742 160.450, 742 161 M 963.500 196 C 961.300 197.018, 958.337 197.885, 956.917 197.926 C 955.496 197.967, 953.996 198.338, 953.583 198.750 C 953.171 199.162, 952.459 199.500, 952 199.500 C 950.338 199.500, 945 204.098, 945 205.530 C 945 207.164, 951.466 207.673, 952.429 206.114 C 952.731 205.627, 955.900 204.437, 959.473 203.470 C 974.144 199.499, 989.195 205.176, 1000.184 218.827 C 1002.211 221.344, 1003.692 223.690, 1003.476 224.039 C 1003.260 224.389, 1004.396 226.211, 1006.001 228.087 C 1007.606 229.964, 1008.937 232.137, 1008.959 232.917 C 1008.982 233.696, 1009.261 234.072, 1009.580 233.753 C 1010.804 232.530, 1007.053 216.873, 1004.799 213.795 C 1002.135 210.157, 990.936 199.065, 990.079 199.216 C 989.761 199.272, 988.825 199.046, 988 198.713 C 983.413 196.866, 972.422 194.010, 970.145 194.074 C 968.690 194.115, 965.700 194.982, 963.500 196 M 688.765 201.147 C 687.519 202.053, 684.479 203.337, 682.009 204 C 670.091 207.202, 658.519 221.480, 658.506 233 C 658.498 240.065, 660.225 240.977, 661.348 234.500 C 661.865 231.519, 663.383 228.010, 665.107 225.809 C 666.698 223.778, 668 221.733, 668 221.263 C 668 220.417, 672.436 216.339, 678.786 211.345 C 683.366 207.744, 695.671 203.076, 700.691 203.034 C 704.886 203, 706.990 201.730, 704.944 200.466 C 702.558 198.991, 691.065 199.475, 688.765 201.147 M 715.024 204.115 C 711.988 205.326, 713.507 206.572, 719.193 207.533 C 723.912 208.330, 725.361 207.543, 723.968 204.939 C 722.829 202.812, 719.140 202.472, 715.024 204.115 M 1005.667 258.667 C 1004.577 259.756, 1004.910 267, 1006.050 267 C 1008.206 267, 1013 263.896, 1013 262.500 C 1013 261.703, 1011.672 260.365, 1010.050 259.526 C 1006.683 257.784, 1006.571 257.763, 1005.667 258.667 M 1020.502 261.334 C 1017.588 263.524, 1019.239 264.379, 1025.856 264.109 C 1030.554 263.918, 1032.597 264.373, 1036.291 266.435 C 1038.818 267.846, 1041.570 269, 1042.408 269 C 1044.725 269, 1057.468 282.243, 1058.864 286.102 C 1059.541 287.971, 1061.198 291.638, 1062.547 294.251 C 1063.896 296.863, 1065 299.676, 1065 300.501 C 1065 301.325, 1065.486 302, 1066.079 302 C 1066.725 302, 1066.936 300.894, 1066.604 299.250 C 1066.299 297.738, 1065.529 293.350, 1064.893 289.500 C 1064.257 285.650, 1062.955 281.375, 1062 280 C 1061.044 278.625, 1059.947 276.484, 1059.561 275.243 C 1058.858 272.976, 1050.630 266, 1048.660 266 C 1048.081 266, 1045.857 264.787, 1043.717 263.304 C 1040.386 260.995, 1038.581 260.552, 1031.163 260.220 C 1024.545 259.924, 1022.028 260.187, 1020.502 261.334 M 638.441 262.468 C 636.633 263.836, 636.786 263.939, 640.668 263.968 C 645.308 264.004, 648 263.242, 648 261.893 C 648 260.431, 640.541 260.880, 638.441 262.468 M 631.769 266.070 C 627.741 268.417, 623.619 273.142, 620.904 278.525 C 618.541 283.210, 618 285.559, 618 291.141 C 618 299.478, 619.597 300.175, 620.541 292.250 C 621.521 284.028, 627.202 274.839, 635.404 268.211 C 638.744 265.511, 635.751 263.749, 631.769 266.070 M 748 274.121 C 746.075 275.153, 743.089 275.998, 741.364 275.998 C 738.781 276, 737.943 276.600, 736.614 279.401 C 735.726 281.272, 735 283.049, 735 283.351 C 735 286.454, 719.900 302, 716.887 302 C 716.376 302, 714.108 303.224, 711.848 304.719 C 707.998 307.267, 706.974 307.451, 695.619 307.627 C 688.954 307.731, 683.163 307.857, 682.750 307.908 C 682.337 307.959, 682 309.119, 682 310.486 C 682 312.806, 680.387 320.604, 679.205 324 C 678.918 324.825, 678.749 325.824, 678.831 326.220 C 678.913 326.616, 677.860 328.592, 676.490 330.610 C 675.121 332.628, 674 334.856, 674 335.562 C 674 336.267, 670.850 340.096, 667 344.070 L 660 351.296 659.980 357.398 C 659.960 363.641, 657.849 384.356, 656.046 396 C 655.493 399.575, 655.031 404.863, 655.020 407.750 C 654.997 413.704, 656.500 414.520, 661 411 C 662.375 409.924, 664.486 409.034, 665.691 409.022 C 666.896 409.010, 668.178 408.521, 668.540 407.935 C 668.902 407.349, 670.391 406.964, 671.849 407.079 C 673.307 407.193, 675.175 407.037, 676 406.732 C 686.648 402.796, 724.539 403.061, 729.592 407.108 C 730.193 407.589, 730.969 407.697, 731.318 407.349 C 731.666 407, 732.525 407.172, 733.226 407.731 C 733.927 408.290, 736.627 409.055, 739.227 409.432 C 741.826 409.808, 744.195 410.507, 744.491 410.985 C 744.786 411.463, 746.709 412.402, 748.764 413.072 C 750.819 413.742, 753.772 415.350, 755.327 416.645 C 756.881 417.940, 758.681 419.001, 759.327 419.002 C 759.972 419.003, 761.175 420.073, 762 421.380 C 766.073 427.834, 769.040 431.907, 770.184 432.614 C 771.992 433.731, 776.374 433.676, 777.198 432.525 C 778.114 431.246, 796.920 431.520, 798.232 432.832 C 798.788 433.388, 799.894 433.594, 800.689 433.289 C 801.484 432.984, 803.117 433.188, 804.317 433.743 C 813.394 437.936, 814.724 437.905, 816.583 433.456 C 817.397 431.508, 818.836 429.623, 819.782 429.268 C 820.727 428.914, 821.950 428.042, 822.500 427.330 C 824.899 424.227, 835.904 418.737, 842.500 417.354 C 846.350 416.547, 851.750 415.415, 854.500 414.838 C 860.704 413.538, 886.433 414.293, 890.394 415.892 C 891.986 416.535, 896.711 417.515, 900.894 418.072 C 905.077 418.628, 909.175 419.363, 910 419.705 C 910.825 420.047, 911.725 420.373, 912 420.429 C 912.275 420.485, 912.950 420.801, 913.500 421.132 C 914.050 421.463, 916.975 422.504, 920 423.446 C 932.753 427.418, 939.685 432.003, 948.714 442.440 C 950.398 444.386, 951.882 445, 954.905 445 C 957.092 445, 959.148 445.430, 959.473 445.956 C 959.798 446.482, 960.730 446.657, 961.545 446.344 C 962.359 446.032, 963.612 446.263, 964.329 446.858 C 965.047 447.454, 970.029 448.481, 975.402 449.141 C 983.687 450.159, 985.308 450.126, 986.075 448.921 C 986.572 448.139, 986.759 446.901, 986.489 446.168 C 986.220 445.436, 986 442.197, 986 438.970 C 986 433.366, 985.767 432.824, 980.783 426.834 L 975.565 420.565 975.533 407.936 C 975.509 398.663, 975.865 394.868, 976.872 393.654 C 977.627 392.744, 977.975 392, 977.644 392 C 977.314 392, 978.384 389.887, 980.022 387.304 C 984.724 379.890, 984.337 378.894, 975.532 375.763 C 969.966 373.783, 962.250 366.827, 958.600 360.500 C 955.351 354.867, 953.702 345.240, 954.601 337.154 C 955.847 325.949, 955.295 323.710, 951.821 325.880 C 949.633 327.246, 933.801 327.659, 929.694 326.457 C 925.354 325.187, 918.417 321.527, 914.067 318.214 C 909.496 314.732, 899.047 304.072, 899.220 303.066 C 899.274 302.755, 898.979 301.600, 898.565 300.500 C 898.151 299.400, 897.364 297.296, 896.815 295.824 C 896.267 294.352, 896.121 292.193, 896.492 291.026 C 897.274 288.560, 895.522 286, 893.052 286 C 892.115 286, 890.310 287.105, 889.042 288.456 C 887.773 289.806, 886.457 290.860, 886.117 290.797 C 885.778 290.734, 884.825 290.937, 884 291.248 C 883.175 291.559, 879.800 292.350, 876.500 293.006 C 873.200 293.662, 868.328 294.631, 865.673 295.159 C 861.662 295.956, 859.632 295.743, 853.673 293.901 C 845.474 291.365, 832.618 283.069, 830.720 279.088 C 829.251 276.010, 824.351 274.921, 823.378 277.457 C 822.500 279.747, 813.113 285.659, 809 286.514 C 807.075 286.914, 804.150 287.955, 802.500 288.829 C 800.850 289.702, 799.200 290.435, 798.833 290.458 C 798.467 290.481, 797.829 290.837, 797.417 291.250 C 797.004 291.663, 792.992 292, 788.500 292 C 784.008 292, 779.996 291.663, 779.583 291.250 C 779.171 290.837, 778.533 290.462, 778.167 290.415 C 777.800 290.368, 775.475 289.366, 773 288.187 C 770.525 287.008, 767.999 286.034, 767.386 286.022 C 766.773 286.010, 762.948 282.854, 758.886 279.009 C 754.824 275.164, 751.500 272.069, 751.500 272.132 C 751.500 272.194, 749.925 273.089, 748 274.121 M 713 367.906 C 713 368.405, 712.212 368.613, 711.250 368.370 C 710.288 368.126, 707.717 368.843, 705.539 369.963 C 703.360 371.083, 700.891 372, 700.053 372 C 696.177 372, 687.938 377.430, 685.499 381.592 C 682.347 386.971, 682.339 390.184, 685.469 393.561 C 687.501 395.754, 689.050 396.311, 694.219 396.708 C 698.045 397.002, 701.672 396.705, 703.500 395.949 C 705.150 395.266, 707.737 394.807, 709.250 394.929 C 710.763 395.051, 712 394.667, 712 394.075 C 712 392.656, 723.666 392.651, 724.543 394.069 C 724.906 394.657, 726.845 395.046, 728.852 394.933 C 730.858 394.820, 733.767 395.239, 735.315 395.864 C 740.046 397.773, 742.781 397.193, 746.997 393.384 C 750.522 390.199, 751 389.238, 751 385.333 C 751 381.487, 750.502 380.440, 747.250 377.453 C 745.003 375.389, 740.895 373.152, 737 371.871 C 733.425 370.696, 729.960 369.307, 729.300 368.786 C 728.640 368.265, 726.527 367.974, 724.604 368.139 C 722.681 368.305, 720.783 368.116, 720.387 367.720 C 719.342 366.675, 713 366.835, 713 367.906 M 866 377.656 C 864.625 377.945, 862.068 379.265, 860.317 380.590 C 858.566 381.916, 856.659 383, 856.079 383 C 854.517 383, 849.999 390.607, 850.004 393.230 C 850.009 396.236, 853.332 401.572, 856.132 403.071 C 857.684 403.901, 861.204 404.070, 867.599 403.620 C 880.353 402.724, 895.485 404.474, 900 407.367 C 904.975 410.556, 913.443 414, 916.308 414 C 917.914 414, 920.154 412.472, 922.873 409.522 C 926.323 405.779, 927 404.366, 927 400.907 C 927 397.330, 926.424 396.230, 922.750 392.790 C 920.413 390.601, 917.068 388.185, 915.318 387.420 C 913.568 386.656, 911.876 385.608, 911.557 385.092 C 911.238 384.576, 909.520 383.842, 907.739 383.461 C 905.957 383.081, 903.985 382.355, 903.355 381.849 C 902.726 381.344, 901.826 381.038, 901.355 381.171 C 900.885 381.303, 898.993 380.609, 897.150 379.628 C 894.581 378.261, 890.855 377.762, 881.150 377.489 C 874.193 377.292, 867.375 377.368, 866 377.656 M 684.451 425.640 C 681.620 426.636, 677.146 430.330, 669.574 437.926 L 658.746 448.788 658.623 454.542 C 658.488 460.872, 660.281 463.021, 661.977 458.560 C 662.521 457.129, 664.774 454.076, 666.983 451.777 C 669.193 449.478, 671 447.101, 671 446.495 C 671 445.052, 677.259 439, 678.750 439 C 679.386 439, 681.332 437.225, 683.075 435.056 C 684.819 432.886, 687.791 430.378, 689.681 429.481 C 691.919 428.419, 693.006 427.266, 692.799 426.175 C 692.390 424.027, 689.554 423.846, 684.451 425.640 M 853.248 436.706 C 852.009 436.945, 850.531 438.008, 849.963 439.070 C 849.394 440.131, 848.301 441, 847.532 441 C 846.763 441, 844.431 443.137, 842.349 445.750 C 840.267 448.363, 837.789 451.280, 836.841 452.234 C 830.596 458.519, 825.705 470, 829.273 470 C 830.117 470, 832.617 468.087, 834.829 465.750 C 846.616 453.296, 858.656 441.712, 861.162 440.416 C 865.567 438.139, 864.852 435.973, 859.750 436.136 C 857.413 436.211, 854.487 436.468, 853.248 436.706 M 627.559 451.532 C 626.491 452.339, 626.029 453, 626.531 453 C 627.034 453, 626.445 453.701, 625.223 454.557 C 624 455.413, 623 456.921, 623 457.908 C 623 458.895, 621.952 461.682, 620.671 464.101 C 619.390 466.520, 617.780 471.375, 617.093 474.889 C 616.407 478.404, 615.359 482.454, 614.766 483.889 C 614.173 485.325, 613.779 487.248, 613.892 488.161 C 614.004 489.075, 613.624 490.114, 613.048 490.470 C 611.121 491.662, 611.969 494.672, 615.557 499.371 C 617.514 501.934, 619.757 505.568, 620.542 507.447 C 621.327 509.326, 622.446 511.158, 623.029 511.518 C 624.117 512.191, 627.070 510.323, 626.766 509.154 C 626.672 508.794, 627.670 506.475, 628.983 504 C 631.273 499.684, 631.388 498.486, 631.807 474.750 C 632.272 448.359, 632.209 448.015, 627.559 451.532 M 778.625 453.404 C 773.225 455.420, 772.748 456.120, 771.882 463.313 C 771.449 466.912, 770.005 471.765, 768.558 474.486 C 767.151 477.133, 766 479.851, 766 480.526 C 766 481.202, 765.354 482.291, 764.564 482.947 C 763.775 483.602, 762.838 485.460, 762.484 487.075 C 761.701 490.640, 759.555 493.371, 750.668 502.115 C 741.336 511.296, 740.370 512.049, 733.828 515.241 C 727.606 518.276, 712.776 520.993, 702.500 520.981 C 694.335 520.971, 679.238 517.731, 672.495 514.541 C 666.641 511.772, 652.723 498.852, 651.524 495.075 C 650.651 492.326, 648.387 492.428, 647.630 495.250 C 647.299 496.488, 647.021 502.476, 647.014 508.559 C 647.004 516.717, 646.615 520.127, 645.532 521.559 C 642.984 524.928, 643.714 526.619, 648.506 528.449 C 650.985 529.396, 652.758 530.582, 652.447 531.085 C 652.136 531.588, 652.359 532, 652.941 532 C 653.562 532, 654.006 534.379, 654.015 537.750 C 654.034 544.886, 654.489 545.586, 659.661 546.450 C 664.979 547.339, 666.740 549.354, 667.999 555.993 C 668.557 558.938, 669.241 561.574, 669.519 561.852 C 669.796 562.129, 672.164 562.259, 674.781 562.139 C 680.526 561.877, 684 564.455, 684 568.980 C 684 572.684, 685.018 573.256, 691.848 573.390 C 696.751 573.487, 697.585 573.805, 698.683 576 C 700.578 579.787, 702.457 579.100, 702.785 574.500 C 702.942 572.300, 703.353 569.825, 703.699 569 C 704.044 568.175, 704.378 567.275, 704.440 567 C 704.501 566.725, 705.281 565.375, 706.172 564 C 707.063 562.625, 708.125 560.375, 708.533 559 C 708.940 557.625, 710.337 555.228, 711.637 553.673 C 712.937 552.119, 714 550.195, 714 549.399 C 714 548.602, 715.125 547.523, 716.500 547 C 717.875 546.477, 719 545.628, 719 545.113 C 719 544.598, 722.426 541.599, 726.612 538.448 C 733.315 533.403, 734.959 532.633, 740.362 532.004 C 743.738 531.612, 748.300 530.495, 750.500 529.523 C 755.254 527.423, 767.328 527.889, 771.157 530.320 C 775.530 533.097, 781.392 533.362, 786.680 531.024 C 794.126 527.730, 798.904 527.409, 803.536 529.891 C 805.918 531.168, 809.301 532, 812.110 532 C 818.725 532, 823 533.030, 823 534.625 C 823 535.638, 824.568 536, 828.952 536 C 834.354 536, 835.208 536.305, 838.202 539.303 C 840.016 541.119, 844.313 543.917, 847.751 545.519 C 851.189 547.122, 854.229 549.147, 854.506 550.020 C 854.784 550.893, 856.765 553.434, 858.910 555.666 C 863.626 560.575, 867.949 570.356, 869 578.500 C 869.955 585.896, 870.476 587.191, 873.169 588.873 C 875.102 590.081, 875.603 589.871, 878.598 586.602 C 882.469 582.377, 886.792 581.792, 890.051 585.051 C 892.668 587.668, 895.049 586.935, 898.462 582.461 C 900.663 579.576, 901.739 579, 904.928 579 C 907.110 579, 909.290 579.645, 910 580.500 C 912.606 583.640, 915.273 582.005, 918.639 575.206 C 920.216 572.020, 924.429 569, 927.295 569 C 928.062 569, 929.505 569.900, 930.500 571 C 933.062 573.831, 933.730 573.553, 936.006 568.711 C 937.115 566.352, 939.342 562.977, 940.955 561.211 C 943.580 558.336, 944.467 558, 949.425 558 C 955.498 558, 955.223 558.328, 956.379 549.712 C 957.120 544.185, 965.148 535.738, 967.991 537.494 C 969.485 538.417, 970.732 535.469, 971.300 529.673 C 971.990 522.635, 973.693 519.802, 978.705 517.354 C 982.356 515.570, 982.505 515.298, 982.630 510.193 C 982.727 506.194, 983.310 504.298, 984.995 502.506 C 987.088 500.277, 987.153 499.805, 986.013 495.053 C 985.343 492.263, 984.902 486.497, 985.032 482.240 C 985.162 477.983, 985.209 474.050, 985.136 473.500 C 985.058 472.914, 982.476 472.642, 978.896 472.844 C 975.339 473.045, 972.331 472.731, 971.694 472.094 C 971.059 471.459, 966.707 471, 961.323 471 C 950.514 471, 950.040 471.372, 947.950 481.500 C 946.723 487.449, 940.643 501.578, 938.484 503.500 C 937.866 504.050, 936.545 505.811, 935.550 507.414 C 933.109 511.343, 925.982 519, 924.767 519 C 924.229 519, 922.494 520.013, 920.911 521.250 C 919.328 522.487, 916.735 524.498, 915.148 525.717 C 913.561 526.937, 908.716 529.168, 904.381 530.676 C 897.013 533.240, 895.394 533.421, 879.500 533.459 C 865.912 533.492, 861.597 533.161, 858 531.811 C 855.525 530.882, 851.524 529.610, 849.109 528.984 C 846.694 528.359, 842.990 526.756, 840.879 525.423 C 838.767 524.091, 836.779 523, 836.461 523 C 835.436 523, 827.709 516.599, 824.746 513.295 C 820.497 508.557, 817.114 503.304, 816.349 500.254 C 815.977 498.772, 814.880 496.196, 813.912 494.530 C 811.468 490.323, 810 481.292, 810 470.462 C 810 462.114, 809.780 461.055, 807.548 458.646 C 806.199 457.191, 804.287 455.997, 803.298 455.994 C 802.309 455.990, 800.150 455.282, 798.500 454.419 C 794.215 452.177, 783.391 451.625, 778.625 453.404 M 1033.490 472.016 C 1033.144 472.575, 1032.494 472.805, 1032.044 472.527 C 1031.595 472.249, 1030.646 472.722, 1029.936 473.577 C 1029.226 474.432, 1027.385 475.784, 1025.843 476.581 C 1022.105 478.514, 1015.399 487.741, 1013.401 493.701 C 1011.529 499.282, 1009.409 502, 1006.927 502 C 1004.092 502, 1002 503.107, 1002 504.607 C 1002 505.373, 1002.605 506, 1003.345 506 C 1007.426 506, 1009.427 514.414, 1006.838 520.685 C 1006.198 522.233, 1005.624 528.957, 1005.562 535.627 C 1005.483 544.184, 1005.053 548.231, 1004.102 549.377 C 1003.361 550.270, 1003.061 551, 1003.434 551 C 1003.808 551, 1003.413 552, 1002.557 553.223 C 999.547 557.519, 1001.152 562, 1005.700 562 C 1006.965 562, 1008 562.372, 1008 562.827 C 1008 563.282, 1009.297 563.463, 1010.882 563.231 C 1012.466 562.998, 1014.068 563.301, 1014.441 563.904 C 1015.308 565.307, 1023.671 565.341, 1024.534 563.945 C 1024.893 563.364, 1025.932 563.051, 1026.843 563.248 C 1027.754 563.445, 1030.751 562.411, 1033.503 560.949 C 1036.255 559.487, 1039.588 557.948, 1040.911 557.528 C 1044.684 556.331, 1059 540.972, 1059 538.122 C 1059 537.214, 1059.836 534.902, 1060.858 532.985 C 1061.880 531.068, 1063.682 524.766, 1064.863 518.981 C 1066.676 510.094, 1066.860 507.301, 1066.047 500.981 C 1064.912 492.155, 1063.043 485.674, 1060.407 481.425 C 1058.386 478.167, 1051 471.235, 1051 472.596 C 1051 473.038, 1050.460 472.860, 1049.800 472.200 C 1048.326 470.726, 1034.384 470.569, 1033.490 472.016 M 544.379 506.192 C 543.004 508.370, 541.645 510.762, 541.359 511.506 C 541.073 512.251, 539.638 513.295, 538.170 513.826 C 534.071 515.308, 525.310 524.089, 524.527 527.500 C 524.148 529.150, 523.003 531.278, 521.983 532.229 C 518.505 535.471, 518.104 548.533, 521.382 551.810 C 523.058 553.487, 528 552.681, 528 550.731 C 528 550.054, 531.155 547.986, 535.010 546.136 C 540.704 543.403, 542.297 543.002, 543.500 544 C 545.725 545.846, 544.355 549.695, 539.175 556.150 C 534.016 562.578, 531.166 570.288, 530.307 580.140 C 529.749 586.547, 529.845 586.924, 533.055 590.918 C 537.693 596.690, 539.659 596.914, 546.663 592.466 C 549.873 590.426, 552.667 588.608, 552.870 588.425 C 553.074 588.242, 553.628 586.020, 554.101 583.488 C 555.052 578.401, 557.532 572.445, 559.823 569.750 C 561.553 567.714, 567.423 567.392, 568.945 569.250 C 573.688 575.037, 575.067 577, 574.389 577 C 573.955 577, 574.140 577.540, 574.800 578.200 C 575.539 578.939, 576 582.558, 576 587.613 L 576 595.825 581 601.809 C 584.849 606.415, 586 608.577, 586 611.196 C 586 613.068, 586.489 615.089, 587.087 615.687 C 587.870 616.470, 587.870 616.962, 587.087 617.446 C 585.534 618.406, 585.635 639.235, 587.200 640.800 C 587.860 641.460, 588.015 642, 587.545 642 C 587.075 642, 587.505 642.900, 588.500 644 C 589.495 645.100, 590.985 646, 591.809 646 C 594.559 646, 610.869 626.132, 610.974 622.654 C 610.988 622.189, 612.013 620.389, 613.250 618.654 C 615.373 615.679, 615.500 614.532, 615.500 598.403 C 615.500 585.263, 615.178 580.919, 614.107 579.629 C 613.342 578.707, 613 577.666, 613.349 577.318 C 613.697 576.969, 613.533 576.142, 612.983 575.479 C 612.433 574.817, 611.363 569.557, 610.606 563.790 C 609.849 558.024, 608.278 551.155, 607.115 548.526 C 605.952 545.897, 605 543.283, 605 542.717 C 605 542.152, 603.868 540.205, 602.485 538.391 C 601.101 536.577, 600.060 534.734, 600.170 534.296 C 600.281 533.858, 599.613 531.758, 598.686 529.628 C 597.759 527.498, 597 525.330, 597 524.810 C 597 524.289, 593.620 520.559, 589.488 516.520 C 579.336 506.597, 571.855 503.398, 557.190 502.713 L 546.879 502.231 544.379 506.192 M 316.500 553.189 C 311.550 553.694, 306.217 554.747, 304.649 555.527 C 303.081 556.308, 300.156 557.238, 298.149 557.593 C 296.142 557.948, 292.363 559.531, 289.750 561.110 C 287.137 562.689, 285 563.676, 285 563.304 C 285 562.931, 283.762 563.742, 282.250 565.107 C 280.738 566.471, 277.922 568.296, 275.992 569.162 C 272.941 570.532, 257.716 583.647, 255.818 586.540 C 255.442 587.112, 252.630 590.637, 249.568 594.373 C 246.505 598.109, 244 601.594, 244 602.117 C 244 602.641, 241.947 606.688, 239.437 611.110 C 236.819 615.725, 233.524 623.700, 231.705 629.826 C 228.598 640.289, 228.536 640.896, 228.575 660.500 C 228.614 679.905, 228.708 680.817, 231.742 691.166 C 233.536 697.284, 236.676 704.958, 239.107 709.166 C 241.438 713.200, 244.234 718.227, 245.321 720.338 C 246.407 722.449, 247.902 724.409, 248.642 724.693 C 249.383 724.977, 249.740 725.612, 249.435 726.105 C 249.131 726.597, 249.359 727, 249.941 727 C 250.523 727, 251 727.582, 251 728.294 C 251 730.110, 269.116 747.962, 273.708 750.671 C 292.274 761.626, 299.550 764.795, 312.103 767.392 C 328.285 770.741, 349.691 771.025, 363 768.068 C 373.665 765.699, 386.671 760.974, 392.616 757.309 C 402.578 751.169, 419.126 736.148, 428.249 724.967 C 430.087 722.714, 437 712.111, 437 711.545 C 437 711.278, 438.125 708.600, 439.500 705.594 C 440.875 702.588, 442 699.167, 442 697.992 C 442 696.817, 443.074 693.976, 444.387 691.678 C 449.740 682.310, 449.811 640.472, 444.489 631.392 C 443.120 629.055, 442 625.958, 442 624.509 C 442 620.543, 435.189 607.103, 428.820 598.500 C 423.074 590.738, 412.417 579.642, 405.812 574.544 C 401.240 571.015, 396.166 567.086, 394.535 565.814 C 392.904 564.541, 391.104 563.457, 390.535 563.403 C 388.724 563.234, 385.576 561.718, 383.115 559.830 C 381.803 558.823, 379.637 558, 378.301 558 C 376.964 558, 373.762 557.123, 371.185 556.050 C 362.190 552.307, 337.688 551.025, 316.500 553.189 M 772.234 563.029 C 767.923 566.951, 761.937 567.125, 756.571 563.483 C 752.614 560.798, 751 560.953, 751 564.019 C 751 565.375, 752.165 566.269, 755.068 567.139 C 757.305 567.809, 759.893 569.289, 760.818 570.429 C 761.743 571.568, 764.525 573.850, 767 575.500 C 771.375 578.417, 771.833 578.500, 783.500 578.500 C 793.844 578.500, 795.914 578.223, 798.500 576.496 C 800.150 575.393, 803.091 573.687, 805.036 572.704 C 813.039 568.657, 805.983 563.585, 796.396 566.493 C 789.205 568.675, 787.775 568.408, 783 564 C 780.617 561.800, 777.955 560.013, 777.084 560.029 C 776.213 560.045, 774.030 561.395, 772.234 563.029 M 737.300 564.371 C 734.174 565.474, 729.693 569.359, 730.553 570.220 C 730.791 570.458, 730.048 572.596, 728.900 574.970 C 727.384 578.108, 726.990 580.272, 727.457 582.893 C 727.811 584.877, 728.415 589.200, 728.800 592.500 C 729.340 597.132, 729.956 598.701, 731.500 599.383 C 732.600 599.869, 735.261 602.457, 737.414 605.133 C 740.817 609.365, 741.808 610, 745.009 610 C 747.449 610, 749.315 610.691, 750.544 612.049 C 751.886 613.532, 753.378 614.015, 755.949 613.799 C 759.290 613.518, 759.533 613.256, 760.050 609.380 C 761.158 601.081, 765.099 598.131, 773.240 599.509 C 775.583 599.905, 781.134 600.178, 785.576 600.115 C 792.997 600.009, 793.843 600.205, 796.028 602.529 C 797.966 604.593, 798.505 606.483, 798.952 612.780 L 799.500 620.500 809.930 620.500 C 818.348 620.500, 820.790 620.162, 822.588 618.750 C 823.813 617.788, 825.307 617, 825.908 617 C 826.508 617, 827 616.523, 827 615.941 C 827 615.359, 827.450 615.160, 828 615.500 C 828.550 615.840, 829 615.641, 829 615.059 C 829 614.477, 830.598 614, 832.551 614 C 835.669 614, 836.282 613.570, 837.574 610.477 C 838.384 608.539, 839.936 606.064, 841.023 604.977 C 842.770 603.230, 842.998 601.633, 842.985 591.250 C 842.969 578.286, 841.928 574.711, 838.008 574.152 C 836.665 573.961, 834.478 572.948, 833.148 571.902 C 831.818 570.856, 830.299 570, 829.773 570 C 829.246 570, 827.671 569.100, 826.273 568 C 824.874 566.900, 823.046 566, 822.210 566 C 820.872 566, 820.878 566.209, 822.267 567.750 C 826.232 572.150, 825.035 581.866, 820.213 584.428 C 818.721 585.221, 816.375 586.911, 815 588.185 C 813.625 589.458, 809.125 591.625, 805 593 C 798.299 595.234, 795.893 595.496, 782.415 595.466 C 763.325 595.423, 757.674 593.630, 748.683 584.763 C 745.484 581.608, 743.128 578.601, 743.449 578.082 C 743.770 577.563, 743.575 576.856, 743.016 576.510 C 741.669 575.677, 741.705 571, 743.059 571 C 743.641 571, 743.869 570.597, 743.565 570.105 C 743.260 569.612, 743.684 568.952, 744.506 568.636 C 746.609 567.829, 746.371 565, 744.200 565 C 743.210 565, 741.972 564.605, 741.450 564.121 C 740.901 563.613, 739.151 563.718, 737.300 564.371 M 326 573.550 C 323.525 574.259, 319.839 574.875, 317.809 574.920 C 315.779 574.964, 313.835 575.457, 313.490 576.016 C 313.144 576.575, 312.494 576.805, 312.044 576.527 C 311.595 576.249, 310.672 576.691, 309.993 577.508 C 309.315 578.325, 306.677 579.644, 304.130 580.438 C 298.309 582.255, 291.338 585.757, 287.091 589 C 282.084 592.823, 267 607.728, 267 608.852 C 267 609.399, 265.835 611.231, 264.411 612.923 C 262.987 614.615, 262.074 616, 262.381 616 C 262.688 616, 261.379 618.587, 259.472 621.750 C 257.565 624.913, 256.004 628.511, 256.003 629.746 C 256.001 630.981, 254.988 634.806, 253.750 638.246 C 251.724 643.877, 251.508 646.245, 251.585 662 C 251.652 676.041, 252.011 680.389, 253.400 684 C 254.351 686.475, 255.726 690.525, 256.455 693 C 258.905 701.317, 267.261 714.423, 274.948 722.003 C 280.683 727.659, 293.372 736.767, 298.114 738.632 C 300.526 739.580, 303.400 740.901, 304.500 741.566 C 305.600 742.231, 308.200 743.074, 310.279 743.438 C 312.357 743.803, 315.578 744.999, 317.437 746.095 C 320.087 747.659, 323.374 748.217, 332.658 748.681 C 344.904 749.293, 359 747.753, 359 745.803 C 359 745.244, 359.675 745.045, 360.500 745.362 C 361.325 745.678, 362 745.559, 362 745.096 C 362 744.634, 363.857 743.959, 366.127 743.596 C 368.396 743.233, 372.148 741.825, 374.465 740.468 C 376.781 739.111, 379.579 738, 380.683 738 C 381.787 738, 383.505 737.100, 384.500 736 C 385.495 734.900, 386.724 734, 387.231 734 C 391.705 734, 415 709.094, 415 704.310 C 415 703.652, 415.897 702.485, 416.994 701.717 C 418.090 700.949, 418.734 700.067, 418.424 699.758 C 418.115 699.448, 418.304 698.363, 418.845 697.347 C 421.992 691.437, 423.990 684.075, 425.455 673 C 427.046 660.968, 427.033 660.051, 425.122 648.500 C 424.031 641.900, 422.498 634.925, 421.716 633 C 420.935 631.075, 419.930 628.600, 419.484 627.500 C 419.038 626.400, 418.612 625.275, 418.539 625 C 418.465 624.725, 417.415 622.925, 416.206 621 C 414.997 619.075, 414.006 617.097, 414.004 616.604 C 413.997 615.088, 407.388 605.738, 403.116 601.203 C 397.566 595.311, 385.104 585, 383.532 585 C 382.824 585, 381.745 584.398, 381.134 583.662 C 380.524 582.926, 378.106 581.750, 375.762 581.049 C 373.418 580.348, 370.262 578.894, 368.750 577.819 C 367.238 576.744, 366 576.209, 366 576.632 C 366 577.054, 365.460 576.860, 364.800 576.200 C 364.140 575.540, 362.002 574.995, 360.050 574.988 C 358.097 574.982, 354.025 574.312, 351 573.500 C 344.431 571.737, 332.246 571.761, 326 573.550 M 553.678 599.090 C 548.911 606.371, 550.884 614, 557.534 614 C 561.953 614, 564.191 610.737, 564.799 603.409 C 565.331 596.990, 564.090 595, 559.555 595 C 556.913 595, 555.888 595.713, 553.678 599.090 M 637.674 604.750 C 637.430 605.163, 636.900 607.525, 636.496 610 C 636.091 612.475, 635.088 616.193, 634.267 618.261 C 632.541 622.610, 633.408 624.386, 637.791 625.480 C 639.281 625.852, 641.335 626.908, 642.355 627.828 C 643.375 628.748, 644.500 629.441, 644.855 629.370 C 645.210 629.298, 646.542 629.636, 647.815 630.120 C 649.088 630.604, 650.895 631, 651.830 631 C 652.765 631, 655.209 631.900, 657.261 633 C 661.338 635.185, 663.710 635.469, 665.966 634.042 C 667.147 633.295, 666.921 632.920, 664.802 632.115 C 663.355 631.565, 661.896 630.301, 661.561 629.307 C 661.225 628.313, 658.226 624.575, 654.896 621 C 651.565 617.425, 647.023 612.138, 644.800 609.250 C 641.048 604.374, 638.754 602.926, 637.674 604.750 M 592.081 661.250 C 591.600 662.487, 590.691 668.635, 590.062 674.911 C 589.433 681.187, 588.648 686.760, 588.318 687.295 C 587.367 688.834, 587.220 695, 588.135 695 C 588.590 695, 589.213 693.763, 589.519 692.250 C 589.826 690.737, 590.950 687.851, 592.019 685.836 C 594.149 681.817, 596.416 665.505, 595.404 661.475 C 594.631 658.392, 593.230 658.298, 592.081 661.250 M 893.183 670.056 C 890.719 671.640, 886.641 673.133, 883.683 673.534 C 880.832 673.921, 876.925 674.823, 875 675.538 C 873.075 676.253, 867.788 677.406, 863.250 678.100 C 858.712 678.793, 855 679.777, 855 680.287 C 855 680.797, 854.354 680.966, 853.565 680.663 C 852.775 680.360, 851.988 680.514, 851.815 681.005 C 851.642 681.496, 845.875 682.380, 839 682.969 C 832.125 683.559, 822.675 684.486, 818 685.031 C 811.944 685.736, 806.624 685.675, 799.500 684.821 C 794 684.161, 787.495 683.718, 785.043 683.835 C 778.917 684.129, 765.742 682.201, 764.933 680.892 C 764.236 679.763, 751.595 676.829, 746.539 676.621 C 744.189 676.525, 743.587 676.913, 743.625 678.500 C 743.717 682.318, 748.827 692.941, 752.552 697.058 C 754.895 699.647, 766.531 708, 767.794 708 C 768.309 708, 769.803 708.822, 771.115 709.826 C 772.427 710.830, 777.793 712.855, 783.040 714.326 C 795.293 717.760, 813.324 718.095, 825.062 715.106 C 829.153 714.064, 834.275 712.902, 836.444 712.524 C 839.996 711.905, 843.446 710.427, 851 706.287 C 853.295 705.029, 854.734 704.349, 862 701.090 C 864.348 700.036, 867.274 698.191, 876.616 691.874 C 886.712 685.046, 900.876 669.932, 898.746 668.260 C 897.881 667.580, 896.182 668.129, 893.183 670.056 M 578.750 739.080 C 576.805 740.213, 576.437 742.534, 578.044 743.527 C 579.506 744.431, 582 742.130, 582 739.878 C 582 737.769, 581.297 737.597, 578.750 739.080 M 953.015 815.250 C 953.024 815.938, 953.467 817.175, 954 818 C 954.755 819.169, 954.973 818.893, 954.985 816.750 C 954.993 815.237, 954.550 814, 954 814 C 953.450 814, 953.007 814.563, 953.015 815.250 M 963.683 872.650 C 962.426 873.908, 962.982 876.674, 964.829 878.345 C 967.525 880.785, 968.024 880.384, 966.811 876.750 C 965.529 872.907, 964.619 871.714, 963.683 872.650 M 644 940.500 C 644 942.425, 644.441 944, 644.981 944 C 646.221 944, 647.406 939.467, 646.535 938.057 C 645.216 935.922, 644 937.093, 644 940.500" stroke="none" fill="#171916" fill-rule="evenodd"/>
</svg>