<svg role="img" aria-labelledby="artwork-title" shape-rendering="geometricPrecision" xmlns="http://www.w3.org/2000/svg" width="1200" height="1200" viewBox="0 0 1200 1200" version="1.1">
	<title id="artwork-title">Mascot holding a calendar representing experience</title>
	<path d="M 869 89.910 C 869 90.410, 865.737 91.348, 861.750 91.995 C 849.117 94.043, 838.547 98.927, 828.864 107.190 C 822.453 112.662, 819.793 113.129, 815.465 109.542 C 805.200 101.034, 801.427 99.131, 788.557 95.970 C 781.393 94.211, 777.912 93.888, 771.057 94.350 C 758.587 95.190, 746.763 97.352, 743.982 99.300 C 742.647 100.235, 740.755 101, 739.777 101 C 738.800 101, 738 101.477, 738 102.059 C 738 102.641, 737.550 102.840, 737 102.500 C 736.450 102.160, 736 102.375, 736 102.977 C 736 103.579, 733.941 104.954, 731.425 106.032 C 725.512 108.567, 711.467 122.599, 710.518 126.920 C 710.146 128.614, 709.464 130, 709.004 130 C 708.543 130, 707.531 131.912, 706.755 134.250 C 705.025 139.457, 702.842 140.020, 696.827 136.809 C 692.921 134.725, 691.187 134.500, 679 134.500 C 668.029 134.500, 664.901 134.828, 662.300 136.250 C 660.539 137.213, 658.211 138, 657.126 138 C 656.041 138, 653.881 139.048, 652.327 140.330 C 650.772 141.611, 648.762 142.928, 647.860 143.256 C 645.043 144.281, 633 153.309, 633 154.396 C 633 154.965, 632.139 156.345, 631.087 157.465 C 624.402 164.578, 623 166.266, 623 167.209 C 623 167.789, 622.159 169.667, 621.131 171.382 C 618.147 176.360, 615.636 189.054, 616.265 195.983 C 616.873 202.696, 615.901 204, 610.288 204 C 608.724 204, 606.557 204.622, 605.473 205.382 C 604.388 206.141, 603.167 206.829, 602.760 206.909 C 596.730 208.098, 585.151 217.366, 580.360 224.838 C 578.364 227.952, 575.932 231.664, 574.956 233.086 C 570.343 239.811, 566.735 261.330, 568.851 269.500 C 570.908 277.445, 573.384 283.554, 575.670 286.327 C 578.797 290.120, 578.604 293.047, 575 296.500 C 573.350 298.081, 572 299.782, 572 300.279 C 572 300.777, 571.100 302.329, 570 303.727 C 568.900 305.126, 568 307.277, 568 308.508 C 568 309.739, 567.041 312.913, 565.870 315.561 C 562.098 324.089, 564.353 338.144, 571.155 348.500 C 574.221 353.168, 579.845 358.740, 583.160 360.392 C 586.365 361.990, 586.588 364.532, 583.980 369.755 C 580.219 377.284, 582.390 392.790, 587.988 398.388 C 589.569 399.969, 589.182 402.525, 587.073 404.434 C 586.013 405.393, 584.846 407.950, 584.480 410.116 C 584.045 412.692, 582.293 415.837, 579.411 419.213 C 574.739 424.686, 568 437.401, 568 440.743 C 568 441.841, 567.100 445.557, 566 449 C 563.186 457.810, 563.186 475.320, 566 483.500 C 567.100 486.697, 568 490.171, 568 491.218 C 568 495.767, 573.668 505.554, 581.307 514.194 C 584.284 517.562, 584.983 519.045, 584.512 521 C 584.182 522.375, 583.459 528.268, 582.907 534.096 C 582.057 543.069, 582.148 545.365, 583.504 549.096 C 584.384 551.518, 585.374 557.325, 585.704 562 C 586.141 568.198, 586.890 571.448, 588.467 574 C 591.064 578.201, 594.609 587.177, 595.563 591.967 C 596.512 596.727, 597.681 598.568, 603.750 604.863 C 606.638 607.857, 609 610.406, 609 610.527 C 609 610.647, 609.918 612.820, 611.039 615.356 C 612.161 617.891, 612.948 620.121, 612.789 620.311 C 612.333 620.855, 617.962 628.141, 621.910 632.114 C 623.884 634.101, 628.854 638.519, 632.953 641.931 C 641.653 649.173, 643.859 651.851, 642.045 652.972 C 641.374 653.387, 637.377 653.972, 633.162 654.272 C 624.310 654.902, 605.648 658.561, 602.587 660.267 C 601.439 660.906, 600.275 661.461, 600 661.500 C 599.725 661.539, 598.439 662.159, 597.143 662.878 C 593.624 664.829, 592.897 663.345, 591.984 652.351 C 591.267 643.705, 590.527 640.057, 588.263 634 C 587.955 633.175, 587.794 631.545, 587.906 630.378 C 588.018 629.211, 587.443 628, 586.628 627.687 C 585.813 627.375, 584.288 625.180, 583.239 622.809 C 581.064 617.896, 572.424 609.007, 566.500 605.589 C 557.169 600.205, 540.652 598.281, 524.500 600.697 C 520.100 601.355, 510.875 602.030, 504 602.197 L 491.500 602.500 490.869 597 C 490.523 593.975, 489.513 590.150, 488.626 588.500 C 487.738 586.850, 487.010 584.503, 487.006 583.284 C 487.002 581.881, 484.447 578.516, 480.032 574.100 C 474.054 568.123, 472.419 567.035, 468.532 566.452 C 462.396 565.532, 455.272 566.728, 452.928 569.072 C 451.868 570.132, 451 570.671, 451 570.268 C 451 569.865, 449.873 571.194, 448.496 573.220 C 447.119 575.247, 445.404 577.264, 444.686 577.702 C 442.496 579.038, 438.798 593.474, 439.029 599.782 C 439.144 602.927, 439.185 606.010, 439.119 606.633 C 438.948 608.261, 435.249 609.181, 429.609 608.997 C 426.920 608.909, 424.434 609.298, 424.085 609.862 C 423.737 610.425, 414.248 611.624, 402.999 612.525 C 391.750 613.426, 382.248 614.346, 381.885 614.571 C 381.522 614.796, 372.164 615.639, 361.089 616.445 C 350.015 617.251, 340.525 618.175, 340 618.500 C 339.475 618.825, 332.649 619.520, 324.831 620.046 C 317.013 620.571, 310.366 621.339, 310.059 621.751 C 309.342 622.712, 305.867 622.654, 304.249 621.654 C 303.562 621.229, 303 618.959, 303 616.608 C 303 614.257, 302.663 611.996, 302.250 611.583 C 301.837 611.171, 301.462 610.533, 301.415 610.167 C 301.247 608.850, 297.399 601.420, 294.780 597.357 C 291.862 592.830, 288.710 590.352, 282.357 587.592 C 275.195 584.481, 264.004 586.762, 257.906 592.576 C 254.821 595.518, 251 602.605, 251 605.386 C 251 606.209, 250.508 607.186, 249.906 607.558 C 249.304 607.930, 249.019 609.317, 249.272 610.641 C 249.525 611.965, 249.342 613.289, 248.866 613.583 C 247.852 614.209, 247.696 619.363, 248.661 620.328 C 249.888 621.554, 249.511 627.161, 248.124 628.312 C 247.317 628.982, 240.499 629.730, 231.624 630.122 C 218.509 630.701, 201.766 632.942, 197 634.756 C 196.175 635.070, 195.275 635.407, 195 635.504 C 189.931 637.296, 180.448 642.726, 176.848 645.898 C 162.728 658.341, 158.451 674.758, 161.843 703.500 C 162.558 709.550, 163.518 718.550, 163.977 723.500 C 165.203 736.703, 168.895 779.194, 169.646 788.750 C 170.003 793.288, 170.566 796.999, 170.898 796.998 C 171.229 796.997, 171.347 799.714, 171.159 803.036 C 170.972 806.358, 171.291 809.645, 171.868 810.341 C 173.077 811.797, 173.738 823.997, 172.699 825.678 C 172.317 826.297, 169.190 827.112, 165.752 827.490 C 161.952 827.907, 158.128 829.058, 156 830.425 C 154.075 831.662, 151.274 832.978, 149.776 833.350 C 146.004 834.285, 140.225 838.359, 135.634 843.322 C 125.736 854.018, 123.607 867.929, 129.439 883.787 C 130.928 887.835, 130.902 888.325, 128.978 892.549 C 127.857 895.010, 126.205 900.276, 125.307 904.251 C 123.465 912.406, 124.362 921.132, 127.936 929.845 C 129.245 933.037, 129.992 937.862, 130.312 945.196 L 130.779 955.892 135.890 964.226 C 139.854 970.690, 141 973.480, 141 976.665 C 141 981.228, 143.820 991.093, 145.451 992.235 C 146.028 992.639, 146.102 992.976, 145.615 992.985 C 145.128 992.993, 145.916 993.933, 147.365 995.073 C 148.814 996.212, 150 997.741, 150 998.469 C 150 1000.110, 156.580 1006, 158.412 1006 C 159.151 1006, 160.279 1006.631, 160.919 1007.402 C 161.558 1008.173, 163.274 1009.103, 164.730 1009.468 C 166.186 1009.834, 168.621 1011.018, 170.140 1012.099 C 173.669 1014.613, 181.436 1016.975, 186.215 1016.989 C 190.571 1017.002, 192 1018.902, 192.001 1024.684 C 192.002 1029.712, 194.688 1042.440, 196.579 1046.378 C 200.488 1054.517, 202.393 1057.347, 207.989 1063.329 C 216.597 1072.531, 226.270 1078.830, 233.626 1080.025 C 236.857 1080.550, 241.072 1081.434, 242.993 1081.990 C 247.252 1083.221, 262.836 1083.242, 269 1082.024 C 271.475 1081.535, 282.500 1080.608, 293.500 1079.965 C 304.500 1079.322, 314.175 1078.554, 315 1078.259 C 315.825 1077.964, 317.985 1077.822, 319.800 1077.942 C 321.615 1078.063, 323.640 1077.732, 324.300 1077.207 C 325.993 1075.860, 332.010 1075.147, 351.500 1073.984 C 360.850 1073.426, 373.450 1072.323, 379.500 1071.533 C 385.550 1070.743, 397.475 1069.594, 406 1068.980 C 414.525 1068.367, 424.425 1067.454, 428 1066.952 C 431.575 1066.450, 436.562 1066.031, 439.083 1066.020 C 441.604 1066.009, 443.967 1065.700, 444.333 1065.333 C 444.700 1064.967, 447.953 1064.774, 451.562 1064.904 C 455.171 1065.035, 458.658 1064.706, 459.312 1064.173 C 460.477 1063.221, 478.724 1060.939, 500.500 1059.019 C 506.550 1058.486, 514.200 1057.591, 517.500 1057.031 C 524.839 1055.784, 540.682 1055.677, 541.419 1056.868 C 541.714 1057.346, 541.352 1067.019, 540.615 1078.363 C 539.878 1089.708, 539.495 1100.230, 539.763 1101.745 C 540.561 1106.256, 544.780 1110, 549.065 1110 C 551.125 1110, 553.305 1109.337, 554 1108.500 C 555.632 1106.534, 561.401 1106.573, 563.051 1108.562 C 563.978 1109.678, 566.224 1110.136, 570.924 1110.167 C 665.719 1110.800, 1005.876 1110.742, 1006.894 1110.093 C 1007.874 1109.468, 1008.348 1106.725, 1008.489 1100.852 C 1008.600 1096.258, 1009.055 1077.114, 1009.502 1058.308 L 1010.313 1024.116 1014.098 1017.808 C 1017.830 1011.589, 1021.375 1004.567, 1026.007 994.218 C 1029.075 987.365, 1030.165 986.573, 1036.105 986.888 C 1040.777 987.136, 1041.386 986.864, 1046.983 982.015 C 1053.963 975.968, 1056.393 972.337, 1058.409 964.943 C 1061.237 954.566, 1067.103 934.493, 1067.743 933 C 1068.096 932.175, 1068.432 931.050, 1068.489 930.500 C 1068.546 929.950, 1069.071 928.600, 1069.655 927.500 C 1070.240 926.400, 1070.986 924.150, 1071.314 922.500 C 1071.642 920.850, 1072.834 915.240, 1073.963 910.034 C 1076.883 896.570, 1078.937 883.201, 1079.668 872.898 C 1080.015 868.004, 1080.682 864, 1081.150 864 C 1082.261 864, 1082.261 822.279, 1081.150 821.592 C 1080.682 821.303, 1080.017 817.789, 1079.672 813.783 C 1078.605 801.379, 1073.905 782.733, 1069.015 771.500 C 1064.024 760.034, 1056.541 746.283, 1054.413 744.667 C 1053.086 743.658, 1052 742.385, 1052 741.838 C 1052 740.028, 1040.357 726.556, 1031.760 718.418 C 1027.109 714.015, 1020.040 708.441, 1016.053 706.032 C 1012.066 703.623, 1008.575 701.055, 1008.295 700.326 C 1008.015 699.597, 1007.141 699, 1006.353 699 C 1005.564 699, 1003.700 698.170, 1002.210 697.156 C 1000.719 696.142, 997.587 694.117, 995.250 692.656 C 992.913 691.195, 989.288 688.875, 987.196 687.500 C 985.104 686.125, 983.051 685, 982.634 685 C 981.947 685, 978.291 683.395, 966.434 677.888 C 964.198 676.850, 961.611 676, 960.684 676 C 959.758 676, 959 675.523, 959 674.941 C 959 674.359, 958.588 674.136, 958.085 674.447 C 957.582 674.758, 957.015 674.544, 956.824 673.971 C 956.633 673.399, 954.007 672.308, 950.988 671.547 C 947.970 670.786, 943.475 669.466, 941 668.613 C 938.525 667.760, 934.060 666.261, 931.078 665.281 C 924.357 663.073, 923.676 661.451, 928.604 659.392 C 930.683 658.523, 935.034 655.267, 938.273 652.156 C 941.511 649.045, 945.796 645.705, 947.793 644.734 C 951.509 642.926, 957 638.232, 957 636.863 C 957 636.444, 958.383 634.051, 960.074 631.546 C 962.314 628.226, 964.628 626.314, 968.606 624.495 C 971.607 623.121, 974.322 621.323, 974.639 620.499 C 974.955 619.675, 975.766 619, 976.440 619 C 978.340 619, 983.369 612.181, 986.958 604.741 C 990.493 597.411, 991.331 596.987, 997.321 599.490 C 1003.737 602.171, 1016.407 602.442, 1025.995 600.103 C 1030.667 598.964, 1034.643 597.571, 1034.830 597.009 C 1035.018 596.447, 1035.582 596.242, 1036.085 596.553 C 1036.588 596.864, 1037 596.641, 1037 596.059 C 1037 595.477, 1037.741 595, 1038.646 595 C 1040.714 595, 1049.032 589.506, 1055.194 584.070 C 1057.828 581.745, 1061.073 577.507, 1062.588 574.409 C 1065.902 567.636, 1065.040 566.072, 1059.382 568.591 C 1057.247 569.542, 1055.275 570.399, 1055 570.496 C 1052.772 571.284, 1050.584 571.967, 1044.500 573.774 C 1015.856 582.283, 1006.964 582.814, 995.506 576.699 C 988.932 573.191, 987.775 570.996, 990.741 567.661 C 996.532 561.149, 999.558 551.649, 998.584 543.037 C 998.053 538.346, 998.260 536.532, 999.553 534.560 C 1001.197 532.050, 1001.168 527.370, 999.455 519.228 C 998.851 516.357, 999.196 515.552, 1002.265 512.657 C 1004.189 510.842, 1007.041 506.748, 1008.603 503.558 C 1012.037 496.546, 1017.895 490.749, 1025.125 487.210 C 1029.775 484.934, 1031.804 484.574, 1040.166 484.540 C 1048.658 484.505, 1050.202 484.773, 1052.876 486.750 C 1054.550 487.987, 1056.275 489.018, 1056.710 489.039 C 1059.345 489.169, 1067 503.368, 1067 508.126 C 1067 509.157, 1067.338 509.999, 1067.750 509.998 C 1068.770 509.996, 1068.709 526.347, 1067.685 527.099 C 1066.482 527.983, 1066.311 548.935, 1067.500 549.785 C 1068.050 550.178, 1068.500 551.625, 1068.500 553 C 1068.500 554.993, 1069.002 555.500, 1070.973 555.500 C 1072.857 555.500, 1074.462 554.069, 1077.704 549.500 C 1080.046 546.200, 1082.664 542.537, 1083.524 541.360 C 1085.252 538.993, 1086.725 532.011, 1087.654 521.789 C 1088.817 508.978, 1084.316 492.903, 1076.825 483.115 C 1074.030 479.462, 1074.594 476.799, 1079.083 472.453 C 1083.920 467.770, 1093 454.331, 1093 451.855 C 1093 450.900, 1093.489 449.816, 1094.087 449.446 C 1094.685 449.077, 1094.958 447.947, 1094.693 446.935 C 1094.429 445.924, 1094.672 444.943, 1095.233 444.756 C 1096.538 444.321, 1096.805 430.983, 1095.548 429.022 C 1093.292 425.503, 1094.626 423.014, 1103.251 414.657 C 1109.791 408.320, 1112.527 404.838, 1114.466 400.387 C 1115.877 397.149, 1117.699 393.226, 1118.516 391.669 C 1119.665 389.477, 1120 384.854, 1120 371.178 L 1120 353.518 1116.530 346.509 C 1114.622 342.654, 1111.022 337.285, 1108.530 334.577 C 1103.463 329.070, 1103.089 327.428, 1106.045 323.670 C 1107.169 322.240, 1108.044 320.817, 1107.989 320.507 C 1107.933 320.197, 1108.779 318.044, 1109.869 315.722 C 1112.652 309.791, 1116.003 294.231, 1115.986 287.316 C 1115.969 280.512, 1112.200 264.246, 1109.309 258.500 C 1104.432 248.808, 1094.618 235, 1092.606 235 C 1092.220 235, 1090.913 233.897, 1089.702 232.548 C 1088.491 231.199, 1083.900 228.221, 1079.500 225.930 C 1072.535 222.304, 1070.433 221.697, 1063.256 221.242 C 1058.721 220.954, 1054.616 220.220, 1054.132 219.609 C 1053.648 218.999, 1053.015 213.325, 1052.725 207 C 1052.045 192.146, 1047.853 180.306, 1040.405 172.197 C 1038.537 170.163, 1037.007 168.126, 1037.005 167.668 C 1036.997 166.299, 1028.605 158.034, 1027.205 158.017 C 1026.492 158.007, 1024.780 156.871, 1023.400 155.490 C 1022.019 154.110, 1019.452 152.319, 1017.695 151.511 C 1015.938 150.702, 1013.825 149.617, 1013 149.100 C 1008.161 146.065, 1002.683 144.199, 996.753 143.564 C 993.050 143.167, 989.765 142.428, 989.452 141.922 C 988.733 140.759, 977.302 140.702, 976.588 141.857 C 976.297 142.329, 973.734 142.990, 970.892 143.326 C 968.051 143.663, 964.925 144.663, 963.945 145.549 C 962.966 146.436, 961.115 147.012, 959.832 146.830 C 957.946 146.563, 957.397 145.735, 956.961 142.500 C 956.107 136.162, 946.961 121.173, 939.820 114.407 C 933.313 108.242, 923.981 101, 922.543 101 C 921.843 101, 920.197 100.167, 918.885 99.149 C 917.573 98.130, 915.375 97.042, 914 96.730 C 912.625 96.417, 909.475 95.453, 907 94.586 C 904.525 93.719, 899.912 92.750, 896.749 92.433 C 893.587 92.116, 890.356 91.213, 889.571 90.428 C 887.943 88.800, 869 88.323, 869 89.910 M 866.283 111.903 C 861.764 112.892, 857.396 114.256, 856.577 114.936 C 855.758 115.616, 854.618 115.882, 854.044 115.527 C 853.470 115.172, 853 115.302, 853 115.816 C 853 116.330, 851.706 117.009, 850.124 117.325 C 844.388 118.472, 838.289 123.561, 827.250 136.410 C 823.941 140.262, 822.969 144, 825.277 144 C 827.281 144, 831 141.039, 831 139.443 C 831 138.649, 831.475 138, 832.056 138 C 832.637 138, 835.862 135.775, 839.223 133.056 C 842.584 130.336, 845.596 128.186, 845.917 128.278 C 846.238 128.370, 847.625 127.704, 849 126.798 C 851.557 125.114, 859.587 122.650, 868.500 120.814 C 874.992 119.477, 889.736 120.306, 893.533 122.221 C 895.165 123.044, 898.235 123.986, 900.356 124.313 C 902.476 124.641, 905.401 125.688, 906.856 126.641 C 908.310 127.594, 909.725 128.349, 910 128.319 C 913.002 127.993, 933 146.423, 933 149.515 C 933 150.161, 933.900 151.505, 935 152.500 C 936.100 153.495, 937 155.114, 937 156.096 C 937 157.078, 937.481 158.179, 938.068 158.542 C 938.656 158.905, 938.895 159.832, 938.600 160.601 C 938.278 161.440, 938.702 162, 939.659 162 C 940.972 162, 941.137 161.261, 940.591 157.845 C 940.226 155.560, 939.613 153.198, 939.229 152.595 C 938.845 151.993, 938.486 151.275, 938.432 151 C 938.377 150.725, 937.808 149.233, 937.166 147.685 C 936.525 146.137, 936 144.242, 936 143.474 C 936 141.790, 928.792 132.797, 922.825 127.037 C 918.540 122.901, 907.996 117.002, 904.885 117.001 C 903.997 117, 902.087 116.070, 900.642 114.933 C 898.844 113.519, 895.565 112.585, 890.257 111.978 C 885.991 111.490, 880.700 110.869, 878.500 110.598 C 876.300 110.328, 870.802 110.915, 866.283 111.903 M 763.646 114.501 C 762.076 115.320, 760.420 115.759, 759.965 115.478 C 759.510 115.197, 758.887 115.374, 758.580 115.870 C 758.273 116.367, 756.353 117.086, 754.312 117.469 C 752.272 117.852, 749.692 118.803, 748.579 119.583 C 747.466 120.362, 745.785 121, 744.844 121 C 742.636 121, 731.887 129.625, 727.856 134.629 C 724.145 139.238, 721.052 145.627, 721.022 148.750 C 720.989 152.091, 722.904 151.475, 724.512 147.627 C 725.931 144.229, 738.648 130, 740.264 130 C 740.742 130, 742.566 128.927, 744.317 127.616 C 746.068 126.305, 748.625 124.908, 750 124.512 C 751.375 124.116, 753.445 123.198, 754.600 122.471 C 755.754 121.745, 761.224 120.603, 766.754 119.932 C 777.943 118.576, 794.145 119.932, 796.980 122.463 C 799.026 124.289, 802.197 124.772, 802.701 123.335 C 802.926 122.694, 802.073 121.853, 800.805 121.467 C 799.537 121.080, 797.825 120.180, 797 119.466 C 796.175 118.753, 793.808 117.855, 791.739 117.471 C 789.670 117.087, 787.727 116.367, 787.420 115.870 C 787.113 115.374, 786.490 115.197, 786.035 115.478 C 785.580 115.759, 783.924 115.320, 782.354 114.501 C 780.681 113.628, 776.811 113.012, 773 113.012 C 769.189 113.012, 765.319 113.628, 763.646 114.501 M 679.500 155.079 C 669.202 155.782, 659.478 158.635, 654.536 162.405 C 652.665 163.832, 650.766 165.003, 650.317 165.006 C 649.144 165.016, 638.615 179.695, 637.902 182.315 C 637.572 183.524, 636.560 185.950, 635.652 187.707 C 633.893 191.108, 633.285 204, 634.883 204 C 635.919 204, 636.961 200.556, 637.001 197 C 637.017 195.625, 637.585 193.520, 638.265 192.323 C 647.159 176.647, 651.277 171, 653.816 171 C 654.350 171, 655.029 170.368, 655.325 169.595 C 656.296 167.064, 664.403 162.271, 669 161.509 C 671.475 161.099, 674.715 160.142, 676.200 159.382 C 680.341 157.263, 689.614 157.634, 694.759 160.125 C 698.105 161.745, 699.427 161.973, 700.316 161.084 C 701.868 159.532, 699.552 158.036, 695.564 158.015 C 693.950 158.007, 691.700 157.205, 690.564 156.232 C 688.791 154.714, 687.232 154.551, 679.500 155.079 M 717.875 154.500 C 717.806 154.775, 717.687 155.338, 717.610 155.750 C 717.533 156.162, 717.094 157.092, 716.635 157.817 C 715.566 159.502, 716.472 160.416, 718.457 159.655 C 720.141 159.009, 720.622 154, 719 154 C 718.450 154, 717.944 154.225, 717.875 154.500 M 967.250 164.350 C 959.978 165.621, 957.780 167.063, 956.641 171.311 C 956.014 173.648, 958.536 174.630, 960.653 172.873 C 961.726 171.983, 965.966 171.396, 973.094 171.152 C 982.662 170.825, 984.757 171.075, 991.284 173.329 C 1002.392 177.165, 1016.900 187.613, 1022.113 195.531 C 1026.121 201.619, 1030.029 209.144, 1029.569 209.888 C 1029.342 210.255, 1030.011 211.668, 1031.056 213.028 L 1032.956 215.500 1032.978 209.200 C 1032.992 205.138, 1032.393 201.764, 1031.292 199.700 C 1030.352 197.940, 1029.526 196.275, 1029.456 196 C 1027.065 186.681, 1011.682 171.272, 1001 167.496 C 1000.725 167.399, 998.729 166.531, 996.564 165.568 C 991.443 163.291, 976.794 162.682, 967.250 164.350 M 608 225.633 C 599.165 231.846, 592 240.741, 592 245.497 C 592 246.429, 591.360 248.386, 590.578 249.846 C 587.807 255.020, 586.673 262.006, 588.333 263.667 C 588.700 264.033, 589 265.608, 589 267.167 C 589 268.725, 589.392 270, 589.871 270 C 590.350 270, 591.058 266.370, 591.445 261.934 C 591.919 256.509, 592.943 252.286, 594.574 249.039 C 595.909 246.383, 597 243.738, 597 243.161 C 597 242.585, 597.788 241.525, 598.750 240.807 C 599.712 240.088, 600.500 238.825, 600.500 238 C 600.500 237.175, 601.513 236.056, 602.750 235.513 C 603.987 234.970, 605 234.058, 605 233.486 C 605 231.950, 611.079 226.877, 614.249 225.767 C 615.761 225.238, 616.747 224.399, 616.440 223.903 C 615.456 222.310, 611.601 223.100, 608 225.633 M 1050 240.016 C 1048.625 240.447, 1044.912 240.845, 1041.750 240.900 C 1038.588 240.955, 1036 241.417, 1036 241.927 C 1036 243.307, 1041.885 245.995, 1042.550 244.919 C 1043.226 243.826, 1050.346 243.680, 1051.404 244.737 C 1051.809 245.143, 1052.672 245.507, 1053.321 245.546 C 1057.537 245.802, 1075.985 257.096, 1076.012 259.438 C 1076.019 260.022, 1077.707 262.330, 1079.762 264.568 C 1084.411 269.626, 1088.681 278.076, 1089.583 284 C 1091.213 294.708, 1093.563 292.257, 1092.751 280.695 C 1092.096 271.370, 1088.046 262.400, 1081.022 254.715 C 1070.718 243.440, 1058.113 237.468, 1050 240.016 M 723.988 247.031 C 716.728 266.445, 694.088 280.757, 673.965 278.654 C 670.691 278.312, 666.355 277.339, 664.329 276.493 C 659.527 274.487, 658.797 275.326, 657.880 283.904 C 656.741 294.565, 650.770 304.592, 640.690 312.771 L 634.298 317.956 633.654 326.338 C 633.300 330.949, 632.366 336.546, 631.579 338.777 C 630.792 341.008, 629.828 345.008, 629.437 347.667 C 629.047 350.325, 628.264 353.625, 627.697 355 C 627.131 356.375, 626.591 357.725, 626.497 358 C 626.404 358.275, 626.057 359.175, 625.727 360 C 625.398 360.825, 624.660 366.571, 624.088 372.770 C 623.517 378.968, 622.588 384.901, 622.025 385.954 C 620.691 388.446, 620.699 395, 622.035 395 C 622.605 395, 624.067 394.376, 625.285 393.613 C 626.503 392.849, 629.975 391.666, 633 390.982 C 636.025 390.298, 639.038 389.312, 639.695 388.792 C 640.353 388.272, 643.155 387.966, 645.922 388.113 C 648.689 388.260, 651.264 388.070, 651.643 387.690 C 652.806 386.528, 665.521 386.921, 666.758 388.158 C 667.634 389.034, 668.289 389.005, 669.458 388.035 C 670.306 387.331, 671 387.148, 670.999 387.628 C 670.999 388.107, 673.303 388.340, 676.120 388.145 C 678.936 387.950, 682.199 388.248, 683.370 388.806 C 684.542 389.365, 688.425 390.355, 692 391.006 C 713.476 394.916, 728.836 404.224, 737.207 418.401 L 739.914 422.986 750.302 422.351 C 764.116 421.505, 778.105 423.897, 784.154 428.139 C 788.080 430.891, 791.650 430.550, 793.443 427.250 C 795.761 422.985, 805.719 414.748, 809.260 414.166 C 809.679 414.097, 811.269 413.395, 812.795 412.606 C 818.997 409.399, 836.796 407.930, 855.369 409.091 C 868.565 409.917, 882.808 411.990, 887 413.696 C 887.825 414.032, 888.950 414.376, 889.500 414.460 C 890.050 414.545, 891.175 414.876, 892 415.195 C 892.825 415.515, 895.975 416.700, 899 417.828 C 910.495 422.115, 916.429 424.911, 917.938 426.752 C 918.797 427.800, 921.686 430.403, 924.357 432.537 C 927.505 435.052, 930.144 438.348, 931.857 441.907 C 934.766 447.950, 934.346 447.726, 948.250 450.626 C 953.063 451.630, 957 452.785, 957 453.194 C 957 453.603, 957.681 453.676, 958.513 453.357 C 959.345 453.037, 960.582 453.230, 961.263 453.784 C 961.943 454.338, 965.815 455.301, 969.866 455.923 C 973.918 456.545, 978.118 457.528, 979.200 458.107 C 980.719 458.920, 981.602 458.765, 983.083 457.425 C 986.476 454.355, 985.521 449.791, 979.169 438.720 C 977.365 435.576, 977 433.355, 977 425.529 C 977 420.334, 977.448 415.841, 978 415.500 C 978.550 415.160, 979 413.799, 979 412.475 C 979 410.037, 980.571 405.773, 984.147 398.500 L 986.114 394.500 982.807 391.638 C 973.935 383.960, 970.504 380.067, 968.361 375.250 C 967.076 372.363, 965.541 370, 964.950 370 C 964.358 370, 963.972 369.212, 964.091 368.250 C 964.210 367.288, 964.053 365.825, 963.742 365 C 959.683 354.236, 960.187 342.137, 965.081 332.864 C 968.282 326.798, 967.909 326.321, 959.536 325.784 C 955.431 325.521, 951.381 324.731, 950.536 324.030 C 949.691 323.329, 949 323.029, 949 323.363 C 949 323.697, 947.538 323.079, 945.750 321.989 C 943.962 320.899, 941.819 320.006, 940.987 320.004 C 938.934 319.999, 930.423 314.101, 925.380 309.189 C 921.867 305.767, 915 296.721, 915 295.515 C 915 295.303, 914.518 293.863, 913.930 292.315 C 913.341 290.767, 912.838 289.275, 912.811 289 C 912.785 288.725, 912.141 287.612, 911.382 286.527 C 910.535 285.318, 910 281.921, 910 277.746 C 910 272.378, 909.655 270.805, 908.372 270.313 C 907.378 269.931, 906.113 270.465, 905.122 271.685 C 904.213 272.803, 899.983 274.735, 895.500 276.078 C 883.602 279.642, 865.414 279.566, 855.426 275.911 C 844.715 271.992, 833.478 263.003, 827.830 253.835 C 825.301 249.730, 822.196 248.854, 819.916 251.601 C 818.481 253.330, 810.256 258.782, 804.918 261.543 C 800.122 264.022, 784.785 267, 776.806 267 C 756.785 267, 742.172 259.892, 730.363 244.410 C 728.933 242.534, 727.421 241, 727.003 241 C 726.586 241, 725.229 243.714, 723.988 247.031 M 1090 347.067 C 1090 347.653, 1091.164 349.659, 1092.586 351.524 C 1094.008 353.388, 1094.881 355.383, 1094.527 355.957 C 1094.172 356.531, 1094.359 357, 1094.941 357 C 1095.523 357, 1096 357.624, 1096 358.386 C 1096 359.148, 1096.672 361.060, 1097.494 362.636 C 1098.315 364.211, 1098.997 366.625, 1099.009 368 C 1099.021 369.375, 1099.467 371.175, 1100 372 C 1101.784 374.760, 1101.088 365.863, 1098.999 359.199 C 1096.487 351.186, 1090 342.441, 1090 347.067 M 665.500 353.613 C 656.102 356.918, 650 362.951, 650 368.939 C 650 372.172, 650.712 373.783, 653.513 376.883 C 657.951 381.795, 660.529 382.262, 669.380 379.757 C 677.502 377.457, 689.721 377.788, 700.500 380.598 C 711.440 383.451, 712.354 383.436, 716.779 380.343 C 721.305 377.179, 721.967 375.690, 721.986 368.634 C 721.999 364.220, 721.626 363.427, 717.966 360.081 C 711.452 354.127, 699.687 350.958, 684.500 351.066 C 674.457 351.138, 671.358 351.554, 665.500 353.613 M 845.894 368.946 C 838.911 369.892, 831.980 374.415, 829.498 379.645 C 827.888 383.037, 827.861 383.754, 829.197 387.440 C 830.077 389.870, 831.979 392.390, 833.933 393.717 C 836.978 395.785, 838.181 395.920, 851.849 395.724 C 866.548 395.513, 874.128 396.563, 880.240 399.654 C 881.746 400.417, 883.096 400.921, 883.240 400.774 C 883.383 400.628, 884.850 401.439, 886.500 402.578 C 892.824 406.943, 898.195 409.116, 901.087 408.481 C 904.702 407.687, 909.954 401.742, 910.156 398.215 C 910.738 388.052, 908.683 386.204, 884 374.696 C 872.983 369.560, 858.026 367.303, 845.894 368.946 M 650.016 411.024 C 648.100 411.475, 645.612 412.891, 644.489 414.172 C 643.365 415.452, 638.582 419.987, 633.860 424.248 C 623.164 433.901, 619.745 438.624, 620.180 443.147 C 620.793 449.536, 623.188 448.101, 638.650 432.082 C 646.657 423.787, 653.818 417, 654.565 417 C 656.254 417, 660 413.080, 660 411.311 C 660 409.838, 655.598 409.711, 650.016 411.024 M 595.310 429.787 C 593.366 431.023, 588.328 438.947, 587.544 442 C 587.474 442.275, 586.543 444.075, 585.475 446 C 583.783 449.051, 583.532 451.550, 583.517 465.500 C 583.502 479.192, 583.772 482.048, 585.386 485.297 C 588.406 491.376, 590.369 489.946, 591.161 481.088 C 591.801 473.920, 593.406 467.301, 596.757 458 C 597.891 454.854, 598.408 449.815, 598.478 441.250 C 598.575 429.201, 598.225 427.934, 595.310 429.787 M 219.077 433.077 C 213.666 438.488, 213.563 436.381, 221.182 476.279 C 221.789 479.458, 222.629 482.271, 223.049 482.530 C 223.469 482.790, 223.577 483.902, 223.289 485.001 C 223.002 486.100, 223.218 487, 223.770 487 C 224.322 487, 225.092 489.137, 225.482 491.750 C 227.661 506.359, 235.451 511.483, 243.399 503.535 L 247.264 499.670 246.669 492.585 C 246.342 488.688, 245.163 481.900, 244.049 477.500 C 242.935 473.100, 242.018 467.883, 242.012 465.907 C 242.005 463.930, 241.100 459.697, 240 456.500 C 238.900 453.303, 238 449.032, 238 447.010 C 238 444.988, 237.662 442.996, 237.250 442.583 C 236.838 442.171, 236.481 441.533, 236.458 441.167 C 236.435 440.800, 235.599 438.925, 234.600 437 C 230.636 429.360, 224.376 427.778, 219.077 433.077 M 838.416 431.847 C 835.070 432.756, 831.245 434.233, 829.916 435.130 C 825.598 438.042, 815.246 448.337, 809.557 455.377 C 804.276 461.912, 803.081 465.005, 804.794 467.700 C 805.566 468.916, 806.973 467.708, 827.349 448.326 C 832.217 443.697, 839.077 437.978, 842.596 435.617 C 851.282 429.790, 850.055 428.684, 838.416 431.847 M 751.500 444.890 C 749.300 445.293, 746.124 446.349, 744.442 447.238 C 741.568 448.756, 741.315 449.370, 740.234 457.448 C 739.601 462.175, 738.390 467.033, 737.542 468.244 C 736.694 469.454, 736 471.083, 736 471.862 C 736 472.641, 734.654 475.466, 733.009 478.139 C 731.364 480.813, 730.245 483, 730.521 483 C 730.797 483, 729.012 485.469, 726.553 488.488 C 724.095 491.506, 721.599 494.881, 721.007 495.988 C 720.414 497.094, 719.340 498, 718.620 498 C 717.899 498, 716.526 498.867, 715.567 499.926 C 712.667 503.131, 700.756 510.713, 694.954 513.048 C 690.646 514.782, 686.768 515.344, 676.500 515.723 C 664.703 516.158, 662.577 515.956, 653.531 513.542 C 648.048 512.078, 643.098 510.516, 642.531 510.071 C 641.964 509.625, 639.813 508.717, 637.750 508.053 C 635.688 507.388, 634 506.407, 634 505.871 C 634 505.336, 632.467 504.257, 630.593 503.474 C 625.767 501.458, 617.357 492.932, 615.421 488.093 C 613.841 484.145, 611.321 482.666, 610.578 485.250 C 609.539 488.863, 606.988 504.955, 606.993 507.856 C 606.998 509.997, 607.934 512.321, 609.581 514.279 C 611.705 516.802, 612.126 518.247, 611.957 522.423 C 611.660 529.780, 611.650 529.754, 615.796 532.371 C 619.718 534.847, 622.039 539.026, 623.642 546.500 C 624.427 550.158, 624.800 550.524, 628 550.786 C 636.216 551.457, 640.435 556.090, 639.877 563.825 C 639.508 568.936, 639.985 569.410, 643.601 567.524 C 649.654 564.367, 654.756 566.904, 656.926 574.149 C 658.124 578.148, 658.303 578.306, 659.605 576.525 C 660.372 575.476, 661 573.339, 661 571.777 C 661 570.214, 661.675 567.320, 662.500 565.346 C 663.325 563.371, 664 561.112, 664 560.325 C 664 558.235, 674.717 543.193, 678.775 539.588 C 682.653 536.142, 688.035 533.076, 693 531.482 C 693.275 531.394, 695.692 530.304, 698.372 529.060 C 701.567 527.577, 704.230 526.996, 706.111 527.372 C 710.167 528.183, 711.745 527.303, 712.989 523.532 C 715.650 515.470, 723.462 513.995, 731.027 520.125 C 740.792 528.040, 747.241 529.325, 760.378 525.974 C 770.420 523.413, 773.541 524.017, 774.532 528.716 C 775.579 533.681, 776.457 534.295, 785.054 536.082 C 795.970 538.351, 798.547 539.388, 803.636 543.558 C 805.946 545.451, 808.661 547.002, 809.668 547.004 C 814.468 547.014, 826.148 557.687, 829.908 565.500 C 833.057 572.044, 833.181 572.268, 835.374 575.374 C 836.405 576.834, 837.447 580.160, 837.688 582.764 C 838.235 588.653, 841.205 598.980, 842.356 598.991 C 842.827 598.996, 844.124 597.841, 845.237 596.425 C 848.198 592.662, 851.492 591.686, 855.042 593.522 C 856.653 594.355, 858.247 596.135, 858.584 597.477 C 859.809 602.359, 861.537 602.402, 865.435 597.645 C 868.176 594.300, 869.906 593.113, 872.478 592.813 C 877.102 592.273, 879.841 593.450, 880.990 596.473 C 882.357 600.070, 884.292 599.605, 886.842 595.067 C 891.512 586.759, 899.363 583.428, 903.500 588 C 905.874 590.623, 907.837 590.533, 908.946 587.750 C 909.439 586.513, 911.938 583.138, 914.499 580.250 C 918.729 575.481, 919.542 575, 923.378 575 C 925.700 575, 928.164 575.563, 928.854 576.250 C 930.473 577.863, 933.296 574.371, 935.475 568.060 C 937.679 561.678, 940.535 559, 945.139 559 C 948.576 559, 951.031 557.072, 951.506 554 C 951.549 553.725, 952.352 552.060, 953.292 550.300 C 954.231 548.539, 955 546.434, 955 545.621 C 955 544.809, 957.915 541.214, 961.478 537.633 C 966.673 532.413, 968.086 530.312, 968.611 527.032 C 969.311 522.653, 973.940 515.960, 977.085 514.782 C 979.154 514.007, 979.830 508.631, 978 507.500 C 976.766 506.737, 976.679 498.607, 977.879 496.236 C 979.894 492.258, 982.030 484.243, 981.467 482.776 C 980.708 480.798, 977.573 479.781, 972.852 479.983 C 970.845 480.068, 968.938 479.709, 968.614 479.185 C 968.290 478.660, 965.207 477.754, 961.762 477.172 C 958.318 476.589, 951.096 475.338, 945.714 474.392 C 934.415 472.407, 933.999 472.581, 932.941 479.726 C 932.032 485.860, 928.285 496.180, 926.451 497.599 C 925.670 498.203, 925.324 498.991, 925.682 499.349 C 926.040 499.707, 925.839 500, 925.234 500 C 924.629 500, 923.824 501.012, 923.444 502.250 C 921.762 507.733, 910.014 521.472, 901.854 527.500 C 896.566 531.406, 890.950 534.471, 887.058 535.576 C 884.551 536.288, 880.668 537.544, 878.429 538.368 C 864.826 543.375, 832.626 539.915, 822.317 532.339 C 820.566 531.053, 818.869 530, 818.545 530 C 817.482 530, 809.518 524.547, 808.700 523.260 C 808.260 522.567, 807.318 522, 806.607 522 C 805.895 522, 803.147 519.300, 800.500 516 C 797.853 512.700, 795.407 510, 795.063 510 C 794.720 510, 793.889 508.762, 793.218 507.250 C 792.546 505.738, 791.350 503.375, 790.560 502 C 786.711 495.306, 785.183 490.804, 784.520 484.199 C 784.122 480.235, 783.392 476.742, 782.898 476.437 C 781.666 475.675, 781.758 461.268, 783 460.500 C 783.550 460.160, 784 458.370, 784 456.523 C 784 453.787, 783.375 452.777, 780.634 451.083 C 773.046 446.393, 759.274 443.465, 751.500 444.890 M 127.974 475.872 C 122.799 481.047, 122.807 486.761, 127.997 491.659 C 129.649 493.218, 131 495.057, 131 495.747 C 131 496.436, 131.473 497, 132.051 497 C 133.304 497, 139.988 504.095, 139.995 505.432 C 139.998 505.944, 143.037 509.358, 146.750 513.017 C 150.463 516.677, 156.650 523.108, 160.500 527.308 C 168.237 535.749, 174.810 540.360, 177.674 539.355 C 178.678 539.002, 181.188 537.112, 183.250 535.154 C 187.561 531.061, 188.277 526.814, 185 524.768 C 183.900 524.081, 183 523.151, 183 522.701 C 183 520.937, 175.062 511.507, 157.598 492.525 C 141.545 475.078, 139.132 473.023, 134.673 473.011 C 131.784 473.003, 130.143 473.703, 127.974 475.872 M 706.542 561.729 C 705.465 562.003, 703.570 562.891, 702.332 563.702 C 700.847 564.675, 699.033 564.947, 697 564.500 C 693.049 563.632, 691.775 564.732, 687.884 572.370 C 684.820 578.384, 684.774 578.687, 685.433 588.348 C 686.193 599.479, 686.855 600.986, 692.574 604.601 C 695.443 606.415, 697.101 608.412, 698.169 611.339 C 699.579 615.209, 700.006 615.546, 704.254 616.154 C 706.767 616.514, 710.202 617.829, 711.888 619.075 C 714.493 621.001, 715.333 621.169, 717.477 620.192 C 719.645 619.205, 720 618.392, 720 614.421 C 720 610.499, 720.514 609.286, 723.400 606.400 C 726.228 603.572, 727.532 603.001, 731.150 603.006 C 733.543 603.010, 736.789 603.685, 738.364 604.506 C 739.971 605.344, 743.847 606, 747.191 606 C 752.448 606, 753.500 606.346, 756.077 608.923 C 758.717 611.563, 759 612.485, 759 618.445 C 759 624.688, 759.148 625.107, 761.750 626.233 C 763.263 626.887, 765.772 628.452, 767.327 629.711 C 770.948 632.643, 772.691 632.591, 778.440 629.378 C 783.077 626.786, 783.176 626.776, 786.976 628.489 L 790.820 630.223 795.160 625.861 C 797.547 623.463, 800.935 620.749, 802.689 619.831 C 805.064 618.589, 806.051 617.245, 806.553 614.570 C 806.923 612.595, 808.076 609.313, 809.113 607.278 C 810.499 604.560, 811 601.443, 810.999 595.539 C 810.999 587.514, 810.991 587.490, 806.447 581.702 L 801.895 575.903 796.197 576.202 L 790.500 576.500 790.839 581.719 C 791.160 586.656, 790.974 587.125, 787.421 590.381 C 784.774 592.806, 782.308 594.025, 779.082 594.505 C 776.562 594.880, 773.971 595.622, 773.324 596.154 C 772.677 596.686, 771.552 597.022, 770.824 596.901 C 770.096 596.779, 768.150 597.245, 766.500 597.937 C 762.481 599.623, 737.810 598.917, 735.563 597.052 C 734.703 596.339, 734 596.125, 734 596.578 C 734 597.030, 733.460 596.860, 732.800 596.200 C 732.140 595.540, 730.452 594.996, 729.050 594.991 C 727.648 594.986, 724.250 593.875, 721.500 592.522 C 718.750 591.169, 716.010 590.048, 715.411 590.031 C 714.812 590.014, 711.549 587.403, 708.161 584.228 C 703.815 580.157, 702.001 577.726, 702.005 575.978 C 702.010 573.493, 706.829 567.529, 710.557 565.395 C 712.219 564.444, 712.297 564.063, 711.121 562.645 C 710.370 561.740, 709.473 561.052, 709.128 561.116 C 708.782 561.180, 707.619 561.456, 706.542 561.729 M 714.568 563.891 C 714.013 564.788, 718.141 568, 719.848 568 C 720.353 568, 720.989 568.851, 721.261 569.891 C 721.943 572.497, 733.764 577.968, 741.621 579.313 C 749.611 580.682, 768.912 578.964, 774.276 576.406 C 778.438 574.421, 778.353 573.521, 773.921 572.634 C 772.205 572.291, 769.424 570.852, 767.742 569.436 C 764.418 566.639, 761.070 566.741, 757.744 569.738 C 756.778 570.609, 755.694 571.028, 755.336 570.669 C 754.977 570.311, 754.080 570.519, 753.342 571.131 C 752.387 571.924, 752 571.931, 752 571.154 C 752 570.554, 751.438 570.265, 750.750 570.513 C 750.063 570.761, 748.176 569.172, 746.558 566.982 C 743.194 562.429, 740.043 561.837, 736 565 C 732.786 567.514, 728.296 567.514, 724.500 565 C 721.420 562.960, 715.548 562.304, 714.568 563.891 M 85.441 566.468 C 84.374 567.276, 82.713 567.951, 81.750 567.968 C 80.266 567.995, 80 568.988, 80 574.500 C 80 580.340, 80.204 581, 82.007 581 C 83.110 581, 84.991 582.125, 86.187 583.500 C 87.382 584.875, 89.163 586, 90.143 586 C 91.124 586, 94.080 586.841, 96.713 587.869 C 99.346 588.897, 104.120 590.059, 107.321 590.450 C 110.523 590.841, 114.573 591.750, 116.321 592.470 C 118.070 593.189, 121.862 594.095, 124.749 594.483 C 127.636 594.870, 130.254 595.603, 130.568 596.110 C 130.882 596.617, 131.526 596.793, 132 596.500 C 132.474 596.207, 133.144 596.425, 133.490 596.984 C 135.512 600.255, 145.898 595.350, 148.898 589.708 C 150.185 587.288, 150.080 586.794, 147.590 583.530 C 144.203 579.089, 138.859 576.315, 131.911 575.394 C 128.952 575.001, 124.499 573.759, 122.016 572.632 C 119.532 571.506, 117.275 570.558, 117 570.527 C 116.725 570.495, 116.047 570.180, 115.492 569.825 C 114.938 569.471, 112.688 568.871, 110.492 568.492 C 108.297 568.113, 104.281 567.173, 101.568 566.402 C 95.172 564.583, 87.893 564.614, 85.441 566.468 M 781.257 571.993 C 778.526 574.205, 779.295 575, 784.167 575 C 788.525 575, 789.040 573.911, 785.714 571.732 C 783.655 570.383, 783.213 570.409, 781.257 571.993 M 459.899 590.188 C 458.472 592.855, 459.389 615.209, 461.451 628 C 462.205 632.675, 463.105 640.316, 463.453 644.981 C 463.954 651.698, 464.529 653.934, 466.217 655.731 C 468.562 658.227, 470.496 658.625, 471.599 656.839 C 472.650 655.140, 472.051 643.650, 470.874 642.922 C 470.307 642.572, 469.943 638.641, 470.038 633.901 C 470.130 629.280, 469.935 624.712, 469.603 623.750 C 469.271 622.788, 468.775 621.288, 468.500 620.418 C 468.225 619.548, 467.728 612.685, 467.395 605.168 C 467.063 597.651, 466.372 590.712, 465.860 589.750 C 464.569 587.321, 461.305 587.561, 459.899 590.188 M 269.513 609.622 C 268.681 611.614, 268 615.532, 268 618.327 C 268 626.900, 271.041 662.257, 272.144 666.500 C 273.470 671.606, 276.759 677, 278.546 677 C 280.905 677, 282.234 673.268, 281.147 669.701 C 280.179 666.526, 278.594 650.262, 277.473 632 C 277.152 626.775, 276.383 621.478, 275.765 620.230 C 274.922 618.527, 274.936 617.664, 275.820 616.780 C 277.356 615.244, 277.343 608.743, 275.800 607.200 C 273.535 604.935, 271.076 605.882, 269.513 609.622 M 537.500 618.586 C 535.850 618.790, 529.325 619.472, 523 620.102 C 516.675 620.732, 510.969 621.671, 510.321 622.188 C 509.673 622.704, 505.298 623.035, 500.601 622.922 C 489.532 622.655, 487.505 623.795, 489.080 629.399 C 489.683 631.543, 489.953 634.468, 489.679 635.898 C 489.406 637.328, 490.240 641.828, 491.532 645.898 C 493.795 653.024, 493.825 653.522, 492.336 659.334 C 490.519 666.424, 487.625 670.380, 480.891 674.975 C 476.463 677.997, 475.272 678.329, 468.656 678.387 C 460.939 678.455, 459.317 677.701, 452.206 670.744 C 446.515 665.176, 441.960 652.379, 445 650.500 C 446.340 649.672, 446.277 645.289, 444.913 644.446 C 444.315 644.077, 444.048 642.925, 444.319 641.887 C 444.591 640.849, 444.428 640, 443.959 640 C 443.489 640, 442.969 637.638, 442.802 634.750 L 442.500 629.500 438.500 629.620 C 420.053 630.176, 386.828 633.535, 383.361 635.195 C 382.185 635.758, 379.147 636.054, 376.611 635.852 C 374.075 635.651, 372 635.826, 372 636.243 C 372 636.659, 368.512 636.999, 364.250 636.997 C 359.988 636.995, 350.875 637.696, 344 638.555 C 337.125 639.413, 324.080 640.652, 315.011 641.308 C 298.909 642.472, 298.496 642.559, 297.375 645 C 295.595 648.879, 297.221 658.959, 300.376 663.602 C 302.518 666.755, 303 668.615, 303 673.732 C 303 677.477, 302.574 680, 301.941 680 C 301.359 680, 301.160 680.450, 301.500 681 C 301.840 681.550, 301.619 682, 301.008 682 C 300.397 682, 299.281 683.462, 298.527 685.250 C 296.599 689.822, 291.261 694.644, 286.121 696.457 C 277.123 699.632, 270.706 697.880, 263.033 690.155 C 255.146 682.212, 253.806 678.856, 252.555 663.897 C 251.307 648.992, 250.413 647.257, 245 649.250 C 244.175 649.554, 235.850 650.306, 226.500 650.921 C 217.150 651.536, 206.552 652.822, 202.948 653.779 C 196.348 655.531, 188 660.925, 188 663.438 C 188 664.136, 186.937 665.855, 185.637 667.257 C 184.338 668.660, 182.472 672.772, 181.491 676.396 C 179.923 682.189, 179.843 684.224, 180.831 693.242 C 181.449 698.884, 182.244 708.344, 182.598 714.265 C 182.952 720.186, 183.666 725.294, 184.186 725.615 C 184.705 725.936, 185.027 729.056, 184.900 732.548 C 184.563 741.844, 185.090 742.217, 197.402 741.403 C 202.956 741.036, 208.037 740.311, 208.693 739.793 C 209.349 739.274, 212.274 738.939, 215.193 739.049 C 218.112 739.158, 221.850 738.701, 223.500 738.033 C 225.150 737.366, 234.825 736.394, 245 735.874 C 255.175 735.354, 265.075 734.495, 267 733.965 C 268.925 733.436, 278.150 732.519, 287.500 731.928 C 296.850 731.337, 306.819 730.211, 309.654 729.426 C 312.489 728.642, 318.901 728, 323.904 728 C 329.654 728, 333 727.609, 333 726.938 C 333 726.262, 335.993 725.936, 341.250 726.041 C 345.788 726.132, 350.175 725.970, 351 725.681 C 355.745 724.019, 364.268 723.001, 378 722.456 C 386.525 722.117, 396.200 721.215, 399.500 720.452 C 402.800 719.688, 413.600 718.564, 423.500 717.954 C 433.400 717.344, 443.699 716.430, 446.386 715.923 C 449.074 715.415, 454.497 715, 458.436 715 C 462.376 715, 466.094 714.506, 466.698 713.902 C 467.328 713.272, 470.187 712.952, 473.400 713.152 C 476.481 713.343, 479.002 713.163, 479.001 712.750 C 479.001 712.337, 482.488 712, 486.750 712 C 491.013 712, 497.651 711.333, 501.500 710.517 C 516.102 707.425, 535.163 709.351, 539.905 714.399 C 542.969 717.660, 543.008 721.094, 540 722.648 C 534.238 725.624, 530.046 727.134, 528.329 726.851 C 527.323 726.686, 525.931 726.907, 525.235 727.343 C 524.540 727.779, 517.340 728.551, 509.235 729.057 C 501.131 729.563, 492.700 730.638, 490.500 731.445 C 488.215 732.283, 482.856 732.935, 478 732.964 C 473.325 732.993, 464.550 733.685, 458.500 734.501 C 452.450 735.317, 439.400 736.475, 429.500 737.073 C 419.600 737.672, 410.488 738.651, 409.252 739.249 C 408.015 739.847, 406.706 740.040, 406.344 739.677 C 405.981 739.314, 405.085 739.515, 404.352 740.123 C 403.620 740.730, 396.345 741.599, 388.186 742.054 C 380.028 742.508, 367.535 743.563, 360.426 744.398 C 353.317 745.233, 339.175 746.416, 329 747.025 C 318.825 747.635, 308.695 748.531, 306.489 749.017 C 304.283 749.503, 296.408 750.209, 288.989 750.584 C 281.570 750.960, 274.963 751.691, 274.307 752.209 C 273.651 752.727, 270.697 753.038, 267.743 752.901 C 264.788 752.765, 261.745 753.039, 260.981 753.512 C 260.216 753.984, 249.670 754.990, 237.545 755.747 C 225.420 756.504, 211.819 757.771, 207.320 758.562 C 202.822 759.353, 196.875 760, 194.106 760 C 188.552 760, 186.895 761.519, 187.547 766.011 C 188.327 771.379, 191.023 800.205, 191.941 812.989 L 192.910 826.478 196.205 829.196 C 198.017 830.691, 200.716 832.190, 202.203 832.526 C 203.690 832.863, 205.940 833.907, 207.203 834.845 C 208.466 835.784, 210.652 837.133, 212.059 837.843 C 214.598 839.123, 223.488 851.416, 223.513 853.679 C 223.520 854.328, 223.857 855.191, 224.263 855.596 C 225.490 856.824, 225.105 869.495, 223.800 870.800 C 223.140 871.460, 222.931 872, 223.336 872 C 223.741 872, 222.931 873.679, 221.536 875.732 C 218.636 880, 218.358 882.222, 220.500 884 C 221.325 884.685, 222 885.592, 222 886.017 C 222 886.441, 223.237 888.124, 224.750 889.755 C 228.159 893.434, 231.003 901.354, 230.990 907.134 C 230.985 909.669, 229.936 913.743, 228.490 916.849 C 225.130 924.067, 225.323 926.467, 229.688 931.794 C 233.068 935.920, 233.375 936.817, 233.375 942.573 C 233.375 947.675, 232.890 949.568, 230.788 952.676 C 226.819 958.542, 226.662 960.179, 229.466 966.519 C 230.860 969.670, 232 973.655, 231.999 975.374 C 231.998 981.914, 224.786 996, 221.438 996 C 220.709 996, 219.413 997, 218.557 998.223 C 217.701 999.445, 217 1000.088, 217 999.651 C 217 999.214, 216.380 999.452, 215.623 1000.179 C 214.865 1000.905, 213.402 1002.080, 212.373 1002.789 C 210.973 1003.753, 210.530 1005.215, 210.620 1008.576 C 210.686 1011.049, 211.023 1013.357, 211.370 1013.703 C 211.716 1014.050, 212 1015.529, 212 1016.990 C 212 1018.452, 212.726 1023.889, 213.613 1029.074 C 216.556 1046.274, 223.014 1053.818, 241 1061.064 C 246.112 1063.124, 247.512 1063.234, 260.835 1062.633 C 268.720 1062.276, 278.170 1061.345, 281.835 1060.562 C 285.501 1059.779, 295.025 1058.851, 303 1058.501 C 310.975 1058.151, 319.525 1057.441, 322 1056.924 C 324.475 1056.406, 335.424 1055.337, 346.330 1054.548 C 357.658 1053.728, 366.754 1052.619, 367.546 1051.962 C 368.356 1051.289, 377.778 1050.212, 390.216 1049.370 C 401.922 1048.578, 414.650 1047.516, 418.500 1047.011 C 422.350 1046.506, 434.018 1045.604, 444.429 1045.008 C 454.840 1044.411, 466.090 1043.483, 469.429 1042.945 C 472.768 1042.407, 482.250 1041.520, 490.500 1040.974 C 498.750 1040.428, 506.175 1039.674, 507 1039.298 C 507.825 1038.922, 508.950 1038.545, 509.500 1038.460 C 510.050 1038.376, 511.175 1038.050, 512 1037.736 C 513.858 1037.030, 558.110 1033.650, 563.223 1033.824 C 568.884 1034.016, 581.031 1030.637, 586.036 1027.477 C 592.290 1023.529, 600.571 1014.672, 600.571 1011.931 C 600.571 1010.393, 599.285 1008.866, 596.496 1007.092 C 592.873 1004.788, 587.841 1000.080, 584.265 995.648 C 583.586 994.806, 582.278 992.178, 581.357 989.809 C 580.437 987.439, 579.336 985.042, 578.911 984.481 C 578.487 983.921, 577.605 980.397, 576.953 976.649 C 575.846 970.294, 575.923 967.513, 577.565 954.500 C 578.131 950.010, 577.904 949.134, 575.336 945.912 C 573.762 943.938, 571.628 939.496, 570.593 936.041 C 568.728 929.812, 568.730 929.678, 570.843 920.292 C 572.758 911.784, 573.482 910.216, 577.987 904.825 C 583.231 898.548, 584.516 894.791, 581.113 895.681 C 580.075 895.952, 578.923 895.685, 578.554 895.087 C 578.184 894.489, 576.541 894, 574.901 894 C 573.262 894, 570.156 893.100, 568 892 C 565.844 890.900, 563.499 889.996, 562.790 889.991 C 562.080 889.986, 559.250 888.875, 556.500 887.522 C 553.750 886.169, 550.768 885.048, 549.872 885.031 C 548.977 885.014, 547.657 884.292, 546.939 883.427 C 546.221 882.562, 543.857 880.874, 541.686 879.677 C 539.515 878.480, 536.683 876.918, 535.394 876.208 C 534.105 875.497, 531.367 872.347, 529.310 869.208 C 527.252 866.068, 525.104 863.172, 524.535 862.771 C 522.918 861.632, 501.327 862.983, 493 864.744 C 488.875 865.617, 481.675 866.369, 477 866.415 C 469.484 866.490, 468.126 866.219, 465.267 864.074 C 459.333 859.623, 456.844 854.655, 457.048 847.672 C 457.147 844.277, 456.989 840.825, 456.696 840 C 456.403 839.175, 455.920 835.125, 455.622 831 C 455.324 826.875, 454.633 819.675, 454.088 815 C 453.542 810.325, 452.967 801.048, 452.810 794.385 L 452.525 782.269 456.012 778.232 C 461.141 772.294, 465.515 771.096, 488 769.471 C 513.142 767.654, 518.879 767.005, 519.561 765.902 C 520.272 764.751, 525.709 764.721, 526.415 765.863 C 526.709 766.337, 528.942 767.284, 531.378 767.966 C 533.842 768.656, 537.155 770.602, 538.846 772.353 C 541.703 775.312, 541.945 776.187, 542.906 787 C 543.467 793.325, 544.467 804.154, 545.128 811.064 L 546.329 823.629 558.415 823.564 C 565.062 823.529, 574.442 823.861, 579.261 824.303 C 586.889 825.002, 588.102 824.896, 588.644 823.486 C 588.986 822.594, 588.702 820.812, 588.013 819.524 C 587.324 818.236, 586.949 815.567, 587.179 813.591 C 587.410 811.616, 587.239 810, 586.799 810 C 586.360 810, 585.972 806.063, 585.938 801.250 C 585.904 796.438, 585.467 789.125, 584.966 785 C 583.295 771.242, 581.029 744.689, 580.058 727.500 C 578.644 702.454, 576.184 677.927, 574.936 676.423 C 574.335 675.699, 573.945 674.070, 574.070 672.803 C 574.195 671.536, 574.027 669.825, 573.696 669 C 573.366 668.175, 572.681 661.852, 572.176 654.948 C 571.587 646.917, 570.670 641.262, 569.628 639.248 C 568.733 637.516, 568 635.464, 568 634.687 C 568 633.909, 565.793 631.300, 563.095 628.887 C 556.212 622.730, 555.286 622.047, 554.664 622.669 C 554.362 622.971, 552.804 622.285, 551.202 621.144 C 548.169 618.984, 542.641 617.952, 537.500 618.586 M 877.578 685.148 C 874.871 686.796, 871.834 687.928, 870.829 687.666 C 869.824 687.403, 868.799 687.517, 868.550 687.919 C 868.301 688.321, 864.363 689.450, 859.799 690.426 C 855.235 691.403, 849.025 693.068, 846 694.126 C 842.349 695.404, 838.146 696.004, 833.500 695.913 C 826.557 695.777, 811.523 698.264, 807.305 700.248 C 805.647 701.027, 804.230 700.863, 801.520 699.577 C 796.934 697.400, 791.064 697.323, 786.933 699.383 C 783.349 701.171, 772.492 701.605, 771.500 700 C 771.160 699.450, 768.854 699, 766.375 699 C 763.897 699, 760.995 698.532, 759.926 697.961 C 758.858 697.389, 753.212 696.502, 747.379 695.989 C 741.547 695.477, 736.181 694.565, 735.456 693.963 C 734.730 693.361, 731.155 692.446, 727.511 691.930 C 723.867 691.414, 719.448 690.227, 717.692 689.293 C 715.937 688.358, 713.971 687.697, 713.325 687.823 C 712.679 687.950, 711.865 687.591, 711.516 687.027 C 711.167 686.462, 710.064 686, 709.063 686 C 708.063 686, 706.685 685.325, 706 684.500 C 704.640 682.862, 700.448 682.466, 699.567 683.892 C 698.695 685.302, 703.268 698.254, 705.752 701.412 C 706.988 702.984, 708 704.786, 708 705.417 C 708 707.926, 723.870 722, 726.698 722 C 727.159 722, 729.103 723.056, 731.018 724.348 C 732.933 725.639, 735.115 726.484, 735.866 726.226 C 736.617 725.967, 737.517 726.156, 737.866 726.645 C 738.571 727.634, 744.877 729.579, 752.500 731.159 C 755.250 731.729, 766.054 732.172, 776.509 732.145 C 792.738 732.102, 796.468 731.797, 802.009 730.060 C 805.579 728.941, 809.737 728.020, 811.250 728.013 C 812.763 728.006, 814 727.522, 814 726.937 C 814 726.353, 814.788 725.982, 815.750 726.114 C 816.712 726.246, 819.525 725.396, 822 724.226 C 824.475 723.056, 829.425 721.013, 833 719.685 C 836.575 718.358, 840.175 717.015, 841 716.702 C 841.825 716.388, 846.100 713.854, 850.500 711.071 C 854.900 708.288, 860.075 705.293, 862 704.416 C 863.925 703.539, 866.400 701.974, 867.500 700.938 C 868.600 699.903, 871.975 696.953, 875 694.385 C 878.025 691.816, 880.906 688.878, 881.403 687.857 C 881.899 686.836, 882.912 686, 883.653 686 C 884.394 686, 885 685.100, 885 684 C 885 681.333, 883.455 681.572, 877.578 685.148 M 1020.180 738.250 C 1020.386 739.696, 1021.304 740.614, 1022.750 740.820 C 1025.373 741.192, 1025.663 739.806, 1023.429 737.571 C 1021.194 735.337, 1019.808 735.627, 1020.180 738.250 M 409.250 776.753 C 404.712 776.933, 401.001 777.400, 401.002 777.790 C 401.004 778.181, 397.330 778.351, 392.839 778.169 C 388.347 777.986, 383.734 778.283, 382.586 778.828 C 378.439 780.797, 376.313 781.177, 364.823 781.997 C 352.048 782.910, 349.115 784.150, 345.581 790.133 C 343.460 793.723, 343.384 796.218, 344.855 814 C 345.470 821.425, 346.559 836.110, 347.276 846.633 C 348.515 864.820, 348.717 865.974, 351.362 869.972 C 353.203 872.753, 355.667 874.850, 358.639 876.165 C 362.693 877.958, 363.984 878.052, 371.817 877.129 C 376.592 876.567, 384.550 875.829, 389.500 875.491 C 394.450 875.152, 400.525 874.412, 403 873.846 C 405.475 873.279, 412.649 872.487, 418.942 872.085 L 430.385 871.354 435.192 865.987 L 440 860.619 440 848.375 C 440 841.640, 439.591 835.054, 439.090 833.738 C 438.590 832.422, 437.408 821.705, 436.464 809.923 C 435.485 797.694, 434.186 787.395, 433.439 785.925 C 430.907 780.945, 426.373 777, 423.181 777 C 421.521 777, 419.564 776.871, 418.832 776.712 C 418.099 776.554, 413.788 776.572, 409.250 776.753 M 514.373 785.918 C 509.343 788.202, 508.522 789.358, 510.665 791.137 C 511.568 791.887, 512.351 792.358, 512.404 792.185 C 512.631 791.443, 516.649 793.474, 518.289 795.160 C 519.273 796.172, 520.402 797, 520.798 797 C 522.015 797, 523.828 793.433, 524.540 789.640 C 525.153 786.371, 524.965 785.937, 522.543 785.016 C 519.127 783.718, 519.248 783.704, 514.373 785.918 M 298.500 787.634 C 289.863 788.596, 278.397 790.303, 277.658 790.737 C 277.195 791.009, 271.714 791.156, 265.477 791.064 C 259.241 790.972, 253.320 791.305, 252.319 791.805 C 244.914 795.505, 243.076 796.679, 239.791 799.800 C 237.752 801.739, 236.297 803.671, 236.558 804.093 C 236.819 804.516, 236.575 805.144, 236.016 805.490 C 234.858 806.206, 234.602 823.001, 235.750 822.998 C 236.162 822.996, 236.351 826.670, 236.169 831.161 C 235.986 835.653, 236.290 840.266, 236.844 841.414 C 237.398 842.561, 238.345 848.675, 238.950 855 C 240.659 872.888, 241.720 879.034, 243.426 880.918 C 244.291 881.875, 245 883.078, 245 883.593 C 245 885.235, 254.358 889.017, 258.400 889.009 C 260.545 889.004, 265.720 888.340, 269.900 887.534 C 274.080 886.728, 285.973 885.607, 296.328 885.045 C 306.684 884.482, 315.684 883.691, 316.328 883.287 C 316.973 882.883, 317.950 882.516, 318.500 882.472 C 319.688 882.376, 324.878 880.351, 327 879.157 C 327.825 878.692, 329.546 876.780, 330.824 874.906 C 332.751 872.083, 333.056 870.644, 332.607 866.500 C 332.310 863.750, 331.368 852.275, 330.515 841 C 329.662 829.725, 328.676 819.825, 328.324 819 C 327.972 818.175, 327.767 816.971, 327.869 816.325 C 327.970 815.679, 327.591 814.865, 327.027 814.516 C 326.462 814.167, 325.995 811.771, 325.989 809.191 C 325.969 800.560, 324.902 797.058, 321.109 793.174 C 315.362 787.289, 311.059 786.235, 298.500 787.634 M 471.701 789.777 C 470.606 790.988, 470.367 791.967, 471.009 792.609 C 471.549 793.149, 472.285 797.073, 472.645 801.329 C 473.005 805.585, 473.720 809.327, 474.234 809.645 C 475.300 810.303, 480.898 804.148, 480.959 802.250 C 480.982 801.563, 481.536 801, 482.192 801 C 484.370 801, 491.121 792.854, 490.801 790.611 C 490.525 788.677, 489.781 788.476, 481.938 788.214 C 474.649 787.970, 473.126 788.203, 471.701 789.777 M 405.500 795.990 C 403.300 796.433, 393.850 797.125, 384.500 797.527 C 375.150 797.930, 366.488 798.640, 365.250 799.105 C 363.238 799.861, 363 800.630, 363 806.369 C 363 815.645, 364.947 833.232, 366.133 834.660 C 366.690 835.332, 367.038 838.529, 366.906 841.766 C 366.774 845.002, 366.993 848.179, 367.392 848.825 C 367.791 849.471, 367.761 850.563, 367.324 851.250 C 366.113 853.157, 366.235 854.335, 367.842 856.250 C 369.461 858.180, 373.511 858.601, 374.534 856.945 C 374.930 856.304, 378.982 855.949, 384.843 856.041 C 390.154 856.124, 395.175 855.964, 396 855.684 C 396.825 855.404, 402.450 854.645, 408.500 853.998 C 421.168 852.641, 422.120 852.008, 420.908 845.744 C 420.457 843.410, 420.068 837.788, 420.044 833.250 C 420.016 828.053, 419.602 825, 418.924 825 C 418.315 825, 417.922 823.368, 418.020 821.250 C 418.116 819.188, 418.090 817.275, 417.963 817 C 417.836 816.725, 417.230 811.775, 416.616 806 L 415.500 795.500 412.500 795.343 C 410.850 795.256, 407.700 795.548, 405.500 795.990 M 286 808.078 C 280.775 808.510, 274.928 809.345, 273.007 809.932 C 271.085 810.519, 267.402 811, 264.822 811 C 262.241 811, 258.924 811.459, 257.449 812.019 C 254.800 813.026, 254.776 813.123, 255.356 820.269 C 255.679 824.246, 256.468 836.500, 257.109 847.500 C 257.750 858.500, 258.625 867.950, 259.053 868.500 C 259.857 869.535, 264.951 869.738, 266.577 868.800 C 267.974 867.994, 285.013 866.022, 298.399 865.117 C 311.450 864.234, 313.709 863.098, 312.547 858 C 311.040 851.384, 310.039 842.844, 310.026 836.500 C 310.005 826.642, 307.838 808.642, 306.566 807.765 C 305.310 806.899, 299.087 806.994, 286 808.078 M 522.450 812.840 C 521.928 813.302, 519.925 814.286, 518 815.028 C 516.075 815.770, 513.150 817.361, 511.500 818.563 C 508.352 820.857, 501.143 823.390, 494.668 824.478 C 489.562 825.336, 478.298 830.782, 477.539 832.759 C 477.206 833.626, 476.665 836.912, 476.336 840.062 C 475.581 847.278, 476.880 848.294, 484.975 846.823 C 487.975 846.277, 492.020 846.044, 493.965 846.304 C 497.529 846.781, 505.190 845.557, 508.040 844.056 C 508.887 843.610, 512.487 842.933, 516.040 842.551 C 525.258 841.560, 525.644 841.368, 527.933 836.638 C 530.326 831.695, 530.556 827.269, 528.657 822.718 C 527.918 820.948, 526.998 817.813, 526.612 815.750 C 525.934 812.132, 524.436 811.084, 522.450 812.840 M 898.635 824.073 C 897.186 825.212, 896 827.056, 896 828.168 C 896 829.281, 895.130 831.413, 894.066 832.907 C 893.003 834.400, 891.828 836.836, 891.456 838.320 C 891.083 839.805, 890.351 841.283, 889.828 841.607 C 888.883 842.190, 887.124 846.043, 887.366 847 C 887.435 847.275, 886.481 848.919, 885.246 850.654 C 884.011 852.389, 883 854.397, 883 855.116 C 883 856.504, 874.962 873.154, 873.883 874 C 873.533 874.275, 872.036 877.533, 870.558 881.241 C 868.059 887.507, 867.890 890, 869.964 890 C 871.262 890, 875.655 882, 876.902 877.366 C 877.514 875.093, 878.630 872.722, 879.382 872.098 C 880.135 871.473, 881.028 869.229, 881.366 867.111 C 881.705 864.993, 882.661 862.696, 883.491 862.007 C 884.321 861.319, 885 859.937, 885 858.937 C 885 857.936, 885.430 856.852, 885.956 856.527 C 886.482 856.202, 886.672 855.310, 886.379 854.545 C 886.080 853.767, 886.761 852.663, 887.922 852.042 C 889.065 851.430, 890 850.337, 890 849.614 C 890 848.890, 891.125 846.182, 892.500 843.596 C 893.875 841.010, 895 838.278, 895 837.524 C 895 836.770, 896.112 834.831, 897.472 833.216 C 898.832 831.600, 899.683 830.016, 899.363 829.696 C 899.043 829.377, 899.731 827.782, 900.891 826.153 C 904.252 821.433, 903.211 820.473, 898.635 824.073 M 658.250 838.662 C 657.563 838.940, 657 840.235, 657 841.541 C 657 843.607, 657.877 844.177, 663.750 845.928 C 675.517 849.437, 679.688 855.641, 675.288 863.090 C 672.742 867.400, 668.339 867.874, 661.085 864.619 C 657.876 863.178, 654.640 862, 653.894 862 C 653.149 862, 650.280 861.128, 647.519 860.063 C 639.592 857.003, 638.555 856.670, 637.625 856.883 C 637.144 856.993, 635.982 856.388, 635.043 855.539 C 634.104 854.689, 630.673 853.522, 627.418 852.946 C 624.163 852.369, 619.475 851.273, 617 850.510 C 614.525 849.747, 609.269 848.646, 605.320 848.063 C 601.371 847.480, 596.954 846.553, 595.505 846.002 C 594.055 845.451, 591.624 845, 590.102 845 C 588.579 845, 587.019 844.685, 586.634 844.301 C 586.250 843.916, 583.901 843.727, 581.415 843.880 C 578.929 844.032, 576.268 843.637, 575.502 843.002 C 573.379 841.239, 556.122 840.532, 552.500 842.058 C 550.850 842.754, 549.167 843.252, 548.760 843.165 C 547.797 842.959, 543 850.560, 543 852.292 C 543 853.025, 543.878 855.442, 544.951 857.663 C 546.536 860.943, 548.272 862.425, 554.201 865.562 C 558.215 867.685, 561.950 869.454, 562.500 869.492 C 563.050 869.531, 565.300 870.389, 567.500 871.400 C 569.700 872.410, 573.975 873.830, 577 874.554 C 583.933 876.215, 591.479 878.679, 596 880.758 C 597.925 881.644, 599.800 882.398, 600.167 882.434 C 600.533 882.470, 601.171 882.837, 601.583 883.250 C 601.996 883.663, 604.621 884.003, 607.417 884.006 C 617.587 884.017, 623.701 887.380, 624.695 893.510 C 625.769 900.127, 622.662 903.087, 613.102 904.552 C 610.683 904.923, 607.198 905.855, 605.357 906.624 C 603.516 907.394, 601.857 907.905, 601.672 907.761 C 600.733 907.036, 593.463 914.713, 591.382 918.626 C 588.455 924.131, 588.393 927.114, 591.089 932.684 C 593.354 937.364, 594.404 937.806, 597.723 935.482 C 598.915 934.647, 600.252 934.044, 600.695 934.143 C 601.138 934.242, 602.850 933.759, 604.500 933.070 C 609.675 930.910, 616.681 932.364, 620.617 936.417 C 627.190 943.185, 623.944 949.632, 613.329 950.891 C 605.271 951.847, 597.671 956.817, 596.063 962.183 C 593.763 969.860, 597.055 979.616, 604.846 988.214 C 607.904 991.589, 609 990.999, 609 985.976 C 609 981.476, 610.420 980.331, 616.507 979.920 C 626.193 979.265, 628.837 979.858, 632.997 983.616 C 635.199 985.605, 637 987.611, 637 988.073 C 637 989.347, 644.044 996.608, 648 999.413 C 656.916 1005.733, 667.963 1009.584, 680.500 1010.743 C 683.250 1010.998, 686.022 1011.631, 686.661 1012.151 C 687.400 1012.754, 688.057 1012.716, 688.470 1012.049 C 688.826 1011.472, 690.779 1010.993, 692.809 1010.985 C 694.839 1010.977, 698.300 1010.321, 700.500 1009.529 C 702.700 1008.736, 706.596 1008.068, 709.158 1008.044 C 713.165 1008.006, 714.565 1008.594, 719.170 1012.250 C 726.225 1017.850, 730.736 1020.999, 731.710 1021.004 C 732.445 1021.007, 735.736 1023.018, 741.935 1027.252 C 743.346 1028.216, 746.067 1029.728, 747.983 1030.613 C 749.899 1031.498, 752.547 1033.072, 753.868 1034.111 C 755.189 1035.150, 757.061 1036, 758.028 1036 C 758.995 1036, 760.053 1036.695, 760.379 1037.545 C 760.705 1038.395, 762.666 1039.776, 764.736 1040.615 C 766.806 1041.453, 772.117 1043.908, 776.537 1046.070 C 780.958 1048.231, 785.345 1050, 786.287 1050 C 787.229 1050, 788 1050.460, 788 1051.021 C 788 1051.583, 789.237 1052.530, 790.750 1053.125 C 793.482 1054.200, 802.217 1058.205, 807 1060.577 C 808.375 1061.259, 811.191 1062.134, 813.259 1062.521 C 815.326 1062.909, 818.154 1064.120, 819.543 1065.212 C 822.067 1067.198, 827.201 1068.941, 838.500 1071.648 C 845.185 1073.250, 855.003 1076.097, 856.425 1076.847 C 856.933 1077.115, 859.929 1077.229, 863.081 1077.100 C 866.234 1076.971, 869.642 1077.316, 870.656 1077.867 C 877.594 1081.632, 897.371 1082.962, 910.209 1080.527 C 915.319 1079.557, 920.439 1078.331, 921.586 1077.801 C 922.734 1077.271, 924.309 1076.963, 925.086 1077.116 C 925.864 1077.270, 928.848 1076.182, 931.717 1074.698 C 934.586 1073.214, 937.454 1072, 938.090 1072 C 940.300 1072, 952.545 1062.553, 960.062 1055.049 C 969.735 1045.392, 981.541 1031.239, 983.556 1026.883 C 985.455 1022.776, 986.131 1021.651, 992.792 1011.527 C 995.677 1007.142, 999.016 1001.517, 1000.211 999.027 C 1001.407 996.537, 1002.949 994.050, 1003.639 993.500 C 1004.808 992.568, 1005.513 990.922, 1009.527 979.750 C 1010.367 977.413, 1011.436 974.600, 1011.903 973.500 C 1016.812 961.928, 1016.783 961.834, 1005.256 951.512 C 999.896 946.712, 993.309 941.597, 990.617 940.143 C 983.652 936.382, 982.238 935.516, 980.257 933.801 C 977.903 931.763, 957.332 922.005, 955 921.820 C 954.725 921.798, 953.375 920.992, 952 920.029 C 950.625 919.066, 947.025 917.695, 944 916.981 C 940.975 916.268, 937.150 915.139, 935.500 914.471 C 933.850 913.804, 930.067 912.950, 927.094 912.574 C 924.120 912.198, 920.295 911.155, 918.594 910.258 C 916.892 909.360, 914.240 908.746, 912.700 908.893 C 911.159 909.041, 909.359 908.733, 908.700 908.210 C 908.040 907.686, 903.079 906.946, 897.675 906.563 C 885.368 905.693, 884.373 906.251, 880.595 916.140 C 879.049 920.188, 877.162 924.686, 876.403 926.136 C 875.263 928.312, 875.251 928.964, 876.337 929.865 C 878.103 931.331, 885.121 934.318, 887.035 934.419 C 890.131 934.582, 900.813 942.241, 901.268 944.624 C 901.810 947.456, 897.900 953.579, 894.954 954.515 C 892.056 955.434, 883.400 954.111, 877.713 951.879 C 875.080 950.845, 871.622 950, 870.028 950 C 868.434 950, 866.088 949.604, 864.815 949.120 C 863.542 948.636, 862.232 948.298, 861.904 948.370 C 861.576 948.441, 860.676 947.980, 859.904 947.344 C 859.132 946.708, 856.250 945.854, 853.500 945.447 C 850.750 945.040, 845.576 943.873, 842.003 942.853 C 838.430 941.834, 834.005 941, 832.170 941 C 830.335 941, 825.383 940.139, 821.167 939.086 C 816.950 938.034, 811.025 936.862, 808 936.482 C 804.975 936.101, 801.150 934.982, 799.500 933.993 C 797.850 933.004, 793.309 931.708, 789.410 931.113 C 785.510 930.518, 780.785 929.405, 778.910 928.639 C 777.034 927.873, 773.250 926.950, 770.500 926.588 C 767.750 926.226, 763.925 925.308, 762 924.549 C 756.569 922.408, 754.584 921.706, 753.500 921.542 C 752.950 921.459, 751.375 920.910, 750 920.323 C 748.625 919.735, 745.925 918.928, 744 918.529 C 737.154 917.110, 733.373 912.844, 727.136 899.500 C 725.337 895.650, 723.444 891.825, 722.930 891 C 722.416 890.175, 721.534 888.425, 720.969 887.111 C 720.405 885.797, 718.831 883.400, 717.472 881.784 C 716.112 880.168, 715 878.261, 715 877.546 C 715 876.830, 714.255 875.627, 713.345 874.872 C 712.435 874.118, 711.079 872.038, 710.332 870.250 C 709.584 868.462, 708.560 867, 708.054 867 C 707.548 867, 706.849 866.100, 706.500 865 C 706.151 863.900, 705.379 863, 704.784 863 C 703.400 863, 697 856.445, 697 855.028 C 697 854.439, 695.763 853.414, 694.250 852.750 C 692.737 852.086, 688.575 849.524, 685 847.057 C 681.425 844.589, 678.275 842.604, 678 842.644 C 677.725 842.685, 676.543 842.091, 675.373 841.325 C 671.121 838.539, 662.051 837.128, 658.250 838.662 M 166 846.998 C 162.975 848.032, 159.600 848.920, 158.500 848.971 C 155.874 849.092, 151.542 852.974, 149.019 857.466 C 146.295 862.316, 146.273 871.655, 148.974 876.948 C 152.186 883.246, 152.553 888.220, 150.170 893.190 C 146.531 900.780, 145.826 903.368, 145.661 909.751 C 145.573 913.188, 145.727 916.001, 146.005 916.001 C 146.283 916, 147.026 917.462, 147.656 919.250 C 148.286 921.038, 149.523 924.425, 150.405 926.778 C 151.762 930.397, 151.834 932.117, 150.873 937.937 C 149.441 946.611, 149.979 948.654, 155.241 954.533 C 163.070 963.279, 164.040 965.552, 163.359 973.554 C 162.850 979.545, 163.082 981.241, 164.900 984.804 C 166.077 987.112, 167.512 989, 168.087 989 C 168.663 989, 170.700 990.195, 172.615 991.655 C 177.184 995.141, 184.287 995.519, 186.807 992.411 C 189.432 989.173, 194.914 985.753, 196.503 986.363 C 197.291 986.665, 198.202 986.482, 198.527 985.956 C 198.852 985.430, 200.554 984.993, 202.309 984.985 C 204.064 984.976, 205.995 984.639, 206.600 984.235 C 208.366 983.056, 210.371 978.710, 210.399 976 C 210.444 971.698, 198.578 968.766, 188.269 970.533 C 183.508 971.349, 178.485 969.776, 177.002 967.003 C 175.443 964.091, 177.024 958.157, 180.033 955.626 C 183.123 953.026, 192.628 950.792, 199.233 951.114 C 207.444 951.514, 210.308 949.048, 210.308 941.577 C 210.308 938.749, 209.772 937.293, 208.458 936.548 C 207.441 935.972, 205.736 934.735, 204.669 933.800 C 203.603 932.865, 201.394 931.806, 199.761 931.448 C 195.850 930.589, 187.081 931.727, 183.568 933.549 C 179.584 935.616, 175.508 935.347, 171.490 932.750 C 165.537 928.903, 165.673 925.011, 171.934 920.053 C 176.317 916.581, 186.044 914.015, 198.331 913.090 C 204.491 912.626, 206.465 912.086, 207.581 910.559 C 209.503 907.930, 209.373 902.516, 207.340 900.483 C 204.572 897.715, 198.157 894, 196.146 894 C 195.104 894, 192.314 893.317, 189.947 892.481 C 186.096 891.123, 185.090 891.123, 180.417 892.481 C 172.029 894.919, 167.648 894.508, 163.535 890.896 C 158.986 886.902, 159.004 884.109, 163.611 879.009 C 168.962 873.086, 181.638 869.950, 192.705 871.812 C 197.727 872.656, 198.018 872.576, 200.955 869.546 C 203.315 867.112, 204 865.507, 204 862.415 C 204 858.963, 203.342 857.776, 199.121 853.619 C 194.605 849.171, 193.656 848.709, 186.371 847.413 C 173.202 845.069, 171.730 845.039, 166 846.998 M 515.868 888.513 C 506.171 889.190, 496.046 890.222, 493.368 890.806 C 490.691 891.390, 485.203 892.129, 481.174 892.448 C 474.872 892.947, 473.284 893.481, 469.821 896.264 C 463.437 901.393, 461.857 905.765, 463.977 912.429 C 464.514 914.118, 465.658 926.300, 466.519 939.500 C 468.198 965.255, 468.790 971.644, 469.717 974 C 470.041 974.825, 470.350 975.985, 470.403 976.577 C 470.582 978.570, 476.332 986.913, 477.170 986.395 C 477.627 986.113, 478 986.296, 478 986.803 C 478 988.845, 488.348 989.761, 497 988.485 C 501.675 987.795, 505.725 987.145, 506 987.040 C 506.275 986.934, 509.566 986.914, 513.314 986.993 C 517.062 987.073, 520.707 986.658, 521.415 986.070 C 522.123 985.483, 524.906 984.754, 527.601 984.450 C 549.885 981.937, 551.852 981.272, 557.226 974.440 C 560.290 970.545, 560.634 961.892, 558.537 941.500 C 557.632 932.700, 556.478 921.450, 555.973 916.500 C 555.468 911.550, 555.042 905.018, 555.027 901.984 C 554.992 894.817, 552.428 889.901, 547.895 888.306 C 543.813 886.871, 538.927 886.903, 515.868 888.513 M 399.439 898.975 C 394.456 899.345, 389.951 899.912, 389.427 900.236 C 388.904 900.559, 383.982 901.110, 378.488 901.460 C 366.702 902.210, 365.528 902.505, 361.197 905.803 C 355.430 910.194, 354.792 913.240, 356.035 930.436 C 356.634 938.721, 357.355 946.175, 357.639 947 C 358.421 949.272, 360.974 976.735, 360.988 983.018 C 360.997 987.263, 361.585 989.396, 363.536 992.268 C 364.931 994.321, 366.731 996, 367.536 996 C 368.341 996, 369 996.450, 369 997 C 369 997.550, 369.675 998, 370.500 998 C 371.325 998, 372 998.450, 372 999 C 372 1000.164, 391.264 1000.403, 392.414 999.253 C 393.478 998.189, 408.425 996.093, 415.307 996.042 C 425.289 995.970, 444.291 992.742, 447.107 990.641 C 450.426 988.165, 453.237 980.528, 452.720 975.392 C 452.449 972.702, 451.713 964.650, 451.084 957.500 C 450.456 950.350, 449.446 940, 448.839 934.500 C 448.232 929, 447.420 920.811, 447.034 916.303 C 446.649 911.795, 445.753 907.408, 445.044 906.553 C 444.335 905.699, 444.123 905, 444.574 905 C 445.024 905, 443.866 903.425, 442 901.500 L 438.608 898 423.554 898.151 C 415.274 898.234, 404.423 898.604, 399.439 898.975 M 522.500 906.224 C 518.100 906.727, 513.671 907.587, 512.659 908.135 C 511.646 908.683, 507.933 909.027, 504.409 908.899 C 500.884 908.771, 497.700 908.967, 497.333 909.333 C 496.967 909.700, 493.907 910, 490.533 910 C 487.096 910, 483.872 910.528, 483.200 911.200 C 481.712 912.688, 481.630 916.653, 483.068 917.542 C 483.656 917.905, 483.916 918.777, 483.646 919.479 C 483.377 920.182, 483.578 921.178, 484.094 921.694 C 484.610 922.210, 485.502 929.127, 486.077 937.066 C 488.609 972.051, 488.223 969.461, 490.956 969.847 C 492.307 970.037, 495.007 969.718, 496.956 969.138 C 498.905 968.558, 509.500 967.585, 520.500 966.976 C 531.500 966.368, 540.843 965.534, 541.262 965.123 C 542.999 963.421, 538.108 912.257, 535.730 907.250 C 534.570 904.807, 534.765 904.822, 522.500 906.224 M 305 906.664 C 302.525 906.884, 299.825 907.348, 299 907.696 C 298.175 908.043, 297.275 908.405, 297 908.500 C 296.725 908.595, 295.825 908.923, 295 909.230 C 292.825 910.037, 271.264 912, 264.566 912 C 258.039 912, 251.870 914.989, 247.377 920.328 C 244.731 923.474, 244.722 923.540, 245.362 935.444 C 246.107 949.301, 247.980 965, 248.888 965 C 249.233 965, 249.353 967.036, 249.155 969.524 C 248.957 972.012, 249.263 974.612, 249.836 975.302 C 250.408 975.992, 251.168 980.143, 251.524 984.528 C 252.503 996.585, 254.339 1001.326, 259.745 1005.748 L 264.330 1009.500 275.415 1009.397 C 281.512 1009.340, 291.900 1008.541, 298.500 1007.620 C 305.100 1006.700, 315.804 1005.583, 322.286 1005.138 C 333.022 1004.400, 334.448 1004.067, 338.286 1001.395 C 340.604 999.782, 343.331 996.770, 344.347 994.700 C 345.966 991.404, 346.059 990.157, 345.097 984.637 C 344.494 981.172, 344 974.986, 344 970.892 C 344 963.301, 342.413 947.712, 341.364 945 C 341.045 944.175, 340.860 940.281, 340.954 936.348 C 341.053 932.191, 340.680 928.920, 340.062 928.539 C 339.478 928.177, 339 925.861, 339 923.391 C 339 918.004, 337.392 914.674, 332.532 910 C 328.908 906.514, 328.855 906.500, 319.197 906.382 C 313.863 906.317, 307.475 906.444, 305 906.664 M 409.500 917.051 C 402.900 917.445, 393.921 918.446, 389.548 919.275 C 385.174 920.104, 380.995 920.551, 380.260 920.270 C 379.526 919.988, 378.056 920.544, 376.993 921.506 C 375.239 923.094, 375.109 924.275, 375.581 934.377 C 376.245 948.578, 377.932 961.840, 379.173 962.607 C 379.703 962.935, 380.021 965.397, 379.879 968.078 C 379.736 970.760, 379.927 973.260, 380.301 973.635 C 380.676 974.009, 380.568 974.815, 380.062 975.426 C 379.475 976.132, 379.773 977.373, 380.882 978.844 L 382.624 981.153 398.062 979.509 C 406.553 978.605, 417.656 977.543, 422.735 977.148 C 427.814 976.753, 432.482 975.918, 433.109 975.291 C 434.464 973.936, 433.405 961.368, 431.855 960.410 C 431.311 960.074, 430.972 957.223, 431.100 954.075 C 431.229 950.926, 431.092 947.933, 430.796 947.425 C 430.500 946.916, 429.938 939.985, 429.547 932.022 C 429.156 924.059, 428.622 917.197, 428.359 916.772 C 428.097 916.347, 426.446 916.075, 424.691 916.167 C 422.936 916.259, 416.100 916.657, 409.500 917.051 M 297.500 927.711 C 295.300 927.917, 289.963 928.741, 285.640 929.543 C 281.316 930.344, 275.380 931, 272.449 931 C 269.517 931, 266.832 931.463, 266.483 932.028 C 266.133 932.593, 266.548 939.006, 267.404 946.278 C 269.627 965.147, 270.971 983.396, 270.321 985.880 C 269.195 990.185, 271.227 990.891, 283.312 990.396 C 299.382 989.738, 316.297 987.961, 317.745 986.780 C 318.429 986.221, 319.898 986.001, 321.008 986.292 C 322.282 986.625, 323.339 986.208, 323.875 985.160 C 324.909 983.140, 323.774 964.032, 321.356 942.750 L 319.567 927 310.533 927.168 C 305.565 927.261, 299.700 927.505, 297.500 927.711" stroke="none" fill="#171916" fill-rule="evenodd"/>
</svg>