<svg role="img" aria-labelledby="artwork-title" shape-rendering="geometricPrecision" xmlns="http://www.w3.org/2000/svg" width="1200" height="1200" viewBox="0 0 1200 1200" version="1.1">
	<title id="artwork-title">Mascot carrying a suitcase representing his journey</title>
	<path d="M 712.612 81.431 C 713.222 83.020, 707.683 84.985, 702.566 84.994 C 698.292 85.003, 690.665 88.539, 680.856 95.061 C 677.910 97.019, 674.771 98.895, 673.881 99.229 C 672.141 99.882, 664.403 111.038, 660.328 118.768 C 656.783 125.492, 656.449 125.699, 652.740 123.488 C 650.035 121.876, 647.682 121.570, 638.500 121.639 C 626.929 121.725, 619.509 123.543, 611.068 128.359 C 599.446 134.989, 590.086 148.665, 589.657 159.642 C 589.436 165.294, 588.595 167, 586.030 167 C 585.011 167, 581.655 167.966, 578.571 169.146 C 571.974 171.670, 560.691 181.916, 556.611 189.086 C 553.554 194.460, 549.997 207.562, 550.008 213.410 C 550.017 218.484, 553.312 229.582, 555.540 232.044 C 557.545 234.260, 556.861 235.432, 549.805 241.870 C 536.519 253.991, 531.716 273.276, 537.770 290.190 C 540.181 296.927, 543.541 301.780, 550.271 308.251 C 553.947 311.784, 555.026 313.450, 554.484 314.751 C 549.937 325.650, 552.476 338.581, 561.483 350.389 C 564.506 354.353, 564.506 354.388, 561.075 367 C 556.349 384.371, 560.330 405.208, 571.048 419.203 C 576.848 426.775, 583.364 433.037, 588.500 435.973 C 594.287 439.281, 604.424 443, 607.656 443 C 608.880 443, 610.160 443.450, 610.500 444 C 611.326 445.337, 616 445.285, 616 443.940 C 616 443.327, 617.572 443.010, 619.726 443.190 C 623.206 443.480, 623.672 443.928, 626.798 450 C 628.638 453.575, 631.323 457.740, 632.765 459.257 C 636.951 463.657, 635.089 464.329, 619.299 464.120 C 598.493 463.843, 584.897 465.556, 575 469.699 C 574.175 470.045, 573.275 470.379, 573 470.442 C 572.725 470.505, 569.309 472.249, 565.409 474.319 C 554.046 480.347, 541.696 493.695, 535.235 506.932 C 533.203 511.094, 531.137 514.787, 530.642 515.138 C 530.148 515.489, 530.029 516.238, 530.378 516.803 C 530.727 517.367, 530.599 517.980, 530.095 518.165 C 529.590 518.349, 528.315 521.167, 527.262 524.426 C 525.440 530.067, 524.948 530.629, 517.054 536.080 C 512.492 539.229, 506.338 544.197, 503.380 547.119 C 498.628 551.811, 498 552.906, 498 556.493 C 498 560.665, 495.811 564.993, 493.693 565.009 C 493.037 565.013, 490.915 566.476, 488.978 568.259 C 487.041 570.041, 481.641 574.867, 476.978 578.982 C 463.626 590.766, 452.702 602.012, 448.690 608.104 C 446.661 611.185, 445 614.063, 445 614.497 C 445 614.932, 442.816 618.935, 440.147 623.394 C 437.478 627.852, 434.087 634.650, 432.611 638.500 C 431.136 642.350, 429.187 647.075, 428.280 649 C 427.374 650.925, 426.583 652.725, 426.524 653 C 426.464 653.275, 425.422 655.695, 424.208 658.377 C 422.994 661.060, 421.990 663.985, 421.978 664.877 C 421.966 665.770, 421.048 668.502, 419.938 670.950 C 418.827 673.397, 417.499 677.275, 416.985 679.568 C 416.471 681.861, 415.501 685.034, 414.830 686.619 C 414.158 688.203, 413.573 689.950, 413.528 690.500 C 413.484 691.050, 413.143 691.985, 412.771 692.577 C 412.400 693.170, 411.316 697.670, 410.363 702.577 C 408.670 711.292, 408.486 711.652, 402.487 718 C 395.387 725.513, 392.980 728.832, 388.876 736.764 C 383.019 748.088, 381.699 754.111, 381.595 770 C 381.500 784.451, 381.510 784.515, 384.456 789 C 387.456 793.568, 388.061 795.698, 386.871 797.500 C 386.508 798.050, 384.830 803, 383.142 808.500 C 378.796 822.663, 375.217 833.017, 374.205 834.354 C 373.178 835.711, 369.813 845.261, 367.636 853 C 364.877 862.804, 367.559 862.060, 332.967 862.616 C 305.434 863.058, 301.826 863.313, 295.500 865.261 C 291.650 866.446, 286.933 868.448, 285.018 869.708 C 283.103 870.969, 281.262 872, 280.928 872 C 280.087 872, 268 884.159, 268 885.005 C 268 885.382, 267.151 886.459, 266.113 887.398 C 265.075 888.337, 263.020 891.894, 261.546 895.303 C 260.072 898.711, 258.032 903.075, 257.012 905 C 255.171 908.476, 254.182 911.066, 249.566 924.500 C 248.244 928.350, 246.600 932.850, 245.915 934.500 C 245.229 936.150, 244.591 937.725, 244.497 938 C 244.404 938.275, 244.029 939.175, 243.664 940 C 242.535 942.553, 238.047 956.078, 235.368 965 C 233.964 969.675, 232.352 974.063, 231.785 974.750 C 231.219 975.437, 231.046 976, 231.401 976 C 231.756 976, 231.384 977.013, 230.574 978.250 C 229.764 979.487, 228.434 982.975, 227.618 986 C 224.987 995.750, 219.823 1011.467, 218.863 1012.645 C 218.350 1013.274, 218.018 1014.174, 218.126 1014.645 C 218.235 1015.115, 217.781 1016.817, 217.119 1018.427 C 215.593 1022.137, 208.656 1047.494, 207.316 1054.262 C 207.016 1055.781, 206.371 1057.271, 205.885 1057.571 C 204.647 1058.336, 204.757 1073, 206 1073 C 206.550 1073, 207 1073.873, 207 1074.941 C 207 1076.009, 207.450 1077.160, 208 1077.500 C 208.550 1077.840, 209 1078.914, 209 1079.888 C 209 1080.861, 210.406 1083.779, 212.124 1086.373 C 214.998 1090.712, 215.177 1091.465, 214.372 1095.794 C 212.940 1103.488, 213.634 1105.499, 219.878 1111.749 C 223.038 1114.912, 226.365 1118.063, 227.270 1118.750 C 228.561 1119.730, 250.259 1120, 327.912 1120 L 426.909 1120 429.205 1117.689 C 432.668 1114.201, 437 1107.597, 437 1105.803 C 437 1104.929, 437.650 1103.965, 438.444 1103.660 C 439.238 1103.355, 440.419 1101.169, 441.067 1098.803 C 441.716 1096.436, 443.048 1092.700, 444.027 1090.500 C 445.007 1088.300, 446.707 1084.475, 447.806 1082 C 448.905 1079.525, 450.102 1076.069, 450.466 1074.319 C 450.831 1072.570, 451.771 1070.605, 452.557 1069.953 C 453.343 1069.301, 454.465 1066.907, 455.051 1064.634 C 455.638 1062.360, 456.718 1059.150, 457.453 1057.500 C 458.188 1055.850, 459.088 1053.081, 459.453 1051.348 C 459.817 1049.614, 460.990 1046.481, 462.058 1044.386 C 463.126 1042.291, 464 1039.579, 464 1038.360 C 464 1037.141, 464.605 1035.538, 465.345 1034.798 C 466.976 1033.166, 470.690 1023.500, 472.556 1016.030 C 473.307 1013.022, 474.586 1009.197, 475.397 1007.530 C 477.237 1003.751, 478.363 1000.802, 478.462 999.499 C 478.504 998.948, 479.317 997.385, 480.269 996.026 C 481.221 994.667, 482 992.505, 482 991.223 C 482 989.940, 482.867 986.987, 483.927 984.660 C 484.987 982.334, 486.155 979.096, 486.523 977.465 C 486.891 975.834, 488.303 972.225, 489.661 969.445 C 491.019 966.664, 492.008 963.964, 491.859 963.445 C 491.711 962.925, 492.387 961, 493.363 959.168 C 494.338 957.335, 495.828 951.501, 496.673 946.204 C 499.321 929.609, 496.591 919.806, 485.618 906.510 C 480.198 899.942, 475.927 895.653, 472.703 893.541 C 469.344 891.340, 468.455 888.489, 470.258 885.701 C 471.041 884.490, 472.673 880.214, 473.886 876.197 C 475.098 872.181, 476.594 867.681, 477.211 866.197 C 477.828 864.714, 478.389 863.275, 478.458 863 C 478.527 862.725, 479.288 861.150, 480.149 859.500 C 481.010 857.850, 482 855.002, 482.348 853.170 C 482.697 851.339, 483.622 848.414, 484.404 846.670 C 485.186 844.927, 486.803 840.237, 487.996 836.250 C 489.190 832.263, 490.606 829, 491.142 829 C 491.679 829, 491.885 828.623, 491.600 828.161 C 491.315 827.700, 492.751 826.381, 494.791 825.230 C 499.604 822.514, 505.413 816.478, 504.553 815.086 C 504.184 814.489, 504.246 814, 504.691 814 C 505.136 814, 506.341 811.371, 507.367 808.157 C 508.828 803.586, 509.087 800.810, 508.555 795.407 C 507.969 789.446, 508.242 787.417, 510.549 780.590 C 512.765 774.032, 513.109 771.681, 512.561 766.840 C 511.748 759.652, 512.800 759.355, 518.029 765.296 C 521.288 768.998, 533.029 778, 534.598 778 C 534.893 778, 536.691 779.188, 538.594 780.639 C 540.497 782.091, 542.329 783.004, 542.664 782.669 C 543 782.334, 544.507 782.937, 546.014 784.010 C 550.194 786.986, 564.767 790, 574.980 790 C 580.672 790, 584.141 790.420, 584.601 791.164 C 584.997 791.804, 585.472 795.567, 585.656 799.525 C 586.219 811.612, 592.421 836.513, 595.691 839.820 C 596.409 840.546, 597.289 842.346, 597.647 843.820 C 598.570 847.628, 602.732 855.505, 607.515 862.500 C 609.772 865.800, 612.804 870.563, 614.254 873.084 C 615.703 875.605, 618.714 879.316, 620.945 881.331 C 623.175 883.346, 625 885.264, 625 885.594 C 625 886.211, 634.750 897.583, 638.750 901.632 C 641.565 904.481, 641.554 904.852, 638.500 910.596 C 637.125 913.182, 636 916.104, 636 917.090 C 636 918.076, 635.521 919.178, 634.935 919.540 C 634.349 919.902, 633.990 921.391, 634.138 922.849 C 634.423 925.674, 630.340 933.478, 626.991 936.508 C 625.896 937.499, 625 938.603, 625 938.962 C 625 939.320, 622.975 941.788, 620.500 944.445 C 618.025 947.103, 616 949.798, 616 950.435 C 616 951.071, 613.541 954.213, 610.536 957.417 C 607.531 960.620, 604.301 964.424, 603.358 965.871 C 600.911 969.624, 583.583 991.248, 576.811 999 C 569.945 1006.859, 568 1010.226, 568 1014.248 C 568 1017.901, 567.326 1018.854, 558.969 1027.030 C 551.683 1034.158, 542.722 1044.968, 543.042 1046.242 C 543.078 1046.384, 542.408 1048.173, 541.553 1050.218 C 539.540 1055.037, 539.585 1059.804, 541.689 1064.628 C 542.618 1066.758, 543.407 1068.725, 543.443 1069 C 543.478 1069.275, 545.629 1073.100, 548.222 1077.500 C 552.440 1084.659, 558.062 1091.848, 567.231 1101.811 C 568.907 1103.632, 571.044 1106.557, 571.979 1108.311 C 572.915 1110.065, 574.736 1113.412, 576.026 1115.750 L 578.371 1120 604.686 1120 C 619.158 1120, 631 1119.605, 631 1119.122 C 631 1117.611, 628.571 1116.140, 624.461 1115.163 C 611.705 1112.132, 609.409 1108.190, 618.750 1105.361 C 621.913 1104.404, 625.282 1102.966, 626.239 1102.165 C 627.769 1100.885, 635.860 1099.019, 647.119 1097.351 C 649.875 1096.943, 652.196 1097.538, 656.842 1099.843 C 663.544 1103.168, 670 1107.920, 670 1109.527 C 670 1110.092, 671.350 1111.739, 673 1113.187 C 674.650 1114.635, 676 1116.760, 676 1117.910 C 676 1119.885, 676.529 1120, 685.579 1120 L 695.159 1120 694.446 1116.750 C 694.054 1114.963, 692.893 1111.932, 691.867 1110.015 C 690.840 1108.098, 690 1106.058, 690 1105.483 C 690 1104.907, 687.979 1102.650, 685.508 1100.468 C 683.037 1098.286, 681.012 1096.050, 681.008 1095.500 C 680.999 1094.419, 674.623 1089.017, 673.303 1088.973 C 672.862 1088.958, 670.925 1087.631, 669 1086.024 C 664.835 1082.548, 665.390 1080.706, 671.588 1077.435 C 673.860 1076.236, 676.412 1073.748, 677.675 1071.500 C 680.264 1066.896, 686.090 1060.099, 687.500 1060.039 C 688.050 1060.016, 690.188 1058.203, 692.251 1056.010 C 694.314 1053.818, 697.691 1050.957, 699.756 1049.654 C 701.821 1048.350, 705.195 1045.420, 707.253 1043.142 C 709.311 1040.864, 711.195 1039, 711.439 1039 C 712.463 1039, 722 1029.202, 722 1028.150 C 722 1027.517, 722.563 1026.990, 723.250 1026.977 C 724.685 1026.950, 734.305 1016.377, 735.285 1013.750 C 735.708 1012.615, 736.996 1012, 738.950 1012 C 741.374 1012, 742.092 1012.517, 742.627 1014.651 C 743.372 1017.618, 745.317 1020.862, 752.250 1030.703 C 754.862 1034.411, 757 1037.965, 757 1038.600 C 757 1039.235, 757.631 1040.279, 758.402 1040.919 C 759.173 1041.558, 760.108 1043.301, 760.480 1044.791 C 760.852 1046.281, 762.246 1048.932, 763.578 1050.683 C 764.910 1052.434, 766 1054.286, 766 1054.798 C 766 1055.311, 766.872 1056.839, 767.938 1058.194 C 769.004 1059.549, 770.173 1061.841, 770.536 1063.288 C 770.899 1064.734, 771.827 1066.442, 772.598 1067.081 C 773.369 1067.721, 774 1069.110, 774 1070.168 C 774 1071.226, 775.032 1073.122, 776.292 1074.383 C 777.553 1075.644, 780.789 1081.058, 783.483 1086.415 C 786.178 1091.773, 789.494 1097.030, 790.854 1098.100 C 793.326 1100.044, 794.360 1100.383, 801.108 1101.461 L 804.715 1102.037 806.003 1111.019 L 807.290 1120 854.088 1120 L 900.887 1120 902.514 1117.250 C 903.465 1115.644, 906.674 1113.272, 910.232 1111.547 C 921.711 1105.981, 953.381 1078.264, 964.024 1064.469 C 968.877 1058.178, 973.221 1050.167, 972.453 1048.924 C 972.139 1048.416, 972.359 1048, 972.941 1048 C 973.558 1048, 974 1045.704, 974 1042.500 C 974 1039.296, 973.558 1037, 972.941 1037 C 972.359 1037, 972.154 1036.560, 972.486 1036.022 C 973.177 1034.905, 967.089 1024.898, 963.143 1020.665 C 960.343 1017.663, 952.461 1012, 951.080 1012 C 950.629 1012, 947.443 1011.100, 944 1010 C 936.045 1007.459, 928.471 1007.466, 918.438 1010.024 C 910.508 1012.047, 903.033 1014.982, 903.011 1016.083 C 903.005 1016.403, 901.998 1016.592, 900.774 1016.502 C 899.177 1016.384, 898.379 1015.513, 897.948 1013.419 C 897.618 1011.814, 896.723 1009.375, 895.959 1008 C 895.196 1006.625, 894.536 1005.275, 894.493 1005 C 894.451 1004.725, 893.427 1002.317, 892.219 999.648 C 891.011 996.979, 889.534 992.982, 888.937 990.765 C 888.340 988.549, 887.456 986.007, 886.971 985.118 C 886.187 983.677, 881.946 974.274, 881.505 973 C 881.410 972.725, 880.790 971.150, 880.127 969.500 C 879.464 967.850, 877.943 964.025, 876.747 961 C 875.552 957.975, 873.995 954.612, 873.287 953.527 C 872.579 952.443, 872 950.618, 872 949.474 C 872 948.329, 870.916 945.167, 869.592 942.446 C 864.724 932.448, 862 926.281, 862 925.260 C 862 924.684, 860.447 921.578, 858.550 918.357 C 856.652 915.135, 854.253 910.925, 853.217 909 C 845.876 895.351, 843.430 891.158, 841.358 888.673 C 838.608 885.377, 838.398 882.378, 840.553 877.218 C 841.408 875.173, 842.121 873.275, 842.138 873 C 842.156 872.725, 842.548 872.045, 843.010 871.488 C 843.472 870.931, 844.523 867.781, 845.346 864.488 C 846.169 861.195, 847.811 855.125, 848.995 851 C 850.179 846.875, 851.834 840.125, 852.672 836 C 853.511 831.875, 854.451 827.825, 854.762 827 C 855.073 826.175, 855.404 825.275, 855.497 825 C 855.591 824.725, 856.147 823.352, 856.734 821.949 C 857.320 820.545, 858.294 815.595, 858.899 810.949 C 859.504 806.302, 860.418 799.360, 860.931 795.523 C 861.460 791.558, 862.403 788.366, 863.115 788.128 C 863.803 787.899, 865.833 786.110, 867.625 784.154 C 871.497 779.928, 871.576 779.342, 872.871 745 C 873.745 721.820, 874.680 716, 877.526 716 C 878.608 716, 883.742 719.476, 885 721.061 C 885.692 721.932, 897.622 730.229, 900.307 731.706 C 902.641 732.989, 908.430 735.598, 916.341 738.929 C 919.004 740.051, 924.756 741.266, 929.123 741.631 C 933.490 741.995, 937.300 742.677, 937.590 743.146 C 938.277 744.257, 942.726 744.253, 943.413 743.141 C 943.705 742.669, 946.476 741.984, 949.572 741.621 C 952.667 741.257, 957.155 740.068, 959.545 738.980 C 961.935 737.891, 964.164 737, 964.498 737 C 964.833 737, 966.725 735.900, 968.703 734.556 C 978.390 727.973, 988.038 715.635, 990.455 706.738 C 991.237 703.857, 992.355 699.928, 992.939 698.007 C 993.522 696.085, 994 688.138, 994 680.346 C 994 669.002, 993.604 664.915, 992.013 659.839 C 990.920 656.353, 990.020 652.808, 990.013 651.961 C 990.006 651.115, 989.181 648.865, 988.179 646.961 C 983.279 637.646, 978.637 629.350, 977.571 628 C 976.920 627.175, 975.859 625.263, 975.215 623.750 C 974.570 622.237, 973.557 621, 972.962 621 C 972.368 621, 972.160 620.550, 972.500 620 C 972.840 619.450, 972.627 619, 972.028 619 C 971.428 619, 970.640 618.212, 970.278 617.250 C 969.915 616.288, 967.883 613.295, 965.762 610.601 C 962.519 606.480, 962.011 605.210, 962.563 602.601 C 964.025 595.693, 963.426 594.490, 952.250 581.904 C 946.337 575.245, 939.784 567.705, 937.686 565.148 C 929.953 555.724, 907.220 533.681, 898 526.665 C 888.764 519.638, 880.427 514.965, 874.687 513.600 C 872.349 513.043, 871.927 512.476, 872.187 510.238 C 872.371 508.655, 873.424 507.088, 874.743 506.434 C 875.977 505.823, 877.812 504.575, 878.822 503.661 C 879.831 502.748, 880.978 502, 881.369 502 C 884.481 502, 896.620 490.571, 899.520 484.910 C 900.813 482.385, 903.394 478.983, 905.255 477.349 C 908.367 474.617, 913 466.816, 913 464.309 C 913 462.680, 918.004 451.691, 919.516 450 C 920.254 449.175, 920.947 448.050, 921.056 447.500 C 921.165 446.950, 921.385 446.050, 921.544 445.500 C 921.976 444.010, 923.062 433.714, 923.894 423.223 C 924.629 413.946, 924.629 413.945, 929.154 409.223 C 934.989 403.134, 937.778 398.165, 940.226 389.500 C 943.684 377.260, 942.209 359.478, 937.265 353.803 C 936.104 352.471, 935.936 350.611, 936.484 345.158 C 937.326 336.776, 936.544 334.989, 930.482 331.436 C 925.792 328.688, 924.824 326.221, 927.547 323.961 C 931.710 320.506, 935.657 307.142, 933 305.500 C 930.765 304.119, 932.284 300.676, 937.312 295.728 C 944.567 288.588, 947.929 283.214, 948.872 277.247 C 949.885 270.840, 948.537 259.394, 946.534 257.391 C 945.690 256.548, 945 255.476, 945 255.010 C 945 254.545, 944.738 253.482, 944.418 252.648 C 944.064 251.725, 945.362 249.444, 947.737 246.816 C 953.183 240.787, 955.528 237.139, 956.937 232.500 C 957.605 230.300, 958.416 227.825, 958.740 227 C 959.063 226.175, 959.366 225.200, 959.414 224.833 C 959.461 224.467, 959.837 223.829, 960.250 223.417 C 961.379 222.287, 961.151 211.211, 959.984 210.490 C 959.425 210.144, 959.238 209.423, 959.570 208.887 C 959.901 208.351, 959.735 207.370, 959.202 206.706 C 958.668 206.043, 957.899 203.925, 957.493 202 C 955.062 190.477, 943.848 178.301, 933.122 175.536 L 928.500 174.345 928.819 165.922 C 929.177 156.492, 926.840 147.029, 922.185 139.065 C 919.113 133.809, 907.582 122, 905.520 122 C 904.727 122, 903.210 121.069, 902.149 119.930 C 899.993 117.616, 888.426 114.178, 879.971 113.340 C 876.332 112.979, 872.593 113.340, 869.039 114.396 C 861.533 116.625, 859.130 116.472, 858.076 113.699 C 856.556 109.702, 850.930 102.017, 845.562 96.606 C 839.466 90.461, 832.328 86.224, 826.603 85.351 C 821.408 84.559, 819 83.328, 819 81.465 C 819 80.243, 816.507 80, 804 80 C 791.493 80, 789 80.243, 789 81.465 C 789 83.256, 785.946 85, 782.808 85 C 779.700 85, 771.559 89.417, 765.936 94.155 C 763.425 96.270, 760.894 98, 760.311 98 C 759.728 98, 757.507 96.394, 755.376 94.431 C 750.055 89.531, 740.666 85.227, 733.634 84.464 C 729.009 83.962, 727.662 83.422, 727.267 81.914 C 726.832 80.248, 725.815 80, 719.415 80 C 713.449 80, 712.166 80.270, 712.612 81.431 M 795 99.928 C 786.196 101.188, 775.557 107.051, 771.078 113.108 C 768.520 116.568, 770.383 117.137, 774 114 C 775.268 112.900, 776.857 112, 777.531 112 C 778.204 112, 779.291 111.354, 779.947 110.564 C 780.602 109.775, 782.570 108.823, 784.319 108.449 C 786.069 108.075, 788.132 107.259, 788.904 106.635 C 789.676 106.011, 790.351 105.644, 790.404 105.820 C 790.457 105.996, 791.767 105.659, 793.315 105.070 C 798.118 103.244, 811.707 103.731, 815.864 105.878 C 817.864 106.911, 820.625 108.291, 822 108.945 C 830.715 113.089, 836.522 117.641, 839.006 122.272 C 841.353 126.648, 842.665 126.682, 842.576 122.365 C 842.465 116.989, 830.873 105.452, 822.409 102.294 C 815.704 99.793, 803.376 98.728, 795 99.928 M 706.500 102.419 C 702.650 103.747, 697.329 106.108, 694.677 107.667 C 692.024 109.225, 688.969 111, 687.889 111.611 C 684.744 113.390, 681 117.234, 681 118.684 C 681 119.419, 680.100 120.790, 679 121.732 C 677.900 122.674, 677 123.985, 677 124.646 C 677 125.306, 675.875 127.184, 674.500 128.818 C 671.780 132.051, 671.109 137, 673.392 137 C 674.157 137, 675.084 135.801, 675.452 134.335 C 676.321 130.874, 679.176 127.026, 686.207 119.843 C 692.236 113.683, 700.447 109.152, 707.228 108.243 C 709.329 107.961, 711.289 107.341, 711.583 106.865 C 712.278 105.742, 725.718 105.734, 726.412 106.857 C 726.703 107.328, 729.317 107.983, 732.221 108.312 C 737.856 108.951, 746.194 112.562, 748.251 115.255 C 748.938 116.155, 750.706 117.181, 752.180 117.536 C 754.536 118.104, 754.794 117.929, 754.314 116.091 C 754.013 114.941, 753.199 114, 752.506 114 C 751.812 114, 750.675 113.313, 749.978 112.473 C 746.991 108.874, 738.991 104.577, 732 102.816 C 719.790 99.741, 714.502 99.659, 706.500 102.419 M 863.250 132.674 C 862.013 133.538, 861 134.894, 861 135.689 C 861 136.764, 861.577 136.925, 863.250 136.317 C 864.487 135.868, 869.100 135.553, 873.500 135.618 C 884.105 135.774, 890.670 138.724, 898.993 147.073 C 904.081 152.176, 908.166 158.192, 906.820 158.596 C 906.166 158.793, 909.278 162, 910.122 162 C 910.605 162, 911 160.034, 911 157.631 C 911 154.043, 910.290 152.370, 907.031 148.277 C 902.763 142.916, 894.877 136, 893.032 136 C 892.410 136, 890.461 135.231, 888.700 134.292 C 886.940 133.352, 885.200 132.565, 884.833 132.542 C 884.467 132.519, 883.829 132.162, 883.417 131.750 C 881.933 130.266, 865.631 131.013, 863.250 132.674 M 629.286 139.983 C 621.290 141.692, 608.600 153.283, 608.600 158.879 C 608.600 162.171, 610.752 162.782, 611.882 159.811 C 613.032 156.786, 620.798 149, 622.665 149 C 623.452 149, 625.087 147.942, 626.298 146.649 C 629.455 143.278, 639.420 141.562, 648.528 142.821 C 655.768 143.821, 658.762 143.014, 655.093 141.050 C 652.312 139.562, 634.670 138.832, 629.286 139.983 M 577.779 189.850 C 575.406 192.037, 572.846 195.537, 572.090 197.627 C 571.335 199.717, 570.105 202.038, 569.358 202.785 C 567.563 204.580, 567.625 210.122, 569.468 212.559 C 570.841 214.373, 570.938 214.382, 570.968 212.687 C 570.996 211.099, 574.388 203.651, 578.560 196.017 C 579.306 194.651, 580.696 192.964, 581.649 192.267 C 582.603 191.570, 582.959 190.993, 582.441 190.985 C 581.924 190.977, 582.575 190.415, 583.888 189.735 C 586.938 188.157, 587.119 186.588, 584.297 186.187 C 582.837 185.979, 580.636 187.216, 577.779 189.850 M 923.943 191.035 C 922.894 191.684, 923.172 192.115, 925.120 192.855 C 931.034 195.104, 938.473 205.237, 939.482 212.419 C 940.217 217.651, 941.955 217.143, 941.985 211.688 C 942.032 202.961, 928.925 187.956, 923.943 191.035 M 762.038 212.448 C 759.825 215.445, 756.857 218.707, 755.444 219.698 C 754.031 220.689, 751.579 222.531, 749.995 223.791 C 748.411 225.050, 743.826 227.300, 739.807 228.791 C 733.441 231.151, 731.080 231.493, 721.469 231.445 C 712.081 231.399, 709.733 231.049, 705.699 229.096 C 699.648 226.167, 698 226.777, 698 231.948 C 698 237.516, 694.213 248.619, 690.478 254 C 684.316 262.878, 671.299 270.921, 662.913 271.032 C 658.132 271.095, 657.128 272.901, 658.192 279.525 C 658.720 282.811, 658.980 290.675, 658.771 297 C 658.368 309.162, 657.028 313.353, 651.316 320.327 C 649.439 322.618, 649 324.348, 649 329.454 C 649 333.290, 649.489 336.150, 650.250 336.765 C 651.096 337.449, 655.540 337.344, 664 336.443 C 670.875 335.710, 678.782 335.363, 681.572 335.672 L 686.644 336.234 690.879 330.914 C 693.209 327.989, 696.882 324.591, 699.042 323.364 C 703.157 321.027, 714.648 318.341, 726.500 316.947 C 736.042 315.825, 760.701 315.838, 765 316.968 C 770.930 318.526, 778.339 321.115, 781.827 322.847 C 785.032 324.440, 793.438 332.733, 795.500 336.338 C 796.445 337.990, 796.824 337.974, 802.407 336.043 C 809.383 333.630, 817.648 333.408, 822.654 335.500 C 827.981 337.725, 828.746 337.478, 834.437 331.695 C 842.281 323.725, 847.120 321.293, 858.115 319.795 C 868.648 318.361, 872.634 318.341, 888.779 319.640 C 895.201 320.156, 900.728 320.172, 901.614 319.677 C 902.970 318.917, 903.078 316.671, 902.457 302.153 C 902.066 292.994, 900.954 280.896, 899.987 275.268 C 898.286 265.366, 898.063 264.845, 893.114 259.132 C 890.301 255.885, 887.985 252.840, 887.966 252.364 C 887.947 251.889, 887.063 249.700, 886 247.500 C 884.937 245.300, 884.053 241.839, 884.034 239.809 C 884.015 237.779, 883.438 235.764, 882.750 235.331 C 882.063 234.899, 877.900 234.535, 873.500 234.522 C 862.995 234.493, 855.146 231.556, 847.604 224.835 C 844.544 222.108, 842.127 219.567, 842.233 219.188 C 842.339 218.810, 841.863 217.488, 841.177 216.250 C 839.681 213.551, 836.904 213.344, 834.711 215.767 C 833.831 216.739, 829.824 218.597, 825.806 219.896 C 821.788 221.195, 817.694 222.665, 816.709 223.163 C 815.724 223.660, 814.518 223.820, 814.028 223.518 C 813.539 223.215, 812.856 223.425, 812.510 223.984 C 811.732 225.243, 804.325 225.335, 803.558 224.094 C 803.250 223.596, 802.096 223.424, 800.994 223.712 C 799.891 224, 798.429 223.795, 797.745 223.257 C 797.060 222.718, 794.925 222.027, 793 221.720 C 786.183 220.634, 774.408 214.238, 770.965 209.750 C 769.804 208.238, 768.227 207, 767.459 207 C 766.691 207, 764.252 209.452, 762.038 212.448 M 739.500 286.732 C 738.400 286.944, 736.825 287.383, 736 287.707 C 735.175 288.032, 733.600 288.215, 732.500 288.114 C 731.400 288.013, 728.140 289.071, 725.255 290.465 C 722.370 291.859, 719.559 293, 719.008 293 C 718.457 293, 716.204 294.627, 714.003 296.616 C 710.708 299.593, 710 300.886, 710 303.925 C 710 305.956, 710.590 308.424, 711.311 309.410 C 713.450 312.336, 720.694 312.546, 731.063 309.985 C 739.162 307.983, 741.660 307.800, 752.577 308.407 C 762.899 308.980, 765.320 308.836, 767.310 307.532 C 773.182 303.685, 772.914 296.794, 766.686 291.463 C 764.458 289.556, 762.155 288.068, 761.568 288.156 C 760.980 288.244, 759.825 288.056, 759 287.738 C 757.075 286.997, 742.127 286.225, 739.500 286.732 M 856.500 292.053 C 849.123 294.352, 846 297.599, 846 302.967 C 846 306.040, 846.621 307.345, 849.061 309.398 C 852.032 311.898, 852.421 311.956, 862.311 311.393 C 871.908 310.846, 872.790 310.962, 877.500 313.402 C 882.677 316.083, 887 316.784, 887 314.941 C 887 314.359, 887.450 314.160, 888 314.500 C 888.550 314.840, 889 314.641, 889 314.059 C 889 313.477, 889.605 313, 890.345 313 C 892.496 313, 895 309.577, 895 306.636 C 895 300.806, 889.102 295.873, 877.729 292.192 C 869.648 289.576, 864.552 289.543, 856.500 292.053 M 758 335.320 C 758 336.046, 759.931 338.408, 762.290 340.570 C 768.638 346.384, 773.491 352.888, 775.509 358.284 C 777.676 364.079, 779.396 363.912, 779.797 357.868 C 780.038 354.233, 779.569 352.707, 777.297 349.737 C 775.759 347.727, 773.375 344.501, 772 342.569 C 770.625 340.636, 769.115 339.043, 768.644 339.028 C 768.174 339.012, 766.452 337.875, 764.818 336.500 C 761.616 333.806, 758 333.180, 758 335.320 M 893.335 338.569 C 892.939 339.601, 894.125 341.399, 896.795 343.819 C 903.072 349.507, 908.725 358.668, 907.664 361.433 C 907.333 362.295, 907.525 363, 908.090 363 C 908.662 363, 908.772 363.554, 908.337 364.250 C 907.039 366.328, 907.116 367.852, 908.583 369.069 C 910.205 370.415, 910.513 369.785, 911.429 363.244 C 912.048 358.829, 910.385 350, 908.935 350 C 908.479 350, 906.514 347.600, 904.567 344.667 C 900.132 337.985, 894.692 335.032, 893.335 338.569 M 597 354.044 C 596.175 354.504, 594.236 355.148, 592.691 355.474 C 588.474 356.365, 581.527 363.347, 578.990 369.244 C 577.046 373.764, 576.814 375.686, 577.217 383.971 C 577.514 390.096, 578.273 394.643, 579.340 396.700 C 580.253 398.461, 581.008 400.711, 581.018 401.700 C 581.059 405.709, 593.723 418.913, 600.479 421.991 C 606.273 424.630, 616.159 425.591, 621.794 424.063 C 626.806 422.705, 629.201 419.153, 627.232 416 C 625.820 413.739, 625.817 391.354, 627.229 388.632 C 628.188 386.781, 627.525 384.528, 623.215 375 C 622.344 373.075, 621.563 371.275, 621.480 371 C 620.805 368.784, 619.275 366.004, 617.242 363.299 C 614.680 359.889, 605.998 355, 602.504 355 C 601.347 355, 599.972 354.597, 599.450 354.104 C 598.926 353.609, 597.827 353.583, 597 354.044 M 811.500 354 C 811.160 354.550, 808.970 355, 806.632 355 C 800.418 355, 798.703 356.684, 798.416 363.063 C 797.939 373.686, 789.743 391.745, 782.116 398.981 C 768.546 411.854, 749.226 416.691, 728.499 412.405 C 717.656 410.162, 711.697 406.818, 702.939 398.061 C 694.682 389.803, 690.830 383.313, 689.024 374.618 C 688.387 371.547, 687.438 368.771, 686.916 368.448 C 686.394 368.126, 686.207 367.474, 686.500 367 C 686.793 366.526, 686.575 365.856, 686.016 365.510 C 685.457 365.165, 685 363.389, 685 361.563 C 685 356.017, 683.862 355.707, 665.472 356.246 C 656.377 356.513, 648.641 357.026, 648.281 357.386 C 647.300 358.367, 647.210 362, 648.167 362 C 649.762 362, 649.057 373.095, 647.270 376.120 C 646.082 378.132, 645.847 379.463, 646.520 380.374 C 651.813 387.540, 653 390.209, 653 394.945 C 653 399.099, 653.375 400.126, 655.250 401.106 C 659.106 403.121, 662.916 408.282, 662.959 411.550 C 663.005 414.939, 664.550 417, 667.045 417 C 669.271 417, 672 420.178, 672 422.770 C 672 423.931, 672.462 425.167, 673.027 425.516 C 673.591 425.865, 673.929 426.904, 673.777 427.825 C 673.547 429.216, 674.401 429.500, 678.810 429.500 C 683.657 429.500, 684.374 429.805, 687.033 433 C 688.635 434.925, 689.958 437.197, 689.973 438.050 C 690.018 440.638, 692.067 442.035, 694.167 440.911 C 696.338 439.749, 702.686 440.710, 703.761 442.363 C 704.167 442.989, 704.950 444.807, 705.500 446.404 C 706.931 450.559, 709.395 451.857, 711.770 449.708 C 712.808 448.769, 714.534 448, 715.606 448 C 718.463 448, 722 450.814, 722 453.088 C 722 455.936, 724.524 456.490, 729.174 454.664 C 732.781 453.247, 733.551 453.234, 736.087 454.545 C 737.657 455.357, 739.458 456.988, 740.091 458.170 C 741.666 461.114, 742.592 459.170, 743.267 451.500 C 743.928 443.989, 747.372 437.068, 753.720 430.500 C 759.309 424.716, 765.860 420, 768.304 420 C 769.237 420, 770 419.523, 770 418.941 C 770 418.359, 770.450 418.160, 771 418.500 C 771.550 418.840, 772 418.659, 772 418.098 C 772 416.667, 781.512 414, 786.613 414 C 790.222 414, 791.196 413.534, 793.064 410.910 C 795.044 408.129, 795.677 407.866, 799.382 408.287 C 801.647 408.544, 805.300 409.464, 807.500 410.333 C 815.631 413.543, 822.712 412.454, 832.817 406.437 C 836.245 404.396, 837.430 404.112, 838.567 405.056 C 839.355 405.710, 840 405.895, 840 405.467 C 840 405.040, 840.900 405.505, 842 406.500 C 843.246 407.628, 844 409.580, 844 411.680 C 844 414.582, 844.394 415.129, 846.838 415.618 C 853.477 416.945, 867 430.046, 867 435.150 C 867 436.168, 867.498 437, 868.107 437 C 868.716 437, 868.955 437.675, 868.638 438.500 C 868.322 439.325, 868.441 440, 868.903 440 C 869.364 440, 870.041 442.250, 870.406 445 C 871.172 450.776, 872.712 451.371, 875.268 446.881 C 876.668 444.421, 877.547 443.871, 879.487 444.242 C 881.352 444.599, 882.838 443.791, 885.718 440.854 C 887.798 438.733, 891.130 436.546, 893.123 435.995 C 896.298 435.115, 896.821 434.520, 897.356 431.176 C 897.751 428.708, 899.023 426.419, 900.961 424.692 C 902.608 423.225, 904.162 421.006, 904.414 419.762 C 905.355 415.112, 905.894 406.887, 905.350 405.469 C 904.706 403.792, 902 403.458, 902 405.055 C 902 405.636, 899.638 407.185, 896.750 408.497 C 884.858 413.903, 866.058 414.447, 855.750 409.684 C 852.587 408.223, 850 406.609, 850 406.099 C 850 405.588, 847.738 403.510, 844.972 401.480 C 842.207 399.450, 839.057 396.037, 837.972 393.895 C 836.888 391.753, 835.048 388.087, 833.885 385.750 C 832.722 383.413, 831.128 380.769, 830.344 379.875 C 829.559 378.981, 829.019 377.856, 829.144 377.375 C 829.269 376.894, 828.583 374.700, 827.620 372.500 C 826.656 370.300, 825.611 366.250, 825.296 363.500 C 824.459 356.178, 823.589 355, 819.024 355 C 816.876 355, 814.840 354.550, 814.500 354 C 814.160 353.450, 813.485 353, 813 353 C 812.515 353, 811.840 353.450, 811.500 354 M 810 441.500 C 808.377 442.428, 804.451 442.942, 798.809 442.965 C 785.835 443.017, 785.991 445.855, 799.120 448.592 C 804.845 449.786, 808.336 449.919, 814.980 449.197 C 830.597 447.501, 836.452 442.554, 822.958 442.457 C 819.689 442.434, 816.471 441.871, 815.807 441.207 C 814.268 439.668, 813.102 439.727, 810 441.500 M 842.074 445.411 C 841.234 446.424, 841.213 447.013, 842 447.500 C 842.694 447.929, 842.755 448.604, 842.164 449.339 C 841.651 449.978, 840.933 451.893, 840.570 453.596 C 839.716 457.596, 835.391 460.749, 828.198 462.615 C 825.064 463.428, 821.889 464.699, 821.142 465.440 C 820 466.573, 820.238 467.005, 822.642 468.153 C 824.474 469.029, 825.600 470.413, 825.780 472.009 C 826.654 479.783, 827.267 480.118, 835.572 477.367 C 841.639 475.357, 845.400 471.973, 848.570 465.668 C 852.158 458.533, 851.919 452.117, 847.896 447.535 C 844.449 443.609, 843.774 443.362, 842.074 445.411 M 771.205 448.250 C 768.455 450.996, 763.804 458, 764.730 458 C 765.099 458, 764.860 458.540, 764.200 459.200 C 763.540 459.860, 763 461.795, 763 463.500 C 763 465.205, 763.540 467.140, 764.200 467.800 C 764.860 468.460, 765.069 469, 764.664 469 C 763.070 469, 768.904 476.148, 772.804 478.973 C 776.701 481.796, 777.393 481.949, 784.831 481.629 C 794.018 481.234, 794.345 481.091, 795.971 476.771 C 798.276 470.646, 799.336 469, 800.978 469 C 801.880 469, 803.466 468.379, 804.504 467.621 C 806.237 466.354, 806.029 466.182, 801.945 465.507 C 799.500 465.103, 795.700 464.197, 793.500 463.496 C 791.300 462.794, 788.271 461.939, 786.768 461.595 C 785.266 461.252, 782.415 459.547, 780.432 457.806 C 777.176 454.947, 776.860 454.223, 777.171 450.321 C 777.472 446.534, 777.264 446, 775.486 446 C 774.371 446, 772.444 447.012, 771.205 448.250 M 614.238 485 C 614.625 487.005, 621.500 487.104, 621.500 485.105 C 621.500 484.177, 620.237 483.675, 617.724 483.605 C 614.871 483.526, 614.019 483.866, 614.238 485 M 570.727 491 C 569.329 492.100, 567.837 493, 567.413 493 C 566.032 493, 559.911 500.305, 560.209 501.597 C 560.373 502.303, 563.194 500.364, 566.641 497.177 C 570.018 494.055, 573.618 490.964, 574.641 490.309 C 576.209 489.304, 576.247 489.108, 574.885 489.059 C 573.997 489.026, 572.126 489.900, 570.727 491 M 640.504 504.875 C 639.406 505.328, 636.594 505.483, 634.254 505.219 C 628.928 504.619, 628.766 505.891, 633.500 511.132 C 635.425 513.262, 637 515.624, 637 516.380 C 637 517.137, 637.628 518.276, 638.395 518.913 C 639.163 519.550, 640.083 521.629, 640.440 523.533 C 640.797 525.437, 642.190 529.359, 643.535 532.247 C 644.893 535.165, 645.985 539.363, 645.990 541.691 C 645.996 543.996, 646.492 546.186, 647.094 546.558 C 647.696 546.930, 647.981 548.317, 647.728 549.641 C 647.475 550.965, 647.658 552.289, 648.134 552.583 C 649.173 553.225, 649.312 586.355, 648.280 587.387 C 647.884 587.783, 647.693 589.658, 647.856 591.554 C 648.020 593.449, 647.737 595, 647.228 595 C 646.719 595, 645.758 598.938, 645.091 603.750 C 644.424 608.563, 643.244 614.525, 642.468 617 C 637.211 633.774, 635.849 637.370, 633.868 639.707 C 633.033 640.693, 631.103 644.200, 629.581 647.500 C 624.582 658.336, 621.678 663.423, 617.310 669 C 614.940 672.025, 613.001 674.837, 613.001 675.250 C 612.999 676.679, 615.905 675.992, 616.827 674.345 C 617.452 673.227, 619.170 672.660, 622.126 672.595 C 626.460 672.501, 626.501 672.532, 626.588 676 C 626.636 677.925, 626.751 679.950, 626.843 680.500 C 627.043 681.689, 634.449 673.754, 638 668.547 C 639.375 666.530, 640.950 664.339, 641.500 663.677 C 644.135 660.506, 649 653.066, 649 652.209 C 649 651.679, 649.646 650.709, 650.436 650.053 C 651.225 649.398, 652.151 647.590, 652.492 646.035 C 652.834 644.480, 653.988 642.416, 655.057 641.449 C 656.126 640.481, 657 639.025, 657 638.213 C 657 637.401, 658.007 635.108, 659.237 633.118 C 662.070 628.536, 664.873 620.902, 666.023 614.634 C 666.514 611.958, 667.719 607.458, 668.701 604.634 C 671.291 597.180, 671.395 546.472, 668.831 540.821 C 667.913 538.798, 666.848 534.630, 666.464 531.558 C 666.080 528.486, 664.919 524.895, 663.883 523.578 C 662.847 522.262, 662 520.865, 662 520.474 C 662 520.084, 660.634 518.130, 658.965 516.132 C 654.243 510.480, 654 510.141, 654 509.197 C 654 506.051, 644.795 503.103, 640.504 504.875 M 639.950 510.632 C 638.685 513.960, 639.491 516.484, 643.354 521.291 C 645.898 524.456, 646.856 525.002, 648.952 524.476 C 652.012 523.708, 652.965 522.364, 652.985 518.785 C 653.001 515.924, 647.455 508.601, 645.968 509.520 C 645.512 509.802, 644.856 509.575, 644.510 509.016 C 643.347 507.134, 640.958 507.980, 639.950 510.632 M 699.333 516.588 C 699.333 517.462, 700.383 518.575, 701.667 519.063 C 702.950 519.551, 704 520.583, 704 521.357 C 704 522.664, 710.048 528, 711.529 528 C 711.893 528, 716.085 530.602, 720.845 533.781 C 731.152 540.666, 732.774 541.359, 744.694 543.968 C 764.739 548.354, 776.422 547.578, 790.507 540.923 C 797.458 537.639, 799 535.910, 797.060 533.572 C 796.176 532.508, 795.125 532.398, 792.698 533.118 C 785.719 535.188, 757.768 532.516, 738.500 527.937 C 733.550 526.761, 727.251 525.403, 724.502 524.920 C 721.753 524.437, 719.053 523.432, 718.502 522.687 C 717.951 521.941, 716.165 520.999, 714.532 520.592 C 712.900 520.185, 709.257 518.761, 706.436 517.426 C 700.413 514.577, 699.333 514.450, 699.333 516.588 M 847.450 524.923 C 846.928 525.431, 845.150 525.993, 843.500 526.173 C 841.283 526.415, 840.500 527.019, 840.500 528.486 C 840.500 530.999, 843.501 531.642, 845.570 529.573 C 848.113 527.029, 851.380 527.675, 854.059 531.250 C 857.494 535.835, 860.334 541.902, 860.963 546 C 861.656 550.520, 864.375 550.784, 864.804 546.374 C 865.007 544.293, 864.255 541.991, 862.554 539.485 C 861.149 537.415, 860 535.109, 860 534.360 C 860 533.612, 859.325 533, 858.500 533 C 857.675 533, 857 532.190, 857 531.200 C 857 530.210, 856.460 528.860, 855.800 528.200 C 855.140 527.540, 855.028 526.997, 855.550 526.994 C 856.072 526.990, 855.211 526.315, 853.636 525.494 C 850.329 523.769, 848.784 523.627, 847.450 524.923 M 649.701 533.632 C 649.316 534.018, 649 535.865, 649 537.736 C 649 540.650, 649.309 541.093, 651.148 540.820 C 654.140 540.374, 655.809 537.506, 654.388 535.250 C 653.185 533.341, 650.812 532.521, 649.701 533.632 M 861.135 567.467 C 859.285 568.310, 856.983 569, 856.020 569 C 852.810 569, 849 572.901, 849 576.188 L 849 579.230 854.750 578.365 C 863.664 577.024, 876.546 577.379, 878.524 579.020 C 879.453 579.791, 881.178 580.900, 882.357 581.484 C 885.067 582.828, 885.920 589.991, 883.599 591.918 C 882.771 592.605, 877.035 593.560, 870.799 594.049 C 850.286 595.659, 846.072 597.473, 846.022 604.715 C 845.991 609.177, 848.255 610.181, 855.624 608.974 C 858.856 608.445, 864.488 608.009, 868.139 608.006 C 875.810 607.999, 878.636 609.645, 879.609 614.684 C 880.105 617.252, 879.727 618.364, 877.657 620.434 C 875.354 622.737, 874.315 623, 867.513 623 C 859.124 623, 854.705 624.435, 851.118 628.326 C 849.082 630.535, 848.807 631.641, 849.223 635.965 C 849.499 638.840, 850.485 641.878, 851.509 643.010 C 853.513 645.224, 856.978 645.688, 857.041 643.750 C 857.063 643.063, 858.405 640.951, 860.023 639.059 C 862.690 635.940, 863.444 635.625, 868.083 635.695 C 870.995 635.739, 873.772 636.360, 874.527 637.136 C 876.754 639.426, 877.698 645.107, 876.628 649.781 C 875.700 653.840, 875.817 654.279, 878.570 657.030 C 880.657 659.115, 883.514 660.439, 888.500 661.630 C 900.497 664.495, 904.098 669.551, 899.099 676.512 C 897.394 678.885, 896 681.557, 896 682.449 C 896 684.347, 898.889 689.147, 900.726 690.300 C 901.427 690.740, 902 691.593, 902 692.196 C 902 692.799, 903.547 695.623, 905.437 698.471 C 910.086 705.476, 910.787 708.509, 908.088 709.953 C 905.336 711.426, 905.452 713.137, 908.500 716 C 909.875 717.292, 911 718.035, 911 717.651 C 911 717.268, 912.025 717.625, 913.277 718.446 C 921.332 723.723, 940.394 726.942, 947.694 724.257 C 949.237 723.689, 952.348 722.725, 954.606 722.115 C 965.251 719.240, 973.239 706.921, 975.459 689.956 C 976.211 684.205, 976.667 678.375, 976.472 677 C 974.752 664.895, 973.571 658.853, 972.837 658.399 C 972.359 658.104, 972.195 657.494, 972.473 657.044 C 972.751 656.595, 972.308 655.671, 971.489 654.991 C 970.670 654.311, 970 653.248, 970 652.628 C 970.001 651.418, 964.158 639.391, 962.500 637.189 C 961.950 636.459, 960.463 634.890, 959.196 633.703 C 957.929 632.516, 955.628 629.492, 954.084 626.982 C 952.540 624.473, 950.645 621.763, 949.874 620.960 C 949.102 620.157, 946.977 617.587, 945.152 615.250 C 943.326 612.913, 941.273 611, 940.590 611 C 939.120 611, 935 615.177, 935 616.667 C 935 617.238, 938.825 620.538, 943.500 624 C 948.175 627.462, 952 630.648, 952 631.080 C 952 631.512, 952.810 632.122, 953.801 632.437 C 955.690 633.036, 958 638.159, 958 641.750 C 958 644.718, 955.367 647, 951.944 647 C 948.907 647, 939.912 642.039, 937.729 639.161 C 936.387 637.392, 934.633 636.180, 928.935 633.085 C 919.745 628.093, 916.949 622.623, 915.093 606 C 914.571 601.325, 913.464 596.191, 912.633 594.591 C 911.802 592.990, 910.830 589.953, 910.473 587.841 C 910.116 585.728, 909.484 584, 909.069 584 C 908.653 584, 906.799 581.781, 904.948 579.070 C 903.098 576.358, 901.228 574.359, 900.792 574.629 C 900.356 574.898, 900 574.663, 900 574.106 C 900 573.549, 898.475 572.370, 896.611 571.486 C 886.984 566.917, 867.247 564.682, 861.135 567.467 M 509.166 576.106 C 508.557 577.081, 506.507 578.615, 504.610 579.515 C 497.462 582.907, 473.114 605.020, 467.740 613 C 466.814 614.375, 464.475 617.750, 462.543 620.500 C 460.611 623.250, 458.987 626.175, 458.934 627 C 458.881 627.825, 457.333 631.200, 455.494 634.500 C 450.160 644.074, 446.001 652.674, 445.993 654.143 C 445.990 654.889, 445.093 656.850, 444 658.500 C 442.907 660.150, 442.010 662.179, 442.007 663.008 C 442.003 663.837, 440.936 666.537, 439.636 669.008 C 438.336 671.479, 436.967 675.181, 436.593 677.236 C 436.220 679.291, 435.044 682.891, 433.979 685.236 C 432.915 687.581, 432.034 690.641, 432.022 692.035 C 432.010 693.429, 431.100 697.130, 430 700.260 C 428.900 703.389, 428 707.686, 428 709.808 C 428 711.930, 427.663 714.004, 427.250 714.417 C 426.837 714.829, 426.470 715.467, 426.434 715.833 C 426.249 717.713, 422.258 722.873, 418.791 725.715 C 413.158 730.332, 406.259 739.029, 404.616 743.584 C 403.839 745.738, 402.635 748.850, 401.941 750.500 C 401.247 752.150, 400.788 754.136, 400.921 754.914 C 401.054 755.691, 400.584 757.408, 399.878 758.729 C 398.823 760.700, 398.831 761.277, 399.924 761.953 C 400.657 762.406, 400.947 763.277, 400.569 763.888 C 400.191 764.500, 400.260 765, 400.723 765 C 401.185 765, 402.145 767.138, 402.857 769.750 C 403.568 772.362, 404.582 775.568, 405.110 776.873 C 406.004 779.085, 406.192 779.136, 407.864 777.623 C 409.960 775.726, 416.066 775.466, 417.800 777.200 C 418.460 777.860, 419 780.298, 419 782.618 C 419 787.126, 419.757 790, 420.944 790 C 421.346 790, 423.567 788.200, 425.879 786 C 429.805 782.266, 434 780.716, 434 783 C 434 783.550, 434.642 784, 435.427 784 C 438.120 784, 441 789.014, 441 793.701 C 441 798.853, 442.232 801.635, 445.878 804.714 C 451.112 809.134, 458.571 806.743, 456.147 801.423 C 453.290 795.152, 455.937 784.516, 461.853 778.500 C 467.085 773.180, 473.924 769, 477.398 769 C 478.732 769, 481.663 770.871, 484.446 773.500 C 492.310 780.929, 495.477 779.291, 494.405 768.351 C 493.653 760.689, 489.672 750.992, 485.136 745.777 C 479.615 739.429, 478.954 732.757, 483.078 725 C 484.102 723.075, 486.091 718.827, 487.499 715.559 C 488.907 712.292, 491.567 707.342, 493.411 704.559 C 495.255 701.777, 498.279 696.575, 500.132 693 C 501.984 689.425, 503.840 686.349, 504.256 686.165 C 504.672 685.980, 504.758 685.418, 504.447 684.915 C 504.136 684.412, 504.323 684, 504.861 684 C 505.400 684, 507.541 680.606, 509.619 676.458 C 511.697 672.309, 513.983 668.429, 514.699 667.835 C 515.414 667.241, 516 666.297, 516 665.737 C 516 663.672, 523.216 655.339, 526.565 653.535 C 529.592 651.905, 530.339 651.843, 532.576 653.041 C 534.762 654.210, 535.263 654.198, 536.050 652.954 C 536.556 652.154, 536.976 651.938, 536.985 652.473 C 536.993 653.007, 537.701 652.445, 538.557 651.223 C 539.413 650, 540.581 649, 541.152 649 C 541.724 649, 543.498 648.069, 545.096 646.932 C 548.644 644.405, 548.823 641.296, 545.783 635 C 544.588 632.525, 543.577 630.046, 543.536 629.492 C 543.496 628.938, 542.514 626.913, 541.356 624.992 C 540.198 623.071, 538.022 618.350, 536.520 614.500 C 535.019 610.650, 532.859 606.487, 531.721 605.250 C 530.583 604.013, 529.927 603, 530.265 603 C 530.602 603, 529.102 600.188, 526.932 596.750 C 524.762 593.313, 522.436 589.375, 521.764 588 C 521.092 586.625, 519.965 585.137, 519.259 584.694 C 518.554 584.250, 516.887 581.738, 515.556 579.110 C 513.012 574.090, 511.012 573.150, 509.166 576.106 M 651.975 612.565 C 650.455 616.565, 650.794 617.949, 653.610 619.232 C 655.850 620.253, 656.416 620.152, 657.610 618.519 C 660.282 614.864, 659.002 610, 655.368 610 C 653.693 610, 652.651 610.788, 651.975 612.565 M 642.634 630.664 C 640.635 633.229, 639 635.874, 639 636.542 C 639 637.209, 638.325 638.315, 637.500 639 C 636.518 639.815, 636 642.044, 636 645.453 C 636 650.073, 636.301 650.823, 638.664 652.081 C 640.744 653.189, 641.419 653.226, 641.747 652.250 C 641.978 651.563, 642.804 651, 643.583 651 C 644.362 651, 645 650.602, 645 650.117 C 645 649.631, 645.839 649.014, 646.865 648.746 C 648.833 648.231, 653 637.711, 653 633.258 C 653 631.128, 648.752 626, 646.988 626 C 646.592 626, 644.632 628.099, 642.634 630.664 M 629.073 661.635 C 627.908 663.115, 627 665.745, 627 667.635 C 627 671.497, 626.911 671.446, 630.442 669.615 C 636.943 666.242, 638 659, 631.991 659 C 631.526 659, 630.212 660.186, 629.073 661.635 M 614.912 689.934 C 613.226 691.620, 611.222 693, 610.458 693 C 609.695 693, 608.635 693.788, 608.103 694.750 C 607.570 695.712, 605.089 697.850, 602.589 699.500 C 600.089 701.150, 598.034 703.063, 598.022 703.750 C 597.988 705.671, 599.482 705.245, 602.156 702.571 C 603.492 701.235, 605.787 699.840, 607.257 699.472 C 608.726 699.103, 611.754 696.821, 613.985 694.401 C 616.216 691.980, 618.482 690, 619.021 690 C 620.303 690, 620.282 688.292, 618.989 687.493 C 618.433 687.149, 616.598 688.248, 614.912 689.934 M 586.500 698 C 585.684 699.320, 586.880 701.192, 588.069 700.457 C 589.284 699.707, 589.276 697, 588.059 697 C 587.541 697, 586.840 697.450, 586.500 698 M 519.667 699.667 C 518.671 700.663, 518.862 708, 519.883 708 C 520.895 708, 521.966 704.561, 521.986 701.250 C 522 699.042, 520.985 698.349, 519.667 699.667 M 584.459 706.045 C 583.465 707.144, 582.602 709.158, 582.542 710.522 C 582.384 714.136, 586.519 713.799, 592.028 709.750 L 596.449 706.500 592.475 705.965 C 590.289 705.671, 587.998 705.119, 587.384 704.739 C 586.770 704.358, 585.454 704.946, 584.459 706.045 M 416.200 814.200 C 415.540 814.860, 415 816.183, 415 817.141 C 415 818.099, 414.543 819.165, 413.984 819.510 C 413.425 819.856, 413.218 820.544, 413.525 821.041 C 413.832 821.537, 413.415 822.969, 412.599 824.222 C 411.006 826.668, 405.014 843.906, 404.978 846.148 C 404.966 846.891, 404.003 849.525, 402.838 852 C 398.057 862.160, 398.966 863, 414.753 863 L 427.261 863 434.133 866.712 C 440.127 869.950, 441.182 870.237, 442.393 868.962 C 443.156 868.158, 445.457 862.100, 447.507 855.500 C 449.556 848.900, 451.633 843.349, 452.122 843.165 C 452.612 842.980, 452.732 842.375, 452.388 841.819 C 451.796 840.862, 452.173 839.786, 455.701 832.365 C 458.144 827.225, 457.219 825.487, 452.231 825.847 C 447.245 826.207, 438.540 823.567, 436.751 821.152 C 434.644 818.310, 429.749 815.571, 424.500 814.298 C 418.142 812.755, 417.650 812.750, 416.200 814.200 M 335 880.726 C 334.175 880.881, 325.625 881.371, 316 881.815 C 298.608 882.618, 298.469 882.642, 293.500 885.828 C 290.750 887.591, 286.653 891.033, 284.396 893.476 C 280.360 897.844, 274 909.581, 274 912.660 C 274 913.523, 272.890 916.315, 271.533 918.865 C 269.119 923.400, 267.318 927.978, 264.410 936.968 C 263.615 939.425, 262.523 941.877, 261.982 942.418 C 261.442 942.958, 261 943.999, 261 944.732 C 261 945.465, 260.253 947.737, 259.340 949.782 C 258.428 951.827, 257.602 953.725, 257.507 954 C 257.411 954.275, 256.808 955.767, 256.166 957.315 C 255.525 958.863, 255 960.736, 255 961.476 C 255 962.216, 254.129 965.225, 253.065 968.161 C 252.001 971.097, 249.940 977.550, 248.487 982.500 C 247.033 987.450, 245.235 992.642, 244.491 994.037 C 243.747 995.433, 242.464 999.258, 241.641 1002.537 C 240.086 1008.728, 238.075 1015.288, 235.369 1023 C 234.500 1025.475, 233.563 1028.963, 233.285 1030.750 C 233.008 1032.537, 232.354 1034, 231.832 1034 C 231.309 1034, 231.191 1034.500, 231.569 1035.112 C 231.947 1035.723, 231.703 1036.566, 231.027 1036.984 C 230.350 1037.401, 229.183 1040.164, 228.433 1043.122 C 227.682 1046.080, 226.349 1050.975, 225.470 1054 C 222.483 1064.279, 225.435 1078.500, 230.556 1078.500 C 232.247 1078.500, 232.565 1077.595, 233 1071.545 C 233.335 1066.885, 233.070 1063.760, 232.197 1062.078 C 231.274 1060.299, 231.186 1058.974, 231.897 1057.533 C 233.532 1054.217, 236 1046.079, 236 1044.003 C 236 1042.942, 236.874 1039.696, 237.942 1036.788 C 239.010 1033.879, 240.626 1028.575, 241.534 1025 C 242.441 1021.425, 243.794 1017.375, 244.540 1016 C 245.286 1014.625, 246.551 1011.250, 247.352 1008.500 C 248.153 1005.750, 249.802 1001.025, 251.016 998 C 252.231 994.975, 254.072 990.073, 255.108 987.108 C 256.144 984.142, 257.384 981.217, 257.864 980.608 C 259.091 979.048, 262.949 968.451, 264.456 962.500 C 266.380 954.897, 269.381 946.587, 270.500 945.765 C 271.167 945.276, 271.167 945.020, 270.500 945 C 269.919 944.982, 269.962 944.662, 270.602 944.235 C 272.581 942.915, 280 925.083, 280 921.647 C 280 919.656, 281.009 916.916, 282.484 914.898 C 283.851 913.029, 285.816 909.700, 286.852 907.500 C 290.056 900.698, 293.527 898, 299.077 898 C 301.720 898, 304.183 897.513, 304.551 896.917 C 304.919 896.322, 307.083 894.968, 309.360 893.910 C 311.637 892.851, 315.975 890.621, 319 888.954 C 323.268 886.602, 325.559 885.974, 329.227 886.152 C 331.826 886.277, 334.264 886.070, 334.643 885.690 C 335.023 885.311, 339.497 885, 344.585 885 C 354.975 885, 357 884.527, 357 882.101 C 357 880.630, 355.699 880.418, 346.750 880.430 C 341.113 880.438, 335.825 880.571, 335 880.726 M 393.104 880.914 C 392.337 881.400, 391.985 882.519, 392.323 883.399 C 392.854 884.782, 395.312 885, 410.410 885 C 420.019 885, 428.125 884.607, 428.422 884.126 C 428.719 883.646, 426.353 882.521, 423.165 881.626 C 416.847 879.853, 395.575 879.350, 393.104 880.914 M 336.500 903.704 C 327.420 904.539, 321.777 906.069, 318.471 908.590 C 316.562 910.046, 315 911.645, 315 912.143 C 315 912.642, 313.005 914.896, 310.566 917.153 C 307.206 920.262, 305.967 922.254, 305.446 925.378 C 305.069 927.645, 303.914 931.170, 302.880 933.210 C 301.846 935.251, 301 937.631, 301 938.500 C 301 939.369, 300.009 941.974, 298.798 944.290 C 297.587 946.605, 296.702 948.885, 296.833 949.355 C 296.963 949.826, 296.655 950.726, 296.147 951.355 C 295.639 951.985, 294.292 955.819, 293.153 959.875 C 292.015 963.932, 290.483 967.982, 289.750 968.875 C 289.016 969.769, 287.575 973.087, 286.546 976.250 C 285.517 979.413, 284.312 982, 283.869 982 C 283.426 982, 283.283 982.575, 283.553 983.278 C 283.823 983.981, 282.749 987.243, 281.167 990.528 C 279.584 993.813, 277.961 998.284, 277.559 1000.465 C 277.157 1002.646, 276.252 1005.571, 275.548 1006.965 C 274.844 1008.359, 273.970 1011.142, 273.607 1013.150 C 273.244 1015.157, 272.289 1017.345, 271.485 1018.013 C 270.680 1018.680, 270.249 1019.595, 270.527 1020.044 C 270.805 1020.494, 270.575 1021.144, 270.016 1021.490 C 269.457 1021.835, 269 1023.783, 269 1025.817 C 269 1027.851, 267.875 1031.629, 266.500 1034.212 C 265.125 1036.795, 264 1040.270, 264 1041.934 C 264 1043.598, 263.364 1046.656, 262.587 1048.730 C 261.810 1050.803, 260.937 1054.192, 260.648 1056.260 C 260.359 1058.327, 259.216 1061.293, 258.107 1062.850 C 255.314 1066.773, 252.227 1075.372, 251.051 1082.506 C 250.508 1085.803, 249.779 1089.923, 249.431 1091.663 C 248.882 1094.410, 249.354 1095.429, 253.027 1099.413 C 255.352 1101.936, 257.808 1104, 258.485 1104 C 259.689 1104, 263.299 1091.690, 264.498 1083.500 C 265.007 1080.026, 265.968 1076.994, 269.569 1067.500 C 269.986 1066.400, 270.407 1065.275, 270.504 1065 C 270.601 1064.725, 271.428 1062.827, 272.340 1060.782 C 273.253 1058.737, 274 1056.437, 274 1055.670 C 274 1054.904, 275.350 1051.299, 277 1047.660 C 278.650 1044.021, 280 1039.895, 280 1038.490 C 280 1037.085, 280.747 1034.263, 281.660 1032.218 C 282.572 1030.173, 283.379 1028.275, 283.452 1028 C 283.524 1027.725, 284.352 1026.060, 285.292 1024.300 C 286.231 1022.540, 287.491 1018.715, 288.092 1015.800 C 289.273 1010.065, 293.279 998.175, 295.211 994.672 C 295.869 993.477, 296.454 992.050, 296.511 991.500 C 296.568 990.950, 296.914 989.825, 297.281 989 C 298.320 986.662, 303.916 971.149, 306.094 964.567 C 307.175 961.304, 308.550 958.042, 309.152 957.317 C 309.753 956.593, 309.910 956, 309.500 956 C 309.090 956, 309.263 955.389, 309.883 954.641 C 310.503 953.894, 311.859 950.817, 312.895 947.804 C 315.560 940.059, 317.571 936.432, 323.392 928.876 C 329.402 921.075, 331.861 919.412, 342.392 916.033 C 351.715 913.041, 352.725 911.892, 350.555 906.750 C 348.841 902.687, 348.459 902.604, 336.500 903.704 M 385.131 906.503 C 383.257 908.638, 382.343 910.595, 382.658 911.799 C 383.099 913.486, 384.405 913.769, 393.829 914.221 C 399.698 914.502, 406.075 914.636, 408 914.517 C 409.925 914.399, 414.686 914.234, 418.581 914.151 C 425.057 914.013, 425.778 913.784, 427.015 911.473 C 427.968 909.691, 428.092 908.169, 427.434 906.311 L 426.500 903.677 407.302 903.397 L 388.104 903.118 385.131 906.503 M 460.665 912.174 C 459.812 915.436, 460.634 916, 466.246 916 L 471.374 916 468.500 913 C 465.070 909.419, 461.484 909.041, 460.665 912.174 M 687.574 926.983 C 689.733 929.174, 692.010 930.974, 692.633 930.983 C 693.257 930.992, 694.002 931.900, 694.290 933 C 694.761 934.800, 698 935.959, 698 934.328 C 698 932.877, 686.985 923, 685.368 923 C 684.111 923, 684.706 924.073, 687.574 926.983 M 699.500 937 C 698.670 938.343, 699.787 940, 701.524 940 C 702.297 940, 703.411 940.900, 704 942 C 704.589 943.100, 705.565 944, 706.171 944 C 706.776 944, 708.260 945.013, 709.470 946.250 C 710.680 947.487, 713.147 949.625, 714.953 951 C 716.759 952.375, 719.485 954.513, 721.012 955.750 C 722.539 956.987, 724.349 958, 725.034 958 C 725.719 958, 726.855 958.787, 727.558 959.748 C 728.261 960.710, 729.178 961.155, 729.595 960.738 C 730.677 959.656, 724.984 954, 722.813 954 C 721.816 954, 721 953.449, 721 952.775 C 721 951.497, 714.206 945, 712.868 945 C 711.141 945, 703 938.754, 703 937.429 C 703 935.802, 700.435 935.488, 699.500 937 M 400.134 959.921 C 397.613 960.567, 394.242 967.945, 391.487 978.846 C 390.744 981.787, 389.429 984.973, 388.566 985.927 C 387.702 986.882, 387.297 987.964, 387.666 988.333 C 388.035 988.701, 387.851 990.015, 387.258 991.252 C 383.533 999.021, 382 1002.841, 382 1004.356 C 382 1005.304, 381.164 1007.749, 380.143 1009.790 C 379.121 1011.830, 378.015 1015.243, 377.685 1017.374 C 377.355 1019.505, 376.322 1022.092, 375.388 1023.124 C 374.454 1024.156, 374.075 1025, 374.545 1025 C 375.015 1025, 374.860 1025.540, 374.200 1026.200 C 373.540 1026.860, 373 1028.048, 373 1028.840 C 373 1029.633, 372.155 1032.130, 371.123 1034.390 C 368.515 1040.100, 365.231 1048.920, 364.380 1052.500 C 363.988 1054.150, 362.617 1057.480, 361.333 1059.899 C 360.050 1062.318, 359 1065.526, 359 1067.026 C 359 1068.527, 358.337 1070.305, 357.526 1070.978 C 356.716 1071.651, 355.760 1073.843, 355.402 1075.850 C 355.044 1077.858, 353.682 1081.876, 352.376 1084.780 C 349.800 1090.503, 349.396 1093.509, 351.063 1094.539 C 352.816 1095.623, 355.693 1092.192, 358.079 1086.171 C 359.316 1083.052, 360.705 1080.002, 361.168 1079.393 C 362.248 1077.969, 367.441 1063.928, 370.936 1052.977 C 372.433 1048.289, 374.365 1043.339, 375.230 1041.977 C 376.095 1040.615, 379.101 1032.566, 381.911 1024.091 C 384.720 1015.616, 387.402 1008.191, 387.871 1007.591 C 388.340 1006.991, 390.189 1002, 391.979 996.500 C 393.769 991, 396.081 983.911, 397.117 980.746 C 398.153 977.581, 399.014 974.206, 399.031 973.246 C 399.048 972.286, 400.171 969.700, 401.526 967.500 C 405.284 961.398, 404.794 958.728, 400.134 959.921 M 355.865 962.750 C 355.264 964.263, 353.972 967.300, 352.994 969.500 C 352.016 971.700, 350.900 975.750, 350.515 978.500 C 350.111 981.386, 349.008 984.257, 347.907 985.289 C 346.858 986.273, 346 988.080, 346 989.304 C 346 990.528, 345.132 993.149, 344.071 995.129 C 343.010 997.109, 341.821 1000.477, 341.429 1002.614 C 341.037 1004.751, 340.105 1007.388, 339.358 1008.473 C 338.611 1009.557, 338 1010.991, 338 1011.657 C 338 1012.324, 337.604 1013.912, 337.120 1015.185 C 336.636 1016.458, 336.154 1017.950, 336.049 1018.500 C 335.943 1019.050, 335.216 1020.209, 334.431 1021.076 C 333.646 1021.943, 332.612 1024.751, 332.133 1027.316 C 331.654 1029.881, 330.829 1032.546, 330.300 1033.240 C 329.771 1033.933, 328.102 1038.325, 326.592 1043 C 325.081 1047.675, 323.583 1052.175, 323.264 1053 C 322.944 1053.825, 322.773 1054.894, 322.883 1055.375 C 322.993 1055.856, 322.393 1057.013, 321.550 1057.945 C 320.707 1058.877, 319.575 1061.968, 319.035 1064.813 C 318.496 1067.659, 317.423 1071.003, 316.652 1072.244 C 315.881 1073.485, 314.727 1076.679, 314.087 1079.343 C 312.872 1084.404, 310.664 1088.650, 308.172 1090.719 C 307.019 1091.675, 306.960 1092.247, 307.895 1093.374 C 310.910 1097.007, 315.473 1091.748, 318.630 1081 C 319.519 1077.975, 320.737 1074.600, 321.338 1073.500 C 321.938 1072.400, 322.483 1071.275, 322.548 1071 C 322.614 1070.725, 323.225 1069.150, 323.906 1067.500 C 324.587 1065.850, 325.979 1062.025, 326.999 1059 C 328.020 1055.975, 329.831 1051.250, 331.023 1048.500 C 334.625 1040.197, 335.328 1038.522, 335.432 1038 C 335.486 1037.725, 335.813 1037.050, 336.158 1036.500 C 336.952 1035.235, 345 1010.058, 345 1008.840 C 345 1008.343, 345.747 1006.263, 346.660 1004.218 C 347.572 1002.173, 348.399 1000.275, 348.496 1000 C 348.593 999.725, 348.957 998.825, 349.304 998 C 349.652 997.175, 352.230 989.535, 355.034 981.023 C 357.838 972.510, 360.603 964.978, 361.178 964.285 C 362.675 962.481, 361.420 960, 359.010 960 C 357.702 960, 356.561 960.998, 355.865 962.750 M 442.200 962.200 C 441.540 962.860, 441 963.930, 441 964.578 C 441 965.225, 440.348 966.296, 439.551 966.958 C 438.754 967.619, 437.595 969.811, 436.976 971.830 C 436.356 973.848, 435.231 976.850, 434.476 978.500 C 430.111 988.043, 428 993.460, 428 995.121 C 428 996.154, 427.083 997.917, 425.963 999.037 C 424.842 1000.158, 423.562 1003.019, 423.118 1005.396 C 422.674 1007.773, 421.566 1010.782, 420.655 1012.082 C 419.745 1013.381, 419 1015.458, 419 1016.696 C 419 1017.934, 418.131 1020.871, 417.068 1023.223 C 414.832 1028.173, 413.738 1031.086, 413.585 1032.500 C 413.526 1033.050, 412.749 1034.850, 411.859 1036.500 C 410.969 1038.150, 409.902 1041.075, 409.487 1043 C 409.073 1044.925, 407.893 1048.068, 406.867 1049.985 C 405.840 1051.902, 405 1054.515, 405 1055.793 C 405 1057.070, 403.948 1060.002, 402.663 1062.308 C 401.378 1064.613, 400.509 1067.041, 400.731 1067.703 C 400.954 1068.365, 399.980 1070.607, 398.568 1072.685 C 397.155 1074.764, 396 1077.475, 396 1078.710 C 396 1079.945, 394.771 1083.462, 393.268 1086.526 C 391.082 1090.984, 390.804 1092.261, 391.879 1092.925 C 394.948 1094.822, 398.628 1091.448, 400.526 1085 C 400.607 1084.725, 400.956 1083.825, 401.301 1083 C 401.647 1082.175, 403.476 1077, 405.366 1071.500 C 410.554 1056.401, 412.430 1051.532, 413.194 1051.185 C 413.575 1051.012, 413.640 1050.225, 413.337 1049.435 C 413.034 1048.646, 413.267 1048, 413.854 1048 C 414.442 1048, 415.612 1045.678, 416.455 1042.839 C 417.892 1038.001, 423.022 1023.586, 425.295 1018 C 425.854 1016.625, 426.359 1015.050, 426.417 1014.500 C 426.475 1013.950, 427.242 1012.150, 428.121 1010.500 C 429 1008.850, 430.032 1006.150, 430.414 1004.500 C 431.225 1000.995, 436.707 986.411, 438.308 983.500 C 438.913 982.400, 439.441 981.050, 439.481 980.500 C 439.522 979.950, 441.005 976.400, 442.778 972.612 C 444.550 968.823, 446 964.661, 446 963.362 C 446 960.822, 444.145 960.255, 442.200 962.200 M 922.500 1026.096 C 920.300 1026.589, 917.519 1027.219, 916.320 1027.497 C 915.121 1027.775, 913.546 1028.570, 912.820 1029.263 C 912.094 1029.956, 910.375 1031.077, 909 1031.754 C 907.625 1032.431, 905.825 1033.417, 905 1033.945 C 904.175 1034.473, 901.890 1035.616, 899.923 1036.484 C 893.596 1039.278, 886.404 1046.903, 880.374 1057.211 C 876.479 1063.869, 870.267 1068.084, 866.487 1066.633 C 863.977 1065.670, 862.735 1061.055, 864.099 1057.760 C 864.882 1055.872, 864.951 1054.551, 864.302 1053.902 C 863.196 1052.796, 863.153 1052.840, 857.390 1061 C 853.289 1066.807, 853.089 1068.090, 854.007 1082.750 C 854.356 1088.333, 856.495 1088.365, 862.208 1082.875 C 865.849 1079.375, 870.281 1075.678, 884.500 1064.281 C 885.600 1063.399, 888.975 1060.593, 892 1058.045 C 895.025 1055.497, 898.805 1052.532, 900.399 1051.456 C 901.994 1050.380, 904.469 1048.714, 905.899 1047.753 C 907.330 1046.792, 909.747 1045.507, 911.271 1044.898 C 912.795 1044.288, 914.499 1042.936, 915.057 1041.893 C 915.615 1040.850, 917.518 1039.318, 919.286 1038.489 C 921.054 1037.660, 925.763 1035.210, 929.750 1033.043 C 933.737 1030.877, 937 1029.361, 937 1029.675 C 937 1029.988, 937.681 1029.680, 938.512 1028.990 C 942.634 1025.569, 932.797 1023.791, 922.500 1026.096 M 572.003 1038.616 C 567.328 1042.840, 567.120 1044.165, 570.500 1048.182 C 571.875 1049.816, 573 1051.737, 573 1052.451 C 573 1054.641, 578.119 1063.045, 579.088 1062.446 C 580.639 1061.487, 580.097 1056.651, 578 1052.739 C 575.622 1048.302, 575.469 1044.542, 577.506 1040.636 C 580.899 1034.131, 578.103 1033.105, 572.003 1038.616 M 622.623 1078.055 C 619.955 1083.402, 621.606 1084.317, 632.448 1083.495 C 642.062 1082.766, 645.321 1081.297, 643.143 1078.672 C 642.491 1077.887, 639.605 1076.968, 636.729 1076.631 C 633.853 1076.294, 629.867 1075.746, 627.871 1075.414 C 624.528 1074.857, 624.114 1075.066, 622.623 1078.055" stroke="none" fill="#171916" fill-rule="evenodd"/>
</svg>