<svg role="img" aria-labelledby="artwork-title" shape-rendering="geometricPrecision" xmlns="http://www.w3.org/2000/svg" width="1200" height="1200" viewBox="0 0 1200 1200" version="1.1">
	<title id="artwork-title">Mascot climbing career steps</title>
	<path d="M 425 82.095 C 424.175 83.206, 421.525 84.555, 419.112 85.094 C 416.698 85.632, 413.600 86.956, 412.227 88.036 C 410.854 89.116, 409.350 90, 408.886 90 C 407.674 90, 394 103.759, 394 104.979 C 394 105.540, 392.762 108.243, 391.250 110.985 C 388.893 115.259, 388.071 115.969, 385.500 115.954 C 383.850 115.944, 381.626 115.276, 380.559 114.468 C 375.939 110.974, 357.550 113.963, 349.606 119.500 C 343.873 123.496, 335.941 131.388, 335.369 133.667 C 335.047 134.950, 334.359 136, 333.841 136 C 332.403 136, 330 142.504, 330 146.396 C 330 150.357, 327.859 153, 324.651 153 C 323.438 153, 321.557 153.614, 320.473 154.365 C 319.388 155.116, 317.501 156.042, 316.280 156.423 C 313.181 157.390, 303.703 166.785, 301.574 171 C 296.456 181.136, 294.380 194.609, 296.911 201.267 C 297.413 202.585, 298.516 205.998, 299.363 208.851 L 300.904 214.039 297.219 217.270 C 290.193 223.430, 286.211 228.282, 283.997 233.378 C 282.773 236.195, 281.373 239.281, 280.886 240.236 C 280.399 241.191, 280 245.360, 280 249.500 C 280 253.640, 280.399 257.809, 280.886 258.764 C 281.373 259.719, 282.836 262.974, 284.136 265.998 C 285.667 269.559, 288.702 273.675, 292.754 277.685 L 299.007 283.875 297.542 289.502 C 295.115 298.816, 297.634 307.990, 304.934 316.424 C 308.730 320.810, 309.096 321.680, 308.504 324.906 C 308.141 326.883, 307.429 328.927, 306.922 329.450 C 305.673 330.737, 305.743 348.723, 307 349.500 C 307.550 349.840, 308 350.916, 308 351.890 C 308 352.865, 309.917 357.451, 312.260 362.081 C 319.063 375.524, 330.216 385.653, 342 389.089 C 348.116 390.873, 351.744 393.694, 353.063 397.690 C 354.606 402.367, 358.820 404.414, 364.439 403.215 C 369.796 402.073, 372.696 403.432, 376.201 408.728 C 379.411 413.578, 386.499 421, 387.922 421 C 388.515 421, 389 421.900, 389 423 C 389 424.762, 388.333 425, 383.407 425 C 380.331 425, 373.468 425.857, 368.157 426.905 C 362.846 427.952, 356.703 429.118, 354.508 429.495 C 352.312 429.873, 350.062 430.471, 349.508 430.825 C 348.953 431.180, 348.275 431.514, 348 431.568 C 347.725 431.623, 346.233 432.192, 344.685 432.834 C 343.137 433.475, 341.597 434, 341.263 434 C 339.936 434, 327.794 439.188, 324.260 441.265 C 317.587 445.188, 302.601 455.555, 299 458.740 C 297.075 460.443, 290.325 466.329, 284 471.819 C 273.307 481.100, 259 495.857, 259 497.605 C 259 498.024, 256.950 500.422, 254.444 502.934 C 249.603 507.786, 241.505 518.490, 237.787 524.949 C 235.797 528.407, 235.682 529.232, 236.772 532.245 C 238.481 536.973, 238.375 537.629, 235.131 542.337 C 228.655 551.734, 218.415 571.675, 217.363 576.936 C 217.026 578.621, 216.308 580, 215.768 580 C 215.228 580, 215.045 580.675, 215.362 581.500 C 215.678 582.325, 215.563 583, 215.105 583 C 214.648 583, 213.735 585.813, 213.078 589.250 C 212.421 592.688, 211.193 598.586, 210.349 602.357 C 206.863 617.944, 205.310 652.506, 206.967 677.643 C 208.021 693.643, 207.979 696.140, 206.610 698.788 C 205.756 700.439, 204.758 703.750, 204.392 706.145 C 204.026 708.540, 203.285 711.060, 202.745 711.745 C 202.206 712.429, 202 713.891, 202.288 714.994 C 202.576 716.096, 202.404 717.250, 201.906 717.558 C 200.692 718.308, 200.739 739.721, 201.956 740.473 C 202.482 740.798, 202.657 741.730, 202.344 742.545 C 202.032 743.359, 202.193 744.582, 202.701 745.263 C 203.210 745.943, 204.894 749.811, 206.444 753.857 C 208.637 759.585, 210.491 762.425, 214.816 766.682 C 222.108 773.858, 226.776 776.125, 236.224 777.079 C 242.311 777.694, 244.694 778.428, 247.464 780.541 C 249.398 782.015, 251.645 782.967, 252.458 782.655 C 253.271 782.343, 254.202 782.518, 254.527 783.044 C 255.279 784.260, 260 784.303, 260 783.094 C 260 782.595, 260.898 782.422, 261.996 782.709 C 263.094 782.996, 265.582 782.477, 267.523 781.556 C 270.747 780.026, 271.326 780.016, 274.181 781.440 C 275.938 782.317, 279.859 783, 283.134 783 C 288.871 783, 291.925 781.598, 301.607 774.522 C 304.213 772.618, 304.766 775.350, 303.934 786 C 303.482 791.775, 303.087 804.204, 303.056 813.620 C 303.009 827.879, 302.666 831.785, 301 837 C 299.900 840.443, 299 845.256, 299 847.695 C 299 851.572, 297.225 857.337, 293.779 864.655 C 293.221 865.840, 293.069 867.302, 293.441 867.905 C 293.813 868.507, 293.694 869, 293.176 869 C 292.094 869, 292.398 868.017, 286.383 891 C 283.865 900.625, 281.348 909.057, 280.790 909.737 C 280.232 910.418, 280.016 911.600, 280.310 912.365 C 280.604 913.130, 280.443 914.157, 279.954 914.646 C 279.129 915.471, 275.703 927.550, 272.396 941.297 C 271.629 944.485, 270.101 948.957, 269.001 951.235 C 266.461 956.491, 266.461 960.499, 269 963.727 C 271.802 967.289, 271.540 968.954, 267.129 975.636 C 262.113 983.235, 258.862 992.736, 258.278 1001.500 C 257.829 1008.230, 258.306 1010.428, 261.361 1015.702 C 262.833 1018.244, 271.657 1024.541, 276.697 1026.647 C 282.864 1029.224, 280.230 1030.462, 267.420 1031.007 C 254.251 1031.568, 251.090 1032.736, 247.141 1038.499 C 245.043 1041.562, 245 1042.403, 245 1080.812 L 245 1120 254.250 1119.999 L 263.500 1119.999 263.676 1085.407 C 263.773 1066.381, 264.078 1050.588, 264.355 1050.312 C 264.631 1050.036, 280.682 1049.872, 300.024 1049.949 C 329.904 1050.067, 335.890 1050.336, 339.845 1051.738 C 343.596 1053.067, 348.482 1053.385, 365 1053.377 C 382.667 1053.369, 386.882 1053.055, 395.500 1051.102 C 404.808 1048.994, 407.369 1048.860, 432.500 1049.168 L 459.500 1049.500 463 1047.003 C 464.925 1045.630, 466.725 1044.356, 467 1044.171 C 467.275 1043.986, 467.725 1021.260, 468 993.668 L 468.500 943.500 557 943.500 C 637.920 943.500, 645.701 943.358, 647.849 941.837 C 652.702 938.400, 653 936.532, 653 909.586 C 653 883.494, 653.226 882, 657.180 882 C 660.010 882, 678.945 874.139, 686 870.036 C 690.202 867.592, 698.126 864, 699.316 864 C 700.061 864, 701.851 862.674, 703.295 861.053 C 704.812 859.351, 707.311 857.879, 709.211 857.570 C 715.022 856.625, 788.937 856.252, 805.913 857.082 C 824.727 858.002, 826.649 857.773, 831.066 854.086 L 834.297 851.389 834.599 807.544 C 834.765 783.429, 835.281 763.319, 835.745 762.855 C 836.208 762.392, 882.942 761.996, 939.597 761.976 C 1058.788 761.935, 1049.281 762.741, 1049.803 752.632 C 1050.071 747.458, 1049.834 746.571, 1047.803 745.139 C 1046.537 744.246, 1045.200 743.511, 1044.833 743.507 C 1044.467 743.503, 1043.829 743.163, 1043.417 742.750 C 1042.436 741.769, 886 741.769, 886 742.750 C 886.001 743.614, 867.117 743.450, 866.245 742.578 C 865.214 741.548, 851.138 741.967, 850.470 743.049 C 850.028 743.764, 849.368 743.720, 848.393 742.911 C 847.416 742.101, 844.195 741.889, 838.232 742.244 C 827.426 742.886, 821.658 745.565, 818.298 751.500 C 816.051 755.468, 816.033 755.819, 816.016 795.027 C 816.002 829.166, 815.788 834.858, 814.443 836.777 L 812.887 839 765.511 839 C 712.706 839, 718.011 839.754, 716.446 832.027 C 715.603 827.864, 712.431 822.721, 707.873 818.129 C 703.992 814.220, 694.038 807.628, 693.233 808.434 C 692.931 808.736, 692.193 808.602, 691.592 808.136 C 689.690 806.660, 680.766 804.724, 673 804.101 L 665.500 803.500 665.896 760 C 666.233 723.055, 666.061 715.671, 664.755 711 C 663.910 707.975, 662.974 703.213, 662.676 700.417 C 661.301 687.520, 653.610 673.401, 642.330 663.065 L 635.821 657.101 639.161 655.534 C 644.850 652.862, 655.173 645.174, 662.686 638.012 C 673.844 627.376, 694 602.095, 694 598.737 C 694 598.046, 694.858 596.945, 695.906 596.291 C 696.954 595.636, 698.359 593.391, 699.029 591.300 C 700.443 586.885, 703.663 583.004, 705.924 582.990 C 709.844 582.966, 720.440 576.834, 728.374 570 C 732.452 566.487, 747.822 547.281, 749.955 543.032 C 755.239 532.507, 755.268 517.209, 750.019 509.029 C 748.298 506.348, 746.269 503.638, 745.509 503.008 C 744.750 502.377, 743.817 500.442, 743.436 498.707 C 743.055 496.972, 741.702 493.966, 740.429 492.027 C 736.663 486.287, 723.828 473.729, 718.471 470.543 C 715.737 468.916, 712.912 466.779, 712.193 465.793 C 711.475 464.807, 710.457 464, 709.933 464 C 709.409 464, 706.734 462.422, 703.990 460.493 C 701.245 458.564, 699 457.304, 699 457.693 C 699 458.082, 698.460 457.860, 697.800 457.200 C 696.493 455.893, 684.810 455.523, 683.583 456.750 C 683.171 457.163, 682.533 457.513, 682.167 457.528 C 681.800 457.544, 678.229 459.291, 674.231 461.412 C 668.271 464.574, 666.197 466.363, 662.719 471.349 C 659.274 476.288, 657.768 477.598, 654.701 478.323 C 649.281 479.605, 640.590 487.849, 638.396 493.788 C 637.439 496.380, 636.180 499.121, 635.598 499.879 C 633.705 502.349, 633.570 521.388, 635.406 527.002 C 637.036 531.986, 636.707 537, 634.749 537 C 633.565 537, 623.305 545.382, 620.887 548.325 C 618.499 551.231, 617 549.525, 617 543.900 C 617 540.674, 616.343 537.964, 615.135 536.210 C 607.436 525.026, 602.674 517.461, 598.637 510 C 597.298 507.525, 594.919 503.831, 593.351 501.791 C 591.783 499.751, 589.375 496.453, 588 494.462 C 581.135 484.519, 564.351 467.430, 553.675 459.513 C 546.103 453.897, 545.241 452.132, 550 451.984 C 550.825 451.958, 553.750 450.831, 556.500 449.478 C 559.250 448.125, 562.672 447.014, 564.105 447.009 C 565.888 447.003, 568.778 445.105, 573.259 441 C 576.860 437.700, 580.300 435, 580.903 435 C 581.506 435, 582.900 434.100, 584 433 C 585.100 431.900, 586 431.271, 586 431.603 C 586 431.934, 587.225 430.809, 588.723 429.103 C 590.220 427.396, 591.908 425.992, 592.473 425.982 C 593.736 425.960, 600 418.542, 600 417.067 C 600 416.480, 600.415 416, 600.922 416 C 601.430 416, 602.398 414.312, 603.074 412.250 C 603.749 410.188, 605.783 406.686, 607.593 404.468 C 611.406 399.796, 613 396.086, 613 391.885 C 613 390.244, 613.788 387.461, 614.750 385.700 C 616.267 382.926, 616.500 379.563, 616.500 360.422 L 616.500 338.344 619.684 334.713 C 621.435 332.715, 623.536 329.600, 624.352 327.791 C 629.882 315.531, 630 315.020, 630 303.432 C 630 296.968, 630.429 291.853, 631 291.500 C 632.419 290.623, 632.239 287.786, 630.548 284.396 C 628.871 281.035, 622.730 274.800, 621.401 275.109 C 620.905 275.223, 619.712 275.021, 618.750 274.659 C 617.788 274.296, 616.312 273.784, 615.472 273.521 C 614.277 273.146, 614 271.674, 614.198 266.771 C 614.338 263.322, 614.076 259.259, 613.616 257.743 C 612.882 255.324, 613.293 254.472, 616.954 250.810 C 626.053 241.712, 627.993 234.265, 624.001 223.761 C 621.501 217.184, 621.501 215.762, 624 213.500 C 625.100 212.505, 626 211.262, 626 210.739 C 626 210.217, 627.132 208.374, 628.515 206.644 C 634.993 198.546, 635.500 197.016, 635.500 185.573 C 635.500 175.929, 635.355 175.243, 632.317 170.485 C 626.836 161.899, 622.672 157.495, 617.500 154.812 L 612.500 152.217 612.336 144.658 C 612.238 140.159, 611.565 135.965, 610.674 134.299 C 609.851 132.760, 608.633 130.037, 607.967 128.250 C 607.302 126.463, 606.146 125, 605.398 125 C 604.650 125, 603.756 123.876, 603.411 122.503 C 602.766 119.932, 594.162 112, 592.019 112 C 591.357 112, 589.671 111.100, 588.273 110 C 586.874 108.900, 584.693 108, 583.424 108 C 582.156 108, 580.835 107.543, 580.490 106.984 C 580.144 106.425, 579.474 106.207, 579 106.500 C 578.526 106.793, 577.856 106.575, 577.510 106.016 C 576.732 104.757, 564.328 104.660, 563.558 105.906 C 563.250 106.404, 562.098 106.577, 560.999 106.289 C 559.882 105.997, 559 106.259, 559 106.883 C 559 108.444, 555.478 108.281, 554.131 106.658 C 553.519 105.920, 553.232 105.102, 553.494 104.839 C 553.756 104.577, 551.727 101.579, 548.985 98.176 C 546.243 94.774, 544 91.542, 544 90.995 C 544 90.448, 543.325 90, 542.500 90 C 541.675 90, 540.047 89.047, 538.882 87.882 C 537.717 86.717, 535.580 85.455, 534.132 85.076 C 532.684 84.698, 531.056 83.401, 530.513 82.194 C 529.542 80.037, 529.176 80, 508.656 80 C 490.043 80, 487.852 80.171, 488.393 81.581 C 488.838 82.740, 487.933 83.580, 485 84.732 C 482.800 85.596, 481 86.641, 481 87.053 C 481 87.465, 479.399 88.747, 477.441 89.902 L 473.882 92.002 469.297 88.501 C 466.776 86.575, 463.848 85, 462.790 85 C 460.009 85, 457 83.163, 457 81.465 C 457 80.241, 454.493 80.006, 441.750 80.037 C 427.634 80.072, 426.388 80.225, 425 82.095 M 495.885 97.870 C 494.573 98.898, 492.038 100.059, 490.250 100.449 C 488.462 100.840, 487 101.573, 487 102.079 C 487 103.610, 490.309 103.118, 494.261 101 C 499.036 98.441, 518.942 98.020, 520.947 100.436 C 521.602 101.225, 523.404 102.150, 524.952 102.489 C 526.499 102.829, 528.931 104.321, 530.356 105.804 C 535.284 110.934, 536.994 112.339, 537.587 111.746 C 539.847 109.487, 531.498 101.225, 524.764 99.057 C 522.709 98.395, 520.770 97.437, 520.455 96.927 C 520.140 96.417, 515.019 96, 509.076 96 C 500.038 96, 497.880 96.306, 495.885 97.870 M 428.565 99.215 C 425.301 99.727, 421.528 101.013, 420.181 102.073 C 418.833 103.133, 417.228 104.002, 416.615 104.005 C 415.509 104.010, 411.249 107.918, 406.481 113.302 C 403.991 116.113, 403.084 121, 405.052 121 C 405.631 121, 406.579 119.636, 407.160 117.970 C 407.741 116.303, 409.407 114.324, 410.861 113.572 C 412.315 112.820, 414.361 111.259, 415.407 110.102 C 416.454 108.946, 417.774 108, 418.341 108 C 418.907 108, 420.329 107.100, 421.500 106 C 424.630 103.060, 433.878 101.711, 447.250 102.245 C 453.712 102.503, 459 102.359, 459 101.924 C 459 99.397, 438.849 97.604, 428.565 99.215 M 461.625 104.797 C 461.353 105.239, 461.979 106.131, 463.018 106.779 C 464.132 107.475, 465.143 107.578, 465.482 107.030 C 465.798 106.519, 465.171 105.627, 464.089 105.047 C 463.007 104.468, 461.898 104.356, 461.625 104.797 M 483.250 104.662 C 482.563 104.940, 482 105.837, 482 106.657 C 482 108.728, 485.393 107.911, 485.812 105.739 C 486.149 103.987, 485.548 103.735, 483.250 104.662 M 557.485 123.005 C 553.482 124.409, 557.276 125.500, 566.164 125.500 C 574.809 125.500, 576.082 125.737, 578.229 127.750 C 579.549 128.988, 581.177 130, 581.848 130 C 583.328 130, 590 136.520, 590 137.967 C 590 139.296, 591.693 139.306, 592.511 137.982 C 593.332 136.654, 587.988 129.951, 582.891 125.914 C 579.035 122.860, 578.487 122.728, 568.998 122.583 C 563.564 122.500, 558.384 122.690, 557.485 123.005 M 365.419 130.979 C 359.260 131.900, 348.598 141.356, 346.603 147.666 C 345.569 150.939, 347.809 151.515, 349.246 148.345 C 350.796 144.923, 356.597 139, 358.398 139 C 359.131 139, 360.874 138.100, 362.273 137 C 363.671 135.900, 365.896 135, 367.217 135 C 368.537 135, 370.460 134.384, 371.489 133.632 C 373.313 132.298, 373.312 132.239, 371.430 131.316 C 370.369 130.795, 367.663 130.644, 365.419 130.979 M 380 132.500 C 380 133.500, 381 134, 383 134 C 386.206 134, 387.030 132.609, 384.418 131.607 C 381.738 130.579, 380 130.930, 380 132.500 M 324 171.683 C 324 172.279, 323.173 172.983, 322.163 173.247 C 319.243 174.011, 313.772 182.779, 314.943 184.818 C 315.748 186.219, 316.022 185.957, 316.580 183.250 C 316.948 181.463, 317.756 179.995, 318.375 179.989 C 318.994 179.983, 321.039 178.395, 322.920 176.459 C 325.531 173.772, 326.063 172.663, 325.170 171.770 C 324.383 170.983, 324 170.955, 324 171.683 M 479.447 185.500 C 477.997 187.975, 476.420 190, 475.944 190 C 475.468 190, 474.273 190.805, 473.289 191.788 C 469.963 195.112, 463.526 199.484, 458.500 201.834 C 451.548 205.083, 435.975 205.134, 429.354 201.929 C 423.111 198.907, 422 199.678, 422 207.032 C 422 214.041, 417.899 223.907, 413.223 228.145 C 410.280 230.814, 402.487 235.981, 401.257 236.081 C 400.840 236.115, 399.825 236.732, 399 237.453 C 398.175 238.174, 396.528 239.059, 395.340 239.420 C 391.451 240.604, 390.963 242.202, 393.061 246.888 C 394.480 250.056, 395 253.462, 395 259.579 C 395 266.893, 394.624 268.681, 391.997 273.850 C 390.345 277.101, 388.320 280.320, 387.497 281.003 C 386.453 281.869, 386 284.183, 386 288.654 C 386 295.860, 386.965 296.905, 392 295.150 C 393.664 294.570, 400.558 293.788, 407.320 293.412 L 419.616 292.729 426.301 286.365 C 429.977 282.864, 433.800 280, 434.796 280 C 435.792 280, 438.897 278.859, 441.696 277.464 C 444.495 276.069, 447.171 275.016, 447.642 275.123 C 448.114 275.230, 449.175 275.067, 450 274.761 C 460.940 270.705, 493.673 271.105, 498.904 275.358 C 499.676 275.986, 500.576 276.453, 500.904 276.395 C 502.177 276.172, 508.795 280.968, 511.268 283.907 C 513.266 286.281, 514.686 287, 517.376 287 C 519.304 287, 521.123 286.609, 521.419 286.132 C 522.354 284.618, 531.653 283.914, 536.467 284.993 L 541.104 286.032 547.480 280.328 C 550.987 277.191, 555.837 273.847, 558.258 272.896 C 562.944 271.055, 574.698 269.697, 587 269.575 C 594.233 269.503, 594.510 269.411, 594.792 266.999 C 594.953 265.624, 594.416 263.599, 593.598 262.499 C 592.142 260.542, 592.044 260.572, 588.985 263.889 L 585.859 267.278 578.179 266.517 C 573.956 266.099, 568.700 265.885, 566.500 266.043 C 556.790 266.737, 554.780 266.447, 552.856 264.070 C 545.995 255.597, 554.785 244.619, 568.500 244.532 C 575.500 244.487, 588 248.292, 588 250.466 C 588 251.637, 591.096 255, 592.175 255 C 593.255 255, 592.227 248.339, 590.687 245.362 C 589.802 243.651, 588.612 239.329, 588.041 235.757 C 586.905 228.645, 583.787 220.628, 580.941 217.500 C 579.940 216.400, 579.037 215.050, 578.933 214.500 C 578.730 213.416, 578.615 213.008, 577.250 208.500 C 576.352 205.536, 576.241 205.494, 567.921 204.987 C 558.039 204.386, 554.987 202.852, 547.116 194.529 C 539.606 186.589, 539.579 186.582, 531.263 190.710 C 524.946 193.845, 523.186 194.268, 516.302 194.305 C 505.252 194.364, 491.088 189.175, 485.529 183.032 C 482.959 180.193, 482.432 180.407, 479.447 185.500 M 211.317 219.483 C 207.004 223.796, 207.320 226.310, 213.384 235.923 C 215.666 239.540, 218.837 244.975, 220.430 248 C 223.409 253.655, 227.481 259.789, 230.886 263.750 C 233.990 267.360, 238.106 266.732, 242.384 261.997 C 244.373 259.796, 246 257.269, 246 256.383 C 246 255.497, 243.975 251.523, 241.500 247.552 C 239.025 243.581, 237 240.011, 237 239.619 C 237 237.874, 227.699 223.138, 224.460 219.750 C 219.701 214.773, 216.100 214.700, 211.317 219.483 M 464.500 246.714 C 456.537 247.752, 452.534 248.773, 450 250.414 C 448.075 251.660, 445.261 253.438, 443.747 254.365 C 442.232 255.292, 439.826 257.900, 438.399 260.159 C 436.076 263.840, 435.945 264.529, 437.144 266.769 C 440.168 272.420, 447.402 273.449, 455.267 269.348 C 457.653 268.104, 462.261 267.505, 472.853 267.062 C 486.993 266.470, 487.242 266.419, 489.603 263.675 C 494.930 257.482, 491.343 249.734, 481.750 246.710 C 478.766 245.770, 476.139 245.063, 475.912 245.140 C 475.685 245.217, 470.550 245.925, 464.500 246.714 M 161.388 267.980 C 155.470 270.371, 153.049 278.939, 157.250 282.626 C 160.782 285.725, 167.257 289.731, 170 290.513 C 171.375 290.904, 175.352 292.528, 178.838 294.121 C 182.324 295.714, 187.387 297.740, 190.088 298.624 C 192.790 299.507, 195 300.703, 195 301.282 C 195 301.860, 195.279 302.055, 195.619 301.714 C 195.960 301.374, 196.892 301.749, 197.690 302.548 C 199.077 303.934, 202.160 304.455, 206.500 304.038 C 210.306 303.672, 213.477 299.399, 213.356 294.798 C 213.204 288.985, 211.512 287.643, 196 281.017 C 191.875 279.255, 187.825 277.234, 187 276.525 C 186.175 275.816, 184.375 274.905, 183 274.499 C 179.803 273.556, 172.275 270.344, 168.846 268.459 C 165.877 266.827, 164.466 266.737, 161.388 267.980 M 596 287.318 C 596 288.042, 598.509 291.305, 601.575 294.568 C 604.641 297.830, 607.840 302.188, 608.683 304.250 C 610.707 309.197, 612.003 309, 611.985 303.750 C 611.965 298.013, 610.452 295.396, 604.213 290.310 C 598.867 285.953, 596 284.908, 596 287.318 M 482.536 289.180 C 482.037 290.385, 483.039 291.940, 486.084 294.680 C 491.996 300.001, 492.085 300.097, 496 305.293 C 499.848 310.401, 501.622 311.198, 501.462 307.750 C 501.229 302.742, 489.890 290, 485.665 290 C 484.841 290, 483.957 289.438, 483.700 288.750 C 483.377 287.886, 483.018 288.018, 482.536 289.180 M 521 305.291 C 518.717 306.442, 518.446 307.287, 517.880 315.026 C 517.400 321.582, 516.613 324.745, 514.404 329 C 512.833 332.025, 511.267 334.725, 510.924 335 C 510.580 335.275, 509.129 337.369, 507.698 339.653 C 505.481 343.194, 493.536 353.315, 491.250 353.590 C 490.838 353.640, 488.700 354.540, 486.500 355.590 C 483.132 357.198, 480.208 357.500, 468 357.500 L 453.500 357.500 446.677 353.500 C 442.925 351.300, 438.970 349, 437.890 348.389 C 434.570 346.512, 430.894 342.649, 429.433 339.500 C 428.667 337.850, 427.617 335.825, 427.100 335 C 423.912 329.917, 421.485 323.662, 420.501 318 L 419.373 311.500 415.436 311.576 C 402.689 311.821, 387.902 313.414, 386.873 314.653 C 386.032 315.667, 386.137 319.117, 387.288 328.233 C 388.666 339.147, 389.101 340.670, 391.356 342.477 C 393.109 343.882, 394.129 345.995, 394.696 349.394 C 395.513 354.302, 396.295 355.224, 401.070 356.907 C 403.161 357.645, 403.873 358.856, 404.892 363.407 C 405.891 367.870, 406.539 369, 408.104 369 C 412.437 369, 416.783 371.734, 417.477 374.896 C 418.311 378.691, 419.251 379.305, 424.394 379.414 C 427.824 379.487, 428.758 379.993, 430.473 382.709 C 432.265 385.546, 432.885 385.851, 435.816 385.336 C 438.544 384.856, 439.658 385.256, 442.093 387.589 C 445.045 390.417, 445.064 390.421, 448.322 388.666 C 452.390 386.475, 454.216 387.132, 456.320 391.544 C 458.196 395.478, 459.895 395.879, 462.500 393 C 464.674 390.598, 465.653 390.510, 467.677 392.535 C 469.818 394.675, 471.456 393.051, 473.030 387.231 C 473.733 384.629, 474.570 382.050, 474.889 381.500 C 475.208 380.950, 475.478 380.275, 475.488 380 C 475.529 378.904, 481.757 371.336, 486 367.227 C 492.822 360.620, 499.596 357.021, 505.227 357.009 C 509.185 357.002, 510.226 356.585, 511.625 354.449 C 512.545 353.046, 514.609 351.219, 516.212 350.390 C 518.834 349.035, 519.598 349.051, 523.813 350.552 C 526.391 351.470, 529.175 352.453, 530 352.737 C 533.499 353.943, 536.911 353.148, 543.108 349.682 C 553.284 343.991, 558.391 344.773, 559.916 352.256 C 560.434 354.794, 561.548 356.006, 565.039 357.823 C 569.888 360.349, 576 365.736, 576 367.485 C 576 368.086, 576.907 370.355, 578.015 372.529 C 579.123 374.702, 579.848 376.954, 579.626 377.532 C 579.404 378.111, 579.873 379.465, 580.669 380.542 C 582.006 382.352, 582.189 382.371, 583.080 380.799 C 584.843 377.690, 587.116 376, 589.536 376 C 592.005 376, 594 373.488, 594 370.380 C 594 369.417, 594.990 367.575, 596.200 366.287 C 597.937 364.438, 598.469 362.491, 598.725 357.047 C 598.905 353.225, 598.611 349.878, 598.066 349.541 C 597.525 349.206, 594.782 349.685, 591.971 350.604 C 586.347 352.444, 577.643 352.125, 570.040 349.802 C 567.675 349.079, 562.183 345.595, 557.692 341.968 C 549.393 335.267, 544.808 329.096, 543.513 322.887 C 543.124 321.024, 541.950 318.012, 540.903 316.193 C 539.856 314.374, 539 311.757, 539 310.377 C 539 305.080, 537.507 303.999, 530.215 304.015 C 526.522 304.023, 522.375 304.597, 521 305.291 M 333.221 316.919 C 325.558 322.976, 323.773 326.587, 323.630 336.320 C 323.308 358.204, 337.194 374, 356.756 374 C 363.539 374, 368.628 370.639, 368.201 366.441 C 368.037 364.824, 367.655 361.085, 367.352 358.133 C 366.956 354.275, 367.276 351.715, 368.489 349.023 C 370.109 345.432, 370.093 345.093, 368.089 340.695 C 366.940 338.173, 366 335.612, 366 335.003 C 366 332.910, 361.496 325.634, 358.613 323.069 C 353.666 318.667, 346.631 314.205, 345.389 314.681 C 344.736 314.931, 343.905 314.656, 343.542 314.068 C 342.225 311.937, 338.074 313.083, 333.221 316.919 M 194.453 336.566 C 192.227 337.220, 186.264 338.083, 181.203 338.484 C 176.141 338.885, 172 339.600, 172 340.075 C 172 340.549, 171.325 340.678, 170.500 340.362 C 169.675 340.045, 169 340.194, 169 340.693 C 169 341.192, 166.369 342.143, 163.154 342.807 C 158.418 343.786, 156.614 344.765, 153.654 347.964 C 149.124 352.859, 149.094 354.419, 153.450 358.649 C 158.361 363.418, 160.350 363.318, 189 356.867 C 194.225 355.691, 199.175 354.493, 200 354.205 C 200.825 353.918, 201.814 353.746, 202.197 353.824 C 202.581 353.901, 204.553 352.401, 206.579 350.490 C 209.862 347.394, 210.200 346.621, 209.678 343.401 C 208.707 337.419, 201.917 334.371, 194.453 336.566 M 536.513 377.811 C 534.320 377.997, 531.963 378.616, 531.275 379.186 C 530.588 379.757, 529.359 379.968, 528.545 379.656 C 527.730 379.343, 526.798 379.518, 526.473 380.044 C 526.148 380.570, 523.884 381, 521.441 381 C 516.537 381, 515.427 382.546, 519.750 383.356 C 530.758 385.418, 538.646 384.782, 541.854 381.575 C 544.194 379.234, 541.566 377.382, 536.513 377.811 M 556.247 382.803 C 556.670 385.958, 556.291 387.579, 554.522 390.182 C 552.285 393.475, 544.829 398, 541.640 398 C 539.350 398, 539.591 398.890, 542.500 401.179 C 543.875 402.260, 545 403.957, 545 404.950 C 545 405.943, 545.679 407.319, 546.509 408.007 C 547.750 409.037, 548.682 408.797, 551.759 406.655 C 560.580 400.513, 561 399.781, 561 390.575 C 561 382.653, 560.866 382.142, 558.352 380.495 L 555.705 378.760 556.247 382.803 M 497.748 386.887 C 493.293 392.182, 493.025 405.219, 497.260 410.604 C 498.957 412.761, 499.800 413.071, 502.395 412.494 C 504.103 412.114, 508.200 411.735, 511.500 411.652 L 517.500 411.500 519.822 406.638 C 521.103 403.954, 523.007 401.549, 524.072 401.271 C 527.811 400.293, 525.926 399.151, 519.421 398.455 C 515.803 398.067, 510.980 396.765, 508.703 395.562 C 505.246 393.733, 504.390 392.654, 503.502 389.010 C 502.178 383.569, 500.928 383.108, 497.748 386.887 M 413.552 438.916 C 412.477 440.655, 415.011 445.131, 420.142 450.556 C 422.973 453.550, 425.900 456, 426.645 456 C 427.390 456, 428 456.615, 428 457.367 C 428 458.596, 435.012 464, 436.607 464 C 436.964 464, 439.786 465.456, 442.878 467.236 C 445.970 469.015, 448.725 470.515, 449 470.569 C 449.275 470.623, 450.850 471.224, 452.499 471.904 C 454.149 472.584, 460.205 473.834, 465.958 474.682 C 481.220 476.933, 488.711 475.079, 496.384 467.153 C 501.505 461.864, 500.886 459.595, 494.580 460.540 C 490.555 461.144, 477.695 459.733, 474 458.282 C 473.175 457.958, 471.651 457.801, 470.612 457.933 C 469.574 458.064, 468.449 457.760, 468.112 457.255 C 467.776 456.751, 462.325 455.317, 456 454.069 C 449.675 452.821, 442.250 450.945, 439.500 449.900 C 436.750 448.856, 433.818 448.001, 432.985 448.001 C 430.610 448, 419.623 442.346, 417.555 440.060 C 415.522 437.814, 414.426 437.501, 413.552 438.916 M 680.459 476.067 C 679.293 477.953, 680.802 478.252, 683.158 476.602 L 685.445 475 683.282 475 C 682.092 475, 680.821 475.480, 680.459 476.067 M 693.681 482.250 C 693.385 484.038, 692.833 486.738, 692.455 488.250 C 691.579 491.750, 693.330 491.865, 700.108 488.756 C 706.255 485.936, 706.411 483.861, 700.684 481.089 C 694.964 478.320, 694.314 478.428, 693.681 482.250 M 716 493.333 C 716 494.067, 714.763 495.805, 713.250 497.197 C 699.512 509.835, 697.144 513.002, 699.088 516.139 C 699.726 517.170, 701.335 516.129, 705.715 511.852 C 711.664 506.043, 718.343 502, 721.992 502 C 725.550 502, 725.526 499.138, 721.936 495.434 C 718.499 491.888, 716 491.004, 716 493.333 M 660.500 495.399 C 656.008 497.448, 653.410 500.359, 651.418 505.575 C 649.693 510.091, 649.694 510.612, 651.438 519.384 C 652.435 524.398, 653.869 530.017, 654.625 531.872 C 656.558 536.614, 656.383 542.365, 654.250 544.176 C 653.288 544.993, 650.417 546.850, 647.872 548.302 C 645.326 549.754, 639.026 554.303, 633.872 558.411 C 619.960 569.499, 619.278 570, 618.092 570 C 617.491 570, 617 570.633, 617 571.407 C 617 573.175, 607.288 582, 605.342 582 C 603.027 582, 598.297 579.216, 597.621 577.455 C 596.390 574.247, 597.047 571.098, 599.572 568.097 C 601.074 566.312, 602.010 564.116, 601.822 562.820 C 601.524 560.765, 601.110 560.948, 596.217 565.300 C 593.311 567.885, 590.611 570.002, 590.217 570.005 C 589.822 570.007, 587.901 571.470, 585.947 573.255 C 583.993 575.040, 580.618 577.843, 578.447 579.484 C 576.276 581.125, 571.013 585.538, 566.750 589.289 L 559 596.110 559 603.711 C 559 610.318, 559.333 611.748, 561.551 614.656 C 562.954 616.495, 564.542 618, 565.081 618 C 565.620 618, 569.742 621.135, 574.241 624.967 C 582.046 631.613, 592.892 638, 596.373 638 C 597.268 638, 598 638.477, 598 639.059 C 598 639.641, 598.450 639.840, 599 639.500 C 599.550 639.160, 600 639.281, 600 639.768 C 600 640.255, 603.590 641.203, 607.977 641.875 C 617.574 643.344, 626.641 642.091, 632 638.555 C 633.925 637.284, 637.975 634.952, 641 633.372 C 644.025 631.793, 648.525 628.275, 651 625.556 C 663.264 612.083, 667.479 607.207, 669.633 604 C 670.925 602.075, 674.256 597.350, 677.034 593.500 C 683.945 583.923, 686.884 579.382, 688.233 576.199 C 689.872 572.332, 694.069 568, 696.176 568 C 700.043 568, 707.804 564.128, 714.250 558.983 C 722.159 552.670, 722.965 550.492, 717.021 551.496 C 711.002 552.513, 706.189 550.472, 700.251 544.383 C 694.743 538.734, 690.666 537.348, 689.572 540.750 C 688.586 543.815, 681.593 550.925, 678.975 551.525 C 677.260 551.918, 675.335 551.355, 672.975 549.769 C 670.123 547.853, 669.447 546.723, 669.205 543.465 C 668.944 539.964, 669.388 539.027, 672.955 535.544 C 675.180 533.372, 677 531.062, 677 530.412 C 677 528.939, 673.591 526.677, 669 525.104 C 665.941 524.056, 657 514.753, 657 512.618 C 657 512.256, 658.131 510.169, 659.513 507.980 C 662.807 502.762, 666.174 502.632, 672 507.500 C 677.939 512.462, 683.095 511.745, 683.526 505.897 C 683.658 504.106, 676.219 496.522, 674.295 496.485 C 673.858 496.476, 673.050 496.191, 672.500 495.850 C 670.083 494.353, 663.348 494.100, 660.500 495.399 M 725.250 515.853 C 722.913 516.711, 721 517.995, 721 518.707 C 721 519.418, 720.438 520, 719.750 520 C 718.645 520, 714.684 524.307, 712.641 527.729 C 711.592 529.487, 713.742 533, 715.868 533 C 716.856 533, 719.112 531.200, 720.880 529 C 725.175 523.655, 728.647 523.555, 732.741 528.659 C 734.489 530.837, 736.147 532.027, 736.838 531.600 C 738.848 530.358, 738.197 522.911, 735.768 519.367 C 732.599 514.741, 730.338 513.986, 725.250 515.853 M 253.374 546.250 C 250.635 549.371, 241.529 563.750, 241.500 565 C 241.494 565.275, 240.478 567.128, 239.244 569.118 C 238.010 571.108, 236.998 573.358, 236.996 574.118 C 236.994 574.878, 236.135 576.906, 235.088 578.623 C 234.040 580.341, 232.419 585.516, 231.484 590.123 C 230.549 594.731, 229.508 598.950, 229.169 599.500 C 228.830 600.050, 228.515 600.950, 228.469 601.500 C 228.423 602.050, 228.122 603.175, 227.799 604 C 225.362 610.234, 223.381 668.823, 224.892 690 C 225.176 693.976, 224.538 697.994, 222.591 704.500 C 218.868 716.939, 218.445 734.502, 221.651 743.612 C 224.128 750.655, 228.395 757.831, 230.609 758.680 C 231.567 759.048, 233.131 758.072, 234.817 756.055 C 237.146 753.269, 238.027 752.889, 241.493 753.173 C 244.581 753.426, 245.763 754.066, 246.711 756 C 248.894 760.452, 252.441 763.979, 255 764.243 C 257.315 764.481, 257.523 764.149, 257.804 759.769 C 258.029 756.269, 258.672 754.643, 260.277 753.519 C 264.041 750.882, 266.560 751.674, 271.172 756.947 C 278.879 765.756, 285.824 766.787, 290.932 759.879 L 293.147 756.883 289.073 752.464 C 284.956 747.997, 284.551 746.727, 284.931 739.500 C 285.430 730.019, 289.082 724.064, 295.296 722.598 C 299.228 721.671, 304 726.418, 304 731.256 C 304 735.469, 304.677 736.219, 307.108 734.701 C 309.333 733.311, 309.735 725.904, 307.834 721.315 C 307.192 719.767, 306.625 718.275, 306.574 718 C 306.523 717.725, 304.581 714.050, 302.260 709.833 C 299.450 704.728, 297.031 701.637, 295.020 700.583 C 293.359 699.712, 290.538 698.262, 288.750 697.359 C 284.714 695.322, 279.908 690.958, 280.552 689.916 C 280.816 689.488, 280.575 688.856, 280.016 688.510 C 278.782 687.747, 278.645 672.337, 279.866 671.583 C 280.342 671.289, 280.508 669.880, 280.236 668.452 C 279.963 667.024, 280.216 664.876, 280.800 663.678 C 282.162 660.879, 284.673 648.295, 285.478 640.228 C 285.823 636.778, 286.756 632.109, 287.552 629.852 C 288.348 627.595, 289.011 623.893, 289.024 621.624 C 289.059 615.584, 290.642 609.735, 292.636 608.277 C 293.597 607.575, 294.037 607, 293.614 607 C 293.192 607, 294.231 605.835, 295.923 604.411 C 297.615 602.987, 299 601.379, 299 600.837 C 299 600.294, 301.568 596.439, 304.706 592.270 L 310.412 584.688 306.956 582.113 C 305.055 580.697, 301.494 577.583, 299.043 575.193 C 296.591 572.804, 293.744 570.398, 292.717 569.849 C 291.689 569.299, 290.095 568.189, 289.174 567.383 C 284.588 563.368, 275.246 556.164, 273.296 555.138 C 272.084 554.501, 268.163 551.734, 264.582 548.989 C 261.002 546.245, 257.460 544, 256.711 544 C 255.962 544, 254.460 545.013, 253.374 546.250 M 306.266 622.203 C 305.684 622.916, 304.712 626.731, 304.106 630.680 C 303.500 634.629, 302.547 639.062, 301.989 640.530 C 301.430 641.998, 300.491 648.892, 299.901 655.850 C 299.310 662.807, 298.212 670.879, 297.459 673.786 C 295.959 679.581, 296.299 681.555, 299.052 683.028 C 301.754 684.474, 302 684.290, 302 680.822 C 302 676.296, 305.067 647.796, 305.747 646 C 306.060 645.175, 306.217 643.904, 306.097 643.176 C 305.977 642.448, 306.299 641.323, 306.813 640.676 C 308.099 639.058, 309.222 623.803, 308.173 622.203 C 307.477 621.140, 307.133 621.140, 306.266 622.203 M 558.596 636.845 C 557.704 638.288, 557.552 643.466, 558.363 644.779 C 559.208 646.146, 568.585 646.480, 569.394 645.172 C 569.675 644.717, 568.014 642.777, 565.703 640.861 C 560.263 636.353, 559.253 635.782, 558.596 636.845 M 530.292 769.108 C 529.681 769.719, 527.124 770.052, 524.592 769.851 C 522.066 769.650, 520 769.756, 520 770.086 C 520 770.728, 506.619 773.197, 493.500 774.976 C 489.100 775.572, 483.250 776.470, 480.500 776.971 C 477.750 777.471, 471.618 777.908, 466.872 777.940 C 460.594 777.984, 457.916 778.397, 457.036 779.457 C 455.938 780.779, 452.716 791.390, 451.329 798.250 C 451.023 799.763, 450.388 801, 449.918 801 C 449.448 801, 449.322 801.677, 449.640 802.504 C 449.957 803.331, 449.274 806.014, 448.121 808.466 C 446.969 810.918, 445.558 815.012, 444.986 817.564 C 444.414 820.116, 443.341 823.396, 442.603 824.852 C 441.864 826.308, 440.933 829.744, 440.533 832.487 C 440.133 835.230, 439.082 838.830, 438.198 840.487 C 437.313 842.144, 436.710 843.925, 436.859 844.445 C 437.008 844.964, 436.697 846.314, 436.168 847.445 C 433.400 853.361, 431 860.114, 431 861.985 C 431 863.148, 430.364 865.330, 429.586 866.834 C 428.808 868.338, 427.839 871.354, 427.433 873.535 C 427.027 875.716, 425.638 879.179, 424.347 881.230 C 423.056 883.282, 422 885.407, 422 885.953 C 422 886.500, 421.143 888.871, 420.096 891.223 C 419.049 893.575, 416.927 898.824, 415.382 902.888 C 413.836 906.951, 411.768 911.297, 410.786 912.546 C 409.803 913.794, 409 915.390, 409 916.092 C 409 916.794, 408.154 919.198, 407.121 921.434 C 406.087 923.670, 404.564 927.525, 403.736 930 C 400.917 938.425, 399.752 941.496, 397.477 946.500 C 396.227 949.250, 394.880 952.625, 394.484 954 C 394.087 955.375, 393.192 957.175, 392.493 958 C 391.794 958.825, 390.911 961.075, 390.531 963 C 389.079 970.341, 385.683 978.949, 383.389 981.105 C 382.075 982.339, 381 983.911, 381 984.598 C 381 985.737, 390.647 992.823, 398.355 997.345 C 402.502 999.778, 406 1003.062, 406 1004.521 C 406 1005.166, 407.567 1007.306, 409.481 1009.278 C 413.147 1013.053, 415.670 1018.642, 416.937 1025.799 C 417.355 1028.163, 418.103 1030.429, 418.599 1030.833 C 419.094 1031.238, 425.800 1031.328, 433.500 1031.034 L 447.500 1030.500 447.760 984.182 L 448.020 937.864 450.392 934.374 C 453.624 929.618, 460.544 924.647, 463.029 925.297 C 464.112 925.581, 465.250 925.404, 465.558 924.906 C 466.228 923.822, 494 923.670, 494 924.750 C 494 925.492, 552.440 925.419, 553.796 924.675 C 554.183 924.463, 571.106 924.225, 591.401 924.148 C 619.053 924.042, 628.669 924.311, 629.766 925.221 C 630.947 926.201, 631.548 926.042, 632.879 924.397 C 634.254 922.700, 634.510 919.987, 634.411 908.160 C 634.346 900.349, 634.058 893.725, 633.771 893.438 C 632.940 892.607, 625.053 896.040, 618.163 900.230 C 614.678 902.350, 610.403 904.350, 608.663 904.674 C 606.923 904.997, 604.150 906.055, 602.500 907.023 C 600.850 907.992, 597.925 909.102, 596 909.490 C 594.075 909.879, 591.451 910.861, 590.169 911.674 C 588.887 912.487, 587.200 912.907, 586.419 912.607 C 585.639 912.308, 585 912.499, 585 913.031 C 585 914.439, 572.632 914.232, 571.200 912.800 C 570.540 912.140, 570 911.901, 570 912.270 C 570 912.638, 568.313 911.801, 566.250 910.410 C 561.714 907.350, 556 900.393, 556 897.931 C 556 896.947, 555.293 895.436, 554.429 894.572 C 553.285 893.428, 552.925 891.374, 553.103 887.008 C 553.238 883.711, 553.044 880.711, 552.674 880.341 C 551.236 878.903, 551.973 865.484, 553.618 863.135 C 555.176 860.911, 555.093 860.679, 551.372 856.869 L 547.508 852.912 546.864 836.706 C 546.510 827.793, 545.931 818.700, 545.578 816.500 C 545.225 814.300, 544.537 803.140, 544.050 791.701 C 543.473 778.174, 542.742 770.395, 541.959 769.451 C 540.522 767.720, 531.933 767.467, 530.292 769.108 M 663.500 823.898 C 653.370 825.872, 649.242 828.092, 639.899 836.592 C 631.463 844.266, 630.301 844.999, 626.578 844.986 C 619.203 844.962, 617.762 844.165, 618.206 840.359 C 618.567 837.272, 618.377 837, 615.871 837 C 614.370 837, 612.522 837.621, 611.763 838.380 C 610.250 839.893, 600.970 844.381, 597 845.519 C 595.625 845.914, 593.804 846.845, 592.953 847.589 C 592.102 848.333, 587.166 850.475, 581.984 852.349 C 573.145 855.544, 572.507 855.964, 571.687 859.128 C 570.712 862.887, 571.110 877.443, 572.218 878.551 C 572.609 878.942, 574.475 878.528, 576.365 877.631 C 578.256 876.734, 580.501 876, 581.354 876 C 583.386 876, 588 873.883, 588 872.951 C 588 872.550, 589.569 871.928, 591.486 871.569 C 593.404 871.209, 596.891 870.044, 599.236 868.979 C 601.581 867.915, 604.400 867.020, 605.500 866.991 C 606.600 866.961, 609.750 865.831, 612.500 864.478 C 615.250 863.125, 618.007 862.014, 618.628 862.009 C 619.248 862.004, 620.314 861.326, 620.997 860.503 C 621.681 859.680, 624.409 858.362, 627.060 857.575 C 629.710 856.788, 635.142 854.536, 639.130 852.572 C 643.117 850.607, 646.949 849, 647.645 849 C 648.340 849, 650.034 847.875, 651.409 846.500 C 652.784 845.125, 654.560 844, 655.355 844 C 656.151 844, 660.321 842.200, 664.623 840 C 668.925 837.800, 673.245 836, 674.222 836 C 675.200 836, 676 835.502, 676 834.893 C 676 834.284, 676.675 834.045, 677.500 834.362 C 678.325 834.678, 679 834.592, 679 834.170 C 679 833.131, 685.060 831.004, 688.071 830.985 C 693.637 830.950, 693.750 828.748, 688.338 825.745 C 684.721 823.738, 669.954 822.640, 663.500 823.898 M 290 977.812 C 288.625 978.021, 286.925 978.664, 286.223 979.241 C 284.195 980.907, 279 988.966, 279 990.447 C 279 992.475, 285.442 997.719, 288.857 998.469 C 290.509 998.832, 292.398 999.775, 293.053 1000.564 C 293.709 1001.354, 295.090 1002, 296.122 1002 C 297.155 1002, 298 1002.370, 298 1002.823 C 298 1003.275, 300.137 1004.653, 302.750 1005.885 C 305.363 1007.116, 308.175 1008.555, 309 1009.082 C 309.825 1009.609, 312.075 1010.758, 314 1011.634 C 315.925 1012.511, 318.676 1014.064, 320.113 1015.085 C 321.550 1016.106, 323.002 1016.665, 323.339 1016.328 C 323.676 1015.991, 324.580 1016.236, 325.347 1016.873 C 329.474 1020.299, 336.832 1021.104, 364.295 1021.136 C 379.258 1021.154, 392.318 1021.131, 393.317 1021.084 C 397.564 1020.887, 390.216 1011.702, 383.064 1008.269 C 381.654 1007.592, 379.825 1006.612, 379 1006.091 C 376.955 1004.800, 373.676 1003.644, 372.685 1003.863 C 372.237 1003.962, 370.592 1003.134, 369.030 1002.022 C 365.430 999.458, 357.212 999.300, 352.700 1001.708 C 350.940 1002.648, 349.200 1003.435, 348.833 1003.458 C 348.467 1003.481, 347.829 1003.837, 347.417 1004.250 C 347.004 1004.663, 345.374 1005, 343.793 1005 C 342.213 1005, 339.156 1005.900, 337 1007 C 330.026 1010.558, 326 1008.829, 326 1002.276 C 326 999.268, 326.882 997.813, 331.524 993.172 C 334.988 989.707, 336.630 987.389, 335.926 986.954 C 335.309 986.573, 330.544 986.202, 325.335 986.130 C 318.519 986.035, 314.554 985.459, 311.183 984.073 C 308.607 983.014, 304.394 981.867, 301.820 981.523 C 299.247 981.180, 296.097 980.119, 294.820 979.166 C 293.544 978.213, 291.375 977.604, 290 977.812" stroke="none" fill="#171916" fill-rule="evenodd"/>
</svg>