<svg role="img" aria-labelledby="artwork-title" shape-rendering="geometricPrecision" xmlns="http://www.w3.org/2000/svg" width="1200" height="1200" viewBox="0 0 1200 1200" version="1.1">
	<title id="artwork-title">Mascot following a dotted journey path</title>
	<path d="M 759.733 81.914 C 759.340 83.415, 757.968 83.974, 753.366 84.508 C 750.140 84.883, 745.700 86.013, 743.500 87.019 C 741.300 88.025, 737.813 89.534, 735.750 90.373 C 733.688 91.212, 732 92.397, 732 93.008 C 732 93.619, 731.550 93.840, 731 93.500 C 730.450 93.160, 730 93.315, 730 93.843 C 730 94.372, 728.763 95.243, 727.250 95.780 C 725.737 96.316, 722.475 98.540, 720 100.723 C 712.209 107.592, 711.540 107.721, 706.503 103.319 C 699.643 97.326, 696.313 95, 694.592 95 C 693.716 95, 693 94.502, 693 93.893 C 693 93.284, 692.337 93.040, 691.526 93.351 C 690.716 93.662, 689.686 93.261, 689.238 92.460 C 687.323 89.039, 658.592 84.858, 650.681 86.850 C 648.215 87.471, 643.012 88.431, 639.119 88.983 C 626.349 90.794, 606.736 102.286, 596.518 113.943 C 594.858 115.837, 592.487 118.490, 591.250 119.839 C 590.013 121.188, 589 122.846, 589 123.524 C 589 124.201, 588.327 125.314, 587.505 125.996 C 586.682 126.679, 585.462 129.096, 584.794 131.369 C 582.875 137.893, 578.973 139.837, 575.500 136 C 574.505 134.900, 572.661 134, 571.404 134 C 570.147 134, 568.813 133.507, 568.441 132.904 C 568.068 132.302, 566.249 131.986, 564.398 132.202 C 562.546 132.418, 560.879 132.136, 560.692 131.575 C 560.268 130.303, 543.268 130.155, 540.500 131.399 C 539.400 131.893, 537.530 132.204, 536.346 132.090 C 535.161 131.975, 533.896 132.358, 533.536 132.941 C 533.177 133.523, 531.896 134.004, 530.691 134.009 C 529.486 134.014, 526.250 135.125, 523.500 136.478 C 520.750 137.831, 517.953 138.952, 517.285 138.969 C 515.905 139.004, 508.641 143.498, 505.110 146.500 C 493.732 156.175, 484.286 167.572, 482.062 174.311 C 481.415 176.271, 480.002 178.999, 478.921 180.373 C 477.841 181.746, 477.038 183.237, 477.137 183.685 C 477.236 184.133, 477.053 185.175, 476.729 186 C 474.384 191.980, 472.823 202.183, 473.325 208.246 C 473.965 215.983, 473.138 217, 466.207 217 C 457.266 217, 439.289 229.703, 431.388 241.604 C 429.525 244.410, 428 247.168, 428 247.731 C 428 248.294, 427.320 249.319, 426.490 250.008 C 425.659 250.698, 424.278 253.790, 423.420 256.881 C 422.562 259.971, 421.216 264.197, 420.430 266.270 C 418.148 272.287, 418.493 291.645, 420.999 298.239 C 422.099 301.133, 422.999 304.189, 422.999 305.030 C 423 305.872, 425.022 309.697, 427.493 313.530 C 429.965 317.364, 431.990 320.888, 431.993 321.361 C 431.997 321.835, 430.199 324.373, 427.999 327.002 C 425.488 330.001, 422.973 334.709, 421.249 339.640 C 418.807 346.623, 418.511 348.839, 418.595 359.500 C 418.678 369.914, 419.041 372.425, 421.341 378.500 C 422.799 382.350, 424.669 386, 425.496 386.610 C 426.323 387.221, 427 388.233, 427 388.860 C 427 389.487, 427.450 390, 428 390 C 428.550 390, 429 390.518, 429 391.150 C 429 393.113, 437.981 400.898, 442.604 402.943 C 447.528 405.121, 447.754 405.943, 445.489 413.409 C 442.438 423.466, 444.720 439.730, 450.202 447 C 451.238 448.375, 453.689 451.919, 455.647 454.876 C 458.720 459.518, 459.056 460.582, 458.103 462.673 C 457.496 464.005, 457 467.037, 457 469.411 C 457 473.313, 456.619 473.992, 453.033 476.477 C 449.875 478.665, 447.909 481.541, 443.405 490.561 C 440.217 496.945, 438.006 502.573, 438.341 503.447 C 438.669 504.301, 438.559 505, 438.096 505 C 437.240 505, 436.368 510.334, 435.320 521.981 C 434.706 528.814, 436.739 547.721, 438.184 548.614 C 438.651 548.902, 438.761 549.578, 438.428 550.116 C 438.096 550.654, 438.764 553.093, 439.912 555.536 C 441.060 557.979, 442 560.595, 442 561.348 C 442 566.350, 454.743 584.269, 463.976 592.250 C 466.130 594.112, 466.823 600.373, 465 601.500 C 463.687 602.311, 463.706 611.306, 465.023 612.623 C 465.586 613.186, 466.470 618.338, 466.988 624.073 C 467.754 632.551, 468.592 635.996, 471.468 642.500 C 473.414 646.900, 475.287 652.188, 475.631 654.250 C 475.974 656.313, 476.675 658, 477.187 658 C 477.699 658, 477.840 658.450, 477.500 659 C 477.160 659.550, 477.359 660, 477.941 660 C 478.523 660, 479 660.675, 479 661.500 C 479 662.325, 479.450 663, 480 663 C 480.550 663, 481 663.812, 481 664.804 C 481 667.642, 486.730 675.951, 491.878 680.580 C 494.460 682.902, 497.794 687.215, 499.287 690.167 C 501.678 694.893, 512.843 708, 514.477 708 C 516.176 708, 533.871 723.529, 533.077 724.323 C 532.580 724.820, 529.997 725.429, 527.337 725.677 C 521.474 726.223, 511.020 729.189, 511.009 730.309 C 511.004 730.754, 510.529 730.827, 509.953 730.471 C 509.377 730.115, 506.942 730.747, 504.542 731.875 C 502.142 733.003, 498.001 734.437, 495.339 735.062 C 490.254 736.256, 468.495 746.390, 467.475 748.040 C 467.149 748.568, 466.069 749, 465.076 749 C 464.082 749, 462.195 749.845, 460.882 750.879 C 456.117 754.626, 450.830 757.103, 449.650 756.141 C 449.017 755.626, 446.250 754.503, 443.500 753.645 C 440.750 752.788, 434.651 750.754, 429.946 749.125 C 425.242 747.497, 419.724 745.851, 417.685 745.469 C 415.646 745.086, 413.727 744.367, 413.420 743.870 C 413.113 743.374, 412.474 743.207, 412 743.500 C 411.526 743.793, 410.856 743.575, 410.510 743.016 C 409.714 741.728, 401.317 741.677, 400.527 742.956 C 400.202 743.482, 399.321 743.677, 398.569 743.388 C 397.817 743.100, 396.905 743.344, 396.542 743.932 C 396.179 744.519, 394.671 744.998, 393.191 744.995 C 391.711 744.993, 386.900 745.672, 382.500 746.505 C 367.643 749.317, 350.563 752.077, 338.500 753.615 C 331.900 754.456, 325.825 755.408, 325 755.731 C 324.175 756.054, 323.115 756.230, 322.645 756.124 C 322.174 756.017, 321.193 756.425, 320.464 757.029 C 319.325 757.975, 311.135 759.661, 298 761.652 C 294.430 762.194, 285.065 759.201, 282 756.539 C 281.175 755.823, 279.375 754.919, 278 754.532 C 273.869 753.367, 260.711 748.266, 257.500 746.584 C 255.850 745.719, 253.713 745.010, 252.750 745.006 C 251.787 745.003, 251 744.523, 251 743.941 C 251 743.359, 250.550 743.160, 250 743.500 C 249.450 743.840, 249 743.663, 249 743.106 C 249 742.550, 246.188 741.198, 242.750 740.102 C 228.352 735.512, 223.338 733.598, 220.500 731.610 C 218.850 730.454, 217.392 729.606, 217.260 729.727 C 216.940 730.019, 214.383 729.095, 209.305 726.853 C 206.998 725.834, 204.363 725, 203.449 725 C 202.536 725, 197.253 722.750, 191.708 720 C 186.164 717.250, 180.917 715, 180.049 715 C 179.181 715, 176.902 714.172, 174.985 713.159 C 173.068 712.147, 169.256 710.763, 166.513 710.085 C 163.771 709.407, 161.071 708.487, 160.513 708.041 C 159.956 707.596, 157.925 706.902, 156 706.500 C 154.075 706.098, 151.938 705.316, 151.250 704.762 C 150.563 704.208, 150 704.046, 150 704.401 C 150 704.756, 148.784 704.248, 147.297 703.273 C 145.811 702.298, 142.773 700.968, 140.547 700.317 C 132.856 698.068, 123.487 694.824, 120 693.201 C 118.075 692.305, 116.050 691.512, 115.500 691.439 C 114.950 691.366, 113.825 691.018, 113 690.665 C 107.788 688.436, 102.340 689.645, 97.504 694.103 C 91.384 699.745, 91.075 702.265, 94.399 719.479 C 98.248 739.417, 99.082 742.933, 100.117 743.572 C 100.620 743.883, 100.747 744.600, 100.398 745.164 C 100.050 745.729, 100.215 747.160, 100.765 748.345 C 102.051 751.112, 103.995 760.534, 108.537 786 C 110.548 797.275, 112.446 807.175, 112.755 808 C 113.064 808.825, 113.217 809.925, 113.094 810.445 C 112.971 810.964, 113.314 812.314, 113.855 813.445 C 114.397 814.575, 115.551 819.550, 116.419 824.500 C 121.876 855.604, 124.694 870.286, 125.726 873 C 126.040 873.825, 126.204 875.470, 126.090 876.654 C 125.975 877.839, 126.358 879.104, 126.941 879.464 C 127.523 879.823, 128 881.195, 128 882.512 C 128 883.829, 128.496 885.995, 129.103 887.326 C 130.779 891.005, 128.865 893.678, 123.964 894.506 C 115.599 895.919, 97.150 907.312, 94.900 912.454 C 94.408 913.579, 93.565 915.175, 93.027 916 C 88.900 922.330, 87 928.694, 87 936.187 C 87 940.484, 87.361 944, 87.802 944 C 88.849 944, 92.011 952.845, 92.005 955.755 C 92.002 956.995, 90.875 960.342, 89.500 963.192 C 87.252 967.852, 87 969.608, 87 980.604 C 87 987.937, 87.404 992.968, 88.009 993.170 C 88.563 993.354, 90.343 996.763, 91.963 1000.743 C 94.366 1006.650, 94.801 1008.886, 94.325 1012.904 C 93.594 1019.072, 96.318 1031.089, 99.611 1036.229 C 100.925 1038.279, 102 1040.210, 102 1040.519 C 102 1040.828, 102.964 1042.385, 104.142 1043.979 C 105.737 1046.135, 106.369 1048.655, 106.614 1053.831 C 106.852 1058.867, 107.633 1062.085, 109.445 1065.493 C 112.132 1070.547, 121.940 1082.844, 123.361 1082.941 C 123.835 1082.973, 126.374 1084.801, 129.004 1087.003 C 131.633 1089.205, 135.071 1091.569, 136.642 1092.257 C 138.214 1092.944, 140.625 1094.261, 142 1095.183 C 144.423 1096.807, 158.620 1099.353, 160.111 1098.431 C 161.242 1097.732, 166.010 1100.175, 165.410 1101.146 C 165.119 1101.616, 165.359 1102, 165.941 1102 C 166.523 1102, 167 1103.369, 167 1105.043 C 167 1106.717, 167.787 1110.766, 168.750 1114.042 L 170.500 1119.997 181.750 1119.999 C 192.334 1120, 193 1119.882, 193 1118 C 193 1116.900, 192.612 1116, 192.139 1116 C 191.665 1116, 191.493 1114.872, 191.756 1113.494 C 192.020 1112.116, 191.732 1110.382, 191.117 1109.641 C 190.502 1108.900, 189.706 1103.508, 189.348 1097.659 L 188.698 1087.024 193.855 1082.345 C 199.232 1077.468, 200.258 1075.203, 202.033 1064.294 C 202.571 1060.994, 202.543 1056.862, 201.963 1053.804 C 201.219 1049.880, 201.327 1048.175, 202.449 1046.130 C 206.572 1038.614, 209 1032.393, 209 1029.342 C 209 1025.851, 205.655 1018.578, 201.872 1013.844 C 199.039 1010.299, 199.198 1006.811, 202.412 1001.953 C 203.877 999.740, 204.806 997.496, 204.478 996.965 C 204.150 996.434, 204.359 996, 204.941 996 C 206.229 996, 206.368 988.345, 205.094 987.558 C 204.596 987.250, 204.399 986.191, 204.656 985.206 C 205.316 982.683, 198.715 971.365, 193.434 965.966 C 188.464 960.883, 188.571 961.166, 190.166 957.315 C 190.808 955.767, 191.386 954.275, 191.452 954 C 191.517 953.725, 192.200 952.375, 192.970 951 C 194.728 947.858, 194.669 936.087, 192.879 932.860 C 192.160 931.562, 191.528 930.275, 191.475 930 C 190.393 924.379, 181.344 913.579, 173.639 908.716 C 166.174 904.003, 164.813 903.336, 160.967 902.507 C 156.826 901.614, 151.954 899.246, 152.166 898.228 C 152.249 897.828, 152.039 896.825, 151.699 896 C 151.359 895.175, 150.634 891.350, 150.088 887.500 C 149.541 883.650, 147.910 874.425, 146.464 867 C 145.017 859.575, 143.197 849.225, 142.420 844 C 141.642 838.775, 140.711 833.825, 140.350 833 C 139.989 832.175, 139.624 831.050, 139.540 830.500 C 139.455 829.950, 139.120 828.825, 138.796 828 C 138.270 826.661, 131.330 791.139, 128.832 777 C 128.298 773.975, 127.595 770.825, 127.271 770 C 126.947 769.175, 126.770 768.115, 126.876 767.645 C 126.983 767.174, 126.619 766.246, 126.068 765.582 C 125.517 764.918, 124.134 758.778, 122.996 751.937 C 121.857 745.097, 120.223 735.450, 119.365 730.500 C 116.789 715.638, 116.756 715.269, 117.948 714.532 C 118.575 714.145, 120.306 714.642, 121.794 715.638 C 123.282 716.633, 124.725 717.467, 125 717.489 C 125.275 717.512, 125.989 717.842, 126.586 718.223 C 127.183 718.604, 132.705 720.711, 138.856 722.905 C 145.007 725.099, 151.718 727.815, 153.770 728.939 C 157.393 730.926, 172.363 736.512, 182.500 739.660 C 185.250 740.514, 188.400 741.711, 189.500 742.321 C 190.600 742.930, 191.725 743.486, 192 743.555 C 192.275 743.624, 194.300 744.448, 196.500 745.385 C 203.453 748.348, 204.333 748.712, 212.227 751.890 C 216.477 753.600, 220.640 755, 221.477 755 C 222.315 755, 223 755.477, 223 756.059 C 223 756.641, 223.450 756.840, 224 756.500 C 224.550 756.160, 225 756.328, 225 756.874 C 225 757.419, 226.012 758.173, 227.250 758.549 C 229.832 759.335, 244.797 765.434, 250 767.822 C 251.925 768.705, 253.950 769.476, 254.500 769.535 C 255.050 769.594, 257.300 770.442, 259.500 771.419 C 261.700 772.396, 265.750 774.019, 268.500 775.025 C 287.642 782.028, 287.215 781.695, 287.562 789.933 C 287.703 793.263, 288.308 799.028, 288.909 802.744 C 289.509 806.460, 290.454 815.350, 291.008 822.500 C 292.173 837.524, 294.132 852, 295 852 C 295.329 852, 295.414 853.581, 295.188 855.514 C 294.963 857.446, 295.251 859.598, 295.829 860.294 C 296.408 860.991, 297.349 866.048, 297.921 871.531 C 298.492 877.014, 299.366 882.885, 299.861 884.577 C 300.356 886.270, 301.086 891.445, 301.482 896.077 C 301.879 900.710, 303.014 908.512, 304.006 913.416 C 304.998 918.321, 305.556 922.994, 305.246 923.801 C 304.936 924.609, 301.852 926.553, 298.392 928.122 C 292.913 930.606, 291.973 931.439, 291.108 934.572 C 290.060 938.366, 291.071 942.789, 293.313 944.214 C 295.130 945.370, 301.459 945.141, 302.727 943.873 C 303.347 943.253, 304.916 943.013, 306.214 943.339 C 308.196 943.836, 308.555 944.526, 308.451 947.641 C 308.384 949.681, 308.904 952.509, 309.608 953.925 C 310.312 955.341, 311.369 960.550, 311.955 965.500 C 312.930 973.729, 314.760 985.818, 318.575 1009.250 C 319.359 1014.063, 320 1019.774, 320 1021.941 C 320 1024.109, 320.430 1026.148, 320.956 1026.473 C 321.482 1026.798, 321.657 1027.730, 321.344 1028.545 C 321.032 1029.359, 321.237 1030.582, 321.800 1031.263 C 322.981 1032.689, 324.596 1041.394, 325.555 1051.500 C 325.921 1055.350, 327.067 1062.100, 328.103 1066.500 C 329.139 1070.900, 329.989 1074.837, 329.993 1075.250 C 330.011 1077.132, 325.731 1080, 322.904 1080 C 321.202 1080, 318.477 1080.948, 316.849 1082.108 C 312.779 1085.006, 313.106 1089.878, 317.500 1091.795 C 319.150 1092.515, 321.175 1093.534, 322 1094.059 C 322.825 1094.585, 324.625 1095.505, 326 1096.104 C 332.611 1098.986, 334.898 1100.355, 334.412 1101.142 C 334.121 1101.614, 334.359 1102, 334.941 1102 C 335.523 1102, 336.004 1103.688, 336.009 1105.750 C 336.013 1107.813, 336.301 1111.862, 336.648 1114.750 L 337.279 1120 346.639 1120 C 351.791 1120, 356 1119.579, 356 1119.063 C 356 1118.548, 355.103 1114.386, 354.007 1109.813 C 351.172 1097.987, 351.338 1094.009, 354.805 1090.687 C 356.775 1088.799, 358.668 1088, 361.170 1088 C 365.047 1088, 369.501 1085.146, 370.491 1082.027 C 370.827 1080.971, 373.838 1078.239, 377.183 1075.955 C 384.874 1070.706, 387.928 1067.242, 387.968 1063.725 C 388.006 1060.392, 385.160 1059, 378.303 1059 C 371.066 1059, 365.614 1063.452, 357.725 1075.804 C 356.198 1078.194, 354.398 1079.966, 353.725 1079.742 C 353.052 1079.517, 351.699 1077.121, 350.718 1074.417 C 349.738 1071.713, 348.663 1068.825, 348.329 1068 C 347.996 1067.175, 347.816 1065.083, 347.929 1063.351 C 348.043 1061.619, 347.655 1059.905, 347.068 1059.542 C 346.481 1059.179, 346 1057.615, 346 1056.067 C 346 1054.518, 345.304 1051.282, 344.453 1048.876 C 343.603 1046.469, 342.469 1039.889, 341.933 1034.253 C 341.398 1028.617, 340.310 1021.417, 339.515 1018.253 C 338.721 1015.089, 337.617 1007.135, 337.063 1000.577 C 336.508 994.020, 335.628 988.228, 335.106 987.706 C 334.583 987.183, 334.412 986.091, 334.724 985.277 C 335.036 984.464, 334.842 983.506, 334.293 983.149 C 333.744 982.792, 332.543 976.425, 331.624 969 C 330.706 961.575, 329.249 951.288, 328.387 946.141 C 327.470 940.668, 327.189 936.411, 327.709 935.891 C 328.631 934.969, 354.253 936.552, 357 937.700 C 357.825 938.045, 358.800 938.366, 359.167 938.414 C 359.533 938.461, 360.171 938.837, 360.583 939.250 C 361.581 940.247, 367.165 940.182, 368.785 939.154 C 371.232 937.602, 371.422 931.419, 369.137 927.722 C 367.338 924.811, 365.908 923.989, 359.267 922.050 C 349.621 919.234, 336.011 918.909, 331.230 921.381 C 325.032 924.586, 323 923.278, 323 916.085 C 323 914.022, 322.681 912.014, 322.291 911.624 C 321.901 911.234, 321.712 909.111, 321.871 906.906 C 322.030 904.702, 321.739 902.359, 321.224 901.699 C 319.729 899.783, 318.163 892.143, 317.494 883.500 C 317.154 879.100, 316.028 869.875, 314.991 863 C 313.955 856.125, 312.398 845.133, 311.530 838.574 C 310.663 832.015, 309.518 826.124, 308.985 825.482 C 308.453 824.841, 308.303 824.031, 308.651 823.682 C 309 823.334, 308.821 822.475, 308.255 821.774 C 307.688 821.073, 306.227 814.650, 305.007 807.500 C 303.788 800.350, 302.164 792.726, 301.400 790.559 C 300.102 786.876, 300.153 786.467, 302.176 784.313 C 303.367 783.045, 304.561 782.227, 304.829 782.495 C 305.097 782.763, 305.807 782.581, 306.408 782.090 C 307.009 781.599, 311.100 780.658, 315.500 779.998 C 319.900 779.338, 329.350 777.746, 336.500 776.460 C 343.650 775.174, 352.200 773.840, 355.500 773.496 C 362.412 772.775, 371.812 771.150, 374 770.297 C 374.825 769.976, 376.738 769.811, 378.250 769.932 C 379.762 770.052, 381 769.759, 381 769.280 C 381 768.068, 400.958 765.558, 402.034 766.634 C 402.524 767.124, 402.503 769.241, 401.986 771.501 C 401.424 773.954, 401.437 777.820, 402.019 781.500 C 402.540 784.800, 403.394 790.806, 403.916 794.847 C 404.507 799.424, 405.544 802.944, 406.666 804.184 C 408.232 805.914, 408.429 807.763, 408.171 818.337 C 407.874 830.540, 410.156 851.209, 411.865 851.785 C 412.329 851.942, 412.497 853.182, 412.237 854.541 C 411.977 855.900, 412.215 857.571, 412.766 858.256 C 413.317 858.940, 414.301 862.875, 414.954 867 C 416.957 879.660, 418.883 889.560, 419.835 892.089 C 420.334 893.415, 420.527 895.947, 420.263 897.715 C 419.518 902.708, 421.980 917.753, 423.937 920.171 C 425.221 921.756, 426.313 922.138, 428.205 921.663 C 433.361 920.369, 434.181 912.435, 430.443 900 C 429.534 896.975, 428.431 889.691, 427.994 883.814 C 427.556 877.937, 426.836 872.543, 426.394 871.829 C 425.952 871.114, 425.713 869.105, 425.863 867.365 C 426.013 865.626, 425.655 863.905, 425.068 863.542 C 424.438 863.153, 424 859.171, 424 853.835 C 424 848.860, 423.340 842.240, 422.532 839.124 C 421.725 836.009, 420.661 829.072, 420.168 823.709 C 419.587 817.388, 418.727 813.350, 417.723 812.229 C 416.502 810.866, 416.158 807.740, 416.096 797.458 C 416.006 782.581, 415.005 775.768, 412.501 773.001 C 410.098 770.346, 411.256 768, 414.969 768 C 416.636 768, 418 768.477, 418 769.059 C 418 769.641, 418.450 769.840, 419 769.500 C 419.550 769.160, 420 769.359, 420 769.941 C 420 770.523, 420.585 771, 421.299 771 C 422.014 771, 428.876 773.025, 436.549 775.500 C 444.222 777.975, 451.962 780.275, 453.750 780.611 C 455.537 780.947, 457 781.649, 457 782.170 C 457 782.692, 457.450 782.840, 458 782.500 C 458.550 782.160, 459 782.359, 459 782.941 C 459 783.523, 459.649 784, 460.443 784 C 462.070 784, 482.420 790.485, 485.500 791.985 C 487.627 793.020, 493.164 795.266, 494 795.432 C 494.275 795.486, 494.954 795.821, 495.509 796.176 C 496.064 796.530, 499.439 797.564, 503.009 798.472 C 506.579 799.381, 510.063 800.857, 510.750 801.753 C 511.542 802.785, 512 806.762, 512 812.603 C 512 817.675, 512.675 825.351, 513.500 829.662 C 514.325 833.973, 515 839.787, 515 842.583 C 515 845.379, 515.303 847.970, 515.674 848.341 C 516.044 848.711, 516.237 851.738, 516.101 855.067 C 515.965 858.395, 516.293 861.655, 516.830 862.309 C 517.805 863.499, 519.969 881.956, 522.012 906.500 C 522.607 913.650, 523.509 922.200, 524.015 925.500 C 524.522 928.800, 525.471 938.250, 526.123 946.500 C 526.776 954.750, 527.763 962.625, 528.316 964 C 528.870 965.375, 529.235 966.885, 529.126 967.355 C 529.018 967.826, 529.346 968.726, 529.854 969.355 C 530.363 969.985, 531.079 975.225, 531.446 981 C 531.813 986.775, 532.761 994.875, 533.552 999 C 535.221 1007.699, 535.721 1021.690, 534.574 1027.594 C 533.903 1031.049, 534.162 1032.299, 536.231 1035.594 C 538.359 1038.984, 538.849 1041.546, 539.937 1055 C 540.627 1063.525, 541.654 1071.063, 542.218 1071.750 C 542.783 1072.437, 542.910 1073, 542.500 1073 C 542.090 1073, 542.269 1073.619, 542.897 1074.376 C 543.525 1075.133, 544.700 1082.896, 545.507 1091.626 C 546.313 1100.357, 547.430 1109.072, 547.987 1110.993 C 548.544 1112.915, 549 1115.727, 549 1117.243 L 549 1120 558 1120 L 567 1120 567 1116.106 C 567 1109.713, 565.005 1091.736, 563.920 1088.349 C 563.365 1086.616, 562.511 1080.287, 562.023 1074.285 C 561.535 1068.282, 560.403 1059.754, 559.507 1055.333 C 558.611 1050.911, 558.018 1045.164, 558.189 1042.560 L 558.500 1037.826 564.635 1035.175 C 571.411 1032.247, 573.742 1028.656, 572.510 1023.044 C 571.574 1018.784, 569.643 1017.708, 563.103 1017.800 C 553.379 1017.938, 553.019 1017.187, 551.443 993.500 C 551.114 988.550, 550.219 980.900, 549.455 976.500 C 548.690 972.100, 547.591 962.200, 547.012 954.500 C 546.032 941.468, 544.552 930.540, 543.286 927 C 542.991 926.175, 542.837 923.408, 542.944 920.852 C 543.050 918.295, 542.657 915.906, 542.069 915.542 C 541.481 915.179, 541 913.392, 541 911.572 C 541 909.751, 540.337 904.462, 539.527 899.817 C 538.717 895.173, 537.596 885.339, 537.034 877.963 C 536.473 870.588, 535.368 860.942, 534.578 856.527 C 533.789 852.112, 532.713 844.467, 532.187 839.539 C 531.662 834.610, 530.727 830.409, 530.110 830.203 C 529.492 829.997, 529.273 829.367, 529.622 828.803 C 529.971 828.238, 529.756 827.467, 529.144 827.089 C 528.532 826.711, 527.632 822.374, 527.142 817.451 C 526.653 812.528, 525.649 807.044, 524.912 805.264 C 523.185 801.092, 523.996 800.357, 531.696 799.122 C 535.103 798.576, 538.928 797.553, 540.196 796.850 C 541.463 796.146, 542.725 795.517, 543 795.452 C 543.275 795.386, 544.850 794.775, 546.500 794.094 C 548.150 793.412, 554 791.744, 559.500 790.386 C 565 789.028, 571.750 787.238, 574.500 786.410 C 577.250 785.581, 581.525 784.661, 584 784.366 C 586.475 784.071, 589.175 783.574, 590 783.262 C 590.825 782.949, 591.950 782.625, 592.500 782.542 C 593.050 782.459, 594.720 781.871, 596.211 781.235 C 597.702 780.599, 602.652 779.370, 607.211 778.503 C 611.770 777.636, 618.650 776.017, 622.500 774.905 C 626.350 773.793, 632.425 772.224, 636 771.419 C 639.575 770.614, 643.906 769.296, 645.624 768.491 C 647.343 767.685, 652.039 766.333, 656.061 765.487 C 660.082 764.641, 668.423 762.611, 674.596 760.975 C 680.769 759.339, 687.098 757.997, 688.660 757.994 C 690.222 757.990, 692.625 757.406, 694 756.694 C 698.507 754.362, 734.073 745.922, 739.143 745.981 C 741.389 746.007, 742 748.060, 742 755.581 C 742 759.111, 742.651 765.937, 743.448 770.750 C 744.244 775.562, 745.378 789.850, 745.969 802.500 C 747.012 824.865, 748.594 843.954, 749.655 847 C 749.943 847.825, 750.114 853.825, 750.036 860.334 C 749.958 866.843, 750.309 872.693, 750.815 873.334 C 751.322 873.975, 752.048 880.345, 752.430 887.488 C 752.811 894.632, 753.553 902.507, 754.079 904.988 C 755.128 909.940, 756.871 941.745, 756.203 943.750 C 755.946 944.521, 753.926 945, 750.928 945 C 748.256 945, 744.142 945.623, 741.785 946.385 C 739.428 947.147, 735.342 948.283, 732.704 948.911 C 722.423 951.357, 704.347 964.181, 702.361 970.437 C 702.006 971.557, 700.546 974.239, 699.118 976.397 C 696.774 979.939, 696.522 981.258, 696.522 989.947 C 696.522 999.394, 696.591 999.677, 700.261 1005.206 C 702.317 1008.304, 704 1011.310, 704 1011.885 C 704 1012.460, 702.622 1014.500, 700.938 1016.417 C 697.204 1020.670, 693.416 1027.966, 692.553 1032.569 C 692.201 1034.447, 691.905 1039.534, 691.895 1043.873 C 691.873 1054.051, 694.266 1059.463, 701.093 1064.669 C 706.601 1068.869, 706.564 1068.739, 704.500 1076.661 C 701.176 1089.425, 703.846 1097.606, 715.093 1109.114 C 719.270 1113.387, 723.882 1117.183, 725.343 1117.550 C 726.804 1117.917, 728 1118.618, 728 1119.108 C 728 1119.609, 740.062 1120, 755.500 1120 C 774.034 1120, 783 1119.658, 783 1118.950 C 783 1114.825, 775.398 1106.886, 769.836 1105.202 C 766.696 1104.252, 751.288 1101.737, 740.755 1100.456 C 734.967 1099.752, 730.991 1096.640, 728.145 1090.585 C 727 1088.150, 725.626 1085.887, 725.091 1085.556 C 723.147 1084.355, 727.523 1078.835, 732.500 1076.212 C 736.944 1073.870, 738.872 1073.533, 749.838 1073.183 C 757.696 1072.932, 763.759 1073.233, 766.535 1074.010 C 770.429 1075.100, 771.362 1075.003, 775.291 1073.101 C 780.404 1070.626, 782.902 1065.475, 781.178 1060.958 C 779.744 1057.202, 773.210 1053.163, 766.451 1051.854 C 756.608 1049.949, 737.405 1050.216, 731.252 1052.344 C 725.231 1054.427, 721.716 1053.968, 717.863 1050.597 C 710.520 1044.173, 711.282 1034.908, 719.807 1026.965 C 726.538 1020.694, 748.188 1016.775, 763.441 1019.066 C 779.103 1021.418, 779.357 1021.412, 782.702 1018.597 C 786.304 1015.567, 787.279 1011.891, 785.813 1006.865 C 783.963 1000.525, 773.285 996.741, 753.500 995.416 C 745.477 994.879, 742.215 995.098, 737 996.522 C 725.950 999.539, 723.466 999.557, 720.554 996.645 C 716.731 992.822, 716.931 985.620, 721.003 980.496 C 724.228 976.439, 733.428 970, 736.001 970 C 736.864 970, 740.123 969.103, 743.243 968.006 C 748.918 966.011, 775.693 963.694, 776.575 965.121 C 776.794 965.476, 779.567 966.076, 782.737 966.454 C 785.907 966.832, 790.719 967.784, 793.432 968.571 C 796.144 969.357, 799.463 970, 800.806 970 C 803.194 970, 813.019 973.749, 818 976.562 C 819.375 977.338, 822.461 978.922, 824.857 980.081 C 829.474 982.314, 838 990.472, 838 992.656 C 838 993.370, 839.107 994.680, 840.461 995.566 C 841.815 996.453, 843.226 998.151, 843.598 999.339 C 843.970 1000.528, 845.337 1002.772, 846.637 1004.327 C 847.937 1005.881, 849 1007.646, 849 1008.248 C 849 1008.850, 849.748 1010.169, 850.661 1011.178 C 852.366 1013.062, 853.041 1014.087, 856.500 1020.039 C 858.978 1024.303, 864.792 1030.106, 866.345 1029.864 C 866.980 1029.765, 868.175 1029.922, 869 1030.213 C 872.701 1031.516, 887.943 1034.009, 892.188 1034.005 C 894.766 1034.002, 899.716 1034.636, 903.188 1035.414 C 906.660 1036.191, 915.575 1037.329, 923 1037.943 C 937.823 1039.168, 947.845 1040.775, 949.699 1042.224 C 950.359 1042.739, 952.621 1043.036, 954.727 1042.884 C 956.833 1042.732, 958.993 1042.867, 959.528 1043.184 C 960.063 1043.501, 964.783 1044.073, 970.019 1044.456 C 978.689 1045.090, 979.768 1044.970, 982.133 1043.110 C 983.561 1041.987, 985.289 1039.716, 985.974 1038.063 C 987.045 1035.476, 986.954 1034.603, 985.314 1031.779 C 981.416 1025.064, 971.098 1021.851, 945.830 1019.483 C 941.499 1019.077, 938.971 1018.367, 938.623 1017.459 C 938.327 1016.689, 937.998 1010.784, 937.891 1004.336 C 937.665 990.642, 937.579 990.768, 949.029 987.861 C 980.706 979.816, 1047.011 981.141, 1065.655 990.190 C 1066.840 990.765, 1068.264 990.955, 1068.819 990.612 C 1069.375 990.268, 1069.980 990.370, 1070.165 990.838 C 1070.349 991.306, 1071.850 992.326, 1073.500 993.105 C 1076.296 994.424, 1076.545 994.995, 1077.158 1001.510 C 1078.912 1020.137, 1077.997 1067.907, 1075.834 1070.645 C 1075.337 1071.274, 1075.017 1072.174, 1075.124 1072.645 C 1075.230 1073.115, 1075.044 1074.175, 1074.710 1075 C 1074.376 1075.825, 1073.632 1080.549, 1073.057 1085.498 C 1071.784 1096.455, 1069.522 1106.811, 1066.935 1113.519 C 1065.871 1116.280, 1065 1118.867, 1065 1119.269 C 1065 1119.671, 1070.546 1120, 1077.325 1120 L 1089.650 1120 1092.271 1107.750 C 1098.682 1077.779, 1100.216 1061.617, 1099.871 1027.668 L 1099.650 1005.837 1104.351 1001.818 C 1110.628 996.453, 1111.998 993.498, 1112.010 985.300 C 1112.032 969.469, 1104.579 915.608, 1101.924 912.408 C 1101.425 911.807, 1101.303 911.031, 1101.651 910.682 C 1102 910.334, 1101.820 909.475, 1101.251 908.774 C 1100.682 908.073, 1099.684 904.800, 1099.032 901.500 C 1098.380 898.200, 1097.156 893.025, 1096.312 890 C 1093.281 879.145, 1089.717 867.482, 1089.129 866.500 C 1088.800 865.950, 1088.496 865.275, 1088.455 865 C 1088.413 864.725, 1087.580 862.700, 1086.603 860.500 C 1085.627 858.300, 1083.493 852.918, 1081.861 848.539 C 1080.230 844.161, 1078.516 840.111, 1078.053 839.539 C 1077.589 838.968, 1075.058 834.450, 1072.428 829.500 C 1065.989 817.381, 1063.195 813.012, 1061.457 812.345 C 1060.656 812.038, 1060 811.249, 1060 810.593 C 1060 809.937, 1057.889 806.498, 1055.310 802.950 C 1043.200 786.296, 1025.564 767.515, 1012.392 757.245 C 1010.801 756.005, 1008.150 753.927, 1006.500 752.628 C 1004.850 751.328, 1001.025 748.990, 998 747.433 C 994.975 745.876, 992.169 744.129, 991.765 743.551 C 991.306 742.894, 991.013 742.875, 990.985 743.500 C 990.960 744.050, 990.499 743.746, 989.962 742.825 C 989.424 741.904, 987.301 740.608, 985.242 739.945 C 983.184 739.282, 980.941 738.295, 980.257 737.753 C 978.518 736.373, 966.715 730.613, 965.500 730.551 C 964.950 730.523, 964.275 730.275, 964 730 C 963.238 729.238, 957.611 727.220, 945.500 723.367 C 939.450 721.442, 933.375 719.367, 932 718.755 C 930.625 718.143, 929.275 717.573, 929 717.488 C 928.725 717.402, 927.233 716.808, 925.685 716.166 C 924.137 715.525, 921.856 715, 920.616 715 C 919.377 715, 916.096 714.327, 913.326 713.504 C 906.415 711.452, 879.666 706, 876.507 706 C 870.995 706, 872.553 703.189, 885.881 689.089 C 897.949 676.321, 903.953 667.778, 903.990 663.324 C 903.996 662.677, 906.492 660.928, 909.539 659.437 C 918.674 654.968, 926.135 644.233, 927.910 633.005 C 928.398 629.920, 929.455 627.369, 930.606 626.497 C 932.788 624.846, 938.586 624.522, 939.500 626 C 940.304 627.301, 948.696 627.301, 949.500 626 C 949.840 625.450, 951.554 624.995, 953.309 624.988 C 959.407 624.965, 973.684 620.129, 980.645 615.728 C 986.521 612.013, 995.302 604.726, 1000.546 599.213 C 1008.993 590.332, 1019.180 570.481, 1021.181 559 C 1021.708 555.975, 1022.420 552.825, 1022.763 552 C 1023.105 551.175, 1023.455 550.050, 1023.540 549.500 C 1023.624 548.950, 1024.100 547.600, 1024.597 546.500 C 1026.006 543.381, 1025.750 517.750, 1024.305 517.268 C 1023.649 517.050, 1023.362 516.219, 1023.668 515.423 C 1023.974 514.626, 1023.786 513.418, 1023.251 512.737 C 1022.715 512.057, 1022.033 509.906, 1021.735 507.957 C 1020.776 501.693, 1015.169 491.474, 1008.992 484.732 C 1005.696 481.136, 1003 477.763, 1003 477.237 C 1003 476.712, 1004.712 474.306, 1006.804 471.891 C 1011.961 465.939, 1015.244 459.964, 1018.373 450.832 C 1020.596 444.343, 1021 441.443, 1021 431.966 C 1021 423.992, 1020.513 419.397, 1019.308 416.005 L 1017.617 411.242 1024.327 403.890 C 1028.018 399.846, 1031.570 395.066, 1032.220 393.269 C 1032.870 391.471, 1033.761 390, 1034.201 390 C 1034.640 390, 1035 389.132, 1035 388.071 C 1035 387.011, 1035.588 385.548, 1036.306 384.821 C 1037.864 383.245, 1040.609 373.486, 1041.458 366.500 C 1042.192 360.468, 1040.623 347.426, 1038.573 342.520 C 1037.756 340.564, 1036.989 338.634, 1036.870 338.232 C 1036.751 337.829, 1035.381 335.343, 1033.827 332.706 C 1032.272 330.069, 1031 327.629, 1031 327.284 C 1031 326.938, 1028.675 323.982, 1025.833 320.715 C 1019.738 313.707, 1019.490 311.826, 1023.550 303.449 C 1026.177 298.027, 1026.467 296.351, 1026.822 284.541 C 1027.212 271.562, 1025.614 257, 1023.800 257 C 1023.295 257, 1023.149 256.568, 1023.475 256.041 C 1023.801 255.513, 1023.639 254.276, 1023.114 253.291 C 1022.590 252.306, 1021.177 249.475, 1019.974 247 C 1018.771 244.525, 1016.485 240.565, 1014.893 238.200 C 1013.302 235.835, 1012 233.766, 1012 233.602 C 1012 232.957, 1000.651 222, 999.983 222 C 999.591 222, 997.994 220.996, 996.434 219.770 C 992.391 216.589, 984.469 213.093, 979.637 212.357 C 977.362 212.011, 974.948 211.292, 974.274 210.761 C 973.600 210.230, 970.994 209.958, 968.483 210.158 C 963.162 210.581, 963.280 210.818, 962.700 198.500 C 962.466 193.538, 961.620 188.981, 960.472 186.500 C 959.454 184.300, 958.594 182.200, 958.561 181.833 C 958.527 181.467, 958.163 180.829, 957.750 180.417 C 957.337 180.004, 957 178.951, 957 178.075 C 957 171.351, 938.156 148.674, 928.076 143.267 C 926.109 142.212, 923.600 140.872, 922.500 140.288 C 918.529 138.182, 906.918 134, 905.039 134 C 903.983 134, 902.813 133.507, 902.441 132.904 C 902.068 132.301, 900.447 132.001, 898.838 132.237 C 897.228 132.473, 895.680 132.292, 895.397 131.833 C 895.114 131.375, 891.560 131, 887.500 131 C 883.440 131, 879.886 131.375, 879.603 131.833 C 879.320 132.292, 877.718 132.465, 876.044 132.220 C 874.207 131.950, 873 132.215, 873 132.887 C 873 133.499, 871.987 134.003, 870.750 134.007 C 869.513 134.010, 867.150 134.907, 865.500 136 C 861.190 138.854, 860.217 138.521, 858.934 133.750 C 858.305 131.412, 857.069 128.150, 856.187 126.500 C 855.305 124.850, 854.565 123.257, 854.542 122.960 C 854.297 119.811, 834.237 99.458, 826.500 94.509 C 817.816 88.955, 807.136 85, 800.822 85 C 795.661 85, 791.657 83.336, 792.367 81.486 C 792.857 80.209, 790.642 80, 776.585 80 C 761.321 80, 760.200 80.127, 759.733 81.914 M 768.135 103.539 C 766.285 104.343, 763.724 105, 762.444 105 C 761.165 105, 759.822 105.479, 759.460 106.065 C 759.098 106.651, 757.609 107.036, 756.151 106.921 C 752.836 106.661, 746.968 109.015, 736.018 115 C 732.556 116.892, 720.312 129.497, 718.463 133.071 C 717.699 134.549, 716.382 136.023, 715.537 136.347 C 713.772 137.025, 713.456 141.546, 715.103 142.564 C 715.721 142.946, 719.346 140.213, 723.353 136.343 C 730.394 129.542, 736.148 125, 737.723 125 C 738.165 125, 740.771 123.522, 743.513 121.716 C 752.996 115.471, 760.744 113.521, 776 113.541 C 787.794 113.556, 790.116 113.839, 794.377 115.779 C 797.060 117.001, 800.007 118, 800.927 118 C 801.847 118, 803.140 118.540, 803.800 119.200 C 804.460 119.860, 805 120.095, 805 119.722 C 805 119.349, 807.113 120.384, 809.696 122.022 C 812.278 123.660, 814.772 125, 815.238 125 C 815.704 125, 816.628 125.444, 817.292 125.987 C 829.752 136.167, 833.607 140.482, 835.546 146.418 C 836.071 148.023, 837.063 149.523, 837.750 149.752 C 839.992 150.496, 839.185 142.646, 836.500 137.596 C 835.125 135.010, 833.993 132.355, 833.986 131.697 C 833.972 130.597, 831.443 127.812, 822.750 119.328 C 819.044 115.711, 811.919 111.621, 807.500 110.575 C 805.850 110.184, 803.375 109.129, 802 108.230 C 800.625 107.331, 798.307 106.716, 796.849 106.863 C 795.391 107.010, 793.902 106.651, 793.540 106.065 C 793.178 105.479, 791.390 105, 789.567 105 C 787.743 105, 784.338 104.325, 782 103.500 C 776.717 101.636, 772.492 101.648, 768.135 103.539 M 645.500 110.232 C 641.100 110.740, 635.622 111.819, 633.327 112.631 C 624.154 115.875, 610.902 126.576, 605.420 135.166 C 604.134 137.182, 602.639 139.105, 602.098 139.439 C 601.558 139.773, 600.810 142.174, 600.435 144.773 C 600.061 147.373, 599.107 150.242, 598.315 151.148 C 597.397 152.198, 596.995 154.373, 597.206 157.148 L 597.536 161.500 598.857 157 C 599.584 154.525, 600.972 151.600, 601.940 150.500 C 602.909 149.400, 603.964 147.754, 604.284 146.842 C 605.180 144.290, 617.110 129, 618.204 129 C 618.737 129, 621.047 127.717, 623.337 126.148 C 628.330 122.728, 633.311 119.594, 634 119.440 C 634.275 119.378, 635.175 119.050, 636 118.710 C 644.483 115.220, 649.106 114.500, 663 114.506 C 676.243 114.511, 677.933 114.719, 682.500 116.912 C 685.250 118.232, 687.789 119.258, 688.143 119.192 C 688.496 119.126, 689.982 120.180, 691.444 121.536 C 694.435 124.308, 697 124.753, 697 122.500 C 697 121.675, 696.502 121, 695.894 121 C 695.286 121, 693.916 119.892, 692.851 118.537 C 691.778 117.174, 689.364 115.784, 687.443 115.423 C 685.534 115.065, 683.578 114.068, 683.096 113.207 C 682.464 112.077, 679.197 111.287, 671.360 110.369 C 659.158 108.939, 656.821 108.926, 645.500 110.232 M 536.500 154.950 C 530.127 156.533, 509 170.069, 509 172.569 C 509 173.222, 508.251 174.373, 507.334 175.128 C 504.207 177.705, 499.198 186.590, 496.553 194.254 C 494.445 200.361, 493.970 203.385, 494.205 209.205 C 494.367 213.217, 494.930 216.500, 495.455 216.500 C 495.980 216.500, 496.982 213.673, 497.681 210.218 C 499.001 203.696, 501.110 198.865, 507.271 188.242 C 511.378 181.161, 517 174.045, 518.509 174.018 C 519.065 174.008, 520.094 173.079, 520.797 171.954 C 522.079 169.901, 541.631 160, 544.404 160 C 545.217 160, 546.160 159.550, 546.500 159 C 546.840 158.450, 550.215 158, 554 158 C 557.785 158, 561.160 158.450, 561.500 159 C 561.840 159.550, 563.443 160, 565.063 160 C 566.682 160, 569.686 160.900, 571.739 162 C 578.033 165.373, 581.728 163.780, 577 159.732 C 575.900 158.790, 575 158.326, 575 158.701 C 575 159.076, 574.438 158.651, 573.750 157.758 C 573.063 156.864, 569.830 155.653, 566.566 155.066 C 559.936 153.875, 541.122 153.802, 536.500 154.950 M 874.658 155.098 C 866.288 156.320, 859 160.969, 859 165.084 C 859 167.771, 861.180 167.959, 868.573 165.909 C 878.090 163.270, 886.751 163.467, 896.379 166.542 C 900.712 167.925, 905.386 169.945, 906.764 171.029 C 908.142 172.113, 909.852 173, 910.563 173 C 911.275 173, 912.462 173.605, 913.201 174.344 C 913.940 175.083, 916.447 176.888, 918.771 178.356 C 925.834 182.814, 933.991 195.703, 937.406 207.798 C 939.200 214.157, 940.511 212.506, 940.420 204 C 940.339 196.343, 936.673 183.950, 933.367 180.153 C 929.889 176.159, 927 172.140, 927 171.294 C 927 169.753, 918.772 164.098, 912 160.984 C 910.625 160.352, 907.905 159.012, 905.956 158.006 C 898.897 154.364, 887.150 153.272, 874.658 155.098 M 952 233.192 C 950.075 233.748, 946.362 233.954, 943.750 233.649 C 938.842 233.076, 937.980 233.839, 939.974 236.992 C 940.725 238.180, 941.170 238.230, 942.158 237.242 C 943.634 235.766, 953 235.558, 953 237 C 953 237.550, 954.688 238.006, 956.750 238.013 C 961.634 238.030, 972.493 241.456, 975.729 244.002 C 977.126 245.101, 978.814 246, 979.478 246 C 981.536 246, 992.547 257.450, 994.957 262.095 C 996.214 264.518, 998.053 268.009, 999.045 269.853 C 1000.054 271.729, 1001.137 276.575, 1001.504 280.853 C 1002.400 291.320, 1002.762 292.442, 1004.719 290.818 C 1006.013 289.744, 1006.163 287.906, 1005.627 279.713 C 1005.273 274.313, 1004.272 268.231, 1003.402 266.198 C 1002.532 264.164, 1001.258 260.681, 1000.571 258.458 C 998.776 252.652, 990.750 242.816, 983.873 237.992 C 979.290 234.777, 976.553 233.639, 971.728 232.941 C 963.847 231.801, 956.489 231.895, 952 233.192 M 474.570 235.886 C 474.132 236.595, 472.925 236.952, 471.887 236.681 C 470.849 236.409, 470 236.595, 470 237.094 C 470 237.592, 469.059 238, 467.908 238 C 462.086 238, 446.082 254.471, 444.553 262.036 C 444.168 263.941, 442.986 268.089, 441.926 271.254 C 439.856 277.438, 439.393 287.272, 440.975 291.435 C 442.566 295.620, 443.673 294.396, 444.309 287.750 C 445.207 278.368, 448.381 266.913, 451.608 261.405 C 455.451 254.844, 466.836 243.384, 471.408 241.474 C 475.120 239.923, 476.533 238.099, 475.777 235.832 C 475.458 234.874, 475.189 234.886, 474.570 235.886 M 604.801 253.750 C 603.972 254.713, 602.711 258.334, 602 261.799 C 600.305 270.049, 594.694 277.481, 581.500 288.954 C 578.149 291.867, 570.439 295.695, 566.395 296.454 C 564.291 296.849, 561.338 297.808, 559.834 298.586 C 558.330 299.364, 555.979 300, 554.609 300 C 553.239 300, 551.840 300.450, 551.500 301 C 551.160 301.550, 549.810 302, 548.500 302 C 547.190 302, 545.840 301.550, 545.500 301 C 545.160 300.450, 543.905 300, 542.710 300 C 541.516 300, 538.211 299.035, 535.366 297.856 C 527.998 294.802, 527.009 295.491, 526.956 303.719 C 526.932 307.448, 526.230 312.300, 525.396 314.500 C 524.561 316.700, 523.422 320.010, 522.863 321.855 C 522.305 323.700, 521.009 326.703, 519.983 328.529 C 517.964 332.125, 509.191 340.646, 507.899 340.268 C 507.462 340.140, 505.475 341.573, 503.482 343.453 C 500.072 346.669, 499.897 347.132, 500.525 351.315 C 500.891 353.760, 500.651 359.077, 499.992 363.130 C 499.332 367.184, 498.479 375, 498.097 380.500 C 497.674 386.589, 496.743 391.818, 495.718 393.869 C 494.341 396.625, 493.912 401.760, 493.359 422.090 C 492.736 445.026, 492.816 446.992, 494.402 447.601 C 495.536 448.036, 497.096 447.324, 498.998 445.502 C 503.502 441.187, 512.368 437.993, 522.500 437.037 C 527.450 436.569, 537.281 435.633, 544.347 434.957 C 567.416 432.750, 602.151 437.853, 610.327 444.650 C 611.881 445.943, 613.739 447, 614.454 447 C 615.170 447, 616.337 447.701, 617.048 448.558 C 617.759 449.415, 619.727 450.703, 621.420 451.422 C 623.170 452.164, 625.580 454.540, 627 456.923 C 634.092 468.822, 635.693 470.297, 639.166 468.128 C 642.731 465.902, 661.336 464.559, 672.840 465.698 C 681.344 466.539, 683.603 467.146, 687 469.500 C 692.165 473.079, 695.390 472.064, 696.428 466.534 C 696.911 463.955, 697.814 462.641, 699.554 461.980 C 700.899 461.468, 702 460.417, 702 459.643 C 702 456.995, 715.690 448.293, 722.550 446.581 C 724.173 446.176, 726.292 445.131, 727.259 444.259 C 728.486 443.153, 733.177 442.255, 742.759 441.292 C 769.823 438.572, 804.230 440.166, 813.688 444.579 C 816.542 445.911, 819.604 447, 820.493 447 C 822.220 447, 829.562 449.969, 834.500 452.664 C 836.150 453.565, 838.738 454.942, 840.250 455.724 C 843.146 457.222, 853.097 467.966, 855.936 472.659 L 857.605 475.419 881.640 475.758 C 902.665 476.054, 905.840 475.898, 906.995 474.506 C 907.995 473.301, 908.034 472.634, 907.158 471.758 C 905.741 470.341, 905.609 463, 907 463 C 908.890 463, 907.997 459.346, 905.544 457.041 C 899.887 451.727, 897.920 447.554, 897.063 439.046 C 896.061 429.110, 897.362 416.198, 899.869 411.184 C 900.882 409.158, 901.988 406.046, 902.327 404.268 C 902.908 401.220, 902.617 400.814, 897.221 397.146 C 889.388 391.819, 879.098 380.244, 877.536 375 C 877.127 373.625, 876.051 371.375, 875.146 370 C 872.665 366.232, 872.746 340.563, 875.250 336.741 C 878.928 331.128, 878.060 330.453, 867.207 330.478 C 859.489 330.495, 856.840 330.124, 854.707 328.727 C 853.218 327.752, 852 327.178, 852 327.452 C 852 329.045, 835.638 319.010, 831.164 314.673 C 825.391 309.077, 820.013 301.936, 819.978 299.820 C 819.966 299.094, 818.978 296.475, 817.783 294 C 816.588 291.525, 815.542 289.050, 815.458 288.500 C 815.375 287.950, 814.942 286.653, 814.496 285.618 C 814.006 284.481, 814.166 282.964, 814.900 281.789 C 815.835 280.292, 815.843 279.516, 814.935 278.422 C 813.214 276.348, 810.834 276.672, 807 279.500 C 805.136 280.875, 802.905 282, 802.041 282 C 801.177 282, 798.716 282.940, 796.573 284.089 C 794.429 285.238, 790.260 286.427, 787.308 286.732 C 784.356 287.037, 781.703 287.672, 781.412 288.143 C 780.719 289.263, 763.279 289.260, 762.586 288.140 C 762.294 287.666, 759.975 286.994, 757.433 286.646 C 745.990 285.077, 732.589 275.391, 724.304 262.700 L 719.760 255.739 715.734 260.449 C 711.923 264.908, 706.954 268.792, 701.111 271.879 C 699.675 272.638, 697.600 274.052, 696.500 275.021 C 695.400 275.991, 692.925 277.091, 691 277.466 C 689.075 277.841, 684.825 279.044, 681.555 280.140 C 674.702 282.437, 655.309 283.059, 648.500 281.201 C 636.648 277.966, 633.691 276.411, 623.051 267.819 C 616.991 262.926, 614.638 260.266, 611.797 255.098 C 609.886 251.623, 607.098 251.086, 604.801 253.750 M 1006 336.326 C 1006 337.055, 1007.105 338.690, 1008.456 339.958 C 1009.806 341.227, 1010.859 342.543, 1010.794 342.883 C 1010.537 344.236, 1013.015 349, 1013.975 349 C 1016.040 349, 1014.919 344.173, 1012 340.500 C 1010.350 338.424, 1009 336.337, 1009 335.862 C 1009 335.388, 1008.325 335, 1007.500 335 C 1006.675 335, 1006 335.597, 1006 336.326 M 1016 358.375 C 1016 361.881, 1016.300 366.248, 1016.666 368.078 C 1017.229 370.896, 1017.448 371.107, 1018.095 369.453 C 1019.721 365.298, 1018.791 352, 1016.875 352 C 1016.394 352, 1016 354.869, 1016 358.375 M 560.942 388.922 C 559.534 389.363, 557.284 390.324, 555.942 391.056 C 554.599 391.788, 552.263 392.266, 550.750 392.118 C 549.237 391.970, 548 392.333, 548 392.925 C 548 393.516, 547.068 394, 545.928 394 C 542.849 394, 535.622 398.570, 531.519 403.111 C 524.746 410.608, 524.562 413.643, 530.464 420.491 C 533.779 424.337, 534.120 424.479, 539.838 424.401 C 543.847 424.347, 547.117 423.620, 549.917 422.160 C 552.196 420.972, 554.873 420, 555.864 420 C 556.856 420, 557.986 419.681, 558.376 419.291 C 558.766 418.901, 560.820 418.707, 562.941 418.860 C 565.061 419.013, 567.094 418.657, 567.457 418.069 C 568.321 416.672, 574 416.679, 574 418.077 C 574 418.669, 575.462 419.056, 577.250 418.938 C 579.038 418.820, 581.175 418.949, 582 419.225 C 585.582 420.424, 593.226 422, 595.457 422 C 599.044 422, 604.713 418.278, 605.421 415.459 C 605.760 414.107, 606.506 413, 607.078 413 C 607.650 413, 607.840 412.550, 607.500 412 C 607.160 411.450, 607.359 411, 607.941 411 C 611.379 411, 606.462 401.197, 600.998 397.157 C 598.009 394.947, 593.354 392.678, 591.500 392.528 C 590.950 392.484, 590.044 392.161, 589.486 391.810 C 586.439 389.897, 564.808 387.708, 560.942 388.922 M 752.500 393 C 752.160 393.550, 751.088 394, 750.119 394 C 747.792 394, 737.556 399.580, 734.231 402.662 C 732.034 404.698, 731.595 405.986, 731.552 410.530 C 731.504 415.511, 731.814 416.276, 735.270 419.731 L 739.040 423.500 762.770 423.500 C 783.708 423.500, 786.971 423.717, 790.500 425.342 C 792.700 426.355, 796.584 427.819, 799.130 428.595 C 801.677 429.371, 804.319 430.680, 805.003 431.503 C 809.383 436.782, 823 427.007, 823 418.584 C 823 410.052, 811.292 401.268, 795 397.578 C 788.797 396.173, 782.350 394.184, 779.764 392.877 C 777.336 391.651, 753.267 391.759, 752.500 393 M 534.681 461.670 C 530.488 462.769, 527.973 464.158, 525.681 466.642 C 523.931 468.537, 520.138 472.504, 517.250 475.457 C 514.362 478.411, 512 481.281, 512 481.835 C 512 482.390, 509.933 485.916, 507.406 489.672 C 500.394 500.094, 498.649 503.873, 500.063 505.576 C 502.805 508.880, 506.679 505.924, 511.487 496.861 C 512.030 495.837, 512.930 494.998, 513.487 494.995 C 514.044 494.992, 516.975 492.217, 519.999 488.829 C 526.111 481.981, 540.147 468.112, 543.968 465.145 C 546.088 463.499, 546.247 463.002, 545.095 461.615 C 543.488 459.678, 542.254 459.684, 534.681 461.670 M 750.500 464.611 C 744.946 465.949, 743.771 466.778, 734.679 475.778 C 722.412 487.922, 715.873 496.132, 713.604 502.240 C 712.635 504.846, 711.428 507.236, 710.921 507.549 C 710.415 507.862, 710 508.965, 710 510 C 710 514.766, 715.969 513.515, 719.631 507.981 C 721.080 505.792, 722.956 504, 723.800 504 C 724.643 504, 725.107 503.773, 724.830 503.496 C 723.829 502.496, 748.657 476, 750.595 476 C 751.270 476, 752.937 474.675, 754.300 473.055 C 755.663 471.436, 756.977 470.310, 757.221 470.554 C 758.087 471.420, 760.255 466.108, 759.664 464.567 C 758.954 462.717, 758.356 462.720, 750.500 464.611 M 467.283 490.250 C 463.482 494.391, 459 502.691, 458.988 505.611 C 458.982 507.200, 458.312 510.975, 457.500 514 C 455.149 522.757, 455.521 527.962, 459.964 548.500 C 461.757 556.789, 465.994 565.262, 467.578 563.729 C 468.017 563.305, 468.520 560.155, 468.696 556.729 C 469.425 542.585, 471.177 526.062, 472.654 519.398 C 473.922 513.681, 474.012 511.282, 473.115 507.099 C 472.502 504.240, 472 498.774, 472 494.951 C 472 487.301, 470.950 486.255, 467.283 490.250 M 650.195 490.983 C 640.596 493.432, 640 494.015, 640 500.946 C 640 504.134, 638.898 510.330, 637.500 515 C 636.125 519.594, 635 524.398, 635 525.676 C 635 526.954, 634.523 528, 633.941 528 C 633.359 528, 633.131 528.403, 633.435 528.895 C 633.740 529.388, 633.373 530.027, 632.621 530.315 C 631.868 530.604, 630.939 532.564, 630.557 534.670 C 629.764 539.035, 626.826 543.749, 619.225 552.853 C 609.033 565.062, 597.417 573.183, 583.500 577.829 C 575.973 580.342, 574.465 580.493, 558 580.385 C 542.824 580.286, 539.716 579.987, 534.593 578.135 C 531.345 576.961, 527.857 576, 526.843 576 C 525.830 576, 525 575.564, 525 575.031 C 525 574.499, 524.325 574.322, 523.500 574.638 C 522.675 574.955, 522 574.710, 522 574.094 C 522 573.479, 519.590 571.909, 516.645 570.607 C 510.384 567.838, 498.418 556.968, 493.821 549.873 C 489.077 542.552, 488 544.344, 488 559.557 C 488 566.660, 488.494 573.061, 489.166 574.685 C 489.808 576.233, 490.370 577.800, 490.416 578.167 C 490.462 578.533, 490.838 579.171, 491.250 579.583 C 492.537 580.871, 492.072 585.452, 490.413 587.820 C 488.499 590.553, 489.943 593, 493.467 593 C 497.656 593, 501.865 600.533, 501.956 608.191 C 502.008 612.571, 503.169 613.485, 508.218 613.120 C 511.481 612.885, 512.125 613.200, 512.981 615.449 C 513.525 616.880, 514.678 618.323, 515.542 618.655 C 516.407 618.987, 516.878 619.875, 516.589 620.629 C 516.300 621.383, 516.499 622, 517.031 622 C 517.564 622, 518 623.998, 518 626.441 C 518 631.848, 519.194 632.779, 522.645 630.065 C 526.074 627.367, 527.612 627.459, 532.197 630.637 C 535.885 633.192, 536.777 634.984, 538.474 643.250 C 539.184 646.712, 543.329 647.050, 545.915 643.856 C 547.355 642.078, 548.280 641.830, 551.329 642.402 C 554.304 642.960, 555.391 643.846, 557.023 647.046 C 559.497 651.894, 563.002 652.601, 562.997 648.250 C 562.993 643.466, 566.039 631.706, 568.761 626 C 572.765 617.605, 580.522 606, 582.129 606 C 582.543 606, 584.936 603.975, 587.447 601.500 C 589.958 599.025, 592.454 597, 592.995 597 C 593.536 597, 596.571 595.201, 599.739 593.001 C 602.908 590.802, 606.261 589.002, 607.191 589.001 C 608.121 589.001, 609.179 588.519, 609.543 587.931 C 609.906 587.343, 611.961 586.989, 614.109 587.144 C 617.899 587.417, 620.647 585.517, 620.821 582.500 C 620.853 581.950, 621.853 580.487, 623.044 579.250 C 626.564 575.593, 633.204 576.349, 638.500 581.010 C 639.600 581.978, 641.625 583.094, 643 583.489 C 644.375 583.885, 646.583 584.893, 647.906 585.729 C 651.434 587.960, 659.604 587.590, 665.500 584.932 C 668.835 583.428, 672.570 582.648, 676.717 582.589 C 682.606 582.505, 683.121 582.692, 686.488 586.154 L 690.042 589.808 697.771 589.285 C 704.746 588.812, 705.686 588.968, 707.405 590.881 C 708.453 592.046, 710.481 593, 711.913 593 C 713.345 593, 716.629 594.125, 719.212 595.500 C 721.795 596.875, 725.299 598, 727 598 C 728.964 598, 731.003 598.912, 732.591 600.500 C 733.966 601.875, 735.361 603, 735.692 603 C 737.918 603, 756.976 623.641, 757.031 626.113 C 757.048 626.876, 758.171 629.300, 759.526 631.500 C 761.385 634.518, 761.991 636.898, 761.995 641.193 C 761.999 645.592, 762.421 647.184, 763.850 648.193 C 764.868 648.912, 766.309 651.188, 767.051 653.250 C 767.794 655.313, 768.708 657, 769.082 657 C 769.997 657, 775 650.384, 775 649.174 C 775 647.809, 777.567 647, 781.894 647 C 784.830 647, 786.070 647.603, 787.719 649.833 C 790.446 653.522, 792.830 653.424, 794.680 649.545 C 797.730 643.150, 805.880 640.126, 810.793 643.568 C 814.684 646.293, 817.209 645.075, 819.193 639.515 C 821.075 634.241, 823.391 631.810, 828.843 629.383 C 831.926 628.011, 832.493 628.055, 836.124 629.948 C 841.360 632.677, 842.848 632.537, 843.544 629.250 C 843.864 627.737, 844.327 625.503, 844.573 624.285 C 845.191 621.227, 850.963 612.859, 852.009 613.506 C 852.478 613.795, 853.144 613.575, 853.490 613.016 C 854.453 611.459, 858.713 611.809, 859.362 613.500 C 860.141 615.530, 861.927 615.395, 862.666 613.250 C 862.998 612.288, 864.179 609.475, 865.291 607 C 866.402 604.525, 867.257 602.208, 867.190 601.852 C 867.123 601.496, 868.891 599.133, 871.119 596.602 C 873.995 593.335, 875.943 591.991, 877.835 591.968 C 881.868 591.920, 883.709 589.920, 884.272 584.977 C 885.177 577.020, 888.152 570.764, 893.250 566.095 C 897.979 561.764, 898 561.717, 898 555.274 C 898 547.779, 899.653 543.594, 905.281 536.838 C 908.818 532.592, 909.049 531.968, 907.868 529.838 C 907.154 528.552, 906.539 527.275, 906.500 527 C 906.461 526.725, 905.833 525.425, 905.105 524.110 C 904.108 522.311, 903.952 519.194, 904.477 511.501 C 905.030 503.387, 904.898 501.189, 903.837 500.836 C 900.976 499.886, 862.081 501.512, 860.968 502.629 C 860.349 503.250, 859.616 505.725, 859.339 508.129 C 858.912 511.838, 857.387 517.689, 855.202 524 C 854.916 524.825, 854.764 525.867, 854.863 526.315 C 854.962 526.763, 854.190 528.338, 853.146 529.815 C 852.102 531.292, 850.944 533.907, 850.572 535.627 C 850.200 537.346, 848.794 540.246, 847.448 542.071 C 846.101 543.896, 845 545.767, 845 546.229 C 845 547.449, 832.082 562.938, 828.196 566.378 C 816.964 576.319, 806.152 582.132, 794.500 584.493 C 790.100 585.384, 786.072 586.538, 785.550 587.057 C 784.338 588.260, 763.304 588.301, 762.563 587.102 C 762.258 586.608, 758.744 585.883, 754.754 585.490 C 745.163 584.547, 732.918 580.648, 725.500 576.176 C 716.322 570.643, 704.262 558.187, 697.832 547.600 C 695.380 543.564, 692 535.713, 692 534.055 C 692 532.966, 691.068 529.709, 689.928 526.818 C 688.408 522.962, 687.701 518.270, 687.273 509.202 C 686.582 494.594, 686.685 494.724, 673.658 491.849 C 661.120 489.081, 658.087 488.969, 650.195 490.983 M 964.744 491.428 C 960.561 492.921, 951.012 499.812, 946.675 504.467 C 943.037 508.372, 939.468 515.418, 938.552 520.500 C 937.728 525.078, 935.264 529.464, 931.562 532.941 C 928.545 535.776, 928.419 537.010, 930.708 541.300 C 931.648 543.060, 932.435 544.800, 932.458 545.167 C 932.481 545.533, 932.837 546.171, 933.250 546.583 C 933.663 546.996, 934 548.983, 934 551 C 934 553.017, 933.663 555.004, 933.250 555.417 C 932.837 555.829, 932.481 556.467, 932.458 556.833 C 932.435 557.200, 931.648 558.940, 930.708 560.700 C 928.503 564.832, 928.560 566.765, 931.004 570.774 C 933.058 574.144, 933.675 579.465, 932.123 580.424 C 931.641 580.722, 930.733 583.111, 930.107 585.733 C 929.480 588.355, 927.992 592.651, 926.799 595.280 C 924.106 601.215, 924.790 602.094, 934 604.547 C 944.293 607.288, 946.436 607.351, 952.936 605.101 C 956.275 603.946, 959.615 603, 960.358 603 C 961.100 603, 962.922 601.875, 964.405 600.500 C 965.889 599.125, 967.747 598, 968.533 598 C 973.322 598, 987.815 582.441, 993.002 571.731 C 994.928 567.754, 997.256 563.375, 998.175 562 C 1002.873 554.975, 1004.855 527.928, 1001.509 516.500 C 999.777 510.582, 992.535 498, 990.861 498 C 990.387 498, 990 497.325, 990 496.500 C 990 495.675, 989.325 495, 988.500 495 C 987.675 495, 987 494.609, 987 494.132 C 987 492.937, 976.141 489.990, 971.934 490.044 C 970.045 490.068, 966.810 490.691, 964.744 491.428 M 647.500 631 C 641.612 634.434, 637.438 634.760, 634.516 632.015 C 631.406 629.093, 626.219 628.265, 625.342 630.551 C 624.826 631.896, 625.885 633.416, 629.577 636.627 C 639.909 645.614, 659.658 648.584, 677.380 643.815 C 681.846 642.613, 686.735 640.619, 688.245 639.384 C 689.754 638.149, 691.850 636.865, 692.902 636.531 C 693.954 636.197, 695.090 635.207, 695.427 634.331 C 695.960 632.941, 695.289 632.822, 690.192 633.399 C 685.333 633.949, 683.937 633.743, 681.923 632.179 C 678.256 629.333, 676.724 629.125, 674.149 631.123 C 672.855 632.126, 670.280 633.232, 668.426 633.580 C 665.627 634.105, 664.391 633.686, 661.134 631.106 C 656.309 627.285, 653.902 627.266, 647.500 631 M 703.750 629.580 C 702.346 630.990, 702.995 631.840, 705.973 632.494 C 709.322 633.230, 714 638.193, 714 641.012 C 714 644.211, 712.116 648, 710.525 648 C 709.686 648, 709 648.637, 709 649.416 C 709 651.904, 701.532 656.854, 693.071 659.974 C 688.557 661.638, 684.107 663.003, 683.182 663.006 C 682.257 663.010, 680.159 663.711, 678.520 664.566 C 676.881 665.421, 673.944 666.004, 671.992 665.864 C 670.041 665.723, 667.894 665.947, 667.222 666.363 C 666.550 666.778, 665.480 666.797, 664.845 666.404 C 664.210 666.011, 660.581 665.791, 656.781 665.914 C 652.981 666.038, 649.338 665.713, 648.686 665.192 C 648.034 664.672, 644.435 663.723, 640.688 663.083 C 621.150 659.747, 605.713 646.289, 611.871 637.960 C 613.042 636.377, 614 634.404, 614 633.576 C 614 631.347, 610.186 629.708, 606.420 630.319 C 603.177 630.845, 597 634.651, 597 636.123 C 597 636.534, 596.477 638.137, 595.839 639.685 C 595.200 641.233, 594.765 642.885, 594.874 643.355 C 594.982 643.826, 594.501 644.897, 593.805 645.735 C 592.179 647.694, 592.367 662.533, 594.044 664.553 C 594.704 665.349, 595.003 666, 594.708 666 C 594.413 666, 595.483 668.707, 597.086 672.016 C 598.689 675.325, 600 678.630, 600 679.361 C 600 681.487, 603.427 684, 606.326 684 C 607.999 684, 610.524 685.382, 613.096 687.706 C 617.326 691.527, 619.576 692.494, 620.555 690.911 C 621.423 689.506, 626.175 689.843, 629.430 691.540 C 633.365 693.592, 634.651 692.229, 637.098 683.403 C 640.215 672.161, 644.806 670.127, 658.248 674.034 C 661.747 675.051, 663.984 675.151, 666.748 674.414 C 671.344 673.190, 676.955 674.219, 678.701 676.606 C 679.416 677.583, 680.045 680.884, 680.100 683.941 C 680.248 692.236, 681.063 694.162, 685.026 695.593 C 689.460 697.194, 694.547 697.313, 697.229 695.877 C 698.785 695.044, 700.662 695.054, 704.504 695.913 C 710.693 697.299, 714.599 696.184, 715.943 692.649 C 717.285 689.119, 721.798 686, 725.563 686 C 729.680 686, 731.565 684.165, 732.449 679.299 C 732.829 677.210, 733.783 673.572, 734.570 671.215 C 736.671 664.920, 736.435 653.276, 734.113 648.722 C 733.076 646.687, 731.926 643.418, 731.558 641.458 C 730.852 637.694, 730.590 637.501, 724.894 636.560 C 722.910 636.232, 719.293 634.642, 716.855 633.027 C 712.406 630.081, 705.152 628.173, 703.750 629.580 M 836 730.167 C 836 730.808, 835.719 731.052, 835.376 730.709 C 835.033 730.366, 834.020 730.971, 833.126 732.054 C 831.411 734.131, 827.139 736.785, 820.500 739.899 C 818.300 740.931, 813.893 743.360, 810.708 745.298 C 807.522 747.236, 802.572 749.356, 799.708 750.009 C 793.656 751.390, 781.737 755.875, 780.983 757.055 C 780.699 757.500, 777.138 758.757, 773.070 759.848 C 768.535 761.064, 765.286 762.525, 764.670 763.625 C 763.503 765.711, 763.339 771.122, 764.392 772.826 C 764.791 773.472, 764.739 774, 764.276 774 C 763.293 774, 763.335 778.668, 764.326 779.659 C 764.697 780.030, 765 782.697, 765 785.585 C 765 797.284, 767.251 797.083, 787.381 783.581 C 798.486 776.133, 817.058 760.319, 821.500 754.529 C 822.600 753.095, 824.400 750.810, 825.500 749.452 C 826.600 748.094, 828.850 745.172, 830.500 742.959 C 832.150 740.745, 834.513 737.647, 835.750 736.073 C 838.056 733.140, 838.788 729, 837 729 C 836.450 729, 836 729.525, 836 730.167 M 672.225 828.990 C 670.424 830.096, 668.500 832.013, 667.950 833.250 C 665.526 838.700, 651.857 856, 649.975 856 C 649.077 856, 644.391 853.188, 639.560 849.750 C 620.486 836.175, 618.684 835.592, 613.300 841.250 C 606.211 848.699, 607.940 852.348, 625.180 866.329 C 631.131 871.155, 636 875.796, 636 876.642 C 636 877.488, 634.650 879.365, 633 880.813 C 631.350 882.261, 629.977 883.908, 629.949 884.473 C 629.902 885.420, 626.536 890.188, 618.250 901.043 C 614.064 906.526, 614.156 908.753, 618.777 913.759 C 625.190 920.705, 629.853 920.081, 636.761 911.356 C 638.004 909.785, 641.716 905.197, 645.011 901.159 C 648.305 897.122, 651 893.440, 651 892.977 C 651 891.233, 655.233 890.883, 658.363 892.368 C 660.148 893.215, 663.471 895.954, 665.746 898.454 C 668.021 900.954, 670.584 903, 671.442 903 C 672.299 903, 673 903.354, 673 903.786 C 673 905.780, 681.525 911, 684.782 911 C 689.829 911, 695.013 905.579, 694.965 900.350 C 694.913 894.777, 693.695 893.206, 681.500 882.996 C 675.450 877.930, 670.153 872.869, 669.729 871.749 C 668.923 869.621, 671.179 865, 673.023 865 C 673.560 865, 674 864.387, 674 863.638 C 674 862.888, 675.237 860.642, 676.750 858.645 C 688.122 843.636, 689 842.217, 689 838.847 C 689 836.177, 688.159 834.598, 685.250 831.805 C 680.425 827.171, 676.552 826.334, 672.225 828.990 M 123.755 916.998 C 119.430 918.300, 113.083 923.873, 111.385 927.860 C 108.780 933.975, 111.373 947.055, 115.504 948.640 C 116.274 948.935, 117.192 951.098, 117.544 953.446 C 118.128 957.342, 117.835 958.178, 114.190 962.993 C 111.993 965.896, 109.927 969.616, 109.598 971.260 C 107.957 979.464, 109.945 988.181, 115.071 995.257 C 119.457 1001.311, 120.282 1005.429, 118.343 1011.581 C 116.141 1018.567, 117.124 1022.846, 122.425 1029.355 C 129.042 1037.479, 129.321 1038.286, 128.551 1047.112 C 127.778 1055.970, 128.748 1059.009, 134.489 1065.716 C 139.369 1071.417, 152.951 1079.036, 159.425 1079.704 C 164.373 1080.215, 164.813 1080.056, 169.362 1076.119 C 171.980 1073.854, 174.939 1072, 175.938 1072 C 178.141 1072, 180.420 1069.488, 179.527 1068.044 C 178.629 1066.591, 160.459 1066.697, 158.102 1068.169 C 156.626 1069.090, 155.508 1068.994, 152.808 1067.713 C 148.311 1065.579, 146.551 1062.205, 147.446 1057.434 C 149.025 1049.022, 153.999 1045.863, 166.140 1045.563 C 171.558 1045.429, 174.612 1044.845, 176.640 1043.555 C 184.056 1038.837, 186.065 1034.756, 184.020 1028.562 C 182.352 1023.506, 179.069 1022.779, 159.577 1023.152 C 145.751 1023.417, 142.884 1023.218, 141.336 1021.885 C 140.326 1021.016, 138.776 1020.049, 137.892 1019.738 C 136.357 1019.197, 135 1014.993, 135 1010.776 C 135 1009.691, 136.429 1007.468, 138.175 1005.836 C 140.822 1003.364, 142.064 1002.914, 145.643 1003.134 C 148.003 1003.280, 150.250 1003.084, 150.634 1002.699 C 151.506 1001.827, 163.436 1001.770, 164.300 1002.633 C 165.101 1003.434, 173.804 1003.320, 176.624 1002.472 C 179.661 1001.558, 182.847 996.812, 183.605 992.071 C 184.136 988.750, 183.817 987.351, 181.878 984.497 C 180.570 982.572, 178.668 980.728, 177.651 980.400 C 176.634 980.071, 174.971 978.971, 173.954 977.954 C 171.117 975.117, 164.799 973.847, 149.500 973.041 C 134.239 972.237, 129.480 970.907, 126.704 966.672 C 124.378 963.121, 124.554 961.483, 127.636 958.024 C 131.601 953.574, 135.286 952.819, 151.444 953.142 C 165.434 953.422, 165.994 953.354, 168.404 951.090 C 173.853 945.971, 172.084 937.487, 163.965 929.798 C 161.234 927.212, 159 925.299, 159 925.548 C 159 925.797, 158.140 925.140, 157.089 924.089 C 156.039 923.039, 152.551 921.666, 149.339 921.038 C 146.128 920.411, 141.302 919.021, 138.617 917.949 C 133.527 915.918, 128.428 915.591, 123.755 916.998 M 391.878 934.172 C 387.327 937.897, 389.200 945.270, 396.267 951.452 C 399.126 953.953, 401.782 956, 402.170 956 C 402.557 956, 405.831 958.025, 409.447 960.500 C 416.767 965.512, 420.117 966.099, 422.443 962.777 C 426.153 957.480, 422.822 949.314, 413.764 941.502 C 405.792 934.628, 395.522 931.188, 391.878 934.172 M 637.801 944.250 C 633.677 951.586, 632.746 953.780, 633.347 954.753 C 633.668 955.272, 633.091 956.598, 632.065 957.700 C 629.069 960.916, 625 970.395, 625 974.159 C 625 976.683, 625.793 978.385, 627.915 980.419 C 630.635 983.024, 631.071 983.132, 634.433 982.022 C 639.526 980.341, 647.231 969.706, 651.176 958.911 C 654.499 949.817, 654.529 948.370, 651.481 943.973 C 649 940.393, 648.306 940, 644.459 940 C 640.478 940, 640.029 940.287, 637.801 944.250 M 270.325 943.696 C 267.689 944.209, 258 953.532, 258 955.555 C 258 956.350, 257.502 957, 256.893 957 C 256.284 957, 256.034 957.646, 256.337 958.435 C 256.640 959.225, 256.403 960.032, 255.811 960.230 C 252.930 961.190, 258.499 968.750, 262.708 969.592 C 264.978 970.046, 266.415 969.477, 269.541 966.890 C 274.658 962.656, 283 952.622, 283 950.702 C 283 949.882, 281.694 947.814, 280.099 946.106 C 277.280 943.088, 275.588 942.671, 270.325 943.696 M 447.106 979.901 C 440.588 985.990, 444.922 995.067, 459.380 1005.610 C 469.874 1013.262, 474 1012.421, 474 1002.629 C 474 996.528, 470.282 990.586, 462.594 984.403 C 458.517 981.123, 451.754 977, 450.452 977 C 450.320 977, 448.814 978.306, 447.106 979.901 M 246 979.683 C 238.112 982.662, 232.628 998.387, 236.361 1007.322 C 238.410 1012.226, 240.677 1014, 244.897 1014 C 249.863 1014, 252.607 1011.003, 254.077 1003.971 C 254.706 1000.962, 255.681 997.518, 256.243 996.317 C 256.806 995.117, 257.001 993.444, 256.677 992.599 C 256.352 991.755, 256.518 990.798, 257.044 990.473 C 258.446 989.607, 258.211 987.274, 256.519 985.261 C 255.704 984.293, 254.467 982.737, 253.769 981.805 C 252.357 979.919, 248.305 978.812, 246 979.683 M 607.381 991.769 C 600.547 996.301, 590.331 1004.846, 588.614 1007.467 C 586.497 1010.697, 586.583 1012.803, 588.989 1016.750 C 590.727 1019.600, 591.495 1020, 595.235 1019.996 C 600.458 1019.992, 603.727 1018.073, 611.568 1010.411 C 617.240 1004.869, 621 999.303, 621 996.450 C 621 994.922, 614.390 988.993, 612.715 989.019 C 612.047 989.029, 609.647 990.267, 607.381 991.769 M 434.113 992.788 C 433.581 993.783, 433.319 1000.773, 433.523 1008.538 C 433.830 1020.270, 434.243 1023.298, 436.107 1027.500 C 438.309 1032.464, 438.960 1037.637, 437.650 1039.757 C 437.275 1040.365, 437.350 1041.098, 437.817 1041.387 C 438.284 1041.676, 438.473 1043.228, 438.237 1044.838 C 438.001 1046.447, 438.301 1048.068, 438.904 1048.441 C 439.507 1048.813, 440 1049.954, 440 1050.976 C 440 1051.997, 440.517 1053.006, 441.149 1053.216 C 441.893 1053.464, 442.566 1058.609, 443.058 1067.806 C 443.741 1080.594, 444.080 1082.461, 446.451 1086.506 C 449.505 1091.718, 452.579 1092.527, 453.617 1088.391 C 454.394 1085.296, 453.458 1072.535, 452.323 1070.748 C 451.887 1070.062, 451.486 1069.275, 451.432 1069 C 451.377 1068.725, 450.808 1067.233, 450.166 1065.685 C 449.525 1064.137, 449 1058.044, 449 1052.146 C 449 1043.434, 448.629 1040.695, 447.020 1037.540 C 445.602 1034.758, 444.860 1030.659, 444.403 1023.079 C 443.986 1016.175, 443.110 1010.979, 441.882 1008.123 C 440.847 1005.715, 440 1002.255, 440 1000.432 C 440 998.609, 439.543 996.835, 438.984 996.490 C 438.425 996.144, 438.238 995.423, 438.570 994.887 C 439.222 993.832, 437.286 991, 435.913 991 C 435.449 991, 434.640 991.805, 434.113 992.788 M 410.526 1003.321 C 408.077 1007.057, 406.471 1016.657, 407.987 1018.485 C 409.809 1020.679, 412.733 1020.344, 414.399 1017.750 C 416.192 1014.959, 417.437 1006.877, 416.593 1003.513 C 415.784 1000.293, 412.576 1000.191, 410.526 1003.321 M 492.511 1012.582 C 491.130 1014.073, 490 1016.057, 490 1016.992 C 490 1025.854, 507.891 1038.453, 516.995 1036.001 C 519.070 1035.443, 521.291 1034.354, 521.932 1033.582 C 524.003 1031.086, 524.395 1025.251, 522.668 1022.616 C 520.559 1019.397, 511.931 1014.618, 504.500 1012.554 C 501.200 1011.637, 497.718 1010.659, 496.761 1010.380 C 495.693 1010.068, 494.055 1010.917, 492.511 1012.582 M 242.668 1023.724 C 236.212 1024.692, 235.288 1037.721, 240.893 1048.748 C 242.605 1052.116, 246.545 1057.135, 250.400 1060.859 C 254.021 1064.357, 256.733 1067.622, 256.428 1068.116 C 255.497 1069.624, 259.671 1074.552, 266.633 1080.164 C 274.202 1086.265, 277.289 1088.085, 285 1090.994 C 288.025 1092.135, 291.175 1093.351, 292 1093.696 C 294.820 1094.875, 299.297 1094.727, 301.899 1093.369 C 303.330 1092.623, 305.063 1092.010, 305.750 1092.006 C 306.438 1092.003, 307 1090.902, 307 1089.559 C 307 1088.216, 307.422 1086.857, 307.938 1086.538 C 309.546 1085.545, 304.705 1077.827, 300.600 1074.839 C 297.050 1072.255, 295.945 1072, 288.294 1072 C 280.194 1072, 279.785 1071.888, 277.095 1068.943 C 275.560 1067.262, 272.109 1064.449, 269.428 1062.693 C 265.219 1059.937, 264.453 1058.914, 263.823 1055.217 C 263.421 1052.861, 262.172 1049.763, 261.046 1048.332 C 259.921 1046.901, 259 1045.311, 259 1044.798 C 259 1044.286, 257.917 1042.434, 256.594 1040.683 C 255.270 1038.932, 253.016 1034.599, 251.584 1031.053 C 249.252 1025.281, 247.474 1022.769, 246 1023.165 C 245.725 1023.239, 244.226 1023.491, 242.668 1023.724 M 398.673 1025.205 C 396.568 1026.344, 394.477 1028.245, 394.027 1029.429 C 393.577 1030.613, 392.457 1032.206, 391.538 1032.968 C 389.955 1034.282, 386.632 1039.735, 386.542 1041.167 C 386.519 1041.533, 386.163 1042.171, 385.750 1042.583 C 384.202 1044.131, 385.087 1046.719, 387.547 1047.839 C 391.578 1049.676, 393.828 1049.223, 395.436 1046.250 C 396.254 1044.737, 398.561 1042.375, 400.563 1041 C 407.038 1036.552, 408 1035.258, 408 1031 C 408 1028.333, 407.333 1026.333, 406 1025 C 403.592 1022.592, 403.497 1022.594, 398.673 1025.205 M 449.667 1101.667 C 449.300 1102.033, 449 1106.308, 449 1111.167 L 449 1120 454.136 1120 L 459.272 1120 458.678 1115.665 C 457.558 1107.495, 452.185 1099.148, 449.667 1101.667" stroke="none" fill="#171916" fill-rule="evenodd"/>
</svg>