<svg role="img" aria-labelledby="artwork-title" shape-rendering="geometricPrecision" xmlns="http://www.w3.org/2000/svg" width="1200" height="1200" viewBox="0 0 1200 1200" version="1.1">
	<title id="artwork-title">Mascot looking at past and future arrows</title>
	<path d="M 650 227.884 C 650 228.369, 647.065 229.081, 643.479 229.465 C 634.334 230.445, 622.854 235.646, 615.682 242.059 L 609.865 247.261 606.682 244.289 C 601.084 239.061, 597.691 237.297, 589.060 235.124 C 578.567 232.484, 570.488 232.436, 559.952 234.952 C 552.178 236.809, 539.891 243.016, 536.932 246.582 C 536.285 247.362, 535.360 248, 534.878 248 C 533.936 248, 530.494 251.181, 529.874 252.625 C 529.667 253.106, 528.008 255.845, 526.187 258.712 C 524.366 261.578, 522.871 264.278, 522.867 264.712 C 522.851 266.107, 519.736 269, 518.249 269 C 517.457 269, 515.421 268.012, 513.725 266.804 C 509.243 263.613, 493.397 263.628, 487.515 266.830 C 485.323 268.024, 482.924 269, 482.184 269 C 478.064 269, 462.498 282.705, 458.566 289.794 C 452.909 299.994, 451.739 303.602, 451.465 311.693 C 451.142 321.248, 450.821 322, 447.067 322 C 443.124 322, 435.420 326.551, 429.800 332.201 C 425.143 336.882, 420 345.419, 420 348.467 C 420 349.310, 419.502 350, 418.893 350 C 418.284 350, 418.034 350.646, 418.337 351.435 C 418.640 352.225, 418.378 353.041, 417.754 353.249 C 416.036 353.821, 416.138 370.256, 417.872 372.346 C 418.627 373.256, 418.875 374, 418.422 374 C 417.970 374, 418.140 374.540, 418.800 375.200 C 419.460 375.860, 420 377.486, 420 378.814 C 420 380.141, 420.961 382.938, 422.136 385.029 L 424.273 388.830 420.757 393.165 C 416.868 397.960, 413.994 406.477, 414.012 413.154 C 414.029 419.312, 416.519 427.903, 418.941 430.160 C 420.074 431.215, 421 432.713, 421 433.489 C 421 434.265, 423.061 436.610, 425.580 438.700 L 430.160 442.500 429.500 449.689 C 428.635 459.121, 429.745 467.745, 432.132 470.132 C 433.159 471.159, 434 472.302, 434 472.671 C 434 473.040, 434.686 474.100, 435.524 475.027 C 437.527 477.240, 436.706 479.084, 432.203 482.480 C 426.641 486.675, 421.823 494.243, 418.503 504 C 418.409 504.275, 417.808 505.767, 417.166 507.315 C 415.324 511.762, 415.622 535.015, 417.557 537.777 C 418.413 539, 418.899 540, 418.637 540 C 418.375 540, 419.717 543.198, 421.619 547.106 C 425.337 554.746, 431.617 563, 433.712 563 C 434.420 563, 435 563.432, 435 563.961 C 435 564.489, 437.171 566.343, 439.824 568.080 C 444.347 571.040, 445.680 573.653, 443.687 575.646 C 442.725 576.608, 442.825 584, 443.799 584 C 444.239 584, 444.423 585.502, 444.209 587.338 C 443.923 589.783, 444.646 592.019, 446.910 595.699 C 448.609 598.461, 450.003 601.796, 450.006 603.111 C 450.017 607.834, 452.076 612.610, 456.859 619 C 459.534 622.575, 462.271 627.188, 462.940 629.251 C 464.279 633.381, 469.040 638.684, 472.636 640.052 C 473.905 640.534, 475.568 642.407, 476.332 644.215 C 477.939 648.017, 482.649 653, 484.636 653 C 485.386 653, 486 653.450, 486 654 C 486 654.550, 486.567 655, 487.259 655 C 488.758 655, 491.283 658.733, 490.568 659.891 C 490.293 660.336, 486.153 661.001, 481.369 661.368 C 468.424 662.363, 451.907 665.555, 443 668.784 C 442.175 669.083, 441.275 669.407, 441 669.504 C 440.725 669.601, 438.827 670.428, 436.782 671.340 C 434.737 672.253, 432.350 673, 431.476 673 C 430.603 673, 427.167 674.350, 423.841 676 C 420.516 677.650, 417.170 679, 416.406 679 C 415.642 679, 414.483 679.855, 413.830 680.900 C 413.178 681.945, 412.076 682.583, 411.383 682.317 C 410.689 682.050, 409.536 682.770, 408.820 683.916 C 408.104 685.062, 407.158 686, 406.717 686 C 405.512 686, 395.521 693.602, 386.500 701.383 C 376.832 709.722, 329.968 756.558, 324.520 763.326 C 321.139 767.525, 320.665 768.740, 320.868 772.677 C 321.006 775.337, 320.693 777.056, 320.109 776.850 C 319.563 776.658, 315.827 773.324, 311.808 769.443 C 307.789 765.561, 301.350 759.524, 297.500 756.026 C 293.650 752.528, 285.663 744.980, 279.750 739.252 C 269.568 729.389, 269 728.625, 269 724.790 C 269 719.629, 265.100 704.846, 263.357 703.401 C 262.628 702.797, 262.324 702.009, 262.682 701.651 C 263.040 701.293, 262.895 701, 262.359 701 C 261.823 701, 260.609 699.241, 259.660 697.091 C 258.711 694.940, 254.909 690.328, 251.210 686.841 C 245.921 681.855, 242.349 679.552, 234.492 676.062 C 228.707 673.493, 221.681 669.388, 217.803 666.312 C 214.120 663.391, 210.633 661, 210.053 661 C 209.474 661, 208.986 660.438, 208.969 659.750 C 208.888 656.479, 195.688 649.049, 189.899 649.015 C 183.070 648.976, 174.673 654.661, 173.469 660.140 C 173.127 661.700, 172.431 663.234, 171.923 663.548 C 171.415 663.861, 171 666.123, 171 668.573 C 171 672.888, 171.999 675.628, 174.888 679.231 C 176.759 681.565, 174.559 684.709, 172.343 682.870 C 171.578 682.235, 170.666 682, 170.318 682.349 C 169.969 682.697, 169.056 682.461, 168.288 681.824 C 167.073 680.816, 163.005 679.729, 147 676.136 C 145.075 675.704, 142.600 674.881, 141.500 674.307 C 140.400 673.734, 137.136 672.710, 134.247 672.032 C 131.358 671.354, 128.744 670.394, 128.438 669.900 C 127.577 668.507, 122.542 668.837, 119.364 670.494 C 115.746 672.381, 113.254 672.381, 109.636 670.494 C 105.859 668.524, 104.193 668.607, 99.500 671 C 97.342 672.100, 94.965 673, 94.217 673 C 93.469 673, 89.964 675.907, 86.429 679.460 L 80 685.921 80 694.344 C 80 701.525, 80.258 702.834, 81.750 703.224 C 82.814 703.503, 83.966 705.410, 84.687 708.091 C 86.335 714.209, 90.444 719.990, 100.700 730.621 C 112.593 742.947, 128.466 755.109, 135.629 757.382 C 136.739 757.735, 138.514 758.818, 139.574 759.790 C 141.708 761.747, 150.330 765.651, 162.461 770.152 C 166.839 771.776, 170.889 773.463, 171.461 773.900 C 173.083 775.141, 182.619 777.998, 185.188 778.014 C 190.205 778.043, 192.111 779.285, 194.562 784.123 C 195.918 786.798, 197.001 789.230, 196.969 789.528 C 196.937 789.827, 197.831 791.240, 198.955 792.670 C 200.080 794.100, 201.001 795.772, 201.002 796.385 C 201.003 796.998, 203.542 802.450, 206.645 808.500 C 209.747 814.550, 213.841 822.642, 215.743 826.483 C 217.645 830.323, 220.436 835.048, 221.945 836.983 C 224.763 840.593, 228.767 847.020, 232.766 854.348 C 234.012 856.631, 235.834 859.175, 236.814 860 C 237.795 860.825, 238.857 862.175, 239.174 863 C 241.723 869.630, 260.665 890.823, 273.846 901.792 C 278.510 905.673, 295.677 915.351, 300 916.536 C 300.275 916.611, 301.175 916.932, 302 917.248 C 307.916 919.518, 311.736 920.228, 320.675 920.720 C 330.411 921.255, 334.851 920.576, 343 917.305 C 343.825 916.974, 345.514 916.802, 346.754 916.923 C 347.993 917.045, 349.263 916.477, 349.576 915.662 C 349.889 914.847, 351.350 913.888, 352.822 913.530 C 357.160 912.476, 372 905.034, 372 903.912 C 372 903.346, 372.450 903.160, 373 903.500 C 373.550 903.840, 374 903.641, 374 903.059 C 374 902.477, 374.448 902, 374.996 902 C 376.167 902, 388.222 893.523, 395.792 887.378 C 400.376 883.656, 401.421 883.210, 403.607 884.041 C 407.647 885.577, 408.534 885.273, 415.584 879.937 C 419.263 877.152, 422.584 875.239, 422.963 875.687 C 423.342 876.134, 423.069 887.300, 422.355 900.500 C 421.642 913.700, 420.752 935.413, 420.379 948.750 L 419.699 973 600.349 973 L 781 973 781 964.520 C 781 959.857, 780.537 949.394, 779.972 941.270 C 778.802 924.480, 777.059 876.701, 777.593 876.110 C 777.958 875.708, 778.658 876.180, 786.103 881.847 C 790.296 885.038, 790.786 885.165, 796.667 884.577 C 802.565 883.988, 802.980 884.097, 806.167 887.065 C 810.264 890.881, 820.558 898.088, 824.167 899.667 C 825.633 900.308, 827.673 901.673, 828.700 902.700 C 829.726 903.726, 832.126 905.342, 834.033 906.291 C 835.940 907.239, 839.975 909.362, 843 911.007 C 846.025 912.653, 849.302 914, 850.281 914 C 851.261 914, 852.329 914.694, 852.654 915.542 C 852.980 916.390, 853.978 916.964, 854.873 916.817 C 855.768 916.670, 856.954 916.836, 857.509 917.185 C 860.440 919.030, 871.859 921.001, 879.644 921.005 C 887.583 921.009, 890.669 920.433, 900 917.202 C 900.825 916.916, 901.867 916.764, 902.315 916.863 C 902.763 916.962, 904.286 916.133, 905.700 915.022 C 907.113 913.910, 908.789 913, 909.423 913 C 912.781 913, 925.108 904.700, 935.598 895.375 C 945.912 886.207, 965.005 861.823, 971.918 848.989 C 973.248 846.520, 976.242 841.553, 978.571 837.952 C 980.900 834.350, 984.248 828.725, 986.010 825.452 C 987.772 822.178, 989.670 818.938, 990.229 818.250 C 990.788 817.562, 990.895 817, 990.467 817 C 990.040 817, 990.448 816.163, 991.374 815.139 C 992.300 814.116, 995.248 808.378, 997.925 802.389 C 1002.717 791.669, 1005.366 785.953, 1006.912 783 C 1008.065 780.799, 1011.575 779.317, 1020 777.475 C 1024.125 776.573, 1029.075 775.042, 1031 774.074 C 1032.925 773.105, 1037.650 771.269, 1041.500 769.993 C 1051.025 766.838, 1065 760.328, 1065 759.046 C 1065 758.471, 1065.700 758, 1066.555 758 C 1068.178 758, 1077.281 752.153, 1085 746.152 C 1091.430 741.153, 1109.291 723.031, 1112.341 718.410 C 1113.761 716.259, 1115.663 711.575, 1116.569 708 C 1117.474 704.425, 1118.661 700.951, 1119.206 700.279 C 1120.198 699.057, 1119.827 692.139, 1118.468 686.500 C 1116.762 679.426, 1107.843 672.506, 1101.198 673.102 C 1096.838 673.493, 1089.905 671.916, 1089.323 670.400 C 1088.612 668.547, 1082.996 668.600, 1079.364 670.494 C 1077.789 671.315, 1074.558 671.990, 1072.185 671.994 C 1069.812 671.997, 1065.762 672.878, 1063.185 673.951 C 1060.608 675.024, 1054.574 677.073, 1049.777 678.503 C 1044.979 679.934, 1040.816 681.489, 1040.526 681.959 C 1040.235 682.428, 1039.052 682.565, 1037.897 682.263 C 1036.741 681.960, 1035.504 682.159, 1035.148 682.705 C 1034.791 683.250, 1032.588 683.995, 1030.250 684.360 C 1025.614 685.084, 1024.455 683.526, 1027.655 680.872 C 1030.226 678.740, 1032 673.543, 1032 668.145 C 1032 662.166, 1027.464 654.736, 1022 651.765 C 1015.315 648.131, 1004.167 650.835, 996 658.072 C 985.465 667.408, 966.755 679, 962.221 679 C 961.612 679, 960.485 679.897, 959.717 680.994 C 958.949 682.090, 958.023 682.690, 957.660 682.327 C 957.297 681.964, 957 682.192, 957 682.833 C 957 683.475, 956.414 684, 955.697 684 C 954.250 684, 944 693.678, 944 695.045 C 944 696.007, 939.306 703.157, 938.136 703.978 C 936.978 704.790, 933.002 720.341, 932.985 724.120 C 932.977 725.979, 932.415 728.485, 931.735 729.690 C 931.056 730.894, 921.063 740.794, 909.530 751.690 C 897.996 762.585, 887.262 772.962, 885.676 774.750 C 881.629 779.312, 880.136 779.012, 880.705 773.750 C 881.097 770.125, 880.674 768.823, 877.832 764.896 C 869.925 753.970, 819.531 702.154, 808.500 693.608 C 792.342 681.089, 790.250 679.876, 774.500 673.879 C 771.200 672.622, 767.729 670.956, 766.787 670.176 C 765.845 669.396, 764.383 669.023, 763.537 669.347 C 762.692 669.672, 762 669.551, 762 669.078 C 762 668.605, 760.538 667.982, 758.750 667.692 C 756.962 667.403, 753.700 666.707, 751.500 666.145 C 742.615 663.878, 721.853 660.106, 713.750 659.287 C 711.106 659.020, 709 658.296, 709 657.653 C 709 656.254, 715.406 651, 717.113 651 C 717.784 651, 718.095 650.761, 717.803 650.470 C 717.511 650.178, 720.623 646.466, 724.718 642.220 C 728.813 637.974, 732.690 632.945, 733.332 631.044 C 734.460 627.705, 739.659 623.129, 744.750 620.993 C 745.987 620.474, 747 619.374, 747 618.549 C 747 617.724, 747.898 615.575, 748.996 613.774 C 750.094 611.973, 750.994 609.745, 750.996 608.821 C 751.004 605.225, 757.106 602.772, 759.668 605.335 C 760.687 606.353, 766.805 606.125, 767.473 605.044 C 767.798 604.518, 768.730 604.343, 769.545 604.656 C 770.359 604.968, 771.582 604.783, 772.263 604.244 C 772.943 603.705, 775.868 602.492, 778.763 601.548 C 788.845 598.258, 797.886 590.936, 806.601 579 C 811.579 572.183, 813.371 568.420, 815.884 559.500 C 821.566 539.337, 818.643 521.162, 807.834 509.435 L 803.792 505.051 808.540 498.775 C 811.151 495.324, 814.150 490.573, 815.205 488.218 C 817.922 482.148, 818.605 471.637, 816.646 466.032 C 815.220 461.954, 815.225 461.409, 816.697 459.782 C 817.584 458.802, 818.837 458, 819.481 458 C 821.562 458, 824.842 453.623, 828.115 446.480 C 831.886 438.248, 833.124 428.324, 831.784 417.069 C 830.830 409.058, 829.488 405.984, 823.898 399 C 820.326 394.539, 820.310 394.476, 822.023 391.685 C 822.974 390.137, 824.521 384.062, 825.462 378.185 C 827.037 368.342, 827.049 366.798, 825.610 358.598 C 824.413 351.780, 823.125 348.143, 820.106 343.062 C 812.863 330.871, 800.706 322.016, 791.168 321.985 C 788.601 321.976, 785.983 321.639, 785.351 321.235 C 784.680 320.806, 784.226 317.967, 784.261 314.413 C 784.293 311.065, 783.921 307.690, 783.435 306.913 C 782.948 306.136, 782.671 304.762, 782.819 303.859 C 782.967 302.957, 782.169 300.581, 781.044 298.579 C 779.920 296.577, 779 294.362, 779 293.657 C 779 291.228, 769.948 280.201, 764.703 276.241 C 761.811 274.058, 756.308 271.231, 752.473 269.960 C 748.638 268.688, 744.612 267.052, 743.527 266.324 C 740.269 264.137, 725.782 264.577, 721.261 267 C 715.477 270.100, 714.493 269.697, 712.520 263.423 C 707.731 248.200, 688.437 232.854, 670.500 230.001 C 666.650 229.389, 663.072 228.463, 662.550 227.944 C 661.348 226.750, 650 226.695, 650 227.884 M 645.500 244.884 C 636.112 246.681, 630.775 249.444, 623.358 256.349 C 616.718 262.529, 614.862 265.528, 616.600 267.267 C 616.930 267.597, 618.727 266.477, 620.593 264.779 C 622.459 263.081, 625.002 261.125, 626.243 260.432 C 630.883 257.842, 638.987 253.961, 639.239 254.208 C 639.382 254.349, 640.613 253.684, 641.973 252.732 C 645.343 250.371, 661.480 250.247, 664.777 252.557 C 666 253.413, 667 253.773, 667 253.357 C 667 252.941, 667.540 253.140, 668.200 253.800 C 668.860 254.460, 670.885 255, 672.700 255 C 674.515 255, 676 255.401, 676 255.892 C 676 256.382, 677.235 257.093, 678.745 257.472 C 686.209 259.345, 700 274.964, 700 281.543 C 700 282.829, 700.450 284.160, 701 284.500 C 702.509 285.433, 702.211 280.539, 700.370 274.154 C 698.342 267.122, 692.690 258.408, 688.878 256.437 C 687.295 255.618, 685.997 254.398, 685.994 253.724 C 685.987 252.429, 680.660 249, 678.654 249 C 678.003 249, 675.822 248.116, 673.806 247.036 C 669.685 244.828, 652.589 243.528, 645.500 244.884 M 566 248.669 C 564.625 248.957, 563.050 249.540, 562.500 249.965 C 561.950 250.391, 559.789 251.048, 557.697 251.425 C 555.606 251.802, 553.661 252.720, 553.375 253.465 C 553.089 254.210, 551.820 255.079, 550.555 255.397 C 548.137 256.004, 540.072 263.529, 536.250 268.745 C 533.965 271.863, 533.153 278, 535.025 278 C 535.588 278, 536.490 276.841, 537.029 275.425 C 537.567 274.008, 538.599 272.258, 539.322 271.535 C 540.045 270.812, 541.732 268.933, 543.069 267.360 C 547.601 262.032, 558.377 254.875, 564 253.458 C 564.275 253.389, 565.767 252.808, 567.315 252.166 C 568.863 251.525, 574.016 251, 578.765 251 C 585.067 251, 587.102 250.702, 586.295 249.895 C 585.110 248.710, 570.135 247.805, 566 248.669 M 498.344 280.250 C 498.090 280.663, 496.785 281, 495.444 281 C 490.180 281, 474 290.317, 474 293.348 C 474 293.992, 473.083 295.092, 471.961 295.792 C 470.840 296.492, 470.210 297.531, 470.561 298.099 C 470.913 298.668, 470.465 299.670, 469.567 300.327 C 466.141 302.832, 463.885 321, 467 321 C 467.500 321, 468.190 319.313, 468.533 317.250 C 468.875 315.188, 469.333 312.933, 469.551 312.240 C 469.768 311.546, 469.990 310.646, 470.044 310.240 C 470.098 309.833, 470.692 308.825, 471.364 308 C 472.036 307.175, 473.242 305.164, 474.043 303.530 C 475.755 300.040, 484.008 291.687, 489 288.392 C 492.655 285.979, 503.342 283.036, 508.500 283.021 C 510.150 283.016, 512.789 283.685, 514.364 284.506 C 517.525 286.154, 519.003 286.392, 518.994 285.250 C 518.983 284.019, 513.012 281, 510.586 281 C 509.347 281, 508.046 280.712, 507.694 280.361 C 506.780 279.447, 498.897 279.354, 498.344 280.250 M 723.500 282.636 C 717.445 283.941, 714 285.873, 714 287.965 C 714 288.285, 719.513 288.537, 726.250 288.524 C 737.727 288.501, 738.847 288.677, 744 291.309 C 747.025 292.853, 752.153 296.228, 755.395 298.809 C 760.784 303.097, 761.616 304.311, 765.080 312.940 C 768.750 322.082, 768.908 322.296, 770.082 319.720 C 771.040 317.617, 771.030 316.741, 770.035 315.542 C 769.343 314.708, 769.037 313.345, 769.357 312.513 C 769.676 311.681, 769.586 311, 769.158 311 C 768.729 311, 767.812 308.793, 767.121 306.095 C 765.453 299.586, 757.098 290.256, 749.801 286.755 C 737.971 281.079, 733.773 280.421, 723.500 282.636 M 450.376 336.086 C 448.657 336.584, 446.690 337.669, 446.003 338.496 C 445.317 339.323, 444.235 340, 443.600 340 C 441.826 340, 439.855 342.787, 435.625 351.277 C 432.572 357.403, 431.750 360.192, 431.750 364.420 C 431.750 367.371, 432.062 370.292, 432.444 370.910 C 433.735 372.999, 435 370.905, 435 366.677 C 435 357.871, 441.012 346.622, 449.694 339.186 C 452.337 336.922, 454.275 335.095, 454 335.125 C 453.725 335.156, 452.094 335.588, 450.376 336.086 M 773.750 336.683 C 766.173 337.232, 766.337 339, 773.965 339 C 780.866 339, 788.206 341.224, 792.500 344.617 C 799.296 349.986, 803.088 354.623, 805.037 359.949 C 806.154 363.002, 807.350 366.175, 807.693 367 C 808.037 367.825, 808.264 368.784, 808.198 369.131 C 808.133 369.478, 808.962 370.560, 810.040 371.536 C 811.949 373.264, 812 373.224, 812 370.021 C 812 365.773, 810.095 359.178, 807.950 356 C 807.022 354.625, 805.969 352.553, 805.610 351.395 C 804.809 348.813, 798.768 342.604, 793.859 339.316 C 789.946 336.696, 784.112 335.932, 773.750 336.683 M 544.459 349.131 C 542.873 354.126, 537.008 362.176, 531.706 366.634 C 528.568 369.272, 526 371.784, 526 372.216 C 526 372.647, 525.467 373, 524.816 373 C 524.164 373, 521.577 374.002, 519.066 375.226 C 514.166 377.614, 504.661 378.167, 496.250 376.552 C 493.850 376.092, 491.970 376.120, 491.931 376.618 C 491.118 387.017, 488.223 394.566, 483.027 399.831 C 480.493 402.399, 477.267 405.259, 475.857 406.186 C 473.557 407.698, 473.238 408.691, 472.746 415.871 C 472.445 420.271, 471.827 424.462, 471.374 425.185 C 470.921 425.908, 470.686 427.323, 470.851 428.329 C 471.017 429.335, 470.363 431.810, 469.399 433.829 C 468.121 436.504, 467.448 441.435, 466.918 452 C 466.519 459.975, 465.866 468.863, 465.467 471.750 C 464.581 478.171, 466.055 478.681, 471.257 473.750 C 478.434 466.947, 484.330 464.283, 494.092 463.432 C 498.442 463.052, 502 462.315, 502 461.794 C 502 461.273, 503.781 460.976, 505.957 461.133 C 508.134 461.290, 510.234 461.099, 510.624 460.709 C 511.633 459.701, 518.776 459.828, 519.417 460.866 C 519.711 461.342, 521.091 461.514, 522.482 461.248 C 523.873 460.982, 525.571 461.207, 526.256 461.748 C 526.940 462.289, 530.425 463.027, 534 463.388 C 541.932 464.189, 552.823 467.914, 558.286 471.693 C 562.707 474.753, 570 483.367, 570 485.531 C 570 487.761, 571.857 488.213, 574.221 486.558 C 576.930 484.660, 592.370 484.384, 596.685 486.156 C 598.233 486.792, 599.950 487.373, 600.500 487.447 C 601.050 487.522, 602.772 488.215, 604.328 488.987 C 607.495 490.560, 610.254 489.539, 610.836 486.578 C 611.186 484.795, 617.875 478.074, 619.346 478.027 C 619.811 478.012, 621.524 477.051, 623.153 475.891 C 624.782 474.731, 626.385 474.052, 626.716 474.382 C 627.046 474.712, 627.807 474.606, 628.408 474.146 C 631.567 471.727, 640.350 470.500, 654.500 470.500 C 668.730 470.500, 684 472.346, 684 474.067 C 684 474.477, 684.832 474.595, 685.849 474.329 C 686.866 474.063, 689.228 474.779, 691.099 475.919 C 692.970 477.059, 695.457 477.994, 696.628 477.996 C 697.798 477.998, 699.291 478.646, 699.947 479.436 C 700.602 480.225, 702.366 481.141, 703.867 481.471 C 706.769 482.108, 710.533 485.236, 713 489.059 C 716.717 494.819, 718.187 495.579, 728.015 496.813 C 733.232 497.468, 738.513 498.280, 739.750 498.618 C 741.927 499.213, 742 499.008, 742 492.239 C 742 487.143, 741.580 484.896, 740.450 483.959 C 735.045 479.473, 733.066 462.712, 736.899 453.877 C 739.783 447.228, 740.478 443, 738.687 443 C 736.445 443, 726.630 431.872, 724.072 426.430 C 721.570 421.107, 721.044 410.472, 722.963 404.007 C 724.728 398.059, 724.665 398, 716.559 398 C 712.466 398, 708.835 397.543, 708.490 396.984 C 708.144 396.425, 707.415 396.244, 706.868 396.582 C 706.321 396.919, 705.115 396.531, 704.187 395.719 C 703.259 394.906, 700.925 393.445, 699 392.471 C 690.504 388.174, 682 375.167, 682 366.470 C 682 364.626, 681.635 362.893, 681.190 362.617 C 680.744 362.342, 677.578 363.451, 674.153 365.083 C 670.728 366.714, 665.905 368.325, 663.436 368.664 C 660.966 369.002, 658.706 369.666, 658.414 370.140 C 657.722 371.259, 651.278 371.259, 650.586 370.140 C 650.294 369.666, 648.016 369, 645.524 368.658 C 643.032 368.317, 639.157 367.100, 636.912 365.955 C 631.817 363.356, 622 353.506, 622 350.993 C 622 347.537, 619.804 347.684, 616.431 351.367 C 614.600 353.365, 612.452 355, 611.658 355 C 610.864 355, 609.963 355.654, 609.657 356.452 C 608.978 358.222, 600.986 361.987, 597.805 362.035 C 596.537 362.055, 594.375 362.714, 593 363.500 C 589.451 365.529, 574.287 365.467, 568.770 363.401 C 560.679 360.371, 557.698 358.483, 551.956 352.750 C 548.788 349.587, 545.958 347, 545.666 347 C 545.374 347, 544.830 347.959, 544.459 349.131 M 811 410.941 C 811 412.009, 811.478 413.177, 812.062 413.538 C 812.646 413.899, 813.616 415.388, 814.219 416.847 C 815.022 418.790, 815.419 419.068, 815.704 417.887 C 816.049 416.461, 812.436 409, 811.401 409 C 811.181 409, 811 409.873, 811 410.941 M 516.500 433.121 C 514.850 433.692, 512.825 434.419, 512 434.737 C 511.175 435.055, 509.974 435.233, 509.331 435.133 C 508.689 435.032, 506.567 436.033, 504.617 437.356 C 494.156 444.455, 492.847 447.484, 497.901 452.894 C 501.304 456.537, 502.879 456.650, 512.932 453.976 C 521.840 451.608, 526.026 451.511, 533.661 453.500 C 540.920 455.391, 545.005 455.398, 548.614 453.525 C 551.843 451.850, 552.829 449.940, 552.930 445.165 C 552.985 442.549, 552.228 441.146, 549.425 438.665 C 547.459 436.924, 545.547 435.461, 545.175 435.414 C 544.804 435.366, 543.825 435.059, 543 434.732 C 537.997 432.747, 520.636 431.691, 516.500 433.121 M 652.448 439.563 C 648.626 440.347, 642.241 442.557, 641 443.526 C 640.175 444.169, 638.776 444.951, 637.892 445.262 C 636.439 445.774, 635 449.967, 635 453.692 C 635 454.485, 636.638 456.679, 638.640 458.567 C 641.843 461.588, 642.916 462, 647.581 462 C 650.496 462, 653.160 461.550, 653.500 461 C 653.840 460.450, 655.865 460, 658 460 C 660.135 460, 662.160 460.450, 662.500 461 C 662.840 461.550, 664.855 462, 666.978 462 C 669.101 462, 672.112 462.631, 673.669 463.402 C 683.774 468.404, 686.664 468.902, 690.939 466.377 C 693.409 464.918, 696 460.227, 696 457.214 C 696 455.496, 690.306 449.352, 686.578 447.048 C 681.006 443.605, 657.681 438.489, 652.448 439.563 M 172.054 466.104 C 169.049 467.304, 163.093 472.040, 152.137 481.942 C 147.537 486.099, 140.998 491.750, 137.606 494.500 C 134.214 497.250, 128.302 502.485, 124.469 506.132 C 120.636 509.780, 114.361 515.405, 110.525 518.632 C 106.689 521.860, 102.554 525.657, 101.336 527.072 C 100.119 528.486, 97.325 530.889, 95.128 532.411 C 90.675 535.497, 88.611 539.846, 89.940 543.342 C 90.769 545.524, 106.014 560, 107.482 560 C 107.876 560, 110.111 562.025, 112.449 564.500 C 114.787 566.975, 117.061 569, 117.503 569 C 117.945 569, 120.610 571.138, 123.425 573.750 C 134.531 584.057, 146.386 594.526, 153.272 600.109 C 157.248 603.332, 163.191 608.226, 166.480 610.984 C 173 616.453, 175.039 616.950, 179.336 614.117 C 184.944 610.419, 185.916 607.366, 186.222 592.481 L 186.500 578.918 231.733 578.978 C 279.148 579.041, 278.460 579.100, 283.750 574.576 C 285.995 572.656, 286 572.578, 286 541.226 L 286 509.800 282.600 506.400 L 279.200 503 232.722 503 C 192.061 503, 186.085 502.807, 184.965 501.458 C 183.995 500.289, 183.966 499.634, 184.842 498.758 C 186.319 497.281, 186.448 473.395, 184.984 472.490 C 184.425 472.144, 184.208 471.472, 184.502 470.996 C 185.254 469.780, 178.712 464.987, 176.406 465.063 C 175.358 465.098, 173.399 465.566, 172.054 466.104 M 1023.110 466.396 C 1018.756 468.809, 1018.073 471.521, 1018.035 486.550 C 1018.011 496.102, 1017.616 500.984, 1016.800 501.800 C 1015.903 502.697, 1004.103 503.009, 970.050 503.036 C 924.513 503.072, 924.499 503.073, 921.878 505.286 C 920.436 506.504, 918.801 508.400, 918.244 509.500 C 916.588 512.769, 916.848 569.806, 918.534 573.065 C 921.691 579.172, 920.552 579.043, 971.121 578.980 C 996.495 578.948, 1017.531 579.198, 1017.869 579.535 C 1018.206 579.873, 1018.334 585.949, 1018.154 593.039 C 1017.751 608.853, 1018.163 610.892, 1022.337 613.750 C 1026.471 616.580, 1029.340 616.593, 1033.346 613.802 C 1038.422 610.265, 1064.265 588.388, 1071.681 581.350 C 1073.506 579.617, 1075 578.415, 1075 578.677 C 1075 578.939, 1076.165 577.769, 1077.589 576.077 C 1079.013 574.385, 1080.634 573, 1081.193 573 C 1081.751 573, 1084.973 570.346, 1088.354 567.101 C 1091.734 563.857, 1098.081 558.174, 1102.458 554.472 C 1111.906 546.481, 1114 543.995, 1114 540.772 C 1114 538.339, 1107.692 530, 1105.852 530 C 1105.306 530, 1102.812 527.750, 1100.309 525 C 1097.806 522.250, 1095.190 520, 1094.496 520 C 1093.801 520, 1091.649 518.247, 1089.712 516.103 C 1087.776 513.960, 1085.534 511.823, 1084.729 511.353 C 1083.433 510.597, 1071.646 500.412, 1068.486 497.318 C 1067.822 496.668, 1065.079 494.252, 1062.390 491.950 C 1059.700 489.647, 1055.250 485.678, 1052.500 483.131 C 1044.069 475.322, 1034.614 467.369, 1032.316 466.155 C 1029.476 464.654, 1026.093 464.742, 1023.110 466.396 M 499.727 481 C 498.329 482.100, 496.792 483, 496.313 483 C 495.834 483, 494.780 483.962, 493.971 485.138 C 493.162 486.315, 491.225 488.677, 489.667 490.388 C 482.213 498.574, 478 504.927, 478 507.981 L 478 511.113 480.969 509.359 C 482.602 508.394, 483.743 507.409, 483.503 507.170 C 483.264 506.930, 484.178 505.862, 485.534 504.795 C 486.890 503.728, 488 502.304, 488 501.630 C 488 500.100, 495.178 493, 496.725 493 C 497.353 493, 499.464 491.050, 501.418 488.666 C 503.371 486.282, 506.551 483.480, 508.485 482.438 C 513.249 479.873, 512.906 479, 507.135 479 C 503.784 479, 501.478 479.622, 499.727 481 M 162.500 492.670 C 159.200 495.747, 152.787 501.404, 148.250 505.240 C 143.713 509.076, 140 512.692, 140 513.274 C 140 513.857, 139.703 514.036, 139.340 513.673 C 138.977 513.310, 138.098 513.843, 137.387 514.858 C 136.676 515.873, 133.378 518.682, 130.058 521.101 C 126.737 523.521, 124.016 526.063, 124.010 526.750 C 124.005 527.438, 123.498 528, 122.884 528 C 121.665 528, 109.743 538.667, 109.109 540.325 C 108.692 541.415, 109.159 541.856, 133 562.846 C 141.525 570.352, 149.400 577.454, 150.500 578.629 C 151.600 579.804, 155.425 583.135, 159 586.030 C 162.575 588.925, 165.837 592.166, 166.249 593.231 C 166.661 594.296, 167.561 594.981, 168.249 594.754 C 169.125 594.464, 169.650 590.584, 170 581.818 C 170.804 561.691, 167.305 562.927, 223.256 563.001 C 247.590 563.033, 268.288 563.046, 269.250 563.029 C 270.864 563.002, 271 561.251, 271 540.500 L 271 518 224.250 517.930 C 198.537 517.891, 176.750 517.554, 175.833 517.180 C 174.915 516.806, 173.232 515.309, 172.092 513.854 C 170.274 511.534, 170.003 509.720, 169.894 499.104 C 169.825 492.447, 169.483 487.017, 169.134 487.037 C 168.785 487.058, 165.800 489.592, 162.500 492.670 M 646 488.583 C 644.625 489.346, 642.785 489.977, 641.911 489.985 C 639.292 490.010, 623.751 506.955, 621.127 512.647 C 617.177 521.216, 619.411 520.821, 628.852 511.283 C 633.633 506.452, 640.612 499.666, 644.361 496.202 C 648.699 492.193, 650.974 489.375, 650.620 488.452 C 649.958 486.728, 649.310 486.746, 646 488.583 M 1033 499.278 L 1033 511.626 1029.935 514.563 L 1026.870 517.500 979.685 518 L 932.500 518.500 932.204 539.843 C 932.017 553.364, 932.284 561.637, 932.932 562.418 C 933.725 563.374, 944.045 563.553, 978.815 563.215 C 1036.188 562.659, 1033 561.549, 1033 582.071 C 1033 589.183, 1033.410 595, 1033.911 595 C 1034.412 595, 1035.885 593.763, 1037.184 592.250 C 1038.483 590.737, 1041.560 587.867, 1044.023 585.872 C 1046.485 583.876, 1050.115 580.726, 1052.088 578.872 C 1059.809 571.617, 1073.264 559.572, 1076.680 556.857 C 1082.972 551.856, 1090.267 545.579, 1092.710 543.063 L 1095.076 540.626 1092.781 538.563 C 1091.519 537.428, 1086.440 532.914, 1081.493 528.531 C 1072.602 520.652, 1066.263 514.892, 1054.275 503.798 C 1050.886 500.663, 1046.401 497.008, 1044.307 495.678 C 1042.213 494.348, 1039.605 492.259, 1038.511 491.037 C 1037.417 489.815, 1035.730 488.391, 1034.761 487.872 C 1033.124 486.996, 1033 487.798, 1033 499.278 M 439.562 494.527 C 437.103 497.181, 436.032 499.582, 433.998 507 C 433.319 509.475, 432.557 512.175, 432.303 513 C 431.225 516.510, 431.898 530.819, 433.298 534.171 C 434.112 536.119, 435.084 539.104, 435.457 540.805 C 436.309 544.685, 443.183 552.623, 444.817 551.613 C 445.468 551.211, 446 549.754, 446 548.375 C 446 546.997, 446.523 544.891, 447.162 543.697 C 448.884 540.480, 449.619 495.451, 447.983 493.479 C 446.109 491.222, 442.171 491.712, 439.562 494.527 M 578.500 503.207 C 572.875 504.416, 572.042 505.224, 572.004 509.500 C 571.990 511.150, 571.309 514.750, 570.490 517.500 C 565.903 532.916, 557.721 544.344, 545.432 552.502 C 539.212 556.630, 526.563 559.983, 517.167 559.993 C 510.283 560.001, 496.929 557.020, 490.404 554.019 C 485.470 551.749, 476.020 543.314, 473.977 539.356 C 473.167 537.785, 471.941 536.141, 471.255 535.702 C 469.844 534.801, 466.602 527.921, 465.603 523.709 C 464.737 520.056, 463 521.199, 463 525.423 C 463 527.240, 462.584 530.926, 462.075 533.614 C 460.694 540.907, 460.393 551.996, 461.555 552.799 C 464.795 555.038, 467 559.546, 467 563.928 C 467 568.321, 467.185 568.641, 470.250 569.543 C 472.875 570.316, 473.553 571.077, 473.774 573.500 C 474.372 580.045, 474.804 580.713, 478.857 581.361 C 483.602 582.120, 484.853 583.520, 485.808 589.143 L 486.549 593.500 491.524 594.018 C 497.742 594.665, 498.592 595.210, 499.359 599.044 C 499.953 602.015, 500.060 602.072, 502.211 600.565 C 505.130 598.520, 506.221 598.590, 509 601 C 511.825 603.450, 515 603.620, 515 601.320 C 515 597.439, 519.588 586.173, 522.868 582 C 527.447 576.174, 534.120 570.032, 535.889 570.014 C 536.654 570.006, 539.579 568.579, 542.389 566.841 C 546.784 564.125, 549.398 563.379, 555.652 563.059 C 556.286 563.027, 557.269 561.666, 557.838 560.035 C 559.611 554.948, 566.016 555.304, 572.322 560.841 C 574.370 562.639, 584.275 563.022, 592.086 561.605 C 596.353 560.831, 596.919 560.990, 600.218 563.887 C 604.048 567.250, 605.548 567.706, 606.338 565.750 C 606.741 564.750, 606.858 564.750, 606.921 565.750 C 606.964 566.438, 608.098 567, 609.441 567 C 610.784 567, 612.136 567.411, 612.446 567.913 C 612.757 568.415, 614.768 569.123, 616.916 569.486 C 619.064 569.849, 621.591 570.996, 622.532 572.035 C 623.472 573.074, 625.875 574.464, 627.871 575.122 C 632.398 576.616, 641.870 586.369, 645.398 593.169 C 647.027 596.309, 648 599.803, 648 602.511 C 648 606.395, 650.571 612.977, 652.095 612.994 C 652.422 612.997, 653.505 612.100, 654.500 611 C 656.261 609.055, 661 608.186, 661 609.809 C 661 610.254, 661.598 611.436, 662.329 612.435 C 663.431 613.942, 664.030 614.054, 665.829 613.091 C 667.023 612.452, 668 611.261, 668 610.443 C 668 608.143, 672.555 606.450, 675.259 607.745 C 680.192 610.108, 681.023 610.047, 682.257 607.230 C 684.889 601.225, 690.545 599.085, 693.318 603.044 C 694.714 605.036, 694.804 604.997, 696.875 601.487 C 698.044 599.506, 699 597.546, 699 597.130 C 699 596.714, 700.315 595.114, 701.922 593.575 C 704.338 591.260, 705.535 590.841, 708.831 591.155 C 712.753 591.529, 712.828 591.474, 713.417 587.794 C 714.104 583.496, 719.083 577.277, 722.208 576.813 C 723.771 576.581, 724.799 575.086, 726.163 571.061 C 727.177 568.069, 728.905 564.665, 730.003 563.496 C 731.102 562.327, 732 560.682, 732 559.841 C 732 558.999, 732.900 557.495, 734 556.500 C 735.298 555.326, 736 553.420, 736 551.073 C 736 548.596, 736.888 546.360, 738.817 543.978 C 741.588 540.558, 741.631 540.304, 741.410 528.676 C 741.286 522.173, 740.966 516.633, 740.698 516.365 C 740.430 516.097, 735.101 515.793, 728.856 515.689 L 717.500 515.500 717.831 518.800 C 718.013 520.616, 717.722 522.641, 717.185 523.300 C 716.647 523.960, 715.730 526.075, 715.146 528 C 709.323 547.197, 702.606 555.308, 685.881 563.338 C 674.011 569.037, 670.475 570.003, 661.624 569.965 C 650.544 569.917, 642.965 568.105, 632.962 563.114 C 624.880 559.081, 615 550.985, 615 548.395 C 615 547.745, 614.313 546.950, 613.474 546.628 C 611.998 546.062, 609.365 540.794, 606.413 532.500 C 605.630 530.300, 604.701 523.718, 604.349 517.874 L 603.709 507.248 598.604 504.974 C 592.650 502.321, 585.535 501.696, 578.500 503.207 M 777.903 515.768 C 775.546 517.015, 772.881 518.703, 771.980 519.518 C 771.080 520.333, 769.815 521, 769.171 521 C 768.527 521, 768 521.605, 768 522.345 C 768 523.085, 767.152 524.457, 766.116 525.395 C 765.080 526.333, 763.650 529.177, 762.939 531.716 C 762.229 534.255, 760.351 537.809, 758.766 539.614 C 755.972 542.796, 755.936 542.972, 757.569 545.465 C 758.878 547.462, 759.100 549.188, 758.567 553.210 C 758.189 556.056, 757.610 558.823, 757.279 559.357 C 756.949 559.892, 756.783 563.222, 756.912 566.757 C 757.104 572.060, 756.668 574.127, 754.424 578.562 C 751.216 584.903, 751.733 586.105, 758.483 587.995 C 764.843 589.776, 774.240 587.860, 781.010 583.401 C 783.850 581.531, 786.585 580, 787.087 580 C 787.589 580, 788 579.347, 788 578.550 C 788 577.752, 788.587 576.740, 789.305 576.300 C 791.079 575.213, 796.431 568, 795.464 568 C 795.038 568, 795.400 567.212, 796.269 566.250 C 797.137 565.288, 798.874 561.800, 800.129 558.500 C 803.254 550.284, 803.509 530.679, 800.572 524.500 C 798.318 519.759, 795.145 516, 793.397 516 C 792.707 516, 791.548 515.438, 790.821 514.750 C 788.754 512.795, 782.604 513.279, 777.903 515.768 M 551.635 590.509 C 551.316 591.339, 550.706 591.943, 550.278 591.851 C 549.850 591.758, 548.825 591.960, 548 592.298 C 547.175 592.637, 545.177 593.046, 543.560 593.207 C 541.378 593.424, 539.772 594.684, 537.331 598.091 C 534.401 602.180, 534.025 603.465, 533.894 609.836 C 533.796 614.629, 534.201 617.538, 535.124 618.649 C 535.881 619.561, 536.358 620.351, 536.185 620.404 C 535.033 620.757, 537.740 624.332, 540.075 625.539 C 541.633 626.345, 543.653 628.574, 544.564 630.493 C 545.953 633.421, 546.606 633.886, 548.617 633.381 C 550.058 633.019, 551.995 633.422, 553.472 634.390 C 554.824 635.275, 556.473 636, 557.136 636 C 559.049 636, 561.915 632.943, 561.360 631.495 C 561.082 630.770, 562.057 628.359, 563.528 626.137 L 566.202 622.096 576.351 622.611 C 581.933 622.895, 587.430 623.311, 588.567 623.536 C 591.211 624.060, 593.006 627.442, 593.282 632.421 C 593.478 635.954, 593.936 636.572, 597.907 638.671 C 603.256 641.498, 606.688 641.591, 610 639 C 611.477 637.844, 614.136 637.017, 616.500 636.977 C 620.002 636.918, 621.032 636.302, 624.772 632.022 C 628.999 627.186, 629.051 627.033, 629.633 617.817 C 630.182 609.106, 630.064 608.272, 627.812 605 C 626.487 603.075, 625.119 600.757, 624.771 599.850 C 624.403 598.888, 622.465 597.917, 620.127 597.521 C 617.921 597.149, 615.584 596.204, 614.935 595.422 C 613.605 593.819, 611 593.504, 611 594.945 C 611 595.465, 612.237 596.481, 613.750 597.202 C 615.736 598.150, 616.584 599.378, 616.804 601.625 C 617.059 604.244, 616.379 605.377, 612.498 608.793 C 608.132 612.636, 600.815 616, 596.822 616 C 595.820 616, 595 616.450, 595 617 C 595 617.603, 590.853 618, 584.559 618 C 578.677 618, 573.848 617.563, 573.500 617 C 573.160 616.450, 571.424 616, 569.641 616 C 567.858 616, 565.972 615.624, 565.450 615.165 C 564.928 614.706, 562.293 613.518, 559.596 612.524 C 552.632 609.958, 546.996 604.631, 547.015 600.634 C 547.038 595.925, 548.283 594.775, 553.950 594.231 C 558.537 593.790, 559.425 594.033, 561.899 596.404 C 564.794 599.177, 573.552 603, 577.011 603 C 578.105 603, 579 603.454, 579 604.008 C 579 604.652, 579.634 604.685, 580.750 604.100 C 581.712 603.595, 586.325 602.634, 591 601.963 C 602.738 600.280, 606.146 597.212, 599.405 594.396 C 596.189 593.052, 595.561 593.058, 593.441 594.447 C 589.104 597.289, 582 595.621, 582 591.762 C 582 591.160, 581.707 590.960, 581.349 591.318 C 580.991 591.676, 580.148 591.218, 579.477 590.299 C 578.368 588.783, 577.884 588.924, 574.203 591.840 L 570.149 595.050 566.811 593.175 C 564.383 591.811, 563.035 591.575, 561.868 592.312 C 560.675 593.064, 559.484 592.769, 557.227 591.162 C 553.641 588.608, 552.419 588.466, 551.635 590.509 M 187.557 667.223 C 185.424 670.267, 185.545 670.971, 189.141 676.400 C 191.206 679.517, 194.150 682.196, 197.729 684.216 C 204.813 688.214, 206.089 690.841, 202.881 694.824 C 199.470 699.058, 190.857 699.747, 169.500 697.493 L 162.500 696.754 164.750 699.191 C 165.988 700.532, 167 702.364, 167 703.264 C 167 705.522, 160.443 710.395, 158.793 709.362 C 158.082 708.917, 157.050 708.516, 156.500 708.472 C 155.950 708.427, 154.150 707.783, 152.500 707.040 C 148.099 705.058, 139.567 702.099, 139.229 702.437 C 138.711 702.956, 145.600 707.294, 152.500 710.794 C 161.327 715.272, 162.890 718.328, 158.927 723.365 C 156.518 726.429, 151.751 726.915, 148.240 724.456 C 144.598 721.905, 134.260 716.217, 131.908 715.471 C 130.700 715.087, 125.668 712.118, 120.725 708.873 C 115.783 705.628, 110.592 702.685, 109.189 702.333 C 105.726 701.463, 101.576 703.922, 101.205 707.062 C 100.900 709.644, 105.553 716.895, 107.559 716.964 C 108.142 716.984, 110.755 719.475, 113.367 722.500 C 115.978 725.525, 118.576 728, 119.139 728 C 119.703 728, 122.059 729.554, 124.377 731.452 C 129.648 735.772, 140.234 742.994, 141.298 742.998 C 141.737 742.999, 144.558 744.575, 147.567 746.500 C 150.577 748.425, 153.300 750, 153.618 750 C 153.937 750, 155.616 750.638, 157.349 751.418 C 165.457 755.067, 170.360 757, 171.505 757 C 172.193 757, 174.498 757.758, 176.628 758.684 C 178.758 759.610, 181.096 760.258, 181.824 760.123 C 182.552 759.988, 183.677 760.306, 184.324 760.828 C 184.971 761.351, 188.875 762.525, 193 763.437 C 203.998 765.869, 207.242 767.003, 209.750 769.294 C 212.337 771.657, 212.681 775.190, 210.500 777 C 208.327 778.804, 208.649 781.395, 211.583 785.706 C 213.003 787.793, 215.284 791.975, 216.650 795 C 220.040 802.501, 221.729 805.650, 225.502 811.500 C 229.807 818.174, 234 826.188, 234 827.742 C 234 828.434, 234.406 829, 234.901 829 C 235.809 829, 238.367 832.887, 242.645 840.766 C 250.778 855.746, 274.773 883.405, 287.500 892.471 C 293.296 896.599, 302.024 901, 304.416 901 C 305.054 901, 307.360 901.967, 309.539 903.148 C 312.797 904.915, 315.292 905.314, 323.596 905.398 C 330.809 905.471, 334.165 905.108, 335.346 904.128 C 336.256 903.373, 337 903.090, 337 903.500 C 337 903.910, 337.563 903.817, 338.250 903.295 C 338.938 902.772, 341.750 901.537, 344.500 900.551 C 359.575 895.142, 375.432 884.996, 390.465 871.139 C 395.204 866.771, 395.921 864.721, 393.633 862.079 C 392.881 861.210, 390.360 856.900, 388.031 852.500 C 385.703 848.100, 380.881 840.504, 377.318 835.620 C 373.754 830.737, 370.584 826.079, 370.274 825.271 C 369.963 824.462, 368.762 822.789, 367.605 821.554 C 362.154 815.736, 360 813.106, 360 812.268 C 360 810.749, 340.015 790.140, 337.887 789.464 C 336.796 789.118, 335.249 789.378, 334.448 790.043 C 333.185 791.092, 333.246 791.665, 334.913 794.376 C 340.074 802.770, 330.577 809.590, 323.250 802.752 C 322.012 801.596, 321 800.139, 321 799.513 C 321 798.254, 315.846 793, 314.611 793 C 314.183 793, 308.898 788.050, 302.867 782 C 296.836 775.950, 291.548 771, 291.115 771 C 290.682 771, 287.287 767.850, 283.570 764 C 279.853 760.150, 276.612 757, 276.367 757 C 276.122 757, 271.267 752.388, 265.578 746.750 L 255.235 736.500 254.565 727.747 C 253.801 717.767, 252.469 713.954, 246.787 705.500 C 241.648 697.852, 235.250 692.673, 226.881 689.386 C 223.241 687.957, 217.391 684.563, 213.881 681.845 C 197.482 669.144, 191.724 665, 190.470 665 C 189.724 665, 188.413 666, 187.557 667.223 M 1007.704 667.750 C 1005.728 669.263, 999.419 674.197, 993.684 678.716 C 987.028 683.960, 981.131 687.719, 977.379 689.108 C 957.770 696.366, 947.032 711.936, 947.006 733.146 C 947.001 737.270, 946.578 738.157, 943.250 741.029 C 936.616 746.753, 897.857 783.987, 886.365 795.675 C 874.192 808.057, 872.487 808.861, 867.740 804.460 C 864.641 801.586, 864.259 798.503, 866.589 795.176 C 868.332 792.688, 867.857 790, 865.674 790 C 864.911 790, 861.973 792.362, 859.146 795.250 C 849.630 804.969, 843 812.083, 843 812.572 C 843 812.840, 841.313 815.246, 839.250 817.920 C 837.188 820.593, 833.700 825.368, 831.500 828.530 C 826.496 835.722, 820.397 844.149, 819.140 845.609 C 818.614 846.219, 817.183 848.694, 815.959 851.109 C 814.735 853.524, 812 857.689, 809.881 860.363 C 807.479 863.395, 806.308 865.727, 806.771 866.555 C 809.033 870.597, 832.642 888.736, 841.742 893.423 C 849.669 897.506, 857.881 900.887, 861.538 901.573 C 863.442 901.930, 865 902.608, 865 903.080 C 865 903.551, 865.681 903.676, 866.513 903.357 C 867.345 903.037, 868.765 903.389, 869.669 904.138 C 871.668 905.795, 891.247 905.870, 893.225 904.229 C 893.926 903.646, 894.840 903.136, 895.255 903.095 C 895.670 903.054, 899.130 901.449, 902.944 899.528 C 909 896.478, 917.184 890.601, 922.910 885.188 C 923.892 884.260, 925.889 882.649, 927.348 881.610 C 928.806 880.570, 930 879.232, 930 878.635 C 930 878.038, 932.868 874.614, 936.374 871.025 C 939.879 867.436, 944.718 861.575, 947.127 858 C 949.536 854.425, 952.699 849.925, 954.154 848 C 955.610 846.075, 958.468 841.350, 960.504 837.500 C 962.541 833.650, 964.723 830.050, 965.353 829.500 C 965.984 828.950, 967.992 825.471, 969.816 821.768 C 971.640 818.065, 973.518 814.798, 973.989 814.507 C 974.461 814.215, 975.142 812.632, 975.503 810.989 C 975.864 809.345, 976.557 808, 977.044 808 C 977.530 808, 980.431 802.735, 983.489 796.301 C 986.548 789.867, 989.725 783.857, 990.549 782.946 C 992.039 781.300, 991.601 778, 989.893 778 C 989.402 778, 989 776.922, 989 775.604 C 989 771.905, 994.945 767.269, 1000.708 766.474 C 1003.344 766.111, 1008.474 764.955, 1012.108 763.907 C 1015.742 762.858, 1019.455 762, 1020.358 762 C 1021.261 762, 1022 761.502, 1022 760.893 C 1022 760.284, 1022.675 760.045, 1023.500 760.362 C 1024.325 760.678, 1025 760.501, 1025 759.969 C 1025 759.436, 1025.685 759, 1026.522 759 C 1027.359 759, 1033.164 756.998, 1039.422 754.551 C 1050.090 750.380, 1056.719 746.815, 1066.663 739.896 C 1068.953 738.303, 1071.294 737, 1071.864 737 C 1072.434 737, 1073.359 736.212, 1073.920 735.250 C 1074.481 734.288, 1074.953 733.938, 1074.970 734.473 C 1074.986 735.007, 1075.701 734.445, 1076.557 733.223 C 1077.413 732, 1078.782 731, 1079.600 731 C 1080.418 731, 1085.792 726.329, 1091.543 720.619 C 1102.852 709.393, 1104.314 706.375, 1099.505 704.184 C 1095.483 702.352, 1091.143 703.924, 1080.506 711.067 C 1075.003 714.762, 1068.813 718.319, 1066.750 718.970 C 1064.688 719.622, 1063 720.597, 1063 721.137 C 1063 721.676, 1062.550 721.840, 1062 721.500 C 1061.450 721.160, 1061 721.296, 1061 721.802 C 1061 722.308, 1058.520 723.672, 1055.488 724.832 C 1047.451 727.907, 1044 726.172, 1044 719.054 C 1044 716.961, 1044.942 715.619, 1047.804 713.636 C 1049.896 712.186, 1052.091 711, 1052.681 711 C 1053.272 711, 1054.354 710.278, 1055.086 709.396 C 1055.819 708.514, 1057.561 707.302, 1058.959 706.703 L 1061.500 705.614 1058.628 705.229 C 1057.049 705.017, 1055.271 705.329, 1054.678 705.922 C 1054.085 706.515, 1052.790 707, 1051.800 707 C 1050.810 707, 1050 707.498, 1050 708.107 C 1050 708.716, 1049.325 708.955, 1048.500 708.638 C 1047.675 708.322, 1047 708.427, 1047 708.871 C 1047 709.316, 1045.185 710.279, 1042.967 711.011 C 1039.290 712.224, 1038.695 712.163, 1036.217 710.321 C 1031.386 706.727, 1032.065 704.152, 1039.335 698.500 C 1040.750 697.400, 1041.928 696.107, 1041.954 695.628 C 1041.979 695.148, 1041.438 695.213, 1040.750 695.774 C 1038.169 697.877, 1031.051 699.113, 1016.500 699.984 C 998.775 701.046, 997 700.509, 997 694.092 C 997 689.937, 999.119 687.761, 1004.477 686.417 C 1005.953 686.046, 1007.438 685.013, 1007.775 684.121 C 1008.112 683.230, 1009.015 681.866, 1009.782 681.090 C 1012.183 678.663, 1016.373 671.582, 1016.527 669.693 C 1016.657 668.096, 1013.622 665, 1011.926 665 C 1011.580 665, 1009.680 666.237, 1007.704 667.750 M 670.250 679.621 C 666.813 681.466, 664 682.701, 664 682.365 C 664 682.030, 663.438 682.218, 662.750 682.783 C 660.777 684.406, 650.033 687.242, 647.937 686.694 C 646.893 686.421, 643.218 687.099, 639.770 688.201 C 636.321 689.302, 628.775 690.598, 623 691.081 C 617.225 691.564, 609.075 692.352, 604.888 692.833 C 586.880 694.901, 545.207 688.999, 535.511 683.007 C 533.725 681.903, 531.755 681, 531.132 681 C 528.776 681, 530.110 686.622, 533.765 692.101 C 534.719 693.531, 536.367 696.006, 537.426 697.601 C 543.059 706.081, 555.576 714.797, 567.500 718.544 C 570.250 719.408, 573.175 720.384, 574 720.711 C 574.825 721.039, 576.314 721.205, 577.310 721.081 C 578.305 720.956, 579.837 721.449, 580.713 722.177 C 583.007 724.080, 609.033 724.047, 611.334 722.138 C 612.236 721.389, 613.600 721.016, 614.365 721.310 C 615.130 721.604, 616.149 721.477, 616.628 721.029 C 617.108 720.580, 619.970 719.697, 622.990 719.066 C 626.009 718.435, 630.959 716.762, 633.990 715.349 C 637.020 713.937, 641.004 712.084, 642.842 711.233 C 644.680 710.382, 646.415 709.081, 646.699 708.342 C 646.982 707.604, 647.875 707, 648.683 707 C 652.438 707, 671.705 689.041, 674.331 683.092 C 674.961 681.666, 676.156 679.968, 676.988 679.317 C 677.983 678.539, 678.158 677.815, 677.500 677.200 C 676.868 676.609, 674.202 677.499, 670.250 679.621 M 98.250 686.662 C 97.563 686.940, 97 687.862, 97 688.711 C 97 689.963, 97.788 690.130, 101.155 689.591 C 106.033 688.811, 107.244 688.204, 106.457 686.931 C 105.859 685.962, 100.426 685.784, 98.250 686.662 M 1099.118 687.906 C 1098.038 688.590, 1098.218 688.934, 1099.943 689.482 C 1102.423 690.269, 1103.530 689.666, 1102.541 688.067 C 1101.748 686.783, 1100.951 686.745, 1099.118 687.906 M 436.639 931.694 C 435.686 932.647, 435.867 935, 436.893 935 C 438.120 935, 439.105 932.183, 438.096 931.559 C 437.647 931.282, 436.991 931.342, 436.639 931.694" stroke="none" fill="#171916" fill-rule="evenodd"/>
</svg>