<svg role="img" aria-labelledby="artwork-title" shape-rendering="geometricPrecision" xmlns="http://www.w3.org/2000/svg" width="1200" height="1200" viewBox="0 0 1200 1200" version="1.1">
	<title id="artwork-title">Mascot holding a childhood photo frame</title>
	<path d="M 654.450 80.937 C 653.928 81.453, 649.132 82.784, 643.793 83.895 C 638.454 85.006, 632.284 86.835, 630.083 87.958 C 627.881 89.081, 625.366 90, 624.494 90 C 623.622 90, 621.784 91.125, 620.409 92.500 C 619.034 93.875, 617.438 95, 616.862 95 C 615.526 95, 612.203 97.623, 604.817 104.509 C 601.578 107.529, 598.226 110, 597.367 110 C 596.509 110, 593.713 108.134, 591.153 105.854 C 586.457 101.669, 573.670 95.005, 570.316 94.994 C 569.317 94.990, 567.150 94.266, 565.500 93.383 C 561.003 90.977, 549.715 89.985, 540.500 91.186 C 536.100 91.759, 532.050 92.585, 531.500 93.022 C 530.950 93.458, 527.924 94.289, 524.775 94.869 C 518.696 95.988, 510.138 99.254, 506 102.035 C 504.625 102.959, 503.050 103.891, 502.500 104.107 C 497.960 105.890, 486.995 115.626, 481.844 122.447 C 475.955 130.246, 470.015 140.651, 469.985 143.221 C 469.952 145.965, 468.358 147.236, 466.384 146.093 C 464.013 144.718, 458.820 142.635, 457.500 142.528 C 456.950 142.484, 456.003 142.135, 455.395 141.754 C 454.787 141.373, 450.033 140.761, 444.830 140.396 C 437.749 139.898, 434.759 140.069, 432.936 141.075 C 431.596 141.815, 429.904 142.298, 429.176 142.149 C 428.448 142, 427.323 142.297, 426.676 142.809 C 426.029 143.321, 423.700 144.063, 421.500 144.459 C 419.300 144.855, 417.050 145.534, 416.500 145.967 C 415.950 146.401, 414.375 147.080, 413 147.478 C 409.827 148.394, 395.054 158.288, 393 160.871 C 392.725 161.217, 391.615 161.990, 390.532 162.589 C 389.450 163.187, 387.875 164.814, 387.032 166.202 C 386.190 167.591, 383.649 171.162, 381.386 174.137 C 379.123 177.112, 376.343 181.368, 375.206 183.595 C 370.232 193.346, 367.318 215.215, 370.162 221.457 C 371.650 224.722, 371.266 225.033, 365.118 225.544 C 360.065 225.964, 351.786 229.663, 346.375 233.920 C 344.920 235.064, 343.149 236, 342.438 236 C 341.057 236, 330.827 248.187, 327.328 254 C 315.866 273.045, 316.506 307.010, 328.652 324.252 C 330.494 326.866, 332 329.406, 332 329.897 C 332 330.387, 330.680 332.202, 329.066 333.929 C 327.452 335.657, 325.583 338.742, 324.912 340.785 C 324.241 342.828, 322.763 346.291, 321.626 348.479 C 319.943 351.719, 319.487 354.790, 319.168 365.008 C 318.813 376.404, 319.008 378.222, 321.285 384.770 C 325.313 396.353, 334.166 407.853, 341.672 411.253 C 343.186 411.939, 345.517 413.510, 346.852 414.744 C 349.175 416.892, 349.230 417.229, 348.139 422.661 C 344.719 439.691, 348.819 456.917, 358.921 467.961 C 363.745 473.234, 363.603 474.601, 357.605 480.619 C 355.347 482.885, 352.934 485.585, 352.243 486.619 C 349.103 491.317, 344.113 502.917, 343.476 507 C 343.090 509.475, 342.432 511.950, 342.013 512.500 C 341.595 513.050, 340.714 517.265, 340.055 521.867 C 338.797 530.647, 340.104 546.997, 342.284 549.774 C 342.835 550.475, 343 551.334, 342.651 551.682 C 342.303 552.031, 342.404 552.807, 342.876 553.408 C 343.348 554.009, 344.752 557.650, 345.997 561.500 C 349.710 572.988, 352.773 579.628, 355.975 583.134 C 357.639 584.956, 359 586.923, 359 587.507 C 359 589.224, 369.408 599, 371.236 599 C 372.156 599, 374.055 600.145, 375.455 601.545 C 377.752 603.843, 378 604.860, 378 611.986 C 378 616.465, 378.458 620.165, 379.059 620.536 C 379.642 620.896, 379.993 622.161, 379.840 623.346 C 379.687 624.530, 379.894 626.034, 380.301 626.687 C 380.708 627.340, 381.507 631.595, 382.077 636.144 C 382.865 642.428, 384.061 646.290, 387.057 652.232 C 389.226 656.533, 391 660.623, 391 661.320 C 391 662.018, 392.868 666.394, 395.152 671.044 C 398.479 677.821, 400.934 681.093, 407.518 687.522 C 412.037 691.934, 417.344 698.062, 419.313 701.140 C 423.741 708.063, 428.644 712.767, 434.226 715.447 C 436.577 716.576, 438.500 718.175, 438.500 719 C 438.500 720.268, 435.796 720.532, 421.006 720.710 C 411.384 720.825, 394.059 721.387, 382.506 721.957 C 370.953 722.528, 356.527 722.996, 350.450 722.997 C 344.372 722.999, 338.972 723.411, 338.450 723.914 C 337.927 724.417, 324.450 725.074, 308.500 725.376 C 292.550 725.677, 262.537 726.728, 241.804 727.712 L 204.107 729.500 200.457 733 C 198.449 734.925, 196.397 737.550, 195.896 738.833 C 195.019 741.082, 195.439 751.048, 198.032 789.500 C 201.535 841.447, 204.941 900.364, 204.972 909.550 C 204.988 913.978, 205.410 918.028, 205.911 918.550 C 206.412 919.073, 207.136 922.945, 207.520 927.156 C 208.187 934.477, 208.114 934.876, 205.859 936.293 C 204.561 937.108, 201.025 938.327, 198 939.002 C 188.279 941.169, 180.474 945.691, 173.560 953.158 C 164.404 963.047, 161.768 969.075, 161.206 981.412 C 160.945 987.137, 161.250 993.541, 161.929 996.571 C 162.888 1000.858, 162.841 1002.445, 161.672 1005.243 C 160.885 1007.126, 159.668 1012.005, 158.968 1016.084 C 158.268 1020.163, 157.314 1023.927, 156.848 1024.450 C 155.864 1025.552, 155.707 1030.373, 156.624 1031.291 C 158.870 1033.537, 161.919 1046.235, 161.958 1053.503 C 162.009 1063.145, 164.532 1072.627, 168.860 1079.446 C 171.310 1083.304, 172.001 1085.503, 172.006 1089.446 C 172.009 1092.226, 172.493 1096.300, 173.082 1098.500 C 174.757 1104.756, 180.319 1115.270, 182.217 1115.767 C 183.161 1116.014, 184.204 1117.067, 184.534 1118.108 C 185.105 1119.906, 186.554 1120, 213.567 1120 L 242 1120 242 1116.475 C 242 1113.538, 242.458 1112.784, 244.750 1111.955 C 249.983 1110.060, 252.317 1108.481, 258.901 1102.385 C 268.251 1093.729, 270.504 1088.889, 270.486 1077.500 C 270.478 1071.918, 269.942 1067.361, 269.075 1065.500 C 268.306 1063.850, 267.730 1062.222, 267.794 1061.883 C 267.859 1061.543, 266.806 1060.227, 265.456 1058.958 C 262.317 1056.010, 262.353 1053.952, 265.597 1050.924 C 271.469 1045.444, 274.648 1033.626, 272.991 1023.442 C 272.023 1017.498, 265.889 1007.103, 260.080 1001.563 C 256.328 997.985, 256.280 996.904, 259.619 991.207 C 261.673 987.701, 262.348 984.971, 262.749 978.535 C 263.213 971.099, 263 969.750, 260.469 964.110 C 256.821 955.982, 246.696 946.393, 237.558 942.412 C 234.023 940.872, 230.667 938.687, 230.102 937.556 C 229.537 936.425, 228.587 927.175, 227.992 917 C 227.396 906.825, 226.508 894.225, 226.018 889 C 225.528 883.775, 224.654 870.050, 224.077 858.500 C 223.499 846.950, 222.588 833.450, 222.051 828.500 C 221.515 823.550, 220.781 813.200, 220.420 805.500 C 220.060 797.800, 219.542 791.123, 219.269 790.663 C 218.997 790.203, 218.848 784.496, 218.938 777.981 C 219.048 770.026, 218.694 765.483, 217.861 764.149 C 216.880 762.579, 216.878 761.852, 217.847 760.684 C 219.255 758.987, 223 759.597, 223 761.523 C 223 763.228, 236.033 775.255, 243.063 780.037 C 246.122 782.118, 249.803 785.364, 251.242 787.250 C 252.681 789.137, 256.380 791.990, 259.462 793.590 C 262.865 795.357, 265.226 797.285, 265.472 798.500 C 265.695 799.600, 266.095 807.311, 266.359 815.636 C 266.624 823.961, 267.295 831.611, 267.851 832.636 C 268.407 833.661, 269.385 846.200, 270.025 860.500 C 271.641 896.597, 272.767 918.190, 273.492 927 C 274.750 942.276, 278.110 999.969, 278.553 1013.904 C 278.805 1021.827, 279.411 1028.802, 279.900 1029.404 C 280.388 1030.007, 281.296 1038.375, 281.917 1048 C 283.583 1073.825, 287.058 1119.391, 287.387 1119.720 C 287.543 1119.877, 375.383 1119.891, 482.586 1119.753 L 677.500 1119.500 674.416 1116.500 C 671.543 1113.706, 671.287 1112.868, 670.680 1104.300 C 669.993 1094.595, 670.715 1092.527, 673.813 1095.331 C 677.701 1098.849, 685.228 1101.033, 695.664 1101.672 C 705.602 1102.280, 706.196 1102.444, 708.541 1105.231 C 709.893 1106.838, 711 1109.264, 711 1110.622 C 711 1111.980, 712.125 1114.216, 713.500 1115.591 C 714.875 1116.966, 716 1118.520, 716 1119.045 C 716 1119.619, 723.816 1120, 735.583 1120 C 750.708 1120, 755.073 1119.718, 754.754 1118.762 C 754.527 1118.080, 752.107 1116.843, 749.376 1116.012 C 746.645 1115.180, 742.071 1112.815, 739.210 1110.755 C 734.141 1107.105, 728.057 1099.058, 728.019 1095.953 C 727.994 1093.915, 721.810 1088.159, 715.245 1084.063 C 710.398 1081.039, 709.116 1080.731, 698.745 1080.089 C 685.887 1079.294, 684.182 1078.527, 677.986 1070.745 C 672.880 1064.332, 672.606 1060.105, 677.029 1055.973 C 682.185 1051.156, 687.708 1049.660, 698.285 1050.213 C 703.391 1050.480, 708.453 1051.164, 709.534 1051.733 C 710.615 1052.302, 713.393 1053.081, 715.708 1053.465 C 719.669 1054.121, 720.152 1053.927, 723.958 1050.159 C 726.181 1047.958, 728 1045.192, 728 1044.013 C 728 1041.198, 726.247 1038, 724.705 1038 C 724.031 1038, 722.338 1036.942, 720.943 1035.648 C 717.836 1032.767, 709.220 1029.491, 702.500 1028.637 C 699.750 1028.287, 693 1028.497, 687.500 1029.103 C 672.865 1030.715, 671.992 1030.599, 668.250 1026.548 C 665.617 1023.698, 665 1022.200, 665 1018.665 C 665 1013.924, 668.410 1007.771, 673 1004.229 C 675.895 1001.995, 687.734 998, 691.459 998 C 692.857 998, 694 997.550, 694 997 C 694 995.695, 704.693 995.695, 705.500 997 C 705.840 997.550, 707.260 998, 708.655 998 C 710.051 998, 713.602 998.701, 716.547 999.557 C 719.493 1000.413, 724.032 1000.976, 726.635 1000.807 C 731.187 1000.512, 731.459 1000.317, 733.743 995.725 C 736.385 990.415, 736.193 988.963, 732.229 984.268 C 726.802 977.842, 702.881 973.286, 688.657 975.970 C 682.750 977.085, 681.714 977.023, 678.313 975.354 C 671.286 971.906, 671.286 964.322, 678.312 957.721 C 682.832 953.475, 693.514 948, 697.278 948 C 698.555 948, 700.163 947.438, 700.851 946.750 C 702.354 945.249, 731.906 945.263, 732.888 946.765 C 733.224 947.280, 734.625 947.953, 736 948.260 C 739.070 948.944, 749.760 953.292, 756.500 956.598 C 764.600 960.570, 769.708 964.611, 778.005 973.612 C 783.145 979.188, 794 995, 794 996.911 C 794 997.612, 794.900 999.329, 796 1000.727 C 797.100 1002.126, 798 1004.037, 798 1004.974 C 798 1006.553, 800.401 1010.268, 805.615 1016.756 C 807.459 1019.050, 808.614 1019.436, 814.615 1019.759 C 818.402 1019.964, 822.175 1020.413, 823 1020.758 C 823.825 1021.103, 824.950 1021.432, 825.500 1021.489 C 826.050 1021.546, 827.540 1022.165, 828.811 1022.864 C 830.082 1023.563, 835.032 1024.534, 839.811 1025.021 C 844.590 1025.508, 853.675 1026.611, 860 1027.472 C 866.325 1028.333, 877.447 1029.668, 884.716 1030.439 C 891.985 1031.210, 898.504 1032.193, 899.202 1032.625 C 899.900 1033.056, 901.895 1033.287, 903.635 1033.137 C 905.374 1032.987, 907.095 1033.345, 907.458 1033.932 C 907.821 1034.519, 910.745 1035, 913.955 1035 C 919.419 1035, 919.998 1034.766, 922.993 1031.356 C 931.603 1021.549, 919.568 1013.061, 893.227 1010.362 C 889.771 1010.008, 886.705 1009.331, 886.413 1008.859 C 886.121 1008.387, 883.224 1008, 879.976 1008 C 875.362 1008, 873.873 1007.617, 873.169 1006.250 C 872.673 1005.288, 872.021 999.257, 871.721 992.848 C 871.047 978.484, 871.509 977.540, 879.724 976.518 C 885.046 975.856, 891.568 974.124, 896.500 972.064 C 897.600 971.604, 906.150 970.243, 915.500 969.040 C 936.123 966.386, 963.347 966.534, 982.500 969.404 C 995.467 971.348, 995.696 971.410, 1004.250 975.338 L 1010 977.978 1010 985.289 C 1010 989.310, 1010.427 993.028, 1010.948 993.550 C 1012.640 995.245, 1013.817 1041.015, 1012.605 1058 C 1011.997 1066.525, 1011.131 1074.070, 1010.681 1074.767 C 1010.230 1075.463, 1009.959 1077.038, 1010.079 1078.267 C 1010.199 1079.495, 1010.030 1081.175, 1009.703 1082 C 1008.411 1085.263, 1007.009 1091.656, 1006.962 1094.500 C 1006.934 1096.150, 1006.220 1099.300, 1005.374 1101.500 C 1004.528 1103.700, 1003.225 1107.750, 1002.479 1110.500 C 1001.732 1113.250, 1000.816 1116.513, 1000.444 1117.750 C 999.771 1119.987, 999.830 1120, 1010.633 1119.999 L 1021.500 1119.997 1023.712 1115.006 C 1027.006 1107.574, 1031.710 1082.485, 1032.927 1065.854 C 1034.655 1042.261, 1034.032 1011.416, 1031.430 991.688 C 1030.801 986.918, 1030.839 986.835, 1035.790 982.188 C 1038.537 979.610, 1041.329 976.432, 1041.994 975.127 C 1043.486 972.197, 1042.539 953.853, 1040.362 943.500 C 1039.552 939.650, 1038.455 933.610, 1037.924 930.078 C 1037.394 926.546, 1036.463 923.058, 1035.857 922.328 C 1035.251 921.598, 1035.090 921, 1035.500 921 C 1035.910 921, 1035.728 920.377, 1035.097 919.616 C 1034.465 918.855, 1033.278 914.732, 1032.460 910.453 C 1030.599 900.727, 1024.386 877.505, 1022.574 873.500 C 1021.827 871.850, 1020.083 867.125, 1018.698 863 C 1015.699 854.072, 1012.378 846.439, 1009.995 843 C 1009.042 841.625, 1007.920 839.375, 1007.502 838 C 1006.293 834.026, 1000.295 822.227, 997.009 817.358 C 995.354 814.906, 993.992 812.360, 993.982 811.700 C 993.957 810.032, 986.916 799.328, 979.750 790.062 C 977.688 787.396, 976 784.997, 976 784.733 C 976 784.469, 974.162 782.283, 971.915 779.876 C 969.668 777.469, 966.683 773.813, 965.282 771.750 C 963.881 769.688, 962.300 768, 961.768 768 C 960.782 768, 955 762.230, 955 761.245 C 955 760.313, 948.150 754, 947.138 754 C 946.610 754, 945.097 752.762, 943.777 751.250 C 942.456 749.737, 940.675 748.050, 939.819 747.500 C 938.963 746.950, 935.004 744.250, 931.022 741.500 C 920.929 734.530, 911.780 729.119, 909.982 729.054 C 909.147 729.024, 906.785 727.859, 904.732 726.464 C 902.679 725.069, 901 724.161, 901 724.447 C 901 724.732, 899.313 724.015, 897.250 722.854 C 895.188 721.692, 891.138 719.900, 888.250 718.871 C 885.362 717.842, 880.461 716.102, 877.358 715.004 C 874.254 713.907, 871.217 712.605, 870.608 712.113 C 869.998 711.620, 866.800 710.673, 863.500 710.009 C 860.200 709.345, 856.150 708.209, 854.500 707.486 C 851.641 706.232, 833.422 702.236, 826 701.235 C 824.075 700.975, 821.960 700.330, 821.300 699.801 C 820.641 699.272, 818.841 698.940, 817.300 699.063 C 815.760 699.186, 813.825 699.022, 813 698.698 C 808.434 696.905, 802.394 695.872, 793.250 695.319 C 787.612 694.978, 783 694.301, 783 693.815 C 783 693.329, 786.052 689.909, 789.782 686.215 C 800.434 675.667, 809.764 664.352, 810.473 661.122 C 810.830 659.497, 811.745 657.928, 812.506 657.636 C 813.267 657.344, 814.194 655.481, 814.567 653.496 C 815.006 651.154, 816.167 649.301, 817.872 648.219 C 822.644 645.192, 829 639.596, 829 638.423 C 829 637.789, 829.857 636.181, 830.904 634.850 C 831.951 633.519, 833.289 630.645, 833.879 628.465 C 834.468 626.284, 835.669 623.477, 836.548 622.227 C 837.427 620.977, 838.026 618.727, 837.879 617.227 C 837.733 615.727, 838.152 613.513, 838.811 612.306 C 839.956 610.211, 840.470 610.136, 850.255 610.641 C 860.966 611.192, 861.388 611.113, 876.220 605.726 C 883.290 603.158, 890.496 598.236, 898 590.850 C 903.335 585.599, 908.913 579.418, 911 576.446 C 917.417 567.305, 919.941 562.799, 920.535 559.418 C 920.914 557.263, 922.263 553.680, 923.533 551.456 C 925.097 548.718, 926.213 544.357, 926.986 537.956 C 929.241 519.302, 929.294 515.469, 927.454 503.857 C 925.924 494.203, 925.005 491.320, 921.327 484.628 C 918.947 480.299, 917 476.443, 917 476.060 C 917 474.741, 910.570 467, 909.474 467 C 908.432 467, 904 461.735, 904 460.498 C 904 460.177, 905.749 457.571, 907.887 454.707 C 910.026 451.843, 912.685 447.686, 913.796 445.468 C 917.637 437.810, 919.080 422.945, 916.949 413 C 914.562 401.862, 914.325 402.990, 920.654 395.414 C 927.563 387.145, 930.098 382.276, 933.066 371.578 C 937.923 354.070, 933.423 329.148, 923.083 316.287 C 914.956 306.178, 914.570 304.672, 918.135 297 C 919.832 293.347, 920.323 289.854, 920.744 278.445 C 921.230 265.273, 921.091 263.795, 918.533 254.945 C 917.032 249.750, 914.723 243.822, 913.402 241.771 C 912.081 239.721, 911 237.738, 911 237.366 C 911 236.993, 909.875 235.214, 908.500 233.411 C 907.125 231.608, 906 229.647, 906 229.052 C 906 227.171, 889.114 211, 887.149 211 C 886.115 211, 884.161 210.128, 882.806 209.062 C 881.451 207.996, 879.028 206.800, 877.421 206.404 C 875.814 206.008, 873.423 204.986, 872.106 204.132 C 870.751 203.254, 866.410 202.346, 862.106 202.040 L 854.500 201.500 853.866 191.778 C 853.407 184.752, 852.681 181.125, 851.249 178.697 C 850.158 176.849, 848.717 173.672, 848.045 171.637 C 845.057 162.582, 837.806 153.036, 826.967 143.887 C 819.216 137.344, 813.939 134, 811.367 134 C 810.324 134, 806.636 132.617, 803.172 130.927 C 796.913 127.873, 796.786 127.857, 782.687 128.177 L 768.500 128.500 760.718 132.385 C 756.438 134.522, 752.822 136.097, 752.681 135.885 C 748.570 129.681, 747.068 127.051, 746.462 125 C 746.057 123.625, 744.887 121.427, 743.862 120.115 C 742.838 118.803, 742 117.141, 742 116.422 C 742 115.702, 741 114.413, 739.777 113.557 C 738.555 112.701, 737.803 112, 738.106 112 C 739.258 112, 727.574 100.529, 724.916 99.051 C 723.383 98.198, 719.737 95.858, 716.814 93.852 C 710.383 89.436, 694.781 84.291, 683.586 82.893 C 679.139 82.338, 675.072 81.460, 674.550 80.942 C 673.315 79.717, 655.690 79.713, 654.450 80.937 M 654.802 102.949 C 652.769 103.345, 650.519 104.153, 649.802 104.745 C 649.086 105.337, 646.700 106.145, 644.500 106.541 C 640.949 107.180, 633.273 110.492, 626 114.523 C 623.288 116.027, 611 127.469, 611 128.491 C 611 129.025, 605.489 136.511, 604 138 C 601.315 140.685, 600.812 142.069, 602 143.500 C 604.009 145.920, 606.689 145.237, 608.867 141.750 C 609.983 139.963, 612.358 137.375, 614.143 136 C 615.928 134.625, 618.599 132.271, 620.077 130.770 C 621.556 129.268, 623.831 127.566, 625.133 126.987 C 626.435 126.409, 630.425 124.385, 634 122.489 C 637.575 120.594, 641.663 119.034, 643.083 119.022 C 644.504 119.010, 646.004 118.662, 646.417 118.250 C 646.829 117.838, 647.467 117.461, 647.833 117.414 C 648.200 117.366, 649.175 117.053, 650 116.718 C 657.685 113.597, 671.171 113.127, 680.434 115.656 C 683.770 116.567, 686.950 117.640, 687.500 118.041 C 688.050 118.441, 690.075 119.106, 692 119.518 C 693.925 119.930, 697.068 121.107, 698.985 122.133 C 700.902 123.160, 703.081 124, 703.827 124 C 705.795 124, 710.420 127.599, 717.965 135 C 726.215 143.092, 731.700 151.274, 732.585 156.806 C 733.754 164.118, 735.200 162.806, 734.729 154.860 C 734.211 146.124, 731.267 137.444, 726.865 131.679 C 720.480 123.316, 708.299 113.093, 702.844 111.518 C 701.555 111.145, 698.250 110.005, 695.500 108.983 C 686.927 105.798, 686.556 105.697, 684.250 105.923 C 683.013 106.044, 682 105.739, 682 105.244 C 682 102.908, 663.179 101.320, 654.802 102.949 M 542.500 112.635 C 531.178 115.137, 526.505 116.523, 522.439 118.581 C 519.811 119.912, 516.950 121.014, 516.081 121.031 C 511.887 121.114, 498.308 132.500, 495.304 138.453 C 494.458 140.129, 492.992 142.400, 492.046 143.500 C 487.932 148.285, 483.289 168, 486.276 168 C 487.275 168, 487.905 166.533, 488.260 163.386 C 488.546 160.848, 489.734 157.585, 490.899 156.136 C 492.064 154.686, 493.476 152.426, 494.036 151.113 C 494.596 149.800, 499.245 144.577, 504.366 139.505 C 514.484 129.485, 520.172 126.136, 534.099 122 C 540.642 120.056, 543.352 119.802, 553.599 120.170 C 562.108 120.475, 566.470 121.082, 568.904 122.299 C 570.776 123.234, 572.852 124, 573.519 124 C 574.185 124, 575.879 124.904, 577.284 126.009 C 580.895 128.850, 586 129.778, 586 127.594 C 586 126.683, 585.212 125.650, 584.250 125.298 C 583.288 124.947, 581.427 123.836, 580.115 122.830 C 578.803 121.823, 576.871 121, 575.820 121 C 574.769 121, 572.784 119.875, 571.409 118.500 C 570.034 117.125, 568.349 116, 567.665 116 C 566.980 116, 563.963 115.376, 560.960 114.613 C 554.576 112.991, 545.356 112.003, 542.500 112.635 M 768 151.604 C 765.525 152.434, 762.825 153.382, 762 153.710 C 761.175 154.039, 759.715 154.210, 758.755 154.092 C 756.461 153.808, 751.951 158.950, 752.259 161.500 C 752.528 163.730, 753.450 163.785, 762 162.084 C 780.432 158.419, 791.696 160.351, 805.378 169.527 C 809.046 171.987, 812.262 174, 812.524 174 C 813.238 174, 817.293 178.127, 819 180.591 C 825.683 190.240, 829 195.602, 829 196.754 C 829 197.500, 829.834 199.998, 830.853 202.305 C 831.872 204.612, 833.011 207.363, 833.385 208.417 C 833.858 209.750, 834.384 210.016, 835.110 209.290 C 836.516 207.884, 832.420 187.581, 829.883 183.382 C 828.848 181.667, 828 179.548, 828 178.672 C 828 177.797, 826.957 176.050, 825.682 174.790 C 824.408 173.531, 821.389 170.075, 818.974 167.112 C 816.558 164.148, 813.017 161.070, 811.105 160.270 C 809.192 159.471, 806.124 157.671, 804.286 156.269 C 802.449 154.868, 800.662 154.005, 800.315 154.352 C 799.968 154.699, 799.167 154.553, 798.535 154.029 C 794.152 150.392, 775.931 148.945, 768 151.604 M 432.500 163.643 C 426.695 164.569, 422 166.087, 422 167.039 C 422 167.567, 421.402 168, 420.671 168 C 418.691 168, 410.099 173.768, 405.156 178.416 C 400.569 182.729, 394 192.123, 394 194.370 C 394 195.103, 392.842 197.881, 391.426 200.544 C 388.521 206.007, 387.288 215.987, 388.714 222.500 C 390.085 228.765, 392.365 227.726, 393.165 220.470 C 393.963 213.239, 397.224 203.180, 400.686 197.274 C 403.880 191.823, 416.894 178.838, 422.391 175.617 C 434.307 168.633, 450.033 166.529, 459 170.717 C 461.475 171.873, 465.232 173.143, 467.348 173.539 C 470.702 174.167, 471.152 174.032, 470.848 172.487 C 470.657 171.512, 469.600 170.227, 468.500 169.632 C 467.400 169.037, 464.842 167.485, 462.815 166.184 C 459.572 164.102, 457.711 163.778, 447.315 163.491 C 440.817 163.311, 434.150 163.379, 432.500 163.643 M 850.362 225.070 C 846.287 227.148, 838.068 227.668, 836.358 225.958 C 835.634 225.234, 834.910 225.403, 833.994 226.508 C 832.884 227.845, 832.946 228.373, 834.381 229.800 C 835.724 231.135, 837.957 231.504, 844.795 231.518 C 851.372 231.532, 854.886 232.077, 859.173 233.750 C 869.912 237.940, 880.923 247.099, 887.255 257.110 C 890.928 262.915, 896.002 277.615, 896.020 282.500 C 896.026 284.150, 896.423 286.120, 896.904 286.878 C 898.308 289.096, 900.234 287.048, 899.763 283.838 C 899.527 282.228, 899.708 280.680, 900.167 280.397 C 901.270 279.715, 901.245 274, 900.139 274 C 899.665 274, 899.492 272.879, 899.753 271.510 C 900.018 270.127, 899.298 267.037, 898.135 264.564 C 896.983 262.114, 895.754 258.172, 895.402 255.805 C 895.051 253.437, 894.029 250.375, 893.132 249 C 892.234 247.625, 891.265 245.925, 890.977 245.222 C 890.217 243.364, 878.825 232, 877.722 232 C 877.209 232, 875.518 230.931, 873.965 229.624 C 872.386 228.296, 869.090 226.941, 866.487 226.550 C 863.928 226.167, 860.104 225.242, 857.990 224.497 C 854.541 223.279, 853.759 223.338, 850.362 225.070 M 365.953 246.945 C 357.556 249.495, 346.479 261.101, 344.571 269.350 C 344.208 270.918, 343.026 273.399, 341.943 274.864 C 337.857 280.390, 338.107 305.158, 342.288 309.054 C 343.454 310.140, 344.879 312.451, 345.454 314.189 C 346.674 317.875, 349 319.142, 349 316.120 C 349 314.995, 348.100 311.791, 347 309 C 342.673 298.022, 345.567 276.980, 352.917 265.978 C 357.924 258.483, 366.847 250.578, 371.666 249.369 C 374.989 248.535, 374.666 245.979, 371.250 246.086 C 369.738 246.133, 367.354 246.520, 365.953 246.945 M 607.599 263.500 C 603.324 267.625, 599.260 271, 598.568 271 C 597.876 271, 596.543 271.848, 595.605 272.884 C 594.667 273.920, 591.897 275.329, 589.450 276.014 C 587.002 276.699, 585 277.678, 585 278.189 C 585 278.700, 584.588 278.864, 584.085 278.553 C 583.582 278.242, 583.004 278.487, 582.801 279.098 C 582.288 280.635, 565.985 283.432, 557.500 283.438 C 547.473 283.445, 533.984 280.608, 529.466 277.541 C 527.406 276.144, 525.259 275, 524.694 275 C 524.130 275, 522.955 274.376, 522.084 273.614 C 518.491 270.470, 511.316 263.278, 508.688 260.187 C 506.574 257.699, 505.212 256.956, 503.198 257.190 C 500.844 257.462, 500.322 258.228, 498.892 263.500 C 496.780 271.287, 494.598 276.394, 491.776 280.153 C 486.951 286.580, 474.741 298.210, 471.318 299.640 C 469.345 300.465, 466.531 302.027, 465.064 303.111 C 460.886 306.200, 446.079 307.737, 436.274 306.100 C 431.998 305.386, 428.017 304.408, 427.426 303.925 C 425.535 302.379, 424 305.216, 424 310.258 C 424 318.592, 422.011 329.289, 419.493 334.500 C 417.089 339.474, 413.224 343.859, 405.401 350.487 L 401.302 353.960 400.534 363.230 C 399.612 374.347, 399.578 374.919, 397.672 411 C 396.844 426.675, 396.152 442.762, 396.134 446.750 C 396.097 455.084, 396.942 455.701, 402.215 451.190 C 407.020 447.080, 412.425 444.192, 416.721 443.440 C 418.800 443.076, 422.020 441.910, 423.877 440.848 C 425.735 439.786, 427.985 439.005, 428.877 439.112 C 429.770 439.220, 431.175 439.056, 432 438.750 C 433.635 438.142, 445.601 436.411, 459 434.845 C 474.512 433.033, 507.995 436.083, 507.999 439.309 C 508 439.754, 508.500 439.809, 509.112 439.431 C 509.723 439.053, 510.511 439.176, 510.862 439.705 C 511.213 440.234, 514.192 441.929, 517.481 443.472 C 523.991 446.525, 533.877 455.654, 538.332 462.726 C 540.818 466.672, 541.177 466.883, 543.727 465.914 C 545.230 465.342, 546.693 464.505, 546.980 464.052 C 547.656 462.983, 568.102 459, 572.914 459 C 574.952 459, 580.299 459.930, 584.796 461.068 C 595.710 463.828, 598.215 463.484, 599.500 459.050 C 600.447 455.782, 616.052 438.813, 617.782 439.169 C 618.537 439.325, 619.961 438.803, 626.500 435.975 C 628.700 435.024, 632.655 433.935, 635.288 433.556 C 637.922 433.176, 641.633 432.215, 643.536 431.420 C 645.439 430.625, 650.484 429.718, 654.748 429.403 C 659.012 429.089, 663.175 428.597, 664 428.310 C 664.825 428.023, 668.944 427.864, 673.153 427.955 C 677.651 428.053, 681.077 427.685, 681.462 427.061 C 682.317 425.678, 688.687 425.684, 689.542 427.069 C 689.906 427.657, 692.319 428.025, 694.904 427.888 C 697.490 427.751, 700.032 427.887, 700.553 428.190 C 701.074 428.493, 704.855 429.061, 708.956 429.452 C 713.057 429.842, 717.557 430.748, 718.956 431.464 C 720.355 432.180, 723.955 433.098, 726.955 433.505 C 737.270 434.903, 753.493 446.403, 756.041 454.123 C 757.525 458.622, 759.171 459.340, 766.260 458.579 C 769.142 458.270, 779.343 458.350, 788.930 458.758 C 807.716 459.558, 809.803 459.116, 808.591 454.601 C 808.281 453.445, 808.021 451.124, 808.014 449.442 C 808.003 447.038, 807.143 445.754, 803.998 443.442 C 797.929 438.981, 794.102 431.510, 793.354 422.662 C 792.696 414.874, 794.089 404.211, 796.394 399.396 C 797.157 397.803, 798.071 394.836, 798.425 392.803 C 799.054 389.203, 798.933 389.019, 793.785 385.743 C 790.878 383.892, 787.702 382.078, 786.727 381.712 C 785.752 381.345, 784.664 380.248, 784.309 379.273 C 783.953 378.298, 782.501 376.054, 781.081 374.287 C 775.896 367.832, 774 365.165, 774 364.327 C 774 363.856, 773.015 361.677, 771.812 359.485 C 769.962 356.115, 769.559 353.490, 769.203 342.475 C 768.954 334.772, 769.227 327.839, 769.871 325.506 C 770.470 323.335, 770.577 321.177, 770.109 320.709 C 769.641 320.241, 765.631 319.691, 761.198 319.486 C 752.293 319.075, 745 317.469, 745 315.918 C 745 315.365, 744.436 315.042, 743.747 315.200 C 740.563 315.931, 730.520 309.269, 723.405 301.705 C 719.332 297.376, 716 293.266, 716 292.572 C 716 291.878, 715.109 290.503, 714.020 289.518 C 711.988 287.679, 711.214 284.872, 710.568 277 C 710.365 274.525, 710.154 272.163, 710.099 271.750 C 709.906 270.295, 707.350 271.029, 704 273.500 C 702.136 274.875, 699.756 276, 698.710 276 C 697.664 276, 695.607 276.855, 694.139 277.901 C 692.671 278.946, 686.459 281, 680.334 282.464 C 671.014 284.693, 668.409 284.968, 664.350 284.154 C 661.682 283.620, 655.925 282.457, 651.556 281.571 C 647.187 280.685, 642.912 279.348, 642.056 278.600 C 641.200 277.853, 639.114 276.540, 637.420 275.683 C 633.366 273.632, 622.587 263.035, 620.552 259.101 C 619.666 257.386, 618.149 256, 617.160 256 C 616.176 256, 611.873 259.375, 607.599 263.500 M 901.368 325.485 C 901.054 326.301, 901.724 328.439, 902.857 330.235 C 903.989 332.031, 905.564 334.908, 906.356 336.628 C 907.148 338.348, 908.292 340.062, 908.898 340.437 C 910.942 341.700, 910.064 335.940, 907.292 329.900 C 904.638 324.119, 902.502 322.527, 901.368 325.485 M 346.160 344.240 C 345.522 344.878, 345 346.123, 345 347.006 C 345 347.889, 343.906 350.094, 342.570 351.906 C 341.233 353.717, 340.388 355.849, 340.693 356.642 C 341.573 358.935, 343.468 357.617, 343.837 354.457 C 344.023 352.868, 345.260 350.561, 346.587 349.332 C 349.020 347.077, 349.711 344.557, 348.160 343.599 C 347.698 343.313, 346.798 343.602, 346.160 344.240 M 910.814 350.212 C 911.059 353.670, 911.893 357.400, 912.666 358.500 C 913.915 360.277, 914.039 359.610, 913.786 352.511 C 913.560 346.204, 913.170 344.459, 911.933 344.223 C 910.609 343.970, 910.436 344.895, 910.814 350.212 M 659.305 383.445 C 656.998 384.166, 653.033 385.068, 650.493 385.449 C 642.698 386.618, 635.356 392.462, 633.752 398.774 C 632.915 402.070, 634.628 407.302, 637.395 409.902 C 640.952 413.243, 648.699 414.997, 652.196 413.252 C 661.060 408.830, 692.702 410.125, 696 415.045 C 696.871 416.344, 708.431 417.645, 711.662 416.808 C 713.368 416.366, 716.392 414.202, 718.382 411.999 C 722.674 407.248, 723.110 402.934, 719.714 398.815 C 717.031 395.561, 710.460 391, 708.456 391 C 707.655 391, 707 390.550, 707 390 C 707 389.450, 706.200 389, 705.223 389 C 704.245 389, 702.437 388.294, 701.204 387.430 C 699.971 386.567, 695.465 385.508, 691.190 385.077 C 686.915 384.646, 682.453 383.777, 681.274 383.147 C 678.415 381.616, 664.553 381.805, 659.305 383.445 M 459.500 393.055 C 457.300 394.096, 454.375 394.966, 453 394.989 C 451.625 395.011, 449.375 395.671, 448 396.455 C 446.625 397.239, 443.925 398.605, 442 399.491 C 434.043 403.152, 429.168 410.753, 430.438 417.519 C 431.362 422.448, 438.112 428, 443.180 428 C 445.281 428, 447 427.586, 447 427.079 C 447 426.573, 448.406 425.850, 450.123 425.473 C 451.841 425.096, 454.654 423.985, 456.373 423.006 C 461.150 420.286, 474.828 418.572, 483.852 419.565 C 497.799 421.098, 503.209 420.771, 506.480 418.196 C 510.469 415.056, 512.390 409.163, 511.049 404.183 C 509.789 399.503, 507.188 397.063, 499.812 393.640 C 494.413 391.134, 493.345 391.004, 478.812 391.081 C 465.978 391.149, 462.853 391.468, 459.500 393.055 M 658 454 C 657.175 454.533, 654.615 454.976, 652.312 454.985 C 647.654 455.002, 646.199 456.100, 636.903 466.606 C 627.741 476.960, 622.373 484.260, 619.630 490.096 C 616.944 495.812, 616.170 502.369, 618.044 503.527 C 619.643 504.515, 624 501.204, 624 499 C 624 497.925, 625.107 496.320, 626.461 495.434 C 627.815 494.547, 629.212 492.907, 629.567 491.789 C 630.278 489.550, 639.528 479.436, 653.750 465.350 C 658.837 460.311, 663 455.471, 663 454.594 C 663 452.823, 660.315 452.504, 658 454 M 445 460.682 C 440.724 462.175, 434.265 465.511, 432.500 467.137 C 431.400 468.150, 428.875 470.447, 426.889 472.240 C 424.904 474.033, 422.980 476.453, 422.614 477.618 C 422.248 478.783, 421.060 480.540, 419.974 481.523 C 418.889 482.506, 418 483.845, 418 484.500 C 418 485.155, 417.107 486.498, 416.016 487.485 C 414.925 488.473, 412.700 491.642, 411.071 494.528 C 407.804 500.316, 406.662 509.075, 408.887 511.270 C 410.202 512.568, 411.963 510.897, 418.325 502.312 C 424.159 494.440, 425.646 492.532, 431.338 485.605 C 434.548 481.697, 440.061 475.526, 443.588 471.892 C 448.185 467.154, 450 464.535, 450 462.642 C 450 459.985, 448.584 459.430, 445 460.682 M 870.500 473.970 C 865.344 474.827, 858.078 479.770, 850.369 487.665 C 844.949 493.216, 844.041 494.731, 842.551 500.722 C 841.624 504.450, 840.455 509.094, 839.955 511.042 C 839.454 512.989, 837.685 515.886, 836.022 517.479 C 832.363 520.985, 832.317 521.715, 835.470 526.360 C 836.828 528.362, 837.638 530, 837.270 530 C 836.901 530, 837.140 530.540, 837.800 531.200 C 839.205 532.605, 839.409 537.629, 838.094 538.442 C 837.596 538.750, 837.410 539.851, 837.681 540.888 C 837.952 541.926, 837.685 543.077, 837.087 543.446 C 835.722 544.290, 835.651 551.666, 837 552.500 C 838.601 553.489, 838.213 565.745, 836.498 568.363 C 834.275 571.755, 832.599 581.811, 833.978 583.474 C 834.587 584.207, 837.597 586.036, 840.667 587.538 C 845.652 589.977, 847.014 590.211, 853.375 589.719 C 858.303 589.339, 861.887 588.403, 865 586.683 C 867.475 585.316, 871.071 583.869, 872.991 583.466 C 875.592 582.922, 878.843 580.351, 885.741 573.385 C 890.833 568.243, 895 563.290, 895 562.378 C 895 561.467, 896.350 558.527, 898 555.846 C 899.650 553.164, 901 550.402, 901 549.707 C 901 549.013, 901.703 547.441, 902.563 546.214 C 903.539 544.820, 904.733 538.732, 905.744 529.998 C 907.131 518.014, 907.177 514.834, 906.061 507.757 C 902.440 484.798, 887.987 471.066, 870.500 473.970 M 562.500 483.993 C 558.359 484.373, 555.196 485.384, 552.293 487.257 C 546.875 490.752, 545.726 492.992, 546.547 498.463 C 546.921 500.956, 546.716 504.332, 546.072 506.282 C 545.449 508.169, 544.320 513.858, 543.564 518.924 C 542.807 523.990, 541.512 528.892, 540.687 529.818 C 539.861 530.743, 538.691 533.360, 538.086 535.634 C 537.481 537.907, 536.314 540.325, 535.493 541.006 C 534.672 541.687, 534 542.626, 534 543.091 C 534 543.556, 532.204 546.555, 530.008 549.754 C 523.220 559.646, 512.343 568.770, 503 572.411 C 500.525 573.375, 497.150 574.773, 495.500 575.518 C 485.706 579.937, 478.637 581.222, 464.289 581.188 C 450.154 581.154, 435.808 578.745, 432.273 575.812 C 431.573 575.231, 431 575.089, 431 575.496 C 431 575.904, 429.538 575.162, 427.750 573.848 C 425.962 572.534, 423.182 570.793, 421.571 569.980 C 418.217 568.285, 409.066 559.465, 404.194 553.231 C 402.375 550.904, 400.515 549, 400.060 549 C 399.605 549, 399.233 555.413, 399.233 563.250 C 399.234 574.102, 399.571 577.885, 400.648 579.113 C 402.967 581.758, 403.500 590.132, 401.586 593.834 C 399.954 596.989, 399.965 597.036, 402.533 598.013 C 403.961 598.556, 406.001 599, 407.065 599 C 408.129 599, 409 599.477, 409 600.059 C 409 600.641, 409.384 600.881, 409.854 600.590 C 410.982 599.893, 412.533 603.435, 414.157 610.416 C 415.822 617.579, 418.590 620.487, 422.373 619.048 C 424.584 618.207, 425.340 618.375, 426.746 620.016 C 427.680 621.107, 428.948 622, 429.564 622 C 430.926 622, 433 628.560, 433 632.866 C 433 636.307, 434.361 636.798, 437.441 634.468 C 442.722 630.474, 450.033 633.913, 452.089 641.359 C 452.642 643.361, 453.523 645, 454.047 645 C 454.571 645, 455 645.675, 455 646.500 C 455 648.926, 458.546 648.217, 460 645.500 C 461.096 643.452, 462.086 643, 465.474 643 C 468.810 643, 470.352 643.680, 473.452 646.520 C 477.807 650.509, 478.565 650.336, 478.144 645.446 C 477.973 643.468, 478.305 642, 478.923 642 C 480.357 642, 480.301 638.701, 478.842 637.242 C 478.062 636.462, 478.008 635.663, 478.677 634.792 C 479.222 634.082, 480.690 630.188, 481.939 626.140 C 483.188 622.092, 485.287 617.192, 486.605 615.251 C 487.922 613.309, 489 611.406, 489 611.020 C 489 610.096, 501.112 598, 502.038 598 C 502.432 598, 503.337 597.299, 504.048 596.442 C 504.759 595.585, 506.945 594.214, 508.907 593.394 C 510.868 592.575, 513.491 590.948, 514.736 589.778 C 515.981 588.608, 517 587.987, 517 588.398 C 517 588.809, 518.186 588.212, 519.635 587.073 C 521.084 585.933, 523.305 585, 524.570 585 C 529.534 585, 531.770 583.318, 532.493 579.040 C 533.028 575.877, 533.853 574.610, 536.156 573.419 C 538.842 572.030, 539.597 572.038, 543.987 573.496 C 546.660 574.383, 549.371 575.742, 550.012 576.514 C 550.653 577.286, 554.795 579.057, 559.217 580.449 L 567.258 582.980 571.756 580.990 C 574.230 579.895, 576.852 579, 577.582 579 C 578.312 579, 580.034 577.875, 581.409 576.500 C 585.150 572.759, 589.745 573.110, 593.958 577.457 L 597.309 580.914 604.904 580.400 C 610.636 580.013, 613.114 580.258, 615 581.400 C 620.078 584.475, 622.609 585.240, 627.160 585.077 C 630.923 584.942, 632.847 585.566, 637.160 588.322 C 640.097 590.198, 645.627 593.194, 649.448 594.979 C 659.610 599.725, 666.980 608.157, 673.066 622 C 673.671 623.375, 674.986 626.091, 675.989 628.036 C 676.993 629.981, 678.128 633.673, 678.513 636.241 C 678.898 638.809, 679.839 641.718, 680.602 642.705 C 681.898 644.379, 682.244 644.215, 685.746 640.257 C 692.148 633.021, 697.391 632.596, 702.726 638.878 C 704.614 641.101, 705.106 641.272, 705.961 640 C 706.516 639.175, 706.976 637.735, 706.985 636.801 C 707.006 634.467, 713.089 630.022, 717.169 629.360 C 719.753 628.941, 720.958 629.296, 722.417 630.908 C 723.458 632.059, 724.845 633, 725.500 633 C 727.386 633, 730 629.557, 730 627.072 C 730 624.468, 735.128 619.257, 738.532 618.403 C 739.812 618.081, 742.461 618.599, 744.508 619.571 C 748.295 621.368, 749.942 620.676, 749.985 617.269 C 750.010 615.216, 756.887 605.131, 759.051 603.973 C 760.239 603.337, 762.901 603.163, 765.492 603.551 C 769.748 604.189, 769.930 604.110, 770.513 601.357 C 773.017 589.513, 775.875 584.685, 781 583.637 C 789.684 581.860, 789 582.478, 789 576.417 C 789 569.319, 792.528 561.511, 797.477 557.656 C 801.083 554.848, 801.125 554.729, 800.912 548.145 C 800.684 541.105, 802.981 533.898, 806.337 531.128 C 807.358 530.285, 808 528.280, 808 525.937 C 808 523.836, 808.494 521.812, 809.099 521.439 C 809.703 521.065, 810.784 519.364, 811.501 517.659 C 812.699 514.811, 812.598 514.311, 810.263 511.536 C 807.782 508.587, 807.734 508.246, 808.311 497.487 C 808.636 491.422, 808.533 485.863, 808.082 485.133 C 806.889 483.203, 766.050 483.882, 763.653 485.872 C 762.400 486.913, 761.998 488.971, 761.992 494.372 C 761.983 503.136, 760.382 513.451, 758.583 516.341 C 757.843 517.528, 756.926 519.835, 756.545 521.468 C 755.659 525.267, 751.174 534.774, 749.896 535.564 C 749.359 535.896, 747.800 537.941, 746.433 540.107 C 741.722 547.569, 729.827 557.791, 722.210 560.923 C 720.401 561.667, 718.376 563.006, 717.710 563.898 C 716.142 566, 703.786 571, 700.158 571 C 698.617 571, 695.364 571.666, 692.928 572.480 C 687.384 574.332, 674.075 575.930, 673.392 574.825 C 673.111 574.371, 671.443 574, 669.684 574 C 667.926 574, 664.977 573.567, 663.131 573.038 C 661.285 572.508, 656.440 571.611, 652.363 571.044 C 648.285 570.477, 643.948 569.389, 642.725 568.626 C 641.501 567.862, 639.224 566.941, 637.664 566.578 C 636.104 566.216, 633.826 564.924, 632.602 563.709 C 631.378 562.494, 629.087 560.825, 627.510 560 C 622.292 557.268, 611.317 545.365, 606.635 537.357 C 596.722 520.404, 594 511.620, 594 496.583 C 594 490.508, 593.084 489.398, 585.500 486.281 C 579.935 483.994, 571.559 483.161, 562.500 483.993 M 369.349 497.750 C 368.498 499.813, 367.161 502.221, 366.379 503.102 C 364.737 504.953, 362.061 515.993, 361.313 524 C 360.651 531.098, 364.543 555.043, 366.620 556.649 C 367.437 557.281, 368.581 559.531, 369.163 561.649 C 370.650 567.060, 374.898 574, 376.724 574 C 377.986 574, 378.140 573.116, 377.597 569.016 C 377.079 565.118, 377.378 563.059, 378.968 559.570 C 380.832 555.479, 381.022 552.815, 381.251 527.620 L 381.500 500.133 378.563 497.066 C 374.432 492.754, 371.317 492.985, 369.349 497.750 M 617.667 619.667 C 616.330 621.003, 617.078 621.999, 620.874 623.936 C 625.274 626.180, 630.014 631.333, 629.972 633.827 C 629.935 636.076, 625.079 642.361, 620.675 645.861 C 610.521 653.930, 590.468 659.930, 573.500 659.976 C 570.200 659.985, 563.225 659.310, 558 658.476 C 539.179 655.472, 529.690 651.069, 525.780 643.527 C 524.160 640.403, 524.158 639.977, 525.752 636.245 C 527.290 632.644, 531.548 629, 534.218 629 C 534.799 629, 539.150 630.888, 543.887 633.197 C 549.703 636.030, 553.556 637.304, 555.750 637.120 C 557.538 636.970, 559 637.277, 559 637.802 C 559 638.327, 562.369 639.258, 566.488 639.871 C 574.009 640.989, 582.899 640.051, 585.645 637.848 C 586.274 637.343, 587.174 637.017, 587.645 637.124 C 588.520 637.322, 588.939 637.205, 595 635.071 C 596.925 634.393, 600.075 633.382, 602 632.823 C 606.245 631.592, 610 628.308, 610 625.826 C 610 624.375, 609.211 624, 606.155 624 C 603.580 624, 601.712 623.339, 600.500 622 C 598.056 619.299, 595.824 619.484, 592.924 622.629 C 589.636 626.194, 584.477 628.264, 580.858 627.469 C 579.244 627.114, 575.911 625.289, 573.453 623.412 C 568.279 619.463, 566.981 619.258, 564.500 622 C 563.505 623.100, 562.085 624, 561.345 624 C 560.605 624, 560 624.378, 560 624.839 C 560 626.037, 555.342 628, 552.500 628 C 549.708 628, 545 626.045, 545 624.885 C 545 623.712, 538.511 622.703, 536.030 623.491 C 534.850 623.865, 533.496 625.194, 533.021 626.445 C 531.839 629.554, 527.258 630.307, 521.488 628.341 L 516.844 626.759 513.581 629.922 C 509.762 633.623, 508.135 638.878, 507.055 651 C 506.224 660.330, 506.847 663.158, 510.601 667.094 C 511.962 668.521, 513.344 671.446, 513.673 673.594 C 514.437 678.585, 516.558 681, 520.177 681 C 522.136 681, 524.430 682.277, 527.419 685.032 C 531.615 688.900, 531.866 688.991, 533.576 687.282 C 535.645 685.215, 545.120 684.861, 545.776 686.827 C 546.376 688.629, 550.492 688.218, 552.345 686.171 C 554.170 684.154, 554.570 681, 553 681 C 551.098 681, 552.012 677.010, 555.043 672.085 C 558.552 666.382, 561.479 665.244, 568.075 667.020 C 570.713 667.731, 575.757 667.931, 581.409 667.550 C 590.212 666.956, 590.592 667.019, 593.405 669.554 C 595.894 671.796, 596.399 673.143, 596.933 678.965 C 597.704 687.382, 599.152 689.399, 603.873 688.633 C 605.779 688.324, 607.678 687.521, 608.093 686.850 C 608.681 685.898, 609.195 685.917, 610.424 686.937 C 611.291 687.656, 612 687.954, 612 687.599 C 612 687.244, 613.013 687.586, 614.250 688.358 C 619.714 691.768, 621.699 691.398, 627.533 685.880 C 632.262 681.408, 633.668 680.642, 637.901 680.236 C 643.869 679.662, 646.478 676.732, 647.545 669.405 C 647.938 666.707, 648.948 663.150, 649.790 661.500 C 652.827 655.545, 650.555 640.025, 645.507 632.256 C 640.474 624.509, 639.952 624, 637.037 624 C 635.458 624, 633.991 624.528, 633.775 625.174 C 633.224 626.827, 625.212 623.026, 624.451 620.750 C 623.871 619.016, 619.082 618.252, 617.667 619.667 M 754 718 C 752.152 719.650, 750.131 721, 749.508 721 C 748.886 721, 747.505 721.805, 746.439 722.789 C 744.165 724.887, 726.323 734, 724.489 734 C 722.592 734, 722.029 737.443, 722.014 749.128 C 722.003 757.659, 722.315 760.017, 723.599 761.082 C 724.988 762.235, 725.944 761.624, 730.851 756.455 C 741.371 745.372, 755 727.857, 755 725.420 C 755 724.723, 756.125 722.816, 757.500 721.182 C 762.465 715.282, 759.779 712.841, 754 718 M 676.500 731.624 C 674.300 731.775, 647.975 732.634, 618 733.532 C 588.025 734.431, 562.825 735.418, 562 735.726 C 561.175 736.035, 559.240 736.186, 557.700 736.063 C 556.159 735.940, 554.359 736.283, 553.700 736.825 C 553 737.401, 539.372 738.040, 521 738.359 C 503.675 738.660, 486.800 739.106, 483.500 739.350 C 480.200 739.595, 466.025 740.063, 452 740.391 C 437.975 740.719, 407.375 741.659, 384 742.479 C 360.625 743.300, 328.225 744.424, 312 744.979 C 295.775 745.533, 271.137 746.529, 257.250 747.191 C 234.729 748.266, 232 748.578, 232 750.080 C 232 751.005, 233.687 753.037, 235.750 754.594 C 241.261 758.756, 266.009 782.889, 269.237 787.250 L 272.013 791 286.256 790.973 C 294.090 790.958, 304.775 790.505, 310 789.967 C 315.225 789.429, 335.250 788.737, 354.500 788.429 C 373.750 788.121, 390.175 787.638, 391 787.355 C 391.825 787.072, 399.363 786.896, 407.750 786.964 C 416.138 787.032, 423 786.690, 423 786.203 C 423 785.716, 433.463 785.036, 446.250 784.693 C 518.185 782.763, 571.583 780.890, 579.500 780.020 C 584.450 779.476, 601.689 778.731, 617.809 778.364 L 647.117 777.696 651.530 771.961 C 653.958 768.806, 657.194 765.161, 658.722 763.859 C 662.549 760.600, 671.299 750.090, 672.966 746.750 C 673.720 745.237, 674.779 744, 675.319 744 C 676.826 744, 686 734.072, 686 732.441 C 686 731.493, 685.059 731.060, 683.250 731.175 C 681.737 731.271, 678.700 731.473, 676.500 731.624 M 695.695 744.754 C 693.624 747.368, 687.158 754.231, 681.325 760.004 C 675.493 765.777, 670.123 771.913, 669.393 773.640 C 668.097 776.705, 662.920 781.440, 658.095 783.974 L 655.690 785.236 656.315 805.868 C 656.659 817.216, 657.401 831, 657.963 836.500 C 658.525 842, 659.434 859.100, 659.983 874.500 C 661.307 911.668, 662.924 935.991, 664.254 938.750 C 665.450 941.233, 667.464 941.685, 668.700 939.747 C 669.916 937.842, 676.904 933.356, 682.495 930.892 C 690.030 927.570, 696.803 926.025, 703.887 926.012 L 710.274 926 709.649 916.750 C 708.146 894.537, 704.372 810.951, 702.963 768.711 C 702.472 753.977, 701.802 741.489, 701.476 740.961 C 700.445 739.294, 699.560 739.874, 695.695 744.754 M 915.177 760.631 C 915.355 761.527, 916.513 762.932, 917.750 763.752 C 919.882 765.166, 920 765.112, 920 762.729 C 920 760.434, 918.402 759, 915.845 759 C 915.300 759, 914.999 759.734, 915.177 760.631 M 625.199 799.147 C 624.814 799.503, 608.525 800.296, 589 800.909 C 569.475 801.523, 542.700 802.456, 529.500 802.982 C 474.532 805.174, 442.320 806.216, 404.500 807.025 C 344.493 808.309, 303.795 809.949, 301.310 811.185 C 300.106 811.784, 297.127 812.049, 294.690 811.774 C 286.123 810.809, 285.830 812.103, 288.428 839.500 C 289.211 847.750, 290.166 863.275, 290.551 874 C 290.936 884.725, 291.495 893.916, 291.792 894.425 C 292.090 894.933, 292.229 897.929, 292.100 901.081 C 291.971 904.234, 292.335 907.642, 292.909 908.656 C 293.482 909.670, 294.910 928.050, 296.082 949.500 C 297.254 970.950, 298.576 992.775, 299.019 998 C 299.462 1003.225, 300.328 1018.750, 300.943 1032.500 C 301.558 1046.250, 302.498 1061.645, 303.031 1066.711 C 303.564 1071.776, 304 1078.162, 304 1080.902 C 304 1083.641, 304.382 1086.118, 304.849 1086.407 C 306.158 1087.216, 307.101 1104.174, 305.916 1105.601 C 305.229 1106.429, 305.241 1107.031, 305.951 1107.470 C 306.528 1107.826, 307 1109.190, 307 1110.500 C 307 1111.810, 307.563 1113.237, 308.250 1113.672 C 308.938 1114.106, 320.525 1114.315, 334 1114.136 C 361.559 1113.770, 361.349 1113.826, 362.447 1106.503 C 362.808 1104.096, 364.205 1100.503, 365.552 1098.519 C 366.898 1096.535, 368 1094.687, 368 1094.413 C 368 1094.139, 369.800 1091.478, 372 1088.500 C 374.200 1085.522, 376 1082.892, 376 1082.656 C 376 1081.813, 390.988 1067.459, 394.214 1065.211 C 401.934 1059.834, 406.708 1057.172, 409.807 1056.516 C 414.379 1055.548, 413.870 1052.169, 408.777 1049.680 C 404.036 1047.364, 390.830 1035.067, 386.815 1029.231 C 385.124 1026.774, 382.897 1022.454, 381.866 1019.632 C 380.835 1016.809, 379.543 1014.350, 378.995 1014.167 C 378.448 1013.983, 378 1013.232, 378 1012.496 C 378 1011.761, 376.673 1010.868, 375.052 1010.511 C 369.623 1009.319, 361.148 1003.955, 357.190 999.205 C 349.991 990.567, 348.609 986.773, 348.551 975.500 C 348.506 966.771, 348.818 964.866, 351 960.508 C 352.375 957.762, 354.797 954.410, 356.383 953.058 C 361.169 948.975, 362.104 945.489, 359.805 940.292 C 358.151 936.554, 357.908 934.066, 358.180 923.697 C 358.493 911.780, 358.437 911.408, 355.750 907.518 C 353.430 904.158, 353 902.504, 353 896.935 C 353 893.304, 353.332 890.002, 353.737 889.596 C 354.143 889.191, 354.498 888.328, 354.527 887.679 C 354.727 883.154, 365.066 868, 367.954 868 C 369.597 868, 370.945 862.986, 369.982 860.453 C 366.968 852.526, 381.804 841, 395.022 841 C 401.673 841, 402.779 840.280, 409.250 831.737 C 417.376 821.010, 441.489 813.509, 451.346 818.643 C 453.081 819.546, 455.325 820.699, 456.334 821.204 C 458.611 822.344, 463.260 821.390, 468.500 818.709 C 471.739 817.051, 474.497 816.646, 483 816.581 C 498.786 816.459, 507.506 820.349, 514.879 830.800 L 517.208 834.101 523.880 833.443 C 532.474 832.596, 536.161 834.105, 542.596 841.101 C 545.293 844.034, 550.987 849.844, 555.250 854.012 C 559.513 858.180, 563 862.079, 563 862.678 C 563 863.277, 563.791 863.973, 564.757 864.226 C 567.267 864.883, 572.729 879.609, 574.465 890.398 C 575.252 895.292, 576.370 899.770, 576.948 900.348 C 578.115 901.515, 578.454 930.212, 577.315 931.352 C 576.665 932.002, 574.031 938.936, 574.030 940 C 574.029 940.275, 576.697 943.343, 579.958 946.818 C 587.182 954.517, 588.538 959.307, 587.722 974.238 C 587.096 985.698, 585.019 990.885, 578.046 998.400 C 572.966 1003.877, 567.009 1006.962, 559.738 1007.883 C 554.273 1008.575, 554.091 1008.797, 549.388 1020.500 C 546.990 1026.469, 545.152 1028.925, 536.912 1037.174 C 530.017 1044.077, 527.557 1047.157, 528.324 1047.924 C 528.916 1048.516, 529.765 1049, 530.210 1049 C 530.656 1049, 534.564 1050.750, 538.896 1052.889 C 547.003 1056.892, 557.432 1064.410, 563.849 1070.878 C 571.506 1078.593, 582 1092.742, 582 1095.349 C 582 1096.036, 583.249 1098.575, 584.776 1100.990 L 587.553 1105.383 617.526 1105.126 C 634.012 1104.984, 648.400 1104.653, 649.500 1104.389 C 651.321 1103.952, 651.485 1103.154, 651.335 1095.497 C 651.245 1090.871, 650.833 1086.538, 650.419 1085.869 C 650.005 1085.200, 649.404 1074.943, 649.084 1063.076 C 648.522 1042.325, 648.405 1041.347, 646.009 1037.500 C 643.722 1033.826, 643.523 1032.564, 643.568 1022 C 643.609 1012.385, 643.976 1009.701, 645.808 1005.623 C 648.378 999.905, 648.553 993.957, 646.403 985.500 C 645.481 981.872, 644.731 973.373, 644.505 964 C 643.330 915.134, 641.956 888.357, 640.505 886.008 C 640.113 885.373, 639.861 878.772, 639.945 871.339 C 640.030 863.862, 639.666 857.303, 639.132 856.659 C 638.580 855.994, 638.053 844.335, 637.903 829.497 C 637.759 815.199, 637.367 802.433, 637.033 801.129 C 636.496 799.036, 635.811 798.744, 631.161 798.629 C 628.266 798.558, 625.583 798.791, 625.199 799.147 M 497.772 896.074 C 492.715 901.131, 486.461 903, 474.598 903 C 465.663 903, 463.914 902.720, 461.635 900.927 C 460.186 899.788, 459 898.213, 459 897.427 C 459 894.980, 455.967 895.818, 444.525 901.424 C 438.437 904.407, 432.242 907.152, 430.759 907.524 C 427.623 908.311, 423.735 906.197, 415.700 899.334 L 410.500 894.893 404.201 901.697 C 400.737 905.438, 396.363 910.821, 394.480 913.657 C 392.598 916.494, 390.599 918.969, 390.038 919.157 C 389.417 919.366, 388.770 927.701, 388.382 940.500 C 387.753 961.245, 387.714 961.533, 385.185 964.250 C 382.162 967.498, 378.767 967.765, 374.394 965.098 C 370.968 963.009, 370.259 963.234, 367.727 967.215 C 365.420 970.842, 365.542 977.678, 368 982.500 C 369.100 984.658, 370 986.972, 370 987.644 C 370 988.316, 370.978 989.176, 372.174 989.555 C 374.540 990.306, 377 987.966, 377 984.964 C 377 982.412, 380.317 980, 383.827 980 C 388.209 980, 392.484 986.785, 393.355 995.125 C 393.694 998.370, 394.878 1002.801, 395.986 1004.972 C 397.094 1007.144, 398.008 1009.726, 398.018 1010.710 C 398.063 1015.086, 408.952 1027.870, 417.427 1033.495 C 426.221 1039.332, 446.811 1044.929, 459.691 1044.983 C 461.996 1044.992, 464.160 1045.450, 464.500 1046 C 465.259 1047.227, 469.680 1047.326, 470.418 1046.133 C 470.713 1045.656, 472.877 1044.991, 475.227 1044.655 C 490.773 1042.436, 505.849 1037.865, 508.500 1034.566 C 509.050 1033.882, 511.229 1032.504, 513.342 1031.504 C 521.684 1027.554, 534.132 1013.299, 537.002 1004.407 C 537.696 1002.258, 538.751 999.600, 539.346 998.500 C 539.942 997.400, 540.484 996.275, 540.551 996 C 542.786 986.824, 547.437 984.175, 554.681 987.951 C 560.104 990.777, 562.906 989.617, 567.553 982.619 C 570.856 977.643, 571.176 976.540, 571.176 970.134 C 571.176 962.744, 569.140 957.412, 566.056 956.726 C 563.566 956.171, 559 958.063, 559 959.649 C 559 961.200, 553.317 964, 550.168 964 C 549.126 964, 547.086 962.814, 545.636 961.364 C 543.416 959.143, 542.999 957.841, 542.994 953.114 C 542.988 946.742, 541.398 940, 539.902 940 C 539.350 940, 538.239 938.423, 537.434 936.495 C 536.628 934.568, 534.401 930.540, 532.485 927.544 C 529.603 923.038, 529 921.158, 529 916.670 C 529 910.137, 528.038 909.147, 520.859 908.297 C 516.561 907.788, 514.869 907.007, 512.272 904.333 C 510.494 902.502, 508.743 899.765, 508.382 898.252 C 506.905 892.071, 502.649 891.197, 497.772 896.074 M 419.011 914.487 C 417.554 916.243, 418.350 919, 420.314 919 C 421.071 919, 422.472 918.136, 423.428 917.080 C 425.084 915.249, 425.071 915.109, 423.149 914.080 C 420.575 912.702, 420.485 912.711, 419.011 914.487 M 495.184 915.750 C 495.553 918.959, 498.919 920.007, 500.960 917.548 C 502.679 915.477, 500.692 913, 497.311 913 C 495.235 913, 494.915 913.414, 495.184 915.750 M 844 944.382 C 844 947.407, 844.450 950.160, 845 950.500 C 845.620 950.883, 846 949.030, 846 945.618 C 846 942.593, 845.550 939.840, 845 939.500 C 844.380 939.117, 844 940.970, 844 944.382 M 492.676 943.169 C 488.126 946.562, 484.681 952.854, 484.753 957.641 C 484.880 966.029, 492.380 974.415, 498.679 973.210 C 503.020 972.381, 509.668 965.128, 510.455 960.363 C 511.730 952.640, 508.049 945.012, 501.703 942.227 C 497.833 940.529, 495.953 940.725, 492.676 943.169 M 414.455 948.282 C 407.227 955.509, 407.432 964.667, 414.990 972.225 C 419.555 976.790, 422.038 976.962, 427.840 973.112 C 436.478 967.381, 438.533 958.796, 433.071 951.256 C 426.701 942.463, 421.159 941.577, 414.455 948.282 M 1017.154 953.438 C 1017.345 954.355, 1017.950 955.082, 1018.500 955.053 C 1019.984 954.974, 1019.712 952.737, 1018.154 952.218 C 1017.313 951.938, 1016.939 952.395, 1017.154 953.438 M 203.250 957.644 C 202.012 957.916, 201 958.584, 201 959.129 C 201 959.673, 200.550 959.840, 200 959.500 C 199.450 959.160, 199 959.315, 199 959.843 C 199 960.372, 197.580 961.299, 195.844 961.904 C 191.190 963.527, 185.654 970.083, 183.698 976.290 C 181.512 983.223, 181.560 985.977, 184.013 994.503 C 186.279 1002.380, 185.941 1005.728, 182.463 1009.861 C 177.297 1016.001, 177.395 1031.073, 182.652 1038.820 C 184.944 1042.197, 185.051 1042.954, 184.427 1051.456 C 183.727 1060.995, 184.866 1065.905, 188.843 1070.486 C 189.805 1071.594, 191.209 1073.737, 191.965 1075.250 C 192.720 1076.763, 193.712 1078, 194.169 1078 C 195.489 1078, 195.132 1086.460, 193.750 1087.925 C 192.750 1088.985, 192.750 1089.342, 193.750 1089.708 C 194.438 1089.960, 195 1091.284, 195 1092.649 C 195 1096.266, 196.536 1098.617, 202.995 1104.893 C 209.041 1110.767, 215.145 1115, 217.569 1115 C 219.519 1115, 218.916 1112.671, 216.735 1111.777 C 214.825 1110.994, 213 1107.106, 213 1103.820 C 213 1098.598, 222.887 1093.332, 236.901 1091.090 C 244.460 1089.880, 246.910 1087.932, 249.327 1081.212 C 251.781 1074.388, 250.006 1070.258, 243.057 1066.625 C 238.804 1064.401, 236.759 1064, 229.677 1064 C 225.080 1064, 219.123 1064.660, 216.441 1065.468 C 211.730 1066.886, 211.420 1066.850, 207.283 1064.425 C 203.071 1061.957, 202.259 1060.184, 202.968 1055 C 203.233 1053.060, 207 1049, 208.534 1049 C 209.185 1049, 212.369 1047.563, 215.609 1045.807 C 221.285 1042.730, 221.948 1042.610, 233.792 1042.521 L 246.083 1042.429 248.438 1039.475 C 249.734 1037.850, 251.049 1034.657, 251.361 1032.380 C 252.485 1024.186, 249.003 1017.934, 240.802 1013.419 C 235.619 1010.565, 235.154 1010.498, 220 1010.391 C 211.475 1010.331, 203.600 1010.215, 202.500 1010.133 C 200.455 1009.981, 196 1003.447, 196 1000.599 C 196 997.729, 198.127 994.452, 201.479 992.155 C 207.818 987.811, 225.312 985.806, 233.586 988.475 C 236.373 989.373, 242 984.705, 242 981.494 C 242 980.214, 242.542 978.986, 243.203 978.766 C 244.044 978.485, 243.628 976.726, 241.825 972.932 C 238.790 966.545, 237.481 965.273, 229.500 960.962 C 224.199 958.099, 222.451 957.687, 214.500 957.435 C 209.550 957.277, 204.488 957.372, 203.250 957.644 M 448.398 968.841 C 442.764 972.382, 443.315 982.336, 449.409 987.114 C 455.421 991.828, 469.614 990.252, 472.081 984.597 C 472.584 983.443, 473.513 981.782, 474.145 980.905 C 475.524 978.992, 474.698 975.389, 472.125 972.086 C 470.810 970.398, 468.780 969.455, 465.372 968.950 C 462.693 968.552, 458.475 967.926, 456 967.559 C 452.457 967.033, 450.840 967.306, 448.398 968.841 M 481.968 994.351 C 476.426 999.748, 470.073 1002, 460.387 1002 C 451.589 1002, 449.048 1001.115, 444.345 996.412 C 441.165 993.231, 440.281 992.855, 437.178 993.359 C 431.797 994.232, 430.500 996.136, 430.500 1003.163 L 430.500 1009.254 435.928 1014.116 C 438.914 1016.791, 442.268 1019.268, 443.382 1019.621 C 444.496 1019.975, 446.022 1020.879, 446.773 1021.630 C 447.525 1022.382, 449.346 1023.255, 450.820 1023.569 C 452.294 1023.884, 455.610 1024.785, 458.188 1025.571 C 465.258 1027.726, 467.820 1027.342, 475.951 1022.910 C 485.360 1017.782, 490.208 1013.943, 495.115 1007.735 C 499.861 1001.731, 500.194 997.827, 496.355 993.193 C 492.323 988.326, 487.778 988.692, 481.968 994.351 M 478 1065.088 C 470.575 1067.070, 460.962 1067.255, 453.500 1065.560 L 450.500 1064.879 454.396 1068.421 C 458.864 1072.485, 462.866 1073.514, 470.857 1072.657 C 480.308 1071.644, 493.087 1064.193, 486.917 1063.293 C 486.138 1063.180, 482.125 1063.987, 478 1065.088 M 780.667 1117.667 C 779.172 1119.161, 780.191 1120, 783.500 1120 C 787.122 1120, 788.188 1118.670, 785.418 1117.607 C 783.350 1116.813, 781.497 1116.837, 780.667 1117.667" stroke="none" fill="#171916" fill-rule="evenodd"/>
</svg>