<svg role="img" aria-labelledby="artwork-title" shape-rendering="geometricPrecision" xmlns="http://www.w3.org/2000/svg" width="1200" height="1200" viewBox="0 0 1200 1200" version="1.1">
	<title id="artwork-title">Mascot standing beside milestone flags</title>
	<path d="M 905 226 C 905 226.550, 903.763 227.003, 902.250 227.006 C 895.861 227.019, 884.547 231.500, 877.564 236.784 L 873.629 239.762 867.943 235.881 C 864.816 233.746, 861.356 232, 860.254 232 C 859.153 232, 856.338 231.325, 854 230.500 C 848.650 228.612, 841.098 228.602, 834 230.474 C 828.299 231.976, 818.909 235.924, 817.953 237.221 C 817.652 237.628, 815.260 239.488, 812.637 241.352 C 807.231 245.196, 805.208 247.703, 802.858 253.470 C 801.350 257.171, 800.942 257.475, 797.858 257.200 C 784.097 255.969, 779.540 255.942, 776.656 257.076 C 767.252 260.771, 764.121 262.771, 758.093 268.932 C 750.685 276.505, 747.829 282.569, 747 292.481 C 746.531 298.087, 746.312 298.519, 743.500 299.371 C 737.324 301.241, 733.637 303.651, 728.942 308.887 C 719.777 319.108, 717.306 336.160, 723.361 347.399 C 726.669 353.539, 726.652 354.177, 723 361.500 C 720.532 366.449, 720.007 368.731, 720.004 374.527 C 720 382.362, 720.645 383.743, 727.768 391.158 C 732.098 395.664, 732.190 395.890, 730.621 398.130 C 728.817 400.706, 728.441 406.537, 730.016 407.510 C 730.575 407.856, 730.760 408.580, 730.426 409.119 C 729.841 410.067, 731.553 414.643, 734.554 420.154 C 736.499 423.724, 736.542 423.613, 732.037 426.594 C 723.389 432.317, 717.689 453.540, 721.386 466.254 C 722.273 469.309, 723 472.646, 723 473.669 C 723 476.568, 727.015 483.330, 732.500 489.670 C 737.115 495.005, 737.477 495.798, 737.197 499.975 C 736.777 506.260, 738.716 518.757, 740.510 521.318 C 741.329 522.488, 742 524.920, 742 526.723 C 742 528.525, 742.477 530, 743.059 530 C 743.641 530, 743.840 530.450, 743.500 531 C 743.160 531.550, 743.368 532, 743.962 532 C 744.557 532, 745.587 533.194, 746.252 534.654 C 746.917 536.113, 748.595 538.517, 749.980 539.996 C 751.366 541.474, 753.703 544.753, 755.174 547.281 C 756.644 549.810, 759.639 553.010, 761.829 554.392 C 764.019 555.775, 767.766 558.729, 770.156 560.958 C 772.545 563.186, 776.413 565.948, 778.750 567.094 C 783.848 569.594, 784.076 570.609, 779.750 571.543 C 776.023 572.348, 769.839 575.632, 762.192 580.866 C 759.272 582.865, 755.672 585.175, 754.192 586 C 752.711 586.825, 749.025 589.870, 746 592.766 C 742.975 595.663, 740.154 598.363, 739.731 598.766 C 738.249 600.180, 730.362 609, 730.580 609 C 730.701 609, 729.382 610.515, 727.650 612.366 C 724.931 615.272, 719.135 622.798, 714 630.092 C 713.175 631.263, 710.582 634.647, 708.238 637.611 C 705.895 640.575, 704.240 643, 704.561 643 C 704.882 643, 704.212 644.186, 703.073 645.635 C 700.901 648.396, 700.290 653.443, 702 654.500 C 703.579 655.476, 703.188 657.909, 700.560 663.464 C 696.928 671.141, 694.946 676.862, 693.793 683 C 693.224 686.025, 692.324 689.043, 691.793 689.706 C 691.262 690.370, 691.099 691.351, 691.430 691.887 C 691.762 692.423, 691.575 693.144, 691.016 693.490 C 689.818 694.230, 689.637 698, 690.799 698 C 691.239 698, 691.421 699.522, 691.204 701.382 C 690.986 703.242, 691.302 705.068, 691.904 705.441 C 692.507 705.813, 693 707, 693 708.078 C 693 711.221, 697.517 723.268, 700.499 728.078 C 704.218 734.077, 726.575 756.142, 732.840 759.997 C 738.855 763.698, 739.559 765.365, 737.547 771.141 C 732.804 784.759, 740.340 799.793, 756.473 808.898 C 759.422 810.562, 762.056 812.282, 762.327 812.720 C 762.597 813.157, 763.317 820.712, 763.927 829.508 C 765.473 851.793, 768.274 880, 768.942 879.999 C 769.249 879.999, 769.343 882.262, 769.152 885.028 C 768.960 887.795, 769.253 890.607, 769.803 891.279 C 771.416 893.247, 773.210 907.586, 773.397 920 C 773.493 926.325, 773.780 932.140, 774.036 932.922 C 774.342 933.860, 773.307 934.715, 771 935.432 C 769.075 936.030, 766.517 937.078, 765.316 937.760 C 764.114 938.442, 762.497 939, 761.721 939 C 760.945 939, 759.495 939.900, 758.500 941 C 757.505 942.100, 756.150 943, 755.490 943 C 752.845 943, 741.077 955.145, 738.554 960.477 C 735.622 966.675, 735.185 972.473, 737.582 973.393 C 738.452 973.727, 769.920 974, 807.510 974 C 883.651 974, 879 974.448, 879 967.112 C 879 962.943, 877.539 953.721, 875.860 947.286 C 874.896 943.592, 875.022 942.628, 876.880 939.479 C 878.921 936.020, 879 934.691, 879 903.943 C 879 883.728, 879.360 872, 879.981 872 C 880.520 872, 881.237 873.237, 881.574 874.750 C 882.604 879.381, 883.176 881.184, 884.798 884.913 C 885.656 886.886, 886.417 888.950, 886.490 889.500 C 886.562 890.050, 887.382 892.173, 888.311 894.218 C 889.240 896.263, 890 898.417, 890 899.005 C 890 899.930, 897.140 922.809, 898.736 927 C 899.050 927.825, 899.205 929.314, 899.081 930.310 C 898.956 931.305, 899.278 932.655, 899.797 933.310 C 900.315 933.964, 901.042 936.182, 901.413 938.237 C 901.901 940.948, 903.176 942.851, 906.054 945.164 C 910.609 948.824, 910.569 949.776, 905.556 956.944 C 898.930 966.418, 897.562 971.160, 900.934 972.965 C 902.204 973.644, 922.828 974, 960.959 974 L 1019.050 974 1020.062 971.337 C 1021.671 967.104, 1019.369 958.434, 1014.881 951.825 C 1010.509 945.386, 1010.383 944.721, 1012.560 939.511 C 1013.997 936.071, 1013.955 934.552, 1012.016 920.139 C 1010.858 911.538, 1009.257 898.650, 1008.456 891.500 C 1006.293 872.186, 1004.866 863.035, 1003.927 862.455 C 1003.465 862.169, 1003.352 861.245, 1003.677 860.401 C 1004.001 859.556, 1003.771 857.883, 1003.166 856.683 C 1001.823 854.015, 1000 840.749, 1000 833.639 C 1000 828.462, 1000.040 828.396, 1005.246 824.892 C 1013.100 819.607, 1018.555 812.410, 1019.371 806.258 C 1019.953 801.875, 1020.776 800.476, 1025.769 795.384 C 1028.921 792.170, 1032.850 787.056, 1034.500 784.020 C 1037.365 778.748, 1040.733 776.094, 1047.697 773.620 C 1048.689 773.268, 1051.619 771.522, 1054.209 769.740 C 1060.385 765.491, 1079.681 752.779, 1081.895 751.500 C 1086.294 748.960, 1094.627 741.069, 1100.243 734.125 C 1103.635 729.931, 1107.367 725.580, 1108.536 724.455 C 1110.981 722.101, 1115.355 713.227, 1118.077 705.097 C 1120.065 699.158, 1120.840 679.637, 1119.129 678.580 C 1118.650 678.284, 1117.981 676.656, 1117.642 674.962 C 1115.836 665.929, 1105.800 650.836, 1092.227 636.739 C 1085.444 629.693, 1084.811 628.694, 1085.369 625.907 C 1086.336 621.068, 1084.819 619.093, 1068.915 604.500 C 1051.121 588.172, 1025.204 571.555, 1011.974 567.993 C 1009.549 567.340, 1005.653 565.907, 1003.316 564.808 C 1000.979 563.710, 998.493 563.002, 997.792 563.236 C 997.091 563.470, 995.946 563.089, 995.247 562.390 C 994.548 561.691, 991.844 560.824, 989.238 560.464 C 986.632 560.104, 982.025 559.200, 979 558.456 C 975.975 557.712, 970.013 556.792, 965.750 556.413 C 961.487 556.034, 958 555.374, 958 554.946 C 958 554.518, 959.774 552.763, 961.942 551.046 C 964.110 549.329, 966.898 546.253, 968.137 544.212 C 969.376 542.170, 971.065 540.091, 971.889 539.592 C 977.903 535.948, 983.080 529.126, 985.337 521.871 C 985.758 520.519, 987.385 520.250, 994.937 520.285 C 1005.219 520.333, 1010.306 518.581, 1019.754 511.737 C 1033.654 501.668, 1040.881 485.681, 1039.711 467.588 C 1039.093 458.031, 1037.861 453.548, 1034.486 448.574 C 1031.423 444.061, 1031.419 443.637, 1034.399 439.683 C 1035.719 437.932, 1037.781 434.250, 1038.981 431.500 C 1040.181 428.750, 1041.577 425.719, 1042.082 424.764 C 1043.308 422.445, 1043.254 416.275, 1042 415.500 C 1039.647 414.046, 1041.049 409.457, 1044.974 405.764 C 1049.452 401.550, 1052.500 396.181, 1053.530 390.692 C 1053.913 388.649, 1054.626 386.731, 1055.113 386.430 C 1056.256 385.723, 1056.271 379.286, 1055.131 378.581 C 1054.654 378.286, 1053.964 376.177, 1053.599 373.896 C 1052.921 369.651, 1049.062 362.126, 1046.455 359.962 C 1044.468 358.313, 1044.627 355.371, 1047.081 348.407 C 1049.899 340.412, 1049.307 329.639, 1045.622 321.850 C 1040.383 310.775, 1026.737 299.031, 1019.054 298.985 C 1014.927 298.960, 1013.736 297.523, 1012.932 291.594 C 1011.796 283.223, 1005.890 272.039, 1000.457 267.967 C 998.005 266.131, 996 264.257, 996 263.804 C 996 263.350, 992.513 261.297, 988.250 259.240 C 981.234 255.854, 979.723 255.500, 972.299 255.500 C 967.072 255.500, 963.646 255.953, 962.849 256.750 C 960.248 259.352, 957.273 258.196, 955.118 253.744 C 953.985 251.403, 950.311 246.394, 946.954 242.612 C 939.789 234.540, 932.717 230.429, 922.501 228.397 C 918.651 227.632, 915.351 226.554, 915.168 226.003 C 914.732 224.695, 905 224.692, 905 226 M 898.013 242.606 C 891.136 244.454, 883.095 248.171, 883.041 249.528 C 883.018 250.093, 882.212 251.299, 881.250 252.207 C 875.575 257.564, 876.001 260.051, 881.755 255.156 C 890.751 247.503, 904.586 243.763, 915.750 245.964 C 924.636 247.717, 928.530 249.615, 933.776 254.750 C 936.164 257.087, 938.511 259, 938.991 259 C 939.472 259, 940.151 259.900, 940.500 261 C 941.343 263.656, 943 263.558, 943 260.853 C 943 257.997, 936.757 250.503, 931.738 247.335 C 922.759 241.666, 908.797 239.708, 898.013 242.606 M 827 247.774 C 824.383 248.648, 815 257.095, 815 258.577 C 815 260.839, 815.961 260.307, 821.008 255.250 C 823.616 252.637, 826.594 249.990, 827.625 249.367 C 829.731 248.095, 829.304 247.006, 827 247.774 M 959.500 271.375 C 958.400 272.234, 957.725 272.987, 958 273.048 C 958.275 273.110, 962.157 273.326, 966.626 273.528 C 972.426 273.790, 975.792 274.479, 978.384 275.935 C 980.381 277.056, 982.257 277.957, 982.553 277.936 C 982.850 277.915, 985.244 279.833, 987.874 282.199 C 992.201 286.091, 995.587 291.040, 997.660 296.500 C 998.276 298.122, 998.483 297.830, 998.758 294.961 C 999.411 288.118, 991.326 277.751, 981.500 272.835 C 976.006 270.086, 962.316 269.178, 959.500 271.375 M 773.809 273.536 C 768.713 276.875, 762 284.041, 762 286.142 C 762 287.099, 761.550 288.160, 761 288.500 C 760.450 288.840, 760.061 290.329, 760.136 291.809 C 760.260 294.252, 760.313 294.288, 760.714 292.190 C 761.350 288.859, 776.107 274.244, 779.621 273.464 C 786.774 271.877, 787.663 271.159, 782.500 271.138 C 778.872 271.123, 776.487 271.781, 773.809 273.536 M 1012 312.903 C 1012 313.399, 1014.399 315.398, 1017.332 317.345 C 1022.284 320.632, 1028.862 327.525, 1031.715 332.417 L 1032.929 334.500 1032.965 332.399 C 1033.014 329.441, 1030.992 324, 1029.843 324 C 1029.315 324, 1029.038 323.663, 1029.229 323.250 C 1029.420 322.837, 1028.096 321.076, 1026.288 319.336 C 1024.480 317.595, 1022.993 316.470, 1022.985 316.836 C 1022.976 317.201, 1022.639 316.988, 1022.235 316.362 C 1021.507 315.235, 1014.567 312, 1012.878 312 C 1012.395 312, 1012 312.406, 1012 312.903 M 740.250 316.141 C 739.563 316.834, 739 317.985, 739 318.700 C 739 319.415, 738.590 320, 738.089 320 C 736.277 320, 733 328.617, 733.120 333.066 L 733.240 337.500 734.194 333 C 734.719 330.525, 735.568 327.825, 736.081 327 C 736.595 326.175, 737.568 324.375, 738.245 323 C 738.922 321.625, 740.093 320.020, 740.847 319.434 C 741.601 318.848, 742.056 317.584, 741.859 316.625 C 741.571 315.226, 741.254 315.131, 740.250 316.141 M 816.760 324.750 C 814.114 330.830, 810.335 335.367, 805.055 338.802 C 802 340.789, 799.275 342.453, 799 342.499 C 798.725 342.546, 796.963 343.403, 795.084 344.403 C 791.730 346.190, 787.064 346.207, 781.278 344.455 C 778.843 343.717, 778.725 343.912, 775.487 354 C 773.680 359.630, 769.677 365, 767.288 365 C 765.342 365, 763.738 369.664, 763.418 376.255 C 763.265 379.421, 762.430 384.448, 761.564 387.428 C 759.827 393.404, 758.357 409.882, 759.334 412.429 C 759.905 413.916, 760.259 413.913, 763.727 412.402 C 766.462 411.210, 771.681 410.622, 782.689 410.266 C 807.496 409.462, 817.886 412.365, 826.568 422.528 L 831.187 427.934 840.408 427.328 C 846.915 426.901, 850.788 427.118, 853.565 428.064 C 858.775 429.840, 859.756 429.540, 864.727 424.655 C 867.052 422.370, 869.302 420.484, 869.727 420.465 C 870.152 420.445, 871.411 419.921, 872.523 419.301 C 876.003 417.360, 886.150 415.225, 895 414.571 C 903.452 413.946, 922.360 416.352, 930.877 419.135 C 935.552 420.663, 941.734 425.041, 946.618 430.281 C 950.643 434.600, 950.917 434.716, 958.618 435.384 C 962.953 435.759, 967.919 436.319, 969.653 436.626 C 974.233 437.440, 974.825 434.540, 971.410 428.010 C 968.923 423.253, 968.766 422.232, 969.244 413.863 C 969.526 408.901, 970.262 404.338, 970.879 403.721 C 972.903 401.697, 972.033 399.564, 967.332 395.023 C 961.407 389.299, 958.023 382.142, 958.010 375.309 C 958.004 372.454, 958.450 369.840, 959 369.500 C 959.550 369.160, 960 367.784, 960 366.441 C 960 364.187, 959.627 364, 955.122 364 C 952.439 364, 948.502 363.278, 946.372 362.396 C 937.806 358.847, 928 348.042, 928 342.152 C 928 335.668, 926.219 334.738, 919.372 337.643 C 916.843 338.716, 912.553 339.302, 907 339.332 C 896.399 339.391, 890.726 337.101, 883.262 329.750 L 878.024 324.592 875.262 326.828 C 867.896 332.791, 855.123 336.554, 845.110 335.709 C 838.194 335.126, 829 331.854, 829 329.977 C 829 329.375, 828.663 329.038, 828.250 329.229 C 827.281 329.677, 821.080 323.254, 821.793 322.540 C 822.090 322.243, 821.349 322, 820.145 322 C 818.715 322, 817.543 322.952, 816.760 324.750 M 790.500 387.487 C 781.495 389.929, 776.043 392.758, 774.987 395.535 C 773.507 399.428, 773.776 401.382, 776.141 403.921 C 778.094 406.017, 778.821 406.157, 784.391 405.510 C 792.772 404.536, 800.418 404.527, 807.294 405.483 C 812.805 406.249, 813.234 406.150, 816.044 403.457 C 822.296 397.468, 817.863 389.423, 807.030 387.100 C 800.517 385.703, 796.755 385.791, 790.500 387.487 M 893.236 391.066 C 888.028 392.162, 882.269 396.498, 881.526 399.882 C 880.787 403.246, 882.963 408.388, 885.545 409.379 C 886.435 409.720, 892.657 410, 899.370 410 C 909.603 410, 912.212 410.323, 915.500 412 C 923.959 416.313, 932 413.683, 932 406.604 C 932 403.968, 931.209 402.512, 928.465 400.104 C 926.521 398.397, 924.303 397, 923.537 397 C 922.770 397, 921.439 396.296, 920.579 395.436 C 919.719 394.576, 918.562 394.153, 918.008 394.495 C 917.453 394.838, 917 394.713, 917 394.219 C 917 392.164, 899.223 389.806, 893.236 391.066 M 775.500 425.442 C 771.175 427.312, 759 440.976, 759 443.960 C 759 446.175, 760.987 444.670, 770.373 435.345 C 779.907 425.873, 781.466 422.862, 775.500 425.442 M 890 430.500 C 889.315 431.325, 888.158 432, 887.428 432 C 884.898 432, 871 446.834, 871 449.535 C 871 451.889, 873.826 451.225, 876.257 448.300 C 882.108 441.258, 887.401 436, 888.637 436 C 889.387 436, 890 435.341, 890 434.535 C 890 433.730, 890.913 432.582, 892.028 431.985 C 893.143 431.388, 893.792 430.472, 893.469 429.950 C 892.627 428.587, 891.430 428.777, 890 430.500 M 737.371 440.750 C 735.836 443.850, 735.513 446.874, 735.507 458.200 C 735.502 467.736, 735.875 472.275, 736.733 473.133 C 738.934 475.334, 739.250 474.373, 741.632 458.250 C 741.978 455.913, 742.539 454.001, 742.880 454.002 C 743.221 454.003, 743.345 451.255, 743.156 447.896 C 742.967 444.537, 743.269 441.331, 743.828 440.772 C 745.398 439.202, 744.043 437, 741.507 437 C 739.870 437, 738.705 438.057, 737.371 440.750 M 834.292 444.356 C 833.086 445.889, 831.938 449.345, 831.518 452.702 C 830.134 463.779, 821.434 476.335, 810.500 483.037 C 808.300 484.385, 806.275 485.530, 806 485.581 C 805.725 485.631, 804.600 486.083, 803.500 486.584 C 800.446 487.975, 777.739 487.717, 777.262 486.286 C 777.047 485.641, 776.241 485.354, 775.471 485.650 C 774.701 485.945, 772.748 485.245, 771.131 484.093 C 769.514 482.942, 767.708 482, 767.117 482 C 766.527 482, 763.534 479.490, 760.467 476.423 C 755.927 471.883, 754.623 471.068, 753.456 472.037 C 752.667 472.691, 752.252 473.599, 752.534 474.055 C 752.816 474.511, 752.622 477.497, 752.105 480.692 C 751.231 486.081, 751.347 486.771, 753.718 490.250 C 755.122 492.313, 756.661 494, 757.136 494 C 757.611 494, 758 495.039, 758 496.309 C 758 499.016, 759.475 501.006, 763.177 503.295 C 764.650 504.206, 766 505.974, 766.177 507.225 C 766.388 508.708, 767.296 509.613, 768.784 509.824 C 770.040 510.002, 772.789 511.939, 774.893 514.128 C 777.972 517.333, 779.198 517.988, 781.183 517.490 C 782.805 517.083, 784.090 517.403, 784.938 518.425 C 786.569 520.391, 788 519.551, 788 516.628 C 788 513.022, 792.597 504.490, 796.711 500.463 C 801.762 495.517, 806.521 492.621, 812.134 491.079 C 815.345 490.196, 817.107 489.061, 817.872 487.382 C 819.904 482.923, 823.443 482.562, 830.661 486.078 C 836.724 489.032, 837.491 489.165, 844.796 488.518 C 851.708 487.906, 852.798 488.053, 855.168 489.917 C 856.973 491.337, 859.269 492, 862.384 492 C 865.189 492, 868.215 492.770, 870.226 493.996 C 872.027 495.094, 874.439 495.994, 875.586 495.996 C 877.635 496, 892 508.648, 892 510.449 C 892 510.940, 892.591 512.053, 893.312 512.921 C 894.034 513.790, 895.470 516.525, 896.502 519 C 899.414 525.978, 899.651 526.138, 903.613 523.801 L 907.099 521.744 909.549 524.046 C 910.897 525.313, 912 525.851, 912 525.242 C 912 524.634, 913.286 523.220, 914.858 522.101 C 917.344 520.331, 918.128 520.222, 920.889 521.264 C 923.915 522.407, 924.224 522.285, 927.575 518.628 C 930.605 515.320, 931.527 514.868, 934.293 515.333 C 937.165 515.816, 937.817 515.435, 940.537 511.686 C 942.397 509.121, 944.527 507.368, 946.037 507.159 C 948.494 506.818, 952.047 504.327, 951.780 503.131 C 951.419 501.512, 955.785 495.923, 958.192 494.924 C 960.016 494.166, 961.097 492.789, 961.544 490.653 C 961.907 488.919, 963.696 485.925, 965.519 484 C 967.379 482.037, 969.352 478.524, 970.015 476 C 970.664 473.525, 971.638 470.960, 972.179 470.299 C 973.114 469.158, 973.762 453.393, 972.907 452.606 C 972.683 452.401, 967.550 452.068, 961.500 451.866 L 950.500 451.500 950.186 454 C 949.432 459.999, 942.444 475.174, 939.277 477.692 C 938.452 478.347, 935.915 480.626, 933.639 482.756 C 931.362 484.885, 926.367 488.106, 922.538 489.913 C 915.708 493.136, 915.308 493.199, 901.538 493.217 C 887.889 493.236, 887.318 493.151, 880.922 490.127 C 873.550 486.643, 868.103 481.900, 862.973 474.498 C 858.035 467.373, 856.780 463.631, 856.100 454.009 C 855.533 445.980, 855.350 445.446, 852.741 444.200 C 851.223 443.475, 846.915 442.625, 843.166 442.311 C 836.688 441.768, 836.248 441.869, 834.292 444.356 M 1005.326 451.345 C 1000.955 453.007, 998.524 455.410, 995.130 461.423 C 993.534 464.252, 991.502 467.169, 990.614 467.905 C 988.801 469.410, 988.474 473.074, 990.015 474.615 C 990.703 475.303, 990.522 476.651, 989.457 478.787 C 988.473 480.759, 987.984 483.923, 988.153 487.221 C 988.324 490.564, 987.710 494.463, 986.478 497.851 L 984.532 503.203 986.877 505.101 C 990.221 507.809, 997.603 507.593, 1004.400 504.587 C 1012.051 501.203, 1018.423 494.966, 1022.259 487.107 C 1025.161 481.162, 1025.485 479.598, 1025.492 471.500 C 1025.501 461.510, 1023.662 456.273, 1018.913 452.765 C 1015.705 450.394, 1009.526 449.749, 1005.326 451.345 M 468.615 490.088 C 463.827 493.855, 461.160 502.760, 463.976 505.576 C 464.548 506.148, 465.147 519.382, 465.423 537.526 C 465.794 562.015, 466.401 902.140, 466.081 906.636 C 466.036 907.262, 464.063 908.063, 461.696 908.418 C 450.711 910.066, 435.594 919.127, 426.205 929.691 L 419.969 936.707 411.734 937.360 C 400.858 938.223, 399.656 938.622, 396.968 942.257 C 394.892 945.065, 394.814 945.577, 396.107 947.882 C 398.346 951.870, 402.745 952.211, 437.500 951.082 C 455.100 950.511, 486.150 950.312, 506.500 950.640 C 530.538 951.028, 547.504 950.850, 554.929 950.132 C 563.478 949.305, 567.330 949.318, 570.214 950.182 C 573.606 951.199, 574.398 951.095, 576.785 949.319 C 582.701 944.918, 578.910 939.488, 570.394 940.165 C 567.977 940.357, 566 940.236, 566 939.895 C 566 938.786, 554.832 937, 547.898 937 C 544.176 937, 539.863 936.523, 538.315 935.941 C 535.609 934.923, 530.007 929.364, 530.002 927.691 C 530.001 927.246, 529.550 927.160, 529 927.500 C 528.450 927.840, 528 927.581, 528 926.924 C 528 925.770, 523.456 921, 522.357 921 C 522.059 921, 520.620 920.076, 519.158 918.947 C 514.536 915.376, 508.956 912, 507.678 912 C 507 912, 505.452 911.305, 504.239 910.455 C 503.026 909.605, 499.663 908.651, 496.766 908.336 C 486.598 907.228, 487.101 908.726, 487.157 879.763 C 487.184 865.868, 487.141 802.356, 487.062 738.624 C 486.983 674.892, 487.049 622.683, 487.209 622.604 C 488.929 621.751, 495.322 619.623, 498.461 618.859 C 500.639 618.329, 503.062 617.363, 503.846 616.713 C 504.630 616.062, 505.773 615.498, 506.386 615.458 C 507.699 615.373, 510.350 614.403, 514.500 612.489 C 516.150 611.728, 519.075 610.668, 521 610.134 C 525.641 608.845, 530.815 607.051, 534.500 605.455 C 536.150 604.740, 539.142 603.883, 541.150 603.551 C 543.157 603.219, 545.325 602.313, 545.969 601.538 C 546.612 600.763, 548.563 599.816, 550.304 599.433 C 552.046 599.051, 554.377 598.166, 555.485 597.467 C 556.593 596.768, 558.993 595.885, 560.817 595.504 C 562.642 595.123, 565.342 594.182, 566.817 593.412 C 568.293 592.642, 570.122 592.010, 570.882 592.006 C 571.642 592.003, 573.667 591.149, 575.382 590.108 C 577.097 589.067, 580.075 587.890, 582 587.492 C 583.925 587.095, 585.950 586.412, 586.500 585.977 C 587.755 584.982, 599.028 581, 600.588 581 C 601.225 581, 603.940 580.009, 606.623 578.797 C 609.305 577.585, 612.075 576.708, 612.778 576.847 C 613.481 576.987, 615.182 576.215, 616.558 575.133 C 617.933 574.051, 620.843 572.864, 623.024 572.496 C 625.205 572.127, 627.212 571.466, 627.484 571.026 C 627.756 570.587, 629.655 569.912, 631.705 569.527 C 636.355 568.655, 640.582 565.708, 642.498 562.003 C 643.764 559.557, 643.773 558.792, 642.569 556.471 C 640.879 553.213, 634.442 549.074, 631 549.031 C 628.809 549.004, 625.625 548.106, 612.500 543.809 C 610.850 543.269, 606.415 542.028, 602.643 541.050 C 598.872 540.073, 595.447 538.723, 595.031 538.050 C 594.616 537.378, 593.426 536.937, 592.388 537.070 C 591.349 537.203, 589.150 536.753, 587.500 536.068 C 585.850 535.384, 580.675 533.737, 576 532.408 C 571.325 531.079, 564.562 529.093, 560.972 527.996 C 557.381 526.898, 553.851 526, 553.126 526 C 552.401 526, 550.614 525.336, 549.154 524.524 C 547.694 523.712, 543.800 522.335, 540.500 521.464 C 537.200 520.593, 532.138 519.232, 529.250 518.440 C 526.362 517.648, 521.638 516.375, 518.750 515.611 C 515.862 514.847, 512.150 513.634, 510.500 512.916 C 508.850 512.197, 507.050 511.553, 506.500 511.483 C 505.950 511.414, 503.744 510.597, 501.598 509.666 C 499.452 508.736, 495.934 507.693, 493.781 507.349 C 488.587 506.518, 487 504.717, 487 499.651 C 487 494.595, 485.233 491.813, 480.633 489.630 C 475.979 487.422, 471.803 487.581, 468.615 490.088 M 823 513.899 C 823 514.394, 824.913 515.812, 827.250 517.052 C 833.342 520.283, 844.884 521.262, 851.743 519.130 C 854.626 518.233, 856.989 517.275, 856.993 517 C 856.997 516.725, 854.086 516.467, 850.525 516.428 C 845.947 516.376, 843.507 515.864, 842.196 514.678 C 839.837 512.542, 836.949 512.548, 833.206 514.697 C 830.426 516.292, 830.095 516.292, 827.660 514.697 C 824.804 512.826, 823 512.517, 823 513.899 M 807.486 517.015 C 805.016 519.744, 804.389 528.443, 806.333 533 C 808.263 537.525, 811.401 540.263, 817.033 542.333 C 823.505 544.713, 824.684 544.486, 825.960 540.621 C 826.573 538.762, 827.957 536.444, 829.034 535.469 C 831.203 533.507, 830.153 531.027, 827.128 530.968 C 826.232 530.951, 824.626 530.276, 823.559 529.468 C 822.491 528.661, 820.834 528, 819.877 528 C 817.292 528, 814 522.731, 814 518.596 C 814 515.490, 813.680 515, 811.655 515 C 810.365 515, 808.489 515.907, 807.486 517.015 M 868.643 520.831 C 867.505 527.948, 861.537 530.916, 846.750 531.717 C 840.837 532.037, 836 532.666, 836 533.115 C 836 534.443, 839.652 536, 842.768 536 C 844.362 536, 846.004 536.337, 846.417 536.750 C 846.829 537.163, 847.690 537.500, 848.329 537.500 C 848.968 537.500, 850.072 539.274, 850.783 541.442 C 852.574 546.910, 853.785 548.185, 856.039 546.979 C 858.523 545.650, 862.345 545.745, 863.772 547.172 C 864.669 548.069, 865.834 547.917, 868.722 546.526 C 870.800 545.526, 873.134 544.412, 873.909 544.052 C 877.181 542.530, 879.130 536.737, 878.768 529.606 C 878.441 523.166, 878.193 522.525, 874.997 519.856 C 870.475 516.081, 869.376 516.250, 868.643 520.831 M 914.028 580.735 C 912.669 580.989, 910.656 581.828, 909.556 582.599 C 908.455 583.369, 905.619 584, 903.253 584 C 900.886 584, 896.389 584.900, 893.260 586 C 890.130 587.100, 886.568 588, 885.344 588 C 884.120 588, 882.845 588.442, 882.511 588.983 C 882.174 589.527, 877.999 589.892, 873.153 589.800 C 868.340 589.708, 863.749 590.037, 862.951 590.531 C 860.749 591.893, 843.723 591.668, 843.257 590.270 C 843.045 589.634, 842.219 589.362, 841.423 589.668 C 840.626 589.974, 839.418 589.783, 838.737 589.245 C 838.057 588.707, 835.138 587.966, 832.250 587.599 C 827.461 586.990, 827 587.105, 827 588.910 C 827 593.174, 840.263 603.014, 844.824 602.134 C 845.552 601.993, 846.859 602.468, 847.728 603.189 C 849.769 604.883, 871.041 605.028, 873.096 603.362 C 873.868 602.736, 876.975 601.898, 880 601.500 C 883.025 601.102, 885.950 600.432, 886.500 600.010 C 887.050 599.589, 888.625 598.929, 890 598.543 C 897.285 596.497, 904.228 593.009, 910.421 588.282 C 914.228 585.377, 917.715 583, 918.171 583 C 918.627 583, 919 582.325, 919 581.500 C 919 579.982, 918.480 579.902, 914.028 580.735 M 1054.222 652.532 C 1039.010 667.206, 1028 679.507, 1028 681.826 C 1028 682.399, 1029.912 684.149, 1032.250 685.714 C 1035.588 687.950, 1036.568 689.263, 1036.817 691.833 C 1037.159 695.353, 1038.425 693.903, 1002.507 731.105 L 991.303 742.710 984.402 743.227 C 980.606 743.511, 976.150 744.459, 974.500 745.333 C 972.850 746.207, 968.986 748.006, 965.913 749.331 C 957.622 752.906, 956 754.628, 956 759.854 C 956 764.588, 954.256 768.091, 947.792 776.340 C 944.897 780.035, 944 782.090, 944 785.031 C 944 787.149, 944.478 789.178, 945.063 789.539 C 946.267 790.283, 950 787.280, 950 785.568 C 950 784.951, 953.152 781.318, 957.005 777.495 L 964.011 770.543 966.755 772.200 C 970.584 774.510, 970.670 777.817, 967.054 783.610 C 958.973 796.557, 957.664 807, 964.122 807 C 965.606 807, 966 806.256, 966 803.460 C 966 796.771, 973.513 786, 978.179 786 C 981.256 786, 985.002 788.642, 984.994 790.807 C 984.990 791.738, 984.336 793.749, 983.540 795.276 C 981.353 799.468, 979.906 808.623, 980.983 811.455 C 982.111 814.421, 984.873 816, 988.934 816 C 992.332 816, 992.853 814.511, 990.532 811.441 C 988.594 808.879, 988.641 807.467, 990.750 804.861 C 994.812 799.844, 999.299 796.239, 1005.513 793 C 1013.065 789.064, 1022 780.370, 1022 776.957 C 1022 770.945, 1023.518 769.245, 1032.713 764.957 C 1037.543 762.705, 1042.172 760.269, 1042.998 759.544 C 1043.824 758.820, 1047.200 756.809, 1050.500 755.076 C 1058.534 750.856, 1080.131 733.753, 1087.867 725.484 C 1091.293 721.820, 1095.658 716.472, 1097.565 713.599 C 1101.556 707.589, 1105 696.604, 1105 689.883 C 1105 682.243, 1099.538 667.704, 1094.866 662.909 C 1093.967 661.987, 1091.417 658.559, 1089.198 655.292 C 1086.979 652.024, 1083.552 647.936, 1081.582 646.206 C 1079.612 644.476, 1078 642.801, 1078 642.483 C 1078 641.539, 1072.593 637.066, 1071.411 637.032 C 1070.812 637.014, 1063.077 643.989, 1054.222 652.532 M 261.270 661.703 C 256.606 662.604, 253.381 671.058, 255.887 675.816 C 257.219 678.344, 258.793 917.909, 257.491 920.014 C 257.156 920.556, 255.810 921, 254.500 921 C 253.190 921, 251.871 921.399, 251.570 921.887 C 251.269 922.374, 249.504 923.058, 247.648 923.406 C 245.793 923.754, 243.478 924.920, 242.504 925.996 C 241.530 927.072, 240.362 927.724, 239.910 927.444 C 239.457 927.165, 235.793 930.262, 231.767 934.327 C 224.450 941.716, 224.444 941.719, 217.763 942.435 C 209.727 943.296, 206 945.720, 206 950.087 C 206 952.318, 206.786 953.527, 209.250 955.088 C 212.332 957.039, 213.404 957.110, 230 956.447 C 239.625 956.063, 266.959 955.653, 290.742 955.536 C 331.326 955.337, 334.111 955.209, 336.040 953.464 C 338.749 951.012, 338.228 947.239, 334.831 944.714 C 332.760 943.175, 330.033 942.618, 322.677 942.234 L 313.193 941.738 305.847 934.764 C 301.806 930.928, 297.600 927.388, 296.500 926.897 C 295.400 926.406, 293.825 925.600, 293 925.104 C 290.704 923.726, 283.937 921.314, 279.682 920.358 L 275.864 919.500 275.958 888.325 C 276.020 867.991, 275.695 856.930, 275.026 856.516 C 274.346 856.096, 274 838.644, 274 804.801 C 274 757.326, 274.124 753.627, 275.750 752.392 C 276.712 751.661, 278.343 751.049, 279.374 751.032 C 280.405 751.014, 284.844 749.200, 289.240 747 C 293.635 744.800, 297.759 743, 298.404 743 C 299.048 743, 303.366 741.425, 308 739.500 C 312.634 737.575, 317.026 736, 317.762 736 C 318.497 736, 320.539 735.236, 322.300 734.303 C 324.060 733.369, 325.950 732.572, 326.500 732.532 C 327.050 732.492, 329.613 731.456, 332.195 730.230 C 334.777 729.003, 337.494 728, 338.233 728 C 338.971 728, 343.366 726.425, 348 724.500 C 352.634 722.575, 356.919 721, 357.522 721 C 359.308 721, 372.598 714.189, 373.920 712.596 C 374.589 711.790, 374.993 709.653, 374.818 707.847 C 374.436 703.902, 369.404 700.019, 364.602 699.965 C 362.896 699.945, 360.375 699.286, 359 698.500 C 357.625 697.714, 355.473 697.055, 354.218 697.035 C 352.963 697.016, 350.263 696.240, 348.218 695.311 C 346.173 694.382, 344.050 693.551, 343.500 693.464 C 342.950 693.378, 341.825 693.067, 341 692.773 C 340.175 692.480, 336.800 691.472, 333.500 690.534 C 330.200 689.596, 326.150 688.367, 324.500 687.804 C 322.850 687.241, 319.700 686.313, 317.500 685.742 C 315.300 685.171, 312.082 684.096, 310.349 683.352 C 308.616 682.608, 306.553 682, 305.766 682 C 304.978 682, 303.996 681.663, 303.583 681.250 C 303.171 680.837, 302.533 680.484, 302.167 680.465 C 301.800 680.445, 300.592 679.923, 299.482 679.303 C 298.371 678.684, 295.671 677.852, 293.482 677.455 C 291.292 677.058, 288.285 676.118, 286.800 675.366 C 285.314 674.615, 282.782 674, 281.172 674 C 278.333 674, 275.589 671.888, 275.474 669.614 C 275.347 667.125, 272.632 663.153, 270.343 662.110 C 267.908 661.001, 265.471 660.892, 261.270 661.703 M 712.485 672.411 C 705.697 687.204, 704.329 699.084, 708.129 710.246 C 709.300 713.686, 710.875 717.210, 711.629 718.079 C 712.383 718.947, 713 720.315, 713 721.119 C 713 725.191, 741.659 750, 746.363 750 C 747.053 750, 748.491 750.661, 749.559 751.468 C 753.575 754.506, 753.754 753.805, 754.455 732.250 C 754.826 720.837, 755.399 710.825, 755.728 710 C 757.293 706.081, 755.354 703.345, 750.346 702.405 C 748.251 702.012, 746.050 700.600, 744.556 698.692 L 742.147 695.614 744.615 692.681 C 745.972 691.068, 746.921 689.262, 746.722 688.667 C 746.377 687.632, 743.055 685.351, 738.250 682.850 C 737.013 682.206, 736 681.076, 736 680.339 C 736 679.603, 735.631 679, 735.181 679 C 734.730 679, 731.917 677.222, 728.931 675.049 C 719.161 667.941, 718.612 667.600, 716.706 667.460 C 715.354 667.360, 714.160 668.761, 712.485 672.411 M 999 701 C 999 709.705, 999.289 712, 1000.385 712 C 1001.147 712, 1002.447 710.987, 1003.275 709.750 C 1004.102 708.513, 1006.623 705.475, 1008.876 703 C 1013.514 697.905, 1013.834 697, 1011.003 697 C 1009.904 697, 1007.262 695.425, 1005.132 693.500 C 1003.001 691.575, 1000.750 690, 1000.129 690 C 999.359 690, 999 693.497, 999 701 M 751.627 772.261 C 750.499 776.472, 750.964 782.725, 752.500 784 C 753.325 784.685, 754 785.847, 754 786.583 C 754 788.258, 757.930 792, 759.689 792 C 761.817 792, 761.219 790.167, 757.500 785.296 C 754.623 781.529, 754 779.858, 754 775.915 C 754 770.753, 752.607 768.608, 751.627 772.261 M 111 798.850 C 107.430 802.856, 105.808 806.208, 106.907 807.307 C 107.675 808.075, 108 827.184, 108 871.499 L 108 934.598 104.292 935.939 C 102.253 936.676, 98.272 939.467, 95.446 942.140 C 92.619 944.813, 89.781 947, 89.138 947 C 88.495 947, 86.176 947.560, 83.984 948.243 C 80.089 949.459, 80 949.591, 80 954.130 L 80 958.773 84.621 959.466 C 89.711 960.229, 150.130 960.049, 153.785 959.259 C 156.887 958.589, 159.417 953.648, 158.007 951.014 C 156.621 948.423, 153.828 947, 150.131 947 C 145.777 947, 142.809 945.628, 138.625 941.683 C 135.060 938.320, 130.994 935.975, 126.250 934.544 C 124.016 933.870, 123.998 933.713, 123.780 912.183 C 123.190 854.096, 123.202 853.742, 125.857 851.269 C 127.174 850.042, 128.648 849.282, 129.133 849.582 C 129.617 849.881, 131.248 849.290, 132.757 848.269 C 134.266 847.247, 139.202 845.193, 143.728 843.704 C 148.253 842.215, 154.871 839.423, 158.435 837.499 C 161.999 835.574, 165.721 833.996, 166.707 833.990 C 167.693 833.985, 170.847 832.888, 173.715 831.552 C 177.621 829.734, 179.104 828.435, 179.619 826.381 C 180.813 821.625, 178.342 818.918, 170.500 816.390 C 166.650 815.150, 162.600 814.103, 161.500 814.064 C 160.400 814.024, 157.985 813.069, 156.133 811.940 C 154.282 810.811, 151.807 809.991, 150.633 810.118 C 149.460 810.245, 146.925 809.666, 145 808.832 C 143.075 807.998, 139.025 806.729, 136 806.011 C 127.249 803.936, 123.211 802.277, 120.267 799.547 C 117.147 796.654, 113.220 796.358, 111 798.850 M 470.500 921.965 C 464.286 923.075, 455.104 926.023, 454.421 927.127 C 454.083 927.675, 452.837 928.569, 451.653 929.113 C 445.729 931.837, 441.466 934.819, 441.150 936.462 C 440.848 938.028, 441.260 938.198, 444.024 937.645 C 445.798 937.290, 462.960 937, 482.160 937 C 515.106 937, 517.016 936.902, 516.113 935.250 C 515.586 934.288, 512.988 932.375, 510.340 931 C 507.692 929.625, 504.778 927.758, 503.864 926.852 C 502.951 925.945, 500.695 924.892, 498.852 924.511 C 497.008 924.129, 493.572 923.184, 491.215 922.409 C 486.748 920.940, 477.362 920.739, 470.500 921.965 M 260.344 935.041 C 255.452 936.009, 248 939.619, 248 941.020 C 248 942.331, 268.689 942.312, 269.500 941 C 269.840 940.450, 271.640 940, 273.500 940 C 275.360 940, 277.160 940.450, 277.500 941 C 278.257 942.224, 287.672 942.339, 288.417 941.134 C 289.398 939.547, 285.510 937.107, 279.511 935.545 C 273.145 933.887, 266.996 933.725, 260.344 935.041 M 791.275 941.362 C 790.577 942.495, 792.967 943.965, 795.539 943.985 C 797.754 944.001, 804.255 947.058, 806.869 949.312 C 807.766 950.085, 809.479 950.956, 810.676 951.246 C 812.545 951.700, 812.742 951.476, 812.070 949.660 C 811.334 947.669, 809.684 946.413, 802.523 942.388 C 799.334 940.595, 792.152 939.940, 791.275 941.362 M 971.535 945.867 C 972.654 946.367, 974.171 947.502, 974.907 948.388 C 975.643 949.275, 976.977 950.005, 977.872 950.012 C 978.768 950.019, 981.405 951.113, 983.733 952.444 C 986.268 953.894, 988.212 954.466, 988.580 953.871 C 988.918 953.324, 990.276 952.466, 991.597 951.963 C 992.919 951.461, 994 950.418, 994 949.647 C 994 947.096, 991.301 945.944, 985.866 946.176 C 982.915 946.301, 978.025 946.079, 975 945.681 C 971.459 945.215, 970.225 945.281, 971.535 945.867 M 926.500 950.430 C 924.434 952.097, 923.819 953.178, 924.525 953.900 C 925.237 954.630, 926.357 954.271, 928.191 952.725 C 929.643 951.501, 931.657 949.964, 932.666 949.309 C 934.352 948.214, 934.298 948.113, 932 948.064 C 930.625 948.034, 928.150 949.099, 926.500 950.430 M 999.180 961.172 C 999.652 964.373, 1002 964.716, 1002 961.583 C 1002 959.903, 1001.451 959, 1000.430 959 C 999.388 959, 998.968 959.729, 999.180 961.172" stroke="none" fill="#171916" fill-rule="evenodd"/>
</svg>