<svg role="img" aria-labelledby="artwork-title" shape-rendering="geometricPrecision" xmlns="http://www.w3.org/2000/svg" width="1200" height="1200" viewBox="0 0 1200 1200" version="1.1">
	<title id="artwork-title">Mascot placing a pin on a timeline</title>
	<path d="M 750 162.758 C 750 163.175, 745.612 164.348, 740.250 165.364 C 728.921 167.510, 723.146 169.885, 712.997 176.571 C 705.810 181.306, 700.748 185.745, 696.257 191.250 C 693.367 194.792, 690.548 194.733, 684.673 191.008 C 682.078 189.362, 679.627 188.083, 679.227 188.166 C 678.827 188.249, 677.825 188.045, 677 187.711 C 666.936 183.645, 648.284 182.634, 639.750 185.693 C 637.138 186.629, 635 187.714, 635 188.104 C 635 188.494, 634.152 188.591, 633.117 188.320 C 632.077 188.048, 629.398 188.986, 627.136 190.414 C 624.883 191.836, 622.828 193, 622.570 193 C 621.084 193, 611.645 200.328, 606.486 205.486 C 601.272 210.701, 594 220.088, 594 221.605 C 594 221.883, 593.047 224.202, 591.882 226.759 C 590.339 230.147, 589.621 234.213, 589.237 241.735 C 588.947 247.415, 588.236 252.354, 587.658 252.711 C 587.079 253.069, 584.488 253.249, 581.900 253.112 C 579.312 252.974, 576.363 253.317, 575.347 253.873 C 574.331 254.429, 570.350 256.356, 566.500 258.156 C 555.543 263.279, 544.911 273.404, 542.494 281.017 C 542.085 282.307, 540.908 284.743, 539.879 286.431 C 538.850 288.119, 538.003 290.175, 537.998 291 C 537.992 291.825, 537.318 293.784, 536.499 295.354 C 535.680 296.924, 535.236 298.573, 535.512 299.019 C 535.787 299.464, 535.493 300.002, 534.858 300.214 C 533.426 300.691, 533.494 322.331, 534.929 322.810 C 535.456 322.985, 535.640 323.775, 535.337 324.565 C 535.034 325.354, 535.284 326, 535.893 326 C 536.502 326, 537 326.833, 537 327.851 C 537 328.869, 538.125 331.818, 539.500 334.404 C 542.419 339.894, 542.345 339.493, 540.750 341.179 C 536.847 345.305, 533.996 350.421, 531.512 357.758 C 525.307 376.082, 531.049 393.175, 547.611 405.682 C 550.104 407.564, 550.328 408.113, 549.248 409.682 C 546.434 413.767, 545.855 416.818, 546.245 425.500 C 546.607 433.569, 547.003 435.103, 550.074 440.327 C 556.977 452.068, 556.971 450.428, 550.135 456.831 C 544.537 462.076, 538.061 470.366, 538.018 472.342 C 538.008 472.806, 537.152 474.263, 536.115 475.581 C 535.079 476.898, 533.923 480.119, 533.547 482.738 C 533.171 485.357, 532.219 489.719, 531.432 492.432 C 528.192 503.590, 530.706 518.765, 538.235 533.500 C 543.076 542.974, 551.826 554, 554.503 554 C 556.183 554, 562.370 560.377, 561.100 560.800 C 559.331 561.390, 559.668 579.564, 561.501 582.361 C 562.326 583.621, 563.630 587.992, 564.398 592.076 C 566.195 601.634, 567.695 605.362, 572.214 611.500 C 574.259 614.278, 576.188 618.278, 576.553 620.500 C 577.296 625.012, 584.208 635, 586.589 635 C 587.433 635, 588.999 637.005, 590.101 639.495 C 592.132 644.087, 598.368 651, 600.479 651 C 602.134 651, 606 655.324, 606 657.175 C 606 658.288, 604.578 658.890, 600.928 659.322 C 598.138 659.653, 594.425 660.362, 592.678 660.900 C 590.930 661.437, 585.450 663.066, 580.500 664.520 C 575.550 665.974, 569.250 668.185, 566.500 669.434 C 557.197 673.657, 543.506 680.120, 542.397 680.812 C 533.205 686.548, 527.064 690.892, 518.454 697.750 C 512.758 702.288, 507.928 706, 507.722 706 C 507.515 706, 505.141 708.025, 502.445 710.500 C 499.749 712.975, 497.083 715, 496.520 715 C 495.956 715, 493.321 717.025, 490.664 719.500 C 488.006 721.975, 485.519 724, 485.137 724 C 484.754 724, 482.880 725.481, 480.971 727.291 C 479.062 729.101, 473.444 733.992, 468.486 738.159 C 452.991 751.183, 451.458 753.386, 451.900 762 C 452.051 764.936, 451.329 766.266, 447.421 770.250 C 443.485 774.264, 442.175 775, 438.968 775 C 435.670 775, 434.770 774.452, 432.098 770.818 C 430.406 768.518, 428.741 765.031, 428.396 763.068 C 427.457 757.719, 422.604 750.747, 414.771 743.494 L 407.759 737.003 408.372 730.751 C 410.195 712.152, 410.222 706.007, 408.532 694.876 C 407.582 688.619, 406.550 682.825, 406.239 682 C 405.928 681.175, 405.593 680.275, 405.496 680 C 405.399 679.725, 404.572 677.827, 403.660 675.782 C 402.747 673.737, 401.971 671.262, 401.937 670.282 C 401.902 669.302, 400.572 666.025, 398.981 663 C 397.391 659.975, 395.517 656.375, 394.818 655 C 394.118 653.625, 392.838 651.825, 391.972 651 C 391.106 650.175, 389.318 647.700, 387.999 645.500 C 385.362 641.100, 379.810 634.046, 378.962 634.018 C 378.666 634.008, 376.027 631.750, 373.098 629 C 370.169 626.250, 367.375 624, 366.889 624 C 366.403 624, 363.255 621.975, 359.893 619.500 C 356.531 617.025, 353.302 615, 352.719 615 C 352.135 615, 350.947 614.374, 350.079 613.608 C 349.210 612.843, 344.225 610.767, 339 608.996 C 333.775 607.224, 328.943 605.325, 328.263 604.775 C 327.582 604.226, 326.400 604.016, 325.635 604.310 C 324.870 604.604, 323.716 604.316, 323.072 603.672 C 321.367 601.967, 279.873 602.031, 277.812 603.741 C 276.989 604.424, 276.031 604.697, 275.682 604.349 C 275.334 604, 274.475 604.185, 273.774 604.760 C 273.073 605.334, 270.475 606.315, 268 606.940 C 258.956 609.221, 245.854 615.237, 242.396 618.695 C 241.128 619.963, 239.558 621, 238.907 621 C 236.944 621, 224.320 631.842, 216.571 640.183 C 209.314 647.994, 201.335 661.722, 197.497 673 C 197.404 673.275, 197.043 674.175, 196.695 675 C 192.642 684.619, 190.530 701.352, 191.256 718.089 C 191.552 724.915, 192.234 731.850, 192.772 733.500 C 193.310 735.150, 194.252 739.211, 194.867 742.524 C 195.482 745.837, 196.888 750.320, 197.992 752.485 C 199.097 754.651, 200 757.028, 200 757.768 C 200 759.573, 209.829 782.103, 211.444 784 C 212.146 784.825, 214.659 788.875, 217.027 793 C 219.396 797.125, 222.322 801.850, 223.529 803.500 C 224.736 805.150, 227.185 809.425, 228.971 813 C 232.561 820.185, 247.652 843.306, 249.098 843.835 C 249.601 844.020, 249.758 844.582, 249.447 845.085 C 249.136 845.588, 249.370 846, 249.966 846 C 250.562 846, 251.500 847.013, 252.050 848.250 C 252.601 849.487, 254.052 851.861, 255.276 853.525 C 264.934 866.660, 271.850 876.015, 273.759 878.527 C 275.001 880.162, 278.457 884.875, 281.440 889 C 284.422 893.125, 287.720 897.220, 288.768 898.100 C 290.538 899.587, 290.718 901.862, 291.303 930.038 C 291.959 961.618, 291.812 963, 287.806 963 C 282.003 963, 268.091 975.628, 265.923 982.862 C 265.237 985.151, 264.134 987.474, 263.470 988.024 C 262.702 988.663, 249.085 988.930, 225.897 988.763 L 189.529 988.500 187.364 983.940 C 184.590 978.094, 176.148 968.852, 170.721 965.718 C 168.399 964.378, 163.237 962.494, 159.248 961.532 C 152.510 959.908, 151.498 959.896, 144.958 961.373 C 132.887 964.099, 125.004 970.360, 117.474 983.201 L 114.367 988.500 100.785 989 C 89.730 989.407, 86.845 989.825, 85.273 991.250 C 84.211 992.213, 82.590 993, 81.671 993 C 80.312 993, 80 994.027, 80 998.500 C 80 1002.869, 80.328 1004, 81.596 1004 C 82.473 1004, 84.491 1004.926, 86.081 1006.057 C 88.694 1007.918, 90.171 1008.085, 101.555 1007.807 L 114.141 1007.500 117.129 1013.765 C 121.211 1022.326, 128.859 1029.928, 137.339 1033.852 C 143.166 1036.550, 145.279 1037, 152.102 1037 C 156.508 1037, 161.501 1036.400, 163.282 1035.655 C 165.052 1034.916, 166.725 1034.350, 167 1034.397 C 168.140 1034.594, 177.434 1027.243, 181.369 1023.033 C 183.699 1020.540, 186.631 1016.025, 187.883 1013 L 190.161 1007.500 226.197 1007.725 C 262.051 1007.948, 264.944 1008.220, 265.031 1011.372 C 265.078 1013.069, 269.229 1021.209, 271.501 1024.060 C 273.257 1026.264, 283.198 1033.347, 284.876 1033.590 C 285.219 1033.640, 287.273 1034.469, 289.439 1035.433 C 295.859 1038.288, 308.891 1037.347, 316.200 1033.500 C 323.626 1029.592, 332.466 1020.996, 335.037 1015.184 C 338.751 1006.788, 333.215 1007.468, 395.420 1007.767 L 450.983 1008.033 453.623 1013.267 C 457.095 1020.148, 462.626 1026.678, 468.635 1030.992 C 471.311 1032.912, 473.604 1034.394, 473.732 1034.285 C 473.859 1034.176, 475.650 1034.791, 477.711 1035.653 C 484.002 1038.281, 498.153 1037.167, 505.536 1033.462 C 513.021 1029.706, 521.765 1020.814, 525.350 1013.313 L 528.129 1007.500 601.606 1007.737 C 650.329 1007.894, 675.741 1008.326, 677.035 1009.019 C 678.177 1009.630, 679.473 1011.994, 680.158 1014.715 C 681.065 1018.314, 682.760 1020.797, 687.646 1025.683 C 691.121 1029.158, 694.646 1032, 695.481 1032 C 696.317 1032, 697 1032.477, 697 1033.059 C 697 1033.641, 697.450 1033.840, 698 1033.500 C 698.550 1033.160, 699 1033.337, 699 1033.894 C 699 1035.620, 706.112 1036.989, 715.110 1036.994 C 722.844 1036.999, 724.350 1036.674, 729.931 1033.796 C 738.606 1029.322, 748.455 1018.976, 749.629 1013.104 C 749.966 1011.421, 750.802 1009.579, 751.489 1009.009 C 752.324 1008.316, 777.302 1007.973, 827.118 1007.972 C 910.528 1007.971, 902.071 1007.166, 906.162 1015.500 C 907.242 1017.700, 908.611 1020.400, 909.206 1021.500 C 910.766 1024.389, 918.916 1030.929, 925.018 1034.190 C 929.717 1036.701, 931.283 1037, 939.726 1037 C 948.825 1037, 949.415 1036.861, 955.660 1033.250 C 959.227 1031.188, 962.994 1029.018, 964.030 1028.429 C 967.573 1026.416, 970.779 1022.494, 973.893 1016.366 C 975.606 1012.996, 977.629 1009.723, 978.389 1009.092 C 979.400 1008.253, 997.648 1007.956, 1046.232 1007.986 L 1112.692 1008.027 1116.346 1004.581 C 1121.281 999.926, 1121.159 997.148, 1115.820 992.578 L 1111.640 989 1045.435 989 L 979.230 989 977.615 986.535 C 976.727 985.180, 975.998 983.492, 975.995 982.785 C 975.992 982.078, 974.305 979.295, 972.245 976.599 C 965.010 967.132, 950.616 959.506, 940 959.517 C 937.525 959.520, 932.158 960.612, 928.072 961.943 C 921.802 963.988, 919.683 965.310, 914.469 970.433 C 910.704 974.132, 907.163 978.842, 905.397 982.500 L 902.500 988.500 828.500 988.775 C 787.800 988.927, 753.546 988.821, 752.380 988.539 C 750.852 988.170, 750.082 986.975, 749.622 984.264 C 748.371 976.891, 737.865 965.795, 728.993 962.478 C 719.295 958.851, 715.354 958.443, 708.175 960.322 C 704.504 961.284, 699.475 963.042, 697 964.229 C 689.664 967.749, 679.336 979.467, 678.917 984.745 C 678.884 985.160, 678.145 986.287, 677.274 987.250 C 675.793 988.887, 670.883 989, 601.412 989 L 527.135 989 526.425 986.763 C 524.741 981.457, 513.177 967, 510.616 967 C 510.089 967, 508.896 966.311, 507.965 965.468 C 505.924 963.622, 493.695 960, 489.500 960 C 483.110 960, 473.128 963.766, 467.258 968.392 C 460.499 973.719, 457.455 977.216, 453.902 983.734 L 451.304 988.500 394.411 988.500 L 337.518 988.500 335.489 983.500 C 334.374 980.750, 332.649 977.291, 331.656 975.813 C 329.181 972.125, 317.177 963, 314.802 963 C 309.316 963, 309.433 963.755, 309.746 930.337 C 310.004 902.860, 310.224 899.264, 311.768 897.334 C 328.151 876.851, 332.724 872, 335.649 872 C 336.877 872, 338.172 872.469, 338.526 873.042 C 338.896 873.641, 342.213 873.994, 346.335 873.874 C 354.192 873.644, 358 874.462, 358 876.380 C 358 878.286, 376.817 896.172, 382.750 899.905 C 385.637 901.722, 388 903.612, 388 904.104 C 388 904.597, 388.527 905, 389.171 905 C 389.815 905, 391.065 905.654, 391.947 906.452 C 394.703 908.946, 412.707 917.775, 418.232 919.342 C 432.009 923.249, 453.420 923.511, 462.733 919.887 C 464.255 919.294, 466.625 918.371, 468 917.835 C 469.375 917.298, 470.602 916.873, 470.727 916.889 C 470.851 916.905, 473.707 915.361, 477.073 913.459 C 480.438 911.556, 483.430 910, 483.721 910 C 485.172 910, 496.900 904.363, 499.683 902.328 C 501.434 901.047, 503.234 899.990, 503.683 899.978 C 504.132 899.966, 505.625 899.076, 507 898 C 508.375 896.924, 510.043 896.034, 510.706 896.022 C 512.237 895.994, 517.587 892.369, 523.908 887.077 L 528.836 882.951 532.876 884.567 C 538.118 886.664, 542.043 885.445, 549.438 879.420 C 556.741 873.472, 558.377 873.539, 557.573 879.750 C 555.485 895.903, 554.300 930.482, 555.765 932.523 C 556.991 934.231, 561.825 937, 563.579 937 C 564.486 937, 566.985 936.013, 569.132 934.806 C 572.544 932.888, 573.453 932.762, 576.339 933.806 C 580.577 935.338, 585.267 935.333, 586.805 933.795 C 587.746 932.854, 589.230 933.004, 593.561 934.476 C 598.308 936.090, 600.006 936.210, 605.305 935.307 C 610.972 934.342, 611.934 934.454, 616.596 936.626 C 622.701 939.469, 624.249 939.524, 629.616 937.087 C 637.267 933.612, 639.701 933.521, 644.062 936.543 C 647.475 938.908, 648.624 939.186, 652.677 938.631 C 655.249 938.278, 658.084 937.329, 658.977 936.521 C 660.412 935.222, 661.113 935.309, 665.050 937.276 C 668.955 939.228, 671.093 939.503, 682.500 939.523 C 695.424 939.546, 702.523 940.418, 703.570 942.113 C 704.291 943.279, 712 943.265, 712 942.098 C 712 940.929, 717.553 938.999, 720.899 939.004 C 722.330 939.006, 724.973 939.906, 726.774 941.004 C 730.602 943.337, 737.106 943.617, 740.285 941.584 C 743.382 939.603, 755.557 936.725, 757.812 937.440 C 758.839 937.766, 760.286 939.166, 761.028 940.552 C 761.770 941.939, 762.965 942.844, 763.688 942.566 C 764.409 942.289, 765 942.559, 765 943.166 C 765 944.612, 778.444 943.706, 780.340 942.132 C 781.094 941.507, 783.463 940.388, 785.605 939.645 C 789.221 938.392, 789.768 938.464, 793.230 940.648 C 797.868 943.572, 804.545 943.766, 809.193 941.111 C 815.746 937.367, 822.672 937.642, 825.300 941.750 C 826.537 943.684, 831.495 943.230, 835.603 940.807 C 838.442 939.132, 840.700 938.659, 845.160 938.807 C 848.372 938.913, 853.594 939.088, 856.764 939.196 C 860.885 939.336, 863.435 938.856, 865.711 937.512 C 868.368 935.942, 869.325 935.827, 871.494 936.815 C 875.037 938.429, 879.607 938.304, 882.333 936.518 C 884.372 935.182, 884.961 935.231, 888.294 937.018 C 895.081 940.655, 901.151 939.276, 903.542 933.554 C 904.659 930.880, 904.740 926.751, 903.977 911.384 C 903.461 900.998, 902.762 890.904, 902.422 888.954 C 901.548 883.937, 902.974 883.205, 914.516 882.743 C 927.363 882.229, 962.045 879.142, 964 878.339 C 964.825 878, 966.985 877.822, 968.800 877.942 C 970.615 878.063, 972.640 877.735, 973.300 877.214 C 973.960 876.693, 979.675 875.734, 986 875.083 C 992.325 874.432, 998.850 873.712, 1000.500 873.483 C 1004.949 872.866, 1006.556 874.743, 1007.790 882 C 1009.219 890.401, 1010.019 917.761, 1009.062 925.500 C 1008.102 933.261, 1009.195 937.093, 1013.008 939.346 C 1016.805 941.589, 1021.489 940.315, 1024.500 936.220 C 1026.377 933.668, 1026.493 932.021, 1026.391 909.500 C 1026.332 896.300, 1025.830 882.588, 1025.277 879.029 L 1024.271 872.559 1028.652 868.300 C 1035.032 862.100, 1035.391 860.536, 1033.544 847.027 C 1032.678 840.687, 1031.725 833.598, 1031.426 831.273 C 1031.128 828.949, 1030.480 826.797, 1029.986 826.491 C 1029.492 826.186, 1029.343 825.270, 1029.656 824.455 C 1029.968 823.641, 1029.772 822.418, 1029.220 821.737 C 1028.668 821.057, 1027.687 817.800, 1027.040 814.500 C 1025.400 806.140, 1019.374 783.061, 1017.894 779.473 C 1017.219 777.838, 1016.592 776.275, 1016.500 776 C 1016.408 775.725, 1015.865 774.375, 1015.295 773 C 1014.724 771.625, 1013.107 767.350, 1011.701 763.500 C 1008.665 755.186, 1005.869 749.369, 1002.569 744.507 C 1001.239 742.547, 999.214 739.009, 998.070 736.644 C 995.780 731.914, 985.300 719.043, 975.678 709.143 C 969.318 702.600, 953.867 690, 952.202 690 C 951.687 690, 948.168 687.920, 944.382 685.378 C 940.597 682.836, 936.825 680.513, 936 680.215 C 935.175 679.918, 933.306 678.848, 931.846 677.837 C 930.386 676.827, 928.579 676, 927.831 676 C 927.083 676, 924.791 675.100, 922.739 674 C 920.686 672.900, 918.271 672, 917.372 672 C 916.472 672, 914.210 671.057, 912.346 669.905 C 910.481 668.752, 906.603 667.204, 903.728 666.464 C 900.852 665.725, 896.475 664.602, 894 663.970 C 891.525 663.337, 886.350 661.981, 882.500 660.957 C 878.650 659.932, 873.025 658.735, 870 658.297 C 865.408 657.632, 864.449 657.140, 864.189 655.318 C 863.980 653.850, 864.636 652.748, 866.189 651.954 C 870.409 649.797, 890.691 628.288, 891.314 625.309 C 891.838 622.801, 898.579 616.854, 899.770 617.848 C 901.196 619.036, 912.843 603.151, 912.236 600.846 C 912.141 600.486, 912.718 599.649, 913.518 598.985 C 914.656 598.041, 916.364 598.054, 921.350 599.045 C 926.407 600.050, 928.635 600.060, 932.113 599.093 C 934.526 598.422, 938.300 597.376, 940.500 596.769 C 942.700 596.161, 946.300 594.538, 948.500 593.162 C 950.700 591.785, 952.622 590.748, 952.771 590.856 C 953.955 591.714, 968.271 578.244, 973.397 571.449 C 983.308 558.309, 987.195 546.866, 987.796 529.055 C 988.179 517.732, 987.971 515.781, 985.497 507.403 C 983.292 499.936, 981.858 497.088, 977.914 492.347 C 975.239 489.131, 973.039 485.970, 973.025 485.323 C 973.011 484.675, 974.542 482.874, 976.427 481.321 C 978.555 479.567, 981.404 475.267, 983.941 469.980 C 989.105 459.216, 990.222 449.396, 987.505 438.625 L 985.771 431.751 991.286 426.323 C 995.152 422.518, 998.246 418.021, 1001.635 411.282 L 1006.470 401.669 1006.368 390.585 C 1006.307 383.923, 1005.748 378.303, 1004.967 376.500 C 1004.252 374.850, 1003.598 373.275, 1003.512 373 C 1001.970 368.029, 993.237 354.157, 989.274 350.382 C 986.063 347.323, 985.128 344.657, 986.887 343.570 C 987.374 343.269, 988.090 341.330, 988.476 339.261 C 988.863 337.192, 989.639 334.943, 990.201 334.263 C 990.764 333.582, 990.968 332.359, 990.656 331.545 C 990.343 330.730, 990.518 329.798, 991.044 329.473 C 992.291 328.702, 992.291 312.298, 991.044 311.527 C 990.518 311.202, 990.323 310.321, 990.612 309.569 C 990.900 308.817, 990.656 307.905, 990.068 307.542 C 989.481 307.179, 989 305.612, 989 304.060 C 989 300.607, 984.774 289.148, 981.452 283.590 C 971.685 267.254, 950.865 255, 932.876 255 C 925.356 255, 924.189 254.188, 923.454 248.447 C 922.676 242.371, 920.211 233.727, 917.526 227.655 C 914.957 221.845, 900.994 206, 898.444 206 C 897.734 206, 895.769 204.835, 894.077 203.411 C 892.385 201.987, 891 201.118, 891 201.479 C 891 201.841, 889.763 201.256, 888.250 200.181 C 886.737 199.105, 881.971 197.008, 877.659 195.521 C 870.277 192.975, 868.988 192.839, 855.659 193.207 C 841.422 193.600, 832.763 195.363, 828.921 198.649 C 825.435 201.632, 823.193 200.307, 817.807 192.080 C 814.514 187.049, 811.140 183.223, 808.561 181.591 C 806.327 180.179, 803.375 177.996, 802 176.741 C 798.770 173.792, 785.759 166.999, 783.354 167.005 C 780.981 167.011, 771.606 163.738, 771.167 162.750 C 770.729 161.764, 750 161.773, 750 162.758 M 750.477 182.988 C 739.064 184.666, 723.176 191.468, 719.044 196.447 C 718.335 197.301, 717.135 198, 716.378 198 C 715.620 198, 714.998 198.338, 714.995 198.750 C 714.993 199.162, 713.306 201.300, 711.248 203.500 C 704.705 210.494, 702 214.219, 702 216.236 C 702 217.811, 703.191 217.142, 708.035 212.849 C 715.765 205.998, 726.784 198.271, 729.961 197.474 C 731.319 197.133, 734.471 195.881, 736.965 194.693 C 740.959 192.790, 743.170 192.537, 755.500 192.571 C 767.727 192.605, 770.605 192.946, 778.224 195.265 C 788.639 198.435, 790.749 199.660, 798.238 206.881 C 802.239 210.739, 804.451 213.843, 805.543 217.130 C 807.215 222.163, 809.257 224.577, 810.956 223.527 C 812.653 222.479, 812.152 219.448, 809.954 217.459 C 808.829 216.440, 807.996 214.683, 808.103 213.554 C 808.347 210.976, 807.348 208.617, 803.763 203.304 C 801.286 199.634, 796.583 196.013, 784.716 188.639 C 781.247 186.483, 763.234 181.957, 758.795 182.125 C 756.983 182.193, 753.239 182.582, 750.477 182.988 M 643.500 206.409 C 628.169 210.679, 616.576 219.071, 611.051 229.899 C 605.764 240.264, 602.125 257.723, 604.895 259.435 C 605.900 260.056, 607 257.762, 607 255.043 C 607 250.323, 615.456 235.540, 622.373 228.167 C 625.639 224.686, 641.353 213.854, 642.715 214.144 C 643.147 214.236, 645.724 213.282, 648.442 212.024 C 655.307 208.846, 666.453 208.874, 673.500 212.086 C 679.541 214.840, 681.668 215.105, 683.173 213.292 C 684.954 211.145, 684.404 210.833, 670.095 205.874 C 662.973 203.405, 653.609 203.594, 643.500 206.409 M 846.500 212.661 C 845.400 212.966, 843.943 213.667, 843.263 214.219 C 842.582 214.772, 841.345 214.963, 840.513 214.643 C 839.681 214.324, 839 214.499, 839 215.031 C 839 215.564, 838.170 216, 837.155 216 C 834.030 216, 823 223.721, 823 225.908 C 823 227.626, 823.381 227.751, 826.180 226.948 C 827.929 226.447, 829.669 225.536, 830.047 224.924 C 830.786 223.729, 839.933 221.606, 849.230 220.473 C 858.013 219.402, 874.562 223.711, 879.500 228.354 C 880.600 229.389, 883.022 230.888, 884.882 231.686 C 888.757 233.349, 898 242.424, 898 244.567 C 898 245.355, 898.477 246, 899.059 246 C 899.641 246, 899.840 246.450, 899.500 247 C 899.160 247.550, 899.353 248, 899.928 248 C 900.504 248, 901.768 250.699, 902.737 253.999 C 905.126 262.126, 907.510 262.278, 906.692 254.250 C 906.116 248.603, 903.118 241.562, 898.698 235.473 C 891.459 225.504, 888.587 222.906, 880.113 218.664 C 875.363 216.286, 870.905 214.532, 870.205 214.765 C 869.505 214.998, 868.271 214.640, 867.462 213.969 C 865.919 212.688, 849.987 211.693, 846.500 212.661 M 582 272.437 C 574.002 275.521, 572 276.478, 572 277.219 C 572 277.649, 571.614 278, 571.143 278 C 570.227 278, 560 287.926, 560 288.814 C 560 289.105, 559.402 290.053, 558.671 290.921 C 555.472 294.723, 553 304.141, 553 312.530 C 553 320.406, 554.434 324.806, 555.368 319.791 C 558.392 303.540, 559.700 299.415, 563.631 293.724 C 568.337 286.912, 574.750 280.234, 578.451 278.290 C 580.074 277.438, 582.019 276.124, 582.773 275.370 C 583.526 274.617, 584.974 274, 585.990 274 C 588.755 274, 591.061 272.908, 590.435 271.895 C 589.653 270.630, 586.096 270.858, 582 272.437 M 920.250 274.662 C 919.563 274.940, 919 275.804, 919 276.583 C 919 277.586, 920.257 278, 923.300 278 C 925.665 278, 928.140 278.540, 928.800 279.200 C 929.460 279.860, 930 280.030, 930 279.578 C 930 279.125, 930.563 279.201, 931.250 279.745 C 931.938 280.290, 934.885 281.514, 937.801 282.465 C 946.463 285.291, 957.727 294.916, 962.047 303.182 C 963.105 305.207, 964.395 307.126, 964.913 307.446 C 965.846 308.023, 967.258 311.958, 968.429 317.250 C 969.465 321.928, 971 320.284, 971 314.496 C 971 310.903, 970.306 307.697, 969 305.261 C 967.900 303.209, 967 301.058, 967 300.481 C 967 299.006, 960.995 289.915, 958 286.857 C 950.238 278.931, 938.654 274.005, 928 274.100 C 924.425 274.132, 920.938 274.385, 920.250 274.662 M 904.362 277.500 C 903.464 279.839, 904.731 282, 907 282 C 909.853 282, 910.788 279.049, 908.471 277.355 C 906.083 275.609, 905.074 275.644, 904.362 277.500 M 696.516 305.683 C 695.626 306.682, 692.896 309.709, 690.449 312.409 C 688.002 315.109, 686 317.695, 686 318.156 C 686 319.301, 678.973 327, 677.928 327 C 677.032 327, 669.895 331.656, 669.022 332.810 C 667.691 334.570, 654.619 338, 649.244 338 C 642.854 338, 633.971 335.786, 630 333.204 C 624.880 329.874, 624.002 330.609, 621.652 340.183 C 620.749 343.859, 618.999 348.583, 617.761 350.680 C 614.707 355.856, 607.348 362.957, 603.273 364.659 C 599.098 366.404, 598.396 368.260, 597.038 381.146 C 595.924 391.716, 594.167 403.779, 592.180 414.500 C 591.569 417.800, 590.623 424.993, 590.078 430.485 C 589.533 435.978, 588.643 440.619, 588.100 440.800 C 587.557 440.981, 587.362 441.781, 587.668 442.577 C 587.974 443.374, 587.652 444.714, 586.954 445.555 C 584.848 448.093, 587.357 449.704, 590.203 447.641 C 599.237 441.093, 599.471 441, 609.561 439.946 C 630.350 437.775, 641.126 437.665, 654.069 439.492 C 669.239 441.633, 676.116 444.102, 686.509 451.140 C 692.827 455.418, 695.042 457.592, 697.087 461.525 C 699.240 465.667, 700.078 466.446, 702.087 466.175 C 703.414 465.996, 709.675 465.822, 716 465.787 C 724.704 465.738, 728.594 466.149, 732 467.477 C 737.416 469.588, 744 470.571, 744 469.269 C 744 468.752, 745.644 466.219, 747.652 463.640 C 753.358 456.317, 763.694 451.841, 778.203 450.411 C 781.966 450.041, 785.286 449.346, 785.581 448.869 C 786.329 447.658, 798.743 447.775, 799.500 449 C 799.840 449.550, 802.680 450, 805.811 450 C 812.276 450, 829.030 453.005, 836.500 455.504 C 845.296 458.447, 861.780 468.790, 861.993 471.500 C 862.037 472.050, 863.175 473.850, 864.523 475.500 C 866.971 478.496, 866.990 478.501, 880.237 479.062 C 887.532 479.371, 894.079 479.429, 894.786 479.191 C 895.739 478.870, 895.904 477.270, 895.422 473.009 C 894.991 469.202, 895.148 467.027, 895.886 466.571 C 897.864 465.348, 897.073 461.871, 894.196 459.151 C 892.654 457.693, 889.848 454.250, 887.960 451.500 L 884.528 446.500 884.605 434.878 C 884.669 425.185, 885 422.777, 886.595 420.378 C 892.463 411.552, 893.202 407, 888.768 407 C 883.925 407, 867.962 393.726, 864.361 386.705 C 863.457 384.942, 861.920 382.476, 860.945 381.225 C 858.081 377.548, 856.486 365.638, 857.921 358.644 C 858.581 355.424, 858.907 352.573, 858.644 352.310 C 858.380 352.047, 850.590 351.746, 841.332 351.641 C 826.376 351.471, 823.902 351.198, 819.136 349.195 C 805.919 343.638, 793.031 330.606, 789.964 319.699 C 788.576 314.761, 786.757 314.185, 782.872 317.454 C 775.548 323.617, 761.948 328.304, 747.755 329.556 C 733.389 330.823, 718.625 325.318, 707.636 314.596 C 703.986 311.035, 701 307.699, 701 307.183 C 701 306.667, 700.355 305.710, 699.567 305.056 C 698.432 304.114, 697.797 304.245, 696.516 305.683 M 553 353 C 553 354.100, 553.402 355, 553.893 355 C 555.017 355, 556.066 352.399, 555.264 351.598 C 554.061 350.394, 553 351.051, 553 353 M 974.415 365.137 C 974.093 365.659, 975.105 367.686, 976.664 369.642 C 978.224 371.597, 980.087 374.277, 980.805 375.598 C 981.522 376.919, 982.535 378, 983.055 378 C 984.646 378, 984.107 374.407, 982.138 371.885 C 981.113 370.573, 979.973 368.536, 979.604 367.358 C 978.886 365.064, 975.386 363.566, 974.415 365.137 M 985.015 385.691 C 985.007 387.996, 985.450 390.160, 986 390.500 C 987.295 391.301, 987.295 385.005, 986 383 C 985.289 381.900, 985.027 382.617, 985.015 385.691 M 642 403.977 C 640.625 404.460, 636.878 405.585, 633.673 406.478 C 629.641 407.601, 626.484 409.357, 623.423 412.178 C 619.460 415.831, 619 416.719, 619 420.726 C 619 424.466, 619.523 425.686, 622.198 428.185 C 625.789 431.539, 626.788 431.559, 640 428.532 C 648.306 426.629, 656.497 426.929, 666.335 429.496 C 671.793 430.921, 672.445 430.897, 676.455 429.123 C 680.726 427.234, 684 422.810, 684 418.927 C 684 413.330, 676.195 406.747, 667.616 405.109 C 659.960 403.648, 644.844 402.980, 642 403.977 M 789.500 414.927 C 782.633 416.579, 776 423.021, 776 428.036 C 776 431.132, 779.653 436.735, 782.300 437.697 C 783.510 438.137, 790.350 438.498, 797.500 438.499 C 810.715 438.500, 816.548 439.752, 825.786 444.572 C 827.278 445.350, 830.591 445.990, 833.146 445.994 C 837.217 445.999, 838.177 445.562, 840.896 442.465 C 844.788 438.033, 845.039 433.378, 841.603 429.327 C 838.069 425.158, 828.798 419.936, 822.245 418.424 C 819.085 417.694, 814.039 416.400, 811.032 415.549 C 805.409 413.956, 794.806 413.650, 789.500 414.927 M 620.500 458.941 C 618.203 459.875, 601.303 476.798, 597.527 481.944 C 594.847 485.597, 594.027 492, 596.239 492 C 596.921 492, 602.434 486.914, 608.489 480.697 C 614.545 474.481, 622.094 467.249, 625.265 464.627 C 628.436 462.004, 630.772 459.440, 630.456 458.929 C 629.761 457.804, 623.275 457.812, 620.500 458.941 M 225.215 465.710 C 223.958 465.951, 221.817 467.831, 220.456 469.888 C 218.207 473.286, 218.069 474.093, 218.949 478.731 C 219.481 481.539, 220.377 487.501, 220.938 491.981 C 221.500 496.460, 222.295 500.660, 222.705 501.313 C 223.115 501.966, 223.327 503.248, 223.177 504.161 C 223.027 505.075, 223.376 506.114, 223.952 506.470 C 224.528 506.827, 225.008 508.779, 225.018 510.809 C 225.047 516.467, 227.777 530.669, 229.464 533.931 C 230.292 535.532, 232.363 537.834, 234.066 539.047 C 236.814 541.003, 237.443 541.101, 239.665 539.912 C 244.876 537.123, 247.865 530.405, 246.035 525.592 C 245.443 524.036, 244.523 518.878, 243.989 514.131 C 241.609 492.953, 238.246 474.448, 236.133 470.908 C 234.230 467.721, 230.159 464.757, 228.203 465.136 C 227.816 465.211, 226.472 465.469, 225.215 465.710 M 561 468.279 C 559.625 468.966, 557.772 470.979, 556.882 472.752 C 555.993 474.525, 554.810 476.544, 554.255 477.238 C 553.699 477.932, 552.911 479.586, 552.503 480.913 C 552.095 482.240, 551.109 484.887, 550.312 486.796 C 547.946 492.458, 548.328 512.312, 550.912 518 C 552.036 520.475, 552.966 523.231, 552.978 524.124 C 553.011 526.585, 557.940 534.898, 560.028 536.015 C 563.402 537.821, 564 537.133, 564 531.450 C 564 528.398, 564.681 524.583, 565.514 522.972 C 567.037 520.029, 568.317 506.709, 569.424 482.310 C 569.887 472.090, 569.725 469.867, 568.417 468.560 C 566.542 466.685, 564.356 466.602, 561 468.279 M 783.685 469.763 C 774.825 475.231, 754 496.604, 754 500.230 C 754 504.971, 757.376 502.816, 773.397 487.850 C 784.857 477.146, 789.780 471.898, 789.665 470.510 C 789.448 467.896, 787.171 467.612, 783.685 469.763 M 709.728 484.904 C 704.647 485.966, 701 489.527, 701 493.427 C 701 497.491, 697.578 509.337, 695.580 512.189 C 694.711 513.430, 694 515.222, 694 516.171 C 694 517.120, 692.875 519.111, 691.500 520.595 C 690.125 522.078, 689 523.861, 689 524.557 C 689 527.041, 668.898 544, 665.954 544 C 665.434 544, 662.194 545.002, 658.754 546.226 C 653.392 548.135, 650.502 548.446, 638.500 548.411 C 625.815 548.373, 623.748 548.107, 616.500 545.578 C 602.965 540.855, 590.915 531.052, 584.954 519.914 C 583.737 517.640, 583.655 517.625, 582.913 519.522 C 582.488 520.610, 582.108 525.775, 582.068 531 C 582.006 538.982, 582.350 541.171, 584.217 544.697 C 586.222 548.482, 586.312 549.247, 585.138 552.495 C 583.673 556.546, 584.389 558.084, 588.754 560.257 C 590.557 561.155, 591.841 563.285, 593.376 567.926 C 595.181 573.386, 595.951 574.496, 598.500 575.310 C 602.679 576.645, 603.774 577.695, 604.517 581.077 C 605.259 584.457, 607.574 586, 611.899 586 C 615.119 586, 617 588.188, 617 591.934 C 617 594.346, 619.209 594.658, 621 592.500 C 622.824 590.302, 623.187 590.482, 629.090 596.500 C 632.057 599.525, 634.826 602, 635.242 602 C 635.659 602, 636.011 600.313, 636.024 598.250 C 636.056 593.188, 637.651 586.616, 638.953 586.182 C 639.536 585.988, 639.758 585.418, 639.447 584.915 C 639.136 584.412, 639.302 584, 639.816 584 C 640.330 584, 641 582.749, 641.306 581.220 C 641.913 578.185, 653.074 565.388, 656.421 563.890 C 657.564 563.378, 660.975 561.395, 664 559.483 C 668.203 556.828, 670.579 556.007, 674.076 556.004 C 678.833 556, 681.305 554.302, 683.910 549.250 C 685.938 545.318, 691.551 546.169, 698.576 551.473 C 703.905 555.497, 705.052 555.949, 710 555.970 C 713.768 555.985, 716.531 555.364, 718.774 553.996 C 723.338 551.213, 725.436 551.478, 730.704 555.500 C 734.727 558.572, 735.998 559, 741.092 559 C 745.898 559, 747.361 559.430, 749.595 561.500 C 751.465 563.234, 753.430 564, 756.006 564 C 758.883 564, 760.564 564.795, 763.462 567.529 C 765.521 569.470, 768.736 571.699, 770.609 572.481 C 774.089 573.935, 778.912 578.621, 778.968 580.604 C 778.986 581.211, 780.152 582.951, 781.561 584.471 C 785.015 588.198, 787.580 595.157, 788.360 602.919 C 788.714 606.449, 789.178 609.511, 789.390 609.723 C 789.601 609.935, 791.288 609.185, 793.137 608.058 C 797.884 605.163, 802.527 605.348, 804.601 608.513 L 806.247 611.027 810.601 607.013 C 815.613 602.394, 819.955 601.670, 822.329 605.059 L 823.770 607.117 826.385 604.694 C 827.823 603.361, 829 601.813, 829 601.254 C 829 600.695, 830.581 599.032, 832.512 597.558 C 835.744 595.093, 836.298 594.978, 839.446 596.117 C 843.019 597.409, 846 596.266, 846 593.605 C 846 592.973, 847.383 590.778, 849.073 588.728 C 851.830 585.383, 852.631 585, 856.873 585 C 862.399 585, 864 583.763, 864 579.494 C 864 574.745, 868.274 569.607, 872.730 569 C 876.397 568.500, 876.400 568.496, 879.036 559.575 C 881.233 552.143, 882.282 550.136, 885.310 547.575 C 888.511 544.868, 889.028 543.781, 889.632 538.500 C 890.159 533.886, 891.089 531.485, 893.658 528.106 C 897.451 523.119, 897.660 521.937, 895.365 518.435 C 894.098 516.500, 893.852 514.434, 894.270 509.226 C 895.063 499.344, 895.112 499.383, 880.996 498.540 C 867.382 497.728, 866 498.193, 866 503.587 C 866 506.667, 864.279 512.852, 861.712 519 C 861.137 520.375, 860.618 521.725, 860.558 522 C 860.498 522.275, 858.886 525.425, 856.975 529 C 853.569 535.371, 844.300 545.777, 838.644 549.580 C 830.273 555.207, 828.453 556.152, 821.500 558.482 C 802.920 564.708, 774.080 561.135, 763.026 551.239 C 761.636 549.995, 759.667 548.713, 758.649 548.389 C 756.485 547.702, 749 540.661, 749 539.314 C 749 538.808, 747.538 536.405, 745.750 533.975 C 743.962 531.544, 742.620 529.426, 742.766 529.267 C 742.912 529.109, 742.391 527.971, 741.607 526.739 C 738.661 522.111, 735.684 508.685, 735.591 499.609 C 735.521 492.764, 735.155 490.549, 734 489.984 C 733.175 489.580, 730.579 488.260, 728.232 487.051 C 723.512 484.619, 715.528 483.693, 709.728 484.904 M 941 496.724 C 939.625 496.972, 937.600 497.974, 936.500 498.951 C 935.400 499.928, 933.772 501.126, 932.883 501.613 C 928.087 504.243, 923.682 509.475, 921.832 514.739 C 920.742 517.838, 918.966 521.500, 917.883 522.875 C 916.201 525.015, 916.008 526.325, 916.551 531.938 C 917.006 536.630, 916.754 539.746, 915.669 542.871 C 914.474 546.311, 914.356 548.520, 915.115 553.235 C 916.151 559.665, 915.323 563.783, 911.852 569.476 C 908.672 574.690, 909.345 576.532, 915.537 579.562 C 920.218 581.852, 921.958 582.191, 926.787 581.751 C 932.993 581.185, 942.065 577.114, 948.480 572.016 C 950.567 570.357, 952.663 569, 953.138 569 C 953.612 569, 954 568.554, 954 568.009 C 954 567.463, 955.593 564.930, 957.541 562.378 C 959.489 559.827, 961.747 556.335, 962.559 554.620 C 963.371 552.904, 964.677 550.375, 965.460 549 C 967.609 545.230, 970.009 533.264, 969.973 526.500 C 969.861 505.313, 958.439 493.574, 941 496.724 M 134.119 506.885 C 132.259 507.876, 130.138 509.770, 129.404 511.093 C 126.573 516.203, 127.516 518.406, 137.170 529.224 C 154.919 549.114, 171.450 565.899, 175.259 567.898 C 177.716 569.188, 178.202 569.083, 181.530 566.545 C 183.514 565.032, 185.633 562.705, 186.239 561.374 C 187.384 558.862, 186.407 556.955, 180.418 550.002 C 179.233 548.626, 174.503 543, 169.908 537.500 C 154.020 518.485, 141.135 504.978, 138.943 505.042 C 138.149 505.065, 135.979 505.895, 134.119 506.885 M 669.282 588.266 C 663.622 589.823, 660.821 593.283, 659.492 600.358 C 658.301 606.695, 658.831 620.299, 660.365 622.781 C 660.727 623.367, 662.410 624.151, 664.104 624.523 C 666.302 625.006, 667.565 626.109, 668.510 628.370 C 670.367 632.813, 673.457 635.375, 676.120 634.679 C 677.323 634.364, 679.565 634.758, 681.104 635.554 C 684.541 637.331, 686.949 637.406, 687.413 635.750 C 689.627 627.859, 690.485 626.206, 693.404 624.206 C 696.966 621.765, 700.425 621.430, 704.685 623.111 C 706.233 623.723, 710.712 624.178, 714.637 624.123 C 723.299 624.002, 724.165 624.782, 724.157 632.701 C 724.148 641.985, 724.180 642.024, 731.456 641.744 C 736.512 641.549, 738.207 641.884, 739.901 643.414 C 742.214 645.504, 741.968 645.628, 749.168 638.750 C 750.237 637.728, 752.561 636.994, 754.750 636.985 C 759.625 636.965, 760.119 636.528, 762.659 630 C 768.305 615.487, 768.539 614.354, 766.692 610.481 C 765.762 608.529, 765 605.857, 765 604.543 C 765 603.229, 763.835 600.769, 762.411 599.077 C 760.241 596.497, 759.109 596, 755.411 596 C 751.166 596, 751 596.114, 751 599.032 C 751 603.622, 748.497 608.711, 745.841 609.522 C 744.554 609.915, 742.825 610.765, 742 611.410 C 741.175 612.056, 737.800 613.397, 734.500 614.392 C 731.200 615.386, 727.719 616.604, 726.764 617.100 C 724.373 618.339, 702.274 618.252, 701.500 617 C 701.160 616.450, 699.896 615.997, 698.691 615.994 C 697.486 615.990, 695.211 615.315, 693.636 614.494 C 692.060 613.672, 690.115 613, 689.314 613 C 684.417 613, 672 601.830, 672 597.426 C 672 594.408, 677.235 588.999, 680.151 589.004 C 683.279 589.009, 689.091 592.634, 689.699 594.958 C 690.220 596.948, 690.689 597.143, 701.724 599.968 C 709.457 601.947, 713.248 601.845, 724.718 599.351 C 733.884 597.358, 735.557 595.654, 731.515 592.430 C 729.364 590.715, 728.249 590.379, 727.307 591.160 C 726.602 591.745, 725.345 591.963, 724.513 591.643 C 723.681 591.324, 723 591.499, 723 592.031 C 723 592.564, 721.303 593, 719.228 593 C 716.491 593, 714.431 592.155, 711.721 589.922 C 708.745 587.469, 707.400 586.973, 705.095 587.479 C 703.416 587.848, 701.990 588.929, 701.695 590.057 C 700.921 593.018, 694.999 592.692, 692.023 589.524 C 689.851 587.213, 689.114 587.064, 680.880 587.274 C 676.031 587.399, 670.812 587.844, 669.282 588.266 M 88.317 598.025 C 81.799 602.297, 83.053 610.297, 90.832 614.078 C 98.273 617.694, 99.587 618.180, 101.086 617.872 C 101.864 617.711, 103.625 618.209, 105 618.976 C 106.375 619.744, 111.100 620.937, 115.500 621.627 C 119.900 622.317, 126.650 623.575, 130.500 624.423 C 141.473 626.841, 145.613 626.541, 149.077 623.077 C 155.268 616.886, 150.892 608.827, 140.609 607.479 C 137.799 607.111, 134.488 606.167, 133.250 605.382 C 132.012 604.596, 131 604.244, 131 604.599 C 131 604.954, 130.426 604.769, 129.725 604.187 C 129.024 603.605, 125.986 602.811, 122.975 602.422 C 119.964 602.034, 116.375 601.276, 115 600.737 C 112.346 599.699, 100.843 597.214, 95 596.417 C 92.527 596.080, 90.566 596.551, 88.317 598.025 M 287.416 621.087 C 282.420 621.533, 275.991 622.821, 273.129 623.949 C 270.267 625.077, 267.147 626, 266.195 626 C 265.243 626, 262.777 627.147, 260.714 628.548 C 258.652 629.950, 256.570 630.852, 256.087 630.554 C 255.604 630.256, 254.974 630.626, 254.685 631.378 C 254.397 632.129, 252.157 633.714, 249.707 634.900 C 243.408 637.949, 227 654.458, 227 657.746 C 227 658.318, 226.323 659.046, 225.496 659.363 C 223.273 660.216, 215.209 678.172, 213.363 686.380 C 212.482 690.296, 211.492 693.950, 211.162 694.500 C 210.832 695.050, 210.687 696.470, 210.840 697.654 C 210.993 698.839, 210.642 700.104, 210.059 700.464 C 208.607 701.361, 208.639 722.659, 210.094 723.558 C 210.696 723.930, 210.983 725.307, 210.733 726.617 C 210.482 727.928, 210.665 729, 211.139 729 C 211.612 729, 212 729.825, 212 730.833 C 212 731.841, 213.350 736.866, 215 742 C 216.650 747.134, 218 751.725, 218 752.204 C 218 752.970, 220.230 757.796, 229.687 777.500 C 231.007 780.250, 233.419 784.750, 235.046 787.500 C 236.673 790.250, 239.384 795.200, 241.070 798.500 C 242.757 801.800, 244.916 805.400, 245.868 806.500 C 246.821 807.600, 248.905 810.525, 250.500 813 C 252.095 815.475, 254.168 818.400, 255.107 819.500 C 256.046 820.600, 257.829 823.465, 259.069 825.866 C 260.309 828.267, 262.375 831.284, 263.661 832.570 C 264.948 833.857, 266 835.427, 266 836.060 C 266 837.264, 279.296 855.367, 289.208 867.660 C 292.383 871.597, 295.414 875.958, 295.943 877.349 C 296.471 878.740, 297.776 880.345, 298.842 880.915 C 300.546 881.827, 301.754 880.718, 308.850 871.726 C 313.288 866.102, 317.275 861.050, 317.710 860.499 C 318.528 859.464, 325.809 849.764, 329.720 844.500 C 330.946 842.850, 332.410 840.461, 332.972 839.190 C 333.535 837.920, 337.822 831.137, 342.498 824.117 C 347.174 817.097, 351 810.687, 351 809.872 C 351 809.057, 349.427 806.673, 347.504 804.574 C 345.581 802.474, 343.480 798.899, 342.835 796.628 C 342.190 794.358, 341.289 792.073, 340.831 791.550 C 339.658 790.209, 339.794 781.245, 341 780.500 C 341.550 780.160, 342 778.949, 342 777.809 C 342 773.550, 348.437 764.874, 356.299 758.539 C 364.426 751.989, 368.314 750.146, 374.933 749.704 C 378.230 749.485, 381.547 748.791, 382.304 748.162 C 384.127 746.649, 387.517 735.663, 389.604 724.500 C 390.530 719.550, 391.529 715.073, 391.825 714.551 C 392.543 713.287, 392.513 708.639, 391.779 707.449 C 391.458 706.927, 390.887 704.250, 390.511 701.500 C 388.908 689.772, 386.551 680.208, 383.871 674.552 C 379.082 664.444, 371.366 652.563, 367.067 648.680 C 364.830 646.659, 363 644.625, 363 644.160 C 363 642.765, 345.724 630.986, 339 627.796 C 333.285 625.086, 322.075 622.165, 313.091 621.047 C 303.805 619.891, 300.748 619.896, 287.416 621.087 M 286.977 666.016 C 276.435 668.836, 265.189 677.596, 259.854 687.144 C 256.280 693.541, 253 704.824, 253 710.723 C 253 717.492, 256.089 728.615, 259.440 733.913 C 263.008 739.555, 270.435 746.984, 276.087 750.565 C 281.372 753.914, 294.806 758.006, 300.449 757.985 C 305.693 757.966, 318.495 753.975, 323.550 750.784 C 328.335 747.764, 336.857 739.402, 339.221 735.408 C 340.168 733.808, 341.351 731.825, 341.850 731 C 344.630 726.404, 346.178 720.786, 346.648 713.590 C 347.102 706.624, 346.806 704.390, 344.520 697.511 C 343.059 693.117, 340.995 688.712, 339.932 687.722 C 338.869 686.732, 338 685.314, 338 684.570 C 338 682.871, 327.222 672, 325.537 672 C 324.852 672, 323.078 670.875, 321.595 669.500 C 320.111 668.125, 317.850 667, 316.571 667 C 315.291 667, 312.629 666.325, 310.654 665.500 C 305.973 663.544, 295.352 663.776, 286.977 666.016 M 817.479 682.840 C 814.341 685.779, 792.140 692.553, 782.327 693.566 C 779.122 693.896, 775.825 694.428, 775 694.747 C 774.175 695.066, 773.275 695.407, 773 695.504 C 772.725 695.601, 770.793 696.442, 768.708 697.372 C 766.086 698.540, 762.691 698.999, 757.708 698.857 C 753.743 698.744, 745.100 698.985, 738.500 699.392 C 722.562 700.376, 695.829 698.933, 693.453 696.961 C 692.485 696.157, 690.902 695.634, 689.935 695.798 C 688.968 695.962, 687.886 695.624, 687.530 695.048 C 687.173 694.472, 685.316 694, 683.401 694 C 681.487 694, 678.156 693.100, 676 692 C 668.642 688.246, 667.331 689.856, 671.170 697.934 C 673.801 703.472, 687.808 717.663, 691.576 718.608 C 693.068 718.983, 695.124 720.124, 696.145 721.145 C 697.165 722.165, 698.898 723, 699.996 723 C 701.094 723, 704.806 723.995, 708.246 725.210 C 713.831 727.184, 716.373 727.412, 732 727.339 C 747.709 727.266, 750.394 726.995, 758.242 724.691 C 763.050 723.280, 767.988 721.421, 769.215 720.562 C 770.441 719.703, 772.106 719, 772.913 719 C 776.308 719, 794.097 709.137, 801.500 703.150 C 810.420 695.936, 822.104 684.006, 821.662 682.563 C 821.139 680.853, 819.484 680.962, 817.479 682.840 M 400.427 758.765 C 399.837 759.169, 399.092 760.212, 398.773 761.083 C 397.934 763.366, 386.300 767, 379.830 767 C 375.275 767, 373.571 767.528, 370.166 769.995 C 364.771 773.903, 360.769 780.349, 360.229 786 C 359.657 791.976, 362.997 795.953, 368.702 796.093 C 377.952 796.319, 381.622 795.805, 384.250 793.916 C 388.204 791.075, 395.070 789.989, 398.899 791.600 C 401.484 792.687, 402 793.457, 402 796.231 C 402 799.768, 397.532 805.386, 392.854 807.730 C 388.871 809.727, 382.553 812.373, 381.500 812.485 C 379.306 812.720, 376 815.155, 376 816.535 C 376 817.341, 376.938 818.862, 378.083 819.917 C 385.448 826.693, 386 827.428, 386 830.467 C 386 834.672, 384.414 836, 379.390 836 C 375.988 836, 374.208 835.232, 370.119 832 C 367.336 829.800, 364.388 828, 363.569 828 C 362.750 828, 359.024 832.574, 355.290 838.164 C 351.555 843.755, 347.449 849.881, 346.164 851.778 C 344.564 854.139, 344.151 855.551, 344.854 856.254 C 346.306 857.706, 362.062 855.551, 366.223 853.331 C 368.025 852.370, 369.800 851.565, 370.167 851.542 C 370.533 851.519, 371.171 851.163, 371.583 850.750 C 373.030 849.303, 378.690 850, 380.345 851.829 C 381.255 852.835, 382 855.272, 382 857.246 C 382 860.240, 381.305 861.412, 377.798 864.324 L 373.597 867.814 382.048 876.260 C 386.697 880.905, 391.715 885.334, 393.201 886.103 C 394.687 886.871, 399.665 889.808, 404.263 892.629 C 408.861 895.450, 414.621 898.220, 417.062 898.784 C 419.503 899.349, 423.075 900.371, 425 901.057 C 430.993 903.191, 431.406 903.273, 435.152 903.064 C 437.161 902.953, 439.721 903.433, 440.841 904.133 C 442.496 905.166, 443.342 905.155, 445.366 904.072 C 446.735 903.339, 449.013 902.961, 450.428 903.231 C 451.843 903.501, 453 903.384, 453 902.971 C 453 902.557, 454.462 901.998, 456.250 901.728 C 460.005 901.160, 471.048 897.172, 472.450 895.877 C 472.972 895.395, 474.175 895, 475.123 895 C 476.071 895, 478.231 893.835, 479.923 892.411 C 481.615 890.987, 483 890.141, 483 890.530 C 483 890.919, 484.545 890.059, 486.433 888.619 C 488.322 887.178, 490.310 886, 490.851 886 C 492.559 886, 502.402 880.826, 504.750 878.694 C 505.988 877.571, 507 877.039, 507 877.513 C 507 877.987, 508.238 877.254, 509.750 875.884 C 511.262 874.515, 514.525 872.070, 517 870.450 C 519.475 868.831, 521.725 867.278, 522 867 C 522.275 866.722, 525.068 864.544, 528.207 862.159 C 534.505 857.374, 534.532 857.251, 531.537 847 C 530.814 844.525, 529.946 840.925, 529.608 839 C 529.269 837.075, 527.970 833.025, 526.720 830 C 524.555 824.757, 523.845 823.446, 519.414 816.500 C 518.361 814.850, 517.050 812.517, 516.500 811.315 C 514.618 807.202, 499.577 789.506, 492.891 783.540 C 489.218 780.262, 484.703 776.888, 482.857 776.042 C 481.010 775.196, 479.140 773.940, 478.700 773.252 C 478.260 772.563, 476.988 772, 475.872 772 C 473.193 772, 458.991 783.650, 459.032 785.814 C 459.049 786.741, 460.624 789.053, 462.532 790.952 C 465.402 793.808, 466 795.135, 466 798.645 C 466 806.669, 458.017 808.556, 450 802.427 C 447.525 800.535, 443.700 798.096, 441.500 797.006 C 439.300 795.917, 436.725 794.467, 435.777 793.785 C 434.343 792.752, 433.813 792.874, 432.616 794.511 C 431.825 795.593, 431.386 796.815, 431.641 797.227 C 432.332 798.347, 426.871 804.942, 423.982 806.475 C 421.034 808.040, 416.282 807.417, 413.634 805.119 C 411.995 803.697, 411.866 802.708, 412.577 797 C 414.683 780.091, 412.436 767.201, 406.259 760.750 C 403.549 757.920, 402.288 757.491, 400.427 758.765 M 709.053 977.678 C 707.706 977.960, 704.024 980.828, 700.870 984.052 C 696.096 988.931, 695.019 990.690, 694.439 994.556 C 692.485 1007.592, 701.727 1018, 715.258 1018 C 720.176 1018, 721.864 1017.502, 725.563 1014.956 C 732.601 1010.115, 735 1005.782, 735 997.918 C 735 992.154, 734.613 990.766, 732.005 987.166 C 726.587 979.687, 717.461 975.914, 709.053 977.678 M 144.204 980.128 C 139.670 982.372, 135.926 986.524, 133.946 991.504 C 132.553 995.008, 132.174 999.989, 133.250 1000.654 C 133.662 1000.909, 134 1002.276, 134 1003.691 C 134 1007.604, 137.576 1012.561, 142.464 1015.426 C 152.153 1021.104, 165.925 1016.909, 170.130 1007 C 171.467 1003.850, 171.509 994.301, 170.200 991 C 168.630 987.040, 164.898 983.372, 159.601 980.581 C 153.647 977.444, 149.852 977.332, 144.204 980.128 M 293 979.958 C 286.925 983.204, 283.138 988, 282.028 993.854 C 280.843 1000.101, 282.071 1007.003, 285.038 1010.776 C 287.798 1014.284, 296.317 1018, 301.599 1018 C 306.338 1018, 315.422 1013.721, 316.460 1011 C 316.775 1010.175, 317.693 1008.375, 318.501 1007 C 319.388 1005.492, 319.976 1001.878, 319.985 997.891 C 319.999 991.563, 319.825 991.082, 315.878 986.599 C 308.616 978.348, 300.450 975.978, 293 979.958 M 482.500 979.389 C 478.178 981.277, 472.988 985.908, 471.828 988.911 C 470.545 992.233, 470.531 1004.744, 471.808 1008 C 475.273 1016.840, 491.071 1021.209, 499.882 1015.764 C 504.979 1012.615, 507.932 1008.959, 507.968 1005.750 C 507.986 1004.237, 508.337 1003, 508.750 1003.001 C 509.809 1003.002, 509.399 994.004, 508.204 991 C 506.627 987.036, 502.896 983.370, 497.601 980.581 C 492.234 977.753, 487.161 977.353, 482.500 979.389 M 930.860 980.012 C 922.421 984.471, 918.643 993.447, 920.859 1003.778 C 924.034 1018.581, 943.021 1022.966, 955.598 1011.800 C 958.346 1009.360, 960.447 1000.463, 959.603 994.836 C 958.689 988.746, 955.828 984.481, 950.306 980.979 C 944.553 977.330, 936.676 976.938, 930.860 980.012" stroke="none" fill="#171916" fill-rule="evenodd"/>
</svg>