<svg role="img" aria-labelledby="artwork-title" shape-rendering="geometricPrecision" xmlns="http://www.w3.org/2000/svg" width="1200" height="1200" viewBox="0 0 1200 1200" version="1.1">
	<title id="artwork-title">Mascot holding a project card</title>
	<path d="M 738 81.465 C 738 83.474, 735.460 84.610, 729.179 85.410 C 719.128 86.690, 707.365 93.657, 696.141 104.976 C 687.802 113.386, 685.097 116.766, 684.363 119.690 C 684.044 120.960, 683.382 122, 682.892 122 C 682.401 122, 682 122.675, 682 123.500 C 682 124.325, 681.475 125, 680.833 125 C 680.192 125, 679.940 125.273, 680.273 125.606 C 680.607 125.940, 680.041 127.113, 679.016 128.213 C 677.152 130.214, 677.152 130.214, 673.326 128.189 C 669.065 125.935, 659.120 123.380, 650.899 122.427 C 643.309 121.547, 629.531 124.358, 620.486 128.631 C 617.728 129.934, 614.985 131, 614.391 131 C 613.796 131, 612.524 131.868, 611.564 132.929 C 610.604 133.990, 607.407 136.352, 604.460 138.179 C 601.513 140.005, 598.561 142.497, 597.900 143.716 C 597.239 144.935, 596.368 145.727, 595.963 145.477 C 595.558 145.227, 594.962 145.805, 594.637 146.761 C 594.313 147.718, 592.457 150.525, 590.512 153 C 582.800 162.817, 577.144 180.128, 578.343 190.251 C 578.818 194.256, 578.621 195.190, 577.208 195.643 C 576.269 195.945, 574.825 196.436, 574 196.734 C 573.175 197.033, 571.058 197.182, 569.295 197.066 C 566.259 196.866, 558.509 200.117, 550.014 205.156 C 545.316 207.942, 536.018 217.571, 533.267 222.500 C 528.928 230.274, 524.168 240, 524.703 240 C 525.001 240, 524.804 240.563, 524.265 241.250 C 522.095 244.018, 520.819 257.696, 521.981 265.736 C 522.597 270.006, 523.373 274.175, 523.704 275 C 524.036 275.825, 524.375 276.950, 524.458 277.500 C 524.541 278.050, 525.094 279.625, 525.686 281 C 526.278 282.375, 527.421 285.075, 528.226 287 C 529.031 288.925, 530.435 291.118, 531.345 291.872 C 533.789 293.899, 533.371 296.271, 530 299.500 C 528.350 301.081, 527 302.917, 527 303.580 C 527 304.243, 526.401 305.016, 525.669 305.297 C 524.112 305.894, 519.328 318.644, 518.413 324.636 C 517.632 329.744, 519.587 341.842, 522.086 347.375 C 524.312 352.301, 529.905 359.299, 535.750 364.472 C 540.382 368.571, 540.770 369.999, 538.458 374.434 C 537.616 376.048, 537.149 377.946, 537.420 378.652 C 537.691 379.358, 537.482 380.202, 536.956 380.527 C 535.676 381.318, 535.728 390.714, 537.016 391.510 C 537.575 391.856, 537.762 392.577, 537.430 393.113 C 537.099 393.649, 537.258 394.630, 537.784 395.294 C 538.309 395.957, 539.312 398.277, 540.013 400.449 C 540.713 402.621, 542.572 406.578, 544.143 409.243 C 547.665 415.216, 547.728 417.394, 544.448 419.703 C 540.353 422.587, 533.864 428.668, 532.634 430.775 C 530.818 433.885, 524.610 445.452, 524.462 446 C 524.388 446.275, 524.086 447.175, 523.791 448 C 519.693 459.471, 518.795 466.124, 519.246 481.685 C 519.567 492.778, 520.173 498.694, 521.277 501.500 C 523.216 506.431, 524.296 509.343, 524.428 510 C 524.483 510.275, 525.985 513.030, 527.764 516.122 C 529.544 519.214, 531 522.068, 531 522.464 C 531 523.669, 534.753 528.178, 541.161 534.670 C 547.089 540.677, 547.221 540.927, 546.126 544.070 C 545.506 545.846, 545 553.066, 545 560.114 C 545 573.304, 546.414 580.475, 549.759 584.250 C 550.612 585.212, 550.960 586, 550.533 586 C 550.105 586, 550.198 586.563, 550.740 587.250 C 551.282 587.938, 552.015 591.425, 552.369 595 C 553.085 602.238, 559.828 617.302, 563.147 619.078 C 564.166 619.624, 565 621.124, 565 622.413 C 565 625.201, 562.549 627.698, 561.492 625.987 C 561.047 625.267, 556.712 624.910, 549.153 624.971 C 542.744 625.023, 527.150 624.622, 514.500 624.080 C 501.850 623.537, 461.800 622.611, 425.500 622.022 C 389.200 621.432, 345.550 620.526, 328.500 620.007 C 311.450 619.488, 274.308 618.790, 245.963 618.455 C 201.159 617.926, 193.907 618.045, 190.463 619.372 C 188.283 620.211, 184.475 621.412, 182 622.040 C 174.280 624, 159.948 634.135, 153.925 641.894 C 148.057 649.454, 143.881 657.701, 142.842 663.779 C 141.497 671.645, 139.127 766.442, 136.826 904.316 C 136.700 911.915, 136.279 918.328, 135.892 918.567 C 135.504 918.806, 132.558 919.407, 129.344 919.901 C 117.994 921.646, 111.722 924.660, 104.315 931.930 C 94.931 941.140, 93.338 943.618, 91.439 951.969 C 89.824 959.068, 89.844 962.050, 91.610 977.863 C 92.109 982.341, 91.861 983.697, 90.104 986.073 C 88.947 987.638, 88 989.531, 88 990.278 C 88 991.025, 87.297 994.006, 86.437 996.901 C 85.306 1000.707, 84.475 1002.013, 83.437 1001.614 C 82.278 1001.170, 82 1002.325, 82 1007.575 C 82 1013.034, 82.262 1014.040, 83.621 1013.794 C 86.315 1013.305, 87.968 1021.109, 87.985 1034.399 C 87.999 1045.800, 88.136 1046.571, 91.250 1052.840 C 93.037 1056.438, 95.226 1060.134, 96.114 1061.054 C 97.366 1062.352, 97.727 1064.836, 97.727 1072.137 C 97.727 1080.807, 97.970 1081.978, 100.819 1087.024 C 102.520 1090.036, 105.844 1094.367, 108.206 1096.649 C 112.511 1100.807, 124 1108.634, 124 1107.408 C 124 1107.049, 124.608 1107.260, 125.351 1107.876 C 126.094 1108.493, 128.813 1109.287, 131.393 1109.640 C 136.639 1110.359, 139 1112.713, 139 1117.223 L 139 1120 152 1120 C 159.150 1120, 165 1119.607, 165 1119.127 C 165 1118.647, 164.009 1116.060, 162.797 1113.377 C 161.585 1110.695, 160.697 1107.971, 160.823 1107.325 C 160.950 1106.679, 160.591 1105.865, 160.027 1105.516 C 158.615 1104.644, 158.733 1099.667, 160.200 1098.200 C 160.860 1097.540, 162.187 1097, 163.148 1097 C 164.110 1097, 166.111 1095.875, 167.595 1094.500 C 169.078 1093.125, 170.743 1092, 171.295 1092 C 174.520 1092, 184.993 1076.185, 184.998 1071.309 C 184.999 1070.104, 185.450 1068.840, 186 1068.500 C 187.227 1067.741, 187.326 1063.320, 186.133 1062.582 C 185.656 1062.287, 185.035 1060.002, 184.753 1057.505 C 184.472 1055.007, 183.062 1051.181, 181.621 1049.003 C 180.179 1046.825, 179 1044.432, 179 1043.685 C 179 1042.939, 181.222 1039.560, 183.937 1036.176 C 187.804 1031.358, 189 1028.993, 189.457 1025.262 C 189.778 1022.643, 190.482 1018.328, 191.020 1015.674 C 192.791 1006.950, 191.633 1001.001, 187.225 996.173 C 181.891 990.332, 179.341 983.144, 182.015 981.491 C 182.925 980.929, 186.182 974.511, 186.410 972.833 C 186.459 972.467, 186.838 971.829, 187.250 971.417 C 188.227 970.439, 188.227 955.561, 187.250 954.583 C 186.838 954.171, 186.473 953.533, 186.439 953.167 C 186.253 951.126, 182.594 944.270, 179.765 940.662 C 175.520 935.248, 173.561 933.550, 167.430 929.972 C 164.642 928.344, 161.329 925.915, 160.069 924.574 L 157.778 922.135 158.520 875.045 C 158.929 849.146, 159.666 827.706, 160.159 827.402 C 160.657 827.094, 161.017 814.214, 160.969 798.423 C 160.922 782.790, 161.126 769.606, 161.422 769.126 C 161.719 768.645, 162.211 748.733, 162.514 724.876 C 163.246 667.436, 164.451 660.568, 175.668 649.907 C 178.325 647.380, 182.975 644.230, 186 642.907 C 191.491 640.504, 191.578 640.499, 238.251 640 C 263.963 639.725, 285.001 639.837, 285.001 640.250 C 285 640.663, 293.438 641.012, 303.750 641.026 C 314.063 641.040, 329.250 641.466, 337.500 641.972 C 345.750 642.477, 390.975 643.364, 438 643.941 C 485.025 644.518, 530.700 645.431, 539.500 645.968 C 553.333 646.813, 589.726 647.878, 658.111 649.437 L 675.722 649.839 681.111 653.453 C 684.075 655.440, 687.887 657.951, 689.583 659.033 C 694.299 662.043, 698.687 668.123, 701.462 675.494 L 703.974 682.169 703.522 727.334 C 703.273 752.175, 702.828 777.450, 702.532 783.500 C 702.237 789.550, 701.725 821.500, 701.394 854.500 C 700.749 918.811, 700.548 927.305, 699.632 928.787 C 699.308 929.311, 695.458 929.948, 691.077 930.202 C 686.696 930.455, 682.524 931.110, 681.806 931.656 C 681.088 932.203, 678.589 933.196, 676.254 933.864 C 671.141 935.326, 662.794 940.299, 658 944.740 C 656.075 946.524, 653.643 947.987, 652.596 947.991 C 650.761 948, 650.716 947.180, 651.342 925.250 C 651.699 912.738, 652.290 878.970, 652.655 850.210 C 653.021 821.451, 653.688 797.693, 654.139 797.414 C 654.590 797.135, 654.526 796.141, 653.997 795.204 C 653.467 794.267, 652.396 790.253, 651.617 786.285 C 649.758 776.819, 645.794 771.923, 635.608 766.507 L 631.154 764.138 566.827 763.050 C 531.447 762.451, 493.050 761.546, 481.500 761.037 C 469.950 760.529, 437.775 759.864, 410 759.560 C 312.907 758.497, 274.492 757.785, 273.500 757.031 C 272.010 755.897, 234 754.923, 234 756.019 C 234 756.524, 233.325 756.678, 232.500 756.362 C 231.675 756.045, 231 756.225, 231 756.762 C 231 757.299, 229.449 757.990, 227.553 758.298 C 222.928 759.048, 215.961 764.410, 211.869 770.368 C 207.672 776.479, 207.411 779.071, 207.126 817.500 C 207.007 833.450, 206.535 853.925, 206.076 863 C 205.617 872.075, 205.254 880.400, 205.270 881.500 C 205.286 882.600, 204.941 904.878, 204.505 931.007 L 203.711 978.513 205.998 983.007 C 208.938 988.781, 213.620 994.239, 218.576 997.668 C 222.104 1000.109, 223.711 1000.457, 234.500 1001.110 C 241.100 1001.510, 255.586 1001.874, 266.691 1001.919 C 279.533 1001.970, 287.116 1002.379, 287.526 1003.042 C 287.934 1003.702, 293.917 1004.040, 303.835 1003.964 C 312.451 1003.897, 320.175 1004.066, 321 1004.338 C 321.825 1004.611, 344.550 1005.105, 371.500 1005.438 C 421.981 1006.061, 476.602 1007.284, 532.500 1009.045 C 550.100 1009.599, 578.675 1010.315, 596 1010.635 L 627.500 1011.217 634.254 1008.012 C 637.969 1006.250, 641.394 1004.118, 641.866 1003.275 C 642.416 1002.293, 642.958 1002.123, 643.378 1002.803 C 643.738 1003.386, 642.901 1005.531, 641.517 1007.571 C 640.132 1009.610, 639 1012.061, 639 1013.017 C 639 1013.974, 638.325 1016.371, 637.500 1018.346 C 633.845 1027.093, 637.425 1041.279, 645.107 1048.489 C 650.890 1053.916, 651.275 1054.971, 650.012 1061.932 C 648.032 1072.850, 650.790 1079.515, 661.898 1090.650 C 668.644 1097.414, 677.173 1101.707, 685.500 1102.532 C 697.128 1103.684, 696.375 1102.979, 695.675 1112.055 L 695.063 1120 766.154 1120 C 828.219 1120, 837.092 1119.815, 836.039 1118.547 C 835.375 1117.747, 832.283 1116.366, 829.166 1115.478 C 823.397 1113.834, 816.503 1111.025, 812 1108.483 C 810.625 1107.707, 807.025 1105.885, 804 1104.434 C 798.668 1101.877, 798.362 1101.843, 794 1103.334 C 791.525 1104.180, 786.575 1105.185, 783 1105.568 C 779.425 1105.950, 776.133 1106.473, 775.684 1106.731 C 774.562 1107.375, 760.336 1107.326, 759.282 1106.674 C 758.813 1106.385, 755.536 1105.821, 751.999 1105.420 C 746.282 1104.774, 737.465 1101.430, 731.630 1097.696 C 730.602 1097.038, 727.499 1094.138, 724.735 1091.250 C 721.971 1088.362, 719.316 1086, 718.835 1086 C 718.354 1086, 716.144 1084.853, 713.923 1083.451 C 710.089 1081.031, 709.233 1080.911, 696.885 1081.060 C 689.734 1081.146, 683.610 1080.943, 683.275 1080.608 C 682.940 1080.274, 681.857 1080, 680.868 1080 C 678.031 1080, 672.145 1074.183, 671.080 1070.327 C 669.363 1064.108, 671.484 1060.201, 679 1055.742 L 685.500 1051.885 697.567 1052.329 C 712.028 1052.861, 715.208 1051.930, 716.949 1046.655 C 717.907 1043.753, 717.835 1042.581, 716.547 1040.091 C 714.460 1036.055, 712.839 1035.319, 701.847 1033.412 C 691.605 1031.636, 683.636 1031.999, 673.445 1034.706 C 665.668 1036.772, 663.147 1036.019, 659.750 1030.615 C 656.886 1026.059, 656.374 1022.777, 657.900 1018.762 C 658.939 1016.029, 667.792 1007, 669.433 1007 C 670.039 1007, 672.194 1005.873, 674.220 1004.497 C 679.081 1001.193, 689.005 999.855, 705.940 1000.217 L 719.169 1000.500 721.579 997.500 C 723.933 994.571, 724.689 989.960, 723.377 986.539 C 721.257 981.015, 700.485 977.902, 680.628 980.131 C 667.928 981.557, 663.349 980.375, 662.421 975.432 C 661.561 970.849, 662.406 968.923, 667.837 963.076 C 671.533 959.098, 674.282 957.282, 680.053 955.006 C 684.149 953.390, 688.647 952.053, 690.050 952.034 C 691.452 952.015, 693.027 951.598, 693.550 951.107 C 697.736 947.171, 729.742 947.246, 734.700 951.204 C 735.359 951.730, 737.159 952.049, 738.700 951.912 C 740.240 951.774, 743.300 952.441, 745.500 953.393 C 747.700 954.346, 751.525 955.598, 754 956.176 C 764.655 958.666, 768.623 961.626, 790.362 983.301 C 801.837 994.741, 812.314 1004.815, 813.644 1005.686 C 815.513 1006.911, 820.354 1007.442, 834.945 1008.023 C 845.330 1008.437, 854.329 1009.086, 854.944 1009.465 C 856.067 1010.159, 882.036 1011.609, 909 1012.484 C 926.349 1013.046, 946 1015.058, 946 1016.273 C 946 1016.752, 948.468 1017.031, 951.485 1016.891 C 954.502 1016.751, 957.277 1016.944, 957.652 1017.318 C 958.027 1017.693, 959.878 1018, 961.765 1018 C 965.374 1018, 970.235 1013.986, 971.516 1009.948 C 972.356 1007.303, 968.980 1002.774, 963.184 998.769 C 958.742 995.700, 957.946 995.514, 947.782 995.157 C 934.428 994.688, 934.170 994.467, 935.810 984.900 C 936.465 981.085, 937 975.046, 937 971.481 C 937 961.805, 937.042 961.783, 958.965 959.531 C 975.346 957.849, 979.701 957.766, 998.925 958.766 C 1020.177 959.873, 1037.267 962.147, 1039.738 964.198 C 1040.432 964.774, 1041 964.910, 1041 964.500 C 1041 964.090, 1041.563 964.221, 1042.250 964.790 C 1042.938 965.359, 1046.229 966.319, 1049.564 966.923 C 1060.259 968.859, 1077.252 975.609, 1078.299 978.336 C 1078.633 979.206, 1078.504 988.374, 1078.012 998.709 C 1077.150 1016.840, 1073.237 1044.704, 1070.872 1049.555 C 1070.321 1050.686, 1069.972 1052.036, 1070.097 1052.555 C 1070.221 1053.075, 1069.801 1054.764, 1069.164 1056.309 C 1068.526 1057.853, 1067.719 1061.003, 1067.370 1063.309 C 1067.020 1065.614, 1065.669 1070.074, 1064.367 1073.220 C 1063.065 1076.366, 1061.990 1079.516, 1061.978 1080.220 C 1061.966 1080.924, 1060.992 1083.525, 1059.813 1086 C 1058.634 1088.475, 1057.594 1090.725, 1057.501 1091 C 1057.005 1092.471, 1054.603 1096.978, 1052.440 1100.500 C 1051.088 1102.700, 1049.438 1105.737, 1048.772 1107.250 C 1048.106 1108.763, 1047.210 1110, 1046.781 1110 C 1046.351 1110, 1046 1110.415, 1046 1110.923 C 1046 1111.431, 1044.650 1113.196, 1043 1114.846 C 1041.350 1116.496, 1040 1118.331, 1040 1118.923 C 1040 1119.639, 1044.493 1120, 1053.391 1120 L 1066.783 1120 1068.397 1115.967 C 1069.284 1113.748, 1070.683 1111.675, 1071.505 1111.360 C 1072.327 1111.044, 1073 1110.264, 1073 1109.625 C 1073 1108.987, 1074.124 1106.809, 1075.499 1104.787 C 1076.873 1102.764, 1078.505 1098.722, 1079.124 1095.805 C 1079.744 1092.887, 1081.205 1089.150, 1082.372 1087.500 C 1083.538 1085.850, 1084.376 1084.385, 1084.235 1084.245 C 1084.093 1084.105, 1084.689 1082.305, 1085.558 1080.245 C 1086.428 1078.185, 1087.798 1073.800, 1088.603 1070.500 C 1089.408 1067.200, 1090.718 1062.250, 1091.515 1059.500 C 1092.312 1056.750, 1093.469 1051.125, 1094.086 1047 C 1094.703 1042.875, 1095.662 1038.943, 1096.216 1038.263 C 1096.770 1037.582, 1096.974 1036.374, 1096.668 1035.577 C 1096.362 1034.781, 1096.511 1033.988, 1096.999 1033.815 C 1098.190 1033.392, 1100 1015.051, 1100 1003.405 L 1100 994.022 1106.828 989.056 C 1117.443 981.335, 1117.368 981.644, 1116.724 948.298 C 1116.136 917.882, 1113.124 884.564, 1110.277 877 C 1109.967 876.175, 1109.818 874.197, 1109.947 872.604 C 1110.076 871.011, 1109.744 868.761, 1109.210 867.604 C 1108.676 866.447, 1107.249 861, 1106.039 855.500 C 1104.829 850, 1102.976 842.979, 1101.920 839.897 C 1100.864 836.816, 1100 833.654, 1100 832.872 C 1100 832.089, 1098.664 828.761, 1097.031 825.475 C 1095.399 822.189, 1094.049 819.099, 1094.031 818.610 C 1094.001 817.739, 1093.140 815.738, 1087.529 803.500 C 1086.017 800.200, 1082.804 794.245, 1080.389 790.267 C 1077.975 786.289, 1076 782.639, 1076 782.156 C 1076 779.746, 1064.555 764.415, 1056.550 756.102 C 1043.317 742.361, 1021.777 724.735, 1016.641 723.446 C 1015.234 723.093, 1013.520 722.126, 1012.832 721.298 C 1011.597 719.810, 1008.128 718.117, 1006.831 718.370 C 1006.462 718.441, 1005.112 717.550, 1003.831 716.390 C 1001.735 714.492, 997.645 712.370, 987 707.658 C 985.075 706.806, 982.375 705.447, 981 704.638 C 975.513 701.409, 967.939 698, 966.254 698 C 965.273 698, 962.902 697.160, 960.985 696.133 C 959.068 695.107, 956.010 693.940, 954.188 693.540 C 952.367 693.141, 948.992 691.736, 946.688 690.419 C 944.385 689.102, 941.150 688.009, 939.500 687.990 C 937.850 687.971, 934.695 687.136, 932.490 686.134 C 930.284 685.132, 926.797 683.997, 924.740 683.611 C 920.483 682.812, 919.996 681.608, 923.230 679.877 C 924.457 679.221, 928.169 675.905, 931.480 672.510 C 934.791 669.114, 938.809 665.487, 940.409 664.449 C 943.616 662.368, 954.152 650.055, 953.554 649.087 C 952.460 647.317, 962.191 640.045, 966.267 639.586 C 967.387 639.460, 978 628.798, 978 627.799 C 978 626.597, 985.054 616.488, 985.845 616.557 C 986.205 616.589, 987.850 617.189, 989.500 617.892 C 993.123 619.436, 1014.954 619.066, 1017.097 617.425 C 1017.869 616.834, 1020.525 615.777, 1023 615.076 C 1025.475 614.376, 1028.175 613.245, 1029 612.562 C 1029.825 611.880, 1033.425 609.701, 1037 607.719 C 1044.843 603.371, 1058.662 590.808, 1064.643 582.588 C 1067.039 579.294, 1069 576.197, 1069 575.704 C 1069 575.212, 1069.851 573.614, 1070.891 572.154 C 1076.046 564.913, 1080.248 549.850, 1081.672 533.500 C 1082.301 526.280, 1079.006 506.924, 1076.192 501.308 C 1075.142 499.213, 1073.989 496.272, 1073.628 494.770 C 1073.267 493.269, 1071.623 490.661, 1069.975 488.975 C 1066.653 485.576, 1066.913 484.004, 1071.626 479 C 1077.126 473.160, 1079 470.836, 1079 469.853 C 1079 469.279, 1080.012 467.389, 1081.248 465.654 C 1082.485 463.919, 1083.535 462.275, 1083.582 462 C 1083.629 461.725, 1084.248 460.150, 1084.957 458.500 C 1088.784 449.593, 1090.258 438.328, 1088.138 434.184 C 1085.247 428.533, 1085.615 427.650, 1094.760 418.292 C 1103.647 409.199, 1106.457 404.950, 1109.503 396 C 1109.596 395.725, 1109.945 394.825, 1110.279 394 C 1115.722 380.524, 1115.908 364.474, 1110.762 352.126 C 1110.160 350.682, 1109.592 349.275, 1109.500 349 C 1107.565 343.228, 1104.555 337.579, 1101.332 333.673 C 1098.373 330.087, 1098.402 328.114, 1101.500 322 C 1102.875 319.287, 1104 316.365, 1104 315.508 C 1104 314.651, 1104.900 311.389, 1106 308.260 C 1107.100 305.130, 1108 301.091, 1108 299.285 C 1108 297.478, 1108.450 296, 1109 296 C 1109.550 296, 1110 294.227, 1110 292.059 C 1110 289.891, 1109.550 287.840, 1109 287.500 C 1108.450 287.160, 1108 284.889, 1108 282.453 C 1108 276.287, 1103.713 260.495, 1100.412 254.500 C 1092.151 239.500, 1071.213 223.239, 1057.990 221.554 C 1048.425 220.336, 1049.111 221.382, 1049.111 208.017 C 1049.111 197.777, 1048.799 195.468, 1046.856 191.317 C 1045.616 188.668, 1044.539 186.275, 1044.464 186 C 1042.394 178.427, 1027.207 159.284, 1019.889 155.021 C 1015.501 152.465, 1003.041 145.980, 1002.512 145.977 C 1002.239 145.975, 1000.324 145.005, 998.257 143.822 C 995.036 141.976, 992.481 141.604, 980.336 141.211 C 969.543 140.862, 965.140 141.102, 961.836 142.220 C 957.075 143.831, 955 143.587, 955 141.417 C 955 140.637, 954.592 140, 954.094 140 C 953.595 140, 953.409 139.152, 953.680 138.117 C 953.951 137.081, 953.093 134.493, 951.775 132.367 C 950.456 130.240, 948.801 127.070, 948.097 125.322 C 947.393 123.575, 945.958 121.367, 944.909 120.417 C 943.859 119.467, 943 118.374, 943 117.988 C 943 116.758, 927.310 101.579, 923.888 99.500 C 920.313 97.327, 918.826 96.371, 914.990 93.780 C 911.222 91.235, 899.224 86.483, 892.999 85.072 C 884.429 83.129, 884 82.956, 884 81.433 C 884 80.248, 881.187 80, 867.741 80 C 853.021 80, 851.372 80.175, 850.329 81.845 C 849.599 83.014, 846.856 84.176, 842.839 85.018 C 836.177 86.414, 824.198 91.852, 822.030 94.464 C 821.329 95.309, 820.227 96, 819.581 96 C 818.934 96, 816.648 97.800, 814.500 100 C 809.797 104.816, 808.271 104.951, 804.437 100.887 C 801.471 97.743, 796.213 93.854, 790.910 90.882 C 789.323 89.993, 787.405 88.751, 786.649 88.124 C 785.893 87.496, 782.627 86.493, 779.392 85.895 C 772.437 84.610, 770 83.460, 770 81.465 C 770 80.239, 767.385 80, 754 80 C 740.615 80, 738 80.239, 738 81.465 M 742 104.126 C 738.975 104.617, 735.825 105.313, 735 105.673 C 734.175 106.033, 733.275 106.382, 733 106.448 C 732.725 106.515, 728.472 108.579, 723.548 111.035 C 709.420 118.083, 698.319 129.952, 696.346 140.120 C 695.986 141.979, 694.635 144.772, 693.345 146.327 C 690.711 149.502, 690.622 149.889, 692.034 152 C 692.903 153.298, 693.237 153.239, 694.519 151.559 C 695.334 150.491, 696 148.873, 696 147.964 C 696 147.054, 696.874 145.519, 697.943 144.551 C 699.012 143.584, 700.172 141.492, 700.521 139.902 C 700.871 138.313, 701.694 136.672, 702.352 136.256 C 703.010 135.840, 704.324 134.280, 705.272 132.788 C 706.741 130.478, 710.213 127.358, 721.372 118.326 C 722.401 117.493, 724.651 116.340, 726.372 115.764 C 728.092 115.188, 730.175 114.169, 731 113.498 C 732.897 111.957, 742.358 110.141, 752.606 109.351 C 761.858 108.637, 773.793 110.309, 779.281 113.086 C 783.221 115.080, 788 115.644, 788 114.114 C 788 113.627, 786.538 112.482, 784.750 111.569 C 782.962 110.657, 780.150 109.091, 778.500 108.089 C 776.850 107.086, 775.224 106.420, 774.886 106.608 C 774.548 106.796, 772.433 106.061, 770.184 104.975 C 765.681 102.799, 752.604 102.405, 742 104.126 M 858.863 103.964 C 854.663 104.392, 850.613 105.130, 849.863 105.606 C 849.114 106.081, 848.275 106.515, 848 106.571 C 843.251 107.537, 830.166 113.809, 826.136 117.052 C 817.603 123.919, 807.676 134.713, 808.329 136.416 C 809.556 139.613, 814.584 137.693, 817.637 132.860 C 818.422 131.618, 820.566 130.091, 829.500 124.414 C 832.182 122.709, 837.683 119.891, 839 119.547 C 839.275 119.475, 840.850 118.713, 842.500 117.854 C 847.002 115.511, 862.826 113.613, 871.981 114.319 C 881.090 115.021, 894 117.897, 894 119.223 C 894 119.715, 894.450 119.840, 895 119.500 C 895.550 119.160, 896 119.359, 896 119.941 C 896 120.523, 896.707 121, 897.572 121 C 899.907 121, 907.782 125.786, 913.810 130.868 C 922.719 138.380, 932.172 152.053, 933.434 159.250 C 934.819 167.154, 937.742 161.454, 936.517 153.237 C 934.614 140.463, 921.410 122.455, 908.500 115.027 C 905.750 113.445, 900.800 111.181, 897.500 109.998 C 894.200 108.814, 890.825 107.581, 890 107.259 C 889.175 106.937, 888.275 106.596, 888 106.503 C 887.725 106.409, 886.150 105.732, 884.500 104.998 C 880.858 103.378, 869.218 102.908, 858.863 103.964 M 645 143.620 C 643.625 143.875, 641.600 144.488, 640.500 144.982 C 639.400 145.477, 636.123 146.356, 633.217 146.937 C 619.223 149.734, 606.770 161.001, 598.678 178.188 C 596.665 182.463, 596.025 185.320, 596.100 189.688 C 596.278 200.094, 597.894 202.615, 599.505 195 C 599.912 193.075, 601.315 189.479, 602.623 187.008 C 603.930 184.537, 605 182.217, 605 181.853 C 605 179.699, 614.381 166.532, 618.091 163.479 C 620.516 161.483, 622.965 159.322, 623.534 158.675 C 624.102 158.029, 626.974 156.229, 629.917 154.676 C 639.409 149.665, 663.885 148.789, 670.960 153.207 C 672.032 153.876, 673.199 154.135, 673.553 153.781 C 674.236 153.098, 670.977 148.085, 669.815 148.031 C 669.438 148.014, 667.863 147.478, 666.315 146.840 C 664.767 146.201, 662.873 145.786, 662.106 145.916 C 661.340 146.047, 660.391 145.632, 659.997 144.995 C 659.236 143.764, 649.193 142.843, 645 143.620 M 958.225 164.655 C 955.008 165.349, 952.570 169.328, 953.872 171.760 C 954.795 173.486, 955.852 173.614, 965.769 173.206 C 981.066 172.576, 993.090 176.353, 1005.054 185.547 C 1009.907 189.277, 1018.489 198.480, 1018.506 199.973 C 1018.509 200.263, 1019.452 202.075, 1020.602 204 C 1021.752 205.925, 1023.242 210.080, 1023.914 213.233 C 1025.196 219.249, 1026.591 221.229, 1027.634 218.512 C 1028.392 216.535, 1026.374 200.190, 1025.178 198.627 C 1024.704 198.007, 1023.539 195.500, 1022.589 193.055 C 1018.906 183.585, 1004.864 170.949, 993.500 166.881 C 988.715 165.169, 984.767 164.676, 974 164.449 C 966.575 164.293, 959.476 164.386, 958.225 164.655 M 933.651 177.468 C 933.018 179.116, 934.492 180.432, 935.956 179.527 C 937.018 178.871, 936.239 176, 935 176 C 934.568 176, 933.960 176.661, 933.651 177.468 M 568.032 219.461 C 567.365 220.265, 565.848 221.224, 564.660 221.593 C 559.461 223.206, 545 241.633, 545 246.644 C 545 247.801, 544.305 250.718, 543.455 253.124 C 541.764 257.916, 542.264 264.144, 544.489 265.991 C 546.353 267.538, 546.825 266.402, 548.083 257.352 C 548.683 253.033, 549.640 248.938, 550.209 248.250 C 550.779 247.563, 550.975 247, 550.644 247 C 550.314 247, 551.384 244.887, 553.022 242.304 C 554.660 239.722, 556 237.110, 556 236.502 C 556 234.936, 565.911 225, 567.473 225 C 568.184 225, 569.003 224.097, 569.291 222.993 C 569.620 221.738, 570.974 220.755, 572.908 220.368 C 574.609 220.028, 576 219.356, 576 218.875 C 576 217.409, 569.328 217.900, 568.032 219.461 M 699.687 240.805 C 698.209 242.347, 697 244.535, 697 245.667 C 697 247.596, 694.648 251.214, 688.569 258.637 C 687.156 260.363, 685.990 262.163, 685.978 262.637 C 685.966 263.112, 683.001 265.300, 679.389 267.500 C 675.777 269.700, 670.862 272.763, 668.466 274.308 C 665.678 276.105, 661.661 277.499, 657.305 278.182 C 648.933 279.495, 633.416 278.642, 631.143 276.745 C 627.967 274.093, 625.475 275.602, 624.548 280.739 C 621.626 296.928, 613.431 310.284, 601.987 317.508 C 599.841 318.863, 597.676 320.765, 597.174 321.735 C 596.673 322.706, 596.031 328.258, 595.748 334.074 C 595.415 340.907, 594.668 345.741, 593.636 347.738 C 592.757 349.437, 591.741 353.354, 591.378 356.442 C 591.015 359.530, 590.324 362.300, 589.843 362.597 C 589.361 362.895, 589.218 363.544, 589.525 364.041 C 589.832 364.537, 589.347 366.068, 588.446 367.442 C 587.325 369.153, 586.384 374.609, 585.457 384.767 C 584.713 392.922, 583.631 400.840, 583.052 402.362 C 581.727 405.848, 581.690 410, 582.985 410 C 583.527 410, 586.114 408.704, 588.735 407.119 C 595.904 402.784, 599.077 402.104, 616.500 401.161 C 637.893 400.004, 664.605 401.853, 669.500 404.830 C 670.050 405.165, 671.513 405.307, 672.750 405.148 C 673.987 404.988, 675 405.339, 675 405.928 C 675 406.518, 675.911 407, 677.025 407 C 678.731 407, 686.996 410.915, 695.393 415.701 C 699.927 418.285, 709.990 429.407, 711.594 433.608 C 713.889 439.616, 716.973 441.505, 721.805 439.863 C 731.291 436.639, 754.982 439.334, 762.599 444.503 C 764.623 445.876, 766.633 447, 767.065 447 C 767.497 447, 771.498 443.338, 775.955 438.863 C 780.412 434.388, 784.333 430.999, 784.667 431.333 C 785.001 431.668, 786.450 431.127, 787.887 430.133 C 793.145 426.496, 803.908 424.256, 822.277 422.979 C 841.425 421.647, 870.002 424.861, 883 429.809 C 884.375 430.332, 885.725 430.738, 886 430.710 C 886.275 430.682, 888.300 431.773, 890.500 433.134 C 892.700 434.496, 897.077 436.850, 900.226 438.367 C 903.375 439.883, 906.815 442.221, 907.870 443.562 C 908.925 444.903, 910.286 446, 910.894 446 C 911.502 446, 912 446.623, 912 447.385 C 912 448.147, 913.145 449.521, 914.546 450.438 C 915.946 451.355, 917.606 453.319, 918.236 454.803 C 920.100 459.192, 923.140 462, 926.028 462 C 927.502 462, 934.511 462.866, 941.604 463.925 C 948.697 464.983, 958.146 466.149, 962.602 466.516 L 970.703 467.182 971.386 461.375 C 971.969 456.413, 971.774 455.200, 970.044 453.034 C 964.210 445.731, 962.721 442.037, 962.765 434.981 C 962.803 428.966, 963.665 424.328, 965.735 419 C 966.055 418.175, 966.236 417.131, 966.135 416.680 C 966.035 416.229, 967.314 413.844, 968.977 411.380 C 972.716 405.839, 972.773 403.617, 969.250 400.743 C 950.048 385.078, 942.715 364.763, 949.387 345.709 C 950.694 341.974, 952.532 338.070, 953.470 337.033 C 956.464 333.725, 955.085 331.526, 949.932 331.387 C 943.633 331.217, 932.401 328.262, 928.094 325.642 C 926.117 324.439, 923.219 322.803, 921.653 322.007 C 915.315 318.783, 900.127 298.717, 901.439 295.300 C 901.713 294.585, 901.501 294, 900.969 294 C 900.416 294, 900 290.160, 900 285.059 C 900 280.141, 899.611 275.878, 899.136 275.584 C 898.661 275.290, 896.523 275.894, 894.386 276.925 C 884.416 281.736, 880.159 282.501, 863.500 282.477 C 848.134 282.456, 847.243 282.342, 841.008 279.613 C 837.438 278.050, 833.304 275.810, 831.821 274.636 C 830.338 273.461, 827.072 270.985, 824.562 269.133 C 822.053 267.281, 820 265.130, 820 264.352 C 820 263.574, 819.340 262.684, 818.533 262.374 C 817.727 262.065, 815.455 258.929, 813.484 255.406 C 811.514 251.883, 809.669 249, 809.384 249 C 809.098 249, 806.310 251.082, 803.186 253.626 C 800.063 256.170, 796.831 258.493, 796.004 258.789 C 795.177 259.084, 793.150 260.263, 791.500 261.409 C 789.850 262.555, 788.383 263.372, 788.240 263.226 C 788.096 263.079, 786.746 263.587, 785.240 264.353 C 778.902 267.577, 768.563 269.406, 757 269.350 C 743.682 269.285, 737.236 267.715, 729 262.531 C 725.975 260.627, 721.850 258.164, 719.834 257.057 C 715.927 254.913, 713.536 252.019, 710.163 245.354 C 707.778 240.640, 705.428 238, 703.616 238 C 702.933 238, 701.165 239.262, 699.687 240.805 M 1024.241 240.986 C 1021.229 245.809, 1023.475 247.757, 1030.015 245.996 C 1034.804 244.706, 1042.298 245.980, 1047.500 248.967 C 1049.150 249.914, 1052.075 251.290, 1054 252.023 C 1058.824 253.862, 1066.687 260.176, 1071.638 266.188 C 1076.346 271.905, 1076.945 273.029, 1080.065 282 C 1081.309 285.575, 1082.739 289.040, 1083.243 289.699 C 1083.748 290.359, 1084.030 292.702, 1083.871 294.906 C 1083.712 297.111, 1083.901 299.234, 1084.291 299.624 C 1084.681 300.014, 1085 301.473, 1085 302.867 C 1085 304.773, 1085.284 305.116, 1086.148 304.252 C 1088.067 302.333, 1087.559 284.226, 1085.454 279.490 C 1084.479 277.295, 1083.601 275.275, 1083.504 275 C 1082.276 271.525, 1081.435 269.663, 1078.913 264.831 C 1075.935 259.127, 1070.961 253, 1069.307 253 C 1068.817 253, 1066.747 251.425, 1064.706 249.500 C 1062.665 247.575, 1060.379 246, 1059.625 246 C 1058.871 246, 1056.095 245.045, 1053.457 243.878 C 1049.572 242.159, 1047.353 241.849, 1041.792 242.247 C 1035.531 242.695, 1029.247 241.580, 1027.352 239.685 C 1026.251 238.584, 1025.561 238.873, 1024.241 240.986 M 1080 348.278 C 1080 349.054, 1080.889 350.495, 1081.976 351.479 C 1083.063 352.462, 1083.774 353.557, 1083.555 353.912 C 1082.943 354.902, 1086.769 359.564, 1087.552 358.782 C 1088.493 357.840, 1087.258 351.707, 1085.737 349.775 C 1083.961 347.517, 1080 346.484, 1080 348.278 M 645 361.133 C 636.516 362.519, 629.903 364.953, 625.318 368.377 C 620.537 371.946, 619 374.653, 619 379.500 C 619 384.221, 620.577 387.221, 624.133 389.261 C 627.832 391.384, 631.945 391.450, 638.409 389.489 C 648.372 386.467, 673 388.404, 673 392.211 C 673 392.773, 673.900 392.998, 674.999 392.711 C 676.098 392.423, 677.250 392.596, 677.558 393.094 C 678.319 394.326, 682.731 394.244, 683.510 392.984 C 683.856 392.425, 684.486 392.182, 684.911 392.445 C 685.901 393.057, 691.169 387.467, 693.576 383.250 C 695.383 380.085, 695.383 379.915, 693.576 376.750 C 688.368 367.625, 681.915 363.845, 667.615 361.544 C 657.098 359.851, 653.266 359.782, 645 361.133 M 1089.014 365.750 C 1089.030 371.511, 1089.915 375.170, 1091.114 374.430 C 1092.118 373.809, 1092.281 366.652, 1091.370 363.250 C 1090.332 359.377, 1088.999 360.790, 1089.014 365.750 M 824.583 378.750 C 824.171 379.163, 823.477 379.500, 823.043 379.500 C 821.404 379.500, 812.178 386.081, 810.783 388.245 C 808.548 391.711, 808.023 394.954, 809.227 397.857 C 809.830 399.311, 810.270 400.778, 810.205 401.118 C 810.141 401.458, 811.842 403.145, 813.985 404.868 L 817.883 408 834.521 408 C 849.727 408, 851.690 408.207, 857.329 410.409 C 860.723 411.735, 864.625 413.150, 866 413.556 C 867.375 413.961, 870.188 415.357, 872.250 416.659 C 874.313 417.960, 876 418.704, 876 418.313 C 876 417.921, 876.540 418.140, 877.200 418.800 C 881.632 423.232, 895.169 415.945, 896.592 408.362 C 897.965 401.042, 886.532 390.432, 873 386.469 C 866.332 384.516, 855.804 380.932, 853.345 379.776 C 852.160 379.220, 850.729 379.050, 850.164 379.398 C 849.600 379.747, 848.856 379.575, 848.510 379.016 C 847.785 377.843, 825.736 377.598, 824.583 378.750 M 621.376 424.086 C 619.657 424.584, 617.690 425.669, 617.003 426.496 C 616.317 427.323, 615.381 428, 614.923 428 C 614.465 428, 612.980 429.012, 611.622 430.250 C 610.264 431.488, 607.797 433.738, 606.140 435.250 C 604.483 436.762, 602.761 438.014, 602.314 438.031 C 601.866 438.048, 600.067 439.966, 598.315 442.294 C 596.563 444.622, 593.317 448.491, 591.100 450.891 C 586.706 455.651, 584.492 460.823, 585.495 463.984 C 586.839 468.220, 590.939 465.446, 597.664 455.750 C 599.095 453.688, 600.756 452, 601.355 452 C 601.955 452, 605.421 448.962, 609.059 445.250 C 612.696 441.538, 618.048 436.700, 620.952 434.500 C 629.972 427.667, 631.353 426.130, 629.969 424.463 C 628.621 422.838, 626.066 422.726, 621.376 424.086 M 549.571 441.319 C 548.178 443.144, 546.349 446.593, 545.506 448.982 C 544.663 451.372, 543.515 453.880, 542.954 454.555 C 539.832 458.317, 540.105 487.324, 543.349 496.610 C 544.097 498.749, 545.011 502.142, 545.381 504.150 C 545.750 506.157, 546.739 508.368, 547.577 509.064 C 550.002 511.077, 551.476 508.535, 553.413 499 C 554.363 494.325, 555.837 487.575, 556.689 484 C 561.073 465.610, 561.954 461.148, 561.976 457.250 C 561.989 454.913, 562.337 453, 562.750 453.001 C 564.669 453.003, 563.136 444.868, 560.589 441.528 C 556.958 436.767, 553.098 436.694, 549.571 441.319 M 820.048 448.171 C 818.150 448.716, 815.303 450.250, 813.722 451.581 C 812.140 452.911, 810.192 454, 809.392 454 C 808.592 454, 807.656 454.734, 807.312 455.630 C 806.504 457.736, 800.018 463.783, 797.750 464.546 C 796.788 464.870, 796 465.779, 796 466.567 C 796 467.355, 795.311 468, 794.469 468 C 793.626 468, 792.661 468.788, 792.324 469.750 C 791.986 470.712, 790.865 472.400, 789.832 473.500 C 784.765 478.898, 781.922 483.534, 782.203 485.939 C 782.716 490.332, 785.666 489.609, 791.808 483.586 C 802.959 472.650, 809.007 467, 809.560 467 C 809.869 467, 813.807 463.802, 818.311 459.893 C 822.815 455.984, 827.513 452.395, 828.750 451.917 C 830.057 451.413, 831 450.201, 831 449.025 C 831 447.336, 830.378 447.015, 827.250 447.090 C 825.188 447.140, 821.947 447.626, 820.048 448.171 M 728.785 463.946 C 718.272 465.385, 716.292 466.933, 716.836 473.284 C 716.920 474.265, 715.866 477.830, 714.494 481.206 C 713.122 484.583, 712 487.860, 712 488.489 C 712 489.119, 710.692 492.191, 709.094 495.317 C 707.495 498.443, 706.449 501, 706.768 501 C 707.087 501, 706.413 502.012, 705.270 503.250 C 704.127 504.488, 702.517 507.140, 701.691 509.144 C 699.468 514.543, 685.765 527.717, 681.053 528.986 C 678.952 529.551, 676.675 530.686, 675.994 531.507 C 675.313 532.328, 674.390 533, 673.943 533 C 673.496 533, 671.863 533.525, 670.315 534.166 C 668.767 534.808, 667.275 535.386, 667 535.452 C 666.725 535.517, 665.375 536.230, 664 537.035 C 660.521 539.074, 626.929 539.083, 622.500 537.047 C 620.850 536.288, 619.200 535.630, 618.833 535.584 C 618.467 535.538, 617.829 535.163, 617.417 534.750 C 617.004 534.337, 615.909 534, 614.982 534 C 614.056 534, 611.182 532.875, 608.596 531.500 C 606.010 530.125, 603.402 529, 602.801 529 C 600.893 529, 591.681 522.380, 586.615 517.369 C 583.928 514.711, 580.924 510.657, 579.940 508.359 C 578.023 503.887, 574.434 501.752, 572.853 504.143 C 572.203 505.126, 572.261 535.778, 572.917 537.750 C 572.963 537.888, 573.538 538, 574.195 538 C 574.853 538, 576.653 539.209, 578.195 540.687 C 580.715 543.101, 581 544.047, 581 549.987 C 581 556.998, 582.003 559, 585.513 559 C 587.702 559, 591.922 562.877, 593.878 566.684 C 594.495 567.886, 595 570.937, 595 573.466 C 595 578.626, 596.566 579.975, 600.483 578.190 C 602.074 577.465, 603.977 577.431, 606.348 578.086 C 609.378 578.922, 610.080 579.723, 611.484 583.950 C 613.497 590.013, 614.405 590.782, 620.020 591.181 C 623.986 591.463, 624.664 591.873, 625.930 594.750 C 626.919 596.996, 628.039 598, 629.558 598 C 632.525 598, 633.783 596.241, 634.598 590.950 C 635.657 584.074, 639.390 577.199, 647.208 567.723 C 654.137 559.325, 672.971 550, 683.003 550 C 688.050 550, 689.344 549.094, 690.355 544.855 C 690.771 543.108, 692.347 541.500, 694.994 540.120 L 699.002 538.031 704.751 541.079 C 710.508 544.132, 715.981 547.768, 719.191 550.673 C 721.908 553.131, 732.747 553.580, 739.338 551.507 C 746.252 549.332, 750.862 550.062, 755.403 554.049 C 758.206 556.510, 759.630 557, 763.978 557 C 769.128 557, 773.518 558.721, 777.062 562.128 C 777.994 563.023, 781.664 564.723, 785.218 565.906 C 789.262 567.252, 792.769 569.217, 794.590 571.157 C 796.191 572.862, 799.214 575.520, 801.310 577.064 C 810.148 583.573, 817.146 596.633, 817.687 607.630 C 817.972 613.418, 818.582 615.709, 820.700 618.944 C 822.160 621.175, 823.691 623, 824.101 623 C 824.511 623, 826.196 621.650, 827.846 620 C 830.292 617.554, 831.679 617, 835.352 617 C 839.919 617, 843 618.818, 843 621.512 C 843 622.266, 843.412 623.137, 843.916 623.448 C 845.303 624.305, 850.206 622.151, 851.690 620.032 C 853.650 617.234, 858.303 616.575, 862.394 618.517 C 866.340 620.389, 869.614 619.791, 870.488 617.037 C 871.317 614.425, 879.419 608, 881.883 608 C 883.008 608, 885.858 609.316, 888.215 610.925 C 892.155 613.615, 892.641 613.723, 894.250 612.270 C 895.212 611.401, 896 609.716, 896 608.525 C 896 607.334, 897.350 604.848, 899 603 C 900.650 601.152, 902 599.315, 902 598.919 C 902 597.691, 908.993 594, 911.307 594.006 C 912.513 594.010, 914.784 594.682, 916.354 595.501 C 919.534 597.159, 921 596.737, 921 594.163 C 921 591.155, 927.840 578, 929.404 578 C 930.220 578, 931.544 577.062, 932.346 575.916 C 933.305 574.548, 934.651 573.942, 936.264 574.154 C 940.791 574.747, 944.116 569.786, 946.085 559.500 C 946.818 555.673, 947.945 553.650, 950.888 550.878 C 953.002 548.886, 955.248 547.084, 955.878 546.874 C 956.507 546.664, 958.257 542.677, 959.765 538.014 C 962.017 531.052, 963.075 529.176, 965.680 527.518 C 968.244 525.888, 968.746 525.020, 968.297 523 C 967.992 521.625, 967.350 520.072, 966.871 519.550 C 965.734 518.310, 965.741 507.681, 966.879 506.450 C 967.362 505.928, 968.052 502.748, 968.413 499.386 C 969.057 493.376, 969.021 493.253, 966.284 492.194 C 961.707 490.424, 927.388 487.425, 924.003 488.499 C 922.511 488.973, 922 490.011, 922 492.571 C 922 494.461, 921.100 497.686, 920 499.739 C 918.900 501.791, 917.998 504.152, 917.996 504.985 C 917.994 505.818, 917.074 508.007, 915.951 509.849 C 914.828 511.691, 913.202 515.291, 912.339 517.849 C 907.854 531.132, 887.635 551.856, 876.500 554.582 C 874.850 554.986, 872.565 555.921, 871.422 556.660 C 870.280 557.399, 866.680 558.474, 863.422 559.048 C 860.165 559.622, 856.825 560.369, 856 560.709 C 855.175 561.049, 854.275 561.404, 854 561.497 C 853.725 561.591, 852.150 562.239, 850.500 562.938 C 847.081 564.386, 828.493 563.654, 826.491 561.993 C 825.845 561.456, 825.031 561.303, 824.682 561.651 C 824.334 562, 823.458 561.795, 822.736 561.195 C 822.013 560.596, 818.297 559.607, 814.478 558.996 C 810.658 558.386, 806.850 557.291, 806.016 556.562 C 805.182 555.833, 803.375 554.907, 802 554.504 C 798.987 553.622, 792.786 550.016, 791.765 548.553 C 791.342 547.947, 791.024 547.913, 791.015 548.473 C 791.007 549.007, 790.280 548.416, 789.399 547.159 C 788.519 545.902, 786.735 544.469, 785.434 543.975 C 784.134 543.481, 780.492 539.572, 777.341 535.288 C 774.190 531.005, 771.249 527.350, 770.806 527.167 C 770.363 526.983, 770 526.153, 770 525.321 C 770 524.489, 769.140 522.601, 768.089 521.125 C 766.384 518.731, 764.918 514.396, 761.957 503 C 761.457 501.075, 761.037 493.399, 761.024 485.941 C 761.008 476.654, 760.606 471.874, 759.750 470.768 C 758.185 468.749, 744.886 464.159, 738.948 463.590 C 736.502 463.355, 731.928 463.516, 728.785 463.946 M 1023.870 492.877 C 1020.206 493.653, 1010.447 499.552, 1008.051 502.438 C 1007.338 503.297, 1006.135 504, 1005.378 504 C 1004.620 504, 1004 504.597, 1004 505.326 C 1004 506.055, 1002.875 507.708, 1001.500 509 C 1000.125 510.292, 999 511.839, 999 512.439 C 999 514.813, 994.697 521.674, 991.279 524.750 C 988.441 527.304, 987.723 528.643, 987.929 531 C 988.311 535.385, 988.243 542.893, 987.693 557 C 987.200 569.611, 984.529 580.325, 980.746 584.855 C 979.991 585.760, 979.441 586.950, 979.523 587.500 C 979.856 589.724, 981.281 592.002, 982.357 592.031 C 982.986 592.048, 985.750 593.169, 988.500 594.522 C 994.663 597.554, 1007.698 598.012, 1013.782 595.410 C 1015.827 594.536, 1019.344 593.251, 1021.599 592.554 C 1027.932 590.596, 1036.290 583.800, 1044.510 573.923 C 1048.630 568.974, 1052 564.422, 1052 563.809 C 1052 563.195, 1053.212 560.175, 1054.694 557.096 C 1056.176 554.018, 1057.268 550.686, 1057.121 549.690 C 1056.974 548.695, 1057.278 547.345, 1057.796 546.690 C 1061.123 542.486, 1061.834 524.125, 1058.926 517.500 C 1058.202 515.850, 1057.542 514.050, 1057.461 513.500 C 1056.575 507.541, 1049.161 497.952, 1042.722 494.436 C 1039.445 492.647, 1029.025 491.786, 1023.870 492.877 M 672.409 587.500 C 671.034 588.875, 669.555 590, 669.122 590 C 667.590 590, 662.244 597.612, 661.547 600.786 C 661.158 602.556, 661.162 608.543, 661.555 614.089 C 662.437 626.533, 663.174 627.450, 673.027 628.366 C 677.010 628.736, 683.174 630.281, 687.462 631.985 C 695.503 635.179, 697.356 635.089, 700.564 631.344 C 703.565 627.840, 708.867 627.273, 714.251 629.880 C 716.752 631.090, 720.589 632, 723.194 632 C 729.187 632, 734.330 634.235, 735.809 637.481 C 736.464 638.918, 737 643.687, 737 648.078 C 737 657.266, 737.864 658.242, 743.593 655.523 C 747.988 653.437, 750.724 654.041, 754.553 657.942 C 756.174 659.593, 758.272 660.957, 759.215 660.972 C 760.158 660.987, 762.924 658.919, 765.361 656.376 C 767.797 653.833, 770.257 652.041, 770.826 652.393 C 771.396 652.745, 772.144 652.575, 772.490 652.016 C 772.835 651.457, 774.590 651, 776.389 651 C 779.112 651, 780.193 650.259, 782.830 646.587 C 784.574 644.159, 786 641.656, 786 641.025 C 786 640.393, 787.179 637.384, 788.620 634.338 C 790.952 629.408, 791.191 627.904, 790.789 620.650 C 790.395 613.526, 789.936 611.910, 787.144 607.818 C 779.192 596.160, 773.041 594.846, 773.340 604.868 C 773.495 610.051, 773.350 610.360, 769 614.139 C 766.525 616.289, 763.375 618.286, 762 618.576 C 760.625 618.866, 757.025 620.092, 754 621.302 C 749.053 623.279, 746.742 623.496, 731 623.464 C 715.597 623.433, 712.601 623.151, 706 621.114 C 697.413 618.464, 689.387 613.830, 683.250 607.979 C 679.490 604.395, 679 603.413, 679 599.464 C 679 596.989, 679.472 595, 680.059 595 C 680.641 595, 680.870 594.598, 680.566 594.107 C 680.262 593.615, 681.136 592.932, 682.507 592.588 C 685.107 591.935, 685.980 590, 683.674 590 C 682.945 590, 681.292 588.875, 680 587.500 C 678.708 586.125, 677.034 585, 676.280 585 C 675.526 585, 673.784 586.125, 672.409 587.500 M 691.441 588.065 C 689.574 590.128, 690.270 592, 692.904 592 C 693.886 592, 695.462 592.853, 696.405 593.895 C 698.608 596.329, 709.386 602.995, 711.151 603.015 C 711.893 603.023, 714.300 603.679, 716.500 604.471 C 721.316 606.206, 733.775 606.440, 737.685 604.869 C 739.233 604.247, 743.092 603.652, 746.259 603.547 C 750.873 603.395, 752.563 602.853, 754.759 600.825 C 756.267 599.432, 758.288 598.016, 759.250 597.678 C 761.417 596.916, 761.523 595.138, 759.449 594.342 C 758.558 594, 756.873 594.710, 755.489 596.011 C 753.579 597.804, 752.342 598.155, 749.529 597.698 C 747.577 597.382, 745.251 596.394, 744.361 595.504 C 743.015 594.158, 741.418 594.001, 734.898 594.569 C 727.082 595.251, 727.039 595.242, 723.382 592.031 C 720.385 589.399, 719.154 588.919, 716.671 589.416 C 714.999 589.750, 712.891 590.693, 711.987 591.512 C 709.779 593.510, 705.006 593.393, 701.973 591.266 C 700.613 590.313, 698.055 588.795, 696.289 587.894 C 693.273 586.355, 692.979 586.365, 691.441 588.065 M 214.500 675.965 C 207.218 679.409, 201 687.829, 201 694.245 C 201 695.316, 201.708 698.629, 202.574 701.607 C 203.853 706.005, 205.006 707.677, 208.718 710.511 C 212.971 713.758, 213.792 714, 220.566 714 C 227.242 714, 228.195 713.731, 232.079 710.750 C 239.294 705.213, 240.500 702.869, 240.500 694.386 C 240.500 688.844, 240.115 686.683, 239 685.979 C 238.175 685.457, 237.768 685.024, 238.095 685.015 C 238.423 685.007, 236.954 683.174, 234.831 680.943 C 228.263 674.039, 221.878 672.475, 214.500 675.965 M 269.583 677.750 C 269.171 678.163, 268.468 678.500, 268.022 678.500 C 267.576 678.500, 265.171 680.357, 262.678 682.626 C 256.877 687.905, 255.199 693.191, 257.004 700.500 C 258.415 706.216, 261.762 710.289, 267.445 713.211 C 272.772 715.950, 280.760 715.222, 285.058 711.605 C 296.772 701.748, 297.751 692.077, 287.930 683.247 C 285.026 680.636, 282.316 678.500, 281.908 678.500 C 281.500 678.500, 280.829 678.163, 280.417 677.750 C 280.004 677.337, 277.567 677, 275 677 C 272.433 677, 269.996 677.337, 269.583 677.750 M 325 677.906 C 325 678.405, 324.198 678.603, 323.218 678.347 C 322.022 678.034, 319.428 679.838, 315.340 683.826 C 310.403 688.642, 309.159 690.505, 308.790 693.636 C 307.345 705.888, 315.738 715, 328.467 715 C 334.491 715, 337.687 713.828, 339.807 710.841 C 340.525 709.829, 341.690 709, 342.394 709 C 343.099 709, 344.504 706.562, 345.517 703.582 C 347.176 698.700, 347.224 697.601, 345.995 692.480 C 345.245 689.354, 344.042 686.570, 343.322 686.293 C 342.601 686.017, 342.260 685.388, 342.565 684.895 C 342.869 684.403, 342.529 683.982, 341.809 683.959 C 341.089 683.937, 338.964 682.606, 337.087 681.001 C 335.211 679.396, 333.329 678.297, 332.907 678.558 C 332.484 678.819, 331.856 678.575, 331.510 678.016 C 330.732 676.757, 325 676.660, 325 677.906 M 882.190 703.067 C 881.481 704.203, 880.366 704.955, 879.714 704.738 C 879.062 704.521, 876.522 705.616, 874.069 707.171 C 871.616 708.727, 869.222 710, 868.749 710 C 868.277 710, 865.891 710.911, 863.447 712.024 C 861.003 713.137, 855.359 714.564, 850.904 715.194 C 846.449 715.824, 842.273 716.870, 841.624 717.519 C 840.975 718.167, 838.657 719.284, 836.472 720.001 C 834.288 720.717, 831.600 721.859, 830.500 722.538 C 829.400 723.217, 824 724.038, 818.500 724.362 C 812.396 724.722, 806.357 725.727, 803 726.943 C 798.502 728.572, 794.915 728.941, 783.309 728.967 C 774.964 728.987, 768.863 729.412, 768.500 730 C 768.160 730.550, 763.885 731, 759 731 C 754.115 731, 749.840 730.550, 749.500 730 C 749.160 729.450, 745.744 729, 741.909 729 C 738.074 729, 733.422 728.368, 731.573 727.595 C 726.486 725.469, 726 726.636, 726 740.977 C 726 755.124, 726.798 757.366, 732.251 758.543 C 734.038 758.929, 737.300 760.159, 739.500 761.277 C 743.110 763.111, 745.351 763.307, 762.500 763.287 C 772.950 763.275, 783.525 762.802, 786 762.235 C 788.475 761.669, 794.100 760.438, 798.500 759.500 C 802.900 758.562, 807.850 756.990, 809.500 756.005 C 811.150 755.021, 814.075 753.887, 816 753.485 C 817.925 753.083, 821.521 751.685, 823.992 750.377 C 826.463 749.070, 828.855 748, 829.309 748 C 829.762 748, 831.678 746.822, 833.567 745.381 C 835.455 743.941, 837 743.094, 837 743.500 C 837 743.906, 838.462 743.137, 840.250 741.791 C 842.038 740.445, 844.962 738.592, 846.750 737.672 C 848.538 736.753, 851.339 735.298, 852.975 734.439 C 854.612 733.581, 856.814 731.781, 857.869 730.439 C 858.924 729.098, 860.103 728, 860.487 728 C 860.872 728, 865.250 724.288, 870.216 719.750 C 878.724 711.976, 885 704.471, 885 702.070 C 885 700.337, 883.580 700.841, 882.190 703.067 M 233.901 776.164 C 232.472 776.660, 230.818 778.063, 230.226 779.283 C 229.166 781.465, 226.968 841.092, 226.989 867.083 C 226.995 874.004, 226.706 879.961, 226.346 880.321 C 225.987 880.680, 225.692 882.786, 225.692 885 C 225.692 887.214, 225.987 889.320, 226.346 889.679 C 227.159 890.492, 227.213 897.454, 226.413 898.254 C 226.090 898.577, 225.883 906.714, 225.953 916.337 C 226.034 927.506, 225.704 934.065, 225.040 934.475 C 224.468 934.829, 224 936.891, 224 939.059 C 224 944.327, 226.846 944.408, 230.699 939.250 C 233.925 934.931, 235.098 933.850, 240.250 930.450 C 242.313 929.089, 244 927.231, 244 926.321 C 244 925.411, 244.243 924.910, 244.540 925.207 C 245.083 925.750, 246.636 924.439, 257.294 914.437 C 260.481 911.447, 263.406 908.996, 263.794 908.991 C 264.182 908.986, 267.222 906.399, 270.548 903.241 C 273.875 900.084, 278.600 895.839, 281.048 893.810 C 283.497 891.780, 290.113 886.259, 295.750 881.540 C 301.387 876.820, 306 873.233, 306 873.568 C 306 873.904, 307.363 873.031, 309.029 871.629 C 310.696 870.227, 313.591 868.792, 315.464 868.441 C 322.912 867.043, 324.725 868.451, 356.267 900.116 C 381.444 925.391, 386.476 930, 388.895 930 C 390.468 930, 392.291 929.355, 392.945 928.566 C 394.998 926.092, 409.613 915.258, 411.858 914.545 C 413.036 914.171, 414 913.282, 414 912.569 C 414 911.855, 415.913 909.976, 418.250 908.392 C 420.587 906.807, 425.466 903.034, 429.090 900.005 C 432.715 896.977, 436.990 893.482, 438.590 892.238 C 440.191 890.994, 443.459 888.403, 445.853 886.481 C 448.247 884.559, 451.324 882.706, 452.692 882.363 C 455.621 881.627, 462.684 883.734, 463.381 885.551 C 463.648 886.248, 467.080 888.895, 471.006 891.435 C 474.932 893.975, 479.861 897.641, 481.958 899.582 C 484.056 901.522, 488.411 904.827, 491.636 906.926 C 497.217 910.559, 502.144 915.139, 515.372 928.991 C 521.077 934.965, 521.230 935.268, 520.738 939.632 C 520.138 944.956, 516.827 949.002, 513.076 948.996 C 509.302 948.991, 505.636 946.410, 494.480 935.910 C 488.982 930.734, 482.730 925.150, 480.586 923.500 C 478.442 921.850, 475.455 919.487, 473.949 918.250 C 472.443 917.013, 470.700 916, 470.074 916 C 469.449 916, 468.636 915.212, 468.269 914.250 C 466.879 910.613, 457.744 902.994, 454.785 903.005 C 454.078 903.007, 451.908 904.470, 449.963 906.255 C 441.541 913.982, 434.273 920, 433.362 920 C 432.821 920, 430.606 921.560, 428.439 923.467 C 426.273 925.374, 419.662 930.816, 413.750 935.560 C 402.636 944.478, 401.134 946.840, 405.054 949.242 C 407.793 950.919, 429.567 976.954, 430.360 979.500 C 430.703 980.600, 432.573 982.766, 434.516 984.312 L 438.049 987.125 494.775 988.158 C 525.974 988.727, 552.175 989.424, 553 989.708 C 555.177 990.457, 561.914 990.420, 562.679 989.654 C 563.507 988.827, 603.454 988.970, 615.675 989.844 C 624.465 990.473, 627.427 989.961, 629.235 987.500 C 629.639 986.950, 629.976 980.023, 629.985 972.108 L 630 957.715 616.750 944.371 C 609.462 937.031, 603.121 931.020, 602.658 931.013 C 601.791 931, 598.509 928.628, 592.463 923.646 C 587.437 919.505, 587.688 915.796, 593.410 909.652 C 597.244 905.534, 598.189 905.001, 600.660 905.563 C 602.222 905.919, 605.451 908.188, 607.837 910.605 C 610.222 913.022, 612.709 915, 613.364 915 C 615.153 915, 619.769 920.664, 623.514 927.457 C 627.118 933.991, 629.632 935.583, 630.402 931.816 C 630.662 930.542, 631.117 913.075, 631.412 893 C 631.977 854.536, 632.519 832.961, 633.587 806.323 L 634.236 790.145 631.813 787.722 L 629.390 785.299 597.959 784.563 C 580.673 784.158, 566.138 783.585, 565.661 783.291 C 565.184 782.996, 560.045 782.836, 554.242 782.935 C 548.115 783.041, 543.432 782.699, 543.075 782.121 C 542.681 781.483, 505.863 780.736, 440.480 780.039 C 384.391 779.441, 330.400 778.497, 320.500 777.942 C 310.600 777.387, 289.900 776.711, 274.500 776.441 C 259.100 776.170, 244.250 775.794, 241.500 775.605 C 238.750 775.416, 235.331 775.667, 233.901 776.164 M 537.500 803.888 C 527.303 805.779, 515.757 814.373, 508.277 825.638 C 499.854 838.324, 502.582 862.837, 513.709 874.449 C 519.105 880.080, 529.691 887.333, 531.501 886.638 C 532.254 886.349, 533.050 886.650, 533.268 887.306 C 533.747 888.742, 549.441 888.979, 552.500 887.596 C 553.600 887.099, 555.282 886.789, 556.239 886.907 C 560.593 887.445, 577.969 872.618, 580.741 866 C 581.547 864.075, 583.129 860.475, 584.256 858 C 585.896 854.398, 586.284 851.595, 586.204 843.951 C 586.105 834.605, 585.737 833, 582.112 826.126 C 579.081 820.379, 568.605 810.643, 561.816 807.264 C 554.972 803.859, 545.072 802.484, 537.500 803.888 M 540.500 824.655 C 539.400 824.888, 537.509 825.289, 536.298 825.546 C 531.327 826.603, 524.329 835.636, 524.907 840.250 C 525.027 841.212, 524.647 842, 524.063 842 C 522.662 842, 522.684 849.687, 524.087 850.554 C 524.685 850.923, 524.952 852.075, 524.681 853.113 C 524.409 854.151, 524.595 855, 525.094 855 C 525.592 855, 526 855.875, 526 856.945 C 526 859.135, 534.751 867.145, 538.242 868.150 C 539.484 868.508, 542.750 868.837, 545.500 868.882 C 553.872 869.019, 563.280 861.133, 566.504 851.278 C 568.087 846.439, 568.088 845.782, 566.527 841.082 C 564.345 834.513, 557.092 826.397, 552.183 825.034 C 548.484 824.007, 544.220 823.868, 540.500 824.655 M 310.930 892.703 C 308.493 894.740, 302 900.491, 296.500 905.484 C 283.764 917.045, 268.960 929.541, 262.353 934.306 C 259.523 936.348, 256.945 938.700, 256.626 939.533 C 256.306 940.366, 255.169 941.375, 254.099 941.774 C 251.928 942.584, 239.755 953.368, 230.807 962.408 C 224.744 968.534, 222.987 972.074, 224.880 974.355 C 225.486 975.086, 225.759 975.908, 225.485 976.181 C 225.212 976.455, 225.936 977.539, 227.095 978.589 C 229.999 981.222, 244.901 981.958, 333 983.824 C 360.225 984.400, 389.137 985.092, 397.250 985.361 C 408.909 985.747, 412 985.578, 412 984.554 C 412 983.842, 409.169 980.613, 405.709 977.379 C 400.311 972.336, 387.584 958.773, 372.527 942.020 C 370.312 939.555, 357.680 926.618, 344.455 913.270 C 325.695 894.335, 319.854 889, 317.885 889 C 316.437 889, 313.470 890.580, 310.930 892.703 M 128 941.593 C 119.039 944.924, 114.229 949.095, 111.650 955.770 C 109.417 961.549, 109.562 964.021, 112.552 971.123 C 114.871 976.634, 115.004 977.665, 114.008 982.461 C 113.406 985.363, 112.272 988.584, 111.488 989.618 C 110.705 990.653, 110.049 992.288, 110.032 993.250 C 110.014 994.212, 109.594 995, 109.098 995 C 107.781 995, 106 1000.725, 106 1004.961 C 106 1007.088, 106.749 1009.436, 107.787 1010.561 C 111.796 1014.910, 113.204 1022.007, 111.110 1027.315 C 110.500 1028.863, 110 1031.188, 110 1032.482 C 110 1033.775, 109.438 1035.096, 108.750 1035.417 C 107.750 1035.883, 107.750 1036.117, 108.750 1036.583 C 109.438 1036.904, 110 1038.875, 110 1040.963 C 110 1043.955, 110.973 1046.003, 114.594 1050.630 C 119.570 1056.988, 119.579 1057.060, 117.375 1071.156 C 116.856 1074.477, 117.201 1075.200, 121.152 1079.055 C 129.950 1087.643, 136.241 1089.471, 138.292 1084.036 C 139.488 1080.869, 139.715 1080.756, 153.229 1076.584 C 161.126 1074.146, 162.115 1073.561, 163.593 1070.445 C 167.115 1063.023, 162.382 1052.601, 154.273 1049.925 C 151.782 1049.103, 147.960 1048.967, 142.073 1049.490 C 128.781 1050.671, 127.886 1050.569, 125.314 1047.578 C 123.682 1045.681, 123 1043.638, 123 1040.647 C 123 1037.017, 123.576 1035.843, 127 1032.500 C 129.200 1030.352, 131 1028.980, 131 1029.452 C 131 1029.924, 131.946 1029.453, 133.103 1028.405 C 134.911 1026.767, 137.292 1026.430, 150.069 1026 C 167.722 1025.406, 167.985 1025.263, 168.688 1015.858 C 169.111 1010.202, 168.868 1009.053, 166.485 1005.446 C 165.012 1003.216, 163.006 1000.966, 162.028 1000.446 C 161.050 999.925, 158.731 998.626, 156.875 997.558 C 154.167 996, 150.833 995.506, 140 995.058 C 128.009 994.562, 126.138 994.242, 123.263 992.191 C 115.120 986.383, 118.945 975.865, 130.193 973.138 C 136.158 971.691, 142.608 971.694, 150.487 973.146 C 153.906 973.776, 157.805 974.015, 159.150 973.677 C 162.012 972.959, 166 966.494, 166 962.574 C 166 956.299, 158.947 947.621, 151 944.120 C 146.519 942.145, 131.077 940.449, 128 941.593 M 647.667 994.667 C 647.300 995.033, 647 996.196, 647 997.250 C 647 999.843, 649.415 998.920, 649.820 996.172 C 650.129 994.069, 649.031 993.302, 647.667 994.667 M 222.431 1037.918 C 214.609 1041.420, 212.870 1048.091, 218.238 1054 L 221.418 1057.500 255.959 1058.184 C 274.957 1058.561, 303.954 1059.333, 320.398 1059.901 C 336.842 1060.468, 376.217 1061.201, 407.898 1061.529 C 439.579 1061.857, 479.011 1062.772, 495.523 1063.563 C 536.892 1065.543, 546.406 1065.452, 551.750 1063.027 C 555.896 1061.145, 556 1060.980, 556 1056.271 C 556 1050.504, 554.149 1047.508, 549.747 1046.154 C 547.961 1045.604, 529.175 1044.856, 508 1044.492 C 486.825 1044.127, 469.073 1043.418, 468.550 1042.915 C 467.275 1041.687, 462.274 1041.748, 461.500 1043 C 460.668 1044.345, 447.294 1044.284, 446.458 1042.931 C 446.094 1042.343, 443.681 1041.975, 441.096 1042.112 C 438.510 1042.249, 435.919 1042.068, 435.339 1041.709 C 434.758 1041.351, 402.157 1040.599, 362.892 1040.039 C 323.626 1039.478, 282.275 1038.578, 271 1038.037 C 227.799 1035.965, 226.799 1035.963, 222.431 1037.918 M 220.011 1074.590 C 214.692 1077.630, 214.035 1078.509, 214.015 1082.615 C 213.996 1086.628, 217.093 1090.513, 222.337 1093.056 C 225.987 1094.825, 228.326 1095.057, 241.319 1094.939 C 249.469 1094.865, 256.407 1095.073, 256.735 1095.402 C 257.520 1096.187, 264.490 1096.176, 265.278 1095.389 C 266.006 1094.660, 278.467 1094.561, 279.666 1095.274 C 280.628 1095.847, 359.611 1097.825, 447.087 1099.466 L 476.673 1100.021 480.087 1097.727 C 483.026 1095.752, 483.533 1094.814, 483.737 1090.967 C 483.930 1087.334, 483.464 1085.911, 481.237 1083.345 L 478.500 1080.189 417.747 1079.084 C 384.333 1078.475, 354.858 1077.551, 352.247 1077.029 C 349.636 1076.507, 326.125 1075.590, 300 1074.991 C 273.875 1074.392, 247.775 1073.494, 242 1072.995 C 226.502 1071.655, 224.948 1071.768, 220.011 1074.590" stroke="none" fill="#171916" fill-rule="evenodd"/>
</svg>