<svg role="img" aria-labelledby="artwork-title" shape-rendering="geometricPrecision" xmlns="http://www.w3.org/2000/svg" width="1200" height="1200" viewBox="0 0 1200 1200" version="1.1">
	<title id="artwork-title">Mascot standing beside a portfolio webpage</title>
	<path d="M 954 300 C 954 300.550, 952.763 301.014, 951.250 301.032 C 949.737 301.049, 947.626 301.724, 946.559 302.532 C 945.491 303.339, 943.871 304, 942.959 304 C 942.047 304, 939.436 305.350, 937.159 307 C 934.881 308.650, 932.532 310, 931.939 310 C 931.346 310, 928.967 308.697, 926.652 307.105 C 918.162 301.264, 905.088 299.413, 894.688 302.580 C 882.695 306.232, 876.929 310.517, 870.512 320.548 C 868.594 323.547, 866.778 326, 866.477 326 C 866.176 326, 864.752 325.229, 863.313 324.286 C 853.799 318.052, 830.711 329.663, 824.265 343.924 C 823.376 345.891, 822.390 350.422, 822.074 353.994 C 821.537 360.072, 821.327 360.521, 818.802 360.994 C 808.400 362.944, 797 378.853, 797 391.419 C 797 395.022, 799.982 405.315, 801.451 406.785 C 801.744 407.077, 801.572 407.811, 801.070 408.416 C 797.497 412.720, 795.695 429.057, 798.285 433.657 C 798.953 434.844, 801.355 437.847, 803.622 440.331 L 807.744 444.847 807.253 451.706 C 806.846 457.397, 807.123 459.237, 808.881 462.517 C 811.668 467.717, 811.607 468.187, 807.443 473.642 C 800.201 483.130, 799.529 485.243, 799.514 498.566 C 799.498 512.049, 800.727 515.817, 807.858 524.147 C 811.238 528.096, 811.381 528.574, 811.154 535.172 C 810.924 541.874, 812.879 549.567, 816.702 557 C 817.409 558.375, 817.990 560.403, 817.994 561.507 C 817.997 562.610, 820.036 565.760, 822.525 568.507 C 825.014 571.253, 827.746 574.923, 828.597 576.662 C 830.280 580.101, 835.016 585.349, 841.877 591.378 C 846.320 595.282, 846.270 596.946, 841.709 596.985 C 840.724 596.993, 836.449 598.745, 832.209 600.878 C 811.579 611.255, 808.972 612.918, 789.223 628.290 C 784.425 632.024, 779.379 635.629, 778.008 636.300 C 775.457 637.548, 771.029 645.110, 771.010 648.250 C 770.990 651.655, 766.853 650.069, 758.500 643.454 C 756.300 641.712, 753.547 639.986, 752.382 639.618 C 751.217 639.250, 749.432 638.029, 748.415 636.906 C 746.638 634.943, 746.561 630.010, 746.456 511.181 C 746.334 372.704, 746.792 381.444, 739.111 371.148 C 732.242 361.942, 722.773 355.839, 712.579 354.046 C 708.566 353.340, 611.972 353, 412.823 352.992 C 84.427 352.977, 110.976 352.376, 99.090 360.099 C 89.786 366.144, 83.807 375.434, 82.402 386.026 C 82.036 388.786, 81.346 391.286, 80.868 391.581 C 79.575 392.381, 79.819 398.419, 81.200 399.800 C 82.133 400.733, 82.133 401.267, 81.200 402.200 C 79.736 403.664, 79.556 417, 81 417 C 81.640 417, 82 425.980, 82 441.941 C 82 457.490, 81.623 467.115, 81 467.500 C 80.424 467.856, 80 473.177, 80 480.059 C 80 487.353, 80.389 492, 81 492 C 81.651 492, 82 506.833, 82 534.500 C 82 562.167, 81.651 577, 81 577 C 79.635 577, 79.635 628.656, 81 629.500 C 82.378 630.351, 82.378 737, 81 737 C 79.712 737, 79.695 742.295, 80.978 743.578 C 81.590 744.190, 82.058 768.541, 82.228 808.528 L 82.500 872.500 85 878.883 C 86.811 883.508, 89.386 887.295, 94.349 892.633 L 101.198 900 429.099 900 C 749.730 900, 757 899.958, 757 898.114 C 757 894.979, 751.233 893, 742.099 893 C 737.644 893, 734 892.654, 734 892.230 C 734 891.807, 735.991 888.798, 738.425 885.544 C 746.152 875.214, 746.093 875.817, 746.630 801 L 747.100 735.500 749.300 735.671 C 750.510 735.765, 753.961 736.553, 756.968 737.421 C 764.475 739.589, 776.317 739.443, 784.145 737.087 C 787.640 736.034, 791.941 734.878, 793.703 734.518 C 795.465 734.157, 798.052 732.960, 799.453 731.858 C 800.854 730.756, 802 730.099, 802 730.397 C 802 730.696, 803.638 729.828, 805.640 728.470 C 808.115 726.790, 810.655 726, 813.581 726 C 815.946 726, 818.160 725.550, 818.500 725 C 818.840 724.450, 819.829 724, 820.698 724 C 822.366 724, 822.354 725.819, 820.357 773.020 L 819.742 787.540 822.332 790.618 C 824.888 793.656, 824.928 793.951, 825.381 813.598 C 826.048 842.505, 828.086 897.290, 828.549 898.760 C 828.861 899.754, 838.599 899.965, 874.722 899.760 L 920.500 899.500 921.166 894.041 C 921.533 891.039, 922.410 879.901, 923.115 869.291 C 923.821 858.681, 924.677 850, 925.017 850 C 925.926 850, 929 860.248, 929 863.279 C 929 864.711, 929.457 866.165, 930.016 866.510 C 930.575 866.856, 930.793 867.526, 930.500 868 C 930.207 868.474, 930.380 869.117, 930.883 869.428 C 931.387 869.739, 932.321 872.358, 932.959 875.247 C 933.597 878.136, 935.499 884.888, 937.186 890.250 L 940.253 900 988.068 900 C 1019.969 900, 1036.095 899.655, 1036.522 898.964 C 1036.874 898.394, 1036.689 893.107, 1036.110 887.214 C 1035.532 881.321, 1034.546 869.975, 1033.919 862 C 1033.293 854.025, 1032.347 846.964, 1031.817 846.309 C 1031.287 845.655, 1030.965 842.395, 1031.101 839.067 C 1031.237 835.738, 1031.044 832.711, 1030.674 832.341 C 1030.303 831.970, 1030 830.918, 1030 830.002 C 1030 828.288, 1031.196 827.524, 1039.122 824.177 C 1044.496 821.908, 1051.033 816.301, 1054.110 811.322 C 1055.898 808.429, 1056.164 806.881, 1055.681 802.194 C 1055.248 798.004, 1055.474 796.134, 1056.557 794.937 C 1057.359 794.051, 1058.799 791.715, 1059.758 789.746 C 1060.969 787.258, 1065.159 783.445, 1073.500 777.244 C 1094.435 761.678, 1106.556 749.626, 1114.042 736.929 C 1118.272 729.754, 1119.380 724.884, 1119.367 713.500 C 1119.354 700.987, 1116.809 691.422, 1111.218 682.873 C 1106.400 675.504, 1101.705 668.935, 1100.902 668.439 C 1100.406 668.133, 1100 665.629, 1100 662.875 C 1100 656.786, 1099.763 656.324, 1091.555 646.452 C 1087.950 642.116, 1085 638.215, 1085 637.784 C 1085 637.353, 1084.250 637, 1083.333 637 C 1082.417 637, 1081.887 636.780, 1082.155 636.511 C 1082.763 635.903, 1070.008 622, 1068.842 622 C 1068.375 622, 1064.411 619.167, 1060.032 615.704 C 1052.216 609.524, 1049.525 607.823, 1039.500 602.721 C 1030.235 598.005, 1014.806 593, 1009.538 593 C 1007.657 593, 1005.852 592.570, 1005.527 592.044 C 1005.202 591.518, 1004.388 591.285, 1003.718 591.526 C 1003.048 591.767, 1001.433 591.142, 1000.128 590.136 L 997.757 588.308 1003.628 582.365 C 1006.858 579.097, 1010.346 575.153, 1011.380 573.601 C 1012.414 572.049, 1014.778 569.884, 1016.633 568.789 C 1018.489 567.694, 1021.100 564.965, 1022.437 562.723 L 1024.867 558.648 1032.684 558.499 C 1040.692 558.346, 1047.927 555.964, 1051.919 552.166 C 1052.882 551.250, 1054.728 549.825, 1056.022 549 C 1059.186 546.982, 1063.023 542.949, 1064.108 540.500 C 1064.596 539.400, 1065.549 537.600, 1066.225 536.500 C 1066.902 535.400, 1068.132 533.375, 1068.960 532 C 1071.465 527.839, 1073.970 518.782, 1073.985 513.831 C 1074.005 507.445, 1071.193 496.886, 1068.892 494.711 C 1066.134 492.104, 1066.531 490.070, 1070.942 484.200 C 1075.207 478.523, 1076.609 473.092, 1075.757 465.539 C 1075.312 461.587, 1075.606 460.846, 1079.080 457.158 C 1083.897 452.043, 1085.623 448.696, 1086.518 442.731 C 1087.990 432.913, 1085.957 426.207, 1078.521 416.349 C 1077.868 415.482, 1077.984 413.963, 1078.872 411.775 C 1079.604 409.974, 1080.416 407.375, 1080.677 406 C 1080.937 404.625, 1081.658 402.460, 1082.277 401.188 C 1083.125 399.449, 1083.106 398.400, 1082.202 396.952 C 1081.541 395.893, 1081 393.314, 1081 391.220 C 1081 388.887, 1079.848 385.300, 1078.026 381.956 C 1076.390 378.955, 1074.763 375.712, 1074.409 374.750 C 1074.056 373.788, 1073.434 373, 1073.027 373 C 1072.620 373, 1070.163 371.377, 1067.565 369.394 C 1064.697 367.204, 1061.288 365.580, 1058.882 365.257 C 1054.153 364.623, 1052 362.026, 1052 356.956 C 1052 351.880, 1049.507 345.279, 1045.550 339.876 C 1041.998 335.027, 1034.099 329.022, 1031.200 328.968 C 1030.265 328.951, 1028.600 328.249, 1027.500 327.409 C 1025.939 326.216, 1023.121 325.933, 1014.656 326.120 L 1003.813 326.360 1001.332 321.430 C 996.476 311.780, 988.306 305.362, 977.214 302.486 C 973.246 301.456, 970 300.251, 970 299.807 C 970 299.363, 966.400 299, 962 299 C 957.333 299, 954 299.417, 954 300 M 948 315.664 C 941.240 318.737, 936 322.618, 936 324.551 C 936 326.215, 938.565 326.513, 939.525 324.959 C 942.437 320.248, 959.412 314.902, 965.131 316.896 C 966.873 317.503, 969.251 318, 970.415 318 C 973.571 318, 980.366 321.953, 985.476 326.761 C 989.981 331.001, 991.129 330.992, 988.750 326.736 C 986.797 323.242, 983.690 319.874, 981.500 318.877 C 980.400 318.376, 977.517 316.849, 975.093 315.483 C 968.802 311.939, 956.007 312.024, 948 315.664 M 903.264 314.718 C 904.784 314.947, 907.034 314.941, 908.264 314.704 C 909.494 314.467, 908.250 314.279, 905.500 314.286 C 902.750 314.294, 901.744 314.488, 903.264 314.718 M 887.870 318.946 C 882.142 322.544, 878.104 327.719, 880.352 328.581 C 881.789 329.133, 886 325.858, 886 324.188 C 886 322.928, 891.502 319.163, 894.409 318.433 C 898.093 317.509, 898.656 315.996, 895.309 316.019 C 893.764 316.029, 890.416 317.347, 887.870 318.946 M 851.250 335.706 C 850.013 335.944, 849 336.606, 849 337.177 C 849 337.747, 848.332 337.958, 847.515 337.644 C 846.643 337.309, 845.598 337.884, 844.980 339.037 C 844.402 340.117, 843.349 341, 842.639 341 C 839.738 341, 832.565 352.898, 834.375 354.708 C 834.719 355.052, 835 354.662, 835 353.841 C 835 353.020, 836.125 351.292, 837.500 350 C 838.875 348.708, 840 347.055, 840 346.326 C 840 345.597, 840.605 345, 841.345 345 C 842.085 345, 843.494 344.111, 844.477 343.026 C 845.460 341.940, 847.151 340.770, 848.235 340.425 C 849.319 340.081, 851.798 338.720, 853.743 337.400 C 857.268 335.007, 856.740 334.648, 851.250 335.706 M 1004.768 339.746 C 1002.057 342.633, 1002.952 343.447, 1007.703 342.416 C 1017.103 340.375, 1023.965 342.852, 1032.286 351.290 C 1038.190 357.276, 1038.993 357.809, 1038.396 355.342 C 1036.979 349.494, 1034.282 345, 1032.189 345 C 1031.590 345, 1030.740 344.387, 1030.300 343.638 C 1028.749 340.998, 1019.703 337.842, 1013.188 337.668 C 1007.813 337.525, 1006.564 337.833, 1004.768 339.746 M 113.221 369.235 C 107.113 371.613, 101.269 376.882, 98.462 382.543 C 96.708 386.080, 96.468 389.034, 96.199 410.399 C 96.033 423.543, 96.271 434.671, 96.728 435.128 C 97.184 435.584, 239.941 435.987, 413.965 436.023 C 703.417 436.083, 730.448 435.951, 731.269 434.483 C 731.763 433.600, 731.985 423.118, 731.761 411.189 C 731.295 386.289, 730.390 382.256, 723.712 375.299 C 720.632 372.090, 718.121 370.628, 713.090 369.110 C 706.578 367.147, 703.026 367.124, 412.500 367.152 L 118.500 367.180 113.221 369.235 M 813.624 379.034 C 810.873 382.304, 810.318 384, 812 384 C 812.550 384, 813 383.467, 813 382.814 C 813 382.162, 813.977 380.589, 815.171 379.318 C 816.364 378.048, 817.095 376.762, 816.795 376.462 C 816.495 376.161, 815.068 377.319, 813.624 379.034 M 1051.770 377.563 C 1050.592 378.741, 1051.962 380, 1054.422 380 C 1055.894 380, 1058.401 381.790, 1061.363 384.957 C 1065.427 389.302, 1066 389.631, 1066 387.618 C 1066 383.167, 1054.378 374.955, 1051.770 377.563 M 880.780 386.657 C 874.159 395.876, 861.009 402.294, 853.851 399.798 C 849.936 398.433, 848.002 399.397, 847.990 402.719 C 847.976 406.656, 843.768 414.988, 840.104 418.335 C 838.080 420.183, 837 422.121, 837 423.903 C 837 425.407, 836.283 429.051, 835.407 432.001 C 834.531 434.951, 833.482 441.445, 833.075 446.432 C 832.668 451.419, 832.147 456.175, 831.918 457 C 831.438 458.724, 832.958 458.771, 848.310 457.505 C 859.006 456.623, 873.744 458.193, 877.715 460.637 C 878.933 461.387, 880.508 462.022, 881.215 462.049 C 881.922 462.075, 884.472 464.511, 886.883 467.461 L 891.266 472.826 901.383 473.307 C 906.947 473.571, 912.681 474.102, 914.124 474.486 C 916.341 475.077, 917.335 474.551, 920.535 471.093 C 922.617 468.842, 924.829 467, 925.449 467 C 926.070 467, 928.360 466.075, 930.539 464.945 C 934.027 463.136, 936.386 462.883, 950.290 462.827 C 964.142 462.773, 966.597 463.012, 970.290 464.780 C 972.606 465.889, 977.140 467.607, 980.367 468.600 C 985.184 470.081, 987.052 471.353, 990.808 475.702 C 995.256 480.855, 995.526 481, 1000.670 481 C 1003.579 481, 1007.798 481.736, 1010.045 482.635 C 1015.662 484.882, 1016.756 483.510, 1013.824 477.892 C 1011.227 472.918, 1010.852 465, 1012.916 458.751 C 1014.110 455.138, 1014.043 454.907, 1011.077 452.412 C 1009.385 450.987, 1008 449.412, 1008 448.911 C 1008 448.410, 1007.129 447.129, 1006.065 446.065 C 1002.135 442.135, 1000.984 433.130, 1003.500 426 C 1004.325 423.662, 1005 421.622, 1005 421.468 C 1005 421.314, 1002.751 420.878, 1000.001 420.500 C 997.252 420.122, 994.750 419.405, 994.442 418.906 C 994.134 418.408, 993.073 418, 992.085 418 C 989.189 418, 981.466 411.471, 978.623 406.620 C 976.955 403.773, 976 400.662, 976 398.072 C 976 395.832, 975.620 394, 975.155 394 C 974.691 394, 971.653 394.889, 968.405 395.975 C 961.132 398.408, 956.805 398.492, 950.428 396.325 C 942.464 393.618, 937.610 390.673, 936.173 387.675 C 934.288 383.742, 932.315 383.337, 929.190 386.241 C 924.687 390.426, 921.739 391.876, 914.755 393.340 C 908.351 394.682, 906.755 394.603, 897.172 392.462 C 895.225 392.027, 891.808 389.735, 888.932 386.933 L 884.018 382.148 880.780 386.657 M 129.849 394.800 C 126.104 398.293, 125.768 399.030, 125.695 403.921 C 125.618 409.014, 125.819 409.435, 130.374 413.739 C 135.016 418.125, 135.268 418.225, 140.545 417.788 C 144.815 417.434, 146.489 416.765, 148.480 414.616 C 155.264 407.296, 155.804 400.981, 150.155 395.042 C 146.470 391.168, 146.052 391, 140.116 391 C 134.326 391, 133.657 391.248, 129.849 394.800 M 171.847 393.826 C 164.707 399.052, 164.538 407.252, 171.433 413.935 C 175.324 417.706, 181.808 418.978, 185.957 416.783 C 189.516 414.901, 193.779 408.112, 194.205 403.648 C 194.521 400.338, 194.028 399.177, 190.701 395.398 C 186.958 391.146, 186.642 391.003, 181.165 391.076 C 176.677 391.136, 174.741 391.708, 171.847 393.826 M 211.447 395.394 C 208.059 398.930, 207.321 400.346, 207.666 402.644 C 209.241 413.129, 213.253 417.494, 221.317 417.498 C 225.760 417.500, 226.478 417.136, 230.567 412.808 C 234.359 408.795, 235 407.511, 235 403.927 C 235 400.313, 234.399 399.136, 230.632 395.368 C 226.572 391.309, 225.888 391, 220.960 391 C 216 391, 215.385 391.284, 211.447 395.394 M 851.904 439.800 C 844.941 443.889, 844 444.936, 844 448.587 C 844 453.404, 846.291 454.279, 856.815 453.484 C 861.592 453.123, 867.300 453.218, 869.500 453.695 C 875.329 454.957, 877.691 454.272, 880.585 450.478 C 883.819 446.237, 883.233 444.080, 877.751 440.048 C 873.875 437.198, 873.051 437.003, 865.053 437.050 C 857.615 437.094, 855.901 437.453, 851.904 439.800 M 945.590 441.679 C 942.618 442.174, 938.085 444.638, 936.765 446.477 C 935.366 448.425, 936.009 452.633, 938.039 454.811 C 939.870 456.777, 941.083 457, 949.930 457 C 957.609 457, 960.743 457.436, 964.141 458.978 C 968.578 460.991, 974.541 461.579, 976.687 460.214 C 977.341 459.799, 978.356 458.193, 978.945 456.645 C 979.826 454.328, 979.672 453.349, 978.079 451.111 C 973.911 445.257, 955.751 439.985, 945.590 441.679 M 97.129 449.920 C 95.986 450.627, 95.713 484.103, 95.446 656.632 L 95.127 862.500 97.232 869.484 C 100.168 879.227, 106.802 885.932, 116.453 888.913 L 123.211 891 413.711 891 C 674.513 891, 704.839 890.839, 710.356 889.429 C 716.883 887.760, 722.982 884.306, 722.993 882.273 C 722.997 881.598, 724.148 880.294, 725.550 879.375 C 726.959 878.452, 727.868 877.099, 727.582 876.352 C 727.296 875.608, 727.430 875, 727.879 875 C 728.329 875, 729.440 872.698, 730.348 869.885 C 731.819 865.329, 732 857.130, 732 794.879 L 732 724.987 729.250 722.790 C 722.824 717.657, 700.964 694.853, 695.190 687.260 C 691.494 682.398, 688.018 678.834, 686.712 678.567 C 685.496 678.319, 682.721 677.827, 680.547 677.474 C 678.372 677.122, 674.903 675.971, 672.836 674.917 C 670.770 673.862, 667.721 673, 666.060 673 C 658.451 673, 645.710 664.955, 641.995 657.805 C 640.765 655.437, 638.900 651.925, 637.851 650 C 636.331 647.210, 635.977 644.675, 636.103 637.500 C 636.191 632.550, 635.920 626.984, 635.500 625.130 C 634.740 621.769, 636.639 611, 637.993 611 C 638.363 611, 638.598 609.987, 638.516 608.750 C 638.409 607.148, 637.450 606.225, 635.183 605.543 C 633.432 605.017, 632 604.229, 632 603.793 C 632 603.357, 631.325 603, 630.500 603 C 629.675 603, 629 602.550, 629 602 C 629 601.450, 628.266 601, 627.370 601 C 626.473 601, 622.711 597.917, 619.009 594.148 C 612.068 587.082, 610.062 582.652, 611.563 577.706 C 613.584 571.045, 622.953 563.974, 629.678 564.034 C 631.780 564.053, 635.300 564.937, 637.500 566 C 639.700 567.063, 642.272 567.947, 643.216 567.966 C 644.160 567.985, 646.410 568.644, 648.216 569.430 C 650.022 570.217, 654.200 571.886, 657.500 573.140 C 660.800 574.394, 664.625 576.161, 666 577.067 C 667.375 577.973, 669.063 578.516, 669.750 578.274 C 670.438 578.032, 671 578.270, 671 578.803 C 671 579.336, 672.462 580.531, 674.250 581.459 C 676.038 582.387, 678.625 583.782, 680 584.558 C 681.375 585.335, 684.975 585.992, 688 586.018 C 691.025 586.044, 695.750 586.866, 698.500 587.845 C 707.547 591.064, 718.566 598.633, 721.242 603.465 C 721.934 604.715, 723.605 607.709, 724.955 610.119 C 726.305 612.529, 727.476 614.725, 727.556 615 C 727.637 615.275, 728.295 617.052, 729.018 618.949 C 730.164 621.952, 730.430 622.146, 731.078 620.449 C 731.488 619.377, 731.849 581.207, 731.882 535.627 C 731.928 471.336, 731.664 452.358, 730.704 450.988 C 729.526 449.307, 714.347 449.219, 413.980 449.150 C 240.462 449.110, 97.879 449.457, 97.129 449.920 M 843.401 473.778 C 838.286 477.822, 833 484.042, 833 486.017 C 833 487.936, 834.538 486.814, 842.480 479.099 C 850.901 470.918, 851.517 467.361, 843.401 473.778 M 940 477.641 C 931.429 483.689, 922.203 495, 925.842 495 C 926.639 495, 941.951 480.261, 944.872 476.682 C 946.984 474.095, 944.268 474.629, 940 477.641 M 144.208 484.708 C 140.097 485.501, 131.995 495.404, 131.561 500.167 C 131.527 500.533, 131.162 501.171, 130.750 501.583 C 129.575 502.758, 129.821 610.771, 131 611.500 C 131.576 611.856, 132 617.177, 132 624.059 C 132 631.353, 131.611 636, 131 636 C 129.685 636, 129.706 639.700, 131.027 640.516 C 131.591 640.865, 131.950 641.679, 131.823 642.325 C 131.231 645.356, 138.434 654.187, 143.701 656.889 C 145.316 657.718, 201.864 658.015, 356.010 658.005 C 540.801 657.993, 566.466 657.810, 569.017 656.491 C 572.656 654.609, 576.099 651.194, 578.860 646.726 C 580.994 643.273, 581 643.071, 581 572.077 C 581 491.008, 581.497 495.819, 572.351 488.324 L 567.684 484.500 357.092 484.383 C 241.266 484.318, 145.469 484.464, 144.208 484.708 M 813.489 486.017 C 812.268 487.993, 810.929 501.367, 811.563 505.250 C 812.180 509.024, 813.994 510.509, 814.007 507.250 C 814.010 506.288, 814.907 504.150, 816 502.500 C 818.004 499.474, 818.840 490.173, 817.250 488.583 C 816.837 488.171, 816.500 487.346, 816.500 486.750 C 816.500 485.210, 814.317 484.678, 813.489 486.017 M 895.250 486.116 C 894.563 486.822, 894 488.183, 894 489.141 C 894 490.099, 893.610 491.123, 893.134 491.417 C 892.658 491.711, 892.485 493.088, 892.751 494.476 C 893.034 495.956, 892.771 497, 892.117 497 C 891.502 497, 891 497.963, 891 499.140 C 891 503.059, 886.607 510.149, 880.910 515.423 C 874.049 521.775, 865.620 525.004, 855.930 524.992 C 849.866 524.985, 837.362 522.022, 836.085 520.290 C 834.424 518.037, 827.768 513.026, 827.036 513.478 C 826.572 513.764, 826.257 516.808, 826.336 520.241 C 826.466 525.907, 826.770 526.737, 829.633 529.251 C 831.901 531.242, 833.029 533.344, 833.648 536.729 C 834.449 541.114, 834.779 541.514, 838.445 542.543 C 841.330 543.352, 842.621 544.364, 843.275 546.326 C 843.843 548.030, 845.138 549.235, 846.834 549.640 C 848.300 549.990, 850.063 550.719, 850.750 551.260 C 852.148 552.362, 855 550.569, 855 548.589 C 855 546.578, 858.849 539.767, 861.620 536.875 C 864.223 534.158, 873.841 529, 876.305 529 C 876.992 529, 878.739 527.650, 880.187 526 C 883.448 522.284, 887.673 522.035, 891.673 525.324 C 894.081 527.304, 895.018 527.513, 898 526.735 C 906.667 524.475, 908.351 524.631, 910.782 527.919 C 912.703 530.517, 913.724 531, 917.295 531 C 919.624 531, 923.098 531.831, 925.015 532.847 C 926.932 533.862, 929.683 534.982, 931.129 535.335 C 934.954 536.269, 944.006 544.805, 946.129 549.479 C 947.134 551.690, 947.966 555.386, 947.978 557.691 C 948.006 563.105, 949.461 563.891, 953.062 560.440 C 955.656 557.956, 956.241 557.789, 958.596 558.862 C 961.592 560.227, 964.550 559.616, 965.376 557.462 C 965.755 556.475, 967.419 556, 970.499 556 C 974.461 556, 975.465 555.539, 978.134 552.500 C 980.260 550.079, 982.063 549, 983.982 549 C 986.111 549, 987.041 548.314, 987.976 546.058 C 988.792 544.089, 990.147 542.907, 992.077 542.483 C 994.025 542.055, 995.977 540.335, 998.098 537.175 C 999.824 534.604, 1001.859 532.140, 1002.618 531.700 C 1003.378 531.260, 1004 530.058, 1004 529.027 C 1004 527.997, 1005.079 525.871, 1006.397 524.304 C 1010.411 519.534, 1013.497 512.718, 1013.553 508.500 C 1013.582 506.300, 1013.966 502.833, 1014.406 500.795 C 1015.332 496.503, 1015.387 496.529, 1003.283 495.499 L 996.067 494.885 995.396 497.693 C 995.026 499.237, 994.375 500.950, 993.947 501.500 C 993.520 502.050, 993.188 502.725, 993.211 503 C 993.233 503.275, 991.939 506.256, 990.335 509.624 C 987.112 516.389, 980.416 525, 978.378 525 C 977.659 525, 976.625 525.832, 976.080 526.850 C 974.228 530.310, 963.211 533.107, 951.527 533.083 C 937.911 533.055, 932.466 530.776, 923.004 521.144 C 915.066 513.062, 912 505.978, 912 495.719 C 912 488.784, 910.587 486, 907.068 486 C 906.084 486, 903.304 485.737, 900.890 485.416 C 897.950 485.025, 896.087 485.256, 895.250 486.116 M 1043.390 495.947 C 1039.578 496.858, 1037.047 498.584, 1033.782 502.500 C 1029.157 508.048, 1028.245 511.083, 1027.475 523.491 C 1026.992 531.261, 1026.211 536.275, 1025.255 537.734 C 1020.501 544.990, 1031.421 548.868, 1041.783 543.604 C 1051.339 538.749, 1058.053 529.739, 1059.962 519.209 C 1061.736 509.426, 1059.826 502.556, 1053.959 497.619 C 1050.778 494.942, 1048.865 494.640, 1043.390 495.947 M 147.190 498.580 L 145 500.113 145 562.857 C 145 605.053, 144.659 625.941, 143.958 626.642 C 143.234 627.366, 143.379 628.070, 144.431 628.943 C 145.698 629.994, 146.812 629.469, 151.223 625.738 C 154.125 623.283, 157.059 621.101, 157.742 620.888 C 158.425 620.674, 160.675 619.054, 162.742 617.286 C 169.709 611.327, 204.484 585.704, 206.239 585.236 C 207.195 584.981, 207.731 584.374, 207.430 583.886 C 207.128 583.399, 207.483 583, 208.218 583 C 208.953 583, 211.032 581.650, 212.839 580 C 214.645 578.350, 216.391 577, 216.717 577 C 217.044 577, 218.704 575.943, 220.406 574.652 C 224.726 571.374, 236.965 565, 238.939 565 C 242.780 565, 254.485 572.966, 267.500 584.436 C 269.700 586.375, 272.026 587.970, 272.668 587.981 C 273.311 587.991, 275.710 589.800, 278 592 C 280.290 594.200, 282.464 596.002, 282.832 596.005 C 283.199 596.007, 284.850 597.250, 286.500 598.767 C 289.750 601.756, 306.923 616.708, 318.639 626.750 C 323.060 630.539, 326.830 632.989, 328.215 632.972 C 329.472 632.956, 332.609 631.044, 335.187 628.722 C 339.815 624.553, 354.439 613.464, 357.932 611.475 C 358.922 610.911, 363.055 607.889, 367.116 604.760 C 384.891 591.065, 397.413 582, 398.554 582 C 399.232 582, 400.045 581.324, 400.362 580.499 C 400.679 579.673, 402.515 578.245, 404.443 577.326 C 407.470 575.882, 408.325 575.839, 410.724 577.006 C 412.251 577.749, 413.725 578.401, 414 578.455 C 414.275 578.508, 415.738 579.328, 417.250 580.276 C 418.762 581.224, 421.111 582.676, 422.470 583.503 C 425.192 585.160, 450.316 604.713, 453.500 607.653 C 454.601 608.669, 457.976 611.354, 461 613.620 C 464.025 615.886, 468.075 619.142, 470 620.854 C 471.925 622.567, 473.805 623.975, 474.179 623.984 C 474.552 623.993, 475.563 624.706, 476.427 625.569 C 477.853 626.995, 478.248 626.963, 480.748 625.217 C 482.262 624.160, 486.952 621.603, 491.170 619.535 C 498.450 615.966, 498.958 615.857, 501.143 617.387 C 504.304 619.602, 508 619.501, 508 617.200 C 508 616.210, 507.508 614.908, 506.907 614.307 C 505.186 612.586, 507.031 609.766, 516.500 599.639 C 519.421 596.515, 523.636 594, 525.950 594 C 527.061 594, 530.164 595.350, 532.846 597 C 535.527 598.650, 538.181 600, 538.742 600 C 539.303 600, 540.967 601.579, 542.439 603.509 C 543.911 605.439, 546.988 607.974, 549.277 609.141 C 553.561 611.327, 557.995 614.220, 561.500 617.117 C 562.600 618.026, 564.418 619.047, 565.539 619.386 C 567.576 620, 567.578 619.924, 567.539 560.606 C 567.502 503.522, 567.425 501.128, 565.585 499.094 L 563.670 496.978 356.525 497.012 C 172.017 497.042, 149.141 497.213, 147.190 498.580 M 480 513.694 C 476.923 514.213, 472.047 516.239, 465.587 519.681 C 459.583 522.880, 457.101 524.883, 455.898 527.500 C 455.392 528.600, 453.878 531.300, 452.533 533.500 C 451.187 535.700, 450.067 538.663, 450.043 540.083 C 450.020 541.504, 449.715 542.952, 449.367 543.300 C 449.018 543.648, 448.733 546.213, 448.733 549 C 448.733 551.787, 449.018 554.352, 449.367 554.700 C 449.715 555.048, 450 556.016, 450 556.851 C 450 559.494, 454.175 567.375, 457.396 570.811 C 459.103 572.632, 462.413 574.969, 464.750 576.005 C 467.087 577.040, 469 578.291, 469 578.783 C 469 579.276, 472.094 580.263, 475.875 580.976 C 491.887 583.998, 505.048 577.266, 513.444 561.762 C 515.962 557.112, 516.286 555.512, 516.231 548 C 516.156 537.557, 513.530 531.573, 505.496 523.539 C 501.298 519.341, 499.236 518.047, 495.835 517.472 C 493.456 517.070, 489.940 515.900, 488.020 514.871 C 486.100 513.842, 484.073 513.061, 483.515 513.136 C 482.957 513.211, 481.375 513.462, 480 513.694 M 473.414 531.120 C 465.834 535.002, 460.567 546.126, 462.925 553.273 C 467.154 566.086, 481.442 572.099, 491.385 565.250 C 498.901 560.073, 503 554.040, 503 548.154 C 503 542.077, 496.522 532.952, 490.389 530.389 C 485.529 528.359, 478.189 528.675, 473.414 531.120 M 897.596 549.206 C 896.587 549.771, 893.790 550.011, 891.380 549.739 C 885.793 549.110, 885.584 550.836, 890.886 553.816 C 895.722 556.534, 906.966 556.862, 911.846 554.427 C 916.893 551.909, 915.569 549.209, 910.205 551.078 C 907.739 551.938, 906.465 551.767, 903.306 550.156 C 900.401 548.674, 898.972 548.436, 897.596 549.206 M 871.913 551.605 C 871.181 552.487, 870.402 556.029, 870.183 559.475 C 869.732 566.547, 871.533 570.594, 875.582 571.610 C 876.867 571.932, 878.442 572.827, 879.081 573.598 C 881.287 576.256, 885.319 575.199, 887.801 571.312 C 890.056 567.780, 890.133 565, 887.977 565 C 885.455 565, 877.897 560.773, 876.438 558.546 C 875.203 556.661, 875.102 555.678, 875.975 554.046 C 877.946 550.363, 874.609 548.357, 871.913 551.605 M 926.260 554.250 C 925.719 554.938, 924.989 556.700, 924.640 558.167 C 924.004 560.831, 918.113 565.339, 915.036 565.517 C 914.191 565.565, 912.010 566.198, 910.189 566.922 C 907.733 567.898, 907.052 568.660, 907.554 569.869 C 907.926 570.766, 908.594 573.018, 909.038 574.872 C 910.181 579.650, 911.439 580.638, 914.378 579.065 C 915.709 578.353, 918.643 577.947, 920.899 578.162 C 923.154 578.377, 925 578.203, 925 577.776 C 925 577.349, 925.689 577, 926.531 577 C 927.374 577, 928.363 576.212, 928.731 575.250 C 929.098 574.288, 930.209 572.628, 931.200 571.561 C 934.190 568.342, 933.902 563.341, 930.376 557.250 C 927.630 552.506, 927.632 552.508, 926.260 554.250 M 626.462 579.651 C 624.947 580.760, 624.892 581.184, 626.069 582.719 C 627.827 585.010, 632.292 588.917, 633.206 588.964 C 633.594 588.984, 635.533 590.101, 637.515 591.446 C 639.497 592.791, 643.905 595.286, 647.310 596.992 C 650.714 598.697, 654.271 600.621, 655.214 601.268 C 656.623 602.235, 657.422 601.983, 659.714 599.851 C 661.246 598.425, 663.737 596.966, 665.250 596.610 C 670.803 595.302, 667.507 592.509, 653 586.228 C 647.775 583.966, 641.250 581.535, 638.500 580.824 C 635.750 580.114, 633.275 579.301, 633 579.017 C 632.027 578.011, 628.197 578.383, 626.462 579.651 M 234 582.630 C 228.600 585.685, 210.951 599.088, 205.867 603.994 C 203.869 605.922, 199.060 609.174, 195.179 611.219 C 191.299 613.265, 185.509 616.963, 182.312 619.437 C 179.115 621.912, 170.988 628.046, 164.250 633.068 C 157.512 638.091, 152 642.615, 152 643.121 C 152 643.660, 160.388 643.929, 172.250 643.771 L 192.500 643.500 192.509 639.500 C 192.519 635.145, 193.446 633, 195.318 633 C 195.979 633, 197.073 632.113, 197.750 631.028 C 198.473 629.872, 199.606 629.295, 200.491 629.635 C 201.321 629.953, 202.005 629.828, 202.011 629.357 C 202.018 628.886, 203.768 627.664, 205.901 626.643 C 208.034 625.622, 211.291 623.359, 213.139 621.614 C 222.593 612.692, 239.567 600.476, 243.535 599.739 C 245.166 599.436, 248.750 598.398, 251.500 597.432 C 254.250 596.466, 257.118 595.517, 257.873 595.322 C 258.728 595.102, 257.441 593.372, 254.461 590.734 C 251.830 588.405, 248.512 585.456, 247.088 584.179 C 244.662 582.004, 240.733 579.947, 239.185 580.042 C 238.808 580.065, 236.475 581.230, 234 582.630 M 238 585.805 C 237.175 586.071, 233.742 588.470, 230.371 591.135 C 226.999 593.800, 222.049 597.012, 219.371 598.272 C 216.692 599.533, 211.891 602.315, 208.701 604.456 C 203.883 607.690, 202.953 608.775, 203.201 610.875 C 203.462 613.077, 203.011 613.504, 199.686 614.198 C 194.919 615.194, 189.220 619.447, 188.810 622.315 C 188.571 623.986, 187.125 624.938, 182.500 626.466 C 179.200 627.556, 176.169 628.910, 175.765 629.474 C 175.361 630.038, 175.024 630.191, 175.015 629.814 C 175.007 629.436, 173.741 630.336, 172.201 631.814 C 170.662 633.291, 169.564 634.837, 169.760 635.250 C 169.957 635.663, 169.641 636, 169.059 636 C 167.191 636, 167.928 638.708, 170.208 640.222 C 173.571 642.455, 183.188 638.478, 188.500 632.657 C 190.700 630.245, 193.686 627.991, 195.135 627.646 C 196.584 627.302, 200.117 625.440, 202.985 623.510 C 205.854 621.579, 208.559 620, 208.996 620 C 209.433 620, 211.934 617.975, 214.554 615.500 C 217.174 613.025, 219.759 611, 220.298 611 C 220.837 611, 224.252 608.625, 227.889 605.722 C 231.525 602.819, 236.525 599.378, 239 598.076 C 241.475 596.775, 244.496 594.812, 245.713 593.715 L 247.926 591.721 245.879 589.111 C 243.716 586.350, 240.493 584.999, 238 585.805 M 403.484 595.270 C 400.193 597.730, 396.488 600.056, 395.250 600.439 C 394.012 600.822, 393 601.794, 393 602.600 C 393 603.405, 392.212 604.387, 391.250 604.782 C 387.379 606.370, 372.026 617.216, 364.500 623.679 C 353.239 633.351, 348.979 636.567, 343.916 639.217 C 341.487 640.489, 339.500 642.175, 339.500 642.963 C 339.500 644.156, 342.382 644.377, 356.704 644.280 C 377.109 644.143, 378.354 643.889, 377.511 640.049 C 376.817 636.888, 380.072 632.252, 385.051 629.311 C 387.586 627.813, 389.565 625.226, 388.774 624.444 C 388.623 624.295, 386.481 624.544, 384.014 624.996 C 379.192 625.879, 376.627 625.076, 375.583 622.356 C 374.758 620.206, 380.083 615.133, 383.985 614.353 C 385.548 614.040, 388.252 612.004, 390.229 609.651 C 397.801 600.635, 411.428 596.915, 415.927 602.635 C 417.067 604.084, 418 605.642, 418 606.096 C 418 608.134, 413.376 610.898, 408.947 611.507 C 406.282 611.874, 403.573 612.810, 402.928 613.587 C 402.283 614.364, 401.248 615.001, 400.628 615.002 C 400.007 615.004, 397.925 616.353, 396 618 C 393.443 620.188, 392.972 620.996, 394.250 620.998 C 395.212 620.999, 396 620.594, 396 620.098 C 396 619.108, 401.753 616.590, 403.750 616.705 C 404.438 616.745, 405 616.405, 405 615.950 C 405 615.495, 407.137 614.844, 409.750 614.505 C 412.363 614.165, 415.782 613.186, 417.349 612.328 C 420.018 610.868, 420.383 610.907, 423.134 612.941 C 424.905 614.250, 426.817 614.875, 427.950 614.516 C 430.863 613.591, 434.315 614.881, 436.368 617.660 C 438.813 620.970, 437.428 624.229, 432.601 626.519 C 428.479 628.475, 426.571 630.498, 427.473 631.956 C 428.760 634.039, 433.244 632.934, 437.435 629.500 C 442.181 625.611, 443.952 625.268, 447.451 627.560 C 452.326 630.754, 451.405 635.051, 445.423 637.025 C 438.954 639.160, 429.224 640.870, 426.838 640.291 C 425.552 639.979, 423.521 638.839, 422.324 637.757 C 420.087 635.735, 418 636.079, 418 638.469 C 418 639.443, 415.615 640.019, 409.457 640.532 C 403.821 641.002, 401.042 641.627, 401.290 642.372 C 401.564 643.194, 423.637 643.582, 482.583 643.800 C 571.533 644.131, 568.565 644.320, 566.477 638.443 C 565.826 636.609, 563.686 634.713, 560.059 632.756 C 557.067 631.142, 552.792 628.371, 550.559 626.600 C 544.576 621.851, 540.909 619.727, 537.521 619.047 C 535.335 618.609, 533.671 617.141, 531.500 613.739 C 527.353 607.239, 525.008 607.256, 514.744 613.863 C 510.016 616.906, 511.189 619, 517.622 619 C 523.007 619, 523.621 621.310, 518.670 622.944 C 515.892 623.861, 515.105 624.822, 513.920 628.745 C 512.205 634.424, 506.351 639.136, 501.500 638.743 C 497.017 638.380, 497.305 634.337, 502 631.723 C 503.925 630.651, 505.725 629.482, 506 629.124 C 506.275 628.767, 507.846 628.021, 509.490 627.466 C 511.135 626.912, 512.625 625.706, 512.803 624.786 C 513.301 622.198, 506.689 621.301, 502.355 623.368 C 500.472 624.266, 498.247 625, 497.409 625 C 495.939 625, 487.772 629.174, 485.291 631.193 C 484.626 631.734, 482.785 631.892, 481.200 631.544 C 479.238 631.113, 477.923 631.388, 477.078 632.407 C 475.599 634.188, 468.104 635.485, 464.993 634.498 C 463.780 634.113, 459.650 630.918, 455.815 627.399 C 451.980 623.880, 448.250 621, 447.527 621 C 446.803 621, 444.766 619.650, 443 618 C 441.234 616.350, 439.581 615, 439.327 615 C 438.787 615, 432.502 610.017, 426.625 604.929 C 424.356 602.965, 420.700 600.296, 418.500 598.997 C 416.300 597.698, 413.368 595.322, 411.984 593.717 L 409.468 590.797 403.484 595.270 M 260.926 598.250 C 260.885 598.388, 260.672 599.453, 260.452 600.618 C 260.232 601.783, 256.891 605.961, 253.026 609.903 C 249.162 613.845, 246 617.519, 246 618.068 C 246 618.616, 248.363 617.361, 251.250 615.278 C 259.154 609.576, 261.938 607.968, 266.250 606.613 C 268.700 605.843, 268.429 602.752, 265.686 600.174 C 263.741 598.348, 261.202 597.321, 260.926 598.250 M 679.122 600.971 C 676.164 601.978, 672.604 603.941, 671.212 605.333 C 668.733 607.813, 668.717 607.919, 670.448 610.560 C 672.169 613.188, 672.397 613.240, 679.357 612.621 C 685.878 612.042, 686.755 612.192, 689.433 614.345 C 692.137 616.519, 692.353 617.175, 692.200 622.730 C 692.052 628.109, 692.385 629.227, 695.302 633.128 C 701.930 641.996, 702.023 642.248, 699.805 645.294 C 698.644 646.887, 696.882 648, 695.520 648 C 693.077 648, 688.192 643.135, 684.711 637.234 C 683.633 635.408, 682.597 634.070, 682.408 634.259 C 682.219 634.448, 681.859 637.849, 681.609 641.817 C 681.187 648.503, 678.616 657.789, 676.842 659.034 C 676.423 659.328, 677.093 660.838, 678.331 662.390 C 680.372 664.950, 681.226 665.232, 687.540 665.425 C 695.877 665.681, 698.614 666.965, 699.509 671.039 C 699.878 672.720, 701.039 674.632, 702.090 675.288 C 703.140 675.944, 704 676.858, 704 677.320 C 704 678.498, 713.023 689.058, 721.955 698.335 C 729.666 706.343, 740.021 715, 741.889 715 C 742.461 715, 743.395 715.870, 743.964 716.932 C 744.533 717.995, 746.011 719.165, 747.249 719.531 C 748.487 719.898, 751.975 721.391, 755 722.849 C 759.541 725.038, 761.895 725.500, 768.500 725.500 C 776.051 725.500, 787.054 723.069, 789.450 720.871 C 789.972 720.392, 791.417 720, 792.661 720 C 793.905 720, 795.727 719.147, 796.711 718.104 C 797.695 717.062, 800.075 715.511, 802 714.658 C 808.815 711.637, 809.511 710.604, 807.988 705.768 C 807.249 703.421, 805.956 700.150, 805.114 698.500 C 804.272 696.850, 803.558 695.275, 803.527 695 C 803.495 694.725, 803.112 693.936, 802.674 693.248 C 802.237 692.559, 799.859 688.059, 797.391 683.248 C 794.922 678.436, 792.137 673.813, 791.201 672.974 C 790.266 672.135, 788.600 669.689, 787.500 667.539 C 784.498 661.669, 781.158 658.884, 778.851 660.325 C 777.833 660.961, 777 662.027, 777 662.693 C 777 663.360, 776.478 665.052, 775.839 666.453 C 773.869 670.778, 770.121 669.835, 760.766 662.661 C 752.403 656.247, 740.327 648, 739.299 648 C 738.991 648, 736.660 646.521, 734.119 644.713 C 731.579 642.905, 727.403 640.210, 724.840 638.724 C 720.782 636.370, 720.087 635.476, 719.468 631.809 C 718.787 627.779, 717.219 623.917, 712.962 615.785 C 710.267 610.636, 702.541 603.149, 697.614 600.912 C 692.476 598.579, 686.089 598.599, 679.122 600.971 M 958.837 609.526 C 957.372 610.322, 951.072 611.927, 944.837 613.094 C 938.602 614.261, 932.478 615.698, 931.230 616.288 C 929.568 617.072, 928.643 617.043, 927.780 616.180 C 926.344 614.744, 919.360 614.609, 918.500 616 C 918.160 616.550, 914.785 617, 911 617 C 907.215 617, 903.840 616.550, 903.500 616 C 903.160 615.450, 900.861 615, 898.391 615 C 895.921 615, 892.560 614.307, 890.921 613.459 C 889.282 612.612, 887.565 612.151, 887.105 612.435 C 885.765 613.263, 887.109 618.098, 888.882 618.831 C 889.772 619.199, 892.300 620.718, 894.500 622.206 C 905.473 629.629, 923.859 629.817, 943.519 622.706 C 949.484 620.548, 964 610.683, 964 608.787 C 964 607.597, 961.812 607.911, 958.837 609.526 M 273.161 613.547 C 271.801 616.531, 271.735 617.057, 272.750 616.839 C 273.163 616.750, 274.738 617.189, 276.250 617.814 C 281.413 619.948, 279.510 623.061, 269.110 629.496 C 268.224 630.044, 265.394 632.181, 262.821 634.246 C 260.247 636.311, 257.659 638, 257.071 638 C 256.482 638, 256 638.398, 256 638.883 C 256 639.369, 255.061 640.012, 253.913 640.312 C 252.547 640.670, 251.956 641.487, 252.202 642.679 C 252.491 644.081, 253.359 644.436, 255.971 644.222 C 260.172 643.877, 262 642.438, 262 639.475 C 262 637.810, 263.552 636.159, 267.750 633.360 C 270.913 631.251, 273.800 629.519, 274.167 629.513 C 274.533 629.506, 275.171 629.163, 275.583 628.750 C 276.649 627.685, 288 627.816, 288 628.893 C 288 630.345, 291.150 631.120, 292.500 630 C 294.220 628.572, 302 632.760, 302 635.114 C 302 637.406, 299.338 640, 296.988 640 C 295.959 640, 294.866 640.408, 294.558 640.906 C 294.250 641.404, 293.098 641.577, 291.999 641.289 C 290.103 640.794, 289.152 642.359, 290.750 643.344 C 291.163 643.599, 297.121 643.952, 303.991 644.129 C 315.167 644.416, 316.517 644.269, 316.814 642.728 C 317.014 641.689, 316.225 640.591, 314.823 639.960 C 311.219 638.337, 308.186 636.478, 306.178 634.661 C 305.169 633.748, 304.082 633, 303.763 633 C 303.444 633, 301.176 631.049, 298.722 628.664 C 293.130 623.229, 277.043 611, 275.485 611 C 274.845 611, 273.799 612.146, 273.161 613.547 M 234 615.185 C 229.502 618.306, 227.927 619.308, 220.156 624 C 217.879 625.375, 216.012 626.962, 216.008 627.527 C 215.998 628.811, 204.310 640, 202.978 640 C 202.440 640, 202 640.900, 202 642 C 202 643.818, 202.662 643.999, 209.250 643.985 C 218.257 643.966, 219.345 643.357, 218.493 638.817 C 217.957 635.957, 218.311 634.784, 220.490 632.194 C 221.947 630.463, 223.513 629.148, 223.970 629.273 C 225.562 629.708, 235.230 621.595, 237.607 617.831 C 241.781 611.219, 240.778 610.483, 234 615.185 M 650.491 614.374 C 647.491 618.952, 648.820 622.135, 655 625.171 C 658.025 626.657, 661.423 627.902, 662.550 627.937 C 663.678 627.971, 665.143 628.543, 665.807 629.207 C 666.750 630.150, 667.349 630.079, 668.544 628.885 C 670.732 626.696, 669.598 624.785, 664.439 621.967 C 661.591 620.411, 659.295 618.210, 658.213 616.001 C 656.048 611.576, 652.776 610.887, 650.491 614.374 M 417.289 623.876 C 416.305 624.908, 414.488 626.063, 413.250 626.443 C 412.012 626.824, 411 627.559, 411 628.077 C 411 628.595, 413.248 627.844, 415.996 626.407 C 418.743 624.970, 420.742 623.391, 420.437 622.897 C 419.660 621.641, 419.319 621.747, 417.289 623.876 M 254.500 624.818 C 249.758 627.403, 243.980 631.149, 237.640 635.749 C 234.417 638.087, 230.978 640, 229.997 640 C 228.519 640, 227 641.815, 227 643.582 C 227 644.198, 238.158 644.065, 240.558 643.420 C 241.691 643.116, 243.491 641.209, 244.558 639.183 C 246.737 635.050, 253.270 628, 254.922 628 C 255.515 628, 256 627.325, 256 626.500 C 256 625.675, 256.873 625, 257.941 625 C 259.009 625, 260.160 624.550, 260.500 624 C 261.435 622.488, 257.888 622.971, 254.500 624.818 M 398.327 630.672 C 395.672 632.692, 393.050 634.893, 392.500 635.564 C 391.950 636.234, 389.571 637.973, 387.213 639.427 C 382.352 642.426, 382.494 644, 387.625 644 C 392.401 644, 395 642.421, 395 639.519 C 395 637.177, 395.766 636.534, 403 632.811 C 405.554 631.497, 407.911 629.095, 407.968 627.750 C 408.053 625.752, 402.635 627.394, 398.327 630.672 M 532 629.075 C 532 629.667, 530.763 630.026, 529.250 629.873 C 526.167 629.562, 521 632.510, 521 634.580 C 521 637.696, 530.649 639.225, 536.435 637.025 C 539.526 635.849, 539.899 632.123, 537.171 629.655 C 535.111 627.791, 532 627.442, 532 629.075 M 359.405 631.217 C 355.937 633.316, 354.495 636.687, 356.191 638.730 C 357.110 639.837, 359.081 640.108, 364.133 639.823 C 372.141 639.370, 375.269 637.278, 374.799 632.688 C 374.506 629.835, 374.370 629.770, 368.370 629.636 C 364.147 629.542, 361.358 630.034, 359.405 631.217 M 650.665 637.503 C 648.563 639.040, 648.533 641.368, 650.595 643.079 C 651.700 643.996, 654.693 644.317, 660.338 644.125 C 664.820 643.972, 668.612 643.721, 668.767 643.567 C 669.923 642.410, 667.165 640.237, 663.228 639.204 C 660.628 638.522, 657.112 637.586, 655.415 637.124 C 653.349 636.562, 651.781 636.687, 650.665 637.503 M 274.182 640.136 C 272.330 640.670, 271.039 641.624, 271.259 642.296 C 271.789 643.911, 277.933 644.356, 281.415 643.032 C 283.744 642.147, 284.009 641.716, 282.986 640.483 C 281.607 638.822, 279.088 638.723, 274.182 640.136 M 656 654.965 C 656 658.166, 662.901 660.587, 664.527 657.956 C 665.299 656.707, 663.123 653.806, 661.956 654.527 C 661.506 654.805, 660.856 654.575, 660.510 654.016 C 659.362 652.159, 656 652.866, 656 654.965 M 1084 674.500 C 1083.315 675.325, 1082.248 676.006, 1081.628 676.014 C 1081.007 676.022, 1078.511 677.822, 1076.080 680.014 C 1073.649 682.206, 1071.174 684.002, 1070.580 684.005 C 1069.986 684.007, 1068.150 685.272, 1066.500 686.816 C 1064.850 688.360, 1060.242 692.426, 1056.259 695.851 C 1047.207 703.636, 1046.557 705.660, 1051.390 711.010 C 1053.375 713.208, 1055 715.858, 1055 716.899 C 1055 717.941, 1051.161 723.002, 1046.468 728.146 C 1041.776 733.291, 1035.363 740.713, 1032.218 744.641 C 1025.654 752.838, 1022.618 755, 1017.673 755 C 1015.224 755, 1013.247 755.836, 1011.171 757.750 C 1009.531 759.263, 1006.888 761.471, 1005.299 762.657 C 1001.768 765.292, 995.770 777.222, 996.193 780.769 C 996.667 784.743, 998.644 784.525, 1001.377 780.195 C 1004.051 775.959, 1007.837 774.429, 1010.617 776.462 C 1012.933 778.155, 1011.676 782.749, 1007.745 786.955 C 1003.862 791.109, 1003.285 797.003, 1006.523 799.427 C 1008.283 800.745, 1008.637 800.727, 1009.750 799.263 C 1010.438 798.358, 1011 796.894, 1011 796.009 C 1011 792.038, 1016.439 790.618, 1019.345 793.829 C 1021.390 796.089, 1021.436 798.640, 1019.499 802.354 C 1018.132 804.975, 1018.177 805.440, 1020.049 808.068 C 1022.856 812.011, 1033.776 814.790, 1035.500 812 C 1035.840 811.450, 1035.261 811, 1034.214 811 C 1031.713 811, 1029 807.923, 1029 805.086 C 1029 803.716, 1030.461 801.585, 1032.716 799.665 C 1034.760 797.924, 1037.640 795.263, 1039.117 793.750 C 1040.594 792.237, 1042.260 791, 1042.820 791 C 1044.247 791, 1048 784.674, 1048 782.268 C 1048 779.738, 1052.090 775.610, 1056.276 773.917 C 1059.022 772.805, 1069.460 765.825, 1071 764.070 C 1071.275 763.756, 1073.525 761.854, 1076 759.842 C 1097.881 742.056, 1108.599 724.108, 1106.552 708.680 C 1105.563 701.226, 1098.626 686.245, 1092.869 679.129 C 1087.737 672.787, 1086.122 671.944, 1084 674.500 M 139.682 686.639 C 136.408 688.762, 131.507 695.070, 131.502 697.167 C 131.501 697.533, 131.162 698.171, 130.750 698.583 C 129.645 699.688, 129.837 705.781, 131 706.500 C 131.634 706.892, 132 719.157, 132 740 C 132 760.843, 131.634 773.108, 131 773.500 C 129.688 774.311, 129.708 779.702, 131.027 780.516 C 131.591 780.865, 131.929 781.710, 131.777 782.393 C 131.347 784.320, 135.902 790.366, 139.620 792.803 C 142.964 794.995, 143.101 795, 194.962 795 C 252.729 795, 248.111 795.520, 256.591 788.062 L 260.500 784.625 261 743.062 C 261.545 697.734, 261.257 694.487, 256.274 689.824 C 249.927 683.885, 251.887 684.069, 195.370 684.118 L 143.500 684.163 139.682 686.639 M 300.500 686.022 C 295.139 688.544, 293.833 689.790, 291.621 694.500 C 289.865 698.239, 289.755 701.265, 289.936 740.926 C 290.154 788.452, 289.907 786.776, 297.431 791.953 L 301.860 795 354.950 795 L 408.040 795 411.940 792.538 C 414.085 791.184, 417.001 788.554, 418.420 786.693 L 421 783.311 421 741.439 C 421 704.777, 420.792 699.003, 419.328 695.033 C 417.122 689.053, 416.240 688.020, 411.500 685.863 C 407.793 684.177, 403.727 684.047, 356 684.093 C 307.726 684.138, 304.249 684.259, 300.500 686.022 M 461.499 685.334 C 457.094 687.046, 454.017 689.459, 452.151 692.663 C 450.696 695.164, 450.466 700.805, 450.211 740.277 L 449.922 785.054 455.028 790.027 L 460.133 795 512.220 795 L 564.307 795 569.404 792.580 C 572.207 791.250, 575.850 788.745, 577.500 787.014 L 580.500 783.868 580.637 741.416 C 580.770 699.907, 580.726 698.870, 578.637 694.732 C 577.149 691.785, 574.930 689.565, 571.329 687.420 L 566.159 684.341 515.329 684.254 C 478.807 684.192, 463.655 684.496, 461.499 685.334 M 146.130 699.344 C 144.948 700.768, 144.368 772.713, 145.529 773.846 C 145.898 774.206, 147.975 772.506, 150.146 770.069 C 152.317 767.632, 154.920 765.157, 155.931 764.569 C 156.941 763.981, 162.034 760.013, 167.248 755.750 C 178.692 746.395, 180.461 746.073, 186.712 752.208 C 189.070 754.523, 191 756.972, 191 757.652 C 191 759.196, 194.903 762, 197.052 762 C 197.936 762, 201.394 759.525, 204.737 756.500 C 211.583 750.304, 215.674 749.383, 220.273 753 C 221.671 754.100, 223.007 755, 223.241 755 C 223.476 755, 225.617 756.800, 228 759 C 230.383 761.200, 232.833 763, 233.444 763 C 234.056 763, 236.760 765.475, 239.455 768.500 C 247.970 778.059, 247.637 779.296, 247.900 737.099 C 248.074 709.249, 247.836 700.017, 246.929 699.456 C 246.269 699.048, 223.558 698.567, 196.461 698.388 C 157.318 698.130, 146.974 698.326, 146.130 699.344 M 305.437 699.422 C 303.594 700.770, 303.483 702.611, 303.148 737.419 C 302.753 778.428, 302.484 777.071, 309.747 770.716 C 315.059 766.069, 320.699 762, 321.830 762 C 322.359 762, 324.093 760.519, 325.682 758.710 C 329.415 754.458, 337.877 748, 339.716 748 C 342.939 748, 349.814 753.232, 352.950 758.072 C 356.874 764.129, 358.376 764.892, 361.301 762.316 C 362.510 761.250, 364.625 759.614, 366 758.679 C 374.297 753.037, 376.168 752, 378.051 752 C 380.226 752, 386.511 756.972, 398.168 767.915 C 401.927 771.444, 405.340 773.994, 405.751 773.583 C 406.871 772.464, 407.121 701.774, 406.011 700 C 404.637 697.802, 308.409 697.249, 305.437 699.422 M 464.312 700.647 C 462.123 703.986, 462.541 775.887, 464.754 776.736 C 465.642 777.077, 466.877 776.519, 467.685 775.412 C 471.368 770.366, 476.678 765.484, 485.500 759.034 C 488.800 756.621, 492.818 753.381, 494.429 751.834 C 500.163 746.327, 504.295 747.158, 510.550 755.077 C 515.181 760.938, 517.173 761.653, 524 759.903 C 527.695 758.956, 529.744 757.713, 531.583 755.303 C 535.249 750.496, 539.153 750.759, 545.644 756.250 C 550.203 760.107, 561.370 769.068, 564.603 771.465 C 565.319 771.995, 566.106 772.220, 566.352 771.965 C 566.598 771.709, 566.997 755.632, 567.238 736.238 C 567.616 705.822, 567.471 700.806, 566.183 699.738 C 565.041 698.791, 553.069 698.500, 515.205 698.500 L 465.720 698.500 464.312 700.647 M 1026.839 711.495 C 1026.566 711.767, 1026.474 715.704, 1026.634 720.245 C 1026.861 726.707, 1027.258 728.570, 1028.462 728.823 C 1029.308 729.001, 1030 728.472, 1030 727.649 C 1030 726.825, 1031.869 724.372, 1034.154 722.198 C 1038.869 717.711, 1038.836 715.317, 1034.046 714.359 C 1032.395 714.029, 1030.530 713.138, 1029.900 712.379 C 1028.709 710.945, 1027.685 710.649, 1026.839 711.495 M 339.973 764.504 C 338.613 765.279, 336.600 766.383, 335.500 766.955 C 334.400 767.527, 330.800 769.698, 327.500 771.778 C 324.200 773.859, 320.038 776.164, 318.250 776.902 C 314.750 778.346, 314.287 779.222, 316.250 780.689 C 317.597 781.695, 318.649 781.693, 321 780.682 C 321.825 780.327, 326.325 779.916, 331 779.769 L 339.500 779.500 339.211 776.740 C 338.975 774.496, 339.583 773.588, 342.461 771.891 C 346.354 769.593, 346.949 767.169, 344.223 764.702 C 342.666 763.293, 342.139 763.268, 339.973 764.504 M 176.437 765.348 C 175.302 765.982, 172.152 768.343, 169.437 770.595 C 166.721 772.848, 163.150 775.537, 161.500 776.572 C 158.624 778.376, 157.048 779.931, 157.015 781 C 156.993 781.702, 173.025 781.308, 173.744 780.589 C 174.776 779.557, 183.557 779.957, 184.687 781.087 C 185.470 781.870, 185.962 781.870, 186.446 781.087 C 187.339 779.643, 193.293 779.693, 194.758 781.158 C 195.589 781.989, 196.281 782.012, 197.212 781.239 C 197.925 780.648, 200.064 780.014, 201.965 779.832 C 204.622 779.577, 205.547 778.962, 205.965 777.174 C 206.612 774.405, 213.394 770.029, 215.988 770.707 C 217.930 771.215, 219.173 774.138, 218.127 775.740 C 217.782 776.268, 216.439 777.260, 215.143 777.943 C 211.150 780.047, 214.148 781.146, 224.379 781.328 C 231.599 781.457, 234 781.182, 234 780.225 C 234 779.524, 232.821 778.502, 231.380 777.954 C 229.939 777.406, 226.001 774.550, 222.630 771.607 C 214.660 764.650, 213.110 764.211, 208.864 767.709 C 207.014 769.233, 204.953 771.213, 204.285 772.110 C 202.213 774.888, 196.817 776.787, 188.954 777.506 C 182.756 778.073, 181.177 777.919, 180.117 776.640 C 179.031 775.332, 179.230 774.679, 181.367 772.542 C 182.765 771.144, 184.605 770, 185.455 770 C 187.286 770, 187.508 766.908, 185.800 765.200 C 184.319 763.719, 179.210 763.800, 176.437 765.348 M 497.500 765.376 C 496.400 766.025, 493.843 768.061, 491.818 769.902 C 488.132 773.251, 485.467 775.024, 481.250 776.932 C 480.012 777.492, 479 778.756, 479 779.741 C 479 781.372, 479.733 781.470, 487.250 780.845 C 498.629 779.899, 519.782 779.838, 520.346 780.750 C 520.907 781.659, 526.745 781.588, 527.672 780.661 C 528.501 779.833, 539.451 779.784, 540.272 780.605 C 540.605 780.938, 544.167 781.211, 548.189 781.211 C 556.318 781.211, 557.864 779.695, 552.500 776.984 C 547.804 774.611, 543.073 770.805, 542.474 768.919 C 541.801 766.797, 537.268 765.532, 535.525 766.979 C 534.819 767.565, 533.987 769.314, 533.677 770.865 C 533.236 773.071, 532.175 774.034, 528.806 775.288 C 520.868 778.243, 517.307 778.465, 515.829 776.098 C 514.387 773.789, 512.022 773.378, 510.267 775.133 C 508.093 777.307, 505.696 775.258, 506.271 771.717 C 507.227 765.829, 502.511 762.420, 497.500 765.376 M 370.807 767.750 C 367.694 771.375, 367.667 772.120, 370.659 771.802 C 372.913 771.562, 373.563 771.940, 373.804 773.628 C 374.029 775.209, 373.438 775.924, 371.508 776.409 C 368.484 777.168, 367 776.497, 367 774.374 C 367 772.788, 363.740 773.255, 361.319 775.188 C 360.670 775.706, 357.520 776.387, 354.319 776.701 C 347.544 777.365, 344.893 778.801, 347.623 780.329 C 349.589 781.429, 356.675 781.658, 357.679 780.654 C 358.794 779.539, 381.823 779.905, 382.530 781.049 C 382.974 781.767, 383.619 781.731, 384.576 780.937 C 385.375 780.274, 386.731 780.103, 387.737 780.539 C 390.694 781.819, 391.460 781.803, 392.736 780.438 C 393.722 779.382, 393.134 778.406, 389.731 775.458 C 387.404 773.441, 384.381 771.276, 383.014 770.646 C 381.646 770.016, 379.734 768.712, 378.764 767.750 C 377.794 766.788, 375.945 766, 374.655 766 C 373.365 766, 371.634 766.788, 370.807 767.750 M 139.242 813.034 C 133.935 815.166, 134.100 822.947, 139.495 824.998 C 141.014 825.575, 162.832 825.866, 194.403 825.728 C 244.341 825.511, 246.890 825.411, 248.896 823.595 C 251.564 821.179, 251.593 817.014, 248.961 814.189 L 246.922 812 194.211 812.063 C 165.152 812.098, 140.487 812.534, 139.242 813.034 M 298.023 814.634 C 293.795 818.192, 294.163 821.822, 299 824.275 C 302.242 825.920, 306.270 826.027, 353.733 825.733 C 403.618 825.424, 405.039 825.362, 407.733 823.359 C 411.880 820.276, 411.913 816.527, 407.814 814.028 C 404.602 812.070, 402.911 812.007, 352.827 812.004 L 301.153 812 298.023 814.634 M 456.073 814.635 C 453.338 818.112, 453.457 820.548, 456.513 823.604 L 459.027 826.118 511.763 825.590 C 540.769 825.299, 565.030 825.048, 565.679 825.031 C 567.931 824.972, 570 821.838, 570 818.485 C 570 811.810, 571.703 812, 511.850 812 L 458.145 812 456.073 814.635 M 141.418 837.850 C 140.363 838.042, 138.488 839.133, 137.250 840.274 C 133.405 843.819, 134.694 848.802, 140.027 851.011 C 143.773 852.563, 203.410 851.582, 208.750 849.880 C 213.932 848.229, 214.498 842.683, 209.800 839.604 C 207.887 838.351, 201.999 838.042, 175.414 837.796 C 157.772 837.633, 142.473 837.657, 141.418 837.850 M 488.660 837.976 L 457.821 838.500 455.910 840.861 C 453.413 843.947, 453.500 845.308, 456.415 848.694 L 458.829 851.500 491.165 851.288 C 508.949 851.171, 524.288 851.058, 525.250 851.038 C 527.760 850.984, 531 847.398, 531 844.674 C 531 841.525, 527.259 838.333, 523 837.850 C 521.075 837.631, 505.622 837.688, 488.660 837.976 M 296.803 840.885 C 293.843 843.529, 293.675 843.992, 294.788 846.433 C 297.070 851.444, 299.451 851.744, 333.355 851.301 C 350.485 851.077, 365.500 850.688, 366.722 850.435 C 369.490 849.863, 373 846.200, 373 843.884 C 373 842.928, 371.814 841.212, 370.365 840.073 C 367.817 838.069, 366.611 838, 333.881 838 L 300.032 838 296.803 840.885" stroke="none" fill="#171916" fill-rule="evenodd"/>
</svg>