<svg role="img" aria-labelledby="artwork-title" shape-rendering="geometricPrecision" xmlns="http://www.w3.org/2000/svg" width="1200" height="1200" viewBox="0 0 1200 1200" version="1.1">
	<title id="artwork-title">Mascot pointing toward a website preview</title>
	<path d="M 960 279.912 C 960 280.414, 958.087 281.139, 955.750 281.523 C 950.058 282.460, 942.225 286.229, 937.521 290.295 L 933.677 293.618 930.589 290.443 C 922.928 282.567, 905.118 279.006, 890.769 282.481 C 878.952 285.343, 867.221 294.654, 862.987 304.530 C 861.500 308, 860.549 309, 858.736 309 C 857.451 309, 855.895 308.495, 855.277 307.877 C 854.543 307.143, 850.883 306.898, 844.692 307.169 C 836.187 307.541, 834.434 307.971, 827.365 311.427 C 819.122 315.456, 817.394 317.019, 811.258 326 C 806.849 332.452, 805.101 337.264, 804.174 345.490 L 803.500 351.480 798.776 352.153 C 794.173 352.810, 788 356.198, 788 358.068 C 788 358.581, 787.325 359, 786.500 359 C 785.675 359, 785 359.675, 785 360.500 C 785 361.325, 784.427 362, 783.727 362 C 781.656 362, 777.079 372.094, 774.984 381.281 C 772.977 390.080, 776.108 403.785, 781.545 410 C 783.633 412.387, 783.620 412.710, 781.331 415.169 C 778.769 417.922, 776 427.897, 776 434.374 C 776 440.383, 778.494 446.656, 782.612 451.007 C 785.850 454.428, 785.902 454.618, 784.699 458.691 C 784.021 460.988, 783.136 463.197, 782.733 463.600 C 781.540 464.793, 781.893 468.632, 783.474 471.669 C 784.284 473.226, 785.700 476.219, 786.621 478.320 L 788.294 482.139 783.300 487.320 C 776.527 494.346, 774.182 497.985, 772.411 504.216 C 771.585 507.122, 770.420 510.482, 769.822 511.683 C 769.224 512.883, 768.999 514.556, 769.323 515.401 C 769.648 516.245, 769.482 517.202, 768.956 517.527 C 767.764 518.264, 767.687 526.688, 768.866 527.417 C 769.342 527.711, 769.508 529.120, 769.236 530.548 C 768.963 531.976, 769.217 534.124, 769.800 535.322 C 770.383 536.520, 771.397 539.300, 772.052 541.500 C 772.707 543.700, 774.200 547.069, 775.371 548.986 C 776.542 550.903, 777.959 553.369, 778.520 554.466 C 779.081 555.563, 780.604 556.991, 781.905 557.640 C 785.490 559.427, 785.902 560.728, 785.857 570.120 C 785.834 574.887, 786.250 579.623, 786.780 580.644 C 787.310 581.665, 788.069 584.738, 788.467 587.473 C 788.864 590.208, 790.606 595.158, 792.337 598.473 C 794.067 601.788, 795.506 604.725, 795.534 605 C 795.685 606.510, 799.144 611.812, 801.278 613.805 C 802.635 615.073, 804.561 617.998, 805.558 620.305 C 807.802 625.500, 810.813 629, 813.038 629 C 813.968 629, 815.967 630.788, 817.482 632.974 C 818.997 635.160, 822.208 638.104, 824.618 639.516 C 829.939 642.635, 830.177 643.736, 825.409 643.179 C 823.433 642.949, 820.846 643.245, 819.659 643.838 C 818.471 644.431, 812.775 645.662, 807 646.574 C 795.217 648.434, 787.122 650.329, 784.137 651.927 C 783.034 652.517, 781.180 653, 780.016 653 C 778.853 653, 776.461 653.769, 774.700 654.708 C 772.940 655.648, 771.275 656.472, 771 656.540 C 770.725 656.608, 767.421 658.089, 763.657 659.832 C 759.893 661.574, 756.518 663.002, 756.157 663.005 C 755.320 663.011, 743.602 669.051, 739 671.848 C 731.672 676.301, 728.254 676.601, 721.800 673.357 C 720.314 672.611, 717.984 672, 716.621 672 C 715.258 672, 713.446 671.303, 712.594 670.451 C 711.742 669.599, 710.472 668.995, 709.772 669.109 C 709.073 669.222, 707.825 669.070, 707 668.771 C 702.380 667.093, 694.507 665, 692.819 665 C 691.746 665, 689.998 664.534, 688.934 663.965 C 687.042 662.952, 687 660.794, 687 564.764 C 687 451.373, 687.570 458.706, 678 449 C 674.901 445.857, 670.754 442.788, 668.500 441.969 C 665.052 440.716, 631.963 440.478, 428.536 440.247 C 194.414 439.981, 192.525 439.995, 186.536 441.991 C 180.436 444.024, 174 448.537, 174 450.780 C 174 451.451, 173.427 452, 172.727 452 C 171.198 452, 168.499 456.999, 167.058 462.500 C 166.344 465.230, 166.009 538.652, 166.006 693.794 L 166 921.088 173.199 920.794 L 180.398 920.500 180.309 727 C 180.254 606.220, 180.578 533.059, 181.170 532.325 C 181.894 531.430, 240.385 531.227, 427.123 531.472 C 561.875 531.648, 672.329 531.996, 672.578 532.245 C 672.900 532.567, 673.216 627.799, 673.008 661.750 C 673.003 662.487, 671.667 663.009, 669.750 663.022 C 664.204 663.059, 657.486 666.866, 653.227 672.385 C 650.239 676.256, 649.984 687.984, 652.826 690.826 C 653.831 691.831, 654.934 693.386, 655.278 694.281 C 656.133 696.510, 664.889 702.782, 668.181 703.524 C 669.655 703.857, 671.381 704.754, 672.015 705.518 C 672.867 706.545, 673.211 734.752, 673.334 813.703 L 673.500 920.500 680 920.500 L 686.500 920.500 686.755 815.750 C 686.998 715.549, 687.088 711, 688.813 711 C 689.806 711, 691.491 711.661, 692.559 712.468 C 693.626 713.276, 695.513 713.951, 696.750 713.968 C 699.620 714.009, 699.578 714.702, 696.327 720.967 C 692.979 727.421, 692.067 735.928, 694.351 739.412 C 695.595 741.312, 695.898 744.121, 695.723 752.174 C 695.510 762.025, 695.629 762.691, 698.315 766.647 C 700.638 770.069, 701.011 771.425, 700.451 774.409 C 699.430 779.851, 700.850 788.850, 703.082 791.082 C 704.137 792.137, 704.812 793, 704.582 793 C 704.353 793, 706.323 795.138, 708.961 797.750 C 714.823 803.556, 723.544 807.302, 730.237 806.890 C 734.296 806.641, 735.449 807.100, 740.651 811.042 C 748.253 816.802, 758.171 821.342, 765 822.190 L 767.500 822.500 767.204 841 C 767.041 851.175, 766.495 866.250, 765.990 874.500 C 765.486 882.750, 764.944 896.475, 764.786 905 L 764.500 920.500 914.947 920.753 C 997.692 920.893, 1065.698 920.668, 1066.069 920.253 C 1066.441 919.839, 1066.450 908.475, 1066.088 895 C 1065.701 880.579, 1065.811 869.677, 1066.355 868.500 C 1066.863 867.400, 1069.129 864.452, 1071.390 861.950 C 1078.901 853.635, 1090 838.941, 1090 837.312 C 1090 835.880, 1094.168 828.106, 1095.550 826.958 C 1096.348 826.297, 1097 825.172, 1097 824.459 C 1097 823.746, 1097.751 821.663, 1098.669 819.831 C 1101.419 814.344, 1101.714 813.581, 1102.488 809.967 C 1102.897 808.060, 1103.567 806.050, 1103.978 805.500 C 1104.388 804.950, 1105.027 803.150, 1105.397 801.500 C 1105.766 799.850, 1106.683 797.150, 1107.433 795.500 C 1111.816 785.858, 1113.282 760.133, 1110.423 743 C 1109.460 737.225, 1108.115 731.600, 1107.434 730.500 C 1106.753 729.400, 1105.870 726.940, 1105.471 725.033 C 1105.072 723.126, 1104.402 720.876, 1103.982 720.033 C 1103.563 719.190, 1101.595 715.013, 1099.611 710.750 C 1097.626 706.487, 1095.529 703, 1094.950 703 C 1094.372 703, 1093.213 701.361, 1092.376 699.358 C 1090.637 695.196, 1068.962 673, 1066.636 673 C 1065.799 673, 1064.413 672, 1063.557 670.777 C 1062.701 669.555, 1061.993 668.993, 1061.985 669.527 C 1061.976 670.062, 1061.639 670.001, 1061.235 669.392 C 1060.439 668.192, 1046.318 660, 1045.045 660 C 1044.619 660, 1043.100 659.080, 1041.670 657.955 C 1040.240 656.831, 1038.717 655.870, 1038.285 655.820 C 1037.853 655.770, 1036.150 655.142, 1034.500 654.424 C 1029.087 652.070, 1015.770 647, 1014.999 647 C 1014.584 647, 1012.502 646.241, 1010.372 645.314 C 1008.242 644.387, 1006.163 643.712, 1005.750 643.814 C 1003.628 644.340, 1005.453 640.838, 1008.600 638.348 C 1018.551 630.474, 1030.707 616.312, 1034.896 607.713 C 1036.695 604.021, 1038.467 601.020, 1038.833 601.044 C 1040.688 601.167, 1048.997 603.664, 1049.618 604.285 C 1050.636 605.303, 1054.776 605.171, 1055.438 604.100 C 1055.744 603.606, 1058.358 602.674, 1061.247 602.031 C 1072.933 599.427, 1084.138 591.367, 1092.352 579.654 C 1098.967 570.221, 1102 560.116, 1102 547.510 C 1102 540.205, 1099.818 529.610, 1097.889 527.550 C 1097.400 527.028, 1097 525.898, 1097 525.041 C 1097 524.183, 1096.100 522.919, 1095 522.232 C 1092.224 520.498, 1092.431 519.661, 1097.091 513.765 C 1104.670 504.178, 1106.978 495.443, 1104.728 484.874 C 1104.003 481.468, 1104.251 480.947, 1108.806 476.294 C 1116.530 468.406, 1120.806 457.339, 1119.651 448.226 C 1117.881 434.261, 1116.495 430.851, 1109.629 423.582 C 1105.173 418.865, 1104.690 416.837, 1107.469 414.500 C 1109.618 412.692, 1112 403.757, 1112 397.500 C 1112 390.569, 1109.977 383.758, 1105.823 376.706 C 1104.271 374.069, 1103 371.570, 1103 371.152 C 1103 369.549, 1096.261 364.157, 1091 361.550 C 1087.975 360.051, 1084.226 358.189, 1082.669 357.412 C 1081.112 356.636, 1078.804 356, 1077.541 356 C 1075.047 356, 1072.485 353.642, 1073.390 352.179 C 1074.410 350.527, 1071.247 336.931, 1069.356 334.841 C 1068.335 333.713, 1067.689 332.725, 1067.920 332.645 C 1069.001 332.272, 1062.695 323.893, 1058.830 320.564 C 1049.687 312.693, 1038.163 309.317, 1026.690 311.149 C 1022.735 311.781, 1018.995 312.689, 1018.377 313.166 C 1016.274 314.792, 1013.930 312.768, 1012.734 308.294 C 1011.186 302.507, 1003.885 293.469, 997.047 288.875 C 991.918 285.429, 980.439 280.954, 976.809 280.986 C 975.879 280.993, 974.840 280.550, 974.500 280 C 973.727 278.749, 960 278.666, 960 279.912 M 891.065 296.297 C 884.553 298.660, 876 305.014, 876 307.486 C 876 308.227, 875.477 309.008, 874.837 309.221 C 873.557 309.648, 872.735 313, 873.911 313 C 874.314 313, 876.650 310.863, 879.102 308.250 C 883.224 303.857, 887.500 301.229, 895.740 298.025 C 900.786 296.064, 910.572 297.129, 916.888 300.328 C 919.852 301.829, 922.522 302.811, 922.822 302.512 C 923.637 301.696, 922.019 300.381, 916.781 297.597 C 909.606 293.784, 899.407 293.268, 891.065 296.297 M 957.089 295.022 C 951.275 296.246, 942.606 301.534, 938.387 306.430 C 935.209 310.117, 934.046 313.012, 935.750 312.990 C 936.497 312.981, 943.917 307.544, 947.250 304.564 C 948.212 303.704, 949.563 302.997, 950.250 302.994 C 950.938 302.990, 952.850 302.256, 954.500 301.361 C 959.266 298.777, 973.933 299.131, 981.449 302.012 C 990.267 305.392, 996.851 312.091, 1000.605 321.500 C 1001.285 323.205, 1001.455 323.028, 1001.761 320.296 C 1002.521 313.509, 990.916 300.163, 981.224 296.677 C 975.254 294.531, 963.311 293.712, 957.089 295.022 M 839.500 320.996 C 838.400 321.470, 836.212 322.136, 834.637 322.476 C 828.517 323.799, 817.085 338.253, 817.022 344.750 C 816.988 348.274, 818.705 347.384, 819.434 343.500 C 819.795 341.575, 820.478 340, 820.951 340 C 821.424 340, 823.204 337.898, 824.906 335.329 C 826.608 332.759, 828.014 331.072, 828.030 331.579 C 828.047 332.085, 828.503 331.743, 829.043 330.817 C 829.583 329.891, 832.607 327.900, 835.762 326.392 C 841.810 323.503, 849.350 322.755, 855.750 324.410 C 858.254 325.057, 859 324.933, 859 323.868 C 859 320.907, 844.626 318.790, 839.500 320.996 M 1017 327.251 C 1013.045 329.166, 1012.788 329.475, 1014.878 329.801 C 1016.187 330.006, 1019.200 329.683, 1021.575 329.085 C 1025.631 328.064, 1033.214 328.823, 1038 330.730 C 1038.825 331.058, 1039.725 331.381, 1040 331.447 C 1044.740 332.580, 1057 345.262, 1057 349.031 C 1057 350.049, 1057.450 351.160, 1058 351.500 C 1058.593 351.867, 1059 350.711, 1059 348.660 C 1059 346.194, 1057.643 343.186, 1054.265 338.169 C 1051.661 334.301, 1049.343 331.323, 1049.114 331.552 C 1048.885 331.782, 1048.203 331.325, 1047.599 330.539 C 1046.994 329.753, 1044.121 328.185, 1041.213 327.055 C 1033.879 324.205, 1023.113 324.292, 1017 327.251 M 170.728 334.073 C 168.678 335.763, 166.994 337.900, 166.986 338.823 C 166.956 342.444, 170.473 363, 171.123 363 C 171.502 363, 171.577 363.902, 171.288 365.005 C 171 366.108, 171.284 367.637, 171.919 368.402 C 172.554 369.168, 173.464 373.275, 173.941 377.529 C 175.038 387.309, 177.670 390.660, 183.410 389.583 C 189.238 388.490, 190.333 385.808, 189.026 375.835 C 187.870 367.021, 186.144 357.502, 185.249 355 C 184.954 354.175, 184.807 352.307, 184.921 350.849 C 185.036 349.391, 184.651 347.902, 184.065 347.540 C 183.479 347.178, 183 344.899, 183 342.476 C 183 338.973, 182.363 337.345, 179.896 334.535 C 178.189 332.591, 176.267 331, 175.624 331 C 174.982 331, 172.778 332.383, 170.728 334.073 M 1002.515 331.976 C 1001.785 333.157, 1004.734 335.282, 1006.009 334.494 C 1006.612 334.122, 1006.945 333.335, 1006.749 332.746 C 1006.313 331.439, 1003.197 330.872, 1002.515 331.976 M 805.542 362.729 C 798.703 364.467, 787.723 376.813, 789.219 381.085 C 789.523 381.955, 790.331 381.047, 791.317 378.724 C 793.630 373.275, 802.063 365.398, 806.469 364.572 C 808.442 364.202, 809.792 363.472, 809.469 362.949 C 808.850 361.949, 808.658 361.938, 805.542 362.729 M 107.354 370.446 C 104.340 373.460, 103.855 374.526, 104.356 377.032 C 104.685 378.677, 106.237 381.255, 107.804 382.762 C 116.448 391.067, 132.376 405.550, 133.212 405.864 C 133.745 406.063, 135.646 407.826, 137.437 409.780 C 141.699 414.431, 146.074 414.661, 149.544 410.417 C 152.943 406.259, 152.607 404.563, 147.250 398.836 C 138.136 389.091, 115.482 368.270, 113.225 367.562 C 111.428 366.999, 110.196 367.604, 107.354 370.446 M 1059 370 C 1059 371.313, 1059.667 372, 1060.941 372 C 1063.437 372, 1064.666 370.036, 1062.878 368.904 C 1060.576 367.445, 1059 367.891, 1059 370 M 1068.250 368.731 C 1064.991 369.322, 1065.490 370.730, 1069.250 371.550 C 1074.592 372.714, 1083.309 376.926, 1086.295 379.784 C 1089.176 382.543, 1093.950 391.588, 1094.414 395.167 C 1094.461 395.533, 1094.838 396.171, 1095.250 396.583 C 1095.662 396.996, 1096 398.582, 1096 400.108 C 1096 401.634, 1096.450 403.160, 1097 403.500 C 1098.350 404.334, 1098.290 395.585, 1096.912 390.621 C 1095.284 384.760, 1089.988 377.923, 1083.928 373.862 C 1080.943 371.861, 1078.316 370.394, 1078.092 370.603 C 1077.868 370.812, 1077.193 370.599, 1076.592 370.129 C 1075.069 368.939, 1070.930 368.246, 1068.250 368.731 M 870.643 379.500 C 869.739 380.404, 869 381.697, 869 382.375 C 869 383.053, 867.538 384.958, 865.750 386.608 C 862.057 390.016, 851 397.348, 851 396.388 C 851 396.040, 850.255 396.373, 849.344 397.128 C 848.229 398.052, 845.301 398.450, 840.381 398.345 C 832.433 398.177, 832.847 397.867, 831.477 405 C 830.459 410.297, 826.626 416.246, 821.555 420.402 C 817.782 423.493, 817 424.715, 817 427.515 C 817 429.375, 815.920 434.407, 814.600 438.698 C 813.280 442.989, 811.645 449.650, 810.967 453.500 C 810.289 457.350, 809.485 460.932, 809.179 461.459 C 808.873 461.987, 808.744 464.373, 808.890 466.762 C 809.037 469.151, 808.617 471.757, 807.956 472.553 C 807.019 473.683, 807.032 474.334, 808.019 475.523 C 809.148 476.884, 809.541 476.876, 811.722 475.447 C 813.064 474.567, 814.771 474.082, 815.516 474.368 C 816.261 474.654, 817.026 474.422, 817.215 473.854 C 817.623 472.631, 847.315 472.453, 849.246 473.662 C 849.936 474.094, 850.950 474.485, 851.500 474.531 C 852.050 474.577, 853.175 474.853, 854 475.144 C 854.825 475.435, 858.617 476.684, 862.426 477.920 C 872.052 481.042, 878.087 485.715, 881.474 492.669 L 883.017 495.839 892.426 495.277 C 899.646 494.847, 903.004 495.098, 906.856 496.358 C 913.602 498.565, 915.487 498.432, 917.329 495.620 C 918.827 493.334, 929 486.371, 929 487.632 C 929 487.969, 929.641 487.713, 930.425 487.062 C 934.028 484.072, 969.070 484.153, 972.692 487.160 C 973.412 487.757, 974 487.875, 974 487.422 C 974 486.970, 974.540 487.140, 975.200 487.800 C 975.860 488.460, 977.172 489, 978.115 489 C 979.058 489, 983.464 490.388, 987.907 492.085 C 994.893 494.752, 996.740 496.003, 1001.565 501.335 L 1007.144 507.500 1019.822 509.110 C 1026.795 509.996, 1033.214 510.357, 1034.086 509.913 C 1036.739 508.562, 1036.431 500.957, 1033.516 495.859 C 1032.145 493.462, 1031.019 490.514, 1031.012 489.309 C 1031.005 488.104, 1030.550 486.840, 1030 486.500 C 1029.450 486.160, 1029 484.135, 1029 482 C 1029 479.865, 1029.450 477.840, 1030 477.500 C 1030.550 477.160, 1031.002 475.896, 1031.004 474.691 C 1031.006 473.486, 1031.955 470.946, 1033.112 469.047 L 1035.217 465.594 1032.859 463.723 C 1027.200 459.232, 1023.138 454.819, 1021.420 451.293 C 1018.817 445.952, 1018.260 433.331, 1020.441 429.113 C 1021.344 427.369, 1021.861 425.585, 1021.592 425.149 C 1021.322 424.713, 1018.583 424.290, 1015.505 424.209 C 1012.427 424.128, 1009.367 423.717, 1008.704 423.296 C 1008.042 422.875, 1007.219 422.524, 1006.876 422.515 C 1006.533 422.507, 1003.971 421.022, 1001.182 419.215 C 993.809 414.438, 987.020 405.153, 986.985 399.800 C 986.968 397.274, 985.043 393.420, 985.015 395.857 C 985.006 396.639, 984.376 396.974, 983.526 396.649 C 982.716 396.338, 981.703 396.700, 981.276 397.454 C 980.849 398.207, 977.585 399.578, 974.021 400.499 C 966.918 402.335, 959.165 401.914, 953.023 399.358 C 947.235 396.951, 937.173 388.757, 935.391 385 C 934.478 383.075, 933.607 381.353, 933.455 381.172 C 933.302 380.992, 930.896 382.414, 928.107 384.333 C 922.881 387.927, 918.005 389.930, 909.736 391.878 C 897.895 394.667, 886.089 391.232, 876.893 382.321 C 872.620 378.180, 872.167 377.976, 870.643 379.500 M 1100 435.319 C 1100 436.659, 1100.648 438.293, 1101.440 438.950 C 1102.232 439.607, 1103.071 441.125, 1103.304 442.323 C 1103.658 444.141, 1103.750 444.057, 1103.864 441.809 C 1103.939 440.329, 1103.550 438.840, 1103 438.500 C 1102.450 438.160, 1102 437.035, 1102 436 C 1102 434.965, 1101.550 433.840, 1101 433.500 C 1100.438 433.153, 1100 433.949, 1100 435.319 M 85 438.500 C 84.315 439.325, 82.910 440, 81.878 440 C 80.304 440, 80 440.770, 80 444.764 C 80 449.315, 80.167 449.600, 83.750 451.143 C 88.064 453.001, 111.341 455.500, 124.332 455.500 C 131.921 455.500, 133.363 455.227, 134.582 453.559 C 138.542 448.138, 133.934 442.508, 124.274 440.966 C 116.391 439.707, 92.106 436.981, 88.872 436.991 C 87.427 436.996, 85.685 437.675, 85 438.500 M 848.500 446.632 C 847.400 446.899, 845.825 447.385, 845 447.712 C 844.175 448.040, 842.677 448.204, 841.671 448.077 C 839.430 447.796, 833.617 450.415, 829.250 453.676 C 825.074 456.793, 824.826 460.931, 828.635 463.927 C 831.608 466.266, 834.632 466.471, 843.469 464.932 C 848.394 464.074, 850.934 464.173, 856.363 465.432 C 860.082 466.294, 864.017 467, 865.108 467 C 868.395 467, 872 462.567, 872 458.525 C 872 455.424, 871.401 454.537, 867.412 451.729 C 864.888 449.953, 862.301 448.488, 861.662 448.474 C 861.023 448.459, 860.007 448.138, 859.405 447.760 C 857.842 446.780, 850.865 446.058, 848.500 446.632 M 191.319 455.158 C 189.545 455.640, 186.584 457.836, 184.627 460.123 C 180.121 465.387, 179.738 468.465, 180.166 496.001 L 180.500 517.500 426.750 517.752 L 673 518.004 673 492.213 C 673 461.937, 672.618 460.368, 664.264 456.331 L 659.500 454.029 427 454.162 C 299.125 454.235, 193.068 454.683, 191.319 455.158 M 944.317 460.003 C 940.877 462.282, 939.488 466.112, 940.557 470.372 C 940.920 471.817, 941.843 473, 942.608 473 C 943.374 473, 944 473.477, 944 474.059 C 944 474.641, 944.450 474.840, 945 474.500 C 945.550 474.160, 946 474.359, 946 474.941 C 946 476.077, 950.248 476.418, 951.300 475.367 C 952.329 474.337, 961.267 474.701, 964.315 475.896 C 965.863 476.503, 967.582 477, 968.135 477 C 968.687 477, 972.455 478.381, 976.508 480.068 C 982.337 482.494, 984.294 482.913, 985.869 482.070 C 988.013 480.923, 992 475.814, 992 474.214 C 992 471.616, 978.690 461.887, 974.500 461.423 C 973.950 461.362, 972.150 460.735, 970.500 460.030 C 968.850 459.324, 963 458.555, 957.500 458.321 C 948.582 457.940, 947.156 458.122, 944.317 460.003 M 212.589 477.250 C 204.386 485.051, 206.507 494.267, 217.750 499.667 C 220.684 501.076, 221.316 501.078, 224.250 499.683 C 235.828 494.181, 237.080 482.289, 226.796 475.484 C 221.219 471.793, 217.894 472.206, 212.589 477.250 M 255 473.706 C 252.668 474.559, 248.954 478.223, 247.405 481.200 C 244.312 487.144, 247.125 496.008, 252.750 498.046 C 254.263 498.593, 256.424 499.511, 257.553 500.084 C 261.049 501.860, 268.003 497.502, 270.858 491.747 C 273.878 485.657, 273.198 482.806, 267.401 477.250 C 263.009 473.042, 259.534 472.049, 255 473.706 M 291.202 475.969 C 286.149 479.629, 285 481.689, 285 487.090 C 285 491.442, 288.781 497.993, 291.301 498.006 C 291.960 498.010, 293.816 498.699, 295.424 499.537 C 298.050 500.907, 298.683 500.904, 301.618 499.511 C 306.848 497.029, 311 491.269, 311 486.495 C 311 481.640, 309.151 478.752, 303.934 475.458 C 298.853 472.251, 296.187 472.358, 291.202 475.969 M 829 487.063 C 829 487.647, 828.205 487.991, 827.233 487.826 C 824.181 487.309, 818.275 491.643, 813.296 498.054 C 810.658 501.451, 808.500 504.591, 808.500 505.032 C 808.500 505.473, 808.163 506.171, 807.750 506.583 C 806.605 507.728, 806.857 510.793, 808.162 511.600 C 808.827 512.011, 810.132 511.289, 811.214 509.909 C 814.861 505.262, 823.555 496.747, 829.228 492.264 C 832.379 489.775, 834.715 487.348, 834.419 486.869 C 833.651 485.626, 829 485.792, 829 487.063 M 786.830 502.752 C 783.182 510.608, 782.670 512.161, 782.910 514.654 C 783.025 515.839, 782.642 517.104, 782.059 517.464 C 780.700 518.304, 780.672 526.680, 782.027 527.516 C 782.591 527.865, 782.970 528.679, 782.869 529.325 C 782.767 529.971, 782.958 531.175, 783.293 532 C 783.627 532.825, 784.391 535.413, 784.989 537.750 C 785.588 540.087, 786.414 542, 786.827 542 C 788.041 542, 791.259 519.400, 791.703 507.750 C 792.189 495.023, 790.991 493.794, 786.830 502.752 M 944.841 498.980 C 940.657 500.236, 933.395 505.646, 929.273 510.578 C 927.198 513.061, 925.484 515.408, 925.465 515.796 C 925.445 516.183, 924.862 517.522, 924.168 518.771 C 922.922 521.016, 923.305 523, 924.985 523 C 925.461 523, 930.047 518.924, 935.176 513.942 C 940.304 508.960, 945.750 504.131, 947.279 503.210 C 949.934 501.609, 950.616 498.936, 948.500 498.424 C 947.950 498.290, 946.304 498.541, 944.841 498.980 M 889.823 508.709 C 886.300 509.248, 884.915 511.071, 883.900 516.505 C 883.439 518.971, 881.618 524.459, 879.852 528.700 C 875.824 538.376, 867.414 547.144, 857.639 551.859 C 851.551 554.795, 850.409 555, 840.128 555 C 834.027 555, 827.877 554.481, 826.315 553.834 C 824.767 553.192, 823.275 552.591, 823 552.497 C 818.514 550.971, 806.032 542.959, 806.013 541.594 C 806.006 541.096, 804.763 539.071, 803.250 537.094 L 800.500 533.500 799.891 541.500 C 799.388 548.112, 799.613 550.247, 801.191 553.805 C 802.241 556.173, 802.838 558.936, 802.517 559.945 C 802.096 561.272, 803.052 562.665, 805.969 564.976 C 809.083 567.442, 810.150 569.083, 810.643 572.171 C 810.995 574.371, 811.782 576.320, 812.392 576.502 C 813.001 576.684, 814.751 577.108, 816.280 577.443 C 818.356 577.899, 819.211 578.807, 819.655 581.027 C 819.982 582.662, 820.644 584, 821.125 584 C 821.606 584, 821.887 584.563, 821.750 585.250 C 821.578 586.110, 822.632 586.402, 825.127 586.186 C 828.204 585.919, 829.135 586.357, 831.257 589.069 C 833.711 592.205, 836 592.373, 836 589.419 C 836 586.571, 842.141 574.456, 845.169 571.328 C 846.859 569.584, 849.312 567.888, 850.620 567.559 C 851.929 567.231, 853 566.494, 853 565.922 C 853 565.350, 853.450 565.160, 854 565.500 C 854.550 565.840, 855 565.690, 855 565.166 C 855 563.900, 857.446 562.986, 863.500 561.988 C 866.250 561.535, 870.371 560.633, 872.659 559.983 C 876.116 559.002, 877.296 559.064, 879.659 560.350 C 886.251 563.938, 887.245 564.141, 892.287 562.931 C 898.585 561.420, 905.033 562.176, 908.813 564.867 C 910.461 566.040, 913 567, 914.456 567 C 915.912 567, 918.768 567.889, 920.802 568.975 C 922.836 570.062, 926.075 571.638, 928 572.477 C 932.345 574.373, 939.658 581.133, 943.393 586.706 C 945.531 589.897, 946.420 592.773, 947.076 598.626 C 948.143 608.139, 949.061 609.274, 952.798 605.693 C 956.127 602.504, 959.989 602.226, 962.494 604.994 C 964.282 606.969, 964.327 606.955, 967.434 603.361 C 970.677 599.609, 973.313 598.960, 979.099 600.489 C 981.329 601.078, 981.989 600.684, 983.740 597.715 C 984.863 595.812, 987.140 593.578, 988.799 592.750 C 991.488 591.409, 991.981 591.410, 993.331 592.759 C 995.434 594.862, 997.686 593.704, 998.475 590.115 C 999.491 585.486, 1002.703 582, 1005.950 582 C 1009.239 582, 1010.517 580.680, 1011.449 576.318 C 1011.891 574.248, 1013.681 571.863, 1016.565 569.501 C 1019.306 567.254, 1021.011 565.032, 1021.028 563.683 C 1021.043 562.482, 1022.339 560.242, 1023.907 558.704 C 1025.663 556.982, 1027.002 554.388, 1027.391 551.954 C 1027.774 549.562, 1028.569 548, 1029.405 548 C 1031.259 548, 1031.999 545.772, 1032.006 540.168 C 1032.009 537.601, 1032.496 533.754, 1033.089 531.619 C 1034.530 526.428, 1033.450 525.586, 1023.500 524.145 C 1008.648 521.995, 1006 522.761, 1006 529.212 C 1006 530.501, 1005.299 532.555, 1004.443 533.777 C 1003.587 535, 1003.168 536, 1003.511 536 C 1003.855 536, 1003.206 537.307, 1002.068 538.904 C 1000.931 540.502, 1000 542.096, 1000 542.447 C 1000 543.601, 992.293 553.434, 988.861 556.659 C 987.013 558.396, 982.433 561.460, 978.684 563.468 C 962.711 572.021, 942.216 570.912, 928.707 560.762 C 926.943 559.437, 924.771 558.085, 923.879 557.757 C 922.509 557.254, 912.530 541.763, 912.485 540.068 C 912.476 539.756, 912.141 538.983, 911.739 538.352 C 910.475 536.367, 908.836 521.940, 909.442 518.137 C 910.209 513.319, 909.402 512.341, 902.709 509.989 C 897.193 508.050, 895.336 507.866, 889.823 508.709 M 1065.158 525.602 C 1063.900 526.483, 1062.666 526.999, 1062.416 526.749 C 1061.362 525.696, 1053.163 534.809, 1052.045 538.275 C 1051.376 540.352, 1049.629 543.480, 1048.164 545.226 C 1046.067 547.725, 1045.457 549.583, 1045.299 553.951 C 1044.828 566.944, 1043.444 576.566, 1041.667 579.192 C 1038.556 583.790, 1039.724 586.245, 1046 588.307 C 1050.814 589.888, 1052.186 589.957, 1057 588.862 C 1062.771 587.549, 1069.397 584.866, 1072.095 582.751 C 1075.310 580.229, 1085.018 564.678, 1086.508 559.663 C 1091.131 544.094, 1087.730 530.532, 1077.931 525.464 C 1074.199 523.535, 1068.014 523.601, 1065.158 525.602 M 373 563 C 230.224 563.484, 225.410 563.561, 222.699 565.398 C 216.751 569.430, 217 565.545, 217 654.228 C 217 744.828, 216.466 738.156, 224.026 742.013 C 227.871 743.975, 230.323 744, 418.995 744 C 599.253 744, 610.224 743.901, 612.785 742.250 C 619.429 737.969, 618.930 745.095, 618.967 653.906 L 619 571.312 614.803 567.156 C 612.193 564.572, 609.640 562.971, 608.053 562.924 C 595.639 562.554, 495.093 562.586, 373 563 M 230.815 574.114 C 229.326 575.034, 229.670 718.897, 231.165 720.699 C 232.113 721.841, 232.647 721.759, 234.400 720.206 C 235.555 719.183, 240.100 716.860, 244.500 715.045 C 248.900 713.229, 256.550 709.818, 261.500 707.466 C 266.450 705.113, 272.975 702.450, 276 701.548 C 279.025 700.646, 283.525 699.251, 286 698.449 C 288.475 697.647, 291.125 696.992, 291.890 696.995 C 292.654 696.998, 293.823 696.257, 294.487 695.349 C 295.338 694.185, 297.909 693.517, 303.212 693.084 C 311.213 692.429, 311.999 692.044, 319 685.353 C 323.780 680.784, 346.796 661.640, 351 658.735 C 352.375 657.785, 355.750 655.421, 358.500 653.482 C 369.099 646.008, 374.526 646.936, 386.498 658.269 C 389.247 660.871, 391.947 663.012, 392.498 663.027 C 393.854 663.064, 401 669.776, 401 671.013 C 401 671.556, 401.563 672.010, 402.250 672.022 C 403.721 672.047, 414 681.713, 414 683.071 C 414 683.582, 414.522 684, 415.160 684 C 416.293 684, 421.154 688.321, 435.694 702.256 L 442.889 709.150 449.194 704.827 C 455.657 700.397, 458.482 698.595, 460.846 697.396 C 461.586 697.020, 463.598 695.427, 465.318 693.856 C 467.038 692.285, 468.961 691, 469.590 691 C 470.220 691, 475.857 687.565, 482.117 683.367 C 498.003 672.714, 506.727 668.296, 508.855 669.824 C 509.760 670.473, 511.526 671.448, 512.780 671.989 C 515.526 673.175, 526.635 680.802, 529.180 683.250 C 530.181 684.212, 531.475 685, 532.055 685 C 532.635 685, 535.673 686.705, 538.805 688.790 C 541.937 690.874, 545.625 693.130, 547 693.802 C 548.375 694.475, 551.483 696.145, 553.907 697.513 C 556.331 698.881, 558.855 700, 559.517 700 C 560.831 700, 571.592 705.509, 574 707.414 C 576.006 709.002, 586.748 715.244, 590.500 717.003 C 592.150 717.776, 594.513 719.295, 595.750 720.379 C 596.987 721.462, 598 722.015, 598 721.606 C 598 721.198, 599.385 721.850, 601.077 723.055 C 602.888 724.344, 604.522 724.878, 605.049 724.351 C 606.220 723.180, 606.457 576.057, 605.290 574.890 C 604.306 573.906, 232.399 573.135, 230.815 574.114 M 867.382 584.191 C 866.977 584.846, 867.154 585.551, 867.775 585.758 C 868.792 586.097, 870.497 587.264, 877.722 592.563 C 885.402 598.197, 911.905 595.410, 906.988 589.486 C 905.991 588.285, 904.410 588.107, 899.331 588.628 C 893.561 589.219, 892.693 589.060, 890.516 587.015 C 888.613 585.227, 887.509 584.910, 885.301 585.518 C 880.388 586.868, 873.124 586.422, 871.164 584.648 C 868.996 582.686, 868.359 582.609, 867.382 584.191 M 854.237 587.248 C 852.316 589.292, 852 590.730, 852 597.421 C 852 604.635, 852.235 605.519, 855.173 609.356 C 859.319 614.769, 860.897 616, 863.691 616 C 864.961 616, 866 616.477, 866 617.059 C 866 617.641, 866.450 617.840, 867 617.500 C 867.550 617.160, 868 617.310, 868 617.834 C 868 618.358, 868.654 619.037, 869.454 619.344 C 870.445 619.724, 871.638 618.441, 873.198 615.319 C 875.973 609.761, 878.596 608.315, 883.071 609.875 C 884.846 610.494, 887.694 611.006, 889.399 611.014 C 894.773 611.037, 896.971 612.136, 898.627 615.626 C 899.911 618.331, 899.987 619.311, 899.005 620.494 C 896.655 623.326, 898.571 624.699, 905.876 625.419 C 910.586 625.883, 913.642 625.727, 915.098 624.947 C 916.296 624.306, 918.544 623.694, 920.093 623.587 C 926.484 623.144, 931.385 614.251, 930.779 604.199 C 930.416 598.178, 930.201 597.724, 925.949 593.987 C 920.843 589.499, 918.254 588.346, 916.723 589.877 C 915.955 590.645, 916.127 591.483, 917.324 592.805 C 918.246 593.824, 919 595.307, 919 596.101 C 919 598.053, 913.108 605.090, 911.658 604.869 C 911.021 604.772, 908.827 605.437, 906.782 606.346 C 901.449 608.718, 882.189 608.685, 877.700 606.297 C 875.940 605.360, 873.995 604.691, 873.379 604.811 C 872.762 604.931, 869.950 602.862, 867.129 600.213 C 861.832 595.240, 860.428 590.972, 863.183 588.217 C 864.705 586.695, 864.261 586.321, 859.987 585.522 C 857.084 584.980, 856.086 585.280, 854.237 587.248 M 526.380 594.348 C 516.921 596.993, 507.731 605.810, 505.110 614.756 C 504.346 617.365, 503.543 622.200, 503.325 625.500 C 502.978 630.778, 503.334 632.282, 506.289 638 C 510.122 645.415, 519.151 653.563, 524.688 654.601 C 526.510 654.943, 528 655.675, 528 656.228 C 528 656.781, 528.900 656.998, 529.999 656.711 C 531.098 656.423, 532.250 656.596, 532.558 657.094 C 533.395 658.449, 541 658.214, 541 656.833 C 541 656.192, 541.279 655.945, 541.619 656.286 C 541.960 656.626, 542.892 656.251, 543.690 655.452 C 544.489 654.654, 546.136 654, 547.349 654 C 549.953 654, 553.079 652.037, 558.332 647.101 C 563.082 642.638, 564.949 639.255, 567.100 631.208 C 568.637 625.461, 568.651 624.337, 567.257 618.224 C 565.567 610.819, 562.920 606.076, 557.859 601.389 C 549.844 593.967, 537.567 591.221, 526.380 594.348 M 529.980 607.355 C 520.950 610.292, 516.163 617.881, 517.251 627.534 C 517.904 633.324, 519.823 636.095, 525.919 640.045 C 531.911 643.927, 537.201 644.246, 544.062 641.139 C 549.414 638.715, 551.364 636.766, 553.462 631.746 C 555.312 627.319, 555.389 623.689, 553.735 619 C 551.794 613.499, 549.916 611.545, 543.812 608.675 C 537.683 605.793, 535.440 605.579, 529.980 607.355 M 976.500 658.126 C 974.850 659.147, 970.350 660.899, 966.500 662.018 C 962.650 663.138, 958.150 664.451, 956.500 664.936 C 954.850 665.420, 951.250 666.118, 948.500 666.486 C 945.750 666.855, 942.461 667.824, 941.191 668.640 C 939.566 669.684, 936.568 670.063, 931.079 669.918 C 926.787 669.804, 922.709 670.062, 922.017 670.489 C 920.168 671.632, 901.754 671.665, 900 670.528 C 897.923 669.183, 896.113 669.008, 895.445 670.089 C 894.728 671.248, 888.294 671.285, 887.583 670.134 C 887.289 669.658, 885.896 669.488, 884.489 669.757 C 882.974 670.047, 881.230 669.616, 880.215 668.701 C 879.272 667.851, 877.150 666.846, 875.500 666.468 C 873.850 666.090, 869.695 664.847, 866.267 663.706 C 860.046 661.636, 857.774 661.817, 859.772 664.226 C 860.354 664.927, 860.760 665.725, 860.675 666 C 860.590 666.275, 861.763 669.039, 863.281 672.142 C 868.997 683.825, 884.878 693.939, 897.583 693.988 C 899.279 693.995, 900.970 694.303, 901.341 694.674 C 902.215 695.549, 907 695.762, 907 694.926 C 907 694.574, 910.487 694.044, 914.750 693.749 C 921.784 693.262, 931.323 691.199, 936.500 689.044 C 937.600 688.586, 940.585 687.472, 943.134 686.567 C 945.682 685.663, 951.307 682.466, 955.634 679.463 C 959.960 676.460, 964.055 673.732, 964.733 673.401 C 965.411 673.070, 967.666 671.149, 969.743 669.133 C 971.821 667.117, 975.204 664.184, 977.260 662.615 C 982.825 658.371, 982.187 654.606, 976.500 658.126 M 366.326 664.182 C 364.030 665.265, 360.565 667.692, 358.625 669.575 C 356.686 671.459, 354.818 673, 354.474 673 C 353.017 673, 333.770 688.516, 327.315 694.894 C 319.894 702.228, 319.717 702.311, 304.500 705.556 C 300.100 706.494, 295.825 707.502, 295 707.795 C 294.175 708.088, 293.275 708.404, 293 708.497 C 292.725 708.591, 291.150 709.211, 289.500 709.875 C 285.400 711.526, 279.389 713.541, 274 715.071 C 269.908 716.233, 266.039 717.862, 262 720.124 C 258.865 721.881, 250.305 725.877, 245.528 727.816 C 237.118 731.228, 238.528 731.983, 253.667 732.176 C 313.630 732.938, 450.010 732.526, 449.707 731.583 C 449.516 730.988, 447.900 729.600, 446.116 728.500 C 444.332 727.400, 438.334 722.112, 432.788 716.750 C 427.242 711.388, 422.485 707, 422.219 707 C 421.952 707, 416.958 702.612, 411.122 697.250 C 405.285 691.888, 400.019 687.050, 399.418 686.500 C 398.818 685.950, 394.572 682.125, 389.984 678 C 385.395 673.875, 380.259 669.230, 378.571 667.679 C 372.918 662.485, 371.055 661.953, 366.326 664.182 M 666.500 679 L 663.626 682 666.563 685.113 C 670.411 689.192, 675.763 692.569, 679.777 693.451 C 681.549 693.840, 683 694.559, 683 695.048 C 683 695.537, 683.675 695.678, 684.500 695.362 C 685.325 695.045, 686 695.233, 686 695.780 C 686 696.326, 687.237 696.998, 688.750 697.274 C 690.263 697.549, 693.975 698.764, 697 699.974 C 702.808 702.296, 704.590 702.865, 715 705.718 C 718.575 706.698, 721.642 707.812, 721.815 708.194 C 721.988 708.575, 722.775 708.640, 723.565 708.337 C 724.354 708.034, 725 708.284, 725 708.893 C 725 709.502, 725.623 710, 726.383 710 C 727.144 710, 728.044 711.013, 728.383 712.250 C 729.402 715.975, 725.034 719, 718.635 719 C 715.746 719, 712.691 719.563, 711.846 720.250 C 705.867 725.115, 703.999 734.459, 709 734.486 C 710.375 734.494, 711.786 734.106, 712.136 733.625 C 713.251 732.092, 721.006 732.398, 722.055 734.016 C 724.284 737.451, 722.683 740.350, 717 743.173 C 708.856 747.219, 704.606 754.768, 708.604 758.086 C 709.951 759.205, 710.684 759.144, 713.185 757.709 C 717.404 755.287, 720.656 755.545, 722.560 758.452 C 724.046 760.720, 724.035 761.075, 722.404 763.202 C 721.435 764.466, 718.810 766.866, 716.571 768.535 C 713.057 771.154, 712.457 772.161, 712.187 775.891 C 711.823 780.928, 714.840 786.326, 720.122 790.087 C 721.904 791.355, 723.057 791.901, 722.685 791.299 C 721.468 789.330, 723.148 784.088, 725.206 783.435 C 727.661 782.655, 734 783.777, 734 784.990 C 734 786.229, 748.918 801.300, 752 803.175 C 757.406 806.464, 768.921 809.165, 778.874 809.480 C 784.302 809.652, 789.667 810.287, 790.796 810.891 C 791.924 811.495, 795.455 814.804, 798.641 818.244 C 806.510 826.741, 826.009 846.179, 834.188 853.681 C 846.175 864.676, 868.372 881.950, 873.079 883.947 C 874.411 884.511, 878.200 886.523, 881.500 888.418 C 890.988 893.864, 901.566 899, 903.296 899 C 904.168 899, 905.139 899.415, 905.452 899.923 C 905.766 900.431, 907.474 901.165, 909.247 901.554 C 911.020 901.944, 913.377 902.836, 914.485 903.536 C 916.488 904.802, 929.396 907.451, 938 908.362 C 946.526 909.264, 968.743 905.768, 970.300 903.279 C 970.740 902.575, 971.920 902, 972.923 902 C 975.170 902, 983.221 898.501, 988.230 895.348 C 990.282 894.057, 992.622 893, 993.430 893 C 994.239 893, 995.359 892.212, 995.920 891.250 C 996.481 890.288, 996.960 889.950, 996.985 890.500 C 997.015 891.159, 997.281 891.156, 997.765 890.491 C 998.169 889.935, 1000.304 888.313, 1002.509 886.886 C 1008.609 882.937, 1025.204 868.730, 1031.181 862.340 C 1034.106 859.212, 1037.838 855.349, 1039.472 853.756 C 1041.107 852.162, 1042.426 850.103, 1042.404 849.179 C 1042.313 845.393, 1034.708 831.967, 1028.694 824.974 C 1014.475 808.440, 1000.319 796.792, 986 789.843 C 972.094 783.094, 970.100 782.279, 963.591 780.679 L 957.683 779.228 949.851 787.364 C 945.544 791.839, 941.732 796.376, 941.380 797.446 C 940.892 798.931, 941.837 800.318, 945.370 803.300 C 950.324 807.481, 950.953 809.616, 948.385 813.535 C 946.389 816.581, 942.052 816.820, 939.521 814.024 C 938.538 812.937, 937.374 812.269, 936.935 812.540 C 936.497 812.811, 935.847 812.561, 935.490 811.984 C 935.134 811.408, 932.740 810.018, 930.171 808.895 C 927.602 807.773, 922.125 805.154, 918 803.076 C 913.875 800.998, 908.250 798.176, 905.500 796.805 C 879.339 783.766, 860.483 774.169, 855.500 771.358 C 852.200 769.497, 848.375 767.515, 847 766.956 C 845.625 766.396, 842.475 764.885, 840 763.599 C 837.525 762.313, 833.475 760.246, 831 759.006 C 828.525 757.766, 825.825 756.356, 825 755.873 C 824.175 755.390, 822.557 754.584, 821.403 754.081 C 820.250 753.578, 818.514 751.495, 817.544 749.452 C 811.816 737.382, 799.104 720.617, 791.315 714.864 C 788.439 712.739, 785.716 711, 785.265 711 C 784.814 711, 783.332 710.212, 781.973 709.250 C 779.468 707.477, 774.960 705.578, 769.500 703.994 C 764.296 702.485, 747.586 696.406, 745.500 695.262 C 744.400 694.659, 740.800 693.439, 737.500 692.550 C 734.200 691.661, 728.800 690.004, 725.500 688.867 C 722.200 687.730, 716.829 686.156, 713.564 685.368 C 710.300 684.581, 707.108 683.505, 706.472 682.977 C 705.836 682.449, 705.037 682.296, 704.696 682.637 C 704.356 682.978, 702.040 682.299, 699.549 681.128 C 697.059 679.958, 693.779 678.995, 692.261 678.989 C 690.742 678.983, 687.291 678.308, 684.591 677.489 C 681.891 676.670, 677.363 676, 674.528 676 C 670.107 676, 668.966 676.426, 666.500 679 M 502.500 685.591 C 501.400 686.432, 498.455 688.152, 495.954 689.416 C 493.454 690.679, 489.820 692.789, 487.878 694.106 C 485.936 695.423, 481.007 698.700, 476.924 701.390 C 472.841 704.079, 467.034 707.904, 464.021 709.890 C 461.007 711.875, 457.735 713.827, 456.749 714.226 C 453.621 715.492, 453.571 717.875, 456.621 720.267 C 458.188 721.495, 461.952 724.876, 464.985 727.781 L 470.500 733.062 530.759 732.781 C 580.442 732.549, 590.929 732.266, 590.509 731.168 C 590.229 730.436, 590 729.648, 590 729.418 C 590 729.188, 589.212 728.995, 588.250 728.989 C 587.288 728.983, 581.325 725.986, 575 722.329 C 559.781 713.528, 556.762 712.082, 551.598 711.117 C 548.794 710.593, 545.090 708.647, 541.197 705.652 C 537.872 703.093, 534.729 701, 534.213 701 C 533.696 701, 530.318 698.862, 526.705 696.250 C 516.529 688.891, 508.375 683.997, 506.346 684.032 C 505.331 684.049, 503.600 684.751, 502.500 685.591 M 986.500 728.600 C 974.174 739.551, 952 762.380, 952 764.119 C 952 766.152, 955.513 764.417, 956.789 761.753 C 957.507 760.256, 960.098 757.653, 962.547 755.968 C 964.996 754.283, 967 752.452, 967 751.900 C 967 751.347, 970.825 747.105, 975.500 742.472 C 980.175 737.838, 984 734.323, 984 734.659 C 984 734.995, 984.933 734.084, 986.073 732.635 C 987.212 731.186, 988.557 730, 989.061 730 C 990.246 730, 994 726.791, 994 725.778 C 994 723.896, 990.174 725.336, 986.500 728.600 M 221.775 770.508 C 218.479 773.564, 219.169 776.746, 223.599 778.929 C 227.033 780.621, 290.910 781.026, 404.331 780.076 C 470.961 779.518, 473.208 779.438, 474.581 777.559 C 476.537 774.883, 476.359 772.762, 473.961 770.189 L 471.922 768 348.201 768 L 224.480 768 221.775 770.508 M 266.163 797 L 223.825 797.500 221.413 800.306 C 220.086 801.849, 219 803.487, 219 803.945 C 219 806.121, 222.776 808.893, 226 809.084 C 227.925 809.198, 272.122 809.225, 324.215 809.145 L 418.930 809 420.050 806.907 C 421.559 804.087, 420.484 800.363, 417.619 798.486 C 415.589 797.156, 408.006 796.916, 361.885 796.723 C 332.523 796.600, 289.448 796.725, 266.163 797 M 529.246 832.399 C 525.764 833.540, 522.002 836.449, 519.936 839.598 C 518.553 841.706, 518.304 846.535, 518.155 874.104 C 517.960 910.058, 518.136 911.136, 524.906 915.489 C 528.473 917.782, 528.802 917.803, 568.212 918.262 C 606.334 918.705, 608.057 918.645, 611.212 916.761 C 613.021 915.682, 615.513 913.649, 616.750 912.244 C 618.991 909.699, 619 909.548, 619 875.047 L 619 840.406 615.219 836.714 C 612.373 833.934, 610.333 832.882, 606.969 832.457 C 599.372 831.496, 532.155 831.447, 529.246 832.399 M 406.504 832.737 C 403.671 833.453, 399.923 836.595, 398.400 839.530 C 397.150 841.939, 396.772 857.086, 396.947 897.790 L 397 910.080 401.143 914.022 C 403.422 916.189, 406.685 918.219, 408.393 918.531 C 410.102 918.844, 428.387 918.965, 449.026 918.800 C 480.585 918.548, 486.843 918.262, 488.387 917 C 490.709 915.103, 495.118 910.703, 496.750 908.654 C 498.352 906.642, 498.575 844.474, 496.984 843.490 C 496.425 843.144, 496.196 842.492, 496.475 842.040 C 497.369 840.595, 489.135 833.277, 485.884 832.627 C 482.213 831.893, 409.444 831.993, 406.504 832.737 M 409.914 862.250 C 409.867 872.288, 409.755 886.018, 409.664 892.762 C 409.529 902.891, 409.761 905.102, 411 905.477 C 411.825 905.726, 428.136 905.884, 447.248 905.827 C 473.985 905.748, 482.399 905.426, 483.748 904.429 C 485.152 903.392, 485.252 902.883, 484.250 901.867 C 482.759 900.355, 482.580 894.378, 484 893.500 C 484.550 893.160, 485 889.110, 485 884.500 C 485 879.890, 484.550 875.840, 484 875.500 C 483.450 875.160, 483 871.335, 483 867 C 483 862.665, 483.450 858.840, 484 858.500 C 485.357 857.661, 485.302 846, 483.941 846 C 483.359 846, 483.160 845.550, 483.500 845 C 483.908 844.340, 471.510 844, 447.059 844 L 410 844 409.914 862.250 M 531.679 844.655 C 530.700 845.633, 530.870 903.247, 531.856 904.802 C 532.513 905.837, 539.963 906.063, 568.272 905.903 C 587.847 905.793, 604.350 905.402, 604.946 905.033 C 605.696 904.570, 605.948 895.122, 605.765 874.432 L 605.500 844.500 568.929 844.238 C 548.815 844.094, 532.052 844.281, 531.679 844.655 M 241.712 846 C 220.264 846.542, 220.047 846.605, 220.015 852.265 C 220.004 854.319, 220.835 855.538, 223.250 857.011 C 226.401 858.932, 228.464 858.993, 291.027 858.996 C 350.003 859, 355.768 858.854, 358.027 857.308 C 362.358 854.344, 363.226 851.058, 360.618 847.492 C 359.297 845.685, 357.100 845.600, 310.368 845.551 C 283.491 845.523, 252.595 845.725, 241.712 846 M 285.354 885.933 C 227.065 886.473, 224.111 886.589, 222.104 888.405 C 219.006 891.210, 219.324 895.609, 222.750 897.330 C 226.905 899.417, 354.185 899.473, 358.214 897.389 C 362.163 895.347, 362.892 891.435, 359.882 888.438 C 356.682 885.252, 357.123 885.267, 285.354 885.933" stroke="none" fill="#171916" fill-rule="evenodd"/>
</svg>