<svg role="img" aria-labelledby="artwork-title" shape-rendering="geometricPrecision" xmlns="http://www.w3.org/2000/svg" width="1200" height="1200" viewBox="0 0 1200 1200" version="1.1">
	<title id="artwork-title">Mascot holding multiple stacked project cards</title>
	<path d="M 755 81.852 C 755 82.320, 751.382 82.983, 746.961 83.324 C 742.539 83.664, 737.477 84.595, 735.711 85.392 C 733.945 86.189, 731.375 87.134, 730 87.492 C 722.799 89.366, 711.397 96.349, 703.999 103.417 C 700.138 107.105, 699.213 107.559, 697.499 106.608 C 696.400 105.999, 695.140 104.938, 694.700 104.250 C 694.260 103.563, 693.283 103, 692.527 103 C 691.772 103, 689.881 101.937, 688.327 100.637 C 686.772 99.337, 684.375 97.935, 683 97.522 C 681.625 97.108, 679.599 95.948, 678.498 94.944 C 677.348 93.895, 673.562 92.649, 669.603 92.017 C 665.812 91.411, 661.763 90.372, 660.605 89.708 C 657.495 87.924, 636.468 88.286, 631.983 90.201 C 630.049 91.027, 626.368 92.018, 623.804 92.402 C 621.239 92.787, 618.097 93.907, 616.820 94.891 C 615.544 95.875, 613.094 97.159, 611.376 97.744 C 609.659 98.329, 605.951 100.426, 603.137 102.404 C 600.323 104.382, 597.859 106, 597.662 106 C 597.008 106, 586 117.293, 586 117.964 C 586 118.326, 585.193 119.495, 584.207 120.561 C 581.013 124.015, 576 133.672, 576 136.372 C 576 137.817, 575.523 139, 574.941 139 C 574.359 139, 574.128 139.399, 574.430 139.886 C 575.363 141.397, 570.874 141.952, 566.065 140.921 C 559.057 139.418, 544.292 139.352, 536.626 140.789 C 530.105 142.012, 523.643 144.966, 515.251 150.559 C 511.130 153.306, 499 164.958, 499 166.170 C 499 166.588, 497.709 168.409, 496.130 170.215 C 491.947 175.003, 488.355 182.523, 486.441 190.500 C 485.518 194.350, 484.366 198.281, 483.881 199.236 C 482.635 201.693, 482.787 208.687, 484.134 210.844 C 485.759 213.445, 482.764 217.677, 478.676 218.557 C 476.929 218.933, 474.335 219.836, 472.912 220.562 C 468.433 222.849, 455.566 232.924, 454 235.371 C 453.175 236.659, 450.719 240.365, 448.543 243.607 C 446.366 246.848, 444.543 249.725, 444.492 250 C 444.441 250.275, 443.305 252.750, 441.967 255.500 C 439.693 260.173, 439.533 261.578, 439.517 277 C 439.502 291.974, 439.698 293.870, 441.643 297.500 C 442.821 299.700, 443.749 301.725, 443.704 302 C 443.591 302.695, 450.469 312.612, 452.410 314.553 C 454.531 316.674, 454.418 319.312, 452.116 321.395 C 451.079 322.333, 449.252 325.891, 448.055 329.300 C 446.858 332.710, 445.400 336.476, 444.814 337.669 C 444.228 338.861, 443.956 341.244, 444.208 342.963 C 444.460 344.682, 444.292 346.320, 443.833 346.603 C 442.813 347.234, 442.723 353.390, 443.720 354.387 C 444.116 354.783, 444.307 356.658, 444.144 358.554 C 443.973 360.532, 444.305 362, 444.923 362 C 445.516 362, 446 362.690, 446 363.533 C 446 366.747, 451.060 374.834, 456.794 380.786 L 462.760 386.978 460.867 390.804 C 459.497 393.574, 458.947 396.957, 458.877 403.065 C 458.722 416.449, 460.195 421.403, 466.685 429.327 C 467.958 430.881, 469 432.775, 469 433.534 C 469 434.294, 465.222 438.647, 460.605 443.208 C 453.741 449.988, 451.450 453.080, 448.042 460.164 C 445.749 464.929, 443.984 469.429, 444.120 470.164 C 444.257 470.899, 443.531 473.300, 442.509 475.500 C 438.925 483.212, 439.285 509.235, 443.104 518.537 C 443.773 520.167, 444.248 521.981, 444.158 522.568 C 444.069 523.156, 445.347 526.426, 446.998 529.834 C 448.649 533.243, 450 536.448, 450 536.957 C 450 537.465, 452.724 541.267, 456.053 545.406 C 461.512 552.191, 469.536 559, 472.075 559 C 473.778 559, 475 563.914, 475.012 570.815 C 475.023 577.054, 477.656 587.033, 482.052 597.500 C 482.745 599.150, 483.360 600.950, 483.418 601.500 C 483.477 602.050, 484.456 604.525, 485.593 607 C 486.731 609.475, 487.968 612.722, 488.341 614.215 C 489.163 617.499, 493.860 624.603, 497.399 627.915 C 498.818 629.243, 500.894 632.773, 502.011 635.760 C 504.110 641.370, 508.531 648, 510.172 648 C 511.680 648, 518 653.391, 518 654.677 C 518 655.325, 519.110 656.728, 520.466 657.795 C 521.822 658.862, 522.723 659.944, 522.468 660.199 C 522.212 660.455, 523.120 661.261, 524.485 661.992 C 525.850 662.722, 527.230 664.149, 527.551 665.161 C 527.873 666.174, 529.005 667.467, 530.068 668.036 C 531.130 668.605, 532 669.902, 532 670.919 C 532 672.958, 529.453 673.946, 524 674.021 C 519.157 674.088, 506.128 676.536, 502.500 678.060 C 500.850 678.754, 498.904 679.221, 498.176 679.099 C 497.448 678.978, 496.323 679.295, 495.676 679.805 C 495.029 680.315, 493.375 680.986, 492 681.296 C 487.932 682.214, 475.739 686.644, 472.500 688.380 C 470.850 689.264, 468.698 689.990, 467.719 689.994 C 466.739 689.997, 465.679 690.672, 465.364 691.494 C 465.048 692.316, 464.435 692.769, 464 692.500 C 463.565 692.231, 462.952 692.684, 462.636 693.506 C 462.321 694.328, 461.320 695, 460.411 695 C 458.605 695, 453.265 698.175, 444.012 704.750 C 439.019 708.298, 437.256 709, 433.333 709 C 426.381 709, 410.824 707.006, 408.322 705.794 C 407.124 705.214, 404.976 704.963, 403.548 705.236 C 402.120 705.508, 400.750 705.404, 400.502 705.003 C 400.254 704.602, 394.302 703.963, 387.276 703.583 C 380.249 703.203, 370 702.233, 364.500 701.427 C 359 700.621, 347.300 699.513, 338.500 698.966 C 329.700 698.418, 320.475 697.547, 318 697.029 C 315.525 696.511, 308.004 696.068, 301.286 696.044 C 294.568 696.020, 284.612 695.493, 279.162 694.873 C 265.120 693.276, 253.087 694.784, 244.724 699.188 C 238.141 702.654, 228.448 711.479, 225.709 716.500 C 220.331 726.357, 220.503 725.378, 220.454 746.508 L 220.408 766.515 215.329 771.758 C 212.535 774.641, 210.468 777, 210.735 777 C 211.003 777, 210.340 777.787, 209.263 778.750 C 208.186 779.712, 206.147 783.200, 204.732 786.500 C 200.403 796.594, 199.651 803.136, 200.249 825.493 C 200.749 844.185, 200.642 846.060, 198.911 848.906 C 197.876 850.608, 197.303 852, 197.637 852 C 197.971 852, 197.727 852.624, 197.094 853.387 C 193.870 857.271, 193.310 867.005, 193.791 910.737 C 194.135 942.051, 193.954 954.350, 193.135 955.337 C 192.378 956.249, 188.372 956.920, 180.997 957.368 C 171.415 957.950, 169.244 958.428, 164.244 961.060 C 145.201 971.083, 134.068 988.580, 135.229 1006.663 C 135.671 1013.552, 135.498 1014.400, 132.774 1018.695 C 131.162 1021.237, 128.754 1027.077, 127.422 1031.673 C 124.213 1042.747, 124.208 1051.771, 127.407 1060.926 C 129.487 1066.880, 129.804 1069.558, 129.747 1080.657 C 129.682 1093.056, 129.789 1093.732, 132.840 1100.208 C 134.578 1103.898, 136 1107.172, 136 1107.484 C 136 1107.796, 137.671 1110.290, 139.713 1113.026 L 143.427 1118 154.213 1118 L 165 1118 165 1114.855 C 165 1111.885, 160.337 1103.006, 158.776 1103.002 C 157.287 1102.998, 154.809 1096.569, 153.383 1089.011 C 152.072 1082.057, 152.080 1080.468, 153.455 1074.538 C 155.508 1065.687, 155.446 1064.813, 152.294 1058.188 C 147.504 1048.120, 148.129 1033.804, 153.787 1024 C 156.220 1019.784, 156.369 1018.775, 156.155 1008 C 155.933 996.842, 156.013 996.364, 158.829 991.927 C 161.771 987.292, 168.846 980.906, 172.500 979.588 C 174.992 978.689, 196.782 978.632, 199.500 979.518 C 200.600 979.876, 203.075 980.780, 205 981.527 C 206.925 982.273, 209.625 983.193, 211 983.570 C 215.076 984.688, 221.784 988.955, 224.456 992.130 C 228.478 996.910, 229.572 1001.992, 227.514 1006.330 C 225.230 1011.143, 221.092 1012.019, 214.475 1009.092 C 210.456 1007.314, 207.765 1007, 196.567 1007 C 184.045 1007, 183.217 1007.126, 179.944 1009.528 C 172.328 1015.119, 171.203 1019.357, 176.048 1024.202 L 179.097 1027.251 188.798 1026.604 C 194.134 1026.249, 203.036 1026.371, 208.581 1026.875 C 217.192 1027.658, 219.525 1028.278, 224.581 1031.126 C 232.698 1035.697, 235 1038.374, 235 1043.242 C 235 1047.648, 232.469 1052.716, 229.853 1053.547 C 228.910 1053.846, 225.295 1053.345, 221.819 1052.433 C 216.832 1051.124, 213.134 1050.912, 204.279 1051.426 C 190.644 1052.218, 184.761 1053.870, 180.353 1058.143 C 177.462 1060.944, 177 1062.057, 177 1066.212 C 177 1070.719, 177.223 1071.139, 180.436 1072.671 C 183.431 1074.099, 185.258 1074.172, 194.686 1073.237 C 206.563 1072.060, 222.924 1072.548, 227.284 1074.210 C 234.149 1076.826, 235.965 1084.222, 231.158 1089.980 C 228.509 1093.153, 227.844 1093.411, 221.408 1093.758 C 217.608 1093.963, 213.825 1094.391, 213 1094.709 C 212.175 1095.027, 210.240 1095.186, 208.700 1095.063 C 207.159 1094.940, 205.359 1095.263, 204.700 1095.782 C 204.040 1096.301, 200.682 1097.006, 197.238 1097.349 C 190.482 1098.021, 183.627 1100.925, 182.623 1103.539 C 182.281 1104.433, 182 1106.918, 182 1109.061 C 182 1112.602, 182.367 1113.146, 185.998 1114.999 C 189.531 1116.801, 190.724 1116.923, 196.248 1116.042 C 199.687 1115.493, 208.269 1114.922, 215.321 1114.772 C 226.568 1114.533, 228.300 1114.715, 229.431 1116.250 C 230.532 1117.744, 232.436 1118, 242.428 1118 C 255.836 1118, 255.348 1118.607, 250.260 1108.261 L 247.684 1103.022 250.342 1100.559 C 251.804 1099.204, 253 1097.547, 253 1096.876 C 253 1096.206, 253.671 1094.916, 254.492 1094.009 C 258.419 1089.669, 258.136 1077.107, 253.907 1068.089 C 251.668 1063.314, 251.910 1058.150, 254.472 1056.024 C 256.799 1054.092, 258.128 1045.231, 257.059 1038.768 C 255.873 1031.600, 253.630 1026.810, 249.315 1022.236 C 246.189 1018.921, 246.031 1018.437, 247.054 1015.335 C 247.660 1013.501, 248.597 1012, 249.137 1012 C 249.676 1012, 249.840 1011.550, 249.500 1011 C 249.160 1010.450, 249.359 1010, 249.941 1010 C 251.148 1010, 251.428 998.761, 250.250 997.583 C 249.838 997.171, 249.463 996.533, 249.418 996.167 C 249.373 995.800, 248.334 993.263, 247.109 990.529 C 244.263 984.177, 228.727 968.538, 224.297 967.565 C 222.622 967.197, 220.319 965.904, 219.180 964.691 C 217.148 962.529, 217.105 961.551, 216.948 914.493 C 216.860 888.097, 217.108 864.822, 217.501 862.772 C 217.981 860.261, 219.894 857.247, 223.357 853.539 C 227.546 849.055, 229.706 847.637, 235 845.895 C 241.073 843.897, 242.682 843.805, 259.500 844.491 C 288.422 845.673, 307.788 845.807, 545.965 846.481 L 772.431 847.122 777.218 850.561 C 779.851 852.452, 782.341 854.003, 782.752 854.007 C 783.764 854.016, 787.635 859.838, 788.942 863.315 C 790.575 867.660, 790.393 965.456, 788.750 966.706 C 788.063 967.229, 785.622 967.709, 783.327 967.773 C 781.032 967.836, 776.885 969.038, 774.111 970.444 C 771.336 971.850, 768.622 973, 768.078 973 C 766.656 973, 760.085 977.488, 756 981.250 C 750.537 986.281, 747.150 991.486, 745.942 996.706 C 745.332 999.343, 744.344 1002.513, 743.747 1003.750 C 742.966 1005.370, 742.968 1006.630, 743.754 1008.250 C 744.355 1009.487, 745.108 1012.300, 745.427 1014.500 C 745.746 1016.700, 746.272 1019.899, 746.597 1021.609 C 747.068 1024.100, 746.607 1025.394, 744.276 1028.109 C 737.376 1036.151, 736.500 1038.617, 736.500 1050 C 736.500 1059.551, 736.722 1060.812, 738.958 1063.947 C 741.726 1067.827, 741.988 1071.842, 739.958 1079.269 C 737.746 1087.362, 739.733 1094.766, 746.084 1102.097 C 751.159 1107.955, 751.256 1108.187, 750.682 1113.041 L 750.094 1118 786.346 1118 L 822.598 1118 823.871 1114.480 C 825.059 1111.196, 824.963 1110.744, 822.442 1107.730 C 820.957 1105.953, 818.112 1103.885, 816.120 1103.133 C 811.434 1101.365, 797.275 1099.299, 784 1098.448 C 774.675 1097.850, 772.965 1097.437, 768.719 1094.763 C 762.957 1091.134, 761.610 1088.892, 762.462 1084.349 C 763.450 1079.086, 765.535 1078.699, 788.500 1079.515 C 822.441 1080.721, 820.913 1080.802, 823.630 1077.644 C 824.934 1076.128, 826 1073.818, 826 1072.509 C 826 1069.212, 824.277 1065, 822.929 1065 C 822.313 1065, 820.508 1064.074, 818.919 1062.942 C 816.569 1061.269, 813.364 1060.673, 801.765 1059.751 C 793.919 1059.127, 782.325 1058.549, 776 1058.465 C 761.431 1058.272, 762.340 1058.448, 760.363 1055.432 C 758.068 1051.929, 758.437 1044.600, 761.097 1040.864 C 765.422 1034.789, 769.667 1033.600, 788.500 1033.187 C 801.768 1032.895, 806.849 1033.163, 811.644 1034.407 C 815.024 1035.283, 820.199 1035.992, 823.144 1035.983 C 828.554 1035.965, 829.479 1035.435, 833.759 1029.900 C 835.449 1027.713, 833 1022.842, 829.265 1020.963 C 827.744 1020.198, 825.375 1018.826, 824 1017.913 C 822.625 1017.001, 817.129 1015.264, 811.786 1014.053 C 803.455 1012.165, 799.739 1011.898, 785.693 1012.176 C 765.982 1012.566, 765.554 1012.389, 766.237 1004.154 C 766.647 999.209, 767.108 998.337, 771.438 994.304 C 777.502 988.656, 778.329 988.374, 793.013 986.958 C 803.506 985.946, 807.572 986.027, 821.381 987.526 C 830.246 988.488, 838.625 989.695, 840 990.208 C 841.375 990.721, 842.543 990.996, 842.596 990.820 C 842.649 990.644, 843.324 991.011, 844.096 991.635 C 844.868 992.259, 847.075 993.083, 849 993.467 C 850.925 993.850, 855.814 995.252, 859.864 996.582 C 869.404 999.715, 873.385 999.706, 876.545 996.545 C 879.986 993.105, 879.807 988.653, 876.077 984.923 C 874.469 983.315, 872.470 982, 871.634 982 C 870.798 982, 869.413 981, 868.557 979.777 C 867.701 978.555, 866.993 977.993, 866.985 978.527 C 866.976 979.062, 866.639 978.988, 866.235 978.363 C 864.720 976.020, 855.754 971.877, 850.974 971.310 C 845.190 970.626, 843.841 969.364, 843.703 964.514 C 843.536 958.628, 845.584 957.473, 853.785 958.827 C 862.262 960.227, 869.018 963.344, 879.710 970.786 C 888.637 976.999, 901.797 987.992, 901.922 989.341 C 901.965 989.803, 904.025 992.551, 906.500 995.448 C 908.975 998.345, 911 1001.160, 911 1001.703 C 911 1002.246, 911.949 1003.547, 913.108 1004.595 C 915.073 1006.370, 917.283 1010.003, 920.048 1016 C 920.682 1017.375, 922.140 1020.525, 923.287 1023 C 924.435 1025.475, 925.441 1027.725, 925.523 1028 C 925.805 1028.943, 927.170 1032.501, 928.591 1036 C 929.373 1037.925, 930.469 1041.971, 931.026 1044.990 C 933.567 1058.756, 944.042 1062.565, 949.377 1051.662 C 952.155 1045.983, 952.587 1043.067, 951.068 1040.236 C 949.926 1038.110, 947 1025.819, 947 1023.151 C 947 1020.789, 948.157 1020.308, 955.955 1019.426 C 959.304 1019.047, 962.260 1018.388, 962.523 1017.962 C 962.787 1017.536, 963.904 1017.424, 965.006 1017.712 C 966.109 1018, 967.688 1017.674, 968.515 1016.987 C 969.343 1016.301, 974.403 1015.431, 979.760 1015.054 C 985.117 1014.678, 990.850 1013.721, 992.500 1012.927 C 995.167 1011.643, 995.533 1010.926, 995.795 1006.458 C 996.049 1002.122, 995.729 1001.094, 993.466 998.966 C 991.151 996.791, 989.771 996.458, 981.774 996.145 C 976.787 995.950, 968.426 996.329, 963.194 996.987 C 952 998.396, 951.494 998.049, 951.903 989.224 C 952.039 986.288, 951.739 983.349, 951.236 982.693 C 950.733 982.037, 949.739 976.427, 949.026 970.227 C 947.822 959.741, 947.856 958.817, 949.521 956.977 C 950.505 955.890, 952.298 955, 953.506 955 C 954.714 955, 957.720 953.927, 960.187 952.616 C 962.653 951.304, 966.208 949.923, 968.086 949.546 C 969.963 949.169, 974.200 948.036, 977.500 947.028 C 984.210 944.980, 1005.097 940.990, 1009.083 940.996 C 1010.504 940.998, 1011.970 940.697, 1012.341 940.326 C 1012.711 939.956, 1015.666 939.761, 1018.907 939.893 C 1022.266 940.030, 1025.083 939.675, 1025.459 939.067 C 1026.363 937.604, 1048 937.616, 1048 939.079 C 1048 939.784, 1050.598 940.044, 1055.502 939.829 C 1059.629 939.648, 1063.004 939.837, 1063.002 940.250 C 1063.001 940.663, 1064.463 941.003, 1066.250 941.006 C 1075.239 941.021, 1080 944.538, 1080 951.163 C 1080 953.209, 1080.390 955.123, 1080.866 955.417 C 1081.342 955.711, 1081.508 957.120, 1081.236 958.548 C 1080.963 959.976, 1081.188 962.124, 1081.736 963.322 C 1085.375 971.274, 1087.234 989.838, 1087.262 1018.500 C 1087.279 1035.918, 1086.856 1044.048, 1085.521 1052 C 1084.551 1057.775, 1083.557 1064.075, 1083.311 1066 C 1083.065 1067.925, 1082.582 1070.175, 1082.239 1071 C 1081.895 1071.825, 1081.546 1072.950, 1081.463 1073.500 C 1081.380 1074.050, 1080.799 1075.746, 1080.173 1077.270 C 1079.547 1078.793, 1078.351 1082.986, 1077.516 1086.587 C 1075.495 1095.301, 1072.457 1102.178, 1067.277 1109.760 C 1064.924 1113.203, 1063 1116.465, 1063 1117.010 C 1063 1117.613, 1068.085 1118, 1076 1118 C 1084.186 1118, 1089 1117.622, 1089 1116.978 C 1089 1116.416, 1090.736 1112.254, 1092.858 1107.728 C 1097.423 1097.989, 1101.148 1086.264, 1104.049 1072.500 C 1105.208 1067, 1106.631 1061.518, 1107.211 1060.317 C 1107.791 1059.117, 1108.001 1057.444, 1107.677 1056.599 C 1107.352 1055.755, 1107.449 1054.840, 1107.892 1054.567 C 1108.879 1053.957, 1110.450 1032.917, 1110.472 1020 C 1110.494 1007.356, 1108.911 986, 1107.952 986 C 1107.531 986, 1107.430 985.070, 1107.727 983.934 C 1108.025 982.798, 1107.790 980.886, 1107.206 979.684 C 1106.623 978.483, 1105.934 974.575, 1105.675 971 C 1105.416 967.425, 1104.895 963.739, 1104.518 962.809 C 1104.006 961.548, 1105.062 960.233, 1108.666 957.643 C 1117.043 951.623, 1122.357 941.757, 1119.021 938.421 C 1118.482 937.882, 1117.551 933.914, 1116.951 929.603 C 1116.351 925.291, 1115.497 920.804, 1115.053 919.632 C 1114.609 918.459, 1112.997 912.438, 1111.470 906.250 C 1109.943 900.063, 1108.286 895, 1107.788 895 C 1107.290 895, 1107.149 894.568, 1107.475 894.041 C 1107.801 893.513, 1107.639 892.276, 1107.115 891.291 C 1106.073 889.332, 1097.619 863.178, 1096.597 858.750 C 1096.248 857.237, 1095.494 856, 1094.922 856 C 1094.350 856, 1094.160 855.550, 1094.500 855 C 1094.840 854.450, 1094.641 854, 1094.059 854 C 1093.477 854, 1093 853.330, 1093 852.512 C 1093 849.492, 1082.789 825.369, 1078.465 818.176 C 1076.009 814.090, 1074 810.340, 1074 809.843 C 1074 809.346, 1071.412 804.946, 1068.250 800.064 C 1065.088 795.183, 1061.268 789.234, 1059.763 786.844 C 1058.257 784.455, 1055.444 780.475, 1053.512 778 C 1051.579 775.525, 1049.459 772.375, 1048.800 771 C 1048.140 769.625, 1045.576 766.025, 1043.101 763 C 1038.035 756.808, 1016.935 735, 1016.010 735 C 1015.680 735, 1012.976 732.750, 1010 730 C 1007.024 727.250, 1004.069 725, 1003.432 725 C 1002.796 725, 1000.654 723.762, 998.672 722.250 C 987.797 713.950, 985.778 712.601, 980.291 709.965 C 977.977 708.853, 975.822 707.520, 975.502 707.004 C 974.985 706.167, 965.375 701.370, 947.500 693.026 C 940.048 689.547, 931.452 686.295, 927.500 685.459 C 923.819 684.680, 912.294 681.035, 909.317 679.707 C 908.117 679.172, 906.430 679.005, 905.567 679.336 C 904.705 679.667, 904 679.559, 904 679.096 C 904 678.633, 900.063 677.486, 895.250 676.546 C 890.438 675.606, 882.900 673.986, 878.500 672.945 C 874.100 671.905, 866.788 670.752, 862.250 670.383 C 857.712 670.014, 854 669.356, 854 668.921 C 854 666.307, 856.248 663.109, 858.682 662.261 C 862.769 660.836, 872.736 650.465, 875.689 644.564 C 878.227 639.493, 881.319 636.194, 886 633.559 C 887.375 632.786, 889.679 629.756, 891.120 626.826 C 892.561 623.897, 895.152 618.650, 896.878 615.167 C 898.604 611.684, 899.760 608.421, 899.449 607.917 C 899.137 607.413, 899.350 607, 899.922 607 C 900.494 607, 901.258 605.763, 901.619 604.250 C 902.990 598.510, 905.217 597.760, 911.266 601.002 C 916.153 603.622, 930.794 604.020, 934.438 601.632 C 935.745 600.776, 938.994 599.552, 941.657 598.913 C 944.321 598.273, 947.400 597.202, 948.500 596.533 C 949.600 595.864, 951.807 594.994, 953.404 594.601 C 962.420 592.378, 984.945 569.454, 988.631 558.750 C 988.962 557.787, 989.657 557, 990.176 557 C 990.694 557, 990.864 556.588, 990.553 556.085 C 990.242 555.582, 990.469 555.010, 991.058 554.814 C 992.876 554.208, 999.077 533.976, 1000.271 524.752 C 1001.124 518.166, 1001.113 513.223, 1000.229 504.752 C 998.397 487.200, 995.263 479.140, 985.809 467.663 C 980.779 461.556, 979.987 459.326, 982.507 458.359 C 983.336 458.041, 986.574 453.667, 989.703 448.640 C 998.146 435.073, 1000.010 423.445, 995.977 409.497 L 993.954 402.500 999.345 397.500 C 1002.309 394.750, 1005.871 390.925, 1007.261 389 C 1009.976 385.238, 1015 373.378, 1015 370.731 C 1015 369.844, 1015.472 368.827, 1016.048 368.470 C 1016.624 368.114, 1016.973 367.075, 1016.823 366.161 C 1016.673 365.248, 1016.936 363.884, 1017.408 363.131 C 1018.560 361.292, 1018.599 346.774, 1017.457 344.949 C 1016.958 344.152, 1016.684 342.686, 1016.848 341.690 C 1017.012 340.695, 1016.722 339.345, 1016.203 338.690 C 1015.685 338.036, 1014.940 335.725, 1014.549 333.555 C 1013.444 327.439, 1009.770 321.112, 1003.104 313.847 C 996.656 306.818, 996.172 305.523, 998.378 301.200 C 999.136 299.715, 1000.274 296.056, 1000.907 293.068 C 1001.539 290.081, 1002.547 287.046, 1003.146 286.324 C 1003.746 285.601, 1004 284.108, 1003.712 283.005 C 1003.423 281.902, 1003.595 281, 1004.094 281 C 1005.278 281, 1005.278 261.290, 1004.094 260.558 C 1003.596 260.250, 1003.423 259.098, 1003.711 257.999 C 1003.998 256.900, 1003.770 256, 1003.205 256 C 1002.639 256, 1001.882 254.260, 1001.523 252.134 C 1000.840 248.095, 996.241 238.339, 991.796 231.500 C 988.174 225.929, 977.160 215.561, 973.226 214.020 C 971.426 213.315, 969.626 212.199, 969.226 211.540 C 968.055 209.608, 951.953 204.991, 946.405 204.996 C 942.665 204.999, 940.853 204.495, 939.590 203.099 C 938.464 201.855, 938.238 200.971, 938.935 200.540 C 940.206 199.755, 940.374 191.349, 939.134 190.583 C 938.658 190.289, 938.486 188.909, 938.752 187.518 C 939.018 186.127, 938.796 184.429, 938.258 183.744 C 937.721 183.060, 936.984 180.936, 936.621 179.024 C 935.825 174.841, 932.772 168.320, 928.358 161.377 C 922.418 152.034, 903.826 137, 898.211 137 C 897.211 137, 893.942 135.762, 890.946 134.250 C 885.696 131.599, 884.955 131.503, 870.393 131.571 C 855.939 131.638, 855.059 131.760, 850.051 134.378 C 843.253 137.933, 840.734 137.592, 839.862 133 C 839.081 128.888, 835.529 121.706, 832 117.107 C 828.663 112.758, 814.988 99.032, 811.378 96.408 C 803.125 90.409, 787.043 84.490, 776.246 83.477 C 772.256 83.103, 768.742 82.392, 768.437 81.898 C 767.730 80.754, 755 80.711, 755 81.852 M 747.500 105.055 C 745.300 105.590, 742.825 106.275, 742 106.578 C 741.175 106.881, 740.275 107.138, 740 107.150 C 739.725 107.161, 739.050 107.542, 738.500 107.996 C 737.950 108.450, 735.832 109.133, 733.793 109.514 C 728.217 110.556, 716.849 118.674, 709.974 126.523 C 702.607 134.934, 701.270 137.699, 703.495 139.923 C 704.931 141.359, 705.579 140.977, 710.738 135.652 C 716.439 129.766, 724.608 123.894, 729.060 122.481 C 730.381 122.062, 732.595 120.899, 733.981 119.897 C 736.266 118.245, 745.995 115.680, 755 114.357 C 760.100 113.607, 780.881 117.536, 783.995 119.838 C 785.416 120.889, 788.080 122.078, 789.914 122.481 C 797.531 124.154, 814.424 139.049, 815.679 145.199 C 815.982 146.683, 817.013 148.607, 817.971 149.474 C 819.530 150.885, 819.846 150.890, 820.979 149.525 C 821.836 148.493, 821.924 147.596, 821.253 146.750 C 820.707 146.063, 819.695 143.700, 819.004 141.500 C 818.313 139.300, 817.164 136.825, 816.451 136 C 815.739 135.175, 814.833 133.207, 814.439 131.627 C 813.685 128.609, 799.887 114.023, 797.734 113.969 C 797.055 113.952, 794.250 112.831, 791.500 111.478 C 788.750 110.125, 785.563 109.014, 784.417 109.009 C 783.271 109.004, 781.996 108.662, 781.583 108.250 C 781.171 107.838, 780.533 107.462, 780.167 107.416 C 779.800 107.370, 778.150 106.746, 776.500 106.029 C 772.767 104.408, 752.907 103.740, 747.500 105.055 M 634.500 112.978 C 624.153 115.319, 616.743 118.883, 610.050 124.738 C 599.852 133.658, 590.953 148.694, 592.418 154.529 C 593.178 157.557, 594.519 157.051, 595.438 153.390 C 595.801 151.944, 598.482 147.552, 601.395 143.630 C 609.295 132.996, 619.961 124.052, 626.786 122.339 C 628.246 121.972, 631.029 120.734, 632.970 119.586 C 636.140 117.713, 638.081 117.500, 652 117.500 C 666.805 117.500, 667.603 117.602, 669.782 119.781 C 671.036 121.036, 673.375 122.325, 674.980 122.646 C 676.585 122.967, 678.666 124.078, 679.604 125.115 C 681.371 127.067, 684.493 127.629, 685.402 126.158 C 686.280 124.738, 679.780 119.246, 674.500 116.947 C 667.799 114.029, 653.784 110.980, 647.551 111.084 C 644.773 111.131, 638.900 111.983, 634.500 112.978 M 862.500 154.635 C 861.400 154.857, 857.889 155.547, 854.697 156.167 C 848.543 157.364, 844 160.134, 844 162.689 C 844 163.820, 844.602 164.056, 846.250 163.571 C 851.815 161.932, 863.100 160.831, 869.530 161.300 C 876.201 161.786, 880.210 163.119, 890.797 168.369 C 896.657 171.276, 907.314 181.774, 909.552 186.845 C 910.560 189.130, 911.775 191, 912.251 191 C 912.728 191, 912.840 191.450, 912.500 192 C 912.160 192.550, 912.359 193, 912.941 193 C 913.523 193, 914 193.845, 914 194.878 C 914 197.629, 916.781 199.734, 917.599 197.602 C 918.529 195.179, 916.008 183.217, 914.440 182.615 C 913.693 182.329, 911.916 179.794, 910.491 176.983 C 907.934 171.935, 899.666 163, 897.553 163 C 896.954 163, 894.877 161.922, 892.938 160.604 C 885.726 155.703, 871.265 152.868, 862.500 154.635 M 548 161.635 C 543.785 162.433, 532.702 166.174, 528.901 168.081 C 523.293 170.894, 509.590 185.278, 509.506 188.440 C 509.490 189.023, 508.744 190.850, 507.848 192.500 C 504.712 198.276, 503.716 203.528, 504.453 210.406 C 505.277 218.096, 506.444 218.249, 507.432 210.797 C 507.815 207.911, 508.662 204.907, 509.314 204.121 C 509.966 203.336, 510.436 202.424, 510.357 202.096 C 510.136 201.173, 513.623 194.659, 517.084 189.531 C 521.763 182.598, 533.823 173.101, 543 169.123 C 547.361 167.233, 550.830 166.641, 559.750 166.262 C 567.899 165.916, 571 165.436, 571 164.520 C 571 162.678, 553.850 160.526, 548 161.635 M 823 165.507 C 823 166.206, 823.847 167.825, 824.883 169.103 C 826.579 171.198, 827.039 171.303, 829.535 170.166 C 832.811 168.673, 831.944 167.310, 826.532 165.450 C 823.705 164.478, 823 164.489, 823 165.507 M 917.615 227.561 C 917.352 228.246, 917.710 229.589, 918.410 230.546 C 919.619 232.200, 919.910 232.200, 924.253 230.541 C 928.130 229.061, 929.631 228.967, 934.161 229.924 C 941.968 231.574, 951.923 235.634, 956.500 239.035 C 958.700 240.669, 961.716 242.789, 963.203 243.745 C 966.077 245.592, 974.388 258.708, 975.503 263.155 C 975.870 264.616, 977.316 266.866, 978.717 268.155 L 981.265 270.500 980.751 263.796 C 980.419 259.458, 979.505 255.928, 978.161 253.796 C 977.019 251.983, 975.460 249.150, 974.697 247.500 C 973.934 245.850, 970.505 241.904, 967.077 238.730 C 956.346 228.798, 950.277 226.720, 931.296 226.482 C 921.561 226.360, 917.967 226.644, 917.615 227.561 M 490 235.658 C 489.175 235.974, 485.433 238.279, 481.684 240.781 C 473.708 246.102, 466.349 254.096, 465.425 258.440 C 465.067 260.123, 463.924 263.388, 462.887 265.695 C 460.861 270.200, 460.455 275.589, 461.962 277.972 C 463.063 279.713, 463.441 278.917, 464.481 272.677 C 464.831 270.575, 465.990 267.425, 467.055 265.677 C 468.121 263.930, 468.994 261.712, 468.996 260.750 C 468.998 259.788, 469.412 259, 469.915 259 C 470.418 259, 472.640 256.726, 474.853 253.948 C 479.243 248.434, 482.480 246.003, 491.271 241.618 C 496.800 238.861, 498.691 237.357, 497.777 236.444 C 496.973 235.639, 491.494 235.086, 490 235.658 M 602.474 255.052 C 601.068 257.825, 599.262 260.346, 598.459 260.654 C 597.657 260.962, 597 261.798, 597 262.512 C 597 264.367, 585.245 276.234, 580.500 279.169 C 578.300 280.529, 573.350 282.914, 569.500 284.467 C 563.512 286.883, 561.026 287.307, 552.300 287.396 C 546.690 287.453, 541.653 287.950, 541.108 288.500 C 540.562 289.050, 539.681 292.211, 539.150 295.524 C 538.619 298.837, 537.017 303.742, 535.592 306.423 C 534.166 309.104, 533 312.024, 533 312.910 C 533 316.032, 526.430 324.508, 520.158 329.476 L 513.817 334.500 514.324 339.500 C 515.062 346.763, 513.156 360.243, 510.295 368 C 509.991 368.825, 509.831 371.369, 509.940 373.652 C 510.050 375.936, 509.699 378.636, 509.161 379.652 C 507.938 381.965, 505.258 401.328, 504.373 414.250 C 503.789 422.777, 503.904 424, 505.296 424 C 506.171 424, 507.560 423.039, 508.382 421.865 C 513.451 414.627, 541.641 408, 567.355 408 C 586.117 408, 609.283 412.043, 619.039 417.020 C 622.968 419.024, 635.921 431.218, 640.599 437.315 C 643.414 440.984, 643.641 441.081, 646.513 439.849 C 648.533 438.982, 654.678 438.572, 665.500 438.582 C 679.491 438.595, 682.249 438.874, 687.465 440.799 C 690.746 442.009, 694.190 443, 695.118 443 C 696.046 443, 698.379 440.637, 700.303 437.750 C 702.227 434.863, 704.858 431.548, 706.150 430.385 C 709.053 427.773, 717.259 423, 718.849 423 C 719.494 423, 722.059 422.042, 724.549 420.872 C 727.040 419.701, 729.356 419.022, 729.696 419.363 C 730.037 419.704, 730.807 419.575, 731.408 419.076 C 734.035 416.896, 756.307 415.745, 773.412 416.905 C 782.684 417.534, 790.771 418.364, 791.385 418.749 C 791.998 419.135, 793.314 419.316, 794.310 419.152 C 795.305 418.988, 796.655 419.286, 797.310 419.814 C 797.964 420.342, 800.525 421.097, 803 421.493 C 807.685 422.241, 820.236 426.650, 828 430.273 C 830.475 431.428, 832.743 432.402, 833.040 432.437 C 834.656 432.626, 842.441 439.774, 844.927 443.351 C 849.857 450.443, 851.818 452.084, 854.547 451.399 C 855.898 451.060, 864.002 451.347, 872.556 452.036 C 889.995 453.442, 890.389 453.337, 890.669 447.198 C 890.762 445.164, 891.125 442.150, 891.475 440.500 C 892.026 437.910, 891.492 436.829, 887.566 432.587 C 880.985 425.477, 877.534 414.190, 878.247 402.115 C 878.845 391.992, 881.306 383.563, 884.753 379.831 C 887.794 376.540, 887.293 375.670, 880.502 372.458 C 872.438 368.643, 859.240 353.202, 857.459 345.500 C 857.077 343.850, 856.081 340.331, 855.245 337.680 C 853.576 332.390, 853.999 322.904, 856.153 317.330 C 857.984 312.591, 856.195 311, 849.034 311 C 835.989 311, 820.468 301.564, 813.789 289.572 C 811.784 285.974, 808.667 279.719, 808.519 279 C 808.462 278.725, 807.702 277.150, 806.829 275.500 C 805.955 273.850, 804.927 271.043, 804.544 269.261 C 803.659 265.154, 802.365 264.360, 800.016 266.485 C 795.688 270.402, 779.327 278.601, 772.105 280.473 C 759.480 283.744, 743.310 281.371, 732.187 274.613 C 725.904 270.797, 715.100 260.027, 712.489 254.980 C 710.623 251.370, 710.211 251.337, 705.898 254.461 C 700.155 258.621, 686.616 267.665, 684.438 268.797 C 683.305 269.387, 677.686 271.080, 671.953 272.561 C 660.274 275.577, 650.774 275.567, 639.535 272.527 C 632.695 270.677, 621 265.173, 621 263.804 C 621 263.297, 620.550 263.160, 620 263.500 C 619.450 263.840, 618.999 263.529, 618.997 262.809 C 618.996 262.089, 617.678 260.618, 616.068 259.540 C 614.459 258.461, 613.362 257.224, 613.630 256.790 C 613.898 256.355, 613.461 256, 612.657 256 C 611.854 256, 610.365 254.762, 609.348 253.250 C 606.592 249.148, 605.293 249.489, 602.474 255.052 M 985.512 328.981 C 985.145 329.574, 986.117 332.184, 987.673 334.780 C 989.228 337.376, 990.542 339.950, 990.594 340.500 C 990.817 342.872, 993.045 347, 994.102 347 C 994.888 347, 995.096 345.348, 994.756 341.809 C 994.372 337.812, 993.652 336.097, 991.628 334.357 C 990.183 333.113, 989 331.679, 989 331.170 C 989 329.513, 986.250 327.787, 985.512 328.981 M 571.750 365.654 C 570.237 365.917, 569 366.580, 569 367.125 C 569 367.671, 568.550 367.840, 568 367.500 C 567.450 367.160, 567 367.300, 567 367.811 C 567 368.322, 564.188 369.284, 560.750 369.948 C 557.313 370.613, 553.503 371.796, 552.285 372.578 C 551.067 373.360, 549.468 374, 548.731 374 C 546.129 374, 541.119 380.378, 540.456 384.535 C 539.695 389.311, 542.952 396, 546.040 396 C 547.053 396, 548.160 396.450, 548.500 397 C 549.418 398.486, 555.561 398.210, 559.654 396.500 C 561.629 395.675, 564.089 395, 565.122 395 C 566.155 395, 567 394.663, 567 394.250 C 566.999 393.455, 585.449 393.527, 588 394.332 C 588.825 394.592, 591.750 395.365, 594.500 396.050 C 597.250 396.735, 599.928 397.679, 600.450 398.147 C 600.972 398.616, 603.094 399, 605.165 399 C 609.910 399, 615.506 394.370, 618.244 388.181 C 620.133 383.911, 620.132 383.812, 618.163 379.624 C 615.751 374.492, 614.998 373.838, 606.328 369.350 C 599.736 365.937, 599.068 365.804, 587 365.495 C 580.125 365.319, 573.263 365.391, 571.750 365.654 M 750.190 374.455 C 745.424 375.609, 741.204 378.376, 737.250 382.940 C 736.563 383.733, 736 386.816, 736 389.790 C 736 394.537, 736.375 395.548, 739.072 398.067 C 743.231 401.953, 747.355 402.514, 760.563 400.993 C 777.164 399.081, 783.711 400.273, 799.410 408.066 C 807.314 411.990, 811.854 411.945, 816.465 407.896 C 818.409 406.189, 820 403.939, 820 402.896 C 820 401.853, 820.450 401, 821 401 C 824.027 401, 820.732 393.018, 815.798 388.395 C 811.852 384.699, 803.140 379.796, 801.890 380.568 C 801.401 380.870, 801 380.641, 801 380.059 C 801 379.477, 800.187 379, 799.194 379 C 798.201 379, 794.713 378.157, 791.444 377.126 C 777.996 372.888, 761.168 371.798, 750.190 374.455 M 556 430.658 C 555.175 430.933, 553.825 431.435, 553 431.772 C 552.175 432.110, 551.050 432.455, 550.500 432.540 C 549.950 432.624, 548.600 433.029, 547.500 433.440 C 546.400 433.851, 544.326 434.623, 542.892 435.156 C 541.457 435.689, 538.554 437.897, 536.439 440.063 C 534.324 442.228, 532.010 444, 531.297 444 C 530.584 444, 530 444.503, 530 445.118 C 530 445.733, 528.763 447.741, 527.250 449.581 C 521.103 457.059, 519.445 459.612, 517.284 464.930 C 515.062 470.396, 515.048 474, 517.249 474 C 517.861 474, 520.193 471.900, 522.431 469.333 C 527.765 463.216, 552.306 439.002, 553.173 439.001 C 554.833 438.999, 560 433.632, 560 431.911 C 560 430.022, 558.920 429.684, 556 430.658 M 744.310 441.338 C 740.906 442.539, 737.306 444.299, 736.310 445.248 C 735.315 446.197, 732.250 448.836, 729.500 451.113 C 726.750 453.389, 723.236 457.107, 721.692 459.376 C 720.147 461.644, 718.457 463.651, 717.935 463.835 C 717.414 464.020, 717.242 464.582, 717.553 465.085 C 717.864 465.588, 717.641 466, 717.059 466 C 716.477 466, 716 466.675, 716 467.500 C 716 468.325, 715.578 469, 715.061 469 C 713.907 469, 712.553 477.393, 713.366 479.510 C 713.852 480.777, 714.300 480.830, 715.932 479.811 C 717.019 479.131, 717.707 478.374, 717.461 478.128 C 717.214 477.881, 717.910 477.051, 719.006 476.283 C 720.103 475.515, 721 474.342, 721 473.675 C 721 471.694, 741.107 452.464, 746.255 449.521 C 748.871 448.027, 751.346 446.286, 751.755 445.652 C 752.165 445.018, 753.400 444.001, 754.500 443.391 C 755.600 442.781, 756.500 441.656, 756.500 440.891 C 756.500 438.716, 751.184 438.911, 744.310 441.338 M 473 458.500 C 471.134 460.425, 469.952 462, 470.372 462 C 470.792 462, 470.155 463.378, 468.955 465.063 C 464.331 471.557, 460.009 493.870, 461.840 501.798 C 462.437 504.384, 463.640 509.634, 464.514 513.465 C 465.387 517.295, 467.089 522.020, 468.295 523.965 C 469.501 525.909, 470.491 527.815, 470.494 528.200 C 470.497 528.585, 471.023 529.423, 471.663 530.063 C 473.695 532.095, 475 530.042, 475 524.809 C 475 521.395, 475.689 518.621, 477.108 516.325 C 479.009 513.250, 479.099 512.452, 478.031 508.207 C 476.787 503.269, 478.171 471.920, 479.998 463.621 C 480.946 459.318, 479.805 455, 477.721 455 C 476.990 455, 474.866 456.575, 473 458.500 M 654.711 461.889 C 650.379 462.785, 646.501 464.166, 645.976 465 C 645.456 465.825, 645.008 469.200, 644.981 472.500 C 644.950 476.294, 644.222 479.970, 643 482.500 C 641.937 484.700, 641.053 487.408, 641.034 488.518 C 641.015 489.628, 639.939 492.103, 638.641 494.018 C 637.344 495.933, 635.950 498.555, 635.544 499.844 C 634.874 501.971, 633.128 504.664, 626.187 514.279 C 623.624 517.829, 616.433 525.493, 613.005 528.328 C 609.860 530.929, 600 537.161, 600 536.548 C 600 536.265, 598.355 536.958, 596.345 538.087 C 592.538 540.225, 575.804 542.959, 566.500 542.963 C 557.823 542.967, 544.106 540.230, 539.280 537.533 C 536.787 536.140, 534.232 535, 533.601 535 C 532.970 535, 530.207 533.538, 527.460 531.750 C 524.713 529.962, 521.235 527.861, 519.733 527.081 C 518.230 526.301, 517 525.037, 517 524.272 C 517 523.507, 516.645 523.102, 516.210 523.370 C 515.776 523.638, 514.553 522.567, 513.492 520.989 C 512.432 519.410, 510.843 517.931, 509.963 517.701 C 509.082 517.470, 507.606 515.756, 506.683 513.891 C 504.024 508.522, 499.544 502.536, 497.955 502.230 C 496.747 501.997, 496.530 503.749, 496.677 512.569 C 496.775 518.409, 497.112 523.446, 497.427 523.761 C 497.742 524.076, 498 527.545, 498 531.470 C 498 538.283, 498.155 538.758, 501.422 541.924 C 505.155 545.542, 505.510 546.480, 506.924 556.467 C 508.009 564.132, 509.996 567, 514.221 567 C 520.657 567, 523.645 570.069, 524.921 577.989 C 525.471 581.405, 526.444 584.830, 527.083 585.600 C 528.402 587.189, 532.308 587.441, 534.817 586.098 C 537.919 584.438, 541.770 587.119, 544.731 593 C 547.667 598.832, 547.375 598.710, 555.264 597.402 C 559.676 596.670, 561.659 597.944, 563.695 602.814 C 564.757 605.355, 565.596 606.055, 567.289 605.814 C 569.171 605.547, 569.603 604.656, 570.207 599.796 C 570.626 596.431, 571.959 592.442, 573.458 590.066 C 574.856 587.852, 576 585.573, 576 585.001 C 576 580.826, 588.396 564, 591.472 564 C 592.048 564, 593.053 563.144, 593.707 562.098 C 594.360 561.052, 597.168 559.441, 599.947 558.517 C 602.726 557.594, 605 556.462, 605 556.001 C 605 553.937, 611.920 551, 616.786 551 C 620.330 551, 623.425 550.182, 627.168 548.256 C 634.955 544.248, 640.665 544.569, 648.768 549.467 C 653.973 552.612, 655.649 553.156, 658.642 552.671 C 660.626 552.349, 663.064 551.347, 664.061 550.445 C 665.058 549.542, 666.321 549.081, 666.868 549.418 C 667.415 549.756, 668.144 549.575, 668.490 549.016 C 669.267 547.758, 683 547.654, 683 548.906 C 683 549.405, 683.900 549.577, 685.001 549.290 C 686.106 549.001, 689.574 550, 692.751 551.524 C 696.015 553.090, 701.309 554.599, 705 555.015 C 708.908 555.456, 713.461 556.795, 716.419 558.374 C 719.125 559.818, 722.073 561, 722.969 561 C 723.866 561, 725.140 561.540, 725.800 562.200 C 726.460 562.860, 727 563.112, 727 562.759 C 727 561.494, 732.394 564.954, 737.792 569.682 C 745.735 576.640, 753 585.654, 753 588.552 C 753 589.898, 753.916 591.916, 755.036 593.036 C 756.157 594.157, 756.805 595.507, 756.477 596.036 C 756.150 596.566, 756.248 597, 756.696 597 C 757.787 597, 759.927 603.187, 761.280 610.250 C 762.483 616.533, 764.111 617.561, 765.924 613.185 C 767.220 610.054, 772.557 607.546, 775.621 608.627 C 776.654 608.991, 778.915 610.616, 780.643 612.238 C 783.698 615.102, 783.860 615.138, 786.354 613.503 C 787.767 612.578, 789.205 610.930, 789.550 609.842 C 790.293 607.501, 795.657 604.006, 798.500 604.010 C 799.600 604.012, 801.834 604.893, 803.465 605.967 C 806.203 607.772, 806.566 607.798, 808.215 606.306 C 809.197 605.417, 810 604.093, 810 603.363 C 810 602.632, 811.948 600.002, 814.329 597.518 C 818.191 593.486, 819.136 593, 823.106 593 C 825.553 593, 828.534 593.685, 829.730 594.523 C 831.746 595.935, 831.997 595.880, 833.167 593.773 C 833.861 592.523, 834.460 591.275, 834.498 591 C 834.536 590.725, 835.759 588.644, 837.217 586.375 C 841.064 580.387, 844.818 577.714, 848.377 578.425 C 851.775 579.105, 853.978 577.630, 854.053 574.628 C 854.161 570.239, 860.369 559.587, 864.376 556.916 C 868.985 553.843, 870.668 551.059, 871.577 545 C 871.948 542.525, 872.701 539.938, 873.249 539.250 C 873.797 538.563, 873.907 538, 873.495 538 C 873.083 538, 874.603 535.985, 876.873 533.522 C 880.110 530.010, 881 528.271, 881 525.457 C 881 521.288, 882.214 518.604, 885.872 514.684 C 887.947 512.461, 888.480 510.925, 888.403 507.387 C 888.350 504.922, 887.787 502.387, 887.153 501.753 C 885.792 500.392, 885.622 495.807, 886.882 494.450 C 888.301 492.921, 888.905 479.166, 887.601 478.084 C 885.766 476.561, 853.295 476.305, 851.799 477.801 C 851.111 478.489, 850.274 482.410, 849.939 486.515 C 849.570 491.028, 848.720 494.676, 847.790 495.740 C 846.945 496.708, 845.677 499.300, 844.973 501.500 C 840.468 515.575, 828.927 530.282, 814.752 540.009 C 811.554 542.204, 808.739 544, 808.497 544 C 808.255 544, 805.457 545.198, 802.279 546.661 C 799.100 548.125, 796.275 549.402, 796 549.498 C 795.725 549.594, 794.825 549.942, 794 550.270 C 789.546 552.044, 777.125 554, 770.303 554.002 C 763.253 554.004, 746.773 551.747, 743 550.263 C 742.175 549.938, 741.275 549.604, 741 549.520 C 740.725 549.437, 738.925 548.658, 737 547.790 C 735.075 546.921, 732.375 545.717, 731 545.112 C 722.531 541.388, 715.917 536.154, 708.270 527.125 C 700.363 517.788, 699.412 516.051, 693.967 501 C 693.271 499.075, 692.258 496.517, 691.717 495.316 C 691.175 494.114, 690.970 492.223, 691.260 491.114 C 691.550 490.004, 691.328 488.943, 690.767 488.756 C 689.192 488.231, 689.251 474.610, 690.836 472.699 C 691.571 471.813, 691.876 470.608, 691.513 470.021 C 690.240 467.961, 679.424 463.234, 672.303 461.626 C 664.096 459.772, 665.007 459.758, 654.711 461.889 M 940.554 473.727 C 936.991 474.633, 931.550 478.672, 927 483.788 C 919.500 492.220, 918.341 494.228, 917.680 499.937 C 917.145 504.556, 916.425 506.010, 912.893 509.609 C 909.303 513.267, 908.838 514.229, 909.476 516.672 C 911.058 522.729, 911.140 530.790, 909.670 535.741 C 908.574 539.430, 908.324 543.452, 908.731 550.838 C 909.261 560.467, 909.161 561.153, 906.435 566.542 L 903.583 572.177 906.042 574.155 C 909.650 577.057, 918.143 580.979, 920.846 580.990 C 930.547 581.031, 960 566.283, 960 561.385 C 960 560.703, 961.110 559.272, 962.466 558.205 C 963.822 557.138, 964.647 555.981, 964.299 555.633 C 963.951 555.285, 964.192 555, 964.833 555 C 965.475 555, 966 554.325, 966 553.500 C 966 552.675, 966.340 552, 966.756 552 C 967.172 552, 968.097 550.538, 968.813 548.750 C 969.528 546.962, 970.976 543.700, 972.030 541.500 C 973.084 539.300, 974.439 534.920, 975.040 531.767 C 975.642 528.615, 976.562 525.771, 977.084 525.448 C 977.606 525.126, 977.793 524.474, 977.500 524 C 977.207 523.526, 977.425 522.856, 977.984 522.510 C 978.549 522.161, 979 517.938, 979 513 C 979 508.062, 978.549 503.839, 977.984 503.490 C 977.425 503.144, 977.207 502.474, 977.500 502 C 977.793 501.526, 977.620 500.883, 977.117 500.572 C 976.613 500.261, 975.655 497.642, 974.988 494.753 C 974.321 491.864, 973.040 488.375, 972.141 487 C 971.242 485.625, 970.005 483.358, 969.391 481.963 C 968.723 480.442, 965.860 478.138, 962.248 476.213 C 957.036 473.435, 955.292 473.016, 949.360 473.116 C 945.587 473.180, 941.624 473.455, 940.554 473.727 M 219.780 529.984 C 216.136 533.629, 215.834 534.333, 216.242 538.234 C 216.645 542.090, 221.226 560.312, 222.720 564 C 223.054 564.825, 223.404 565.725, 223.497 566 C 223.591 566.275, 224.192 567.767, 224.834 569.315 C 225.475 570.863, 226 572.687, 226 573.368 C 226 575.626, 232.989 603.109, 234.126 605.324 C 234.741 606.521, 236.652 608.736, 238.372 610.248 C 242.818 614.153, 247.785 614.005, 252.545 609.826 C 256.028 606.768, 256.144 606.448, 255.733 601.076 C 255.365 596.284, 251.922 580.608, 250.225 576 C 249.921 575.175, 249.596 574.275, 249.503 574 C 249.409 573.725, 248.869 572.375, 248.303 571 C 247.736 569.625, 246.946 566.276, 246.546 563.559 C 246.147 560.841, 245.021 556.566, 244.043 554.059 C 243.066 551.551, 241.955 547.250, 241.575 544.500 C 240.747 538.515, 238.092 531, 236.805 531 C 236.297 531, 236.160 530.550, 236.500 530 C 236.840 529.450, 236.472 529, 235.681 529 C 234.891 529, 233.685 528.325, 233 527.500 C 232.274 526.625, 230.091 526, 227.760 526 C 224.435 526, 223.096 526.668, 219.780 529.984 M 624.134 584.721 C 622.833 584.968, 621.544 586.026, 621.271 587.073 C 620.997 588.121, 620.374 588.731, 619.886 588.430 C 619.399 588.128, 619 588.359, 619 588.941 C 619 589.545, 616.852 590, 614 590 C 611.250 590, 609 589.663, 609 589.250 C 609 588.837, 607.616 588.500, 605.925 588.500 C 603.370 588.500, 602.757 588.965, 602.300 591.250 C 601.998 592.763, 601.330 594, 600.816 594 C 600.302 594, 600.162 594.453, 600.504 595.007 C 600.846 595.561, 600.264 597.248, 599.209 598.757 C 596.297 602.923, 595.882 606.127, 596.988 615.895 C 598.272 627.230, 598.379 627.477, 603.557 631.040 C 605.932 632.673, 609.143 635.899, 610.694 638.209 C 613.102 641.793, 614.076 642.444, 617.356 642.653 C 619.468 642.788, 622.283 643.611, 623.611 644.481 C 624.939 645.351, 627.703 646.161, 629.753 646.281 L 633.480 646.500 634.586 640.949 C 635.692 635.405, 638.129 630.582, 640.986 628.282 C 642.901 626.741, 649.239 626.639, 650.725 628.125 C 651.343 628.743, 656.447 629.568, 662.066 629.958 C 674.184 630.798, 675 631.448, 675 640.257 C 675 648.929, 675.875 650, 682.959 650 C 686.198 650, 691.120 650.525, 693.898 651.166 C 698.766 652.290, 699.131 652.218, 704.040 649.166 C 708.168 646.600, 710.188 646, 714.702 646 C 721.119 646, 723.919 643.852, 726.045 637.300 C 726.723 635.210, 728.146 632.263, 729.207 630.750 C 730.268 629.237, 730.791 628, 730.368 628 C 729.946 628, 730.140 627.460, 730.800 626.800 C 732.323 625.277, 732.419 611.377, 730.913 610.446 C 730.315 610.077, 730.053 608.906, 730.331 607.844 C 730.649 606.628, 730.126 605.471, 728.918 604.716 C 727.863 604.058, 727 602.932, 727 602.214 C 727 599.765, 722.202 596, 719.080 596 C 717.161 596, 714.831 594.912, 712.653 593 C 709.053 589.840, 704.572 589.088, 700.934 591.035 C 697.958 592.628, 698.598 593.935, 703.391 596.055 C 711.066 599.450, 710.132 606.505, 701 614.127 C 696.499 617.883, 694.625 618.501, 676.500 622.202 C 663.505 624.857, 635.015 621.037, 629.426 615.891 C 628.285 614.841, 627.136 614.198, 626.872 614.461 C 625.951 615.382, 616.488 606.771, 614.988 603.648 C 612.972 599.452, 614.918 594.886, 619.693 592.610 C 624.893 590.130, 627.539 590.630, 635 595.500 C 638.791 597.975, 642.368 600, 642.947 600 C 643.526 600, 644 600.477, 644 601.059 C 644 601.641, 644.500 601.809, 645.112 601.431 C 645.723 601.053, 646.608 601.364, 647.077 602.122 C 648.223 603.972, 673.086 604.004, 675.309 602.158 C 676.123 601.483, 677.174 601.034, 677.645 601.162 C 678.115 601.289, 680.613 600.405, 683.195 599.197 C 685.777 597.989, 688.745 597, 689.790 597 C 692.116 597, 695.160 593.840, 694.199 592.423 C 692.782 590.333, 684.821 586.904, 683.647 587.878 C 683.016 588.401, 682.050 588.943, 681.500 589.082 C 680.950 589.220, 678.495 590.220, 676.045 591.304 C 671.702 593.225, 671.457 593.230, 666.295 591.475 C 663.383 590.485, 661 589.383, 661 589.026 C 661 588.669, 660.082 587.392, 658.961 586.189 C 656.203 583.228, 651.400 583.364, 646.732 586.536 C 644.679 587.931, 643 588.741, 643 588.336 C 643 587.931, 642.460 588.140, 641.800 588.800 C 639.998 590.602, 638.503 590.291, 633.154 587 C 630.473 585.350, 627.879 584.061, 627.389 584.136 C 626.900 584.211, 625.435 584.474, 624.134 584.721 M 127.750 586.392 C 124.607 588.778, 121 595.024, 121 598.080 C 121 602.221, 122.934 604.796, 130.751 611.064 C 134.463 614.039, 137.725 616.742, 138 617.069 C 139.733 619.131, 158.083 634, 158.895 634 C 159.441 634, 161.827 636.250, 164.195 639 C 166.563 641.749, 168.888 643.999, 169.361 644 C 169.835 644, 172.310 645.700, 174.861 647.778 C 182.926 654.345, 184.339 654.742, 188.462 651.597 C 194.888 646.695, 196.670 640.393, 192.963 635.680 C 190.994 633.176, 179.819 622.912, 165.549 610.500 C 161.755 607.200, 154.567 600.880, 149.575 596.455 C 144.584 592.031, 139.387 587.643, 138.027 586.705 C 135.096 584.683, 130.198 584.534, 127.750 586.392 M 91.300 694.937 C 89.541 695.371, 86.913 697.138, 85.461 698.863 C 84.010 700.589, 82.187 702, 81.411 702 C 80.431 702, 80 703.223, 80 706 C 80 709.318, 80.337 710, 81.977 710 C 83.064 710, 84.686 711.117, 85.580 712.481 C 87.633 715.614, 92.534 716.987, 101.691 716.994 C 105.813 716.998, 109.171 717.467, 109.558 718.094 C 109.930 718.696, 111.291 718.986, 112.582 718.740 C 113.874 718.493, 115.069 718.707, 115.238 719.215 C 115.515 720.046, 146.218 722.306, 156.732 722.268 C 161.863 722.250, 164.941 720.382, 167.417 715.784 C 170.178 710.656, 169.008 705.971, 164.120 702.583 C 160.644 700.174, 158.990 699.839, 146.393 698.988 C 138.752 698.473, 130.250 697.634, 127.500 697.125 C 124.750 696.616, 118.225 695.915, 113 695.566 C 107.775 695.218, 101.475 694.756, 99 694.539 C 96.525 694.323, 93.060 694.502, 91.300 694.937 M 810.713 698.305 C 810.438 699.023, 808.371 700.217, 806.121 700.960 C 803.870 701.703, 801.287 703.130, 800.381 704.132 C 799.474 705.133, 798.374 705.731, 797.935 705.460 C 797.497 705.189, 796.856 705.425, 796.510 705.984 C 796.165 706.543, 794.896 707.015, 793.691 707.034 C 792.486 707.053, 789.700 707.937, 787.500 709 C 785.300 710.063, 782.299 710.947, 780.832 710.966 C 777.111 711.013, 775 711.969, 775 713.607 C 775 715.290, 774.996 715.290, 787.500 715.027 C 795.454 714.859, 798.162 714.411, 800.734 712.836 C 804.629 710.452, 815.080 698.939, 814.379 697.805 C 813.600 696.544, 811.267 696.862, 810.713 698.305 M 260.025 715.692 C 255.656 716.281, 248.161 721.717, 244.565 726.906 C 242.048 730.538, 241.774 731.862, 241.304 742.685 C 240.980 750.133, 241.196 755.534, 241.888 757.297 C 242.897 759.867, 243.290 760.039, 246.743 759.425 C 248.809 759.058, 250.928 758.362, 251.450 757.879 C 252.765 756.662, 267.739 756.769, 268.500 758 C 268.840 758.550, 272.440 759, 276.500 759 C 280.560 759, 284.160 758.550, 284.500 758 C 285.270 756.754, 298.677 756.668, 299.441 757.904 C 299.748 758.401, 304.837 759.093, 310.750 759.442 C 316.662 759.791, 324.200 760.538, 327.500 761.101 C 339.357 763.127, 416.560 766.288, 431.500 765.360 C 437 765.018, 472.455 765.304, 510.290 765.996 C 548.124 766.688, 579.361 766.972, 579.706 766.627 C 580.814 765.519, 579.545 765.084, 571.947 763.961 C 557.400 761.812, 547.886 758.239, 546.065 754.242 C 544.319 750.412, 546.927 748.621, 553 749.479 C 561.028 750.613, 575.135 751.860, 592.500 752.972 C 611.588 754.193, 628.011 755.891, 629.472 756.793 C 630.007 757.123, 632.167 757.268, 634.273 757.116 C 636.379 756.964, 638.641 757.258, 639.301 757.770 C 639.960 758.282, 643.200 759.200, 646.500 759.809 C 649.800 760.419, 653.850 761.195, 655.500 761.533 C 660.067 762.468, 738.562 765.072, 773 765.431 C 804.806 765.763, 812.864 766.726, 815.643 770.527 C 816.278 771.395, 818.345 772.533, 820.236 773.055 C 827.757 775.131, 838.313 788.750, 841.510 800.500 C 843.306 807.103, 843.397 811.139, 843.105 871.660 L 842.795 935.820 844.944 936.970 C 846.125 937.602, 848.534 937.980, 850.296 937.810 L 853.500 937.500 854.152 919.580 C 854.511 909.724, 855.335 895.774, 855.985 888.580 C 856.782 879.737, 857.057 856.390, 856.832 816.500 C 856.457 749.833, 857.088 754.978, 848.142 745.669 C 838.368 735.498, 837.729 735.414, 768 735.101 C 740.775 734.979, 708.375 734.475, 696 733.982 C 683.625 733.489, 657.750 732.782, 638.500 732.410 C 619.250 732.038, 603.050 731.388, 602.500 730.966 C 601.950 730.543, 565.500 729.962, 521.500 729.673 C 458.711 729.261, 439.026 728.826, 430 727.652 C 423.675 726.829, 411.300 725.858, 402.500 725.495 C 393.700 725.131, 381.775 724.161, 376 723.338 C 370.225 722.516, 356.717 721.507, 345.982 721.096 C 330.934 720.521, 325.896 719.990, 323.982 718.778 C 322.023 717.537, 317.077 717.075, 300.500 716.585 C 288.950 716.243, 275.900 715.797, 271.500 715.594 C 267.100 715.390, 261.936 715.435, 260.025 715.692 M 238.750 781.369 C 236.688 782.783, 235 783.640, 235 783.274 C 235 782.036, 227.831 789.468, 224.655 794 C 221.536 798.448, 221.499 798.644, 221.432 810.976 C 221.331 829.360, 221.767 830.331, 228.725 827.244 C 231.886 825.841, 237.448 825.482, 262.917 825.034 C 285.975 824.629, 293.435 824.198, 293.751 823.250 C 294.354 821.438, 300.143 821.718, 304.096 823.750 C 307.181 825.336, 313.075 825.560, 367 826.143 C 399.725 826.496, 505.032 826.815, 601.016 826.850 L 775.532 826.914 782.376 829.489 C 791.779 833.029, 797.525 837.491, 805.917 847.770 C 808.283 850.668, 810.602 854.718, 811.070 856.770 C 811.538 858.821, 811.969 882.906, 812.029 910.291 C 812.118 951.697, 812.384 960.676, 813.609 963.607 C 815.318 967.696, 818.023 967.887, 819.106 963.995 C 819.488 962.623, 819.845 957.638, 819.900 952.917 C 819.955 948.196, 820.269 944.064, 820.598 943.735 C 820.927 943.407, 821.132 936.395, 821.054 928.155 C 820.964 918.671, 821.295 912.936, 821.956 912.527 C 823.332 911.677, 823.354 890.337, 821.979 889.487 C 821.310 889.074, 820.980 874.710, 821.022 847.776 L 821.086 806.697 818.586 801.586 C 814.573 793.383, 810.608 790.236, 801.937 788.370 C 795.272 786.935, 781.481 786.819, 669 787.250 C 532.340 787.774, 418.431 786.937, 369 785.046 C 342.564 784.034, 336.857 783.551, 333.500 782.038 C 329.933 780.430, 324.794 780.158, 286 779.516 L 242.500 778.797 238.750 781.369 M 878.597 789.141 C 878.364 789.888, 877.682 813.900, 877.083 842.500 C 876.483 871.100, 875.716 905.778, 875.379 919.561 C 874.824 942.254, 874.925 944.782, 876.454 946.311 C 878.447 948.304, 881.349 948.506, 882.760 946.750 C 883.312 946.063, 884.089 941, 884.487 935.500 C 884.885 930, 885.455 925.097, 885.755 924.604 C 886.054 924.111, 886.204 920.442, 886.087 916.451 C 885.962 912.178, 886.312 908.925, 886.938 908.539 C 887.577 908.144, 888.014 903.621, 888.035 897.191 C 888.054 891.311, 888.739 882.900, 889.556 878.500 C 891.043 870.494, 892.968 837.197, 893.141 816.500 C 893.274 800.446, 892.351 794.705, 889.146 791.665 C 885.990 788.673, 879.247 787.059, 878.597 789.141 M 277.300 888.534 C 274.440 890.438, 270.697 894.033, 268.983 896.524 L 265.867 901.054 266.065 935.277 C 266.174 954.100, 266.192 987.275, 266.105 1009 L 265.948 1048.500 269.235 1054.406 C 271.856 1059.116, 273.567 1060.877, 277.686 1063.102 L 282.850 1065.892 353.466 1066.067 L 424.081 1066.243 429.790 1061.272 C 432.931 1058.537, 435.968 1055.381, 436.539 1054.257 C 437.111 1053.133, 438.150 1051.524, 438.850 1050.681 C 439.852 1049.473, 440.067 1037.328, 439.865 993.324 C 439.723 962.621, 439.736 930.300, 439.894 921.500 C 440.152 907.018, 439.978 905.033, 438.052 900.580 C 435.657 895.039, 432.766 891.974, 428.120 890.050 C 426.378 889.328, 424.569 888.053, 424.101 887.216 C 423.354 885.882, 414.614 885.657, 352.875 885.384 L 282.500 885.074 277.300 888.534 M 919.355 906.500 C 919.352 911.450, 919.521 913.601, 919.731 911.280 C 919.940 908.959, 919.943 904.909, 919.736 902.280 C 919.530 899.651, 919.358 901.550, 919.355 906.500 M 322.570 906 L 286.641 906.500 286.657 974.801 C 286.671 1032.312, 286.897 1043.322, 288.087 1044.493 C 289.258 1045.645, 300.337 1045.926, 352.779 1046.135 L 416.058 1046.386 418.240 1044.204 C 419.948 1042.496, 420.159 1041.759, 419.211 1040.811 C 417.693 1039.293, 417.535 1018.865, 419.030 1017.370 C 420.503 1015.897, 420.470 938.271, 418.995 936.494 C 418.303 935.660, 417.959 930.133, 418.058 921.438 C 418.182 910.416, 417.929 907.540, 416.777 906.895 C 414.873 905.829, 367.304 905.377, 322.570 906 M 1084.406 919.152 C 1083.640 920.392, 1086.544 923, 1088.691 923 C 1090.330 923, 1090.393 920.793, 1088.800 919.200 C 1087.282 917.682, 1085.328 917.661, 1084.406 919.152 M 487.775 922.461 C 481.164 927.035, 480.210 931.965, 484.917 937.234 L 487.835 940.500 540.417 940.776 C 569.338 940.928, 593 940.703, 593 940.276 C 593 939.344, 598.732 939.398, 599.672 940.339 C 600.845 941.512, 697 941.118, 697 939.941 C 697 939.359, 697.478 939.178, 698.063 939.539 C 699.347 940.333, 703 937.230, 703 935.345 C 703 934.605, 703.450 934, 704 934 C 704.550 934, 705 932.270, 705 930.155 C 705 925.746, 703.223 923.742, 698 922.259 C 695.806 921.635, 658.866 921.216, 599 921.133 C 546.475 921.061, 500.800 920.751, 497.500 920.443 C 492.177 919.947, 491.080 920.175, 487.775 922.461 M 923 941.319 C 923 946.073, 924.363 948.037, 926.312 946.088 C 927.163 945.237, 927.132 944.441, 926.191 942.934 C 925.499 941.826, 925.168 940.538, 925.455 940.073 C 925.743 939.607, 925.308 938.671, 924.489 937.991 C 923.207 936.927, 923 937.391, 923 941.319 M 489.004 971.640 C 487.512 972.267, 485.327 974.137, 484.146 975.795 C 481.904 978.944, 481.234 984, 483.059 984 C 483.641 984, 483.870 984.401, 483.568 984.890 C 483.265 985.380, 484.642 986.551, 486.626 987.493 C 489.967 989.078, 497.960 989.195, 594.367 989.064 C 659.135 988.976, 699.897 988.550, 702.196 987.937 C 712.285 985.247, 712.691 972.893, 702.735 971.544 C 693.970 970.357, 491.840 970.447, 489.004 971.640 M 487.967 1023.376 C 483.526 1026.394, 481.239 1030.378, 482.841 1032.308 C 483.469 1033.065, 483.720 1033.947, 483.398 1034.268 C 483.077 1034.590, 484.613 1036.156, 486.811 1037.748 L 490.809 1040.644 554.240 1040.475 C 614.570 1040.315, 617.829 1040.214, 620.885 1038.409 C 623.958 1036.594, 627 1032.121, 627 1029.418 C 627 1028.716, 625.484 1026.535, 623.632 1024.571 L 620.264 1021 555.864 1021 L 491.464 1021 487.967 1023.376" stroke="none" fill="#171916" fill-rule="evenodd"/>
</svg>