<svg role="img" aria-labelledby="artwork-title" shape-rendering="geometricPrecision" xmlns="http://www.w3.org/2000/svg" width="1200" height="1200" viewBox="0 0 1200 1200" version="1.1">
	<title id="artwork-title">Mascot presenting a featured project</title>
	<path d="M 927 255.793 C 927 256.228, 923.034 257.821, 918.187 259.332 C 911.342 261.466, 908.237 263.075, 904.276 266.540 C 899.173 271.003, 896.704 271.948, 895.449 269.917 C 893.749 267.167, 883.911 262.134, 877.303 260.634 C 868.480 258.631, 863.887 258.582, 856.331 260.411 C 853.124 261.187, 849.319 262.082, 847.875 262.399 C 843.510 263.357, 831.733 271.861, 827.887 276.831 C 825.901 279.399, 823.300 283.421, 822.107 285.769 C 820.241 289.446, 819.676 289.897, 818.036 289.019 C 816.988 288.459, 811.573 288, 806.002 288 C 793.925 288, 788.764 289.910, 777.357 298.604 C 771.930 302.740, 769.610 305.303, 767.698 309.274 C 763.248 318.516, 762 322.906, 762 329.320 C 762 336.089, 760.961 338, 757.280 338 C 751.982 338, 742.399 345.802, 737.628 354 C 732.919 362.091, 731.498 367.442, 731.520 377 C 731.542 386.379, 733.043 391.316, 737.922 398.051 L 740.865 402.114 738.832 405.560 C 737.714 407.456, 736.387 409.261, 735.883 409.572 C 735.379 409.884, 735.238 410.577, 735.570 411.113 C 735.901 411.649, 735.628 412.744, 734.962 413.546 C 733.496 415.312, 733.137 429.866, 734.506 432 C 735.036 432.825, 735.491 433.725, 735.518 434 C 735.666 435.531, 741.120 442.836, 743.091 444.145 C 745.345 445.641, 745.373 445.850, 744.187 452.290 C 742.413 461.914, 744.494 469.412, 750.717 475.821 C 752.826 477.993, 752.199 479.535, 748.486 481.305 C 746.082 482.452, 743.485 485.274, 740.264 490.241 C 737.674 494.233, 735.517 497.950, 735.471 498.500 C 735.424 499.050, 735.114 500.175, 734.781 501 C 730.738 511.029, 731.069 534.402, 735.315 538.648 C 735.692 539.025, 736 539.981, 736 540.772 C 736 541.563, 737.350 544.210, 739 546.655 C 740.650 549.100, 742 551.449, 742 551.876 C 742 552.970, 746.425 557, 747.626 557 C 749.819 557, 753.168 561.248, 752.622 563.337 C 751.577 567.335, 758.432 593.266, 760.992 595 C 761.398 595.275, 762.068 596.625, 762.481 598 C 762.894 599.375, 764.240 601.850, 765.472 603.500 C 766.704 605.150, 768.015 607.457, 768.384 608.627 C 768.754 609.796, 771.229 613.236, 773.885 616.271 C 776.541 619.306, 779.714 623.194, 780.936 624.910 C 782.158 626.626, 784.585 628.761, 786.329 629.655 C 788.073 630.549, 790.998 633.017, 792.828 635.140 C 794.658 637.263, 796.540 639, 797.009 639 C 798.276 639, 804.909 643.381, 804.958 644.250 C 804.981 644.663, 803.763 644.996, 802.250 644.992 C 797.039 644.976, 772.459 651.448, 771.435 653.106 C 771.149 653.568, 769.022 654.452, 766.708 655.071 C 764.394 655.690, 760.025 657.327, 757 658.710 C 753.975 660.092, 749.475 662.153, 747 663.290 C 744.525 664.427, 742.140 665.952, 741.700 666.679 C 739.419 670.449, 739 666.456, 739 640.938 C 739 619.252, 738.693 612.939, 737.457 609.158 C 734.487 600.080, 723.441 590.030, 713.500 587.365 C 706.637 585.524, 210.560 585.334, 203.193 587.169 C 193.473 589.589, 182.517 599.329, 179.030 608.650 C 177.017 614.029, 176.996 615.721, 176.956 770.799 C 176.922 905.832, 177.119 928.065, 178.378 931.506 C 180.696 937.843, 182.319 940.718, 184.263 941.932 C 185.595 942.764, 257.863 943.062, 458.653 943.062 C 718.882 943.062, 731.297 942.981, 732.617 941.281 C 733.935 939.584, 734.072 939.594, 735.543 941.500 C 737.049 943.454, 738.463 943.508, 796.366 943.824 C 828.970 944.003, 857.104 943.771, 858.884 943.310 C 863.070 942.225, 862.845 940.821, 858.227 939.222 C 856.197 938.519, 850.703 936.130, 846.018 933.913 C 841.333 931.696, 834.754 928.596, 831.398 927.024 C 828.043 925.452, 822.643 922.451, 819.398 920.356 C 807.676 912.785, 807.313 912.660, 800.885 914.024 C 791.167 916.087, 757.326 913.806, 751.029 910.664 C 749.194 909.749, 746.871 909, 745.867 909 C 744.862 909, 742.344 908.389, 740.270 907.643 C 732.606 904.885, 728.401 903.629, 724.500 902.930 C 717.191 901.622, 703 895.578, 703 893.774 C 703 893.231, 703.654 893.037, 704.454 893.344 C 705.254 893.651, 710.317 894.194, 715.704 894.551 C 730.247 895.514, 733.401 893.544, 729.474 885.950 C 728.061 883.218, 727.526 882.996, 722.224 882.940 C 719.076 882.908, 714.475 882.486, 712 882.004 C 701.513 879.960, 692.113 877.961, 686.500 876.582 C 683.200 875.772, 678.393 874.604, 675.817 873.988 C 673.242 873.371, 670.599 872.222, 669.945 871.433 C 669.290 870.645, 668.177 870, 667.470 870 C 666.763 870, 663.876 868.802, 661.054 867.338 C 654.006 863.682, 655.867 862.156, 664.161 864.792 C 667.647 865.900, 673.875 867.583, 678 868.532 C 682.125 869.480, 686.175 870.488, 687 870.772 C 687.825 871.055, 689.760 871.186, 691.300 871.063 C 692.841 870.940, 694.743 871.372, 695.529 872.024 C 696.371 872.723, 702.056 873.430, 709.382 873.746 C 720.984 874.247, 722.045 874.136, 725.403 872.060 C 728.148 870.363, 729 869.173, 729 867.033 C 729 862.313, 726.093 861.303, 710.972 860.771 C 701.399 860.434, 696.632 859.840, 694.500 858.719 C 692.850 857.852, 688.350 856.671, 684.500 856.095 C 674.839 854.651, 669.412 853.135, 663.133 850.127 C 656.984 847.180, 656.040 845.719, 658.516 842.982 C 661.084 840.145, 664.709 839.804, 682.500 840.731 C 701.841 841.739, 724.752 840.828, 735.142 838.638 C 750.505 835.400, 755.334 834.078, 756.053 832.915 C 756.456 832.262, 759.100 831.505, 761.928 831.233 C 765.642 830.876, 767.476 830.158, 768.535 828.647 C 771.339 824.644, 770.375 821.645, 764.500 816.088 C 761.475 813.228, 759 810.640, 759 810.337 C 759 810.035, 757.588 808.005, 755.862 805.825 C 753.222 802.493, 752.645 800.774, 752.233 795.014 C 751.778 788.659, 751.929 787.980, 754.326 785.583 C 758.950 780.959, 763.914 782.672, 771.450 791.493 C 777.750 798.868, 792.945 810.793, 801.442 815.032 C 805.155 816.885, 821 832.404, 821 834.189 C 821 834.921, 822.125 836.734, 823.500 838.217 C 824.875 839.699, 826 841.382, 826 841.956 C 826 842.530, 826.450 843, 827 843 C 827.550 843, 828 843.591, 828 844.313 C 828 845.035, 829.237 846.790, 830.750 848.213 C 832.936 850.269, 834.863 850.921, 840.143 851.390 C 843.796 851.715, 847.396 852.205, 848.143 852.479 C 850.327 853.281, 869.654 856.025, 880.406 857.060 C 885.854 857.584, 890.875 858.481, 891.564 859.053 C 892.254 859.625, 898.371 860.531, 905.159 861.066 C 925.430 862.663, 946.951 864.977, 956 866.532 C 967.490 868.508, 969.275 868.401, 971.923 865.582 C 975.426 861.853, 974.052 857.381, 968.650 854.928 C 966.367 853.892, 963.487 853.034, 962.250 853.022 C 958.960 852.990, 959.208 851.567, 964.660 839.250 C 965.572 837.188, 966.397 835.275, 966.491 835 C 966.586 834.725, 967.639 832.325, 968.832 829.667 C 970.024 827.009, 971.015 824.534, 971.033 824.167 C 971.052 823.800, 971.966 822.419, 973.066 821.099 C 974.777 819.044, 975.386 818.864, 977.283 819.850 C 978.502 820.484, 984.900 821.449, 991.500 821.994 C 1005.331 823.138, 1011.532 824.297, 1022 827.696 C 1026.125 829.035, 1030.577 830.392, 1031.894 830.710 C 1033.211 831.028, 1035.123 832.123, 1036.144 833.144 C 1037.165 834.165, 1038.833 835, 1039.851 835 C 1040.869 835, 1043.907 836.176, 1046.601 837.613 C 1049.295 839.050, 1053.701 841.381, 1056.391 842.792 C 1059.081 844.203, 1062.410 846.402, 1063.787 847.679 C 1065.165 848.955, 1066.817 850, 1067.459 850 C 1068.100 850, 1070.805 851.945, 1073.468 854.322 L 1078.311 858.644 1075.734 865.572 C 1074.317 869.382, 1072.843 873.588, 1072.458 874.918 C 1072.074 876.247, 1069.839 881.197, 1067.493 885.918 C 1065.146 890.638, 1062.502 896.238, 1061.617 898.363 C 1059.176 904.222, 1049.481 919.290, 1040.781 930.744 C 1036.501 936.379, 1033 941.389, 1033 941.878 C 1033 942.367, 1034.013 943.038, 1035.250 943.370 C 1038.180 944.155, 1073.820 944.155, 1076.750 943.370 C 1078.999 942.767, 1079 942.758, 1079.004 920.133 C 1079.007 899.981, 1079.208 897.171, 1080.834 894.500 C 1081.839 892.850, 1083.485 888.876, 1084.493 885.669 L 1086.325 879.838 1089.725 880.476 C 1094.889 881.445, 1099.717 879.373, 1103.066 874.751 C 1104.680 872.523, 1106 869.675, 1106 868.421 C 1106 867.168, 1106.570 865.548, 1107.267 864.821 C 1107.963 864.095, 1109.347 859.900, 1110.342 855.500 C 1111.337 851.100, 1112.778 844.800, 1113.546 841.500 C 1114.313 838.200, 1115.241 833.250, 1115.607 830.500 C 1115.973 827.750, 1116.634 824.530, 1117.075 823.345 C 1117.517 822.160, 1118.366 814.060, 1118.963 805.345 C 1120.883 777.287, 1117.639 747.196, 1111.001 731.500 C 1110.536 730.400, 1109.895 728.294, 1109.576 726.820 C 1109.258 725.346, 1108.382 723.525, 1107.630 722.773 C 1106.879 722.022, 1105.915 720.303, 1105.488 718.953 C 1104.345 715.340, 1098.132 705.404, 1092.070 697.495 C 1087.026 690.914, 1073.311 676.678, 1069.925 674.509 C 1065.794 671.863, 1059.126 667.240, 1055.984 664.844 C 1047.893 658.676, 1025.321 648.162, 1012.099 644.403 C 1007.370 643.058, 1002.600 641.574, 1001.500 641.104 C 995.475 638.529, 993.592 638, 990.453 638 C 988.243 638, 987 637.520, 987 636.667 C 987 635.208, 994.239 629, 995.941 629 C 996.524 629, 997 628.618, 997 628.151 C 997 627.129, 1001.780 621.478, 1008.220 614.884 C 1012.392 610.612, 1015.318 606.124, 1019.802 597.116 C 1022.418 591.861, 1022.779 591.502, 1025.131 591.834 C 1037.411 593.562, 1046.723 592.555, 1053.500 588.764 C 1054.600 588.149, 1056.400 587.151, 1057.500 586.547 C 1066.377 581.672, 1076.473 571.727, 1079.293 565.078 C 1079.895 563.660, 1080.978 561.786, 1081.700 560.914 C 1082.422 560.041, 1083.971 555.541, 1085.142 550.914 C 1086.896 543.984, 1087.171 540.725, 1086.702 532.437 C 1086.061 521.094, 1084.275 515.519, 1079.320 509.397 C 1075.253 504.371, 1075.232 503.304, 1079.129 499.500 C 1085.305 493.472, 1088.148 483.247, 1086.925 471.466 C 1086.106 463.574, 1086.536 462.356, 1092.041 456.960 C 1096.487 452.602, 1099.221 446.909, 1100.966 438.378 C 1102.037 433.146, 1101.979 431.203, 1100.568 424.999 C 1098.498 415.896, 1096.997 412.932, 1090.827 405.766 L 1085.891 400.032 1087.410 396.766 C 1094.706 381.085, 1090.446 359.031, 1077.775 346.874 C 1071.473 340.828, 1059.793 335, 1053.978 335 L 1050 335 1050 330.105 C 1050 314.528, 1037.357 297.376, 1021 290.762 C 1016.416 288.908, 1013.669 288.550, 1004.500 288.612 C 998.450 288.653, 992.150 289.001, 990.500 289.385 C 987.674 290.042, 987.368 289.805, 985.222 285.291 C 983.970 282.656, 982.271 279.290, 981.447 277.812 C 979.570 274.441, 968.378 263, 966.958 263 C 966.378 263, 964.093 262.125, 961.880 261.056 C 959.667 259.987, 955.413 258.605, 952.428 257.985 C 949.443 257.365, 947 256.440, 947 255.929 C 947 255.418, 942.500 255, 937 255 C 931.500 255, 927 255.357, 927 255.793 M 928.670 271.046 C 921.151 272.309, 909.445 278.631, 906.031 283.272 C 904.433 285.446, 902.197 287.874, 901.062 288.669 C 898.919 290.170, 898.239 293, 900.022 293 C 900.585 293, 902.947 291.269, 905.272 289.153 C 912.190 282.858, 920.052 278.448, 927.698 276.574 C 934.850 274.821, 936.193 274.871, 946.500 277.272 C 955.876 279.456, 966.344 287.874, 970.977 296.955 C 973.621 302.138, 974.356 302.077, 973.465 296.750 C 972.175 289.035, 963.742 278.592, 955.644 274.683 C 946.792 270.410, 938.844 269.338, 928.670 271.046 M 851.750 276.112 C 847.125 277.923, 844 279.723, 844 280.574 C 844 281.358, 843.358 282, 842.573 282 C 840.927 282, 835 288.831, 835 290.728 C 835 292.638, 835.533 292.356, 840.207 287.974 C 848.931 279.794, 860.140 275.237, 868.743 276.372 C 879.022 277.729, 881.090 278.291, 882.333 280.065 C 883.845 282.224, 888.700 284.294, 889.441 283.095 C 890.558 281.288, 883.397 276.836, 875.846 274.642 C 867.381 272.183, 860.745 272.588, 851.750 276.112 M 800.500 301.937 C 798.300 302.359, 795.198 303.235, 793.606 303.883 C 785.289 307.266, 775.552 319.282, 776.254 325.296 L 776.628 328.500 777.912 325.250 C 778.618 323.462, 779.571 322, 780.030 322 C 780.490 322, 781.154 321.089, 781.508 319.976 C 782.254 317.624, 790.454 311.202, 797.567 307.399 C 802.104 304.973, 803.163 304.807, 810.750 305.332 C 817.384 305.791, 819 305.632, 819 304.519 C 819 303.758, 818.212 302.906, 817.250 302.627 C 813.637 301.578, 804.357 301.196, 800.500 301.937 M 992 303.895 C 987.068 305.274, 985.428 306.188, 985.203 307.684 C 984.921 309.558, 985.173 309.599, 990.203 308.501 C 993.116 307.866, 996.347 306.972, 997.382 306.515 C 998.521 306.012, 999.997 306.142, 1001.119 306.842 C 1002.139 307.479, 1004.289 308, 1005.897 308 C 1011.253 308, 1020.265 312.216, 1024.750 316.821 C 1027.088 319.220, 1029 321.817, 1029 322.592 C 1029 323.366, 1029.401 324, 1029.891 324 C 1030.382 324, 1031.598 325.913, 1032.595 328.250 C 1034.386 332.450, 1034.412 332.466, 1034.784 329.605 C 1035.752 322.164, 1025.956 309.057, 1016.339 304.927 C 1009.628 302.045, 1000.073 301.640, 992 303.895 M 757.478 352.247 C 752.579 356.245, 750.261 358.894, 749.383 361.496 C 749.012 362.594, 748.132 363.944, 747.427 364.496 C 746.722 365.048, 746.061 366.400, 745.957 367.500 C 745.417 373.253, 746.727 373.054, 749.936 366.898 C 752.200 362.554, 758.948 354, 760.110 354 C 760.487 354, 762.754 352.880, 765.148 351.512 L 769.500 349.024 765.478 349.012 C 762.413 349.003, 760.508 349.773, 757.478 352.247 M 1035 350 C 1035 350.550, 1035.900 351, 1037 351 C 1038.100 351, 1039 350.550, 1039 350 C 1039 349.450, 1038.100 349, 1037 349 C 1035.900 349, 1035 349.450, 1035 350 M 1046 349.878 C 1046 350.361, 1048.813 351.805, 1052.250 353.086 C 1060.111 356.017, 1068.782 364.524, 1072.122 372.581 C 1074.871 379.213, 1076.496 379.634, 1075.655 373.497 C 1074.280 363.470, 1065.593 353.477, 1055.768 350.621 C 1049.573 348.820, 1046 348.548, 1046 349.878 M 835 362.981 C 835 363.520, 833.482 366.332, 831.627 369.231 C 829.287 372.886, 825.960 376.070, 820.768 379.626 C 811.656 385.866, 807.820 387.215, 800.335 386.811 L 794.570 386.500 793.009 393 C 790.959 401.539, 788.703 405.601, 783.168 410.722 C 779.060 414.523, 778.629 415.344, 778.843 418.966 C 778.974 421.178, 778.626 424.678, 778.071 426.744 C 777.515 428.810, 776.588 433.840, 776.009 437.923 C 775.431 442.005, 774.470 445.934, 773.872 446.654 C 772.604 448.182, 771.332 469, 772.507 469 C 772.943 469, 775.821 467.762, 778.900 466.250 C 784.442 463.528, 784.706 463.500, 804.500 463.500 C 822.734 463.500, 825.162 463.708, 832 465.861 C 836.125 467.159, 840.764 468.872, 842.310 469.667 C 846.386 471.765, 852.890 477.887, 854.643 481.277 C 856.088 484.071, 856.368 484.171, 860.828 483.479 C 869.071 482.199, 879.837 482.834, 884.441 484.871 L 888.706 486.758 892.714 482.129 C 897.482 476.622, 905.630 472.283, 913.681 470.965 C 924.857 469.134, 947.511 470.103, 954 472.689 C 954.825 473.018, 956.737 473.189, 958.250 473.068 C 959.763 472.948, 961 473.316, 961 473.886 C 961 474.456, 962.905 475.436, 965.233 476.063 C 972.352 477.980, 978.546 481.677, 982.873 486.593 C 985.143 489.172, 987 491.594, 987 491.976 C 987 492.358, 992.513 493.215, 999.250 493.881 C 1005.987 494.547, 1012.400 495.184, 1013.500 495.296 C 1015.308 495.480, 1015.521 494.839, 1015.717 488.627 C 1015.918 482.227, 1015.710 481.472, 1012.674 477.627 C 1008.726 472.627, 1006.996 467.830, 1007.012 461.929 C 1007.026 456.508, 1009.146 448.233, 1011.402 444.790 C 1013.069 442.246, 1013.057 442.223, 1008.788 439.703 C 997.973 433.319, 993.597 426.085, 993.540 414.500 C 993.518 410.100, 993.848 405.551, 994.273 404.390 C 995.014 402.366, 994.687 402.260, 986.255 401.779 C 979.902 401.417, 976.260 400.663, 973.119 399.061 C 967.497 396.193, 960.334 388.796, 959.500 384.999 C 959.140 383.362, 958.431 381.766, 957.923 381.452 C 957.415 381.139, 957 379.109, 957 376.941 C 957 372.560, 955.194 371.783, 951.500 374.575 C 950.400 375.407, 945.717 377.241, 941.094 378.652 C 934.502 380.663, 931.594 381.071, 927.617 380.544 C 916.102 379.016, 913.888 377.952, 906.205 370.256 C 899.657 363.697, 898.753 363.105, 897.380 364.477 C 896.538 365.319, 893.971 367.265, 891.675 368.802 C 875.371 379.717, 855.757 378.833, 844.015 366.653 C 839.875 362.358, 835 360.373, 835 362.981 M 1077.010 413.693 C 1077.015 414.137, 1078.590 416.476, 1080.510 418.891 C 1082.429 421.306, 1084 423.668, 1084 424.141 C 1084 424.613, 1084.450 425, 1085 425 C 1087.829 425, 1083.947 416.991, 1079.984 414.650 C 1078.343 413.680, 1077.004 413.250, 1077.010 413.693 M 814.426 436.118 C 814.216 436.458, 811.740 437.042, 808.924 437.416 C 795.408 439.209, 788.252 446.599, 794.028 452.799 C 796.867 455.847, 800.626 456.534, 805.941 454.977 C 813.017 452.904, 819.903 452.704, 827 454.366 C 833.035 455.779, 833.750 455.761, 837 454.109 C 841.787 451.677, 843.799 447.516, 841.861 444.057 C 840.421 441.486, 832.867 437.030, 829.917 437.010 C 829.046 437.005, 828.059 436.726, 827.725 436.391 C 826.911 435.578, 814.911 435.331, 814.426 436.118 M 923.245 443.493 C 921.455 444.271, 918.906 446.078, 917.580 447.508 C 915.529 449.721, 915.307 450.583, 916.086 453.300 C 917.747 459.092, 919.982 459.900, 933.933 459.747 C 942.789 459.650, 946.485 459.955, 946.769 460.806 C 946.988 461.463, 948.044 462, 949.117 462 C 950.189 462, 953.287 463.125, 956 464.500 C 958.713 465.875, 961.668 467, 962.566 467 C 965.120 467, 970 461.146, 970 458.081 C 970 455.108, 965.970 450.669, 962.250 449.545 C 961.013 449.171, 960 448.487, 960 448.026 C 960 447.564, 957.413 446.423, 954.250 445.489 C 951.087 444.556, 947.195 443.389, 945.601 442.896 C 941.123 441.512, 926.932 441.890, 923.245 443.493 M 184.245 467.178 C 182.455 468.284, 180.714 470.290, 180.377 471.635 C 179.787 473.986, 181.532 482.429, 183.037 484.500 C 183.436 485.050, 183.993 487.075, 184.273 489 C 187.512 511.205, 190.138 522.316, 192.841 525.250 C 196.444 529.161, 200.427 528.966, 203.054 524.750 C 205.252 521.224, 205.214 519.802, 202.522 504.500 C 200.846 494.975, 198.310 479.955, 197.511 474.826 C 197.119 472.315, 195.830 470.180, 193.434 468.076 C 189.389 464.525, 188.653 464.453, 184.245 467.178 M 796 477.737 C 792.825 478.327, 785.146 483.937, 782.385 487.684 C 778.509 492.944, 774.673 502.073, 775.847 503.247 C 776.611 504.011, 777.497 503.627, 778.927 501.910 C 780.030 500.585, 780.961 499.050, 780.995 498.500 C 781.081 497.075, 798.135 480.450, 800.313 479.666 C 801.311 479.308, 801.847 478.561, 801.504 478.007 C 800.864 476.970, 800.279 476.942, 796 477.737 M 923 485.180 C 916.783 486.938, 909.292 493.578, 902.985 502.921 C 899.661 507.846, 899.646 507.896, 900.986 510 C 901.757 511.210, 903.830 509.652, 911.721 501.930 C 917.099 496.667, 923.211 491.113, 925.303 489.589 C 930.810 485.575, 929.626 483.306, 923 485.180 M 753.779 492.726 C 750.088 496.882, 746.216 505.827, 745.523 511.798 C 744.673 519.126, 745.694 529.551, 747.433 531.290 C 748.109 531.966, 749 533.863, 749.412 535.504 C 750.205 538.665, 751.736 541, 753.016 541 C 753.441 541, 754.113 536.837, 754.510 531.750 C 754.907 526.663, 755.766 521.375, 756.418 520 C 757.895 516.885, 757.849 491.783, 756.365 491.288 C 755.809 491.103, 754.645 491.750, 753.779 492.726 M 867.500 497.625 C 861.263 499.152, 859.447 501.057, 858.256 507.325 C 856.639 515.830, 850.865 526.952, 844.492 533.836 C 834.343 544.797, 816.491 550.817, 802.375 548.037 C 787.123 545.033, 782.935 543.123, 775.647 535.844 C 771.877 532.080, 768.390 529, 767.897 529 C 767.108 529, 766.404 542.033, 766.979 545.984 C 767.098 546.800, 768.276 548.549, 769.598 549.870 C 771.373 551.646, 772 553.371, 772 556.481 C 772 560.449, 774.730 564.936, 776.231 563.436 C 777.288 562.379, 783.613 569.662, 784.620 573.094 C 785.452 575.929, 786.043 576.456, 788.150 576.237 C 791.043 575.937, 796 579.944, 796 582.584 C 796 583.968, 796.709 584.168, 800.036 583.722 C 803.521 583.255, 804.289 583.512, 805.663 585.608 C 807.741 588.781, 809.526 587.366, 810.409 581.846 C 810.771 579.583, 811.952 576.606, 813.033 575.230 C 814.115 573.855, 815 572.191, 815 571.532 C 815 569.565, 822.060 563.109, 828.490 559.195 C 832.565 556.715, 836.271 555.322, 840 554.869 C 843.025 554.502, 847.355 553.666, 849.623 553.011 C 853.387 551.925, 854.249 552.059, 859.523 554.554 C 865.228 557.253, 865.357 557.267, 869.900 555.639 C 875.904 553.487, 879.355 553.566, 885.761 556.001 C 888.654 557.100, 892.254 558.003, 893.761 558.007 C 895.267 558.010, 897.850 558.907, 899.500 560 C 901.150 561.093, 903.444 561.990, 904.597 561.993 C 905.750 561.997, 907.732 562.900, 909 564 C 910.268 565.100, 911.800 566.015, 912.403 566.033 C 915.279 566.120, 922.629 575.125, 925.436 582 C 926.447 584.475, 928.112 588.408, 929.137 590.739 C 930.162 593.071, 931 595.883, 931 596.989 C 931 599.542, 932.196 599.546, 934.500 597 C 936.755 594.508, 943.468 594.226, 944.779 596.569 C 945.504 597.866, 946.554 597.259, 950.833 593.069 C 956.024 587.986, 959.563 586.698, 960.638 589.500 C 961.544 591.859, 964.525 591.255, 966.052 588.403 C 966.816 586.975, 968.727 584.725, 970.297 583.403 C 972.649 581.425, 973.842 581.111, 977.058 581.625 C 980.902 582.240, 980.994 582.181, 982.883 577.875 C 985.748 571.342, 987.270 569.804, 991.561 569.106 C 995.332 568.493, 995.498 568.297, 996.656 563.082 C 997.423 559.631, 998.736 556.938, 1000.306 555.596 C 1002.367 553.835, 1009 541.719, 1009 539.715 C 1009 539.371, 1010.072 537.510, 1011.381 535.580 C 1013.292 532.764, 1013.663 531.192, 1013.261 527.622 C 1012.985 525.174, 1013.326 520.810, 1014.018 517.924 C 1015.788 510.545, 1014.820 510, 999.937 510 L 988.256 510 987.591 514.159 C 986.177 523.001, 978.350 538.030, 972 544.096 C 968.916 547.042, 962.386 551.784, 959.092 553.471 C 954.282 555.932, 942.723 559, 938.263 558.999 C 927.953 558.995, 907 553.001, 907 550.055 C 907 549.475, 906.382 549, 905.626 549 C 903.081 549, 895.114 539.558, 891.180 531.879 C 887.057 523.833, 884.644 514.046, 885.179 507.541 C 885.477 503.920, 885.187 503.423, 881.196 500.715 C 877 497.869, 871.538 496.636, 867.500 497.625 M 112.646 507.452 C 110.784 509.178, 110 510.912, 110 513.305 C 110 516.781, 113.674 520.939, 125.500 530.848 C 127.700 532.691, 132.203 536.742, 135.506 539.850 C 150.612 554.060, 151.687 554.895, 154.080 554.269 C 157.289 553.430, 160.931 549.006, 160.968 545.902 C 160.993 543.907, 158.849 541.252, 151.750 534.483 C 146.662 529.632, 138.225 521.528, 133 516.473 C 120.047 503.944, 117.601 502.860, 112.646 507.452 M 1045 512.651 C 1038.917 516.961, 1037.408 518.865, 1035.644 524.461 C 1034.611 527.739, 1032.872 530.742, 1031.286 531.990 C 1028.872 533.888, 1028.621 534.767, 1028.348 542.283 C 1028.184 546.802, 1027.926 553.650, 1027.775 557.500 C 1027.610 561.708, 1026.802 565.858, 1025.750 567.904 C 1023.375 572.523, 1023.514 573.413, 1027.077 576.411 C 1031.918 580.484, 1038.432 580.038, 1048.500 574.943 C 1056.279 571.006, 1062 566.641, 1062 564.642 C 1062 564.100, 1062.617 562.947, 1063.370 562.079 C 1065.990 559.061, 1069.936 551.027, 1071.585 545.355 C 1072.828 541.081, 1073.076 537.796, 1072.575 532.266 C 1071.689 522.493, 1070.884 520.671, 1064.891 514.895 C 1059.991 510.172, 1059.614 510.003, 1054.156 510.086 C 1049.835 510.151, 1047.674 510.756, 1045 512.651 M 861.515 577.984 C 858.992 580.772, 854.323 581.344, 848.521 579.575 C 845.679 578.709, 843.167 578.433, 842.668 578.932 C 841.677 579.923, 851.578 586.605, 855.492 587.587 C 856.882 587.936, 858.266 588.622, 858.568 589.111 C 859.259 590.228, 872.423 590.285, 874.764 589.181 C 881.539 585.985, 886.135 583.368, 886.303 582.609 C 886.411 582.119, 885.704 581.219, 884.731 580.609 C 883.366 579.754, 882.262 579.900, 879.900 581.250 C 875.684 583.660, 871.383 583.469, 868.636 580.750 C 863.838 576, 863.447 575.848, 861.515 577.984 M 828.989 583.250 C 827.447 585.779, 827.007 588.290, 827.004 594.563 C 827 602.275, 827.134 602.754, 830.089 605.563 C 831.788 607.178, 833.825 609.737, 834.615 611.250 C 835.779 613.478, 836.738 614, 839.665 614 C 841.923 614, 843.790 614.657, 844.640 615.750 C 845.929 617.408, 846.078 617.399, 847.487 615.576 C 848.305 614.518, 849.261 612.123, 849.612 610.254 C 850.461 605.732, 852.851 604.954, 863.697 605.674 C 874.333 606.381, 877.280 608.245, 876.864 614.008 C 876.723 615.959, 876.911 618.047, 877.282 618.646 C 877.652 619.246, 881.158 620.053, 885.072 620.438 C 890.976 621.020, 892.501 620.856, 894.026 619.477 C 895.036 618.562, 897.513 617.660, 899.530 617.473 C 904.011 617.056, 905.950 615.393, 908.945 609.395 C 910.864 605.553, 911.165 603.731, 910.724 598.635 C 910.195 592.525, 908.192 587.234, 905.592 585.076 C 903.186 583.079, 893.187 581.413, 891.818 582.782 C 890.896 583.704, 891.346 584.225, 893.813 585.085 C 901.043 587.605, 895.024 597.439, 885 599.483 C 883.075 599.875, 880.409 600.889, 879.076 601.735 C 875.158 604.223, 858.282 603.762, 852.229 601.002 C 841.042 595.901, 837.893 593.571, 835.997 588.992 C 834.679 585.810, 836.030 582, 838.476 582 C 839.249 582, 840.160 581.550, 840.500 581 C 840.881 580.384, 839.172 580, 836.044 580 C 831.393 580, 830.806 580.271, 828.989 583.250 M 84.500 583 C 84.160 583.550, 83.009 584, 81.941 584 C 80.266 584, 80 584.720, 80 589.255 C 80 594.438, 80.052 594.528, 83.750 595.766 C 85.813 596.456, 94.453 597.917, 102.951 599.012 C 111.450 600.107, 118.852 601.452, 119.401 602.001 C 119.951 602.551, 123.601 603, 127.513 603 C 134.001 603, 134.862 602.754, 137.313 600.195 C 140.425 596.947, 140.651 594.911, 138.334 590.988 C 136.520 587.917, 136.994 588.015, 102.500 583.551 C 88.472 581.735, 85.341 581.639, 84.500 583 M 204.269 603.356 C 199.299 605.874, 195.191 610.149, 192.750 615.344 C 191.107 618.840, 191 628.440, 191 772.094 L 191 925.120 194.083 929.829 C 195.778 932.419, 198.816 935.655, 200.833 937.019 L 204.500 939.500 459.078 939.500 L 713.656 939.500 717.348 936.683 C 722.562 932.707, 724.005 930.059, 724.269 923.983 C 724.500 918.684, 724.493 918.671, 721 917.802 C 719.075 917.322, 716.600 916.507, 715.500 915.991 C 714.400 915.474, 710.800 914.076, 707.500 912.884 C 704.200 911.692, 700.375 909.977, 699 909.073 C 697.625 908.170, 694.324 906.321, 691.665 904.965 C 684.847 901.489, 684.179 901.061, 677.303 895.750 C 673.920 893.138, 670.879 891, 670.546 891 C 670.213 891, 667.060 888.638, 663.541 885.750 C 660.021 882.862, 654.847 878.925, 652.041 877 C 644.522 871.840, 638.667 863.732, 638.667 858.479 C 638.667 856.188, 639.417 853.243, 640.333 851.934 C 641.250 850.626, 642 847.837, 642 845.738 C 642 838.599, 646.167 833.068, 654.974 828.513 C 658.099 826.897, 661.793 826.706, 691.760 826.608 L 725.071 826.500 725.018 722.089 L 724.964 617.678 722.820 614.089 C 719.424 608.403, 716.856 605.964, 711.563 603.396 L 706.626 601 457.563 601.106 L 208.500 601.213 204.269 603.356 M 651.575 626.178 C 648.251 628.107, 644.985 632.425, 645.424 634.311 C 645.655 635.307, 645.245 636.352, 644.513 636.634 C 643.780 636.915, 642.899 638.350, 642.556 639.822 C 641.770 643.191, 638.821 649.264, 637.500 650.235 C 636.950 650.639, 632.630 650.976, 627.900 650.985 C 619.980 650.999, 618.979 651.233, 615.235 653.945 C 607.904 659.256, 608.625 662.019, 620.245 673.124 L 627.175 679.748 626.505 685.624 C 626.136 688.856, 625.155 694.328, 624.325 697.785 C 622.957 703.482, 622.966 704.299, 624.422 706.521 C 627.083 710.582, 630.702 712.477, 633.291 711.163 C 637.392 709.081, 643.575 705.481, 648.730 702.174 L 653.856 698.884 658.067 701.692 C 663.943 705.609, 675.272 711.861, 676.632 711.937 C 677.255 711.972, 679.557 710.208, 681.747 708.018 C 684.834 704.931, 685.621 703.469, 685.248 701.518 C 684.983 700.133, 684.318 699, 683.770 699 C 683.222 699, 682.974 697.630, 683.220 695.956 C 683.465 694.282, 683.292 692.680, 682.833 692.397 C 682.375 692.114, 682 690.928, 682 689.762 C 682 688.596, 681.462 686.153, 680.804 684.333 L 679.607 681.025 688.804 671.647 C 699.819 660.414, 700.191 658.805, 692.994 653.496 C 689.963 651.259, 688.653 651, 680.374 651 C 671.414 651, 671.080 650.917, 669.278 648.250 C 668.256 646.737, 666.386 642.800, 665.122 639.500 C 661.567 630.214, 660.720 628.808, 657.500 626.841 C 654.014 624.711, 654.089 624.719, 651.575 626.178 M 652.700 650.083 C 651.839 651.413, 650.836 653.720, 650.469 655.210 C 649.357 659.736, 645.590 662.985, 641.298 663.118 C 635.615 663.295, 631.500 664.374, 631.500 665.687 C 631.500 666.330, 633.368 668.208, 635.651 669.862 C 640.265 673.204, 642.796 678.644, 641.160 681.701 C 639.951 683.960, 638.552 693, 639.411 693 C 639.761 693, 642.347 691.419, 645.157 689.486 C 647.967 687.553, 651.224 685.731, 652.395 685.437 C 654.989 684.786, 660.326 687.051, 664.901 690.744 L 668.301 693.489 667.651 688.494 C 667.293 685.747, 666.735 681.892, 666.411 679.928 C 665.875 676.672, 666.283 675.852, 671.007 670.683 C 676.613 664.549, 676.582 664.454, 668.709 663.697 C 662.806 663.130, 660.625 661.241, 657.044 653.598 L 654.264 647.667 652.700 650.083 M 956.488 653.019 C 954.712 655.894, 942.022 660.490, 927.500 663.519 C 923.100 664.436, 918.673 665.623, 917.663 666.156 C 916.653 666.689, 912.585 667.031, 908.623 666.915 C 904.280 666.788, 900.469 667.214, 899.024 667.987 C 897.297 668.911, 891.363 669.241, 877.760 669.168 C 861.265 669.080, 858.428 668.827, 855.196 667.156 C 853.163 666.105, 848.800 664.491, 845.500 663.569 C 842.200 662.647, 838.488 661.391, 837.252 660.778 C 836.015 660.165, 834.763 659.904, 834.469 660.197 C 833.764 660.902, 836.214 670, 837.109 670 C 837.712 670, 839.784 672.926, 843.534 679.071 C 845.882 682.920, 858.920 691, 862.782 691 C 863.283 691, 865.131 691.718, 866.890 692.595 C 870.915 694.603, 897.081 694.323, 899.151 692.250 C 899.838 691.563, 901.322 690.997, 902.450 690.993 C 904.665 690.985, 917.618 686.787, 921.264 684.895 C 933.270 678.664, 960 656.723, 960 653.100 C 960 651.715, 957.332 651.654, 956.488 653.019 M 242.789 661.342 C 240.406 662.549, 237.227 665.370, 235.579 667.743 L 232.632 671.985 232.566 752.743 L 232.500 833.500 235 837.116 C 236.375 839.104, 239.880 842.367, 242.788 844.366 L 248.076 848 312.972 848 L 377.868 848 384.182 842.932 C 387.655 840.145, 390.947 837.108, 391.498 836.182 C 392.913 833.807, 393.352 676.598, 391.956 672.368 C 390.717 668.613, 384.818 662.295, 381.136 660.778 C 379.354 660.044, 357.195 659.610, 312.775 659.438 C 247.182 659.184, 247.042 659.188, 242.789 661.342 M 249.301 674.522 C 247.973 675.493, 247.760 678.145, 247.921 691.742 C 248.043 702.137, 247.737 708.044, 247.055 708.466 C 245.490 709.433, 245.645 736.245, 247.225 737.825 C 248.192 738.792, 248.174 739.491, 247.143 741.143 C 246.205 742.644, 246.142 743.542, 246.918 744.318 C 248.305 745.705, 248.379 767.647, 247 768.500 C 246.450 768.840, 246 771.765, 246 775 C 246 778.235, 246.450 781.160, 247 781.500 C 248.302 782.305, 248.302 791.695, 247 792.500 C 246.450 792.840, 246 794.865, 246 797 C 246 799.135, 246.450 801.160, 247 801.500 C 248.478 802.413, 248.299 825.301, 246.803 826.797 C 245.873 827.727, 246.065 828.610, 247.661 830.747 L 249.716 833.500 311.661 833.757 C 372.873 834.012, 373.633 833.991, 375.803 831.969 C 377.992 829.929, 378 829.780, 378.112 789.211 C 378.173 766.820, 378.150 732.525, 378.059 713 L 377.894 677.500 375.334 675.201 L 372.774 672.901 311.822 673.138 C 267.873 673.308, 250.433 673.694, 249.301 674.522 M 436.402 700.806 C 431.576 703.333, 431.273 709.470, 435.854 711.922 C 438.599 713.391, 571.090 713.557, 573.823 712.095 C 578.458 709.614, 578.918 703.178, 574.635 700.724 C 571.424 698.883, 439.926 698.962, 436.402 700.806 M 437.035 741.734 C 434.742 742.636, 432.070 746.291, 432.033 748.576 C 432.015 749.717, 433.042 751.630, 434.314 752.826 L 436.629 755 510.314 755 C 583.687 755, 584.009 754.991, 586.087 752.913 C 588.725 750.275, 587.959 746.412, 584.178 743.286 L 581.500 741.072 510 741.115 C 470.675 741.139, 437.841 741.417, 437.035 741.734 M 986.179 745.972 C 984.981 747.593, 984 749.557, 984 750.337 C 984 751.117, 983.325 752.315, 982.500 753 C 981.675 753.685, 981 754.942, 981 755.794 C 981 756.646, 980.383 758.053, 979.629 758.921 C 978.875 759.790, 976.365 765, 974.051 770.500 C 971.736 776, 969.428 781.281, 968.921 782.236 C 968.415 783.191, 968 784.654, 968 785.486 C 968 786.319, 967.592 787, 967.094 787 C 966.595 787, 966.401 787.819, 966.663 788.820 C 966.925 789.821, 966.433 791.226, 965.570 791.942 C 964.706 792.659, 964 793.668, 964 794.184 C 964 794.701, 962.834 797.589, 961.408 800.602 C 958.684 806.360, 958.809 809.378, 961.747 808.807 C 963.061 808.552, 963.507 807.468, 963.529 804.483 C 963.545 802.292, 964.203 799.375, 964.992 798 C 965.780 796.625, 966.320 795.133, 966.191 794.685 C 966.062 794.237, 966.867 792.714, 967.978 791.300 C 969.090 789.887, 970 787.918, 970 786.924 C 970 785.931, 970.415 784.861, 970.923 784.548 C 971.431 784.234, 972.158 782.520, 972.539 780.739 C 972.919 778.957, 973.803 776.375, 974.503 775 C 975.202 773.625, 976.272 771.375, 976.880 770 C 977.488 768.625, 978.410 766.825, 978.929 766 C 981.050 762.629, 983 757.555, 983 755.405 C 983 754.147, 983.403 752.869, 983.896 752.564 C 985.022 751.868, 989.223 743.890, 988.726 743.392 C 988.523 743.190, 987.377 744.351, 986.179 745.972 M 434.635 786.073 C 433.186 787.212, 432 788.766, 432 789.526 C 432 792.541, 434.431 795.954, 437.287 796.950 C 439.252 797.635, 459.857 798, 496.572 798 L 552.847 798 555.923 795.411 C 559.327 792.547, 559.814 789.606, 557.443 786.223 L 555.887 784 496.578 784 C 438.092 784, 437.233 784.029, 434.635 786.073 M 238.750 895.110 C 235.053 897.875, 234.909 903.055, 238.465 905.385 C 240.712 906.857, 257.740 907, 431.291 907 L 621.651 907 623.826 904.686 C 626.628 901.703, 626.530 900.175, 623.301 896.500 L 620.666 893.500 431.083 893.277 L 241.500 893.054 238.750 895.110" stroke="none" fill="#171916" fill-rule="evenodd"/>
</svg>