<svg role="img" aria-labelledby="artwork-title" shape-rendering="geometricPrecision" xmlns="http://www.w3.org/2000/svg" width="1200" height="1200" viewBox="0 0 1200 1200" version="1.1">
	<title id="artwork-title">Mascot opening a project folder</title>
	<path d="M 725.500 123 C 725.160 123.550, 722.734 124, 720.108 124 C 715.294 124, 700.399 128.328, 694.091 131.559 C 687.045 135.168, 679.310 140.974, 673.631 146.917 C 667.186 153.661, 665.803 153.928, 660.927 149.370 C 656.726 145.443, 651.131 143.083, 639.822 140.469 C 626.560 137.402, 615.961 137.255, 607.161 140.013 C 603.674 141.106, 599.819 142, 598.594 142 C 596.360 142, 590.697 144.679, 579.500 151.032 C 572.455 155.029, 560.437 166.710, 558.432 171.509 C 557.661 173.354, 556.606 175.125, 556.088 175.446 C 555.570 175.766, 554.606 177.709, 553.947 179.764 C 553.287 181.819, 552.115 184.226, 551.343 185.113 C 550.570 186, 549.660 189.077, 549.319 191.952 C 548.700 197.184, 546.618 199.617, 545 197 C 544.561 196.290, 543.496 195.979, 542.633 196.311 C 541.770 196.642, 540.798 196.482, 540.473 195.956 C 539.736 194.764, 524.315 194.681, 523.583 195.866 C 523.289 196.342, 521.965 196.525, 520.641 196.272 C 519.317 196.019, 517.930 196.304, 517.558 196.906 C 517.186 197.508, 515.671 198.003, 514.191 198.006 C 512.711 198.010, 510.306 198.635, 508.847 199.397 C 507.387 200.158, 504.518 201.334, 502.470 202.010 C 494.543 204.626, 479.325 217.782, 475.012 225.746 C 473.894 227.811, 472.592 230.175, 472.119 231 C 469.309 235.899, 466.908 242.820, 465.966 248.731 C 465.373 252.454, 464.463 255.928, 463.944 256.450 C 462.681 257.721, 462.730 271.715, 464 272.500 C 464.550 272.840, 465 274.609, 465 276.431 C 465 279.556, 464.758 279.783, 460.750 280.423 C 450.260 282.098, 429.152 302.233, 429.031 310.679 C 429.014 311.877, 428.394 313.463, 427.654 314.203 C 425.065 316.792, 423.523 326.237, 423.593 339.074 C 423.659 351.087, 423.807 351.958, 426.899 358.574 C 428.679 362.383, 430.548 366.175, 431.053 367 C 431.557 367.825, 432.587 369.850, 433.341 371.500 C 434.095 373.150, 436.576 376.300, 438.855 378.500 C 443.683 383.161, 443.857 384.275, 440.519 389.186 C 438.010 392.879, 435 406.348, 435 413.884 C 435 426.885, 446.016 444.832, 457.946 451.267 C 460.897 452.859, 461.157 453.355, 460.568 456.267 C 458.875 464.643, 458.841 471.645, 460.465 477.232 C 461.381 480.384, 462.570 483.234, 463.106 483.566 C 463.642 483.897, 465.250 486.020, 466.680 488.284 C 468.109 490.548, 471.525 494.590, 474.272 497.265 L 479.266 502.129 473.175 508.145 C 469.825 511.454, 466.786 515.138, 466.423 516.331 C 466.060 517.524, 465.090 519.268, 464.266 520.207 C 458.278 527.032, 454.723 563.751, 459.204 572.500 C 460.049 574.150, 461.056 577.670, 461.442 580.322 C 461.828 582.974, 463.012 586.012, 464.072 587.072 C 465.132 588.132, 466 589.513, 466 590.140 C 466 590.766, 468.408 594.929, 471.352 599.390 C 476.411 607.057, 480.294 611.127, 489.875 618.806 L 494 622.113 494 629.882 C 494 635.482, 494.668 639.585, 496.393 644.576 C 497.710 648.384, 499.099 653.413, 499.481 655.750 C 499.863 658.087, 500.613 660, 501.147 660 C 501.681 660, 501.840 660.450, 501.500 661 C 501.160 661.550, 501.359 662, 501.941 662 C 502.523 662, 503 662.727, 503 663.615 C 503 664.503, 504.824 667.765, 507.054 670.865 C 509.284 673.964, 512.896 679.313, 515.082 682.750 C 517.268 686.188, 519.493 689, 520.028 689 C 520.563 689, 521 690.125, 521 691.500 C 521 693.974, 520.908 694, 512.250 694.031 C 507.438 694.048, 500.350 694.468, 496.500 694.964 C 492.650 695.460, 483.875 696.368, 477 696.982 C 470.125 697.596, 462.925 698.533, 461 699.064 C 459.075 699.595, 454.367 700.484, 450.538 701.041 C 446.708 701.598, 442.070 702.941, 440.231 704.027 C 436.397 706.288, 433.456 706.557, 432.300 704.750 C 431.860 704.063, 429.765 702.600, 427.644 701.500 C 425.522 700.400, 421.472 698.289, 418.644 696.808 C 415.815 695.328, 412.913 694.090, 412.195 694.058 C 411.477 694.026, 408.917 693.101, 406.505 692.002 C 398.762 688.475, 392.123 687.505, 376.500 687.620 C 359.362 687.746, 347.567 689.072, 342.909 691.395 C 341.140 692.278, 338.879 693, 337.884 693 C 336.050 693, 330.184 694.948, 317.500 699.770 C 313.650 701.234, 307.258 704.472, 303.295 706.966 C 299.333 709.460, 292.425 713.750, 287.945 716.500 C 260.122 733.577, 240.971 756.852, 232.404 784 C 230.929 788.675, 229.382 793.400, 228.967 794.500 C 227.680 797.907, 226 809.472, 226 814.924 C 226 821.560, 227.919 834.145, 229.165 835.676 C 229.691 836.323, 230.022 837.448, 229.901 838.176 C 229.632 839.786, 230.710 842.450, 235.982 853.206 C 239.775 860.945, 239.927 861.576, 238.272 862.730 C 232.836 866.519, 224.640 875.031, 223.086 878.500 C 218.312 889.162, 218.314 893.242, 223.114 937 C 223.687 942.225, 224.529 951, 224.984 956.500 C 226.103 970.020, 227.973 983.123, 229.086 985.236 C 229.589 986.191, 230.015 988.666, 230.034 990.736 C 230.053 992.806, 230.730 999.675, 231.539 1006 C 232.348 1012.325, 233.670 1024.159, 234.476 1032.297 C 235.281 1040.436, 236.629 1050.723, 237.470 1055.158 C 238.312 1059.593, 239 1065.451, 239 1068.176 C 239 1076.525, 239.615 1077, 250.419 1077 C 258.486 1077, 259.827 1076.760, 260.210 1075.250 C 260.686 1073.367, 258.734 1054.675, 257.078 1045.256 C 256.521 1042.090, 255.766 1034.775, 255.400 1029 C 255.035 1023.225, 254.418 1018.050, 254.029 1017.500 C 252.945 1015.967, 251.162 1004.081, 249.528 987.500 C 246.929 961.138, 243.024 927.549, 242.377 926 C 242.032 925.175, 241.841 922.338, 241.952 919.695 C 242.063 917.053, 241.731 914.353, 241.213 913.695 C 240.695 913.038, 240 907.813, 239.668 902.084 C 238.969 890.035, 239.967 886.788, 245.720 882.400 L 249.259 879.701 285.880 880.345 C 407.392 882.481, 395.800 882.041, 399.330 884.656 C 401.074 885.948, 403.175 887.266, 404 887.586 C 405.402 888.128, 406.910 890.812, 417.431 911.500 C 424.448 925.297, 428.720 930.691, 435.500 934.312 C 440.153 936.797, 431.982 936.508, 539.913 938.007 C 581.658 938.586, 613.806 939.424, 614.439 939.950 C 615.398 940.745, 694.508 942.561, 759.500 943.279 L 779.500 943.500 783.094 946.250 C 785.071 947.762, 787.209 949, 787.844 949 C 788.480 949, 789 949.468, 789 950.040 C 789 950.613, 789.991 952.421, 791.202 954.059 C 793.136 956.675, 793.492 958.827, 794.134 971.768 C 794.920 987.581, 797.021 1007, 797.948 1007 C 798.259 1007, 798.353 1009.031, 798.155 1011.514 C 797.958 1013.996, 798.155 1016.809, 798.594 1017.764 C 799.032 1018.719, 799.931 1025.800, 800.590 1033.500 C 801.250 1041.200, 802.267 1049.525, 802.851 1052 C 803.435 1054.475, 803.939 1060.550, 803.972 1065.500 C 804.004 1070.450, 804.399 1075.080, 804.849 1075.790 C 805.445 1076.729, 808.224 1077.001, 815.084 1076.790 L 824.500 1076.500 824.807 1071.119 C 824.976 1068.160, 824.805 1065.010, 824.428 1064.119 C 824.050 1063.229, 823.831 1060.633, 823.940 1058.352 C 824.049 1056.070, 823.657 1053.906, 823.069 1053.543 C 822.481 1053.179, 822 1050.245, 822 1047.022 C 822 1043.799, 821.357 1038.538, 820.571 1035.331 C 819.785 1032.124, 818.973 1023.987, 818.767 1017.250 C 818.415 1005.783, 818.511 1005, 820.276 1005 C 822.123 1005, 830.889 1010.275, 836.161 1014.559 C 838.481 1016.444, 840.591 1016.812, 852.661 1017.437 C 860.272 1017.831, 871 1018.796, 876.500 1019.582 C 882.784 1020.479, 899.690 1021.224, 922 1021.586 C 941.525 1021.904, 959.941 1022.576, 962.926 1023.080 C 972.364 1024.675, 978.933 1019.403, 976.420 1012.250 C 974.987 1008.170, 969.740 1006.217, 956.835 1004.962 C 950.601 1004.356, 944.375 1003.543, 943 1003.157 L 940.500 1002.454 940.226 985.216 C 939.955 968.103, 939.969 967.972, 942.226 967.071 C 944.231 966.270, 947.549 965.009, 949 964.496 C 949.275 964.399, 951.173 963.572, 953.218 962.660 C 955.263 961.747, 958.004 961, 959.309 961 C 960.614 961, 963.891 960.332, 966.591 959.515 C 969.291 958.699, 976.225 957.555, 982 956.974 C 987.775 956.393, 994.075 955.427, 996 954.827 C 997.925 954.227, 1010.075 953.535, 1023 953.289 C 1043.722 952.895, 1047.850 953.087, 1057.925 954.921 C 1064.209 956.064, 1071.042 957, 1073.110 957 C 1075.178 957, 1078.024 957.439, 1079.435 957.975 C 1081.660 958.821, 1082 959.543, 1082 963.416 C 1082 965.872, 1082.472 968.173, 1083.048 968.530 C 1083.624 968.886, 1083.973 969.925, 1083.823 970.839 C 1083.673 971.752, 1083.892 973.045, 1084.310 973.712 C 1085.458 975.541, 1086.938 998.618, 1086.971 1015.211 C 1087.002 1030.710, 1085.396 1049.749, 1083.902 1051.592 C 1083.416 1052.193, 1083.303 1052.969, 1083.651 1053.318 C 1084 1053.666, 1083.757 1054.587, 1083.113 1055.364 C 1082.468 1056.141, 1081.426 1060.624, 1080.796 1065.327 C 1079.265 1076.769, 1079.476 1077, 1091.462 1077 C 1100.387 1077, 1100.716 1076.919, 1101.849 1074.433 C 1103.280 1071.292, 1105.657 1056.482, 1106.574 1045 C 1106.947 1040.325, 1107.681 1035.962, 1108.204 1035.304 C 1109.408 1033.791, 1109.341 992.132, 1108.132 990.615 C 1107.643 990.002, 1107.044 985.892, 1106.800 981.483 L 1106.358 973.466 1111.653 969.483 C 1119.083 963.895, 1120.470 959.599, 1118.955 946.882 C 1117.491 934.591, 1113.306 909.303, 1112.527 908.044 C 1112.191 907.500, 1111.272 903.391, 1110.485 898.912 C 1109.697 894.433, 1108.594 890.216, 1108.034 889.541 C 1107.473 888.866, 1106.068 884.755, 1104.910 880.407 C 1103.752 876.058, 1101.925 869.183, 1100.850 865.129 C 1099.776 861.075, 1098.067 855.900, 1097.053 853.629 C 1096.040 851.358, 1094.209 846.800, 1092.985 843.500 C 1087.169 827.821, 1084.094 821, 1082.843 821 C 1082.379 821, 1082 820.200, 1082 819.223 C 1082 818.245, 1081.305 816.453, 1080.457 815.241 C 1079.608 814.029, 1077.663 810.661, 1076.135 807.757 C 1074.607 804.852, 1071.927 800.501, 1070.178 798.088 C 1068.430 795.674, 1067 793.260, 1067 792.721 C 1067 789.090, 1045.039 762.098, 1031.740 749.384 C 1020.815 738.940, 1003.449 726.086, 995.185 722.328 C 992.058 720.906, 988.263 718.870, 986.750 717.803 C 985.237 716.737, 984 716.125, 984 716.444 C 984 716.764, 982.237 715.912, 980.083 714.552 C 977.929 713.192, 974.891 711.768, 973.333 711.386 C 971.775 711.005, 968.932 709.862, 967.015 708.847 C 965.098 707.831, 962.893 707, 962.115 707 C 961.337 707, 958.405 705.924, 955.600 704.610 C 952.795 703.295, 948.475 701.685, 946 701.031 C 943.525 700.378, 937.450 698.721, 932.500 697.348 C 927.550 695.976, 921.025 694.408, 918 693.863 C 914.975 693.319, 911.600 692.501, 910.500 692.047 C 907.073 690.630, 900.781 689.138, 893.500 688.014 C 882.278 686.282, 875.784 684.592, 875.276 683.271 C 875.015 682.596, 877.568 678.996, 880.947 675.271 C 884.327 671.547, 888.706 665.254, 890.680 661.288 C 892.771 657.083, 896.147 652.313, 898.775 649.850 C 901.392 647.397, 904.300 643.293, 905.711 640.063 C 907.046 637.003, 909.008 632.651, 910.070 630.390 C 911.131 628.130, 912 625.347, 912 624.206 C 912 617.988, 915.731 615.110, 920.550 617.610 C 923.411 619.095, 930.174 619.493, 931.417 618.250 C 931.829 617.838, 932.467 617.461, 932.833 617.414 C 933.200 617.366, 934.175 617.064, 935 616.741 C 935.825 616.419, 938.975 615.384, 942 614.441 C 949.464 612.114, 954.643 609.444, 960 605.162 C 967.558 599.120, 978.488 587.367, 983.511 579.879 C 988.507 572.434, 994.175 557.561, 995.472 548.500 C 995.865 545.750, 996.708 542.868, 997.344 542.095 C 999 540.081, 998.778 520.642, 997.074 518.590 C 996.357 517.725, 995.969 515.664, 996.212 514.009 C 996.455 512.354, 996.282 511, 995.827 511 C 995.372 511, 994.990 509.538, 994.978 507.750 C 994.966 505.962, 994.141 502.700, 993.144 500.500 C 992.148 498.300, 991.031 495.290, 990.662 493.811 C 989.866 490.615, 978.928 476.567, 976.028 475.015 C 973.185 473.493, 973.500 470.607, 977.044 465.708 C 982.827 457.714, 984.916 454.025, 986.069 449.771 C 989.462 437.252, 988.876 426.400, 984.315 417.282 L 981.706 412.065 985.581 407.335 C 991.460 400.162, 994.037 396.065, 994.673 392.885 C 994.990 391.298, 995.670 390, 996.184 390 C 996.698 390, 996.840 389.550, 996.500 389 C 996.160 388.450, 996.287 388, 996.781 388 C 998.786 388, 1000.251 377.112, 999.830 365.328 C 999.414 353.660, 999.309 353.198, 995.131 344.765 C 992.781 340.021, 989.765 334.960, 988.429 333.518 C 987.093 332.076, 985.983 330.583, 985.962 330.198 C 985.916 329.349, 978.229 323.797, 975.635 322.740 C 974.306 322.198, 973.935 321.336, 974.343 319.740 C 974.657 318.508, 976.105 313, 977.559 307.500 C 979.781 299.097, 980.117 296.143, 979.664 289 C 978.423 269.417, 973.174 257.210, 960.500 244.437 C 956.100 240.002, 950.532 235.065, 948.127 233.466 C 940.119 228.140, 929.460 225, 919.389 225 C 911.601 225, 911 224.564, 911 218.918 C 911 217.313, 910.550 216, 910 216 C 909.450 216, 908.995 214.988, 908.989 213.750 C 908.964 208.418, 904.522 197.777, 898.752 189.224 C 894.826 183.403, 883.603 172.374, 879.145 169.956 C 877.140 168.869, 874.825 167.586, 874 167.106 C 870.120 164.849, 860.194 161.629, 855.818 161.209 C 853.145 160.952, 850.716 160.350, 850.420 159.871 C 849.670 158.657, 835.258 158.774, 834.500 160 C 834.160 160.550, 832.086 161, 829.890 161 C 827.455 161, 822.173 162.586, 816.347 165.065 C 811.094 167.301, 806.688 168.988, 806.555 168.815 C 806.422 168.642, 805.005 165.800, 803.407 162.500 C 801.808 159.200, 799.953 156.149, 799.285 155.720 C 798.618 155.291, 796.004 152.254, 793.477 148.970 C 790.950 145.687, 788.464 143, 787.953 143 C 787.441 143, 784.430 141.055, 781.261 138.677 C 769.775 130.058, 759.044 125.982, 743.693 124.410 C 739.981 124.029, 736.705 123.331, 736.413 122.859 C 735.671 121.659, 726.254 121.780, 725.500 123 M 720.256 144.975 C 718.472 145.398, 716.382 146.268, 715.611 146.908 C 714.841 147.547, 713.826 147.983, 713.355 147.876 C 711.640 147.488, 697.545 153.575, 693.590 156.412 C 686.073 161.806, 678.184 171.065, 676.198 176.825 C 675.568 178.653, 673.894 181.526, 672.478 183.208 C 669.869 186.309, 669.536 189.013, 671.675 189.726 C 672.322 189.941, 673.605 188.528, 674.526 186.586 C 678.126 178.999, 698.406 161, 703.354 161 C 704.259 161, 705 160.502, 705 159.893 C 705 159.284, 705.663 159.040, 706.474 159.351 C 707.284 159.662, 708.297 159.311, 708.724 158.571 C 709.922 156.493, 720.055 154.830, 731.310 154.864 C 742.925 154.898, 750.582 156.149, 755.852 158.871 C 757.859 159.908, 760.625 161.264, 762 161.886 C 770.642 165.793, 780.689 174.802, 785.564 183.015 C 787.179 185.735, 788.837 187.969, 789.250 187.980 C 789.663 187.991, 789.998 186.313, 789.996 184.250 C 789.993 180.538, 788.418 177.406, 781.515 167.382 C 775.528 158.687, 764.926 151.203, 755.384 148.936 C 752.698 148.298, 748.670 146.926, 746.434 145.888 C 742.120 143.885, 727.060 143.360, 720.256 144.975 M 614.571 159.884 C 614.271 160.371, 610.982 161.339, 607.262 162.035 C 603.543 162.732, 597.800 164.683, 594.500 166.372 C 587.233 170.091, 576.525 180.555, 572.310 188.055 C 568.692 194.493, 567.151 202, 569.448 202 C 570.324 202, 571.407 200.279, 572.124 197.750 C 572.786 195.412, 573.857 193.050, 574.504 192.500 C 575.151 191.950, 578.040 188.662, 580.924 185.194 C 583.808 181.725, 587.142 178.461, 588.333 177.940 C 589.525 177.419, 593.375 175.407, 596.888 173.468 C 605.767 168.569, 619.070 165.658, 629.500 166.332 C 638.422 166.909, 648.871 170.095, 651.551 173.057 C 653.766 175.504, 656 175.563, 656 173.174 C 656 169.099, 644.134 162.583, 634.766 161.514 C 631.612 161.154, 628.773 160.442, 628.457 159.930 C 627.724 158.745, 615.301 158.704, 614.571 159.884 M 829 182.664 C 827.075 183.608, 825.050 184.452, 824.500 184.537 C 821.240 185.045, 809 190.968, 809 192.037 C 809 192.477, 808.742 193.509, 808.427 194.331 C 807.618 196.438, 810.971 196.942, 813.822 195.142 C 822.466 189.684, 852.293 190.144, 860.016 195.854 C 861.613 197.034, 863.309 198, 863.785 198 C 864.262 198, 867.294 199.977, 870.523 202.392 C 876.171 206.618, 884 217.297, 884 220.777 C 884 221.555, 884.834 223.386, 885.854 224.846 C 886.874 226.306, 888.024 228.803, 888.410 230.395 C 888.927 232.529, 889.405 232.995, 890.229 232.171 C 891.790 230.610, 887.604 212.606, 884.610 208 C 877.123 196.484, 875.350 194.076, 874 193.589 C 873.175 193.291, 870.475 191.492, 868 189.590 C 865.525 187.689, 862.739 186.103, 861.809 186.066 C 860.879 186.030, 859.835 185.543, 859.490 184.984 C 859.144 184.425, 858.498 184.192, 858.052 184.468 C 857.607 184.743, 855.772 184.234, 853.973 183.337 C 849.021 180.866, 833.513 180.448, 829 182.664 M 794.245 200.250 C 794.727 201.713, 798.427 202.434, 800.795 201.525 C 802.218 200.979, 802.242 200.765, 800.972 199.962 C 798.738 198.549, 793.755 198.763, 794.245 200.250 M 522.658 216.638 C 516.635 217.729, 513.428 218.980, 508.837 222.029 C 505.549 224.213, 502.532 226, 502.132 226 C 501.201 226, 494 233.351, 494 234.302 C 494 234.697, 492.374 237.334, 490.386 240.162 C 485.255 247.462, 481.997 257.416, 482.015 265.731 C 482.032 273.008, 483.455 277.376, 484.367 272.948 C 484.644 271.602, 485.091 268.847, 485.360 266.826 C 485.629 264.805, 488.205 258.280, 491.084 252.327 C 495.297 243.613, 497.493 240.380, 502.343 235.751 C 505.657 232.588, 508.812 230, 509.355 230 C 509.898 230, 511.053 229.383, 511.921 228.628 C 512.790 227.874, 515.796 226.510, 518.601 225.598 C 521.407 224.685, 524.557 223.291, 525.601 222.501 C 527.825 220.818, 543.512 220.402, 544.500 222 C 545.384 223.431, 548.179 223.179, 550.446 221.464 C 553.343 219.274, 551.320 217.936, 542.811 216.413 C 533.930 214.824, 532.592 214.839, 522.658 216.638 M 905.007 246.960 C 902.140 249.163, 901.756 248.959, 913.500 251.467 C 925.126 253.950, 932.709 257.772, 939.610 264.626 C 949.140 274.093, 953.591 284.573, 954.103 298.752 C 954.353 305.695, 955.028 305.975, 957.014 299.958 C 959.002 293.933, 957.127 280.220, 953.168 271.825 C 948.764 262.487, 937.451 250, 933.396 250 C 932.163 250, 926.818 247.928, 922.764 245.878 C 919.387 244.171, 907.711 244.882, 905.007 246.960 M 890.180 250.240 C 890.529 252.686, 892.809 253.516, 896.579 252.570 C 899.893 251.738, 899.615 250.410, 895.851 249.098 C 891.088 247.438, 889.817 247.694, 890.180 250.240 M 473.500 296 C 473.160 296.550, 471.559 297, 469.941 297 C 468.323 297, 467 297.395, 467 297.879 C 467 298.362, 465.760 299.271, 464.244 299.899 C 459.273 301.958, 449.477 313.068, 448.358 317.916 C 448.030 319.337, 447.035 321.625, 446.147 323 C 444.875 324.968, 444.566 327.884, 444.694 336.711 C 444.857 347.908, 446.250 354.319, 447.362 348.986 C 447.647 347.619, 448.083 342.900, 448.332 338.500 C 449.015 326.425, 452.880 318.755, 463.526 308.349 C 470.338 301.691, 472.610 300.073, 475.932 299.511 C 480.218 298.787, 480.761 298.161, 478.800 296.200 C 477.342 294.742, 474.347 294.629, 473.500 296 M 685 298.819 C 685 299.729, 675.561 309.646, 672.454 312 C 667.177 315.998, 661.846 319, 660.021 319 C 658.910 319, 658 319.488, 658 320.083 C 658 320.679, 657.438 320.977, 656.750 320.746 C 656.063 320.514, 655.050 320.916, 654.500 321.639 C 653.055 323.538, 639.663 326.206, 631.500 326.221 C 623.015 326.237, 609.912 323.571, 608.401 321.522 C 607.797 320.702, 607.009 320.324, 606.651 320.682 C 606.293 321.040, 606 320.808, 606 320.167 C 606 319.525, 605.169 319, 604.153 319 C 603.137 319, 601.268 318.100, 600 317 C 598.732 315.900, 597.330 315, 596.886 315 C 596.441 315, 593.570 312.958, 590.506 310.461 C 585.213 306.151, 583 305.543, 583 308.399 C 583 310.453, 577.208 321.102, 573.426 326 C 571.516 328.475, 569.686 331.288, 569.360 332.250 C 569.034 333.212, 568.144 334, 567.383 334 C 566.623 334, 566 334.650, 566 335.445 C 566 336.240, 564.931 337.478, 563.624 338.195 C 562.317 338.913, 558.523 341.335, 555.192 343.577 C 547.368 348.843, 537.461 351.009, 529.974 349.090 C 527.280 348.400, 524.669 348.087, 524.170 348.395 C 523.672 348.703, 523.055 353.666, 522.799 359.424 C 522.542 365.183, 521.867 370.480, 521.297 371.197 C 520.727 371.914, 519.684 374.300, 518.979 376.500 C 517.432 381.324, 514.022 386.117, 508.274 391.545 L 503.991 395.589 504.590 403.045 C 504.919 407.145, 504.719 419.785, 504.144 431.134 C 503.194 449.910, 504.046 486.646, 505.529 490.834 C 505.870 491.798, 507.044 491.341, 509.766 489.185 C 511.837 487.545, 515.549 485.666, 518.016 485.010 C 520.482 484.354, 523.850 483.005, 525.500 482.013 C 527.150 481.020, 531.425 479.904, 535 479.533 C 538.575 479.161, 545.195 478.190, 549.711 477.375 C 566.251 474.391, 597.898 477.125, 605.166 482.167 C 606.632 483.184, 609.253 484.301, 610.991 484.648 C 614.185 485.287, 629.220 498.861, 630.211 502 C 630.622 503.302, 631.333 503.251, 635.592 501.617 C 638.291 500.582, 642.750 499.377, 645.500 498.940 C 652.642 497.806, 673.897 497.823, 677.884 498.967 C 682.135 500.186, 684.141 499.160, 687.079 494.263 C 690.707 488.216, 700.054 479.596, 706 476.813 C 716.636 471.835, 718.824 471, 721.234 471 C 722.572 471, 724.004 470.663, 724.417 470.250 C 724.829 469.837, 725.467 469.484, 725.833 469.465 C 726.200 469.445, 727.529 468.858, 728.786 468.160 C 732.954 465.846, 749.013 464.769, 772.114 465.253 C 793.987 465.711, 794.911 465.813, 800.302 468.363 C 803.368 469.813, 806.598 471, 807.480 471 C 811.383 471, 822.175 477.266, 827.285 482.499 C 832.926 488.277, 834.798 488.903, 839.596 486.615 C 841.193 485.854, 845.735 484.953, 849.688 484.614 C 853.642 484.275, 858.142 483.473, 859.688 482.833 C 861.235 482.192, 862.800 481.630, 863.167 481.584 C 863.533 481.538, 864.171 481.163, 864.583 480.750 C 864.996 480.337, 868.521 479.993, 872.417 479.985 C 876.313 479.976, 880 479.639, 880.610 479.235 C 882.162 478.208, 882.250 465.269, 880.713 464.040 C 870.449 455.831, 868.240 451.919, 867.350 440.378 C 866.651 431.317, 868.436 418.389, 870.748 415.769 C 871.990 414.362, 872.040 413.753, 871.016 412.519 C 870.322 411.683, 869.308 411, 868.762 411 C 868.216 411, 864.700 408.960, 860.949 406.466 C 844.506 395.535, 837.072 379.327, 839.871 360.510 C 841.491 349.618, 841.421 349, 838.559 349 C 837.216 349, 835.840 349.450, 835.500 350 C 834.445 351.708, 821.720 351.140, 815.860 349.124 C 806.705 345.974, 790 334.537, 790 331.419 C 790 330.755, 788.650 328.766, 787 327 C 785.350 325.234, 784 323.256, 784 322.606 C 784 321.955, 783.100 319.658, 782 317.500 C 780.900 315.342, 780 312.124, 780 310.348 C 780 305.711, 778.599 305.466, 774.290 309.349 C 769.898 313.307, 759.785 319, 757.144 319 C 756.148 319, 754.996 319.337, 754.583 319.750 C 754.171 320.163, 753.533 320.519, 753.167 320.542 C 752.800 320.565, 751.060 321.352, 749.300 322.292 C 743.904 325.171, 720 324.046, 720 320.913 C 720 320.445, 719.325 320.322, 718.500 320.638 C 717.675 320.955, 717 320.716, 717 320.107 C 717 319.498, 716.068 319, 714.928 319 C 711.168 319, 703.613 313.776, 695.884 305.830 C 689.186 298.945, 685 296.248, 685 298.819 M 962 339.378 C 962 340.135, 962.701 341.337, 963.558 342.048 C 964.415 342.759, 965.763 344.727, 966.555 346.420 C 967.347 348.114, 969.764 352.650, 971.926 356.500 C 974.562 361.196, 975.885 364.817, 975.943 367.500 C 975.991 369.700, 976.467 372.175, 977 373 C 978.298 375.008, 978.355 363.966, 977.064 360.797 C 976.549 359.534, 975.862 356.860, 975.538 354.855 C 975.004 351.550, 973.590 349.286, 966.732 340.750 C 964.368 337.808, 962 337.121, 962 339.378 M 733 423.736 C 722.426 425.789, 717.600 428.445, 714.898 433.699 C 713.681 436.065, 712.306 438, 711.843 438 C 711.379 438, 711 439.126, 711 440.503 C 711 442.136, 712.675 444.744, 715.816 448.003 C 721.176 453.564, 723.555 454.117, 731.215 451.582 C 736.767 449.745, 748.452 448, 755.192 448.001 C 761.441 448.003, 776.086 450.440, 778.902 451.948 C 785.219 455.328, 794.200 451.482, 796.105 444.581 C 798.650 435.364, 788.380 427.137, 771.500 424.870 C 767.650 424.354, 762.925 423.499, 761 422.971 C 756.082 421.622, 741.886 422.010, 733 423.736 M 562.393 436.419 C 560.135 437.126, 555.951 438.014, 553.096 438.393 C 541.768 439.896, 528 450.498, 528 457.718 C 528 458.718, 529.128 461.195, 530.506 463.224 C 533.639 467.834, 537.714 468.820, 544.032 466.498 C 549.717 464.409, 553.358 463.524, 564.500 461.526 C 572.803 460.037, 574.042 460.039, 580.500 461.545 C 589.806 463.716, 593.946 463.081, 597.997 458.860 C 604.035 452.570, 604.250 447.534, 598.704 442.251 C 592.485 436.328, 572.792 433.165, 562.393 436.419 M 936.137 487.369 C 931.988 488.871, 925 494.613, 925 496.521 C 925 497.296, 924.100 498.411, 923 499 C 921.900 499.589, 921 500.588, 921 501.220 C 921 501.853, 919.425 505.413, 917.500 509.133 C 914.982 513.999, 914 517.192, 914 520.514 C 914 525.664, 913.030 527.976, 908.853 532.785 C 907.284 534.591, 906 536.577, 906 537.197 C 906 537.817, 907.407 540.517, 909.126 543.196 C 912.079 547.798, 912.216 548.439, 911.608 554.784 C 911.187 559.164, 911.460 563.845, 912.393 568.245 C 913.601 573.945, 913.616 575.876, 912.490 580.718 C 911.758 583.869, 910.673 586.609, 910.079 586.807 C 908.139 587.454, 908.939 589.549, 912.414 592.917 C 914.912 595.337, 917.011 596.360, 920.230 596.722 C 925.599 597.328, 935.408 595.418, 937.042 593.450 C 937.699 592.657, 940.096 591.474, 942.369 590.819 C 944.641 590.165, 948.171 588.338, 950.213 586.760 C 955.094 582.988, 966 569.381, 966 567.063 C 966 566.063, 966.675 564.685, 967.500 564 C 968.325 563.315, 969 562.202, 969 561.526 C 969 560.851, 970.196 558.093, 971.658 555.399 C 974.437 550.276, 976.940 537.618, 976.977 528.500 C 977.046 511.705, 968.636 494.185, 957.768 488.483 C 952.431 485.682, 942.248 485.158, 936.137 487.369 M 734.703 489.867 C 729.999 491.192, 727.766 492.630, 722.853 497.500 C 714.239 506.038, 708.723 513.599, 706.192 520.339 C 704.045 526.058, 703.204 535, 704.813 535 C 705.888 535, 711 529.637, 711 528.510 C 711 528.025, 711.870 526.700, 712.934 525.564 C 713.997 524.429, 715.551 522.179, 716.386 520.564 C 718.227 517.007, 726.951 506.930, 736.190 497.689 C 742.605 491.273, 744.593 487.851, 741.750 488.117 C 741.063 488.182, 737.892 488.969, 734.703 489.867 M 538.397 502.301 C 536.140 503.511, 532.540 506.609, 530.397 509.186 C 528.254 511.764, 525.982 513.901, 525.348 513.936 C 524.714 513.971, 523.679 515.237, 523.048 516.750 C 522.417 518.263, 520.376 522.200, 518.513 525.500 C 516.651 528.800, 515.098 532.513, 515.063 533.750 C 515.029 534.987, 514.550 536, 514 536 C 512.344 536, 512.800 545.589, 514.524 547.020 C 516.360 548.544, 516.108 548.820, 519.258 541.835 C 522.894 533.768, 536.149 516.405, 544.704 508.500 C 546.490 506.850, 548.074 504.375, 548.225 503 C 548.460 500.863, 548.064 500.471, 545.500 500.301 C 543.850 500.192, 540.654 501.092, 538.397 502.301 M 877 501.919 C 876.175 502.392, 871.511 503.302, 866.635 503.942 C 861.759 504.582, 856.757 505.768, 855.520 506.579 C 854.283 507.389, 850.491 508.542, 847.093 509.140 C 838.657 510.626, 838 511.492, 838 521.126 C 838 526.936, 837.464 530.286, 836.033 533.429 C 834.950 535.804, 833.612 539.769, 833.058 542.241 C 832.504 544.712, 830.879 549.156, 829.446 552.117 C 828.014 555.078, 826.090 559.042, 825.171 560.927 C 824.252 562.812, 818.775 569.148, 813 575.007 C 803.103 585.048, 801.826 585.984, 790.764 591.306 C 777.701 597.590, 771.646 598.981, 757.291 598.992 C 741.334 599.006, 733.862 597.406, 721.096 591.243 C 711.002 586.370, 708.733 584.770, 701.346 577.316 C 696.756 572.684, 693 568.234, 693 567.426 C 693 566.126, 691.992 564.227, 687.200 556.500 C 684.827 552.673, 683 548.050, 682.965 545.782 C 682.945 544.527, 682.286 542.375, 681.500 541 C 680.709 539.616, 680.055 535.796, 680.035 532.441 C 680.016 529.109, 679.438 525.655, 678.750 524.766 C 678.063 523.877, 674.350 522.390, 670.500 521.462 C 666.650 520.534, 663.073 519.375, 662.550 518.887 C 661.326 517.744, 654.490 517.738, 652.236 518.878 C 648.202 520.918, 642.839 523, 641.621 523 C 638.260 523, 636.863 526.617, 637.078 534.764 C 637.194 539.142, 636.980 543.224, 636.602 543.834 C 636.225 544.445, 635.286 548.529, 634.516 552.911 C 633.745 557.292, 632.414 562.232, 631.558 563.889 C 630.701 565.545, 630 567.755, 630 568.799 C 630 572.198, 618.563 586.227, 611.351 591.676 C 604.606 596.771, 601.637 598.183, 589.250 602.183 C 585.813 603.293, 583 604.634, 583 605.164 C 583 605.693, 582.212 606.028, 581.250 605.909 C 580.288 605.790, 578.674 606.050, 577.663 606.487 C 575.250 607.530, 550.346 606.505, 548.742 605.296 C 548.059 604.781, 545.475 603.777, 543 603.063 C 540.525 602.350, 537.227 601.380, 535.672 600.908 C 531.081 599.514, 519.398 591.259, 515.089 586.363 C 512.891 583.867, 510.622 582.116, 510.046 582.472 C 508.511 583.420, 509.869 602.913, 511.671 605.796 C 512.460 607.058, 514.183 608.582, 515.499 609.181 C 518.303 610.459, 520.337 615.071, 522.052 624.042 C 522.731 627.594, 523.727 631.063, 524.266 631.750 C 524.807 632.441, 527.395 633, 530.052 633 C 534.648 633, 534.994 633.201, 537.967 637.606 C 539.676 640.139, 541.414 643.852, 541.829 645.856 L 542.583 649.500 549.957 650.076 C 557.018 650.628, 557.472 650.818, 560.677 654.576 C 562.517 656.734, 564.292 659.513, 564.620 660.750 C 565.315 663.371, 566.543 663.600, 568.643 661.500 C 571.116 659.027, 576.683 659.586, 578.592 662.500 C 581.378 666.753, 582.785 665.625, 583.270 658.750 C 583.879 650.103, 586.468 641.856, 590.280 636.418 C 592.051 633.891, 594.009 630.929, 594.630 629.836 C 595.252 628.742, 597.502 626.687, 599.630 625.270 C 601.759 623.852, 605.830 620.730, 608.678 618.331 C 612.647 614.987, 615.252 613.681, 619.841 612.735 C 624.442 611.785, 626.792 610.604, 630.005 607.625 C 633.935 603.980, 634.556 603.750, 640.461 603.750 C 645.589 603.750, 647.446 604.231, 650.601 606.375 C 655.242 609.529, 659.589 609.735, 662.562 606.942 C 665.066 604.589, 673.724 602.029, 679.236 602.012 C 683.867 601.997, 692 604.101, 692 605.314 C 692 605.809, 692.675 605.955, 693.500 605.638 C 694.325 605.322, 695 605.499, 695 606.031 C 695 607.280, 700.696 607.300, 701.466 606.054 C 701.805 605.506, 704.666 606.086, 708.275 607.434 C 711.729 608.724, 716.948 609.806, 720 609.865 C 723.202 609.928, 725.918 610.513, 726.500 611.267 C 727.050 611.979, 730.918 614.215, 735.096 616.235 C 745.542 621.288, 751.597 626.438, 756 634.013 C 757.375 636.378, 759.546 639.888, 760.825 641.812 C 762.162 643.823, 763.650 648.327, 764.325 652.405 C 765.700 660.705, 766.948 661.295, 770.873 655.500 C 773.192 652.077, 774.169 651.457, 777.654 651.199 C 780.845 650.963, 782.388 651.456, 784.788 653.475 L 787.850 656.052 789.425 653.803 C 790.291 652.567, 791 651.071, 791 650.480 C 791 649.889, 792.800 647.648, 795 645.500 C 797.200 643.352, 799 641.966, 799 642.419 C 799 642.873, 799.748 642.627, 800.663 641.872 C 801.899 640.852, 802.428 640.806, 802.727 641.694 C 802.948 642.350, 803.781 642.638, 804.577 642.332 C 805.374 642.026, 806.689 642.327, 807.500 643 C 809.857 644.956, 811.867 643.414, 813.042 638.746 C 813.676 636.229, 815.623 632.833, 817.686 630.646 C 821.126 627, 821.433 626.890, 827.369 627.155 C 834.733 627.485, 835.794 626.957, 835.248 623.234 C 834.755 619.879, 837.509 614.455, 841.044 611.817 C 843.130 610.261, 843.968 610.161, 846.603 611.156 C 850.900 612.778, 853 611.734, 853 607.974 C 853 598.798, 857.599 591.440, 864.169 590.102 L 867.500 589.424 868.099 581.462 C 868.727 573.131, 869.640 569, 870.855 569 C 871.251 569, 873.052 567.763, 874.856 566.250 C 877.802 563.780, 878.228 562.736, 879.041 556 C 880.353 545.124, 881.929 540.225, 885.151 537.003 C 888.673 533.481, 888.717 531.642, 885.392 526.845 C 883.046 523.459, 882.797 522.225, 882.905 514.517 C 883.086 501.701, 881.879 499.127, 877 501.919 M 482.117 528.250 C 481.655 529.487, 480.659 532.075, 479.904 534 C 477.617 539.831, 478.173 561.820, 480.839 570.958 C 482.036 575.059, 483.462 578.862, 484.008 579.408 C 484.553 579.953, 485 581.175, 485 582.123 C 485 584.385, 489.759 590, 491.677 590 C 492.905 590, 493.024 589.233, 492.338 585.750 C 491.339 580.686, 491.385 572.576, 492.455 564.976 C 493.036 560.854, 492.823 558.245, 491.617 554.691 C 490.672 551.910, 490 546.682, 490 542.119 C 490 536.843, 489.457 533.203, 488.328 530.904 C 485.701 525.554, 483.478 524.605, 482.117 528.250 M 201.500 540.071 C 199.765 540.628, 197.494 542.609, 196.115 544.767 C 193.962 548.136, 193.835 548.938, 194.809 553 C 195.819 557.209, 202.206 576.676, 203.668 580 C 204.030 580.825, 204.373 581.725, 204.429 582 C 204.485 582.275, 204.880 583.050, 205.308 583.723 C 206.230 585.174, 209.533 594.479, 211.619 601.500 C 214.460 611.065, 221.403 619.995, 226 619.998 C 229.741 620.001, 236.997 612.992, 237.010 609.366 C 237.020 606.274, 232.910 592.994, 229.932 586.500 C 227.757 581.758, 224.269 571.934, 222.990 566.947 C 222.489 564.992, 221.171 561.392, 220.061 558.947 C 218.952 556.501, 218.034 553.487, 218.022 552.250 C 218.010 551.013, 217.502 550, 216.893 550 C 216.284 550, 216.014 549.405, 216.293 548.679 C 216.572 547.952, 215.382 545.700, 213.650 543.674 C 210.190 539.629, 206.389 538.502, 201.500 540.071 M 113.553 603.120 C 108.669 608.924, 107.842 611.378, 109.464 615.259 C 110.815 618.493, 116.723 624, 118.842 624 C 119.378 624, 122.220 625.953, 125.158 628.340 C 128.096 630.727, 131.625 633.275, 133 634.002 C 134.375 634.729, 139.866 638.626, 145.202 642.662 C 150.538 646.698, 155.328 650, 155.846 650 C 156.364 650, 158.145 651.237, 159.802 652.750 C 163.495 656.120, 170.314 660, 172.544 660 C 176.766 660, 183 652.810, 183 647.939 C 183 645.742, 177.350 639.624, 171.050 635 C 169.176 633.625, 166.486 631.581, 165.072 630.457 C 163.657 629.334, 161.195 627.534, 159.601 626.457 C 158.006 625.381, 155.711 623.825, 154.500 623 C 153.289 622.175, 150.994 620.614, 149.399 619.531 C 147.805 618.449, 144.025 615.647, 141 613.306 C 137.975 610.965, 133.816 607.801, 131.758 606.275 C 129.700 604.749, 127.044 602.712, 125.855 601.750 C 124.654 600.777, 122.025 600, 119.936 600 C 116.956 600, 115.634 600.646, 113.553 603.120 M 708 639.878 C 708 641.353, 710.845 643.214, 712.005 642.497 C 712.785 642.015, 712.763 641.419, 711.926 640.411 C 710.633 638.853, 708 638.496, 708 639.878 M 657.268 645.194 C 653.305 649.157, 646.083 649.966, 640.539 647.070 C 635.347 644.357, 633.451 644.459, 630.293 647.616 C 626.706 651.203, 622.243 652.389, 619.382 650.515 C 617.300 649.150, 616.953 649.289, 613.966 652.691 L 610.776 656.325 611.292 665.413 C 612.012 678.097, 616.877 687.629, 625.520 693.292 C 627.709 694.727, 630.625 696.813, 632 697.928 C 634.711 700.127, 637.518 700.590, 638.500 699 C 639.412 697.525, 643.333 697.785, 645.559 699.468 C 646.626 700.276, 648.461 700.951, 649.635 700.968 C 651.489 700.996, 651.864 700.245, 652.488 695.251 C 653.296 688.786, 655.140 684.544, 657.545 683.621 C 660.759 682.388, 687.530 682.936, 689.358 684.272 C 690.527 685.127, 691.290 687.506, 691.685 691.522 C 692.008 694.810, 692.677 698.288, 693.171 699.250 C 694.278 701.404, 698.124 701.504, 702.035 699.482 C 704.469 698.223, 705.764 698.164, 709.617 699.134 C 713.861 700.202, 714.402 700.128, 715.881 698.277 C 718.764 694.667, 722.685 692.772, 725.836 693.464 C 729.218 694.207, 731.063 692.757, 733.960 687.079 C 735.002 685.037, 736.562 682.779, 737.427 682.061 C 738.697 681.007, 739 678.456, 739 668.827 L 739 656.899 732.469 650.432 C 726.142 644.168, 725.787 643.971, 721.121 644.136 C 718.472 644.230, 715.674 643.935, 714.902 643.481 C 714.131 643.028, 714.400 643.681, 715.500 644.933 C 718.758 648.642, 718.275 656.529, 714.500 661.258 C 712.850 663.325, 710.602 665.303, 709.504 665.654 C 708.406 666.004, 707.056 666.865, 706.504 667.566 C 704.459 670.162, 687.100 674.989, 676.495 675.910 C 662.500 677.125, 653.220 676.479, 642.567 673.547 C 631.089 670.388, 628.782 668.254, 628.238 660.294 C 627.669 651.955, 629.023 650.500, 637.354 650.500 C 643.018 650.500, 644.236 650.845, 646.684 653.140 C 648.863 655.183, 651.638 656.187, 658.947 657.575 C 667.877 659.271, 668.839 659.278, 676.526 657.696 C 686.566 655.629, 697.363 650.298, 697.820 647.181 C 698.093 645.314, 697.661 644.999, 694.820 644.994 C 692.994 644.990, 690.366 644.396, 688.981 643.673 C 686.810 642.540, 686.050 642.608, 683.481 644.164 C 675.858 648.783, 674.380 648.893, 668.251 645.301 C 662.245 641.781, 660.695 641.766, 657.268 645.194 M 86.086 705.067 C 84.389 706.925, 83 708.763, 83 709.151 C 83 709.540, 82.257 710.600, 81.349 711.508 C 79.814 713.043, 79.844 713.418, 81.770 716.830 C 85.443 723.334, 87.610 723.991, 109.189 725.142 C 119.810 725.709, 134.679 726.021, 142.232 725.836 L 155.964 725.500 158.860 722.500 C 163.054 718.156, 163.582 713.845, 160.385 710.046 C 157.009 706.033, 152.019 703.773, 147.291 704.115 C 145.175 704.268, 142.901 704.057, 142.237 703.646 C 141.573 703.236, 129.362 702.627, 115.101 702.294 L 89.173 701.687 86.086 705.067 M 360.500 707.651 C 339.727 712.004, 338.092 712.540, 322.411 720.124 C 313.562 724.405, 305.745 728.603, 305.039 729.453 C 304.333 730.304, 303.369 731, 302.897 731 C 300.696 731, 289.851 739.055, 282.179 746.387 C 263.074 764.646, 252.239 781.173, 249.933 795.571 C 247.120 813.131, 248.341 835.404, 252.359 839.844 C 253.183 840.755, 253.893 841.950, 253.937 842.500 C 254.138 845.033, 260.526 856.268, 262.766 858.031 C 267.888 862.060, 272.605 859.744, 271.482 853.754 C 271.131 851.885, 271.331 846.854, 271.926 842.575 C 273.412 831.892, 276.745 826.157, 284.250 821.368 C 288.480 818.668, 288.977 816.266, 286.381 811.061 C 282.863 804.011, 287.625 794, 294.496 794 C 296.213 794, 298.310 794.563, 299.155 795.250 C 301.684 797.306, 304.783 803.233, 305.560 807.500 C 306.380 812.004, 310.093 820.603, 313.652 826.241 C 314.957 828.308, 315.792 830, 315.506 830 C 315.221 830, 316.340 831.868, 317.994 834.150 C 319.647 836.433, 321 838.934, 321 839.709 C 321 840.484, 321.418 840.860, 321.928 840.544 C 322.438 840.229, 323.144 840.878, 323.496 841.986 C 324.543 845.288, 337.853 854, 341.848 854 C 344.088 854, 349 848.961, 349 846.664 C 349 842.098, 342.284 822.506, 338.488 816 C 336.212 812.098, 336.694 809.088, 340.106 805.901 C 344.657 801.650, 347.858 802.037, 352.839 807.441 C 355.090 809.883, 357.242 813.116, 357.621 814.624 C 357.999 816.133, 358.912 818.522, 359.648 819.933 C 360.385 821.345, 360.990 823.047, 360.994 823.716 C 361.002 825.338, 364.265 832.330, 365.396 833.149 C 365.888 833.506, 366.021 834.504, 365.689 835.367 C 365.358 836.230, 365.518 837.202, 366.044 837.527 C 366.570 837.852, 367 839.511, 367 841.213 C 367 846.221, 371.495 854.656, 374.576 855.430 C 378.566 856.431, 383.231 854.389, 385.895 850.473 C 388.068 847.280, 388.232 846.273, 387.668 839.604 C 387.100 832.879, 383.557 820.363, 379.415 810.452 C 378.507 808.278, 377.796 806.398, 377.835 806.274 C 377.875 806.150, 377.293 804.865, 376.542 803.419 C 375.056 800.554, 375.986 796.086, 378.504 793.996 C 380.543 792.304, 387.390 792.554, 390.245 794.425 C 392.487 795.894, 398 806.397, 398 809.198 C 398 809.784, 399.010 811.892, 400.244 813.882 C 401.478 815.872, 402.494 817.725, 402.500 818 C 402.506 818.275, 403.532 820.146, 404.780 822.157 C 406.425 824.809, 407.273 828.248, 407.865 834.666 C 409.099 848.034, 412.413 851.510, 419.399 846.762 C 424.507 843.292, 428 837.708, 428 833.015 C 428 830.871, 427.614 828.879, 427.142 828.588 C 426.670 828.296, 425.738 824.557, 425.072 820.279 C 423.924 812.914, 421.865 805.132, 418.384 795 C 417.534 792.525, 416.582 789.375, 416.270 788 C 415.958 786.625, 415.264 785.214, 414.728 784.865 C 414.132 784.477, 414.450 782.651, 415.547 780.166 C 417.547 775.633, 421.424 773.388, 425.490 774.408 C 428.729 775.221, 433.282 781.509, 435.466 788.187 C 436.405 791.058, 437.883 793.925, 438.749 794.559 C 439.666 795.229, 440.061 796.399, 439.694 797.355 C 439.347 798.260, 439.395 799, 439.802 799 C 441.268 799, 445.476 815.565, 448.521 833.320 C 449.258 837.620, 450.532 842.162, 451.351 843.413 C 452.170 844.663, 453.311 848.229, 453.885 851.336 C 455.075 857.772, 457.705 861.831, 463.117 865.581 C 467.794 868.822, 471.035 868.315, 476.266 863.523 L 480 860.102 480 851.775 C 480 841.553, 478.256 827.014, 476.823 825.287 C 476.241 824.585, 476 823.108, 476.288 822.005 C 476.577 820.902, 476.405 820, 475.906 820 C 475.408 820, 475.012 818.987, 475.026 817.750 C 475.095 811.824, 465.684 778.812, 463.381 776.901 C 462.621 776.271, 462 775.277, 462 774.693 C 462 773.698, 460.592 770.326, 456.701 762 C 454.383 757.039, 450.140 749.962, 445.586 743.464 C 441.871 738.161, 431.352 726.725, 429.408 725.875 C 428.909 725.657, 425.363 723.458, 421.529 720.989 C 417.696 718.520, 414.321 716.481, 414.029 716.458 C 413.738 716.435, 411.991 715.612, 410.148 714.629 C 401.732 710.144, 385.531 706.954, 372 707.117 C 366.775 707.180, 361.600 707.421, 360.500 707.651 M 825.601 726.020 C 823.457 728.159, 818.507 731.534, 814.601 733.521 C 810.696 735.508, 805.025 738.672, 802 740.551 C 798.975 742.430, 794.025 744.706, 791 745.608 C 787.975 746.511, 781.380 749.388, 776.345 752.002 C 764.271 758.271, 758.457 759.669, 751.453 757.989 C 746.435 756.785, 745.930 756.850, 741.828 759.222 C 739.448 760.600, 735.025 762.487, 732 763.417 C 728.975 764.346, 725.669 765.564, 724.653 766.122 C 723.637 766.681, 720.688 767.026, 718.100 766.888 C 715.512 766.751, 712.779 767.019, 712.027 767.484 C 711.275 767.948, 705.448 768.688, 699.080 769.127 C 692.711 769.565, 685.428 770.218, 682.896 770.576 C 679.867 771.004, 677.473 770.782, 675.896 769.925 C 674.348 769.085, 669.406 768.598, 661.937 768.550 C 653.217 768.494, 649.776 768.089, 647.937 766.902 C 639.440 761.417, 638.494 766.056, 646.556 773.680 C 653.089 779.858, 659.264 784.169, 665.790 787.107 C 668.381 788.274, 672.750 790.281, 675.500 791.567 C 686.794 796.851, 715.375 798.163, 733.490 794.231 C 738.984 793.038, 743.634 791.598, 743.823 791.031 C 744.012 790.464, 744.849 790, 745.683 790 C 747.973 790, 770.003 781.102, 774 778.563 C 784.229 772.064, 786.024 771, 786.756 771 C 787.195 771, 789.032 769.650, 790.839 768 C 792.645 766.350, 794.333 765, 794.588 765 C 796.283 765, 814.819 747.019, 818.813 741.500 C 820.803 738.750, 822.995 736.148, 823.683 735.719 C 825.336 734.686, 832 724.613, 832 723.146 C 832 721.003, 829.511 722.122, 825.601 726.020 M 969 735.845 C 969 736.310, 969.911 737.514, 971.024 738.521 C 973.312 740.593, 975.714 739.304, 974.664 736.567 C 974.048 734.963, 969 734.319, 969 735.845 M 293.750 840.067 C 292.293 840.926, 292 842.580, 292 849.927 C 292 855.850, 292.411 859.047, 293.250 859.642 C 295.099 860.953, 312 860.114, 312 858.711 C 312 858.083, 309.994 855.528, 307.543 853.034 C 305.092 850.540, 302.018 846.475, 300.713 844 C 298.214 839.262, 296.630 838.367, 293.750 840.067 M 498.742 842.206 C 496.706 843.755, 496.630 844.122, 497.919 846.206 C 498.885 847.767, 499.471 852.652, 499.754 861.500 C 500.096 872.212, 500.504 874.973, 502.068 877.187 C 504.149 880.132, 506.356 885.715, 508.565 893.623 C 509.352 896.441, 510.672 900.364, 511.498 902.341 C 512.324 904.318, 513 907.436, 513 909.269 C 513 911.102, 513.554 913.774, 514.230 915.208 C 515.449 917.790, 515.593 917.821, 529.480 918.388 C 537.191 918.703, 565.325 919.226, 592 919.550 C 618.675 919.873, 649.500 920.547, 660.500 921.047 C 671.500 921.547, 702.646 921.966, 729.712 921.978 C 777.569 921.999, 779.084 922.059, 784.712 924.149 C 787.896 925.330, 790.725 926.631, 791 927.039 C 791.275 927.447, 793.323 928.729, 795.551 929.888 C 801.332 932.894, 805.316 937.426, 809.571 945.838 C 813.385 953.379, 814.819 960.916, 814.946 974.095 C 815.004 980.138, 815.682 981.154, 821.949 984.602 C 823.847 985.646, 826.360 987.585, 827.536 988.910 C 830.264 991.988, 832.002 990.927, 831.993 986.191 C 831.982 980.798, 834.141 952.758, 834.703 951 C 834.966 950.175, 835.117 944.469, 835.039 938.319 C 834.941 930.657, 835.306 926.478, 836.198 925.039 C 837.280 923.295, 837.264 922.792, 836.104 922.070 C 835.337 921.593, 834.954 920.562, 835.254 919.781 C 835.564 918.974, 834.131 916.553, 831.940 914.180 L 828.080 910 805.290 909.963 C 792.756 909.942, 773.725 909.491, 763 908.959 C 741.386 907.887, 689.236 906.555, 607.576 904.990 C 575.879 904.382, 553.170 903.556, 552.484 902.987 C 551.841 902.453, 551.057 902.277, 550.740 902.594 C 549.813 903.521, 542.374 895.319, 540.911 891.758 C 540.175 889.966, 538.544 886.975, 537.286 885.110 C 536.029 883.246, 535 880.759, 535 879.583 C 535 878.407, 534.407 876.557, 533.682 875.473 C 532.957 874.388, 531.584 871.398, 530.630 868.829 C 529.675 866.260, 528.270 863.639, 527.507 863.006 C 526.743 862.372, 526.365 861.212, 526.666 860.427 C 526.968 859.642, 526.765 859, 526.217 859 C 525.669 859, 524.217 856.862, 522.991 854.250 C 520.012 847.901, 515.239 842, 513.083 842 C 512.121 842, 511.050 841.716, 510.703 841.370 C 509.292 839.959, 500.927 840.543, 498.742 842.206 M 428 863.851 C 424.975 865.986, 420.735 868.139, 418.577 868.636 C 413.643 869.771, 413.142 871.132, 417.027 872.852 C 418.694 873.590, 420.950 875.837, 422.039 877.847 C 424.798 882.932, 426.152 885.046, 428.750 888.319 C 429.988 889.878, 431 891.964, 431 892.954 C 431 893.945, 431.673 895.314, 432.495 895.996 C 433.318 896.679, 434.522 899.010, 435.171 901.178 C 435.821 903.345, 437.215 905.580, 438.270 906.145 C 439.507 906.806, 440.008 907.860, 439.682 909.108 C 439.349 910.380, 440.260 912.187, 442.338 914.375 C 445.359 917.558, 445.846 917.713, 453.233 917.844 C 460.591 917.974, 460.996 917.865, 461.563 915.606 C 461.931 914.140, 461.352 911.651, 460.050 909.098 C 458.890 906.825, 457.499 902.611, 456.959 899.733 C 455.086 889.758, 453.057 884.153, 451.094 883.530 C 448.970 882.856, 439.037 868.279, 437.500 863.581 C 436.109 859.328, 434.338 859.378, 428 863.851 M 912.023 887.250 C 912.050 906.819, 913.573 927.981, 915.060 929.440 C 915.833 930.199, 915.964 925.810, 915.520 914 C 915.180 904.925, 914.730 891.650, 914.521 884.500 C 914.081 869.438, 914.257 871, 913 871 C 912.373 871, 912.008 877.068, 912.023 887.250 M 477.500 883.719 C 474.458 884.460, 472 887.056, 472 889.528 C 472 890.748, 472.994 893.940, 474.208 896.623 C 475.422 899.305, 476.462 901.725, 476.519 902 C 476.575 902.275, 477.411 904.300, 478.376 906.500 C 479.340 908.700, 480.380 911.727, 480.685 913.228 C 481.484 917.148, 483.220 918.157, 488.570 917.808 C 495.023 917.387, 495.980 915.662, 493.567 908.798 C 492.543 905.884, 491.232 902.600, 490.653 901.500 C 490.075 900.400, 489.723 898.487, 489.872 897.250 C 490.021 896.013, 489.661 895, 489.072 895 C 488.482 895, 488 894.382, 488 893.627 C 488 892.872, 487.079 890.172, 485.953 887.627 C 483.859 882.892, 482.836 882.419, 477.500 883.719 M 1087.392 908.422 C 1087.092 909.204, 1087.372 910.827, 1088.016 912.029 C 1089.560 914.916, 1091.490 913.087, 1090.608 909.573 C 1089.902 906.763, 1088.255 906.173, 1087.392 908.422 M 1091.494 937.009 C 1090.732 938.242, 1091.824 942, 1092.945 942 C 1093.391 942, 1094.315 941.325, 1095 940.500 C 1095.993 939.303, 1095.993 938.697, 1095 937.500 C 1093.551 935.754, 1092.372 935.589, 1091.494 937.009 M 916.193 950.172 C 916.362 952.467, 917.063 954.530, 917.750 954.756 C 919.098 955.199, 919.395 952.077, 918.370 948.250 C 917.351 944.448, 915.867 945.758, 916.193 950.172" stroke="none" fill="#171916" fill-rule="evenodd"/>
</svg>