<svg role="img" aria-labelledby="artwork-title" shape-rendering="geometricPrecision" xmlns="http://www.w3.org/2000/svg" width="1200" height="1200" viewBox="0 0 1200 1200" version="1.1">
	<title id="artwork-title">Mascot revealing a project from behind a curtain</title>
	<path d="M 650.180 106.578 C 646.612 109.632, 646 110.721, 646 114.021 C 646 116.146, 646.856 119.374, 647.903 121.193 C 648.950 123.012, 650.131 126.075, 650.527 128 C 650.924 129.925, 652.054 132.640, 653.038 134.034 C 654.023 135.427, 655.147 138.352, 655.536 140.534 C 655.925 142.715, 657.119 145.953, 658.190 147.729 C 659.261 149.505, 659.994 152.205, 659.818 153.729 C 659.529 156.245, 659.040 156.557, 654.500 157.124 C 650.111 157.673, 642.519 160.449, 638 163.158 C 632.656 166.362, 631.011 167.617, 630.999 168.500 C 630.980 169.800, 626.217 172, 623.421 172 C 622.168 172, 619.808 170.406, 617.870 168.250 C 614.254 164.226, 605.225 157, 603.814 157 C 603.343 157, 601.279 155.915, 599.229 154.589 C 597.178 153.264, 593.475 151.860, 591 151.471 C 588.525 151.082, 585.159 150.077, 583.520 149.237 C 578.723 146.780, 557.754 147.122, 546.711 149.838 C 541.877 151.027, 536.903 152, 535.658 152 C 534.412 152, 531.167 153.101, 528.446 154.447 C 525.726 155.792, 522.375 157.376, 521 157.967 C 519.625 158.557, 516.475 160.374, 514 162.004 C 511.525 163.634, 508.859 165.278, 508.076 165.657 C 507.293 166.037, 505.911 167.057, 505.004 167.924 C 501.358 171.408, 494.984 176.842, 494.167 177.161 C 493.432 177.448, 480.632 196.100, 477.475 201.485 C 476.502 203.146, 476.205 203.143, 471.475 201.431 C 467.421 199.963, 463.262 199.621, 449 199.582 C 432.069 199.536, 431.298 199.624, 425.280 202.267 C 421.859 203.770, 418.179 205, 417.102 205 C 416.024 205, 414.436 205.707, 413.571 206.571 C 412.707 207.436, 411.986 207.773, 411.970 207.321 C 411.953 206.870, 411.481 207.287, 410.920 208.250 C 410.359 209.213, 409.110 210, 408.145 210 C 407.179 210, 404.864 211.125, 403 212.500 C 401.136 213.875, 399.021 215, 398.299 215 C 396.280 215, 379.829 231.814, 375.795 238 C 370.957 245.418, 368 251.135, 368 253.069 C 368 253.948, 367.662 255.004, 367.250 255.417 C 366.837 255.829, 366.459 256.467, 366.410 256.833 C 366.360 257.200, 365.511 259.300, 364.523 261.500 C 363.180 264.492, 362.653 268.612, 362.433 277.847 C 362.271 284.638, 361.942 290.391, 361.702 290.631 C 361.462 290.871, 357.911 291.444, 353.811 291.903 C 349.710 292.363, 345.488 293.189, 344.428 293.738 C 343.367 294.287, 340.700 295.052, 338.500 295.438 C 336.300 295.824, 332.925 297.165, 331 298.418 C 329.075 299.671, 324.800 302.438, 321.500 304.567 C 308.884 312.707, 291.060 335.190, 291.010 343.027 C 291.004 343.868, 290.299 345.555, 289.443 346.777 C 288.587 348, 288.192 349, 288.566 349 C 288.939 349, 288.700 349.657, 288.034 350.459 C 284.070 355.235, 284.976 380.087, 289.418 388.441 C 290.838 391.112, 292 393.851, 292 394.526 C 292 395.202, 292.675 396.315, 293.500 397 C 294.325 397.685, 295 399.756, 295 401.602 C 295 404.483, 294.461 405.235, 291.198 406.899 C 286.677 409.206, 277 417.693, 277 419.352 C 277 419.994, 276.090 421.087, 274.977 421.782 C 271.828 423.749, 264.047 442.843, 264.013 448.691 C 264.006 449.896, 263.550 451.160, 263 451.500 C 262.428 451.854, 262 457.010, 262 463.559 C 262 470.520, 262.392 475, 263 475 C 263.550 475, 264 476.098, 264 477.440 C 264 481.055, 268.655 493.304, 272.563 499.972 C 275.716 505.353, 286.991 517.944, 288.743 518.043 C 289.160 518.066, 291.399 519.754, 293.719 521.793 L 297.938 525.501 296.552 529.524 C 294.391 535.796, 293.701 546.726, 294.911 555.500 C 297.480 574.124, 311.850 591.326, 330 597.503 C 337.295 599.985, 337.452 600.183, 338.138 607.743 C 338.614 612.991, 339.312 615.312, 340.888 616.888 C 342.050 618.050, 343 619.649, 343 620.443 C 343 622.290, 353.797 634, 355.501 634 C 356.870 634, 358 636.145, 358 638.743 C 358 639.611, 356.759 641.487, 355.242 642.911 C 341.933 655.404, 339.391 689.973, 349.979 714.500 C 352.058 719.318, 353.285 722.325, 353.447 723 C 354.151 725.938, 366.818 742.777, 372.723 748.625 C 380.170 755.999, 393.442 765.487, 400.350 768.373 C 413.310 773.788, 431.978 775.683, 441 772.500 C 447.609 770.168, 448.605 770.506, 452.723 776.479 C 463.536 792.163, 467.952 796.919, 476.028 801.577 C 480.635 804.234, 486.470 808.765, 490.023 812.446 C 495.127 817.732, 497.190 819.109, 502.725 820.926 C 506.359 822.119, 511.111 824.504, 513.284 826.225 C 516.298 828.612, 518.514 829.461, 522.618 829.801 C 525.578 830.047, 528 830.668, 528 831.183 C 528 831.697, 528.412 831.864, 528.915 831.553 C 529.418 831.242, 530.007 831.520, 530.223 832.170 C 530.440 832.820, 532.391 833.850, 534.559 834.458 C 536.726 835.066, 538.472 836, 538.437 836.532 C 538.402 837.064, 535.614 838.850, 532.240 840.500 C 524.995 844.043, 508.989 857.127, 492.162 873.261 C 482.763 882.273, 463 907.438, 463 910.394 C 463 910.772, 462.170 912.300, 461.156 913.790 C 454.610 923.413, 447.216 937.268, 444.503 945 C 443.627 947.494, 442.623 950.031, 441.384 952.874 C 440.575 954.730, 439.494 959.230, 438.981 962.874 C 438.468 966.518, 437.363 971.961, 436.524 974.968 C 435.686 977.975, 435 982.389, 435 984.775 C 435 990.442, 432.958 1003.235, 431.859 1004.450 C 430.706 1005.725, 430.756 1025.346, 431.915 1026.550 C 432.418 1027.073, 433.346 1033.575, 433.977 1041 C 434.609 1048.425, 435.969 1059, 436.999 1064.500 C 438.029 1070, 439.342 1077.200, 439.917 1080.500 C 441.357 1088.770, 443.269 1095.358, 444.483 1096.235 C 445.042 1096.639, 471.882 1096.976, 504.128 1096.985 C 553.868 1096.998, 562.936 1096.782, 563.947 1095.564 C 564.602 1094.775, 566.410 1093.849, 567.965 1093.508 C 569.520 1093.166, 571.569 1092.029, 572.517 1090.981 C 573.466 1089.933, 575.875 1088.551, 577.871 1087.911 C 579.867 1087.271, 582.175 1086.164, 583 1085.451 C 583.825 1084.739, 585.850 1083.832, 587.500 1083.436 C 589.150 1083.040, 592.300 1081.793, 594.500 1080.664 C 596.700 1079.535, 598.950 1078.582, 599.500 1078.545 C 600.050 1078.508, 602.061 1077.632, 603.970 1076.599 C 605.878 1075.566, 609.928 1074.153, 612.970 1073.460 C 616.011 1072.766, 620.300 1071.498, 622.500 1070.643 C 624.700 1069.788, 627.850 1069.066, 629.500 1069.040 C 631.150 1069.014, 634.013 1068.070, 635.862 1066.943 C 639.109 1064.964, 639.294 1064.955, 641.242 1066.697 C 642.352 1067.688, 644.354 1070.223, 645.693 1072.330 C 647.960 1075.899, 648.020 1076.321, 646.565 1078.540 C 645.696 1079.867, 643.284 1081.385, 641.119 1081.968 C 638.982 1082.543, 636.675 1083.686, 635.994 1084.507 C 635.313 1085.328, 634.248 1086, 633.628 1086 C 631.669 1086, 621 1094.093, 621 1095.579 C 621 1097.660, 659.187 1097.684, 660.913 1095.605 C 661.550 1094.837, 663.727 1093.899, 665.752 1093.519 C 667.776 1093.139, 670.010 1092.003, 670.717 1090.993 C 671.424 1089.984, 673.398 1088.852, 675.103 1088.477 C 676.808 1088.103, 680.520 1086.768, 683.351 1085.511 C 686.183 1084.253, 690.413 1082.413, 692.750 1081.420 C 695.087 1080.427, 697 1079.225, 697 1078.749 C 697 1078.272, 697.442 1078.155, 697.982 1078.489 C 698.523 1078.823, 700.652 1077.950, 702.714 1076.548 C 704.777 1075.147, 706.877 1074, 707.382 1074 C 708.418 1074, 720.691 1068.402, 726.500 1065.280 C 731.141 1062.786, 747.783 1055, 748.474 1055 C 748.888 1055, 753.217 1052.750, 758.096 1050 C 762.974 1047.250, 767.711 1045, 768.623 1045 C 774.439 1045, 784.675 1035.685, 786.991 1028.284 C 788.795 1022.522, 792.762 1013.920, 794.504 1011.996 C 795.497 1010.898, 796.010 1010, 795.642 1010 C 795.275 1010, 796.021 1008.313, 797.299 1006.250 C 798.577 1004.188, 800.232 1000.925, 800.976 999 C 801.720 997.075, 802.930 994.790, 803.665 993.921 C 804.399 993.053, 805 991.878, 805 991.311 C 805 990.743, 806.188 988.529, 807.641 986.390 C 809.094 984.250, 811.635 979.800, 813.289 976.500 C 818.043 967.016, 831.812 949.833, 839.571 943.701 C 845.604 938.933, 850.263 935.556, 851 935.417 C 851.275 935.365, 854.100 934.125, 857.279 932.661 C 860.457 931.198, 863.512 930, 864.068 930 C 864.625 930, 866.749 929.161, 868.790 928.136 C 870.830 927.111, 875.543 925.709, 879.262 925.021 C 882.982 924.332, 886.245 923.413, 886.513 922.978 C 886.782 922.544, 887.851 922.410, 888.888 922.681 C 889.926 922.952, 891.077 922.685, 891.446 922.087 C 892.322 920.670, 912.644 920.614, 913.516 922.027 C 913.865 922.591, 914.679 922.970, 915.325 922.869 C 915.971 922.767, 917.175 922.958, 918 923.293 C 918.825 923.627, 921.514 924.418, 923.975 925.050 C 930.753 926.789, 939.068 931.378, 943.207 935.662 C 948.779 941.430, 951.448 950.426, 948.965 955.066 C 947.660 957.503, 945.981 957.505, 941.807 955.073 C 938.334 953.050, 925.242 950, 920.029 950 C 918.348 950, 916.107 949.459, 915.048 948.798 C 913.623 947.908, 912.523 947.880, 910.812 948.690 C 909.540 949.292, 905.800 950.242, 902.500 950.802 C 893.574 952.317, 891.190 953.533, 889.275 957.549 C 887.632 960.994, 887.643 961.295, 889.531 964.785 C 891.968 969.291, 894.134 969.915, 905.032 969.251 C 911.076 968.883, 915.159 969.182, 919.032 970.277 C 922.039 971.127, 926.525 972.132, 929 972.510 C 937.498 973.809, 949.501 982.711, 953.912 990.987 C 958.401 999.409, 957.867 1006, 952.694 1006 C 951.043 1006, 949.434 1004.973, 943.334 1000.024 C 942.692 999.503, 939.444 998.160, 936.115 997.039 C 927.200 994.036, 905.481 994.047, 901.654 997.058 C 900.215 998.189, 899.108 999.427, 899.194 999.808 C 899.279 1000.188, 898.783 1001.662, 898.091 1003.082 C 897.054 1005.208, 897.097 1006.296, 898.333 1009.254 C 900.716 1014.957, 902.857 1015.722, 918 1016.276 C 928.387 1016.656, 932.747 1017.249, 936.907 1018.849 C 942.539 1021.014, 948 1025.389, 948 1027.737 C 948 1028.486, 948.751 1030.539, 949.670 1032.300 C 951.678 1036.149, 951.838 1040.286, 950.059 1042.428 C 948.200 1044.668, 946.243 1044.383, 942.644 1041.348 C 937.326 1036.863, 933.275 1035.711, 921.500 1035.331 C 908.256 1034.904, 902.947 1036.396, 900.540 1041.221 C 898.590 1045.129, 898.607 1046.470, 900.642 1049.576 C 903.231 1053.528, 905.756 1054.350, 917.500 1055.062 C 926.985 1055.636, 929.436 1056.169, 935.299 1058.928 C 943.390 1062.735, 944.318 1064.447, 943.820 1074.659 C 943.514 1080.919, 943.039 1082.425, 940.029 1086.659 C 938.137 1089.321, 935.781 1092.088, 934.794 1092.807 C 933.807 1093.525, 933 1094.763, 933 1095.557 C 933 1096.740, 935.297 1096.996, 945.750 1096.980 L 958.500 1096.961 961.796 1091.322 C 963.609 1088.221, 964.872 1085.109, 964.603 1084.407 C 964.333 1083.704, 964.554 1082.982, 965.094 1082.802 C 965.635 1082.622, 966.345 1079.273, 966.673 1075.360 C 967.132 1069.889, 966.896 1067.497, 965.652 1065.004 C 964.135 1061.964, 964.151 1061.596, 965.902 1059.130 C 966.929 1057.684, 969.046 1054.250, 970.607 1051.500 C 973.588 1046.246, 974.016 1041.196, 972.903 1024.428 C 972.542 1018.991, 972.793 1017.971, 975.301 1014.678 C 976.841 1012.655, 977.799 1011, 977.428 1011 C 977.058 1011, 977.319 1010.320, 978.008 1009.490 C 979.645 1007.518, 979.594 991.421, 977.945 989.434 C 977.291 988.645, 977.026 988, 977.358 988 C 977.943 988, 974.798 981.894, 970.769 975.208 C 968.612 971.629, 968.739 969.348, 971.503 962 C 974.176 954.893, 973.168 943.278, 969.150 934.886 C 965.095 926.415, 955.448 915.833, 948.685 912.436 C 945.844 911.009, 943.291 909.495, 943.010 909.072 C 942.121 907.730, 929.271 903, 926.514 903 C 925.059 903, 922.945 902.506, 921.816 901.902 C 919.969 900.913, 919.828 900.190, 920.407 894.652 C 921.336 885.758, 923.969 871.856, 925.205 869.316 C 925.789 868.114, 926.025 866.202, 925.727 865.066 C 925.430 863.930, 925.546 863, 925.984 863 C 926.423 863, 926.988 861.538, 927.242 859.750 C 927.495 857.962, 928.187 854.475, 928.779 852 C 930.081 846.556, 932.388 834.455, 935.054 819.082 C 936.143 812.802, 937.515 807.084, 938.103 806.376 C 938.691 805.667, 938.901 804.649, 938.570 804.113 C 938.238 803.577, 938.373 802.888, 938.868 802.581 C 939.364 802.275, 940.072 799.882, 940.443 797.262 C 941.242 791.612, 943.808 784.062, 945.597 782.099 C 946.690 780.899, 948.567 780.937, 958.686 782.361 C 966.224 783.422, 977.062 784.020, 988.628 784.012 C 1001.949 784.003, 1007.017 784.331, 1007.742 785.250 C 1008.286 785.938, 1009.019 791.225, 1009.373 797 C 1009.727 802.775, 1010.469 812.225, 1011.022 818 C 1013.371 842.551, 1013.916 858.126, 1014.030 904 C 1014.136 946.193, 1012.817 993.869, 1011.484 996.025 C 1011.245 996.413, 1010.977 1010.086, 1010.890 1026.408 L 1010.732 1056.086 1013.040 1058.543 C 1015.744 1061.421, 1021.933 1061.924, 1024.391 1059.466 C 1025.962 1057.895, 1027.984 1051.880, 1027.994 1048.750 C 1027.997 1047.787, 1028.502 1047, 1029.117 1047 C 1029.771 1047, 1030.034 1045.956, 1029.751 1044.476 C 1029.485 1043.088, 1029.599 1041.748, 1030.003 1041.498 C 1030.773 1041.022, 1032.755 1018.927, 1033.413 1003.500 C 1033.624 998.550, 1034.291 987.750, 1034.895 979.500 C 1036.131 962.623, 1036.650 850.860, 1035.501 849.001 C 1034.670 847.657, 1032.304 821.583, 1031.418 804 C 1031.099 797.675, 1030.596 791.825, 1030.300 791 C 1030.004 790.175, 1029.739 787.925, 1029.712 786 L 1029.662 782.500 1038.581 781.699 C 1043.486 781.259, 1047.628 780.537, 1047.785 780.095 C 1047.942 779.652, 1049.182 779.503, 1050.541 779.763 C 1051.900 780.023, 1053.571 779.788, 1054.256 779.241 C 1054.940 778.694, 1058.169 777.924, 1061.432 777.529 C 1074.122 775.993, 1100.581 770.157, 1108 767.259 C 1108.825 766.936, 1109.763 766.634, 1110.084 766.586 C 1110.405 766.539, 1112.768 765.173, 1115.334 763.551 L 1120 760.601 1120 754.211 C 1120 748.807, 1119.653 747.531, 1117.750 745.944 C 1115.042 743.685, 1110.972 743.508, 1105.533 745.413 C 1100.227 747.271, 1089.324 749.921, 1080 751.617 C 1075.875 752.368, 1071.600 753.394, 1070.500 753.898 C 1069.400 754.402, 1057.925 756.273, 1045 758.056 C 1008.710 763.062, 964.783 763.297, 945.332 758.589 C 942.125 757.813, 938.316 756.918, 936.869 756.600 C 933.485 755.856, 933.349 755.394, 927.664 725.332 C 927.022 721.940, 926.191 718.858, 925.818 718.484 C 925.444 718.110, 925.392 717.143, 925.702 716.335 C 926.012 715.526, 925.783 713.883, 925.192 712.683 C 923.658 709.563, 922 700.648, 922 695.519 C 922 691.823, 922.455 690.812, 924.904 689.068 C 928.044 686.833, 931.493 686.370, 932.528 688.046 C 932.936 688.705, 938.343 689.037, 947.151 688.943 C 954.838 688.861, 961.399 689.066, 961.730 689.397 C 962.555 690.222, 977.503 690.164, 978.333 689.333 C 978.700 688.967, 981.880 688.771, 985.401 688.899 C 988.921 689.026, 992.071 688.695, 992.400 688.162 C 992.730 687.629, 997.837 686.903, 1003.750 686.548 C 1009.662 686.194, 1017.650 685.273, 1021.500 684.501 C 1025.350 683.729, 1033 682.400, 1038.500 681.548 C 1044 680.695, 1050.709 679.323, 1053.409 678.499 C 1056.109 677.674, 1059.570 677, 1061.100 677 C 1062.630 677, 1064.165 676.543, 1064.510 675.984 C 1064.856 675.425, 1065.510 675.197, 1065.965 675.478 C 1066.420 675.759, 1068.076 675.319, 1069.646 674.500 C 1071.216 673.681, 1074.075 672.746, 1076 672.423 C 1082.084 671.401, 1104.921 664.222, 1106.750 662.756 C 1107.437 662.206, 1108 662.074, 1108 662.464 C 1108 663.921, 1116.336 656.977, 1118.132 654.024 C 1120.556 650.037, 1120.522 649.770, 1117.117 646.126 C 1112.041 640.691, 1106.724 639.970, 1099.381 643.721 C 1094.763 646.080, 1093 644.939, 1093 639.590 C 1093 637.131, 1093.481 634.821, 1094.068 634.458 C 1094.655 634.095, 1095.043 632.381, 1094.929 630.649 C 1094.816 628.917, 1094.966 626.825, 1095.262 626 C 1095.909 624.201, 1097.637 594.372, 1098.971 562 C 1101.466 501.465, 1102.063 381.813, 1099.962 363.500 C 1099.395 358.550, 1098.475 336.050, 1097.919 313.500 C 1096.565 258.564, 1096.129 246.774, 1095.387 245 C 1094.471 242.809, 1094.377 238, 1095.250 238 C 1096.111 238, 1096.275 234.608, 1095.453 233.787 C 1095.153 233.486, 1094.938 216.416, 1094.975 195.854 C 1095.041 160.338, 1094.943 158.258, 1093.028 154.295 C 1088.451 144.821, 1079.851 144.335, 1076.056 153.336 C 1074.411 157.235, 1074.348 162.052, 1075.058 229 C 1075.476 268.325, 1076.372 323, 1077.049 350.500 C 1078.310 401.660, 1077.796 516.113, 1076.066 569.500 C 1074.805 608.423, 1073.102 647.237, 1072.555 649.533 C 1072.056 651.628, 1065.096 653.866, 1052 656.143 C 1048.975 656.668, 1044.608 657.739, 1042.295 658.522 C 1039.982 659.305, 1034.357 660.220, 1029.795 660.555 C 1025.233 660.891, 1020.825 661.420, 1020 661.731 C 1019.175 662.043, 1017.456 662.194, 1016.180 662.068 C 1014.904 661.942, 1012.204 662.630, 1010.180 663.596 C 1007.646 664.807, 1002.453 665.604, 993.500 666.157 C 971.769 667.499, 938.447 668.329, 935.544 667.600 C 932.675 666.880, 927 661.408, 927 659.360 C 927 658.704, 926.663 658.017, 926.250 657.833 C 925.121 657.332, 921 651.229, 921 650.060 C 921 648.654, 914.568 638.716, 912.601 637.084 C 911.721 636.353, 911 635.283, 911 634.706 C 911 634.129, 910.389 632.947, 909.641 632.079 C 908.894 631.210, 906.606 627.350, 904.556 623.500 C 902.507 619.650, 899.968 615.753, 898.915 614.840 C 897.862 613.927, 897 612.828, 897 612.398 C 897 611.968, 895.098 608.440, 892.773 604.558 C 885.498 592.412, 885.029 591.586, 883.373 588 C 882.485 586.075, 881.353 583.825, 880.859 583 C 880.364 582.175, 879.335 580.150, 878.571 578.500 C 877.807 576.850, 876.208 574.263, 875.018 572.750 C 873.828 571.237, 873.120 570, 873.444 570 C 873.768 570, 872.451 567.700, 870.517 564.888 C 868.582 562.076, 867 559.368, 867 558.871 C 867 558.373, 864.950 554.486, 862.444 550.233 C 858.166 542.972, 857.433 541.683, 855.065 537.250 C 854.551 536.288, 852.519 532.125, 850.551 528 C 848.582 523.875, 845.571 518.250, 843.860 515.500 C 842.149 512.750, 840.140 508.783, 839.395 506.684 C 838.651 504.585, 837.146 501.609, 836.051 500.071 C 834.955 498.533, 834.316 497.017, 834.631 496.703 C 834.945 496.389, 834.032 494.597, 832.601 492.721 C 831.170 490.846, 830 488.833, 830 488.248 C 830 487.262, 826.963 480.588, 823.289 473.500 C 822.433 471.850, 820.452 468.025, 818.886 465 C 817.320 461.975, 814.231 455.675, 812.021 451 C 809.811 446.325, 807.592 441.825, 807.090 441 C 806.006 439.220, 802.292 431.037, 798.467 422 C 796.953 418.425, 794.942 414.375, 793.996 413 C 793.051 411.625, 791.760 408.903, 791.127 406.950 C 789.894 403.145, 784.482 392.311, 782.785 390.250 C 782.218 389.563, 781.997 389, 782.292 389 C 782.587 389, 781.517 386.293, 779.914 382.984 C 778.311 379.675, 777 376.406, 777 375.719 C 777 375.032, 776.163 372.902, 775.140 370.985 C 774.117 369.068, 772.947 366.441, 772.540 365.147 C 772.133 363.853, 770.720 361.202, 769.400 359.257 C 768.080 357.312, 767 354.860, 767 353.809 C 767 352.757, 766.117 350.232, 765.038 348.198 C 761.803 342.100, 758 333.216, 758 331.756 C 758 331.004, 756.875 328.864, 755.500 327 C 754.125 325.136, 753 322.894, 753 322.017 C 753 321.140, 752.100 318.658, 751 316.500 C 749.900 314.342, 748.996 312.110, 748.990 311.539 C 748.985 310.967, 747.789 308.025, 746.332 305 C 744.876 301.975, 743.619 299.050, 743.541 298.500 C 743.462 297.950, 742.187 295.025, 740.708 292 C 739.230 288.975, 738.015 285.813, 738.010 284.973 C 738.004 284.132, 737.400 282.557, 736.666 281.473 C 735.932 280.388, 734.726 277.281, 733.985 274.570 C 733.245 271.858, 731.820 268.820, 730.820 267.820 C 729.819 266.819, 729 265.049, 729 263.886 C 729 262.724, 728.135 260.136, 727.078 258.136 C 723.681 251.709, 720.246 243.588, 719.557 240.354 C 719.188 238.623, 718.038 236.439, 717 235.500 C 715.962 234.561, 714.819 232.377, 714.459 230.646 C 714.098 228.916, 713.181 226.516, 712.420 225.313 C 711.659 224.111, 710.601 221.180, 710.068 218.802 C 709.534 216.423, 708.084 212.232, 706.844 209.488 C 705.604 206.745, 704.691 204.133, 704.816 203.685 C 704.941 203.237, 704.190 201.662, 703.146 200.185 C 702.102 198.708, 700.913 195.925, 700.502 194 C 700.092 192.075, 698.972 188.925, 698.013 187 C 697.055 185.075, 695.946 181.715, 695.549 179.534 C 695.153 177.352, 693.936 174.315, 692.846 172.784 C 691.756 171.253, 691.081 170, 691.346 170 C 691.611 170, 690.517 167.293, 688.914 163.984 C 687.311 160.675, 686 157.217, 686 156.300 C 686 155.382, 685.145 152.802, 684.099 150.566 C 683.054 148.330, 681.652 144.760, 680.984 142.634 C 680.315 140.508, 678.921 137.921, 677.884 136.884 C 676.848 135.848, 675.998 133.988, 675.996 132.750 C 675.994 131.512, 675.146 129.113, 674.112 127.417 C 673.078 125.721, 671.905 122.395, 671.504 120.026 C 670.596 114.650, 666.117 106.822, 663.200 105.513 C 661.990 104.970, 661 104.182, 661 103.763 C 661 103.343, 659.506 103, 657.680 103 C 655.317 103, 653.155 104.032, 650.180 106.578 M 888.711 131.935 L 884.500 135.871 884.622 143.381 C 884.689 147.511, 885.083 151.702, 885.497 152.695 C 885.911 153.688, 886.173 156.525, 886.078 159 C 885.973 161.747, 886.669 165.065, 887.864 167.517 C 889.063 169.977, 890.077 174.825, 890.478 180.017 C 890.839 184.683, 891.975 193.450, 893.001 199.500 C 894.028 205.550, 895.324 214.120, 895.880 218.544 C 896.437 222.968, 897.426 227.918, 898.078 229.544 C 898.730 231.170, 899.170 234.412, 899.056 236.750 C 898.935 239.244, 899.293 241, 899.924 241 C 900.516 241, 901 242.238, 901 243.750 C 901 245.262, 901.663 249.964, 902.473 254.198 C 903.284 258.432, 904.436 266.082, 905.035 271.198 C 905.633 276.314, 906.967 285.225, 907.999 291 C 909.030 296.775, 910.154 303.627, 910.495 306.227 C 910.836 308.826, 911.547 311.220, 912.074 311.546 C 912.601 311.872, 912.747 312.600, 912.398 313.164 C 912.050 313.729, 912.214 315.160, 912.765 316.345 C 913.315 317.530, 914.974 325.700, 916.451 334.500 C 917.929 343.300, 920.011 355.179, 921.078 360.899 C 922.145 366.618, 923.301 373.706, 923.646 376.649 C 923.992 379.592, 924.621 382, 925.044 382 C 925.467 382, 925.577 382.902, 925.288 384.005 C 925 385.108, 925.224 386.571, 925.787 387.255 C 926.350 387.940, 927.552 393.450, 928.458 399.500 C 930.754 414.832, 936.349 444.010, 937.757 448 C 938.049 448.825, 938.186 450.760, 938.063 452.300 C 937.940 453.841, 938.267 455.641, 938.791 456.300 C 939.314 456.960, 940.243 459.750, 940.855 462.500 C 942.528 470.020, 945.971 487.519, 947.471 496.129 C 948.202 500.325, 949.392 504.825, 950.115 506.129 C 950.838 507.433, 951.484 508.725, 951.551 509 C 951.618 509.275, 951.933 510.175, 952.252 511 C 952.570 511.825, 953.085 514.962, 953.395 517.971 C 953.705 520.980, 954.630 525.480, 955.450 527.971 C 956.271 530.462, 958.340 538.345, 960.048 545.489 C 961.755 552.634, 963.530 558.934, 963.991 559.489 C 964.453 560.045, 964.922 560.950, 965.035 561.500 C 965.147 562.050, 965.574 563.400, 965.984 564.500 C 966.393 565.600, 967.057 568.744, 967.460 571.487 C 967.864 574.230, 968.767 577.605, 969.467 578.987 C 970.168 580.369, 971.231 584.335, 971.829 587.801 C 973.227 595.891, 979.170 605.346, 983.147 605.806 C 986.739 606.222, 992.844 603.089, 994.775 599.838 C 996.240 597.372, 996.186 596.417, 994.043 586.838 C 992.771 581.152, 991.286 575.938, 990.743 575.250 C 990.200 574.563, 990.090 574, 990.500 574 C 990.910 574, 990.789 573.438, 990.233 572.750 C 989.676 572.063, 987.806 565.650, 986.077 558.500 C 984.349 551.350, 982.303 543.250, 981.532 540.500 C 980.760 537.750, 979.841 533.250, 979.490 530.500 C 979.138 527.750, 978.586 524.825, 978.262 524 C 977.938 523.175, 977.596 522.275, 977.503 522 C 977.409 521.725, 976.788 520.181, 976.122 518.570 C 975.457 516.958, 974.658 513.583, 974.347 511.070 C 974.036 508.556, 973.162 504.250, 972.405 501.500 C 971.648 498.750, 970.326 492.675, 969.468 488 C 968.010 480.065, 966.651 474.566, 965.265 471 C 964.945 470.175, 964.783 469.075, 964.906 468.555 C 965.029 468.036, 964.692 466.686, 964.156 465.555 C 962.939 462.984, 960.394 451.688, 958.981 442.579 C 958.390 438.773, 957.708 435.337, 957.465 434.943 C 957.222 434.549, 956.124 428.018, 955.025 420.428 C 953.927 412.838, 952.607 406.207, 952.092 405.692 C 951.577 405.177, 951.396 404.130, 951.690 403.365 C 951.984 402.600, 951.767 401.418, 951.208 400.737 C 950.650 400.057, 949.890 396.800, 949.520 393.500 C 949.150 390.200, 948.177 385.078, 947.357 382.117 C 946.537 379.156, 945.232 371.899, 944.455 365.989 C 943.679 360.079, 942.631 354.159, 942.127 352.833 C 941.623 351.508, 940.884 346.946, 940.486 342.697 C 940.088 338.448, 939.408 334.752, 938.975 334.485 C 938.542 334.217, 938.423 333.098, 938.711 331.999 C 938.998 330.900, 938.786 330, 938.239 330 C 937.692 330, 936.719 326.288, 936.077 321.750 C 934.884 313.315, 932.714 299.570, 928.936 276.500 C 927.765 269.350, 926.526 263.050, 926.184 262.500 C 925.842 261.950, 925.701 260.422, 925.872 259.104 C 926.042 257.786, 925.749 255.761, 925.221 254.604 C 923.961 251.842, 921.113 236.227, 920.370 228 C 920.047 224.425, 919.190 219.250, 918.466 216.500 C 917.742 213.750, 916.864 208.350, 916.514 204.500 C 915.617 194.625, 913.936 185.078, 912.990 184.494 C 912.549 184.221, 912.424 183.096, 912.712 181.994 C 913 180.891, 912.794 179.429, 912.254 178.745 C 911.714 178.060, 910.984 174.253, 910.632 170.284 C 910.280 166.315, 909.319 160.483, 908.496 157.324 C 907.673 154.165, 907 149.155, 907 146.191 C 907 143.227, 906.256 139.234, 905.346 137.317 C 903.812 134.083, 898.918 129.500, 897 129.500 C 896.541 129.500, 895.829 129.162, 895.417 128.750 C 894.082 127.415, 892.996 127.931, 888.711 131.935 M 553 172.846 C 547.168 173.446, 543.532 174.579, 530.750 179.778 C 528.688 180.617, 527 181.685, 527 182.152 C 527 182.618, 526.438 183.008, 525.750 183.018 C 520.372 183.096, 499 204.260, 499 209.507 C 499 211.714, 496.160 217, 494.974 217 C 494.438 217, 494 217.802, 494 218.782 C 494 219.762, 493.362 223.023, 492.582 226.029 C 491.103 231.732, 491.719 234.011, 494.624 233.585 C 496.456 233.316, 497.963 231.161, 497.985 228.779 C 498.023 224.464, 504.829 212.978, 511.620 205.768 C 515.489 201.659, 530.744 190, 532.250 190 C 532.771 190, 534.616 189.347, 536.349 188.549 C 541.965 185.964, 550.455 183.001, 552.250 183.001 C 553.212 183, 554 182.550, 554 182 C 554 180.732, 576.352 180.648, 578.764 181.906 C 579.719 182.405, 582.525 183.340, 585 183.985 C 590.255 185.354, 604 191.883, 604 193.010 C 604 193.435, 606.138 196.015, 608.750 198.743 C 611.362 201.471, 614.894 205.449, 616.597 207.582 C 619.487 211.202, 619.870 211.380, 622.347 210.252 C 626.045 208.567, 625.980 205.014, 622.250 204.961 C 620.161 204.931, 618.659 203.795, 616 200.234 C 614.075 197.656, 612.321 195.086, 612.103 194.523 C 610.123 189.417, 598.155 179.276, 592 177.488 C 590.625 177.088, 587.538 175.881, 585.139 174.806 C 580.270 172.621, 564.531 171.661, 553 172.846 M 652.587 182.481 C 647.685 184.943, 642.706 187.867, 641.523 188.979 C 640.339 190.090, 638.950 191.026, 638.436 191.057 C 637.075 191.139, 627.775 202.831, 628.168 203.965 C 628.350 204.492, 633.158 201.791, 638.852 197.962 C 644.545 194.133, 649.594 191, 650.071 191 C 650.548 191, 654.385 189.875, 658.597 188.500 C 662.809 187.125, 667.773 186, 669.628 186 C 673.532 186, 673.804 184.937, 670.932 180.904 C 667.877 176.614, 663.525 176.988, 652.587 182.481 M 441.345 221.250 C 441.090 221.662, 439.799 222, 438.476 222 C 433.284 222, 414.109 230.108, 410.842 233.685 C 409.929 234.683, 407.170 236.974, 404.709 238.776 C 402.249 240.579, 399.134 243.729, 397.789 245.776 C 392.660 253.584, 388.248 261.596, 387.754 264 C 387.472 265.375, 386.512 269.182, 385.620 272.460 C 384.017 278.357, 383.425 291.337, 384.617 294.444 C 385.902 297.792, 388 293.965, 388 288.272 C 388 280.901, 390.440 271.940, 394.041 266.088 C 395.668 263.443, 397 260.742, 397 260.087 C 397 257.583, 414.493 241.146, 419.393 239.046 C 422.053 237.905, 425.554 236.030, 427.172 234.877 C 428.791 233.725, 430.376 233.043, 430.695 233.361 C 431.013 233.680, 432.573 233.016, 434.161 231.885 C 438.207 229.004, 449.324 227.655, 462.669 228.427 C 469.432 228.817, 474.071 228.695, 474.428 228.116 C 475.266 226.760, 470.501 223.266, 466.703 222.452 C 464.941 222.074, 463.150 221.559, 462.723 221.307 C 461.380 220.515, 441.831 220.463, 441.345 221.250 M 171.026 267.331 C 169.115 267.974, 167.030 269.550, 166.392 270.834 C 165.754 272.118, 164.730 273.670, 164.116 274.284 C 161.055 277.345, 163.405 282.757, 175.500 300.497 C 189.099 320.443, 191 323.359, 191 324.274 C 191 326, 205.158 343.883, 208.609 346.515 C 212.698 349.634, 215.244 349.364, 221.165 345.186 C 225.274 342.287, 226.539 339.924, 226.083 336 C 225.711 332.807, 223.243 328, 221.974 328 C 221.438 328, 221 327.360, 221 326.577 C 221 325.794, 219.875 323.816, 218.500 322.182 C 217.125 320.548, 216 318.804, 216 318.306 C 216 317.808, 214.056 314.723, 211.680 311.450 C 209.304 308.178, 205.705 302.533, 203.682 298.906 C 201.658 295.279, 199.102 291.497, 198.001 290.501 C 196.901 289.505, 195.963 288.197, 195.917 287.595 C 195.774 285.714, 184.628 270.774, 182 268.940 C 178.470 266.478, 175.050 265.976, 171.026 267.331 M 358 312.250 C 358 312.663, 357.251 313, 356.335 313 C 352.782 313, 338.700 319.471, 334.799 322.896 C 322.755 333.470, 321.053 335.398, 317.361 342.652 C 315.237 346.825, 312.865 351.411, 312.088 352.844 C 310.160 356.400, 309.390 377.760, 310.924 385.138 C 311.600 388.395, 312.969 391.563, 314.162 392.638 C 315.299 393.662, 316.640 395.575, 317.143 396.889 C 317.645 398.202, 318.295 399.039, 318.587 398.747 C 318.878 398.455, 318.416 396.538, 317.559 394.486 C 315.374 389.257, 315.394 367.895, 317.589 361.285 C 321.135 350.610, 325.984 342.176, 332.080 336.080 C 335.425 332.735, 339.251 329.724, 340.581 329.390 C 341.912 329.056, 343 328.412, 343 327.959 C 343 327.506, 343.970 326.827, 345.156 326.450 C 346.342 326.074, 348.254 324.764, 349.406 323.540 C 352.048 320.731, 364.243 317, 370.783 317 C 376.049 317, 379.321 314.921, 377.276 312.876 C 376.091 311.691, 357.999 311.104, 358 312.250 M 644.899 333.545 C 639.982 339.743, 628.385 349.358, 621.814 352.684 C 606.673 360.350, 588.431 361.707, 572.073 356.385 C 564.484 353.915, 560.325 351.370, 553.821 345.214 C 549.223 340.863, 547.358 341.430, 546.455 347.453 C 546.078 349.967, 544.921 353.102, 543.885 354.419 C 542.848 355.737, 541.990 357.194, 541.977 357.658 C 541.939 359.021, 529.922 372.348, 524.579 376.951 C 518.319 382.344, 506 390.636, 506 389.457 C 506 389.180, 504.977 389.624, 503.726 390.444 C 502.475 391.263, 497.413 393.113, 492.476 394.555 C 484.656 396.838, 482.276 397.107, 474 396.645 C 461.944 395.971, 452.903 393.863, 447.919 390.565 C 441.803 386.518, 440.388 388.045, 439.727 399.411 C 439.077 410.601, 436.584 420.368, 433.269 424.715 C 431.890 426.522, 431.094 428, 431.500 428 C 432.411 428, 427.765 434.355, 423.613 438.788 C 419.674 442.994, 407.883 451, 405.627 451 C 404.678 451, 402.461 451.769, 400.700 452.708 C 398.940 453.648, 397.275 454.474, 397 454.544 C 396.725 454.615, 395.825 454.945, 395 455.278 C 394.175 455.611, 392.600 456.026, 391.500 456.202 C 388.693 456.649, 388.438 460.382, 390.925 464.598 C 392.645 467.512, 393 469.793, 393 477.915 C 393 487.216, 392.817 488.067, 389.411 494.608 C 387.436 498.399, 384.398 503.525, 382.658 506 L 379.494 510.500 381.497 514.573 C 382.599 516.813, 383.950 519.593, 384.500 520.751 C 385.050 521.909, 387.222 526.300, 389.326 530.509 C 391.431 534.717, 392.918 538.770, 392.632 539.516 C 392.346 540.261, 392.612 541.037, 393.223 541.241 C 393.968 541.489, 394.302 545.873, 394.237 554.556 C 394.157 565.162, 394.472 568.222, 395.982 571.500 C 399.135 578.344, 401.810 586.321, 402.422 590.706 C 402.745 593.019, 404.132 597.024, 405.505 599.605 C 406.877 602.186, 408.003 605.243, 408.006 606.399 C 408.026 614.062, 412.209 618.931, 415.900 615.590 C 416.867 614.716, 418.664 614, 419.894 614 C 423.446 614, 426 612.140, 426 609.554 C 426 608.247, 426.964 604.659, 428.142 601.580 C 429.898 596.991, 431.893 594.498, 439.217 587.741 C 444.130 583.209, 450.570 578.126, 453.528 576.447 C 456.486 574.768, 459.715 572.682, 460.703 571.812 C 462.339 570.371, 473.304 565, 474.609 565 C 474.912 565, 479.736 562.816, 485.329 560.147 C 500.907 552.714, 506.401 551.284, 524.815 549.867 C 542.432 548.512, 554.996 549.457, 559.617 552.485 C 560.889 553.318, 562.578 554, 563.370 554 C 564.163 554, 566.696 555.575, 569 557.500 C 574.179 561.827, 575.800 561.864, 580.184 557.750 C 582.848 555.250, 599.119 546.070, 602 545.442 C 602.275 545.382, 603.797 544.796, 605.381 544.141 C 611.138 541.761, 617.620 540.846, 624.250 541.478 C 631.631 542.181, 631.593 542.214, 631.084 535.731 C 630.844 532.664, 635.111 523.260, 638.994 518.300 C 640.372 516.539, 642.400 513.939, 643.500 512.522 C 648.651 505.885, 670.596 489.725, 676.684 488.085 C 678.817 487.511, 681.448 486.371, 682.531 485.552 C 683.614 484.733, 685.220 484.049, 686.101 484.032 C 686.982 484.014, 689.774 482.898, 692.306 481.552 C 694.838 480.206, 699.616 478.614, 702.925 478.014 C 706.234 477.414, 710.416 476.324, 712.220 475.591 C 714.024 474.859, 721.800 473.699, 729.500 473.014 C 753.925 470.839, 770.136 473.818, 776.262 481.606 C 778.422 484.352, 781 484.139, 784.525 480.922 C 785.639 479.906, 789.014 478.444, 792.025 477.675 C 798.141 476.111, 799.333 474.174, 796.341 470.661 C 794.615 468.635, 793.905 467.496, 791.249 462.500 C 790.665 461.400, 788.748 456.912, 786.990 452.526 C 785.231 448.140, 782.939 443.467, 781.896 442.141 C 780.853 440.815, 780 439.116, 780 438.366 C 780 437.615, 778.908 434.863, 777.574 432.251 C 774.449 426.132, 769.517 415.646, 769.460 415 C 769.436 414.725, 768.702 413.150, 767.829 411.500 C 766.955 409.850, 765.905 406.942, 765.495 405.039 C 764.380 399.871, 760.300 395.310, 756.195 394.644 C 754.286 394.334, 750.929 392.837, 748.734 391.316 C 744.362 388.286, 736 378.577, 736 376.531 C 736 375.824, 735.354 374.709, 734.564 374.053 C 733.775 373.398, 732.822 371.430, 732.447 369.681 C 732.072 367.931, 731.487 366.050, 731.148 365.500 C 730.808 364.950, 730.486 364.275, 730.432 364 C 730.377 363.725, 729.808 362.233, 729.166 360.685 C 728.525 359.137, 728 356.760, 728 355.404 C 728 352.305, 725.485 351.251, 723.144 353.369 C 720.138 356.090, 706.435 357.933, 696.855 356.906 C 686.053 355.747, 684.214 355.286, 680 352.678 C 678.075 351.486, 676.275 350.508, 676 350.503 C 675.725 350.498, 673.700 349.172, 671.500 347.556 C 669.300 345.940, 666.059 343.573, 664.298 342.295 C 662.536 341.017, 660.511 338.936, 659.798 337.671 C 653.155 325.899, 651.360 325.402, 644.899 333.545 M 92.368 361.368 C 87.523 366.214, 86.787 369.753, 89.525 375.048 C 90.926 377.758, 101.043 384, 104.033 384 C 104.633 384, 107.683 385.226, 110.812 386.723 C 113.940 388.221, 116.725 389.479, 117 389.519 C 117.275 389.558, 119.300 390.528, 121.500 391.673 C 123.700 392.819, 127.075 394.093, 129 394.506 C 130.925 394.918, 133.388 395.873, 134.473 396.628 C 135.557 397.382, 137.132 398.010, 137.973 398.022 C 138.813 398.034, 141.525 399.008, 144 400.187 C 146.475 401.366, 148.725 402.407, 149 402.501 C 150.348 402.963, 153.980 404.307, 158.500 406.016 C 166.429 409.014, 168.459 409.253, 172.316 407.641 C 176.064 406.075, 179 401.162, 179 396.455 C 179 393.532, 174.696 388.375, 170.630 386.426 C 168.909 385.601, 165.045 383.592, 162.044 381.963 C 159.043 380.333, 156.068 379, 155.434 379 C 154.800 379, 151.856 377.711, 148.891 376.136 C 145.926 374.561, 142.375 372.932, 141 372.518 C 139.625 372.103, 137.791 371.143, 136.924 370.384 C 136.057 369.625, 133.297 368.621, 130.790 368.153 C 128.283 367.685, 124.804 366.285, 123.059 365.042 C 121.313 363.799, 119.636 363.030, 119.333 363.334 C 119.029 363.638, 117.142 362.862, 115.140 361.609 C 111.251 359.176, 103.831 357, 99.426 357 C 97.584 357, 95.360 358.377, 92.368 361.368 M 309.302 420.978 C 301.671 424.570, 296.847 429.329, 291 439.032 L 286.500 446.500 286.601 460.218 C 286.669 469.501, 287.101 474.417, 287.937 475.424 C 288.616 476.243, 288.913 477.331, 288.597 477.843 C 288.281 478.355, 288.667 479.309, 289.456 479.964 C 290.245 480.618, 291.613 483.330, 292.497 485.990 C 293.380 488.649, 294.755 491.076, 295.551 491.381 C 296.348 491.687, 297 493.044, 297 494.396 C 297 496.020, 298.271 497.902, 300.745 499.942 C 305.044 503.485, 306.492 502.219, 302.597 498.324 C 301.168 496.896, 300 495.262, 300 494.692 C 300 494.123, 299.272 492.853, 298.382 491.870 C 297.493 490.887, 295.694 487.026, 294.387 483.291 C 292.422 477.680, 292.005 474.501, 291.987 465 C 291.959 450.031, 294.916 441.071, 302.250 433.896 C 304.863 431.340, 307.006 428.856, 307.012 428.375 C 307.030 427.156, 313.561 423.047, 317.833 421.568 C 319.788 420.891, 321.563 419.812, 321.777 419.169 C 322.501 416.998, 315.644 417.992, 309.302 420.978 M 681.500 432.555 C 678.200 433.318, 673.271 434.411, 670.547 434.984 C 655.128 438.226, 639.714 447.916, 635.742 456.865 C 633.191 462.613, 634.624 468.144, 639.794 472.500 C 642.851 475.076, 644.113 475.481, 648.717 475.369 C 652.074 475.287, 654.742 474.638, 655.849 473.636 C 657.910 471.771, 664.587 467.917, 671 464.891 C 680.173 460.563, 684.924 459.717, 700.682 459.606 L 715.865 459.500 719.022 456.500 C 723.525 452.220, 725.315 448.329, 724.654 444.255 C 723.924 439.758, 720.906 437.109, 712.689 433.750 C 706.937 431.399, 704.620 431.012, 696.730 431.084 C 691.654 431.130, 684.800 431.792, 681.500 432.555 M 155.517 465.133 C 153.327 465.646, 151.134 466.466, 150.645 466.955 C 150.156 467.444, 149.130 467.604, 148.365 467.310 C 147.600 467.016, 146.418 467.219, 145.737 467.760 C 145.057 468.301, 141.125 469.047, 137 469.418 C 132.875 469.788, 127.475 470.710, 125 471.466 C 122.525 472.222, 118.250 473.123, 115.500 473.469 C 112.750 473.815, 105.550 475.060, 99.500 476.237 C 90.101 478.064, 88.140 478.784, 86.027 481.188 C 84.667 482.734, 82.755 484, 81.777 484 C 80.290 484, 80 484.896, 80 489.500 C 80 494.301, 80.250 495, 81.965 495 C 83.045 495, 84.412 495.901, 85.001 497.002 C 85.590 498.103, 87.702 499.684, 89.694 500.517 C 92.896 501.854, 94.196 501.862, 100.908 500.581 C 105.084 499.784, 111.425 498.655, 115 498.072 C 122.762 496.806, 131.919 494.953, 134 494.226 C 134.825 493.938, 136.544 493.806, 137.820 493.932 C 139.096 494.058, 141.735 493.405, 143.684 492.480 C 145.633 491.555, 150.716 490.189, 154.979 489.445 C 166.971 487.351, 173 482.827, 173 475.920 C 173 472.550, 167.799 466.715, 163.185 464.907 C 160.574 463.884, 160.893 463.875, 155.517 465.133 M 497.500 498.955 C 495.300 499.315, 492.600 500.095, 491.500 500.689 C 490.400 501.282, 487.540 502.093, 485.144 502.490 C 482.749 502.887, 479.974 504.026, 478.978 505.022 C 477.982 506.018, 476.904 506.571, 476.583 506.250 C 476.262 505.929, 476 506.192, 476 506.833 C 476 507.475, 475.245 508, 474.323 508 C 470.791 508, 449.709 523.680, 443.181 531.162 C 436.316 539.031, 433.902 548.003, 437.553 552.083 C 442.018 557.073, 452 561.208, 452 558.067 C 452 557.554, 453.012 556.833, 454.250 556.465 C 455.488 556.096, 459.650 552.775, 463.500 549.084 C 467.350 545.394, 472.300 541.214, 474.500 539.796 C 480.471 535.947, 488 531.957, 488 532.642 C 488 532.974, 488.612 532.737, 489.359 532.117 C 491.741 530.140, 500.317 528.022, 506 528.007 C 512.355 527.990, 516.421 525.936, 520.384 520.741 C 524.406 515.468, 524.019 510.377, 519.250 505.830 C 513.727 500.564, 504.838 497.755, 497.500 498.955 M 802 501.500 C 800.136 502.875, 798.094 504, 797.461 504 C 795.713 504, 793 507.410, 793 509.606 C 793 510.678, 793.696 512.549, 794.547 513.764 C 795.398 514.978, 796.002 516.541, 795.889 517.236 C 795.777 517.931, 795.941 519.175, 796.255 520 C 796.569 520.825, 797.581 526.450, 798.505 532.500 C 800.073 542.770, 800.075 544.295, 798.526 555.477 C 797.614 562.065, 796.452 567.956, 795.943 568.569 C 795.434 569.182, 795.303 569.969, 795.651 570.318 C 796 570.666, 795.765 571.579, 795.129 572.345 C 794.493 573.111, 792.130 577.458, 789.878 582.006 C 786.860 588.097, 783.669 592.475, 777.753 598.637 C 773.337 603.237, 769.111 607, 768.362 607 C 767.613 607, 767 607.450, 767 608 C 767 608.550, 766.373 609, 765.607 609 C 764.841 609, 763.977 609.618, 763.687 610.374 C 763.206 611.628, 759.326 613.681, 742.763 621.445 C 739.608 622.924, 736.570 623.852, 736.013 623.508 C 735.456 623.164, 735 623.286, 735 623.781 C 735 625.417, 720.671 627.500, 709.500 627.488 C 699.783 627.477, 695.481 626.800, 689 624.260 C 688.175 623.937, 687.275 623.615, 687 623.544 C 686.725 623.474, 685.150 622.705, 683.500 621.835 C 681.850 620.965, 679.382 619.908, 678.015 619.485 C 671.654 617.517, 650.061 597.917, 646.407 590.794 C 645.478 588.982, 643.881 586.427, 642.859 585.115 C 641.836 583.803, 641 582.116, 641 581.365 C 641 580.614, 640.111 579.111, 639.025 578.025 C 637.939 576.939, 636.783 574.802, 636.456 573.275 C 634.787 565.485, 635.143 565.666, 622.709 566.260 C 614.127 566.669, 610.357 567.312, 606.625 569 C 601.532 571.303, 593.395 577.003, 591.250 579.770 C 589.470 582.066, 589.702 586.717, 591.912 593.035 C 596.605 606.453, 596.682 634.122, 592.059 645.851 C 590.926 648.724, 590 651.876, 590 652.857 C 590 653.837, 588.875 655.618, 587.500 656.813 C 586.125 658.009, 585 659.717, 585 660.609 C 585 664.593, 572.343 678.225, 562.546 684.793 C 559.771 686.653, 556.825 688.719, 556 689.385 C 555.175 690.050, 552.025 691.546, 549 692.709 C 536.669 697.451, 530.164 699.266, 523.750 699.754 C 520.038 700.037, 517 700.658, 517 701.134 C 517 701.610, 513.625 702, 509.500 702 C 505.167 702, 502 701.578, 502 701 C 502 700.450, 500.600 700, 498.890 700 C 497.179 700, 490.764 698.434, 484.633 696.520 C 470.817 692.208, 455.529 682.714, 446.717 672.976 C 441.612 667.335, 434.398 654.490, 429.110 641.623 C 428.021 638.975, 427.609 638.789, 423.924 639.283 C 416.741 640.247, 415.364 642.903, 419.500 647.818 C 420.875 649.452, 422 651.451, 422 652.259 C 422 653.068, 422.863 654.827, 423.918 656.168 C 424.973 657.509, 426.166 660.382, 426.570 662.553 C 426.975 664.724, 428.367 668.188, 429.665 670.250 C 430.963 672.313, 431.739 674, 431.390 674 C 431.041 674, 431.324 674.686, 432.020 675.525 C 432.716 676.363, 433.286 679.481, 433.286 682.453 C 433.286 687.572, 433.528 688.088, 437.893 692.259 C 442.738 696.888, 445.042 700.821, 446.875 707.585 C 448.039 711.881, 451.532 714.526, 455.508 714.124 C 458.413 713.829, 464.317 720.501, 466.974 727.080 C 469.536 733.425, 472.027 735.591, 474.957 734.023 C 477.734 732.537, 480.562 732.768, 482.086 734.604 C 482.819 735.486, 484.375 736.572, 485.546 737.017 C 486.716 737.462, 488.972 740.393, 490.559 743.530 C 493.975 750.280, 495.289 751.016, 498.515 747.986 C 500.565 746.060, 501.618 745.813, 505.500 746.345 C 510.957 747.093, 516.684 751.287, 517.535 755.157 C 518.744 760.665, 523.086 761.079, 526.492 756.011 C 527.553 754.433, 528.738 753.338, 529.125 753.577 C 529.512 753.817, 530.019 753.447, 530.252 752.756 C 530.589 751.755, 530.980 751.752, 532.179 752.741 C 533.007 753.424, 533.941 753.726, 534.255 753.411 C 534.939 752.728, 539.253 755.351, 543.785 759.206 C 547.909 762.714, 550.008 762.723, 553.461 759.250 C 554.965 757.737, 557.614 755.808, 559.348 754.962 C 562.272 753.536, 562.753 753.570, 566 755.428 C 567.925 756.530, 570.035 758.122, 570.688 758.966 C 571.740 760.324, 572.042 760.276, 573.320 758.551 C 574.760 756.607, 574.816 755.841, 573.727 753 C 571.784 747.933, 571.243 743.213, 571.433 733 C 571.646 721.586, 571.977 720.180, 576.382 712 C 577.122 710.625, 578.750 707.365, 580 704.755 C 581.321 701.997, 584.519 698.091, 587.636 695.428 C 590.586 692.907, 593 690.206, 593 689.425 C 593 686.611, 599.374 681.148, 603.821 680.150 C 607.044 679.427, 609.739 677.647, 614.427 673.146 C 617.884 669.826, 621.949 666.800, 623.461 666.420 C 626.203 665.732, 636.597 666.426, 640.621 667.565 C 642.876 668.204, 650 662.922, 650 660.613 C 650 659.963, 652.587 657.762, 655.750 655.721 C 661.087 652.277, 662.043 652.010, 669.056 652.005 C 675.540 652.001, 677.092 651.646, 680 649.500 C 682.840 647.405, 684.501 647, 690.260 647 C 694.039 647, 698.114 647.534, 699.316 648.186 C 702 649.644, 704.632 649.630, 708.315 648.140 C 712.491 646.449, 716.415 646.752, 719.251 648.983 C 720.638 650.074, 724.186 651.595, 727.136 652.364 C 736.392 654.776, 739.272 656.472, 747.884 664.573 C 755.262 671.514, 758.784 675.710, 762.539 682.036 C 764.613 685.531, 766.284 687, 768.181 687 C 769.330 687, 769.843 686.554, 769.441 685.905 C 769.069 685.302, 769.226 683.840, 769.791 682.655 C 770.356 681.470, 771.069 679.715, 771.376 678.756 C 772.067 676.592, 777.787 673.009, 780.559 673.004 C 781.691 673.002, 783.485 673.634, 784.545 674.409 C 787.764 676.763, 790 674.723, 790 669.432 C 790 664.628, 794.128 655, 796.188 655 C 796.823 655, 798.188 654.235, 799.221 653.300 C 800.764 651.904, 801.621 651.796, 804.012 652.698 C 806.307 653.565, 807.169 653.501, 808.084 652.399 C 808.723 651.629, 808.875 651, 808.422 651 C 807.970 651, 808.140 650.460, 808.800 649.800 C 809.460 649.140, 810 646.246, 810 643.369 C 810 635.230, 814.162 629.956, 821.500 628.796 C 823.307 628.510, 823.548 627.507, 824 618.388 C 824.533 607.631, 825.216 605.974, 830.177 603.408 C 833.443 601.719, 833.656 599.827, 831.652 590.267 C 830.229 583.474, 831.119 578.736, 834.526 574.971 C 835.470 573.928, 835.975 572.378, 835.649 571.527 C 835.322 570.675, 835.155 569.828, 835.277 569.643 C 835.400 569.459, 834.825 568.493, 834 567.498 C 832.842 566.101, 832.495 562.777, 832.480 552.927 C 832.463 542.629, 832.148 539.811, 830.846 538.332 C 829.958 537.325, 827.352 532.675, 825.053 528 C 820.491 518.720, 818.209 514.494, 815.661 510.605 C 814.747 509.211, 814 507.414, 814 506.612 C 814 504.436, 809.077 499, 807.105 499 C 806.161 499, 803.864 500.125, 802 501.500 M 682.500 512.523 C 680.300 514.419, 678.168 515.977, 677.761 515.985 C 676.771 516.005, 667.023 526.279, 667.010 527.317 C 667.005 527.766, 665.946 529.566, 664.659 531.317 C 661.095 536.163, 657.602 550.955, 658.406 557.799 C 659.043 563.220, 660.311 566, 662.147 566 C 663.473 566, 665.324 560.904, 665.087 557.907 C 664.974 556.481, 665.765 553.781, 666.844 551.907 C 667.923 550.033, 669.127 546.963, 669.519 545.086 C 669.911 543.208, 671.304 539.653, 672.616 537.187 C 673.927 534.720, 675 532.179, 675 531.540 C 675 530.900, 675.873 529.440, 676.940 528.295 C 678.007 527.150, 678.607 525.940, 678.273 525.606 C 677.940 525.273, 678.192 525, 678.833 525 C 679.475 525, 680.004 524.438, 680.009 523.750 C 680.014 523.063, 682.264 519.876, 685.009 516.669 C 687.754 513.462, 690 510.425, 690 509.919 C 690 507.954, 686.317 509.233, 682.500 512.523 M 319.143 530.857 C 316.927 533.073, 316.816 533.749, 317.297 542.178 C 317.836 551.617, 319 555.494, 319 547.848 C 319 545.381, 319.702 540.999, 320.560 538.110 C 321.418 535.220, 321.981 531.876, 321.810 530.678 L 321.500 528.500 319.143 530.857 M 476.884 589.938 C 472.002 593.004, 465.005 600.752, 464.993 603.103 C 464.990 603.871, 464.093 605.850, 463 607.500 C 461.907 609.150, 461.010 611.661, 461.007 613.081 C 461.003 614.500, 459.877 617.875, 458.503 620.581 C 455.368 626.759, 454.593 630.799, 455.449 636.507 C 456.293 642.138, 459.156 642.745, 461.304 637.750 C 464.044 631.377, 466.860 623.451, 467.478 620.373 C 467.823 618.654, 469.206 615.754, 470.552 613.929 C 471.899 612.104, 473 610.161, 473 609.609 C 473 608.537, 475.922 604.051, 482.749 594.640 C 485.087 591.417, 487 588.379, 487 587.890 C 487 586.011, 481.298 587.165, 476.884 589.938 M 881.607 632.582 C 881.273 633.452, 881 637.880, 881 642.422 C 881 651.178, 877.977 667.880, 875.303 673.896 C 874.422 675.878, 873.651 677.950, 873.589 678.500 C 873.528 679.050, 872.768 680.850, 871.902 682.500 C 871.035 684.150, 869.290 688.114, 868.023 691.310 C 864.924 699.125, 865.736 699.825, 875.198 697.505 C 879.214 696.521, 885.775 695.388, 889.777 694.988 C 898.232 694.143, 900.489 692.599, 901.375 687.057 C 901.989 683.219, 905.826 674.800, 907.250 674.167 C 909.062 673.361, 907.573 669.934, 901.500 660.927 C 897.925 655.625, 895 650.909, 895 650.447 C 895 649.985, 893.943 648.008, 892.652 646.054 C 891.360 644.099, 888.636 639.913, 886.598 636.750 C 884.560 633.587, 882.740 631, 882.554 631 C 882.367 631, 881.941 631.712, 881.607 632.582 M 383.583 648.750 C 383.171 649.163, 382.533 649.541, 382.167 649.590 C 381.800 649.640, 379.925 650.388, 378 651.253 C 373.832 653.125, 371.338 655.776, 367.416 662.500 C 364.603 667.323, 364.500 667.957, 364.500 680.417 C 364.500 689.896, 364.834 693.445, 365.756 693.752 C 366.447 693.983, 366.758 694.582, 366.447 695.085 C 366.136 695.588, 366.287 696, 366.782 696 C 367.277 696, 368.228 698.440, 368.895 701.423 C 369.563 704.405, 370.736 707.366, 371.503 708.003 C 372.270 708.639, 373.426 710.760, 374.071 712.716 C 375.203 716.144, 378.609 721.772, 381.485 724.964 C 382.246 725.809, 384.985 728.862, 387.571 731.750 C 390.157 734.638, 392.871 737, 393.602 737 C 394.332 737, 395.415 737.907, 396.008 739.015 C 397.351 741.524, 403.222 745.276, 408.500 746.998 C 410.700 747.716, 413.560 748.993, 414.857 749.836 C 418.349 752.109, 433.148 752.732, 434.852 750.678 C 436.441 748.764, 435.414 746.554, 429.794 739.789 C 426.586 735.928, 425.693 733.878, 424.843 728.419 C 424.218 724.405, 422.663 719.821, 420.929 716.880 C 419.347 714.196, 418.355 712, 418.726 712 C 419.097 712, 418.860 711.460, 418.200 710.800 C 417.520 710.120, 417 706.861, 417 703.275 C 417 698.037, 416.399 695.756, 413.500 690 C 411.575 686.177, 409.998 682.476, 409.995 681.775 C 409.992 681.074, 407.316 677.035, 404.050 672.800 C 400.783 668.564, 396.887 662.602, 395.393 659.550 C 393.898 656.497, 392.298 654, 391.838 654 C 391.377 654, 391 653.351, 391 652.557 C 391 649.871, 385.358 646.975, 383.583 648.750 M 712.886 682.750 C 710.106 685.090, 708.678 685.510, 703.319 685.566 C 698.397 685.617, 696.527 686.085, 694.760 687.708 C 693.517 688.850, 690.987 690.105, 689.138 690.496 C 687.288 690.888, 684.138 692.677, 682.138 694.471 C 676.441 699.582, 670.052 700.630, 663.923 697.460 C 658.998 694.913, 658.756 695.052, 649.511 705.694 C 645.017 710.868, 640.836 712.423, 634.965 711.103 C 630.746 710.155, 630.536 710.237, 623.451 715.569 C 619.254 718.728, 615.203 721, 613.767 721 C 608.004 721, 605.272 722.887, 603.903 727.812 C 603.186 730.390, 602.701 733.175, 602.825 734 C 604.550 745.476, 605.595 750.068, 607.146 752.985 C 608.166 754.902, 609 756.990, 609 757.625 C 609 758.260, 611.419 761.238, 614.375 764.242 C 618.733 768.670, 620.544 769.810, 623.948 770.266 C 626.257 770.576, 629.825 771.993, 631.877 773.415 C 636.312 776.488, 639.598 776.661, 643 774 C 644.843 772.558, 647.089 772.039, 651.550 772.022 C 654.878 772.010, 658.107 771.493, 658.727 770.873 C 659.484 770.116, 659.666 766.850, 659.282 760.919 C 658.550 749.629, 659.673 747.508, 666.905 746.513 C 669.649 746.136, 675.337 744.066, 679.546 741.913 C 683.755 739.761, 687.989 738, 688.955 738 C 691.179 738, 700 744.669, 700 746.350 C 700 747.042, 701.541 749.101, 703.424 750.926 L 706.848 754.245 709.763 752.169 C 711.366 751.027, 713.215 749.446, 713.871 748.655 C 714.527 747.865, 717.038 746.921, 719.450 746.560 C 724.233 745.843, 725.751 744.579, 726.874 740.379 C 727.366 738.540, 728.584 737.317, 730.555 736.685 C 734.899 735.290, 736.882 733.163, 737.614 729.113 C 737.973 727.126, 738.882 724.285, 739.634 722.800 C 742.977 716.192, 739.058 698.437, 732.484 690.416 C 730.494 687.987, 728.334 685.992, 727.683 685.982 C 727.032 685.972, 724.520 684.622, 722.100 682.982 C 719.679 681.342, 717.351 680, 716.926 680 C 716.501 680, 714.683 681.237, 712.886 682.750 M 697.106 690.901 C 695.398 692.497, 694 694.476, 694 695.299 C 694 697.536, 679.631 711.804, 676.615 712.560 C 675.177 712.921, 674 713.550, 674 713.957 C 674 715.073, 667.139 717.883, 661.500 719.076 C 658.750 719.658, 654.102 720.635, 651.172 721.248 C 647.079 722.104, 644.644 722.066, 640.672 721.084 C 637.827 720.380, 632.800 719.617, 629.500 719.387 C 624.178 719.016, 623.182 719.254, 620.686 721.492 C 616.538 725.210, 616.114 729.794, 619.541 733.866 C 622.756 737.688, 630.165 741.451, 633.009 740.708 C 634.104 740.422, 635 740.595, 635 741.094 C 635 742.142, 648.323 742.343, 649.357 741.310 C 649.736 740.930, 652.286 740.739, 655.023 740.884 C 658.067 741.046, 660 740.731, 660 740.074 C 660 739.483, 660.828 739, 661.840 739 C 664.745 739, 680.838 733.160, 686.109 730.193 C 688.740 728.712, 694.667 724.296, 699.278 720.379 C 715.477 706.622, 718.206 695.240, 706.685 689.493 C 702.404 687.357, 700.619 687.620, 697.106 690.901 M 817.498 772.765 C 816.947 773.169, 815.052 775.184, 813.286 777.242 C 808.577 782.730, 787.545 801.514, 780.545 806.483 C 775.985 809.720, 773.153 810.955, 769.015 811.513 C 764.216 812.160, 763.055 812.792, 759.736 816.562 C 754.909 822.047, 751.220 824.288, 742.500 827.038 C 738.650 828.251, 731.675 831.389, 727 834.009 C 719.461 838.235, 717.652 838.827, 711 839.246 C 704.931 839.628, 702.689 840.256, 699.250 842.537 C 696.913 844.087, 695 845.672, 695 846.059 C 695 847.568, 685.610 849.055, 680.052 848.426 C 675.392 847.899, 673.388 848.177, 669.521 849.888 C 663.895 852.376, 656.441 852.629, 651.354 850.504 C 648.725 849.405, 645.941 849.177, 640.886 849.647 C 634.656 850.226, 634 850.496, 634 852.483 C 634 854.328, 636.895 856.738, 640 857.476 C 640.275 857.542, 642.075 858.596, 644 859.818 C 645.925 861.041, 648.595 862.327, 649.933 862.675 C 651.272 863.024, 653.445 863.868, 654.764 864.553 C 656.082 865.237, 660.275 866.604, 664.080 867.591 C 667.886 868.578, 671 869.735, 671 870.161 C 671 870.588, 671.629 870.696, 672.399 870.400 C 673.168 870.105, 674.075 870.313, 674.415 870.862 C 676.409 874.088, 723.643 874.201, 727.514 870.989 C 728.317 870.322, 729.641 870.032, 730.455 870.344 C 731.270 870.657, 732.164 870.544, 732.442 870.093 C 732.721 869.643, 735.098 868.697, 737.724 867.992 C 744.255 866.239, 761.331 859.020, 762.235 857.630 C 762.639 857.008, 762.976 856.855, 762.985 857.289 C 762.993 857.723, 763.985 857.160, 765.189 856.039 C 766.392 854.918, 767.784 854, 768.281 854 C 772.388 854, 804 821.731, 804 817.539 C 804 816.777, 805.165 814.769, 806.589 813.077 C 808.013 811.385, 808.859 810, 808.470 810 C 808.081 810, 808.917 808.487, 810.328 806.637 C 811.739 804.787, 813.218 801.974, 813.616 800.387 C 814.013 798.799, 815.110 795.700, 816.052 793.500 C 816.995 791.300, 818.073 787.036, 818.447 784.025 C 818.822 781.014, 819.636 777.939, 820.256 777.192 C 823.004 773.881, 820.800 770.344, 817.498 772.765 M 1085.993 809.853 C 1084.347 811.499, 1083 813.754, 1083 814.864 C 1083 815.974, 1082.550 817.160, 1082 817.500 C 1080.746 818.275, 1080.638 851.697, 1081.888 852.167 C 1082.379 852.351, 1083.303 885.331, 1083.956 925.956 C 1084.605 966.357, 1085.316 999.703, 1085.536 1000.059 C 1085.756 1000.415, 1085.983 1021.744, 1086.040 1047.458 C 1086.097 1073.171, 1086.384 1094.838, 1086.679 1095.605 C 1087.091 1096.680, 1089.711 1097, 1098.107 1097 L 1109 1097 1109 1077.667 C 1109 1067.033, 1108.755 1058.088, 1108.455 1057.789 C 1108.156 1057.489, 1107.941 1039.447, 1107.977 1017.694 C 1108.020 991.783, 1107.691 977.927, 1107.021 977.513 C 1106.386 977.121, 1105.984 969.628, 1105.957 957.691 C 1105.934 947.136, 1105.495 929.725, 1104.983 919 C 1104.470 908.275, 1103.579 883.934, 1103.001 864.908 C 1102.424 845.883, 1101.512 828.786, 1100.976 826.915 C 1100.439 825.044, 1100 821.808, 1100 819.724 C 1100 814.422, 1097.656 809.329, 1094.841 808.517 C 1093.554 808.145, 1091.709 807.621, 1090.743 807.351 C 1089.663 807.050, 1087.832 808.014, 1085.993 809.853 M 489.993 911.353 C 489.172 912.336, 487.712 913.884, 486.750 914.793 C 485.084 916.365, 484.349 919, 485.577 919 C 487.094 919, 492.108 912.801, 491.816 911.286 C 491.507 909.678, 491.387 909.682, 489.993 911.353 M 461.068 977.050 C 461.131 980.290, 461.202 980.361, 462.235 978.217 C 463.048 976.530, 463.031 975.631, 462.167 974.767 C 461.278 973.878, 461.016 974.420, 461.068 977.050 M 609 978.885 C 609 979.922, 610.139 981.517, 611.532 982.429 C 612.924 983.341, 613.817 984.487, 613.516 984.975 C 613.214 985.463, 613.443 986.156, 614.024 986.515 C 615.005 987.121, 616.430 989.111, 623 999.049 C 624.375 1001.129, 626.919 1004.852, 628.653 1007.321 C 630.387 1009.791, 632.118 1012.797, 632.500 1014 C 633.299 1016.516, 638.637 1024.658, 640.068 1025.542 C 640.597 1025.869, 641.711 1027.568, 642.542 1029.318 C 643.373 1031.068, 644.710 1033.625, 645.512 1035 C 646.314 1036.375, 646.977 1038.936, 646.985 1040.691 C 647.004 1044.692, 648.547 1045.720, 651.087 1043.422 C 652.424 1042.211, 652.722 1041.322, 652.024 1040.624 C 651.461 1040.061, 651 1038.877, 651 1037.994 C 651 1037.111, 649.875 1034.864, 648.500 1033 C 647.125 1031.136, 646 1028.819, 646 1027.850 C 646 1026.144, 643.124 1021.136, 639.194 1016 C 638.142 1014.625, 636.981 1012.547, 636.615 1011.382 C 636.249 1010.217, 635.060 1008.460, 633.974 1007.477 C 632.889 1006.494, 632 1005.314, 632 1004.854 C 632 1004.142, 627.225 997.254, 623.983 993.288 C 623.437 992.621, 622.478 990.947, 621.849 989.569 C 621.221 988.191, 620.356 987.280, 619.926 987.546 C 619.496 987.812, 618.860 987.134, 618.512 986.039 C 617.766 983.686, 611.482 977, 610.018 977 C 609.458 977, 609 977.848, 609 978.885 M 455.432 1008.415 C 455.080 1009.816, 455.202 1012.659, 455.703 1014.731 C 456.583 1018.370, 456.656 1018.423, 457.836 1016.263 C 459.837 1012.596, 459.807 1006.641, 457.786 1006.222 C 456.631 1005.983, 455.863 1006.699, 455.432 1008.415 M 456.451 1045.250 C 456.836 1047.037, 457.254 1048.950, 457.380 1049.500 C 458.001 1052.210, 461.200 1056.995, 462.043 1056.474 C 463.714 1055.441, 463.097 1050.542, 461.141 1049.320 C 460.118 1048.682, 459.005 1046.773, 458.666 1045.080 C 458.327 1043.386, 457.533 1042, 456.900 1042 C 456.126 1042, 455.979 1043.061, 456.451 1045.250 M 905.500 1085.200 C 901.646 1086.539, 895 1092.870, 895 1095.203 C 895 1096.849, 896.205 1097, 909.300 1097 C 919.089 1097, 923.979 1096.621, 924.800 1095.800 C 927.473 1093.127, 925.148 1087.588, 920.316 1085.117 C 917.634 1083.746, 909.556 1083.791, 905.500 1085.200" stroke="none" fill="#171916" fill-rule="evenodd"/>
</svg>