<svg role="img" aria-labelledby="artwork-title" shape-rendering="geometricPrecision" xmlns="http://www.w3.org/2000/svg" width="1200" height="1200" viewBox="0 0 1200 1200" version="1.1">
	<title id="artwork-title">Mascot arranging portfolio cards</title>
	<path d="M 702 237 C 702 237.550, 700.970 238, 699.710 238 C 692.145 238, 672.689 246.037, 669.047 250.667 C 668.038 251.950, 666.870 253, 666.452 253 C 666.034 253, 664.151 254.800, 662.268 257 C 658.324 261.608, 656.133 261.944, 651.683 258.626 C 645.747 254.198, 638.575 252.497, 626 252.533 C 613.905 252.568, 610.299 253.392, 599.019 258.698 C 593.500 261.295, 581.549 271.786, 579.878 275.500 C 579.384 276.600, 577.851 279.300, 576.472 281.500 C 573.393 286.414, 572.005 289.604, 571.985 291.815 C 571.948 295.871, 570.429 296.515, 561.745 296.158 C 555.304 295.893, 551.786 296.311, 546.208 298.005 C 542.242 299.210, 538.754 300.590, 538.456 301.071 C 538.159 301.553, 536.247 302.723, 534.208 303.673 C 526.563 307.233, 512 324.441, 512 329.915 C 512 330.829, 511.064 333.360, 509.920 335.539 C 507.011 341.079, 506.687 353.891, 509.380 356.868 C 511.892 359.643, 510.997 361.351, 506.199 362.934 C 500.118 364.941, 489.812 374.780, 486.536 381.704 C 485.028 384.892, 483.477 387.725, 483.089 388 C 481.986 388.781, 480 401.138, 480 407.216 C 480 410.233, 480.511 414.231, 481.136 416.101 C 483.636 423.580, 489.342 434.216, 492.754 437.756 C 496.811 441.966, 497.128 443.412, 494.779 447 C 492.343 450.719, 490.948 462.970, 492.120 470.338 C 493.503 479.036, 499.257 487.512, 507.250 492.626 C 510.540 494.731, 511 495.507, 511 498.954 C 511 501.114, 510.528 503.174, 509.951 503.530 C 509.306 503.929, 509.253 504.625, 509.813 505.339 C 510.314 505.978, 510.991 508.525, 511.317 511 C 512.017 516.312, 517.036 526.544, 520.533 529.790 C 523.731 532.759, 523.643 533.899, 519.950 537.385 C 516.476 540.664, 512.597 547.839, 511.508 553 C 511.101 554.925, 510.321 557.057, 509.773 557.737 C 509.225 558.418, 509.032 559.641, 509.344 560.455 C 509.657 561.270, 509.482 562.202, 508.956 562.527 C 507.615 563.356, 507.713 580, 509.059 580 C 509.641 580, 509.840 580.450, 509.500 581 C 509.160 581.550, 509.296 582, 509.803 582 C 510.310 582, 511.193 584.587, 511.766 587.750 C 513.194 595.628, 515.453 601.337, 519.636 607.639 C 523.659 613.701, 532.172 621.754, 535.416 622.568 C 538.526 623.349, 540.129 626.473, 540.993 633.441 C 541.935 641.041, 546.125 651.712, 551.153 659.321 C 553.269 662.522, 555 665.933, 555 666.900 C 555 667.868, 557.475 671.394, 560.500 674.737 C 563.525 678.080, 566.014 681.194, 566.032 681.657 C 566.087 683.133, 570.339 687.380, 575.637 691.251 C 578.461 693.315, 581.438 696.015, 582.251 697.251 C 584.264 700.311, 597.553 709.282, 603.351 711.496 C 608.309 713.390, 609.004 715.295, 604.922 715.799 C 603.590 715.964, 602.050 716.244, 601.500 716.422 C 600.950 716.600, 600.050 716.835, 599.500 716.944 C 598.950 717.053, 597.825 717.692, 597 718.364 C 596.175 719.036, 593.700 720.184, 591.500 720.916 C 582.374 723.949, 569.477 729.253, 569.165 730.101 C 568.980 730.602, 568.418 730.758, 567.915 730.447 C 567.412 730.136, 567 730.272, 567 730.749 C 567 731.225, 565.149 732.432, 562.886 733.430 C 551.556 738.429, 521.045 763.056, 507.669 778 C 505.945 779.925, 501.940 784.057, 498.768 787.183 C 495.596 790.308, 493 793.111, 493 793.411 C 493 793.711, 490.637 796.329, 487.750 799.228 C 481.302 805.703, 479.665 808.989, 481.060 812.658 C 482.504 816.455, 480.353 820.405, 473.046 827.374 C 469.721 830.546, 467 833.525, 467 833.993 C 467 835.084, 456.598 844, 455.326 844 C 454.799 844, 451.522 846.716, 448.044 850.037 C 444.565 853.357, 441.239 855.913, 440.651 855.717 C 440.064 855.521, 438.880 853.367, 438.020 850.931 C 437.160 848.494, 435.632 845.270, 434.625 843.767 C 432.760 840.986, 419.447 833.606, 417.956 834.527 C 417.506 834.805, 416.856 834.575, 416.510 834.016 C 415.738 832.766, 305.372 832.588, 304.601 833.836 C 304.004 834.803, 300.367 834.700, 299.354 833.687 C 298.976 833.309, 264.632 833, 223.033 833 C 165.541 833, 147.112 833.288, 146.200 834.200 C 145.540 834.860, 145 835.092, 145 834.715 C 145 833.651, 137.615 838.156, 133.835 841.526 C 126.718 847.871, 126.953 845.523, 127.241 907.169 L 127.500 962.500 134 962.500 L 140.500 962.500 141.210 953 C 141.600 947.775, 141.776 923.755, 141.602 899.623 L 141.284 855.746 144.246 852.373 L 147.207 849 282.070 849 L 416.933 849 420.458 852.525 L 423.982 856.049 424.241 909.275 L 424.500 962.500 454.371 962.772 C 475.689 962.966, 484.637 962.716, 485.621 961.900 C 486.761 960.953, 487 951.589, 487 907.830 L 487 854.905 489.554 852.538 C 491.655 850.590, 493.561 850.066, 500.304 849.582 C 504.812 849.258, 568.208 849.107, 641.184 849.247 L 773.869 849.500 776.926 852.429 L 779.983 855.358 780.241 908.929 L 780.500 962.500 861.944 962.756 C 906.738 962.897, 943.736 962.664, 944.161 962.239 C 944.586 961.814, 944.498 956.121, 943.966 949.587 C 943.264 940.981, 943.307 937.335, 944.121 936.354 C 946.526 933.456, 949.505 935.004, 958.001 943.565 C 965.929 951.554, 972.974 957.029, 980.746 961.241 C 983.695 962.838, 987.764 963, 1025.066 963 L 1066.140 963 1070.474 960.018 C 1076.842 955.637, 1085.417 945.539, 1089.576 937.525 C 1091.581 933.661, 1094.038 929.150, 1095.035 927.500 C 1097.681 923.126, 1101.718 910.523, 1102.956 902.778 C 1103.546 899.081, 1104.052 891.020, 1104.080 884.864 C 1104.127 874.256, 1104.278 873.457, 1106.957 869.563 C 1111.103 863.536, 1114.736 854.266, 1116.029 846.408 C 1116.655 842.609, 1117.648 837.475, 1118.237 835 C 1119.626 829.156, 1120.126 806.374, 1118.951 802.500 C 1118.450 800.850, 1117.630 795.778, 1117.129 791.229 C 1116.547 785.945, 1115.299 781.070, 1113.673 777.729 C 1112.274 774.853, 1110.839 769.800, 1110.484 766.500 C 1110.129 763.200, 1109.190 759.487, 1108.396 758.250 C 1107.603 757.013, 1107.179 756, 1107.455 756 C 1108.167 756, 1102.952 747.920, 1099.892 744.283 C 1096.821 740.634, 1088.750 734.822, 1084.322 733.073 C 1079.102 731.010, 1078.033 729.175, 1079.039 724 C 1079.520 721.525, 1079.932 717.002, 1079.956 713.950 C 1079.980 710.897, 1080.487 707.913, 1081.082 707.318 C 1081.812 706.588, 1081.844 705.627, 1081.182 704.368 C 1080.641 703.341, 1079.368 699.858, 1078.352 696.630 C 1077.336 693.401, 1075.153 689.250, 1073.502 687.405 C 1070.331 683.862, 1061.810 680, 1057.163 680 C 1055.643 680, 1053.933 679.533, 1053.361 678.961 C 1052.688 678.288, 1044.691 678.024, 1030.660 678.211 C 1018.746 678.370, 1008.999 678.229, 1008.999 677.897 C 1009 677.566, 980.126 676.964, 944.836 676.560 C 906.939 676.127, 879.613 675.422, 878.086 674.838 C 876.664 674.295, 869.875 673.415, 863 672.882 C 856.125 672.349, 847.125 671.304, 843 670.559 C 838.875 669.815, 834.091 669.427, 832.368 669.699 C 828.682 670.280, 826.840 668.322, 829.347 666.488 C 830.256 665.823, 831 665.093, 831 664.865 C 831 664.637, 833.416 661.895, 836.369 658.772 C 840.067 654.862, 842.077 651.749, 842.826 648.775 C 843.465 646.240, 845.207 643.227, 847.046 641.478 C 851.993 636.774, 854.454 630.701, 856.930 617.084 C 857.918 611.652, 860.136 609.846, 864.920 610.579 C 869.648 611.303, 881.736 608.656, 888.659 605.382 C 895.091 602.339, 906.664 591.340, 909.315 585.750 C 910.293 583.688, 911.549 582, 912.106 582 C 912.663 582, 912.840 581.550, 912.500 581 C 912.160 580.450, 912.275 580, 912.754 580 C 914.096 580, 918.746 567.276, 920.064 560 C 922.382 547.208, 922.363 538.940, 919.996 529.389 C 917.228 518.219, 913.921 511.939, 907.250 505.185 C 904.362 502.261, 902 499.244, 902 498.479 C 902 497.714, 903.124 495.432, 904.499 493.407 C 911.002 483.824, 912.527 468.883, 908.232 456.838 L 906.213 451.176 910.506 445.437 C 915.492 438.771, 919.008 428.271, 919.003 420.064 C 918.999 413.671, 916.544 403.086, 913.806 397.661 C 911.788 393.662, 903.629 384.974, 898.572 381.439 L 895.644 379.391 896.964 372.946 C 897.690 369.401, 898.670 366.072, 899.142 365.550 C 900.273 364.298, 900.251 355.273, 899.115 354.571 C 898.629 354.271, 897.910 351.882, 897.518 349.262 C 895.104 333.144, 886.669 321.873, 869.918 312.380 C 865.341 309.786, 855.230 307.816, 848.510 308.208 L 843.519 308.500 842.884 303 C 842.046 295.743, 836.817 284.791, 831.925 280.043 C 829.766 277.948, 828 275.909, 828 275.511 C 828 273.479, 811.149 264, 807.536 264 C 806.756 264, 805.814 263.508, 805.442 262.906 C 805.070 262.304, 803.693 262.017, 802.383 262.267 C 801.072 262.518, 800 262.335, 800 261.861 C 800 260.831, 787.643 260.691, 786.624 261.709 C 786.234 262.099, 784.180 262.293, 782.059 262.140 C 779.939 261.987, 777.906 262.343, 777.543 262.931 C 777.179 263.519, 775.784 264, 774.441 264 C 773.098 264, 772 264.379, 772 264.842 C 772 265.992, 764.207 268.246, 762.939 267.462 C 762.378 267.116, 760.813 265.080, 759.462 262.939 C 754.225 254.644, 742.081 244.573, 732.449 240.539 C 730.277 239.629, 725.673 238.619, 722.218 238.295 C 718.763 237.970, 715.699 237.321, 715.409 236.852 C 714.661 235.643, 702 235.782, 702 237 M 695.339 255.404 C 687.428 258.113, 682.969 260.246, 678.607 263.405 C 674.566 266.332, 664 279.881, 664 282.136 C 664 285.186, 667.296 284.285, 669.849 280.537 C 672.809 276.189, 677.752 271.334, 681 269.582 C 690.699 264.352, 696.295 261.899, 697.486 262.356 C 698.248 262.649, 699.047 262.358, 699.263 261.710 C 699.798 260.107, 716.470 260.073, 718.071 261.672 C 718.716 262.316, 719.870 262.604, 720.635 262.310 C 721.400 262.016, 722.582 262.218, 723.263 262.758 C 723.943 263.298, 726.119 264.260, 728.097 264.897 C 734.345 266.907, 740.674 271.645, 745.160 277.671 C 748.957 282.770, 749.541 283.211, 749.827 281.195 C 750.006 279.927, 749.731 278.352, 749.215 277.695 C 748.698 277.038, 748.008 275.373, 747.680 273.995 C 747.024 271.233, 738.936 262.187, 735 259.812 C 733.625 258.982, 730.700 257.726, 728.500 257.021 C 726.300 256.316, 723.954 255.306, 723.286 254.777 C 722.619 254.248, 717.669 253.621, 712.286 253.383 C 703.805 253.009, 701.545 253.278, 695.339 255.404 M 614 269.917 C 610.975 270.871, 606.497 272.918, 604.050 274.465 C 597.796 278.418, 590.011 286.693, 589.327 290.116 C 589.010 291.702, 588.411 293, 587.996 293 C 586.762 293, 584.810 298.627, 585.168 301.155 C 585.351 302.445, 585.950 303.275, 586.500 303 C 587.050 302.725, 587.389 302.168, 587.254 301.763 C 587.119 301.357, 588.689 298.432, 590.744 295.263 C 592.798 292.093, 594.942 288.609, 595.509 287.520 C 596.076 286.431, 597.431 285.064, 598.520 284.483 C 599.609 283.903, 602.726 281.981, 605.446 280.214 C 608.166 278.446, 610.923 277, 611.573 277 C 612.223 277, 613.295 276.349, 613.955 275.554 C 614.615 274.759, 617.645 273.551, 620.689 272.870 C 628.163 271.198, 642.697 273.122, 644.752 276.057 C 646.315 278.288, 650 278.680, 650 276.615 C 650 274.830, 646.493 272.559, 639.819 270.023 C 633.179 267.499, 621.814 267.453, 614 269.917 M 783.072 278.038 C 774.908 279.222, 763 285.195, 763 288.106 C 763 289.338, 767.152 288.417, 772.374 286.027 C 776.737 284.030, 778.466 283.839, 788.874 284.198 C 798.447 284.529, 801.145 284.976, 804.154 286.729 C 806.164 287.900, 808.037 288.630, 808.316 288.351 C 809.414 287.253, 822.112 301, 824.054 305.388 C 825.176 307.925, 826.562 310, 827.135 310 C 828.629 310, 827.254 302.401, 824.828 297.256 C 822.585 292.498, 811.617 282, 808.889 282 C 807.915 282, 806.847 281.562, 806.517 281.027 C 805.023 278.610, 791.241 276.853, 783.072 278.038 M 752.101 289.379 C 751.173 290.496, 751.139 291.392, 751.966 292.936 C 753.167 295.180, 754.664 295.501, 757 294.016 C 758.271 293.207, 758.107 292.667, 755.920 290.474 C 753.677 288.224, 753.178 288.081, 752.101 289.379 M 552 312.700 C 550.075 313.593, 548.236 314.362, 547.914 314.411 C 547.592 314.460, 544.729 316.188, 541.551 318.250 C 538.373 320.313, 535.374 322, 534.887 322 C 534.399 322, 534 322.427, 534 322.950 C 534 323.472, 532.679 325.857, 531.064 328.249 C 526.015 335.731, 524 342.214, 524 350.978 C 524 360.601, 525.516 362.313, 526.445 353.738 C 527.758 341.620, 531.653 333.296, 539.173 326.534 C 547.433 319.108, 556.769 315.526, 566.106 316.201 C 571.624 316.600, 572 316.489, 572 314.450 C 572 312.617, 571.265 312.171, 567.360 311.636 C 560.112 310.642, 555.795 310.942, 552 312.700 M 829.003 327.643 C 828.999 330.166, 830.709 331.036, 833.500 329.932 C 837.348 328.409, 847.727 328.981, 854.558 331.091 C 867.647 335.133, 875.103 342.250, 878.605 354.043 C 880.491 360.394, 882 361.261, 882 355.995 C 882 346.708, 872.097 332.949, 861.617 327.675 C 856.156 324.927, 855.636 324.859, 842.505 325.175 C 829.476 325.489, 829.007 325.574, 829.003 327.643 M 673.456 373.769 C 670.132 376.921, 666.442 380.263, 665.257 381.197 C 662.453 383.404, 652.723 388, 650.854 388 C 650.054 388, 648.837 388.563, 648.150 389.250 C 647.296 390.104, 643.354 390.493, 635.700 390.477 C 624.886 390.454, 624.238 390.328, 616.907 386.801 C 612.050 384.465, 608.176 381.770, 606.158 379.324 C 603.069 375.581, 602.969 375.542, 601.433 377.500 C 600.569 378.600, 598.740 381.854, 597.368 384.730 C 595.996 387.607, 594.452 390.221, 593.937 390.539 C 593.422 390.857, 592.997 391.879, 592.994 392.809 C 592.985 394.994, 585.282 404, 583.422 404 C 582.640 404, 582 404.525, 582 405.167 C 582 405.808, 581.703 406.036, 581.340 405.673 C 580.977 405.310, 580.089 405.855, 579.369 406.884 C 578.648 407.914, 577.032 408.999, 575.779 409.296 C 574.525 409.594, 571.700 410.529, 569.500 411.375 C 567.300 412.220, 563.416 412.932, 560.869 412.956 L 556.239 413 555.768 422.250 C 555.212 433.189, 553.196 438.441, 547.035 445 L 542.808 449.500 543.421 467 C 543.758 476.625, 544.313 492.825, 544.653 503 C 544.993 513.175, 545.732 522.083, 546.296 522.796 C 547.098 523.810, 548.102 523.347, 550.911 520.664 C 554.798 516.951, 559.484 514.552, 565 513.450 C 566.925 513.066, 570.415 511.857, 572.755 510.763 C 575.221 509.611, 578.260 508.958, 579.981 509.211 C 581.615 509.450, 583.075 509.300, 583.226 508.877 C 583.869 507.073, 600.922 505.943, 609.981 507.105 C 614.942 507.741, 619 508.590, 619 508.992 C 619 509.394, 620.101 509.512, 621.446 509.255 C 622.951 508.967, 625.032 509.598, 626.851 510.894 C 628.478 512.052, 630.373 513, 631.062 513 C 631.752 513, 634.940 515.732, 638.147 519.071 C 644.234 525.409, 646.036 525.918, 650.031 522.425 C 653.511 519.382, 668.205 518.491, 679.067 520.663 C 681.596 521.169, 682.085 520.766, 684.340 516.315 C 685.708 513.616, 688.607 509.629, 690.783 507.454 C 695.065 503.174, 709.049 495.598, 715.500 494.065 C 717.700 493.542, 721.300 492.644, 723.500 492.071 C 735.479 488.947, 770.439 490.006, 778.559 493.738 C 784.939 496.671, 790.508 500.600, 792.420 503.518 C 794.187 506.216, 794.278 506.234, 802.352 505.584 C 806.833 505.222, 812.750 504.514, 815.500 504.009 C 818.250 503.504, 822.902 502.881, 825.837 502.625 C 828.773 502.368, 831.298 502.010, 831.448 501.829 C 831.598 501.648, 831.510 498.771, 831.254 495.436 C 830.844 490.123, 830.431 489.134, 827.909 487.439 C 820.479 482.445, 816.961 471.089, 819.035 458.792 C 819.665 455.056, 820.550 452, 821.002 452 C 821.454 452, 821.714 451.257, 821.581 450.348 C 821.447 449.440, 819.488 447.973, 817.227 447.089 C 810.315 444.386, 802.567 436.866, 798.856 429.258 C 797.043 425.541, 795.540 421.969, 795.517 421.321 C 795.494 420.672, 795.143 419.809, 794.737 419.404 C 793.678 418.344, 793.826 408.226, 794.911 407.555 C 795.412 407.245, 795.706 406.206, 795.565 405.246 C 795.348 403.764, 794.184 403.500, 787.873 403.500 C 781.369 403.500, 779.564 403.061, 773.469 400 C 767.772 397.139, 765.826 395.496, 762.808 391 C 760.777 387.975, 758.830 384.375, 758.480 383 C 758.130 381.625, 757.166 379.747, 756.337 378.828 C 755.509 377.908, 754.584 375.320, 754.284 373.078 C 753.983 370.835, 753.547 369, 753.315 369 C 753.083 369, 749.880 371.394, 746.197 374.320 C 737.721 381.053, 734.339 382.702, 725.018 384.647 C 718.601 385.986, 716.257 386.034, 709.015 384.970 C 698.686 383.452, 694.668 381.452, 686.687 373.858 C 683.301 370.636, 680.299 368.009, 680.015 368.019 C 679.732 368.029, 676.780 370.617, 673.456 373.769 M 515.403 375.964 C 510.556 378.122, 500.454 387.676, 499.013 391.466 C 497.766 394.746, 497.668 406, 498.886 406 C 499.374 406, 500.085 403.916, 500.467 401.370 C 500.849 398.823, 501.667 395.561, 502.286 394.120 C 504.013 390.094, 509.208 383, 510.429 383 C 511.028 383, 512.018 382.201, 512.627 381.225 C 513.237 380.249, 515.590 378.561, 517.856 377.475 C 524.944 374.078, 522.721 372.708, 515.403 375.964 M 886 393.571 C 886 393.885, 888.124 396.551, 890.719 399.495 C 893.315 402.439, 895.933 406.317, 896.538 408.113 C 897.143 409.910, 898.119 411.540, 898.706 411.735 C 900.367 412.289, 899.520 406.232, 897.647 404.162 C 896.741 403.162, 895.986 401.928, 895.968 401.421 C 895.873 398.653, 886 390.878, 886 393.571 M 498.547 410.263 C 497.631 413.547, 498.722 422, 500.061 422 C 501.176 422, 501.194 417.081, 500.101 411.500 C 499.334 407.585, 499.301 407.559, 498.547 410.263 M 727.587 457.859 C 727.296 458.331, 724.424 458.956, 721.206 459.248 C 710.449 460.223, 701.191 467.207, 702.432 473.411 C 703.798 480.240, 711.606 482.736, 721 479.348 C 726.741 477.277, 745.540 477.008, 752.209 478.901 C 760.427 481.233, 766 478.111, 766 471.174 C 766 464.632, 758.862 460.652, 744.783 459.343 C 741.052 458.996, 738 458.327, 738 457.856 C 738 456.737, 728.279 456.739, 727.587 457.859 M 194 470.024 C 194 470.626, 193.595 470.868, 193.101 470.562 C 192.606 470.257, 190.764 471.643, 189.008 473.644 C 185.496 477.643, 185.455 478.502, 188.243 489.500 C 189.079 492.800, 190.526 499.100, 191.457 503.500 C 193.014 510.859, 195.476 520.351, 196.773 524 C 197.067 524.825, 197.382 525.950, 197.473 526.500 C 198.081 530.146, 201.861 536.097, 204.186 537.068 C 209.323 539.213, 215.858 533.147, 214.675 527.331 C 214.358 525.774, 213.616 521.800, 213.026 518.500 C 212.437 515.200, 211.669 511.825, 211.319 511 C 210.970 510.175, 210.761 509, 210.854 508.388 C 210.948 507.776, 210.347 505.976, 209.518 504.388 C 208.690 502.800, 208.010 500.797, 208.006 499.938 C 208.003 499.079, 207.148 495.029, 206.106 490.938 C 205.064 486.847, 203.909 481.764, 203.540 479.641 C 203.145 477.370, 201.764 474.759, 200.184 473.294 C 196.622 469.990, 194 468.604, 194 470.024 M 588 475.563 C 586.075 476.291, 583.588 476.913, 582.473 476.944 C 581.357 476.975, 579.557 477.614, 578.473 478.365 C 577.388 479.116, 575.444 480.060, 574.154 480.463 C 571 481.448, 564.365 488.409, 563.574 491.563 C 563.131 493.327, 563.592 495.023, 565.086 497.120 C 568.914 502.497, 573.260 502.903, 581.500 498.653 C 583.700 497.519, 585.725 496.563, 586 496.530 C 586.275 496.497, 586.950 496.190, 587.500 495.848 C 588.050 495.507, 591.116 494.648, 594.312 493.941 C 599.051 492.892, 601.052 492.892, 605.146 493.941 C 609.548 495.069, 610.637 495.016, 613.969 493.514 C 622.561 489.639, 621.660 478.483, 612.473 474.990 C 608.795 473.591, 592.183 473.980, 588 475.563 M 726.087 509.395 C 725.450 510.163, 723.257 511.101, 721.214 511.480 C 719.171 511.858, 716.088 513.240, 714.363 514.549 C 710.139 517.754, 701.970 529.359, 700.767 533.862 C 699.050 540.292, 698.750 544.728, 699.983 545.489 C 701.245 546.269, 705.282 542.615, 704.273 541.606 C 703.940 541.273, 704.215 541, 704.884 541 C 705.554 541, 706.729 539.538, 707.495 537.750 C 709.172 533.841, 722.066 517.466, 726.115 514.105 C 727.702 512.788, 729 510.875, 729 509.855 C 729 507.655, 727.701 507.450, 726.087 509.395 M 878.583 508.750 C 878.171 509.163, 877.533 509.519, 877.167 509.542 C 873.214 509.790, 861.896 520.611, 859.440 526.489 C 858.648 528.385, 858 531.915, 858 534.333 C 858 537.333, 857.309 539.608, 855.827 541.492 C 853.812 544.054, 853.752 544.554, 854.998 548.377 C 855.737 550.645, 856.419 556.100, 856.513 560.500 C 856.607 564.900, 857.023 570.975, 857.437 574 C 857.989 578.023, 857.772 580.704, 856.632 583.982 C 854.628 589.748, 855.924 591.972, 862.397 593.870 C 870.750 596.321, 881.423 592.241, 890.098 583.282 C 895.735 577.460, 900.680 571, 899.500 571 C 899.150 571, 899.728 569.763, 900.785 568.250 C 902.826 565.328, 906 549.997, 906 543.062 C 906 536.456, 902.946 525.889, 899.624 521 C 895.799 515.370, 891.084 511, 888.836 511 C 887.891 511, 886.835 510.543, 886.490 509.984 C 886.144 509.425, 885.474 509.207, 885 509.500 C 884.526 509.793, 883.856 509.575, 883.510 509.016 C 882.777 507.830, 879.671 507.662, 878.583 508.750 M 113.034 519.966 C 110.954 522, 110 523.901, 110 526.012 C 110 529.310, 110.799 530.263, 120.470 538.500 C 123.698 541.250, 128.401 545.344, 130.920 547.599 C 156.479 570.473, 158.536 571.618, 164.077 566.077 C 168.713 561.441, 168.069 558.688, 160.684 551.580 C 153.406 544.575, 130.383 524.653, 129.023 524.185 C 128.521 524.012, 126.422 522.324, 124.359 520.435 C 119.760 516.222, 116.982 516.107, 113.034 519.966 M 829 520 C 827.625 520.440, 823.313 520.845, 819.417 520.900 C 815.521 520.955, 811.996 521.337, 811.583 521.750 C 811.171 522.163, 810.533 522.538, 810.167 522.584 C 809.800 522.630, 808.150 523.206, 806.500 523.863 C 804.850 524.521, 802.881 525.279, 802.124 525.546 C 801.110 525.906, 800.877 527.364, 801.235 531.096 C 801.804 537.019, 798.843 553.065, 796.529 556.596 C 795.663 557.918, 795.220 559, 795.545 559 C 795.870 559, 795.206 560.307, 794.068 561.904 C 792.931 563.502, 792 565.095, 792 565.445 C 792 566.407, 787.924 572.079, 784.522 575.850 C 781.498 579.202, 769.734 588.735, 769.240 588.234 C 769.097 588.088, 767.971 588.608, 766.739 589.390 C 765.508 590.172, 760.467 591.808, 755.538 593.024 C 744.010 595.869, 727.828 595.442, 718.609 592.051 C 709.745 588.790, 700.066 581.782, 694.368 574.500 C 688.002 566.365, 684.493 557.992, 682.633 546.500 C 681.541 539.753, 681.374 539.457, 678 538.306 C 672.084 536.289, 659.034 536.682, 654.188 539.023 L 650 541.047 650 551.363 C 650 574.109, 642.432 589.217, 625.364 600.546 C 616.096 606.698, 606.653 609.218, 592.500 609.314 C 582.142 609.385, 579.679 609.074, 574.500 607.042 C 565.294 603.429, 556.132 596.914, 554.856 593.073 C 554.595 592.288, 553.880 591.956, 553.266 592.336 C 551.489 593.434, 552.366 606.642, 554.363 608.849 C 555.286 609.869, 556.212 613.007, 556.460 615.957 C 556.704 618.861, 557.038 621.308, 557.202 621.393 C 557.366 621.479, 559.499 622.213, 561.943 623.024 C 566.075 624.397, 566.472 624.843, 567.628 629.401 C 569.025 634.914, 570.140 635.963, 574.628 635.985 C 578.095 636.002, 579.264 637.062, 580.707 641.500 C 581.616 644.296, 581.971 644.477, 585.937 644.155 C 589.490 643.866, 590.670 644.268, 593.096 646.592 C 594.693 648.122, 596 650.415, 596 651.687 C 596 654.551, 596.743 654.590, 599.630 651.878 C 602.518 649.165, 606.394 649.981, 608.198 653.682 C 610.740 658.895, 611.707 657.453, 611.651 648.536 C 611.619 643.483, 612.055 639.545, 612.720 638.880 C 613.338 638.262, 613.611 637.149, 613.326 636.408 C 613.041 635.666, 613.752 633.860, 614.904 632.395 C 616.057 630.929, 617 628.946, 617 627.988 C 617 627.030, 620.778 622.815, 625.396 618.623 C 632.425 612.242, 634.351 611, 637.220 611 C 639.533 611, 642.249 609.862, 645.571 607.500 C 651.173 603.517, 657.289 602.840, 663.654 605.500 C 668.116 607.364, 669.907 607.386, 671.921 605.601 C 678.494 599.779, 690.386 598.002, 696.004 602.003 C 698.189 603.559, 700.231 603.968, 705.158 603.839 C 711.194 603.680, 723.902 606.509, 729.932 609.353 C 733.731 611.145, 744.398 622.575, 746.648 627.266 C 747.765 629.595, 749.512 634.313, 750.529 637.750 C 751.546 641.188, 752.685 644, 753.060 644 C 753.435 644, 754.813 642.428, 756.121 640.507 C 758.835 636.522, 758.511 636.645, 766.500 636.562 C 771.925 636.506, 772.530 636.286, 772.817 634.267 C 773.123 632.114, 779.470 626, 781.399 626 C 781.918 626, 783.192 626.769, 784.230 627.708 C 786.719 629.961, 789.118 628.482, 790.286 623.976 C 791.259 620.221, 793.631 616.865, 797.417 613.887 C 799.520 612.232, 800.540 612.055, 803.407 612.847 C 807.098 613.866, 808.565 612.590, 808.094 608.771 C 807.977 607.820, 808.379 606.470, 808.988 605.771 C 809.597 605.072, 810.909 602.935, 811.904 601.022 C 813.264 598.408, 814.681 597.290, 817.607 596.522 C 821.246 595.567, 821.479 595.284, 821.182 592.185 C 821.007 590.361, 821.292 588.336, 821.816 587.685 C 822.340 587.033, 823.080 585.044, 823.461 583.264 C 823.860 581.396, 825.339 579.182, 826.959 578.029 C 829.438 576.264, 829.813 575.279, 830.176 569.572 C 830.465 565.043, 831.160 562.481, 832.502 560.998 C 833.850 559.509, 834.332 557.717, 834.132 554.946 C 833.931 552.158, 834.454 550.239, 835.924 548.370 C 838.526 545.061, 838.529 543.551, 835.936 539.911 C 834.216 537.494, 833.907 535.704, 834.081 529.144 C 834.278 521.686, 833.749 518.875, 832.191 519.100 C 831.811 519.155, 830.375 519.560, 829 520 M 578.135 527.539 C 576.285 528.343, 573.832 529, 572.686 529 C 569.825 529, 561.279 538.321, 558.476 544.500 C 555.691 550.636, 554.636 563.500, 556.917 563.500 C 557.696 563.500, 558.776 562.150, 559.317 560.500 C 559.857 558.850, 560.570 557.275, 560.900 557 C 562.127 555.977, 566 550.049, 566 549.194 C 566 548.705, 566.788 547.379, 567.750 546.246 C 568.712 545.113, 570.175 543.174, 571 541.935 C 572.571 539.577, 577.768 533.215, 579.524 531.500 C 585.045 526.107, 584.568 524.746, 578.135 527.539 M 529.732 549.750 C 525.128 554.858, 522.823 570.439, 525.374 579.215 C 526.268 582.291, 527.014 585.639, 527.031 586.654 C 527.096 590.458, 535.001 604, 537.157 604 C 538.815 604, 537.845 563.720, 536.138 561.665 C 535.389 560.763, 535.032 559.359, 535.344 558.545 C 535.657 557.730, 535.521 556.822, 535.043 556.527 C 534.565 556.231, 533.870 554.192, 533.499 551.995 C 532.752 547.570, 532.066 547.161, 529.732 549.750 M 87.107 604.252 C 85.398 604.695, 84 605.494, 84 606.029 C 84 606.563, 83.100 607, 82 607 C 80.267 607, 80 607.667, 80 612 C 80 616.225, 80.291 617, 81.878 617 C 82.910 617, 84.261 617.610, 84.880 618.355 C 85.503 619.106, 89.013 619.992, 92.752 620.341 C 96.464 620.689, 103.775 621.401, 109 621.924 C 114.225 622.447, 123.470 623.014, 129.545 623.183 C 140.045 623.477, 140.745 623.369, 143.740 620.996 C 147.829 617.756, 147.948 614.282, 144.096 610.592 C 141.319 607.931, 140.391 607.730, 122.846 605.981 C 99.520 603.656, 90.997 603.244, 87.107 604.252 M 202.500 606 C 200.300 607.063, 198.016 607.947, 197.424 607.966 C 195.566 608.025, 192.230 612.290, 189.576 618 L 187.020 623.500 187.010 703.300 C 187.001 775.473, 187.158 783.405, 188.648 786.300 C 191.548 791.930, 195.197 796.031, 199.607 798.616 L 203.902 801.133 334.201 801.316 L 464.500 801.500 469.155 798.763 C 471.716 797.258, 475.316 794.126, 477.155 791.804 L 480.500 787.581 480.500 703.540 L 480.500 619.500 478.250 616.346 C 477.012 614.611, 476 612.806, 476 612.336 C 476 611.184, 472.544 608.990, 466.500 606.303 L 461.500 604.080 334 604.074 C 210.033 604.068, 206.389 604.121, 202.500 606 M 206.837 620.250 C 201.787 624.337, 202 620.686, 202 703 L 202 779.554 204.944 782.777 C 206.563 784.550, 208.700 785.994, 209.694 785.987 C 210.687 785.979, 267.195 786.191, 335.268 786.457 C 422.784 786.799, 459.730 786.625, 461.407 785.860 C 466.180 783.686, 466.153 784.107, 466.619 702.475 L 467.058 625.439 463.910 622.220 L 460.763 619 334.572 619 C 235.111 619, 208.055 619.265, 206.837 620.250 M 709.077 629.907 L 706.654 631.770 709.700 633.345 C 720.272 638.812, 708.408 652.544, 689.128 657.159 C 678.513 659.699, 663.248 659.629, 654.739 657.001 C 649.286 655.317, 647.853 654.376, 645.634 651.023 C 644.185 648.834, 643.015 646.696, 643.033 646.271 C 643.085 645.065, 646.365 641.629, 648.782 640.250 C 651.940 638.448, 653.642 638.685, 657.785 641.500 C 661.150 643.787, 662.362 643.995, 671.982 643.944 C 679.513 643.904, 683.643 643.407, 686.524 642.194 C 691.259 640.201, 702.949 632.813, 702.979 631.795 C 703.027 630.184, 695.914 629.768, 694.210 631.283 C 693.270 632.119, 690.617 633.360, 688.315 634.040 C 684.433 635.188, 683.751 635.079, 678.880 632.532 C 673.920 629.939, 673.557 629.885, 672.330 631.563 C 668.624 636.632, 661.813 638.341, 656.436 635.551 C 654.900 634.754, 653.386 634.229, 653.072 634.383 C 652.757 634.537, 650.700 635.436, 648.500 636.380 C 646.300 637.324, 643.677 638.551, 642.672 639.106 C 641.388 639.814, 640.409 639.755, 639.388 638.907 C 638.248 637.961, 637.422 637.971, 635.583 638.956 C 632.558 640.574, 631.373 649.361, 633.047 657.752 C 634.025 662.653, 635.064 664.441, 640.099 669.888 C 645.753 676.006, 646.215 676.284, 650.993 676.435 C 654.158 676.536, 656.443 677.165, 657.241 678.157 C 660.896 682.696, 664 680.322, 664 672.989 C 664 669.702, 664.632 668.215, 667.056 665.790 C 669.892 662.954, 670.479 662.778, 675.222 663.340 C 678.033 663.673, 682.317 663.445, 684.743 662.835 C 690.899 661.284, 694.213 663.720, 695.189 670.511 C 695.985 676.054, 697.322 677.306, 701.500 676.423 C 703.150 676.073, 706.525 675.723, 709 675.644 C 712.045 675.547, 714.616 674.691, 716.950 673 C 718.847 671.625, 721.772 670.011, 723.450 669.413 C 725.501 668.682, 726.777 667.372, 727.346 665.413 C 727.811 663.811, 729.050 660.700, 730.098 658.500 C 732.876 652.673, 732.527 647.374, 728.884 640.084 C 727.170 636.654, 725.033 633.641, 724.134 633.387 C 723.235 633.133, 720.362 631.817, 717.749 630.463 C 712.102 627.535, 712.158 627.539, 709.077 629.907 M 240.217 661.551 C 238.531 662.260, 236.432 663.938, 235.553 665.279 C 233.972 667.692, 234.326 671, 236.166 671 C 236.690 671, 236.881 671.383, 236.592 671.852 C 234.952 674.504, 245.296 675, 302.244 675 C 366.125 675, 367.232 674.908, 368.593 669.487 C 369.488 665.919, 366.752 662.210, 362.758 661.578 C 360.966 661.294, 333.351 660.882, 301.392 660.662 C 255.490 660.346, 242.639 660.532, 240.217 661.551 M 791.143 684.533 C 787.053 687.974, 786.350 690.878, 784.972 710 C 784.318 719.075, 783.505 726.950, 783.166 727.500 C 782.827 728.050, 782.684 729.314, 782.848 730.310 C 783.012 731.305, 782.725 732.655, 782.210 733.310 C 781.695 733.964, 780.985 737.875, 780.631 742 C 780.278 746.125, 778.828 758.950, 777.409 770.500 C 775.991 782.050, 774.456 794.650, 773.999 798.500 C 773.541 802.350, 772.683 808.425, 772.091 812 C 771.499 815.575, 771.012 820.772, 771.008 823.550 C 771.003 826.327, 770.471 829.129, 769.824 829.776 C 768.045 831.555, 771.392 834.839, 774.399 834.264 C 778.704 833.441, 789.778 841.618, 792.144 847.367 C 794.374 852.787, 796.630 853.930, 805.172 853.967 C 809.392 853.985, 823.792 854.657, 837.172 855.461 C 850.553 856.264, 872.075 857.413, 885 858.014 C 897.925 858.615, 909.175 859.357, 910 859.662 C 910.825 859.967, 914.792 860.138, 918.817 860.041 C 922.841 859.944, 926.666 860.285, 927.317 860.797 C 927.967 861.309, 937.950 862.019, 949.500 862.373 C 961.050 862.728, 977.700 863.468, 986.500 864.017 C 995.300 864.567, 1012.045 865.125, 1023.712 865.258 C 1043.774 865.487, 1045.033 865.391, 1046.938 863.497 C 1048.045 862.395, 1049.227 860.115, 1049.564 858.431 C 1050.146 855.521, 1049.961 855.305, 1045.838 854.070 C 1041.633 852.810, 1034.065 848.179, 1034.021 846.840 C 1033.983 845.667, 1028.669 838, 1027.894 838 C 1026.337 838, 1025.725 826.862, 1027.060 822.817 C 1028.164 819.472, 1028.152 818.483, 1026.981 816.666 C 1021.975 808.891, 1020 803.664, 1020.001 798.190 C 1020.001 792.877, 1022.369 784.584, 1025.163 780.110 C 1026.105 778.601, 1025.872 777.533, 1023.911 774.378 C 1020.846 769.447, 1020.505 757.581, 1023.267 751.988 C 1027.244 743.937, 1036.558 736.186, 1045.500 733.484 C 1048.800 732.487, 1052.040 731.259, 1052.700 730.755 C 1053.359 730.251, 1055.159 729.966, 1056.700 730.122 C 1061.879 730.647, 1062.956 729.149, 1064.014 719.948 C 1065.674 705.502, 1065.399 702.478, 1062.083 698.766 L 1059.166 695.500 1018.833 694.336 C 996.650 693.696, 969.237 693.133, 957.917 693.086 C 946.596 693.039, 937.068 692.735, 936.744 692.411 C 936.420 692.087, 928.427 691.881, 918.981 691.953 C 909.535 692.025, 901.287 691.675, 900.653 691.175 C 900.019 690.675, 887.739 690.014, 873.364 689.707 C 851.034 689.230, 845.429 688.788, 834.864 686.672 C 822.620 684.219, 804.916 681.983, 797.827 681.994 C 795.361 681.998, 793.164 682.832, 791.143 684.533 M 239.500 701.208 C 233.948 704.392, 233.404 709.850, 238.335 712.898 C 241.552 714.887, 242.867 714.951, 275.849 714.729 L 310.028 714.500 313.068 711.246 C 316.072 708.032, 316.088 707.957, 314.389 705.081 C 313.443 703.480, 311.598 701.682, 310.288 701.085 C 306.893 699.539, 242.215 699.651, 239.500 701.208 M 764 715.786 C 762.625 716.710, 761.275 717.718, 761 718.026 C 760.725 718.334, 756.937 720.065, 752.583 721.872 C 746.603 724.355, 743.527 725.079, 740.010 724.830 C 737.035 724.619, 734.025 725.132, 731.676 726.250 C 729.654 727.212, 726.492 728.710, 724.648 729.578 C 722.804 730.446, 720.667 731.050, 719.898 730.920 C 719.129 730.791, 717.825 730.922, 717 731.213 C 712.603 732.762, 696.148 734.552, 692.085 733.923 C 689.563 733.533, 685.067 733.604, 682.094 734.080 C 676.388 734.994, 659.696 732.801, 657.294 730.822 C 656.055 729.801, 654 730.488, 654 731.924 C 654 732.367, 655.376 734.252, 657.058 736.114 C 658.740 737.977, 660.806 740.496, 661.649 741.713 C 664.047 745.176, 673.459 750.958, 680.287 753.162 C 683.704 754.265, 687.175 755.420, 688 755.727 C 688.825 756.035, 690.693 756.193, 692.151 756.079 C 693.609 755.964, 695.098 756.349, 695.460 756.935 C 696.325 758.335, 710.677 758.331, 711.543 756.931 C 711.906 756.343, 713.845 755.953, 715.852 756.065 C 717.858 756.176, 720.175 756.035, 721 755.752 C 721.825 755.468, 724.525 754.694, 727 754.032 C 732.030 752.687, 740.388 749.644, 746.636 746.882 C 752.691 744.206, 765.750 735.335, 766.958 733.078 C 768.141 730.869, 768.400 713.972, 767.250 714.052 C 766.837 714.081, 765.375 714.861, 764 715.786 M 849.750 735.099 C 847.907 735.815, 847.009 736.881, 847.028 738.333 C 847.069 741.403, 855.936 746.532, 863.500 747.861 C 866.800 748.440, 888.562 749.130, 911.860 749.393 L 954.219 749.871 956.610 747.481 C 960.546 743.545, 959.470 738.927, 953.925 735.960 C 951.176 734.489, 853.403 733.681, 849.750 735.099 M 1056.903 746.072 C 1044.643 747.987, 1034.202 758.903, 1037.944 765.895 C 1039.316 768.459, 1041.607 768.558, 1046.096 766.250 C 1050.976 763.741, 1068.646 763.784, 1075.222 766.322 C 1080.272 768.271, 1085 772.962, 1085 776.026 C 1085 778.168, 1079.169 783, 1076.584 783 C 1075.634 783, 1074.209 782.352, 1073.417 781.559 C 1071.123 779.266, 1063.426 778.599, 1055.816 780.035 C 1052.017 780.751, 1048.674 781.719, 1048.385 782.185 C 1048.097 782.651, 1047.485 782.800, 1047.024 782.515 C 1046.563 782.230, 1043.605 784.437, 1040.451 787.420 C 1034.920 792.650, 1034.735 792.990, 1035.268 796.960 C 1036.365 805.138, 1040.232 807.860, 1045.682 804.289 C 1047.757 802.929, 1050.677 802.570, 1059.897 802.539 C 1070.896 802.503, 1071.708 802.642, 1075.500 805.213 C 1085.902 812.265, 1087.167 816.040, 1080.576 820.358 C 1077.832 822.156, 1074 822.557, 1074 821.047 C 1074 819.514, 1067.025 818.010, 1060 818.028 C 1052.478 818.047, 1045.116 820.842, 1044.292 823.992 C 1044.003 825.096, 1043.467 826, 1043.100 826 C 1041.097 826, 1043.082 831.818, 1046.192 835.062 C 1049.337 838.343, 1050.435 838.814, 1056.431 839.456 C 1060.125 839.851, 1065.593 841.257, 1068.583 842.579 C 1079.621 847.461, 1081.308 858, 1071.051 858 C 1066.535 858, 1065.454 859.107, 1063.479 865.760 C 1061.606 872.065, 1056.429 876.941, 1048.381 879.978 C 1042.627 882.149, 1042.061 882.174, 1022.124 881.131 C 1002.039 880.080, 998 880.418, 998 883.151 C 998 885.943, 990.891 899.025, 988.535 900.569 C 985.217 902.743, 981.447 901.305, 979.918 897.283 C 978.790 894.317, 979.610 885.359, 981.094 884.442 C 981.592 884.134, 982 883.009, 982 881.941 C 982 878.860, 976.671 879.363, 973.540 882.740 C 972.143 884.247, 970.998 885.934, 970.996 886.490 C 970.993 887.045, 969.222 889.834, 967.059 892.686 C 961.773 899.659, 954 913.258, 954 915.534 C 954 916.544, 955.800 919.506, 958 922.115 C 960.200 924.724, 962 927.341, 962 927.929 C 962 928.518, 962.418 929, 962.929 929 C 963.439 929, 964.490 929.633, 965.264 930.407 C 971.955 937.098, 990.529 951.233, 993 951.514 C 993.275 951.545, 994.409 952.078, 995.519 952.697 C 996.629 953.316, 1000.454 954.869, 1004.019 956.147 C 1009.768 958.208, 1012.306 958.472, 1026.500 958.485 C 1044.221 958.502, 1048.815 957.344, 1057.500 950.676 C 1070.390 940.778, 1081.508 922.931, 1085.331 906 C 1088.826 890.520, 1088.460 885.544, 1083.915 886.732 C 1081.297 887.417, 1077 883.428, 1077 880.313 C 1077 878.706, 1079.739 875.235, 1085.750 869.223 C 1097.101 857.870, 1099.961 852.338, 1100.985 839.757 C 1101.399 834.666, 1102.247 829.233, 1102.869 827.685 C 1104.471 823.696, 1104.270 813.832, 1102.443 806.778 C 1101.419 802.829, 1101.106 798.998, 1101.530 795.607 C 1102.249 789.854, 1099.880 781.449, 1096.007 776.010 C 1094.676 774.141, 1093.931 771.737, 1094.063 769.739 C 1094.289 766.314, 1093.918 765.005, 1090.829 758.330 C 1086.474 748.921, 1072.044 743.708, 1056.903 746.072 M 849 772.175 C 844.875 772.684, 836.688 773.227, 830.807 773.381 C 820.025 773.664, 816.580 774.742, 817.640 777.503 C 818.447 779.608, 823.694 781.004, 828.381 780.361 C 831.439 779.942, 833.866 780.331, 837.063 781.752 C 839.640 782.898, 846.112 784.219, 852.500 784.904 C 858.550 785.553, 866.650 786.502, 870.500 787.013 C 881.498 788.474, 895.212 788.575, 897.672 787.214 C 900.258 785.784, 904 781.229, 904 779.511 C 904 778.841, 902.950 777.160, 901.668 775.775 C 899.439 773.370, 898.672 773.230, 884.418 772.609 C 876.213 772.252, 866.575 771.799, 863 771.604 C 859.425 771.409, 853.125 771.666, 849 772.175 M 493.500 826.749 C 490.425 830.878, 489.950 832.714, 491.602 834.084 C 492.725 835.017, 493.366 835.034, 494.242 834.158 C 494.907 833.493, 498.496 833, 502.669 833 C 511.140 833, 511.430 832.084, 504.529 827.128 C 499.196 823.298, 496.148 823.193, 493.500 826.749 M 464.500 856.639 C 461.750 859.141, 456.125 863.618, 452 866.587 C 441.309 874.283, 441.167 874.410, 440.235 877.081 C 439.771 878.412, 439.256 897.068, 439.091 918.541 C 438.844 950.581, 439.035 957.784, 440.155 958.714 C 442.795 960.905, 467.295 954.588, 470.235 950.958 C 472.164 948.575, 472.585 944.479, 471 943.500 C 469.561 942.611, 469.757 928.362, 471.241 925.986 C 472.228 924.405, 472.228 923.595, 471.241 922.014 C 469.749 919.625, 469.612 915.358, 471 914.500 C 472.593 913.516, 472.346 851.988, 470.750 852.045 C 470.063 852.069, 467.250 854.137, 464.500 856.639 M 182.329 891.447 C 176.620 893.950, 175.393 899.142, 179.580 903.076 L 182.161 905.500 247.330 905.500 C 310.927 905.500, 312.566 905.452, 315.219 903.500 C 318.643 900.981, 318.964 896.182, 315.894 893.405 C 313.877 891.580, 311.342 891.496, 255.592 891.401 C 223.583 891.347, 194.718 891.022, 191.447 890.679 C 187.342 890.249, 184.518 890.487, 182.329 891.447 M 538 892.011 C 527.277 892.588, 526.743 892.793, 525.011 896.973 C 523.352 900.978, 525.613 904.660, 530.242 905.492 C 532.034 905.814, 577.890 905.948, 632.145 905.789 C 727.529 905.510, 730.860 905.437, 732.895 903.595 C 736.885 899.984, 735.160 893.868, 729.636 892.045 C 726.215 890.916, 558.894 890.887, 538 892.011 M 916.028 904.522 C 916.013 905.084, 918.025 907.749, 920.500 910.445 C 922.975 913.141, 925 914.847, 925 914.236 C 925 912.822, 916.066 903.149, 916.028 904.522 M 183.500 932.702 C 177.570 934.198, 175.860 941.551, 180.704 944.727 C 183.143 946.326, 186.937 946.529, 219.444 946.798 C 239.264 946.962, 256.415 946.862, 257.556 946.575 C 260.133 945.928, 263.425 943.076, 264.293 940.736 C 264.728 939.564, 263.979 937.888, 262.057 935.736 L 259.166 932.500 222.333 932.348 C 202.075 932.265, 184.600 932.424, 183.500 932.702 M 558.811 932.690 L 528.123 933.029 526.061 935.649 C 524.928 937.090, 524 939.024, 524 939.946 C 524 942.232, 527.525 945.843, 530.480 946.584 C 535.103 947.745, 658.337 946.457, 660.608 945.225 C 661.768 944.596, 663.426 942.998, 664.293 941.675 C 665.783 939.401, 665.722 939.099, 663.185 936.197 L 660.500 933.125 625 932.738 C 605.475 932.526, 575.690 932.504, 558.811 932.690" stroke="none" fill="#171916" fill-rule="evenodd"/>
</svg>