<svg role="img" aria-labelledby="artwork-title" shape-rendering="geometricPrecision" xmlns="http://www.w3.org/2000/svg" width="1200" height="1200" viewBox="0 0 1200 1200" version="1.1">
	<title id="artwork-title">Mascot inspecting a project with a magnifying glass</title>
	<path d="M 804.574 145.881 C 804.274 146.365, 803.010 146.988, 801.765 147.265 C 787.493 150.438, 779.157 154.457, 770.261 162.456 C 764.934 167.244, 762.995 167.904, 761.070 165.584 C 758.224 162.155, 745.867 155.041, 739 152.879 C 732.889 150.955, 729.370 150.524, 720 150.552 C 703.673 150.601, 691.790 154.486, 680.500 163.466 C 678.300 165.215, 675.712 166.937, 674.750 167.292 C 673.788 167.647, 673 168.436, 673 169.046 C 673 169.655, 671.615 171.539, 669.923 173.231 C 665.407 177.747, 660.106 185.959, 658.944 190.240 C 657.736 194.687, 654.672 195.916, 650.357 193.684 C 641.586 189.149, 621.464 191.824, 609.357 199.135 C 597.072 206.552, 586.874 217.668, 581.404 229.605 C 579.083 234.669, 578.635 237.191, 578.227 247.500 C 577.965 254.100, 577.347 260.008, 576.853 260.629 C 576.359 261.251, 574.608 262.028, 572.962 262.358 C 567.459 263.458, 559.057 268.095, 553.752 272.959 C 546.036 280.033, 539.792 293.207, 538.565 305 C 538.193 308.575, 537.372 312.542, 536.741 313.815 C 535.944 315.421, 535.915 316.340, 536.646 316.815 C 537.225 317.192, 537.953 319.975, 538.264 323 C 539.131 331.443, 543.612 342.359, 548.115 346.999 C 552.419 351.434, 552.965 354.332, 550.082 357.436 C 546.765 361.006, 543.721 371.763, 543.227 381.658 C 542.813 389.945, 543.017 391.358, 545.371 396.499 C 546.981 400.015, 550.255 404.414, 553.960 408.040 L 559.947 413.898 558.474 418.075 C 556.626 423.311, 556.575 431.260, 558.366 434.800 C 559.118 436.285, 560.024 439.109, 560.379 441.076 C 560.735 443.043, 561.651 445.508, 562.416 446.554 C 563.663 448.259, 563.416 448.920, 560.014 452.983 C 557.928 455.474, 555.189 459.534, 553.926 462.006 C 552.662 464.478, 550.587 467.574, 549.314 468.886 C 548.042 470.199, 547 471.938, 547 472.750 C 547 473.563, 546.131 475.864, 545.069 477.864 C 542.872 482.002, 539.483 492.610, 538.510 498.396 C 538.149 500.539, 537.258 503.239, 536.530 504.396 C 533.534 509.153, 531.820 543.502, 534.003 555.017 C 534.555 557.926, 535.638 561.572, 536.409 563.119 C 537.181 564.666, 538.111 567.860, 538.476 570.216 C 539.437 576.425, 546.819 595.959, 549.612 599.683 C 550.926 601.434, 552 603.143, 552 603.482 C 552 603.820, 553.800 606.807, 556 610.119 C 558.200 613.431, 560 616.242, 560 616.366 C 560 616.489, 562.248 619.023, 564.997 621.996 C 567.745 624.970, 570.243 628.189, 570.548 629.150 C 570.853 630.111, 571.914 631.155, 572.906 631.470 C 573.897 631.785, 576.830 634.283, 579.423 637.021 C 582.015 639.760, 584.818 642, 585.652 642 C 586.485 642, 586.979 642.563, 586.749 643.250 C 586.416 644.246, 544.045 644.418, 377.915 644.098 L 169.500 643.696 163.743 646.948 C 157.662 650.382, 152.164 656.027, 149.564 661.506 C 148.166 664.453, 148 681.542, 148 822.666 L 148 980.530 150.097 984.515 C 152.957 989.951, 159.263 996.277, 164.358 998.822 L 168.581 1000.931 365.041 1001.121 C 473.093 1001.226, 566.900 1001.579, 573.500 1001.906 L 585.500 1002.500 586 1023.329 L 586.500 1044.158 590.331 1047.667 C 594.882 1051.835, 598.015 1051.649, 602.073 1046.968 C 605.049 1043.535, 607.948 1043.180, 610.449 1045.943 C 613.191 1048.974, 617.536 1049.505, 620.703 1047.198 L 623.398 1045.235 627.168 1047.730 C 629.910 1049.544, 632.790 1050.370, 637.720 1050.754 C 641.449 1051.045, 645.388 1051.894, 646.473 1052.641 C 649.494 1054.723, 657.027 1054.265, 665.154 1051.507 C 674.360 1048.383, 676.476 1048.382, 680.182 1051.500 C 682.532 1053.477, 684.235 1053.993, 688.327 1053.965 C 691.172 1053.945, 694.625 1053.286, 696 1052.500 C 699.375 1050.570, 707.399 1050.570, 709 1052.500 C 710.852 1054.731, 808.611 1054.762, 811.559 1052.532 C 814.094 1050.615, 816.764 1050.622, 818.693 1052.550 C 819.997 1053.854, 822.564 1054.026, 834.871 1053.636 C 842.917 1053.381, 850.175 1053.155, 851 1053.134 C 851.825 1053.113, 858.305 1053.337, 865.399 1053.633 C 876.194 1054.082, 878.913 1053.892, 882.066 1052.470 C 885.544 1050.902, 886.013 1050.895, 888.140 1052.385 C 891.597 1054.807, 905.161 1054.564, 910.859 1051.978 C 916.352 1049.486, 918.536 1049.490, 921.727 1052 C 925.415 1054.901, 929.950 1054.472, 937.569 1050.500 C 945.097 1046.576, 946.224 1046.360, 948 1048.500 C 950.367 1051.352, 957.914 1050.413, 963.646 1046.552 L 968.766 1043.105 972.310 1047.052 C 975.098 1050.158, 976.562 1050.997, 979.177 1050.985 C 983.166 1050.966, 983.890 1050.510, 987.011 1046.047 C 989.279 1042.803, 989.427 1041.746, 989.463 1028.547 L 989.500 1014.500 994 1014.746 C 1025.225 1016.456, 1035.158 1015.906, 1047.500 1011.785 C 1053.071 1009.924, 1055.305 1008.718, 1065.184 1002.237 C 1075.032 995.775, 1091.230 976.556, 1096.848 964.667 C 1098.541 961.082, 1101.366 952.378, 1103.123 945.324 C 1104.881 938.271, 1106.537 931.825, 1106.803 931 C 1107.069 930.175, 1107.186 928.240, 1107.063 926.700 C 1106.940 925.159, 1107.437 923.177, 1108.169 922.295 C 1109.182 921.073, 1109.520 915.416, 1109.583 898.595 L 1109.666 876.500 1114.193 872 C 1119.899 866.328, 1120.680 862.186, 1118.539 848.942 C 1115.902 832.622, 1110.211 809.056, 1107.981 805.223 C 1107.006 803.547, 1101.778 789.454, 1097.761 777.675 C 1096.669 774.472, 1095.151 771.611, 1094.387 771.318 C 1093.624 771.026, 1093 770.194, 1093 769.471 C 1093 767.508, 1084.286 750.944, 1081.459 747.535 C 1080.106 745.904, 1079 744.150, 1079 743.638 C 1079 741.666, 1071.215 731.093, 1063.067 722 C 1054.005 711.887, 1039.971 698.017, 1038.789 698.006 C 1038.398 698.003, 1035.572 695.959, 1032.508 693.464 C 1029.445 690.969, 1025.940 688.495, 1024.720 687.966 C 1022.400 686.962, 1020.208 685.698, 1015.981 682.931 C 1014.595 682.023, 1012.345 680.941, 1010.981 680.526 C 1009.616 680.110, 1007.600 679.004, 1006.500 678.069 C 1005.400 677.133, 1001.125 675.086, 997 673.521 C 992.875 671.955, 987.530 669.847, 985.123 668.837 C 982.715 667.827, 979.678 667, 978.373 667 C 977.068 667, 976 666.502, 976 665.893 C 976 665.284, 975.354 665.034, 974.565 665.337 C 973.775 665.640, 972.988 665.481, 972.815 664.983 C 972.642 664.485, 969.575 663.381, 966 662.528 C 962.425 661.676, 957.192 660.303, 954.371 659.476 C 951.551 658.650, 945.515 657.507, 940.959 656.936 C 936.404 656.364, 931.879 655.470, 930.904 654.949 C 929.929 654.427, 927.296 654, 925.052 654 C 922.809 654, 920.149 653.485, 919.141 652.856 C 917.448 651.799, 917.620 651.387, 921.405 647.425 C 923.657 645.068, 926.395 641.420, 927.490 639.319 C 928.584 637.219, 931.132 633.727, 933.151 631.560 C 937.353 627.051, 944.417 614.904, 945.407 610.484 C 945.774 608.843, 946.925 606.385, 947.963 605.023 C 949.770 602.652, 950.049 602.598, 954.440 603.773 C 962.266 605.866, 971.029 605.358, 976.404 602.500 C 978.990 601.125, 981.553 600, 982.100 600 C 983.660 600, 999 590.921, 999 589.998 C 999 589.543, 1001.221 587.540, 1003.937 585.547 C 1012.128 579.534, 1022.213 563.778, 1027.330 549 C 1029.928 541.497, 1032.535 518, 1030.770 518 C 1030.347 518, 1029.993 516.538, 1029.984 514.750 C 1029.940 505.580, 1023.622 490.798, 1017.081 484.563 C 1013.176 480.840, 1013.213 479.290, 1017.325 474.430 C 1021.018 470.065, 1023.756 465.232, 1027.199 457 C 1030.092 450.086, 1030.366 435.455, 1027.698 430.351 C 1026.212 427.505, 1026.200 426.907, 1027.573 424.153 C 1028.410 422.477, 1029.951 420.833, 1030.997 420.501 C 1033.728 419.634, 1042.890 403.881, 1042.969 399.917 C 1042.986 399.046, 1043.338 397.996, 1043.750 397.583 C 1044.162 397.171, 1044.539 396.533, 1044.586 396.167 C 1044.634 395.800, 1045.084 394.600, 1045.586 393.500 C 1046.952 390.511, 1046.675 369.725, 1045.263 369.254 C 1044.630 369.043, 1044.323 368.322, 1044.581 367.651 C 1045.552 365.120, 1038.163 352.399, 1031.628 345.351 C 1027.983 341.419, 1025 337.506, 1025 336.654 C 1025 335.803, 1026.125 332.990, 1027.500 330.404 C 1028.875 327.818, 1030 324.494, 1030 323.018 C 1030 321.541, 1030.263 320.070, 1030.585 319.748 C 1031.374 318.959, 1031.663 301.999, 1030.888 302 C 1030.551 302, 1029.997 299.633, 1029.657 296.739 C 1028.395 285.999, 1022.787 275.053, 1013.873 265.931 C 1003.752 255.574, 993.306 250.302, 981.527 249.606 C 978.037 249.399, 974.759 248.969, 974.242 248.649 C 973.725 248.330, 973.021 244.341, 972.678 239.784 C 972.125 232.449, 971.468 230.334, 966.941 221.328 C 964.129 215.733, 960.967 210.375, 959.914 209.423 C 958.861 208.470, 957.974 207.197, 957.943 206.595 C 957.829 204.384, 943.285 193.406, 935.500 189.654 C 925.662 184.912, 901.230 184.593, 891.100 189.074 C 887.086 190.850, 886.530 190.885, 884.959 189.463 C 884.009 188.603, 882.679 185.926, 882.004 183.514 C 881.329 181.102, 880.185 178.901, 879.464 178.624 C 878.742 178.347, 877.362 176.458, 876.397 174.425 C 874.538 170.508, 864.431 159, 862.849 159 C 862.334 159, 860.699 157.875, 859.217 156.500 C 857.734 155.125, 855.876 154, 855.089 154 C 854.302 154, 852.947 153.359, 852.079 152.576 C 850.488 151.142, 836.177 147, 832.812 147 C 831.815 147, 831 146.550, 831 146 C 831 144.747, 805.346 144.631, 804.574 145.881 M 806.500 165.562 C 798.666 167.099, 787.958 172.262, 781.316 177.704 C 778.893 179.690, 773.959 184.853, 770.351 189.179 C 765.059 195.524, 764.019 197.318, 764.969 198.462 C 766.297 200.063, 769 199.442, 769 197.536 C 769 195.908, 778.908 186, 780.536 186 C 781.223 186, 782.045 185.326, 782.361 184.502 C 783.047 182.713, 791.187 178.845, 799.500 176.359 C 809.225 173.450, 826.210 173.875, 837.167 177.302 C 849.743 181.236, 859.167 189.292, 863 199.385 C 863.825 201.557, 865.062 203.522, 865.749 203.751 C 867.544 204.348, 868.447 201.245, 867.224 198.683 C 866.650 197.482, 865.908 195.825, 865.574 195 C 865.241 194.175, 863.634 191.475, 862.004 189 C 860.374 186.525, 858.603 183.515, 858.068 182.311 C 857.533 181.107, 856.090 179.583, 854.861 178.926 C 853.632 178.268, 851.705 176.872, 850.580 175.823 C 846.704 172.212, 840.233 169.059, 831.516 166.533 C 821.818 163.722, 816.855 163.530, 806.500 165.562 M 714.500 169.683 C 712.850 169.955, 711.050 170.528, 710.500 170.958 C 709.950 171.387, 707.120 172.296, 704.211 172.978 C 698.286 174.367, 685.762 182.133, 682.220 186.615 C 675.851 194.673, 674 197.403, 674 198.736 C 674 199.540, 673.293 201.687, 672.430 203.507 C 671.566 205.327, 671.032 208.320, 671.242 210.158 L 671.625 213.500 672.453 209.172 C 673.054 206.029, 673.901 204.608, 675.548 203.982 C 676.981 203.437, 678.077 201.928, 678.527 199.878 C 679.494 195.475, 692.495 182.641, 697.681 180.970 C 699.782 180.293, 701.950 179.387, 702.500 178.957 C 704.070 177.730, 715.963 175.778, 721.694 175.808 C 731.855 175.861, 746.367 180.187, 747.657 183.548 C 748.528 185.818, 750 185.252, 750 182.646 C 750 180.870, 748.589 179.396, 744.255 176.646 C 741.096 174.641, 737.833 172.997, 737.005 172.994 C 736.177 172.990, 734.229 172.325, 732.674 171.514 C 729.618 169.920, 719.345 168.885, 714.500 169.683 M 899.371 204.972 C 891.387 206.678, 882.339 212.672, 884.494 214.828 C 884.792 215.125, 887.165 214.852, 889.768 214.221 C 902.827 211.053, 906.301 210.790, 914.513 212.352 C 923.341 214.032, 933.438 218.213, 934.958 220.818 C 935.498 221.743, 935.953 222.193, 935.970 221.817 C 935.986 221.442, 938.343 223.562, 941.207 226.529 C 944.990 230.449, 947.172 233.896, 949.186 239.141 C 953.792 251.133, 955.139 250.690, 952.653 238 C 950.139 225.172, 938.478 212.322, 924.243 206.694 C 919.192 204.697, 905.195 203.728, 899.371 204.972 M 869.004 212.781 C 869.001 214.819, 869.585 216.287, 870.543 216.655 C 873.070 217.624, 873.232 216.429, 871.058 212.863 L 869.007 209.500 869.004 212.781 M 628.604 212.593 C 618.073 215.142, 608.111 222.597, 600.513 233.618 C 597.922 237.375, 595.066 245.700, 595.063 249.500 C 595.061 252.230, 595.160 252.320, 596.167 250.500 C 596.775 249.400, 598.190 247.488, 599.311 246.250 C 600.432 245.012, 601.055 244, 600.696 244 C 599.770 244, 607.051 233.012, 610.022 229.925 C 611.385 228.510, 613.175 227.050, 614 226.682 C 614.825 226.313, 618.408 224.179, 621.962 221.938 C 627.360 218.535, 629.666 217.726, 635.962 217.028 C 640.108 216.569, 645.744 216.544, 648.487 216.974 C 653.505 217.760, 656 217.442, 656 216.015 C 656 214.436, 653.316 213.304, 646.885 212.168 C 638.712 210.725, 636.072 210.786, 628.604 212.593 M 953.003 266.496 C 952.006 267.698, 951.966 268.631, 952.832 270.530 C 954.126 273.371, 955.627 273.594, 959.597 271.534 C 962.370 270.095, 966.537 270.375, 968.450 272.129 C 968.972 272.608, 970.449 273, 971.732 273 C 975.520 273, 985.531 276.750, 990.181 279.910 C 999.587 286.303, 1006.121 295.795, 1007.959 305.736 C 1008.532 308.833, 1009 311.510, 1009 311.684 C 1009 311.858, 1009.506 312, 1010.125 312 C 1012.116 312, 1010.536 296.123, 1008.075 291.400 C 1004.381 284.309, 991.362 272.097, 988.250 272.804 C 987.563 272.960, 987 272.639, 987 272.091 C 987 269.810, 972.663 266.964, 966.682 268.058 C 962.903 268.749, 959.802 268.015, 954.900 265.269 C 954.570 265.085, 953.716 265.637, 953.003 266.496 M 584 277.694 C 582.625 277.926, 580.082 278.765, 578.349 279.558 C 576.616 280.351, 574.884 281, 574.500 281 C 573.220 281, 564.773 290.433, 561.441 295.582 C 557.713 301.345, 556.554 306.127, 557.827 310.500 C 558.668 313.392, 558.743 313.296, 559.902 307.840 C 560.608 304.515, 562.115 301.089, 563.552 299.538 C 564.899 298.085, 566 296.342, 566 295.664 C 566 294.317, 576.060 284, 577.374 284 C 577.820 284, 579.329 283.100, 580.727 282 C 582.126 280.900, 584.522 280, 586.053 280 C 589.445 280, 592 279.095, 592 277.893 C 592 276.995, 588.640 276.911, 584 277.694 M 679.462 296.250 C 678 301.144, 665.864 318, 663.803 318 C 663.350 318, 660.676 319.619, 657.860 321.599 C 648.177 328.404, 641.618 329.725, 628.795 327.449 C 624.660 326.715, 624.519 326.951, 623.645 336 C 622.736 345.414, 617.922 354.726, 610.979 360.500 C 604.941 365.522, 604.645 366.220, 604.399 376 C 604.051 389.891, 602.195 409.060, 601.067 410.419 C 600.490 411.115, 600.303 411.969, 600.651 412.318 C 601 412.666, 600.687 413.672, 599.957 414.552 C 598.847 415.889, 598.865 416.302, 600.064 417.061 C 602.087 418.341, 601.966 418.382, 608.017 414.397 C 611.133 412.344, 616.566 410.006, 620.638 408.965 C 624.570 407.959, 630.522 405.756, 633.865 404.068 C 637.208 402.381, 641.193 400.997, 642.721 400.994 C 644.250 400.990, 646.850 400.242, 648.500 399.330 C 650.857 398.028, 654.323 397.666, 664.662 397.641 C 672.516 397.622, 678.364 398.039, 679.162 398.674 C 679.898 399.260, 682.300 400.056, 684.500 400.443 C 686.700 400.830, 689.934 401.982, 691.687 403.003 C 693.440 404.023, 697.040 405.181, 699.687 405.575 C 706.162 406.538, 716.746 410.475, 728.387 416.252 C 733.979 419.027, 738.264 421.783, 745.255 427.101 C 749.520 430.345, 753.233 433, 753.505 433 C 754.300 433, 769.998 448.924, 770.017 449.750 C 770.053 451.320, 774.874 455, 776.895 455 C 778.057 455, 780.686 454.100, 782.739 453 C 784.791 451.900, 787.625 451, 789.035 451 C 790.446 451, 792.028 450.606, 792.550 450.125 C 794.775 448.076, 815.378 445.724, 825.367 446.379 C 836.312 447.096, 848.401 448.750, 851.500 449.955 C 862.286 454.148, 864.738 455.001, 866.019 455.010 C 868.350 455.025, 877.908 459.751, 881.363 462.596 C 883.089 464.017, 885.926 467.041, 887.669 469.317 L 890.838 473.455 910.855 473.736 C 926.101 473.950, 931.062 473.717, 931.669 472.758 C 932.108 472.066, 932.558 469.250, 932.668 466.500 C 932.849 462.008, 932.473 461.028, 928.968 456.859 C 923.560 450.429, 921.727 445.101, 921.273 434.500 C 920.939 426.702, 921.229 424.595, 923.444 418.727 C 926.692 410.122, 926.686 408.211, 923.411 406.966 C 919.814 405.599, 909.738 395.303, 906.875 390.069 C 905.569 387.682, 903.944 384.777, 903.265 383.614 C 902.507 382.317, 902.024 377.567, 902.015 371.327 C 902.001 361.834, 902.173 360.948, 904.585 358.081 C 908.608 353.300, 907.648 352.687, 895.946 352.568 C 888.291 352.491, 884.499 351.997, 881.755 350.720 C 879.695 349.761, 877.819 349.095, 877.585 349.239 C 877.352 349.382, 876.112 348.560, 874.831 347.412 C 873.549 346.263, 870.813 344.314, 868.750 343.080 C 865.072 340.880, 858 333.182, 858 331.379 C 858 330.876, 856.840 328.757, 855.421 326.669 C 853.772 324.242, 852.640 320.915, 852.281 317.437 C 851.786 312.641, 851.456 312, 849.483 312 C 848.252 312, 846.707 312.648, 846.050 313.440 C 845.392 314.232, 841.175 316.343, 836.677 318.131 C 829.016 321.177, 827.743 321.379, 816.500 321.342 C 806.356 321.308, 803.727 320.960, 799.500 319.094 C 788.497 314.235, 785.732 312.454, 782.750 308.301 C 781.051 305.936, 779.149 304, 778.523 304 C 777.897 304, 776.577 302.168, 775.589 299.929 C 774.601 297.690, 773.161 295.615, 772.389 295.319 C 771.617 295.023, 769.284 296.318, 767.204 298.197 C 763.901 301.181, 759.801 304.122, 752.484 308.756 C 746.408 312.604, 737.502 315.189, 728.314 315.772 C 721.125 316.229, 708.106 313.633, 704.760 311.077 C 703.517 310.127, 700.025 307.948, 697 306.234 C 693.975 304.520, 689.494 301.066, 687.042 298.559 C 682.049 293.453, 680.444 292.964, 679.462 296.250 M 1012 355.031 C 1012 355.599, 1012.675 356.322, 1013.500 356.638 C 1014.325 356.955, 1015 357.779, 1015 358.469 C 1015 359.160, 1016.350 361.424, 1018 363.500 C 1019.650 365.576, 1021 367.833, 1021 368.515 C 1021 369.197, 1021.675 370.315, 1022.500 371 C 1023.776 372.059, 1024 371.800, 1024 369.257 C 1024 366.192, 1021.978 362.930, 1016.577 357.282 C 1013.385 353.944, 1012 353.263, 1012 355.031 M 227.358 364.772 C 226.180 365.723, 224.534 367.860, 223.700 369.523 C 222.264 372.385, 222.447 373.529, 227.124 390.960 C 229.842 401.087, 232.421 409.852, 232.857 410.437 C 233.293 411.022, 234.388 414.200, 235.292 417.500 C 243.016 445.713, 243.331 446.420, 248.908 448.091 C 253.711 449.529, 259.236 447.378, 261.378 443.235 C 262.701 440.677, 262.716 439.484, 261.501 433.676 C 260.738 430.026, 259.377 425.489, 258.478 423.594 C 257.578 421.699, 256.229 417.527, 255.480 414.324 C 252.078 399.785, 246.033 378.225, 244.595 375.500 C 243.725 373.850, 243.010 371.953, 243.006 371.285 C 243.003 370.616, 241.603 368.479, 239.896 366.535 C 237.397 363.688, 236.083 363.004, 233.146 363.022 C 231.141 363.034, 228.536 363.822, 227.358 364.772 M 801.774 408.701 C 791.472 411.405, 786.076 420.350, 790.719 427.027 C 795.171 433.430, 799.121 434.696, 809.085 432.915 C 817.186 431.468, 833.193 433.061, 838.500 435.843 C 840.150 436.708, 841.725 437.473, 842 437.542 C 842.275 437.611, 843.850 438.238, 845.500 438.935 C 853.912 442.489, 860.834 440.727, 863.497 434.354 C 865.419 429.752, 865.406 426.024, 863.456 423.240 C 861.733 420.780, 853.738 415, 852.059 415 C 851.465 415, 849.071 414.112, 846.739 413.026 C 840.851 410.284, 822.906 406.987, 814.500 407.102 C 810.650 407.155, 804.923 407.875, 801.774 408.701 M 648.687 421.044 C 646.040 421.488, 642.732 422.601, 641.335 423.516 C 639.939 424.431, 637.942 424.957, 636.899 424.684 C 635.856 424.411, 634.786 424.537, 634.522 424.965 C 634.258 425.392, 632.645 426.021, 630.939 426.362 C 629.232 426.704, 624.039 428.787, 619.399 430.991 C 614.758 433.196, 610.705 435, 610.391 435 C 610.077 435, 609.073 435.885, 608.160 436.968 C 607.247 438.050, 603.575 440.367, 600 442.117 C 590.524 446.755, 567 470.888, 567 475.970 C 567 476.580, 566.008 478.974, 564.795 481.290 C 563.583 483.605, 562.551 485.725, 562.503 486 C 562.455 486.275, 561.418 488.704, 560.198 491.398 C 558.979 494.092, 557.589 498.592, 557.109 501.398 C 556.629 504.204, 555.453 509.425, 554.494 513 C 552.259 521.336, 552.786 552.690, 555.284 560 C 556.129 562.475, 557.141 566.525, 557.531 569 C 557.921 571.475, 559.336 575.473, 560.675 577.885 C 562.015 580.296, 562.880 582.871, 562.597 583.607 C 562.315 584.343, 562.904 585.520, 563.908 586.223 C 564.911 586.925, 566.042 588.916, 566.422 590.646 C 566.802 592.377, 567.988 594.584, 569.057 595.551 C 570.126 596.519, 571 597.859, 571 598.530 C 571 600.849, 584.611 616.753, 592.042 623.117 C 602.304 631.906, 607.290 635.145, 621.500 642.255 C 630.485 646.750, 645.023 649.957, 660.500 650.859 C 676.262 651.777, 686.897 650.678, 697.248 647.059 C 702.060 645.376, 706.886 644, 707.973 644 C 710.058 644, 727.367 635.409, 735 630.586 C 740.966 626.816, 760.163 607.481, 762.918 602.466 C 764.117 600.285, 765.731 597.375, 766.505 596 C 767.908 593.506, 769.921 588.967, 773.819 579.500 C 774.952 576.750, 776.143 572.858, 776.466 570.851 C 776.789 568.844, 777.727 565.850, 778.551 564.199 C 783.027 555.225, 782.762 509.060, 778.217 506.104 C 777.706 505.772, 776.961 503.721, 776.561 501.547 C 776.161 499.372, 774.971 495.903, 773.917 493.836 C 772.862 491.770, 772 489.380, 772 488.525 C 772 486.667, 767.380 478.607, 761.953 471 C 756.343 463.134, 739.528 446.435, 733.029 442.274 C 729.988 440.328, 726.375 437.898, 725 436.876 C 720.561 433.575, 715.891 431.400, 700.500 425.464 C 699.400 425.040, 697.677 424.796, 696.671 424.923 C 695.665 425.049, 693.360 424.450, 691.549 423.590 C 684.787 420.381, 661.032 418.970, 648.687 421.044 M 128.822 425.626 C 121.505 429.489, 118.825 437.526, 123.250 442.332 C 126.927 446.326, 152.797 468.969, 162.500 476.687 C 167.450 480.624, 172.766 485.005, 174.313 486.423 C 175.860 487.840, 177.547 489, 178.063 489 C 178.578 489, 179 489.444, 179 489.987 C 179 491.187, 185.475 494, 188.238 494 C 190.848 494, 198 486.136, 198 483.266 C 198 480.490, 195.593 477.916, 180.500 464.555 C 173.900 458.712, 165.969 451.603, 162.876 448.758 C 159.782 445.912, 156.637 443.379, 155.887 443.129 C 155.137 442.879, 149.509 438.473, 143.382 433.337 C 137.255 428.202, 132.075 424.048, 131.871 424.106 C 131.667 424.164, 130.295 424.848, 128.822 425.626 M 645.500 430.990 C 640 431.991, 634.263 433.303, 632.750 433.905 C 626.828 436.263, 624.480 437.142, 624 437.180 C 623.725 437.202, 622.375 438.004, 621 438.963 C 619.625 439.921, 616.126 441.884, 613.224 443.324 C 610.323 444.765, 604.135 449.129, 599.473 453.022 C 591.032 460.073, 578 474.967, 578 477.565 C 578 478.315, 577.152 479.384, 576.115 479.938 C 575.078 480.493, 573.925 482.197, 573.552 483.724 C 573.180 485.251, 571.375 489.680, 569.543 493.566 C 567.663 497.553, 565.717 503.814, 565.078 507.936 C 564.454 511.954, 563.282 516.187, 562.472 517.343 C 560.761 519.786, 560.306 545.453, 561.956 546.473 C 562.482 546.798, 562.667 547.703, 562.368 548.484 C 562.068 549.265, 562.194 550.488, 562.647 551.202 C 563.100 551.916, 564.218 555.875, 565.132 560 C 568.390 574.706, 571.701 582.519, 579.755 594.500 C 585.353 602.829, 597.879 617.813, 599.342 617.932 C 599.805 617.969, 601.380 618.935, 602.842 620.077 C 610.164 625.797, 618.358 631.145, 621.733 632.404 C 623.805 633.177, 628.875 635.021, 633 636.501 C 637.125 637.981, 640.928 639.599, 641.450 640.096 C 641.973 640.593, 644.027 641, 646.016 641 C 648.005 641, 652.303 641.501, 655.566 642.114 C 663.871 643.673, 689.795 641.612, 695.739 638.920 C 698.071 637.864, 700.714 637, 701.614 637 C 703.442 637, 713.373 632.978, 719.500 629.757 C 730.229 624.117, 747.774 607.466, 756.399 594.740 C 758.380 591.817, 765.370 578.224, 765.522 577 C 765.556 576.725, 766.315 575.131, 767.210 573.459 C 768.104 571.786, 769.339 567.061, 769.955 562.959 C 770.571 558.856, 771.482 553.250, 771.978 550.500 C 773.324 543.047, 773.175 532.304, 771.595 522.881 C 770.822 518.271, 769.879 512.256, 769.498 509.513 C 769.118 506.770, 768.081 503.170, 767.195 501.513 C 766.309 499.856, 765.526 498.275, 765.456 498 C 765.053 496.431, 763.730 493.298, 762.921 492 C 762.408 491.175, 761.699 489.825, 761.346 489 C 758.062 481.318, 755.972 477.664, 753.139 474.648 C 751.963 473.396, 751 471.863, 751 471.242 C 751 470.621, 750.208 469.525, 749.240 468.807 C 748.272 468.088, 746.184 465.925, 744.600 464 C 736.684 454.380, 721.394 442.894, 712.741 440.067 C 710.673 439.391, 708.423 438.313, 707.741 437.669 C 706.071 436.096, 694.280 432.447, 684.722 430.547 C 674.537 428.522, 658.039 428.708, 645.500 430.990 M 650.500 447.880 C 646.486 449.658, 638.039 455.705, 638.677 456.344 C 639.038 456.705, 638.863 457, 638.289 457 C 637.714 457, 636.198 459.795, 634.921 463.212 C 633.386 467.316, 630.987 471.095, 627.852 474.348 C 623.568 478.792, 622.792 479.208, 619.876 478.625 C 615.714 477.793, 615.680 477.749, 615.041 472.288 C 614.744 469.743, 613.912 467.465, 613.193 467.228 C 611.886 466.795, 598 480.111, 598 481.797 C 598 482.288, 597.100 483.505, 596 484.500 C 594.900 485.495, 594 487.054, 594 487.964 C 594 488.873, 593.332 490.491, 592.516 491.559 C 591.700 492.626, 590.529 495.296, 589.913 497.491 C 589.297 499.686, 587.983 502.620, 586.992 504.011 C 586.002 505.402, 584.859 508.781, 584.454 511.520 C 584.048 514.259, 583.105 518.244, 582.358 520.376 C 580.754 524.954, 580.603 534.745, 582 543.635 C 582.550 547.136, 583.473 552.989, 584.051 556.641 C 584.629 560.294, 586.204 565.353, 587.551 567.883 C 588.898 570.414, 590 573.083, 590 573.814 C 590 575.857, 594.828 583.813, 600.305 590.795 C 603.598 594.992, 606.882 597.920, 610.160 599.581 C 612.863 600.951, 615.573 603.165, 616.182 604.500 C 616.790 605.835, 619.023 608.069, 621.144 609.464 C 623.265 610.859, 626.688 613.094, 628.750 614.430 C 630.813 615.767, 634.300 617.185, 636.500 617.581 C 638.700 617.978, 641.451 618.920, 642.612 619.676 C 643.774 620.431, 647.701 621.327, 651.339 621.667 C 657.245 622.219, 658.022 622.082, 658.597 620.392 C 660.567 614.602, 663.778 609.263, 666.916 606.561 C 668.871 604.877, 671.511 602.487, 672.781 601.250 C 674.051 600.013, 675.645 599, 676.323 599 C 677.001 599, 678.508 598.332, 679.674 597.516 C 680.839 596.700, 685.102 594.874, 689.146 593.460 C 693.191 592.045, 697.480 590.404, 698.678 589.813 C 699.876 589.223, 702.024 588.963, 703.452 589.236 C 704.880 589.508, 706.289 589.342, 706.583 588.866 C 707.328 587.661, 712.745 587.778, 713.510 589.016 C 713.856 589.575, 714.580 589.760, 715.119 589.426 C 716.321 588.684, 722.256 591.399, 723.985 593.482 C 726.024 595.939, 730.215 595.309, 733.253 592.090 C 734.764 590.489, 736 588.669, 736 588.044 C 736 587.420, 737.118 585.791, 738.485 584.424 C 739.852 583.057, 742.133 579.365, 743.553 576.219 C 744.973 573.074, 746.724 569.375, 747.443 568 C 748.161 566.625, 749.066 563.250, 749.452 560.500 C 749.838 557.750, 751.020 554.012, 752.077 552.193 C 753.724 549.360, 754 546.886, 754 534.943 C 754 527.274, 753.605 521, 753.121 521 C 751.944 521, 750.275 516.499, 749.445 511.083 C 749.073 508.654, 747.922 505.279, 746.888 503.583 C 745.854 501.887, 745.006 499.671, 745.004 498.658 C 745.002 497.644, 744.100 495.671, 743 494.273 C 741.900 492.874, 741 491.171, 741 490.488 C 741 489.804, 740.297 488.662, 739.438 487.949 C 738.579 487.236, 736.346 484.347, 734.475 481.529 C 726.468 469.466, 708.861 456.383, 695.277 452.404 C 692.405 451.562, 688.599 450.148, 686.820 449.260 C 683.128 447.418, 654.038 446.313, 650.500 447.880 M 802.175 469.076 C 799.246 470.085, 794.859 472.169, 792.427 473.706 C 788.552 476.153, 788.003 476.940, 788.002 480.050 C 788 483.682, 789.422 486, 791.652 486 C 792.341 486, 796.007 482.962, 799.799 479.250 C 803.591 475.538, 807.437 471.920, 808.347 471.211 C 810.286 469.698, 810.557 466.947, 808.750 467.120 C 808.063 467.186, 805.104 468.066, 802.175 469.076 M 675.450 474.865 C 674.928 475.341, 671.575 476.265, 668 476.919 C 657.433 478.853, 649.831 483.314, 643.443 491.332 C 635.154 501.735, 633.381 505.448, 630.866 517.669 L 628.567 528.837 630.934 538.669 C 634.167 552.100, 635.901 555.207, 645.776 565.278 C 648.606 568.165, 659.553 574, 662.138 574 C 662.952 574, 664.456 574.613, 665.480 575.362 C 666.504 576.111, 668.165 576.508, 669.171 576.245 C 670.177 575.982, 671 576.269, 671 576.883 C 671 578.343, 683.642 578.388, 684.542 576.932 C 684.905 576.344, 685.817 576.100, 686.569 576.388 C 687.321 576.677, 688.181 576.517, 688.480 576.033 C 688.779 575.549, 691.234 574.419, 693.935 573.522 C 696.636 572.624, 699.386 571.240, 700.045 570.445 C 700.705 569.650, 701.938 569, 702.785 569 C 704.486 569, 719 554.238, 719 552.508 C 719 551.911, 719.920 549.640, 721.045 547.461 C 722.170 545.283, 723.778 539.675, 724.618 535 C 727.174 520.770, 723.892 503.536, 716.799 493.942 C 715.603 492.324, 714.034 491, 713.312 491 C 712.590 491, 712 490.568, 712 490.040 C 712 487.265, 695.321 477, 690.812 477 C 689.999 477, 689.009 476.676, 688.613 476.280 C 688.217 475.884, 686.387 475.689, 684.547 475.848 C 682.707 476.006, 680.905 475.655, 680.542 475.068 C 679.748 473.782, 676.769 473.664, 675.450 474.865 M 984.500 488 C 984.160 488.550, 982.896 489.009, 981.691 489.019 C 980.486 489.029, 977.293 490.492, 974.597 492.269 C 971.900 494.046, 968.815 496.015, 967.741 496.645 C 964.628 498.471, 960.261 507.004, 958.867 513.987 C 958.241 517.125, 956.963 519.380, 954.617 521.487 C 950.101 525.544, 949.538 527.931, 951.680 533.961 C 953.385 538.762, 953.388 539.230, 951.735 543.884 C 949.710 549.584, 949.529 553.129, 951.176 554.776 C 953.190 556.790, 952.680 565.084, 950.190 570.824 C 948.920 573.753, 948.020 577.094, 948.190 578.249 C 948.681 581.579, 956.201 585, 963.030 585 C 970.907 585, 982.597 580.140, 989.229 574.109 C 991.280 572.244, 993.867 570.081, 994.979 569.302 C 996.090 568.524, 997 567.292, 997 566.566 C 997 565.839, 997.657 564.700, 998.460 564.033 C 999.656 563.041, 1006.256 550.762, 1006.541 549 C 1006.585 548.725, 1007.467 546.700, 1008.500 544.500 C 1010.085 541.127, 1010.389 537.985, 1010.440 524.456 C 1010.494 510.087, 1010.294 508.103, 1008.526 505.456 C 1007.440 503.830, 1006.540 502.162, 1006.526 501.750 C 1006.512 501.337, 1005.233 499.412, 1003.684 497.471 C 1000.174 493.072, 993.846 489, 990.520 489 C 989.134 489, 988 488.550, 988 488 C 988 487.450, 987.352 487, 986.559 487 C 985.766 487, 984.840 487.450, 984.500 488 M 895.811 497.250 C 894.911 497.966, 893.990 500.787, 893.655 503.856 C 893.333 506.802, 892.669 509.727, 892.179 510.356 C 891.689 510.985, 890.749 513.709, 890.090 516.408 C 889.431 519.108, 888.241 522.246, 887.446 523.381 C 886.651 524.516, 886 526.252, 886 527.238 C 886 532.482, 871.130 551.068, 862.709 556.350 C 857.488 559.623, 850.706 563, 849.351 563 C 848.608 563, 848 563.353, 848 563.785 C 848 564.217, 845.638 565.070, 842.750 565.681 C 839.862 566.293, 835.700 567.279, 833.500 567.873 C 827.702 569.438, 816.284 569.238, 809.968 567.462 C 806.961 566.617, 802.635 565.663, 800.354 565.344 L 796.209 564.763 795.854 569.632 C 795.294 577.322, 795.777 578.569, 800.461 581.530 C 802.854 583.042, 805.417 585.441, 806.156 586.861 C 806.895 588.281, 808.962 591.638, 810.750 594.322 C 812.538 597.005, 814.014 599.718, 814.031 600.350 C 814.048 600.983, 815.169 603.750, 816.522 606.500 C 818.067 609.640, 818.985 613.245, 818.991 616.191 C 818.996 618.771, 819.469 621.172, 820.043 621.527 C 820.617 621.881, 822.612 621.008, 824.476 619.586 C 828.459 616.548, 832.914 616.255, 837.194 618.750 L 840.197 620.500 843.849 616.370 C 845.857 614.099, 848.483 611.737, 849.684 611.120 C 852.512 609.670, 857.284 609.684, 858.747 611.147 C 859.610 612.010, 860.411 611.418, 861.978 608.761 C 864.205 604.988, 870.583 600, 873.181 600 C 874.047 600, 875.315 600.675, 876 601.500 C 877.973 603.877, 878.689 603.363, 881.967 597.214 C 885.200 591.148, 888.922 588.336, 894.442 587.791 C 896.860 587.552, 897.542 586.889, 898.267 584.071 C 899.666 578.638, 904.702 572, 907.426 572 C 910.236 572, 911.627 570.484, 912.478 566.494 C 914.885 555.209, 918.156 549.448, 923.091 547.803 C 923.742 547.586, 924.541 544.312, 924.900 540.389 C 925.438 534.519, 926.075 532.693, 928.772 529.288 C 932.329 524.797, 932.748 521.958, 930.494 517.636 C 928.744 514.281, 928.486 507, 930.117 507 C 930.731 507, 931.018 506.177, 930.755 505.171 C 930.492 504.165, 930.886 502.509, 931.630 501.491 C 932.786 499.910, 932.743 499.374, 931.337 497.820 C 929.874 496.203, 927.887 496, 913.536 496 C 902.118 496, 896.922 496.366, 895.811 497.250 M 655.731 499.759 C 654.229 501.327, 653 503.147, 653 503.805 C 653 504.462, 652.625 505, 652.167 505 C 650.325 505, 651.720 509.509, 653.651 509.796 C 656.105 510.161, 665.218 501.386, 664.782 499.078 C 664.232 496.169, 658.778 496.579, 655.731 499.759 M 89.354 540.708 C 88.174 540.930, 86.417 541.987, 85.449 543.056 C 84.482 544.125, 82.860 545, 81.845 545 C 80.275 545, 80 545.821, 80 550.500 C 80 555.104, 80.290 556, 81.778 556 C 82.756 556, 84.287 556.854, 85.180 557.898 C 86.985 560.005, 98.552 563, 104.888 563 C 107.085 563, 109.117 563.381, 109.405 563.847 C 109.693 564.313, 114.107 564.994, 119.214 565.360 C 124.321 565.727, 131.425 566.680, 135 567.478 C 138.575 568.276, 145.975 568.946, 151.445 568.965 C 160.898 568.998, 161.529 568.867, 164.195 566.313 C 167.453 563.192, 167.941 558.193, 165.470 553.241 C 163.082 548.454, 162.401 548.311, 121.500 544.033 C 116 543.458, 108.575 542.555, 105 542.027 C 94.979 540.547, 91.684 540.269, 89.354 540.708 M 780.867 609.552 C 777.432 616.429, 769.265 625.781, 759.461 634.064 C 750.583 641.565, 748.589 644, 751.328 644 C 752.690 644, 754.394 645.742, 759.195 652.046 L 760.890 654.272 765.695 651.952 C 768.387 650.653, 773.515 649.334, 777.356 648.954 C 781.543 648.539, 784.524 647.735, 785.012 646.887 C 785.452 646.124, 786.522 644.600, 787.390 643.500 C 795.385 633.371, 795.001 634.275, 794.979 625.612 C 794.959 617.870, 794.775 617.215, 790.955 611.250 C 786.013 603.535, 784.038 603.202, 780.867 609.552 M 706 607.500 C 704.075 608.241, 701.685 608.882, 700.688 608.924 C 699.692 608.966, 696.317 610.226, 693.188 611.723 C 690.060 613.221, 687.265 614.459, 686.977 614.473 C 686.689 614.488, 684.942 615.683, 683.093 617.130 C 676.315 622.434, 683.022 623.401, 695 618.846 C 705.342 614.913, 716.207 609.129, 716.783 607.250 C 717.299 605.568, 710.615 605.723, 706 607.500 M 721.500 659.869 C 713.598 663.968, 713.260 664.823, 716.702 672 C 720.698 680.331, 724 688.233, 724 689.466 C 724 690.139, 724.882 691.488, 725.960 692.464 C 728.355 694.631, 732.459 693.879, 734.006 690.988 C 734.726 689.643, 736.111 688.995, 738.285 688.985 C 743.637 688.959, 744.603 687.790, 742.658 683.692 C 741.746 681.770, 741 679.694, 741 679.077 C 741 678.461, 739.902 676.279, 738.561 674.229 C 737.219 672.178, 735.810 669.222, 735.430 667.659 C 734.520 663.923, 730.669 656.691, 729.456 656.438 C 728.930 656.328, 725.350 657.872, 721.500 659.869 M 172.304 662.912 C 165.445 667.189, 165.956 653.512, 166.328 822.891 L 166.665 976.119 169.100 978.555 L 171.535 980.990 352.715 981.005 C 459.042 981.015, 534.125 981.393, 534.451 981.921 C 535.067 982.917, 537.551 982.783, 538.638 981.696 C 539.456 980.877, 595.406 980.740, 596.221 981.554 C 596.525 981.859, 604.138 982.116, 613.137 982.125 L 629.500 982.142 632.839 979.321 L 636.178 976.500 635.960 919 C 635.839 887.375, 635.687 819.200, 635.620 767.500 C 635.485 662.155, 636.035 669.509, 628 665.451 L 623.500 663.178 402.500 662.602 C 280.950 662.285, 180.150 661.777, 178.500 661.473 C 176.471 661.099, 174.465 661.565, 172.304 662.912 M 865 692.677 C 862.525 694.518, 859.934 696.491, 859.242 697.060 C 858.549 697.629, 856.082 698.766, 853.758 699.585 C 851.434 700.405, 848.502 701.751, 847.243 702.577 C 845.983 703.402, 844.401 703.989, 843.727 703.881 C 841.523 703.528, 839.114 705.133, 839.670 706.583 C 839.969 707.362, 840.762 708, 841.433 708 C 842.103 708, 843.708 709.125, 845 710.500 C 846.292 711.875, 848.119 713, 849.061 713 C 852.200 713, 871.486 692.636, 870.268 690.608 C 869.695 689.653, 868.358 690.178, 865 692.677 M 756.345 704.250 C 756.090 704.663, 754.930 705, 753.766 705 C 751.191 705, 738.883 709.207, 733.807 711.823 C 728.721 714.444, 725.202 717.553, 719.768 724.223 C 710.738 735.311, 708.481 745.828, 713.536 753.268 C 714.931 755.321, 716.535 757, 717.102 757 C 719.001 757, 722 754.943, 722 753.639 C 722 752.233, 725.768 748.381, 728.874 746.611 C 729.947 746, 732.941 744.017, 735.529 742.205 C 740.813 738.504, 745.824 736.453, 754.213 734.555 C 763.988 732.345, 769.012 734.504, 768.985 740.905 C 768.976 742.882, 768.593 745.093, 768.133 745.819 C 767.250 747.212, 757.607 751.994, 755.651 752.009 C 753.440 752.026, 739.988 759.586, 735.513 763.327 C 733.031 765.402, 730.258 768.540, 729.351 770.300 C 728.444 772.060, 726.869 774.088, 725.851 774.807 C 723.350 776.572, 723.127 790.031, 725.566 792.055 C 726.427 792.770, 727.789 794.625, 728.592 796.177 C 729.394 797.730, 730.464 799, 730.969 799 C 731.473 799, 734.800 796.528, 738.362 793.506 C 741.924 790.484, 745.887 787.560, 747.169 787.008 C 748.451 786.456, 750.175 785.617, 751 785.143 C 753.828 783.517, 762.768 781, 765.634 781.022 C 770.423 781.059, 773.487 784.189, 773.363 788.917 C 773.239 793.653, 770.660 796.358, 764.661 798.045 C 751.204 801.830, 739 814.574, 739 824.841 C 739 832.326, 746.115 842.482, 755.118 847.845 C 760.757 851.204, 764.353 850.210, 760.500 846.357 C 759.675 845.532, 759 843.274, 759 841.339 C 759 836.924, 761.566 834.641, 769 832.439 C 772.025 831.544, 775.063 830.348, 775.750 829.783 C 776.607 829.079, 777.393 829.082, 778.250 829.793 C 778.938 830.363, 779.842 830.861, 780.261 830.899 C 782.421 831.095, 786.106 834.611, 788.035 838.319 C 789.232 840.618, 791.030 844.075, 792.030 846 C 794.219 850.209, 801.986 857.787, 807.500 861.093 C 815.545 865.915, 820.991 867.383, 832.245 867.763 C 842.824 868.119, 843.044 868.176, 846.495 871.430 C 848.935 873.732, 850 875.617, 850 877.635 C 850 879.617, 851.366 882.112, 854.316 885.517 C 856.690 888.258, 860.107 892.668, 861.910 895.318 C 863.714 897.967, 865.822 900.378, 866.595 900.675 C 867.368 900.971, 868 901.764, 868 902.437 C 868 905.324, 917.853 955, 920.749 955 C 921.437 955, 922 955.578, 922 956.284 C 922 956.991, 923.405 958.453, 925.122 959.534 C 928.661 961.762, 930.842 963.224, 937.005 967.500 C 945.834 973.626, 956.176 979.573, 960.461 980.987 C 962.399 981.627, 964.326 982.713, 964.742 983.401 C 965.424 984.527, 967.629 985.456, 977.500 988.780 C 979.150 989.336, 982.750 990.568, 985.500 991.518 C 988.250 992.468, 992.525 993.467, 995 993.738 C 997.475 994.009, 999.783 994.680, 1000.130 995.230 C 1001.106 996.778, 1028.597 996.797, 1030.147 995.250 C 1030.836 994.563, 1032.322 993.998, 1033.450 993.996 C 1034.577 993.993, 1038.459 992.955, 1042.076 991.689 C 1057.135 986.415, 1068.457 976.016, 1075.144 961.315 C 1076.849 957.567, 1079.193 952.475, 1080.353 950 C 1081.513 947.525, 1082.329 945.075, 1082.166 944.555 C 1082.003 944.036, 1082.333 942.686, 1082.898 941.555 C 1087.827 931.702, 1089.932 902.083, 1087.744 873.381 C 1086.900 862.315, 1085.730 852.364, 1085.143 851.267 C 1082.997 847.257, 1061.040 835.849, 1052.839 834.483 C 1046.540 833.435, 1035.140 830.474, 1034.347 829.681 C 1033.163 828.496, 1003.189 828.886, 1002.441 830.096 C 1002.068 830.698, 1000.242 831.014, 998.382 830.796 C 995.751 830.489, 995 830.766, 995 832.046 C 995 833.737, 997.981 837, 999.525 837 C 1002.743 837, 1021 852.407, 1021 855.123 C 1021 856.198, 1019.277 858.925, 1017.171 861.182 C 1013.609 865.001, 1013.080 865.238, 1009.569 864.579 C 1007.494 864.190, 1006.054 863.612, 1006.371 863.296 C 1006.904 862.762, 1004.087 860.938, 998 857.876 C 996.625 857.184, 994.600 855.850, 993.500 854.910 C 992.400 853.971, 987.496 851.085, 982.602 848.498 C 977.708 845.911, 972.308 842.953, 970.602 841.926 C 968.896 840.899, 966.150 839.380, 964.500 838.550 C 962.850 837.719, 960.825 836.592, 960 836.045 C 959.175 835.498, 956.362 834.089, 953.750 832.915 C 951.138 831.740, 949 830.379, 949 829.890 C 949 829.400, 948.365 829, 947.590 829 C 946.814 829, 943.003 827.200, 939.120 825 C 935.238 822.800, 931.739 821, 931.345 821 C 930.951 821, 929.700 820.165, 928.564 819.145 C 926.459 817.254, 921.277 814.335, 915 811.506 C 909.421 808.991, 905.652 806.871, 903.500 805.037 C 900.349 802.352, 892.310 798, 890.500 798 C 885.167 798, 875.278 788.122, 872.013 779.533 C 871.454 778.065, 869.873 775.389, 868.499 773.587 C 867.124 771.785, 866 770.054, 866 769.739 C 866 769.425, 863.638 765.744, 860.750 761.561 C 857.862 757.377, 853.588 751.152, 851.250 747.727 C 848.913 744.302, 846.325 740.621, 845.500 739.547 C 844.675 738.472, 844 737.235, 844 736.797 C 844 736.358, 843.356 736, 842.568 736 C 841.781 736, 840.136 734.538, 838.913 732.750 C 835.707 728.064, 828.785 721, 827.399 721 C 826.747 721, 825.955 720.325, 825.638 719.500 C 825.322 718.675, 824.384 718, 823.554 718 C 822.725 718, 821.337 716.918, 820.470 715.595 C 819.604 714.273, 817.681 712.887, 816.197 712.517 C 814.714 712.147, 812.825 711.265, 812 710.557 C 810.161 708.980, 797.100 705, 793.761 705 C 792.426 705, 791.086 704.752, 790.783 704.450 C 789.929 703.595, 756.868 703.404, 756.345 704.250 M 692.645 713.750 C 693.480 717.109, 696.960 722, 698.514 722 C 700.361 722, 704.300 717.223, 703.713 715.694 C 703.276 714.556, 694.815 711, 692.543 711 C 692.223 711, 692.270 712.237, 692.645 713.750 M 220.889 724.287 C 216.001 725.184, 212.065 728.823, 208.250 735.973 L 206 740.189 206 820.928 C 206 865.334, 206.338 902.004, 206.750 902.417 C 207.162 902.829, 207.519 903.467, 207.542 903.833 C 207.641 905.409, 210.997 910.670, 213.155 912.633 C 219.296 918.219, 216.140 918, 290.582 918 C 358.930 918, 359.281 917.990, 362.713 915.869 C 364.609 914.696, 367.925 911.506, 370.081 908.779 L 374 903.820 374 872.577 C 374 855.393, 373.722 841.055, 373.382 840.716 C 372.553 839.887, 372.639 828.938, 373.491 826.811 C 373.863 825.882, 373.728 824.336, 373.191 823.376 C 372.545 822.222, 372.568 821.063, 373.260 819.956 C 373.976 818.809, 374.021 812.059, 373.403 798.542 C 372.906 787.686, 372.837 778.596, 373.250 778.343 C 374.230 777.741, 374.230 740.563, 373.250 739.583 C 372.838 739.171, 372.499 738.533, 372.498 738.167 C 372.496 737.312, 368.225 731.278, 365.202 727.862 C 363.919 726.411, 361.436 724.874, 359.684 724.448 C 355.424 723.409, 226.481 723.260, 220.889 724.287 M 225.758 740.149 C 224.454 740.956, 224.397 898.797, 225.700 900.100 C 226.813 901.213, 353.061 901.339, 354.171 900.229 C 355.327 899.073, 355.017 741.684, 353.857 740.523 C 353.116 739.783, 226.947 739.414, 225.758 740.149 M 420.945 764 C 417.234 764.759, 415.509 766.187, 414.108 769.659 C 412.583 773.437, 413.569 775.845, 417.902 778.930 C 420.769 780.972, 421.689 781, 485.290 781 L 549.772 781 553.386 777.279 C 557.468 773.077, 557.694 771.984, 555.317 767.960 C 554.089 765.881, 552.401 764.825, 549.067 764.051 C 544.488 762.986, 426.130 762.940, 420.945 764 M 945 794.300 C 945 802.499, 945.246 804, 946.590 804 C 947.975 804, 948.090 802.874, 947.481 795.250 C 946.503 783.018, 945 782.442, 945 794.300 M 419.078 809.904 C 415.628 811.539, 413.504 815.886, 414.403 819.468 C 415.745 824.816, 415.608 824.801, 468 825.097 C 494.675 825.248, 525.657 825.287, 536.849 825.185 L 557.198 825 560.099 821.894 C 563.702 818.037, 563.703 817.267, 560.117 812.971 L 557.235 809.518 517.367 809.271 C 495.440 809.135, 465.022 808.906, 449.770 808.762 C 427.616 808.553, 421.445 808.782, 419.078 809.904 M 420.761 854.012 C 413.202 858.105, 412.184 863.856, 418.252 868.184 L 421.500 870.500 483.677 870.683 C 517.874 870.784, 547.124 870.532, 548.677 870.124 C 552.688 869.070, 555.842 863.144, 554.251 859.651 C 551.576 853.781, 550.181 853.524, 519.544 853.244 C 504.120 853.103, 476.425 852.762, 458 852.487 C 425.755 852.006, 424.360 852.063, 420.761 854.012 M 782.411 864.397 C 782.005 865.441, 782.151 867.466, 782.735 868.897 C 783.319 870.329, 784.722 873.750, 785.852 876.500 C 786.983 879.250, 788.154 882.706, 788.456 884.180 C 788.757 885.654, 789.570 887.454, 790.263 888.180 C 790.956 888.906, 792.075 890.747, 792.749 892.270 C 794.300 895.774, 797.355 896.940, 803.249 896.275 C 807.345 895.814, 807.968 895.421, 808.509 892.960 C 809.535 888.290, 808.024 883.198, 804.811 880.494 C 803.181 879.122, 801.188 878, 800.383 878 C 797.570 878, 791.664 872.942, 785.149 864.953 C 783.265 862.643, 783.105 862.611, 782.411 864.397" stroke="none" fill="#171916" fill-rule="evenodd"/>
</svg>