<svg role="img" aria-labelledby="artwork-title" shape-rendering="geometricPrecision" xmlns="http://www.w3.org/2000/svg" width="1200" height="1200" viewBox="0 0 1200 1200" version="1.1">
	<title id="artwork-title">Mascot comparing two project versions</title>
	<path d="M 637 268.928 C 637 269.438, 634.413 270.179, 631.250 270.573 C 624.714 271.387, 617.979 274.016, 613.318 277.571 C 611.566 278.907, 609.702 280, 609.174 280 C 608.646 280, 607.966 280.646, 607.663 281.435 C 607.361 282.224, 606.236 283.338, 605.165 283.912 C 603.585 284.758, 602.490 284.374, 599.359 281.878 C 593.454 277.170, 589.290 275.394, 579.735 273.508 C 572.159 272.014, 570.058 271.950, 564.235 273.040 C 556.260 274.533, 546.688 277.967, 543.939 280.320 C 542.860 281.244, 541.585 282, 541.106 282 C 539.043 282, 531.546 290.955, 528.578 296.965 C 524.950 304.309, 526.963 303.667, 511.500 302.416 C 495.555 301.126, 480.314 309.627, 470.258 325.418 C 466.512 331.301, 463.788 341.583, 464.481 347.223 C 465.039 351.761, 464.953 351.971, 462.281 352.563 C 455.083 354.159, 452.526 355.599, 446.711 361.333 C 442.364 365.620, 439.905 369.024, 438.645 372.500 C 437.648 375.250, 436.572 378.175, 436.253 379 C 435.934 379.825, 435.596 380.725, 435.503 381 C 435.409 381.275, 434.763 382.850, 434.066 384.500 C 431.875 389.694, 433.388 400.542, 437.451 408.764 C 439.379 412.664, 441.415 416.139, 441.978 416.486 C 443.626 417.505, 443.179 419.943, 440.250 425.904 C 437.858 430.772, 437.504 432.671, 437.529 440.500 C 437.558 449.566, 438.116 451.558, 442.853 459.500 C 443.837 461.150, 445.847 463.087, 447.321 463.805 C 449.995 465.107, 450.928 468.308, 448.984 469.510 C 448.425 469.856, 448.207 470.526, 448.500 471 C 448.793 471.474, 448.575 472.144, 448.016 472.490 C 446.543 473.400, 446.770 478.759, 448.412 481.846 C 452.625 489.766, 455 495.171, 455 496.837 C 455 498.595, 449.573 504, 447.807 504 C 447.363 504, 447 504.427, 447 504.950 C 447 505.472, 445.636 507.921, 443.968 510.392 C 436.825 520.977, 435.243 543.863, 440.722 557.360 C 443.479 564.153, 447.828 571.995, 448.845 572.009 C 449.205 572.013, 451.188 573.617, 453.250 575.572 C 456.842 578.976, 457.002 579.408, 457.044 585.813 C 457.068 589.491, 457.736 594.300, 458.529 596.500 C 459.321 598.700, 459.977 601.288, 459.985 602.250 C 459.993 603.212, 460.405 604, 460.900 604 C 461.395 604, 462.344 606.266, 463.008 609.035 C 463.713 611.972, 465.629 615.761, 467.608 618.129 C 469.474 620.362, 471 623.025, 471 624.048 C 471 626.442, 473.072 631, 474.161 631 C 474.622 631, 475.010 631.563, 475.022 632.250 C 475.034 632.938, 476.947 635.591, 479.272 638.147 C 481.597 640.703, 486.135 645.786, 489.355 649.443 C 493.270 653.889, 496.183 656.287, 498.144 656.679 C 503.058 657.662, 500.725 659.461, 493.615 660.173 C 489.917 660.543, 486.353 661.270, 485.696 661.790 C 485.038 662.309, 482.119 663.037, 479.210 663.407 C 476.300 663.777, 472.925 664.470, 471.710 664.946 C 470.494 665.423, 465.969 666.804, 461.653 668.016 C 457.337 669.228, 452.612 670.842, 451.153 671.603 C 449.694 672.365, 447.768 672.990, 446.872 672.994 C 445.977 672.997, 444.699 673.658, 444.032 674.461 C 443.365 675.265, 441.848 676.208, 440.660 676.556 C 436.750 677.704, 421.280 685.693, 418.500 688 C 416.483 689.674, 413.414 691.503, 410.175 692.961 C 408.896 693.537, 407.176 694.681, 406.353 695.504 C 403.050 698.807, 402.209 697.355, 401.570 687.250 C 400.666 672.942, 398.935 654.723, 398.316 653 C 398.020 652.175, 397.859 648.434, 397.958 644.686 C 398.057 640.938, 397.714 637.338, 397.196 636.686 C 396.228 635.467, 395.993 633.245, 393.580 602.500 C 389.953 556.301, 389.686 555.065, 381.524 546.678 C 373.021 537.941, 371.027 537.455, 345 537.784 C 332.625 537.940, 314.871 538.728, 305.546 539.534 C 296.221 540.340, 283.171 541.008, 276.546 541.018 C 269.921 541.028, 260.450 541.476, 255.500 542.015 C 250.550 542.554, 233.450 543.428, 217.500 543.959 C 188.368 544.928, 174.785 545.737, 172 546.670 C 171.175 546.946, 164.802 547.112, 157.839 547.038 C 149.945 546.954, 144.934 547.298, 144.530 547.952 C 144.173 548.530, 140.565 549, 136.488 549 C 132.421 549, 127.835 549.513, 126.297 550.141 C 114.983 554.754, 110.637 557.735, 109.195 561.871 C 108.668 563.383, 107.602 565.269, 106.828 566.060 C 103.900 569.052, 103.092 576.839, 104.137 592 C 104.686 599.975, 105.526 607.400, 106.002 608.500 C 107.091 611.016, 107.712 616.714, 109.494 640.500 C 110.276 650.950, 111.393 665.800, 111.975 673.500 C 112.557 681.200, 113.465 690.650, 113.993 694.500 C 114.520 698.350, 115.459 708.925, 116.079 718 C 116.699 727.075, 117.460 734.916, 117.770 735.424 C 118.080 735.932, 118.333 737.878, 118.333 739.748 C 118.333 743.033, 118.114 743.224, 111.821 745.423 C 102.864 748.553, 92.313 756.668, 88.570 763.304 C 85.891 768.057, 85.613 769.468, 85.313 779.842 C 85.081 787.838, 84.544 791.812, 83.492 793.314 C 82.672 794.486, 82 796.893, 82 798.663 C 82 800.434, 81.550 802.160, 81 802.500 C 79.773 803.258, 79.676 811.378, 80.866 813.764 C 83.212 818.467, 84.336 823.310, 85.060 831.836 C 85.793 840.459, 86.514 842.841, 90.558 850 C 91.335 851.375, 91.977 853.940, 91.985 855.700 C 91.993 857.460, 92.589 859.260, 93.309 859.700 C 94.029 860.140, 95.199 861.940, 95.909 863.700 C 97.606 867.902, 106.847 876.575, 112.234 879.020 C 114.581 880.085, 118.210 880.966, 120.300 880.978 C 122.389 880.990, 125.475 881.712, 127.157 882.581 C 128.871 883.468, 131.248 883.903, 132.566 883.573 C 134.475 883.094, 135.393 883.685, 137.458 886.724 C 138.856 888.781, 140 890.997, 140 891.648 C 140 892.299, 141.842 894.291, 144.094 896.075 C 156.292 905.735, 161.241 907.396, 175.833 906.725 C 198.064 905.702, 220.569 903.837, 222.345 902.869 C 223.360 902.316, 226.510 901.933, 229.345 902.017 C 232.180 902.102, 234.725 902.073, 235 901.955 C 235.546 901.719, 257.884 899.939, 290 897.570 C 301.275 896.739, 315.450 895.625, 321.500 895.094 C 333.675 894.027, 361.174 892.219, 376.241 891.496 C 381.598 891.239, 386.773 890.595, 387.741 890.066 C 388.708 889.536, 391.625 888.829, 394.221 888.494 C 400.778 887.650, 409.540 881.590, 414 874.816 L 417.500 869.500 417.533 855.646 L 417.566 841.792 420.272 839.820 C 422.972 837.854, 422.986 837.854, 425.894 839.924 C 429.206 842.283, 431.640 842.509, 435.685 840.834 C 437.233 840.192, 438.725 839.600, 439 839.518 C 439.690 839.311, 446.816 836.043, 450.732 834.137 C 455.150 831.988, 456.032 833.225, 454.911 840 C 453.672 847.488, 453.645 922.468, 454.880 924.776 C 456.284 927.400, 460.841 929.621, 462.425 928.454 C 469.346 923.355, 468.836 923.468, 471.849 926.356 C 474.693 929.080, 477.416 929.754, 478.500 928 C 479.506 926.372, 483 926.855, 485.727 929 C 489.697 932.123, 501.837 931.862, 506.712 928.550 C 510.460 926.003, 512.260 926.198, 514.955 929.445 C 516.630 931.464, 530.324 931.602, 534.087 929.638 C 536.260 928.504, 536.970 928.505, 538.528 929.644 C 540.057 930.762, 556.509 930.996, 632.441 930.978 C 721.125 930.956, 724.590 930.886, 726.957 929.068 C 729.366 927.216, 729.460 927.217, 731.841 929.090 C 735.381 931.874, 739.364 931.497, 743.347 928 C 745.226 926.350, 747.071 925, 747.447 925 C 747.822 925, 749.265 926.350, 750.653 928 C 753.686 931.604, 757.805 931.976, 760.595 928.898 C 762.196 927.132, 762.560 924.859, 762.873 914.648 C 763.209 903.711, 761.738 865.417, 760.418 850.750 C 760.076 846.943, 760.270 845, 760.993 845 C 761.594 845, 764.204 846.967, 766.793 849.372 C 771.800 854.022, 774.673 855.399, 779.500 855.461 L 782.500 855.500 782.138 867.631 C 781.791 879.292, 781.880 879.940, 784.445 884.317 C 789.928 893.672, 799.064 899.672, 809.238 900.598 C 812.682 900.912, 816.175 901.407, 817 901.699 C 817.825 901.990, 821.268 902.148, 824.651 902.049 C 828.033 901.950, 831.059 902.287, 831.375 902.798 C 831.691 903.308, 837.698 904.037, 844.724 904.416 C 851.751 904.795, 868.075 906.003, 881 907.101 C 908.870 909.468, 938.862 911.656, 963 913.085 C 972.625 913.654, 981.331 914.574, 982.347 915.129 C 983.363 915.684, 986.312 916.026, 988.900 915.888 C 991.488 915.751, 994.060 915.919, 994.615 916.262 C 996.224 917.257, 1036.595 919.161, 1040.742 918.438 C 1048.150 917.147, 1059.190 908.450, 1062.444 901.341 C 1064.702 896.410, 1065.083 896.067, 1067.716 896.593 C 1071.622 897.374, 1084.943 893.807, 1090.728 890.430 C 1099.637 885.231, 1110.263 871.883, 1111.515 864.323 C 1111.863 862.220, 1113.332 857.800, 1114.780 854.500 C 1117.699 847.845, 1118.789 838.754, 1119.620 814.103 C 1119.937 804.717, 1119.740 799.340, 1119.053 798.653 C 1118.472 798.072, 1117.996 793.540, 1117.990 788.550 C 1117.978 777.617, 1115.670 771.710, 1108.907 765.307 C 1101.028 757.847, 1096.887 755.325, 1090.958 754.377 C 1088.687 754.014, 1086.616 753.162, 1086.355 752.484 C 1085.896 751.288, 1087.622 731.205, 1090.651 702.500 C 1091.463 694.800, 1092.662 681.975, 1093.314 674 C 1093.966 666.025, 1094.794 659.050, 1095.153 658.500 C 1095.512 657.950, 1096.320 652.100, 1096.948 645.500 C 1098.505 629.148, 1100.858 606.381, 1102.116 595.500 C 1102.831 589.314, 1102.835 585.089, 1102.127 581.988 C 1100.858 576.421, 1097.204 568, 1096.059 568 C 1095.593 568, 1093.882 566.758, 1092.257 565.240 C 1086.567 559.925, 1079.198 557, 1071.486 556.997 C 1067.644 556.996, 1060.675 556.545, 1056 555.997 C 1051.325 555.448, 1039.400 554.563, 1029.500 554.029 C 1019.600 553.496, 1004.300 552.605, 995.500 552.051 C 986.700 551.496, 970.950 550.551, 960.500 549.951 C 950.050 549.351, 940.677 548.415, 939.670 547.872 C 938.664 547.328, 933.939 546.955, 929.170 547.042 C 924.402 547.130, 919.825 546.967, 919 546.681 C 917.447 546.142, 912.012 545.729, 884 544.023 C 874.925 543.470, 862.671 542.506, 856.768 541.881 C 842.020 540.320, 834.447 542.175, 826.439 549.312 C 821.981 553.285, 816.847 560.377, 816.530 563 C 816.497 563.275, 816.087 564.103, 815.620 564.841 C 815.152 565.578, 813.921 575.028, 812.884 585.841 C 811.846 596.653, 810.340 611.575, 809.536 619 C 808.733 626.425, 807.366 640.350, 806.500 649.943 C 805.633 659.537, 804.438 667.972, 803.844 668.688 C 803.250 669.403, 802.982 671.127, 803.248 672.518 C 803.514 673.909, 803.342 675.289, 802.866 675.583 C 802.390 675.877, 802 679.466, 802 683.559 C 802 689.341, 801.682 691, 800.571 691 C 798.970 691, 796 688.355, 796 686.929 C 796 686.418, 795.561 686, 795.025 686 C 794.488 686, 789.834 683.142, 784.681 679.648 C 776.423 674.049, 770.205 670.609, 763.500 667.929 C 762.400 667.489, 759.305 666.200, 756.623 665.065 C 753.940 663.929, 750.903 663, 749.873 663 C 748.843 663, 747.100 662.100, 746 661 C 744.900 659.900, 742.861 659, 741.468 659 C 740.075 659, 737.320 658.325, 735.346 657.500 C 733.371 656.675, 730.701 656, 729.413 656 C 728.124 656, 725.142 655.395, 722.785 654.657 C 720.428 653.918, 714.900 652.516, 710.500 651.543 C 706.100 650.569, 701.846 649.577, 701.046 649.339 C 700.038 649.039, 700.898 647.770, 703.851 645.203 C 707.921 641.664, 710.224 638.557, 711.601 634.750 C 711.949 633.788, 712.743 632.986, 713.367 632.969 C 715.906 632.900, 729.989 609.474, 729.998 605.306 C 729.999 604.457, 732.673 604.152, 739.250 604.249 C 752.655 604.448, 758.748 602.525, 768 595.177 C 777.291 587.797, 786.036 576.528, 788.508 568.748 C 789.425 565.862, 790.834 562.034, 791.639 560.242 C 793.961 555.069, 793.975 537.455, 791.660 532.800 C 790.648 530.765, 790.112 528.628, 790.469 528.050 C 790.826 527.473, 790.732 527, 790.260 527 C 789.788 527, 788.834 525.430, 788.140 523.510 C 787.446 521.591, 786.343 519.440, 785.689 518.729 C 780.340 512.918, 780.342 513.780, 785.653 506.337 C 788.319 502.602, 790.541 499.310, 790.590 499.023 C 790.640 498.735, 791.475 496.714, 792.445 494.532 C 794.633 489.611, 794.218 480.003, 791.697 477.217 C 790.106 475.460, 790.181 475.201, 793.075 472.430 C 796.201 469.437, 802.886 459.981, 802.638 458.904 C 802.562 458.576, 803.023 457.676, 803.662 456.904 C 805.370 454.841, 807.270 443.088, 806.586 438.813 C 806.261 436.780, 805.471 433.853, 804.831 432.309 C 804.191 430.764, 803.589 429.275, 803.493 429 C 801.983 424.665, 799.031 419.560, 795.790 415.681 L 791.764 410.861 793.786 404.681 C 796.978 394.920, 797.435 388.381, 795.479 380.432 C 791.573 364.558, 775.774 349.051, 761.682 347.260 C 754.672 346.369, 754 345.661, 754 339.165 C 754 335.994, 753.460 332.860, 752.800 332.200 C 752.140 331.540, 751.901 331, 752.269 331 C 752.636 331, 751.376 328.337, 749.469 325.082 C 747.561 321.827, 746 318.729, 746 318.198 C 746 317.301, 743.226 314.654, 734.987 307.694 C 729.347 302.928, 717.783 299, 709.394 299 C 704.469 299, 696.181 300.758, 694.338 302.193 C 693.103 303.156, 689.643 299.083, 686.953 293.500 C 684.847 289.127, 674.198 278.764, 669.131 276.157 C 663.301 273.156, 657.063 271.034, 654 271.008 C 652.625 270.997, 650.211 270.315, 648.636 269.494 C 645.497 267.857, 637 267.444, 637 268.928 M 635.500 284.402 C 634.950 284.610, 631.149 285.790, 627.052 287.023 C 620.471 289.004, 618.813 290.039, 612.802 295.920 C 608.455 300.174, 606 303.375, 606 304.788 C 606 307.648, 607.333 307.614, 608.886 304.714 C 609.559 303.456, 610.931 301.994, 611.934 301.464 C 612.938 300.934, 616.248 298.844, 619.289 296.820 C 622.330 294.797, 626.900 292.434, 629.444 291.570 C 637.652 288.784, 655.021 289.941, 657.583 293.445 C 658.209 294.300, 659.276 295, 659.956 295 C 663.249 295, 673.582 304.679, 674.635 308.750 C 675.351 311.517, 678 311.741, 678 309.035 C 678 306.921, 674.058 300.235, 669.894 295.285 C 668.480 293.605, 663.918 290.593, 659.757 288.591 C 653.600 285.630, 650.729 284.866, 644.345 284.488 C 640.030 284.232, 636.050 284.194, 635.500 284.402 M 560.723 288.361 C 552.185 290.762, 541.564 299.462, 539.605 305.660 C 539.230 306.848, 538.265 308.365, 537.461 309.032 C 536.658 309.699, 536 311.090, 536 312.122 C 536 315.420, 538.437 314.089, 540.391 309.724 C 542.482 305.055, 547.405 299.299, 550.500 297.906 C 551.600 297.410, 553.175 296.586, 554 296.073 C 560.004 292.344, 565.014 291, 572.911 291 C 580.229 291, 581.825 291.348, 586.657 294 C 589.663 295.650, 592.615 297, 593.217 297 C 595.296 297, 590.481 292.774, 585.500 290.228 C 579.452 287.137, 568.115 286.283, 560.723 288.361 M 696.009 315.222 C 694.639 315.953, 693.358 317.439, 693.162 318.525 C 692.874 320.122, 693.054 320.261, 694.103 319.250 C 694.910 318.472, 698.290 318, 703.058 318 C 711.101 318, 710.037 317.618, 727 326.606 C 729.652 328.012, 731.933 331.135, 734.765 337.240 C 736.941 341.930, 738 342.009, 738 337.480 C 738 331.310, 729.802 321.006, 721.500 316.741 C 716.418 314.130, 699.904 313.146, 696.009 315.222 M 503.954 317.032 C 498.421 318.362, 485.532 326.316, 484.561 329 C 484.263 329.825, 482.881 332.500, 481.490 334.943 C 478.518 340.167, 477.363 346.039, 478.803 348.612 C 479.675 350.171, 479.933 349.853, 480.542 346.471 C 482.071 337.993, 489.594 328.329, 497.803 324.297 C 502.798 321.845, 504.670 321.495, 513 321.458 C 520.512 321.426, 522.500 321.120, 522.500 319.999 C 522.500 317.685, 509.733 315.642, 503.954 317.032 M 680 321.878 C 680 323.098, 680.638 324, 681.500 324 C 682.325 324, 683 323.605, 683 323.122 C 683 322.640, 682.325 321.685, 681.500 321 C 680.247 319.960, 680 320.104, 680 321.878 M 739 361.927 C 739 363.358, 739.642 364, 741.073 364 C 742.504 364, 743.043 363.461, 742.812 362.261 C 742.310 359.655, 739 359.364, 739 361.927 M 751 362.889 C 751 363.377, 752.667 364.090, 754.703 364.472 C 762.977 366.024, 771.969 373.505, 776.164 382.324 C 777.257 384.621, 778.827 387.625, 779.654 389 C 781.087 391.384, 781.132 391.252, 780.615 386.163 C 780.110 381.182, 778.338 377.497, 772.458 369.197 C 770.108 365.880, 761.001 362, 755.564 362 C 753.054 362, 751 362.400, 751 362.889 M 463.485 367.052 C 458.571 369.581, 452.446 376.087, 451.526 379.753 C 451.148 381.258, 450.379 383.044, 449.816 383.722 C 448.594 385.194, 447.891 394, 448.995 394 C 449.953 394, 450.968 390.367, 450.986 386.872 C 450.994 385.427, 451.675 383.685, 452.500 383 C 453.325 382.315, 454 381.177, 454 380.469 C 454 378.394, 462.733 370.010, 466.561 368.410 C 468.497 367.601, 469.811 366.503, 469.481 365.970 C 468.641 364.611, 468.002 364.726, 463.485 367.052 M 538.450 382.406 C 527.947 395.360, 523.892 398.686, 515.093 401.564 C 510.795 402.970, 508.947 403.096, 505.197 402.238 C 500.026 401.055, 498.093 402.312, 498.032 406.897 C 497.931 414.483, 489.762 428.090, 484.519 429.406 C 482.197 429.989, 481.998 430.487, 481.976 435.769 C 481.963 438.921, 481.487 443.300, 480.918 445.500 C 478.944 453.132, 476.021 489, 477.373 489 C 477.578 489, 479.940 488.009, 482.623 486.797 C 485.305 485.585, 488.096 484.713, 488.824 484.858 C 489.552 485.003, 490.859 484.532, 491.728 483.811 C 493.748 482.135, 528.675 481.907, 529.787 483.562 C 530.179 484.146, 532.975 485.173, 536 485.844 C 543.344 487.474, 551.334 492.592, 555.902 498.594 C 558.822 502.431, 560.166 503.436, 562.068 503.205 C 575.586 501.568, 587.148 502.329, 590.566 505.081 C 591.235 505.620, 593.919 503.750, 597.765 500.069 C 607.364 490.878, 612.466 489.494, 636.500 489.567 C 655.967 489.626, 662.780 490.621, 672 494.751 C 673.925 495.614, 675.758 496.360, 676.073 496.410 C 677.789 496.680, 683.836 501.653, 686 504.572 L 688.500 507.945 704.750 507.972 L 721 508 721 501.909 C 721 496.385, 720.672 495.435, 717.474 491.698 C 715.534 489.433, 714.165 487.013, 714.430 486.321 C 714.696 485.630, 714.482 484.798, 713.956 484.473 C 713.430 484.148, 713 481.235, 713 478 C 713 474.765, 713.430 471.852, 713.956 471.527 C 714.482 471.202, 714.665 470.291, 714.363 469.503 C 714.061 468.716, 714.712 466.809, 715.811 465.265 L 717.809 462.460 712.213 457.980 C 709.110 455.496, 705.160 451.049, 703.347 448 C 700.448 443.122, 700.074 441.651, 700.045 435 C 700.024 430.245, 700.557 426.455, 701.501 424.646 C 702.320 423.076, 702.740 421.389, 702.436 420.896 C 701.648 419.622, 698.613 419.787, 697.220 421.180 C 696.314 422.086, 695.491 422.066, 693.671 421.091 C 692.368 420.394, 690.446 419.951, 689.401 420.107 C 687.750 420.353, 684.531 418.889, 676.827 414.389 C 671.609 411.341, 665.513 402.080, 664.790 396.102 C 664.309 392.122, 661.581 391.194, 658.047 393.807 C 654.130 396.703, 643.682 399.971, 638.285 399.987 C 633.292 400.002, 625.811 397.623, 621.376 394.610 C 615.623 390.700, 609 384.634, 609 383.273 C 609 380.487, 606.027 380.993, 601.349 384.577 C 584.005 397.863, 558.248 396.755, 544.552 382.134 L 541.399 378.768 538.450 382.406 M 781 423.406 C 781 424.218, 781.459 425.166, 782.021 425.513 C 782.582 425.860, 784.378 428.474, 786.011 431.322 C 788.758 436.110, 788.982 436.283, 788.991 433.618 C 789.002 430.268, 785.674 424.431, 782.911 422.952 C 781.431 422.160, 781 422.263, 781 423.406 M 223.279 433.031 C 220.527 435.722, 220.278 436.425, 221.063 439.281 C 221.549 441.052, 223.483 451.663, 225.360 462.863 C 228.371 480.832, 229.067 483.522, 231.284 485.738 C 234.459 488.913, 238.745 489.033, 241.190 486.014 C 243.441 483.234, 243.437 482.420, 241.106 468.672 C 240.064 462.527, 238.405 452.597, 237.419 446.605 C 234.789 430.615, 230.228 426.237, 223.279 433.031 M 1005.206 440.048 C 1002.116 441.288, 1000.290 446.057, 997.404 460.420 C 996.070 467.064, 994.547 473.258, 994.021 474.185 C 992.946 476.078, 991.019 487.020, 991.008 491.295 C 990.988 498.472, 1000.823 501.662, 1003.969 495.500 C 1004.811 493.850, 1005.878 492.224, 1006.340 491.886 C 1006.801 491.548, 1007.052 489.973, 1006.896 488.386 C 1006.740 486.799, 1007.101 484.600, 1007.697 483.500 C 1008.294 482.400, 1009.290 478.575, 1009.911 475 C 1010.532 471.425, 1011.711 465.125, 1012.531 461 C 1013.352 456.875, 1014.298 452.062, 1014.634 450.304 C 1015.544 445.540, 1014.322 442.218, 1011.035 440.518 C 1009.420 439.683, 1007.964 439.029, 1007.800 439.063 C 1007.635 439.098, 1006.468 439.541, 1005.206 440.048 M 514.041 455.169 C 510.488 455.677, 506.438 456.723, 505.041 457.494 C 503.643 458.265, 501.547 459.336, 500.381 459.873 C 497.893 461.021, 494 465.709, 494 467.558 C 494 468.267, 495.211 470.286, 496.691 472.045 C 499.265 475.103, 499.631 475.221, 505.057 474.729 C 508.178 474.446, 511.775 473.656, 513.049 472.974 C 515.358 471.738, 523.974 471.253, 525.630 472.265 C 528.032 473.734, 535.521 475.045, 538.177 474.461 C 542.034 473.614, 545.357 467.070, 543.891 463.213 C 540.996 455.600, 530.614 452.803, 514.041 455.169 M 159 460.706 C 156.172 461.740, 153 465.349, 153 467.534 C 153 469.774, 156.945 474.763, 167.395 485.743 C 170.664 489.176, 174.274 493.204, 175.419 494.693 C 180.079 500.756, 188.576 508, 191.026 508 C 193.925 508, 198 504.076, 198 501.285 C 198 498.556, 194.274 493.783, 181.723 480.438 C 177.751 476.213, 174.077 472.024, 173.560 471.128 C 172.165 468.710, 162.657 460.005, 161.500 460.087 C 160.950 460.126, 159.825 460.405, 159 460.706 M 626.169 461.993 C 621.627 463.067, 617 467.668, 617 471.110 C 617 472.615, 618.198 475.271, 619.663 477.011 C 622.126 479.938, 622.670 480.132, 626.913 479.597 C 643.816 477.465, 647.488 477.873, 658.500 483.105 C 663.856 485.650, 665.868 485.501, 669.195 482.313 C 671.188 480.404, 672 478.645, 672 476.236 C 672 469.914, 666.950 466.884, 648.384 462.068 C 643.711 460.856, 631.156 460.813, 626.169 461.993 M 1053.359 490.374 C 1042.850 500.953, 1035.835 508.808, 1035.421 510.461 C 1034.484 514.191, 1037.678 518.398, 1041.757 518.807 C 1045.525 519.184, 1052.567 513.332, 1070.790 494.679 C 1082.409 482.785, 1083.009 481.974, 1081.790 479.800 C 1079.126 475.050, 1076.667 473, 1073.634 473 C 1071.055 473, 1068.107 475.526, 1053.359 490.374 M 493.302 500.896 C 485.569 506.498, 479 516.492, 479 522.654 C 479 526.601, 479.973 526.909, 482.018 523.609 C 486.112 517.005, 501.393 501, 503.606 501 C 504.238 501, 505.315 500.325, 506 499.500 C 507.078 498.201, 506.579 498, 502.272 498 C 498.374 498, 496.436 498.626, 493.302 500.896 M 622.357 504.992 C 621.178 505.467, 617.273 508.782, 613.680 512.358 C 608.524 517.488, 606.777 520.031, 605.395 524.417 C 604.431 527.475, 603.924 530.258, 604.269 530.602 C 604.613 530.947, 609.925 525.997, 616.072 519.602 C 622.220 513.207, 628.318 507.707, 629.625 507.379 C 630.931 507.051, 632 506.157, 632 505.392 C 632 503.808, 625.914 503.556, 622.357 504.992 M 456.759 514.250 C 454.018 516.361, 451.660 526.686, 451.792 536 C 451.928 545.618, 454.676 556.314, 457.132 556.787 C 458.454 557.041, 458.782 554.958, 459.339 542.793 C 460.220 523.535, 460.168 513, 459.191 513 C 458.746 513, 457.652 513.563, 456.759 514.250 M 564.483 518.389 C 563.004 519.470, 562.647 520.799, 562.867 524.389 C 563.023 526.925, 562.723 529, 562.201 529 C 561.678 529, 560.958 530.458, 560.602 532.241 C 560.245 534.024, 558.311 538.861, 556.303 542.991 C 551.616 552.633, 542.750 561.529, 533.273 566.100 C 526.665 569.288, 526.184 569.366, 513.500 569.313 C 499.827 569.255, 495.395 568.228, 488.403 563.494 C 483.355 560.076, 475.846 552.676, 474.883 550.169 C 473.030 545.345, 471.505 548.434, 471.326 557.371 C 471.173 564.991, 471.392 566.228, 473.076 567.279 C 474.480 568.156, 475 569.619, 475 572.690 C 475 576.311, 475.480 577.265, 478.444 579.525 C 481.089 581.542, 481.959 583.005, 482.194 585.826 C 482.449 588.886, 482.918 589.556, 485 589.838 C 488.354 590.291, 492 593.820, 492 596.615 C 492 599.333, 493.743 600.657, 495.287 599.113 C 497.056 597.344, 497.805 597.748, 500.611 601.988 C 502.690 605.129, 503.710 605.860, 505.418 605.431 C 506.775 605.091, 508.597 605.681, 510.284 607.008 C 513.359 609.428, 515 608.927, 515 605.568 C 515 602.642, 518.484 594.639, 521.889 589.747 C 525.308 584.833, 535.506 578.134, 540.018 577.840 C 543.120 577.637, 547.568 575.963, 553.455 572.783 C 554.861 572.024, 555.515 572.046, 555.788 572.864 C 555.996 573.489, 557.112 574, 558.268 574 C 559.423 574, 562.379 574.973, 564.835 576.162 C 568.813 578.088, 569.641 578.179, 572.401 576.994 C 577.359 574.866, 587.643 574.536, 590.507 576.413 C 591.840 577.286, 594.870 578, 597.242 578 C 599.614 578, 602.443 578.614, 603.527 579.365 C 604.612 580.116, 606.575 581.066, 607.889 581.477 C 610.370 582.252, 619.656 588.011, 624.246 591.622 C 625.698 592.764, 627.187 594.895, 627.554 596.359 C 627.921 597.822, 628.583 599.242, 629.024 599.515 C 630.465 600.406, 633.771 608.408, 634.358 612.431 C 634.674 614.593, 635.608 617.037, 636.434 617.862 C 637.768 619.196, 638.222 619.052, 640.531 616.561 C 642.755 614.161, 643.656 613.845, 646.806 614.356 C 648.829 614.684, 650.638 615.413, 650.825 615.976 C 651.484 617.951, 652.932 616.959, 656.087 612.374 L 659.269 607.748 664.571 608.295 C 669.504 608.804, 669.991 608.657, 671.566 606.171 C 672.497 604.702, 674.358 602.317, 675.700 600.871 C 677.849 598.558, 678.580 598.342, 681.796 599.067 C 685.754 599.959, 686.957 599.116, 686.985 595.430 C 687.003 592.944, 690.946 589.290, 694.106 588.831 C 695.756 588.591, 696.628 587.537, 697.276 585 C 698.305 580.974, 700.385 578.369, 704.113 576.442 C 706.219 575.352, 706.859 574.119, 707.388 570.129 C 707.949 565.901, 708.532 564.884, 711.339 563.228 C 714.282 561.491, 714.586 560.898, 714.206 557.642 C 713.969 555.607, 714.220 554, 714.777 554 C 717.185 554, 719.465 546.431, 719.597 538 C 719.670 533.325, 719.903 528.600, 720.115 527.500 C 720.485 525.577, 719.962 525.500, 706.500 525.500 L 692.500 525.500 691.784 531.989 C 691.391 535.557, 690.629 538.624, 690.091 538.803 C 689.553 538.982, 689.360 539.775, 689.663 540.565 C 689.966 541.354, 689.716 542, 689.107 542 C 688.498 542, 688 542.876, 688 543.946 C 688 547.149, 681.479 557.279, 676.321 562.088 C 671.246 566.820, 662 573.529, 662 572.480 C 662 572.141, 660.763 572.717, 659.250 573.760 C 653.532 577.703, 637.172 579.388, 627 577.082 C 617.900 575.019, 611.032 571.035, 603.500 563.451 C 593.918 553.802, 590.157 545.059, 589.235 530.292 C 588.675 521.305, 587.975 520.115, 582.101 518.142 C 577.337 516.542, 566.807 516.689, 564.483 518.389 M 753.366 520.537 C 749.942 522.038, 744.150 528.281, 742.077 532.704 C 741.356 534.242, 740.369 536.281, 739.883 537.236 C 739.397 538.191, 739 539.584, 739 540.331 C 739 541.079, 738.074 542.528, 736.943 543.552 C 735.133 545.189, 734.964 546.148, 735.537 551.500 C 735.920 555.078, 735.722 559.319, 735.056 561.793 C 734.238 564.830, 734.220 567.102, 734.990 569.963 C 735.836 573.104, 735.740 574.686, 734.529 577.586 C 733.688 579.598, 733 582.561, 733 584.171 C 733 586.618, 733.652 587.390, 736.981 588.880 C 740.702 590.546, 741.373 590.559, 747.231 589.081 C 755.658 586.956, 769.993 577.290, 769.999 573.730 C 769.999 573.307, 771.057 571.282, 772.348 569.230 C 773.640 567.179, 775.300 563.138, 776.037 560.250 C 776.775 557.362, 777.743 555, 778.189 555 C 778.635 555, 779 551.032, 779 546.183 C 779 538.366, 778.661 536.704, 776.014 531.527 C 774.371 528.316, 772.235 524.812, 771.266 523.742 C 767.036 519.067, 759.710 517.756, 753.366 520.537 M 321 553.035 C 286.759 554.383, 253.035 556.026, 240 556.980 C 232.575 557.524, 217.500 558.262, 206.500 558.620 C 195.500 558.978, 185.953 559.703, 185.284 560.230 C 184.616 560.757, 172.016 561.621, 157.284 562.151 C 136.326 562.904, 129.832 563.456, 127.430 564.687 C 124.083 566.403, 120 571.660, 120 574.253 C 120 575.149, 119.646 576.101, 119.214 576.368 C 118.276 576.947, 118.350 581.139, 119.325 582.716 C 119.704 583.330, 120.473 590.732, 121.034 599.166 C 121.595 607.600, 122.488 618.325, 123.019 623 C 123.549 627.675, 123.998 635.325, 124.016 640 C 124.034 644.675, 124.465 650.300, 124.973 652.500 C 125.852 656.301, 126.806 668.033, 129.368 706.500 C 129.991 715.850, 130.829 724.006, 131.231 724.624 C 131.634 725.243, 132.258 729.068, 132.618 733.124 C 133.483 742.853, 133.957 743.598, 139.721 744.281 C 150.022 745.501, 161.753 754.690, 164.114 763.390 C 164.791 765.885, 164.976 770.582, 164.583 775.344 L 163.937 783.188 167.415 787.038 C 172.304 792.449, 173.333 796.989, 171.374 804.500 C 170.514 807.800, 169.849 811.918, 169.896 813.652 C 169.944 815.385, 169.315 818.085, 168.498 819.652 C 166.537 823.411, 166.622 824.910, 169 828.500 C 170.964 831.466, 171.754 838.913, 170.263 840.404 C 169.857 840.809, 169.493 841.672, 169.453 842.321 C 169.414 842.969, 168.385 845.613, 167.168 848.196 C 164.762 853.299, 159.255 858.468, 155.117 859.507 C 150.151 860.753, 149.793 861.649, 150.549 870.934 C 150.933 875.645, 151.922 880.823, 152.747 882.440 C 154.582 886.036, 157.901 888.922, 160.250 888.967 C 161.213 888.985, 162 889.395, 162 889.879 C 162 890.362, 163.413 891.343, 165.141 892.058 C 167.671 893.106, 170.153 893.128, 177.891 892.170 C 183.176 891.516, 188.873 890.985, 190.550 890.990 C 192.228 890.996, 194.028 890.584, 194.550 890.076 C 195.073 889.568, 200.900 888.955, 207.500 888.712 C 214.100 888.470, 225.575 887.760, 233 887.133 C 268.129 884.168, 308.319 881.213, 331 879.927 C 340.625 879.381, 349.175 878.660, 350 878.324 C 350.825 877.988, 352.760 877.814, 354.300 877.937 C 355.841 878.060, 357.641 877.727, 358.300 877.196 C 358.960 876.665, 366.651 875.903, 375.391 875.503 C 392.490 874.721, 397.261 873.488, 400.839 868.924 C 403.881 865.043, 404.116 861.512, 402.530 843.500 C 401.706 834.150, 400.542 820.650, 399.943 813.500 C 399.343 806.350, 398.380 799.524, 397.801 798.331 C 397.222 797.139, 396.956 794.756, 397.208 793.037 C 397.460 791.318, 397.292 789.680, 396.833 789.397 C 396.375 789.114, 396 785.549, 396 781.475 C 396 777.402, 395.338 769.216, 394.530 763.284 C 393.721 757.353, 392.587 746.425, 392.009 739 C 390.339 717.560, 388.072 692.192, 387.049 683.500 C 386.532 679.100, 386.084 672.778, 386.054 669.450 C 386.024 666.123, 385.606 662.973, 385.124 662.450 C 384.642 661.928, 383.708 654.300, 383.048 645.500 C 382.389 636.700, 381.396 626.575, 380.842 623 C 380.288 619.425, 379.465 611.325, 379.014 605 C 377.731 587.024, 375.868 565.745, 375.340 563.049 C 375.077 561.701, 372.926 558.663, 370.562 556.299 L 366.263 552 351.882 552.193 C 343.972 552.299, 330.075 552.678, 321 553.035 M 841.296 556.847 C 836.231 558.839, 831.277 564.793, 830.471 569.855 C 830.152 571.860, 829.434 574.331, 828.876 575.348 C 828.318 576.364, 827.987 578.932, 828.140 581.055 C 828.293 583.178, 828.099 585.234, 827.709 585.624 C 827.319 586.014, 827.001 588.396, 827.003 590.917 C 827.005 593.438, 826.358 601.125, 825.565 608 C 824.773 614.875, 823.398 628.600, 822.511 638.500 C 821.624 648.400, 820.455 659.875, 819.914 664 C 819.373 668.125, 818.476 677.125, 817.921 684 C 817.366 690.875, 816.495 697.260, 815.986 698.188 C 815.477 699.117, 814.586 705.867, 814.008 713.188 C 813.429 720.510, 812.542 728.975, 812.038 732 C 811.533 735.025, 810.176 746.950, 809.021 758.500 C 807.866 770.050, 806.489 782.002, 805.960 785.060 C 805.432 788.118, 805 793.331, 805 796.644 C 805 799.956, 804.685 802.981, 804.301 803.366 C 803.916 803.750, 803.727 806.099, 803.880 808.585 C 804.032 811.071, 803.655 813.711, 803.041 814.451 C 802.427 815.191, 801.270 822.630, 800.470 830.982 C 799.669 839.334, 798.832 846.467, 798.610 846.834 C 798.387 847.200, 797.685 853.272, 797.050 860.326 C 795.945 872.598, 795.986 873.341, 798.008 877.516 C 800.333 882.320, 806.232 886.007, 811.566 885.991 C 817.897 885.971, 852.615 889.234, 854.500 890.025 C 856.515 890.871, 858.526 891.041, 889.500 892.977 C 898.850 893.562, 909.200 894.458, 912.500 894.969 C 915.800 895.479, 923.900 896.157, 930.500 896.474 C 937.100 896.791, 947.225 897.492, 953 898.031 C 958.775 898.570, 973.625 899.724, 986 900.597 C 998.375 901.469, 1008.927 902.592, 1009.450 903.092 C 1009.972 903.591, 1016.866 904, 1024.770 904 L 1039.140 904 1043.569 900.953 C 1046.004 899.277, 1048.608 896.689, 1049.354 895.203 C 1051.072 891.782, 1053.371 877.409, 1052.441 875.904 C 1052.056 875.282, 1049.795 873.912, 1047.415 872.860 C 1041.174 870.099, 1037.456 866.613, 1035.006 861.227 C 1033.824 858.627, 1032.439 855.719, 1031.928 854.764 C 1030.702 852.469, 1030.743 848.277, 1032 847.500 C 1033.680 846.462, 1033.115 840.237, 1031.029 836.807 C 1028.373 832.439, 1027.519 825.986, 1029.004 821.489 C 1029.952 818.617, 1029.947 816.882, 1028.982 813.435 C 1027.242 807.221, 1029.011 800.840, 1034.181 794.687 C 1038.211 789.891, 1038.221 789.859, 1036.987 785.454 C 1035.042 778.508, 1036.096 770.994, 1039.703 766.089 C 1045.513 758.189, 1056.106 752.041, 1064.033 751.968 C 1070.882 751.905, 1070.689 752.574, 1074.007 717.500 C 1076.320 693.047, 1077.029 686.171, 1077.974 679 C 1078.518 674.875, 1079.474 665.875, 1080.099 659 C 1080.724 652.125, 1081.485 646.079, 1081.791 645.564 C 1082.097 645.050, 1082.235 642.212, 1082.099 639.257 C 1081.962 636.303, 1082.273 633.349, 1082.791 632.693 C 1083.308 632.037, 1084.505 623.625, 1085.450 614 C 1086.395 604.375, 1087.539 594.528, 1087.991 592.118 C 1089.181 585.782, 1086.893 578.799, 1082.471 575.265 C 1079.269 572.707, 1077.942 572.412, 1064.755 571.327 C 1056.915 570.682, 1042.175 569.672, 1032 569.083 C 1021.825 568.494, 1008.775 567.559, 1003 567.005 C 997.225 566.452, 984.400 565.536, 974.500 564.970 C 964.600 564.405, 951.775 563.525, 946 563.015 C 940.225 562.505, 931.412 562.068, 926.417 562.044 C 921.421 562.020, 917.009 561.676, 916.613 561.280 C 916.217 560.884, 914.319 560.695, 912.396 560.861 C 910.473 561.026, 908.360 560.727, 907.700 560.196 C 907.040 559.665, 899.300 558.931, 890.500 558.565 C 881.700 558.199, 871.125 557.492, 867 556.995 C 851.697 555.147, 845.704 555.113, 841.296 556.847 M 183 582.500 C 181.075 583.241, 178.647 583.882, 177.604 583.924 C 175.197 584.020, 165.676 590.184, 160.658 594.894 C 151.555 603.437, 147 613.989, 147 626.531 C 147 638.955, 150.489 647.236, 159.716 656.708 C 169.323 666.571, 177.771 670.186, 191.289 670.216 C 205.084 670.246, 213.579 667.176, 222.313 659.003 C 236.912 645.343, 240.985 624.329, 232.236 607.817 C 229.151 601.997, 223.281 594.225, 220.784 592.656 C 219.528 591.866, 216.475 589.948, 214 588.393 C 211.525 586.839, 209.275 585.513, 209 585.447 C 208.725 585.381, 207.825 585.036, 207 584.680 C 198.042 580.817, 189.408 580.032, 183 582.500 M 1006.791 591.023 C 1000.233 592.051, 994.230 594.833, 988.500 599.499 C 977.354 608.575, 973.367 614.609, 970.657 626.500 C 968.813 634.590, 968.474 637.898, 969.274 640 C 969.587 640.825, 970.386 643.975, 971.047 647 C 972.856 655.274, 978.183 663.324, 985.821 669.327 C 989.442 672.172, 992.651 674.512, 992.952 674.526 C 993.253 674.540, 994.625 675.269, 996 676.146 C 999.566 678.420, 1010.211 680.369, 1015.230 679.668 C 1023.824 678.467, 1029.390 676.957, 1031.174 675.343 C 1032.178 674.434, 1033 674.001, 1033 674.381 C 1033 675.623, 1040.383 670.099, 1045.744 664.846 C 1055.334 655.449, 1061.578 638.102, 1058.976 628.083 C 1058.322 625.562, 1056.709 621.125, 1055.393 618.223 C 1054.077 615.320, 1052.996 612.620, 1052.990 612.223 C 1052.970 610.743, 1046.071 602.879, 1041.424 599.039 C 1033.313 592.336, 1019.223 589.075, 1006.791 591.023 M 565.352 599.972 C 564.171 600.460, 562.907 601.341, 562.543 601.930 C 561.584 603.482, 556.702 603.242, 554.441 601.532 C 552.221 599.853, 546.422 599.508, 545.500 601 C 545.160 601.550, 545.705 602, 546.710 602 C 547.715 602, 552.121 603.800, 556.500 606 C 565.329 610.435, 570.521 611.013, 582.625 608.905 C 593.770 606.964, 593.867 603, 582.770 603 C 578.028 603, 575.131 602.526, 574.079 601.578 C 571.920 599.633, 567.941 598.901, 565.352 599.972 M 534.460 604.420 C 533.520 605.855, 532.528 609.009, 532.255 611.428 C 531.424 618.799, 535.370 632, 538.403 632 C 539.147 632, 540.315 632.675, 541 633.500 C 541.685 634.325, 543.202 635.010, 544.372 635.022 C 545.543 635.034, 547.625 635.924, 549 637 C 553.222 640.302, 555.418 639.624, 556.761 634.603 C 558.458 628.259, 560.394 626.668, 565.411 627.494 C 567.660 627.864, 572.034 628.132, 575.131 628.088 C 578.576 628.040, 581.175 628.506, 581.825 629.289 C 582.409 629.993, 583.025 633.246, 583.194 636.517 L 583.500 642.465 592.222 642.413 C 598.935 642.373, 601.371 641.974, 602.800 640.681 C 603.822 639.756, 605.842 639, 607.290 639 C 613.834 639, 620.171 623.666, 617.176 615.075 C 615.514 610.308, 609.981 604, 607.461 604 C 605.569 604, 605.163 604.714, 604.588 609.048 C 603.980 613.630, 603.518 614.350, 599.577 616.849 C 597.190 618.363, 593.270 620.195, 590.868 620.919 C 588.466 621.643, 585.825 622.442, 585 622.694 C 582.978 623.313, 566.883 623.280, 565 622.654 C 564.175 622.380, 560.350 621.566, 556.500 620.846 C 550.946 619.808, 548.703 618.818, 545.643 616.056 C 541.996 612.763, 541.811 612.315, 542.246 607.787 C 542.544 604.690, 542.317 602.995, 541.603 602.986 C 540.996 602.979, 539.526 602.711, 538.335 602.392 C 536.731 601.962, 535.727 602.487, 534.460 604.420 M 188.261 605.250 C 187.720 605.938, 186.271 609.875, 185.042 614 C 183.812 618.125, 182.479 621.950, 182.079 622.500 C 181.678 623.050, 180.546 626.425, 179.562 630 C 177.484 637.550, 176.482 640.815, 175.495 643.250 C 174.958 644.575, 175.279 645, 176.815 645 C 178.229 645, 179.179 643.988, 179.946 641.665 C 181.917 635.691, 185.602 633.213, 193 632.883 C 200.758 632.537, 203.440 633.775, 204.968 638.404 C 205.997 641.521, 207.642 643, 210.082 643 C 211.647 643, 211.096 640.392, 208.955 637.670 C 207.831 636.240, 206.993 634.942, 207.094 634.785 C 207.252 634.540, 205.759 630.941, 202 622.500 C 201.510 621.400, 200.142 618.250, 198.959 615.500 C 194.632 605.436, 190.916 601.876, 188.261 605.250 M 1003.286 614.250 C 1002.759 614.938, 1002.240 617.525, 1002.134 620 C 1002.028 622.475, 1001.414 628.325, 1000.770 633 C 1000.126 637.675, 999.577 644.200, 999.549 647.500 L 999.500 653.500 1005 654.654 C 1018.301 657.443, 1025.720 655.004, 1028.101 647.057 C 1029.218 643.329, 1029.115 642.933, 1025.996 638.996 L 1022.717 634.855 1025.859 630.398 C 1030.579 623.701, 1029.823 619.161, 1023.266 614.837 C 1019.891 612.612, 1004.881 612.171, 1003.286 614.250 M 189.797 614.763 C 188.008 615.147, 187.570 616.152, 186.549 622.212 C 186.053 625.156, 186.345 626.345, 187.962 627.962 C 190.241 630.241, 191.692 630.448, 195.435 629.025 C 198.531 627.848, 198.878 623.909, 196.352 618.612 C 194.690 615.127, 192.924 614.090, 189.797 614.763 M 1008.750 618.080 C 1007.788 618.641, 1007 619.758, 1007 620.563 C 1007 621.368, 1006.478 622.863, 1005.840 623.885 C 1003.977 626.868, 1008.138 632, 1012.419 632 C 1020.515 632, 1026.097 627.015, 1024.044 621.616 C 1022.613 617.852, 1012.970 615.622, 1008.750 618.080 M 1006.823 637.062 C 1003.693 639.399, 1002.505 643.569, 1003.915 647.276 C 1004.643 649.191, 1006.047 650.205, 1009.115 651.031 C 1020.523 654.103, 1028.548 646.041, 1020.971 639.121 C 1018.696 637.043, 1017.204 636.463, 1014.971 636.791 C 1013.194 637.052, 1012 636.780, 1012 636.113 C 1012 634.429, 1009.812 634.830, 1006.823 637.062 M 664.934 673.054 C 660.343 676.104, 652.085 679.441, 641.200 682.646 C 637.735 683.665, 634.041 685.288, 632.992 686.250 C 631.533 687.588, 629.337 688, 623.668 688 C 619.102 688, 614.570 688.649, 611.876 689.689 C 606.102 691.917, 572.307 691.754, 564.568 689.461 C 561.856 688.658, 558.380 688, 556.843 688 C 555.306 688, 552.575 687.102, 550.774 686.004 C 546.898 683.640, 543 683.372, 543 685.469 C 543 687.367, 546.649 694.587, 549.714 698.753 C 552.479 702.513, 563.287 710, 565.948 710 C 566.942 710, 568.303 710.661, 568.973 711.468 C 569.644 712.275, 570.486 712.879, 570.846 712.809 C 571.206 712.740, 572.175 712.942, 573 713.259 C 586.145 718.309, 606.415 717.690, 618.345 711.874 C 620.459 710.843, 622.955 710, 623.892 710 C 625.427 710, 634.669 705.622, 640.925 701.931 C 643.384 700.480, 647.201 697.528, 649.562 695.250 C 650.274 694.563, 651.154 694, 651.518 694 C 652.745 694, 660 686.598, 660 685.345 C 660 684.661, 661.557 682.914, 663.461 681.462 C 665.364 680.010, 667.217 677.850, 667.579 676.661 C 667.941 675.473, 668.888 673.757, 669.683 672.849 C 672.260 669.910, 669.486 670.030, 664.934 673.054 M 254.061 672.748 C 247.769 672.925, 242.038 673.554, 241.324 674.146 C 240.610 674.739, 239.345 674.963, 238.513 674.643 C 237.681 674.324, 237 674.416, 237 674.847 C 237 675.278, 226.088 676.166, 212.750 676.819 C 199.412 677.472, 186.781 678.540, 184.680 679.193 C 182.578 679.845, 179.704 681.751, 178.293 683.429 L 175.726 686.479 176.433 703.471 C 176.822 712.817, 177.536 722.553, 178.020 725.107 C 178.505 727.661, 179.410 738.466, 180.033 749.117 C 180.655 759.769, 181.581 768.741, 182.091 769.056 C 182.601 769.371, 183.402 775.522, 183.872 782.725 C 184.568 793.405, 185.123 796.463, 186.879 799.304 C 190.885 805.786, 198.490 807.311, 215.209 804.986 C 219.219 804.428, 230.486 803.584, 240.248 803.110 C 250.009 802.637, 258.572 801.770, 259.277 801.185 C 259.982 800.600, 266.396 799.853, 273.529 799.525 C 296.224 798.482, 298.717 798.109, 302.107 795.257 C 303.793 793.838, 305.555 791.670, 306.023 790.439 C 306.802 788.391, 304.804 747.416, 303.549 739.682 C 303.264 737.932, 302.343 726.375, 301.500 714 C 299.174 679.822, 299.431 681.208, 294.495 676.250 L 290.263 672 277.882 672.214 C 271.072 672.331, 260.352 672.572, 254.061 672.748 M 858.447 679.060 C 852.607 682.683, 851.042 687.242, 849.990 703.693 C 849.030 718.717, 846.754 741.249, 845.072 752.382 C 844.564 755.747, 843.840 762.325, 843.463 767 C 843.086 771.675, 842.327 776.058, 841.774 776.741 C 841.222 777.423, 840.969 779.336, 841.212 780.991 C 841.455 782.646, 841.282 784, 840.827 784 C 840.372 784, 840 786.025, 840 788.500 C 840 790.975, 840.420 793, 840.933 793 C 841.446 793, 842.130 793.788, 842.454 794.750 C 842.778 795.712, 844.349 798.073, 845.947 799.996 C 849.244 803.967, 847.944 803.756, 882.500 805.915 C 892.400 806.533, 901.400 807.269, 902.500 807.550 C 904.736 808.122, 946.054 810.929, 952.868 810.972 C 956.626 810.996, 957.777 810.458, 961.118 807.118 C 964.069 804.166, 965 802.439, 965 799.914 C 965 793.467, 967.206 774.476, 968.166 772.652 C 968.701 771.636, 969.023 768.918, 968.881 766.611 C 968.739 764.305, 968.893 761.983, 969.222 761.450 C 969.551 760.918, 970.350 755.102, 970.998 748.525 C 971.645 741.948, 972.556 734.230, 973.021 731.374 C 973.485 728.518, 974.423 719.006, 975.105 710.236 C 976.338 694.363, 976.334 694.276, 974.073 690.618 C 970.721 685.195, 966.667 683.879, 950.500 682.966 C 942.800 682.532, 930.200 681.674, 922.500 681.061 C 862.261 676.261, 862.924 676.282, 858.447 679.060 M 264 685.435 C 256.025 686.058, 248.825 686.854, 248 687.205 C 247.175 687.555, 238.400 688.109, 228.500 688.436 C 218.600 688.763, 205.775 689.604, 200 690.305 L 189.500 691.579 189.734 694.540 C 190.038 698.379, 192.795 735, 193.609 746 C 193.955 750.675, 194.580 754.950, 194.998 755.500 C 195.416 756.050, 196.057 761.225, 196.422 767 C 196.788 772.775, 197.404 780.862, 197.793 784.972 L 198.500 792.443 207.500 792.145 C 212.450 791.982, 219.650 791.446, 223.500 790.955 C 227.350 790.464, 233.511 790.048, 237.191 790.031 C 240.871 790.014, 244.179 789.520, 244.541 788.933 C 244.906 788.343, 247.723 787.949, 250.850 788.051 C 253.958 788.152, 257.175 787.999, 258 787.709 C 258.825 787.420, 266.900 786.695, 275.944 786.098 C 284.989 785.500, 292.694 784.671, 293.068 784.256 C 293.442 783.840, 293.366 780.125, 292.899 776 C 292.156 769.435, 287.790 715.960, 286.286 695 C 285.990 690.875, 285.339 686.712, 284.839 685.750 C 283.826 683.800, 284.766 683.814, 264 685.435 M 865.575 691.197 C 865.353 691.914, 864.222 700.600, 863.062 710.500 C 860.138 735.446, 860.013 736.612, 858.477 753.500 C 857.727 761.750, 856.586 773.392, 855.942 779.370 C 854.968 788.409, 855.001 790.386, 856.135 791.105 C 856.886 791.580, 860.875 792.001, 865 792.039 C 869.125 792.077, 876.100 792.553, 880.500 793.098 C 884.900 793.642, 896.600 794.468, 906.500 794.932 C 916.400 795.397, 930.224 796.366, 937.219 797.086 C 944.215 797.806, 950.261 798.073, 950.654 797.679 C 951.368 796.965, 953.387 780.643, 954.633 765.500 C 954.996 761.100, 955.625 757.275, 956.032 757 C 956.439 756.725, 957.273 750.200, 957.886 742.500 C 958.499 734.800, 959.760 721.632, 960.688 713.238 C 961.768 703.473, 962.030 697.630, 961.415 697.015 C 960.886 696.486, 952.139 695.589, 941.977 695.022 C 931.815 694.454, 914.275 693.328, 903 692.519 C 891.725 691.710, 878.783 690.788, 874.239 690.471 C 867.927 690.030, 865.883 690.201, 865.575 691.197 M 118.713 757.622 C 111.561 759.352, 106.327 762.575, 102.460 767.630 C 99.622 771.340, 99.498 771.934, 99.457 782 C 99.425 789.714, 98.960 793.488, 97.704 796.225 C 95.470 801.091, 95.244 812.637, 97.304 816.620 C 98.268 818.484, 98.793 822.104, 98.741 826.529 C 98.654 833.957, 100.830 840.355, 104.924 844.708 C 106.248 846.117, 107 848.247, 107 850.590 C 107 852.611, 107.870 855.667, 108.934 857.382 C 111.035 860.768, 118.740 867.344, 126.196 872.113 C 130.728 875.012, 130.981 875.058, 133.446 873.443 C 136.376 871.524, 136.695 869.641, 134.405 867.789 C 128.977 863.402, 127.893 861.910, 128.553 859.733 C 129.980 855.024, 133.185 852.774, 146.902 846.849 C 151.063 845.052, 152.624 843.750, 153.696 841.184 C 157.664 831.688, 148.797 826.991, 133.645 830.563 C 125.286 832.534, 123.401 832.184, 121.960 828.394 C 120.646 824.939, 121.258 823.285, 125.502 818.817 C 128.043 816.142, 129.004 814.226, 129.015 811.817 C 129.024 809.993, 129.361 808.011, 129.765 807.414 C 131.088 805.459, 137.352 803.853, 145.500 803.382 C 153.957 802.892, 156.242 801.751, 156.528 797.875 C 156.752 794.827, 149.807 787.976, 147.187 788.661 C 146.108 788.943, 144.923 788.685, 144.554 788.087 C 143.317 786.085, 131.056 786.795, 126.191 789.149 C 120.926 791.698, 117.394 790.957, 115.070 786.815 C 112.923 782.990, 114.863 779.994, 121.744 776.509 C 126.828 773.935, 128.328 773.672, 138.415 773.590 L 149.500 773.500 149.806 770.349 C 150.039 767.953, 149.328 766.304, 146.840 763.470 C 140.626 756.393, 131.573 754.510, 118.713 757.622 M 1058.315 768.094 C 1053.089 770.498, 1049.995 774.334, 1050.015 778.385 C 1050.042 783.758, 1051.201 784.628, 1056.460 783.222 C 1062.481 781.612, 1065.090 781.678, 1072.924 783.643 C 1080.201 785.468, 1086.612 789.201, 1087.551 792.161 C 1087.893 793.239, 1087.454 795.184, 1086.560 796.549 C 1084.680 799.419, 1078.788 799.911, 1075.559 797.468 C 1074.126 796.385, 1070.746 796, 1062.655 796 L 1051.693 796 1047.846 800.167 C 1045.731 802.458, 1044.221 804.554, 1044.491 804.825 C 1044.761 805.095, 1044.486 805.914, 1043.879 806.645 C 1041.318 809.731, 1043.595 810.720, 1054.366 811.199 C 1063.682 811.613, 1065.367 811.977, 1068.949 814.348 C 1072.808 816.901, 1073 817.272, 1073 822.152 C 1073 826.753, 1073.415 827.726, 1077.058 831.679 C 1080.513 835.427, 1081.070 836.632, 1080.808 839.791 C 1080.520 843.262, 1080.268 843.519, 1076.889 843.802 C 1074.160 844.030, 1072.510 843.458, 1070.139 841.463 C 1068.412 840.011, 1067 839.113, 1067 839.468 C 1067 839.823, 1066 839.413, 1064.777 838.557 C 1061.966 836.588, 1060.673 836.604, 1056.151 838.662 C 1049.958 841.482, 1047 844.867, 1047 849.136 C 1047 854.316, 1050.296 857.560, 1058.630 860.583 C 1072.112 865.473, 1076.831 873.002, 1069.422 877.802 C 1062.489 882.294, 1068.587 884.714, 1077.344 880.947 C 1088.564 876.121, 1096.320 867.447, 1097.364 858.557 C 1097.783 854.996, 1099.006 851.436, 1100.682 848.904 C 1103.006 845.393, 1103.422 843.496, 1104.019 833.696 C 1104.393 827.538, 1105.254 821.150, 1105.931 819.500 C 1107.383 815.958, 1106.549 805.421, 1104.484 801.242 C 1103.632 799.518, 1103.190 795.527, 1103.293 790.488 C 1103.432 783.711, 1103.104 781.905, 1101.173 778.780 C 1098.252 774.054, 1094.105 770.583, 1088.328 768.027 C 1081.951 765.206, 1064.508 765.245, 1058.315 768.094 M 735.776 777.250 C 736.319 784.255, 736.761 784.853, 736.884 778.750 C 736.948 775.587, 736.651 773, 736.224 773 C 735.797 773, 735.595 774.913, 735.776 777.250 M 410.933 775.300 C 410.648 778.293, 410.896 785.784, 411.321 787 C 412.485 790.336, 414.044 802.148, 414.751 812.990 C 415.362 822.360, 415.796 824.537, 417.105 824.786 C 417.988 824.954, 419.485 823.908, 420.433 822.462 C 422.057 819.984, 422.059 819.281, 420.475 810.167 C 417.362 792.252, 411.395 770.448, 410.933 775.300 M 318.500 808.661 C 314.650 808.810, 307.900 809.417, 303.500 810.010 C 299.100 810.603, 286.441 811.481, 275.369 811.961 C 264.297 812.442, 254.397 813.281, 253.369 813.828 C 252.341 814.374, 243.175 815.322, 233 815.935 C 199.560 817.947, 192.782 818.798, 190.318 821.292 C 188.728 822.900, 188.286 824.255, 188.690 826.280 C 189.781 831.747, 192.177 831.956, 226.678 829.590 C 237.776 828.830, 247.388 827.878, 248.038 827.477 C 248.687 827.075, 253.704 826.830, 259.186 826.932 C 264.812 827.036, 269.692 826.671, 270.388 826.093 C 271.067 825.529, 283.295 824.349, 297.561 823.471 C 327.660 821.618, 336.519 820.644, 338.541 818.966 C 339.343 818.300, 340 816.261, 340 814.434 C 340 809.896, 337.033 807.942, 330.527 808.196 C 327.762 808.304, 322.350 808.513, 318.500 808.661 M 147.173 818.659 C 147.594 820.848, 150.500 821.157, 150.500 819.014 C 150.500 818.196, 149.672 817.368, 148.659 817.173 C 147.323 816.916, 146.916 817.323, 147.173 818.659 M 842.323 817.673 C 836.892 818.788, 836.866 824.728, 842.277 828.027 C 844.620 829.456, 847.304 829.994, 852.111 829.996 C 855.746 829.998, 864.746 830.641, 872.111 831.424 C 888.135 833.129, 919.384 835.534, 945.500 837.074 C 955.950 837.690, 965.036 838.634, 965.691 839.170 C 966.345 839.707, 969.605 840.035, 972.933 839.899 C 976.262 839.763, 979.289 839.956, 979.659 840.326 C 980.030 840.697, 982.979 841, 986.212 841 C 991.120 841, 992.496 840.595, 994.545 838.545 C 998.516 834.575, 997.274 829.658, 992.008 828.502 C 990.354 828.138, 989 827.394, 989 826.848 C 989 826.292, 986.689 825.940, 983.750 826.049 C 980.862 826.155, 977.825 825.998, 977 825.700 C 976.175 825.402, 967.755 824.871, 958.289 824.520 C 948.824 824.170, 939.601 823.459, 937.796 822.941 C 935.990 822.424, 930.235 821.961, 925.007 821.913 C 919.778 821.865, 911.450 821.421, 906.500 820.927 C 901.550 820.433, 888.950 819.602, 878.500 819.081 C 868.050 818.560, 856.125 817.929, 852 817.680 C 847.875 817.430, 843.520 817.427, 842.323 817.673 M 1045.517 825.981 C 1042.251 829.590, 1047.173 832.703, 1051.250 829.608 C 1053.429 827.954, 1053.515 825.411, 1051.418 824.607 C 1048.769 823.590, 1047.390 823.911, 1045.517 825.981 M 261.459 839.067 C 261.086 839.669, 258.308 840.032, 255.075 839.900 C 251.926 839.771, 248.838 839.982, 248.213 840.368 C 246.754 841.270, 224.184 842.927, 212.500 842.990 C 200.714 843.054, 193.975 844.791, 192.022 848.270 C 190.622 850.764, 190.701 851.079, 193.457 853.955 C 196.034 856.645, 197.023 856.996, 201.937 856.969 C 204.997 856.952, 210.811 856.508, 214.858 855.983 C 218.905 855.458, 231.035 854.569, 241.813 854.009 C 252.592 853.448, 261.858 852.542, 262.405 851.995 C 262.952 851.448, 265.081 851, 267.135 851 C 273.548 851, 276 849.534, 276 845.699 C 276 840.816, 272.615 838, 266.745 838 C 264.200 838, 261.821 838.480, 261.459 839.067 M 837.585 844.906 C 836.484 846.123, 835.975 848.024, 836.180 850.156 C 836.477 853.262, 836.856 853.588, 841.500 854.738 C 844.250 855.418, 856.599 856.454, 868.942 857.039 C 881.286 857.624, 894.561 858.516, 898.442 859.021 C 909.470 860.454, 914.190 860.192, 916.820 858 C 920.584 854.863, 919.480 850.994, 914.038 848.250 C 910.260 846.345, 907.962 845.998, 899.038 845.988 C 893.242 845.981, 881.075 845.311, 872 844.500 C 848.447 842.394, 839.766 842.497, 837.585 844.906 M 468.510 910.984 C 467.773 912.177, 468.709 914, 470.059 914 C 471.276 914, 471.284 911.293, 470.069 910.543 C 469.557 910.226, 468.856 910.425, 468.510 910.984" stroke="none" fill="#171916" fill-rule="evenodd"/>
</svg>