<svg role="img" aria-labelledby="artwork-title" shape-rendering="geometricPrecision" xmlns="http://www.w3.org/2000/svg" width="1200" height="1200" viewBox="0 0 1200 1200" version="1.1">
	<title id="artwork-title">Mascot placing a project into a display frame</title>
	<path d="M 297 243.863 C 297 244.338, 294.188 245.318, 290.750 246.040 C 280.063 248.285, 272.450 252.618, 264.682 260.877 C 262.032 263.695, 259.245 266, 258.489 266 C 257.733 266, 255.584 265.097, 253.713 263.993 C 248.279 260.787, 236.298 258.049, 227.588 258.024 C 212.195 257.978, 199.507 263.503, 187.519 275.474 C 178.949 284.031, 174.541 291.325, 172.523 300.286 L 171.371 305.402 162.435 305.482 C 154.134 305.557, 152.897 305.850, 145 309.620 C 134.491 314.638, 126.238 321.991, 121.141 330.879 C 115.025 341.542, 113.640 346.317, 113.638 356.740 C 113.637 365.221, 113.466 366.030, 111.568 366.583 C 108.202 367.563, 100.580 371.296, 99.500 372.494 C 98.950 373.103, 96.393 375.272, 93.818 377.312 C 89.272 380.914, 85.353 387.465, 83.629 394.341 C 83.144 396.272, 82.449 397.003, 81.458 396.622 C 80.221 396.147, 80 398.328, 80 411.031 C 80 423.206, 80.262 426, 81.402 426 C 82.173 426, 83.287 427.384, 83.876 429.075 C 84.466 430.766, 86.085 433.501, 87.474 435.152 C 91.437 439.861, 91.546 442.091, 88.064 447.250 C 86.373 449.756, 84.698 453.260, 84.343 455.037 C 83.954 456.981, 82.961 458.459, 81.848 458.750 C 80.177 459.187, 80 460.410, 80 471.500 C 80 482.926, 80.137 483.803, 82 484.290 C 83.100 484.577, 84 485.589, 84 486.538 C 84 490.861, 92.975 501.865, 99.067 505.012 C 104.206 507.666, 105.675 509.689, 104.190 512.068 C 102.568 514.665, 102.691 522.026, 104.426 526.128 C 106.304 530.570, 113.006 539.439, 117.517 543.452 C 120.769 546.345, 120.960 546.788, 119.486 548.011 C 114.991 551.742, 111.990 563.227, 112.043 576.500 C 112.099 590.457, 116.819 602.970, 126.001 613.500 C 126.961 614.600, 127.915 615.967, 128.123 616.538 C 128.814 618.439, 145.911 633, 147.452 633 C 147.862 633, 149.616 633.645, 151.349 634.433 C 156.433 636.744, 166.761 639, 172.260 639 C 177.331 639, 181.484 638.029, 187.819 635.363 C 191.665 633.745, 192.550 634.072, 193.391 637.423 C 194.618 642.309, 202.036 651.736, 212.930 662.250 C 219.056 668.163, 224.761 673, 225.608 673 C 226.533 673, 227.015 673.698, 226.816 674.750 C 226.581 675.989, 224.636 676.941, 220.154 678.011 C 216.672 678.842, 213.251 680.304, 212.551 681.261 C 211.852 682.217, 210.778 683, 210.165 683 C 208.633 683, 196.747 689.468, 189.679 694.147 C 186.478 696.266, 183.634 698, 183.359 698 C 181.580 698, 172.041 705.912, 163.514 714.460 C 152.887 725.115, 150.754 727.720, 147.385 734.168 C 146.222 736.394, 144.814 738.504, 144.255 738.857 C 142.658 739.869, 135.452 757.865, 133.988 764.500 C 133.260 767.800, 132.177 771.132, 131.582 771.903 C 130.039 773.905, 130.116 814.903, 131.669 818.097 C 132.311 819.418, 133.592 823.650, 134.514 827.500 C 136.901 837.460, 142.801 851.943, 145.620 854.763 C 146.379 855.522, 147 856.718, 147 857.421 C 147 858.125, 148.463 860.680, 150.250 863.100 L 153.500 867.500 154 912 L 154.500 956.500 324 956.500 L 493.500 956.500 493.518 928.116 L 493.537 899.733 496.990 897.366 C 498.889 896.065, 501.066 895, 501.827 895 C 502.588 895, 505.211 893.650, 507.657 891.999 C 516.541 886.003, 519.645 884.741, 521.715 886.282 C 523.757 887.802, 537.468 887.682, 539.344 886.128 C 540.255 885.373, 541 885.125, 541 885.578 C 541 886.030, 541.540 885.860, 542.200 885.200 C 542.860 884.540, 544.418 884, 545.662 884 C 548.797 884, 558.557 880.238, 560.031 878.462 C 562.013 876.074, 564.826 876.762, 566.527 880.052 C 568.785 884.418, 574.771 889.889, 580 892.366 C 583.765 894.149, 586.949 894.579, 599.500 894.999 L 614.500 895.500 614.629 917.191 L 614.758 938.882 617.710 943.691 C 619.333 946.336, 623.005 950.413, 625.868 952.750 L 631.075 957 864.136 957 C 1075.841 957, 1097.507 956.853, 1100.574 955.398 C 1105.613 953.007, 1112.535 946.526, 1115.263 941.646 C 1116.589 939.272, 1118.142 934.668, 1118.712 931.415 C 1119.413 927.420, 1119.670 852.602, 1119.506 700.876 L 1119.262 476.252 1116.789 470.876 C 1112.120 460.723, 1099.435 451.668, 1087.982 450.311 C 1085.210 449.983, 1082.703 449.329, 1082.412 448.857 C 1081.644 447.614, 1006.270 447.754, 1005.500 449 C 1004.695 450.302, 995.305 450.302, 994.500 449 C 993.695 447.697, 981.305 447.697, 980.500 449 C 979.695 450.303, 969.305 450.303, 968.500 449 C 967.564 447.486, 939.452 447.700, 936.986 449.241 C 935.405 450.228, 934.595 450.228, 933.014 449.241 C 930.625 447.749, 926.358 447.612, 925.500 449 C 925.122 449.611, 917.343 450, 905.500 450 C 893.657 450, 885.878 449.611, 885.500 449 C 885.120 448.385, 876.843 448, 864 448 C 851.157 448, 842.880 448.385, 842.500 449 C 841.697 450.300, 835.303 450.300, 834.500 449 C 833.585 447.519, 814.682 447.718, 813.175 449.225 C 812.208 450.192, 811.536 450.192, 809.989 449.225 C 807.620 447.745, 791.391 447.558, 790.500 449 C 789.698 450.298, 784.302 450.298, 783.500 449 C 782.658 447.638, 725.342 447.638, 724.500 449 C 724.133 449.594, 717.843 450, 709 450 C 700.157 450, 693.867 449.594, 693.500 449 C 692.719 447.736, 688.707 447.696, 687.450 448.940 C 686.924 449.461, 675.120 450.019, 661 450.190 C 632.377 450.538, 632.296 450.556, 624.228 458.339 C 620.417 462.015, 617.696 466.442, 615.524 472.500 C 615.130 473.600, 614.655 508.925, 614.470 551 L 614.132 627.500 604.468 628 C 599.152 628.275, 594.560 628.105, 594.263 627.622 C 593.967 627.139, 591.171 627.011, 588.051 627.337 C 581.383 628.034, 573.953 631.806, 569.157 636.929 C 563.193 643.300, 562.571 645.743, 562.010 665 L 561.500 682.500 554.500 682.500 C 547.633 682.500, 547.471 682.440, 546 679.352 C 544.144 675.456, 540.089 673.193, 531.852 671.454 C 528.358 670.716, 524.150 669.826, 522.500 669.475 C 520.850 669.125, 518.825 668.578, 518 668.260 C 517.175 667.942, 516.099 667.775, 515.609 667.888 C 515.119 668.001, 513.319 667.438, 511.609 666.636 C 509.899 665.834, 505.800 664.871, 502.500 664.496 C 499.200 664.121, 492.450 663.192, 487.500 662.432 C 482.550 661.671, 470.738 660.965, 461.250 660.862 C 451.762 660.760, 444 660.603, 444 660.514 C 444 660.425, 447.596 656.597, 451.992 652.009 C 456.387 647.420, 460.980 641.604, 462.198 639.083 C 463.417 636.562, 465.757 632.506, 467.399 630.070 C 469.041 627.633, 471.597 622.233, 473.078 618.070 C 474.559 613.906, 476.347 609.150, 477.052 607.500 C 477.756 605.850, 478.408 604.275, 478.500 604 C 478.592 603.725, 479.137 602.375, 479.710 601 C 481.417 596.907, 482.453 584.281, 482.103 571.838 L 481.774 560.175 485.387 555.444 C 487.374 552.842, 489 549.977, 489 549.078 C 489 548.180, 489.825 546.738, 490.833 545.875 C 492.128 544.766, 493.054 541.599, 493.987 535.091 C 495.582 523.964, 494.028 507.578, 490.886 502.382 C 489.849 500.667, 489 498.700, 489 498.011 C 489 496.168, 479.948 482.194, 478.359 481.584 C 477.612 481.297, 477 480.358, 477 479.496 C 477 477.809, 474.195 472.966, 472.523 471.765 C 471.960 471.361, 469.813 471.024, 467.750 471.015 C 463.036 470.996, 462.787 468.965, 467.158 466.197 C 473.177 462.386, 475.822 449.415, 472.500 440 C 470.273 433.688, 470.597 431.831, 475.108 425.076 C 478.254 420.365, 479.113 418.220, 478.775 415.918 C 478.532 414.265, 478.708 412.680, 479.167 412.397 C 480.297 411.699, 480.231 406, 479.094 406 C 478.595 406, 478.423 405.100, 478.711 403.999 C 479.322 401.663, 474.938 392.116, 470.840 386.856 C 467.949 383.146, 467.113 378.287, 469.035 376.365 C 470.549 374.851, 474 359.601, 474 354.426 C 474 348.553, 470.592 333.531, 468.119 328.500 C 462.034 316.123, 445.903 305.122, 433.235 304.710 L 426.774 304.500 424.549 296.780 C 420.881 284.055, 407.792 268.913, 396.071 263.836 C 384.526 258.835, 365.753 259.220, 354.180 264.695 L 348.712 267.282 343.106 261.144 C 334.664 251.901, 328.972 248.612, 317.565 246.384 C 313.750 245.639, 310.173 244.573, 309.615 244.015 C 308.383 242.783, 297 242.647, 297 243.863 M 291.476 262.882 C 283.281 265.834, 279.204 268.039, 277.697 270.336 C 276.915 271.526, 274.925 273.850, 273.273 275.500 C 269.780 278.990, 267.941 284.344, 270.584 283.329 C 271.469 282.990, 274.337 280.568, 276.958 277.947 C 279.578 275.326, 283.698 272.141, 286.111 270.869 C 291.461 268.050, 301.424 265.070, 305.500 265.070 C 309.630 265.070, 319.867 268.113, 323.500 270.420 C 331.655 275.598, 332.987 276.556, 332.993 277.250 C 332.997 277.663, 333.665 278, 334.479 278 C 335.657 278, 335.744 277.544, 334.904 275.750 C 333.322 272.372, 325.877 266.841, 318.794 263.782 C 310.962 260.400, 299.422 260.020, 291.476 262.882 M 214.805 277.351 C 207.922 279.836, 205.652 281.300, 198.593 287.809 C 193.456 292.544, 187.973 302.626, 188.079 307.140 C 188.122 308.988, 188.403 309.825, 188.703 309 C 189.845 305.858, 195.985 297.349, 199.664 293.811 C 203.598 290.027, 213.322 284.684, 218.559 283.429 C 220.176 283.041, 222.133 282.224, 222.908 281.612 C 224.781 280.132, 240.567 280.396, 242.425 281.938 C 243.210 282.589, 244.448 283.001, 245.176 282.854 C 245.904 282.706, 248.075 283.305, 250 284.186 C 257.571 287.647, 258.515 287.384, 254.714 282.872 C 250.650 278.049, 243.679 275.729, 232 275.310 C 222.827 274.982, 220.654 275.240, 214.805 277.351 M 364 277.680 C 354.800 280.815, 351.271 283.671, 353.652 286.052 C 354.462 286.862, 356.068 286.552, 359.630 284.900 C 362.308 283.658, 365.738 282.756, 367.250 282.896 C 368.762 283.036, 370 282.667, 370 282.075 C 370 280.719, 374.669 280.655, 375.500 282 C 375.840 282.550, 378.131 283, 380.592 283 C 384.910 283, 390.851 285.405, 397.137 289.699 C 400.397 291.926, 407.770 300.627, 409.256 304 C 410.305 306.382, 410.375 306.400, 410.730 304.386 C 411.441 300.359, 406.036 291.062, 400.581 286.931 C 397.786 284.816, 394.766 282.444, 393.869 281.661 C 392.972 280.878, 389.483 279.284, 386.115 278.119 C 378.932 275.633, 370.499 275.466, 364 277.680 M 262.250 289.250 C 262.479 289.938, 263.267 290.500, 264 290.500 C 264.733 290.500, 265.521 289.938, 265.750 289.250 C 265.998 288.506, 265.289 288, 264 288 C 262.711 288, 262.002 288.506, 262.250 289.250 M 343.229 289.188 C 343.847 291.042, 346 291.349, 346 289.583 C 346 288.712, 345.288 288, 344.417 288 C 343.546 288, 343.011 288.534, 343.229 289.188 M 422.250 321.473 C 421.012 322.024, 420 323.085, 420 323.831 C 420 324.880, 421.109 325.035, 424.894 324.515 C 429.172 323.926, 430.714 324.275, 437.144 327.286 C 442.017 329.568, 445.564 332.041, 447.651 334.615 C 454.572 343.149, 456 344.387, 456 341.854 C 456 337.981, 445.757 326.522, 439.241 323.105 C 435.903 321.354, 424.895 320.297, 422.250 321.473 M 154 323.327 C 144.016 326.673, 138.830 331.415, 132.804 342.707 C 128.694 350.410, 127.850 353.662, 128.616 358.851 C 129.262 363.235, 130.952 362.919, 130.985 358.407 C 131.018 353.881, 138.192 342.038, 144.359 336.328 C 152.224 329.046, 157.292 326.831, 166.886 326.480 C 174.317 326.208, 176.958 324.855, 173.872 322.900 C 171.897 321.649, 158.124 321.945, 154 323.327 M 762.911 332.788 C 760.081 335.317, 759.714 336.344, 758.958 343.846 C 757.688 356.439, 756.633 387.403, 757.373 390.351 C 758.249 393.839, 763.023 396.322, 766.391 395.041 C 770.996 393.291, 771.844 390.545, 772.580 375 C 772.957 367.025, 773.596 360.050, 773.999 359.500 C 774.402 358.950, 775.024 353.773, 775.382 347.995 C 775.930 339.131, 775.772 337.100, 774.369 334.995 C 770.522 329.219, 767.547 328.646, 762.911 332.788 M 685.104 355.535 C 682.159 358.888, 680.875 364, 682.977 364 C 683.514 364, 684.773 365.688, 685.775 367.750 C 688.469 373.294, 695.885 385.823, 699.680 391.240 C 701.506 393.847, 703 396.433, 703 396.987 C 703 397.542, 704.617 400.246, 706.594 402.998 C 711.010 409.145, 714.106 409.602, 719.465 404.896 C 723.212 401.607, 723.914 399.003, 721.577 397.064 C 720.794 396.414, 718.228 391.971, 715.876 387.191 C 713.524 382.411, 710.973 377.744, 710.207 376.819 C 709.441 375.895, 708.069 373.758, 707.157 372.072 C 706.246 370.385, 703.579 365.874, 701.231 362.046 C 694.490 351.057, 690.463 349.431, 685.104 355.535 M 836.211 361.632 C 834.465 362.999, 829.881 368.253, 826.026 373.308 C 822.170 378.364, 818.562 383.044, 818.008 383.708 C 817.453 384.372, 817 385.354, 817 385.891 C 817 386.427, 814.518 389.934, 811.485 393.683 C 804.815 401.928, 804.570 404.742, 810.134 409.230 C 813.375 411.845, 814.001 412.018, 815.925 410.831 C 818.125 409.473, 839.210 383.271, 844.874 374.855 C 846.593 372.300, 848 369.363, 848 368.327 C 848 365.705, 845.390 362.253, 842.132 360.568 C 839.598 359.258, 839.139 359.341, 836.211 361.632 M 352.748 370.385 C 345.760 377.263, 341.098 380.196, 333.500 382.497 C 330.200 383.496, 327.072 384.693, 326.550 385.157 C 325.130 386.417, 308.243 386.201, 307.446 384.913 C 307.077 384.315, 305.925 384.048, 304.887 384.319 C 303.849 384.591, 303 384.441, 303 383.986 C 303 383.531, 301.638 382.860, 299.974 382.494 C 298.310 382.129, 294.664 380.293, 291.873 378.415 C 286.082 374.518, 285.164 374.314, 284.359 376.750 C 282.412 382.645, 278.006 389.680, 274.426 392.615 C 272.153 394.477, 270.003 396, 269.647 396 C 269.291 396, 268.154 396.846, 267.121 397.879 C 266.087 398.913, 261.956 400.776, 257.940 402.018 C 250.486 404.325, 250.331 404.329, 230.004 402.700 C 227.686 402.514, 227.464 402.893, 226.893 408 C 225.969 416.282, 223.703 420.513, 216.263 427.851 C 210.746 433.293, 205.114 437.066, 197.213 440.611 C 197.056 440.682, 198.119 444.286, 199.576 448.620 C 201.708 454.960, 202.135 457.770, 201.761 463 C 201.246 470.195, 197.930 477.885, 193.599 481.924 C 190.584 484.737, 190.412 486.349, 192.574 491.524 C 193.440 493.596, 194.392 499.164, 194.689 503.896 C 195.135 511.003, 194.861 513.582, 193.114 518.718 C 190.977 525.005, 190.375 529.990, 191.750 530.012 C 194.379 530.052, 215.864 526.643, 217.500 525.925 C 218.600 525.442, 221.479 524.924, 223.898 524.774 C 227.080 524.576, 228.600 523.947, 229.396 522.500 C 233.879 514.343, 241.546 507.908, 252 503.525 C 255.575 502.027, 259.748 500.139, 261.273 499.330 C 262.798 498.522, 267.298 496.887, 271.273 495.697 C 277.575 493.812, 280.931 493.534, 297.500 493.528 C 319.357 493.520, 322.075 494.249, 330.863 502.468 C 333.527 504.961, 335.955 507, 336.258 507 C 336.560 507, 339.519 505.468, 342.832 503.595 C 346.145 501.722, 349.103 500.436, 349.404 500.737 C 349.705 501.039, 350.706 500.658, 351.629 499.893 C 352.741 498.969, 356.202 498.454, 361.903 498.363 L 370.500 498.226 373.680 493.269 C 377.584 487.182, 385.765 479.690, 391.054 477.356 C 393.224 476.398, 395 475.223, 395 474.745 C 395 474.266, 395.788 473.970, 396.750 474.087 C 397.712 474.203, 400.075 473.607, 402 472.762 C 411.123 468.756, 436.179 466.935, 446.339 469.539 L 449.177 470.267 448.475 464.384 C 447.643 457.421, 443.574 439.546, 441.879 435.408 C 441.224 433.809, 440.791 431.686, 440.917 430.690 C 441.043 429.695, 440.710 428.345, 440.176 427.690 C 439.224 426.521, 433.667 409.104, 432.552 403.795 C 432.124 401.753, 431.126 400.853, 428.486 400.124 C 421.900 398.305, 411 387.018, 411 382.017 C 411 379.579, 407.067 375.717, 405.664 376.777 C 402.730 378.992, 394.214 381.258, 388.635 381.308 C 378.797 381.396, 367.524 376.099, 361.185 368.409 L 358.306 364.915 352.748 370.385 M 129.694 378.639 C 128.560 379.773, 130.050 381, 132.559 381 C 134.062 381, 135 380.424, 135 379.500 C 135 378.003, 130.982 377.352, 129.694 378.639 M 117.264 380.973 C 111 382.461, 102.170 391.049, 99.242 398.502 C 96.968 404.293, 96.443 418.474, 98.359 422.398 C 99.191 424.104, 100.196 426.400, 100.591 427.500 C 101.248 429.330, 101.346 429.347, 101.737 427.702 C 101.973 426.713, 101.565 425.181, 100.833 424.298 C 98.930 422.005, 99.237 410.534, 101.362 404.537 C 103.689 397.971, 110.703 389.923, 118.053 385.387 C 126.096 380.422, 125.831 378.939, 117.264 380.973 M 399.500 441.853 C 394.025 442.849, 386.008 446.260, 386.004 447.595 C 386.002 448.197, 385.140 449.468, 384.090 450.419 C 380.104 454.025, 380.417 457.062, 385.426 463.386 C 387.446 465.936, 393.352 465.843, 398.877 463.173 C 403.692 460.847, 414.058 459.300, 416.153 460.595 C 416.893 461.052, 418.692 461.301, 420.150 461.148 C 421.609 460.995, 423.111 461.371, 423.490 461.984 C 423.994 462.799, 424.544 462.793, 425.545 461.962 C 426.297 461.338, 427.337 461.090, 427.855 461.411 C 428.374 461.731, 430.241 460.350, 432.005 458.342 C 434.734 455.233, 435.125 454.155, 434.628 451.098 C 434.308 449.123, 433.256 446.929, 432.290 446.223 C 427.260 442.545, 409.044 440.117, 399.500 441.853 M 101.824 452.750 C 99.820 455.112, 96.988 462.989, 97.050 466.033 C 97.088 467.901, 97.813 467.043, 100.037 462.500 C 101.652 459.200, 102.980 455.938, 102.987 455.250 C 102.994 454.563, 103.450 454, 104 454 C 104.550 454, 105 453.325, 105 452.500 C 105 450.497, 103.647 450.604, 101.824 452.750 M 281 462.583 C 279.625 463.346, 277.185 463.977, 275.578 463.985 C 269.614 464.015, 255.173 470.563, 249.248 475.923 C 242.144 482.350, 241.438 486.838, 246.790 491.550 C 250.533 494.846, 254.169 494.599, 259.762 490.667 C 262.370 488.834, 265.117 487.539, 265.867 487.789 C 266.618 488.039, 267.517 487.848, 267.866 487.364 C 269.611 484.942, 278.900 482.990, 288.661 482.995 C 298.748 483, 298.841 482.978, 301.371 479.971 C 304.709 476.004, 305.693 470.827, 303.661 467.926 C 302.815 466.718, 300.249 464.665, 297.959 463.365 C 293.190 460.656, 285.142 460.285, 281 462.583 M 640.485 465.944 C 637.732 467.061, 632.010 472.975, 630.882 475.870 C 630.349 477.237, 629.925 509.750, 629.880 552.707 C 629.806 624.064, 629.880 627.227, 631.651 628.444 C 632.769 629.212, 638.353 629.932, 645.765 630.264 C 656.974 630.766, 658.115 630.654, 659.015 628.972 C 659.632 627.819, 660 603.355, 660 563.466 L 660 499.800 663.405 496.395 L 666.810 492.990 861.655 493.245 C 1050.903 493.493, 1056.580 493.554, 1059.291 495.392 C 1060.825 496.432, 1062.549 498.157, 1063.120 499.224 C 1063.829 500.548, 1064.158 565.743, 1064.156 704.333 C 1064.153 927.064, 1064.598 910.988, 1058.326 915.123 C 1055.594 916.925, 1049.060 916.987, 860.827 916.993 L 666.153 917 663.077 914.411 C 660.165 911.961, 660 911.436, 660 904.611 C 660 900.336, 659.511 896.911, 658.800 896.200 C 656.949 894.349, 632.618 894.550, 631.058 896.430 C 629.274 898.580, 628.600 927.583, 630.229 932.104 C 631.961 936.908, 634.827 940.271, 639 942.395 C 642.326 944.088, 653.337 944.174, 860.872 944.117 C 980.977 944.084, 1080.202 943.767, 1081.372 943.412 C 1084.923 942.337, 1089.750 938.206, 1091.485 934.758 C 1093.056 931.637, 1093.389 830.864, 1093.001 475.228 C 1093.001 474.528, 1091.143 471.940, 1088.873 469.478 L 1084.745 465 863.623 465.063 C 742.005 465.098, 641.593 465.495, 640.485 465.944 M 425 484.932 C 425 485.987, 430.324 490, 431.724 490 C 432.228 490, 434.480 491.575, 436.729 493.500 C 438.978 495.425, 441.140 497, 441.533 497 C 442.483 497, 450.042 505.597, 452.235 509.172 C 453.924 511.923, 456.351 512.858, 457.401 511.161 C 457.686 510.699, 457.165 507.964, 456.244 505.083 C 453.956 497.929, 442.584 486.888, 435.723 485.161 C 430.172 483.763, 425 483.652, 425 484.932 M 474 511.057 C 474 514.389, 473.525 519.001, 472.945 521.307 C 472.044 524.886, 472.202 526.205, 474.018 530.309 C 476.867 536.749, 479.373 536.469, 479.808 529.663 C 479.977 527.013, 479.604 524.228, 478.979 523.475 C 478.354 522.722, 477.936 520.169, 478.050 517.803 C 478.165 515.436, 478.013 512.825, 477.713 512 C 477.413 511.175, 476.896 509.262, 476.564 507.750 C 475.498 502.885, 474 504.817, 474 511.057 M 294.026 509.630 C 294.040 510.108, 295.844 511.327, 298.035 512.337 C 302.894 514.577, 317.095 527.750, 320.112 532.815 C 324.833 540.741, 329.063 541.111, 325.834 533.315 C 325.192 531.767, 324.610 530.275, 324.539 530 C 324.025 528.010, 319.678 521.018, 317.579 518.806 C 312.033 512.961, 305.849 509.617, 299.776 509.177 C 296.599 508.948, 294.012 509.151, 294.026 509.630 M 675 570.029 C 675 617.980, 675.268 631.147, 676.250 631.455 C 676.938 631.670, 691.675 632.337, 709 632.935 C 761.055 634.733, 791.667 636.013, 807.500 637.053 C 815.750 637.594, 839.825 638.501, 861 639.068 C 882.175 639.634, 900.175 640.359, 901 640.678 C 901.825 640.997, 904.367 641.169, 906.648 641.060 C 908.930 640.951, 911.094 641.343, 911.457 641.931 C 911.848 642.563, 915.829 643, 921.191 643 C 928.703 643, 930.886 643.371, 933.882 645.159 C 939.212 648.340, 942.847 651.940, 945.839 657 L 948.500 661.500 948.454 768.552 L 948.408 875.605 946.114 880.052 C 943.016 886.061, 939.421 889.716, 933.783 892.593 L 929.066 895 801.973 895 L 674.879 895 675.190 898.522 L 675.500 902.043 861.924 902.014 C 964.458 901.998, 1048.482 901.852, 1048.644 901.689 C 1048.806 901.527, 1049.020 813.218, 1049.119 705.447 L 1049.299 509.500 862.149 509.247 L 675 508.995 675 570.029 M 357 516.927 C 350.122 517.533, 344.693 519.836, 343.094 522.824 C 342.471 523.989, 342.482 526.200, 343.126 529.064 C 344.311 534.334, 343.452 546.321, 341.339 554 C 339.333 561.293, 334.981 568.766, 328.798 575.530 C 323.536 581.288, 311.672 589, 308.076 589 C 306.934 589, 306 589.392, 306 589.870 C 306 591.960, 296.071 593.498, 283 593.432 L 269.500 593.364 262.409 589.613 C 245.592 580.715, 234.163 565.406, 229.566 545.621 C 228.917 542.825, 228.762 542.761, 224.199 543.400 C 221.614 543.762, 215.225 544.294, 210 544.582 C 204.775 544.871, 198.983 545.338, 197.129 545.621 L 193.757 546.136 194.455 552.308 C 194.839 555.703, 195.664 559.095, 196.288 559.847 C 196.911 560.598, 197.348 563.874, 197.258 567.127 C 197.120 572.096, 197.417 573.238, 199.117 574.271 C 201.015 575.424, 202.699 578.441, 206.297 587.133 C 207.212 589.345, 209.569 591.983, 212.319 593.876 C 215.565 596.109, 217.034 597.902, 217.534 600.242 C 218.449 604.518, 219.527 605.737, 223.087 606.519 C 225.134 606.969, 226.719 608.374, 228.268 611.115 C 230.035 614.240, 231.021 615.014, 233 614.829 C 236.410 614.510, 240.688 617.540, 242.642 621.657 L 244.261 625.070 250.043 624.416 L 255.824 623.762 258.547 628.131 C 260.044 630.534, 261.429 632.683, 261.624 632.906 C 261.820 633.130, 263.756 632.512, 265.928 631.533 C 270.762 629.352, 273.980 630.008, 278.188 634.029 C 281.847 637.526, 282.579 637.655, 283.977 635.043 C 285.666 631.887, 291.565 631.303, 295.129 633.938 C 299.319 637.035, 301.374 636.313, 302.101 631.487 C 302.994 625.560, 306.641 612.595, 308.339 609.311 C 309.776 606.533, 315.898 600.439, 322.968 594.750 C 324.848 593.237, 327.575 592, 329.029 592 C 330.494 592, 333.639 590.494, 336.086 588.621 C 339.176 586.255, 341.903 585.094, 345.175 584.752 C 347.776 584.480, 351.038 583.328, 352.527 582.158 C 356.338 579.159, 360.959 578.538, 365.460 580.419 C 370.733 582.622, 372.448 582.419, 376.215 579.147 C 380.923 575.057, 383.330 574, 387.934 574 C 390.667 574, 392.656 574.656, 394 576 C 395.469 577.469, 397.333 578, 401.020 578 C 404.652 578, 407.135 578.691, 410 580.500 C 412.178 581.875, 414.307 583.005, 414.730 583.011 C 416.337 583.033, 424.277 591.496, 425.215 594.187 C 425.754 595.734, 426.589 597, 427.070 597 C 427.551 597, 428.688 599.560, 429.598 602.688 C 431.113 607.900, 431.367 608.219, 432.626 606.497 C 433.382 605.463, 434 604.084, 434 603.431 C 434 601.646, 436.623 599.824, 440.256 599.085 C 442.602 598.608, 443.590 597.804, 443.824 596.179 C 444.014 594.859, 445.769 592.908, 448.074 591.453 C 451.398 589.355, 452 588.449, 452 585.542 C 452 582.782, 452.539 581.851, 454.750 580.795 C 457.115 579.665, 457.575 578.730, 458.039 574.120 C 458.444 570.092, 459.167 568.283, 460.950 566.840 C 463.004 565.176, 463.338 563.991, 463.450 557.970 C 463.521 554.148, 464.089 550.511, 464.711 549.889 C 466.084 548.516, 465.288 546, 463.482 546 C 462.764 546, 459.757 548.362, 456.799 551.250 C 451.153 556.761, 440.698 563, 437.110 563 C 435.950 563, 435 563.482, 435 564.072 C 435 564.661, 433.988 565.012, 432.750 564.852 C 431.512 564.693, 429.899 564.936, 429.165 565.393 C 427.244 566.588, 415.123 566.347, 413.600 565.083 C 412.894 564.497, 412.031 564.303, 411.682 564.651 C 411.334 565, 410.475 564.833, 409.774 564.280 C 409.073 563.728, 407.150 562.958, 405.500 562.569 C 400.718 561.441, 390.494 555.332, 386.085 550.967 C 378.555 543.512, 371.635 531.210, 370.636 523.500 C 369.979 518.433, 368.006 515.843, 365.059 516.177 C 364.201 516.274, 360.575 516.611, 357 516.927 M 143 548.158 C 139.384 549.169, 130.579 557.450, 129.646 560.719 C 126.037 573.363, 127.385 585.934, 133.415 595.861 C 135.387 599.106, 137 602.202, 137 602.740 C 137 604.385, 145.075 613, 146.616 613 C 147.412 613, 148.314 613.654, 148.621 614.454 C 150.723 619.931, 175.021 626.200, 180.171 622.593 C 181.422 621.717, 183.175 621, 184.068 621 C 185.832 621, 189 617.980, 189 616.297 C 189 615.722, 187.793 613.093, 186.318 610.454 C 183.657 605.692, 183.083 602.077, 184.465 598.788 C 184.886 597.786, 184.452 595.713, 183.419 593.788 C 182.197 591.514, 181.629 588.132, 181.577 582.818 C 181.508 575.931, 181.225 574.843, 178.844 572.318 C 177.383 570.768, 174.944 566.688, 173.425 563.250 C 171.905 559.813, 170.288 557, 169.831 557 C 169.022 557, 167.835 556.091, 162.775 551.593 C 158.192 547.520, 150.232 546.138, 143 548.158 M 389 604.006 C 385.249 607.096, 378.705 608.806, 376.715 607.216 C 373.529 604.670, 370.955 604.832, 367.584 607.792 C 363.708 611.195, 357.376 612.515, 349.874 611.483 C 345.516 610.883, 344.760 611.068, 343.021 613.154 C 340.216 616.521, 340.492 616.999, 345.250 617.006 C 347.587 617.009, 352.094 617.436, 355.264 617.956 C 364.322 619.439, 374.585 617.892, 380.017 614.224 C 382.501 612.546, 385.375 610.243, 386.404 609.106 C 388.667 606.605, 394.342 605.379, 397.338 606.744 C 398.540 607.292, 400.137 608.887, 400.887 610.289 C 402.109 612.573, 402.014 613.185, 399.974 616.169 C 397.465 619.839, 391.028 625.903, 389.579 625.962 C 389.072 625.983, 387.896 626.689, 386.965 627.532 C 383.268 630.877, 372.132 633, 358.277 633 C 343.832 633, 341.349 632.257, 336.898 626.598 C 334.987 624.168, 334.854 623.384, 335.816 620.248 C 336.420 618.280, 336.682 616.294, 336.398 615.835 C 335.610 614.560, 330 614.841, 330 616.156 C 330 616.791, 328.834 618.840, 327.409 620.708 C 325.082 623.759, 324.818 624.987, 324.818 632.772 C 324.818 641.386, 324.843 641.472, 328.904 646.720 C 332.632 651.538, 333.341 652, 337.005 652 C 339.782 652, 341.547 652.616, 342.732 654 C 344.758 656.366, 348.252 656.606, 350 654.500 C 350.711 653.643, 352.892 653, 355.087 653 C 359.461 653, 361.115 651.054, 360.312 646.851 C 359.200 641.037, 363.369 637.913, 375.620 635.380 C 384.990 633.442, 386.897 634.122, 389.876 640.460 L 392.059 645.103 398.137 641.802 C 401.480 639.986, 404.467 637.825, 404.774 637 C 405.081 636.175, 406.538 633.925, 408.011 632 C 411.542 627.386, 412.055 624.949, 411.320 616.263 C 410.794 610.031, 410.263 608.485, 407.603 605.433 C 404.523 601.899, 404.477 601.884, 401.361 603.454 C 398.153 605.070, 393.648 604.367, 392.855 602.126 C 392.660 601.574, 390.925 602.420, 389 604.006 M 582.832 646.368 C 577.014 652.186, 576.657 654.993, 577.212 690.553 C 577.482 707.869, 578.027 722.360, 578.423 722.756 C 578.818 723.152, 583.273 723.343, 588.321 723.182 C 595.439 722.955, 598.927 723.349, 603.857 724.937 C 607.354 726.064, 610.616 726.737, 611.107 726.434 C 611.598 726.130, 612 718.359, 612 709.163 C 612 690.471, 612.444 688.966, 618.739 686.336 C 622.741 684.663, 623.948 685.253, 622.212 688.032 C 620.618 690.584, 620.679 693.479, 622.398 696.803 C 623.353 698.649, 623.958 704.702, 624.307 715.893 L 624.819 732.281 627.659 734.671 C 629.222 735.986, 631.533 737.788, 632.796 738.676 C 636.065 740.974, 642 754.128, 642 759.074 C 642 764.950, 636.919 773.666, 632.506 775.359 C 631.200 775.860, 630.976 776.376, 631.734 777.134 C 632.492 777.892, 634.212 777.078, 637.651 774.332 C 642.564 770.410, 651.705 762.232, 655.451 758.409 C 660.051 753.714, 668.003 749, 671.324 749 C 674.321 749, 676.336 750.688, 690.717 765.250 C 709.291 784.057, 711.205 786.059, 716.221 791.934 C 719.413 795.673, 720.166 796.107, 721.514 794.989 C 722.604 794.084, 722.766 793.366, 722.042 792.642 C 720.924 791.524, 720.561 771.772, 721.639 770.694 C 722.551 769.782, 722.650 761.998, 721.750 761.999 C 720.858 762, 720.727 748.606, 721.611 747.722 C 722.408 746.926, 722.408 734.074, 721.611 733.278 C 720.566 732.233, 720.923 703.166, 721.989 702.507 C 722.600 702.129, 722.405 701.022, 721.478 699.606 C 720.019 697.380, 719.407 697.299, 699.239 696.671 C 673.790 695.878, 668.228 695.047, 664.381 691.463 C 662.797 689.986, 660.487 688.389, 659.250 687.914 C 658.013 687.438, 657.002 686.701, 657.005 686.275 C 657.008 685.849, 660.591 684.427, 664.967 683.116 C 672.584 680.834, 673.434 680.780, 684.869 681.866 C 691.439 682.490, 702.789 683, 710.092 683 C 725.562 683, 729.651 684.360, 734.250 691.035 L 737 695.027 737 753.857 L 737 812.688 732.056 817.844 L 727.113 823 706.615 823 C 695.342 823, 685.910 822.663, 685.656 822.250 C 685.401 821.837, 672.469 821.725, 656.918 822 L 628.642 822.500 627.862 825.420 C 627.433 827.027, 625.224 830.234, 622.953 832.548 C 619.799 835.762, 618.879 837.434, 619.058 839.628 C 619.187 841.207, 618.780 843.757, 618.154 845.294 C 617.528 846.831, 616.719 849.270, 616.357 850.714 C 615.995 852.158, 612.908 856.129, 609.497 859.540 C 602.490 866.547, 597.123 868.914, 587.756 869.130 C 577.988 869.356, 576.411 873.107, 584.370 877.186 L 588.500 879.303 754.500 879.679 C 845.800 879.886, 922.300 879.807, 924.500 879.503 C 927.625 879.071, 929.019 878.193, 930.871 875.486 L 933.243 872.022 933.256 768.196 C 933.265 691.472, 932.966 663.806, 932.111 662.208 C 929.745 657.786, 931.703 658.046, 885.315 655.986 C 873.113 655.443, 858.177 655, 852.124 655 C 846.071 655, 840.881 654.617, 840.592 654.149 C 840.302 653.680, 827.563 652.774, 812.283 652.135 C 746.247 649.373, 736.064 648.963, 709.500 647.995 C 694.100 647.434, 667.775 646.313, 651 645.504 C 634.225 644.694, 612.823 643.759, 603.441 643.425 L 586.381 642.819 582.832 646.368 M 239.339 685.560 C 238.638 687.387, 243.097 692.446, 247.381 694.683 C 249.742 695.915, 251.007 695.978, 254.396 695.029 C 259.880 693.494, 261.616 694.260, 272.500 703.021 C 277.450 707.005, 282.972 710.890, 284.771 711.655 C 286.570 712.419, 290.395 714.497, 293.271 716.272 C 298.792 719.680, 302.936 721.454, 309.500 723.218 C 311.700 723.809, 313.950 724.627, 314.500 725.034 C 315.050 725.442, 317.975 726.098, 321 726.492 C 324.025 726.885, 328.957 727.836, 331.960 728.604 C 343.278 731.498, 360.749 729.522, 377 723.510 C 384.740 720.646, 395.457 711.009, 398.407 704.257 C 399.310 702.191, 400.937 698.838, 402.022 696.807 C 403.106 694.776, 403.621 692.884, 403.164 692.602 C 402.708 692.320, 399.222 693.610, 395.418 695.469 C 383.599 701.242, 381.355 702, 376.067 702 C 373.245 702, 369.263 702.740, 367.218 703.644 C 365.173 704.549, 362.464 705.189, 361.197 705.066 C 359.930 704.943, 358.283 705.350, 357.536 705.970 C 356.601 706.746, 355.976 706.770, 355.530 706.049 C 354.703 704.711, 341.324 704.668, 340.500 706 C 339.671 707.342, 329.293 707.283, 328.458 705.932 C 328.095 705.344, 327.223 705.084, 326.521 705.354 C 325.818 705.623, 324.790 705.390, 324.235 704.835 C 323.680 704.280, 322.993 704.202, 322.709 704.663 C 321.163 707.167, 285.200 701.714, 275.351 697.482 C 273.619 696.737, 270.469 695.809, 268.351 695.419 C 266.233 695.029, 263.427 693.875, 262.115 692.855 C 260.803 691.835, 259.087 691, 258.301 691 C 256.323 691, 246.334 686.350, 245.535 685.057 C 244.533 683.436, 240.013 683.803, 239.339 685.560 M 544.453 700.750 C 544.132 702.263, 543.217 704.705, 542.421 706.177 C 540.750 709.266, 536.995 729.824, 537.745 731.777 C 538.157 732.853, 538.537 732.854, 539.874 731.785 C 543.225 729.102, 548.688 727.046, 554.500 726.281 L 560.500 725.490 560.778 712.391 L 561.056 699.291 554.881 698.645 C 545.383 697.653, 545.100 697.710, 544.453 700.750 M 772.490 718.016 C 772.144 718.575, 771.525 718.824, 771.113 718.570 C 769.924 717.835, 765 722.896, 765 724.853 C 765 725.828, 766.297 727.868, 767.881 729.386 C 770.469 731.866, 771.410 732.127, 777.131 731.959 C 780.634 731.856, 784.175 732.021, 785 732.325 C 786.676 732.944, 845.896 735.018, 861.563 735.007 C 871.358 735, 871.700 734.923, 874.405 732.099 C 877.783 728.574, 877.495 726.250, 873.333 723.445 C 870.597 721.602, 868.159 721.233, 854.931 720.660 C 846.544 720.297, 831.455 720, 821.400 720 C 809.719 720, 802.884 719.621, 802.470 718.951 C 802.064 718.295, 797.149 717.962, 789.355 718.062 C 782.499 718.151, 776.614 717.948, 776.278 717.611 C 775.328 716.662, 773.186 716.891, 772.490 718.016 M 571.500 740.443 C 569.300 741.184, 565.858 742.075, 563.850 742.422 C 561.843 742.769, 559.712 743.642, 559.115 744.362 C 557.137 746.744, 550.076 748.529, 547.929 747.188 C 546.883 746.535, 545.166 746, 544.114 746 C 541.840 746, 533.426 752.139, 526.630 758.757 C 520.136 765.081, 505.362 783.835, 501 791.292 C 496.923 798.261, 492.694 801, 486.009 801 C 483.522 801, 479.915 801.464, 477.993 802.031 C 476.072 802.598, 471.575 803.485, 468 804.002 C 460.687 805.060, 453.573 806.775, 450.317 808.266 C 449.117 808.816, 447.430 808.995, 446.567 808.664 C 445.705 808.333, 445 808.426, 445 808.871 C 445 809.315, 441.738 810.214, 437.750 810.867 C 433.762 811.521, 426.900 812.720, 422.500 813.532 C 418.100 814.345, 412.475 815.027, 410 815.048 C 407.525 815.070, 403.475 815.528, 401 816.067 C 398.525 816.606, 392.306 817.682, 387.180 818.459 C 382.054 819.236, 377.294 820.341, 376.602 820.915 C 375.910 821.490, 372.454 822.392, 368.922 822.922 C 365.390 823.451, 361.051 824.325, 359.281 824.863 C 354.782 826.232, 349.637 822.845, 349.187 818.218 C 349.011 816.415, 349.341 815, 349.937 815 C 352.261 815, 350.818 812.132, 348 811.150 C 346.350 810.575, 345 809.604, 345 808.993 C 345 808.382, 344.550 808.160, 344 808.500 C 343.450 808.840, 343 808.641, 343 808.059 C 343 807.477, 342.190 807, 341.200 807 C 340.210 807, 338.972 806.605, 338.450 806.122 C 337.927 805.639, 333.251 803.351, 328.057 801.036 C 321.559 798.140, 317.779 796.994, 315.938 797.362 C 303.608 799.828, 269.915 831.861, 262.939 847.750 C 262.154 849.538, 261.183 851, 260.781 851 C 260.379 851, 259.085 853.138, 257.905 855.750 C 256.726 858.362, 253.522 865, 250.786 870.500 C 246.467 879.183, 242.080 891.715, 243.145 892.327 C 243.340 892.439, 245.525 893.891, 248 895.554 C 250.475 897.216, 254.075 899.292, 256 900.166 C 257.925 901.040, 262.425 903.119, 266 904.785 C 269.575 906.452, 273.706 908.082, 275.180 908.409 C 276.654 908.736, 278.475 909.618, 279.227 910.370 C 279.978 911.121, 281.697 912.051, 283.047 912.437 C 284.396 912.822, 286.850 913.747, 288.500 914.492 C 292.270 916.194, 303.927 919.268, 315 921.480 C 319.675 922.414, 324.234 923.559, 325.132 924.024 C 333.597 928.410, 377.066 928.808, 383.551 924.559 C 384.859 923.701, 387.280 923, 388.930 923 C 390.580 923, 393.858 922.372, 396.215 921.604 C 398.572 920.836, 402.300 919.909, 404.500 919.543 C 406.700 919.178, 409.850 918.470, 411.500 917.970 C 413.150 917.471, 418.550 915.837, 423.500 914.340 C 428.450 912.843, 433.095 911.030, 433.821 910.309 C 434.548 909.589, 435.815 909, 436.636 909 C 438.230 909, 446.651 905.812, 451.331 903.437 C 452.888 902.647, 454.688 902.003, 455.331 902.007 C 456.488 902.014, 484.790 887.879, 492.500 883.443 C 494.700 882.177, 499.348 879.705, 502.828 877.950 C 506.308 876.194, 509.401 874.118, 509.701 873.337 C 510.001 872.555, 510.978 872.004, 511.873 872.112 C 512.768 872.219, 514.349 871.942, 515.386 871.495 C 516.423 871.047, 517.928 871.095, 518.729 871.601 C 520.882 872.959, 538.843 871.442, 543.500 869.509 C 547.883 867.689, 554.367 864.494, 557.500 862.610 C 558.600 861.949, 563.100 857.828, 567.500 853.454 L 575.500 845.500 581.915 845.715 C 589.046 845.954, 590.386 846.742, 590.454 850.740 C 590.522 854.785, 593.393 854.739, 598.431 850.610 C 603.917 846.115, 604.683 843.280, 601.907 837.748 C 598.672 831.304, 596.359 829.324, 589.756 827.346 C 583.670 825.523, 578 821.396, 578 818.790 C 578 818.016, 578.639 816.509, 579.421 815.441 C 580.638 813.778, 581.934 813.529, 588.473 813.701 C 596.525 813.912, 599.423 815.085, 606.978 821.190 C 611.277 824.664, 611.794 824.673, 613.076 821.299 C 614.724 816.966, 612.501 809.616, 608.663 806.706 C 604.156 803.290, 599.229 801.279, 593.733 800.612 C 585.104 799.565, 581.335 796.261, 582.721 790.960 C 583.804 786.816, 587.704 785.954, 598.096 787.563 C 607.538 789.024, 611.599 790.574, 615.721 794.291 C 617.553 795.943, 618.209 796.072, 619.471 795.024 C 621.211 793.580, 621.543 790, 619.937 790 C 619.353 790, 619.014 789.177, 619.184 788.172 C 619.670 785.305, 615.094 779.530, 610.594 777.328 C 602.844 773.537, 599.474 772.672, 590.167 772.087 C 582.503 771.605, 580.581 771.153, 579.417 769.559 C 577.880 767.454, 577.567 763.230, 578.803 761.285 C 580.002 759.398, 589.751 757.700, 596.087 758.274 C 599.259 758.562, 602.245 758.355, 602.791 757.809 C 603.435 757.165, 604.006 757.200, 604.446 757.913 C 604.816 758.511, 606.329 759.003, 607.809 759.007 C 609.289 759.010, 611.850 759.907, 613.500 761 C 616.841 763.212, 622.955 763.645, 624.800 761.800 C 627.533 759.067, 625.363 752.888, 620.054 748.286 C 618.649 747.068, 616.986 746.056, 616.357 746.036 C 615.728 746.016, 614.976 745.379, 614.685 744.621 C 614.394 743.863, 611.013 742.288, 607.173 741.121 C 598.788 738.574, 578.208 738.183, 571.500 740.443 M 267 753.551 C 267 753.854, 268.462 754.785, 270.250 755.620 C 272.038 756.454, 275.300 758.221, 277.500 759.545 C 279.700 760.869, 282.625 762.436, 284 763.028 C 290.528 765.837, 294.945 768.229, 296.042 769.550 C 296.703 770.348, 297.942 771, 298.794 771 C 299.646 771, 301.132 771.714, 302.097 772.588 C 303.062 773.461, 304.619 774.023, 305.557 773.838 C 306.747 773.602, 305.787 772.563, 302.382 770.403 C 299.697 768.699, 296.825 767.007, 296 766.642 C 295.175 766.277, 293.150 765.090, 291.500 764.004 C 289.850 762.918, 287.375 761.564, 286 760.994 C 281.370 759.077, 279 757.667, 279 756.831 C 279 756.374, 277.988 755.986, 276.750 755.968 C 275.512 755.951, 273.626 755.276, 272.559 754.468 C 270.675 753.043, 267 752.437, 267 753.551 M 767.727 755.149 C 766.752 755.896, 765.691 758.130, 765.369 760.114 C 764.903 762.983, 765.219 764.126, 766.914 765.706 C 768.835 767.495, 771.032 767.759, 789.217 768.384 C 800.312 768.766, 809.864 769.467, 810.444 769.943 C 811.025 770.418, 825.485 770.963, 842.578 771.154 L 873.655 771.500 877.328 768.699 C 881.300 765.670, 881.451 765.295, 880.104 761.815 C 878.122 756.695, 875.048 756.205, 841 755.582 C 823.675 755.266, 800.500 754.733, 789.500 754.399 C 773.474 753.913, 769.148 754.062, 767.727 755.149 M 665.338 768.444 C 663.777 770.400, 661.938 772, 661.250 772 C 660.563 772, 660 772.675, 660 773.500 C 660 774.325, 659.513 775, 658.917 775 C 658.070 775, 645.353 784.418, 637.283 791.021 C 636.614 791.569, 635.771 794.243, 635.410 796.965 C 635.030 799.828, 633.973 802.619, 632.901 803.590 C 631.881 804.513, 631.288 805.657, 631.583 806.134 C 631.877 806.610, 645.741 807, 662.392 807 C 679.043 807, 692.933 807.266, 693.258 807.591 C 694.204 808.537, 711.409 808.272, 711.731 807.306 C 712.105 806.185, 671.505 765.603, 669.601 765.194 C 668.817 765.025, 666.898 766.488, 665.338 768.444 M 308 775.481 C 308 776.731, 313.558 780.938, 315.250 780.968 C 317.672 781.012, 317.439 779.517, 314.750 777.759 C 312.042 775.989, 308 774.625, 308 775.481 M 768.580 792.116 C 765.146 794.817, 765.340 799.451, 769 802.137 C 771.333 803.850, 774.793 803.990, 820.824 804.236 C 868.654 804.492, 870.191 804.441, 871.574 802.559 C 872.358 801.491, 873 799.423, 873 797.964 C 873 792.517, 872.024 792.317, 839.500 791.104 C 823 790.488, 800.898 789.988, 790.385 789.992 C 772.442 790, 771.105 790.130, 768.580 792.116 M 179.306 873 C 179.929 874.650, 180.839 876, 181.329 876 C 182.573 876, 191 884.673, 191 885.953 C 191 886.529, 191.449 887, 191.998 887 C 193.090 887, 202.893 893.654, 204.500 895.485 C 206.050 897.253, 213.344 902.002, 214.482 901.985 C 215.590 901.969, 207.965 895.099, 206.771 895.038 C 206.370 895.017, 202.842 891.850, 198.930 888 C 195.019 884.150, 191.437 881, 190.971 881 C 189.732 881, 184.544 875.936, 182.518 872.750 C 180.035 868.845, 177.803 869.018, 179.306 873 M 218.500 905 C 219.495 906.100, 221.140 907, 222.155 907 C 223.333 907, 224 906.277, 224 905 C 224 903.365, 223.333 903, 220.345 903 C 216.753 903, 216.721 903.035, 218.500 905" stroke="none" fill="#171916" fill-rule="evenodd"/>
</svg>