<svg role="img" aria-labelledby="artwork-title" shape-rendering="geometricPrecision" xmlns="http://www.w3.org/2000/svg" width="1200" height="1200" viewBox="0 0 1200 1200" version="1.1">
	<title id="artwork-title">Mascot presenting a case-study board</title>
	<path d="M 954.550 302.919 C 954.238 303.425, 951.833 304.299, 949.206 304.862 C 942.436 306.314, 935.991 309.288, 932.500 312.572 C 929.237 315.641, 926.103 316.432, 925.318 314.386 C 923.936 310.785, 909.784 306, 900.519 306 C 895.131 306, 885.697 308.356, 880.447 311.012 C 875.490 313.520, 866.243 322.531, 864.553 326.500 C 863.851 328.150, 862.375 330.302, 861.273 331.282 C 859.505 332.856, 858.739 332.923, 854.729 331.850 C 846.107 329.544, 831.437 334.636, 822.584 343.009 C 815.821 349.405, 812.346 356.538, 811.297 366.178 L 810.500 373.500 806.544 374.477 C 801.410 375.744, 792.077 384.781, 788.945 391.518 C 787.030 395.636, 786.617 398.233, 786.564 406.500 C 786.504 415.878, 786.702 416.894, 789.750 422.836 C 793.058 429.285, 793.742 432.423, 792.066 433.459 C 790.632 434.345, 788 444.314, 788 448.857 C 788 451.084, 788.494 454.165, 789.098 455.703 C 791.497 461.817, 794.543 467.038, 795.983 467.505 C 798.286 468.252, 800.122 472.903, 798.966 475.063 C 798.435 476.056, 798 478.191, 798 479.807 C 798 482.925, 801.396 491.508, 803.028 492.518 C 805.137 493.821, 803.771 497.524, 798.893 503.731 C 790.859 513.954, 789.606 517.566, 789.603 530.500 C 789.600 546.639, 791.849 552.224, 803.112 564.045 C 805.325 566.368, 805.834 568.058, 806.451 575.133 C 806.852 579.725, 807.470 583.936, 807.824 584.491 C 808.179 585.046, 808.506 585.725, 808.551 586 C 808.595 586.275, 809.344 588.075, 810.215 590 C 811.086 591.925, 812.630 595.525, 813.646 598 C 816.465 604.865, 825.554 617.959, 831.062 623.089 C 833.772 625.613, 835.691 627.975, 835.328 628.339 C 834.262 629.405, 828.178 629.097, 827.464 627.941 C 827.104 627.358, 825.839 627.007, 824.654 627.160 C 823.470 627.313, 821.992 627.122, 821.371 626.735 C 819.729 625.712, 790.484 623.612, 776.500 623.514 C 762.226 623.413, 761.691 623.181, 750.361 612.179 C 749.244 611.095, 749 600.623, 749 553.889 C 749 499.794, 748.904 496.733, 747.092 493.210 C 746.042 491.170, 743.904 488.332, 742.342 486.903 C 736.197 481.288, 735.265 481, 723.246 481 C 715.047 481, 711.844 480.656, 711.597 479.750 C 707.864 466.049, 704.619 460.671, 696.992 455.549 C 692.796 452.731, 692.037 452.579, 681.940 452.541 C 674.005 452.510, 670.849 452.119, 669.501 451 C 667.770 449.562, 665.434 449.432, 646 449.691 C 644.075 449.717, 638.384 449.684, 633.354 449.619 C 626.225 449.526, 623.800 449.857, 622.354 451.122 C 618.439 454.545, 616.287 455.101, 611.556 453.910 C 599.871 450.967, 584.684 463.701, 582.825 478 L 582.500 480.500 388.680 481 C 207.230 481.468, 194.798 481.609, 193.903 483.208 C 193.373 484.156, 192.291 484.665, 191.474 484.351 C 190.663 484.040, 189.998 484.172, 189.995 484.643 C 189.993 485.114, 188.361 487.274, 186.370 489.442 C 184.379 491.610, 182.356 494.757, 181.875 496.435 C 180.690 500.569, 180.732 832.578, 181.918 836.716 C 182.845 839.946, 187.714 844.898, 193.409 848.402 C 196.219 850.130, 198.388 850.284, 217.258 850.090 C 235.481 849.904, 238.091 850.073, 238.629 851.476 C 238.967 852.355, 238.506 853.888, 237.606 854.883 C 236.082 856.567, 236.137 856.996, 238.412 861.096 L 240.856 865.500 238.805 869.500 C 232.137 882.505, 229.590 888.366, 228.328 893.610 C 227.766 895.944, 229.971 896.962, 235.639 896.986 C 239.802 897.004, 242.246 894.651, 244.973 888 C 247.601 881.591, 253.660 870.276, 255.816 867.750 C 257.457 865.828, 264.447 865.296, 265.507 867.012 C 265.851 867.569, 264.815 870.381, 263.205 873.262 C 261.595 876.143, 259.223 881.200, 257.936 884.500 C 256.648 887.800, 254.966 891.259, 254.199 892.187 C 252.341 894.434, 253.350 895.787, 257.457 896.558 C 264.734 897.923, 268.564 895.344, 270.902 887.506 C 271.231 886.403, 273.932 881.130, 276.904 875.788 L 282.309 866.077 364.404 865.788 C 409.557 865.630, 446.923 865.833, 447.440 866.240 C 447.969 866.657, 448.265 873.065, 448.117 880.915 C 447.822 896.507, 448.041 897, 455.243 897 C 461.578 897, 461.937 896.127, 462.233 880 L 462.500 865.500 465.101 865.198 C 468.228 864.835, 471.977 869.423, 470.093 871.307 C 469.431 871.969, 469 876.865, 469 883.725 C 469 894.961, 469.020 895.057, 471.565 896.025 C 474.984 897.325, 478.346 897.255, 481.497 895.819 L 484.088 894.639 483.943 880.158 L 483.797 865.676 568.016 865.624 L 652.234 865.571 654.617 868.341 C 655.928 869.865, 657 871.940, 657 872.953 C 657 873.966, 658.295 877.428, 659.877 880.647 C 661.459 883.866, 663.085 887.577, 663.490 888.894 C 664.889 893.443, 669.636 897.002, 674.284 896.985 C 680.329 896.963, 681.530 895.959, 680.172 892.063 C 679.568 890.330, 678.157 887.624, 677.037 886.051 C 675.916 884.478, 675 882.713, 675 882.130 C 675 880.993, 672.622 875.193, 670.373 870.846 C 669.618 869.386, 669 867.698, 669 867.096 C 669 865.744, 675.943 865.671, 678 867 C 678.825 867.533, 679.163 867.976, 678.750 867.985 C 678.338 867.993, 678.900 868.900, 680 870 C 681.100 871.100, 682 872.718, 682 873.596 C 682 874.473, 682.675 876.498, 683.500 878.096 C 684.325 879.693, 685.675 882.307, 686.500 883.904 C 687.325 885.502, 688 887.527, 688 888.404 C 688 889.282, 688.900 890.900, 690 892 C 691.100 893.100, 691.675 894, 691.277 894 C 690.880 894, 691.595 894.728, 692.866 895.619 C 694.529 896.784, 696.571 897.104, 700.147 896.760 C 706.682 896.132, 707.799 894.949, 705.277 891.327 C 703.039 888.113, 697 875.492, 697 874.028 C 697 873.497, 696.044 871.228, 694.876 868.987 C 693.237 865.842, 692.921 864.067, 693.492 861.206 C 693.899 859.168, 694.292 856.150, 694.366 854.500 L 694.500 851.500 715.333 851 C 733.664 850.560, 736.318 850.290, 737.443 848.750 C 738.146 847.787, 739.149 847, 739.673 847 C 741.322 847, 745.829 841.655, 747.447 837.782 C 748.784 834.581, 749 826.762, 749 781.532 C 749 752.064, 749.385 729, 749.878 729 C 752.192 729, 753.094 732.051, 752.453 737.713 C 751.918 742.445, 752.100 743.838, 753.395 744.913 C 754.278 745.645, 755.009 746.752, 755.020 747.372 C 755.054 749.237, 764.335 752.879, 772.141 754.090 C 776.169 754.715, 780.597 755.700, 781.982 756.279 C 783.367 756.858, 784.725 757.408, 785 757.500 C 785.275 757.592, 786.666 758.154, 788.091 758.749 C 789.517 759.343, 792.815 760.150, 795.421 760.540 C 800.460 761.296, 802.111 763.151, 800.177 765.886 C 796.795 770.668, 793.795 778.004, 794.532 779.687 C 794.970 780.684, 795.404 781.725, 795.497 782 C 795.591 782.275, 796.181 783.737, 796.809 785.250 C 797.985 788.083, 797.441 793.579, 795.773 795.706 C 795.253 796.370, 795.200 797.495, 795.656 798.206 C 797.544 801.157, 798.971 806.804, 798.985 811.384 C 799.005 817.776, 800.759 823.665, 803.935 828 C 807.965 833.500, 809.075 835.836, 807.980 836.513 C 807.376 836.886, 807 848.383, 807 866.451 L 807 895.783 809.304 896.361 C 812.235 897.097, 1084.688 897.012, 1087.866 896.274 L 1090.232 895.725 1089.876 867.112 C 1089.548 840.761, 1089.673 838.085, 1091.458 833.250 C 1093.178 828.587, 1093.716 828, 1096.263 828 C 1097.841 828, 1100.106 827.479, 1101.297 826.841 C 1103.656 825.579, 1107.454 821.150, 1107.577 819.519 C 1107.619 818.959, 1108.344 816.925, 1109.189 815 C 1111.662 809.368, 1114 801.435, 1114 798.681 C 1114 797.278, 1114.499 794.863, 1115.110 793.315 C 1116.980 788.572, 1119.282 769.251, 1119.735 754.500 C 1120.169 740.364, 1118.746 727.578, 1115.563 717 C 1114.818 714.525, 1113.421 709.800, 1112.458 706.500 C 1111.496 703.200, 1109.924 699.375, 1108.964 698 C 1108.005 696.625, 1107.283 695.220, 1107.360 694.878 C 1107.931 692.343, 1086.618 665.229, 1081.912 662.504 C 1080.958 661.952, 1076.651 658.968, 1072.339 655.872 C 1065.686 651.096, 1052.094 643.908, 1038 637.713 C 1033.839 635.883, 1021.927 632.285, 1017 631.369 C 1012.006 630.441, 1010.797 629.298, 1012.285 626.915 C 1012.943 625.862, 1014.006 625, 1014.648 625 C 1016.357 625, 1024.895 615.186, 1026.475 611.406 C 1027.220 609.621, 1028.725 607.682, 1029.818 607.097 C 1031.829 606.021, 1035.533 599.331, 1036.925 594.263 C 1037.646 591.637, 1037.951 591.512, 1043.092 591.745 C 1050.925 592.099, 1058.790 591.067, 1060.382 589.476 C 1061.141 588.716, 1061.974 588.307, 1062.232 588.566 C 1062.799 589.133, 1066.284 587.359, 1071.014 584.095 C 1080.919 577.260, 1088.136 567.525, 1091.471 556.500 C 1092.469 553.200, 1093.520 549.825, 1093.806 549 C 1094.093 548.175, 1094.366 547.200, 1094.414 546.833 C 1094.461 546.467, 1094.838 545.829, 1095.250 545.417 C 1096.361 544.305, 1096.161 532, 1095.031 532 C 1094.499 532, 1094.322 531.325, 1094.638 530.500 C 1094.955 529.675, 1094.716 529, 1094.107 529 C 1093.498 529, 1093 528.056, 1093 526.901 C 1093 524.294, 1090.360 518.497, 1087.308 514.406 C 1084.361 510.454, 1084.399 508.203, 1087.482 504.024 C 1092.021 497.873, 1093.341 492.801, 1092.728 483.868 L 1092.173 475.767 1096.003 471.612 C 1101.750 465.378, 1103.506 460.153, 1103.437 449.500 C 1103.383 441.309, 1103.081 439.936, 1100.074 434.224 C 1098.257 430.772, 1095.957 427.512, 1094.963 426.980 C 1090.680 424.688, 1089.896 423.102, 1091.507 419.986 C 1092.328 418.398, 1093 416.204, 1093 415.109 C 1093 414.014, 1093.481 412.821, 1094.068 412.458 C 1094.656 412.095, 1094.900 411.183, 1094.612 410.431 C 1094.323 409.679, 1094.518 408.798, 1095.044 408.473 C 1096.170 407.777, 1096.342 398.675, 1095.250 397.583 C 1094.838 397.171, 1094.461 396.533, 1094.414 396.167 C 1094.239 394.819, 1092.817 391.393, 1090.732 387.296 C 1087.468 380.884, 1081.351 374.879, 1074.437 371.300 C 1066.810 367.353, 1065.265 366.822, 1062.402 367.159 C 1059.550 367.496, 1059.502 367.418, 1058.718 361.103 C 1058.161 356.621, 1056.888 352.939, 1054.462 348.800 C 1052.558 345.551, 1051 342.590, 1051 342.221 C 1051 341.212, 1042.655 334.003, 1041.485 334.001 C 1040.927 334.001, 1038.791 333.100, 1036.739 332 C 1034.686 330.900, 1032.132 330, 1031.063 330 C 1029.993 330, 1028.840 329.550, 1028.500 329 C 1027.742 327.774, 1012.771 327.660, 1011.450 328.871 C 1010.927 329.350, 1009.326 330.018, 1007.890 330.355 C 1005.010 331.031, 1002.752 329.190, 1001.523 325.161 C 1000.485 321.763, 989.212 310.648, 984.233 308.113 C 981.886 306.919, 977.611 305.496, 974.733 304.951 C 971.855 304.407, 969.350 303.520, 969.167 302.980 C 968.745 301.739, 955.314 301.682, 954.550 302.919 M 960.399 316.164 C 960.114 316.624, 957.899 317, 955.475 317 C 948.392 317, 938.640 322.484, 933.910 329.127 C 930.342 334.137, 932.274 334.037, 937.798 328.925 C 944.488 322.734, 956.782 319.335, 966.304 321.043 C 975.212 322.642, 980.716 325.380, 985.323 330.507 C 991.703 337.608, 993.298 335.864, 987.615 328 C 984.097 323.133, 973.703 317.022, 968.917 317.008 C 967.496 317.003, 966.024 316.691, 965.646 316.313 C 964.633 315.300, 960.996 315.197, 960.399 316.164 M 886.408 322.452 C 881.762 324.626, 876 329.915, 876 332.005 C 876 332.474, 875.271 333.586, 874.381 334.476 C 873.490 335.367, 872.991 336.324, 873.271 336.604 C 873.550 336.884, 875.967 335.042, 878.640 332.512 C 881.313 329.981, 885.525 326.693, 888 325.205 C 892.148 322.712, 893.341 322.500, 903.250 322.500 C 909.163 322.500, 914 322.219, 914 321.875 C 914 320.771, 907.971 319.999, 899.625 320.035 C 893.207 320.063, 890.430 320.571, 886.408 322.452 M 1016.441 341.096 C 1016.068 341.698, 1014.242 342.014, 1012.382 341.796 C 1010.522 341.579, 1009 341.710, 1009 342.087 C 1009 342.464, 1007.313 343.600, 1005.250 344.611 C 1002.006 346.202, 1001.796 346.496, 1003.698 346.788 C 1004.908 346.974, 1006.790 346.647, 1007.883 346.063 C 1010.321 344.758, 1019.663 344.671, 1023.601 345.917 C 1025.195 346.422, 1027.715 347.100, 1029.200 347.424 C 1030.685 347.748, 1034.623 350.534, 1037.950 353.614 C 1044.283 359.477, 1045.911 359.224, 1041.291 353.094 C 1036.504 346.744, 1028.750 341.487, 1024.750 341.880 C 1023.237 342.029, 1022 341.667, 1022 341.075 C 1022 339.664, 1017.315 339.681, 1016.441 341.096 M 838 347.304 C 832.488 349.974, 828.758 353.594, 826.054 358.895 C 823.870 363.176, 823.028 368.274, 825.090 364.732 C 827.141 361.210, 835.592 352.679, 839.500 350.185 C 842.725 348.128, 845.098 347.548, 851.750 347.191 C 856.288 346.948, 860 346.356, 860 345.875 C 860 345.394, 856.063 345.028, 851.250 345.062 C 844.391 345.111, 841.527 345.595, 838 347.304 M 1047.688 379.646 C 1046.383 380.950, 1047.006 382, 1049.083 382 C 1050.247 382, 1050.992 381.476, 1050.771 380.813 C 1050.284 379.351, 1048.614 378.719, 1047.688 379.646 M 1056.500 380 C 1055.520 381.585, 1056.912 383, 1059.450 383 C 1064.613 383, 1074.130 388.832, 1075.975 393.126 C 1076.536 394.432, 1077.414 396.175, 1077.925 397 C 1078.437 397.825, 1079.099 399.288, 1079.396 400.250 C 1079.694 401.212, 1080.326 402, 1080.801 402 C 1083.303 402, 1078.450 390.712, 1074.312 386.908 C 1070.483 383.386, 1065 379.691, 1065 380.632 C 1065 381.054, 1064.460 380.860, 1063.800 380.200 C 1062.346 378.746, 1057.359 378.610, 1056.500 380 M 167.942 385.472 C 163.097 388.107, 162.941 390.281, 166.547 404.891 C 168.359 412.234, 170.292 418.692, 170.842 419.242 C 171.393 419.793, 171.623 420.818, 171.354 421.521 C 171.084 422.223, 171.344 423.095, 171.932 423.458 C 172.519 423.821, 173 424.982, 173 426.039 C 173 429.285, 176.134 436.001, 178.153 437.082 C 181.014 438.613, 186.498 436.315, 187.656 433.100 C 188.506 430.738, 187.470 424.613, 185.270 419 C 184.947 418.175, 184.783 417.075, 184.906 416.555 C 185.029 416.036, 184.686 414.686, 184.144 413.555 C 183.602 412.425, 182.186 407.225, 180.997 402 C 178.093 389.240, 177.199 387.155, 173.909 385.453 C 170.597 383.740, 171.128 383.738, 167.942 385.472 M 808.388 388.033 C 805.849 388.995, 802 393.671, 802 395.794 C 802 396.678, 803.902 395.304, 806.530 392.522 C 809.022 389.885, 810.934 387.616, 810.780 387.480 C 810.626 387.344, 809.550 387.593, 808.388 388.033 M 875 397.643 C 874.175 397.868, 872.725 399.279, 871.779 400.777 C 868.058 406.662, 867.416 407.489, 865.037 409.450 C 859.988 413.612, 855.505 415.306, 848.271 415.783 L 841.042 416.260 840.441 419.880 C 839.309 426.705, 837 431.031, 832.003 435.690 C 827.166 440.201, 826.999 440.540, 826.976 445.928 C 826.963 448.992, 826.499 453.300, 825.945 455.500 C 825.391 457.700, 824.542 465.031, 824.057 471.791 C 823.573 478.552, 822.681 484.679, 822.076 485.409 C 821.258 486.394, 821.357 487.051, 822.462 487.968 C 823.652 488.956, 825.102 488.851, 829.724 487.444 C 832.901 486.477, 835.927 485.307, 836.450 484.843 C 837.680 483.752, 860.720 483.739, 861.394 484.829 C 861.676 485.285, 864.515 486.221, 867.703 486.909 C 877.169 488.950, 883.508 492.745, 888.894 499.592 C 891.055 502.340, 891.260 502.384, 902.294 502.458 C 910.401 502.512, 914.133 502.943, 915.791 504.016 C 917.970 505.428, 918.256 505.290, 921.693 501.166 C 926.630 495.243, 931.188 492.608, 939.873 490.657 C 951.390 488.069, 963.859 488.477, 980.500 491.986 C 989.222 493.825, 998.340 498.818, 1001.341 503.398 C 1003.019 505.959, 1003.232 506, 1014.941 506 C 1021.484 506, 1027.436 505.770, 1028.168 505.489 C 1030.508 504.592, 1029.449 499.154, 1026.001 494.352 C 1021.774 488.466, 1021.054 482.397, 1023.508 473.331 L 1025.282 466.778 1020.607 462.782 C 1012.755 456.071, 1009.460 446.497, 1012.233 438.450 C 1013.978 433.385, 1013.072 432.402, 1007.054 432.833 C 1002.925 433.128, 1001.625 432.649, 995.452 428.552 C 988.044 423.634, 983.096 416.968, 983.033 411.817 C 982.992 408.448, 979.662 407.091, 977.109 409.402 C 974.814 411.479, 964.494 415, 960.701 415 C 959.059 415, 954.528 414.051, 950.632 412.890 C 944.396 411.033, 942.793 410.010, 937.232 404.339 L 930.917 397.898 927.149 400.882 C 925.077 402.523, 922.134 404.179, 920.610 404.562 C 919.086 404.944, 917.615 405.840, 917.342 406.552 C 917.069 407.264, 913.798 408.391, 910.073 409.056 C 899.737 410.903, 892.560 409.317, 885.029 403.523 C 881.761 401.008, 878.816 398.511, 878.485 397.975 C 877.864 396.971, 877.559 396.942, 875 397.643 M 105.452 423.646 C 101.350 428.072, 101.855 428.958, 115.182 440.728 C 129.799 453.637, 139.658 461, 142.328 461 C 143.592 461, 145.879 459.692, 147.410 458.094 C 150.574 454.792, 150.318 452.123, 146.501 448.594 C 136.224 439.094, 127.576 431.615, 121.242 426.750 C 112.600 420.111, 109.325 419.467, 105.452 423.646 M 852.335 462.568 C 844.412 464.010, 837.582 467.041, 836.623 469.539 C 833.421 477.884, 840.548 481.222, 853.517 477.452 C 858.323 476.055, 859.423 476.055, 864.815 477.452 C 872.980 479.568, 874.707 479.419, 877.548 476.354 C 883.016 470.453, 879.117 464.481, 868.449 462.417 C 860.497 460.879, 861.674 460.868, 852.335 462.568 M 628.229 463.669 C 622.858 465.570, 621.461 468.243, 620.660 478.159 C 619.691 490.142, 623.149 499, 628.795 499 C 632.809 499, 633.933 496.388, 633.968 486.973 C 634.006 476.798, 635.384 474, 640.357 474 C 645.014 474, 645.992 475.536, 646.058 482.950 C 646.152 493.687, 647.124 497.293, 650.340 498.834 C 654.024 500.600, 657.374 499.669, 658.829 496.477 C 659.473 495.063, 660 489.912, 660 485.031 L 660 476.156 664 472.732 C 666.200 470.849, 668 468.833, 668 468.253 C 668 466.843, 662.024 463.384, 658.098 462.522 C 655.868 462.032, 653.383 462.479, 649.580 464.055 L 644.211 466.281 639.790 464.140 C 634.678 461.666, 633.972 461.637, 628.229 463.669 M 954.500 464.649 C 943.603 466.918, 941 468.838, 941 474.607 C 941 479.646, 944.121 481.024, 955.216 480.883 C 964.413 480.766, 972.348 482.135, 973.527 484.043 C 973.863 484.588, 974.526 484.793, 975 484.500 C 975.474 484.207, 976.144 484.425, 976.490 484.984 C 976.835 485.543, 978.630 486, 980.477 486 C 983.217 486, 984.223 485.375, 985.930 482.613 C 987.243 480.488, 987.763 478.531, 987.323 477.363 C 986.363 474.809, 981.121 470, 979.299 470 C 978.479 470, 976.614 469.361, 975.154 468.580 C 972.554 467.189, 959.473 463.879, 957.500 464.113 C 956.950 464.179, 955.600 464.419, 954.500 464.649 M 679 466.500 C 678.315 467.325, 677.124 468, 676.353 468 C 674.193 468, 673.289 471.587, 672.489 483.325 C 671.781 493.702, 671.840 494.201, 674.051 496.554 C 679.241 502.079, 685.670 497.256, 687.502 486.465 C 688.834 478.616, 688.765 478.696, 693.606 479.359 C 698.748 480.064, 699.154 479.071, 695.948 473.636 C 691.664 466.375, 682.356 462.456, 679 466.500 M 601.241 469.920 C 597.221 473.761, 596.678 475.818, 597.507 484.066 C 598.121 490.183, 598.633 491.453, 602.016 495.234 C 607.310 501.152, 608.586 499.755, 608.237 488.420 C 608.014 481.185, 608.302 479.372, 610.198 476.078 C 612.090 472.789, 612.243 471.830, 611.231 469.608 C 609.568 465.958, 605.246 466.092, 601.241 469.920 M 83.755 487.803 C 80.220 489.405, 80.010 489.758, 80.005 494.090 L 80 498.681 85.250 499.805 C 94.913 501.875, 124.184 504.288, 127.886 503.320 C 128.858 503.065, 130.426 501.548, 131.372 499.948 C 132.778 497.567, 132.873 496.625, 131.896 494.769 C 131.238 493.521, 130.205 492.174, 129.600 491.777 C 127.684 490.517, 118.851 488.992, 107.491 487.960 C 101.446 487.411, 94.475 486.770, 92 486.534 C 89.089 486.257, 86.178 486.705, 83.755 487.803 M 198.400 498.400 L 195 501.800 195 666.294 L 195 830.788 197.901 833.894 L 200.802 837 227.901 837 C 245.300 837, 255 836.642, 255 836 C 255 835.336, 326.480 835, 467.441 835 C 607.990 835, 680.091 835.338, 680.500 836 C 680.884 836.622, 690.242 837, 705.254 837 L 729.391 837 732.195 834.313 L 735 831.626 735 666.369 L 735 501.112 732.749 498.494 C 730.510 495.891, 730.411 495.876, 714.954 495.753 C 706.405 495.684, 698.868 495.963, 698.205 496.373 C 697.542 496.783, 697 498.002, 697 499.081 C 697 501.982, 689.308 509.810, 684.149 512.160 C 679.089 514.465, 673.946 514.166, 670.876 511.388 C 669.844 510.454, 669 510.040, 669 510.467 C 669 510.895, 668.351 510.706, 667.557 510.048 C 666.404 509.090, 665.354 509.367, 662.325 511.425 C 657.038 515.018, 649.234 515.043, 644.566 511.483 L 641.266 508.965 636.883 511.471 C 634.472 512.848, 631.330 513.981, 629.899 513.988 C 626.489 514.004, 621 512.064, 621 510.843 C 621 510.315, 620.597 510.131, 620.105 510.435 C 619.612 510.740, 618.952 510.316, 618.636 509.494 C 617.913 507.608, 616.268 507.612, 612.636 509.506 C 607.488 512.191, 601.128 511.411, 595.701 507.430 C 593.062 505.494, 590.634 503.143, 590.305 502.205 C 589.976 501.267, 588.564 499.262, 587.166 497.750 L 584.626 495 393.213 495 L 201.800 495 198.400 498.400 M 843.733 497.623 C 843.385 498.186, 841.241 499.260, 838.969 500.010 C 835.325 501.213, 829 507.033, 829 509.183 C 829 509.584, 827.875 511.569, 826.500 513.595 C 823.358 518.225, 823.051 521.609, 825.937 519.807 C 827.002 519.142, 828.240 517.784, 828.687 516.789 C 829.134 515.795, 833.037 511.422, 837.361 507.073 C 841.684 502.723, 845.029 498.587, 844.794 497.882 C 844.525 497.074, 844.132 496.978, 843.733 497.623 M 943.248 504.990 C 941.459 506.081, 938.660 508.442, 937.027 510.237 C 933.470 514.147, 928.284 523.617, 929.199 524.532 C 930.254 525.588, 934 523.987, 934 522.480 C 934 520.787, 949.204 505, 950.834 505 C 951.475 505, 952 504.550, 952 504 C 952 502.300, 946.671 502.903, 943.248 504.990 M 804.485 515.618 C 801.820 521.883, 801.370 537.388, 803.676 543.500 C 806.459 550.875, 808.411 550.148, 808.110 541.849 C 807.969 537.960, 808.312 534.925, 808.935 534.540 C 810.319 533.685, 810.318 527.315, 808.933 526.459 C 808.324 526.082, 807.970 523.258, 808.109 519.875 C 808.421 512.224, 806.760 510.273, 804.485 515.618 M 895.655 516.829 C 894.745 517.835, 894 519.778, 894 521.147 C 894 525.993, 890.944 533.819, 886.397 540.616 C 883.865 544.402, 881.164 547.860, 880.396 548.300 C 879.628 548.740, 879 549.708, 879 550.452 C 879 551.196, 877.763 552.318, 876.250 552.946 C 874.737 553.573, 871.700 555.066, 869.500 556.263 C 866.302 558.003, 863.404 558.515, 855.047 558.816 C 839.619 559.373, 830.813 556.412, 823.655 548.260 C 819.402 543.415, 818.662 544.026, 819.226 551.915 C 819.585 556.929, 820.309 559.577, 821.860 561.550 C 823.037 563.046, 824 564.942, 824 565.764 C 824 566.585, 825.575 569.001, 827.500 571.132 C 829.425 573.262, 831 575.603, 831 576.334 C 831 577.599, 833.389 579.140, 837.297 580.396 C 838.286 580.714, 839.568 582.330, 840.145 583.987 C 840.950 586.295, 841.804 587, 843.793 587 C 845.260 587, 847.632 588.189, 849.243 589.732 C 851.634 592.024, 852.246 592.225, 853.032 590.982 C 853.548 590.167, 853.976 588.319, 853.985 586.876 C 854.036 578.014, 868.868 564.035, 878.250 564.006 C 879.212 564.003, 880.856 563.144, 881.901 562.099 C 882.947 561.053, 884.714 559.908, 885.828 559.555 C 888.040 558.852, 894.404 561.151, 897.165 563.649 C 898.754 565.087, 899.133 565.041, 901.586 563.111 C 905.137 560.318, 912.152 560.260, 915.987 562.991 C 917.525 564.086, 921.880 565.633, 925.665 566.430 C 936.654 568.741, 943.033 572.184, 948.014 578.493 C 949.748 580.689, 951.467 582.714, 951.834 582.993 C 953.059 583.926, 956 593.730, 956 596.884 C 956 600.404, 958.079 601.064, 960.751 598.392 C 961.885 597.257, 963.470 596.934, 966.141 597.292 C 969.214 597.704, 970.432 597.329, 972.631 595.291 C 974.871 593.215, 976.023 592.874, 979.311 593.315 C 982.956 593.804, 983.573 593.525, 986.806 589.924 C 989.586 586.826, 991.040 586, 993.711 586 C 996.488 586, 997.398 585.431, 998.797 582.819 C 1001.047 578.616, 1005.060 574.809, 1006.612 575.405 C 1008.143 575.992, 1009.382 574.476, 1010.786 570.297 C 1011.379 568.535, 1013.296 565.814, 1015.047 564.249 C 1016.884 562.608, 1018.361 560.218, 1018.539 558.598 C 1018.708 557.054, 1019.776 554.926, 1020.911 553.868 C 1022.047 552.810, 1023.243 550.720, 1023.569 549.222 C 1024.531 544.811, 1026.177 541, 1027.121 541 C 1027.605 541, 1028 537.427, 1028 533.059 C 1028 528.520, 1028.456 524.836, 1029.065 524.460 C 1029.762 524.029, 1029.529 523.137, 1028.394 521.883 C 1026.856 520.184, 1025.513 520.005, 1016.649 520.319 C 1005.734 520.706, 1005.227 521.014, 1005.070 527.346 C 1005.032 528.911, 1004.394 531.386, 1003.653 532.846 C 1002.912 534.306, 1001.225 537.750, 999.903 540.500 C 997.388 545.733, 985.009 559, 982.641 559 C 981.887 559, 980.084 559.933, 978.635 561.073 C 977.186 562.212, 976 562.832, 976 562.450 C 976 562.068, 975.256 562.373, 974.346 563.128 C 973.110 564.154, 968.983 564.500, 958 564.500 C 947.017 564.500, 942.890 564.154, 941.654 563.128 C 940.744 562.373, 940 562.068, 940 562.450 C 940 562.832, 938.814 562.212, 937.365 561.073 C 935.916 559.933, 934.164 559, 933.473 559 C 931.561 559, 921.174 547.337, 919.378 543.173 C 917.041 537.756, 915.078 529.121, 915.020 524 C 914.959 518.545, 914.492 517.835, 909.929 516.245 C 904.532 514.363, 897.630 514.646, 895.655 516.829 M 1061.500 516.722 C 1058.238 517.470, 1049.007 527.113, 1046.396 532.500 C 1045.063 535.250, 1043.228 538.667, 1042.319 540.093 C 1041.220 541.817, 1040.944 543.326, 1041.496 544.593 C 1041.953 545.642, 1042.373 546.725, 1042.429 547 C 1042.485 547.275, 1042.869 548.031, 1043.282 548.681 C 1043.695 549.330, 1043.595 550.132, 1043.060 550.463 C 1042.525 550.794, 1042.323 551.679, 1042.612 552.431 C 1042.900 553.183, 1042.656 554.095, 1042.068 554.458 C 1040.719 555.292, 1040.669 559.677, 1042 560.500 C 1043.449 561.396, 1043.229 564.234, 1041.430 567.841 C 1039.144 572.422, 1039.907 575.200, 1044 577.197 C 1048.640 579.460, 1051.815 579.410, 1055.750 577.011 C 1057.537 575.921, 1059 575.318, 1059 575.670 C 1059 576.022, 1059.864 575.528, 1060.921 574.572 C 1061.977 573.616, 1064.339 572.046, 1066.171 571.083 C 1070.237 568.944, 1075.150 561.928, 1077.967 554.238 C 1079.123 551.082, 1080.320 547.825, 1080.627 547 C 1081.318 545.146, 1081.414 534.501, 1080.751 533.345 C 1080.484 532.880, 1079.519 530.210, 1078.606 527.411 C 1077.693 524.613, 1075.721 521.183, 1074.223 519.789 C 1071.502 517.257, 1065.487 515.807, 1061.500 516.722 M 236.500 533.202 C 234.850 533.761, 232.375 535.613, 231 537.319 L 228.500 540.419 228.197 605.960 C 227.862 678.549, 227.573 675.060, 234.343 680.122 L 237.500 682.483 313.655 682.419 C 397.505 682.349, 392.525 682.717, 396.736 676.273 C 398.381 673.755, 398.488 669.076, 398.323 606.627 L 398.146 539.680 394.557 536.090 L 390.967 532.500 315.234 532.343 C 266.137 532.241, 238.445 532.543, 236.500 533.202 M 241.667 545.667 C 240.582 546.751, 240.869 656, 241.956 656 C 242.973 656, 261.377 642.078, 279.432 627.651 C 282.769 624.984, 286.400 622.432, 287.500 621.980 C 288.600 621.527, 293.100 618.187, 297.500 614.557 C 306.599 607.049, 308.621 606.236, 313.426 608.153 C 316.778 609.489, 330.923 621.402, 345.983 635.572 C 350.117 639.462, 355.685 644.286, 358.355 646.293 C 362.940 649.738, 371.077 656.919, 379.073 664.578 C 385.893 671.110, 385.522 674.531, 385.299 607.250 C 385.188 573.838, 385.075 546.163, 385.049 545.750 C 384.989 544.824, 242.592 544.741, 241.667 545.667 M 538.335 547.704 L 444.169 548.010 441.585 551.082 C 438.493 554.757, 438.459 555.109, 440.910 558.139 C 442.776 560.447, 443.242 560.507, 461.660 560.810 C 472.022 560.980, 480.928 561.542, 481.450 562.060 C 482.711 563.308, 487.718 563.265, 488.500 562 C 488.904 561.347, 516.688 561, 568.591 561 C 657.247 561, 655.436 561.129, 654.815 554.873 C 654.608 552.784, 653.534 550.979, 651.677 549.599 C 648.313 547.097, 660.789 547.306, 538.335 547.704 M 895 584.525 C 892.054 586.179, 888.373 586.412, 887.500 585 C 887.160 584.450, 885.532 584, 883.882 584 C 882.137 584, 881.140 584.418, 881.500 585 C 881.840 585.550, 883.190 586, 884.500 586 C 885.810 586, 887.171 586.468, 887.525 587.041 C 887.879 587.613, 889.921 589.188, 892.064 590.541 C 899.282 595.097, 917.500 593.165, 917.500 587.843 C 917.500 585.353, 917.373 585.333, 909.705 586.602 C 907.049 587.041, 905.399 586.785, 904.205 585.749 C 901.591 583.480, 897.767 582.971, 895 584.525 M 444.109 586.597 C 442.674 587.200, 440.872 588.867, 440.105 590.302 C 438.884 592.584, 438.918 593.227, 440.378 595.455 C 441.445 597.083, 443.028 598.037, 444.773 598.103 C 446.273 598.159, 493.625 598.146, 550 598.074 L 652.500 597.942 654.750 595.415 C 657.545 592.276, 657.544 591.744, 654.740 588.484 L 652.479 585.856 549.598 585.678 C 476.824 585.552, 445.954 585.821, 444.109 586.597 M 871.365 587.750 C 869.128 591.048, 868.667 603.056, 870.750 603.750 C 871.438 603.979, 872 604.556, 872 605.032 C 872 607.284, 881.409 614.667, 883.675 614.193 C 884.321 614.058, 885.148 614.431, 885.514 615.022 C 886.548 616.696, 889 614.158, 889 611.413 C 889 607.290, 894.726 606.041, 906.332 607.632 C 911.722 608.371, 915.107 611.961, 912.909 614.609 C 909.830 618.319, 919.495 620.558, 927.371 617.959 C 935.067 615.421, 937 614.217, 937 611.965 C 937 610.884, 937.436 610, 937.969 610 C 938.501 610, 938.678 609.325, 938.362 608.500 C 938.045 607.675, 938.284 607, 938.893 607 C 939.581 607, 940 604.699, 940 600.922 C 940 595.154, 939.795 594.640, 935.987 590.870 C 931.558 586.485, 930 586.564, 930 591.175 C 930 595.476, 923.221 601.572, 916.942 602.919 C 910.101 604.386, 895.985 604.400, 892.500 602.942 C 890.850 602.253, 889.050 601.641, 888.500 601.583 C 886.561 601.378, 881.472 598.160, 879.139 595.662 C 877.264 593.656, 876.857 592.295, 877.165 589.067 C 877.510 585.446, 877.316 585, 875.391 585 C 874.152 585, 872.434 586.173, 871.365 587.750 M 520.830 618.938 L 444.160 619.500 441.580 621.743 C 438.454 624.462, 438.263 628.023, 441.105 630.595 C 443.143 632.439, 446.560 632.508, 548.402 632.763 C 653.287 633.026, 653.600 633.021, 655.797 630.974 C 658.664 628.304, 658.670 623.702, 655.811 621.039 C 653.741 619.110, 652.381 619, 630.561 618.991 C 617.878 618.987, 605.250 618.846, 602.500 618.679 C 599.750 618.512, 562.998 618.629, 520.830 618.938 M 292 634.549 C 283.475 641.362, 276.144 646.951, 275.710 646.969 C 274.936 646.999, 268.988 650.939, 268 652.075 C 267.725 652.391, 263.900 655.402, 259.500 658.766 C 255.100 662.129, 250.375 665.921, 249 667.191 L 246.500 669.500 264 670.021 C 283.487 670.601, 363.158 670.175, 363.846 669.487 C 364.569 668.765, 362.214 666.416, 357.727 663.383 C 352.626 659.936, 333.024 642.793, 320.411 630.750 C 315.222 625.795, 310.435 622.035, 309.374 622.080 C 308.343 622.124, 300.525 627.735, 292 634.549 M 749.667 632.667 C 749.300 633.033, 749 651.247, 749 673.141 L 749 712.949 751.950 714.474 C 757.118 717.147, 759 716.552, 758.997 712.250 C 758.994 708.232, 761.490 686.379, 763.080 676.500 C 763.611 673.200, 764.732 665.103, 765.571 658.506 C 766.410 651.910, 767.733 645.238, 768.510 643.680 C 770.652 639.385, 768.874 637.370, 762.343 636.696 C 759.323 636.384, 755.752 635.248, 754.102 634.073 C 750.888 631.784, 750.631 631.703, 749.667 632.667 M 983.500 646.546 C 981.300 647.911, 977.355 649.675, 974.734 650.465 C 972.113 651.255, 969.413 652.254, 968.734 652.686 C 968.055 653.117, 967.275 653.515, 967 653.571 C 966.725 653.627, 965.825 653.947, 965 654.282 C 959.064 656.692, 948.876 659.002, 944.145 659.011 C 941.040 659.017, 936.250 659.719, 933.500 660.571 C 930.190 661.596, 926.471 661.941, 922.500 661.591 C 919.200 661.300, 914.700 661.395, 912.500 661.802 C 908.852 662.477, 905.317 662.013, 886.250 658.361 C 883.513 657.837, 883 658.036, 883 659.623 C 883 664.221, 898.101 678, 903.139 678 C 904.163 678, 905 678.477, 905 679.059 C 905 679.641, 905.412 679.864, 905.915 679.553 C 906.418 679.242, 907.018 679.553, 907.248 680.244 C 907.811 681.933, 935.041 682.033, 937.096 680.353 C 937.868 679.722, 942.100 677.970, 946.500 676.460 C 956.653 672.975, 965.882 667.315, 975.348 658.768 C 982.800 652.039, 989.908 643.972, 988.334 644.031 C 987.875 644.048, 985.700 645.180, 983.500 646.546 M 477.829 651 L 445.158 651.500 442.579 653.924 C 439.531 656.790, 439.267 660.027, 441.888 662.399 C 443.644 663.988, 451.010 664.102, 547.487 664.028 C 661.725 663.940, 657 664.198, 657 658.056 C 657 655.838, 656.197 654.667, 653.561 653.038 C 650.149 650.929, 649.572 650.911, 580.311 650.706 C 541.915 650.593, 495.798 650.725, 477.829 651 M 646.075 702.101 L 643 703.971 642.811 714.735 C 642.708 720.656, 642.753 742.214, 642.913 762.642 C 643.073 783.069, 642.902 800.732, 642.534 801.892 C 641.914 803.847, 641.155 804, 632.055 804 C 625.383 804, 621.939 803.600, 621.290 802.750 C 620.739 802.028, 620.274 788.402, 620.190 770.500 C 620.020 734.248, 620.845 736.703, 608.478 735.658 C 598.907 734.849, 593.430 735.620, 589.257 738.366 L 586.014 740.500 585.789 757.500 C 585.665 766.850, 585.485 780.575, 585.389 788 C 585.292 795.425, 585.165 802.063, 585.107 802.750 C 584.966 804.405, 566.442 804.525, 565.424 802.878 C 565.043 802.260, 564.814 795.300, 564.917 787.410 C 565.154 769.068, 564.689 766.589, 560.523 764.014 C 557.773 762.315, 555.545 762, 546.267 762 C 536.685 762, 534.933 762.265, 532.657 764.055 L 530.044 766.111 529.772 784.805 L 529.500 803.500 524.142 804.038 C 516.452 804.810, 513.538 809.538, 518 814 C 520.302 816.302, 511.740 816.134, 621.500 816.030 L 688.500 815.966 690.745 813.233 C 693.530 809.843, 693.531 809.865, 690.548 806.646 C 688.601 804.546, 687.174 804, 683.630 804 C 675.540 804, 676.217 808.435, 676.057 754.402 C 675.979 727.748, 675.654 705.262, 675.336 704.433 C 674.119 701.263, 669.443 700.019, 659.146 700.126 C 651.276 700.208, 648.496 700.628, 646.075 702.101 M 237.749 713.250 C 231.769 717.412, 229.485 722.198, 230.366 728.723 C 231.483 736.989, 237.160 741.855, 245.800 741.952 C 252.752 742.030, 257.200 738.954, 261.047 731.408 C 263.621 726.358, 263.511 723.769, 260.518 719.028 C 254.652 709.735, 245.967 707.531, 237.749 713.250 M 656.284 714.250 C 655.710 714.997, 655.256 732.861, 655.157 758.624 C 654.977 805.193, 654.908 804.576, 660.195 803.827 L 662.500 803.500 663 759.500 C 663.275 735.300, 663.339 714.938, 663.143 714.250 C 662.947 713.563, 661.539 713, 660.015 713 C 658.492 713, 656.813 713.563, 656.284 714.250 M 845.655 719.829 C 844.745 720.835, 844 723.231, 844 725.154 C 844 729.603, 846.518 732.023, 855.754 736.450 C 859.632 738.308, 863.240 740.606, 863.771 741.556 C 866.081 745.682, 861.686 749.643, 855.841 748.703 C 850.815 747.895, 843.581 745.647, 842.885 744.677 C 842.127 743.620, 822.168 737.687, 808 734.308 C 802.225 732.930, 796.719 731.397, 795.764 730.902 C 794.809 730.406, 791.755 730, 788.978 730 C 783.433 730, 779 732.195, 779 734.941 C 779 736.878, 782.990 741, 784.864 741 C 785.543 741, 787.539 741.769, 789.300 742.708 C 791.060 743.648, 792.725 744.473, 793 744.542 C 793.275 744.611, 794.850 745.228, 796.500 745.912 C 800.609 747.617, 822.852 754.758, 826.285 755.475 C 829.435 756.132, 831.444 760.002, 830.391 763.382 C 829.436 766.443, 828.179 766.968, 821.753 766.985 C 816.560 766.999, 815.618 767.350, 811.988 770.630 C 807.378 774.794, 807.718 776, 814.033 777.892 C 821.125 780.017, 821.529 785.625, 814.922 790.240 C 809.840 793.792, 809.782 796.411, 814.737 798.744 C 819.578 801.023, 819.827 802.935, 816.076 809.030 C 812.703 814.513, 812.190 818.083, 814.500 820 C 815.325 820.685, 816 821.849, 816 822.587 C 816 823.326, 816.957 824.442, 818.127 825.068 C 820.342 826.253, 820.584 826.091, 823.069 821.750 C 825.346 817.772, 828.805 819.388, 842.435 830.797 C 846.572 834.260, 851.879 837.935, 854.229 838.964 C 860.807 841.844, 870.335 843.351, 877.650 842.668 C 885.348 841.949, 889.174 843.223, 893.258 847.865 C 894.774 849.589, 896.449 851, 896.978 851 C 897.508 851, 899.867 852.303, 902.221 853.896 C 911.751 860.346, 917.865 864.013, 925 867.556 C 929.125 869.605, 933.625 872.069, 935 873.031 C 936.375 873.993, 937.842 874.821, 938.260 874.870 C 938.679 874.919, 940.254 875.585, 941.760 876.351 C 943.267 877.116, 950.800 879.832, 958.500 882.387 C 966.200 884.942, 973.177 887.410, 974.004 887.871 C 982.282 892.486, 1014.151 894.199, 1023.500 890.532 C 1033.180 886.735, 1051 875.703, 1051 873.506 C 1051 873.081, 1053.250 870.518, 1056 867.811 C 1058.750 865.104, 1061 862.519, 1061 862.067 C 1061 861.615, 1063.921 856.158, 1067.490 849.940 C 1071.060 843.723, 1074.251 837.705, 1074.581 836.568 C 1075.386 833.795, 1080.074 821.757, 1080.839 820.500 C 1081.173 819.950, 1081.464 819.050, 1081.485 818.500 C 1081.506 817.950, 1082.323 816.025, 1083.302 814.221 L 1085.081 810.942 1081.291 807.359 C 1071.769 798.359, 1063.076 792.835, 1051.567 788.473 C 1048.230 787.208, 1044.150 785.614, 1042.500 784.931 C 1040.850 784.247, 1039.050 783.620, 1038.500 783.537 C 1037.950 783.454, 1036.825 783.114, 1036 782.782 C 1029.605 780.207, 1003.269 777.331, 1001.578 779.022 C 999.982 780.618, 995.774 792.250, 995.631 795.459 C 995.515 798.071, 996.002 798.605, 999.772 800.009 C 1006.052 802.347, 1008.373 805.025, 1007.513 808.943 C 1006.511 813.504, 1003.253 814.481, 995.515 812.540 C 992.136 811.693, 988.613 811, 987.686 811 C 986.759 811, 986 810.523, 986 809.941 C 986 809.359, 985.507 809.187, 984.905 809.559 C 984.302 809.931, 982.840 809.767, 981.655 809.195 C 979.445 808.127, 977.120 807.576, 949.388 801.546 C 933.137 798.013, 931.136 797.504, 927.500 795.981 C 923.590 794.342, 915.436 792.047, 911.213 791.394 C 907.965 790.893, 906.222 789.880, 904.027 787.216 C 900.695 783.174, 896 774.496, 896 772.379 C 896 768.468, 885.821 752.678, 878.723 745.580 C 877.775 744.633, 877 743.439, 877 742.929 C 877 742.418, 876.498 742, 875.884 742 C 875.270 742, 871.567 739.188, 867.656 735.750 C 863.745 732.313, 859.187 728.375, 857.529 727 C 855.870 725.625, 853.078 723.038, 851.324 721.250 C 847.583 717.438, 847.775 717.486, 845.655 719.829 M 284.442 720.834 C 279.882 721.619, 278.742 726.546, 282.250 730.313 L 284.500 732.728 327.335 733.207 C 361.576 733.590, 370.431 733.426, 371.466 732.391 C 372.179 731.678, 372.988 731.322, 373.265 731.599 C 373.542 731.876, 374.259 730.695, 374.858 728.976 C 376.218 725.077, 374.180 721.411, 370.176 720.553 C 367.442 719.967, 287.966 720.228, 284.442 720.834 M 1006.667 721.667 C 1006.300 722.033, 1006 723.098, 1006 724.032 C 1006 724.966, 1005.100 726.874, 1004 728.273 C 1002.900 729.671, 1001.997 731.419, 1001.994 732.158 C 1001.990 732.896, 1001.358 734.707, 1000.588 736.183 C 999.818 737.658, 998.864 740.358, 998.466 742.183 C 998.069 744.007, 997.127 746.388, 996.372 747.473 C 995.618 748.557, 994.986 750.357, 994.968 751.473 C 994.951 752.588, 994.276 754.374, 993.468 755.441 C 992.661 756.509, 992 758.366, 992 759.569 C 992 760.771, 991.325 762.315, 990.500 763 C 988.639 764.544, 988.561 766, 990.339 766 C 991.657 766, 993.967 762.061, 994.034 759.703 C 994.053 759.041, 994.937 756.700, 996 754.500 C 997.063 752.300, 997.947 749.514, 997.966 748.309 C 997.985 747.104, 998.399 745.871, 998.887 745.570 C 999.374 745.269, 1000.088 743.345, 1000.473 741.295 C 1000.857 739.245, 1001.923 736.427, 1002.840 735.034 C 1003.758 733.640, 1005.261 730.925, 1006.181 729 C 1007.101 727.075, 1008.352 724.487, 1008.962 723.250 C 1009.837 721.473, 1009.783 721, 1008.702 721 C 1007.949 721, 1007.033 721.300, 1006.667 721.667 M 244 726 C 244 726.550, 244.900 727, 246 727 C 247.100 727, 248 726.550, 248 726 C 248 725.450, 247.100 725, 246 725 C 244.900 725, 244 725.450, 244 726 M 599.326 750.250 C 598.890 750.938, 598.679 762.730, 598.857 776.456 C 599.139 798.280, 599.388 801.572, 600.840 802.696 C 601.753 803.402, 603.400 803.872, 604.500 803.740 C 606.428 803.509, 606.518 802.565, 607 777.500 C 607.275 763.200, 607.339 750.938, 607.143 750.250 C 606.947 749.563, 605.286 749, 603.452 749 C 601.618 749, 599.761 749.563, 599.326 750.250 M 238.210 757.345 C 227.477 765.264, 226.518 774.885, 235.661 782.933 C 239.941 786.701, 240.713 787, 246.141 787 C 250.667 787, 252.455 786.545, 254 785 C 255.100 783.900, 256 783.286, 256 783.635 C 256 784.840, 259.710 779.489, 261.466 775.750 C 263.103 772.265, 263.114 771.760, 261.614 768.599 C 260.726 766.728, 260 764.714, 260 764.122 C 260 763.531, 257.710 761.236, 254.910 759.023 C 248.693 754.109, 243.328 753.569, 238.210 757.345 M 287.755 764.983 C 285.145 765.317, 282.482 766.118, 281.838 766.762 C 280.103 768.497, 280.418 773.847, 282.370 775.798 C 284.178 777.605, 294.202 777.779, 363.234 777.206 L 387.968 777 391.125 774.180 C 394.233 771.403, 394.255 771.319, 392.559 768.730 C 391.611 767.284, 389.399 765.627, 387.643 765.047 C 384.230 763.921, 296.481 763.864, 287.755 764.983 M 244 769.500 C 243.007 770.697, 243.007 771.303, 244 772.500 C 245.537 774.352, 246.117 774.366, 248.521 772.608 C 250.138 771.426, 250.224 770.975, 249.090 769.608 C 247.420 767.596, 245.612 767.558, 244 769.500 M 544.245 776.155 C 542.691 777.709, 542.517 799.228, 544.035 802.066 C 545.238 804.313, 549.232 804.630, 550.908 802.611 C 551.682 801.678, 551.969 796.989, 551.781 788.361 L 551.500 775.500 548.495 775.205 C 546.842 775.043, 544.930 775.470, 544.245 776.155 M 265.417 849.135 C 265.201 849.484, 262.994 850.074, 260.512 850.446 C 258.031 850.818, 256 851.545, 256 852.061 C 256 852.643, 335.836 853, 466.083 853 C 633.702 853, 676.084 852.747, 675.756 851.750 C 675.530 851.063, 674.030 850.368, 672.423 850.207 C 670.815 850.046, 668.825 849.667, 668 849.364 C 665.936 848.607, 655.045 848.622, 654.284 849.382 C 653.493 850.174, 643.526 850.193, 642.738 849.405 C 642.411 849.077, 638.479 848.810, 634 848.810 C 629.521 848.810, 625.589 849.077, 625.262 849.405 C 624.475 850.191, 617.506 850.173, 616.716 849.382 C 616.376 849.043, 613.354 848.765, 610 848.765 C 606.646 848.765, 603.624 849.043, 603.284 849.382 C 602.392 850.275, 557 850.145, 557 849.250 C 557 848.404, 521.064 848.603, 520.214 849.453 C 519.518 850.148, 502.509 850.176, 501.816 849.483 C 501.532 849.199, 475.740 848.966, 444.500 848.966 C 413.260 848.966, 387.468 849.199, 387.184 849.483 C 386.497 850.170, 318.486 850.153, 317.799 849.465 C 317.030 848.697, 265.887 848.374, 265.417 849.135" stroke="none" fill="#171916" fill-rule="evenodd"/>
</svg>