<svg role="img" aria-labelledby="artwork-title" shape-rendering="geometricPrecision" xmlns="http://www.w3.org/2000/svg" width="1200" height="1200" viewBox="0 0 1200 1200" version="1.1">
	<title id="artwork-title">Mascot holding a laptop showing a website</title>
	<path d="M 838 180 C 838 180.550, 836.434 181, 834.520 181 C 830.043 181, 823.741 183.516, 817.760 187.691 C 812.586 191.304, 809.042 191.792, 804.645 189.499 C 794.929 184.431, 777.826 186.444, 770.154 193.558 C 768.706 194.901, 767.081 196, 766.543 196 C 765.316 196, 757.037 205.140, 757.016 206.518 C 757.007 207.078, 755.875 209.191, 754.500 211.215 C 753.125 213.238, 752 216.178, 752 217.747 C 752 222.003, 750.560 222.920, 745.673 221.776 C 739.363 220.298, 721.553 221.567, 714.501 223.997 C 706.570 226.729, 702.380 229.617, 692.986 238.825 C 688.680 243.046, 682.722 248.813, 679.747 251.641 C 672.023 258.981, 668.717 266.316, 668.766 276 C 668.804 283.490, 667.448 287, 664.515 287 C 663.869 287, 660.518 289.554, 657.069 292.676 C 649.936 299.131, 644.741 308.622, 642.905 318.556 C 641.843 324.300, 642.368 333.245, 644.011 337.403 C 644.466 338.556, 645.567 341.887, 646.457 344.804 L 648.076 350.107 644.038 354.694 C 641.817 357.217, 640 359.856, 640 360.557 C 640 361.259, 639.538 361.987, 638.974 362.175 C 637.168 362.777, 633.946 378.090, 634.591 383 C 635.903 392.976, 641.290 402.479, 650.148 410.443 C 655.151 414.942, 655.165 414.970, 653.968 418.597 C 651.941 424.740, 653.163 438.497, 656.321 445.096 C 659.514 451.767, 659.574 452.485, 657.080 454.232 C 651.924 457.843, 645.816 467.057, 642.906 475.613 C 641.264 480.441, 639.454 484.953, 638.885 485.639 C 638.316 486.325, 637.965 489.380, 638.106 492.428 C 638.248 495.476, 638.056 498.277, 637.682 498.652 C 636.694 499.640, 636.844 506.785, 637.866 507.417 C 638.342 507.711, 638.524 509.038, 638.270 510.366 C 638.017 511.693, 638.477 513.841, 639.292 515.140 C 640.108 516.438, 641.073 519.193, 641.435 521.263 C 642.020 524.595, 643.638 528.159, 649 537.926 C 649.825 539.429, 652.009 541.989, 653.852 543.615 L 657.205 546.572 657.382 560.536 C 657.502 569.956, 657.990 575.274, 658.883 576.877 C 659.611 578.185, 660.816 582.747, 661.562 587.016 C 662.307 591.285, 663.824 596.290, 664.934 598.139 C 669.081 605.048, 672 610.983, 672 612.507 C 672 614.473, 676.006 619.998, 677.438 620.007 C 678.599 620.014, 682.456 625.312, 683.622 628.500 C 684.971 632.190, 689.411 637.252, 693.610 639.887 C 695.900 641.324, 699.874 645.087, 702.442 648.250 C 705.009 651.413, 707.699 654, 708.420 654 C 710.352 654, 715.112 658.010, 714.451 659.080 C 714.138 659.586, 710.785 660, 707 660 C 703.215 660, 699.852 660.430, 699.527 660.956 C 699.202 661.482, 698.230 661.642, 697.367 661.311 C 696.504 660.979, 695.505 661.183, 695.147 661.763 C 694.788 662.342, 691.090 663.520, 686.927 664.380 C 682.765 665.240, 676.016 667.115, 671.930 668.548 C 667.843 669.980, 662.937 671.543, 661.027 672.021 C 659.117 672.499, 657.042 673.590, 656.417 674.445 C 655.791 675.300, 654.561 676, 653.683 676 C 651.717 676, 632.628 685.844, 632.167 687.096 C 631.983 687.593, 631.196 688, 630.417 688 C 629.638 688, 629 688.450, 629 689 C 629 689.550, 628.559 690, 628.019 690 C 626.714 690, 612.715 699.434, 611.058 701.430 C 606.968 706.358, 607.001 707.007, 606.988 620.750 C 606.978 553.075, 606.726 537.559, 605.563 533.190 C 603.913 526.991, 597.616 518.162, 592.661 515.100 C 584.030 509.765, 593.890 510.023, 397.654 510.011 C 194.120 509.999, 209.329 509.446, 199.500 517.217 C 193.775 521.743, 188.338 529.114, 187.490 533.500 C 187.171 535.150, 186.818 608.725, 186.705 697 L 186.500 857.500 182 859.019 C 179.525 859.855, 175.885 861.430, 173.911 862.519 C 170.489 864.408, 164.095 867.605, 152 873.476 C 148.975 874.944, 144.700 877.227, 142.500 878.549 C 140.300 879.871, 137.540 881.382, 136.368 881.907 C 135.195 882.432, 133.282 884.199, 132.118 885.835 C 130.212 888.512, 130 890.161, 130 902.347 C 130 917.171, 130.905 920.149, 137.244 926.180 C 143.498 932.129, 141.250 932.004, 236.305 931.721 C 312.906 931.494, 323.262 931.642, 324.409 932.982 C 325.124 933.817, 327 936.975, 328.578 940 C 330.156 943.025, 334.650 948.701, 338.564 952.613 C 346.298 960.342, 346.598 960.467, 360.788 961.865 C 368.040 962.579, 369.477 963.057, 372.288 965.687 C 381.859 974.643, 390.620 977.688, 403.268 976.454 C 408.708 975.923, 410.537 976.122, 412.590 977.467 C 414.293 978.583, 416.779 979.054, 420.049 978.880 C 422.746 978.737, 425.264 978.930, 425.643 979.310 C 426.644 980.311, 430.785 980.157, 431.442 979.094 C 431.750 978.596, 432.900 978.423, 433.997 978.710 C 435.095 978.997, 437.457 978.559, 439.246 977.738 C 441.036 976.916, 445.600 975.945, 449.389 975.580 C 456.134 974.930, 469.460 970.940, 471.414 968.986 C 472.668 967.732, 479.577 967.703, 481.893 968.943 C 482.862 969.461, 489.437 971.036, 496.504 972.443 C 510.328 975.194, 532.697 975.937, 542 973.954 C 544.475 973.426, 549.200 972.487, 552.500 971.867 C 555.800 971.248, 559.715 970.124, 561.200 969.370 C 562.686 968.617, 564.962 968, 566.259 968 C 567.556 968, 569.491 967.337, 570.559 966.527 C 571.626 965.717, 575.287 963.691, 578.693 962.024 C 582.099 960.358, 585.163 958.546, 585.502 957.997 C 585.841 957.449, 586.879 956.996, 587.809 956.991 C 588.739 956.986, 591.750 954.973, 594.500 952.518 C 597.250 950.063, 599.904 948.042, 600.397 948.027 C 601.382 947.997, 608.879 942.030, 612.574 938.336 C 615.676 935.233, 618.466 935.186, 617.590 938.250 C 617.236 939.487, 616.254 950.392, 615.408 962.481 C 614.512 975.281, 613.425 984.738, 612.804 985.121 C 612.126 985.540, 611.695 991.913, 611.619 1002.640 L 611.500 1019.500 767.250 1019.753 C 855.596 1019.897, 923 1019.628, 923 1019.133 C 923 1018.652, 919.288 1015.876, 914.750 1012.963 C 910.212 1010.050, 903.525 1005.267, 899.889 1002.333 C 896.252 999.400, 892.963 997, 892.579 997 C 892.196 997, 889.383 994.638, 886.330 991.750 C 883.277 988.863, 878.514 984.363, 875.747 981.750 C 872.979 979.138, 870.441 976.986, 870.107 976.969 C 868.944 976.909, 857 965.173, 857 964.091 C 857 963.491, 856.544 963, 855.986 963 C 855.428 963, 852.437 960.300, 849.338 957 L 843.705 951 830.942 951 C 820.999 951, 816.777 950.561, 811.839 949.013 C 808.353 947.920, 804.726 947.020, 803.781 947.013 C 801.025 946.992, 794.033 943.033, 786.648 937.310 C 781.364 933.216, 778.995 932, 776.299 932 C 771.635 932, 766.394 929.394, 761.783 924.783 C 758.485 921.485, 758 920.401, 758 916.329 C 758 913.596, 758.618 910.975, 759.488 910.013 C 760.307 909.109, 761.257 906.966, 761.600 905.251 C 762.118 902.659, 761.740 901.697, 759.362 899.556 C 753.173 893.985, 752 892.621, 752 890.995 C 752 888.111, 754.729 883.663, 758.950 879.666 C 763.310 875.538, 763.960 872.815, 761.443 869.223 C 760.297 867.585, 758.880 867, 756.066 867 C 751.025 867, 749.771 865.413, 751.077 860.684 C 751.636 858.658, 752.523 857, 753.047 857 C 753.571 857, 754 856.311, 754 855.469 C 754 854.626, 754.788 853.639, 755.750 853.275 C 756.712 852.910, 758.078 852.041, 758.784 851.344 C 759.490 850.646, 761.673 849.632, 763.635 849.090 C 769.327 847.519, 771.226 843.786, 768.916 838.714 C 767.786 836.234, 762.017 833.702, 754.500 832.386 C 752.300 832.001, 749.150 831.137, 747.500 830.466 C 745.850 829.795, 742.368 828.939, 739.762 828.564 C 737.156 828.188, 734.445 827.302, 733.737 826.594 C 733.029 825.886, 730.661 824.981, 728.475 824.583 C 717.537 822.589, 705.575 817.557, 704.105 814.331 C 702.467 810.736, 702.734 809.175, 705.455 806.455 C 707.701 804.208, 708.681 804, 717 804 C 726.016 804, 740.500 805.824, 753 808.533 C 756.575 809.308, 762.288 810.376, 765.696 810.907 C 769.103 811.437, 772.928 812.452, 774.196 813.161 C 776.390 814.389, 781.488 815.770, 792.462 818.110 C 795.191 818.692, 798.674 819.814, 800.203 820.605 C 803.916 822.525, 811.222 822.754, 814.406 821.050 C 816.593 819.880, 817.610 819.881, 821.176 821.058 C 823.485 821.820, 826.592 823.469, 828.081 824.722 C 829.570 825.975, 831.079 827, 831.435 827 C 832.158 827, 837.715 830.823, 839.794 832.750 C 840.536 833.438, 841.538 834, 842.020 834 C 843.193 834, 848 838.500, 848 839.598 C 848 840.076, 850.475 842.789, 853.500 845.626 C 856.525 848.464, 859 851.102, 859 851.489 C 859 851.875, 861.587 856.086, 864.750 860.846 C 867.913 865.606, 871.075 870.625, 871.778 872 C 874.794 877.899, 875.955 879.223, 879.624 880.948 C 890.579 886.097, 892.763 887, 894.264 887 C 895.162 887, 897.111 888.125, 898.595 889.500 C 900.078 890.875, 902.014 892, 902.896 892.001 C 903.778 892.002, 907.650 893.569, 911.500 895.484 C 915.350 897.399, 919.227 898.974, 920.115 898.983 C 921.003 898.992, 922.900 899.920, 924.330 901.045 C 925.760 902.169, 927.167 903.076, 927.458 903.060 C 927.748 903.043, 931.252 904.516, 935.243 906.333 C 939.234 908.150, 944.075 910.216, 946 910.925 C 954.600 914.091, 955.853 914.633, 957.245 915.789 C 958.058 916.463, 962.498 918.326, 967.111 919.929 C 971.725 921.531, 976.850 923.550, 978.500 924.415 C 980.150 925.280, 982.239 925.990, 983.143 925.994 C 984.047 925.997, 985.006 926.572, 985.274 927.272 C 985.542 927.971, 989.619 930.043, 994.332 931.877 C 1002.202 934.938, 1003.155 935.100, 1005.984 933.855 C 1011.354 931.494, 1011.565 922.392, 1006.290 920.670 C 1005.306 920.348, 1002.700 918.954, 1000.500 917.571 C 994.816 913.999, 985.003 909.002, 983.647 908.990 C 983.016 908.984, 980.475 907.961, 978 906.716 L 973.500 904.454 973.858 898.477 C 974.055 895.190, 974.419 892.163, 974.667 891.750 C 974.915 891.338, 977.566 891, 980.559 891 C 983.552 891, 986 890.550, 986 890 C 986 888.789, 992.666 888.650, 993.405 889.846 C 993.692 890.311, 999.465 890.987, 1006.232 891.349 C 1013 891.711, 1020.104 892.460, 1022.019 893.014 C 1023.933 893.568, 1027.975 894.466, 1031 895.011 C 1039.348 896.515, 1050.271 899.530, 1053.033 901.094 C 1054.390 901.862, 1055.950 902.520, 1056.500 902.556 C 1057.050 902.592, 1059.613 903.607, 1062.195 904.811 C 1064.777 906.015, 1067.298 907, 1067.796 907 C 1068.294 907, 1070.907 908.194, 1073.601 909.654 C 1076.295 911.113, 1079.754 912.955, 1081.287 913.745 C 1086.717 916.547, 1087.026 918.013, 1085.342 933 C 1084.508 940.425, 1083.553 947.175, 1083.220 948 C 1082.887 948.825, 1082.545 949.950, 1082.460 950.500 C 1082.376 951.050, 1082.008 952.175, 1081.644 953 C 1081.279 953.825, 1080.337 957.875, 1079.549 962 C 1076.415 978.419, 1071.728 994.333, 1069.293 996.821 C 1068.582 997.548, 1068 998.774, 1068 999.546 C 1068 1001.224, 1061.409 1013.755, 1059.202 1016.274 C 1056.624 1019.215, 1058.959 1020.107, 1068.408 1019.791 C 1078.193 1019.465, 1077.147 1020.274, 1082.367 1009 C 1087.683 997.520, 1088.149 996.144, 1092.704 978.500 C 1093.697 974.650, 1094.855 970.966, 1095.275 970.313 C 1096.316 968.698, 1099.620 952.472, 1101.111 941.657 C 1102.388 932.385, 1103.672 930, 1107.384 930 C 1110.223 930, 1114.401 925.678, 1116.568 920.500 C 1119.017 914.646, 1120.261 889.483, 1119.705 857 C 1119.288 832.568, 1118.946 828.050, 1116.639 816.500 C 1112.822 797.386, 1111.126 790.104, 1110.003 788.005 C 1109.451 786.975, 1109 785.202, 1109 784.066 C 1109 782.930, 1108.550 782, 1108 782 C 1107.450 782, 1107 781.340, 1107 780.534 C 1107 779.728, 1106.268 777.365, 1105.372 775.284 C 1097.487 756.952, 1097.623 757.214, 1089.121 744.021 C 1083.884 735.896, 1074.391 724.503, 1065.564 715.750 C 1061.266 711.487, 1057.574 708, 1057.361 708 C 1057.147 708, 1054.616 706.084, 1051.736 703.742 C 1042.028 695.847, 1026.418 686.196, 1015.084 681.082 C 1008.889 678.287, 1003.061 676, 1002.133 676 C 1001.205 676, 999.557 675.397, 998.473 674.659 C 997.388 673.922, 992.900 672.180, 988.500 670.789 C 984.100 669.398, 977.453 667.301, 973.729 666.130 C 970.005 664.958, 966.180 663.997, 965.229 663.994 C 964.278 663.990, 962.161 663.289, 960.525 662.436 C 958.888 661.583, 956.827 661.073, 955.946 661.304 C 955.064 661.535, 953.555 661.147, 952.592 660.444 C 950.177 658.678, 952.124 655.125, 955.922 654.366 C 959.795 653.591, 976.415 636.659, 977.890 631.986 C 978.780 629.168, 980.009 627.993, 984.103 626.050 C 986.909 624.717, 989.460 622.923, 989.771 622.063 C 990.081 621.203, 991.777 619.072, 993.540 617.326 C 995.303 615.580, 997.063 612.880, 997.451 611.326 C 997.839 609.772, 999.083 606.996, 1000.217 605.157 C 1002.068 602.154, 1002.595 601.889, 1005.389 602.550 C 1011.189 603.922, 1028.235 603.489, 1033.605 601.832 C 1046.481 597.860, 1062.587 584.858, 1071.893 570.923 C 1076.261 564.381, 1081 550.840, 1081 544.898 C 1081 542.819, 1081.450 540.840, 1082 540.500 C 1082.550 540.160, 1083 536.560, 1083 532.500 C 1083 528.440, 1082.550 524.840, 1082 524.500 C 1081.450 524.160, 1081 522.655, 1081 521.156 C 1081 517.235, 1077.235 507.039, 1074.414 503.317 C 1073.086 501.566, 1072 499.610, 1072 498.970 C 1072 498.330, 1073.783 495.781, 1075.963 493.305 C 1081.275 487.270, 1084.973 480.778, 1086.618 474.600 C 1088.238 468.517, 1088.420 457.654, 1086.949 454.904 C 1086.046 453.218, 1086.730 452.130, 1091.780 447.220 C 1097.589 441.572, 1104 433.117, 1104 431.104 C 1104 430.149, 1105.633 426.055, 1108.389 420.098 C 1109.836 416.969, 1109.766 399.861, 1108.293 396.840 C 1107.666 395.553, 1105.505 391.020, 1103.490 386.766 C 1101.475 382.513, 1098.432 377.858, 1096.727 376.424 C 1094.155 374.260, 1093.827 373.533, 1094.799 372.158 C 1097.336 368.570, 1100.162 362.283, 1101.162 358 C 1102.884 350.627, 1103.333 334.076, 1101.977 328 C 1100.461 321.210, 1096.477 312, 1095.055 312 C 1094.475 312, 1094 311.325, 1094 310.500 C 1094 309.675, 1093.550 309, 1093 309 C 1092.450 309, 1092 308.367, 1092 307.593 C 1092 306.176, 1082.963 298.014, 1081.361 297.984 C 1080.888 297.975, 1079.046 296.686, 1077.270 295.119 C 1075.493 293.553, 1071.893 291.712, 1069.270 291.029 C 1066.646 290.346, 1062.539 289.273, 1060.142 288.644 L 1055.784 287.500 1055.547 276 C 1055.288 263.467, 1053.354 256.507, 1047.906 248.500 C 1036.278 231.409, 1011.194 220.042, 993.693 223.932 C 976.480 227.758, 975.058 227.667, 975.015 222.739 C 974.989 219.720, 970.799 211.732, 966.338 206.198 C 954.314 191.281, 941.375 185.172, 920 184.324 C 912.952 184.044, 905.755 184.273, 903.500 184.848 C 901.300 185.410, 897.025 186.493, 894 187.254 C 887.750 188.828, 884.720 190.282, 880.673 193.649 C 876.564 197.067, 874.436 196.599, 868.207 190.907 C 862.769 185.936, 853.635 181, 849.876 181 C 848.844 181, 848 180.550, 848 180 C 848 179.450, 845.750 179, 843 179 C 840.250 179, 838 179.450, 838 180 M 828 199.134 C 823.144 201.284, 819 204.664, 819 206.475 C 819 207.094, 816.985 208.875, 814.522 210.432 C 812.059 211.988, 810.297 213.672, 810.606 214.172 C 811.519 215.649, 815.105 213.995, 818.830 210.377 C 820.742 208.519, 822.843 207, 823.498 207 C 824.154 207, 825.476 206.131, 826.437 205.070 C 827.637 203.744, 830.158 202.928, 834.488 202.464 C 843.667 201.481, 848.285 202.577, 853.998 207.092 C 862.002 213.420, 864.799 212.126, 858.082 205.203 C 850.317 197.203, 837.981 194.714, 828 199.134 M 902 202.817 C 893.689 204.969, 884.339 210.045, 879.437 215.065 C 877.323 217.229, 876.109 219, 876.738 219 C 877.367 219, 878.165 218.543, 878.510 217.984 C 878.856 217.425, 879.506 217.195, 879.956 217.473 C 880.405 217.751, 881.311 217.330, 881.968 216.539 C 885.555 212.217, 900.839 207.635, 911.923 207.559 C 930.994 207.428, 946.698 216.178, 955.500 231.837 C 957.700 235.751, 960.063 238.964, 960.750 238.977 C 962.481 239.009, 962.333 237.626, 959.800 230.127 C 956.302 219.773, 944.384 208.377, 933 204.503 C 932.725 204.409, 931.150 203.725, 929.500 202.983 C 924.921 200.924, 909.664 200.832, 902 202.817 M 790.625 203.798 C 790.308 204.311, 788.956 204.523, 787.622 204.268 C 786.030 203.964, 784.474 204.526, 783.098 205.902 C 781.944 207.056, 780.372 208, 779.604 208 C 776.337 208, 768 220.871, 768 225.914 C 768 228.911, 770.084 227.558, 773.325 222.457 C 779.152 213.286, 788.238 208.276, 797.132 209.329 L 801.989 209.904 799.807 206.952 C 798.606 205.329, 796.845 204, 795.894 204 C 794.942 204, 793.497 203.744, 792.683 203.432 C 791.869 203.119, 790.943 203.284, 790.625 203.798 M 871 222.500 C 868.662 224.989, 868.661 225, 870.791 225 C 872.607 225, 875 222.479, 875 220.566 C 875 219.285, 873.205 220.153, 871 222.500 M 729 238.696 C 716.649 240.791, 704.077 250.116, 698.073 261.636 C 695.829 265.941, 695.229 274.310, 696.793 279.500 C 697.625 282.265, 697.754 282.016, 698.438 276.324 C 698.930 272.222, 699.821 269.567, 701.090 268.419 C 702.140 267.468, 703 266.169, 703 265.533 C 703 264.031, 711.933 252, 713.048 252 C 713.516 252, 715.938 250.624, 718.429 248.943 C 721.067 247.163, 725.101 245.547, 728.089 245.075 C 730.910 244.629, 733.507 243.799, 733.859 243.230 C 734.212 242.661, 736.638 241.876, 739.250 241.484 C 741.862 241.093, 744 240.430, 744 240.011 C 744 238.384, 735.326 237.623, 729 238.696 M 993.664 241.735 C 993.325 242.283, 991.864 242.506, 990.417 242.229 C 988.971 241.952, 987.498 242.133, 987.144 242.630 C 986.790 243.127, 984.284 244.108, 981.575 244.810 C 978.817 245.524, 975.602 247.216, 974.269 248.654 C 971.277 251.884, 971.958 252.729, 975.619 250.330 C 977.996 248.772, 980.503 248.504, 992.456 248.525 L 1006.500 248.551 1013 252 C 1025.724 258.753, 1034.994 271.100, 1036.522 283.331 C 1037.549 291.554, 1039 290.280, 1039 281.155 C 1039 271.320, 1036.620 263.814, 1031.533 257.605 C 1027.099 252.195, 1020.850 247, 1018.776 247 C 1017.985 247, 1015.125 245.873, 1012.419 244.495 C 1007.114 241.794, 994.752 239.975, 993.664 241.735 M 671.064 301.599 C 666.019 305.845, 661 314.200, 661 318.354 C 661 320.359, 661.288 322, 661.640 322 C 662.732 322, 664.935 318.585, 664.968 316.840 C 664.986 315.927, 666.800 312.902, 669 310.119 C 671.200 307.336, 673 304.648, 673 304.146 C 673 303.644, 673.825 303.018, 674.833 302.754 C 676.882 302.218, 677.376 299, 675.410 299 C 674.719 299, 672.763 300.170, 671.064 301.599 M 1050.494 305.009 C 1049.492 306.631, 1050.993 310, 1052.717 310 C 1053.588 310, 1056.779 311.238, 1059.808 312.750 C 1071.693 318.684, 1080.062 330.606, 1080.832 342.700 C 1081.052 346.165, 1081.689 349, 1082.247 349 C 1082.856 349, 1083.058 350.793, 1082.753 353.500 C 1082.136 358.971, 1083.384 359.368, 1085.109 354.250 C 1086.580 349.886, 1086.514 339.623, 1084.979 333.921 C 1083.704 329.189, 1077.737 318.588, 1074.201 314.776 C 1071.364 311.716, 1056.295 304, 1053.157 304 C 1052.035 304, 1050.837 304.454, 1050.494 305.009 M 771.763 317.790 C 769.086 323.458, 764.398 330, 763.012 330 C 762.628 330, 760.772 331.376, 758.888 333.059 C 751.345 339.796, 734.342 343.845, 724.737 341.193 C 721.477 340.293, 720.856 340.400, 719.993 342.013 C 719.447 343.034, 719 344.966, 719 346.307 C 719 352.262, 708.693 368.556, 703.095 371.451 C 698.958 373.590, 697 376.772, 697 381.352 C 697 383.501, 696.121 388.689, 695.047 392.880 C 693.974 397.071, 692.355 405, 691.450 410.500 C 690.545 416, 689.446 421.400, 689.006 422.500 C 687.936 425.179, 685.857 444.960, 686.532 446.051 C 686.825 446.525, 688.998 445.551, 691.361 443.885 C 703.363 435.425, 740.516 434.543, 766.265 442.106 C 772.249 443.864, 773.892 444.945, 780.515 451.482 C 785.082 455.991, 788 459.686, 788 460.960 C 788 463.947, 791.589 464.991, 797.700 463.783 C 801.776 462.977, 805.402 463.195, 815.578 464.858 C 822.599 466.005, 828.806 467.406, 829.372 467.972 C 831.419 470.019, 833.969 468.901, 839.212 463.657 C 849.054 453.816, 861.139 449.981, 882.192 450.018 C 896.882 450.044, 917.856 453.376, 926.500 457.055 C 928.150 457.758, 929.725 458.390, 930 458.461 C 931.931 458.960, 939.899 463.700, 943.762 466.648 C 948.252 470.076, 949.753 471.933, 951.937 476.762 C 953.305 479.787, 955.702 480.585, 967.421 481.913 C 972.877 482.532, 977.827 483.418, 978.421 483.883 C 979.014 484.347, 982.142 485.024, 985.370 485.387 C 991.764 486.105, 994.108 485.127, 993.310 482.076 C 993.044 481.058, 993.315 479.923, 993.913 479.554 C 995.729 478.431, 995.155 476.279, 991.750 471.443 C 988.544 466.890, 988.501 466.678, 988.546 455.664 C 988.586 446.112, 988.930 443.778, 990.932 439.500 C 994.186 432.544, 994.127 431.334, 990.387 428.482 C 979.988 420.550, 975.016 411.605, 974.279 399.500 C 973.909 393.442, 974.206 390.408, 975.502 387 C 976.443 384.525, 977.278 381.375, 977.356 380 C 977.495 377.589, 977.233 377.480, 970 376.935 C 961.903 376.326, 953.174 372.885, 948.198 368.342 C 941.275 362.020, 939 359.631, 939 358.683 C 939 358.119, 938.401 356.947, 937.669 356.079 C 935.215 353.166, 932.836 345.053, 932.786 339.419 C 932.724 332.607, 931.775 332.079, 925.351 335.284 C 916.489 339.706, 901.103 341.674, 891.331 339.636 C 883.080 337.916, 873.197 333.676, 872.361 331.499 C 872.045 330.675, 871.197 330, 870.477 330 C 868.886 330, 863.446 323.302, 862.045 319.618 C 860.561 315.716, 858.717 315.528, 855.097 318.909 C 850.054 323.620, 835.583 330, 829.940 330 C 828.388 330, 826.866 330.408, 826.558 330.906 C 826.250 331.404, 825.098 331.577, 823.999 331.289 C 822.882 330.997, 822 331.259, 822 331.883 C 822 333.341, 813.340 333.360, 812.441 331.904 C 812.068 331.301, 810.447 331.001, 808.838 331.237 C 807.228 331.473, 805.680 331.292, 805.397 330.833 C 805.114 330.375, 804.030 330, 802.988 330 C 800.408 330, 786.127 322.423, 782.831 319.305 C 781.363 317.917, 779.892 315.705, 779.562 314.390 C 779.153 312.763, 778.249 312, 776.729 312 C 774.991 312, 773.891 313.282, 771.763 317.790 M 200.775 377.556 C 195.928 380.191, 194.862 385.291, 196.988 395.674 C 197.532 398.328, 199.368 408.150, 201.068 417.500 C 202.768 426.850, 204.626 435.734, 205.197 437.241 C 206.655 441.090, 212.083 444.302, 215.144 443.127 C 218.255 441.932, 223 437.455, 223 435.715 C 223 433.164, 220.710 422.511, 219.945 421.500 C 219.528 420.950, 218.885 418.250, 218.515 415.500 C 217.589 408.607, 213.125 386.160, 211.952 382.500 C 211.124 379.914, 209.005 378.196, 204.500 376.460 C 203.950 376.248, 202.274 376.741, 200.775 377.556 M 1081 388.365 C 1081 389.116, 1081.880 390.849, 1082.956 392.217 C 1086.121 396.241, 1089 404.701, 1089 409.978 C 1089 412.675, 1089.450 415.160, 1090 415.500 C 1091.628 416.506, 1091.178 403.421, 1089.371 397.203 C 1088.475 394.121, 1087.125 390.982, 1086.371 390.228 C 1085.617 389.474, 1085 388.439, 1085 387.929 C 1085 387.418, 1084.100 387, 1083 387 C 1081.900 387, 1081 387.614, 1081 388.365 M 732 405.445 C 725.918 406.857, 718 410.540, 718 411.956 C 718 412.456, 717.138 413.139, 716.084 413.473 C 714.152 414.087, 712 418.684, 712 422.197 C 712 423.241, 713.237 425.244, 714.750 426.647 C 717.331 429.041, 717.901 429.152, 724 428.446 C 735.786 427.083, 754.066 427.564, 758.876 429.363 C 765.843 431.970, 768.740 431.536, 772.615 427.305 C 778.513 420.866, 776.464 414.384, 766.732 408.696 C 759.382 404.399, 743.075 402.873, 732 405.445 M 880.915 415.959 C 873.597 416.708, 868.726 419.175, 865.235 423.896 C 862.332 427.822, 862.407 431.142, 865.480 434.794 C 869.358 439.402, 872.821 440.411, 880.300 439.108 C 883.800 438.499, 888.428 438, 890.585 438 C 896.032 438, 907.127 441.331, 915.558 445.496 C 919.458 447.423, 923.567 449, 924.690 449 C 928.672 449, 935 441.974, 935 437.553 C 935 433.538, 919.728 422, 914.414 422 C 913.636 422, 913 421.522, 913 420.937 C 913 420.353, 912.212 419.995, 911.250 420.142 C 910.288 420.289, 908.591 419.907, 907.480 419.293 C 905.320 418.098, 890.945 414.905, 888.792 415.142 C 888.081 415.220, 884.537 415.588, 880.915 415.959 M 119.297 422.647 C 113.702 428.579, 114.468 429.851, 136.893 451.889 C 151.351 466.097, 160.496 474, 162.481 474 C 163.238 474, 165.465 472.484, 167.429 470.632 C 170.121 468.093, 171 466.452, 171 463.967 C 171 461.032, 169.212 458.900, 154.749 444.585 C 125.619 415.752, 125.733 415.823, 119.297 422.647 M 711.285 458.094 C 702.742 462.396, 697.403 467.271, 694.487 473.435 C 693.119 476.327, 692 479.157, 692 479.724 C 692 480.291, 691.388 481.263, 690.640 481.884 C 689.198 483.081, 689.563 487.612, 691.182 488.613 C 692.325 489.319, 696 486.171, 696 484.487 C 696 482.863, 714.513 464.238, 719.785 460.558 C 722.103 458.940, 724 457.028, 724 456.308 C 724 453.985, 717.684 454.872, 711.285 458.094 M 664.980 470.342 C 658.587 475.842, 655 486.413, 655 499.755 C 655 504.675, 655.428 510.006, 655.951 511.601 C 656.474 513.195, 657.395 516.426, 657.998 518.780 C 659.252 523.680, 660.478 523.604, 661.294 518.575 C 661.604 516.665, 662.491 513.617, 663.264 511.801 C 666.299 504.678, 667.281 501.077, 669.209 490 C 670.783 480.955, 670.975 477.844, 670.105 475.429 C 669.497 473.740, 669 471.629, 669 470.738 C 669 468.152, 667.677 468.021, 664.980 470.342 M 874 468.723 C 873.175 469.033, 871.375 469.747, 870 470.310 C 868.625 470.872, 867.177 471.370, 866.781 471.416 C 866.386 471.462, 863.363 473.877, 860.063 476.781 C 851.147 484.629, 843.402 500, 848.363 500 C 849.113 500, 854.358 495.019, 860.019 488.931 C 865.680 482.844, 872.942 476.077, 876.156 473.894 C 879.370 471.711, 882 469.492, 882 468.963 C 882 467.940, 876.517 467.775, 874 468.723 M 796.025 483.975 C 794.002 485.998, 793.541 487.423, 792.565 494.666 C 792.256 496.958, 791.364 500.108, 790.584 501.666 C 789.803 503.225, 787.488 508.100, 785.438 512.500 C 782.475 518.864, 780.147 522.034, 774.054 528 C 761.080 540.706, 750.332 544.587, 730.500 543.727 C 717.579 543.167, 709.284 541.098, 702.309 536.695 C 695.626 532.477, 687.195 524.083, 683.453 517.923 C 681.474 514.665, 679.438 512, 678.928 512 C 678.417 512, 678 515.375, 678 519.500 C 678 523.625, 677.663 527, 677.250 526.999 C 676.837 526.999, 676.554 529.051, 676.620 531.559 C 676.711 535.019, 677.375 536.782, 679.370 538.865 C 681.628 541.221, 682 542.480, 682 547.770 C 682 553.150, 682.285 554.076, 684.250 555.082 C 687.503 556.748, 689.950 560.121, 689.993 563 C 690.042 566.245, 690.868 567.386, 694.408 569.096 C 697.580 570.628, 698.573 572.038, 699.469 576.290 C 700.014 578.872, 700.320 579.031, 703.569 578.421 C 707.706 577.645, 711 579.939, 711 583.596 C 711 586.463, 712.483 587.395, 717.235 587.514 C 719.856 587.580, 721.827 588.418, 723.796 590.304 C 726.519 592.913, 728.909 593.792, 729.086 592.250 C 729.134 591.837, 729.311 589.475, 729.479 587 C 729.866 581.333, 736.962 566.816, 740.567 564.318 C 742.010 563.318, 744.159 561.600, 745.343 560.500 C 748.647 557.429, 757.856 553.829, 764.313 553.085 C 770.116 552.415, 771.954 551.151, 771.985 547.807 C 772.005 545.546, 775.798 543, 779.146 543 C 780.653 543, 783.759 544.451, 786.173 546.282 C 792.484 551.069, 797.504 554, 799.393 554 C 800.304 554, 803.611 553.100, 806.740 552 C 815.324 548.983, 818.988 549.315, 823.297 553.500 C 826.355 556.469, 827.597 557, 831.496 557 C 834.479 557, 837.740 557.877, 840.788 559.500 C 843.371 560.875, 846.068 562, 846.781 562 C 847.495 562, 850.418 563.575, 853.276 565.500 C 856.135 567.425, 858.950 569, 859.534 569 C 860.805 569, 866.988 575.438, 869.276 579.145 C 871.776 583.195, 875 593.051, 875 596.643 C 875 598.866, 875.759 600.452, 877.466 601.795 C 878.822 602.862, 879.647 604.019, 879.299 604.367 C 878.951 604.715, 879.163 605, 879.770 605 C 880.377 605, 881.014 606.420, 881.187 608.156 L 881.500 611.311 884.644 608.656 C 888.158 605.688, 893.044 605.143, 895 607.500 C 896.821 609.694, 898.281 609.360, 901.488 606.012 C 904.706 602.654, 910.356 601.117, 913.126 602.847 C 915.328 604.222, 920 602.736, 920 600.661 C 920 599.898, 921.233 598.040, 922.740 596.532 C 925.146 594.127, 926.065 593.848, 930.249 594.250 C 934.760 594.683, 935.126 594.531, 937.041 591.434 C 939.285 587.802, 945.605 583.551, 946.531 585.050 C 948.028 587.473, 950.941 585.812, 953.174 581.261 C 954.695 578.164, 956.539 576.068, 958.500 575.209 C 963.796 572.891, 964.364 572.409, 965.318 569.429 C 965.834 567.818, 967.258 565.150, 968.483 563.500 C 969.709 561.850, 971.628 558.700, 972.749 556.500 C 973.870 554.300, 975.756 551.624, 976.940 550.553 C 979.070 548.626, 980.565 545.795, 983.040 539 C 983.741 537.075, 985.585 534.138, 987.137 532.474 C 989.705 529.720, 989.904 528.985, 989.350 524.309 C 989.015 521.482, 989.301 516.202, 989.986 512.576 C 990.923 507.607, 990.947 505.641, 990.083 504.600 C 988.560 502.765, 983.123 502.092, 967.680 501.828 C 953.703 501.589, 953.045 501.836, 953.015 507.333 C 952.994 511.270, 947.697 524.112, 943.462 530.491 C 938.410 538.103, 929.475 546.622, 922.370 550.603 C 915 554.733, 903.162 559, 899.078 559 C 897.450 559, 895.840 559.450, 895.500 560 C 894.738 561.233, 881.327 561.338, 880.572 560.117 C 880.272 559.631, 877.433 558.912, 874.263 558.519 C 865.406 557.420, 855.495 552.079, 847.704 544.206 C 837.658 534.054, 834.890 529.663, 831.496 518.500 C 830.493 515.200, 829.350 512.050, 828.956 511.500 C 827.657 509.685, 826.753 495.003, 827.858 493.671 C 829.678 491.478, 826.894 487.705, 822.491 486.397 C 820.296 485.745, 817.150 484.492, 815.500 483.612 C 810.915 481.167, 798.604 481.396, 796.025 483.975 M 85.500 503 C 84.505 504.100, 82.860 505, 81.845 505 C 80.325 505, 80 505.793, 80 509.500 C 80 511.975, 80.430 514, 80.956 514 C 81.481 514, 83.513 515.087, 85.472 516.416 C 88.135 518.223, 90.981 518.997, 96.766 519.486 C 101.020 519.845, 105.175 520.400, 106 520.718 C 106.825 521.037, 108.574 521.190, 109.886 521.059 C 111.198 520.928, 112.548 521.260, 112.886 521.797 C 113.384 522.588, 130.332 525, 135.393 525 C 137.383 525, 141.576 520.729, 142.299 517.965 C 143.313 514.088, 138.704 508.186, 134.130 507.504 C 132.133 507.206, 128.475 506.539, 126 506.020 C 123.525 505.502, 118.800 504.787, 115.500 504.432 C 112.200 504.077, 106.433 503.159, 102.685 502.393 C 92.875 500.388, 87.698 500.571, 85.500 503 M 1036.500 504.244 C 1029.820 506.662, 1016 517.610, 1016 520.483 C 1016 522.670, 1012.514 529.328, 1010.491 531.008 C 1009.115 532.149, 1008.949 533.515, 1009.509 539.086 C 1009.941 543.389, 1009.781 546.540, 1009.063 547.881 C 1007.321 551.137, 1006.151 558.751, 1007.227 559.827 C 1007.823 560.423, 1007.787 561.013, 1007.131 561.419 C 1006.557 561.774, 1006.358 562.770, 1006.689 563.633 C 1007.021 564.496, 1006.840 565.494, 1006.288 565.851 C 1005.736 566.208, 1004.123 568.943, 1002.703 571.929 C 999.660 578.326, 1000.093 579.771, 1006.209 583.632 C 1010.643 586.431, 1016.796 587.728, 1019.702 586.477 C 1020.691 586.051, 1022.513 585.802, 1023.750 585.923 C 1024.987 586.044, 1026 585.661, 1026 585.072 C 1026 584.482, 1027.278 584, 1028.840 584 C 1036.959 584, 1052.017 571.872, 1058.260 560.305 C 1064.711 548.353, 1066.476 531.818, 1062.619 519.456 C 1058.839 507.344, 1046.994 500.445, 1036.500 504.244 M 215.370 527.933 C 211.911 528.779, 209.531 530.800, 206.023 535.872 L 203.690 539.244 203.783 627.372 C 203.999 832.094, 204.102 846.827, 205.324 847.244 C 205.971 847.465, 211 847.525, 216.500 847.377 C 226.008 847.120, 271.104 847.068, 493.500 847.058 L 590.500 847.054 590.204 693.470 C 590.041 608.999, 589.522 538.874, 589.052 537.637 C 587.458 533.445, 582.911 529.052, 579.177 528.099 C 574.739 526.965, 219.993 526.804, 215.370 527.933 M 227.500 531.722 C 223.470 532.698, 222 535.053, 222 540.533 C 222 543.688, 222.532 546.197, 223.345 546.872 C 225.455 548.623, 230.840 549.378, 232.340 548.133 C 233.079 547.519, 233.910 547.243, 234.185 547.519 C 234.461 547.794, 235.882 546.912, 237.343 545.558 C 241.984 541.257, 239.730 532, 234.043 532 C 233.009 532, 231.564 531.828, 230.832 531.619 C 230.099 531.409, 228.600 531.456, 227.500 531.722 M 281.188 531.714 C 278.570 532.214, 275.009 537.389, 275.004 540.703 C 274.993 547.306, 280.564 550.867, 287.550 548.723 C 294.765 546.509, 296.079 536.848, 289.696 532.956 C 286.511 531.014, 285.571 530.877, 281.188 531.714 M 251.048 533.760 C 247.919 536.293, 247.327 542.779, 249.945 545.826 C 251.044 547.106, 252.407 547.867, 252.972 547.517 C 253.537 547.168, 254 547.359, 254 547.941 C 254 549.387, 258.317 549.283, 259.800 547.800 C 260.460 547.140, 261 546.993, 261 547.474 C 261 547.955, 262.125 547.292, 263.500 546 C 266.627 543.063, 266.744 538.925, 263.812 534.960 C 261.991 532.497, 260.918 532, 257.423 532 C 254.902 532, 252.352 532.704, 251.048 533.760 M 553.250 538.641 C 551.158 539.521, 551.852 541.746, 554.421 542.391 C 557.642 543.199, 560.171 542.132, 559.791 540.124 C 559.483 538.502, 555.646 537.632, 553.250 538.641 M 215.749 555.982 C 214.363 557.073, 212.964 559.435, 212.639 561.232 C 211.998 564.783, 211.859 601.775, 211.964 741.026 C 212.028 824.860, 212.161 831.804, 213.766 834.955 C 217.612 842.502, 210.192 841.921, 309 842.419 C 357.675 842.665, 406.950 842.817, 418.500 842.757 C 437.594 842.659, 445.901 842.664, 459 842.782 C 461.475 842.805, 488.108 842.750, 518.184 842.662 L 572.869 842.500 575.888 839.607 C 582.440 833.330, 582 843.554, 582 697.630 L 582 565.062 579.880 560.994 C 575.939 553.434, 590.946 554, 394.513 554 C 220.304 554, 218.241 554.023, 215.749 555.982 M 228.771 569.807 C 227.890 569.976, 227.019 570.651, 226.835 571.307 C 226.651 571.963, 226.616 629.263, 226.758 698.640 L 227.015 824.780 229.680 826.526 C 231.412 827.661, 232.835 827.962, 233.744 827.386 C 234.519 826.895, 242.576 826.787, 251.821 827.143 C 274.097 828.002, 335.502 828.164, 336.300 827.367 C 337.119 826.548, 346.448 826.541, 347.770 827.358 C 348.476 827.794, 521.532 828.316, 563.715 828.009 C 564.383 828.004, 565.406 827.111, 565.988 826.023 C 567.281 823.606, 567.426 573.583, 566.135 571.276 C 565.389 569.945, 545.866 569.754, 397.831 569.635 C 305.728 569.561, 229.651 569.638, 228.771 569.807 M 766.206 581.618 C 763.381 583.844, 762.293 584.121, 758.567 583.562 L 754.222 582.911 751.861 587.705 C 748.696 594.132, 748.432 607.602, 751.405 610.892 C 752.453 612.052, 752.925 613, 752.455 613 C 751.985 613, 752.140 613.540, 752.800 614.200 C 753.460 614.860, 754 616.200, 754 617.177 C 754 618.154, 755.237 619.728, 756.750 620.674 C 758.263 621.621, 761.061 623.905, 762.970 625.751 C 765.503 628.200, 767.039 628.956, 768.659 628.550 C 769.879 628.243, 771.157 628.444, 771.498 628.996 C 772.491 630.604, 776.162 630.155, 777.608 628.250 C 778.339 627.288, 778.951 625.292, 778.968 623.815 C 779.064 615.717, 783.372 612.699, 790.721 615.580 C 793.668 616.735, 798.069 617.462, 802.200 617.477 C 806.042 617.490, 809.411 618.011, 810.098 618.698 C 810.812 619.412, 811.252 622.544, 811.185 626.439 C 811.078 632.762, 811.165 633.003, 813.787 633.642 C 815.279 634.006, 817.772 635.361, 819.327 636.652 C 822.835 639.566, 822.889 639.565, 827.512 636.427 C 830.767 634.219, 831.975 633.946, 836.045 634.506 C 840.406 635.106, 840.936 634.944, 842.644 632.484 C 844.462 629.864, 845.984 628.264, 850 624.750 C 851.330 623.586, 852.002 621.744, 852.006 619.250 C 852.010 617.188, 852.685 614.211, 853.506 612.636 C 855.470 608.871, 855.409 603.109, 853.382 600.870 C 852.492 599.886, 851.467 597.601, 851.104 595.791 C 850.543 592.999, 849.765 592.266, 845.971 590.958 C 843.512 590.110, 840.063 588.649, 838.307 587.712 C 836.305 586.643, 834.882 586.382, 834.493 587.011 C 834.152 587.563, 834.689 588.306, 835.687 588.662 C 837.900 589.453, 841.915 594.016, 841.964 595.798 C 841.984 596.511, 839.798 599.297, 837.107 601.989 C 833.436 605.659, 830.812 607.289, 826.607 608.512 C 823.523 609.408, 821 610.560, 821 611.071 C 821 612.410, 793.288 612.275, 792.458 610.932 C 792.095 610.344, 791.183 610.100, 790.431 610.388 C 789.679 610.677, 788.824 610.524, 788.531 610.050 C 788.238 609.576, 785.636 608.874, 782.749 608.491 C 775.596 607.542, 771.804 605.595, 767.040 600.427 C 761.993 594.952, 761.526 590.271, 765.646 586.452 C 767.101 585.104, 768.789 583.948, 769.396 583.885 C 772.449 583.566, 774.779 584.477, 777.882 587.201 C 784.298 592.835, 789.228 594.320, 803 594.766 C 813.372 595.101, 816.333 594.858, 820.395 593.335 C 826.057 591.212, 828.021 588.935, 826.141 586.670 C 825.045 585.350, 824.211 585.423, 819.073 587.294 C 813.353 589.378, 813.175 589.383, 809.179 587.581 C 806.941 586.572, 804.107 584.678, 802.881 583.373 C 800.035 580.344, 797.685 580.376, 793.589 583.500 C 790.207 586.080, 786.583 586.752, 785.500 585 C 785.160 584.450, 783.671 583.995, 782.191 583.988 C 780.711 583.981, 777.542 582.856, 775.148 581.488 C 769.839 578.453, 770.229 578.448, 766.206 581.618 M 260.033 590.082 C 253.697 593.553, 253.902 591.350, 253.976 655.118 C 254.051 719.663, 253.815 717.380, 260.752 720.704 C 264.301 722.405, 271.469 722.497, 396.074 722.440 L 527.648 722.381 531.325 720.108 C 533.595 718.705, 535.217 716.813, 535.562 715.167 C 535.869 713.700, 536.544 711.719, 537.060 710.764 C 538.292 708.488, 538.260 706, 537 706 C 536.450 706, 536 703.777, 536 701.059 C 536 698.341, 536.450 695.840, 537 695.500 C 537.621 695.116, 538 686.009, 538 671.500 C 538 656.991, 537.621 647.884, 537 647.500 C 536.378 647.115, 536 637.706, 536 622.591 L 536 598.300 533.031 594.202 C 531.399 591.948, 529.253 589.671, 528.264 589.141 C 527.138 588.539, 477.319 588.179, 394.983 588.181 C 267.701 588.182, 263.389 588.243, 260.033 590.082 M 268.004 602.496 C 267.046 603.649, 266.871 614.531, 267.227 650.743 C 267.743 703.135, 267.375 700.962, 274.761 695.268 C 278.157 692.650, 290.284 684.550, 300.500 678.076 C 304.917 675.277, 311.153 670.247, 323.990 659.131 C 335.014 649.585, 340.285 646, 343.295 646 C 346.336 646, 352.628 650.734, 364.500 661.954 C 366.700 664.033, 371.087 667.648, 374.250 669.987 C 377.413 672.326, 380 674.650, 380 675.152 C 380 675.653, 380.788 676.355, 381.750 676.713 C 382.712 677.071, 386.777 680.207, 390.782 683.682 C 394.787 687.157, 398.698 690, 399.472 690 C 400.662 690, 413.624 681.925, 429.500 671.293 C 431.700 669.820, 436.501 666.956, 440.169 664.928 L 446.838 661.241 454.214 664.871 C 458.271 666.867, 463.976 670.218, 466.892 672.318 C 469.808 674.418, 472.949 676.443, 473.870 676.818 C 477.528 678.307, 487.722 684.543, 491.532 687.624 C 493.750 689.417, 496.675 691.368, 498.032 691.959 C 502.374 693.850, 509.772 698.429, 512.239 700.750 C 513.553 701.987, 515.107 703, 515.692 703 C 516.277 703, 517.315 703.675, 518 704.500 C 518.685 705.325, 520.090 706, 521.122 706 C 522.935 706, 523 704.215, 523 654.559 C 523 614.487, 522.724 602.947, 521.750 602.342 C 521.063 601.915, 463.966 601.440, 394.870 601.286 C 284.589 601.041, 269.089 601.188, 268.004 602.496 M 468.280 613.826 C 465.958 614.769, 463.506 616.094, 462.830 616.770 C 462.153 617.447, 461.123 618, 460.540 618 C 457.748 618, 452.155 625.774, 449.389 633.500 C 448.234 636.726, 448.284 636.970, 451.835 645.500 C 453.545 649.607, 459.524 657, 461.136 657 C 461.633 657, 463.822 658.125, 466 659.500 C 468.975 661.378, 471.319 662, 475.423 662 C 484.091 662, 491.086 657.234, 498.176 646.500 C 501.856 640.929, 502.094 640.144, 501.504 635.513 C 501.123 632.524, 500.093 629.804, 498.934 628.724 C 497.870 627.733, 497 626.359, 497 625.671 C 497 624.983, 495.296 622.538, 493.214 620.237 C 490.353 617.075, 487.880 615.559, 483.084 614.027 C 475.509 611.607, 473.800 611.584, 468.280 613.826 M 466.522 630.278 C 461.458 635.342, 461.663 639.062, 467.304 644.467 C 471.246 648.244, 471.981 648.559, 476.054 648.213 C 479.667 647.906, 481.187 647.110, 484.168 643.963 C 489.653 638.173, 489.776 636.754, 485.220 631.871 C 481.718 628.116, 480.749 627.644, 475.683 627.224 C 470.299 626.777, 469.884 626.916, 466.522 630.278 M 340.900 662.620 C 340.247 663.407, 335.512 666.980, 330.379 670.559 C 325.245 674.138, 318.935 678.893, 316.356 681.125 C 309.294 687.237, 285.911 704, 284.447 704 C 283.659 704, 277.026 708.462, 277.013 709 C 277.007 709.275, 304.466 709.552, 338.034 709.616 C 398.913 709.732, 399.063 709.727, 397.284 707.741 C 395.526 705.779, 385.650 697.036, 358.667 673.554 C 351.117 666.984, 344.298 661.514, 343.513 661.399 C 342.729 661.284, 341.553 661.834, 340.900 662.620 M 439.079 681.086 C 436.098 683.238, 432.948 685.008, 432.079 685.017 C 431.211 685.027, 429.440 686.152, 428.145 687.517 C 426.850 688.883, 425.360 690, 424.835 690 C 424.010 690, 417.041 694.827, 413.250 698.025 C 410.980 699.939, 411.934 701.615, 417.745 705.921 C 422.727 709.611, 423.969 710.101, 427.088 709.602 C 429.067 709.285, 446.057 708.996, 464.843 708.959 C 483.629 708.922, 499 708.770, 499 708.620 C 499 708.131, 480.614 696.232, 475.380 693.334 C 464.926 687.547, 458.381 683.543, 454.106 680.316 C 448.492 676.079, 445.824 676.215, 439.079 681.086 M 918 678.476 C 916.625 679.271, 914.825 680.193, 914 680.525 C 913.175 680.856, 911.150 681.754, 909.500 682.519 C 907.850 683.284, 904.250 684.212, 901.500 684.580 C 898.750 684.949, 895.375 685.863, 894 686.612 C 886.831 690.515, 875.413 693.250, 869.939 692.374 C 867.109 691.922, 864.935 692.337, 861.546 693.978 C 857.599 695.889, 855.022 696.231, 842.736 696.479 C 834.906 696.637, 826.673 697.088, 824.441 697.481 C 822.208 697.873, 817.033 697.693, 812.941 697.080 C 808.848 696.466, 801.899 695.771, 797.497 695.535 C 793.096 695.298, 787.823 694.406, 785.780 693.552 C 783.736 692.699, 780.484 692, 778.552 692 C 774.207 692, 767.424 689.414, 763.673 686.327 C 762.119 685.047, 760.417 684, 759.892 684 C 758.039 684, 757.799 687.057, 759.390 690.409 C 760.275 692.275, 761 694.421, 761 695.178 C 761 697.626, 772.632 712.213, 776.581 714.717 C 783.570 719.149, 789.068 722.023, 792.750 723.167 C 795.087 723.893, 797 724.827, 797 725.243 C 797 725.660, 798.068 726, 799.374 726 C 800.680 726, 803.718 726.716, 806.124 727.592 C 816.010 731.188, 845.493 729.068, 856.500 723.970 C 858.700 722.951, 861.850 721.799, 863.500 721.410 C 867.216 720.535, 880.021 714.362, 885.826 710.647 C 888.205 709.124, 890.905 707.602, 891.826 707.263 C 896.996 705.361, 922 681.569, 922 678.551 C 922 676.637, 921.205 676.622, 918 678.476 M 263.273 739.312 C 261.498 740.515, 259.811 742.098, 259.524 742.829 C 258.815 744.635, 259.987 749, 261.180 749 C 261.709 749, 262.818 749.675, 263.643 750.500 C 264.919 751.776, 270.339 752, 299.905 752 C 319.024 752, 334.915 751.752, 335.217 751.449 C 335.520 751.146, 351.064 750.932, 369.759 750.973 L 403.749 751.048 405.416 747.536 C 406.625 744.988, 406.808 743.510, 406.082 742.153 C 403.978 738.221, 397.045 735.500, 395.500 738 C 395.160 738.550, 391.110 739, 386.500 739 C 381.890 739, 377.840 738.550, 377.500 738 C 377.140 737.417, 371.509 737, 364 737 C 356.491 737, 350.860 737.417, 350.500 738 C 350.105 738.639, 336.009 739, 311.500 739 C 286.991 739, 272.895 738.639, 272.500 738 C 271.462 736.321, 266.682 737.001, 263.273 739.312 M 434.250 740.674 C 430.836 743.056, 431.169 748.272, 434.904 750.932 C 437.734 752.947, 438.934 753, 481.339 753 C 509.037 753, 525.864 752.622, 527.603 751.961 C 533.132 749.859, 534.914 743.454, 530.777 740.557 C 527.414 738.201, 437.639 738.310, 434.250 740.674 M 262.581 767.115 C 260.415 768.819, 259.952 769.917, 260.196 772.770 C 260.716 778.827, 263.252 779.205, 300.500 778.786 C 323.004 778.532, 333.145 778.068, 334.672 777.219 C 340.714 773.864, 341.732 769.454, 337.096 766.716 C 334.503 765.184, 330.492 765, 299.731 765 C 266.161 765, 265.200 765.055, 262.581 767.115 M 434.250 766.989 C 429.331 769.988, 430.227 776.254, 435.742 777.422 C 441.067 778.550, 525.358 779.006, 528.683 777.925 C 534.007 776.193, 534.500 768.460, 529.434 766.152 C 527.646 765.337, 513.809 765.001, 482.203 765.004 C 439.402 765.007, 437.362 765.092, 434.250 766.989 M 451.550 790.701 C 438.561 790.988, 435.265 791.355, 433.800 792.681 C 431.642 794.634, 431.460 798.881, 433.421 801.559 C 434.770 803.402, 436.285 803.500, 463.372 803.500 C 482.570 803.500, 492.257 803.145, 492.987 802.414 C 494.879 800.520, 495.271 794.673, 493.652 792.500 C 491.995 790.276, 484.793 789.969, 451.550 790.701 M 263.750 793.718 C 261.570 795.101, 261 796.221, 261 799.117 C 261 806.090, 260.372 806, 309.010 806 L 352.091 806 354.545 803.545 C 357.728 800.363, 357.733 796.526, 354.559 794.446 C 352.445 793.062, 346.368 792.788, 309.309 792.410 C 269.852 792.007, 266.285 792.110, 263.750 793.718 M 643.750 833.875 C 642.614 838.986, 642.782 843.618, 644.057 842.343 C 644.639 841.761, 644.976 838.859, 644.807 835.893 C 644.522 830.878, 644.447 830.737, 643.750 833.875 M 640.750 853.571 C 640.337 853.990, 640.014 855.946, 640.030 857.917 C 640.055 860.869, 640.243 861.187, 641.094 859.724 C 642.240 857.756, 641.938 852.362, 640.750 853.571 M 240.750 868.784 C 234.805 868.941, 230 869.493, 230 870.020 C 230 871.199, 284.035 871.215, 285.940 870.037 C 288.949 868.177, 276.644 867.836, 240.750 868.784 M 297.720 868.796 C 293.744 868.970, 291.183 869.487, 291.529 870.046 C 292.308 871.307, 326.044 871.264, 328 870 C 329.255 869.189, 329.174 868.995, 327.500 868.810 C 324.436 868.473, 305.331 868.464, 297.720 868.796 M 344.250 868.798 C 340.813 868.961, 338 869.524, 338 870.048 C 338 870.623, 349.569 871.099, 367.250 871.250 C 422.207 871.720, 425.923 871.588, 423.583 869.250 C 422.871 868.539, 357.512 868.166, 344.250 868.798 M 435.750 868.716 C 430.572 869.501, 432.995 871, 439.441 871 C 445.974 871, 448.826 869.723, 444.739 868.627 C 442.398 868, 440.345 868.020, 435.750 868.716 M 479.892 869.067 C 477.644 870.456, 484.888 870.878, 507.746 870.686 C 521.784 870.569, 529.992 870.131, 529.993 869.500 C 529.996 868.303, 481.801 867.887, 479.892 869.067 M 541.028 868.894 C 538.259 870.772, 542.221 871.125, 555.592 870.190 C 565.672 869.486, 566.944 869.257, 561.397 869.144 C 557.490 869.065, 551.640 868.752, 548.397 868.448 C 545.122 868.142, 541.846 868.340, 541.028 868.894 M 462.250 869.716 C 463.762 869.945, 466.238 869.945, 467.750 869.716 C 469.262 869.487, 468.025 869.300, 465 869.300 C 461.975 869.300, 460.738 869.487, 462.250 869.716 M 449.709 876.624 C 448.223 878.110, 449.112 879, 452.083 879 C 454.103 879, 455.025 878.569, 454.755 877.750 C 454.288 876.332, 450.783 875.550, 449.709 876.624 M 149.750 896.749 C 148.278 897.084, 148 898.316, 148 904.514 C 148 908.567, 148.369 912.110, 148.820 912.388 C 149.270 912.667, 202.923 913.156, 268.048 913.476 C 342.534 913.841, 386.817 914.417, 387.428 915.028 C 388.711 916.311, 397.320 916.280, 398.611 914.989 C 399.281 914.319, 441.009 913.942, 522.061 913.872 C 589.403 913.814, 646.300 913.476, 648.500 913.120 L 652.500 912.472 652.791 905.374 C 653.082 898.284, 653.079 898.275, 649.997 896.999 C 647.733 896.061, 643.929 895.911, 635.706 896.434 C 629.543 896.826, 587.415 897.336, 542.090 897.567 C 496.764 897.798, 459.639 898.102, 459.590 898.243 C 458.340 901.812, 454.979 906.476, 453.035 907.339 C 449.682 908.829, 369.954 909.476, 355.437 908.131 C 344.387 907.107, 340.946 905.555, 339.479 900.934 C 339.174 899.972, 338.153 898.865, 337.212 898.474 C 336.270 898.082, 294.431 897.613, 244.236 897.431 C 194.040 897.249, 152.640 896.932, 152.236 896.726 C 151.831 896.520, 150.713 896.531, 149.750 896.749 M 344.389 932.428 C 343.777 934.023, 348.548 940.062, 354.143 944.773 C 357.146 947.301, 364.629 948.107, 371.258 946.618 C 374.930 945.794, 375.139 945.907, 380.258 951.506 C 389.248 961.335, 398.190 963.824, 410.594 959.949 C 414.283 958.797, 415.129 958.884, 419.159 960.835 C 425.113 963.717, 436.271 963.789, 445 961 C 448.443 959.900, 452.240 959, 453.436 959 C 456.744 959, 468.239 954.959, 470.500 953.002 C 471.600 952.050, 474.624 950.050, 477.221 948.557 C 481.745 945.957, 492 935.813, 492 933.938 C 492 932.342, 487.364 931.807, 476.589 932.157 L 466.054 932.500 459.777 938.606 C 451.473 946.685, 449.314 948.008, 444.527 947.957 C 438.412 947.891, 433.093 944.359, 431.005 938.978 C 428.953 933.691, 426.269 932.035, 419.719 932.015 C 414.731 931.999, 412.529 933.929, 414.867 936.267 C 416.762 938.162, 416.228 944.772, 414 947 C 409.132 951.868, 400.433 947.706, 396.068 938.422 C 393.830 933.661, 389.709 931, 384.572 931 C 382.485 931, 381.896 931.690, 380.947 935.250 C 379.397 941.065, 378.683 942.284, 375.898 943.867 C 371.937 946.118, 366.432 943.232, 363.939 937.595 C 361.744 932.634, 361.357 932.440, 351.749 931.501 C 346.103 930.949, 344.899 931.100, 344.389 932.428 M 509.362 932.705 C 507.604 937.880, 502.336 947.687, 499.702 950.686 C 498.032 952.588, 497.101 954.448, 497.601 954.881 C 499.792 956.777, 513.278 958.452, 525.159 958.303 C 537.720 958.145, 556 954.908, 556 952.842 C 556 952.379, 556.796 952, 557.769 952 C 558.742 952, 563.121 950.200, 567.500 948 C 571.879 945.800, 576.001 944, 576.660 944 C 577.319 944, 579.528 942.425, 581.569 940.500 C 583.610 938.575, 585.842 937, 586.529 937 C 588.286 937, 592.640 933.312, 591.836 932.505 C 591.470 932.138, 572.901 931.629, 550.571 931.374 C 512.175 930.935, 509.939 931.007, 509.362 932.705" stroke="none" fill="#171916" fill-rule="evenodd"/>
</svg>