<svg role="img" aria-labelledby="artwork-title" shape-rendering="geometricPrecision" xmlns="http://www.w3.org/2000/svg" width="1200" height="1200" viewBox="0 0 1200 1200" version="1.1">
	<title id="artwork-title">Mascot standing inside a browser window</title>
	<path d="M 131 219.873 C 131 220.353, 128.846 220.953, 126.212 221.206 C 118.579 221.939, 108.477 227.531, 100.396 235.497 C 92.403 243.377, 89.257 248.009, 86.470 256 C 84.469 261.739, 84.257 298.325, 83.141 831.750 C 83.017 890.799, 82.817 899, 81.500 899 C 80.192 899, 80 904.089, 80 938.799 L 80 978.598 83.321 979.799 C 87.656 981.367, 96.184 981.339, 98.219 979.750 C 99.679 978.611, 99.881 951.070, 100.508 668.500 C 100.886 498, 101.513 358.161, 101.901 357.747 C 103.009 356.564, 430.999 357.314, 431.005 358.500 C 431.007 359.050, 429.635 359.856, 427.956 360.291 C 423.414 361.468, 414.787 367.830, 410.041 373.500 C 403.230 381.639, 400.177 389.727, 399.094 402.500 C 398.542 409.010, 398.290 409.609, 395.500 411.054 C 384.673 416.661, 376.687 424.320, 371.783 433.797 C 369.589 438.037, 368 442.530, 368 444.495 C 368 446.358, 367.550 448.160, 367 448.500 C 365.776 449.257, 365.657 463.670, 366.869 464.419 C 367.346 464.714, 368.027 466.767, 368.381 468.981 C 368.735 471.194, 370.222 475.447, 371.686 478.431 L 374.346 483.857 371.673 487.362 C 370.203 489.289, 368.997 491.234, 368.994 491.683 C 368.990 492.132, 368.318 493.784, 367.499 495.354 C 366.680 496.924, 366.236 498.573, 366.512 499.019 C 366.787 499.464, 366.516 499.995, 365.909 500.197 C 365.301 500.400, 364.567 503.529, 364.276 507.151 C 363.787 513.244, 364.023 514.301, 367.432 521.294 C 369.458 525.451, 371.765 529.390, 372.558 530.048 C 373.351 530.706, 374 531.674, 374 532.199 C 374 532.724, 375.311 534.465, 376.913 536.067 C 379.662 538.816, 380.271 541.062, 378.696 542.638 C 377.767 543.567, 377.802 553.468, 378.737 554.404 C 379.143 554.809, 379.507 555.672, 379.547 556.321 C 379.656 558.116, 383.925 566.836, 385.028 567.518 C 387.401 568.984, 385.868 573.531, 382 576.500 C 379.851 578.150, 378.072 579.831, 378.046 580.235 C 378.021 580.639, 376.650 583.163, 375.001 585.844 C 373.351 588.525, 371.557 592.919, 371.013 595.609 C 370.470 598.299, 369.580 602.300, 369.036 604.500 C 366.548 614.566, 369.405 634.942, 374.414 642.853 C 379.162 650.352, 386.726 658.193, 394.391 663.562 C 396.117 664.770, 396.564 666.510, 397.140 674.252 C 397.794 683.031, 400.770 693, 402.737 693 C 403.990 693, 406.845 699.078, 407.584 703.321 C 407.950 705.423, 409.318 708.413, 410.625 709.966 C 411.931 711.518, 413.012 713.174, 413.027 713.644 C 413.042 714.115, 414.873 715.623, 417.096 716.995 C 420.280 718.960, 421.387 720.418, 422.308 723.861 C 423.209 727.230, 424.438 728.893, 427.669 731.116 C 429.974 732.702, 432.229 734.026, 432.680 734.057 C 433.131 734.088, 435.183 736.324, 437.241 739.026 C 439.752 742.323, 442.053 744.216, 444.239 744.782 C 446.031 745.246, 447.624 746.288, 447.780 747.097 C 448.007 748.272, 445.601 748.827, 435.795 749.858 C 429.047 750.568, 423.029 751.561, 422.421 752.065 C 421.813 752.570, 421.031 752.697, 420.682 752.349 C 420.334 752, 419.475 752.189, 418.774 752.768 C 418.073 753.347, 415.700 754.134, 413.500 754.516 C 403.912 756.183, 385.049 761.779, 380.519 764.301 C 379.409 764.919, 378.133 765.320, 377.685 765.191 C 377.237 765.062, 375.592 765.866, 374.030 766.978 C 372.469 768.090, 370.854 769, 370.442 769 C 368.357 769, 358.078 774.777, 349.857 780.571 C 347.461 782.259, 343.280 785.184, 340.567 787.071 C 337.854 788.957, 334.871 791.233, 333.938 792.129 C 333.005 793.025, 329.600 795.682, 326.371 798.032 C 319.410 803.100, 280 842.283, 280 844.136 C 280 844.842, 278.087 847.244, 275.750 849.474 C 271.470 853.559, 262.959 864.734, 259.792 870.429 C 257.660 874.262, 257.535 878.369, 259.500 880 C 261.020 881.261, 261.641 888, 260.237 888 C 259.465 888, 251 898.414, 251 899.363 C 251 899.645, 249.650 901.355, 248 903.161 C 246.350 904.968, 244.977 906.908, 244.949 907.473 C 244.921 908.038, 242.903 911.200, 240.465 914.500 C 235.231 921.583, 231.191 929.044, 227.740 938 C 226.362 941.575, 224.884 945.400, 224.454 946.500 C 224.024 947.600, 223.618 948.725, 223.551 949 C 223.484 949.275, 222.886 950.477, 222.222 951.671 C 220.944 953.969, 219.196 963.608, 218.289 973.362 C 217.636 980.379, 218.235 980.969, 226 980.969 C 233.430 980.969, 234.246 980.257, 234.726 973.342 C 234.949 970.129, 235.627 966.488, 236.234 965.252 C 236.840 964.015, 237.040 962.706, 236.677 962.344 C 236.314 961.981, 236.416 961.193, 236.904 960.592 C 237.392 959.991, 238.745 956.391, 239.912 952.591 C 242.250 944.975, 246.259 936.626, 251.545 928.363 C 253.445 925.392, 255 922.709, 255 922.400 C 255 921.464, 262.160 910.905, 267.486 903.986 C 279.607 888.238, 281.527 886.111, 283.669 886.056 C 288.860 885.922, 309.383 892.155, 312.250 894.735 C 313.212 895.601, 314 895.985, 314 895.587 C 314 895.189, 315.238 895.745, 316.750 896.821 C 318.262 897.897, 322.236 900.168, 325.580 901.867 C 328.924 903.566, 332.885 906.091, 334.382 907.478 C 335.878 908.865, 337.515 910, 338.018 910 C 338.521 910, 341.311 912.065, 344.217 914.589 C 347.122 917.113, 351.169 920.600, 353.209 922.339 C 358.896 927.185, 357.917 929.770, 351.636 926.494 C 350.060 925.672, 348.243 925, 347.597 925 C 346.951 925, 344.686 924.115, 342.564 923.032 C 340.441 921.950, 338.352 921.283, 337.921 921.549 C 337.491 921.815, 336.856 921.575, 336.510 921.016 C 336.165 920.457, 334.221 919.984, 332.191 919.964 C 330.161 919.945, 325.800 919.277, 322.500 918.480 C 314.704 916.598, 301.930 916.607, 294.661 918.500 C 291.494 919.325, 287.799 920, 286.451 920 C 285.103 920, 284 920.436, 284 920.969 C 284 921.501, 283.383 921.700, 282.629 921.411 C 281.875 921.122, 280.989 921.586, 280.660 922.443 C 280.332 923.299, 279.164 924, 278.066 924 C 276.968 924, 274.479 925.397, 272.535 927.104 C 264.447 934.204, 271.194 943.571, 280.813 938.597 C 282.305 937.825, 285.658 936.874, 288.263 936.483 C 290.868 936.093, 293 935.436, 293 935.025 C 293 934.614, 294.072 934.482, 295.383 934.733 C 296.693 934.983, 298.070 934.696, 298.442 934.094 C 298.844 933.443, 302.510 933, 307.500 933 C 312.490 933, 316.156 933.443, 316.558 934.094 C 316.930 934.696, 318.307 934.983, 319.617 934.733 C 320.928 934.482, 322 934.623, 322 935.045 C 322 935.467, 324.363 936.126, 327.250 936.510 C 333.186 937.298, 343.013 939.680, 343.871 940.538 C 344.183 940.850, 342.990 942.240, 341.220 943.625 C 337.968 946.170, 337.016 949.900, 338.871 952.826 C 340.155 954.850, 347.698 955.555, 349.772 953.845 C 350.723 953.062, 353.188 951.659, 355.250 950.727 C 357.313 949.795, 359 948.549, 359 947.957 C 359 947.366, 359.415 947.139, 359.923 947.453 C 360.431 947.766, 362.344 947.168, 364.173 946.124 C 372.026 941.641, 387.875 938.088, 403.552 937.296 C 412.724 936.833, 416.383 937.122, 425.052 938.990 C 430.799 940.228, 435.950 941.581, 436.500 941.998 C 437.050 942.414, 438.625 943.091, 440 943.501 C 444.075 944.716, 460 956.768, 460 958.638 C 460 959.041, 460.843 960.300, 461.874 961.436 C 462.905 962.571, 464.978 965.750, 466.482 968.500 C 467.986 971.250, 469.498 973.950, 469.843 974.500 C 470.187 975.050, 470.476 975.823, 470.485 976.218 C 470.493 976.612, 471.283 977.850, 472.240 978.968 C 473.973 980.992, 474.517 981, 605.799 981 C 709.768 981, 737.942 980.736, 739.154 979.750 C 740.523 978.636, 740.552 975.622, 739.428 952 C 737.645 914.523, 737.522 898.280, 739.011 896.487 C 739.680 895.681, 740.559 895.227, 740.965 895.479 C 741.372 895.730, 743.441 895.050, 745.564 893.968 C 747.686 892.885, 750.115 891.981, 750.961 891.958 C 751.808 891.934, 755.650 890.782, 759.500 889.397 C 763.350 888.012, 768.388 886.260, 770.696 885.504 C 773.004 884.747, 775.929 883.550, 777.196 882.844 C 778.463 882.137, 780.850 881.036, 782.500 880.396 C 795.182 875.475, 808.743 869.651, 809.994 868.588 C 810.822 867.884, 813.750 866.316, 816.500 865.104 C 831.666 858.417, 835.371 855.025, 834.884 848.273 C 834.732 846.167, 834.930 843.922, 835.325 843.283 C 836.005 842.183, 843.803 837.258, 850.023 834 C 851.599 833.175, 853.830 831.487, 854.983 830.250 C 856.135 829.012, 857.542 828, 858.110 828 C 859.190 828, 870.049 820.472, 873.506 817.326 C 874.610 816.322, 878.792 812.845, 882.800 809.601 C 895.749 799.118, 911.175 779.576, 917.345 765.836 C 918.663 762.901, 921.580 756.675, 923.827 752 C 926.074 747.325, 929.978 736.750, 932.504 728.500 C 935.029 720.250, 937.287 712.933, 937.520 712.240 C 937.754 711.546, 937.845 710.828, 937.723 710.643 C 937.600 710.459, 938.029 709.670, 938.675 708.892 C 939.321 708.113, 940.522 704.781, 941.344 701.488 C 948.689 672.036, 950.220 666.234, 951.125 664.414 C 951.696 663.266, 952.055 661.691, 951.924 660.914 C 951.476 658.266, 953.279 655.822, 962.642 646.382 C 967.789 641.194, 972 636.480, 972 635.907 C 972 634.872, 976.428 628.406, 978.443 626.500 C 980.111 624.922, 986.006 612.159, 987.946 605.927 C 988.916 602.811, 991.237 598.214, 993.105 595.711 C 1000.052 586.401, 1011 570.211, 1011 569.246 C 1011 568.698, 1012.169 565.605, 1013.598 562.374 C 1015.027 559.143, 1016.190 556.275, 1016.183 556 C 1016.176 555.725, 1016.664 554.905, 1017.268 554.177 C 1017.872 553.449, 1018.548 549.174, 1018.771 544.677 C 1019.157 536.869, 1019.034 536.290, 1016.056 531.844 C 1012.050 525.866, 1008.708 523.689, 1002.500 523.013 C 998.700 522.599, 997.606 522.112, 997.941 520.984 C 999.260 516.546, 999.063 508.454, 997.540 504.465 C 994.876 497.490, 985.113 489.859, 981.078 491.598 C 976.388 493.618, 974.646 492.547, 973.601 487 C 972.869 483.112, 968.978 478.417, 964.276 475.750 C 957.736 472.040, 946.843 474.224, 941.076 480.403 C 938.072 483.621, 936.217 483.701, 935.061 480.661 C 933.781 477.295, 928.550 473.225, 923.889 471.970 C 920.786 471.135, 918.773 471.209, 915.060 472.298 C 910.431 473.655, 903 478.409, 903 480.013 C 903 480.439, 901.762 482.125, 900.250 483.759 C 897.537 486.689, 888.986 505.087, 888.983 508 C 888.982 508.825, 887.875 511.750, 886.522 514.500 C 885.169 517.250, 884.048 520.047, 884.031 520.716 C 884.014 521.385, 883.350 523.410, 882.556 525.216 C 881.761 527.022, 880.836 530.211, 880.500 532.303 C 879.636 537.684, 877.551 538.004, 873.582 533.367 C 867.360 526.097, 857.233 522.785, 848.002 525 C 841.417 526.579, 833.488 534.044, 832.329 539.753 C 830.786 547.357, 831.635 552.437, 835.985 561.637 C 838.290 566.512, 841.105 572.486, 842.240 574.914 C 843.479 577.564, 844.631 582.878, 845.124 588.214 C 845.575 593.101, 846.282 597.640, 846.695 598.300 C 847.109 598.960, 847.485 599.950, 847.531 600.500 C 847.577 601.050, 847.863 602.175, 848.168 603 C 848.472 603.825, 849.524 606.975, 850.505 610 C 851.487 613.025, 852.864 616.175, 853.567 617 C 857.041 621.079, 855.546 627.368, 848.754 637.250 C 847.714 638.763, 847.189 640, 847.587 640 C 847.985 640, 847.610 640.788, 846.755 641.750 C 845.899 642.712, 844.496 645.075, 843.637 647 C 841.359 652.105, 836.432 660.855, 834.734 662.809 C 833.368 664.383, 831.977 666.784, 828.834 673 C 828.138 674.375, 824.763 680.089, 821.334 685.697 C 817.904 691.306, 814.161 698.056, 813.015 700.697 C 809.790 708.133, 809.680 708.257, 803.407 711.534 C 800.158 713.231, 795.286 715.864, 792.580 717.385 C 787.709 720.122, 787.621 720.133, 783.852 718.433 C 779.637 716.533, 773.897 716.813, 764.730 719.368 C 757.384 721.415, 751.426 722.875, 744.750 724.262 C 741.587 724.920, 739 725.831, 739 726.288 C 739 726.744, 738.500 726.809, 737.888 726.431 C 737.277 726.053, 736.479 726.225, 736.115 726.813 C 735.752 727.402, 732.764 728.338, 729.477 728.893 C 726.190 729.449, 721.025 730.370, 718 730.939 C 714.975 731.509, 706.875 732.895, 700 734.020 C 676.094 737.930, 674 738.324, 674 738.910 C 674 739.235, 671.975 739.500, 669.500 739.500 C 667.025 739.500, 665 739.380, 665 739.233 C 665 739.086, 666.912 737.021, 669.250 734.644 C 671.587 732.267, 674.667 729.012, 676.094 727.411 C 677.521 725.810, 680.611 722.700, 682.961 720.500 C 688.167 715.625, 692.334 709.312, 691.603 707.407 C 691.306 706.633, 691.490 706, 692.012 706 C 692.535 706, 693.253 704.840, 693.609 703.421 C 693.965 702.003, 695.565 699.416, 697.165 697.671 C 698.765 695.927, 700.313 693.375, 700.606 692 C 702.082 685.069, 702.192 685, 711.766 685 C 725.398 685, 737.684 679.369, 748.130 668.335 C 753.327 662.845, 759.657 653.049, 760.469 649.240 C 760.851 647.447, 761.776 644.747, 762.524 643.240 C 763.879 640.513, 765.825 631.276, 766.720 623.328 C 767.328 617.922, 764.366 603.076, 761.293 596.127 C 759.969 593.134, 757.562 589.078, 755.943 587.115 C 752.973 583.512, 752.170 581, 753.987 581 C 755.619 581, 759.542 573.941, 761.955 566.662 C 764.237 559.778, 764.328 555.124, 762.404 543.657 C 761.807 540.094, 762.087 539.472, 766.244 535.157 C 776.522 524.483, 780.202 509.871, 776.399 494.831 C 774.558 487.547, 772.181 483.276, 766.566 477.161 L 762.582 472.823 764.537 466.161 C 765.940 461.381, 766.486 456.534, 766.470 449 C 766.451 439.510, 766.121 437.635, 763.042 429.507 C 759.975 421.412, 758.875 419.754, 752.029 412.908 C 746.319 407.198, 743.523 405.133, 740.812 404.625 C 738.826 404.252, 736.626 403.255, 735.924 402.409 C 735.066 401.375, 733.260 400.956, 730.412 401.131 C 724.717 401.481, 723.285 400.053, 723.146 393.881 C 723.022 388.394, 719.604 377.747, 717.372 375.894 C 716.617 375.267, 716 374.120, 716 373.343 C 716 372.566, 712.850 368.781, 709 364.931 C 705.150 361.081, 702 357.726, 702 357.475 C 702 356.969, 1102.164 357.983, 1102.985 358.491 C 1103.268 358.666, 1103.473 366.165, 1103.440 375.155 C 1103.407 384.145, 1103 523.635, 1102.536 685.132 L 1101.692 978.765 1103.780 979.882 C 1106.405 981.287, 1115.497 981.340, 1118.066 979.965 C 1119.973 978.944, 1120 973.837, 1119.999 619.715 C 1119.999 266.703, 1119.966 260.414, 1118.061 255.500 C 1114.258 245.691, 1107.397 235, 1104.903 235 C 1104.352 235, 1102.279 233.425, 1100.297 231.500 C 1098.315 229.575, 1096.200 227.997, 1095.597 227.994 C 1094.993 227.990, 1093.150 227.275, 1091.500 226.405 C 1089.850 225.534, 1085.166 223.962, 1081.090 222.911 C 1073.852 221.044, 1063.854 221, 650.840 221 C 369.613 221, 228 220.665, 228 220 C 228 219.450, 226.200 219, 224 219 C 221.800 219, 220 219.450, 220 220 C 220 220.550, 218.002 221, 215.559 221 C 213.116 221, 210.840 220.550, 210.500 220 C 210.160 219.450, 208.109 219, 205.941 219 C 203.773 219, 202 219.450, 202 220 C 202 220.564, 199.167 221, 195.500 221 C 191.833 221, 189 220.564, 189 220 C 189 219.450, 187.425 219, 185.500 219 C 183.575 219, 182 219.450, 182 220 C 182 220.632, 174.853 221, 162.559 221 C 150.677 221, 142.878 220.611, 142.500 220 C 141.742 218.774, 131 218.655, 131 219.873 M 125.711 238.897 C 123.077 239.877, 120.399 241.201, 119.761 241.839 C 119.122 242.478, 118.254 243, 117.832 243 C 115.809 243, 107.013 253.165, 104.418 258.500 L 101.500 264.500 101.203 301.412 C 101.016 324.736, 101.267 338.547, 101.885 338.929 C 102.424 339.262, 186.257 339.662, 288.182 339.819 L 473.500 340.105 477.300 335.552 C 479.390 333.049, 481.552 331, 482.105 331 C 482.657 331, 485.768 329.194, 489.018 326.988 C 492.268 324.781, 495.280 323.065, 495.713 323.174 C 496.146 323.282, 498.300 322.560, 500.500 321.568 C 503.398 320.262, 507.985 319.624, 517.146 319.253 C 528.167 318.808, 530.703 319.019, 536.882 320.896 C 543.311 322.848, 552.051 327.655, 553.533 330.053 C 554.711 331.959, 557.691 330.913, 561.054 327.415 C 565.239 323.061, 568.438 321.268, 577.277 318.325 C 586.184 315.359, 599.436 314.387, 608.993 315.999 C 618.046 317.526, 622.579 319.415, 630.873 325.118 C 634.379 327.528, 638.088 329.990, 639.116 330.589 C 640.144 331.187, 642.242 333.548, 643.777 335.835 L 646.570 339.992 874.224 340.224 C 999.434 340.351, 1102.205 340.128, 1102.605 339.728 C 1103.005 339.329, 1103.533 323.539, 1103.780 304.640 C 1104.220 270.905, 1104.186 270.143, 1101.917 262.889 C 1100.012 256.797, 1098.632 254.480, 1094.053 249.686 C 1087.719 243.053, 1085.498 241.698, 1078.500 240.194 C 1073.540 239.127, 950.061 238.673, 361.500 237.554 C 141.779 237.137, 130.266 237.202, 125.711 238.897 M 157 269.305 C 150.796 272.206, 143.646 279.666, 142.145 284.802 C 139.614 293.467, 144.901 303.171, 155.280 308.910 C 160.293 311.682, 164.862 311.547, 170.697 308.455 C 176.423 305.422, 178.676 303.122, 182.289 296.624 C 185.941 290.055, 185.781 286.125, 181.594 279.579 C 175.713 270.386, 164.608 265.747, 157 269.305 M 224.635 270.073 C 223.186 271.212, 222 271.799, 222 271.376 C 222 269.764, 214.783 277.694, 212.447 281.873 C 206.872 291.848, 211.982 303.123, 224.904 309.358 C 228.692 311.186, 234.548 311.541, 235.500 310 C 235.840 309.450, 237.030 309, 238.146 309 C 239.285 309, 242.517 306.599, 245.524 303.520 C 256.442 292.336, 254.309 280.832, 239.446 270.750 C 234.397 267.324, 228.473 267.053, 224.635 270.073 M 290.482 270.673 C 280.187 277.583, 276.901 285.904, 280.025 297.152 C 281.241 301.528, 287.506 307.513, 291.876 308.473 C 293.582 308.847, 295.234 309.569, 295.548 310.077 C 296.601 311.782, 301.855 311.021, 306.655 308.469 C 314.913 304.078, 320 296.793, 320 289.357 C 320 274.068, 302.205 262.804, 290.482 270.673 M 586.508 332.615 C 577.632 334.761, 565 344.018, 565 348.377 C 565 350.295, 565.061 350.291, 567.257 348.228 C 568.499 347.062, 573.111 344.435, 577.507 342.390 C 585.418 338.710, 585.634 338.672, 598.500 338.633 C 611.094 338.595, 611.703 338.693, 618 341.756 C 624.596 344.966, 631.945 351.360, 636.172 357.567 C 638.769 361.381, 641 362.043, 641 359 C 641 357.900, 640.523 357, 639.941 357 C 639.359 357, 639.160 356.550, 639.500 356 C 639.840 355.450, 639.685 355, 639.157 355 C 638.628 355, 637.690 353.550, 637.072 351.777 C 635.873 348.338, 626.654 339, 624.458 339 C 623.735 339, 622.436 338.293, 621.571 337.429 C 620.707 336.564, 619.993 336.227, 619.985 336.679 C 619.976 337.130, 619.639 337.024, 619.235 336.441 C 617.948 334.586, 603.705 330.990, 598 331.080 C 594.975 331.128, 589.804 331.818, 586.508 332.615 M 515.500 334.740 C 513.850 334.928, 511.150 335.715, 509.500 336.488 C 507.850 337.262, 503.543 339.230, 499.928 340.862 C 492.680 344.135, 487 348.408, 487 350.589 C 487 351.365, 486.603 352, 486.119 352 C 484.162 352, 479.943 359.138, 479.352 363.449 C 478.604 368.905, 480.286 369.637, 482.338 364.750 C 484.616 359.322, 497.162 346.712, 502.642 344.342 C 509.227 341.495, 515.982 340, 522.265 340 C 528.620 340, 540.560 342.390, 542.580 344.066 C 543.388 344.737, 544.368 344.965, 544.759 344.574 C 545.882 343.451, 538.691 338.516, 533 336.504 C 532.725 336.407, 531.825 336.066, 531 335.747 C 528.957 334.956, 519.185 334.321, 515.500 334.740 M 661.738 364.931 C 657.377 365.539, 652.888 368.222, 654.140 369.473 C 654.426 369.760, 658.009 369.569, 662.101 369.051 C 672.796 367.695, 681.015 369.905, 689.781 376.495 C 695.235 380.595, 701 387.310, 701 389.563 C 701 390.089, 701.938 391.104, 703.084 391.820 C 704.266 392.558, 704.928 393.744, 704.615 394.561 C 704.311 395.352, 704.499 396, 705.031 396 C 705.564 396, 706 396.675, 706 397.500 C 706 398.325, 706.500 399, 707.111 399 C 708.669 399, 707.260 391.979, 705.255 389.744 C 704.388 388.778, 703.961 387.706, 704.306 387.361 C 705.249 386.417, 699.112 378.302, 693.914 373.620 C 685.161 365.736, 675.222 363.052, 661.738 364.931 M 444.500 371.410 C 434.542 373.424, 426.842 378.880, 420.522 388.401 C 416.663 394.214, 413.218 405.519, 414.381 408.549 C 415.086 410.387, 415.220 410.360, 416.994 408.008 C 418.022 406.645, 418.719 405.386, 418.544 405.210 C 418.368 405.035, 419.571 402.110, 421.218 398.711 C 424.128 392.705, 436.553 379, 439.089 379 C 439.695 379, 441.485 378.079, 443.065 376.953 C 445.185 375.444, 448.177 374.749, 454.470 374.305 C 459.161 373.974, 463 373.306, 463 372.820 C 463 370.691, 452.146 369.864, 444.500 371.410 M 643.190 373.750 C 643.561 375.676, 646.076 376.163, 647.235 374.533 C 648.544 372.691, 648.051 372, 645.427 372 C 643.514 372, 642.940 372.449, 643.190 373.750 M 720.459 417.067 C 720.096 417.653, 719.957 418.270, 720.150 418.437 C 720.927 419.111, 730.317 423, 731.168 423 C 732.667 423, 738 427.287, 738 428.493 C 738 429.107, 739.505 431.252, 741.344 433.260 C 745.244 437.518, 748.993 446.598, 749.015 451.839 C 749.024 453.853, 749.415 456.107, 749.885 456.849 C 751.310 459.097, 752.177 451.687, 751.027 447.098 C 750.462 444.844, 749.543 441.181, 748.985 438.957 C 746.838 430.400, 739.210 422.162, 729.634 418.058 C 724.301 415.771, 721.450 415.463, 720.459 417.067 M 400 427.167 C 400 427.808, 399.727 428.060, 399.393 427.727 C 398.748 427.081, 398.568 427.199, 392.716 432.098 C 388.175 435.901, 384.145 443.978, 383.322 450.928 C 382.549 457.457, 384.341 457.676, 385.957 451.250 C 386.614 448.637, 388.102 444.925, 389.263 443 C 391.796 438.805, 398.621 431.761, 401.750 430.114 C 404.539 428.646, 404.699 426, 402 426 C 400.900 426, 400 426.525, 400 427.167 M 490.531 439.271 C 489.697 441.267, 487.212 444.796, 485.007 447.113 C 482.803 449.430, 481 451.610, 481 451.957 C 481 452.907, 471.450 460, 470.172 460 C 469.561 460, 467.184 460.978, 464.890 462.174 C 461.604 463.887, 458.900 464.365, 452.147 464.424 L 443.575 464.500 442.707 468 C 438.952 483.153, 436.688 487.421, 428.934 493.959 L 424 498.119 424.010 504.310 C 424.021 510.764, 420.062 536.296, 418.977 536.774 C 418.634 536.925, 418.555 538.424, 418.802 540.106 C 419.049 541.787, 418.776 544.139, 418.196 545.331 C 416.450 548.920, 416.002 565.756, 417.616 567.096 C 419.765 568.880, 425.352 567.286, 428.512 563.988 C 430.086 562.344, 431.965 561, 432.687 561 C 433.409 561, 434 560.550, 434 560 C 434 559.450, 434.868 559, 435.929 559 C 436.989 559, 438.455 558.402, 439.186 557.671 C 439.917 556.940, 443.887 555.280, 448.008 553.982 C 454.680 551.880, 457.470 551.615, 473.500 551.561 C 487.795 551.513, 492.822 551.865, 497.923 553.274 C 505.937 555.487, 516.175 562.160, 521.762 568.812 C 525.833 573.660, 526.160 573.840, 529.066 572.827 C 532.061 571.783, 552.588 572.264, 561.741 573.593 C 565.299 574.109, 566.088 573.909, 566.636 572.354 C 567.895 568.781, 573.523 563.897, 579.983 560.772 C 583.567 559.038, 586.725 557.586, 587 557.545 C 587.275 557.503, 587.986 557.160, 588.579 556.781 C 594.727 552.861, 636.036 553.296, 640.899 557.331 C 641.674 557.974, 642.351 558.356, 642.404 558.180 C 642.457 558.004, 643.625 558.285, 645 558.805 C 646.375 559.325, 650.200 560.587, 653.500 561.610 C 658.559 563.178, 660.622 564.610, 666.655 570.740 C 671.290 575.450, 674.334 577.809, 675.300 577.439 C 676.119 577.124, 680.082 577.323, 684.106 577.881 C 688.707 578.518, 691.845 578.544, 692.561 577.950 C 693.214 577.407, 693.642 574.413, 693.565 570.919 C 693.457 566.033, 693.017 564.505, 691.332 563.167 C 686.861 559.617, 685.500 554.420, 685.500 540.903 C 685.500 531.931, 685.880 527.847, 686.821 526.714 C 687.966 525.336, 687.264 524.262, 681.564 518.673 C 674.849 512.089, 671.861 506.907, 669.357 497.505 C 667.713 491.333, 667.646 486.871, 669.147 483.577 C 670.552 480.494, 668.924 478, 665.508 478 C 661.646 478, 650.804 474.088, 647.337 471.443 C 639.247 465.273, 634.574 458.444, 633.395 451.070 C 633.033 448.807, 632.379 446.735, 631.942 446.464 C 631.505 446.194, 627.739 447.768, 623.573 449.961 C 619.408 452.155, 616 453.726, 616 453.452 C 616 453.178, 614.937 453.650, 613.638 454.502 C 610.400 456.623, 599.195 457.538, 593.626 456.136 C 585.244 454.025, 576.313 447.752, 568.521 438.500 C 566.182 435.723, 565.914 435.635, 564.911 437.316 C 562.655 441.095, 552.116 447.736, 544.827 449.972 C 540.797 451.208, 536.719 452.620, 535.764 453.110 C 533.401 454.321, 524.266 454.240, 523.500 453 C 523.160 452.450, 521.880 452, 520.656 452 C 514.129 452, 503.583 446.562, 495.774 439.169 L 492.048 435.641 490.531 439.271 M 917.418 487.983 C 914.392 489.186, 910.424 494.279, 908.669 499.211 C 907.830 501.570, 905.761 507.251, 904.071 511.835 C 902.382 516.420, 901 520.807, 901 521.585 C 901 522.363, 900.523 523, 899.941 523 C 899.359 523, 899.191 523.500, 899.569 524.112 C 899.947 524.723, 899.824 525.511, 899.296 525.862 C 898.768 526.213, 897.084 531.450, 895.556 537.500 C 894.027 543.550, 892.154 549.709, 891.395 551.187 C 890.084 553.737, 890.179 553.991, 893.257 556.183 C 895.041 557.453, 896.634 558.339, 896.798 558.151 C 897.721 557.095, 908.985 564.202, 913.426 568.643 C 920.119 575.336, 922.056 580.562, 919.687 585.531 C 918.265 588.511, 917.540 589, 914.542 589 C 911.702 589, 910.772 588.460, 909.552 586.100 C 908.727 584.506, 906.287 581.693, 904.128 579.850 C 899.840 576.190, 889.163 570.409, 887.388 570.788 C 886.776 570.918, 884.976 570.347, 883.388 569.518 C 881.800 568.690, 880.022 568.010, 879.437 568.006 C 878.852 568.003, 877.081 566.650, 875.500 565 C 873.919 563.350, 872.896 562, 873.227 562 C 875.139 562, 865.165 546.158, 861.098 542.736 C 856.852 539.163, 854.525 538.610, 851.654 540.491 C 847.198 543.410, 847.644 550.380, 853.013 561.761 C 854.638 565.204, 856.264 569.254, 856.627 570.761 C 856.991 572.267, 858.175 575.417, 859.259 577.760 C 860.343 580.103, 861.013 583.151, 860.749 584.534 C 860.484 585.916, 860.658 587.289, 861.134 587.583 C 861.610 587.877, 862.006 589.779, 862.013 591.809 C 862.032 597.003, 867.226 611.329, 870.638 615.600 C 878.096 624.935, 878.271 628.354, 871.460 631.586 C 869.456 632.537, 867.607 634.032, 867.352 634.908 C 866.664 637.270, 862.267 645.541, 857.345 653.733 C 854.955 657.711, 853 661.400, 853 661.930 C 853 662.967, 848.583 671.572, 847.114 673.395 C 846.625 674.003, 843.750 679.225, 840.726 685 C 837.702 690.775, 832.476 699.983, 829.114 705.462 C 825.751 710.941, 823 716.228, 823 717.212 C 823 718.195, 822.523 719, 821.941 719 C 821.359 719, 821.160 719.450, 821.500 720 C 821.840 720.550, 821.666 721, 821.114 721 C 820.561 721, 819.514 722.237, 818.787 723.750 C 817.608 726.202, 816.902 726.511, 812.284 726.601 C 809.435 726.656, 806.068 727.331, 804.802 728.101 C 802.322 729.608, 797.169 732.065, 792.750 733.848 C 789.414 735.193, 789.324 736.788, 792 747 C 793.081 751.125, 793.973 755.480, 793.983 756.679 C 793.992 757.877, 794.571 759.452, 795.269 760.179 C 795.968 760.905, 797.588 765.325, 798.870 770 C 802.899 784.692, 807.127 797, 808.145 797 C 808.685 797, 808.988 797.812, 808.820 798.805 C 808.652 799.797, 809.221 801.710, 810.084 803.055 C 810.948 804.400, 812.689 808.200, 813.954 811.500 C 818.779 824.093, 819.416 825.549, 820.843 827.250 C 821.650 828.212, 822.924 829, 823.676 829 C 827.166 829, 843.603 819.785, 853.897 812.056 C 860.166 807.350, 867.512 801.838, 870.222 799.807 C 875.371 795.948, 888.975 782.092, 888.991 780.690 C 888.996 780.245, 890.462 777.926, 892.250 775.537 C 895.286 771.479, 899.252 765.133, 899.460 764 C 899.511 763.725, 900.292 762.375, 901.196 761 C 902.100 759.625, 904.690 753.804, 906.951 748.065 C 909.213 742.325, 911.480 737.127, 911.990 736.512 C 913.112 735.161, 919.657 716.470, 921.449 709.500 C 922.157 706.750, 923.318 703.150, 924.029 701.500 C 924.741 699.850, 925.235 698.115, 925.126 697.645 C 925.018 697.174, 925.356 696.274, 925.877 695.645 C 926.737 694.605, 929.996 682.147, 933.108 668 C 933.773 664.975, 934.411 659.575, 934.526 656 C 934.812 647.094, 935.380 645.939, 941.164 642.500 C 953.189 635.350, 962.755 625.472, 966.824 616.005 C 969.901 608.844, 972.789 600.860, 974.009 596.139 C 974.630 593.740, 976.231 590.763, 977.568 589.524 C 978.906 588.285, 980 586.948, 980 586.554 C 980 586.159, 981.488 583.961, 983.306 581.668 C 986.562 577.564, 987.727 575.933, 992.360 569 C 996.576 562.690, 1002.133 547.167, 1001.801 542.627 C 1001.340 536.314, 998.416 536.499, 992.795 543.197 C 987.877 549.057, 982 557.630, 982 558.944 C 982 559.409, 980.650 561.234, 979 563 C 977.350 564.766, 976 566.535, 976 566.931 C 976 568.651, 971.137 572, 968.640 572 C 965.245 572, 961 567.936, 961 564.685 C 961 563.362, 962.193 560.529, 963.650 558.390 C 966.455 554.273, 972.987 541.981, 972.995 540.804 C 972.998 540.421, 974.523 537.496, 976.384 534.304 C 980.614 527.050, 984.440 513.691, 983.038 511.070 C 981.730 508.627, 979.483 507.866, 976.700 508.924 C 972.741 510.429, 971.868 511.871, 958.121 539.623 C 950.269 555.474, 949.832 556, 944.500 556 C 937.854 556, 935.338 551.929, 938.414 546.154 C 941.627 540.122, 944 534.868, 944 533.785 C 944 532.544, 945.546 529.092, 953.084 513.500 C 958.699 501.888, 959.458 499.254, 958.565 494.493 C 957.145 486.927, 948.711 491.592, 941.662 503.843 C 937.511 511.056, 935.764 515.231, 928.887 534.366 C 923.850 548.382, 918.751 552.206, 912.646 546.548 C 909.395 543.535, 909.154 538.900, 912.004 534.226 C 913.102 532.425, 914 530.363, 914 529.643 C 914 528.923, 915.371 524.096, 917.046 518.917 C 919.905 510.078, 922.999 496.537, 923 492.861 C 923 489.909, 919.740 487.060, 917.418 487.983 M 469.105 522.082 C 456.929 524.473, 446.123 531.197, 446.033 536.438 C 445.987 539.113, 450.220 545.106, 451.750 544.532 C 452.438 544.274, 453 544.499, 453 545.031 C 453 546.171, 456.330 546.336, 457.417 545.250 C 457.829 544.837, 458.467 544.462, 458.833 544.416 C 459.200 544.370, 460.850 543.739, 462.500 543.014 C 464.150 542.288, 469.864 541.487, 475.198 541.233 C 483.617 540.832, 485.473 541.051, 489.264 542.886 C 495.087 545.705, 495.944 545.596, 500.820 541.422 C 504.543 538.235, 505 537.367, 505 533.473 C 505 529.647, 504.561 528.767, 501.476 526.414 C 495.286 521.693, 480.895 519.767, 469.105 522.082 M 599.648 524.027 C 595.232 525.351, 590.435 529.036, 588.534 532.567 C 586.886 535.626, 586.892 535.907, 588.653 538.621 C 591.508 543.020, 594.019 545.207, 595.545 544.621 C 596.310 544.327, 597.202 544.518, 597.527 545.044 C 598.170 546.085, 602.310 546.357, 603.247 545.420 C 604.039 544.628, 623.011 544.696, 625.500 545.500 C 626.600 545.855, 629.009 546.803, 630.854 547.606 C 632.699 548.410, 636.094 549.325, 638.399 549.641 C 643.979 550.406, 649 546.582, 649 541.567 C 649 532.608, 628.703 522.887, 610.412 523.086 C 606.060 523.133, 601.217 523.557, 599.648 524.027 M 459.484 570.027 C 459.135 570.591, 458.321 570.932, 457.675 570.785 C 455.207 570.221, 440 581.373, 440 583.747 C 440 584.288, 439.185 585.803, 438.189 587.115 C 436.029 589.960, 433.658 597.638, 434.513 599.021 C 435.683 600.913, 437.815 599.970, 438.808 597.120 C 439.360 595.536, 441.879 592.173, 444.406 589.647 C 446.933 587.120, 449 584.720, 449 584.314 C 449 583.109, 457.317 575, 458.553 575 C 459.986 575, 463 571.728, 463 570.171 C 463 568.728, 460.353 568.619, 459.484 570.027 M 597.983 573.831 C 592.296 576.529, 588.119 579.909, 583.952 585.180 C 580.046 590.122, 577.398 596.988, 578.395 599.588 C 579.169 601.604, 581.645 600.271, 582.943 597.138 C 583.562 595.644, 587.004 591.288, 590.592 587.460 C 594.180 583.632, 597.427 580.167, 597.808 579.760 C 598.189 579.352, 599.962 577.850, 601.750 576.421 C 607.244 572.028, 605.014 570.494, 597.983 573.831 M 390.625 588.648 C 382.393 597.527, 381.714 620.916, 389.251 636 C 390.472 638.445, 393.877 641.901, 395.130 641.967 C 395.476 641.985, 396.089 636.263, 396.491 629.250 C 397.034 619.796, 397.716 615.533, 399.128 612.757 C 400.888 609.300, 400.917 608.737, 399.509 605.367 C 398.671 603.361, 397.832 598.701, 397.645 595.012 C 397.151 585.235, 395.325 583.580, 390.625 588.648 M 531 590.233 C 528.796 591.397, 528.423 592.417, 527.847 598.834 C 527.489 602.839, 526.738 607.327, 526.179 608.808 C 525.620 610.288, 524.900 612.708, 524.579 614.185 C 523.299 620.068, 512.381 634.892, 505.504 640.085 C 502.635 642.251, 498.197 644.736, 495.643 645.606 C 493.090 646.476, 491 647.630, 491 648.171 C 491 648.711, 489.531 649.027, 487.736 648.872 C 485.940 648.717, 483.858 648.969, 483.110 649.432 C 481.223 650.598, 460.842 650.651, 459 649.495 C 458.175 648.977, 457.050 648.514, 456.500 648.467 C 455.433 648.376, 447.626 644.943, 442.241 642.197 C 440.448 641.283, 436.272 637.801, 432.960 634.459 C 424.180 625.601, 420.838 617.210, 420.228 602.500 C 419.777 591.632, 419.241 590.049, 416 590.014 C 414.752 590.001, 414.475 592.139, 414.353 602.749 C 414.272 609.762, 414.045 621.742, 413.849 629.371 L 413.492 643.243 417.267 646.379 C 420.410 648.989, 421.064 650.184, 421.169 653.507 C 421.346 659.115, 422.595 662.093, 424.468 661.374 C 425.311 661.051, 426 661.284, 426 661.893 C 426 662.502, 426.675 663, 427.500 663 C 428.325 663, 429 663.689, 429 664.531 C 429 665.374, 429.700 666.331, 430.555 666.659 C 431.540 667.038, 431.998 668.216, 431.805 669.878 C 431.523 672.302, 431.839 672.538, 435.976 673 C 440.716 673.529, 442.954 675.985, 442.985 680.691 C 443.004 683.507, 444.286 684.246, 449.039 684.180 C 452.754 684.129, 458.557 687.289, 457.598 688.841 C 457.367 689.216, 457.796 690.367, 458.551 691.401 C 459.862 693.193, 460.045 693.200, 462.557 691.555 C 465.447 689.661, 469.330 690.102, 472.151 692.643 C 473.653 693.997, 473.866 693.754, 474.509 689.950 C 475.157 686.110, 477.337 680.154, 480.315 674.084 C 481.887 670.879, 486.056 666.779, 493.708 660.914 C 500.038 656.062, 505 654.016, 510.458 654.006 C 512.515 654.002, 514.570 652.873, 517.205 650.300 C 521.751 645.861, 527.079 645.188, 529.845 648.704 C 530.755 649.861, 533.827 651.791, 536.670 652.992 L 541.841 655.178 546.258 652.589 C 548.688 651.165, 551.386 650, 552.255 650 C 553.123 650, 554.020 649.441, 554.247 648.758 C 554.537 647.888, 556.430 648.440, 560.581 650.607 C 564.549 652.678, 568.534 653.878, 572.672 654.247 C 577.472 654.674, 579.916 655.534, 583.672 658.118 C 586.327 659.945, 588.725 661.397, 589 661.344 C 589.617 661.226, 596.776 666.292, 599.500 668.775 C 603.281 672.221, 607.409 680.544, 608.480 686.879 C 608.862 689.140, 609.613 691.261, 610.149 691.592 C 610.685 691.923, 611.552 693.321, 612.076 694.699 C 612.784 696.561, 613.473 697.016, 614.764 696.473 C 618.766 694.790, 621.136 694.813, 623.061 696.555 C 624.997 698.307, 625.157 698.253, 628.959 694.540 C 632.277 691.300, 633.327 690.815, 635.907 691.331 C 638.650 691.880, 639.244 691.505, 642.011 687.485 C 645.711 682.106, 648.158 680.656, 652.080 681.518 C 654.439 682.036, 655.439 681.693, 656.988 679.834 C 658.058 678.550, 658.948 676.970, 658.967 676.321 C 659.022 674.361, 662 672, 664.416 672 C 667.289 672, 669.398 669.602, 671.014 664.500 C 671.711 662.300, 673.755 659.053, 675.556 657.284 C 677.707 655.171, 678.661 653.420, 678.337 652.180 C 678.032 651.015, 679.392 648.033, 681.886 644.396 C 684.719 640.266, 686.357 636.457, 687.358 631.678 C 688.188 627.712, 689.668 623.918, 690.893 622.614 C 693.207 620.151, 693.694 615.094, 691.800 613.200 C 691.140 612.540, 690.970 612, 691.422 612 C 691.875 612, 691.718 611.365, 691.074 610.589 C 690.362 609.731, 690.277 608.947, 690.858 608.588 C 691.383 608.264, 691.590 607.149, 691.319 606.112 C 691.048 605.074, 691.315 603.923, 691.913 603.554 C 693.304 602.694, 693.329 598.321, 691.948 597.468 C 691.370 597.111, 687.118 596.818, 682.500 596.818 C 677.882 596.818, 673.630 597.111, 673.052 597.468 C 672.473 597.826, 672 599.484, 672 601.154 C 672 605.295, 668.127 617.899, 665.853 621.154 C 664.834 622.614, 664 624.054, 664 624.354 C 664 627.556, 650.131 642.139, 645 644.333 C 643.625 644.921, 641.292 646.222, 639.815 647.223 C 638.338 648.224, 636.763 648.941, 636.315 648.816 C 635.867 648.691, 633.925 649.446, 632 650.494 C 625.196 654.196, 599.624 653.482, 595.620 649.477 C 594.860 648.717, 593.985 648.348, 593.677 648.657 C 593.368 648.966, 591.782 648.269, 590.153 647.109 C 588.524 645.949, 586.905 645, 586.555 645 C 585.298 645, 579.453 640.419, 575.487 636.325 C 571.666 632.381, 564.007 619.303, 563.994 616.701 C 563.990 616.040, 563.299 614.180, 562.458 612.566 C 561.616 610.952, 561.149 609.054, 561.420 608.348 C 561.691 607.642, 561.482 606.798, 560.956 606.473 C 560.430 606.148, 560 602.961, 560 599.390 L 560 592.898 556.250 591.273 C 551.241 589.104, 534.447 588.411, 531 590.233 M 727.435 592.890 C 718.585 596.910, 715.037 601.700, 713.487 611.721 C 713.128 614.042, 711.923 617.099, 710.810 618.514 C 709.267 620.476, 708.952 621.850, 709.486 624.294 C 710.930 630.904, 709.101 653.109, 706.751 657.500 C 705.810 659.259, 705.373 661.647, 705.694 663.273 C 707.585 672.840, 723.080 670.954, 734.251 659.797 C 745.405 648.655, 751 635.563, 751 620.602 C 751 607.359, 746.381 596.766, 738.956 592.977 C 734.199 590.551, 732.613 590.539, 727.435 592.890 M 511.952 680.552 L 509.500 683.163 512.096 682.512 C 514.773 681.840, 517.732 683.136, 525.313 688.299 C 535.084 694.954, 557.266 692.732, 565.182 684.306 L 567.364 681.983 556.757 682.236 C 546.686 682.476, 546.016 682.364, 543.524 680.023 L 540.899 677.557 536.700 679.781 C 530.705 682.956, 525.384 682.655, 515.952 678.606 C 514.970 678.184, 513.507 678.896, 511.952 680.552 M 496.727 687.714 C 494.913 691.499, 493.961 695.091, 493.977 698.101 C 494.002 703.148, 495.678 709, 497.098 709 C 497.594 709, 498 709.930, 498 711.066 C 498 713.970, 499.801 717, 501.527 717 C 502.329 717, 504.150 718.308, 505.574 719.906 C 507.480 722.046, 509.393 722.969, 512.831 723.409 C 521.927 724.574, 522.468 724.551, 522.540 723 C 522.618 721.306, 524.325 716.732, 526.272 713 C 527.685 710.292, 526.877 710.396, 543.250 710.807 C 551.356 711.010, 551.537 711.070, 553.644 714.257 C 554.822 716.041, 556.073 719.525, 556.423 722 C 557.359 728.630, 558.373 729.877, 560.939 727.555 C 562.073 726.529, 563 726.040, 563 726.467 C 563 726.895, 563.748 726.627, 564.663 725.872 C 565.965 724.797, 566.417 724.772, 566.748 725.756 C 566.981 726.447, 567.582 726.758, 568.085 726.447 C 568.588 726.136, 569 726.359, 569 726.941 C 569 728.933, 571.624 728.002, 574.515 724.984 C 576.104 723.325, 579.064 721.521, 581.093 720.975 C 584.300 720.111, 584.871 719.494, 585.475 716.241 C 585.857 714.183, 586.742 711.825, 587.443 711 C 591.137 706.650, 591.499 694.599, 588.060 690.500 C 587.137 689.400, 585.835 687.218, 585.168 685.652 C 584.366 683.771, 583.448 682.998, 582.465 683.375 C 581.646 683.689, 579.855 683.435, 578.484 682.811 C 575.109 681.273, 574.459 682.275, 576.543 685.803 C 577.670 687.712, 578.051 689.662, 577.626 691.354 C 576.671 695.157, 571.670 700.417, 567.299 702.214 C 562.300 704.270, 546.739 706.997, 539.914 707.013 C 526.690 707.044, 510.981 700.731, 507.491 693.982 C 506.170 691.427, 506.090 690.257, 507.042 687.372 C 507.679 685.444, 508.042 683.723, 507.850 683.547 C 507.657 683.372, 505.700 682.936, 503.500 682.578 L 499.500 681.928 496.727 687.714 M 626.964 765.361 C 626.159 766.110, 622.800 767.738, 619.500 768.979 C 616.200 770.220, 612.707 771.639, 611.738 772.133 C 607.050 774.524, 600.455 776.120, 597.531 775.572 C 595.111 775.118, 592.961 775.704, 588.686 777.986 C 584.182 780.390, 581.805 781, 576.948 781 C 573.599 781, 567.111 781.736, 562.531 782.636 C 554.756 784.164, 553.283 784.157, 540.351 782.532 C 532.733 781.574, 524.025 780.589, 521 780.343 C 517.975 780.097, 514.825 779.625, 514 779.295 C 513.175 778.964, 512.050 778.624, 511.500 778.540 C 510.950 778.455, 509.825 778.100, 509 777.751 C 505.547 776.289, 497.813 774, 496.326 774 C 495.443 774, 492.527 772.650, 489.846 771 C 487.164 769.350, 484.603 768, 484.156 768 C 482.702 768, 483.453 772.465, 485.118 773.714 C 486.008 774.382, 486.987 776.182, 487.294 777.714 C 488.597 784.215, 509.143 802, 515.352 802 C 516.110 802, 517.803 802.828, 519.115 803.840 C 526.042 809.186, 555.916 811.917, 569.434 808.440 C 572.770 807.582, 577.188 806.439, 579.250 805.900 C 581.313 805.361, 583 804.488, 583 803.960 C 583 803.432, 583.519 803, 584.153 803 C 585.880 803, 597.733 797.240, 598.475 796.041 C 598.828 795.469, 599.954 795, 600.976 795 C 601.997 795, 602.994 794.519, 603.190 793.930 C 603.386 793.342, 606.680 790.524, 610.510 787.667 C 614.492 784.697, 619.650 779.555, 622.558 775.656 C 625.355 771.907, 628.093 768.538, 628.644 768.169 C 629.195 767.801, 629.936 766.712, 630.292 765.750 C 631.072 763.634, 629.073 763.401, 626.964 765.361 M 392 898 C 392 899.650, 392.450 901, 393 901 C 393.550 901, 394 899.650, 394 898 C 394 896.350, 393.550 895, 393 895 C 392.450 895, 392 896.350, 392 898 M 440.734 969.994 C 437.918 972.210, 437.142 976.096, 438.947 978.948 C 440.009 980.627, 451.725 981.612, 453.808 980.198 C 456.870 978.120, 451.301 969.410, 446.266 968.403 C 444.296 968.009, 442.659 968.480, 440.734 969.994 M 412.323 977.601 C 411.192 980.548, 416.190 982.039, 420.130 979.930 C 421.726 979.076, 421.890 978.572, 420.942 977.430 C 419.291 975.441, 413.105 975.564, 412.323 977.601" stroke="none" fill="#171916" fill-rule="evenodd"/>
</svg>