<svg role="img" aria-labelledby="artwork-title" shape-rendering="geometricPrecision" xmlns="http://www.w3.org/2000/svg" width="1200" height="1200" viewBox="0 0 1200 1200" version="1.1">
	<title id="artwork-title">Mascot launching a project like a rocket</title>
	<path d="M 588 81.304 C 588 82.021, 586.425 84.134, 584.500 86 C 582.575 87.866, 579.786 91.216, 578.302 93.446 C 574.252 99.532, 573.633 99.863, 568.238 98.829 C 561.869 97.608, 549.507 98.775, 544.123 101.106 C 541.715 102.148, 539.318 103, 538.796 103 C 538.274 103, 536.426 104.421, 534.689 106.157 C 532.953 107.893, 530.305 110.060, 528.805 110.972 C 524.058 113.859, 518.245 122.842, 516.033 130.710 C 514.494 136.184, 512.692 138.057, 507.936 139.126 C 505.619 139.646, 502.600 140.956, 501.227 142.036 C 499.854 143.116, 498.116 144, 497.365 144 C 496.614 144, 496 144.383, 496 144.851 C 496 145.318, 493.576 147.635, 490.613 150 C 486.627 153.180, 484.092 156.405, 480.863 162.399 L 476.500 170.500 476.500 181.500 C 476.500 187.550, 476.865 194.640, 477.312 197.255 C 478.117 201.971, 478.086 202.048, 473.444 206.755 C 463.098 217.245, 460.255 230.663, 465.453 244.472 C 467.968 251.154, 472.614 258, 474.633 258 C 476.447 258, 476.899 261.557, 476.286 271.013 C 475.778 278.860, 475.954 280.256, 477.857 283.482 C 481.225 289.191, 480.715 291.949, 475.541 296.005 C 470.505 299.952, 464.167 311.335, 463.267 318.048 C 462.972 320.248, 462.341 322.289, 461.865 322.583 C 460.736 323.281, 460.738 338.313, 461.867 339.550 C 462.344 340.073, 463.742 344.307, 464.973 348.961 C 470.130 368.451, 489.587 386.055, 506.059 386.133 C 514.635 386.174, 517 387.207, 517 390.910 C 517 395.403, 518.429 398.291, 523.453 403.947 C 526.394 407.259, 528.478 410.784, 529.268 413.787 C 530.478 418.381, 535.959 425.245, 540.500 427.852 C 542.466 428.980, 542.467 429.020, 540.573 430.149 C 539.493 430.792, 535.472 431.204, 531.421 431.086 C 527.170 430.962, 523.925 431.312, 523.539 431.938 C 523.177 432.522, 521.420 433, 519.634 433 C 512.075 433, 485.802 439.006, 477.500 442.632 C 475.300 443.592, 473.275 444.434, 473 444.503 C 469.955 445.258, 430.382 464.995, 426.068 467.910 C 411.542 477.724, 408.245 479.812, 406.339 480.405 C 402.945 481.462, 398.789 487.695, 398.242 492.547 C 397.785 496.595, 397.203 497.307, 389.128 503.686 C 371.922 517.276, 357.643 532.707, 352.286 543.500 C 348.515 551.098, 344.542 559.502, 344.486 560 C 344.455 560.275, 343.859 561.527, 343.163 562.781 C 341.454 565.859, 335 585.677, 335 587.846 C 335 588.798, 334.107 591.329, 333.015 593.470 C 331.923 595.612, 331.245 597.578, 331.506 597.840 C 331.768 598.102, 331.569 598.815, 331.063 599.425 C 330.008 600.696, 327.395 615.199, 326.375 625.447 C 325.777 631.454, 325.130 633.145, 321.592 637.947 C 313.295 649.207, 310 660.021, 310 675.994 C 310 691.004, 312.620 697.573, 322.867 708.250 C 325.374 710.863, 327.949 713, 328.590 713 C 329.231 713, 330.315 713.675, 331 714.500 C 331.685 715.325, 333.315 716, 334.622 716 C 335.930 716, 337 716.482, 337 717.072 C 337 717.661, 338.103 717.999, 339.451 717.822 C 341.080 717.609, 343.635 718.794, 347.061 721.352 C 353.855 726.424, 356.914 727.226, 366.595 726.474 C 373.961 725.903, 375.173 726.079, 380.033 728.423 C 385.597 731.108, 389.807 731.653, 392.764 730.071 C 393.719 729.560, 396.672 728.323, 399.326 727.321 C 407.868 724.097, 417 714.417, 417 708.585 C 417 703.849, 418.660 701.432, 422.867 700.044 C 427.451 698.531, 429.195 696.819, 434.037 689.079 C 437.226 683.981, 437.429 683.130, 437.429 674.843 C 437.429 669.596, 436.969 665.569, 436.292 664.892 C 435.668 664.268, 435.367 663.208, 435.624 662.538 C 435.881 661.868, 435.399 660.746, 434.553 660.044 C 433.707 659.342, 432.557 657.070, 431.999 654.996 C 431.358 652.618, 428.588 648.638, 424.492 644.214 C 417.182 636.319, 416.652 634.266, 420.470 628.640 C 421.828 626.638, 422.732 625, 422.479 625 C 422.226 625, 423.364 622.813, 425.009 620.139 C 426.654 617.466, 428.010 614.654, 428.022 613.889 C 428.034 613.125, 428.924 611.375, 430 610 C 431.076 608.625, 431.966 607.208, 431.978 606.850 C 432.014 605.798, 438.504 596.448, 441.267 593.468 C 443.961 590.563, 446.235 590.201, 453.611 591.501 C 457.345 592.160, 463.944 590.323, 466 588.052 C 466.275 587.748, 467.332 587.430, 468.348 587.345 C 469.756 587.226, 470.078 587.704, 469.700 589.345 C 468.858 592.998, 467.240 601.924, 464.960 615.500 C 463.758 622.650, 462.335 629.447, 461.797 630.604 C 461.259 631.761, 460.958 633.786, 461.128 635.104 C 461.299 636.422, 461.160 637.950, 460.820 638.500 C 460.480 639.050, 459.237 646.925, 458.057 656 C 456.876 665.075, 455.729 673.175, 455.506 674 C 455.284 674.825, 454.594 681.755, 453.973 689.400 C 452.967 701.780, 453.028 703.784, 454.529 707.715 C 455.759 710.937, 456.035 713.561, 455.551 717.436 C 454.502 725.835, 457.238 748.598, 460.141 755.619 C 460.796 757.203, 461.408 758.725, 461.500 759 C 461.592 759.275, 462.192 760.767, 462.834 762.315 C 464.318 765.899, 464.311 765.999, 462.406 768.104 C 461.529 769.073, 460.149 769.611, 459.339 769.300 C 458.528 768.989, 456.883 769.183, 455.683 769.731 C 452.437 771.212, 443.875 773.965, 437.830 775.471 C 431.261 777.107, 422.322 780.488, 420.445 782.046 C 419.675 782.685, 416.223 784.531, 412.773 786.150 C 405.891 789.377, 405.992 789.320, 400.400 793.218 C 389.087 801.105, 386.506 803.044, 379.069 809.250 C 374.620 812.963, 370.647 816.003, 370.240 816.006 C 369.833 816.010, 365.675 819.654, 361 824.104 C 356.325 828.554, 351.488 832.878, 350.250 833.713 C 349.012 834.547, 348 835.853, 348 836.615 C 348 837.377, 347.414 838, 346.697 838 C 345.052 838, 313.290 870.208, 309.969 875.243 C 308.611 877.302, 307.024 878.989, 306.442 878.993 C 305.860 878.997, 304.060 880.837, 302.442 883.081 C 300.824 885.326, 296.940 889.893, 293.812 893.232 C 279.326 908.688, 265.672 925.005, 266.517 925.850 C 266.773 926.106, 266.481 926.920, 265.869 927.658 C 265.212 928.450, 265.158 929, 265.739 929 C 266.280 929, 266.518 930.070, 266.268 931.378 C 265.967 932.951, 266.460 934.221, 267.723 935.128 C 268.773 935.883, 269.908 937.242, 270.246 938.149 C 271.926 942.661, 284.011 942.839, 290.481 938.448 C 292.465 937.102, 294.400 936, 294.780 936 C 295.160 936, 297.728 934.933, 300.486 933.628 C 303.244 932.323, 307.975 930.236, 311 928.991 C 314.025 927.745, 318.525 925.719, 321 924.490 C 323.475 923.260, 326.850 921.951, 328.500 921.581 C 331.443 920.919, 339.415 918.024, 345.651 915.351 C 347.384 914.608, 349.447 914, 350.234 914 C 351.022 914, 352.004 913.663, 352.417 913.250 C 352.829 912.838, 353.467 912.484, 353.833 912.465 C 354.200 912.445, 355.625 911.800, 357 911.032 C 359.350 909.718, 365.130 907.872, 378 904.326 C 381.025 903.492, 383.928 902.403, 384.450 901.905 C 384.973 901.407, 386.210 901, 387.200 901 C 388.190 901, 389 900.663, 389 900.250 C 389 899.395, 413.908 899.575, 414.770 900.437 C 415.080 900.747, 417.171 901.009, 419.417 901.020 C 421.662 901.030, 427.100 901.690, 431.500 902.485 C 435.900 903.280, 441.776 903.946, 444.559 903.965 C 451.352 904.012, 452.819 905.333, 453.597 912.099 C 454.118 916.641, 453.925 917.961, 452.569 919.099 C 441.619 928.286, 420.303 951, 422.631 951 C 423.054 951, 422.860 951.540, 422.200 952.200 C 420.737 953.663, 420.621 957.647, 422.016 958.510 C 422.575 958.856, 422.755 959.587, 422.416 960.136 C 422.076 960.685, 422.706 961.372, 423.815 961.662 C 425.772 962.174, 427.572 966.266, 426.560 967.903 C 426.284 968.349, 423.908 969.010, 421.279 969.372 C 405.552 971.536, 393.726 974.506, 387.515 977.853 C 385.323 979.034, 382.796 980, 381.900 980 C 381.003 980, 379.197 980.818, 377.885 981.817 C 376.573 982.817, 373.925 984.246, 372 984.992 C 368.740 986.256, 365.172 988.373, 352.500 996.564 C 337.794 1006.069, 318.782 1022.379, 308 1034.739 C 299.519 1044.463, 297.662 1048.039, 298.504 1053.026 C 299.225 1057.290, 301.151 1058.962, 308.021 1061.284 C 310.443 1062.103, 312.558 1063.175, 312.723 1063.668 C 312.887 1064.160, 309.548 1067.699, 305.302 1071.531 C 294.662 1081.138, 281.543 1094.314, 275.154 1101.811 C 271.599 1105.983, 269.421 1107.794, 268.654 1107.218 C 268.019 1106.740, 265.606 1105.809, 263.292 1105.148 C 258.052 1103.650, 257.526 1102.817, 259.459 1099.079 C 261.273 1095.571, 261.447 1087.015, 259.947 1075.054 C 258.895 1066.660, 256.419 1059.703, 252.811 1055 C 251.756 1053.625, 249.642 1050.845, 248.114 1048.823 C 242.718 1041.684, 226.252 1029.500, 222 1029.500 C 221.175 1029.500, 219.661 1028.743, 218.635 1027.818 C 217.609 1026.894, 214.909 1025.842, 212.635 1025.482 C 210.361 1025.121, 205.125 1024.143, 201 1023.308 C 196.288 1022.355, 191.270 1022.015, 187.500 1022.394 C 176.261 1023.523, 165.507 1025.630, 162.260 1027.337 C 160.479 1028.274, 158.679 1029.081, 158.260 1029.130 C 157.842 1029.179, 156.375 1030.002, 155 1030.957 C 153.625 1031.912, 150.972 1033.212, 149.105 1033.846 C 142.582 1036.058, 127.540 1050.125, 121.349 1059.803 C 117.358 1066.042, 115.448 1070.916, 113.237 1080.500 C 112.349 1084.350, 111.258 1087.650, 110.811 1087.833 C 109.704 1088.288, 109.777 1105.744, 110.890 1106.432 C 111.379 1106.734, 112.361 1109.911, 113.073 1113.491 L 114.367 1120 124.790 1120 C 134.338 1120, 135.151 1119.853, 134.461 1118.250 C 132.219 1113.037, 129.005 1100.227, 129.039 1096.637 C 129.082 1092.035, 132.663 1079.218, 135.267 1074.346 C 137.973 1069.282, 146.242 1059.452, 151.574 1054.963 C 156.852 1050.519, 167.528 1045, 170.847 1045 C 171.959 1045, 174.137 1044.475, 175.685 1043.834 C 177.233 1043.192, 178.725 1042.591, 179 1042.497 C 179.275 1042.404, 180.400 1041.916, 181.500 1041.414 C 184.560 1040.016, 200.608 1040.429, 202.444 1041.953 C 203.300 1042.664, 204 1042.910, 204 1042.500 C 204 1042.090, 204.563 1042.220, 205.250 1042.788 C 205.938 1043.356, 208.300 1044.142, 210.500 1044.535 C 215.719 1045.466, 224.431 1050.763, 229.663 1056.185 C 234.054 1060.736, 239 1068.818, 239 1071.442 C 239 1072.299, 239.436 1073, 239.969 1073 C 240.501 1073, 240.667 1073.705, 240.336 1074.567 C 240.005 1075.430, 240.230 1077.117, 240.835 1078.317 C 241.441 1079.518, 242.130 1084.100, 242.368 1088.500 C 242.605 1092.900, 243.112 1097.908, 243.495 1099.630 C 244.171 1102.665, 243.956 1102.910, 236.346 1107.767 C 227.121 1113.655, 224 1116.359, 224 1118.464 C 224 1119.818, 228.507 1120, 262.107 1120 C 296.445 1120, 300.154 1119.844, 299.607 1118.418 C 299.273 1117.548, 299 1116.669, 299 1116.464 C 299 1116.258, 297.429 1115.796, 295.509 1115.436 C 293.589 1115.075, 292.241 1114.418, 292.515 1113.976 C 292.789 1113.533, 292.515 1113.005, 291.906 1112.802 C 289.433 1111.978, 303.897 1096.779, 326.320 1076.639 C 331.134 1072.316, 336.003 1066.954, 337.141 1064.723 C 339.002 1061.076, 339.079 1060.269, 337.905 1056.712 C 336.838 1053.480, 335.799 1052.414, 332.217 1050.879 C 329.806 1049.845, 327.223 1049, 326.476 1049 C 323.002 1049, 324.528 1046.166, 333.170 1036.568 C 338.301 1030.869, 342.999 1026.047, 343.608 1025.853 C 344.217 1025.659, 346.467 1024.037, 348.608 1022.248 C 358.429 1014.044, 361.487 1011.915, 368.499 1008.403 C 372.624 1006.336, 376 1004.249, 376 1003.764 C 376 1003.279, 376.450 1003.160, 377 1003.500 C 377.550 1003.840, 378 1003.641, 378 1003.059 C 378 1002.477, 378.675 1002, 379.500 1002 C 380.325 1002, 381 1001.600, 381 1001.111 C 381 1000.623, 382.667 999.910, 384.703 999.528 C 386.740 999.146, 390.003 998.036, 391.953 997.061 C 393.904 996.086, 396.850 995.028, 398.500 994.709 C 400.150 994.391, 403.300 993.347, 405.500 992.391 C 407.700 991.434, 410.470 990.756, 411.654 990.885 C 412.839 991.013, 414.104 990.642, 414.464 990.059 C 414.823 989.477, 416.176 989, 417.470 989 C 420.337 989, 430.901 985.162, 433.079 983.329 C 436.479 980.467, 439.450 981.748, 446.596 989.156 C 450.393 993.091, 455.677 998.370, 458.338 1000.886 C 460.999 1003.401, 463.611 1006.273, 464.143 1007.268 C 465.223 1009.286, 465.722 1008.511, 453.896 1023.165 C 442.056 1037.835, 441.763 1039.026, 448.368 1045.632 C 452.406 1049.669, 453.131 1050, 457.934 1050 C 462.730 1050, 465.739 1049.095, 468.437 1046.842 C 469.022 1046.353, 472.425 1043.697, 476 1040.938 C 479.575 1038.179, 483.551 1035.040, 484.835 1033.961 C 488.572 1030.822, 491.005 1031.637, 498.500 1038.538 C 502.350 1042.082, 505.984 1044.986, 506.576 1044.991 C 507.167 1044.996, 508.672 1046.087, 509.920 1047.415 C 512.305 1049.953, 512.245 1051.430, 509.512 1057.500 C 508.769 1059.150, 507.192 1064.100, 506.007 1068.500 C 502.361 1082.039, 485.161 1116, 481.950 1116 C 481.556 1116, 480.998 1116.900, 480.710 1118 C 480.210 1119.913, 480.680 1120, 491.472 1120 L 502.757 1120 503.986 1117.033 C 504.662 1115.401, 505.850 1113.539, 506.626 1112.895 C 507.402 1112.251, 508.797 1110.099, 509.727 1108.112 C 510.656 1106.126, 512.109 1103.974, 512.957 1103.332 C 513.804 1102.689, 514.187 1101.854, 513.809 1101.475 C 513.430 1101.097, 513.909 1099.940, 514.873 1098.905 C 516.758 1096.883, 523.033 1081.505, 523.013 1078.961 C 523.006 1078.115, 523.885 1075.686, 524.968 1073.564 C 526.050 1071.441, 526.717 1069.352, 526.451 1068.921 C 526.185 1068.491, 526.425 1067.856, 526.984 1067.510 C 527.543 1067.165, 528.007 1065.896, 528.015 1064.691 C 528.048 1060.075, 529.354 1059.639, 534.829 1062.413 C 537.637 1063.836, 541.137 1065, 542.607 1065 C 546.380 1065, 553.572 1061.181, 558.129 1056.759 C 560.259 1054.691, 562.253 1053, 562.559 1053 C 562.865 1053, 566.817 1050.143, 571.341 1046.651 C 582.399 1038.116, 582.967 1037.861, 589.283 1038.603 C 593.290 1039.074, 595.458 1038.815, 597.853 1037.576 C 601.814 1035.528, 603 1036.177, 603 1040.392 C 603 1042.193, 603.324 1043.991, 603.720 1044.387 C 604.116 1044.783, 604.311 1046.613, 604.152 1048.453 C 603.994 1050.293, 604.345 1052.095, 604.932 1052.458 C 606.407 1053.369, 606.382 1079.646, 604.906 1080.558 C 604.304 1080.930, 604.019 1082.317, 604.272 1083.641 C 604.525 1084.965, 604.342 1086.289, 603.866 1086.583 C 603.390 1086.877, 602.989 1088.779, 602.976 1090.809 C 602.963 1092.839, 602.529 1096.075, 602.013 1098 C 601.496 1099.925, 600.368 1104.200, 599.506 1107.500 C 598.644 1110.800, 597.503 1114.281, 596.969 1115.236 C 594.227 1120.149, 592.920 1120, 638.820 1120 L 681.640 1120 691.570 1111.187 C 705.857 1098.507, 726.099 1076.521, 733.531 1065.610 C 736.715 1060.935, 736.807 1060.766, 739.560 1054.500 C 741.010 1051.200, 742.827 1047.082, 743.598 1045.349 C 744.369 1043.616, 745.004 1041.366, 745.009 1040.349 C 745.014 1039.332, 746.125 1036.250, 747.478 1033.500 C 748.831 1030.750, 749.952 1027.793, 749.969 1026.928 C 749.986 1026.064, 750.691 1023.327, 751.537 1020.847 C 752.382 1018.366, 753.698 1012.549, 754.463 1007.919 C 755.227 1003.288, 756.313 997.475, 756.876 995 C 757.438 992.525, 758.207 985.100, 758.584 978.500 C 758.961 971.900, 759.690 965.966, 760.204 965.314 C 760.718 964.662, 761.036 960.979, 760.911 957.129 C 760.658 949.325, 760.868 949.001, 770 943.059 C 772.475 941.448, 775.400 939.314, 776.500 938.315 C 779.318 935.758, 786.423 931.013, 787.554 930.934 C 788.074 930.897, 790.525 929.326, 793 927.443 C 795.475 925.559, 798.625 923.241, 800 922.292 C 804.874 918.927, 819.616 907.548, 827.816 900.821 C 832.390 897.070, 836.572 894, 837.110 894 C 839.204 894, 867.916 869.571, 883.536 854.500 C 885.816 852.300, 892.816 845.801, 899.091 840.057 C 915.397 825.131, 937.496 802.340, 947.627 790 C 949.207 788.075, 951.225 785.825, 952.110 785 C 952.996 784.175, 958.005 778.325, 963.241 772 C 968.478 765.675, 973.716 759.643, 974.881 758.595 C 976.046 757.547, 977 756.185, 977 755.568 C 977 754.951, 978.269 753.057, 979.820 751.359 C 981.370 749.661, 985.040 744.723, 987.975 740.386 C 990.910 736.049, 994.704 730.719, 996.406 728.542 C 999.395 724.719, 1000.507 722.914, 1003.825 716.500 C 1004.678 714.850, 1006.642 712.228, 1008.188 710.673 C 1009.735 709.118, 1011 707.464, 1011 706.998 C 1011 706.531, 1013.265 702.853, 1016.033 698.825 C 1024.495 686.511, 1026.085 683.953, 1030.175 676.088 C 1032.345 671.915, 1036.529 664.450, 1039.473 659.500 C 1042.418 654.550, 1044.866 649.712, 1044.913 648.750 C 1044.961 647.788, 1045.477 647, 1046.059 647 C 1046.641 647, 1046.840 646.550, 1046.500 646 C 1046.160 645.450, 1046.368 645, 1046.962 645 C 1047.557 645, 1048.531 643.763, 1049.128 642.250 C 1050.465 638.860, 1054.167 630.169, 1057.113 623.500 C 1058.328 620.750, 1059.403 618.275, 1059.501 618 C 1059.600 617.725, 1061.091 614.498, 1062.814 610.830 C 1064.537 607.161, 1066.923 601.311, 1068.116 597.830 C 1069.309 594.348, 1070.745 590.375, 1071.309 589 C 1071.872 587.625, 1072.408 586.275, 1072.500 586 C 1072.592 585.725, 1073.215 584.174, 1073.884 582.553 C 1075.801 577.909, 1080.800 559.277, 1082.448 550.634 C 1083.273 546.307, 1084.372 542.257, 1084.889 541.634 C 1085.407 541.010, 1085.839 540.275, 1085.850 540 C 1085.862 539.725, 1086.097 538.825, 1086.372 538 C 1089.131 529.746, 1091.124 487.128, 1088.992 481.980 C 1087.356 478.030, 1074.158 469.166, 1071.948 470.532 C 1071.502 470.808, 1070.856 470.575, 1070.510 470.016 C 1069.784 468.841, 1042 468.582, 1042.001 469.750 C 1042.001 470.163, 1039.707 470.341, 1036.904 470.147 C 1034.036 469.948, 1031.324 470.276, 1030.703 470.897 C 1030.096 471.504, 1027.778 471.991, 1025.550 471.979 C 1016.714 471.934, 963.318 480.081, 958 482.286 C 956.625 482.856, 955.115 483.235, 954.645 483.126 C 954.174 483.018, 953.274 483.356, 952.645 483.876 C 952.015 484.397, 949.250 485.266, 946.500 485.808 C 938.500 487.385, 927.960 490.068, 921.746 492.110 C 918.581 493.149, 915.348 494, 914.561 494 C 913.774 494, 911.863 494.525, 910.315 495.166 C 908.767 495.808, 907.275 496.408, 907 496.500 C 906.725 496.592, 905.150 497.210, 903.500 497.873 C 900.357 499.137, 895.488 500.971, 883 505.598 C 878.875 507.126, 875.002 508.744, 874.392 509.193 C 873.783 509.641, 870.858 510.856, 867.892 511.892 C 858.214 515.273, 844.681 520.914, 835.500 525.394 C 830.550 527.809, 824.486 530.621, 822.025 531.642 C 819.564 532.664, 816.053 534.515, 814.223 535.755 C 812.393 536.996, 806.532 540.304, 801.198 543.107 C 795.864 545.910, 791.050 548.748, 790.500 549.414 C 789.950 550.079, 788.653 550.942, 787.618 551.331 C 786.583 551.720, 781.320 554.842, 775.922 558.269 C 763.840 565.940, 757.735 569.075, 756.744 568.118 C 756.328 567.716, 756.588 560.948, 757.322 553.078 C 758.549 539.917, 758.849 538.622, 761.063 536.952 C 762.387 535.954, 763.652 535.318, 763.874 535.541 C 764.096 535.763, 765.600 534.832, 767.216 533.472 C 768.831 532.112, 770.958 531, 771.942 531 C 772.925 531, 774.874 530.100, 776.273 529 C 777.671 527.900, 779.244 527, 779.768 527 C 780.292 527, 782.359 525.889, 784.360 524.530 C 786.362 523.172, 788 522.327, 788 522.653 C 788 522.978, 788.563 522.784, 789.250 522.221 C 789.938 521.658, 794.535 519.074, 799.467 516.479 C 804.399 513.883, 812.369 509.114, 817.179 505.880 C 821.988 502.646, 826.171 500, 826.475 500 C 826.778 500, 829.270 497.744, 832.013 494.987 C 835.790 491.190, 837 489.240, 837 486.952 C 837 482.625, 839.305 479.666, 847.081 474.010 C 850.844 471.273, 856.807 466.420, 860.333 463.225 C 863.858 460.030, 869.533 455.929, 872.943 454.111 C 879.665 450.528, 887 444.361, 887 442.291 C 887 441.581, 887.602 441, 888.337 441 C 889.073 441, 891.435 438.920, 893.587 436.379 C 895.739 433.837, 900.087 429.028, 903.250 425.691 C 906.413 422.355, 909 419.244, 909 418.778 C 909 418.312, 911.837 414.458, 915.304 410.215 C 918.771 405.972, 923.286 400.025, 925.337 397 C 927.388 393.975, 930.850 389.025, 933.031 386 C 935.212 382.975, 936.997 380.185, 936.998 379.800 C 937.001 378.854, 942.850 370.238, 943.769 369.827 C 944.171 369.647, 946.075 366.429, 948 362.675 C 951.166 356.501, 953.689 353.775, 956.500 353.492 C 959.294 353.210, 973.582 346.072, 979.493 342.005 C 986.518 337.171, 998.699 325.189, 1001.573 320.285 C 1003.079 317.716, 1006.213 313.113, 1008.538 310.055 C 1010.863 306.998, 1013.980 301.610, 1015.465 298.083 C 1017.948 292.183, 1018.137 290.785, 1017.832 280.585 C 1017.547 271.070, 1017.189 269.075, 1015.307 266.500 C 1014.101 264.850, 1012.672 261.025, 1012.132 258 C 1010.576 249.277, 1009.637 247.737, 1001.264 240.177 C 996.916 236.251, 992.721 231.793, 991.942 230.270 C 989.753 225.992, 984.802 220, 983.455 220 C 982.789 220, 981.730 219.379, 981.100 218.621 C 980.470 217.862, 978.503 216.954, 976.728 216.604 C 971.206 215.513, 963.174 211.773, 962.733 210.086 C 962.501 209.201, 959.795 207.245, 956.719 205.739 C 950.093 202.494, 939.714 202.005, 931.195 204.535 C 923.253 206.893, 914.170 213.645, 909.522 220.645 C 905.624 226.516, 902.022 229.142, 895.964 230.529 C 893.210 231.159, 884.036 238.598, 879.255 244.078 C 874.982 248.975, 871.418 257.250, 869.544 266.625 C 868.045 274.120, 868.045 275.553, 869.541 285.125 C 872.489 303.984, 872.481 303.378, 869.815 306.255 C 868.491 307.683, 864.504 312.109, 860.954 316.091 C 857.404 320.072, 847.075 330.798, 838 339.926 C 828.925 349.054, 819.924 358.381, 817.998 360.652 C 810.647 369.319, 791 380.224, 791 375.637 C 791 374.765, 792.237 373.398, 793.750 372.601 C 797.201 370.780, 807.780 359.808, 811.202 354.500 C 820.642 339.858, 820.469 313.120, 810.856 300.856 C 807.322 296.347, 807.250 292.854, 810.574 287.039 C 812.624 283.452, 813.078 281.442, 812.888 276.784 C 812.690 271.949, 813.094 270.314, 815.326 266.905 C 816.797 264.659, 818 262.498, 818 262.105 C 818 261.711, 819.125 259.864, 820.500 258 C 821.875 256.136, 823.003 253.911, 823.006 253.056 C 823.010 252.200, 823.682 250.216, 824.501 248.646 C 825.320 247.076, 825.759 245.420, 825.478 244.965 C 825.197 244.510, 825.425 243.856, 825.984 243.510 C 827.159 242.784, 827.363 236.696, 826.250 235.583 C 825.837 235.171, 825.484 234.533, 825.465 234.167 C 825.445 233.800, 824.941 232.600, 824.345 231.500 C 823.748 230.400, 822.673 227.162, 821.955 224.304 C 820.658 219.142, 820.673 219.068, 824.182 213.304 C 829.830 204.023, 831.321 194.339, 828.878 182.799 C 827.779 177.604, 826.668 175.080, 823.220 169.935 C 822.274 168.524, 820.600 166.025, 819.500 164.383 C 816.607 160.062, 809.835 154.247, 805.671 152.507 C 801.192 150.635, 799.569 147.738, 799.900 142.200 C 800.094 138.952, 799.267 136.052, 796.517 130.335 C 792.310 121.589, 786.303 115.317, 775.160 108.032 C 765.962 102.019, 756.348 100.037, 745.522 101.923 C 738.346 103.172, 737 102.867, 737 99.993 C 737 98.094, 728.146 86.633, 724.795 84.193 C 723.808 83.475, 723 82.237, 723 81.443 C 723 80.217, 718.378 80, 692.237 80 L 661.474 80 660.487 82.250 C 659.882 83.630, 658.450 84.621, 656.785 84.813 C 654.582 85.067, 653.948 84.642, 653.426 82.563 L 652.783 80 620.392 80 C 594.432 80, 588 80.259, 588 81.304 M 612.620 89.642 C 609.386 90.424, 605.407 92.061, 603.777 93.281 C 597.887 97.691, 590.536 104.870, 591.216 105.549 C 591.598 105.931, 593.328 104.826, 595.061 103.093 C 596.794 101.360, 599.514 99.268, 601.106 98.445 C 602.698 97.622, 604 96.510, 604 95.974 C 604 95.438, 604.873 95, 605.941 95 C 607.009 95, 608.177 94.523, 608.536 93.941 C 608.896 93.358, 610.161 92.998, 611.346 93.140 C 612.530 93.282, 614.456 92.873, 615.625 92.231 C 619.375 90.170, 625.689 89.688, 630.462 91.097 C 632.958 91.834, 635 92.774, 635 93.187 C 635 93.600, 635.675 93.678, 636.500 93.362 C 637.325 93.045, 638 93.284, 638 93.893 C 638 94.502, 638.675 95, 639.500 95 C 641.226 95, 641.528 92.444, 639.919 91.450 C 637.730 90.097, 627.367 88.073, 623 88.146 C 620.525 88.188, 615.854 88.861, 612.620 89.642 M 684.500 90.627 C 670.268 91.754, 672.154 93.584, 687.092 93.142 C 695.063 92.906, 699.562 93.162, 700.292 93.892 C 700.901 94.501, 702.440 95, 703.710 95 C 706.368 95, 715.621 101.086, 718.337 104.620 C 719.348 105.935, 720.591 106.753, 721.101 106.438 C 722.513 105.565, 715.922 97.007, 712.510 95.281 C 710.854 94.444, 708.770 93.120, 707.877 92.340 C 706.153 90.831, 693.564 89.909, 684.500 90.627 M 543.538 122.593 C 536.200 127.237, 532.096 131.375, 532.036 134.191 C 531.979 136.867, 533.786 137.268, 535.072 134.865 C 536.761 131.709, 546.252 122.662, 549.358 121.247 C 550.811 120.585, 552 119.583, 552 119.021 C 552 117.444, 551.023 117.857, 543.538 122.593 M 747.250 118.662 C 744.793 119.654, 746.071 120.738, 750.396 121.331 C 757.589 122.317, 765.379 126.385, 771.275 132.233 C 774.287 135.221, 777.298 138.689, 777.968 139.940 C 778.870 141.625, 779.477 141.923, 780.310 141.090 C 781.792 139.608, 778.895 134.164, 773.873 128.988 C 767.005 121.911, 752.826 116.412, 747.250 118.662 M 800 169.638 C 800 170.252, 800.705 171.340, 801.566 172.055 C 802.427 172.770, 803.789 174.625, 804.592 176.177 C 806.347 179.571, 808.444 179.994, 807.435 176.750 C 807.050 175.512, 806.321 174.342, 805.815 174.149 C 805.308 173.956, 803.792 172.610, 802.447 171.159 C 801.101 169.708, 800 169.023, 800 169.638 M 643.865 176.820 C 642.966 177.194, 640.551 179.525, 638.498 182 C 634.433 186.899, 631.055 188.918, 620.769 192.594 C 611.618 195.865, 605.754 195.701, 595.900 191.901 C 591.480 190.197, 587.750 188.959, 587.610 189.151 C 587.470 189.343, 586.067 191.750, 584.491 194.500 C 580.948 200.684, 578.391 202.806, 570.605 206.023 C 564.877 208.390, 564.310 208.930, 561.419 214.778 C 557.574 222.558, 554.670 225.734, 549.250 228.085 C 546.913 229.099, 544.972 230.282, 544.939 230.714 C 544.905 231.147, 544.738 236, 544.568 241.500 C 544.244 251.990, 542.725 257.747, 538.928 262.883 C 537.266 265.131, 536.535 268.071, 535.885 275.121 C 534.905 285.739, 535.032 285.961, 542.112 285.985 C 545.780 285.997, 547.521 285.365, 550.612 282.903 C 555.962 278.640, 559.374 277, 562.891 277 C 564.536 277, 566.167 276.538, 566.516 275.973 C 566.865 275.409, 567.679 275.028, 568.325 275.127 C 568.971 275.226, 571.222 274.543, 573.326 273.608 C 576.355 272.264, 580.520 271.878, 593.326 271.759 C 608.327 271.619, 611.968 272.040, 619 274.725 C 619.825 275.040, 621.513 275.198, 622.750 275.077 C 623.987 274.956, 625 275.339, 625 275.928 C 625 276.518, 625.661 277, 626.469 277 C 629.067 277, 635.364 280.824, 640.423 285.474 C 644.094 288.849, 646.151 290, 648.507 290 C 650.245 290, 651.977 289.689, 652.357 289.310 C 653.539 288.128, 661.776 287.828, 662.465 288.943 C 662.824 289.524, 665.007 290, 667.316 290 C 669.624 290, 673.054 290.442, 674.936 290.982 C 677.960 291.849, 678.754 291.645, 681.737 289.232 C 690.844 281.868, 692.224 281.212, 699.979 280.556 C 704.116 280.207, 710.811 279.451, 714.857 278.876 C 720.640 278.054, 725.239 278.184, 736.357 279.482 C 751.954 281.304, 756.597 282.921, 764.139 289.162 C 771.241 295.038, 772 294.595, 772 284.572 C 772 279.937, 771.524 272.723, 770.942 268.540 C 770.361 264.357, 769.786 255.308, 769.665 248.430 L 769.445 235.925 764.539 231.485 C 761.840 229.043, 759.378 226.922, 759.066 226.772 C 757.028 225.793, 753.562 216.682, 753.067 211 L 752.500 204.500 742.500 204.427 C 730.809 204.342, 728.113 203.176, 718.811 194.184 C 714.478 189.994, 712.968 187.768, 712.473 184.842 C 711.715 180.355, 711.127 180.186, 707.327 183.363 C 699.771 189.681, 688.783 192.580, 675.531 191.754 C 665.780 191.145, 659.602 188.227, 651.815 180.550 C 647.064 175.866, 646.640 175.667, 643.865 176.820 M 809.100 183.250 C 809.155 183.938, 809.560 185.625, 810 187 C 810.715 189.231, 810.811 189.097, 810.900 185.750 C 810.955 183.688, 810.550 182, 810 182 C 809.450 182, 809.045 182.563, 809.100 183.250 M 935.500 221.213 C 931.210 222.721, 923.841 228.941, 924.198 230.753 C 924.512 232.345, 924.736 232.498, 931.781 235.920 C 937.396 238.648, 937.726 238.591, 939.395 234.596 C 940.776 231.291, 941.440 230.867, 947.250 229.574 C 950.388 228.876, 950.586 228.034, 948.543 224.084 C 946.552 220.233, 941.469 219.114, 935.500 221.213 M 954.596 238.750 C 950.557 244.880, 950.002 246.379, 950.014 251.113 C 950.021 254.076, 950.299 257.512, 950.630 258.750 C 951.520 262.070, 955.499 261.655, 959.311 257.843 C 966.322 250.832, 973.427 248.916, 976.443 253.223 C 979.215 257.180, 978.403 261.330, 973.750 266.992 C 961.368 282.059, 960 284.097, 960 287.484 C 960 289.929, 960.719 291.420, 962.618 292.914 C 965.057 294.833, 965.416 294.866, 967.868 293.404 C 969.316 292.541, 971.175 290.417, 972 288.684 C 973.947 284.593, 980.822 279.444, 985.510 278.564 C 993.770 277.014, 995.543 285.336, 988.591 293.030 C 986.616 295.217, 985.005 297.792, 985.011 298.753 C 985.038 302.982, 986.361 308, 987.449 308 C 989.519 308, 998.234 294.796, 999.634 289.539 C 1001.690 281.818, 1001.381 280.137, 997.034 275.421 C 992.384 270.377, 991.443 267.525, 993.086 263.461 C 993.744 261.832, 994.371 259.691, 994.478 258.701 C 994.724 256.436, 989.635 252.077, 985.865 251.323 C 982.357 250.621, 976.002 243.812, 975.995 240.747 C 975.992 239.511, 974.937 237.184, 973.650 235.575 C 971.628 233.049, 970.483 232.590, 965.250 232.212 L 959.192 231.773 954.596 238.750 M 594 244.059 C 576.514 247.102, 566.003 258.094, 573.455 265.545 C 576.345 268.436, 580.418 268.673, 589.500 266.480 C 597.161 264.630, 604.058 264.637, 611 266.500 C 620.002 268.916, 621.796 268.571, 626.671 263.482 C 631.097 258.863, 632.374 254.465, 629.599 253.399 C 628.828 253.104, 627.981 252.034, 627.716 251.023 C 627.452 250.012, 625.411 247.977, 623.181 246.501 C 619.613 244.140, 617.951 243.775, 609.313 243.460 C 603.916 243.263, 597.025 243.532, 594 244.059 M 903 245.599 C 898.861 247.108, 896.926 248.595, 893.980 252.527 C 892.210 254.889, 890.783 257.199, 890.810 257.661 C 890.836 258.122, 890.102 259.336, 889.179 260.357 C 886.632 263.174, 886.720 287.401, 889.292 291.324 C 890.277 292.827, 890.813 294.494, 890.483 295.028 C 890.152 295.563, 890.262 296, 890.726 296 C 892.013 296, 893.650 306.475, 892.838 309.512 C 892.047 312.471, 890.029 314.355, 885.500 316.364 C 883.850 317.096, 880.814 319.563, 878.753 321.847 C 876.692 324.131, 874.554 326, 874.003 326 C 873.451 326, 872.998 326.563, 872.996 327.250 C 872.994 327.938, 870.181 331.439, 866.746 335.031 C 863.311 338.623, 856.379 346.048, 851.342 351.531 C 846.305 357.014, 839.543 364.207, 836.316 367.515 C 833.089 370.823, 829.110 375.506, 827.474 377.923 C 823.608 383.635, 820.555 385.792, 814.844 386.847 C 809.675 387.801, 805.391 390.693, 803.367 394.594 C 802.239 396.767, 802.263 397.607, 803.517 400.032 C 804.333 401.610, 805 403.768, 805 404.828 C 805 405.888, 805.675 407.315, 806.500 408 C 807.325 408.685, 808 409.789, 808 410.453 C 808 411.117, 809.153 413.875, 810.561 416.581 C 811.970 419.286, 813.733 423.300, 814.478 425.500 C 815.224 427.700, 817.025 432.650, 818.482 436.500 C 819.939 440.350, 821.621 445.300, 822.219 447.500 C 822.818 449.700, 824.127 452.679, 825.129 454.119 C 826.131 455.560, 827.400 457.923, 827.950 459.369 C 828.500 460.816, 829.362 462, 829.866 462 C 831.674 462, 848.613 450.217, 853.994 445.216 C 857.016 442.408, 861.294 439.209, 863.500 438.107 C 867.826 435.946, 872 432.471, 872 431.028 C 872 430.537, 872.788 429.883, 873.750 429.575 C 876.687 428.634, 898 406.650, 898 404.561 C 898 403.602, 901.231 399.240, 915.500 380.930 C 919.892 375.294, 923.091 370.263, 925.496 365.206 C 926.358 363.395, 927.721 361.660, 928.526 361.352 C 929.330 361.043, 929.740 360.388, 929.435 359.895 C 929.131 359.403, 929.359 359, 929.941 359 C 930.523 359, 931 358.307, 931 357.460 C 931 356.612, 931.858 354.700, 932.907 353.210 C 933.955 351.719, 935.087 348.884, 935.422 346.910 C 936.358 341.387, 939.588 339.111, 949.585 336.926 C 954.422 335.869, 960.202 334.054, 962.430 332.893 C 966.642 330.698, 976.101 323.008, 981.794 317.153 C 985.021 313.833, 985.600 311.052, 982.875 311.956 C 982.119 312.208, 978.408 312.584, 974.630 312.793 C 964.901 313.332, 955.534 310.190, 947.883 303.823 C 941.326 298.366, 938.532 297.743, 937.583 301.525 C 937.234 302.914, 935.161 305.839, 932.975 308.025 C 929.926 311.074, 928.221 312, 925.655 312 C 918.602 312, 917.180 305.434, 922.526 297.556 C 923.887 295.551, 925 293.513, 925 293.026 C 925 292.539, 921.555 290.238, 917.344 287.914 C 913.133 285.589, 908.028 282.028, 906 280 C 899.878 273.878, 899.913 266.972, 906.077 264.823 C 907.685 264.263, 909 263.398, 909 262.902 C 909 261.022, 911.699 262.170, 917.480 266.511 C 924.924 272.099, 929.141 272.563, 931.474 268.050 C 933.559 264.017, 933.388 260.388, 931 258 C 929.900 256.900, 929.320 256, 929.711 256 C 930.103 256, 928.865 255.180, 926.961 254.178 C 925.058 253.175, 921.161 250.873, 918.302 249.061 C 913.277 245.875, 906.467 244.335, 903 245.599 M 713.527 248.956 C 713.202 249.482, 712.328 249.679, 711.584 249.394 C 709.892 248.745, 700.310 254.552, 698.984 257.030 C 697.199 260.366, 697.813 266.813, 700.138 269.138 C 702.138 271.138, 702.930 271.235, 712.388 270.626 C 720.019 270.136, 723.849 270.350, 728 271.501 C 731.025 272.339, 735.075 273.314, 737 273.667 C 738.925 274.020, 740.831 274.802, 741.235 275.405 C 741.740 276.159, 741.974 276.111, 741.985 275.250 C 741.993 274.563, 742.654 274, 743.453 274 C 746.937 274, 749.980 271.622, 750.579 268.432 C 751.229 264.967, 749.258 258, 747.628 258 C 747.094 258, 745.873 257.290, 744.914 256.422 C 743.955 255.554, 739.964 254.020, 736.046 253.012 C 732.127 252.004, 728.266 250.636, 727.466 249.971 C 726.665 249.307, 725.109 249, 724.006 249.288 C 722.904 249.576, 721.750 249.404, 721.442 248.906 C 720.697 247.700, 714.278 247.741, 713.527 248.956 M 258.417 279.893 C 256.765 280.897, 254.646 282.891, 253.707 284.324 C 251.874 287.122, 251.373 293, 252.969 293 C 253.501 293, 253.678 293.675, 253.362 294.500 C 253.045 295.325, 253.284 296, 253.893 296 C 254.502 296, 255 296.813, 255 297.806 C 255 298.799, 255.918 302.512, 257.040 306.056 C 258.163 309.600, 259.936 315.200, 260.981 318.500 C 262.026 321.800, 263.187 326.075, 263.559 328 C 263.932 329.925, 264.730 332.400, 265.333 333.500 C 265.936 334.600, 266.484 335.725, 266.551 336 C 267.588 340.256, 272.402 349.807, 274.741 352.250 C 278.325 355.993, 281.164 355.716, 285.958 351.155 C 290.247 347.074, 291.059 343.814, 288.812 339.684 C 288.158 338.483, 287.052 334.800, 286.353 331.500 C 284.356 322.071, 280.672 309.533, 279.790 309.165 C 279.349 308.980, 279.242 308.418, 279.553 307.915 C 279.864 307.412, 279.641 307, 279.059 307 C 278.477 307, 278.008 306.438, 278.017 305.750 C 278.033 304.575, 273.939 290.899, 271.707 284.673 C 269.816 279.398, 263.164 277.006, 258.417 279.893 M 614.496 292.007 C 614.153 292.561, 614.689 293.312, 615.687 293.675 C 618.050 294.537, 623 299.976, 623 301.711 C 623 302.455, 623.653 303.313, 624.452 303.620 C 625.250 303.926, 626.418 305.735, 627.046 307.640 C 628.334 311.543, 630.400 311.674, 630.400 307.854 C 630.400 304.090, 625.328 296.860, 620.505 293.750 C 615.748 290.682, 615.380 290.576, 614.496 292.007 M 742 299.312 C 742 300.675, 746.308 308.073, 747.485 308.732 C 748.303 309.189, 750.318 311.687, 751.964 314.282 C 755.384 319.675, 757 320.267, 757 316.126 C 757 310.130, 748.502 299, 743.923 299 C 742.865 299, 742 299.140, 742 299.312 M 489.821 306.031 C 487.798 307.100, 485.833 308.993, 485.453 310.237 C 485.074 311.482, 484.029 313.334, 483.132 314.354 C 481.781 315.889, 481.500 318.735, 481.500 330.854 C 481.500 344.491, 481.672 345.841, 484 350.444 C 489.966 362.243, 506.527 372.946, 510.777 367.750 C 511.340 367.063, 511.739 363.575, 511.664 360 C 511.589 356.425, 511.965 352.825, 512.499 352 C 513.033 351.175, 513.515 350.275, 513.571 350 C 513.627 349.725, 514.021 348.709, 514.446 347.742 C 514.927 346.650, 514.611 345.055, 513.610 343.527 C 511.498 340.305, 511.558 333.557, 513.730 329.880 C 515.137 327.498, 515.229 326.630, 514.224 325.226 C 512.290 322.526, 510.239 317.906, 508.810 313.030 C 506.418 304.869, 497.939 301.744, 489.821 306.031 M 537.121 307.002 C 535.262 307.441, 533.357 308.408, 532.886 309.150 C 531.474 311.379, 531.891 324.182, 533.566 330.032 C 534.427 333.039, 535.379 338.058, 535.681 341.184 C 536.091 345.424, 536.837 347.438, 538.615 349.108 C 540.466 350.847, 541 352.391, 541 356.007 C 541 360.239, 541.366 360.959, 545 363.880 C 547.200 365.648, 549 367.873, 549 368.825 C 549 371.870, 551.964 374.924, 557.303 377.383 C 560.618 378.909, 563.586 381.255, 565.500 383.864 C 568.177 387.512, 568.952 387.955, 572.699 387.976 C 576.308 387.997, 577.272 388.491, 579.563 391.494 C 582.022 394.717, 582.530 394.939, 586.139 394.362 C 589.086 393.891, 590.523 394.163, 591.963 395.466 C 594.583 397.837, 595.463 396.978, 596.874 390.673 C 597.541 387.694, 599.359 383.249, 600.914 380.797 C 603.663 376.462, 613.825 366.823, 615.169 367.275 C 615.538 367.399, 616.994 366.415, 618.407 365.088 C 620.459 363.160, 622.439 362.556, 628.273 362.079 C 633.694 361.635, 636.305 360.905, 638.421 359.241 C 642.289 356.198, 647.687 356.298, 652.405 359.500 C 657.096 362.683, 664.345 362.895, 669.500 360 C 671.458 358.900, 674.682 358, 676.662 358 C 680.491 358, 686.425 361.059, 687.369 363.520 C 687.682 364.334, 688.825 365, 689.910 365 C 690.994 365, 692.165 365.457, 692.510 366.016 C 692.856 366.575, 693.528 366.792, 694.005 366.497 C 695.222 365.745, 701.882 369.594, 705.745 373.284 C 711.314 378.602, 713.832 384.693, 714.362 394.128 C 714.621 398.733, 714.870 402.621, 714.916 402.769 C 715.135 403.473, 720.695 401.562, 722.183 400.271 C 723.268 399.330, 724.872 399.033, 726.698 399.434 C 729.165 399.976, 730.018 399.472, 733.315 395.528 C 736.124 392.167, 737.810 391, 739.857 391 C 741.968 391, 743.323 389.996, 745.632 386.719 C 747.873 383.541, 749.651 382.189, 752.536 381.469 C 755.981 380.610, 756.563 380.012, 757.662 376.200 C 758.853 372.071, 762.244 368.103, 764.643 368.033 C 766.265 367.986, 766.998 365.554, 767.013 360.168 C 767.020 357.601, 767.920 352.647, 769.013 349.161 C 770.968 342.924, 771.740 332, 770.226 332 C 769.801 332, 767.969 334.920, 766.156 338.490 C 764.343 342.059, 762.255 345.321, 761.515 345.740 C 760.776 346.158, 758.206 348.300, 755.803 350.500 C 743.312 361.939, 729.253 365.896, 712.427 362.707 C 699.418 360.241, 694.635 357.407, 685.900 346.987 C 678.470 338.125, 675.772 331.247, 675.209 319.735 C 674.643 308.163, 675.111 308.510, 660.016 308.504 L 650.532 308.500 648.856 312 C 647.934 313.925, 646.875 317.525, 646.502 320 C 646.129 322.475, 644.855 326.075, 643.669 328 C 641.363 331.745, 639.199 335.533, 636.383 340.750 C 635.419 342.538, 634.372 344, 634.058 344 C 633.743 344, 631.014 346.042, 627.993 348.537 C 624.972 351.033, 619.622 354.502, 616.103 356.247 C 610.198 359.175, 608.777 359.449, 597.603 359.814 C 578.935 360.424, 570.013 357.012, 557.782 344.587 C 549.875 336.553, 544.421 323.494, 545.267 314.616 C 545.634 310.763, 545.338 309.338, 543.866 307.866 C 541.831 305.831, 541.995 305.852, 537.121 307.002 M 791.674 309.750 C 791.430 310.163, 790.912 312.428, 790.522 314.784 C 790.132 317.140, 789.111 320.476, 788.252 322.196 C 786.443 325.822, 786.290 331.288, 787.885 335.315 C 789.340 338.988, 789.306 344.568, 787.814 347.316 C 786.450 349.826, 786.258 352.990, 787.361 354.776 C 789.262 357.851, 799.617 339.814, 799.090 334.346 C 798.975 333.161, 799.358 331.896, 799.941 331.536 C 801.301 330.696, 801.328 321.321, 799.973 320.484 C 799.409 320.135, 799.030 319.321, 799.131 318.675 C 799.408 316.910, 797.949 313.774, 795.677 311.250 C 793.567 308.906, 792.426 308.479, 791.674 309.750 M 168.566 338.076 C 161.047 344.678, 163.097 352.305, 174.449 359.965 C 178.544 362.729, 182.256 365.559, 182.698 366.255 C 183.139 366.950, 185.525 368.832, 188 370.436 C 190.475 372.040, 194.975 375.281, 198 377.639 C 201.025 379.997, 206.962 384.628, 211.193 387.930 C 220.866 395.478, 222.477 395.918, 227.220 392.301 C 231.397 389.116, 233.485 385.104, 232.531 382.097 C 232.173 380.969, 227.744 376.577, 222.690 372.336 C 217.635 368.095, 213.275 364.362, 213 364.040 C 212.498 363.453, 197.309 350.886, 190.913 345.768 C 189.036 344.266, 186.938 343.028, 186.250 343.018 C 185.563 343.008, 184.990 342.438, 184.979 341.750 C 184.946 339.845, 177.515 335, 174.625 335 C 173.198 335, 170.523 336.358, 168.566 338.076 M 653.605 387.161 C 652.434 387.841, 649.245 388.032, 645.264 387.660 L 638.819 387.058 642.911 391.029 L 647.002 395 656.936 395 C 666.844 395, 672 393.977, 672 392.012 C 672 390.584, 661.352 385.993, 658.126 386.030 C 656.682 386.047, 654.647 386.556, 653.605 387.161 M 620.735 391.250 C 617.928 394.309, 617.754 394.980, 617.781 402.648 C 617.826 415.405, 620.679 419.972, 629.799 421.887 C 637.779 423.563, 638.878 423.379, 639.574 420.250 C 640.833 414.593, 641.210 413.943, 644.104 412.446 C 647.842 410.513, 647.176 409.410, 641.762 408.566 C 636.716 407.780, 634.566 406.652, 629.424 402.098 C 625.790 398.878, 625.595 398.408, 625.807 393.348 C 626.071 387.031, 625.009 386.592, 620.735 391.250 M 690.602 394.308 C 689.925 397.916, 683.683 405.079, 679.191 407.401 C 677.673 408.186, 674.754 409.143, 672.704 409.528 C 668.556 410.306, 667.063 411.703, 669.415 412.606 C 670.366 412.971, 671.204 415.053, 671.599 418.038 C 672.309 423.385, 673.474 424.330, 677.677 422.964 C 679.230 422.460, 682.211 421.787, 684.303 421.468 C 686.599 421.119, 688.341 420.219, 688.702 419.195 C 689.030 418.263, 690.055 416.600, 690.980 415.500 C 697.144 408.172, 698.605 400.333, 694.918 394.368 C 692.307 390.142, 691.386 390.130, 690.602 394.308 M 140.901 437 C 137.284 437.754, 132.322 440.718, 131.621 442.545 C 129.542 447.963, 131.756 452.374, 138.369 455.986 C 141.751 457.833, 143.726 458.079, 154.032 457.937 C 160.519 457.848, 166.225 458.021, 166.713 458.322 C 167.200 458.624, 174.436 458.990, 182.793 459.137 L 197.988 459.404 201.494 456.006 C 206.698 450.962, 206.086 446.069, 199.763 442.163 C 197.036 440.479, 193.459 439.954, 178 438.967 C 167.825 438.317, 155.855 437.496, 151.401 437.143 C 146.946 436.789, 142.221 436.725, 140.901 437 M 587 461.623 C 587 464.629, 599.682 475.571, 607.799 479.569 C 612.035 481.654, 615.725 483.431, 616 483.517 C 616.275 483.603, 617.175 483.929, 618 484.242 C 626.414 487.432, 631.739 488.378, 643.500 488.771 C 658.618 489.277, 663.681 488.007, 673.707 481.199 C 679.635 477.174, 686 470.823, 686 468.934 C 686 466.570, 682.728 466.886, 679.984 469.515 C 677.400 471.991, 676.052 472.377, 667.469 473.101 C 662.179 473.548, 657.075 474.159, 656.127 474.460 C 655.179 474.760, 647.568 474.603, 639.214 474.109 C 626.206 473.340, 623.483 472.887, 620.262 470.955 C 618.193 469.714, 612.992 468.125, 608.705 467.423 C 604.418 466.721, 597.955 464.764, 594.343 463.073 C 586.663 459.479, 587 459.546, 587 461.623 M 401.500 516.084 C 394.502 521.239, 380.089 533.470, 380.043 534.292 C 380.020 534.727, 379.056 536.077, 377.902 537.292 C 372.902 542.553, 366.321 554.106, 361.546 566 C 360.111 569.575, 358.330 573.625, 357.588 575 C 354.924 579.936, 346 613.335, 346 618.370 C 346 619.633, 345.697 620.970, 345.326 621.341 C 344.956 621.711, 344.762 624.711, 344.897 628.007 C 345.040 631.512, 344.725 634, 344.138 634 C 343.586 634, 342.829 635.013, 342.455 636.250 C 342.081 637.487, 340.009 641.329, 337.849 644.787 C 334.539 650.087, 332.086 654.837, 331.542 657 C 331.473 657.275, 330.700 658.850, 329.825 660.500 C 327.605 664.688, 326.803 672.332, 327.773 680.059 C 328.481 685.695, 329.224 687.413, 333.048 692.254 C 337.872 698.359, 339.707 699.086, 342.500 696 C 344.331 693.977, 347.553 693.419, 349.638 694.765 C 350.264 695.169, 352.064 697.674, 353.638 700.331 C 357.047 706.084, 361.556 709.330, 362.969 707.047 C 363.464 706.248, 363.638 704.438, 363.355 703.024 C 362.307 697.785, 370.555 694.477, 374.888 698.399 C 375.941 699.351, 377.078 701.604, 377.416 703.405 C 378.761 710.574, 386.889 713.685, 394.565 709.968 C 399.851 707.410, 400.382 704.766, 396.061 702.531 C 392.194 700.532, 389.998 697.264, 390.010 693.527 C 390.032 686.676, 398.106 675.084, 403.813 673.711 C 405.085 673.405, 407.612 673.775, 409.428 674.534 C 412.175 675.682, 412.839 676.594, 413.377 679.957 C 413.867 683.019, 414.480 684, 415.905 684 C 419.322 684, 420.002 676.989, 417.572 666.824 C 416.360 661.756, 411.841 654, 410.100 654 C 409.735 654, 407.089 651.760, 404.219 649.022 C 397.166 642.296, 397.191 639.908, 404.470 624.830 C 414.074 604.934, 425.011 584.568, 427.290 582.334 C 428.506 581.143, 432.425 578.607, 436 576.698 C 442.721 573.110, 444.437 570.437, 441.946 567.435 C 440.263 565.407, 436.544 558.760, 432.469 550.500 C 428.710 542.879, 426.389 538.727, 423.436 534.340 C 420.347 529.751, 419.149 527.703, 417.457 524.115 C 415.659 520.304, 412.010 514.875, 410.500 513.765 C 408.582 512.356, 405.472 513.158, 401.500 516.084 M 873 530.340 C 870.525 531.566, 867.375 533.213, 866 534 C 864.625 534.786, 863.275 535.455, 863 535.486 C 862.725 535.517, 860.025 536.741, 857 538.206 C 853.975 539.671, 849.250 541.832, 846.500 543.007 C 843.750 544.183, 840.375 545.803, 839 546.606 C 837.625 547.409, 833.575 549.442, 830 551.122 C 820.513 555.582, 812.184 559.807, 806.500 563.041 C 803.750 564.606, 800.825 566.174, 800 566.525 C 794.481 568.872, 792.881 569.807, 781.476 577.347 C 778.276 579.463, 774.947 581.467, 774.079 581.800 C 771.254 582.883, 764 588.117, 764 589.071 C 764 589.582, 763.438 590.010, 762.750 590.022 C 761.355 590.048, 750.308 597.509, 738.726 606.250 C 734.535 609.413, 730.681 612, 730.160 612 C 729.640 612, 728.969 612.639, 728.669 613.421 C 728.369 614.202, 725.283 616.749, 721.812 619.080 C 718.340 621.411, 713.438 625.159, 710.918 627.409 C 704.509 633.132, 695.416 641.050, 682 652.591 C 659.576 671.881, 609.131 723.250, 598.260 737.864 C 596.364 740.414, 594.060 743.175, 593.141 744 C 592.221 744.825, 589.318 748.200, 586.689 751.500 C 584.060 754.800, 579.792 759.915, 577.205 762.867 C 574.617 765.818, 572.194 769.035, 571.820 770.014 C 571.446 770.994, 570.659 772.093, 570.070 772.457 C 569.482 772.820, 569 774.201, 569 775.525 C 569 776.848, 567.746 779.214, 566.213 780.782 C 561.208 785.902, 542 809.818, 542 810.929 C 542 811.525, 540.863 813.002, 539.474 814.210 C 538.085 815.417, 535.512 818.677, 533.757 821.453 C 532.002 824.229, 530.281 826.725, 529.933 827 C 529.584 827.275, 528.726 828.588, 528.025 829.917 C 527.324 831.247, 524.894 834.697, 522.625 837.586 C 517.843 843.674, 511.006 853.340, 503.943 864 C 501.210 868.125, 496.728 874.650, 493.983 878.500 C 485.797 889.982, 479 900.122, 479 900.852 C 479 901.228, 477.827 903.262, 476.394 905.372 L 473.787 909.207 477.682 913.354 C 479.824 915.634, 484.010 920.425, 486.984 924 C 495.162 933.831, 514.340 953.043, 515.689 952.754 C 516.342 952.614, 522.040 947.438, 528.350 941.250 C 534.660 935.063, 540.200 929.988, 540.661 929.974 C 541.123 929.960, 543.695 927.710, 546.378 924.974 C 549.060 922.238, 551.657 920, 552.147 920 C 552.638 920, 555.618 917.551, 558.769 914.558 C 561.921 911.565, 566.525 907.500, 569 905.525 C 571.475 903.550, 574.686 900.936, 576.136 899.717 C 577.585 898.498, 579.835 896.710, 581.136 895.745 C 582.436 894.781, 587.325 890.941, 592 887.213 C 601.507 879.633, 605.223 877.067, 609.250 875.302 C 610.763 874.639, 612 873.638, 612 873.079 C 612 872.519, 616.740 869.797, 622.533 867.030 C 636.093 860.554, 641.395 860.195, 646.600 865.400 C 649.574 868.374, 650 869.436, 650 873.881 C 650 879.156, 649.209 880.714, 639.538 894.500 C 637.609 897.250, 636.024 899.988, 636.015 900.584 C 636.007 901.180, 634.200 903.617, 632 906 C 629.800 908.383, 628 910.530, 628 910.772 C 628 914.088, 580.898 961.339, 567.077 971.888 C 565.195 973.324, 561.820 976.217, 559.577 978.316 C 557.335 980.415, 554.712 982.856, 553.750 983.741 C 552.788 984.626, 552 985.683, 552 986.090 C 552 987.126, 564.505 998, 565.696 998 C 566.232 998, 568.724 1000.025, 571.235 1002.500 C 573.745 1004.975, 576.106 1007, 576.481 1007 C 576.857 1007, 579.093 1008.581, 581.450 1010.513 C 583.808 1012.445, 587.676 1015.328, 590.045 1016.919 L 594.352 1019.811 606.926 1013.481 C 613.842 1010, 620.625 1006.670, 622 1006.082 C 623.375 1005.494, 626.750 1003.701, 629.500 1002.098 C 633.776 999.606, 639.734 996.559, 649.750 991.744 C 650.987 991.149, 652 990.337, 652 989.939 C 652 989.542, 653.202 988.915, 654.671 988.546 C 656.140 988.178, 658.451 987.004, 659.806 985.938 C 661.161 984.872, 662.829 984, 663.512 984 C 664.196 984, 665.313 983.328, 665.994 982.507 C 666.675 981.686, 668.981 980.544, 671.116 979.969 C 673.252 979.393, 675 978.465, 675 977.905 C 675 977.345, 676.913 975.975, 679.250 974.860 C 681.587 973.744, 685.300 971.755, 687.500 970.440 C 689.700 969.124, 692.623 967.556, 693.996 966.955 C 695.368 966.354, 697.843 964.833, 699.496 963.575 C 701.148 962.317, 703.404 961.002, 704.509 960.653 C 705.614 960.304, 708.916 958.439, 711.846 956.509 C 714.777 954.579, 717.507 953, 717.913 953 C 718.319 953, 719.708 951.875, 721 950.500 C 722.292 949.125, 723.786 948, 724.321 948 C 724.856 948, 727.666 946.425, 730.566 944.500 C 733.466 942.575, 736.325 941, 736.919 941 C 737.514 941, 738 940.630, 738 940.178 C 738 939.156, 745.755 934.008, 747.340 933.978 C 747.978 933.966, 749.625 933.076, 751 932 C 752.375 930.924, 753.888 930.034, 754.363 930.022 C 754.837 930.010, 756.637 928.846, 758.363 927.435 C 761.829 924.601, 774.853 916, 775.679 916 C 775.966 916, 778.255 913.975, 780.765 911.500 C 783.276 909.025, 785.901 907, 786.599 907 C 787.296 907, 790.583 904.862, 793.902 902.250 C 797.222 899.638, 802.986 895.250, 806.712 892.500 C 810.438 889.750, 816.674 884.913, 820.569 881.750 C 824.465 878.587, 828.025 876, 828.480 876 C 828.935 876, 830.849 874.200, 832.732 872 C 834.615 869.800, 836.726 868, 837.422 868 C 838.119 868, 841.191 865.577, 844.248 862.615 C 847.306 859.654, 850.253 857.066, 850.798 856.865 C 856.584 854.730, 939.828 771.708, 939.977 767.923 C 939.990 767.606, 942.046 765.131, 944.546 762.423 C 947.047 759.715, 950.309 755.588, 951.796 753.252 C 953.283 750.915, 955.072 749.003, 955.771 749.002 C 956.471 749.001, 957.590 747.763, 958.260 746.250 C 958.929 744.737, 959.932 742.964, 960.488 742.310 C 961.045 741.655, 962.540 739.630, 963.812 737.810 C 965.084 735.989, 969.491 730, 973.605 724.500 C 977.720 719, 981.855 713.431, 982.793 712.124 C 983.732 710.818, 985.418 708.568, 986.539 707.124 C 987.660 705.681, 989.145 703.375, 989.838 702 C 993.040 695.646, 994.384 693.356, 996 691.500 C 997.752 689.488, 998.661 687.896, 1003.565 678.250 C 1005.033 675.362, 1006.658 673, 1007.176 673 C 1007.694 673, 1007.840 672.550, 1007.500 672 C 1007.160 671.450, 1007.359 671, 1007.941 671 C 1008.523 671, 1009 670.380, 1009 669.622 C 1009 668.865, 1009.698 667.666, 1010.551 666.958 C 1011.492 666.177, 1011.984 664.466, 1011.801 662.611 C 1011.552 660.084, 1010.891 659.370, 1008 658.506 C 1003.784 657.246, 996.169 653.355, 993.743 651.222 C 992.777 650.373, 991.118 649.188, 990.057 648.589 C 981.358 643.679, 976.387 640.558, 975.765 639.615 C 975.361 639.002, 975.024 638.898, 975.015 639.385 C 975.007 639.872, 974.067 639.084, 972.927 637.635 C 971.788 636.186, 970.407 635, 969.861 635 C 969.009 635, 964.523 631.959, 960.271 628.500 C 959.595 627.950, 956.776 625.700, 954.006 623.500 C 941.128 613.270, 912.739 581.945, 908.136 572.886 C 907.405 571.448, 905.838 569.197, 904.654 567.882 C 903.469 566.568, 901.412 563.469, 900.082 560.996 C 898.751 558.523, 896.839 555.427, 895.832 554.115 C 894.824 552.803, 894 551.257, 894 550.680 C 894 550.102, 893.138 548.700, 892.085 547.564 C 891.031 546.429, 888.646 541.675, 886.783 537 C 883.659 529.157, 883.170 528.485, 880.449 528.305 C 878.827 528.197, 875.475 529.113, 873 530.340 M 796.915 632.418 C 796.685 632.648, 792.790 633.344, 788.260 633.964 C 783.730 634.585, 778.331 635.792, 776.262 636.647 C 768.349 639.917, 757.336 645.431, 753.457 648.066 C 744.977 653.825, 725 676.065, 725 679.747 C 725 680.436, 724.550 681, 724 681 C 723.450 681, 723 681.675, 723 682.500 C 723 683.325, 722.523 684, 721.941 684 C 721.359 684, 721.160 684.450, 721.500 685 C 721.840 685.550, 721.641 686, 721.059 686 C 720.477 686, 720 686.810, 720 687.800 C 720 688.790, 719.573 690.028, 719.050 690.550 C 714.755 694.845, 710.994 722.394, 712.990 734.943 C 715.123 748.357, 719.103 760.955, 721.219 760.989 C 721.614 760.995, 721.700 761.617, 721.411 762.371 C 721.122 763.125, 721.572 764.005, 722.411 764.327 C 723.250 764.649, 724.610 766.523, 725.432 768.492 C 727.248 772.838, 742.653 788.477, 747.215 790.605 C 753.100 793.351, 756.468 795.237, 758.248 796.786 C 760.742 798.955, 769.003 801.692, 780 803.993 C 791.530 806.406, 807.137 806.612, 816.688 804.478 C 826.491 802.287, 839.885 797.996, 840.617 796.811 C 840.962 796.253, 842.652 795.136, 844.372 794.329 C 852.705 790.420, 856.520 787.999, 863.745 782.037 C 872.427 774.873, 879.151 767.310, 882.634 760.793 C 885.461 755.501, 890.327 744.855, 890.538 743.500 C 890.623 742.950, 890.953 741.825, 891.271 741 C 894.456 732.724, 896.374 718.352, 895.606 708.500 C 894.913 699.597, 891.943 686.003, 890.691 686.001 C 890.246 686, 890.162 685.547, 890.504 684.993 C 890.846 684.439, 890.257 682.752, 889.194 681.243 C 888.132 679.734, 886.970 677.558, 886.614 676.407 C 884.758 670.422, 868.668 652.649, 859.510 646.469 C 848.437 638.998, 839.848 635.555, 827 633.436 C 819.215 632.153, 797.902 631.432, 796.915 632.418 M 796.500 658.988 C 794.850 659.478, 790.367 660.775, 786.538 661.869 C 782.709 662.963, 779.060 664.566, 778.428 665.429 C 777.796 666.293, 776.654 667.008, 775.890 667.017 C 771.213 667.074, 753.905 681.674, 749.855 688.979 C 748.781 690.915, 747.263 693.625, 746.481 695 C 738.684 708.720, 737.697 736.074, 744.540 748.785 C 752.264 763.132, 761.603 770.974, 777.772 776.691 C 784.848 779.194, 786.765 779.427, 800.500 779.462 C 812.052 779.491, 816.534 779.120, 820 777.845 C 822.475 776.935, 825.823 775.892, 827.439 775.528 C 829.055 775.165, 831.600 773.997, 833.093 772.934 C 834.587 771.870, 836.310 771, 836.922 771 C 837.535 771, 842.233 766.837, 847.363 761.750 C 856.282 752.905, 862.971 743.490, 862.991 739.750 C 862.996 738.788, 863.477 738, 864.059 738 C 864.641 738, 864.840 737.550, 864.500 737 C 864.160 736.450, 864.303 736, 864.817 736 C 865.331 736, 866.535 731.966, 867.493 727.035 C 869.027 719.139, 869.086 716.845, 867.987 707.785 C 867.052 700.073, 866.147 696.611, 864.370 693.946 C 863.067 691.992, 862 690.013, 862 689.550 C 862 685.757, 847.603 670.076, 842.119 667.897 C 840.810 667.376, 838.560 666.141, 837.119 665.153 C 829.922 660.215, 805.067 656.442, 796.500 658.988 M 418.421 1003.979 C 417.883 1004.517, 413.246 1006.778, 408.117 1009.002 C 402.989 1011.227, 396.766 1014.499, 394.288 1016.273 C 391.811 1018.048, 389.045 1019.959, 388.142 1020.520 C 380.453 1025.299, 376.951 1028.002, 370.470 1034.159 C 366.361 1038.061, 363 1041.695, 363 1042.233 C 363 1043.076, 361.601 1045.048, 356.985 1050.708 C 356.443 1051.372, 356 1053.277, 356 1054.940 C 356 1058.575, 363.479 1067, 366.706 1067 C 371.345 1067, 371.021 1069.328, 365.450 1076.014 C 362.478 1079.581, 360.036 1082.814, 360.023 1083.198 C 360.010 1083.583, 358.816 1085.158, 357.369 1086.698 C 355.922 1088.239, 354.222 1090.625, 353.593 1092 C 352.964 1093.375, 349.895 1098.399, 346.773 1103.165 C 342.051 1110.374, 338 1117.974, 338 1119.622 C 338 1119.830, 342.200 1120, 347.334 1120 L 356.668 1120 360.211 1114.750 C 362.160 1111.862, 364.979 1107.360, 366.475 1104.745 C 367.972 1102.129, 369.724 1099.654, 370.369 1099.245 C 371.014 1098.835, 372.085 1097.375, 372.748 1096 C 373.411 1094.625, 376.429 1090.125, 379.454 1086 C 389.325 1072.541, 393.483 1066.772, 394.500 1065.122 C 395.050 1064.230, 395.895 1063.213, 396.378 1062.862 C 396.861 1062.511, 396.947 1061.723, 396.569 1061.112 C 396.191 1060.500, 396.359 1060, 396.941 1060 C 399.229 1060, 397.857 1054.990, 394.632 1051.571 C 391.991 1048.771, 390.492 1048, 387.691 1048 C 385.726 1048, 383.876 1047.608, 383.580 1047.130 C 383.002 1046.195, 391.648 1037.823, 395.971 1035.132 C 404.254 1029.974, 406 1028.715, 406 1027.901 C 406 1027.406, 406.509 1027, 407.131 1027 C 409.214 1027, 425.967 1016.885, 427.493 1014.706 C 429.912 1011.253, 429.330 1008.353, 425.656 1005.551 C 422.102 1002.841, 420.013 1002.387, 418.421 1003.979 M 473.582 1069.114 C 472.104 1070.277, 469.179 1073.539, 467.083 1076.364 C 462.951 1081.931, 446.649 1098.655, 440.630 1103.500 C 438.581 1105.150, 435.349 1107.785, 433.449 1109.356 C 428.174 1113.717, 427.093 1112.593, 427.645 1103.316 C 428.189 1094.164, 426.972 1090.997, 422.407 1089.688 C 419.748 1088.925, 418.567 1089.321, 413.549 1092.654 C 403.926 1099.046, 399.399 1101.739, 396.989 1102.503 C 395.728 1102.904, 392.402 1104.605, 389.598 1106.284 C 382.091 1110.779, 375.078 1114.261, 370.072 1115.980 C 367.637 1116.816, 365.462 1118.063, 365.239 1118.750 C 364.924 1119.720, 369 1120, 383.417 1120 C 393.637 1120, 402 1119.622, 402 1119.161 C 402 1118.699, 403.082 1117.828, 404.404 1117.226 C 406.391 1116.320, 407.112 1116.466, 408.559 1118.065 C 410.174 1119.850, 411.796 1120, 429.505 1120 L 448.700 1120 462.609 1106.250 C 470.259 1098.688, 478.213 1089.932, 480.283 1086.794 C 482.354 1083.656, 484.488 1080.817, 485.024 1080.485 C 485.561 1080.153, 486 1077.869, 486 1075.410 C 486 1072.062, 485.560 1070.775, 484.250 1070.294 C 483.288 1069.940, 482.140 1069.054, 481.700 1068.325 C 480.506 1066.346, 476.621 1066.724, 473.582 1069.114" stroke="none" fill="#171916" fill-rule="evenodd"/>
</svg>