<svg role="img" aria-labelledby="artwork-title" shape-rendering="geometricPrecision" xmlns="http://www.w3.org/2000/svg" width="1200" height="1200" viewBox="0 0 1200 1200" version="1.1">
	<title id="artwork-title">Mascot polishing a project with a cloth</title>
	<path d="M 350 217.860 C 350 218.333, 347.491 218.979, 344.425 219.296 C 338.956 219.860, 331.866 222.219, 323.077 226.397 C 316.992 229.291, 303.119 243.196, 299.031 250.500 C 294.938 257.813, 295.051 257.674, 294.196 256.434 C 293.027 254.739, 274.700 251.648, 269.882 252.333 C 251.534 254.941, 237.197 261.943, 227.567 273 C 224.933 276.025, 222.253 278.950, 221.612 279.500 C 219.525 281.291, 213.262 294.397, 212.532 298.500 C 212.141 300.700, 211.396 303.015, 210.875 303.645 C 210.355 304.274, 210.017 305.174, 210.124 305.645 C 210.230 306.115, 209.971 307.293, 209.547 308.263 C 209.123 309.232, 209.239 310.584, 209.805 311.266 C 211.204 312.950, 208.917 316, 206.255 316 C 199.978 316, 187.398 321.410, 179.279 327.600 C 170.521 334.277, 161 346.312, 161 350.706 C 161 351.723, 160.221 353.668, 159.268 355.027 C 158.316 356.387, 157.672 357.500, 157.838 357.500 C 158.005 357.500, 157.620 358.850, 156.984 360.500 C 155.510 364.324, 156.045 385.144, 157.667 387.099 C 158.307 387.870, 158.888 388.829, 158.958 389.232 C 159.029 389.634, 159.742 391.532, 160.543 393.450 C 162.556 398.267, 162.507 398.430, 157.978 402.017 C 151.775 406.931, 144.949 417.217, 142.836 424.835 C 140.430 433.511, 140.446 445.629, 142.874 453.612 C 144.609 459.316, 150.508 468.687, 154.394 471.912 C 155.329 472.688, 156.992 474.585, 158.091 476.128 C 160.010 478.823, 160.020 479.040, 158.342 481.600 C 157.009 483.635, 156.589 486.427, 156.567 493.383 C 156.539 502.133, 156.688 502.756, 160.269 508.846 C 162.321 512.336, 164 515.609, 164 516.118 C 164 516.628, 165.848 519.050, 168.107 521.501 L 172.215 525.956 169.546 529.127 C 165.715 533.681, 161.363 542.768, 160.509 548 C 160.105 550.475, 159.336 553.043, 158.801 553.706 C 158.266 554.370, 158.099 555.351, 158.430 555.887 C 158.762 556.423, 158.575 557.144, 158.016 557.490 C 156.639 558.341, 156.679 573, 158.059 573 C 158.641 573, 158.813 573.493, 158.441 574.095 C 158.069 574.698, 158.218 576.160, 158.772 577.345 C 159.326 578.530, 160.283 581.914, 160.899 584.865 C 164.568 602.452, 180.747 622.723, 198.270 631.687 C 208.453 636.896, 214.588 638.301, 224.154 637.613 C 228.744 637.282, 234.273 636.897, 236.439 636.756 L 240.379 636.500 242.644 642.799 C 243.890 646.263, 246.270 650.815, 247.933 652.915 C 249.596 655.015, 251.835 658.782, 252.909 661.287 C 253.999 663.831, 257.988 669.069, 261.947 673.156 C 265.845 677.179, 268.835 680.989, 268.592 681.622 C 268.324 682.318, 264.068 683.061, 257.825 683.500 C 252.146 683.899, 247.056 684.492, 246.514 684.818 C 245.972 685.143, 244.037 685.281, 242.214 685.124 C 240.391 684.967, 238.350 685.294, 237.679 685.852 C 237.007 686.409, 232.192 687.750, 226.979 688.831 C 210.564 692.235, 200.356 695.350, 191 699.811 C 188.525 700.991, 185.962 701.966, 185.304 701.978 C 183.584 702.010, 172.609 708.562, 164.860 714.183 C 161.208 716.832, 157.802 719, 157.290 719 C 156.135 719, 136 736.788, 136 737.809 C 136 738.216, 133.525 741.167, 130.500 744.366 C 127.475 747.565, 125 750.633, 125 751.185 C 125 751.737, 123.056 754.744, 120.680 757.868 C 116.197 763.763, 109 775.502, 109 776.919 C 109 777.365, 108.178 778.803, 107.172 780.115 C 105.231 782.649, 98.114 800.467, 96.035 808 C 95.352 810.475, 94.326 813.073, 93.754 813.774 C 93.183 814.475, 93 815.334, 93.349 815.682 C 93.697 816.031, 93.592 816.807, 93.114 817.408 C 90.930 820.153, 86.084 845.331, 83.890 865.333 C 82.982 873.610, 82.231 877, 81.305 877 C 80.277 877, 80 881.038, 80 896 C 80 911.499, 80.255 915, 81.382 915 C 82.397 915, 82.956 917.322, 83.489 923.750 C 84.516 936.133, 87.690 941.141, 95.533 942.760 L 99.500 943.578 100.396 950.850 C 101.094 956.519, 100.909 960.150, 99.557 967.333 C 98.604 972.400, 97.976 977.885, 98.162 979.523 L 98.500 982.500 112.105 982.777 C 123.324 983.006, 125.932 982.787, 126.977 981.527 C 127.863 980.460, 127.933 979.624, 127.211 978.750 C 126.186 977.511, 125.350 973.935, 122.477 958.500 C 121.658 954.100, 120.697 949.825, 120.340 949 C 119.984 948.175, 119.795 946.686, 119.919 945.690 C 120.044 944.695, 119.722 943.345, 119.203 942.690 C 118.077 941.269, 116.979 928.590, 117.874 927.349 C 118.218 926.872, 120.300 925.590, 122.500 924.501 C 124.700 923.412, 127.400 921.756, 128.500 920.821 C 129.600 919.886, 130.850 919.119, 131.278 919.117 C 131.706 919.114, 133.956 918.222, 136.278 917.135 C 140.281 915.259, 146.983 913.128, 160.500 909.431 C 163.800 908.529, 167.175 907.546, 168 907.247 C 168.825 906.947, 170.536 906.805, 171.803 906.930 C 173.070 907.055, 174.705 906.660, 175.437 906.052 C 177.362 904.455, 191.427 902.170, 207 900.924 C 217.220 900.107, 223.841 900.148, 234.251 901.094 C 249.740 902.502, 250.372 902.833, 251.416 910.096 C 252.211 915.632, 251.427 916.469, 244.500 917.471 C 241.750 917.869, 239.050 918.482, 238.500 918.832 C 237.950 919.183, 237.275 919.517, 237 919.575 C 235.786 919.832, 228.359 923.141, 227 924.031 C 226.175 924.571, 224.825 925.315, 224 925.683 C 219.934 927.502, 220.057 931.694, 224.298 935.804 C 228.157 939.545, 229.033 939.626, 237.845 937.068 C 241.505 936.005, 246.637 934.852, 249.250 934.506 C 251.862 934.160, 254 933.497, 254 933.032 C 254 932.568, 254.893 932.421, 255.985 932.706 C 257.077 932.992, 258.764 932.865, 259.735 932.425 C 261.793 931.491, 272.587 929.741, 289.500 927.597 C 306.790 925.406, 336.490 920.345, 339.500 919.078 C 342.466 917.829, 359.953 914.724, 379.196 912.029 C 385.370 911.164, 388.434 909.248, 393.152 903.304 C 399.729 895.016, 430.429 866.693, 438.500 861.467 C 444.085 857.850, 445.496 857.033, 447.250 856.399 C 448.212 856.051, 449 855.383, 449 854.915 C 449 854.446, 449.675 854.322, 450.500 854.638 C 451.325 854.955, 452 854.753, 452 854.189 C 452 852.542, 469.667 847.357, 480 845.970 C 485.225 845.269, 495.591 844.507, 503.035 844.276 C 515.131 843.901, 517.655 844.131, 526.766 846.441 C 539.079 849.562, 541.038 850.382, 547.654 855.182 C 556.406 861.532, 559.252 867.652, 555.171 871.345 C 551.842 874.358, 543.972 872.945, 534 867.543 C 530.877 865.850, 514.598 862.993, 508.250 863.022 C 502.614 863.048, 495.620 865.972, 494.014 868.974 C 492.532 871.743, 493.638 876.736, 496.016 878.008 C 497.035 878.554, 500.572 879, 503.875 879 C 507.179 879, 510.179 879.481, 510.542 880.068 C 510.905 880.656, 511.817 880.900, 512.569 880.612 C 513.321 880.323, 514.186 880.492, 514.491 880.986 C 514.797 881.480, 517.174 882.190, 519.773 882.563 C 522.373 882.936, 526.876 884.312, 529.780 885.621 C 532.683 886.929, 535.440 888, 535.904 888 C 536.699 888, 542.688 893.831, 547.778 899.561 C 550.479 902.602, 551.723 909.781, 550.080 912.850 C 548.705 915.419, 544.823 915.697, 542.887 913.364 C 541.661 911.887, 534.223 906.702, 533 906.472 C 532.725 906.421, 530.787 905.631, 528.694 904.717 C 525.141 903.166, 522.605 902.601, 507.784 900.060 C 498.421 898.455, 493 900.988, 493 906.967 C 493 911.657, 495.049 913.574, 501.516 914.937 C 506.525 915.992, 513.209 917.766, 516 918.782 C 516.825 919.082, 517.725 919.378, 518 919.439 C 518.275 919.501, 521.350 921.085, 524.834 922.959 C 532.723 927.205, 538 933.313, 538 938.198 C 538 944.195, 532.306 947.228, 528 943.524 C 522.735 938.996, 506.541 934.040, 496.924 934.015 C 492.378 934.003, 490.947 934.427, 489.174 936.314 C 486.478 939.185, 486.430 941.390, 488.986 944.980 C 490.603 947.251, 492.607 948.173, 499.774 949.944 C 514.332 953.541, 521 958.873, 521 966.916 C 521 971.066, 517.110 977.513, 514.012 978.496 C 511.612 979.258, 511.360 981.540, 513.582 982.393 C 515.636 983.181, 530.364 983.181, 532.418 982.393 C 533.288 982.059, 534 981.159, 534 980.393 C 534 979.627, 534.525 979, 535.167 979 C 535.808 979, 536.060 978.727, 535.727 978.394 C 535.393 978.060, 535.993 976.850, 537.060 975.705 C 538.420 974.246, 539 972.191, 539 968.837 C 539 964.575, 539.315 963.888, 541.880 962.562 C 550.491 958.109, 554.572 951.800, 555.591 941.368 C 556.244 934.678, 558.004 931, 560.551 931 C 562.289 931, 567.139 925.212, 569.372 920.473 C 573.620 911.459, 580.212 898.963, 582.269 896.027 C 583.221 894.667, 584 892.937, 584 892.182 C 584 891.427, 584.910 889.531, 586.022 887.970 C 587.134 886.408, 587.950 884.763, 587.836 884.315 C 587.722 883.867, 588.417 881.700, 589.381 879.500 C 592.328 872.772, 595 864.681, 595 862.485 C 595 859.336, 593.044 858, 588.436 858 C 584.748 858, 583.978 858.429, 581.699 861.750 C 580.284 863.813, 578.824 866.737, 578.455 868.250 C 578.085 869.763, 577.382 871, 576.892 871 C 574.784 871, 574.516 870.790, 574.810 869.363 C 574.981 868.535, 573.137 863.727, 570.713 858.678 C 565.297 847.397, 557.395 839.467, 546.839 834.721 C 542.903 832.951, 539.776 830.871, 539.435 829.795 C 539.078 828.670, 540.261 825.194, 542.422 821.018 C 546.662 812.825, 546.799 811.154, 543.524 807.621 C 538.979 802.716, 533.685 805.895, 529.571 816 C 529.235 816.825, 527.957 819.277, 526.730 821.449 L 524.500 825.398 506.751 825.449 C 496.988 825.477, 489.001 825.148, 489.001 824.718 C 489 823.652, 492.514 813.351, 494.448 808.755 C 495.314 806.695, 495.905 804.830, 495.761 804.610 C 495.618 804.390, 496.234 803.375, 497.132 802.355 C 498.029 801.335, 499.102 799.375, 499.516 798 C 499.931 796.625, 500.884 794.612, 501.635 793.527 C 502.386 792.443, 503 790.809, 503 789.898 C 503 787.106, 508.120 776.759, 511.911 771.889 C 518.173 763.845, 525.247 760, 533.786 760 C 540.399 760, 556.166 762.050, 558.683 763.236 C 559.883 763.803, 561.556 764.001, 562.401 763.677 C 563.245 763.352, 564.170 763.466, 564.456 763.928 C 564.742 764.391, 567.118 765.071, 569.738 765.440 C 576.607 766.408, 599.554 770.870, 606 772.492 C 609.025 773.253, 614.200 774.184, 617.500 774.561 C 620.800 774.937, 624.625 775.830, 626 776.545 C 627.375 777.260, 630.644 778.823, 633.264 780.019 C 640.231 783.197, 643 788.346, 643 798.126 C 643 803.621, 642.471 806.615, 640.985 809.529 C 639.877 811.702, 639.182 814.033, 639.442 814.708 C 639.701 815.384, 639.482 816.202, 638.956 816.527 C 638.430 816.852, 638 818.036, 638 819.158 C 638 820.280, 637.361 822.616, 636.580 824.349 C 635.798 826.082, 634.707 829.975, 634.154 833 C 632.966 839.498, 628.390 855.602, 626.878 858.604 C 626.295 859.761, 625.926 861.786, 626.058 863.104 C 626.190 864.422, 626.045 866.175, 625.738 867 C 624.266 870.943, 623.044 878.358, 622.440 887 C 621.560 899.600, 618.510 911.294, 614.445 917.651 C 608.841 926.416, 603.282 951.507, 602.897 969.779 C 602.756 976.428, 603.077 981.477, 603.676 982.076 C 604.242 982.642, 607.984 982.962, 612.097 982.797 L 619.500 982.500 620.233 967.135 C 620.637 958.684, 621.649 948.465, 622.483 944.427 C 623.318 940.388, 624.003 936.278, 624.006 935.292 C 624.010 934.306, 624.711 932.161, 625.564 930.525 C 626.417 928.888, 626.907 926.751, 626.651 925.775 C 626.396 924.799, 626.595 924, 627.094 924 C 627.592 924, 628.007 922.538, 628.015 920.750 C 628.031 917.329, 629.462 914.129, 630.508 915.174 C 630.847 915.513, 631.559 923.085, 632.091 932.001 C 633.308 952.411, 634.432 955, 642.074 955 C 644.130 955, 645.788 954.046, 647.720 951.750 C 652.072 946.581, 670.067 928.776, 688.438 911.463 C 697.753 902.683, 709.258 891.675, 714.004 887 C 732.188 869.088, 742.985 859, 743.973 859 C 744.538 859, 745 858.325, 745 857.500 C 745 856.675, 745.675 856, 746.500 856 C 747.325 856, 748 855.518, 748 854.929 C 748 854.340, 750.138 851.872, 752.750 849.445 C 766.431 836.736, 769.612 834.015, 770.802 834.008 C 772.199 833.999, 782.546 843.458, 795.500 856.584 C 812.915 874.231, 853.573 916.246, 854.762 917.825 C 856.109 919.613, 876.478 940.866, 888.032 952.541 C 899.675 964.305, 913.896 963.086, 766.440 962.962 C 663.141 962.875, 637.577 963.106, 636.334 964.138 C 633.824 966.220, 635.128 973.518, 638.533 976.444 C 640.057 977.753, 642.269 979.009, 643.448 979.235 C 644.627 979.460, 736.017 979.494, 846.538 979.311 L 1047.485 978.977 1050.182 976.238 C 1055.827 970.508, 1054.229 964.757, 1046.500 962.984 C 1044.144 962.443, 1017.609 962.325, 981.950 962.695 C 946.029 963.068, 920.798 962.952, 919.919 962.412 C 919.105 961.910, 915.124 957.900, 911.074 953.500 C 907.023 949.100, 898.487 940.077, 892.105 933.450 C 879.576 920.440, 877 917.475, 877 916.067 C 877 914.388, 910.617 885.056, 913.958 883.820 C 915.081 883.404, 916 882.622, 916 882.080 C 916 881.539, 918.137 879.643, 920.750 877.866 C 923.362 876.090, 928.689 872.019, 932.587 868.818 C 936.485 865.618, 940.470 863, 941.443 863 C 943.854 863, 954.599 872.369, 979.973 896.597 C 985.213 901.601, 992.200 908.078, 995.500 910.992 C 1013.421 926.814, 1018.405 931.369, 1027.785 940.494 C 1041.802 954.130, 1045.662 955.946, 1051.335 951.571 C 1053.588 949.833, 1054.631 943.048, 1053.088 940.164 C 1052.463 938.996, 1048.250 935.054, 1043.726 931.404 C 1031.241 921.331, 1024.479 915.417, 1013.508 904.972 C 1008.004 899.731, 1000.800 893.016, 997.500 890.049 C 994.200 887.082, 988.074 881.357, 983.888 877.327 C 979.701 873.297, 975.763 870, 975.138 870 C 974.512 870, 974 869.581, 974 869.068 C 974 867.765, 964.246 858.654, 961.917 857.782 C 960.863 857.387, 959.986 856.487, 959.969 855.782 C 959.932 854.273, 957.002 852.030, 950.333 848.406 C 944.216 845.081, 938.414 844.978, 933.265 848.103 C 928.229 851.159, 914.803 861.327, 913.109 863.369 C 912.364 864.266, 911.377 865, 910.915 865 C 910.452 865, 908.370 866.726, 906.287 868.835 C 904.204 870.945, 900.423 874.128, 897.884 875.909 C 895.345 877.690, 892.277 880.487, 891.067 882.124 C 889.856 883.761, 887.883 885.494, 886.683 885.975 C 885.482 886.456, 880.294 890.475, 875.153 894.908 C 864.691 903.929, 865.106 903.875, 858.018 897.132 C 855.815 895.036, 853.784 893.549, 853.506 893.827 C 853.228 894.106, 853 893.774, 853 893.090 C 853 891.776, 847.656 886, 846.442 886 C 845.631 886, 841 881.187, 841 880.344 C 841 879.215, 786.395 825.394, 781.574 821.772 C 773.391 815.624, 765.539 815.697, 759.521 821.978 C 757.929 823.640, 756.245 825, 755.779 825 C 755.313 825, 752.195 827.925, 748.851 831.500 C 745.507 835.075, 742.133 838, 741.354 838 C 740.575 838, 739.652 838.743, 739.303 839.652 C 738.955 840.560, 736.854 842.923, 734.635 844.902 C 732.416 846.881, 726.639 852.438, 721.796 857.250 C 716.954 862.062, 712.543 866, 711.996 866 C 711.448 866, 711 866.511, 711 867.135 C 711 868.388, 706.363 873, 705.104 873 C 704.668 873, 701.679 875.925, 698.462 879.500 C 695.245 883.075, 692.119 886, 691.515 886 C 690.033 886, 682 894.264, 682 895.788 C 682 896.455, 681.512 897, 680.915 897 C 680.319 897, 673.085 903.413, 664.841 911.250 C 656.597 919.088, 649.350 925.500, 648.736 925.500 C 648.108 925.500, 646.834 921.123, 645.825 915.500 C 644.838 910, 643.349 902.726, 642.515 899.336 C 640.625 891.647, 640.615 885.225, 642.480 877.500 C 643.277 874.200, 643.946 870.150, 643.967 868.500 C 643.988 866.850, 645.410 860.100, 647.127 853.500 C 648.845 846.900, 650.470 840.263, 650.738 838.750 C 651.007 837.237, 651.660 836, 652.189 836 C 652.718 836, 653.030 834.763, 652.882 833.250 C 652.734 831.737, 653.147 829.522, 653.800 828.327 C 654.454 827.132, 655.486 823.757, 656.094 820.827 C 656.702 817.897, 657.881 813.365, 658.714 810.755 C 660.879 803.965, 660.059 787.153, 657.257 780.895 C 654.495 774.726, 645.764 766.089, 639 762.835 C 635.523 761.162, 625.960 758.649, 613 756.002 C 601.725 753.699, 591.961 751.372, 591.303 750.829 C 590.645 750.287, 589.070 749.968, 587.803 750.121 C 586.536 750.274, 584.487 749.843, 583.250 749.164 C 581.083 747.975, 581 747.413, 581 734.002 C 581 716.424, 582.664 711.116, 590.642 703.245 C 593.571 700.354, 596.313 698.087, 596.734 698.207 C 597.155 698.327, 598.625 697.767, 600 696.962 C 602.171 695.692, 633.814 695.466, 840.704 695.242 L 1078.908 694.984 1085.046 698.242 C 1094.522 703.272, 1095.041 703.614, 1096.601 705.841 C 1097.406 706.990, 1098.837 709.857, 1099.782 712.214 C 1101.367 716.168, 1101.539 726.808, 1102 849.500 L 1102.500 982.500 1111 982.500 L 1119.500 982.500 1119.754 849.229 C 1120.006 716.391, 1120.001 715.938, 1117.919 709.729 C 1114.446 699.372, 1111.031 694.079, 1105.013 689.722 C 1101.981 687.527, 1099.050 685.195, 1098.500 684.540 C 1097.950 683.884, 1094.125 682.037, 1090 680.436 L 1082.500 677.524 841 677.596 L 599.500 677.668 594.136 679.864 C 583.488 684.224, 573.082 693.380, 568.886 702.080 C 565.400 709.309, 562.619 721.929, 563.260 727.613 C 563.898 733.271, 562.467 734.062, 556.670 731.257 C 554.377 730.147, 550.362 728.448, 547.750 727.483 C 545.138 726.518, 543 725.291, 543 724.757 C 543 724.223, 542.354 724.034, 541.565 724.337 C 540.775 724.640, 539.988 724.540, 539.815 724.115 C 539.484 723.304, 527.859 719.353, 517.267 716.453 C 510.553 714.614, 507.996 712.764, 510.201 711.339 C 515.784 707.733, 518.766 706.294, 522.140 705.578 C 525.934 704.772, 540.850 691.504, 554.779 676.544 C 560.937 669.931, 563.330 666.576, 564.116 663.454 C 564.697 661.145, 566.474 657.832, 568.063 656.092 C 573.942 649.656, 575.748 646.389, 576.958 640 C 577.635 636.425, 579.384 631.025, 580.845 628 C 583.270 622.977, 583.502 621.439, 583.518 610.261 L 583.536 598.022 589.664 591.761 C 598.583 582.648, 602.464 574.843, 604.955 561.005 C 607.398 547.441, 607.473 543.134, 605.495 529.965 C 604.450 523.008, 603.127 518.345, 601.169 514.721 C 596.724 506.493, 594.373 502.960, 593.754 503.579 C 593.440 503.893, 592.909 503.289, 592.575 502.235 C 592.240 501.182, 590.865 499.730, 589.518 499.009 C 588.170 498.288, 587.273 497.368, 587.523 496.963 C 587.773 496.558, 587.127 496.005, 586.088 495.733 C 585.049 495.461, 583.706 494.320, 583.105 493.196 C 582.172 491.453, 582.521 490.671, 585.473 487.887 C 591.792 481.926, 595.072 468.980, 593.019 458.099 L 591.739 451.316 597.294 445.580 C 605.256 437.360, 608.437 429.186, 607.640 419 C 606.820 408.529, 603.388 400.156, 596.735 392.401 C 595.326 390.758, 595.146 389.746, 595.906 387.748 C 596.440 386.343, 597.354 384.899, 597.938 384.538 C 598.522 384.177, 599 383.041, 599 382.012 C 599 380.984, 599.607 379.536, 600.349 378.794 C 604.697 374.446, 606.101 350.544, 602.481 342.500 C 601.491 340.300, 600.629 338.275, 600.566 338 C 599.194 332.028, 588.393 318.436, 582.757 315.589 C 580.966 314.685, 578.825 313.517, 578 312.994 C 577.175 312.472, 574.568 311.562, 572.206 310.972 C 567.878 309.891, 565.233 306.440, 566.401 303.396 C 567.594 300.289, 563.001 286.065, 558.856 280.024 C 554.336 273.437, 543.735 263, 541.565 263 C 540.839 263, 539.695 262.337, 539.022 261.526 C 538.349 260.716, 536.157 259.766, 534.150 259.414 C 532.142 259.063, 529.475 258.132, 528.222 257.346 C 526.969 256.560, 525.537 256.168, 525.041 256.475 C 524.544 256.782, 523.856 256.575, 523.510 256.016 C 522.714 254.727, 510.319 254.674, 509.527 255.956 C 509.202 256.482, 508.272 256.658, 507.460 256.346 C 506.648 256.035, 504.343 256.559, 502.337 257.510 C 498.734 259.220, 498.669 259.213, 496.867 256.870 C 495.865 255.567, 495.034 254.097, 495.022 253.605 C 494.972 251.570, 486.389 238.941, 484.690 238.402 C 483.678 238.080, 483.106 237.561, 483.419 237.248 C 483.732 236.935, 483.155 236.188, 482.137 235.589 C 481.119 234.990, 478.354 233.150, 475.993 231.500 C 469.941 227.270, 470.085 227.346, 464 225.173 C 443.984 218.027, 420.453 220.236, 407.500 230.478 C 401.204 235.457, 401.321 235.448, 396.227 231.278 C 386.295 223.149, 380.345 220.296, 371.411 219.381 C 367.854 219.016, 364.705 218.331, 364.413 217.859 C 363.719 216.737, 350 216.738, 350 217.860 M 340.529 238.513 C 336.695 239.900, 331.763 242.264, 329.568 243.767 C 325.414 246.612, 314.504 257.461, 314.494 258.757 C 314.491 259.166, 313.478 261.128, 312.244 263.118 C 309.991 266.751, 309.248 271, 310.867 271 C 311.344 271, 312.869 269.285, 314.256 267.189 C 319.814 258.791, 325.285 253.553, 331.889 250.309 C 335.525 248.522, 339.309 247.047, 340.298 247.030 C 341.287 247.014, 343.959 246.100, 346.236 245 C 349.549 243.399, 352.422 243, 360.629 243 C 366.268 243, 371.139 243.416, 371.453 243.924 C 371.767 244.431, 374.381 245.626, 377.262 246.579 C 380.143 247.531, 384.075 249.325, 386 250.564 C 390.935 253.742, 399 261.788, 399 263.535 C 399 264.341, 399.675 265, 400.500 265 C 402.543 265, 402.385 263.445, 400.124 261.289 C 399.092 260.305, 397.904 258.384, 397.483 257.019 C 396.500 253.827, 392.935 249, 391.561 249 C 390.977 249, 388.649 247.308, 386.387 245.241 C 379.392 238.848, 372.371 236.541, 359 236.246 C 348.836 236.022, 346.690 236.285, 340.529 238.513 M 431.500 239.215 C 424.200 240.341, 420.043 242.293, 414.626 247.140 C 411.486 249.950, 410.775 251.116, 411.652 252.018 C 412.537 252.929, 414.044 252.576, 418.152 250.498 C 432.465 243.258, 450.329 243.295, 463.385 250.592 C 469.064 253.766, 478.667 262.375, 479.517 265.055 C 480.257 267.385, 482 267.647, 482 265.428 C 482 259.794, 467.066 244.298, 461.260 243.908 C 460.842 243.880, 459.825 243.249, 459 242.505 C 457.148 240.836, 445.018 237.948, 440.688 238.145 C 438.935 238.225, 434.800 238.707, 431.500 239.215 M 265 272.511 C 259.199 273.619, 253.771 275.726, 247.398 279.344 C 246.241 280, 243.386 282.779, 241.053 285.519 C 238.720 288.258, 236.291 290.962, 235.655 291.527 C 231.605 295.129, 225.602 314.002, 227.806 316.206 C 228.731 317.131, 229 317.039, 229 315.793 C 229 314.909, 230.323 311.238, 231.940 307.635 C 235.562 299.560, 247.373 287.035, 253.782 284.471 C 256.102 283.542, 258 282.472, 258 282.092 C 258 281.200, 263.048 279.469, 270 277.976 C 275.177 276.865, 281.963 277.045, 291.750 278.555 C 300.747 279.942, 294.100 274.222, 284.500 272.315 C 277.187 270.863, 273.436 270.900, 265 272.511 M 504.249 275.420 C 500.832 276.662, 497.931 278.932, 499.550 279.097 C 500.072 279.150, 505 279.263, 510.500 279.347 C 517.234 279.450, 521.316 279.978, 523 280.965 C 524.375 281.770, 525.788 282.445, 526.139 282.465 C 526.491 282.484, 528.669 283.738, 530.979 285.250 C 533.289 286.762, 535.551 288, 536.006 288 C 538.224 288, 546.277 301.527, 547.467 307.250 C 547.781 308.762, 548.480 310, 549.019 310 C 550.751 310, 550.066 302.116, 548 298.261 C 546.900 296.209, 546 294.065, 546 293.498 C 546 291.744, 536.909 281.968, 532.959 279.474 C 525.383 274.692, 511.606 272.746, 504.249 275.420 M 560.155 325.883 C 559.174 326.505, 559.578 326.928, 561.650 327.448 C 568.999 329.293, 580.318 341.654, 583.071 350.841 C 584.581 355.882, 586 356.241, 586 351.582 C 586 343.508, 576.372 330.922, 567.315 327.156 C 561.364 324.682, 561.900 324.777, 560.155 325.883 M 226.250 332.662 C 224.492 333.372, 224.688 336, 226.500 336 C 227.333 336, 228 335.111, 228 334 C 228 332.900, 227.887 332.036, 227.750 332.079 C 227.613 332.122, 226.938 332.385, 226.250 332.662 M 206.547 333.924 C 206.233 334.431, 203.671 335.613, 200.852 336.549 C 191.014 339.817, 183.371 346.469, 177.930 356.500 C 175.217 361.503, 174.599 363.861, 174.216 370.691 C 173.357 385.965, 176.122 391.186, 177.291 376.500 C 177.598 372.650, 178.809 367.265, 179.982 364.533 C 183.098 357.278, 192.242 346.422, 198 343.141 C 203.791 339.842, 210.354 336.879, 213.080 336.334 C 214.686 336.013, 216 335.131, 216 334.375 C 216 332.788, 207.500 332.382, 206.547 333.924 M 397.297 354.628 C 393.379 360.359, 386.864 365.963, 380.696 368.906 C 377.131 370.608, 373.517 372, 372.666 372 C 371.815 372, 370.840 372.450, 370.500 373 C 370.149 373.568, 365.176 374, 359 374 C 352.824 374, 347.851 373.568, 347.500 373 C 347.160 372.450, 346.010 372, 344.944 372 C 343.878 372, 340.078 370.617, 336.501 368.927 C 327.954 364.889, 326.659 365.204, 325.899 371.510 C 325.048 378.566, 317.861 391.697, 313.722 393.758 C 312.332 394.450, 309.851 396.250, 308.208 397.758 C 302.071 403.393, 289.827 407.883, 280.372 407.964 C 275.300 408.008, 272.994 410.159, 274.844 413.122 C 275.517 414.200, 275.820 415.482, 275.518 415.972 C 275.215 416.461, 275.425 417.144, 275.984 417.490 C 276.549 417.839, 277 422.062, 277 427 C 277 431.938, 276.549 436.161, 275.984 436.510 C 275.425 436.856, 275.207 437.526, 275.500 438 C 275.793 438.474, 275.575 439.144, 275.016 439.490 C 274.457 439.835, 274 440.886, 274 441.824 C 274 442.762, 273.100 445.209, 272 447.261 C 270.900 449.314, 270 451.578, 270 452.293 C 270 453.796, 262.904 461, 261.423 461 C 260.878 461, 259.680 462.272, 258.761 463.827 C 257.251 466.383, 257.232 467.120, 258.557 471.523 C 260.423 477.723, 261.460 488.735, 260.606 493.284 C 260.244 495.217, 258.773 498.528, 257.339 500.642 C 255.485 503.374, 254.590 506.234, 254.245 510.531 C 253.775 516.394, 253.832 516.572, 256.130 516.417 C 257.434 516.329, 259.175 516.018, 260 515.725 C 262.695 514.768, 280.722 513, 287.780 513 L 294.677 513 301.291 506.750 C 306.757 501.586, 309.521 499.866, 317.203 496.847 C 322.316 494.838, 328.300 492.892, 330.500 492.523 C 332.700 492.154, 335.557 491.171, 336.850 490.338 C 338.363 489.362, 343.960 488.438, 352.564 487.743 C 369.314 486.389, 385.580 487.699, 391.517 490.881 C 393.691 492.046, 395.849 493, 396.311 493 C 399.098 493, 411.330 501.563, 413.537 505.058 C 416.369 509.546, 418.381 509.935, 426.568 507.583 C 434.759 505.230, 441.299 504.792, 449.603 506.038 C 461.285 507.791, 461.460 507.781, 461.808 505.334 C 462.163 502.845, 471.609 493, 473.643 493 C 474.389 493, 475.903 492.097, 477.008 490.992 C 479.311 488.689, 485.074 486.361, 493 484.532 C 496.025 483.833, 500.300 482.756, 502.500 482.137 C 507.472 480.738, 525.317 480.696, 534 482.064 C 537.575 482.627, 543.231 483.464, 546.569 483.924 C 549.907 484.385, 554.047 485.490, 555.769 486.381 C 560.711 488.936, 561.515 488.541, 561.382 483.619 C 561.317 481.208, 561.037 478.845, 560.760 478.368 C 560.482 477.890, 559.709 470.750, 559.040 462.500 C 557.902 448.453, 555.884 436.280, 552.455 422.765 C 551.655 419.611, 551 415.720, 551 414.119 C 551 412.038, 549.992 410.322, 547.465 408.104 C 545.521 406.397, 543.554 405, 543.095 405 C 541.505 405, 535.047 397.481, 532.528 392.697 C 531.138 390.055, 530 386.538, 530 384.881 C 530 383.224, 529.549 381.026, 528.998 379.996 C 528.049 378.223, 527.750 378.207, 523.396 379.690 C 517.219 381.795, 508.158 380.975, 500.661 377.634 C 493.669 374.517, 484.190 365.283, 480.491 357.983 C 479.103 355.242, 477.384 353, 476.671 353 C 475.959 353, 474.374 354.355, 473.149 356.012 C 470.263 359.915, 464.105 363.768, 456.103 366.676 C 447.578 369.773, 434.042 369.918, 425.740 367 C 422.611 365.900, 419.386 365, 418.575 365 C 416.712 365, 408 359.175, 408 357.929 C 408 357.418, 407.403 357, 406.674 357 C 405.945 357, 404.292 355.875, 403 354.500 C 400.058 351.368, 399.517 351.380, 397.297 354.628 M 168.228 416.368 C 163.090 421.942, 162.521 423.119, 161.017 431.262 C 160.331 434.982, 159.380 438.265, 158.905 438.559 C 158.423 438.856, 158.437 439.846, 158.936 440.796 C 159.429 441.733, 160.735 445.425, 161.839 449 L 163.845 455.500 163.310 446.500 C 162.916 439.873, 163.214 435.824, 164.443 431.143 C 166.209 424.411, 170.113 417.277, 172.543 416.345 C 173.344 416.038, 174 415.186, 174 414.452 C 174 411.570, 172.056 412.216, 168.228 416.368 M 994.666 419.454 C 991.664 421.728, 989.002 427.700, 988.964 432.246 C 988.899 440.017, 984.144 456.121, 980.733 460.118 C 975.752 465.956, 970.487 468.106, 950.420 472.498 C 949.276 472.748, 947.503 474.508, 946.479 476.409 C 944.941 479.265, 944.821 480.312, 945.788 482.435 C 947.378 485.924, 952.710 488.992, 957.191 488.996 C 959.221 488.998, 961.167 489.462, 961.516 490.027 C 961.865 490.591, 962.679 490.970, 963.325 490.867 C 966.801 490.318, 979.475 498.268, 981.554 502.302 C 984.077 507.196, 988.987 525.971, 988.994 530.750 C 988.998 533.318, 989.462 535, 990.167 535 C 990.808 535, 991.047 535.286, 990.698 535.636 C 990.348 535.985, 991.899 537.725, 994.145 539.502 C 998.037 542.582, 998.364 542.665, 1001.151 541.275 C 1005.602 539.054, 1007.178 535.741, 1008.069 526.731 C 1009.295 514.319, 1012.663 504.709, 1017.588 499.570 C 1019.840 497.219, 1022.964 494.975, 1024.530 494.582 C 1026.096 494.189, 1028.530 493.061, 1029.939 492.076 C 1031.348 491.091, 1033.021 490.470, 1033.658 490.695 C 1034.295 490.921, 1035.110 490.632, 1035.467 490.053 C 1035.825 489.474, 1037.684 489, 1039.599 489 C 1047.037 489, 1054.066 482.933, 1052.466 477.894 C 1051.529 474.940, 1047.006 472, 1043.400 472 C 1041.568 472, 1038.142 471.359, 1035.785 470.576 C 1033.428 469.793, 1029.650 468.668, 1027.390 468.075 C 1021.523 466.538, 1014.325 459.894, 1012.880 454.683 C 1012.242 452.382, 1011.154 448.700, 1010.463 446.500 C 1009.772 444.300, 1008.904 438.900, 1008.536 434.500 C 1007.701 424.546, 1006.489 421.304, 1002.909 419.453 C 999.427 417.652, 997.042 417.653, 994.666 419.454 M 496.965 447.957 C 488.171 448.855, 484.519 450.506, 480.037 455.611 C 477.118 458.935, 476.830 459.802, 477.290 463.879 C 478.202 471.973, 484.209 474.908, 492.628 471.375 C 497.394 469.374, 513.097 469.978, 519.876 472.422 C 527.480 475.164, 532.609 474.383, 537.750 469.701 C 540.949 466.787, 540.796 461.099, 537.411 457.077 C 535.987 455.385, 534.442 454, 533.976 454 C 533.511 454, 531.863 453.475, 530.315 452.834 C 528.767 452.192, 527.275 451.589, 527 451.493 C 526.725 451.398, 524.925 450.618, 523 449.760 C 518.562 447.783, 506.705 446.962, 496.965 447.957 M 361.500 452 C 361.160 452.550, 358.629 453, 355.875 453 C 353.122 453, 349.977 453.477, 348.888 454.060 C 347.799 454.643, 344.452 455.519, 341.452 456.008 C 335.199 457.025, 327.101 461.932, 321.571 468.053 C 316.380 473.799, 316.922 479.357, 322.980 482.490 C 327.066 484.602, 330.075 484.384, 336.596 481.500 C 339.705 480.125, 342.868 479, 343.624 479 C 344.381 479, 345 478.592, 345 478.094 C 345 477.595, 345.902 477.423, 347.005 477.712 C 348.108 478, 349.592 477.753, 350.303 477.164 C 352.350 475.465, 362.696 474.209, 367.300 475.100 C 373.546 476.309, 381.194 476.099, 383.810 474.647 C 387.079 472.833, 389.992 468.025, 389.957 464.500 C 389.902 458.873, 382.574 453, 375.609 453 C 373.689 453, 371.840 452.550, 371.500 452 C 371.160 451.450, 368.910 451, 366.500 451 C 364.090 451, 361.840 451.450, 361.500 452 M 996.622 465.368 C 995.921 468.165, 988.374 476, 986.382 476 C 985.622 476, 985 476.470, 985 477.044 C 985 477.618, 984.259 477.955, 983.354 477.794 C 979.751 477.151, 981.193 480.046, 986.699 484.507 C 989.889 487.093, 993.764 491.074, 995.308 493.354 C 996.853 495.634, 998.466 497.625, 998.894 497.778 C 999.321 497.932, 1000.509 496.197, 1001.534 493.924 C 1002.583 491.599, 1005.934 487.585, 1009.198 484.747 C 1013.732 480.803, 1014.755 479.410, 1013.886 478.362 C 1013.274 477.625, 1012.432 477.233, 1012.015 477.491 C 1011.002 478.117, 1001.352 467.683, 1000.520 465.064 C 999.635 462.273, 997.354 462.451, 996.622 465.368 M 527 502.114 C 527 503.551, 533.188 509, 534.819 509 C 535.898 509, 544 517.585, 544 518.728 C 544 519.153, 545.708 521.369, 547.795 523.652 C 549.882 525.936, 552.122 528.973, 552.773 530.402 C 553.480 531.952, 554.772 533, 555.979 533 C 562.616 533, 551.827 513.868, 540.283 505.165 C 535.534 501.585, 527 499.625, 527 502.114 M 371.122 506.733 C 371.330 507.285, 374.916 510.475, 379.092 513.822 C 386.587 519.831, 390.810 524.447, 396.407 532.750 C 401.051 539.639, 403.703 538.351, 401.565 530.247 C 398.582 518.938, 386.974 508.774, 374.333 506.403 C 372.078 505.980, 370.884 506.102, 371.122 506.733 M 580.429 520.086 C 579.939 520.864, 579.230 524.650, 578.854 528.500 C 578.477 532.350, 577.848 538.464, 577.455 542.088 C 576.896 547.250, 577.076 549.197, 578.290 551.088 C 579.142 552.414, 580.124 556.200, 580.472 559.500 C 581.397 568.268, 581.882 570, 583.412 570 C 585.070 570, 586 567.835, 586 563.977 C 586 562.405, 586.430 560.852, 586.956 560.527 C 587.482 560.202, 587.657 559.270, 587.344 558.455 C 587.032 557.641, 587.389 556.234, 588.138 555.330 C 589.819 553.300, 589.650 537.488, 587.925 535.409 C 587.293 534.648, 587.032 533.359, 587.344 532.545 C 587.657 531.730, 587.482 530.798, 586.956 530.473 C 586.430 530.148, 586 528.584, 586 526.997 C 586 523.289, 581.741 518.005, 580.429 520.086 M 433.500 525.424 C 432.950 525.645, 431.251 526.101, 429.725 526.438 C 424.357 527.623, 423 530.151, 423 538.965 C 423 543.462, 422.322 549.014, 421.442 551.715 C 419.206 558.585, 419.243 558.453, 419.373 559 C 419.439 559.275, 418.481 560.919, 417.246 562.654 C 416.011 564.389, 415 566.390, 415 567.101 C 415 569.279, 409.905 576.209, 403.953 582.125 C 397.717 588.324, 387.421 595.378, 385.943 594.465 C 385.424 594.144, 385 594.341, 385 594.902 C 385 596.606, 375.031 599.030, 365.500 599.644 C 344.246 601.011, 329.330 595.954, 315.129 582.564 C 303.394 571.499, 298.241 561.620, 295.560 545.046 C 294.751 540.045, 293.778 535.449, 293.396 534.832 C 292.257 532.990, 257.189 534.383, 255.223 536.348 C 253.882 537.689, 253.849 539.179, 254.951 548.479 C 255.642 554.310, 255.909 560.674, 255.543 562.620 C 254.959 565.738, 255.376 566.803, 259.051 571.566 C 262.542 576.091, 263.154 577.553, 262.807 580.529 C 262.450 583.589, 263.068 584.926, 267.236 590.098 C 270.571 594.236, 272.343 597.513, 272.921 600.608 C 273.724 604.904, 276.540 608.403, 278.313 607.307 C 279.680 606.462, 284.113 611.204, 285.984 615.514 C 288.271 620.781, 290.481 622.487, 295.117 622.562 C 299.309 622.630, 302.711 625.027, 303.194 628.252 C 303.672 631.443, 306.399 632.659, 309.435 631.035 C 312.926 629.167, 316.516 631.104, 319.934 636.702 L 322.500 640.904 327.602 640.332 C 332.880 639.740, 338 641.755, 338 644.424 C 338 645.081, 338.626 646.474, 339.391 647.520 C 340.739 649.363, 340.910 649.335, 344.862 646.596 C 349.883 643.116, 352.530 643.562, 356.988 648.639 C 360.590 652.742, 361.957 652.079, 361.985 646.218 C 362.004 642.104, 364.218 636.718, 367.486 632.834 C 368.869 631.191, 370 628.938, 370 627.828 C 370 626.717, 370.785 624.389, 371.744 622.654 C 374.066 618.456, 381.915 609, 383.077 609 C 383.585 609, 384.900 608.100, 386 607 C 387.100 605.900, 389.132 605, 390.515 605 C 391.898 605, 395.611 603.538, 398.765 601.750 C 403.968 598.802, 405.274 598.500, 412.838 598.500 C 420.395 598.500, 421.356 598.279, 423.088 596.139 C 424.140 594.841, 425 594.085, 425 594.461 C 425 594.836, 425.707 594.436, 426.571 593.571 C 429.063 591.080, 435.423 591.560, 438.570 594.478 C 441.532 597.222, 446.647 598.556, 450.501 597.589 C 451.883 597.242, 455.374 595.170, 458.257 592.983 C 465.705 587.337, 471.220 587.936, 474.888 594.791 C 475.840 596.570, 476.951 597, 480.594 597 C 484.116 597, 485.937 597.659, 488.823 599.978 C 490.861 601.616, 493.959 603.242, 495.707 603.591 C 497.940 604.038, 499.720 605.458, 501.690 608.364 C 503.232 610.639, 504.725 612.725, 505.007 613 C 509.105 617.001, 514 629.707, 514 636.345 C 514 640.725, 515.855 642.104, 517.803 639.171 C 518.956 637.434, 520.225 637, 524.147 637 C 528.837 637, 529.077 636.865, 529.674 633.878 C 530.322 630.639, 534.320 627.539, 540.480 625.500 C 542.831 624.722, 543.802 623.547, 544.861 620.197 C 545.987 616.641, 546.897 615.625, 550.111 614.339 C 553.345 613.045, 554 612.307, 554 609.957 C 554 605.546, 555.658 602.243, 558.662 600.669 C 561.108 599.388, 561.386 598.736, 561.148 594.858 C 560.918 591.131, 561.317 590.070, 563.867 587.627 L 566.855 584.765 566.290 575.632 C 565.980 570.610, 565.564 566.314, 565.366 566.087 C 565.168 565.859, 561.698 569.080, 557.654 573.243 C 546.013 585.229, 533.113 590.404, 515 590.354 C 497.398 590.306, 487.370 586.219, 475.055 574.077 C 467.559 566.686, 464.890 562.450, 460.514 551 C 459.569 548.525, 458.361 545.670, 457.830 544.656 C 457.300 543.642, 456.971 540.248, 457.099 537.114 C 457.354 530.862, 456.602 528.870, 453.339 527.159 C 451.196 526.035, 435.419 524.655, 433.500 525.424 M 192.500 533.383 C 187.460 535.766, 184.212 538.745, 180.063 544.792 C 178.338 547.306, 177.550 550.537, 176.728 558.466 C 175.498 570.323, 176.721 579.721, 180.666 588.729 C 183.177 594.462, 189.525 604.035, 191.654 605.300 C 192.394 605.740, 193 606.700, 193 607.433 C 193 608.167, 193.787 609.040, 194.750 609.374 C 195.713 609.709, 198.647 611.328, 201.271 612.974 C 203.895 614.620, 209.009 616.654, 212.636 617.495 C 216.263 618.337, 219.708 619.319, 220.290 619.679 C 222.207 620.864, 227.444 620.352, 230.700 618.662 C 232.461 617.748, 234.546 617, 235.335 617 C 236.124 617, 237.505 615.878, 238.404 614.507 C 239.955 612.139, 239.912 611.824, 237.540 608.240 C 234.353 603.424, 233.542 599.289, 235.042 595.500 C 236.534 591.732, 236.564 586.345, 235.115 582.685 C 233.556 578.748, 233.708 576.996, 235.999 572.502 L 237.998 568.581 234.979 564.824 C 232.968 562.322, 231.420 558.677, 230.344 553.911 C 228.863 547.355, 228.232 546.263, 222.826 540.907 C 212.773 530.948, 202.856 528.487, 192.500 533.383 M 915.288 536.650 C 912.637 537.725, 909.981 544.004, 908.964 551.601 C 908.382 555.945, 907.015 562.242, 905.924 565.593 C 903.754 572.262, 898.646 580, 896.413 580 C 895.636 580, 895 580.431, 895 580.958 C 895 582.012, 883.908 585.536, 877.324 586.574 C 868.541 587.958, 864.034 593.407, 867.122 598.909 C 868.289 600.987, 870.209 601.878, 877.526 603.736 C 882.462 604.989, 887.175 606.310, 888 606.671 C 888.825 607.032, 889.725 607.406, 890 607.503 C 897.570 610.159, 904 615.545, 904 619.229 C 904 620.010, 905.125 623.957, 906.500 628 C 907.875 632.043, 909 637.377, 909 639.854 C 909 646.143, 910.739 650.283, 914.449 652.825 C 918.857 655.845, 920.711 655.567, 924.615 651.305 C 927.268 648.408, 928.009 646.733, 928.044 643.555 C 928.118 636.610, 932.480 619.452, 934.894 616.607 C 937.542 613.487, 949.406 606.283, 953.077 605.567 C 965.683 603.107, 970 600.315, 970 594.619 C 970 588.946, 966.965 587.100, 954.179 584.997 C 949.574 584.240, 946.651 583.253, 946.300 582.339 C 945.993 581.539, 945.125 581.122, 944.371 581.411 C 943.617 581.700, 943 581.501, 943 580.969 C 943 580.436, 942.413 580, 941.696 580 C 938.420 580, 933.880 573.275, 931.835 565.392 C 928.889 554.040, 928.093 549.960, 928.044 545.973 C 927.962 539.397, 921.021 534.324, 915.288 536.650 M 915.920 583.447 C 914.489 586.490, 912.356 588.888, 909.431 590.740 C 904.280 594.002, 903.732 596.784, 907.750 599.271 C 912.117 601.974, 915.397 605.275, 916.775 608.354 C 917.837 610.728, 918.299 610.997, 919.543 609.964 C 920.365 609.282, 921.721 607.324, 922.558 605.612 C 923.394 603.901, 926.086 601.227, 928.539 599.672 C 930.993 598.116, 933 596.296, 933 595.627 C 933 594.958, 930.794 592.729, 928.099 590.673 C 925.403 588.617, 922.466 585.394, 921.572 583.510 C 919.169 578.447, 918.275 578.437, 915.920 583.447 M 467.515 626.554 C 465.083 628.205, 461.759 629.365, 458.572 629.676 C 454.230 630.099, 453.004 629.798, 450.056 627.585 C 445.702 624.317, 444.298 624.342, 440.731 627.750 C 438.022 630.339, 437.343 630.494, 429.176 630.398 C 423.555 630.332, 419.136 629.716, 416.628 628.648 C 412.294 626.803, 408 626.481, 408 628 C 408 628.550, 409.328 629, 410.950 629 C 412.573 629, 414.260 629.564, 414.700 630.253 C 415.140 630.942, 417.485 632.854, 419.912 634.501 C 424.061 637.318, 425.001 637.517, 435.708 637.857 C 452.164 638.380, 456.527 637.621, 462.500 633.201 C 465.250 631.165, 469.075 629.036, 471 628.468 C 472.925 627.900, 474.500 626.782, 474.500 625.982 C 474.500 623.548, 471.595 623.786, 467.515 626.554 M 479.774 634.712 C 479.331 640.060, 478.987 640.703, 474.400 644.785 C 471.705 647.183, 467.700 650.081, 465.500 651.225 C 455.370 656.492, 423.358 656.770, 413.392 651.678 C 408.481 649.169, 402.646 643.801, 401.784 641 C 401.530 640.175, 401.925 638.052, 402.661 636.282 C 404.586 631.656, 404.477 631.500, 399.336 631.500 L 394.675 631.500 390.910 638.500 C 387.796 644.287, 387.131 646.544, 387.072 651.527 C 387.029 655.122, 387.554 658.351, 388.372 659.527 C 389.127 660.612, 390.076 663.075, 390.480 665 C 391.240 668.616, 394.719 673.292, 396.041 672.474 C 396.454 672.219, 398.076 672.680, 399.646 673.499 C 401.216 674.318, 403.007 674.990, 403.628 674.994 C 404.248 674.997, 405.279 675.632, 405.920 676.404 C 407.193 677.937, 423.394 678.164, 425.736 676.682 C 426.521 676.185, 426.885 673.926, 426.736 670.486 C 426.400 662.776, 427.917 661.529, 437.790 661.397 C 449.723 661.238, 450.754 661.103, 452.357 659.500 C 454.644 657.213, 457.333 657.694, 460.449 660.947 C 462.927 663.533, 463.193 664.394, 462.619 667.981 C 462.247 670.309, 462.426 672.927, 463.035 674.065 C 464.102 676.059, 464.109 676.059, 466.956 674.031 C 468.525 672.914, 471.330 672, 473.189 672 C 475.852 672, 476.929 671.390, 478.269 669.121 C 479.205 667.538, 481.536 665.499, 483.449 664.591 C 487.666 662.590, 490 659.477, 490 655.854 C 490 654.368, 490.525 650.880, 491.166 648.102 C 492.086 644.116, 492.051 641.834, 490.998 637.276 C 489.288 629.871, 488.552 629, 484.001 629 L 480.248 629 479.774 634.712 M 294 703.359 C 294 705.737, 299.408 715.373, 302.763 718.973 C 304.544 720.883, 306 723.019, 306 723.719 C 306 725.199, 326.797 747, 328.208 747 C 328.728 747, 330.477 748.323, 332.095 749.941 C 333.712 751.558, 338.740 754.756, 343.268 757.046 C 347.795 759.337, 352.850 762.024, 354.500 763.017 C 356.150 764.010, 362.225 766.046, 368 767.541 C 382.636 771.331, 403.273 771.574, 416 768.107 C 429.797 764.349, 440.170 757.665, 450.385 745.953 C 456.954 738.421, 457.466 736.719, 452.757 738.070 C 450.973 738.581, 447.325 739, 444.651 739 C 441.977 739, 437.038 739.713, 433.675 740.584 C 429.857 741.573, 426.048 741.921, 423.531 741.510 C 417.993 740.605, 411.402 740.602, 405.765 741.501 C 401.045 742.254, 388 739.532, 388 737.794 C 388 737.392, 387.325 737.322, 386.500 737.638 C 385.675 737.955, 385 737.716, 385 737.107 C 385 736.455, 383.050 735.996, 380.250 735.989 C 377.637 735.983, 373.250 735.258, 370.500 734.377 C 367.750 733.496, 361.675 732.210, 357 731.520 C 350.848 730.611, 347.050 729.406, 343.250 727.158 C 340.363 725.450, 338 724.355, 338 724.726 C 338 725.097, 337.460 724.860, 336.800 724.200 C 336.140 723.540, 333.957 723, 331.949 723 C 328.185 723, 321.247 719.815, 315.557 715.476 C 313.772 714.114, 311.791 713, 311.156 713 C 310.520 713, 310 712.605, 310 712.121 C 310 711.638, 308.538 710.663, 306.750 709.954 C 304.962 709.246, 301.624 707.166, 299.332 705.333 C 294.708 701.636, 294 701.374, 294 703.359 M 986.360 741.008 C 973.322 743.954, 965.080 749.061, 957.859 758.669 C 950.739 768.142, 948.968 772.206, 947.748 781.869 C 946.785 789.503, 946.881 791.922, 948.443 799.364 C 949.439 804.114, 950.674 808, 951.187 808 C 951.699 808, 951.842 808.446, 951.505 808.992 C 950.711 810.276, 955.651 817.432, 960.742 822.373 C 970.389 831.735, 981.092 836.144, 994.500 836.280 C 1002.924 836.365, 1012.159 834.638, 1015.473 832.357 C 1016.557 831.611, 1018.259 831, 1019.254 831 C 1020.249 831, 1021.321 830.328, 1021.636 829.506 C 1021.952 828.684, 1022.565 828.231, 1023 828.500 C 1023.435 828.769, 1024.048 828.316, 1024.364 827.494 C 1024.679 826.672, 1025.531 826, 1026.256 826 C 1026.982 826, 1029.591 823.862, 1032.054 821.250 C 1036.589 816.440, 1039.882 810.685, 1042.497 803 C 1042.591 802.725, 1043.136 801.375, 1043.709 800 C 1046.513 793.265, 1046.336 774.479, 1043.440 771.583 C 1042.701 770.843, 1042.374 769.960, 1042.714 769.619 C 1043.055 769.279, 1042.808 769, 1042.167 769 C 1041.525 769, 1041 768.154, 1041 767.120 C 1041 762.698, 1027.689 748.929, 1019.230 744.601 C 1016.076 742.987, 999.068 738.960, 996 739.100 C 995.175 739.138, 990.837 739.996, 986.360 741.008 M 988.500 757.406 C 981.586 759.114, 977.957 761.198, 973.710 765.899 C 967.276 773.021, 964.851 779.116, 964.664 788.636 C 964.574 793.237, 964.837 797.001, 965.250 797 C 965.663 797, 966 797.580, 966 798.289 C 966 800.714, 970.014 807.498, 973.758 811.401 C 981.122 819.078, 992.696 822.067, 1003.479 819.077 C 1015.559 815.727, 1022.542 809.145, 1025.980 797.866 C 1032.015 778.071, 1022.352 760.487, 1003.566 757.077 C 996.422 755.780, 994.948 755.812, 988.500 757.406 M 255.118 828.691 C 255.053 832.096, 255.450 835.160, 256 835.500 C 257.159 836.217, 257.159 830.056, 256 825.500 C 255.390 823.103, 255.213 823.745, 255.118 828.691 M 258.225 847.787 C 258.492 852.714, 259.196 856.565, 259.963 857.287 C 261.013 858.274, 261.128 856.920, 260.583 850.006 C 259.675 838.498, 257.617 836.560, 258.225 847.787 M 262 867.941 C 262 869.009, 262.450 870.160, 263 870.500 C 263.550 870.840, 264.036 872.554, 264.079 874.309 C 264.122 876.064, 264.394 876.909, 264.683 876.187 C 265.453 874.265, 264.037 866, 262.939 866 C 262.422 866, 262 866.873, 262 867.941 M 572 875.314 C 572 877.294, 564.138 886, 562.350 886 C 559.877 886, 559.764 888.762, 562.107 891.931 C 564.410 895.045, 566 895.866, 566 893.939 C 566 893.355, 567.735 889.193, 569.854 884.689 C 574.353 875.133, 574.496 874.665, 573.075 874.192 C 572.484 873.995, 572 874.500, 572 875.314 M 479 970.969 C 479 971.501, 478.383 971.700, 477.629 971.411 C 476.875 971.122, 475.989 971.586, 475.660 972.443 C 475.332 973.299, 474.486 974.018, 473.781 974.041 C 471.400 974.116, 465.700 979.776, 466.336 981.433 C 466.847 982.765, 469.331 983, 482.887 983 C 491.659 983, 499.548 982.727, 500.418 982.393 C 503.034 981.389, 502.320 976.680, 499.081 973.578 C 497.476 972.040, 495.707 971.063, 495.150 971.407 C 494.594 971.751, 493.856 971.575, 493.510 971.016 C 492.708 969.719, 479 969.674, 479 970.969" stroke="none" fill="#171916" fill-rule="evenodd"/>
</svg>