<svg role="img" aria-labelledby="artwork-title" shape-rendering="geometricPrecision" xmlns="http://www.w3.org/2000/svg" width="1200" height="1200" viewBox="0 0 1200 1200" version="1.1">
	<title id="artwork-title">Mascot holding a before and after panel</title>
	<path d="M 660 223 C 660 223.550, 658.313 224, 656.250 224.001 C 652.547 224.001, 642.393 227.284, 640.550 229.076 C 640.028 229.584, 638.808 230, 637.839 230 C 635.996 230, 625.449 238.056, 623.193 241.187 C 621.393 243.685, 619.984 243.475, 615.428 240.028 C 613.268 238.393, 610.970 237.043, 610.321 237.028 C 609.673 237.013, 608.548 236.416, 607.821 235.703 C 605.172 233.103, 592.815 230.497, 583.500 230.575 C 572.100 230.670, 561.443 233.721, 550 240.168 C 549.175 240.632, 547.825 241.306, 547 241.665 C 540.544 244.473, 529.605 257.413, 527.062 265.250 C 525.673 269.530, 524.872 269.694, 514.009 267.932 C 504.396 266.372, 487.792 269.697, 481.500 274.441 C 479.850 275.686, 477.110 277.419, 475.412 278.294 C 471.489 280.314, 465 286.027, 465 287.461 C 465 288.062, 463.762 289.916, 462.250 291.580 C 460.738 293.244, 458.294 296.835, 456.820 299.560 C 453.459 305.772, 449.614 320.328, 450.452 323.667 C 451.400 327.441, 450.260 329.698, 447.086 330.333 C 439.298 331.890, 426.163 344.042, 420.570 354.863 C 413.312 368.905, 414.236 391.754, 422.499 402.588 C 425.632 406.696, 425.629 406.756, 421.993 410.507 C 414.949 417.775, 412.673 435.460, 417.459 445.740 C 420.564 452.410, 424.468 457.328, 429.361 460.736 L 433.221 463.425 432.560 471.005 C 431.736 480.456, 433.034 486.515, 437.527 494.181 C 442.851 503.266, 442.905 504.384, 438.172 507.693 C 435.963 509.237, 433.899 511.175, 433.587 512 C 433.274 512.825, 431.624 515.728, 429.919 518.452 C 428.215 521.176, 426.150 526.351, 425.331 529.952 C 424.511 533.553, 423.426 537.281, 422.920 538.236 C 421.725 540.492, 421.721 561.310, 422.915 562.550 C 423.419 563.072, 424.991 567.080, 426.410 571.454 C 429.657 581.472, 434.500 588.813, 441.239 593.934 C 444.133 596.132, 447.672 598.827, 449.104 599.921 C 451.544 601.785, 451.742 602.573, 452.245 612.424 C 452.728 621.891, 453.141 623.676, 456.391 630.342 C 458.376 634.414, 460 638.877, 460 640.259 C 460 643.223, 461.128 645.492, 466.502 653.335 C 468.701 656.545, 471.175 660.185, 472 661.426 C 472.825 662.666, 474.679 665.440, 476.120 667.590 C 479.628 672.823, 488.928 682, 490.725 682 C 492.162 682, 505.453 694.880, 504.746 695.588 C 503.095 697.239, 444.128 697.974, 312.432 697.986 C 148.432 698.001, 154.279 697.824, 147 703.002 C 145.625 703.980, 144.050 704.834, 143.500 704.900 C 141.633 705.124, 134.036 712.976, 130.584 718.250 C 124.520 727.512, 124.148 731.037, 123.543 784.845 C 123.245 811.435, 122.749 833.597, 122.441 834.095 C 122.134 834.593, 119.859 835, 117.386 835 C 114.913 835, 110.777 835.952, 108.195 837.117 C 101.953 839.931, 92.326 850.020, 90.246 855.928 C 88.276 861.522, 88.071 870.896, 89.846 874.211 C 91.015 876.397, 90.836 877.258, 88.193 882.144 C 86.562 885.158, 84.655 890.184, 83.955 893.312 C 83.181 896.769, 82.156 899, 81.341 899 C 79.585 899, 79.558 904.616, 81.311 905.289 C 83.891 906.279, 85.500 914.225, 85.504 926 C 85.508 938.746, 87.117 946.057, 91.416 952.866 C 94.226 957.318, 94.707 960.893, 92.758 962.842 C 91.770 963.830, 91.785 964.249, 92.835 964.898 C 93.560 965.346, 94.046 966.340, 93.914 967.106 C 93.783 967.873, 94.632 970.638, 95.802 973.250 L 97.929 978 106.842 978 C 113.426 978, 116.071 977.619, 116.964 976.544 C 118.357 974.865, 117.549 973, 115.428 973 C 114.628 973, 112.990 970.974, 111.787 968.498 C 109.885 964.583, 109.756 963.563, 110.800 960.677 C 112.793 955.165, 112.267 952.032, 108.597 947.553 C 104.113 942.080, 101.997 936.800, 102.015 931.128 C 102.029 926.832, 103.805 919.861, 105.256 918.411 C 105.600 918.066, 105.491 917.045, 105.013 916.142 C 98.197 903.270, 98.316 892.202, 105.362 883.603 C 109.578 878.458, 109.763 877.240, 106.886 873.582 C 105.723 872.104, 105.044 870.622, 105.377 870.289 C 105.710 869.956, 105.510 869.114, 104.932 868.418 C 101.435 864.205, 109.049 854.142, 117.447 851.878 C 125.173 849.796, 137.987 852.837, 145.441 858.523 C 155.105 865.894, 154.025 877.112, 143.800 875.572 C 141.435 875.216, 135.648 874.675, 130.939 874.370 C 119.648 873.638, 115.426 875.210, 114.431 880.517 C 113.305 886.517, 115.772 888.114, 127.669 889.090 C 143.116 890.357, 150.531 893.581, 155.063 901 C 156.780 903.811, 156.792 904.394, 155.211 908.198 C 153.120 913.226, 150.014 914.363, 142.188 912.964 C 128.736 910.560, 116.430 913.459, 114.859 919.402 C 114.091 922.307, 115.216 925.777, 117.400 927.235 C 118.005 927.639, 125.103 927.976, 133.173 927.985 C 147.490 928, 147.921 928.063, 150.923 930.589 C 153.348 932.629, 154 933.970, 154 936.915 C 154 941.529, 150.175 945.666, 146.371 945.168 C 145.009 944.989, 143.355 945.267, 142.697 945.784 C 142.039 946.302, 138.607 947.014, 135.070 947.366 C 123.026 948.566, 117.304 953.932, 121.753 959.854 C 123.682 962.422, 124.052 962.500, 134.261 962.500 C 143.201 962.500, 145.097 962.786, 146.890 964.405 C 149.917 967.138, 149.508 969.436, 145.388 972.832 C 141.922 975.688, 141.859 975.854, 143.822 976.905 C 144.948 977.507, 149.218 978, 153.312 978 C 163.092 978, 163.500 977.483, 163.500 965.088 C 163.500 955.869, 163.627 955.317, 166.798 950.750 C 168.612 948.137, 169.759 946, 169.348 946 C 168.937 946, 169.140 945.460, 169.800 944.800 C 171.262 943.338, 171.416 931.375, 169.984 930.490 C 169.425 930.144, 169.207 929.474, 169.500 929 C 169.793 928.526, 169.548 927.838, 168.955 927.472 C 166.064 925.685, 165.989 921.973, 168.761 917.782 C 171.211 914.075, 171.500 912.734, 171.500 905.069 C 171.500 896.952, 171.309 896.197, 167.885 890.747 L 164.270 884.995 166.135 879.342 C 170.125 867.249, 167.798 858.909, 157.493 848.373 C 152.259 843.022, 149.422 840.921, 146.285 840.077 C 143.975 839.455, 141.817 838.513, 141.490 837.983 C 141.163 837.454, 140.930 814.185, 140.973 786.274 C 141.049 736.855, 141.106 735.413, 143.150 731.191 C 145.903 725.503, 150.865 720.790, 157.535 717.526 L 162.940 714.882 374.816 715.191 C 552.596 715.450, 586.959 715.721, 588.347 716.872 C 589.856 718.125, 590 724.347, 590 788.122 C 590 856.667, 589.962 858.038, 588 860 C 586.900 861.100, 584.747 862, 583.215 862 C 578.396 862, 566.062 866.625, 560.302 870.592 C 545.992 880.448, 532.553 896.569, 530.095 906.829 C 529.612 908.848, 528.492 913.182, 527.608 916.460 C 526.724 919.738, 526 925.224, 526 928.651 C 526 932.078, 525.528 935.174, 524.951 935.530 C 524.301 935.932, 524.252 936.619, 524.821 937.339 C 525.326 937.978, 526.050 941.352, 526.429 944.837 C 527.480 954.488, 530.736 963.784, 535.682 971.250 L 540.154 978 549.518 978 C 555.151 978, 559.148 977.569, 559.550 976.919 C 559.918 976.324, 559.105 974.637, 557.745 973.169 C 553.900 969.021, 547.006 958.072, 544.744 952.522 C 541.625 944.869, 541.769 923.123, 545 914 C 546.266 910.425, 548.169 906.375, 549.228 905 C 550.287 903.625, 553.149 899.688, 555.588 896.250 C 558.027 892.813, 560.463 890, 561.001 890 C 561.539 890, 565.022 888.066, 568.740 885.702 C 579.960 878.569, 583.708 877.520, 598 877.509 C 612.750 877.498, 617.813 878.858, 627.992 885.564 C 642.179 894.910, 652.271 908.331, 654.130 920.322 C 654.657 923.720, 655.347 928.148, 655.664 930.163 C 656.343 934.480, 653.375 951.835, 651.587 954 C 650.906 954.825, 649.062 958.107, 647.489 961.294 C 645.916 964.480, 642.654 968.908, 640.241 971.132 C 633.908 976.969, 634.842 978, 646.462 978 L 655.987 978 659.022 973.811 C 660.691 971.507, 662.318 968.582, 662.637 967.311 C 662.956 966.040, 663.563 965, 663.987 965 C 664.844 965, 665.905 962.383, 668.647 953.500 C 670.128 948.704, 670.488 944.389, 670.440 932 C 670.386 917.963, 670.135 915.803, 667.783 909.117 C 666.355 905.056, 664.788 901.456, 664.300 901.117 C 663.813 900.778, 662.120 897.907, 660.537 894.738 C 657.249 888.151, 647.022 877.333, 638.729 871.670 C 633.176 867.877, 620.224 862.832, 612.500 861.453 C 610.300 861.061, 608.006 860.349, 607.401 859.873 C 606.289 858.995, 606.424 726.269, 607.544 719.347 C 607.825 717.612, 608.605 716.022, 609.277 715.813 C 609.950 715.605, 706.800 715.463, 824.500 715.499 L 1038.500 715.563 1044 718.397 C 1050.364 721.675, 1053.625 725, 1057.052 731.708 L 1059.500 736.500 1059.281 784 C 1059.161 810.125, 1059.048 835.642, 1059.031 840.705 L 1059 849.909 1055.250 850.589 C 1043.677 852.688, 1030.600 861.954, 1026.390 871.039 C 1023.600 877.061, 1023.168 886.316, 1025.532 889.441 C 1027.572 892.139, 1027.364 895.983, 1025.045 898.452 C 1023.970 899.597, 1021.945 902.687, 1020.545 905.320 C 1016.417 913.084, 1017.244 920.632, 1023.158 929.154 C 1025.391 932.372, 1025.481 934.849, 1023.505 938.636 C 1019.794 945.749, 1020.880 955.444, 1026.140 962.144 C 1029.317 966.192, 1029.565 967.795, 1027.779 972.734 C 1026.197 977.109, 1027.458 977.966, 1035.500 977.980 C 1040.844 977.990, 1041.863 977.651, 1044.822 974.878 C 1047.975 971.923, 1048.433 971.798, 1053.822 972.425 C 1070.936 974.415, 1072.627 974.371, 1074.369 971.883 C 1079.076 965.164, 1073.479 958.133, 1061.260 955.414 C 1056.430 954.340, 1052.110 953.993, 1048.882 954.421 C 1044.304 955.029, 1043.699 954.852, 1040.962 952.116 C 1035.391 946.545, 1037.895 940.890, 1047 938.480 C 1054.900 936.388, 1060.964 936.657, 1068.625 939.438 C 1074.763 941.666, 1075.584 941.750, 1078.170 940.412 C 1086.074 936.325, 1077.074 924.728, 1064 922.151 C 1057.387 920.848, 1047.295 920.372, 1046.348 921.318 C 1045.973 921.693, 1044.279 921.989, 1042.583 921.975 C 1040.066 921.955, 1039.179 921.305, 1037.750 918.434 C 1035.441 913.795, 1035.539 912.143, 1038.370 907.976 C 1041.777 902.963, 1047.977 900.989, 1060.300 900.995 C 1067.312 900.999, 1070.978 901.454, 1073.188 902.597 C 1076.414 904.265, 1081.168 903.936, 1083.655 901.872 C 1086.014 899.914, 1085.278 894.634, 1082.250 891.801 C 1076.250 886.188, 1073.642 885.500, 1058.355 885.500 C 1045.850 885.500, 1043.967 885.279, 1042.105 883.595 C 1038.964 880.753, 1039.488 877.512, 1043.783 873.217 C 1050.368 866.632, 1053.789 865.545, 1068 865.521 C 1076.816 865.506, 1081.237 865.908, 1083 866.885 C 1087.179 869.201, 1095.889 876.435, 1095.781 877.500 C 1095.725 878.050, 1096.244 879.850, 1096.934 881.500 C 1097.733 883.408, 1097.976 886.622, 1097.602 890.327 C 1097.104 895.265, 1097.407 896.984, 1099.585 901.587 C 1103.849 910.602, 1104.775 922.855, 1101.618 928.500 C 1100.973 929.653, 1100.500 935.401, 1100.500 942.076 L 1100.500 953.652 1096.239 960 C 1092.216 965.990, 1092.013 966.632, 1092.624 971.423 C 1092.980 974.216, 1093.459 976.712, 1093.689 976.970 C 1093.919 977.229, 1097.238 977.618, 1101.065 977.834 C 1108.875 978.275, 1110.998 977.270, 1111.004 973.128 C 1111.006 971.682, 1111.826 969.150, 1112.827 967.500 C 1116.244 961.866, 1117.195 957.496, 1118.269 942.500 C 1120.086 917.117, 1119.793 907.346, 1117.040 901.500 C 1115.065 897.306, 1114.718 895.120, 1114.889 887.941 C 1115.126 877.998, 1113.504 873.169, 1107.518 866 C 1101.112 858.329, 1087.113 850, 1080.624 850 C 1079.246 850, 1077.900 849.647, 1077.634 849.217 C 1077.367 848.786, 1077.039 823.698, 1076.903 793.467 C 1076.634 733.518, 1076.269 729.212, 1070.663 719.722 C 1065.184 710.446, 1054.385 702.160, 1044.500 699.645 C 1041.950 698.996, 994.270 698.423, 913 698.064 L 785.500 697.500 776.500 695.136 C 771.550 693.836, 766.770 692.406, 765.878 691.957 C 764.985 691.509, 760.485 690.627, 755.878 689.997 C 751.270 689.367, 746.037 688.639, 744.248 688.380 L 740.996 687.909 745.998 682.907 C 748.749 680.156, 751 677.300, 751 676.561 C 751 675.822, 752.088 674.944, 753.419 674.610 C 756.611 673.809, 764.804 664.524, 768.226 657.831 C 769.725 654.899, 773.324 650.167, 776.225 647.315 C 780.006 643.599, 782.186 640.341, 783.921 635.815 C 787.433 626.656, 787.578 626.560, 797.343 626.865 C 812.788 627.349, 824.216 622.814, 837 611.130 C 854.023 595.571, 862.525 576.469, 862.428 554 C 862.364 539.345, 858.875 529.776, 850.045 520.040 C 847.820 517.587, 846 515.184, 846 514.700 C 846 514.215, 848.016 511.460, 850.479 508.576 C 859.278 498.277, 862.957 484.326, 860.059 472.247 C 858.869 467.284, 858.899 467.150, 862.198 462.856 C 864.038 460.460, 866.363 457.557, 867.363 456.404 C 873.769 449.019, 876.772 430.479, 873.585 418 C 871.276 408.962, 868.792 404.273, 863.377 398.727 L 858.717 393.953 860.370 390.227 C 864.147 381.713, 864.136 357.493, 860.350 347.824 C 854.766 333.561, 840.066 320.749, 825.500 317.449 C 815.981 315.293, 815 314.669, 815 310.772 C 815 306.135, 812.104 296.075, 809.323 291.051 C 805.714 284.531, 802.307 280.231, 796.018 274.261 C 790.820 269.325, 778.001 262, 774.562 262 C 773.703 262, 773 261.522, 773 260.937 C 773 260.353, 772.212 260.004, 771.250 260.162 C 770.288 260.321, 768.833 260.032, 768.017 259.522 C 765.567 257.989, 749.867 257.663, 746.500 259.075 C 744.850 259.766, 743.275 260.408, 743 260.500 C 742.725 260.592, 741.233 261.192, 739.685 261.834 C 738.137 262.475, 736.314 263, 735.635 263 C 733.854 263, 732 260.883, 732 258.850 C 732 256.006, 726.121 247.983, 718.736 240.750 C 711.053 233.225, 702.120 228.344, 690.500 225.322 C 686.650 224.321, 683.350 223.164, 683.167 222.751 C 682.651 221.589, 660 221.833, 660 223 M 662 239.975 C 650.349 241.683, 642.177 245.831, 633.350 254.518 C 624.655 263.075, 625.853 270.014, 634.642 262 C 641.582 255.672, 649.782 250.831, 655.739 249.545 C 657.520 249.161, 659.234 248.431, 659.548 247.923 C 660.268 246.758, 673.697 246.700, 674.413 247.859 C 674.705 248.331, 677.969 249.028, 681.667 249.407 C 690.453 250.307, 699.930 255.248, 707.391 262.820 C 713.825 269.349, 720 278.294, 720 281.087 C 720 282.139, 720.502 283, 721.117 283 C 721.732 283, 721.976 282.214, 721.660 281.250 C 721.345 280.288, 720.567 277.475, 719.932 275 C 717.146 264.148, 708.590 252.521, 699 246.555 C 690.068 240.998, 674.236 238.182, 662 239.975 M 573.500 249.068 C 571.850 250.125, 569.703 250.992, 568.728 250.995 C 565.097 251.006, 553.927 256.988, 549.089 261.514 C 544.224 266.064, 540.813 271.634, 539.450 277.250 C 539.083 278.762, 539.202 280, 539.714 280 C 540.611 280, 545.965 272.510, 546.033 271.160 C 546.087 270.087, 549.748 266, 550.660 265.995 C 551.122 265.993, 553.109 264.530, 555.075 262.745 C 563.246 255.328, 581.938 249.918, 592 252.058 C 594.475 252.585, 598.075 253.311, 600 253.673 C 601.925 254.034, 604.741 255.242, 606.257 256.358 C 608.198 257.786, 609.327 258.073, 610.073 257.327 C 611.393 256.007, 604.428 251.729, 598.250 250.067 C 595.913 249.438, 594 248.490, 594 247.961 C 594 247.414, 590.233 247.031, 585.250 247.073 C 578.415 247.130, 575.844 247.567, 573.500 249.068 M 746.935 277.341 C 738.147 279.849, 733.246 282.646, 734.841 284.241 C 735.580 284.980, 737.716 284.909, 741.990 284.002 C 749.988 282.305, 764.203 283.231, 767.863 285.689 C 769.314 286.662, 772.750 288.531, 775.500 289.841 C 780.548 292.246, 789 299.526, 789 301.468 C 789 302.046, 789.860 303.056, 790.910 303.712 C 791.961 304.368, 793.128 306.306, 793.504 308.020 C 793.881 309.733, 794.818 312.342, 795.588 313.817 C 796.358 315.293, 796.990 317.288, 796.994 318.250 C 796.997 319.212, 797.450 320, 798 320 C 800.750 320, 797.592 305.253, 793.379 298.429 C 790.142 293.184, 783.566 285.187, 782 284.591 C 781.175 284.276, 778.548 282.906, 776.162 281.546 C 772.059 279.207, 758.416 274.895, 755.739 275.091 C 755.057 275.141, 751.096 276.153, 746.935 277.341 M 497.644 286.469 C 496.623 287.243, 493.503 288.691, 490.711 289.688 C 485.900 291.405, 475 300.047, 475 302.144 C 475 302.663, 473.875 304.301, 472.500 305.783 C 471.125 307.266, 470 308.998, 470 309.631 C 470 310.264, 469.110 312.743, 468.022 315.141 C 466.065 319.453, 465.434 325.362, 466.605 328.412 C 467.582 330.959, 468.835 329.285, 469.557 324.468 C 470.919 315.384, 483.662 299.163, 493.258 294.299 C 501.053 290.348, 508.633 288.686, 515.608 289.401 C 522.177 290.074, 523.722 289.122, 520.800 286.200 C 519.021 284.421, 500.057 284.642, 497.644 286.469 M 535.380 287.452 C 535.074 288.251, 535.114 289.376, 535.470 289.952 C 536.635 291.837, 538 291.053, 538 288.500 C 538 285.789, 536.282 285.102, 535.380 287.452 M 797.722 333.323 C 796.736 336.252, 798.251 338.108, 801.381 337.804 C 805.435 337.409, 805.398 335.207, 801.309 333.488 C 798.916 332.482, 798.019 332.441, 797.722 333.323 M 808.750 333.080 C 806.290 334.513, 806.480 336.949, 809 336.290 C 810.100 336.002, 811 336.207, 811 336.744 C 811 337.282, 813.275 337.991, 816.055 338.320 C 819.563 338.736, 822.284 339.849, 824.949 341.959 C 827.060 343.632, 829.271 345, 829.862 345 C 832.407 345, 842.161 360.566, 843.961 367.500 C 845.176 372.179, 846.621 374.712, 847.548 373.785 C 848.608 372.725, 845.852 358.854, 843.715 354.500 C 841.423 349.829, 834.846 341.505, 830.816 338.175 C 825.103 333.454, 812.932 330.644, 808.750 333.080 M 452.180 346.520 C 444.248 349.966, 436.035 360.594, 433.600 370.565 C 431.556 378.938, 431.748 387.500, 433.980 387.500 C 435.090 387.500, 435.388 386.494, 435.171 383.480 C 435.008 381.234, 435.566 378.144, 436.434 376.480 C 437.289 374.841, 437.990 372.868, 437.994 372.096 C 438.002 370.201, 442.777 360.221, 445.323 356.778 C 446.452 355.250, 447.966 354, 448.688 354 C 449.410 354, 450 353.325, 450 352.500 C 450 351.675, 450.675 351, 451.500 351 C 452.325 351, 453 350.523, 453 349.941 C 453 349.359, 453.337 349.087, 453.750 349.338 C 454.163 349.589, 455.309 348.715, 456.297 347.397 C 458.407 344.582, 457.224 344.330, 452.180 346.520 M 629.537 358.541 C 625.812 363.007, 617.323 368.682, 611.765 370.420 C 609.419 371.154, 606.150 372.325, 604.500 373.023 C 602.850 373.721, 600.307 374.197, 598.849 374.081 C 597.391 373.965, 595.902 374.349, 595.540 374.935 C 594.683 376.322, 587.315 376.319, 586.457 374.931 C 586.094 374.343, 584.155 373.973, 582.148 374.108 C 580.064 374.249, 576.409 373.421, 573.623 372.177 C 570.940 370.980, 568.530 370, 568.267 370 C 568.003 370, 566.083 368.650, 564 367 C 561.917 365.350, 559.827 363.983, 559.356 363.961 C 558.885 363.940, 557.591 362.478, 556.479 360.711 C 554.057 356.862, 551.710 356.563, 551.010 360.015 C 550.729 361.398, 549.600 363.847, 548.500 365.456 C 545.108 370.419, 530.436 384.727, 527.920 385.526 C 526.610 385.941, 524.397 387.125, 523.002 388.156 C 519.653 390.633, 508.679 391.660, 502.417 390.084 C 496.942 388.705, 496.040 389.383, 496.015 394.897 C 495.998 398.710, 492.377 409.660, 490.334 412.079 C 489.600 412.947, 488.988 414.072, 488.972 414.579 C 488.957 415.085, 487.337 416.625, 485.371 418 C 478.430 422.856, 478.369 422.978, 477.693 433.272 C 477.070 442.754, 475.437 451.559, 473.941 453.500 C 473.517 454.050, 472.887 463.050, 472.540 473.500 C 472.193 483.950, 471.684 493.962, 471.409 495.750 C 470.987 498.492, 471.219 499, 472.893 499 C 473.984 499, 476.246 497.750, 477.919 496.221 C 481.888 492.596, 490.021 488.532, 497.383 486.495 C 511.998 482.451, 544.444 482.484, 554.651 486.554 C 566.792 491.394, 575.063 497.400, 580.726 505.484 L 582.816 508.467 589.322 506.734 C 597.727 504.494, 605.681 504.562, 614.884 506.952 L 622.268 508.869 628.384 502.594 C 636.751 494.009, 647.581 488.809, 661.705 486.598 C 680.987 483.579, 701.562 485.175, 713.777 490.639 C 716.680 491.938, 719.605 493.014, 720.277 493.032 C 720.950 493.049, 722.374 493.724, 723.441 494.532 C 724.509 495.339, 726.108 496, 726.996 496 C 728.675 496, 733.645 500.350, 738.070 505.693 C 740.405 508.511, 741.367 508.868, 748.570 509.585 C 752.932 510.020, 760.325 510.403, 765 510.437 L 773.500 510.500 773.159 504.500 C 772.940 500.668, 772.194 497.777, 771.093 496.500 C 768.171 493.110, 765.549 488.559, 765.807 487.325 C 765.942 486.679, 765.591 485.865, 765.027 485.516 C 763.661 484.672, 763.680 467.316, 765.048 466.470 C 765.624 466.114, 765.965 465.051, 765.805 464.107 C 765.645 463.163, 766.360 461.100, 767.393 459.523 C 769.528 456.265, 768.833 454.249, 764.908 452.311 C 762.170 450.959, 754 442.674, 754 441.250 C 754 440.733, 753.116 439.510, 752.035 438.532 C 750.954 437.554, 749.330 434.222, 748.426 431.127 C 746.814 425.609, 746.844 421.593, 748.593 408.893 L 749.228 404.286 741.864 404.700 C 734.264 405.128, 729.563 403.776, 720.070 398.431 C 715.061 395.610, 708.001 389, 707.993 387.123 C 707.990 386.230, 707.117 384.180, 706.053 382.567 C 704.970 380.923, 703.823 376.857, 703.444 373.317 C 702.834 367.623, 702.544 367, 700.506 367 C 699.262 367, 697.685 367.675, 697 368.500 C 696.315 369.325, 695.240 370, 694.610 370 C 693.980 370, 691.839 371.104, 689.853 372.454 C 687.867 373.804, 685.973 374.640, 685.645 374.312 C 685.317 373.983, 684.475 374.154, 683.774 374.690 C 679.372 378.057, 664.202 378.750, 657.500 375.890 C 655.850 375.185, 654.047 374.576, 653.494 374.536 C 650.290 374.301, 638.364 363.635, 635.895 358.795 C 634.831 356.708, 633.628 355, 633.224 355 C 632.820 355, 631.160 356.593, 629.537 358.541 M 847 409.531 C 847 410.374, 847.675 411.322, 848.500 411.638 C 849.325 411.955, 850 412.884, 850 413.703 C 850 414.521, 850.739 416.611, 851.643 418.346 C 854.498 423.827, 854.735 424.479, 855.543 429.038 C 856.248 433.012, 856.414 433.226, 857.067 431 C 858.492 426.142, 857.970 421.638, 855.364 416.311 C 852.113 409.667, 847 405.523, 847 409.531 M 531 450.891 C 531 451.380, 529.538 452.007, 527.750 452.283 C 511.019 454.863, 505.839 457.141, 501.652 463.756 C 499.449 467.237, 499.390 467.676, 500.821 470 C 504.947 476.704, 508.295 478.168, 513.596 475.585 C 515.193 474.807, 519.963 473.624, 524.195 472.957 C 531.385 471.823, 534.313 471.902, 547.696 473.589 C 550.553 473.949, 553.928 473.969, 555.196 473.632 C 557.880 472.918, 563 466.081, 563 463.209 C 563 458.990, 552.125 452, 545.562 452 C 544.703 452, 544 451.550, 544 451 C 544 450.436, 541.167 450, 537.500 450 C 533.925 450, 531 450.401, 531 450.891 M 664.443 453.393 C 655.291 455.201, 649 460.423, 649 466.214 C 649 467.900, 649.782 469.472, 651 470.232 C 652.100 470.919, 653 472.048, 653 472.741 C 653 474.301, 653.067 474.307, 672.070 474.413 C 684.472 474.482, 688.338 474.841, 691.070 476.175 C 692.956 477.097, 697.623 478.840, 701.440 480.050 C 708.235 482.204, 708.452 482.211, 711.773 480.423 C 713.639 479.418, 715.985 476.989, 716.988 475.024 C 718.554 471.953, 718.631 471.035, 717.532 468.476 C 714.354 461.071, 705.937 457.090, 685.922 453.527 C 676.020 451.764, 672.788 451.744, 664.443 453.393 M 512.470 502.048 C 512.226 502.444, 510.027 503.707, 507.585 504.855 C 496.011 510.295, 479.543 533.353, 485.578 535.668 C 486.756 536.120, 487.989 535.519, 489.408 533.801 C 494.225 527.968, 495 526.953, 495 526.472 C 495 526.194, 496.913 524.027, 499.250 521.656 C 501.587 519.285, 505.341 515.355, 507.590 512.923 C 509.840 510.490, 513.123 507.436, 514.885 506.136 C 516.648 504.836, 517.932 503.297, 517.738 502.715 C 517.333 501.500, 513.138 500.968, 512.470 502.048 M 664.994 505.934 C 659.957 507.466, 656.371 509.984, 650.407 516.175 C 643.629 523.212, 640 528.904, 640 532.498 C 640 533.809, 639.550 535.160, 639 535.500 C 637.331 536.532, 637.879 538, 639.934 538 C 641.095 538, 643.678 535.704, 646.402 532.250 C 648.896 529.087, 655.616 521.902, 661.335 516.283 C 672.875 504.943, 673.432 503.367, 664.994 505.934 M 446.248 521.250 C 442.154 525.634, 439.111 536.696, 439.044 547.436 C 438.998 554.618, 441.814 567.140, 444.679 572.500 C 446.472 575.853, 450.975 581, 452.116 581 C 452.524 581, 453.039 577.063, 453.259 572.250 C 453.480 567.438, 454.460 554.800, 455.438 544.167 L 457.215 524.834 454.421 521.917 C 451.065 518.414, 449.049 518.250, 446.248 521.250 M 592.208 523.795 C 585.947 525.812, 585.036 526.994, 585.015 533.122 C 585.001 537.522, 582.092 547.898, 578.474 556.454 C 575.910 562.519, 568.723 571.253, 561.692 576.847 C 546.918 588.603, 523.570 591.253, 501 583.737 C 490.916 580.379, 477.394 566.245, 473.505 555 C 473.410 554.725, 472.736 553.150, 472.006 551.500 L 470.681 548.500 469.959 551.500 C 469.562 553.150, 469.183 560.882, 469.118 568.682 L 469 582.864 471.868 584.906 C 475.441 587.450, 477.434 592.080, 476.648 596.009 C 476.115 598.676, 476.479 599.277, 479.960 601.475 C 483.128 603.475, 484.031 604.757, 484.714 608.222 C 485.439 611.899, 486.031 612.654, 488.927 613.598 C 491.728 614.512, 492.625 615.577, 494.245 619.920 L 496.193 625.143 500.060 624.490 C 503.353 623.933, 504.304 624.213, 506.464 626.373 C 507.859 627.768, 509 630.055, 509 631.455 C 509 633.437, 509.498 633.993, 511.250 633.968 C 512.487 633.951, 514.331 633.307, 515.347 632.537 C 517.329 631.036, 519.471 631.422, 522.213 633.773 C 525.117 636.265, 527 634.591, 527 629.519 C 527 624.133, 532.876 611.029, 536.609 608.093 C 537.924 607.059, 539 605.918, 539 605.558 C 539 604.316, 544.507 600.120, 546.968 599.487 C 548.325 599.138, 551.226 597.536, 553.415 595.926 C 555.603 594.317, 558.374 593, 559.572 593 C 564.933 593, 568.169 591.686, 569.148 589.111 C 571.624 582.598, 576.214 581.299, 582.257 585.400 C 584.202 586.720, 586.700 588.087, 587.807 588.439 C 588.914 588.790, 590.365 589.735, 591.032 590.539 C 592.596 592.423, 598.399 592.429, 599.961 590.547 C 601.638 588.527, 611.780 585.728, 614.735 586.470 C 616.075 586.806, 618.371 588.291, 619.836 589.769 C 622.018 591.971, 623.315 592.427, 627 592.287 C 629.930 592.177, 633.245 592.936, 636.500 594.464 C 639.250 595.754, 643.571 597.563, 646.102 598.484 C 648.699 599.429, 653.561 602.737, 657.263 606.079 C 660.872 609.336, 664.201 612.017, 664.662 612.039 C 665.879 612.095, 670.037 621.119, 670.017 623.660 C 669.999 626.008, 674.806 634, 676.237 634 C 676.721 634, 676.840 634.450, 676.500 635 C 676.160 635.550, 676.359 636, 676.941 636 C 677.523 636, 678 637.275, 678 638.833 C 678 643.022, 678.706 643.094, 682.509 639.291 C 686.095 635.705, 687.375 635.582, 692.876 638.299 C 695.025 639.361, 695.565 639.110, 698.528 635.683 C 702.364 631.246, 707.781 629.278, 711.168 631.090 C 713.059 632.102, 713.629 631.933, 715.249 629.883 C 723.941 618.885, 724.136 618.737, 729.168 619.334 C 733.789 619.881, 733.877 619.839, 734.561 616.721 C 735.431 612.760, 739.567 606.103, 741.656 605.302 C 742.521 604.970, 744.407 604.654, 745.848 604.599 C 748.075 604.515, 748.559 603.938, 749.076 600.753 C 749.709 596.854, 752.422 593, 754.534 593 C 755.779 593, 757.369 589.653, 758.420 584.819 C 758.741 583.345, 760.624 580.420, 762.605 578.320 C 764.899 575.887, 766.370 573.230, 766.657 571.001 C 767.762 562.418, 768.218 560.868, 770.295 558.627 C 772.331 556.429, 772.500 555.260, 772.500 543.373 L 772.500 530.500 766.500 529.859 C 763.200 529.506, 757.082 529.168, 752.905 529.109 C 743.732 528.977, 742.548 529.929, 741.550 538.234 C 741.170 541.388, 740.442 544.227, 739.930 544.543 C 739.419 544.859, 739 546.232, 739 547.594 C 739 550.416, 731.907 564.363, 728.749 567.750 C 727.595 568.987, 726.917 570, 727.241 570 C 727.565 570, 725.281 572.624, 722.165 575.831 C 716.880 581.270, 713.560 583.280, 698.317 590.266 C 697.117 590.816, 695.484 591.016, 694.689 590.711 C 693.894 590.406, 692.717 590.684, 692.072 591.328 C 690.664 592.737, 669.516 592.959, 666.500 591.597 C 665.400 591.100, 664.050 590.624, 663.500 590.540 C 662.950 590.455, 661.600 590.031, 660.500 589.598 C 659.400 589.165, 656.025 587.878, 653 586.739 C 646.074 584.131, 639.497 579.421, 633.318 572.647 C 628.157 566.989, 622 555.824, 622 552.124 C 622 550.884, 621.509 548.951, 620.909 547.830 C 620.309 546.709, 619.522 541.915, 619.159 537.176 L 618.500 528.559 612.778 525.635 C 605.807 522.074, 599.345 521.496, 592.208 523.795 M 817.055 524.727 C 816.261 525.040, 812.515 527.436, 808.732 530.050 C 801.485 535.058, 798.778 538.806, 797.573 545.500 C 797.176 547.700, 796.285 550.400, 795.592 551.500 C 792.613 556.225, 791.954 560.159, 793.162 566.004 C 794.228 571.167, 794.138 572.083, 792.167 576.155 C 789.655 581.344, 789.465 584.709, 791.532 587.441 C 793.446 589.972, 793.401 593.456, 791.429 595.429 C 790.564 596.293, 790.227 597.007, 790.679 597.015 C 791.130 597.024, 790.959 597.375, 790.297 597.795 C 788.410 598.995, 787.440 606.884, 789.125 607.332 C 789.881 607.533, 792.075 608.266, 794 608.963 C 795.925 609.659, 798.749 610.455, 800.275 610.732 C 803.100 611.243, 816.605 607.447, 817.582 605.867 C 817.877 605.390, 818.981 605, 820.036 605 C 821.091 605, 822.691 603.875, 823.592 602.500 C 824.493 601.125, 825.815 600, 826.531 600 C 827.936 600, 832.840 594.059, 834.787 590 C 835.446 588.625, 836.541 586.600, 837.220 585.500 C 840.384 580.376, 841.432 578.425, 841.517 577.500 C 841.568 576.950, 842.172 575.167, 842.861 573.537 C 846.826 564.150, 846.945 546.997, 843.101 539 C 838.643 529.729, 831.042 523.958, 823.446 524.079 C 820.726 524.122, 817.850 524.414, 817.055 524.727 M 238.973 545.692 C 233.810 549.225, 233.260 552.077, 235.978 561.205 C 237.172 565.217, 239.264 572.325, 240.625 577 C 241.987 581.675, 243.622 586.625, 244.259 588 C 244.896 589.375, 245.479 590.950, 245.554 591.500 C 245.629 592.050, 246.651 594.525, 247.824 597 C 248.996 599.475, 249.966 602.412, 249.978 603.527 C 250.031 608.380, 254.968 613, 260.102 613 C 263.029 613, 264.375 612.344, 266.411 609.923 C 269.526 606.222, 269.522 606.309, 266.944 598.070 C 265.813 594.457, 263.504 587, 261.812 581.500 C 260.120 576, 258.368 570.600, 257.919 569.500 C 256.778 566.712, 254.417 559.300, 253.075 554.295 C 250.702 545.448, 244.689 541.780, 238.973 545.692 M 163.817 600.042 C 162.892 600.582, 161.434 602.429, 160.577 604.146 C 159.293 606.720, 159.237 607.717, 160.260 609.824 C 161.702 612.796, 176.651 625.629, 192.731 637.700 C 198.909 642.337, 204.223 646.551, 204.540 647.065 C 205.313 648.315, 210.654 648.256, 213.055 646.970 C 215.698 645.556, 218.280 640.250, 217.614 637.599 C 217.018 635.225, 208.376 627.248, 195.952 617.604 C 186.581 610.330, 178.863 604.634, 177.716 604.148 C 177.260 603.954, 175.807 602.716, 174.489 601.398 C 171.949 598.858, 166.939 598.221, 163.817 600.042 M 591.149 621.528 C 587.543 624.562, 582.763 624.963, 578.217 622.612 C 576.417 621.681, 572.757 620.825, 570.085 620.710 C 565.984 620.533, 564.914 620.886, 563.224 622.972 C 561.643 624.924, 560.249 625.461, 556.590 625.530 C 551.134 625.633, 548.523 628.295, 549.220 633.043 C 549.454 634.642, 549.232 636.089, 548.726 636.258 C 548.219 636.427, 547.593 639.475, 547.335 643.033 C 546.879 649.305, 546.968 649.606, 550.274 653.016 C 552.150 654.949, 554.469 658.185, 555.428 660.207 C 557.328 664.211, 561.500 667.618, 562.507 665.989 C 563.327 664.661, 568 664.721, 568 666.059 C 568 666.641, 568.450 666.840, 569 666.500 C 569.550 666.160, 570.004 666.246, 570.008 666.691 C 570.012 667.136, 571.212 668.055, 572.674 668.734 C 575.852 670.210, 578 668.929, 578 665.559 C 578 661.739, 581.046 652.927, 582.298 653.125 C 582.959 653.230, 584.318 652.960, 585.317 652.525 C 586.359 652.072, 587.585 652.185, 588.189 652.789 C 588.769 653.369, 589.818 653.623, 590.521 653.354 C 591.223 653.084, 592.095 653.344, 592.458 653.932 C 593.292 655.282, 598.675 655.334, 599.500 654 C 600.397 652.549, 608.197 652.833, 610.250 654.392 C 611.602 655.418, 612 657.204, 612 662.238 C 612 670.016, 613.173 671.472, 618.715 670.575 C 621.221 670.169, 623.468 670.475, 625.364 671.481 C 629.281 673.558, 629.618 673.483, 634.271 669.500 C 637.193 666.999, 639.323 666, 641.735 666 C 644.847 666, 645.304 665.579, 647.583 660.599 C 648.943 657.629, 650.718 654.649, 651.528 653.977 C 653.094 652.677, 653.583 645.478, 652.164 644.601 C 651.190 643.999, 651.275 640.982, 652.314 639.302 C 652.709 638.662, 652.595 637.868, 652.060 637.537 C 651.525 637.206, 651.341 636.275, 651.651 635.468 C 651.960 634.661, 651.746 634, 651.174 634 C 650.603 634, 649.828 632.987, 649.452 631.750 C 648.266 627.837, 644.901 625, 641.448 625 C 639.686 625, 637.685 624.325, 637 623.500 C 636.315 622.675, 635.276 622, 634.690 622 C 634.105 622, 634.835 623.262, 636.313 624.805 C 640.261 628.926, 639.781 631.744, 634.119 637.680 C 630.148 641.843, 627.772 643.321, 621.369 645.612 C 613.890 648.286, 612.681 648.422, 597 648.334 C 577.127 648.223, 571.781 646.741, 565.093 639.485 C 560.040 634.003, 559.789 630.802, 564.055 626.250 C 568.197 621.831, 571.203 622.015, 577.175 627.051 C 582.312 631.382, 588.137 633.001, 598.500 632.977 C 605.538 632.961, 617.245 630.313, 618.255 628.509 C 618.719 627.679, 619.766 627, 620.581 627 C 622.261 627, 623.487 624.597, 622.567 623.108 C 622.181 622.484, 620.686 622.651, 618.510 623.560 C 612.767 625.960, 606.717 625.410, 601.339 622 C 595.594 618.357, 594.953 618.327, 591.149 621.528 M 210.850 772.363 C 206.241 773.799, 203.255 776.493, 201.303 780.980 C 199.961 784.063, 199.784 795.883, 199.873 876.153 C 199.931 928.251, 200.367 968.819, 200.882 970.153 C 201.380 971.444, 202.997 973.625, 204.474 975 L 207.161 977.500 341.954 977.761 L 476.748 978.021 480.374 974.008 L 484 969.994 483.994 878.247 C 483.991 819.308, 483.626 785.194, 482.975 782.848 C 482.395 780.761, 480.325 777.719, 478.142 775.747 C 474.520 772.475, 473.841 772.265, 464.912 771.657 C 447.454 770.468, 214.859 771.114, 210.850 772.363 M 722.481 772.335 C 719.119 773.865, 713.280 780.067, 712.100 783.361 C 711.678 784.537, 711.380 825.775, 711.437 875 C 711.536 960.025, 711.633 964.637, 713.374 967.232 C 714.382 968.735, 716.623 970.840, 718.353 971.909 C 721.425 973.806, 724.643 973.857, 852.500 974.006 C 924.550 974.090, 984.218 974.123, 985.094 974.079 C 987.403 973.965, 992 969.730, 992 967.718 C 992 966.773, 992.337 966, 992.750 966 C 993.163 966, 993.392 924.742, 993.261 874.315 L 993.021 782.630 990.515 778.843 C 985.311 770.980, 996.826 771.616, 853.500 771.270 C 746.596 771.012, 725.002 771.188, 722.481 772.335 M 216.022 787.473 C 214.347 789.491, 214.380 910.287, 216.055 910.849 C 216.628 911.042, 227.312 901.076, 239.798 888.703 C 272.753 856.048, 277.430 852.295, 283.710 853.473 C 285.778 853.861, 288.827 855.434, 290.485 856.968 C 292.143 858.502, 295.863 861.898, 298.750 864.515 C 301.637 867.132, 304 869.712, 304 870.248 C 304 870.784, 309.175 876.326, 315.500 882.563 C 321.825 888.801, 327 894.216, 327 894.596 C 327 894.977, 330.172 898.423, 334.049 902.254 C 337.926 906.085, 341.802 910.295, 342.664 911.610 C 344.895 915.015, 347.241 914.582, 351.381 910 C 353.369 907.800, 355.292 906, 355.655 906 C 356.248 906, 371.037 893.208, 373.500 890.565 C 375.216 888.724, 384.360 881.497, 387.377 879.598 C 391.700 876.877, 395.589 876.048, 399.264 877.062 C 403.084 878.117, 416.983 890.111, 441.500 913.508 C 463.588 934.587, 467.310 938.024, 467.667 937.666 C 468.508 936.825, 467.962 788.562, 467.116 787.716 C 466.519 787.119, 419.206 786.598, 341.735 786.337 C 230.039 785.960, 217.181 786.077, 216.022 787.473 M 745 787 L 728.500 787.500 728.231 810.469 C 728.075 823.761, 727.548 833.852, 726.981 834.419 C 725.682 835.718, 725.700 857.697, 727 858.500 C 727.612 858.878, 728 866.824, 728 879 C 728 891.176, 727.612 899.122, 727 899.500 C 725.665 900.325, 725.722 905.322, 727.083 906.683 C 727.860 907.460, 731.178 904.742, 738.833 897.061 C 757.876 877.953, 783.402 854.786, 787.500 852.892 C 792.929 850.383, 795.019 850.530, 799.684 853.750 C 803.343 856.275, 834.731 888.960, 852.150 908.383 C 855.217 911.804, 855.888 912.130, 857.776 911.120 C 858.954 910.489, 861.115 908.404, 862.578 906.487 C 864.041 904.569, 865.752 903, 866.382 903 C 867.011 903, 871.120 899.828, 875.513 895.951 C 890.438 882.780, 902.774 873.997, 906.301 874.031 C 910.496 874.072, 915.450 877.212, 925.017 885.892 C 929.325 889.802, 933.334 893, 933.925 893 C 934.516 893, 935.002 893.563, 935.005 894.250 C 935.008 894.938, 936.910 897.075, 939.232 899 C 941.554 900.925, 946.338 905.538, 949.864 909.250 C 953.390 912.962, 956.775 916.005, 957.387 916.010 C 957.999 916.016, 959.400 917.175, 960.500 918.585 C 961.600 919.995, 964.798 923.478, 967.607 926.325 C 970.415 929.171, 973.243 932.513, 973.892 933.750 C 974.540 934.987, 975.718 936, 976.509 936 C 977.749 936, 977.946 925.717, 977.934 861.953 C 977.923 804.949, 977.641 787.807, 976.710 787.477 C 974.933 786.847, 764.365 786.413, 745 787 M 411 804.122 C 409.075 804.704, 405.361 806.715, 402.748 808.590 C 400.134 810.466, 397.631 812, 397.186 812 C 395.892 812, 392.580 817.065, 390.198 822.685 C 387.061 830.086, 387.077 843.433, 390.230 849.745 C 393.209 855.710, 402.701 864.355, 408.695 866.562 C 411.338 867.535, 413.928 868.706, 414.450 869.165 C 415.678 870.244, 421.318 870.247, 422.550 869.169 C 423.072 868.711, 425.360 867.809, 427.633 867.163 C 443.830 862.564, 455.674 846.829, 451.609 835.310 C 450.758 832.897, 450.387 829.536, 450.707 827.147 C 451.175 823.658, 450.739 822.314, 447.610 817.600 C 443.642 811.622, 440.913 809.345, 433.933 806.184 C 428.504 803.727, 416.018 802.603, 411 804.122 M 906.170 810.931 C 901.371 815.036, 900.661 820.855, 904.523 824.434 C 908.337 827.968, 912.576 827.781, 916.856 823.890 C 921.667 819.516, 922.269 814.258, 918.372 810.645 C 914.600 807.146, 910.480 807.243, 906.170 810.931 M 939.687 810.805 C 936.792 813.827, 936.168 818.370, 938.282 821.037 C 940.657 824.033, 945.849 827, 948.717 827 C 952.331 827, 957 822.420, 957 818.875 C 957 817.436, 955.470 814.572, 953.422 812.180 C 948.858 806.848, 943.949 806.356, 939.687 810.805 M 411.340 819.834 C 405.069 824.801, 404.420 825.661, 403.041 830.820 C 402.079 834.414, 402.173 836.009, 403.596 840.320 C 406.905 850.338, 410.588 853, 421.143 853 C 426.912 853, 427.161 852.884, 432.404 847.750 C 437.262 842.993, 437.827 841.979, 438.429 836.953 C 439.259 830.021, 438.760 828.744, 433.224 823.629 C 423.302 814.462, 419.052 813.725, 411.340 819.834 M 900.936 833.809 C 898.955 836.327, 898.518 840.340, 899.623 845.864 C 900.659 851.045, 910.862 861.287, 917.530 863.838 C 929.269 868.331, 941.792 865.699, 951.680 856.661 C 957.984 850.900, 961 845.619, 961 840.345 C 961 831.948, 950.902 828.266, 947.133 835.288 C 944.757 839.715, 939.077 845.909, 935.875 847.565 C 934.348 848.354, 931.119 849, 928.698 849 C 922.495 849, 918.188 845.827, 914.433 838.492 C 911.542 832.844, 911.121 832.467, 907.118 831.924 C 903.431 831.424, 902.616 831.673, 900.936 833.809 M 785.829 874.922 C 782.793 877.990, 776.522 884.100, 771.893 888.500 C 756.855 902.794, 733.804 924.487, 733.108 925 C 732.735 925.275, 731.251 927.037, 729.810 928.916 C 727.698 931.669, 727.406 932.677, 728.304 934.115 C 729.311 935.727, 729.664 935.539, 731.959 932.165 C 733.357 930.111, 736.949 926.196, 739.942 923.465 C 742.935 920.734, 746.694 917.038, 748.295 915.250 C 749.897 913.462, 751.836 912, 752.604 912 C 753.372 912, 754 911.325, 754 910.500 C 754 909.675, 754.675 909, 755.500 909 C 756.325 909, 757.002 908.438, 757.005 907.750 C 757.007 907.063, 758.582 904.787, 760.505 902.694 C 762.427 900.601, 764 898.663, 764 898.388 C 764 897.281, 777.020 885.541, 784.250 880.129 C 786.862 878.173, 789 876.240, 789 875.832 C 789 875.424, 790.575 874.795, 792.500 874.434 C 796.638 873.658, 797.434 870.507, 793.674 869.789 C 791.877 869.445, 790.093 870.613, 785.829 874.922 M 797.393 876.582 C 797.727 877.452, 798 878.802, 798 879.582 C 798 880.427, 799.007 881, 800.492 881 C 801.900 881, 803.526 881.869, 804.232 883 C 805.493 885.020, 807 885.674, 807 884.201 C 807 882.979, 799.071 875, 797.856 875 C 797.267 875, 797.059 875.712, 797.393 876.582 M 799.995 890.003 C 798.076 891.189, 799.277 892.243, 802.079 891.831 C 803.977 891.552, 804.103 891.313, 802.881 890.307 C 801.977 889.562, 800.893 889.448, 799.995 890.003 M 898.396 897.443 C 894.053 901.562, 890.237 904.947, 889.916 904.966 C 889.595 904.985, 887.383 906.800, 885 909 C 882.617 911.200, 880.263 913, 879.769 913 C 878.041 913, 869.001 921.515, 869 923.143 C 868.999 927.240, 872.208 925.591, 880.700 917.133 C 892.967 904.915, 904.239 896, 907.421 896 C 910.466 896, 910.793 894.028, 908.146 891.632 C 906.383 890.037, 905.905 890.321, 898.396 897.443 M 784.750 892.963 C 782.801 894.861, 782.507 896, 783.965 896 C 784.932 896, 787.453 892.080, 786.831 891.543 C 786.649 891.386, 785.712 892.025, 784.750 892.963 M 817 897.531 C 817 899.143, 819.662 900.672, 820.686 899.648 C 821.398 898.935, 819.138 896, 817.878 896 C 817.395 896, 817 896.689, 817 897.531 M 583.487 900.013 C 581.378 902.215, 580.600 904.014, 580.600 906.692 C 580.600 910.060, 581.535 911.256, 592.124 921.429 L 603.647 932.500 592.324 943.979 C 582.085 954.357, 581 955.805, 581 959.083 C 581 961.545, 581.787 963.557, 583.452 965.354 C 587.404 969.618, 590.097 968.869, 598.221 961.250 C 616.813 943.812, 623.281 937.341, 624.009 935.449 C 626.019 930.230, 622.356 925.470, 601.127 905.720 C 590.456 895.792, 588.224 895.070, 583.487 900.013 M 912.229 899.188 C 912.847 901.042, 915 901.349, 915 899.583 C 915 898.712, 914.288 898, 913.417 898 C 912.546 898, 912.011 898.534, 912.229 899.188 M 905.861 904.929 C 904.083 906.382, 903.782 907.145, 904.643 908.022 C 906.031 909.435, 911 906.592, 911 904.385 C 911 902.419, 908.625 902.670, 905.861 904.929 M 920 906.006 C 920 908.244, 923.534 911.908, 925.750 911.967 C 926.438 911.985, 927 912.675, 927 913.500 C 927 914.333, 927.889 915, 929 915 C 931.552 915, 931.580 913.574, 929.051 912.403 C 927.979 911.906, 926.066 909.960, 924.801 908.077 C 921.991 903.897, 920 903.038, 920 906.006 M 803.750 908.324 C 800.945 910.620, 800.263 912, 801.932 912 C 802.444 912, 803.825 910.650, 805 909 C 807.537 905.437, 807.379 905.352, 803.750 908.324 M 816.612 909.876 C 815.179 911.460, 815.139 911.839, 816.360 912.308 C 818.265 913.039, 821.504 910.625, 820.594 909.152 C 819.590 907.528, 818.569 907.714, 816.612 909.876 M 778.638 911.907 C 774.714 914.693, 772.102 918, 773.825 918 C 774.333 918, 776.468 916.425, 778.570 914.500 C 780.671 912.575, 782.753 911, 783.195 911 C 783.638 911, 784 910.550, 784 910 C 784 908.494, 782.884 908.891, 778.638 911.907 M 830.171 911.648 C 830.364 912.654, 831.346 913.636, 832.352 913.829 C 833.673 914.084, 834.084 913.673, 833.829 912.352 C 833.636 911.346, 832.654 910.364, 831.648 910.171 C 830.327 909.916, 829.916 910.327, 830.171 911.648 M 797 914.583 C 797 915.454, 797.534 915.989, 798.188 915.771 C 800.042 915.153, 800.349 913, 798.583 913 C 797.712 913, 797 913.712, 797 914.583 M 821.750 918.447 C 818.612 922.380, 818.432 923, 820.433 923 C 821.221 923, 822.151 922.100, 822.500 921 C 822.857 919.876, 824.013 919, 825.141 919 C 826.476 919, 827.039 918.442, 826.823 917.333 C 826.273 914.493, 824.614 914.857, 821.750 918.447 M 836 916.817 C 836 919.124, 840.539 923.554, 841.428 922.116 C 842.218 920.838, 840.334 917.690, 837.852 916.140 C 836.302 915.172, 836 915.282, 836 916.817 M 756.073 918.635 C 753.617 921.757, 753.454 923, 755.500 923 C 756.325 923, 757 922.341, 757 921.535 C 757 920.730, 757.900 919.589, 759 919 C 761.318 917.760, 761.654 916, 759.573 916 C 758.787 916, 757.212 917.186, 756.073 918.635 M 891.500 919 C 889.919 920.650, 888.907 922, 889.251 922 C 889.595 922, 891.355 920.650, 893.161 919 C 894.968 917.350, 895.980 916, 895.410 916 C 894.840 916, 893.081 917.350, 891.500 919 M 770.362 920.500 C 770.045 921.325, 769.336 922, 768.787 922 C 767.414 922, 761.599 926.702, 754.358 933.667 C 739.529 947.931, 733.134 952.819, 731.012 951.508 C 730.145 950.971, 729 953.288, 729 955.582 C 729 958.047, 731.971 957.124, 735.703 953.500 C 737.685 951.575, 739.913 950, 740.653 950 C 741.394 950, 742 949.325, 742 948.500 C 742 947.675, 742.675 947, 743.500 947 C 744.325 947, 745 946.523, 745 945.941 C 745 945.359, 745.450 945.160, 746 945.500 C 746.550 945.840, 747 945.460, 747 944.657 C 747 943.853, 748.237 942.733, 749.750 942.168 C 752.401 941.178, 761 933.939, 761 932.698 C 761 932.364, 763.475 929.515, 766.500 926.367 C 769.525 923.219, 772 920.273, 772 919.821 C 772 918.469, 770.979 918.892, 770.362 920.500 M 936 921.503 C 936 922.438, 944.245 929.495, 946.224 930.253 C 947.304 930.667, 948.416 931.873, 948.693 932.933 C 949.239 935.020, 952 936.628, 952 934.858 C 952 933.571, 943.482 925, 942.202 925 C 941.711 925, 940.495 924.100, 939.500 923 C 937.809 921.132, 936 920.358, 936 921.503 M 750.459 925.067 C 750.096 925.653, 750.005 926.339, 750.257 926.590 C 750.954 927.288, 754 925.907, 754 924.893 C 754 923.641, 751.257 923.776, 750.459 925.067 M 844.005 925.321 C 843.999 927.390, 846.556 930.329, 847.927 929.830 C 848.428 929.649, 847.751 928.150, 846.424 926.500 C 844.518 924.131, 844.009 923.883, 844.005 925.321 M 358.694 925.639 C 357.761 926.573, 358.888 928, 360.559 928 C 361.352 928, 362 927.325, 362 926.500 C 362 924.994, 359.889 924.444, 358.694 925.639 M 876 928.777 C 876 929.965, 879.010 934, 879.896 934 C 880.581 934, 883 929.677, 883 928.453 C 883 928.204, 881.425 928, 879.500 928 C 877.575 928, 876 928.350, 876 928.777 M 770.667 931.667 C 769.449 932.885, 769.978 935, 771.500 935 C 772.333 935, 773 934.111, 773 933 C 773 931.008, 771.934 930.399, 770.667 931.667 M 885.177 938.667 C 885.355 939.584, 886.027 940.510, 886.671 940.724 C 887.416 940.972, 887.647 940.366, 887.305 939.057 C 886.666 936.613, 884.709 936.254, 885.177 938.667 M 953 938.031 C 953 938.599, 953.788 939.342, 954.750 939.683 C 955.712 940.025, 957.290 940.983, 958.256 941.813 C 961.044 944.207, 961.271 942.584, 958.558 939.657 C 956.093 936.997, 953 936.092, 953 938.031 M 829.250 939.220 C 828.013 939.817, 827 940.710, 827 941.205 C 827 941.699, 825.650 942.575, 824 943.150 C 822.085 943.818, 821 944.883, 821 946.098 C 821 948.705, 822.350 948.486, 826.218 945.250 C 828.027 943.737, 830.378 942.018, 831.444 941.429 C 835.892 938.968, 833.910 936.973, 829.250 939.220 M 889.442 943.093 C 888.821 944.099, 897.526 952.852, 899.250 952.955 C 900.601 953.036, 900.035 950.108, 898.445 948.789 C 897.590 948.080, 895.549 946.263, 893.911 944.750 C 890.545 941.644, 890.377 941.581, 889.442 943.093 M 782 945.500 C 782 946.325, 781.406 947, 780.680 947 C 779.297 947, 773 952.197, 773 953.339 C 773 954.667, 776.080 953.956, 776.638 952.500 C 776.955 951.675, 777.730 951, 778.360 951 C 779.509 951, 785 945.699, 785 944.590 C 785 944.265, 784.325 944, 783.500 944 C 782.675 944, 782 944.675, 782 945.500 M 961.229 945.188 C 961.847 947.042, 964 947.349, 964 945.583 C 964 944.712, 963.288 944, 962.417 944 C 961.546 944, 961.011 944.534, 961.229 945.188 M 815.524 949.596 C 813.337 950.397, 811.110 951.490, 810.574 952.026 C 810.038 952.562, 808.840 953, 807.911 953 C 806.982 953, 805.159 953.885, 803.861 954.967 L 801.500 956.933 805.128 956.967 C 807.123 956.985, 809.291 956.354, 809.947 955.564 C 810.602 954.775, 812.345 953.852, 813.819 953.514 C 815.294 953.176, 817.309 951.797, 818.297 950.450 C 819.285 949.102, 819.960 948.032, 819.797 948.070 C 819.634 948.109, 817.711 948.796, 815.524 949.596 M 864 949.066 C 864 951.579, 866.225 954, 868.535 954 C 871.720 954, 871.662 952.666, 868.365 950.073 C 865.452 947.781, 864 947.446, 864 949.066 M 786.279 952.836 C 783.958 954.301, 782.045 955.837, 782.029 956.250 C 781.976 957.610, 784.730 957.031, 786.086 955.396 C 786.819 954.514, 788.449 953.400, 789.709 952.921 C 790.969 952.441, 792 951.588, 792 951.025 C 792 949.539, 791.005 949.854, 786.279 952.836 M 937.352 950.997 C 936.171 951.472, 934.907 952.341, 934.543 952.930 C 934.180 953.518, 932.559 954, 930.941 954 C 928.993 954, 928 954.507, 928 955.500 C 928 957.776, 934.620 957.398, 938.679 954.890 C 943.331 952.014, 942.306 949.006, 937.352 950.997 M 752.352 951.993 C 751.171 952.470, 749.907 953.341, 749.543 953.930 C 748.498 955.620, 752.664 955.193, 754.429 953.429 C 757.005 950.852, 756.333 950.387, 752.352 951.993 M 970 952.885 C 970 953.372, 971.125 954.507, 972.500 955.408 C 975.397 957.306, 975.862 956.090, 973.171 953.655 C 971.143 951.819, 970 951.542, 970 952.885 M 902.497 955.004 C 901.773 956.176, 904.335 957.388, 906.214 956.762 C 907.043 956.486, 906.723 955.922, 905.308 955.165 C 903.867 954.393, 902.909 954.339, 902.497 955.004" stroke="none" fill="#171916" fill-rule="evenodd"/>
</svg>