<svg role="img" aria-labelledby="artwork-title" shape-rendering="geometricPrecision" xmlns="http://www.w3.org/2000/svg" width="1200" height="1200" viewBox="0 0 1200 1200" version="1.1">
	<title id="artwork-title">Mascot pointing toward project metrics</title>
	<path d="M 803 212 C 803 212.550, 801.087 212.993, 798.750 212.986 C 794.018 212.969, 782.791 216.156, 776.189 219.389 C 773.818 220.550, 769.093 224.082, 765.689 227.238 C 759.380 233.087, 757.831 233.536, 754 230.623 C 751.569 228.775, 742.542 224.701, 740.500 224.531 C 739.950 224.485, 738.903 224.074, 738.173 223.617 C 735.430 221.901, 723.554 221.055, 717.750 222.163 C 714.587 222.766, 712 223.610, 712 224.036 C 712 224.463, 711.102 224.578, 710.004 224.291 C 708.906 224.004, 706.543 224.446, 704.754 225.275 C 699.938 227.503, 690.880 231.522, 687.830 232.781 C 680.790 235.689, 667 251.922, 667 257.301 C 667 258.170, 666.519 259.179, 665.932 259.542 C 665.344 259.905, 665.084 260.777, 665.354 261.479 C 665.623 262.182, 665.339 263.261, 664.722 263.878 C 663.331 265.269, 655.343 265.364, 654.500 264 C 653.745 262.778, 648.324 262.667, 647.587 263.859 C 647.296 264.331, 644.457 264.956, 641.278 265.248 C 623.688 266.862, 600.900 284.603, 596.563 300.059 C 595.546 303.684, 594.973 308.953, 595.095 313.555 C 595.315 321.865, 595.360 321.777, 589.130 325.234 C 584.536 327.783, 572.171 337.952, 572.063 339.270 C 572.028 339.693, 570.945 341.718, 569.656 343.770 C 566.683 348.501, 563 359.110, 563 362.945 C 563 364.560, 562.550 366.160, 562 366.500 C 561.450 366.840, 561 368.891, 561 371.059 C 561 373.227, 561.450 375, 562 375 C 562.550 375, 563 376.206, 563 377.680 C 563 382.314, 567.164 393.266, 571.243 399.359 L 575.165 405.219 572.699 407.859 C 564.537 416.602, 561.679 437.475, 567.102 448.736 C 569.667 454.061, 577.646 463, 582.529 466.018 L 585.730 467.996 585.760 478.843 L 585.789 489.689 589.973 497.095 C 592.274 501.168, 595.022 505.429, 596.078 506.564 C 597.135 507.700, 598 508.924, 598 509.284 C 598 509.644, 595.413 512.540, 592.250 515.719 C 589.087 518.899, 585.312 523.975, 583.860 527 C 580.667 533.651, 578 546.039, 578 554.221 C 578 560.501, 582.276 579.861, 584.452 583.431 C 594.021 599.134, 598.219 604.617, 602.074 606.453 C 606.663 608.639, 610 612.308, 610 615.166 C 610 618.066, 607.635 618.354, 602.846 616.036 C 598.869 614.111, 596.902 613.942, 579.665 614.048 C 569.306 614.112, 560.569 613.902, 560.249 613.582 C 559.512 612.846, 528.524 612.810, 527.789 613.544 C 527.078 614.256, 486.922 614.256, 486.211 613.544 C 485.522 612.855, 345.513 612.821, 344.824 613.509 C 344.101 614.232, 134.541 614.145, 132.654 613.421 C 131.797 613.092, 130.512 613.184, 129.798 613.625 C 129.085 614.066, 127.198 614.290, 125.604 614.122 C 122.442 613.791, 122.408 613.803, 109.866 619.832 C 96.111 626.444, 87.605 636.971, 84.053 651.779 C 83.282 654.992, 82.262 657, 81.400 657 C 80.206 657, 80 681.276, 80 822.369 L 80 987.738 83.750 988.358 C 90.024 989.395, 97.686 989.083, 98.796 987.746 C 99.509 986.887, 99.769 936.007, 99.623 825.996 C 99.423 676.211, 99.525 665.033, 101.154 658.500 C 103.159 650.461, 105.605 645.089, 107.610 644.319 C 108.374 644.026, 109 643.213, 109 642.512 C 109 640.453, 115.301 636.239, 121.680 634.031 C 127.588 631.987, 128.010 631.984, 364.049 632.242 L 600.500 632.500 604.849 634.821 C 614.839 640.152, 619.642 646.807, 623.558 660.744 C 625.209 666.620, 625.276 676.355, 624.695 826.131 C 624.287 931.171, 624.416 985.908, 625.074 987.137 C 626.030 988.925, 628.701 989, 691.464 989 C 764.002 989, 760 989.384, 760 982.429 C 760 978.619, 757.950 976.051, 752.803 973.414 C 748.558 971.238, 748.034 970.362, 748.015 965.409 C 748.002 961.923, 748.665 960.614, 752.500 956.554 C 758.433 950.273, 758.734 946.197, 753.452 943.678 C 751.500 942.748, 748.893 942.240, 747.658 942.550 C 746.146 942.929, 744.808 942.445, 743.561 941.068 C 741.755 939.071, 741.768 938.914, 744.105 934.486 C 746.551 929.852, 751.772 925.597, 756.454 924.422 C 760.275 923.463, 762.186 919.215, 760.811 914.736 C 759.567 910.682, 758.359 910.226, 742 907.639 C 720.119 904.179, 707.424 901.747, 706.263 900.793 C 705.582 900.234, 704.359 900.032, 703.545 900.344 C 702.730 900.657, 701.798 900.482, 701.473 899.956 C 701.148 899.430, 700.043 899, 699.018 899 C 695.994 899, 691.483 893.772, 691.580 890.381 C 691.707 885.991, 693.054 884.337, 697.500 883.112 C 706.527 880.627, 751.393 883.195, 758.587 886.608 C 760.469 887.501, 763.142 888.015, 764.528 887.750 C 765.914 887.485, 767.289 887.658, 767.583 888.134 C 767.877 888.610, 769.554 889.005, 771.309 889.012 C 773.064 889.018, 776.975 889.692, 780 890.508 C 788.485 892.799, 798.180 893.439, 800.149 891.840 C 804.399 888.387, 802.167 882.306, 795.582 879.395 C 792.130 877.870, 789 875.608, 789 874.640 C 789 873.674, 792.803 873.873, 793.420 874.871 C 793.716 875.350, 795.343 876.019, 797.036 876.357 C 801.041 877.158, 822.976 887.934, 829.837 892.471 C 832.773 894.412, 835.522 896, 835.946 896 C 837.129 896, 855 913.379, 855 914.530 C 855 915.088, 857.025 917.749, 859.500 920.445 C 861.975 923.141, 864.007 925.606, 864.016 925.923 C 864.035 926.643, 871.576 934.711, 875.183 937.872 C 876.868 939.348, 880.404 940.719, 884.683 941.555 C 895.462 943.660, 905.114 945.992, 906.878 946.917 C 907.770 947.385, 910.525 948.100, 913 948.506 C 915.475 948.912, 919.417 950.141, 921.759 951.236 C 924.101 952.332, 926.913 952.994, 928.008 952.708 C 929.102 952.422, 930.206 952.524, 930.460 952.935 C 930.714 953.347, 934.427 954.434, 938.711 955.352 C 942.995 956.269, 949.425 957.674, 953 958.472 C 956.575 959.270, 961.300 960.184, 963.500 960.503 C 968.565 961.236, 978.833 963.909, 981.655 965.228 C 982.840 965.783, 984.302 965.931, 984.905 965.559 C 985.507 965.187, 986 965.272, 986 965.748 C 986 966.225, 989.046 967.405, 992.769 968.370 C 1000.847 970.465, 1004.092 969.657, 1006.531 964.940 C 1010.579 957.113, 1002.093 951.507, 980.275 947.595 C 976.851 946.981, 973.400 945.808, 972.606 944.989 C 971.720 944.075, 971.036 940.883, 970.836 936.719 L 970.510 929.938 974.982 927.398 C 978.013 925.677, 982.037 924.560, 987.476 923.932 C 991.889 923.423, 998.200 922.557, 1001.500 922.009 C 1012.352 920.205, 1040.633 920.779, 1055.735 923.108 C 1063.251 924.268, 1070.323 925.808, 1071.451 926.532 C 1072.578 927.255, 1076.117 928.321, 1079.315 928.901 C 1082.513 929.481, 1086.396 930.858, 1087.943 931.960 C 1090.718 933.935, 1090.766 934.145, 1091.418 947.232 C 1092.048 959.886, 1090.962 981.616, 1089.522 985.173 C 1088.423 987.888, 1092.401 989.260, 1100.113 988.824 C 1103.881 988.611, 1107.450 987.950, 1108.046 987.354 C 1108.719 986.681, 1109.352 977.901, 1109.720 964.136 C 1110.045 951.961, 1110.709 942, 1111.195 942 C 1111.682 942, 1113.857 940.088, 1116.028 937.750 L 1119.975 933.500 1119.988 915.250 C 1119.995 903.700, 1119.447 893.605, 1118.494 887.750 C 1116.370 874.703, 1113.002 858.287, 1111.378 853.072 C 1110.620 850.636, 1110 847.853, 1110 846.887 C 1110 845.921, 1109.475 843.863, 1108.834 842.315 C 1108.192 840.767, 1107.591 839.275, 1107.497 839 C 1107.404 838.725, 1107.035 837.825, 1106.679 837 C 1106.322 836.175, 1104.938 832.125, 1103.603 828 C 1100.042 816.996, 1097.052 809.733, 1095.266 807.750 C 1094.399 806.788, 1093.990 806, 1094.358 806 C 1094.725 806, 1093.894 804.209, 1092.513 802.020 C 1091.131 799.831, 1090 797.548, 1090 796.948 C 1090 795.621, 1086.370 789.265, 1079.300 778.215 C 1076.385 773.659, 1074 769.571, 1074 769.132 C 1074 768.692, 1072.200 766.383, 1070 764 C 1067.800 761.617, 1066 759.354, 1066 758.971 C 1066 756.343, 1033.536 726, 1030.724 726 C 1030.268 726, 1026.206 723.627, 1021.697 720.728 C 1013.554 715.490, 1009.003 713.257, 997.500 708.854 C 994.200 707.591, 990.514 705.947, 989.309 705.202 C 988.103 704.457, 984.728 703.248, 981.809 702.516 C 978.889 701.785, 972.450 700.066, 967.500 698.698 C 962.550 697.329, 955.800 695.686, 952.500 695.046 C 949.200 694.406, 945.825 693.610, 945 693.277 C 944.175 692.945, 943.275 692.595, 943 692.500 C 942.725 692.405, 941.825 692.077, 941 691.770 C 938.991 691.024, 918.263 687.097, 914.577 686.764 C 911.097 686.450, 909.920 684.095, 912.859 683.327 C 914.685 682.849, 916.595 680.488, 920.647 673.702 C 921.278 672.645, 924.435 669.007, 927.663 665.618 C 930.890 662.228, 934.781 656.985, 936.309 653.965 C 938.628 649.382, 945.766 639.354, 951.264 632.954 C 951.995 632.103, 953.402 628.418, 954.391 624.766 C 955.379 621.113, 956.708 617.453, 957.344 616.633 C 958.619 614.987, 963.827 614.157, 965.682 615.303 C 966.331 615.704, 967.132 615.595, 967.463 615.060 C 967.794 614.525, 968.755 614.352, 969.599 614.677 C 970.444 615.001, 972.117 614.787, 973.317 614.203 C 974.518 613.618, 977.300 612.593, 979.500 611.925 C 989.156 608.993, 999.536 603.054, 1005.721 596.921 C 1009.143 593.528, 1012.515 589.458, 1013.215 587.876 C 1013.915 586.294, 1014.784 585, 1015.145 585 C 1016.951 585, 1024.312 568.538, 1026.101 560.500 C 1028.195 551.087, 1028.356 536.256, 1026.455 528.041 C 1024.191 518.262, 1021.275 512.557, 1015.079 505.776 L 1010.049 500.274 1011.943 496.387 C 1012.985 494.249, 1014.676 491.600, 1015.702 490.500 C 1016.728 489.400, 1018.662 486.025, 1020 483 C 1023.286 475.572, 1023.612 458.416, 1020.573 452.769 C 1018.358 448.653, 1018.671 447.871, 1025.638 440.111 C 1027.762 437.745, 1029.540 435.514, 1029.589 435.154 C 1029.638 434.794, 1030.763 432.250, 1032.089 429.500 C 1034.257 425.004, 1034.500 423.189, 1034.500 411.500 C 1034.500 400.749, 1034.154 397.679, 1032.500 393.754 C 1031.400 391.143, 1030.136 389.006, 1029.691 389.004 C 1029.246 389.002, 1029.182 388.514, 1029.549 387.920 C 1029.916 387.326, 1029.268 386.176, 1028.108 385.363 C 1026.949 384.551, 1026 383.294, 1026 382.571 C 1026 380.890, 1017.490 373, 1015.677 373 C 1014.925 373, 1013.481 372.084, 1012.467 370.964 C 1010.877 369.206, 1010.787 368.478, 1011.812 365.643 C 1013.615 360.656, 1013.349 339.557, 1011.406 333.500 C 1008.975 325.918, 1005.923 319.951, 1002.090 315.280 C 998.085 310.400, 988.087 302.182, 983 299.588 C 978.829 297.462, 967.984 295, 962.786 295 C 958.593 295, 957 293.100, 957 288.103 C 957 283.999, 953.873 276.356, 949.833 270.584 C 948 267.966, 946.050 265.059, 945.500 264.124 C 943.343 260.455, 940.258 257.354, 935.485 254.051 C 932.743 252.155, 930.275 250.350, 930 250.041 C 929.373 249.337, 919.665 244.696, 915 242.870 C 912.629 241.942, 906.983 241.500, 897.500 241.500 C 882.865 241.500, 882.520 241.581, 870.812 247.762 C 870.434 247.962, 868.035 244.953, 865.482 241.077 C 859.854 232.535, 849.788 223.088, 842.714 219.709 C 834.652 215.858, 825.399 213, 820.996 213 C 818.798 213, 817 212.550, 817 212 C 817 211.429, 814 211, 810 211 C 806 211, 803 211.429, 803 212 M 792.496 232.403 C 785.166 234.995, 777.626 239.553, 773.152 244.098 C 767.396 249.947, 760.831 259.801, 761.178 262.073 C 761.498 264.176, 761.513 264.174, 763.637 261.844 C 770.552 254.260, 780.245 244.997, 781.286 244.978 C 781.954 244.966, 783.625 244.076, 785 243 C 786.375 241.924, 788.084 241.034, 788.798 241.022 C 789.512 241.010, 791.987 240.059, 794.298 238.909 C 798.842 236.649, 814.348 235.070, 817.678 236.529 C 818.680 236.968, 819.725 237.404, 820 237.497 C 820.275 237.591, 821.652 238.149, 823.059 238.736 C 824.466 239.324, 827.616 240.387, 830.059 241.097 C 832.502 241.808, 836.162 243.416, 838.192 244.671 C 842.668 247.436, 850.589 255.463, 852.612 259.283 C 854.402 262.664, 856.267 261.914, 855.334 258.189 C 852.866 248.326, 839.325 236.486, 825.579 232.171 C 816.201 229.227, 801.182 229.333, 792.496 232.403 M 714 241.459 C 706.742 242.839, 700.010 245.383, 695.492 248.455 C 692.205 250.689, 684 258.642, 684 259.592 C 684 259.918, 683.100 261.329, 682 262.727 C 680.900 264.126, 680 266.469, 680 267.935 C 680 269.401, 679.460 271.140, 678.800 271.800 C 677.867 272.733, 678.034 273, 679.552 273 C 680.850 273, 682.318 271.465, 683.936 268.414 C 692.662 251.965, 722.070 240.235, 738.500 246.649 C 743.876 248.748, 749 249.486, 749 248.162 C 749 246.612, 740.092 242.400, 734.095 241.114 C 727.746 239.752, 722.510 239.842, 714 241.459 M 886.708 259.469 C 885.172 260.270, 882.472 261.200, 880.708 261.535 C 877.373 262.170, 872 266.129, 872 267.952 C 872 269.545, 876.457 269.206, 881.230 267.250 C 887.012 264.880, 899.678 264.959, 907 267.411 C 915.642 270.304, 916.166 270.580, 922.252 275.439 C 929.399 281.146, 934.220 287.686, 936.416 294.650 C 937.523 298.163, 938.648 300, 939.690 300 C 942.396 300, 940.552 291.409, 935.935 282.500 C 933.654 278.100, 931.321 273.925, 930.749 273.223 C 929.611 271.823, 921.230 266, 920.354 266 C 920.054 266, 918.614 265.181, 917.154 264.181 C 909.029 258.611, 893.083 256.143, 886.708 259.469 M 640.280 284.474 C 636.308 285.765, 631.739 287.762, 630.125 288.911 C 628.512 290.060, 626.798 291, 626.316 291 C 624.417 291, 617.909 298.471, 614.505 304.558 C 611.169 310.523, 610.933 311.501, 611.206 318.241 C 611.608 328.164, 613.699 328.161, 616.139 318.235 C 618.814 307.353, 626.967 297.110, 636 293.284 C 637.925 292.468, 640.288 291.101, 641.250 290.245 C 642.212 289.390, 643 289.040, 643 289.467 C 643 289.895, 643.734 289.636, 644.630 288.892 C 645.623 288.068, 649.239 287.455, 653.880 287.324 C 659.842 287.155, 661.570 286.771, 661.823 285.557 C 662.659 281.538, 651.097 280.957, 640.280 284.474 M 955.750 312.588 C 950.313 315.506, 953.884 317.955, 963.624 317.989 C 965.342 317.995, 968.863 319.238, 971.447 320.750 C 974.032 322.262, 976.928 323.950, 977.883 324.500 C 980.475 325.993, 989 335.869, 989 337.378 C 989 338.100, 989.855 339.464, 990.901 340.410 C 991.947 341.357, 993.092 343.676, 993.446 345.565 C 993.801 347.454, 994.520 349, 995.045 349 C 996.887 349, 995.975 341.192, 993.472 335.532 C 989.955 327.580, 978 315.792, 971.323 313.693 C 963.651 311.281, 958.823 310.939, 955.750 312.588 M 941.162 315.107 C 941.533 317.733, 945.291 318.802, 947.992 317.051 C 949.990 315.754, 948.386 314.227, 944.131 313.376 C 941.069 312.764, 940.849 312.892, 941.162 315.107 M 596.252 341.984 C 591.082 344.787, 584.620 352.227, 581.697 358.741 C 579.453 363.742, 579 366.172, 579 373.226 C 579 381.378, 580.336 388, 581.981 388 C 582.413 388, 583.075 389.012, 583.451 390.250 C 583.882 391.668, 584.330 392.025, 584.662 391.216 C 584.952 390.510, 584.676 389.314, 584.048 388.558 C 583.403 387.780, 582.866 383.348, 582.811 378.342 C 582.656 364.106, 587.706 353.572, 598.402 345.824 C 604.756 341.221, 603.104 338.268, 596.252 341.984 M 771.924 350.611 C 766.523 356.429, 751.442 366.291, 746 367.564 C 745.725 367.628, 743.827 368.428, 741.782 369.340 C 739.256 370.468, 735.319 371, 729.500 371 C 723.681 371, 719.744 370.468, 717.218 369.340 C 715.173 368.428, 713.200 367.640, 712.833 367.590 C 712.467 367.541, 711.829 367.163, 711.417 366.750 C 711.004 366.337, 710.089 366, 709.383 366 C 707.593 366, 700.082 360.780, 696.580 357.103 C 694.418 354.832, 693.331 354.310, 692.390 355.091 C 691.691 355.672, 691.374 356.811, 691.686 357.624 C 691.998 358.437, 691.355 360.091, 690.258 361.301 C 689.160 362.510, 687.964 364.761, 687.599 366.303 C 687.231 367.859, 683.725 372.347, 679.718 376.392 C 669.907 386.296, 661.829 390.161, 650.522 390.359 L 642.512 390.500 641.718 396.500 C 641.281 399.800, 640.647 403.175, 640.308 404 C 639.970 404.825, 639.781 406.237, 639.890 407.137 C 639.999 408.038, 636.531 412.538, 632.185 417.137 L 624.283 425.500 623.122 449.877 C 622.484 463.284, 621.751 474.594, 621.494 475.010 C 621.237 475.426, 621.561 481.669, 622.215 488.883 C 623.449 502.504, 624.065 503.796, 627.507 499.993 C 631.337 495.760, 643.346 491.492, 655.769 489.947 C 660.021 489.418, 665.525 488.558, 668 488.036 C 675.477 486.459, 688.100 486.879, 698.496 489.049 C 709.863 491.423, 716.091 494.978, 723.056 503.065 C 726.353 506.894, 727.937 508.022, 729.468 507.631 C 730.585 507.345, 735.100 506.190, 739.500 505.063 C 748.489 502.762, 758.781 502.414, 765.408 504.187 C 770.619 505.580, 771.800 504.922, 776.039 498.262 C 777.659 495.717, 781.286 492.370, 785.118 489.884 C 788.628 487.608, 792.625 484.992, 794 484.071 C 801.203 479.249, 814.033 477.044, 835 477.025 C 854.769 477.008, 869.197 479.510, 876.250 484.179 C 877.763 485.181, 880.332 486.900, 881.960 488 C 883.587 489.100, 885.348 490, 885.873 490 C 886.398 490, 888.216 491.889, 889.913 494.197 C 891.611 496.505, 893.007 497.968, 893.015 497.447 C 893.024 496.926, 893.455 497.171, 893.974 497.992 C 894.725 499.180, 895.170 499.230, 896.158 498.242 C 897.052 497.348, 902.255 497, 914.700 497 L 932 497 932 493.389 C 932 490.629, 931.042 488.633, 927.937 484.925 C 920.144 475.617, 917.804 461.680, 922.019 449.686 C 924.361 443.023, 923.723 440.796, 919.001 439.150 C 914.343 437.526, 905.821 428.275, 902.163 420.871 C 899 414.468, 898.893 413.852, 899.047 402.871 L 899.206 391.500 894.353 391.768 C 887.391 392.152, 875.589 390.321, 871.766 388.263 C 859.058 381.422, 852.452 373.583, 850.753 363.328 C 850.123 359.526, 848.976 356.384, 847.846 355.360 C 846.084 353.766, 845.841 353.800, 843.527 355.975 C 836.693 362.395, 827.736 365.235, 812.766 365.730 C 801.328 366.107, 800.867 366.038, 794.525 363.012 C 788.606 360.187, 778 351.107, 778 348.864 C 778 347.037, 774.238 348.119, 771.924 350.611 M 1002 386.835 C 1002 387.413, 1002.788 388.481, 1003.750 389.209 C 1008.617 392.885, 1012.135 402.094, 1012.744 412.750 C 1013.520 426.324, 1016.016 424.484, 1016.138 410.248 C 1016.185 404.739, 1015.695 402.028, 1014.100 398.967 C 1012.945 396.751, 1011.986 394.390, 1011.968 393.719 C 1011.881 390.343, 1002 383.519, 1002 386.835 M 584.237 420.163 C 582.735 421.665, 582.610 424, 584.031 424 C 585.239 424, 586.346 421.538, 585.832 419.995 C 585.593 419.280, 585.065 419.335, 584.237 420.163 M 811 443.690 C 809.075 444.576, 807.050 445.351, 806.500 445.412 C 804.333 445.652, 799.361 448.956, 796.750 451.891 C 793.947 455.042, 793.188 458.380, 795.016 459.510 C 795.575 459.856, 795.802 460.512, 795.520 460.968 C 795.237 461.425, 796.659 463.249, 798.678 465.022 C 802.264 468.171, 802.491 468.226, 808.425 467.405 C 819.221 465.909, 840.994 466.459, 845.372 468.338 C 847.502 469.252, 850.296 470, 851.581 470 C 857.234 470, 864 463.947, 864 458.888 C 864 454.486, 848.960 444.552, 843.295 445.214 C 841.483 445.425, 840 445.332, 840 445.007 C 840 444.681, 837.969 443.871, 835.486 443.207 C 828.939 441.456, 815.265 441.726, 811 443.690 M 668.500 455.490 C 663.554 457.735, 661.590 458.319, 659.750 458.091 C 658.788 457.972, 658 458.376, 658 458.988 C 658 459.601, 656.479 460.738, 654.620 461.514 C 651.025 463.016, 646.558 467.666, 645.497 471.010 C 644.602 473.829, 646.730 479.697, 649.299 481.497 C 652.142 483.488, 654.836 483.392, 660.123 481.113 C 662.530 480.075, 668.600 478.416, 673.612 477.426 C 681.726 475.824, 683.508 475.775, 689.874 476.976 C 698.277 478.562, 700.751 477.733, 704.624 472.033 C 707.530 467.756, 707.629 464.693, 704.982 460.975 C 700.766 455.053, 697.530 453.993, 683.882 454.064 C 675.696 454.106, 670.483 454.589, 668.500 455.490 M 815.413 496.423 C 814.361 497.160, 813.158 497.807, 812.740 497.861 C 807.865 498.490, 795.919 510.346, 790.705 519.730 C 788.582 523.552, 787.306 532.453, 788.753 533.347 C 789.303 533.687, 791.046 532.065, 792.626 529.742 C 797.277 522.907, 810.446 506.822, 814.891 502.547 C 818.899 498.692, 819.860 496.650, 818.163 495.601 C 817.703 495.316, 816.465 495.686, 815.413 496.423 M 654 509.685 C 646.838 513.928, 642.935 517.159, 640.382 520.960 C 639.074 522.907, 636.799 526.300, 635.325 528.500 C 631.551 534.134, 630.122 544, 633.079 544 C 633.545 544, 635.817 541.188, 638.128 537.750 C 640.439 534.313, 644.056 529.413, 646.165 526.861 C 648.274 524.310, 650 521.979, 650 521.682 C 650 521.385, 652.700 518.566, 656 515.419 C 664.623 507.193, 663.524 504.043, 654 509.685 M 974.363 511.999 C 965.564 517.748, 961.516 523.136, 959.119 532.288 C 958.027 536.456, 956.362 541.044, 955.419 542.483 C 953.900 544.801, 953.851 545.709, 954.983 550.430 C 955.728 553.536, 955.957 557.168, 955.530 559.130 C 954.653 563.169, 954.655 568.832, 955.536 575.143 C 955.904 577.777, 955.736 580.624, 955.150 581.720 C 954.580 582.784, 953.815 585.911, 953.449 588.670 L 952.784 593.686 956.923 595.843 C 966.935 601.062, 982.450 595.820, 994 583.317 C 1003.941 572.555, 1006.338 567.819, 1009.089 553.500 C 1010.884 544.158, 1010.911 542.920, 1009.494 534.684 C 1008.347 528.015, 1007.143 524.564, 1004.549 520.509 C 1001.546 515.815, 995.132 509.632, 994.666 510.982 C 994.575 511.247, 993.387 510.684, 992.027 509.732 C 987.610 506.638, 981.336 507.443, 974.363 511.999 M 903.213 517.394 C 896.736 518.534, 894.631 520.167, 895.605 523.297 C 897.173 528.334, 890.109 553.386, 886.056 557.163 C 884.925 558.216, 884 559.744, 884 560.557 C 884 562.400, 872.562 573.938, 867.250 577.453 C 865.082 578.888, 859.526 581.455, 854.904 583.157 C 847.450 585.902, 844.948 586.307, 832.771 586.739 C 814.486 587.387, 807.871 585.862, 793.116 577.594 C 790.276 576.003, 779.692 563.207, 777.132 558.269 C 772.551 549.432, 772.193 548.513, 771.480 543.738 C 771.089 541.118, 770.340 538.710, 769.816 538.386 C 769.292 538.062, 768.982 535.539, 769.129 532.780 C 769.429 527.118, 767.725 525, 762.868 525 C 761.355 525, 759.866 524.592, 759.558 524.094 C 759.250 523.596, 758.069 523.431, 756.933 523.728 C 755.798 524.025, 753.773 523.681, 752.434 522.965 C 750.440 521.898, 749.562 521.896, 747.581 522.956 C 746.251 523.668, 743.745 524.043, 742.013 523.789 C 737.633 523.146, 732.628 527.670, 733.570 531.421 C 734.505 535.150, 732.105 550.371, 729.898 554.699 C 728.854 556.747, 728 558.966, 728 559.629 C 728 563.145, 721.936 572.256, 715.101 579.012 C 707.131 586.888, 700.861 590.636, 690.500 593.716 C 678.445 597.300, 655.221 595.191, 646.071 589.680 C 640.241 586.169, 631.575 578.478, 630 575.416 C 628.497 572.493, 626.155 570.091, 624.750 570.032 C 624.337 570.014, 624 574.133, 624 579.186 C 624 587.208, 624.272 588.661, 626.150 590.659 C 627.677 592.285, 628.473 594.763, 628.900 599.213 C 629.434 604.786, 629.803 605.624, 632.244 606.791 C 634.870 608.047, 635.601 609.546, 636.220 614.941 C 636.427 616.748, 637.332 617.596, 639.704 618.208 C 642.137 618.835, 643.697 620.353, 646.188 624.517 C 648.841 628.952, 649.973 630, 652.112 630 C 654.116 630, 655.063 630.737, 656.016 633.038 C 657.598 636.859, 660.122 638.284, 663.220 637.107 C 666.034 636.036, 667.990 637.292, 669.768 641.310 C 670.931 643.937, 671.294 644.079, 675.313 643.476 C 678.595 642.984, 679.926 643.206, 680.930 644.415 C 683.161 647.103, 684 646.201, 684 641.114 C 684 638.427, 684.672 634.940, 685.494 633.364 C 686.315 631.789, 687.016 629.375, 687.050 628 C 687.137 624.500, 690.035 617.876, 693 614.398 C 697.539 609.075, 712.095 598, 714.553 598 C 718.298 598, 721.998 595.856, 722.635 593.317 C 722.958 592.031, 724.479 590.083, 726.015 588.989 L 728.808 587 734.950 590.472 C 738.328 592.381, 743.209 594.213, 745.796 594.542 C 749.982 595.074, 751.043 594.774, 755.425 591.820 C 765.270 585.184, 765.241 585.188, 771.785 589.629 C 774.915 591.753, 776.074 591.978, 781.012 591.419 C 785.855 590.871, 787.461 591.160, 792.288 593.443 C 795.384 594.908, 800.748 596.625, 804.208 597.259 C 808.844 598.109, 811.270 599.173, 813.425 601.304 C 815.033 602.894, 818.044 605.265, 820.116 606.573 C 824.126 609.105, 832 621.213, 832 624.848 C 832 625.947, 833.030 628.119, 834.289 629.673 C 835.548 631.228, 837.113 633.737, 837.767 635.250 C 839.127 638.392, 839.845 638.584, 842.559 636.532 C 845.129 634.588, 849.014 634.621, 851.855 636.611 C 854.032 638.136, 854.242 638.096, 855.767 635.861 C 856.654 634.563, 859.041 631.813, 861.072 629.750 C 865.027 625.733, 868.267 625.012, 871.556 627.417 C 873.682 628.972, 876 627.887, 876 625.337 C 876 623.035, 880.065 618.216, 883.050 616.979 C 885.315 616.041, 886.284 616.140, 888.398 617.525 C 890.849 619.131, 891.010 619.122, 891.575 617.358 C 894.411 608.498, 898.354 604, 903.282 604 C 906.357 604, 907.354 602.740, 908.951 596.836 C 910.267 591.966, 913.911 587.705, 917.750 586.545 C 919.646 585.972, 920 585.163, 920 581.400 C 920 576.092, 921.984 570.925, 925.295 567.614 C 926.975 565.934, 927.892 563.596, 928.337 559.855 C 928.687 556.910, 929.924 552.025, 931.087 549 C 933.964 541.511, 934.379 539.352, 933.094 538.558 C 932.410 538.135, 932 533.784, 932 526.941 L 932 516 920.750 516.144 C 914.563 516.222, 906.671 516.785, 903.213 517.394 M 602.232 530.195 C 598.109 536.234, 596.059 543.251, 595.844 552.067 C 595.639 560.478, 598.281 572.864, 601.196 577.154 C 602.188 578.614, 603 580.217, 603 580.716 C 603 581.959, 606.854 586, 608.039 586 C 608.608 586, 609.008 580.185, 609.018 571.750 C 609.037 557.090, 611.015 541.892, 613.254 539.194 C 614.621 537.547, 614.565 537.282, 612.336 534.819 C 611.500 533.895, 610.069 531.671, 609.157 529.879 C 606.804 525.251, 605.570 525.307, 602.232 530.195 M 789.451 621.080 C 789.084 621.674, 789.844 622.898, 791.142 623.800 C 796.755 627.704, 798.264 629.985, 797.667 633.663 C 796.956 638.048, 796.101 639.075, 789.536 643.433 C 783.910 647.166, 770.593 652, 765.931 652 C 764.384 652, 762.840 652.450, 762.500 653 C 762.144 653.576, 756.843 654, 750 654 C 743.157 654, 737.856 653.576, 737.500 653 C 737.160 652.450, 735.976 652, 734.869 652 C 732 652, 724.498 647.380, 721.413 643.714 C 719.256 641.151, 718.884 639.902, 719.316 636.678 C 720.027 631.382, 721.190 630.500, 727.469 630.500 C 731.722 630.500, 733.357 630.987, 735.329 632.839 C 737.489 634.868, 739.126 635.248, 747.660 635.699 C 762.268 636.471, 770.659 634.997, 777.494 630.460 C 783.823 626.259, 784.458 623.692, 779.291 623.190 C 777.247 622.992, 774.417 623.820, 771.423 625.491 L 766.747 628.101 762.124 625.925 C 756.107 623.092, 750.782 622.378, 748.929 624.155 C 744.452 628.449, 736.161 630.688, 734.527 628.044 C 734.202 627.518, 733.321 627.323, 732.569 627.612 C 731.817 627.900, 730.905 627.656, 730.542 627.068 C 729.686 625.683, 725 625.675, 725 627.059 C 725 627.641, 724.637 627.893, 724.192 627.619 C 723.748 627.344, 722.533 628.255, 721.491 629.642 C 719.798 631.896, 719.010 632.128, 714.049 631.832 L 708.500 631.500 708.208 639.816 C 707.984 646.220, 708.442 649.879, 710.199 655.730 C 712.306 662.746, 712.934 663.704, 718.392 668.247 C 723.451 672.457, 724.750 673.083, 727.401 672.590 C 729.268 672.243, 731.639 672.608, 733.364 673.507 C 738.341 676.101, 739 675.595, 739 669.174 C 739 664.387, 739.401 662.995, 741.250 661.365 C 745.280 657.813, 748.846 656.794, 752.747 658.081 C 754.944 658.807, 758.774 658.985, 763.065 658.562 C 771.965 657.685, 774 659.329, 774 667.393 C 774 673.364, 774.981 674.354, 779.921 673.366 C 781.516 673.047, 784.441 673.320, 786.420 673.974 C 789.724 675.064, 790.271 674.950, 793.086 672.581 C 794.773 671.161, 797.361 670, 798.837 670 C 801.764 670, 807 665.805, 807 663.460 C 807 662.657, 807.605 662, 808.345 662 C 811.755 662, 813.288 658.176, 813.727 648.572 C 814.133 639.701, 813.992 638.835, 811.410 634.314 C 807.746 627.896, 806.039 626, 803.926 626 C 801.734 626, 795.777 622.933, 794.700 621.250 C 793.719 619.716, 790.361 619.607, 789.451 621.080 M 643.640 684.693 C 642.825 685.508, 642.794 729.300, 643.607 731.418 C 644.340 733.328, 646.598 733.489, 647.700 731.709 C 648.720 730.063, 658.419 725.767, 668.592 722.456 C 672.941 721.040, 677.512 719.382, 678.748 718.772 C 679.985 718.163, 681.284 717.951, 681.636 718.302 C 681.987 718.654, 683.624 717.980, 685.273 716.806 L 688.272 714.670 684.356 713.085 C 682.202 712.213, 679.329 710.701, 677.970 709.725 C 676.612 708.749, 673.880 707.512, 671.901 706.977 C 669.760 706.398, 665.841 703.673, 662.232 700.252 C 651.390 689.977, 644.294 684.039, 643.640 684.693 M 158.148 688.725 C 155.189 690.158, 152 694.729, 152 697.536 C 152 698.486, 153.607 700.779, 155.571 702.632 L 159.142 706 255.821 705.927 C 346.121 705.859, 352.698 705.738, 355.500 704.099 C 360.160 701.372, 361.662 698.012, 360.006 694.014 C 357.390 687.700, 361.544 687.955, 256.395 687.660 C 178.483 687.442, 160.392 687.638, 158.148 688.725 M 887.459 701.877 C 883.632 704.482, 878.946 707.488, 877.046 708.556 C 875.146 709.625, 872.094 711.480, 870.263 712.678 C 868.432 713.876, 865.491 715.173, 863.727 715.560 C 861.963 715.947, 859.165 717.277, 857.510 718.514 C 852.042 722.601, 847.586 724.304, 840.500 725.014 C 835.248 725.541, 832.151 726.517, 828.097 728.923 C 823.484 731.660, 821.857 732.095, 816.977 731.896 C 812.627 731.718, 810.214 732.212, 806.880 733.962 C 803.421 735.778, 799.871 736.458, 790 737.194 C 773.662 738.413, 773.022 738.412, 755.673 737.149 C 746.339 736.469, 739.706 735.501, 737.769 734.535 C 731.752 731.533, 730.636 732.901, 733.891 739.286 C 734.931 741.326, 736.041 744.027, 736.357 745.287 C 736.674 746.548, 740.022 750.762, 743.798 754.652 C 749.802 760.837, 751.718 762.131, 759.058 764.962 C 763.674 766.742, 768.925 768.438, 770.726 768.730 C 772.527 769.023, 774 769.575, 774 769.958 C 774 770.340, 775.297 770.463, 776.882 770.231 C 778.466 769.998, 780.068 770.301, 780.441 770.904 C 781.356 772.385, 801 772.404, 801 770.923 C 801 770.317, 802.426 769.970, 804.264 770.128 C 806.060 770.283, 807.972 770.142, 808.514 769.816 C 809.056 769.489, 812.200 768.694, 815.500 768.049 C 821.965 766.785, 836.143 762.012, 841.202 759.395 C 859.175 750.101, 884.984 725.193, 893.104 709.305 C 895.388 704.835, 896.598 698.488, 895.317 697.696 C 894.823 697.391, 891.287 699.272, 887.459 701.877 M 159.500 738.213 C 155.511 739.616, 153.980 740.923, 152.855 743.883 C 151.365 747.802, 152.772 751.696, 156.515 754.009 C 159.847 756.069, 160.562 756.090, 215.694 755.733 C 264.924 755.414, 272.289 755.165, 278.192 753.618 C 283.843 752.136, 285.186 751.350, 286.832 748.561 C 288.778 745.262, 288.778 745.254, 286.640 742.736 C 284.908 740.695, 282.758 739.909, 275.357 738.607 C 267.699 737.261, 257.788 737.013, 214.357 737.079 C 180.739 737.130, 161.445 737.529, 159.500 738.213 M 550.889 745.445 C 550.610 745.724, 540.508 746.439, 528.441 747.035 C 512.995 747.798, 505.424 748.575, 502.864 749.660 C 499.139 751.238, 495 755.805, 495 758.335 C 495 759.114, 497.925 763.013, 501.500 767 C 505.075 770.987, 507.994 774.980, 507.987 775.874 C 507.980 776.769, 506.677 778.400, 505.093 779.500 C 503.508 780.600, 494.702 787.237, 485.523 794.250 C 476.344 801.263, 468.694 807, 468.522 807 C 468.351 807, 466.735 808.379, 464.930 810.065 C 463.126 811.751, 460.299 813.828, 458.648 814.682 C 456.997 815.536, 447.547 822.298, 437.649 829.708 C 427.751 837.119, 418.657 843.560, 417.441 844.023 C 416.224 844.485, 413.669 846.469, 411.763 848.432 C 409.857 850.394, 407.943 852, 407.510 852 C 407.076 852, 403.746 854.388, 400.111 857.307 C 396.475 860.226, 390.125 865.132, 386 868.208 C 381.875 871.284, 376.092 875.646, 373.150 877.901 C 370.207 880.155, 366.714 882, 365.389 882 C 362.971 882, 349.263 872.472, 339.500 864.005 C 333.819 859.078, 326.874 855.671, 322.751 855.788 C 319.805 855.872, 310.445 862.722, 304 869.512 C 299.812 873.925, 289.560 882, 288.147 882 C 287.595 882, 285.472 883.575, 283.431 885.500 C 281.390 887.425, 279.540 889, 279.319 889 C 278.765 889, 255.496 906.726, 244.322 915.661 C 239.273 919.698, 234.727 923, 234.218 923 C 233.709 923, 232.078 924.125, 230.595 925.500 C 229.111 926.875, 227.583 928.012, 227.198 928.027 C 226.814 928.041, 223.125 930.790, 219 934.136 C 200.636 949.028, 192.788 955.161, 186.858 959.253 C 183.361 961.667, 178.959 965.101, 177.075 966.886 C 175.191 968.670, 172.475 970.737, 171.039 971.480 C 167.693 973.210, 165.576 977.175, 166.351 980.260 C 167.907 986.461, 174.031 990.206, 179.076 988.044 C 182.784 986.455, 184.252 985.394, 200.594 972.500 C 208.959 965.900, 216.806 959.825, 218.032 959 C 219.257 958.175, 221.943 956.150, 224 954.500 C 226.057 952.850, 228.750 950.825, 229.986 950 C 231.221 949.175, 233.263 947.712, 234.523 946.750 C 235.784 945.788, 237.204 945, 237.680 945 C 238.155 945, 240.749 942.975, 243.445 940.500 C 246.141 938.025, 248.498 936, 248.683 936 C 249.289 936, 259.438 928.803, 262 926.556 C 263.375 925.351, 265.734 923.599, 267.241 922.665 C 268.749 921.730, 273.474 918.147, 277.741 914.702 C 282.009 911.257, 288.538 906.292, 292.250 903.669 C 295.962 901.045, 299 898.472, 299 897.949 C 299 897.427, 299.491 897, 300.092 897 C 300.692 897, 302.380 896.069, 303.842 894.932 C 318.525 883.508, 324.124 879.905, 326.178 880.557 C 327.375 880.936, 331.536 883.570, 335.427 886.409 C 339.317 889.248, 343.653 892.297, 345.062 893.185 C 346.472 894.074, 350.861 897.770, 354.817 901.400 C 364.014 909.841, 365.062 909.860, 373.857 901.750 C 377.584 898.313, 383.706 893.250, 387.461 890.500 C 391.216 887.750, 396.161 884.132, 398.450 882.459 C 400.739 880.787, 405.895 876.849, 409.908 873.709 C 413.921 870.569, 417.638 868, 418.167 868 C 418.697 868, 428.347 861.025, 439.611 852.500 C 450.876 843.975, 460.522 837, 461.046 837 C 461.571 837, 462 836.566, 462 836.035 C 462 835.504, 465.869 832.521, 470.598 829.407 C 475.327 826.292, 486.311 818.402, 495.007 811.872 C 503.702 805.342, 511.269 800, 511.823 800 C 512.376 800, 514.467 798.409, 516.469 796.464 C 518.472 794.519, 521.401 792.670, 522.979 792.354 C 525.549 791.840, 526.063 792.204, 527.924 795.850 C 529.066 798.089, 530 800.805, 530 801.887 C 530 804.079, 536.604 810.020, 538.978 809.964 C 542.815 809.873, 549.957 800.210, 551.512 793.004 C 551.927 791.081, 552.825 788.156, 553.508 786.504 C 555.001 782.889, 558.740 770.557, 559.476 766.820 C 559.766 765.346, 560.665 763.478, 561.474 762.669 C 562.283 761.860, 563.236 759.374, 563.593 757.145 C 564.193 753.392, 563.963 752.831, 560.481 749.546 C 558.412 747.596, 556.145 746, 555.442 746 C 554.739 746, 553.541 745.761, 552.780 745.469 C 552.018 745.177, 551.167 745.166, 550.889 745.445 M 155.717 789.331 C 153.981 790.764, 152.714 792.989, 152.347 795.250 C 151.852 798.298, 152.178 799.261, 154.405 801.324 C 155.860 802.673, 158.052 803.939, 159.275 804.138 C 160.499 804.337, 188.379 804.351, 221.232 804.168 L 280.964 803.836 283.982 801.017 C 288.193 797.084, 288.106 792.925, 283.750 789.818 L 280.500 787.500 219.500 787.268 L 158.500 787.036 155.717 789.331 M 494.710 850.599 C 492.626 851.963, 490.488 854.216, 489.960 855.605 C 489.383 857.123, 489 883.769, 489 922.443 C 489 975.628, 489.237 986.952, 490.368 987.890 C 491.346 988.702, 501.967 988.951, 527.618 988.763 L 563.500 988.500 563.757 922.062 L 564.014 855.624 561.320 852.812 C 559.838 851.266, 558.035 850, 557.313 850 C 556.591 850, 556 849.550, 556 849 C 556 848.355, 545.789 848.021, 527.250 848.059 L 498.500 848.118 494.710 850.599 M 949 899.800 C 949 908.885, 949.272 911, 950.441 911 C 952.410 911, 953.532 908.947, 952.061 908.037 C 951.260 907.543, 950.937 904.591, 951.082 899.099 C 951.217 893.976, 950.867 890.467, 950.149 889.749 C 949.284 888.884, 949 891.364, 949 899.800 M 389.073 919.843 C 385.363 920.367, 382.045 922.957, 381.350 925.873 C 381.006 927.318, 380.265 929.082, 379.704 929.792 C 379.002 930.683, 379.045 931.445, 379.842 932.242 C 381.508 933.908, 381.461 980.290, 379.790 982.964 C 378.765 984.607, 378.940 985.213, 380.943 986.951 C 383.229 988.933, 384.458 989, 418.618 989 C 452.506 989, 453.971 988.922, 454.965 987.066 C 456.337 984.502, 456.337 932.752, 454.965 927.813 C 454.286 925.369, 452.848 923.451, 450.699 922.123 C 447.692 920.264, 445.423 920.096, 419.478 919.809 C 404.090 919.639, 390.408 919.654, 389.073 919.843 M 279.071 964.718 C 273.594 967.564, 271.616 971.108, 271.178 978.858 C 270.568 989.654, 268.147 989.003, 308.821 988.985 C 328.338 988.976, 344.140 988.565, 344.964 988.044 C 346.088 987.333, 346.362 985.304, 346.147 979.309 C 345.888 972.088, 345.630 971.254, 342.719 968.231 C 340.987 966.433, 337.979 964.562, 336.035 964.073 C 334.091 963.585, 321.250 963.129, 307.500 963.061 C 285.317 962.950, 282.114 963.137, 279.071 964.718" stroke="none" fill="#171916" fill-rule="evenodd"/>
</svg>