<svg role="img" aria-labelledby="artwork-title" shape-rendering="geometricPrecision" xmlns="http://www.w3.org/2000/svg" width="1200" height="1200" viewBox="0 0 1200 1200" version="1.1">
	<title id="artwork-title">Mascot holding a code window</title>
	<path d="M 839 233.897 C 839 234.391, 835.962 235.319, 832.250 235.960 C 824.770 237.252, 809.299 244.057, 808.376 246.461 C 808.052 247.308, 807.255 248, 806.605 248 C 804.789 248, 796.571 256.943, 793.567 262.188 C 790.513 267.522, 788.759 268.284, 784.500 266.130 C 779.266 263.482, 763.762 263.407, 754.450 265.982 C 750.077 267.192, 745.375 268.916, 744 269.815 C 742.625 270.713, 741.275 271.465, 741 271.486 C 739.327 271.614, 730.532 278.732, 726.224 283.446 C 721.676 288.421, 716 298.133, 716 300.938 C 716 301.522, 715.516 302, 714.923 302 C 714.305 302, 713.973 303.468, 714.144 305.446 C 714.307 307.342, 714.116 309.217, 713.720 309.613 C 713.324 310.009, 713 311.518, 713 312.967 C 713 316.226, 711.326 318, 708.250 318 C 702.987 318, 688.163 328.340, 684.523 334.550 C 679.431 343.241, 675.994 350.542, 676.444 351.714 C 676.702 352.386, 676.482 353.202, 675.956 353.527 C 674.686 354.312, 674.698 377, 675.969 377 C 676.501 377, 676.661 377.720, 676.323 378.601 C 675.985 379.481, 676.124 380.494, 676.632 380.851 C 677.140 381.208, 678.373 383.356, 679.373 385.625 L 681.191 389.751 676.664 395.625 C 669.589 404.807, 667.460 415.451, 670.590 425.991 C 672.404 432.100, 674.006 434.904, 678.794 440.352 C 681.397 443.314, 682.005 444.701, 681.422 446.352 C 679.869 450.755, 679.794 466.699, 681.313 469.671 C 682.108 471.227, 683.081 473.993, 683.474 475.819 C 684.146 478.939, 683.830 479.462, 678.181 484.574 C 672.031 490.140, 664.708 500.370, 661.771 507.500 C 660.865 509.700, 659.355 516.093, 658.416 521.707 C 656.806 531.338, 656.806 532.552, 658.425 543.207 C 659.946 553.220, 660.607 555.237, 664.250 561 C 666.510 564.575, 669.853 569.094, 671.679 571.042 L 675 574.584 675 589.834 C 675 603.402, 675.208 605.307, 676.889 607.111 C 678.918 609.289, 680 613.265, 680 618.542 C 680 622.958, 683.220 630.212, 687.499 635.433 C 689.493 637.867, 691 640.817, 691 642.288 C 691 646.313, 692.614 649.623, 696.831 654.242 C 698.968 656.584, 701.944 660.464, 703.443 662.864 C 704.942 665.264, 708.004 669.219, 710.247 671.652 C 713.345 675.013, 714.045 676.355, 713.162 677.238 C 712.279 678.121, 711.712 678.112, 710.800 677.200 C 709.539 675.939, 700.812 675.521, 699.667 676.667 C 699.300 677.033, 696.047 677.226, 692.438 677.096 C 688.829 676.965, 685.342 677.275, 684.688 677.784 C 684.035 678.294, 678.550 679.498, 672.500 680.460 C 666.450 681.422, 659.803 682.837, 657.730 683.604 C 655.656 684.372, 652.731 685.015, 651.230 685.034 C 649.728 685.053, 646.700 685.937, 644.500 687 C 642.300 688.063, 639.739 688.947, 638.809 688.966 C 637.879 688.985, 636.840 689.450, 636.500 690 C 636.160 690.550, 634.759 691, 633.387 691 L 630.893 691 631.472 613.250 C 632.088 530.556, 631.420 503.816, 628.630 499.558 C 627.734 498.190, 627 496.585, 627 495.992 C 627 495.398, 625.875 493.699, 624.500 492.217 C 623.125 490.734, 622 489.006, 622 488.378 C 622 486.965, 614.144 479, 612.750 479 C 612.193 479, 610.108 477.990, 608.118 476.756 C 606.128 475.522, 604.275 474.470, 604 474.419 C 603.725 474.369, 602.825 474.068, 602 473.752 C 601.175 473.435, 599.011 472.701, 597.192 472.120 C 592.422 470.597, 166.688 470.553, 161.937 472.075 C 157.701 473.432, 156.639 473.737, 156 473.777 C 155.725 473.794, 152.176 475.858, 148.114 478.362 C 141.896 482.196, 139.876 484.176, 135.338 490.885 C 126.017 504.666, 126.805 493.128, 126.112 626 L 125.500 743.500 118.933 744.065 C 115.240 744.383, 111.313 745.368, 109.960 746.315 C 108.637 747.242, 106.797 748, 105.871 748 C 104.408 748, 97.464 754.291, 92.072 760.500 C 91.117 761.600, 89.528 765.264, 88.542 768.642 C 87.002 773.917, 86.920 775.500, 87.965 779.854 C 89.120 784.667, 89.030 785.244, 86.180 791.275 C 84.529 794.769, 82.861 799.742, 82.474 802.326 C 82.086 804.910, 81.371 807.271, 80.885 807.571 C 79.785 808.251, 79.709 812, 80.794 812 C 82.238 812, 84.272 825.355, 84.145 834 C 83.945 847.601, 86.389 855.800, 93.602 865.736 C 94.584 867.088, 94.939 868.668, 94.500 869.736 C 93.582 871.971, 93.563 877.886, 94.466 880.500 C 98.184 891.266, 108.638 900.338, 120.779 903.335 L 125.500 904.500 126.028 931 C 126.743 966.894, 126.785 967, 140.563 967 C 150.921 967, 152.286 966.231, 149.242 962.113 C 143.286 954.058, 143 952.445, 143 926.967 C 143 900.337, 142.539 901.969, 151.122 898.236 C 156.936 895.707, 163.563 889.777, 166.072 884.858 C 168.183 880.722, 168.857 866.648, 167 865.500 C 164.942 864.228, 166.081 859.724, 169.458 855.778 C 174.858 849.469, 175.598 838.457, 171.050 832.070 L 168.897 829.046 171.419 825.334 C 172.806 823.293, 174.480 819.213, 175.139 816.268 C 176.171 811.659, 176.088 810.117, 174.545 805.206 C 173.560 802.068, 171.399 797.785, 169.744 795.689 L 166.735 791.878 169.367 786.674 C 172.220 781.037, 172.764 774.983, 170.839 770.315 C 170.200 768.767, 169.734 767.210, 169.803 766.856 C 169.873 766.502, 167.174 763.205, 163.806 759.530 C 159.458 754.784, 155.890 752.001, 151.495 749.924 C 148.091 748.316, 144.787 747, 144.153 747 C 142.635 747, 142.483 631.437, 144 630.500 C 144.621 630.116, 145 620.859, 145 606.048 C 145 587.861, 145.296 582.119, 146.250 581.814 C 146.938 581.594, 181.925 581.508, 224 581.622 C 266.075 581.737, 371.265 581.869, 457.755 581.915 L 615.010 582 614.755 679.750 L 614.500 777.500 609 777.769 C 605.975 777.917, 602.600 778.449, 601.500 778.951 C 600.400 779.453, 598.150 780.062, 596.500 780.303 C 591.067 781.100, 580.537 784.215, 578.527 785.620 C 577.443 786.379, 575.788 787, 574.850 787 C 573.912 787, 572.272 788.110, 571.205 789.466 C 570.138 790.822, 568.981 791.647, 568.633 791.299 C 568.285 790.951, 568 791.130, 568 791.696 C 568 792.262, 566.609 794.474, 564.910 796.612 C 561.285 801.172, 559 806.243, 559 809.727 C 559 813.213, 563.529 821.833, 567.207 825.348 C 569.274 827.324, 570.001 828.700, 569.399 829.502 C 567.348 832.237, 562.563 839.537, 562.518 840 C 562.491 840.275, 562.086 841.104, 561.618 841.843 C 561.150 842.582, 560.707 845.992, 560.633 849.421 C 560.508 855.296, 560.745 855.980, 564.750 861.285 C 569.528 867.614, 569.566 867.792, 567.420 873.955 C 564.800 881.478, 568.408 894.900, 573.768 897.572 C 577.265 899.315, 577.385 899.607, 577.686 907.102 C 577.842 910.969, 578.701 915.675, 579.595 917.560 C 581.465 921.500, 588.621 929, 590.511 929 C 591.212 929, 592.029 929.634, 592.327 930.410 C 592.895 931.891, 602.052 934.933, 607.377 935.409 C 613.650 935.971, 614 936.481, 614 945.048 C 614 949.357, 613.550 953.160, 613 953.500 C 612.450 953.840, 612 954.814, 612 955.665 C 612 956.516, 610.619 958.956, 608.930 961.088 C 607.242 963.220, 606.143 965.423, 606.489 965.982 C 606.843 966.556, 611.219 967, 616.512 967 L 625.906 967 627.953 962.373 C 629.522 958.826, 630.004 955.617, 630.015 948.623 C 630.032 938.445, 630.906 935.849, 633.722 937.616 C 635.654 938.829, 635.844 941.942, 634.965 958 L 634.500 966.500 689 966.500 C 735.706 966.500, 743.500 966.295, 743.500 965.064 C 743.500 964.274, 742.150 963.255, 740.500 962.800 C 738.850 962.345, 735.700 960.659, 733.500 959.054 C 731.300 957.448, 726.800 954.566, 723.500 952.648 C 720.200 950.731, 716.150 947.739, 714.500 945.999 C 710.266 941.535, 706.072 939.963, 701.334 941.062 C 694.527 942.642, 680.837 942.132, 672.410 939.984 C 658.600 936.465, 649.807 931.260, 640.160 920.894 C 634.330 914.629, 630.192 913, 620.111 913 C 615.910 913, 614.930 913.430, 612.136 916.500 C 610.385 918.425, 608.506 920, 607.961 920 C 605.479 920, 595.788 913.490, 594.467 910.935 C 592.525 907.181, 592.621 905.133, 594.916 901.371 C 596.424 898.896, 598.238 897.798, 603.580 896.121 C 607.296 894.954, 611.584 894, 613.109 894 C 614.634 894, 616.160 893.550, 616.500 893 C 616.840 892.450, 619.341 892, 622.059 892 C 629.839 892, 633.628 886.628, 629.067 882.067 C 624.182 877.182, 622.750 876.802, 613.840 878.022 C 609.258 878.649, 604.978 879.603, 604.329 880.142 C 603.680 880.681, 602.552 881.007, 601.824 880.866 C 601.096 880.726, 598.387 881.598, 595.805 882.805 C 590.600 885.238, 586.030 885.630, 584.200 883.800 C 583.540 883.140, 583 880.925, 583 878.878 C 583 870.506, 599.796 862, 616.330 862 C 625.224 862, 628.624 860.920, 630.128 857.618 C 632.961 851.401, 626.741 846, 616.748 846 C 609.864 846, 592.576 849.576, 589.400 851.658 C 588.112 852.501, 585.519 852.995, 583.326 852.815 L 579.500 852.500 579.551 847.091 C 579.598 842.140, 579.908 841.422, 583.222 838.591 C 586.985 835.378, 598.553 831, 603.280 831 C 604.776 831, 606 830.612, 606 830.139 C 606 829.665, 607.072 829.482, 608.383 829.733 C 609.693 829.983, 611.070 829.696, 611.442 829.094 C 612.289 827.724, 621.662 827.644, 622.500 829 C 623.849 831.182, 630.498 830.065, 634.038 827.062 L 637.500 824.124 635.377 820.312 C 631.964 814.184, 629.701 813.540, 611.500 813.519 C 596.684 813.501, 595.218 813.666, 591.693 815.750 C 586.355 818.905, 583.681 818.614, 579.490 814.424 C 576.798 811.732, 576.067 810.310, 576.535 808.674 C 577.241 806.201, 583.836 800.037, 585.800 800.015 C 586.514 800.007, 588.324 799.367, 589.821 798.593 C 593.625 796.626, 609.676 793.996, 617.750 794.018 C 632.983 794.058, 660.505 800.135, 670.692 805.707 C 672.998 806.968, 675.484 808, 676.215 808 C 676.947 808, 679.937 809.575, 682.860 811.500 C 685.783 813.425, 688.473 815.020, 688.837 815.044 C 690.147 815.129, 701.901 826.631, 707.189 833 C 710.157 836.575, 716.002 844, 720.178 849.500 C 731.241 864.073, 732.704 865.262, 740.578 866.077 C 744.182 866.450, 748.563 867.452, 750.315 868.305 C 753.321 869.767, 778.075 875.836, 789.948 878.021 C 792.945 878.572, 795.679 879.481, 796.024 880.039 C 796.370 880.598, 799.543 881.501, 803.076 882.046 C 806.609 882.591, 812.650 883.685, 816.500 884.476 C 820.350 885.268, 828.675 886.868, 835 888.033 C 848.639 890.545, 855.134 892.051, 856.500 893.019 C 857.050 893.408, 859.525 894.031, 862 894.404 C 864.475 894.776, 868.868 895.821, 871.762 896.727 C 876.824 898.310, 877.125 898.297, 879.685 896.386 C 883.455 893.571, 884.394 891.706, 883.612 888.589 C 883.150 886.749, 881.807 885.400, 879.464 884.421 C 877.371 883.546, 876.011 882.286, 876.027 881.237 C 876.042 880.281, 880.753 874.796, 886.496 869.046 L 896.937 858.592 901.719 859.698 C 918.091 863.486, 922.906 865.467, 939.500 875.245 C 941.150 876.217, 943.606 877.572, 944.958 878.256 C 946.309 878.940, 948.772 880.737, 950.431 882.250 C 952.089 883.762, 953.843 885, 954.329 885 C 954.814 885, 956.626 886.159, 958.356 887.576 C 962.881 891.283, 979 907.276, 979 908.059 C 979 908.423, 980.588 910.404, 982.529 912.462 C 984.470 914.521, 986.745 917.621, 987.583 919.352 C 989.774 923.878, 992.565 928.771, 993.810 930.271 C 994.401 930.983, 995.376 932.860, 995.978 934.441 C 997.045 937.248, 996.757 937.625, 983.953 950.158 C 976.737 957.221, 970.421 963, 969.917 963 C 969.413 963, 969 963.900, 969 965 C 969 966.957, 969.667 967, 1000.300 967 C 1023.311 967, 1031.918 966.682, 1032.800 965.800 C 1033.569 965.031, 1034 961.102, 1034 954.859 C 1034 949.387, 1034.442 944.845, 1035.009 944.495 C 1039.166 941.925, 1056.768 916.652, 1063.559 903.500 C 1066.400 898, 1069.829 891.475, 1071.179 889 C 1073.613 884.541, 1075.116 880.571, 1079.133 868 C 1080.275 864.425, 1081.651 860.957, 1082.191 860.294 C 1082.731 859.630, 1082.901 858.649, 1082.570 858.113 C 1082.238 857.577, 1082.360 856.895, 1082.841 856.598 C 1083.862 855.967, 1085.578 847.743, 1086.997 836.678 C 1089.199 819.505, 1087.603 791.271, 1083.934 782.500 C 1083.244 780.850, 1082.753 779.017, 1082.843 778.426 C 1082.933 777.836, 1081.882 775.136, 1080.508 772.426 C 1079.133 769.717, 1078.006 766.949, 1078.004 766.275 C 1077.990 762.243, 1065.113 742.833, 1055.794 732.799 C 1046.705 723.011, 1023.665 707.184, 1016.083 705.518 C 1014.335 705.134, 1012.368 703.961, 1011.712 702.910 C 1011.056 701.860, 1009.923 701, 1009.195 701 C 1008.467 701, 1005.762 700.136, 1003.185 699.080 C 1000.608 698.024, 994.555 695.943, 989.733 694.457 C 984.911 692.970, 980.718 691.352, 980.414 690.861 C 980.110 690.369, 979.474 690.207, 979 690.500 C 978.526 690.793, 977.856 690.575, 977.510 690.016 C 977.165 689.457, 975.135 689, 973 689 C 967.709 689, 967.250 687.581, 971.588 684.634 C 973.591 683.273, 977.540 679.274, 980.364 675.747 C 983.189 672.220, 987.264 667.796, 989.420 665.917 C 993.591 662.281, 1000 653.046, 1000 650.670 C 1000 647.166, 1002.681 646.735, 1010.134 649.041 C 1016.065 650.877, 1018.716 651.164, 1025.152 650.668 C 1041.946 649.373, 1053.292 644.206, 1066.523 631.830 C 1072.082 626.629, 1082.393 613.880, 1082.542 612.023 C 1082.565 611.735, 1083.424 609.925, 1084.452 608 C 1087.236 602.784, 1089.945 589.507, 1089.974 580.938 C 1090.005 571.922, 1086.917 559.082, 1083.441 553.771 C 1080.380 549.096, 1080.395 548.443, 1083.604 546.340 C 1086.740 544.285, 1094 534.685, 1094 532.592 C 1094 531.771, 1094.696 530.710, 1095.547 530.234 C 1098.184 528.758, 1100.293 518.397, 1099.666 510 C 1099.032 501.508, 1099.309 500.940, 1107.110 494.752 C 1110.380 492.159, 1112.659 489.119, 1114.947 484.298 C 1116.722 480.559, 1118.585 476.719, 1119.087 475.764 C 1120.284 473.488, 1120.275 445.288, 1119.077 444.548 C 1118.569 444.234, 1117.849 442.587, 1117.475 440.888 C 1116.704 437.378, 1112.381 430.622, 1108.704 427.182 L 1106.227 424.865 1109.059 419.182 C 1112.809 411.657, 1113.951 406.246, 1113.952 396 C 1113.953 382.558, 1111.982 376.781, 1103.352 364.913 C 1097.725 357.177, 1096.428 356.035, 1087.216 350.715 C 1079.984 346.538, 1075.781 344.761, 1072.100 344.325 C 1069.295 343.993, 1066.953 343.447, 1066.896 343.111 C 1066.838 342.775, 1066.661 338.841, 1066.501 334.370 C 1066.105 323.245, 1061.318 307.849, 1056.523 302.275 C 1055.683 301.299, 1053.445 298.671, 1051.549 296.435 C 1047.140 291.236, 1034.694 283.623, 1026.147 280.897 C 1017.664 278.192, 1003.494 278.011, 995.963 280.512 C 993.135 281.452, 990.481 281.833, 990.066 281.360 C 989.650 280.887, 988.280 277.671, 987.019 274.212 C 983.362 264.176, 974.303 253.440, 965.730 248.981 C 963.404 247.771, 961.275 246.486, 961 246.126 C 959.715 244.441, 946.443 239.998, 938.132 238.470 C 930.564 237.080, 927.591 236.966, 921.688 237.844 C 910.904 239.448, 902.091 242.496, 895.021 247.065 L 888.687 251.159 884.593 248.089 C 874.648 240.630, 869.342 237.663, 863.354 236.209 C 859.859 235.360, 857 234.291, 857 233.833 C 857 233.375, 852.950 233, 848 233 C 843.050 233, 839 233.404, 839 233.897 M 832.500 252.880 C 825.062 255.034, 822.865 256.211, 816.245 261.590 C 809.357 267.185, 806.414 270.791, 805.568 274.666 C 805.189 276.408, 804.230 278.081, 803.439 278.385 C 801.819 279.007, 801.455 282, 803 282 C 803.550 282, 804 281.539, 804 280.977 C 804 280.414, 807.128 276.684, 810.951 272.688 C 816.014 267.395, 820.155 264.226, 826.201 261.017 C 834.247 256.745, 834.825 256.598, 845.175 256.197 C 855.065 255.814, 856.256 255.976, 861.363 258.392 C 864.395 259.826, 867.147 261, 867.479 261 C 867.810 261, 869.416 261.987, 871.047 263.193 C 873.165 264.759, 874.322 265.078, 875.090 264.310 C 875.859 263.541, 875.125 262.191, 872.523 259.589 C 864.832 251.898, 846.501 248.826, 832.500 252.880 M 916.714 255.910 C 907.029 257.923, 887 271.688, 887 276.330 C 887 278.758, 887.577 278.507, 894.358 273.133 C 901.433 267.527, 912.534 263.248, 922.397 262.327 C 934.801 261.169, 950.606 266.500, 960.446 275.162 C 964.589 278.808, 971.603 288.228, 973.280 292.399 C 973.847 293.806, 974.362 294.038, 975.157 293.243 C 976.446 291.954, 973.780 283.328, 970.602 278.500 C 966.252 271.892, 955.933 262, 953.389 262 C 952.987 262, 949.697 260.553, 946.079 258.784 C 940.250 255.935, 938.417 255.543, 930 255.345 C 924.775 255.223, 918.796 255.477, 916.714 255.910 M 759.500 281.582 C 757.300 282.375, 754.825 283.317, 754 283.675 C 753.175 284.034, 752.275 284.372, 752 284.426 C 751.725 284.480, 749.475 285.938, 747 287.667 C 742.234 290.995, 737.897 295.424, 734.225 300.714 C 732.088 303.792, 729.021 314.305, 729.037 318.500 C 729.044 320.333, 729.210 320.292, 731.028 318 C 732.119 316.625, 733.521 313.554, 734.143 311.175 C 734.766 308.797, 736.788 305.246, 738.637 303.286 C 740.487 301.325, 742 299.412, 742 299.034 C 742 297.721, 746.567 294.072, 751.517 291.430 C 761.460 286.124, 770.263 284.778, 779.622 287.135 C 784.707 288.415, 787.419 287.219, 784.886 284.812 C 780.400 280.552, 767.067 278.856, 759.500 281.582 M 1000 297 C 1000 297.550, 998.853 298, 997.450 298 C 994.477 298, 989 300.609, 989 302.026 C 989 302.601, 993.662 303, 1000.385 303 C 1016.956 303, 1027.365 307.020, 1036.244 316.848 C 1039.112 320.023, 1045.902 332.567, 1048.505 339.500 C 1049.158 341.241, 1049.376 341.065, 1050.185 338.139 C 1051.830 332.193, 1048.010 320.300, 1042.543 314.348 C 1040.600 312.232, 1039.007 310.122, 1039.005 309.660 C 1038.996 308.085, 1034.509 305.022, 1027 301.465 C 1022.875 299.511, 1018.719 297.482, 1017.764 296.956 C 1015.434 295.673, 1000 295.712, 1000 297 M 976.500 305 C 975.663 306.354, 976.792 308, 978.559 308 C 979.352 308, 980 307.100, 980 306 C 980 303.930, 977.587 303.240, 976.500 305 M 712 334.903 C 711.175 335.336, 709.375 336.292, 708 337.029 C 706.625 337.765, 704.274 338.988, 702.775 339.745 C 699.691 341.303, 697.310 344.433, 694.165 351.066 C 692.013 355.605, 691.187 364, 692.893 364 C 693.938 364, 695 361.556, 695 359.153 C 695 354.039, 705.180 341.480, 712.245 337.875 C 714.349 336.802, 715.803 335.491, 715.476 334.962 C 714.782 333.838, 714.057 333.826, 712 334.903 M 801.667 355.667 C 801.300 356.033, 801 357.089, 801 358.013 C 801 359.767, 790.565 371, 788.936 371 C 788.421 371, 787.152 371.848, 786.115 372.885 C 783.555 375.445, 773.636 379.060, 767.367 379.717 C 764.544 380.013, 759.958 379.710, 757.175 379.042 C 750.513 377.444, 748.557 378.197, 747.147 382.902 C 746.511 385.028, 744.837 388.830, 743.427 391.351 C 740.663 396.297, 732.414 405, 730.490 405 C 728.042 405, 725.802 409.064, 724.336 416.161 C 723.502 420.197, 722.423 423.981, 721.939 424.568 C 720.771 425.983, 716.003 445.757, 716.001 449.191 C 716.001 450.671, 715.511 452.184, 714.913 452.554 C 714.315 452.923, 714.042 454.053, 714.307 455.065 C 714.571 456.076, 714.411 457.038, 713.951 457.202 C 713.490 457.366, 712.655 461.180, 712.094 465.678 C 711.533 470.176, 710.784 475.014, 710.429 476.428 C 709.957 478.308, 710.175 479, 711.238 479 C 713.061 479, 719.280 475.987, 720.149 474.683 C 720.506 474.147, 721.464 473.964, 722.277 474.276 C 723.091 474.588, 724.149 474.465, 724.628 474.003 C 725.954 472.724, 736.640 471, 743.242 471 C 749.239 471, 762.294 472.628, 765 473.714 C 765.825 474.045, 767.096 474.217, 767.824 474.097 C 768.552 473.977, 769.677 474.301, 770.324 474.818 C 770.971 475.335, 774.090 476.501, 777.257 477.409 C 780.423 478.317, 785.280 480.396, 788.051 482.030 C 790.821 483.663, 793.254 485, 793.456 485 C 794.707 485, 805.792 497.189, 807.552 500.500 C 809.608 504.368, 809.841 504.496, 814.589 504.387 C 822.911 504.197, 833.829 505.884, 841.580 508.560 L 848.983 511.115 852.241 508.693 C 854.034 507.362, 858.813 504.362, 862.861 502.027 C 869.307 498.310, 871.545 497.602, 880.861 496.335 C 887.196 495.474, 894.332 495.138, 898.500 495.505 C 910.151 496.532, 924.284 498.843, 924.910 499.824 C 925.235 500.333, 927.075 501.082, 929 501.490 C 930.925 501.897, 933.625 502.828, 935 503.559 C 936.375 504.289, 940.525 506.279, 944.222 507.981 C 951.849 511.492, 959.947 518.790, 962.681 524.616 C 964.303 528.073, 964.942 528.531, 968.502 528.779 C 970.701 528.933, 977.225 529.912, 983 530.955 C 999.849 533.997, 1001.876 534.100, 1003.015 531.973 C 1004.526 529.148, 1004.197 526.056, 1002.010 522.516 C 998.949 517.563, 997.349 505.214, 998.836 498.015 C 1000.335 490.760, 1003.530 483.362, 1005.687 482.155 C 1007.859 480.940, 1006.718 478.223, 1003.526 477.010 C 1002.137 476.482, 1000.992 475.701, 1000.983 475.275 C 1000.974 474.849, 999.041 472.449, 996.688 469.941 C 990.576 463.427, 987.994 456.835, 988.024 447.815 C 988.037 443.792, 988.535 438.700, 989.131 436.500 C 989.726 434.300, 990.278 431.155, 990.357 429.511 C 990.485 426.842, 990.179 426.513, 987.500 426.436 C 982.179 426.284, 975 424.799, 975 423.851 C 975 423.344, 972.903 422.030, 970.340 420.931 C 967.535 419.729, 963.192 416.359, 959.431 412.467 C 952.355 405.142, 949 397.426, 949 388.472 C 949 385.646, 948.726 383.059, 948.390 382.723 C 948.055 382.388, 946.142 383.128, 944.140 384.368 C 936.994 388.795, 933.950 389.500, 922 389.500 C 911.794 389.500, 909.938 389.223, 905.500 387.034 C 895.022 381.866, 887.856 376.271, 886.585 372.267 C 886.221 371.120, 885.265 369.635, 884.461 368.968 C 883.658 368.301, 883 366.896, 883 365.846 C 883 362.600, 880.395 362.718, 875.654 366.181 C 867.193 372.361, 864.211 373.776, 856.247 375.390 C 841.937 378.289, 829.844 376.741, 821.394 370.927 C 819.054 369.317, 816.766 368, 816.310 368 C 814.893 368, 806.830 359.684, 805.916 357.280 C 805.077 355.073, 803.035 354.298, 801.667 355.667 M 1048.557 358.907 C 1048.247 359.409, 1048.277 360.557, 1048.623 361.459 C 1049.318 363.272, 1052.109 363.176, 1052.728 361.318 C 1053.215 359.855, 1049.351 357.622, 1048.557 358.907 M 1063.167 360.585 C 1061.323 362.671, 1063.193 364.758, 1067.656 365.595 C 1072.479 366.500, 1082.519 374.173, 1085.941 379.569 C 1090.321 386.475, 1092.391 396.448, 1091.714 407.380 L 1091.150 416.500 1093.020 413 C 1094.049 411.075, 1095.408 408.375, 1096.040 407 C 1097.358 404.131, 1096.836 390.771, 1095.328 388.786 C 1094.790 388.079, 1093.816 385.700, 1093.163 383.500 C 1092.510 381.300, 1090.294 377.025, 1088.238 374 C 1085.032 369.283, 1083.219 367.837, 1075.500 363.842 C 1065.350 358.589, 1065.010 358.499, 1063.167 360.585 M 1094 440.759 C 1094 441.727, 1094.843 443.045, 1095.873 443.689 C 1098.741 445.479, 1100.365 456.032, 1099.497 467.224 C 1099.101 472.326, 1099.071 476.219, 1099.430 475.875 C 1099.789 475.531, 1101.005 471.993, 1102.132 468.011 C 1104.136 460.929, 1104.142 460.608, 1102.409 453.136 C 1100.778 446.100, 1096.996 439, 1094.881 439 C 1094.397 439, 1094 439.792, 1094 440.759 M 757.120 442.965 C 749.851 444.111, 744.156 446.751, 740.250 450.785 C 736.224 454.944, 735.995 458.707, 739.565 462.061 C 742.073 464.417, 742.525 464.471, 759.815 464.502 C 774.806 464.529, 778.102 464.813, 781.452 466.365 C 785.647 468.308, 790.975 468.096, 793.647 465.878 C 795.259 464.540, 798 458.559, 798 456.381 C 798 453.792, 790.986 447.240, 785.850 445.031 C 780.025 442.525, 766.214 441.532, 757.120 442.965 M 897 462 C 897 462.550, 895.512 463, 893.694 463 C 890.543 463, 884.638 466.394, 882.827 469.246 C 881.042 472.057, 881.946 478.045, 884.514 480.426 C 887.486 483.179, 890.903 483.984, 899.875 484.044 C 906.261 484.087, 915.138 485.805, 916.618 487.285 C 917.012 487.678, 918.152 488, 919.152 488 C 920.153 488, 924.015 489.633, 927.736 491.629 C 936.553 496.359, 941.668 496.650, 945.834 492.659 C 949.389 489.253, 950.253 484.935, 948.052 481.579 C 946.087 478.585, 939.700 473.414, 935 471.014 C 927.822 467.348, 912.904 463, 907.502 463 C 904.541 463, 901.840 462.550, 901.500 462 C 901.160 461.450, 900.009 461, 898.941 461 C 897.873 461, 897 461.450, 897 462 M 193 490 L 162.500 490.500 156.551 493.542 C 151.630 496.058, 150.161 497.440, 148.051 501.542 L 145.500 506.500 145.500 535.500 L 145.500 564.500 379.126 564.752 C 569.491 564.958, 612.951 564.764, 613.827 563.708 C 614.525 562.867, 614.955 553.297, 615.050 536.456 C 615.186 512.286, 614.743 505, 613.136 505 C 612.780 505, 611.909 503.692, 611.202 502.094 C 608.185 495.279, 601.475 491.232, 591.774 490.376 C 583.739 489.667, 233.449 489.337, 193 490 M 730 494.500 C 727.139 496.425, 724.507 498.027, 724.150 498.061 C 723.333 498.137, 717.690 505.257, 714.396 510.365 C 708.983 518.760, 710.758 524.341, 716.635 517.408 C 725.563 506.880, 727.345 505, 728.403 505 C 729.031 505, 731.100 503.200, 733 501 C 734.900 498.800, 736.845 497, 737.323 497 C 738.687 497, 744 492.968, 744 491.932 C 744 491.419, 742.020 491, 739.600 491 C 736.230 491, 733.985 491.818, 730 494.500 M 684.287 501.700 C 679.179 508.257, 676.556 514.035, 676.941 517.886 C 677.072 519.198, 676.593 520.634, 675.877 521.076 C 673.700 522.422, 673.378 540.887, 675.456 545.266 C 676.378 547.210, 677.032 549.408, 676.909 550.150 C 676.621 551.883, 677.974 555, 679.014 555 C 679.454 555, 680.572 552.413, 681.498 549.250 C 682.424 546.087, 683.639 542.375, 684.199 541 C 684.759 539.625, 685.812 536.545, 686.539 534.155 C 687.266 531.766, 688.488 529.066, 689.255 528.155 C 691.591 525.381, 693.184 508.340, 691.608 502.994 C 689.920 497.272, 688.001 496.933, 684.287 501.700 M 180.259 517.511 C 177.910 519.521, 175.455 522.861, 174.513 525.327 C 172.979 529.345, 172.984 529.928, 174.587 534.066 C 177.671 542.027, 182.970 546, 190.504 546 C 195.937 546, 202.559 541.392, 204.602 536.188 C 205.399 534.160, 206.479 531.735, 207.003 530.799 C 208.392 528.319, 203.480 519.398, 199.077 516.407 C 196.381 514.574, 194.203 514, 189.948 514 C 185.004 514, 183.887 514.405, 180.259 517.511 M 229.173 516.963 C 223.837 520.861, 221.565 525.811, 222.381 531.761 C 223.149 537.366, 224.269 539.341, 228.520 542.583 C 233.741 546.565, 239.600 546.905, 245.314 543.556 C 253.225 538.920, 256.130 529.519, 251.932 522.136 C 248.941 516.875, 245.675 514.869, 239.177 514.300 C 233.993 513.846, 233.124 514.077, 229.173 516.963 M 278.664 515.883 C 275.716 517.826, 269.332 525, 270.550 525 C 270.932 525, 270.682 525.679, 269.993 526.508 C 268.186 528.686, 269.389 534.333, 272.541 538.465 C 278.533 546.321, 286.829 548.190, 294.413 543.392 C 304.172 537.218, 305.142 521.964, 296.069 517.366 C 294.839 516.742, 293.330 515.730, 292.716 515.116 C 290.886 513.286, 281.855 513.779, 278.664 515.883 M 885.247 515.058 C 877.176 516.650, 864.588 526.955, 861.403 534.578 C 859.930 538.104, 859.497 544, 860.711 544 C 861.101 544, 863.914 541.413, 866.961 538.250 C 876.341 528.513, 887.339 519.058, 890.750 517.798 C 892.538 517.138, 894 516.014, 894 515.299 C 894 513.861, 891.643 513.796, 885.247 515.058 M 813.889 522.613 C 812.093 523.148, 810 527.100, 810 529.958 C 810 533.405, 805.648 543.445, 801.095 550.500 C 795.561 559.074, 786.833 567.781, 780.919 570.625 C 769.615 576.061, 765.198 577.814, 761.396 578.373 C 755.224 579.281, 736.087 577.230, 734.329 575.472 C 733.521 574.664, 731.654 573.718, 730.180 573.370 C 722.794 571.627, 707.701 559.123, 703.742 551.469 C 702.897 549.833, 701.314 547.689, 700.226 546.704 C 697.598 544.326, 697.225 545.370, 696.373 557.491 C 695.794 565.732, 695.946 567.260, 697.588 569.705 C 701.020 574.814, 701.678 576.569, 700.905 578.546 C 699.387 582.425, 699.967 583.684, 704 585.268 C 707.546 586.661, 708.002 587.217, 708.014 590.170 C 708.036 595.655, 708.992 597.634, 712.328 599.103 C 714.192 599.924, 716.157 601.901, 717.094 603.896 C 717.971 605.763, 720.446 608.477, 722.594 609.927 C 724.742 611.377, 726.944 613.561, 727.487 614.781 C 728.151 616.274, 729.350 617, 731.148 617 C 732.892 617, 734.701 618.044, 736.347 620 C 739.898 624.221, 741.677 623.868, 742.538 618.774 C 743.612 612.419, 748.601 603.751, 754.759 597.544 C 757.784 594.495, 760.739 592, 761.326 592 C 761.913 592, 764.102 590.815, 766.192 589.367 C 769.115 587.341, 771.594 586.619, 776.933 586.237 C 782.932 585.808, 784.248 585.351, 786.624 582.870 C 790.490 578.835, 794.891 578.968, 799.206 583.250 C 808.766 592.739, 811.228 593.524, 818.788 589.500 C 823.604 586.936, 826.097 586.430, 827.417 587.750 C 827.829 588.163, 828.485 588.500, 828.874 588.500 C 829.263 588.500, 831.427 589.962, 833.684 591.750 C 837.183 594.521, 838.595 595, 843.259 595 C 847.224 595, 849.433 595.553, 851.284 597.009 C 852.689 598.114, 855.224 599.295, 856.919 599.634 C 858.613 599.973, 860 600.613, 860 601.058 C 860 601.502, 861.013 602.168, 862.250 602.537 C 864.625 603.246, 876 613.817, 876 615.314 C 876 615.797, 876.932 617.501, 878.072 619.101 C 879.212 620.702, 879.964 622.796, 879.743 623.756 C 879.523 624.715, 880.500 627.075, 881.914 629 C 883.998 631.837, 884.555 633.891, 884.857 639.846 L 885.228 647.193 889.386 646.569 C 892.322 646.129, 894.125 646.385, 895.522 647.441 C 898.497 649.690, 900.390 649.317, 902.842 646 C 904.638 643.571, 905.792 643, 908.907 643 C 911.161 643, 913.287 643.641, 914.040 644.548 C 916.056 646.978, 919.271 645.840, 921.903 641.766 C 924.838 637.222, 929.591 635.847, 933.504 638.411 C 934.877 639.310, 936 639.693, 936 639.262 C 936 638.831, 937.551 636.683, 939.448 634.489 C 942.721 630.701, 943.188 630.499, 948.698 630.472 C 955.622 630.438, 956.558 629.959, 957.340 626.050 C 958.089 622.306, 965.250 615.226, 968.707 614.811 C 971.479 614.478, 971.785 614.090, 975.123 606.669 C 976.548 603.503, 978.576 601.030, 981.010 599.494 C 984.435 597.332, 988 591.318, 988 587.703 C 988 586.173, 993.078 580.474, 995.017 579.828 C 996.005 579.498, 996.509 577.184, 996.737 571.931 C 996.915 567.844, 997.834 562.080, 998.780 559.122 L 1000.500 553.744 998.113 552.159 C 996.776 551.272, 994.223 550.703, 992.313 550.868 C 990.436 551.030, 988.360 550.722, 987.700 550.184 C 987.040 549.646, 981.739 548.886, 975.921 548.495 L 965.342 547.784 963.522 553.642 C 959.820 565.563, 953.104 577.150, 945.928 584 C 937.750 591.804, 934.412 593.999, 925.465 597.454 C 921.634 598.934, 917.520 600.620, 916.322 601.202 C 915.124 601.784, 912.987 602.039, 911.572 601.769 C 910.157 601.499, 909 601.665, 909 602.139 C 909 603.292, 895.272 603.249, 894.558 602.094 C 894.250 601.596, 893.149 601.410, 892.112 601.681 C 891.074 601.952, 889.923 601.685, 889.554 601.087 C 889.184 600.489, 887.837 600, 886.560 600 C 884.019 600, 873.542 596.205, 868 593.277 C 864.381 591.365, 853.591 580.875, 851.063 576.810 C 847.508 571.095, 844.221 563.088, 843.547 558.500 C 843.143 555.750, 842.352 552.940, 841.788 552.255 C 841.225 551.571, 841 550.109, 841.288 549.006 C 841.576 547.904, 841.404 546.750, 840.906 546.442 C 839.466 545.552, 839.917 537.693, 841.532 535.559 C 844.492 531.645, 842.436 527.966, 836.500 526.556 C 834.850 526.165, 832.673 525.098, 831.662 524.187 C 829.848 522.552, 817.707 521.477, 813.889 522.613 M 1041.788 553.989 C 1040.297 554.439, 1037.012 556.200, 1034.488 557.903 C 1031.965 559.606, 1029.472 561, 1028.950 561 C 1028.427 561, 1028 561.620, 1028 562.378 C 1028 563.135, 1027.398 564.255, 1026.662 564.866 C 1025.926 565.476, 1024.785 567.773, 1024.128 569.969 C 1023.353 572.555, 1021.540 575.079, 1018.978 577.138 L 1015.025 580.315 1015.162 587.525 C 1015.262 592.780, 1014.852 595.374, 1013.649 597.090 C 1012.540 598.674, 1012 601.510, 1012 605.755 C 1012 612.908, 1010.304 617.787, 1006.490 621.601 C 1005.049 623.041, 1004.099 624.817, 1004.379 625.546 C 1004.659 626.275, 1007.270 628.475, 1010.181 630.436 C 1014.808 633.552, 1016.229 633.997, 1021.487 633.976 C 1024.794 633.963, 1029.300 633.488, 1031.500 632.920 C 1033.700 632.352, 1036.946 631.514, 1038.714 631.057 C 1043.205 629.897, 1053.831 622.094, 1059.487 615.803 C 1063.355 611.502, 1068.410 602.729, 1069.039 599.230 C 1069.111 598.828, 1069.540 598.050, 1069.991 597.500 C 1071.709 595.407, 1073.264 583.727, 1072.670 577.370 C 1071.666 566.615, 1065.048 555.941, 1058.206 554.040 C 1053.889 552.842, 1045.681 552.816, 1041.788 553.989 M 780.446 615.200 C 778.623 616.307, 775.524 616.991, 772.317 616.995 C 767.810 616.999, 767.048 617.293, 766.467 619.250 C 766.099 620.487, 764.652 623.891, 763.251 626.814 C 760.798 631.928, 760.750 632.391, 761.952 639.118 C 762.818 643.964, 763.784 646.472, 765.101 647.295 C 766.145 647.947, 767.002 649.160, 767.004 649.991 C 767.006 650.821, 767.899 652.962, 768.989 654.750 C 770.446 657.140, 771.702 658.006, 773.735 658.022 C 775.256 658.034, 777.625 658.924, 779 660 C 783.147 663.243, 784.755 662.555, 787.760 656.250 C 789.619 652.348, 791.443 650.053, 793.433 649.108 L 796.367 647.715 794.072 645.858 C 792.811 644.836, 791.065 644, 790.193 644 C 787.937 644, 781 638.992, 781 637.364 C 781 636.614, 780.368 636, 779.595 636 C 777.943 636, 773 627.976, 773 625.294 C 773 621.231, 775.826 619, 780.973 619 C 785.350 619, 786.311 619.447, 790.666 623.504 C 797.419 629.795, 800.515 630.993, 811.795 631.680 C 825.715 632.528, 832.612 631.522, 834.697 628.339 C 837.058 624.736, 835.353 624.034, 824.202 624.015 C 815.875 624.002, 814.675 623.764, 812.702 621.740 C 808.095 617.011, 807.647 616.882, 803.422 619.082 C 797.705 622.058, 790.601 621.037, 786.446 616.641 L 783.392 613.411 780.446 615.200 M 851.667 628.667 C 851.300 629.033, 851 630.140, 851 631.126 C 851 633.782, 847.691 639.947, 846.250 639.975 C 845.563 639.989, 845 640.456, 845 641.013 C 845 642.921, 833.651 647.049, 826.068 647.899 C 821.488 648.412, 814.827 648.344, 809.197 647.726 C 797.697 646.466, 796.161 647.485, 803.544 651.478 C 808.263 654.031, 809.404 654.286, 811.898 653.345 C 814.355 652.417, 815.193 652.579, 817.514 654.430 C 820.129 656.515, 820.212 656.861, 819.523 662.802 C 818.821 668.854, 818.859 669, 821.167 669 C 822.466 669, 825.209 669.900, 827.261 671 C 832.025 673.553, 834.376 673.521, 837.984 670.854 C 840.405 669.064, 841.738 668.809, 846.026 669.317 C 850.569 669.855, 851.446 669.645, 853.583 667.508 C 854.912 666.179, 856 664.567, 856 663.926 C 856 663.286, 857.620 660.095, 859.600 656.835 C 863.172 650.956, 863.195 650.846, 862.497 642.969 C 861.842 635.562, 861.551 634.792, 858.176 631.514 C 854.620 628.060, 852.988 627.346, 851.667 628.667 M 397.532 638.568 C 393.759 640.525, 392.077 643.011, 388.786 651.500 C 387.293 655.350, 385.410 659.643, 384.603 661.040 C 383.100 663.641, 382.084 666.290, 377.007 680.854 C 375.405 685.448, 373.483 690.173, 372.735 691.354 C 371.987 692.534, 370.351 696.425, 369.099 700 C 365.951 708.989, 361.983 719.108, 360.669 721.500 C 360.065 722.600, 359.528 723.725, 359.475 724 C 359.422 724.275, 358.574 726.300, 357.592 728.500 C 356.609 730.700, 354.005 737, 351.805 742.500 C 349.606 748, 347.441 752.950, 346.994 753.500 C 346.547 754.050, 345.268 757.200, 344.152 760.500 C 340.060 772.590, 335.081 785.600, 333.066 789.461 C 331.930 791.640, 331 794.392, 331 795.577 C 331 798.716, 334.745 803, 337.489 803 C 338.778 803, 340.096 803.563, 340.417 804.250 C 340.883 805.250, 341.117 805.250, 341.583 804.250 C 341.904 803.563, 343.248 803, 344.569 803 C 347.268 803, 351.393 797.590, 352.575 792.500 C 352.958 790.850, 353.830 788.375, 354.512 787 C 360.005 775.923, 363.267 768.463, 364.419 764.345 C 365.164 761.680, 366.339 757.925, 367.029 756 C 368.681 751.392, 370.648 745.986, 371.579 743.500 C 371.990 742.400, 372.382 741.275, 372.449 741 C 372.516 740.725, 373.201 739.375, 373.972 738 C 374.742 736.625, 376.581 732.125, 378.057 728 C 379.534 723.875, 381.528 718.700, 382.489 716.500 C 383.450 714.300, 384.215 712.275, 384.189 712 C 384.163 711.725, 384.732 710.825, 385.453 710 C 386.174 709.175, 387.077 707.375, 387.461 706 C 388.261 703.135, 391.657 693.997, 393.649 689.349 C 394.392 687.616, 395 685.539, 395 684.734 C 395 683.929, 395.809 682.197, 396.797 680.885 C 397.785 679.573, 399.871 675.125, 401.431 671 C 402.992 666.875, 405.200 661.025, 406.337 658 C 407.475 654.975, 408.989 651.790, 409.703 650.921 C 411.927 648.215, 411.267 643.622, 408.250 640.816 C 404.631 637.449, 401.111 636.711, 397.532 638.568 M 290.500 660.166 C 289.400 660.800, 283.752 665.410, 277.949 670.410 C 266.644 680.149, 260.981 684.912, 249.056 694.705 C 244.900 698.118, 239.700 702.736, 237.500 704.967 C 235.300 707.198, 233.096 709.018, 232.603 709.012 C 232.110 709.005, 229.800 710.562, 227.470 712.471 C 218.726 719.636, 220.703 726.920, 233.786 735.743 C 235.829 737.120, 238.861 739.767, 240.525 741.624 C 242.189 743.481, 243.926 745, 244.384 745 C 245.540 745, 260.337 757.234, 270.432 766.536 C 271.648 767.657, 274.860 770.343, 277.571 772.506 C 280.282 774.670, 284.402 778.141, 286.728 780.220 C 289.053 782.299, 291.840 784, 292.920 784 C 296.486 784, 301.523 780.209, 302.856 776.522 C 303.990 773.387, 303.913 772.688, 302.165 770.247 C 299.217 766.128, 290.564 758.144, 278.062 748.006 C 271.909 743.016, 265.440 737.657, 263.687 736.097 C 253.307 726.858, 249.829 724, 248.967 724 C 246.197 724, 248.622 719.800, 253.750 715.713 C 260.198 710.575, 262.154 708.880, 273.412 698.673 C 277.763 694.728, 284.063 689.297, 287.412 686.604 C 290.760 683.911, 295.698 679.590, 298.386 677.001 C 303.180 672.381, 303.258 672.208, 302.587 667.729 C 302.106 664.522, 301.205 662.709, 299.555 661.628 C 296.142 659.392, 292.783 658.849, 290.500 660.166 M 443.433 662.304 C 441.353 664.093, 440.729 665.568, 440.641 668.900 C 440.513 673.795, 440.285 673.549, 463.526 693.500 C 490.399 716.568, 494.519 720.194, 495.154 721.330 C 495.751 722.399, 486.216 730.923, 462.152 750.830 C 448.560 762.074, 441.897 768.298, 440.444 771.109 C 437.315 777.160, 441.836 784, 448.964 784 C 452.005 784, 453.707 783.069, 458.580 778.741 C 461.836 775.849, 467.200 771.247, 470.500 768.515 C 476.896 763.221, 481.875 758.881, 485.680 755.283 C 489.658 751.522, 501.680 742, 502.450 742 C 502.851 742, 503.927 741.090, 504.840 739.979 C 505.753 738.867, 508.975 736.250, 512 734.163 C 515.025 732.076, 518.056 729.273, 518.735 727.934 C 520.444 724.567, 520.313 718.505, 518.500 717 C 517.675 716.315, 517 715.222, 517 714.570 C 517 713.918, 515.087 712.024, 512.750 710.361 C 509.262 707.879, 497.312 697.936, 483 685.607 C 481.625 684.422, 477.350 680.801, 473.500 677.560 C 469.650 674.318, 466.275 671.404, 466 671.083 C 464.729 669.600, 455.266 662.198, 453.316 661.161 C 449.937 659.365, 446.370 659.777, 443.433 662.304 M 766.267 714.133 C 765.115 715.285, 765.628 716.513, 770.276 723.730 C 771.774 726.057, 773 728.373, 773 728.878 C 773 729.383, 775.572 731.980, 778.715 734.648 C 781.858 737.317, 785.478 740.513, 786.760 741.750 C 788.042 742.987, 789.316 744, 789.592 744 C 789.867 744, 793.334 745.517, 797.296 747.372 C 801.258 749.227, 806.862 751.069, 809.749 751.466 C 812.636 751.863, 815.238 752.576, 815.531 753.050 C 815.824 753.524, 816.679 753.677, 817.431 753.388 C 818.183 753.100, 819.095 753.344, 819.458 753.932 C 820.385 755.432, 847 755.394, 847 753.893 C 847 753.284, 847.661 753.040, 848.468 753.349 C 849.275 753.659, 850.170 753.534, 850.456 753.072 C 850.742 752.609, 853.113 751.910, 855.725 751.519 C 858.337 751.127, 861.695 750.175, 863.187 749.403 C 864.680 748.631, 866.711 747.985, 867.700 747.966 C 868.690 747.947, 871.300 747.063, 873.500 746 C 875.700 744.937, 878.517 744.053, 879.760 744.034 C 881.003 744.015, 882.790 743.100, 883.732 742 C 884.674 740.900, 885.911 740, 886.480 740 C 891.519 740, 922.888 716.285, 920.116 714.572 C 919.578 714.239, 918.828 714.469, 918.449 715.083 C 918.069 715.697, 915.001 717.504, 911.630 719.099 C 907.021 721.279, 904.012 722.004, 899.500 722.021 C 895.520 722.036, 891.985 722.755, 889 724.156 C 885.731 725.691, 882.138 726.341, 875.867 726.535 C 869.489 726.731, 866.496 727.284, 864.411 728.650 C 862.213 730.090, 860.138 730.424, 855.044 730.158 C 847.472 729.763, 841.636 729.761, 828.750 730.148 C 820.980 730.381, 818.780 730.082, 815 728.279 C 811.722 726.716, 807.903 726.004, 800.935 725.658 C 792.405 725.234, 790.891 724.861, 786.935 722.207 C 784.188 720.364, 780.499 718.961, 777.240 718.521 C 774.070 718.092, 771.487 717.128, 770.740 716.094 C 768.926 713.584, 767.459 712.941, 766.267 714.133 M 120.500 758.956 C 119.400 759.452, 117.345 760.102, 115.934 760.401 C 110.642 761.524, 104 769.530, 104 774.787 C 104 776.670, 104.891 779.318, 106 780.727 C 108.792 784.277, 108.505 787.005, 104.803 792.100 C 103.045 794.520, 101.040 798.075, 100.347 800 C 98.518 805.083, 98.653 817.429, 100.578 821.151 C 102.398 824.670, 102.588 827.905, 101.514 837.067 C 100.598 844.886, 102.437 850.057, 108.426 856.500 C 112.073 860.423, 112.129 860.605, 111.371 866 C 109.664 878.149, 110.930 881.208, 119.446 885.517 C 124.919 888.286, 125.221 888.326, 131.778 887.127 C 144.495 884.802, 146.821 883.923, 149.475 880.444 C 152.840 876.033, 152.666 874.365, 148.429 870.368 C 145.482 867.589, 144.084 867, 140.429 867 C 137.993 867, 136 867.410, 136 867.912 C 136 868.946, 128.539 870.501, 125.500 870.100 C 122.330 869.683, 120.755 867.480, 120.664 863.338 C 120.480 854.949, 127.062 851.246, 144.215 850.088 C 150.510 849.663, 153.404 849.026, 154.637 847.793 C 157.389 845.039, 156.939 841.333, 153.440 837.942 C 150.771 835.355, 149.230 834.795, 142.907 834.115 C 138.454 833.637, 132.563 833.740, 128.134 834.375 L 120.768 835.432 118.384 832.660 C 114.344 827.963, 115.252 825.493, 122.723 820.848 C 126.234 818.666, 127.523 818.500, 141 818.500 L 155.500 818.500 157.384 814.642 C 159.142 811.042, 159.161 810.561, 157.667 807.429 C 156.787 805.583, 154.364 802.968, 152.284 801.618 C 147.356 798.421, 134.664 795.938, 124.285 796.142 C 114.700 796.329, 113 795.415, 113 790.069 C 113 786.093, 114.105 784.222, 117.973 781.646 C 121.153 779.529, 133.366 779.451, 141 781.500 C 148.996 783.646, 151.669 783.436, 153.587 780.507 C 155.684 777.307, 154.875 774.066, 150.830 769.459 C 147.006 765.104, 142.326 762.624, 133.894 760.484 C 124.769 758.169, 122.755 757.939, 120.500 758.956 M 931 797.392 C 931 798.157, 929.875 799.066, 928.500 799.411 C 927.125 799.756, 926 800.474, 926 801.008 C 926 802.543, 918.632 811, 917.295 811 C 916.258 811, 911.001 816.561, 910.998 817.660 C 910.997 818.122, 909.197 820.193, 906.998 822.262 C 904.799 824.331, 903 826.469, 903 827.012 C 903 827.555, 902.325 828, 901.500 828 C 900.675 828, 900 828.391, 900 828.869 C 900 829.348, 898.145 832.068, 895.879 834.915 C 893.612 837.762, 892.063 840.396, 892.435 840.769 C 893.126 841.459, 899.291 835.416, 904.230 829.207 C 908.806 823.455, 918.284 812.868, 922.248 809.081 C 924.310 807.111, 925.997 804.938, 925.998 804.250 C 925.999 803.563, 926.430 803, 926.955 803 C 927.480 803, 929.055 801.855, 930.455 800.455 C 933.097 797.812, 933.726 796, 932 796 C 931.450 796, 931 796.626, 931 797.392 M 220.499 857.116 C 215.613 857.911, 212.785 861.359, 213.624 865.500 C 214.460 869.633, 215.647 870.843, 219.866 871.868 C 221.886 872.359, 279.960 872.684, 350.581 872.601 C 470.564 872.460, 477.813 872.352, 480.376 870.673 C 485.768 867.140, 486.021 860.687, 480.876 857.934 C 478.973 856.915, 226.608 856.122, 220.499 857.116 M 219.959 901.514 C 213.711 903.618, 212.041 909.811, 216.575 914.070 L 219.149 916.489 292.348 916.462 C 363.540 916.435, 365.621 916.381, 368.242 914.467 C 370.397 912.895, 370.943 911.679, 370.969 908.405 C 371.031 900.250, 376.381 900.800, 295.120 900.610 C 246.144 900.496, 222.125 900.785, 219.959 901.514" stroke="none" fill="#171916" fill-rule="evenodd"/>
</svg>