<svg role="img" aria-labelledby="artwork-title" shape-rendering="geometricPrecision" xmlns="http://www.w3.org/2000/svg" width="1200" height="1200" viewBox="0 0 1200 1200" version="1.1">
	<title id="artwork-title">Mascot typing on a laptop</title>
	<path d="M 752.833 181.972 C 752.650 182.506, 749.092 183.595, 744.926 184.390 C 735.274 186.233, 725.605 190.805, 718.106 197.071 C 714.861 199.782, 711.660 202, 710.992 202 C 710.324 202, 707.690 200.274, 705.139 198.163 C 698.973 193.064, 695.349 191.395, 684.068 188.463 C 671.586 185.219, 665.341 185.312, 656.562 188.871 C 649.760 191.629, 642.633 197.430, 641.444 201.177 C 640.675 203.600, 637.548 204.336, 633.584 203.028 C 631.722 202.413, 627.567 201.866, 624.350 201.812 C 617.153 201.691, 613.531 203.168, 606.723 209 C 599.986 214.771, 597.660 217.032, 596.610 218.825 C 591.904 226.867, 589.944 231.622, 589.389 236.347 C 588.658 242.565, 588.330 242.733, 576.500 242.937 C 570.464 243.041, 564.568 244.413, 562.250 246.253 C 561.563 246.798, 561 246.999, 561 246.698 C 561 246.396, 557.507 247.857, 553.238 249.943 C 547.375 252.808, 543.936 255.382, 539.183 260.463 C 531.547 268.626, 528.372 275.413, 526.605 287.345 C 525.517 294.699, 524.860 296.603, 522.892 298.117 C 521.576 299.128, 519.923 299.966, 519.217 299.978 C 516.923 300.018, 508.576 304.775, 505.500 307.796 C 503.850 309.416, 501.375 312.420, 500 314.472 C 498.625 316.523, 496.757 319.012, 495.850 320.001 C 493.434 322.636, 489.213 335.376, 487.911 343.965 C 486.615 352.513, 487.434 365.464, 489.652 371.498 C 490.460 373.699, 491.587 377.039, 492.155 378.920 C 492.723 380.801, 494.946 384.719, 497.094 387.627 C 501.654 393.800, 501.714 394.189, 498.752 398.346 C 497.515 400.081, 496.491 401.725, 496.476 402 C 496.460 402.275, 495.697 403.625, 494.779 405 C 492.775 408.001, 490.785 419.282, 490.845 427.302 C 490.894 433.831, 493.306 443.209, 495.599 445.789 C 496.436 446.730, 498.912 449.838, 501.102 452.696 C 503.292 455.554, 506.078 458.203, 507.292 458.584 C 508.506 458.964, 510.595 460.130, 511.932 461.175 C 514.235 462.973, 514.372 463.675, 514.499 474.287 C 514.659 487.636, 517.173 494.925, 523.897 501.531 C 526.154 503.748, 528 506.330, 528 507.268 C 528 508.207, 526.087 510.158, 523.750 511.604 C 518.417 514.903, 512 520.981, 512 522.734 C 512 523.465, 511.299 524.332, 510.443 524.660 C 509.586 524.989, 509.117 525.863, 509.401 526.603 C 509.685 527.342, 509.342 528.297, 508.640 528.724 C 507.306 529.535, 504.540 537.953, 502.799 546.500 C 501.406 553.339, 502.510 571.844, 504.868 581.161 C 505.934 585.374, 508.185 591.224, 509.869 594.161 C 511.554 597.097, 513.839 601.152, 514.947 603.172 C 518.019 608.773, 527.077 618.048, 533.753 622.429 L 539.740 626.357 540.424 635.429 C 541.269 646.644, 544.530 656.370, 549.465 662.393 C 552.007 665.494, 553.354 668.280, 553.729 671.213 C 554.509 677.295, 556.977 681.654, 563.381 688.254 C 566.451 691.419, 569.841 695.727, 570.912 697.828 C 573.023 701.966, 590.466 719.640, 594.551 721.781 C 595.931 722.504, 596.792 723.528, 596.464 724.058 C 596.137 724.587, 591.286 728.037, 585.685 731.724 C 578.367 736.540, 571.699 742.247, 562 751.993 C 549.338 764.716, 531.043 786.244, 527.901 792.119 C 523.538 800.276, 521.916 802.934, 520.932 803.542 C 520.328 803.915, 519.009 806.146, 518 808.500 C 514.753 816.074, 512.698 815.545, 511.671 806.869 C 511.350 804.161, 510.411 801.268, 509.583 800.440 C 508.756 799.613, 507.789 797.263, 507.434 795.218 C 503.984 775.307, 499.266 766.012, 487.923 756.771 C 479.721 750.089, 478.853 749.931, 447.643 749.448 C 432.164 749.208, 415.225 748.779, 410 748.494 C 404.775 748.209, 359.325 747.539, 309 747.003 C 196.541 745.807, 154.965 745.202, 131 744.411 C 109.775 743.711, 102.285 744.850, 94.772 749.921 C 90.280 752.953, 85.758 758.618, 84.533 762.750 C 84.139 764.077, 83.072 765, 81.933 765 C 80.153 765, 80 765.782, 80 774.883 C 80 783.689, 80.203 784.820, 81.866 785.255 C 83.212 785.607, 84.155 787.522, 85.250 792.121 C 88.497 805.765, 91.204 815.509, 92.290 817.461 C 92.914 818.583, 93.314 819.885, 93.177 820.355 C 93.041 820.826, 93.342 821.726, 93.845 822.355 C 94.348 822.985, 95.753 827.775, 96.967 833 C 98.181 838.225, 99.569 842.977, 100.051 843.559 C 100.533 844.142, 101.551 848.205, 102.311 852.590 C 103.072 856.974, 104.305 861.672, 105.051 863.031 C 105.797 864.389, 106.454 865.950, 106.511 866.500 C 106.568 867.050, 106.863 868.175, 107.168 869 C 109.216 874.552, 111.051 881.151, 111.617 885 C 111.981 887.475, 112.847 890.631, 113.542 892.013 C 114.238 893.395, 115.130 896.770, 115.526 899.513 C 115.922 902.256, 116.938 906.075, 117.783 908 C 118.628 909.925, 119.399 911.725, 119.496 912 C 119.593 912.275, 120.014 913.400, 120.430 914.500 C 121.819 918.169, 122.778 921.395, 127.115 937 C 129.485 945.525, 131.753 952.642, 132.156 952.815 C 132.558 952.988, 132.640 953.775, 132.337 954.565 C 132.034 955.354, 132.284 956, 132.893 956 C 133.502 956, 134 957.116, 134 958.480 C 134 959.844, 134.629 962.656, 135.397 964.730 C 136.165 966.803, 137.508 971.425, 138.382 975 C 141.703 988.591, 142.273 990.596, 143.789 994 C 144.646 995.925, 145.407 997.950, 145.481 998.500 C 145.554 999.050, 145.886 1000.175, 146.218 1001 C 146.550 1001.825, 147.338 1004.713, 147.968 1007.418 C 148.598 1010.122, 149.740 1013.835, 150.506 1015.668 L 151.898 1019 160.827 1019 C 169.905 1019, 173.338 1017.738, 170.898 1015.298 C 170.319 1014.719, 169.477 1012.727, 169.029 1010.872 C 167.420 1004.223, 159.879 976.470, 159.282 975 C 158.947 974.175, 158.596 973.275, 158.503 973 C 158.409 972.725, 157.808 971.233, 157.166 969.685 C 156.525 968.137, 156 966.501, 156 966.050 C 156 965.598, 154.220 959.440, 152.045 952.365 C 149.870 945.289, 147.787 937.587, 147.417 935.250 C 147.047 932.913, 146.325 931, 145.813 931 C 145.301 931, 145.191 930.500, 145.569 929.888 C 145.947 929.277, 145.827 928.489, 145.303 928.138 C 144.778 927.787, 141.979 918.500, 139.082 907.500 C 136.186 896.500, 133.352 886.938, 132.785 886.250 C 132.219 885.563, 132.090 885, 132.500 885 C 132.910 885, 132.779 884.438, 132.209 883.750 C 131.283 882.632, 128.410 872.509, 125.895 861.500 C 124.485 855.329, 120.780 843.626, 119.851 842.408 C 119.392 841.807, 119.246 841.087, 119.527 840.807 C 119.807 840.527, 119.355 838.993, 118.524 837.399 C 117.693 835.804, 117.014 833.825, 117.016 833 C 117.018 832.175, 116.169 828.800, 115.129 825.500 C 114.089 822.200, 112.284 816.491, 111.119 812.813 C 109.954 809.135, 109 805.451, 109 804.628 C 109 803.804, 108.475 801.863, 107.834 800.315 C 107.192 798.767, 106.592 797.275, 106.500 797 C 106.408 796.725, 105.808 795.233, 105.166 793.685 C 104.525 792.137, 104 790.160, 104 789.293 C 104 788.425, 103.071 784.595, 101.935 780.782 C 99.676 773.197, 99.986 771.886, 105.182 767.045 C 107.330 765.044, 108.410 765, 155.189 765 C 187.092 765, 203 765.340, 203 766.022 C 203 766.706, 216.241 766.954, 243 766.772 C 265.001 766.623, 283.113 766.786, 283.250 767.135 C 283.536 767.862, 329.131 768.713, 411.500 769.529 C 442.850 769.839, 469.933 770.312, 471.684 770.580 C 475.219 771.119, 483.552 778.789, 485.180 783 C 485.711 784.375, 486.982 789.325, 488.005 794 C 492.410 814.142, 494.860 823.453, 495.839 823.780 C 496.416 823.972, 496.628 824.805, 496.311 825.632 C 495.994 826.459, 496.181 828.117, 496.727 829.317 C 497.273 830.518, 498.429 833.975, 499.295 837 C 501.853 845.934, 504.725 856.184, 506.002 860.941 C 506.658 863.384, 507.674 866.534, 508.259 867.941 C 508.844 869.348, 509.235 870.885, 509.126 871.355 C 509.018 871.826, 509.347 872.726, 509.857 873.355 C 510.367 873.985, 511.948 879.139, 513.370 884.809 C 514.792 890.480, 516.207 895.525, 516.514 896.023 C 516.821 896.520, 517.981 901.090, 519.092 906.178 C 520.202 911.266, 521.591 916.007, 522.178 916.714 C 522.765 917.421, 522.910 918, 522.500 918 C 522.090 918, 522.191 918.562, 522.724 919.250 C 523.257 919.938, 524.699 924.325, 525.928 929 C 527.158 933.675, 529.009 940.650, 530.043 944.500 C 531.076 948.350, 532.168 952.718, 532.469 954.206 C 532.770 955.694, 533.533 958.169, 534.164 959.706 C 534.795 961.243, 535.380 962.950, 535.463 963.500 C 535.546 964.050, 535.869 965.175, 536.179 966 C 537.146 968.566, 540.994 983.320, 541.656 987 C 542.002 988.925, 542.838 991.625, 543.513 993 C 544.188 994.375, 545.055 997.750, 545.439 1000.500 C 545.823 1003.250, 546.958 1007.300, 547.962 1009.500 C 548.965 1011.700, 550.068 1014.737, 550.412 1016.250 L 551.038 1019 561.050 1019 C 569.389 1019, 571.167 1018.727, 571.689 1017.368 C 572.034 1016.470, 571.824 1014.948, 571.224 1013.986 C 570.378 1012.632, 566 996.273, 566 994.468 C 566 994.262, 567.971 993.222, 570.379 992.156 C 574.079 990.520, 585.825 981.164, 592.309 974.689 C 595.841 971.162, 597.434 972.860, 598.244 981.012 C 598.653 985.131, 599.289 989.175, 599.657 990 C 600.026 990.825, 600.405 991.725, 600.500 992 C 600.595 992.275, 601.015 993.276, 601.433 994.224 C 601.852 995.172, 602.263 1001.022, 602.347 1007.224 L 602.500 1018.500 614.065 1018.780 C 627.437 1019.104, 626.467 1019.826, 629.484 1007.304 C 631.594 998.547, 634.054 993.553, 641.293 983.335 C 646.934 975.373, 660.759 960.693, 665.109 958.045 C 671.845 953.946, 679.697 950.043, 681.250 950.023 C 682.212 950.010, 683 949.605, 683 949.121 C 683 947.638, 695.512 943.510, 706.500 941.367 C 715.218 939.667, 731.949 939.691, 742.500 941.419 C 751.815 942.944, 767.051 946.801, 768.500 948.002 C 769.050 948.457, 769.725 948.839, 770 948.850 C 770.760 948.882, 772.675 949.486, 783 952.952 C 799.227 958.400, 803.307 959.970, 804.930 961.390 C 805.794 962.145, 807.625 963.095, 809 963.500 C 810.375 963.905, 812.194 964.843, 813.042 965.585 C 813.889 966.326, 817.710 968.110, 821.531 969.548 C 826.893 971.566, 829.509 972.025, 832.990 971.560 C 845.686 969.860, 961.990 967.608, 973.492 968.838 C 983.902 969.952, 986.838 969.035, 989.419 963.862 C 990.937 960.818, 990.899 960.557, 988.473 957.376 C 985.189 953.070, 978.686 951.095, 965.169 950.298 C 957.423 949.842, 954.295 949.246, 952.669 947.916 C 950.929 946.493, 950.747 945.890, 951.750 944.871 C 952.522 944.086, 953 940.782, 953 936.234 C 953 926.580, 953.805 925.227, 960.040 924.400 C 962.793 924.035, 965.291 923.338, 965.592 922.852 C 965.892 922.365, 966.577 922.238, 967.113 922.570 C 967.649 922.901, 968.648 922.707, 969.332 922.139 C 972.686 919.356, 1005.155 916.546, 1024.864 917.334 C 1042.550 918.041, 1063.556 920.387, 1065.322 921.852 C 1065.970 922.390, 1066.833 922.881, 1067.240 922.942 C 1068.080 923.070, 1068.460 923.182, 1076 925.536 C 1086.600 928.844, 1085.706 927.740, 1086.652 938.684 C 1088.031 954.647, 1087.330 993.076, 1085.460 1004 C 1082.726 1019.977, 1081.926 1018.454, 1093.222 1018.786 C 1102.644 1019.063, 1102.959 1019.001, 1103.440 1016.786 C 1104.395 1012.381, 1105.994 996.451, 1105.997 991.309 C 1105.999 988.454, 1106.450 985.840, 1107 985.500 C 1108.498 984.574, 1108.320 947.485, 1106.806 945.061 C 1105.343 942.719, 1107.018 938.295, 1109.741 937.304 C 1111.330 936.727, 1115.334 932.872, 1118.818 928.568 C 1120.542 926.437, 1119.983 913.898, 1117.188 892 C 1114.140 868.128, 1109.064 840, 1107.803 840 C 1107.396 840, 1107.322 839.325, 1107.638 838.500 C 1107.955 837.675, 1107.716 837, 1107.107 837 C 1106.498 837, 1106 836.398, 1106 835.661 C 1106 833.822, 1098.646 811.424, 1096.425 806.500 C 1095.433 804.300, 1094.565 802.275, 1094.496 802 C 1094.427 801.725, 1092.487 797.500, 1090.185 792.610 C 1087.883 787.721, 1086 783.553, 1086 783.349 C 1086 783.145, 1083.853 779.496, 1081.229 775.239 C 1078.605 770.983, 1075.810 766.227, 1075.018 764.671 C 1070.167 755.145, 1042.603 725.679, 1031.806 718.477 C 1029.438 716.898, 1026.375 714.609, 1025 713.392 C 1023.625 712.175, 1020.475 710.203, 1018 709.010 C 1015.525 707.817, 1012.825 706.442, 1012 705.954 C 1002.453 700.311, 993.503 696.636, 978 691.994 C 973.875 690.759, 969.575 689.326, 968.445 688.809 C 967.314 688.293, 965.964 687.995, 965.445 688.148 C 964.925 688.300, 963.553 687.898, 962.395 687.255 C 961.237 686.611, 957.223 685.595, 953.474 684.996 C 949.726 684.397, 946.271 683.668, 945.798 683.375 C 944.206 682.391, 927.343 680.191, 915.872 679.470 C 909.618 679.077, 903.938 678.305, 903.250 677.755 C 901.476 676.336, 901.700 674.364, 903.872 672.289 C 906.542 669.736, 911 660.933, 911 658.213 C 911 656.946, 912.013 654.889, 913.250 653.643 C 917.730 649.132, 920.951 643.371, 922.556 637 C 923.457 633.425, 924.609 630.063, 925.117 629.530 C 925.638 628.983, 930.725 628.687, 936.778 628.852 C 948.534 629.173, 957.940 626.976, 964.890 622.287 C 966.754 621.029, 968.732 620, 969.287 620 C 969.841 620, 972.216 618.425, 974.565 616.500 C 976.915 614.575, 979.026 613, 979.258 613 C 979.809 613, 992 600.809, 992 600.258 C 992 600.026, 993.500 597.961, 995.333 595.668 C 998.369 591.870, 1003.352 584.220, 1003.583 583 C 1003.635 582.725, 1004.609 580.475, 1005.748 578 C 1007.938 573.237, 1011 554.862, 1011 546.483 C 1011 543.740, 1010.126 536.909, 1009.058 531.304 C 1007.394 522.572, 1006.462 520.119, 1002.558 514.193 C 1000.051 510.388, 998 506.809, 998 506.241 C 998 505.672, 996.335 503.745, 994.300 501.959 C 989.751 497.964, 989.589 495.201, 993.660 491.036 C 996.733 487.894, 1002 478.546, 1002 476.236 C 1002 475.556, 1002.478 475, 1003.063 475 C 1003.647 475, 1004.027 474.212, 1003.907 473.250 C 1003.786 472.288, 1004.254 470.150, 1004.946 468.500 C 1006.395 465.047, 1005.734 449.590, 1004.050 447.561 C 1003.482 446.876, 1003.288 446.046, 1003.618 445.716 C 1003.948 445.385, 1003.213 443.704, 1001.985 441.978 C 999.423 438.381, 999.879 436.539, 1004.736 430.873 C 1009.479 425.340, 1011.584 421.802, 1013.586 416 C 1014.630 412.975, 1015.889 410.209, 1016.385 409.852 C 1016.881 409.496, 1017.040 408.259, 1016.737 407.103 C 1016.435 405.948, 1016.596 404.750, 1017.094 404.442 C 1018.327 403.680, 1018.267 384, 1017.031 384 C 1016.499 384, 1016.318 383.334, 1016.631 382.520 C 1017.606 379.977, 1007.137 360.137, 1002.697 356.115 C 1000.502 354.127, 997.726 351.506, 996.527 350.291 C 995.328 349.076, 993.168 347.634, 991.726 347.086 C 987.773 345.583, 985.711 341.889, 986.973 338.570 C 988.327 335.009, 988.286 320.477, 986.902 313.799 C 985.177 305.474, 980.098 296.181, 973.750 289.738 C 970.587 286.528, 967.990 283.586, 967.978 283.201 C 967.966 282.815, 966.665 281.825, 965.085 281 C 950.236 273.243, 947.249 271.934, 945.250 272.305 C 944.013 272.535, 943 272.335, 943 271.861 C 943 271.388, 940.541 271, 937.535 271 C 933.005 271, 931.878 270.640, 930.945 268.898 C 930.326 267.742, 930.036 265.970, 930.300 264.960 C 931.189 261.563, 928.361 250.547, 925.049 244.500 C 920.852 236.840, 914.754 228.027, 913.639 228.012 C 913.165 228.005, 910.493 226.088, 907.701 223.750 C 904.910 221.412, 902.372 219.559, 902.063 219.630 C 901.753 219.702, 900.600 219.428, 899.500 219.022 C 898.400 218.616, 895.025 217.971, 892 217.589 C 888.775 217.181, 884.908 215.849, 882.652 214.368 C 877.303 210.856, 871.571 209, 866.077 209 C 857.452 209, 835.303 214.881, 831.550 218.168 C 829.461 219.997, 825.962 219.011, 824.747 216.250 C 824.081 214.738, 821.362 210.800, 818.704 207.500 C 808.462 194.785, 797.090 187.460, 783 184.504 C 778.875 183.638, 775.350 182.495, 775.167 181.965 C 774.727 180.692, 753.270 180.698, 752.833 181.972 M 750.227 203.551 C 744.905 204.984, 739.123 207.322, 731.149 211.266 C 724.774 214.419, 716.193 225, 720.010 225 C 720.566 225, 723.378 223.336, 726.260 221.302 C 737.578 213.314, 748.112 210, 762.188 210 C 779.847 210, 797.220 217.647, 804.263 228.521 C 806.748 232.358, 810 233.196, 810 230 C 810 228.900, 809.502 228, 808.893 228 C 808.284 228, 808.047 227.321, 808.365 226.491 C 808.705 225.606, 808.128 224.473, 806.972 223.750 C 805.887 223.073, 805 222.046, 805 221.468 C 805 217.283, 785.627 205.373, 775.176 203.131 C 768.113 201.616, 756.700 201.809, 750.227 203.551 M 667.345 208.250 C 667.090 208.662, 665.647 209, 664.137 209 C 661.115 209, 650.784 215.060, 652.687 215.716 C 653.340 215.941, 656.460 215.647, 659.621 215.062 C 674.643 212.285, 684.441 214.383, 693.699 222.359 C 698.466 226.465, 701.078 221.007, 696.414 216.683 C 694.091 214.529, 685.752 210.231, 680.500 208.481 C 677.643 207.529, 667.895 207.358, 667.345 208.250 M 628.473 219.382 C 627.388 220.141, 626.158 220.807, 625.740 220.861 C 623.377 221.166, 618.267 224.725, 614.316 228.818 C 608.765 234.568, 605 242.653, 605 248.824 C 605 254.147, 605.750 253.716, 609.484 246.245 C 611.993 241.224, 622.844 228.992, 626 227.627 C 630.815 225.544, 633.526 223.133, 633.816 220.676 C 634.180 217.602, 631.826 217.032, 628.473 219.382 M 850.500 230.417 C 848.300 231.123, 844.925 232.635, 843 233.778 C 841.075 234.921, 837.475 236.648, 835 237.615 C 828.770 240.051, 824 244.012, 824 246.750 C 824 249.838, 826.002 249.570, 830.070 245.937 C 834.553 241.933, 839.960 239.608, 849.669 237.511 C 857.087 235.908, 858.145 235.905, 866.541 237.464 C 879.328 239.838, 886.956 243.730, 898.236 253.634 C 901.213 256.248, 908.603 269.623, 910.455 275.750 C 910.829 276.988, 911.748 278, 912.498 278 C 913.248 278, 914.011 276.988, 914.195 275.750 C 914.696 272.372, 913.432 264.885, 912.235 264.145 C 911.657 263.788, 910.871 261.696, 910.490 259.498 C 909.628 254.534, 904.204 246.020, 899.729 242.607 C 896.489 240.136, 883.377 233.711, 882.657 234.242 C 882.465 234.384, 881.647 233.952, 880.839 233.282 C 876.512 229.690, 858.166 227.958, 850.500 230.417 M 570 264.971 C 568.625 265.410, 566.150 266.493, 564.500 267.378 C 562.850 268.264, 561.168 268.990, 560.762 268.994 C 560.356 268.997, 557.290 271.760, 553.948 275.133 C 547.396 281.746, 542 291.526, 542 296.788 C 542 300.827, 543.771 301.875, 544.540 298.291 C 545.388 294.335, 546.496 292.214, 550.821 286.263 C 556.151 278.929, 558.699 276.384, 564.470 272.631 C 569.733 269.209, 577.423 267, 584.076 267 C 588.053 267, 589.309 265.716, 586.418 264.607 C 584.209 263.759, 573.016 264.007, 570 264.971 M 929.744 291.153 C 926.134 292.486, 927.007 293.660, 932.255 294.529 C 937.207 295.349, 938.329 295.883, 947 301.540 C 954.966 306.738, 956.863 308.841, 960.491 316.500 C 962.054 319.800, 964.026 323.850, 964.873 325.500 C 965.720 327.150, 967.202 330.075, 968.167 332 L 969.920 335.500 969.945 331.500 C 969.985 325.112, 967.183 315.007, 964.482 311.796 C 963.117 310.174, 962 308.390, 962 307.833 C 962 306.052, 952.096 297.200, 946.707 294.164 C 940.858 290.870, 933.870 289.629, 929.744 291.153 M 519.738 320.660 C 517.682 322.123, 516 323.716, 516 324.200 C 516 324.685, 515.170 326.300, 514.156 327.790 C 506.399 339.191, 506.581 338.709, 506.191 348.870 C 505.840 358.005, 507.111 365.222, 508.778 363.555 C 509.175 363.158, 509.507 362.533, 509.515 362.167 C 509.524 361.800, 509.924 360.879, 510.404 360.121 C 510.885 359.362, 511.594 354.412, 511.980 349.121 C 512.850 337.197, 514.420 333.452, 521.730 325.860 C 524.903 322.563, 527.650 319.446, 527.833 318.933 C 528.525 316.996, 523.329 318.105, 519.738 320.660 M 711.828 339.878 C 707.438 344.993, 698.132 352.512, 694.996 353.477 C 693.623 353.899, 691.983 354.657, 691.350 355.162 C 690.718 355.666, 686.218 357.180, 681.350 358.527 C 668.767 362.008, 656.762 361.942, 646.259 358.336 C 638.068 355.523, 631.676 352.024, 630.316 349.609 C 629.867 348.812, 628.375 347.887, 627 347.554 C 624.763 347.012, 624.037 347.691, 620.091 354.014 C 615.352 361.608, 607.193 369.775, 598.753 375.374 C 592.246 379.690, 582.443 381.735, 576.252 380.068 C 570.211 378.441, 569.319 379.200, 568.522 386.638 C 567.589 395.356, 564.203 402.587, 558.612 407.805 C 554.172 411.950, 554 412.323, 554 417.812 C 554 420.948, 553.570 425.013, 553.044 426.846 C 552.518 428.680, 551.561 436.777, 550.918 444.840 C 550.274 452.903, 549.467 459.612, 549.124 459.750 C 548.781 459.887, 548.593 468.694, 548.706 479.319 C 548.961 503.208, 550.102 507.064, 555.436 502.065 C 556.571 501.001, 561.550 498.974, 566.500 497.560 C 571.450 496.146, 576.482 494.481, 577.683 493.861 C 578.883 493.242, 580.541 492.994, 581.368 493.311 C 582.195 493.628, 583.048 493.356, 583.265 492.706 C 583.746 491.261, 618.396 490.996, 621.500 492.414 C 622.600 492.916, 623.725 493.404, 624 493.497 C 624.275 493.591, 625.767 494.192, 627.315 494.834 C 628.863 495.475, 630.400 496, 630.730 496 C 631.060 496, 634.968 497.443, 639.415 499.207 C 646.184 501.892, 648.716 503.601, 654.970 509.707 C 659.079 513.718, 662.819 517, 663.282 517 C 663.745 517, 666.295 516.290, 668.947 515.422 C 672.745 514.180, 676.718 513.946, 687.635 514.320 C 695.261 514.582, 702.850 515.073, 704.500 515.412 C 707.276 515.981, 707.836 515.564, 712 509.825 C 716.171 504.076, 724.021 497.221, 726.610 497.066 C 727.221 497.030, 729.435 495.837, 731.530 494.415 C 742.858 486.727, 774.626 483.059, 800.292 486.476 C 811.720 487.996, 824.526 491.553, 826.960 493.881 C 827.764 494.649, 829.789 495.857, 831.460 496.566 C 833.132 497.274, 836.410 499.814, 838.745 502.210 C 842.921 506.495, 845.843 507.451, 848.930 505.544 C 849.660 505.092, 856.613 504.318, 864.379 503.823 C 894.986 501.874, 894.955 501.883, 894.985 494.798 C 894.998 491.676, 894.212 490.307, 889.974 486.069 C 881.278 477.373, 878.318 466.716, 881.481 455.500 C 884.137 446.088, 884.124 446.041, 877.938 442.402 C 870.596 438.084, 865.379 432.865, 860.511 424.970 L 856.521 418.500 856.511 405.250 C 856.504 397.139, 856.112 391.973, 855.500 391.930 C 854.950 391.891, 851.110 391.917, 846.967 391.987 C 842.824 392.058, 838.099 391.565, 836.467 390.892 C 834.835 390.218, 833.275 389.591, 833 389.497 C 831.513 388.991, 827.843 387.422, 822.475 384.996 C 815.756 381.959, 806.692 372.994, 804.282 367 C 803.508 365.075, 802.228 362.082, 801.438 360.349 C 800.647 358.616, 799.993 355.241, 799.985 352.849 C 799.965 347.127, 798.993 345.713, 795.655 346.550 C 794.195 346.917, 793 347.618, 793 348.108 C 793 348.599, 792.550 349, 792 349 C 791.450 349, 790.100 349.900, 789 351 C 787.900 352.100, 786.309 353, 785.465 353 C 784.620 353, 782.833 353.718, 781.493 354.597 C 778.356 356.652, 761.700 361, 756.963 361 C 751.208 361, 738.280 357.309, 732.647 354.059 C 726.951 350.771, 723.973 347.836, 719.142 340.750 C 717.361 338.137, 715.736 336, 715.530 336 C 715.324 336, 713.658 337.745, 711.828 339.878 M 976.600 362.837 C 976.316 363.298, 977.919 365.436, 980.163 367.587 C 984.921 372.150, 991.338 381.643, 990.539 382.937 C 990.236 383.428, 990.483 383.994, 991.088 384.196 C 992.585 384.695, 993.904 392.074, 993.956 400.250 C 993.980 403.966, 994.441 407, 994.981 407 C 996.619 407, 997.504 401.949, 997.434 393 C 997.336 380.522, 992.833 372.110, 982.415 364.941 C 977.753 361.734, 977.368 361.595, 976.600 362.837 M 755 446.126 C 741.260 447.712, 733.341 454.095, 734.296 462.812 C 735.169 470.783, 742.843 475.312, 751.247 472.815 C 753.839 472.045, 761.357 471.548, 770.500 471.542 C 782.929 471.533, 786.334 471.859, 790.362 473.444 C 793.211 474.565, 797.841 475.387, 801.546 475.429 C 807.221 475.493, 808.181 475.200, 810.922 472.575 C 816.097 467.617, 815.973 461.446, 810.603 456.739 C 806.800 453.406, 796.272 449.168, 786.572 447.066 C 776.607 444.907, 767.817 444.645, 755 446.126 M 598.750 452.665 C 597.237 452.922, 596 453.509, 596 453.969 C 596 454.991, 590.482 456.994, 587.601 457.017 C 585.601 457.033, 579.172 460.157, 572.204 464.500 C 570.223 465.734, 568.375 468.111, 567.377 470.708 C 565.847 474.691, 565.865 475.119, 567.720 478.708 C 568.798 480.794, 570.765 483.081, 572.090 483.791 C 575.059 485.382, 581.827 484.676, 586.267 482.314 C 588.045 481.368, 590.096 480.712, 590.824 480.858 C 591.552 481.003, 592.854 480.536, 593.716 479.820 C 596.008 477.919, 619.072 477.986, 621.380 479.901 C 622.817 481.093, 623.473 481.097, 625.784 479.927 C 633.097 476.227, 635.908 472.625, 635.965 466.885 C 636.009 462.388, 633.506 459.083, 627.254 455.378 C 622.930 452.816, 621.550 452.544, 612 452.379 C 606.225 452.279, 600.263 452.408, 598.750 452.665 M 754.327 508.008 C 752.581 509.034, 749.286 510.433, 747.003 511.117 C 744.721 511.801, 741.969 513.517, 740.887 514.930 C 729.707 529.539, 727.472 532.992, 726.301 537.468 C 724.603 543.954, 724.656 547.470, 726.475 548.979 C 727.706 550.001, 728.409 549.431, 730.725 545.537 C 735.812 536.982, 742.340 527.514, 743.954 526.351 C 744.831 525.720, 747.048 523.020, 748.881 520.351 C 750.713 517.683, 754.216 514.003, 756.665 512.174 C 760.284 509.471, 760.897 508.581, 759.937 507.424 C 758.482 505.671, 758.262 505.694, 754.327 508.008 M 949.931 509.500 C 938.035 515.908, 932.850 521.966, 930.529 532.171 C 929.305 537.555, 927.997 540.333, 925.025 543.866 L 921.126 548.500 922.911 553.500 C 923.892 556.250, 925.038 559.291, 925.457 560.258 C 925.912 561.305, 925.569 563.389, 924.610 565.409 C 922.435 569.994, 922.584 575.760, 925 580.500 C 927.148 584.713, 927.671 590, 925.941 590 C 925.359 590, 925.160 590.450, 925.500 591 C 925.840 591.550, 925.678 592, 925.139 592 C 923.766 592, 920.811 601.343, 921.564 603.306 C 921.905 604.196, 923.156 605.192, 924.342 605.520 C 925.529 605.848, 928.075 606.727, 930 607.473 C 938.285 610.686, 939.717 610.993, 941.500 609.941 C 942.050 609.617, 945.425 608.558, 949 607.589 C 959.396 604.770, 965.301 601.427, 972.636 594.209 C 982.084 584.912, 988.950 570.678, 988.988 560.309 C 988.995 558.554, 989.430 556.852, 989.956 556.527 C 990.482 556.202, 990.677 555.321, 990.388 554.569 C 990.100 553.817, 990.344 552.905, 990.932 552.542 C 992.333 551.676, 992.317 542.314, 990.913 541.446 C 990.315 541.077, 990.048 539.925, 990.319 538.887 C 990.591 537.849, 990.405 537, 989.906 537 C 989.408 537, 989 535.887, 989 534.526 C 989 528.118, 980.036 511, 976.681 511 C 976.161 511, 974.208 510.056, 972.341 508.902 C 969.874 507.377, 967.108 506.762, 962.223 506.652 C 956.488 506.522, 954.681 506.941, 949.931 509.500 M 580.634 515.031 C 573.515 517.163, 564.306 526.930, 558.162 538.862 C 555.480 544.069, 554.681 553.500, 556.921 553.500 C 557.702 553.500, 561.306 549.144, 564.930 543.821 C 568.554 538.497, 572.527 533.068, 573.759 531.756 C 574.992 530.444, 576 528.899, 576 528.321 C 576 527.744, 578.250 524.986, 581 522.192 C 587.850 515.233, 587.731 512.904, 580.634 515.031 M 882.591 524.096 C 877.141 524.545, 869.627 525.607, 865.893 526.456 C 862.160 527.305, 857.543 528, 855.634 528 C 849.421 528, 849 528.511, 849 536.048 C 849 539.807, 848.543 543.165, 847.984 543.510 C 847.425 543.856, 847.238 544.577, 847.570 545.113 C 847.901 545.649, 847.739 546.630, 847.209 547.294 C 846.679 547.957, 845.724 551.557, 845.086 555.293 C 842.525 570.293, 834.370 583.978, 822.002 594.028 C 810.206 603.614, 793.822 609.004, 776.500 608.996 C 766.770 608.992, 752.583 606.765, 748.500 604.602 C 746.850 603.728, 744.905 603.010, 744.178 603.006 C 738.975 602.982, 719.387 585.251, 715.363 576.923 C 714.188 574.490, 712.253 570.531, 711.063 568.124 C 709.874 565.716, 708.478 561.521, 707.962 558.800 C 707.446 556.079, 706.306 552.341, 705.430 550.493 C 704.553 548.645, 703.961 545.641, 704.115 543.817 C 704.519 539.032, 703.188 537.591, 697 536.111 C 686.748 533.659, 679.051 533.620, 673.520 535.991 C 670.781 537.165, 668.200 538.660, 667.785 539.313 C 667.370 539.966, 667.024 543.961, 667.015 548.191 C 667.007 552.421, 666.625 556.114, 666.167 556.397 C 665.708 556.680, 665.535 558.286, 665.782 559.965 C 666.028 561.644, 665.788 563.577, 665.248 564.259 C 664.707 564.942, 663.278 568.425, 662.071 572 C 657.781 584.710, 655.511 588.152, 643.781 599.742 C 641.977 601.525, 639.998 602.988, 639.385 602.992 C 638.772 602.997, 637.197 603.831, 635.885 604.848 C 634.573 605.864, 632.150 607.024, 630.500 607.425 C 628.850 607.827, 626.712 608.866, 625.750 609.733 C 624.788 610.600, 624 610.960, 624 610.533 C 624 610.105, 623.256 610.373, 622.346 611.128 C 620.406 612.738, 589.877 613.129, 586.500 611.586 C 585.400 611.084, 584.275 610.604, 584 610.520 C 582.754 610.141, 575.122 606.611, 571.500 604.739 C 569.300 603.602, 565.446 600.946, 562.936 598.836 C 556.561 593.479, 555.712 593.731, 556.508 600.750 C 557.295 607.682, 560.010 614.991, 561.801 614.996 C 563.721 615.002, 565.845 621.005, 565.265 624.789 C 564.706 628.440, 567.053 632, 570.020 632 C 573.974 632, 577.355 636.349, 581.751 647.091 C 582.647 649.279, 583.301 649.609, 585.962 649.219 C 589.772 648.660, 593.630 651.800, 594.839 656.445 C 595.578 659.284, 595.953 659.500, 600.159 659.500 C 604.884 659.500, 607.524 660.923, 608.499 663.998 C 609.225 666.283, 611.868 667.355, 613.479 666.017 C 614.161 665.452, 614.998 661.186, 615.365 656.408 C 615.821 650.486, 616.799 646.126, 618.513 642.378 C 619.881 639.388, 621 636.544, 621 636.059 C 621 635.574, 622.385 634.013, 624.077 632.589 C 625.769 631.165, 626.781 629.993, 626.327 629.985 C 625.872 629.977, 626.448 629.415, 627.607 628.735 C 632.280 625.996, 637.604 622.183, 638.846 620.685 C 639.571 619.812, 642.168 618.797, 644.618 618.430 C 648.292 617.879, 649.348 617.214, 650.650 614.631 C 652.536 610.889, 656.951 605.999, 658.437 606.004 C 659.022 606.006, 661.075 606.997, 663 608.206 C 664.925 609.415, 666.725 610.438, 667 610.478 C 667.275 610.519, 668.752 611.389, 670.282 612.412 C 672.026 613.578, 675.580 614.452, 679.814 614.755 C 685.912 615.191, 686.851 614.998, 689.532 612.759 C 694.756 608.398, 698.976 606.734, 703.332 607.318 C 705.536 607.613, 707.725 608.544, 708.196 609.386 C 708.667 610.228, 709.716 610.662, 710.526 610.351 C 711.337 610.040, 712 610.254, 712 610.826 C 712 612.741, 715.983 613.155, 719.161 611.570 C 722.727 609.791, 725.162 609.576, 726.550 610.919 C 727.073 611.425, 731.427 612.509, 736.228 613.329 C 741.768 614.275, 745.926 615.583, 747.612 616.910 C 749.074 618.059, 751.152 619, 752.231 619 C 755.426 619, 759.759 622.068, 767.059 629.500 C 774.451 637.026, 781.405 646.677, 782.548 651 C 784.343 657.781, 788.264 660.797, 791 657.500 C 791.702 656.654, 793.882 656, 796 656 C 798.118 656, 800.298 656.654, 801 657.500 C 801.685 658.325, 802.977 658.986, 803.872 658.968 C 805.942 658.928, 809.179 656.512, 808.318 655.651 C 807.960 655.293, 808.139 655, 808.717 655 C 809.294 655, 810.002 654.100, 810.290 653 C 810.597 651.827, 811.654 651, 812.847 651 C 813.966 651, 815.160 650.550, 815.500 650 C 816.437 648.484, 820.592 648.804, 822 650.500 C 824.096 653.026, 825.724 652.201, 828.025 647.448 C 830.699 641.924, 833.931 639.642, 839.194 639.561 C 842.118 639.516, 843.470 638.957, 844.331 637.437 C 848.584 629.932, 852.557 626.749, 857.885 626.577 C 859.197 626.535, 860.578 625.825, 860.955 625 C 863.869 618.615, 866.880 613.511, 868.076 612.927 C 868.859 612.545, 870.686 611.681, 872.135 611.008 C 874.416 609.949, 874.832 609.039, 875.231 604.229 C 875.649 599.193, 876.081 598.339, 879.861 595.087 C 883.803 591.696, 884.030 591.204, 884.015 586.098 C 884.001 581.048, 884.262 580.461, 888.015 577.098 C 891.789 573.715, 892.067 573.082, 892.656 566.500 C 893.275 559.583, 895.063 554.864, 898.907 550.002 C 900.882 547.505, 900.882 547.503, 898.691 545.172 C 896.808 543.168, 896.477 541.591, 896.339 533.968 C 896.171 524.777, 895.713 522.902, 893.691 523.140 C 893.036 523.217, 888.041 523.647, 882.591 524.096 M 528.968 530.750 C 528.428 532.263, 527.348 534.637, 526.568 536.028 C 525.788 537.418, 524.833 541.355, 524.446 544.778 C 524.058 548.200, 523.462 551, 523.121 551 C 522.779 551, 522.500 554.375, 522.500 558.500 C 522.500 562.625, 522.780 566, 523.121 566 C 523.463 566, 524.047 568.362, 524.419 571.250 C 525.223 577.490, 529.616 590.846, 531.598 593.079 C 532.369 593.947, 533 595.115, 533 595.674 C 533 596.233, 533.816 597.429, 534.814 598.331 C 537.727 600.968, 539.037 598.652, 538.351 592.080 C 537.934 588.092, 538.229 585.387, 539.383 582.625 C 541.363 577.887, 541.377 573.753, 539.430 568.500 C 538.614 566.300, 537.667 561.448, 537.326 557.718 C 536.984 553.987, 536.321 550.698, 535.852 550.409 C 534.663 549.673, 534.783 543.252, 536 542.500 C 537.587 541.519, 537.161 533.175, 535.385 530.465 C 533.212 527.148, 530.207 527.281, 528.968 530.750 M 213.304 578.956 C 206.859 582.886, 205.443 589.300, 209.597 595.750 C 210.394 596.987, 210.756 598, 210.401 598 C 210.046 598, 210.220 598.563, 210.788 599.250 C 211.356 599.938, 212.133 602.300, 212.514 604.500 C 213.151 608.179, 214.961 614.772, 220.068 632.028 C 221.131 635.619, 222 639.106, 222 639.778 C 222 640.450, 222.433 641, 222.961 641 C 223.490 641, 224.616 643.334, 225.463 646.187 C 227.605 653.400, 230.283 656, 235.571 656 C 239.178 656, 240.260 655.468, 243.002 652.345 C 246.590 648.258, 246.590 647.808, 243.011 635.500 C 241.891 631.650, 240.256 625.800, 239.377 622.500 C 238.498 619.200, 237.503 616.050, 237.166 615.500 C 236.829 614.950, 236.515 614.050, 236.469 613.500 C 236.423 612.950, 236.108 611.825, 235.770 611 C 234.853 608.768, 231.191 596.085, 230.139 591.500 C 228.358 583.735, 226.187 580.105, 222.368 578.509 C 217.749 576.579, 217.154 576.609, 213.304 578.956 M 128.954 640.534 C 119.573 647.455, 123.322 654.678, 143.373 668.315 C 147.293 670.981, 151.400 674.154, 152.500 675.367 C 153.600 676.580, 156.525 678.907, 159 680.536 C 164.695 684.287, 164.461 684.111, 170.988 689.527 C 174.006 692.032, 177.504 694.339, 178.760 694.655 C 181.686 695.389, 187.358 691.601, 189.622 687.401 C 192.331 682.374, 190.954 679.994, 180.347 671.368 C 153.128 649.232, 146.521 644, 145.786 644 C 145.344 644, 143.119 642.650, 140.841 641 C 135.787 637.339, 133.411 637.246, 128.954 640.534 M 731.238 644.162 C 729.179 646.221, 729.820 647, 733.573 647 C 736.437 647, 737.080 646.652, 736.813 645.250 C 736.409 643.127, 732.948 642.452, 731.238 644.162 M 682.500 649 C 680.369 651.224, 678.704 652.004, 676.063 652.015 C 670.571 652.039, 669.514 653.184, 672.256 656.143 C 674.584 658.654, 682.254 660.876, 690.194 661.339 C 692.225 661.457, 694.186 661.853, 694.552 662.218 C 694.917 662.583, 695.955 662.512, 696.858 662.060 C 697.761 661.608, 701.650 660.486, 705.500 659.567 C 709.350 658.649, 713.625 657.102, 715 656.131 C 716.375 655.160, 718.288 654.072, 719.250 653.714 C 721.262 652.965, 721.562 649.962, 719.800 648.200 C 717.824 646.224, 708.640 646.709, 705.806 648.938 C 701.301 652.481, 698.499 652.519, 693.344 649.105 C 687.521 645.247, 686.108 645.234, 682.500 649 M 739.907 647.698 C 739.856 648.139, 739.892 650.445, 739.987 652.822 C 740.256 659.545, 736.431 665.824, 729.787 669.567 C 721.544 674.211, 712.578 678.005, 709.778 678.035 C 707.975 678.054, 703.575 678.714, 700 679.500 C 696.425 680.286, 691.649 680.946, 689.387 680.965 C 683.646 681.014, 669.046 677.292, 665.790 674.949 C 664.300 673.877, 662.725 672.998, 662.290 672.995 C 661.856 672.993, 660.057 671.638, 658.293 669.985 C 652.638 664.685, 652.925 656.870, 658.923 652.814 C 662.752 650.225, 663.982 648, 661.583 648 C 660.712 648, 660 648.525, 660 649.167 C 660 649.808, 659.703 650.036, 659.340 649.673 C 658.977 649.310, 658.051 649.910, 657.283 651.006 C 656.515 652.103, 655.231 653, 654.430 653 C 653.628 653, 652.079 653.558, 650.986 654.241 C 649.405 655.228, 648.595 655.228, 647.014 654.241 C 644.107 652.425, 642.222 652.716, 640.902 655.183 C 639.439 657.917, 639.436 665.592, 640.896 669.315 C 641.503 670.863, 642 673.524, 642 675.228 C 642 676.931, 643.295 680.389, 644.878 682.912 C 646.461 685.436, 648.032 688.686, 648.368 690.135 C 648.884 692.354, 649.689 692.876, 653.463 693.442 C 656.494 693.897, 658.567 694.905, 659.866 696.557 C 661.437 698.555, 662.682 699, 666.694 699 C 669.392 699, 672.135 699.535, 672.790 700.190 C 675.626 703.026, 677 701.968, 677 696.946 C 677 692.918, 677.540 691.455, 680.104 688.535 L 683.207 685 696.854 685.015 C 704.359 685.024, 711.007 685.361, 711.626 685.765 C 712.245 686.169, 712.941 689.536, 713.173 693.247 C 713.672 701.241, 714.818 702.941, 718.138 700.616 C 721.178 698.487, 723.940 698.606, 727 701 C 730.261 703.551, 730.871 703.497, 734.131 700.375 C 736.156 698.434, 738.334 697.586, 742.479 697.125 C 747.877 696.523, 748.290 696.261, 753.458 690.148 L 758.829 683.795 759.533 674.403 C 760.148 666.202, 760.003 664.661, 758.395 662.255 C 757.381 660.740, 756.538 659.275, 756.520 659 C 756.503 658.725, 755.445 656.700, 754.169 654.500 C 752.893 652.300, 751.499 649.825, 751.072 649 C 750.245 647.405, 740.078 646.219, 739.907 647.698 M 863.500 715.105 C 856.444 720.973, 843.227 731, 842.549 731 C 842.236 731, 839.760 732.560, 837.048 734.466 C 834.335 736.373, 830.959 738.223, 829.545 738.578 C 828.131 738.933, 826.643 739.776, 826.237 740.452 C 825.832 741.128, 823.250 742.237, 820.500 742.916 C 817.750 743.595, 814.741 744.835, 813.813 745.673 C 812.886 746.510, 808.836 748.053, 804.813 749.101 C 800.637 750.190, 795.570 752.378, 793 754.203 C 789.002 757.042, 787.497 757.468, 779.500 758.021 C 772.455 758.509, 768.923 759.341, 763.239 761.850 C 756.376 764.880, 755.371 765.047, 744.926 764.886 C 734.709 764.729, 733.634 764.896, 730.687 767.094 C 727.085 769.782, 721.409 770.158, 716.500 768.035 C 710.442 765.415, 707.222 766.487, 710.250 770.116 C 712.361 772.646, 718.779 777, 720.398 777 C 721.240 777, 722.366 777.816, 722.900 778.813 C 723.459 779.858, 727.391 781.837, 732.185 783.486 C 739.962 786.162, 741.502 786.345, 756 786.313 C 764.525 786.295, 773.300 785.797, 775.500 785.207 C 791.441 780.933, 791.154 781.039, 802.698 775.144 C 805.007 773.965, 807.482 772.982, 808.198 772.961 C 809.446 772.924, 815.040 769.630, 823.859 763.740 C 830.578 759.253, 847.104 742.386, 857.406 729.500 C 862.683 722.900, 867.480 716.925, 868.066 716.222 C 868.652 715.519, 868.990 714.044, 868.816 712.945 C 868.534 711.161, 867.963 711.393, 863.500 715.105 M 930.026 865.500 C 929.407 871.734, 929.241 892.841, 929.745 901.316 C 930.120 907.638, 930.574 909.826, 931.350 909.050 C 932.013 908.387, 932.295 904.778, 932.078 899.734 C 931.009 874.827, 930.290 862.835, 930.026 865.500 M 308.809 891.026 C 302.779 892.043, 298.978 894.284, 292.560 900.607 C 283.624 909.409, 280.900 922.234, 285.025 936.084 C 288.363 947.291, 298.517 958.783, 310 964.349 C 315.742 967.133, 317.491 967.498, 325 967.486 C 332.318 967.474, 334.195 967.097, 338.500 964.771 C 345.151 961.179, 354.451 950.930, 353.877 947.825 C 353.742 947.096, 354.390 944.758, 355.316 942.628 C 357.830 936.847, 357.506 930.549, 354.253 922 C 353.939 921.175, 353.759 920.146, 353.853 919.714 C 353.947 919.282, 352.893 917.265, 351.512 915.232 C 350.130 913.199, 349 911.070, 349 910.501 C 349 908.817, 339.971 899, 338.422 899 C 337.640 899, 337 898.558, 337 898.017 C 337 896.259, 327.383 892.106, 320.862 891.047 C 317.363 890.480, 314.275 890.065, 314 890.125 C 313.725 890.186, 311.389 890.591, 308.809 891.026 M 539 901.066 C 539 902.202, 539.526 904.114, 540.169 905.315 C 540.811 906.516, 541.893 910.199, 542.573 913.499 C 547.122 935.585, 547.704 937.182, 554.197 945.423 C 555.464 947.031, 556.735 948.831, 557.021 949.423 C 558.683 952.857, 562.328 958, 563.099 958 C 563.594 958, 564 958.822, 564 959.826 C 564 961.956, 567.979 966.003, 570.064 965.994 C 573.256 965.979, 589 949.584, 589 946.276 C 589 945.830, 586.975 943.151, 584.500 940.321 C 582.025 937.492, 580 934.711, 580 934.141 C 580 933.571, 575.145 928.244, 569.212 922.302 C 558.029 911.104, 555 908.408, 555 909.652 C 555 910.054, 554.430 909.603, 553.733 908.649 C 553.036 907.696, 551.525 906.373, 550.376 905.708 C 549.226 905.044, 546.431 903.263, 544.163 901.750 C 539.222 898.454, 539 898.425, 539 901.066 M 694.500 962.577 C 693.400 963.409, 689.125 965.939, 685 968.198 C 676.262 972.984, 661.480 984.226, 659.824 987.345 C 659.195 988.530, 656.822 991.787, 654.550 994.583 C 649.604 1000.672, 641.465 1016.325, 642.431 1017.889 C 642.847 1018.561, 646.439 1019, 651.524 1019 C 659.219 1019, 660.031 1018.810, 661.128 1016.750 C 662.651 1013.890, 672.528 998.990, 674.222 996.996 C 674.925 996.169, 677.862 993.714, 680.750 991.540 C 683.638 989.367, 686 987.241, 686 986.816 C 686 986.391, 689.482 984.413, 693.737 982.421 C 707.376 976.036, 710.690 972.323, 707.402 967.115 C 703.706 961.263, 698.607 959.470, 694.500 962.577 M 721.636 990.506 C 720.060 991.328, 718.211 992, 717.526 992 C 711.789 992, 684.500 1012.890, 684.500 1017.282 C 684.500 1018.149, 687.681 1018.581, 695.534 1018.781 L 706.568 1019.061 710.534 1015.696 C 715.663 1011.344, 721.972 1007.833, 729.656 1005.053 C 735.998 1002.759, 736.956 1001.572, 736.986 995.973 C 737.012 991.311, 734.426 988.999, 729.193 989.006 C 726.612 989.010, 723.211 989.685, 721.636 990.506" stroke="none" fill="#171916" fill-rule="evenodd"/>
</svg>