<svg role="img" aria-labelledby="artwork-title" shape-rendering="geometricPrecision" xmlns="http://www.w3.org/2000/svg" width="1200" height="1200" viewBox="0 0 1200 1200" version="1.1">
	<title id="artwork-title">Mascot surrounded by code brackets</title>
	<path d="M 617 274.862 C 617 275.336, 614.527 276.221, 611.504 276.828 C 605.057 278.122, 598.603 281.529, 591.917 287.167 L 587.113 291.218 582.505 288.108 C 575.320 283.259, 573.035 282.329, 565.038 280.993 C 556.100 279.501, 544.554 280.267, 536.319 282.898 C 527.490 285.719, 514.617 294.787, 509.916 301.498 C 507.762 304.573, 506 307.378, 506 307.733 C 506 309.017, 501.474 314.986, 500.500 314.987 C 499.950 314.987, 498.211 314.315, 496.636 313.494 C 493.493 311.855, 483.007 311.469, 480.236 312.891 C 479.281 313.382, 475.822 314.558, 472.549 315.506 C 464.968 317.701, 459.865 320.941, 453.135 327.831 C 448.087 333, 442.946 342.177, 441.352 348.865 C 441.007 350.314, 440.360 351.967, 439.915 352.538 C 439.470 353.109, 438.970 356.438, 438.803 359.934 C 438.594 364.315, 438.034 366.546, 437 367.108 C 436.175 367.557, 432.924 369.094, 429.775 370.523 C 426.626 371.952, 423.102 374.332, 421.943 375.811 C 420.785 377.290, 418.395 380.075, 416.632 382 C 407.590 391.873, 404.583 408.725, 409.239 423.429 C 410.471 427.318, 412.271 431.088, 413.239 431.807 C 415.077 433.170, 415.658 436, 414.101 436 C 412.921 436, 409.226 443.109, 406.872 449.907 C 402.540 462.417, 405.668 473.892, 416.202 484.140 C 422.323 490.095, 422.830 491.319, 420.468 494.441 C 416.966 499.072, 419.642 511.885, 425.554 518.792 C 429.393 523.277, 429.932 525.944, 427.146 526.672 C 424.852 527.272, 414.838 539.394, 414.484 542 C 414.447 542.275, 413.664 543.908, 412.745 545.628 C 411.827 547.348, 410.441 553.015, 409.667 558.220 C 408.484 566.170, 408.467 569.297, 409.564 577.765 C 410.282 583.310, 411.583 589.226, 412.455 590.913 C 413.327 592.599, 413.938 594.096, 413.813 594.240 C 413.194 594.949, 422.436 607.106, 426.907 611.462 L 432 616.425 432.002 626.462 C 432.004 635.568, 432.271 637.011, 434.874 642 C 436.453 645.025, 438.046 649.582, 438.415 652.127 C 438.950 655.817, 440.154 657.943, 444.358 662.627 C 447.257 665.857, 451.095 671.086, 452.886 674.246 C 455.025 678.021, 458.177 681.558, 462.071 684.555 C 465.332 687.064, 468 689.539, 468 690.056 C 468 691.879, 475.543 699.324, 478.750 700.666 C 483.147 702.507, 482.845 704, 478.076 704 C 475.918 704, 471.756 704.489, 468.826 705.088 C 450.045 708.923, 444.049 710.389, 440.500 712.011 C 438.300 713.016, 434.700 714.507, 432.500 715.323 C 421.533 719.391, 416.779 721.752, 408.717 727.135 C 403.887 730.361, 399.547 733, 399.073 733 C 398.599 733, 396.766 734.350, 395 736 C 393.234 737.650, 391.424 739, 390.978 739 C 390.041 739, 356.521 772.050, 349.901 779.500 C 347.458 782.250, 343.893 786.519, 341.980 788.986 C 340.066 791.454, 336.700 795.309, 334.500 797.554 C 332.300 799.799, 328.925 803.778, 327 806.396 C 325.075 809.014, 322.262 812.763, 320.750 814.727 C 317.654 818.747, 317.253 822.488, 319.564 825.788 C 321.493 828.542, 320.717 831.300, 317.403 833.472 C 315.028 835.028, 314.632 835, 310.470 832.986 C 308.043 831.810, 304.469 829.771, 302.528 828.455 C 300.588 827.138, 299 826.302, 299 826.598 C 299 826.894, 297.762 826.269, 296.250 825.209 C 294.738 824.149, 291.925 822.609, 290 821.787 C 288.075 820.966, 284.025 819.238, 281 817.948 C 277.975 816.658, 274.600 814.844, 273.500 813.916 C 272.400 812.989, 270.528 811.936, 269.340 811.576 C 265.902 810.536, 264.580 808.166, 263.342 800.830 C 262.192 794.009, 257.945 784.407, 253.384 778.317 C 252.073 776.566, 251 774.653, 251 774.067 C 251 773.480, 250.403 773, 249.674 773 C 248.945 773, 247.265 771.846, 245.940 770.436 C 243.859 768.221, 234.686 761.898, 228.466 758.392 C 227.385 757.782, 223.673 753.732, 220.219 749.392 C 208.585 734.776, 206.646 732.744, 202.566 730.891 C 195.431 727.650, 188.602 729.126, 182.165 735.301 C 176.908 740.343, 175.618 743.610, 175.556 752.039 C 175.509 758.378, 175.938 760.423, 178.250 764.882 C 179.763 767.798, 181 770.359, 181 770.573 C 181 772.071, 158.714 766.880, 156.550 764.879 C 156.027 764.395, 154.790 764, 153.800 764 C 152.810 764, 152 763.522, 152 762.937 C 152 762.353, 151.169 762.015, 150.154 762.187 C 149.138 762.359, 147.676 762.029, 146.904 761.455 C 142.589 758.241, 127.407 753.868, 118.525 753.280 C 107.001 752.517, 100.636 755.541, 96.862 763.571 C 95.736 765.965, 93.928 768.206, 92.842 768.550 C 89.604 769.578, 84 775.059, 84 777.197 C 84 778.346, 83.155 779.408, 82 779.710 C 80.203 780.180, 80 781.074, 80 788.500 C 80 795.926, 80.203 796.820, 82 797.290 C 83.100 797.577, 84 798.607, 84 799.578 C 84 800.548, 84.744 802.165, 85.654 803.171 C 86.836 804.477, 87.257 806.593, 87.126 810.583 C 86.878 818.187, 89.664 823.445, 99 832.993 C 110.024 844.266, 122.700 854.199, 133.540 860.059 C 136.818 861.831, 140.175 863.859, 141 864.566 C 142.774 866.088, 157.329 873, 158.758 873 C 159.668 873, 164.978 875.132, 172.586 878.551 C 174.283 879.314, 180.936 880.587, 187.372 881.380 C 198.249 882.721, 199.228 883.022, 201.278 885.661 C 208.907 895.484, 236.633 923.856, 239.815 925.097 C 243.422 926.504, 255.349 926.197, 257.475 924.642 C 259.219 923.367, 259.037 923.002, 254.487 918.642 C 251.822 916.089, 249.380 914, 249.060 914 C 248.739 914, 241.105 906.618, 232.096 897.596 L 215.714 881.191 216.338 877.291 C 217.356 870.922, 215.560 869.395, 206.296 868.747 C 198.415 868.197, 187.173 866.362, 183.500 865.026 C 176.432 862.456, 174.118 861.723, 171 861.067 C 169.075 860.662, 164.982 859.131, 161.904 857.665 C 158.825 856.199, 155.854 855, 155.300 855 C 154.745 855, 153.078 853.875, 151.595 852.500 C 150.111 851.125, 148.198 850, 147.344 850 C 146.489 850, 143.790 848.650, 141.345 847 C 138.900 845.350, 136.693 844, 136.441 844 C 134.464 844, 115.417 828.527, 110.268 822.739 C 100.735 812.021, 100.361 811.364, 102.472 809.031 C 106.492 804.589, 112.175 805.798, 123 813.399 C 125.475 815.137, 130.650 818.170, 134.500 820.138 C 138.350 822.107, 143.250 824.906, 145.390 826.359 C 150.472 829.810, 153.338 829.738, 155.932 826.096 C 158.100 823.051, 158.709 819, 157 819 C 156.450 819, 156 818.325, 156 817.500 C 156 816.675, 155.325 816, 154.500 816 C 153.675 816, 152.100 815.100, 151 814 C 149.900 812.900, 148.436 812, 147.748 812 C 147.059 812, 142.286 809.188, 137.141 805.750 C 131.997 802.313, 127.048 799.050, 126.144 798.500 C 125.240 797.950, 123.825 797.060, 123 796.522 C 117.206 792.749, 105.659 790.947, 101.983 793.243 C 97.578 795.994, 94.190 789.411, 97.450 784.435 C 100.290 780.102, 110.235 781.819, 119.855 788.305 C 122.250 789.920, 128.325 793.109, 133.355 795.393 C 138.385 797.677, 143.738 800.323, 145.250 801.273 C 152.010 805.518, 153.102 806, 155.965 806 C 159.675 806, 163 802.906, 163 799.452 C 163 796.655, 158.700 792.004, 156.104 791.994 C 154.252 791.987, 147.651 788.581, 140.500 783.942 C 138.850 782.872, 136.068 781.329, 134.318 780.513 C 132.568 779.698, 130.854 778.573, 130.509 778.015 C 130.164 777.457, 129.109 777, 128.163 777 C 127.218 777, 125.674 776.100, 124.732 775 C 123.790 773.900, 122.142 773, 121.069 773 C 119.996 773, 118.861 772.585, 118.548 772.077 C 118.234 771.569, 116.608 770.853, 114.936 770.486 C 110.829 769.584, 111.757 767.575, 116.462 767.182 C 121.268 766.780, 131.898 770.097, 143.500 775.619 C 158.734 782.869, 166.498 784.825, 183.149 785.606 L 197.797 786.294 200.517 783.573 C 204.037 780.054, 203.459 775.517, 198.747 769.662 C 193.330 762.934, 190.845 757.897, 190.294 752.532 C 189.860 748.304, 190.111 747.199, 191.863 745.618 C 193.683 743.976, 194.334 743.896, 196.974 744.989 C 198.639 745.679, 200 746.668, 200 747.189 C 200 750.412, 218.899 770.370, 224.142 772.683 C 226.264 773.619, 228 774.748, 228 775.192 C 228 775.637, 228.675 776, 229.500 776 C 230.325 776, 231 776.450, 231 777 C 231 777.550, 231.584 778, 232.297 778 C 235.783 778, 243.775 789.734, 245.580 797.500 C 245.963 799.150, 246.545 800.950, 246.873 801.500 C 247.201 802.050, 247.515 802.725, 247.571 803 C 247.627 803.275, 247.933 804.175, 248.252 805 C 248.570 805.825, 249.082 808.938, 249.388 811.917 C 250.082 818.665, 253.248 822.321, 259.833 823.980 C 262.385 824.622, 264.704 825.519, 264.987 825.972 C 265.583 826.929, 285.995 837.761, 300.500 844.817 C 306 847.492, 312.238 850.870, 314.362 852.322 C 316.486 853.774, 320.612 856.131, 323.531 857.559 C 328.073 859.781, 329.176 859.979, 331.170 858.928 C 334.205 857.329, 334.966 856.096, 334.985 852.743 C 334.994 851.036, 334.049 849.160, 332.500 847.813 C 329.240 844.978, 329.341 844.031, 333.317 840.177 L 336.634 836.962 344.567 843.252 C 357.864 853.794, 373.371 870.773, 384.429 886.899 C 390.090 895.155, 397.003 907.150, 396.997 908.707 C 396.996 909.143, 394.042 912.599, 390.433 916.386 C 385.612 921.446, 384.168 923.568, 384.986 924.386 C 385.794 925.194, 436.610 925.580, 570.250 925.790 L 754.400 926.080 757.178 924.027 L 759.956 921.973 763.713 923.986 C 766.800 925.641, 769.357 926, 778.044 926 C 785.525 926, 789.177 925.591, 790.531 924.601 C 792.350 923.271, 792.188 922.940, 787.225 917.851 C 784.355 914.908, 782.005 911.665, 782.003 910.644 C 782.001 909.623, 783.462 906.945, 785.250 904.693 C 787.038 902.440, 788.950 899.828, 789.500 898.887 C 792.202 894.263, 797.416 887, 798.032 887 C 798.415 887, 800.006 885.087, 801.568 882.750 C 804.436 878.459, 824.275 858, 825.569 858 C 825.953 858, 828.482 855.750, 831.189 853 C 833.896 850.250, 836.584 848, 837.161 848 C 837.739 848, 839.972 846.606, 842.123 844.903 C 844.360 843.131, 847.696 841.582, 849.918 841.284 C 853.243 840.838, 853.982 841.098, 855.047 843.088 C 856.111 845.075, 856.033 845.565, 854.512 846.457 C 847.100 850.802, 844.494 855.039, 846.646 859.250 C 847.804 861.516, 848.716 862, 851.826 862 C 853.902 862, 856.028 861.590, 856.550 861.088 C 857.073 860.587, 862.900 857.382, 869.500 853.965 C 876.100 850.549, 888.025 844.372, 896 840.238 C 903.975 836.105, 912.067 831.660, 913.982 830.361 C 915.897 829.063, 918.385 828, 919.510 828 C 922.456 828, 925.671 825.447, 926.405 822.523 C 926.753 821.135, 927.480 820, 928.019 820 C 928.559 820, 929 818.664, 929 817.031 C 929 814.128, 932.469 802.471, 935.110 796.500 C 938.244 789.412, 941.563 785.842, 950.857 779.556 C 960.392 773.107, 966.727 767.391, 974.500 758.219 C 980.949 750.610, 986.562 745.895, 988.352 746.582 C 990.191 747.287, 993 752.447, 993 755.118 C 993 758.437, 986.340 769.298, 979.750 776.728 C 975.514 781.504, 975.014 784.797, 978.102 787.595 C 982.152 791.266, 1005.915 791.140, 1014.572 787.401 C 1016.262 786.672, 1021.437 784.889, 1026.072 783.440 C 1030.708 781.991, 1035.918 780.174, 1037.651 779.403 C 1039.384 778.631, 1041.467 778, 1042.279 778 C 1043.091 778, 1044.303 777.339, 1044.973 776.532 C 1045.644 775.725, 1046.486 775.121, 1046.846 775.191 C 1047.206 775.260, 1048.400 774.955, 1049.500 774.511 C 1050.600 774.068, 1053.017 773.096, 1054.872 772.352 C 1058.510 770.894, 1066 770.507, 1066 771.778 C 1066 772.965, 1062.249 775.916, 1061.585 775.251 C 1061.263 774.930, 1061 775.192, 1061 775.833 C 1061 776.475, 1060.202 777, 1059.227 777 C 1058.252 777, 1055.185 778.463, 1052.412 780.250 C 1045.107 784.958, 1041.354 787, 1040.006 787 C 1039.354 787, 1038.073 787.828, 1037.160 788.840 C 1036.247 789.852, 1032.258 791.909, 1028.295 793.411 C 1017.062 797.668, 1012.983 801.674, 1015.115 806.354 C 1016.924 810.324, 1026.144 810.813, 1028.462 807.062 C 1028.823 806.478, 1029.879 805.973, 1030.809 805.941 C 1031.739 805.909, 1034.525 804.815, 1037 803.511 C 1039.475 802.207, 1044.875 799.533, 1049 797.569 C 1053.125 795.605, 1060.417 791.974, 1065.204 789.499 C 1075.072 784.398, 1077.736 784.026, 1080.826 787.314 C 1083.663 790.335, 1083.574 792.739, 1080.518 795.571 C 1078.514 797.428, 1077.482 797.712, 1075.161 797.046 C 1070.028 795.574, 1062.072 797.789, 1054.500 802.798 C 1050.650 805.345, 1044.912 808.663, 1041.750 810.172 C 1038.587 811.681, 1036 813.384, 1036 813.958 C 1036 814.531, 1035.467 815, 1034.816 815 C 1033.163 815, 1024.864 818.996, 1022.750 820.809 C 1020.379 822.843, 1020.426 829.171, 1022.829 831.345 C 1026.348 834.530, 1027.302 834.183, 1047.870 822.227 C 1050.966 820.427, 1055.412 818.081, 1057.750 817.013 C 1060.088 815.945, 1062 814.557, 1062 813.929 C 1062 813.300, 1062.581 813.009, 1063.292 813.282 C 1064.002 813.554, 1065.438 813.153, 1066.483 812.389 C 1068.817 810.682, 1073.183 810.583, 1074.800 812.200 C 1077.540 814.940, 1076.124 818.794, 1069.952 825.392 C 1063.729 832.045, 1044.850 847, 1042.676 847 C 1042.004 847, 1039.013 848.608, 1036.028 850.573 C 1030.360 854.306, 1020.285 859.267, 1016 860.435 C 1013.159 861.209, 1007.464 863.411, 1001.292 866.122 C 997.216 867.913, 986.752 869.544, 970.772 870.882 C 961.099 871.691, 959.479 873.024, 959.779 879.928 C 959.989 884.748, 959.844 885.013, 952.782 892.675 C 948.816 896.979, 940.493 905.589, 934.286 911.808 C 928.079 918.027, 923 923.519, 923 924.012 C 923 925.499, 929.821 926.306, 936.869 925.653 C 943.481 925.041, 943.519 925.020, 950.089 918.270 C 960.341 907.737, 974.111 891.740, 975.084 889.232 C 976.187 886.391, 978.667 885.454, 987.500 884.542 C 994.893 883.779, 1013.805 879.367, 1015.500 878.009 C 1016.050 877.569, 1021.450 875.136, 1027.500 872.602 C 1033.550 870.068, 1040.075 867.006, 1042 865.796 C 1051.710 859.694, 1056.318 857, 1057.041 857 C 1057.481 857, 1059.789 854.982, 1062.170 852.517 C 1064.552 850.051, 1066.950 848.025, 1067.500 848.015 C 1068.943 847.989, 1077 840.654, 1077 839.366 C 1077 838.769, 1078.180 837.430, 1079.621 836.390 C 1087.119 830.984, 1091.402 823.260, 1091.488 814.990 C 1091.541 809.869, 1092.373 807.409, 1096.558 800 C 1097.377 798.550, 1097.977 794.703, 1097.985 790.840 C 1097.999 784.553, 1097.772 783.891, 1093.939 779.042 C 1091.705 776.216, 1088.674 773.446, 1087.202 772.887 C 1083.786 771.588, 1080.980 768.573, 1080.090 765.245 C 1078.318 758.618, 1067.299 754.152, 1057.250 755.988 C 1051.322 757.072, 1042.984 759.910, 1041 761.521 C 1040.175 762.191, 1038.942 762.537, 1038.259 762.289 C 1037.576 762.042, 1036.411 762.446, 1035.670 763.187 C 1034.929 763.928, 1030.312 765.819, 1025.411 767.389 C 1020.510 768.959, 1015.022 770.863, 1013.216 771.622 C 1011.410 772.380, 1009.148 773, 1008.189 773 C 1007.230 773, 1005.424 773.715, 1004.176 774.589 C 1001.512 776.455, 998.511 775.717, 999.395 773.413 C 999.727 772.549, 1001.604 769.423, 1003.567 766.466 C 1009.705 757.218, 1009.601 745.884, 1003.314 738.926 C 993.968 728.581, 983.439 729.230, 970.990 740.918 C 968.012 743.713, 965.221 746, 964.788 746 C 964.355 746, 963.991 746.563, 963.981 747.250 C 963.934 750.319, 951.578 762.180, 944.222 766.217 C 933.486 772.109, 925.921 779.869, 921.540 789.482 C 919.593 793.754, 918 798.007, 918 798.934 C 918 799.860, 917.375 801.472, 916.611 802.517 C 915.847 803.562, 915.446 804.998, 915.718 805.708 C 915.991 806.419, 915.716 807, 915.107 807 C 914.498 807, 914 808.280, 914 809.845 C 914 812.732, 911.385 816, 909.076 816 C 908.379 816, 906.614 816.607, 905.154 817.348 C 903.694 818.090, 900.700 819.528, 898.500 820.545 C 896.300 821.561, 890.567 824.780, 885.761 827.697 C 880.954 830.613, 876.551 833, 875.976 833 C 875.400 833, 873.824 833.724, 872.473 834.610 C 868.164 837.433, 864.909 833.948, 868.500 830.357 C 871.069 827.788, 870.359 821.576, 866.950 816.785 C 861.817 809.572, 856.652 801.655, 855.020 798.500 C 851.654 791.989, 821.526 755.511, 810.616 744.735 C 803.177 737.388, 779.157 720.006, 776.430 719.997 C 775.919 719.995, 772.376 718.420, 768.557 716.497 C 764.739 714.574, 761.081 713, 760.430 713 C 759.778 713, 758.695 712.337, 758.022 711.526 C 757.349 710.716, 755.157 709.757, 753.150 709.396 C 751.142 709.035, 749.050 708.391, 748.500 707.966 C 747.021 706.823, 725.088 701.349, 718 700.354 C 716.075 700.084, 713.825 699.598, 713 699.274 C 712.175 698.950, 710.864 698.792, 710.086 698.924 C 709.309 699.055, 707.734 698.711, 706.586 698.159 C 705.439 697.607, 703.240 696.881, 701.700 696.546 C 698.969 695.952, 699.218 695.620, 711.700 683.218 C 721.830 673.153, 725.112 669.196, 727.434 664.250 C 729.047 660.813, 730.913 658, 731.580 658 C 733.073 658, 738.998 651.389, 739.006 649.715 C 739.009 649.047, 739.454 646.904, 739.996 644.954 L 740.982 641.407 752.741 641.378 C 762.668 641.353, 765.231 641.010, 769.195 639.174 C 771.777 637.978, 774.590 637, 775.445 637 C 776.300 637, 777 636.550, 777 636 C 777 635.450, 777.474 635, 778.054 635 C 778.634 635, 780.547 633.652, 782.304 632.005 C 784.062 630.357, 785.873 629.007, 786.329 629.005 C 787.659 628.997, 794.423 621.760, 795.992 618.664 C 796.783 617.104, 798.346 614.809, 799.465 613.563 C 805.644 606.686, 810.928 589.716, 810.980 576.582 C 811.007 569.895, 809.227 559.355, 807.250 554.500 C 805.618 550.491, 799.878 542.533, 797.023 540.320 C 795.700 539.295, 795.903 538.704, 798.570 535.820 C 802.167 531.930, 804.734 528.043, 807.366 522.500 C 809.953 517.052, 810.266 500.619, 807.849 497.184 C 806.383 495.101, 806.370 494.565, 807.720 491.860 C 808.545 490.206, 809.939 488.577, 810.819 488.239 C 813.071 487.375, 816.931 482.800, 816.968 480.950 C 816.986 480.097, 817.488 478.912, 818.084 478.316 C 819.824 476.576, 823.002 463.089, 822.974 457.568 C 822.943 451.575, 820.259 441.116, 817.309 435.493 C 816.153 433.289, 812.644 429.062, 809.512 426.099 C 804.546 421.403, 803.948 420.443, 804.848 418.606 C 806.455 415.329, 808 406.453, 808 400.500 C 808 382.719, 797.121 363.797, 782.910 356.859 C 772.077 351.570, 769.956 350.778, 767.996 351.291 C 766.898 351.578, 766 351.350, 766 350.784 C 766 350.130, 765.545 350.095, 764.750 350.689 C 763.373 351.717, 762.333 351.697, 759.840 350.591 C 758.673 350.074, 757.981 348.017, 757.513 343.677 C 756.867 337.685, 751.134 323.834, 748.333 321.500 C 747.673 320.950, 745.361 318.328, 743.194 315.672 C 741.027 313.017, 737.960 310.141, 736.377 309.281 C 728.348 304.916, 723.457 302.865, 718.719 301.876 C 715.849 301.277, 713.072 300.384, 712.550 299.893 C 711.203 298.627, 704 298.781, 704 300.077 C 704 300.695, 702.532 301.027, 700.554 300.856 C 698.658 300.693, 696.783 300.884, 696.387 301.280 C 695.991 301.676, 694.778 302, 693.693 302 C 692.607 302, 689.793 302.962, 687.439 304.138 C 682.433 306.638, 680.319 306.154, 679.381 302.293 C 677.099 292.898, 659.188 278.723, 646.739 276.458 C 644.670 276.081, 642.731 275.374, 642.430 274.887 C 641.724 273.744, 617 273.720, 617 274.862 M 619.500 290.493 C 611.359 292.710, 603.064 296.977, 599.672 300.693 C 597.927 302.604, 595.263 305.496, 593.750 307.118 C 591.109 309.953, 590.107 313, 591.818 313 C 592.267 313, 595.269 310.549, 598.487 307.554 C 601.706 304.558, 607.301 300.627, 610.920 298.817 C 617.245 295.654, 617.946 295.529, 629 295.580 C 641.158 295.636, 642.514 296.009, 653.871 302.413 C 659.822 305.770, 662.544 308.498, 664.864 313.433 C 665.944 315.732, 667.542 318.205, 668.414 318.929 C 669.786 320.068, 669.999 319.925, 669.991 317.872 C 669.967 311.983, 658.924 298.606, 650.690 294.493 C 645.931 292.116, 633.188 288.991, 628.562 289.066 C 626.328 289.102, 622.250 289.744, 619.500 290.493 M 543 297.109 C 538.875 298.203, 535.048 299.685, 534.496 300.403 C 533.944 301.121, 532.503 302.023, 531.294 302.407 C 527.804 303.514, 519.292 312.469, 517.049 317.392 C 513.488 325.209, 514.718 326.291, 519.696 319.719 C 525.519 312.031, 530.129 308.060, 536.852 304.938 C 540.508 303.240, 544.774 301.210, 546.331 300.426 C 552.506 297.316, 563.349 298.785, 573.236 304.072 C 574.191 304.582, 575.688 305, 576.562 305 C 577.849 305, 577.708 304.438, 575.826 302.055 C 574.547 300.436, 572.987 299.086, 572.359 299.055 C 571.732 299.025, 569.257 298.110, 566.859 297.022 C 561.239 294.472, 552.835 294.503, 543 297.109 M 696 316.873 C 690.439 318.094, 683 321.759, 683 323.277 C 683 325.553, 684.099 325.977, 686.365 324.572 C 692.448 320.801, 706.889 320.424, 715.500 323.811 C 724.249 327.252, 738.126 339.831, 739.623 345.678 C 739.930 346.875, 740.834 348.106, 741.633 348.413 C 742.813 348.865, 742.955 348.269, 742.392 345.235 C 739.457 329.430, 724.402 317.359, 706.500 316.457 C 702.650 316.263, 697.925 316.450, 696 316.873 M 478.500 330.984 C 464.313 334.668, 451.434 352.639, 454.428 364.571 C 455.269 367.921, 455.925 367.282, 457.125 361.940 C 458.375 356.376, 463.902 345, 465.355 345 C 465.985 345, 468.348 343.313, 470.607 341.250 C 477.049 335.365, 481.337 333.708, 490.820 333.434 C 499.429 333.186, 501.497 332.558, 498.971 330.961 C 497.224 329.856, 482.781 329.872, 478.500 330.984 M 174.500 348.737 C 173.400 349.014, 171.375 349.669, 170 350.191 C 168.625 350.713, 167.275 351.160, 167 351.184 C 164.896 351.368, 158.894 357.857, 156.558 362.472 L 153.713 368.096 154.252 383.298 C 154.941 402.700, 154.113 404.724, 144.811 406.402 C 141.064 407.078, 137 411.704, 137 415.291 C 137 417.669, 141.930 423, 144.129 423 C 145.202 423, 147.820 423.888, 149.947 424.973 C 154.826 427.462, 155.204 429.389, 154.801 449.674 C 154.537 462.937, 154.715 465.025, 156.252 466.725 C 157.216 467.790, 157.769 468.897, 157.482 469.185 C 156.803 469.863, 165.619 478, 167.033 478 C 167.625 478, 170.163 478.935, 172.673 480.079 C 177.899 482.459, 180.369 482.121, 184.250 478.491 C 189.547 473.537, 186.185 466.262, 177.774 464.473 C 171.067 463.048, 170.911 462.553, 171.153 443.443 L 171.370 426.254 167.685 421.125 C 163.449 415.228, 163.217 413.757, 166.045 410.722 C 168.635 407.941, 171.122 403.007, 170.468 401.948 C 170.192 401.502, 170.388 400.879, 170.901 400.561 C 172.147 399.791, 171.165 377.149, 169.761 374.259 C 168.573 371.815, 170.052 367, 171.989 367 C 173.838 367, 182.443 362.728, 184.750 360.664 C 190.976 355.096, 183.549 346.453, 174.500 348.737 M 262.096 349.230 C 258.401 351.182, 255.674 355.397, 256.474 357.917 C 257.278 360.451, 263.782 364.806, 268.029 365.656 C 271.444 366.339, 271.196 364.590, 271.006 386.715 C 270.879 401.424, 270.962 402.078, 273.483 406.380 C 274.917 408.828, 276.745 411.374, 277.545 412.038 C 279.432 413.603, 279.403 416.420, 277.485 418.013 C 276.651 418.704, 274.851 421.496, 273.485 424.217 C 271.151 428.864, 271 430.128, 271 445.011 C 271 462.270, 270.483 464, 265.329 464 C 260.114 464, 254.207 472.709, 256.765 476.625 C 258.034 478.566, 265.130 481.882, 266.853 481.338 C 276.484 478.299, 281.332 475.233, 285 469.860 L 288.500 464.734 288.812 446.361 L 289.124 427.988 292.794 425.494 C 294.813 424.122, 297.199 423, 298.097 423 C 298.995 423, 300.916 422.067, 302.365 420.927 C 304.413 419.317, 305 417.979, 305 414.927 C 305 410.157, 302.678 407.529, 297.147 406.040 C 294.970 405.454, 292.134 404.119, 290.845 403.075 C 288.543 401.210, 288.500 400.848, 288.500 383.233 L 288.500 365.291 285.088 360.282 C 279.418 351.960, 267.642 346.299, 262.096 349.230 M 743 368.981 C 743 370.248, 743.881 371.183, 745.443 371.575 C 749.068 372.485, 750.492 371.201, 748.410 368.901 C 746.116 366.366, 743 366.412, 743 368.981 M 755.565 367.895 C 754.932 368.918, 757.252 370, 760.079 370 C 764.563 370, 774.981 376.158, 779.973 381.759 C 782.738 384.861, 785 387.929, 785 388.577 C 785 389.225, 785.646 390.291, 786.436 390.947 C 787.954 392.207, 788.496 394.264, 789.541 402.750 C 789.977 406.288, 790.646 408, 791.594 408 C 795.147 408, 791.931 388.236, 787.405 382.260 C 781.672 374.690, 774.057 369, 769.658 369 C 768.811 369, 767.840 368.550, 767.500 368 C 766.733 366.759, 756.323 366.668, 755.565 367.895 M 439.147 383.145 C 435.260 384.264, 427.201 391.938, 424.588 397.009 C 422.496 401.069, 421.398 412.396, 422.752 415.940 C 423.530 417.976, 423.802 417.229, 424.394 411.440 C 424.784 407.623, 425.867 403.375, 426.802 402 C 427.736 400.625, 428.950 398.530, 429.500 397.346 C 431.023 394.065, 437.558 387.275, 439.912 386.528 C 441.062 386.163, 442.467 384.995, 443.036 383.932 C 444.179 381.796, 443.977 381.755, 439.147 383.145 M 1026.208 395.278 C 1025.031 396.532, 1023.359 399.569, 1022.493 402.028 C 1021.626 404.488, 1019.547 409.425, 1017.871 413 C 1016.196 416.575, 1014.430 420.400, 1013.946 421.500 C 1012.538 424.704, 1007.865 438.138, 1006.642 442.500 C 1006.024 444.700, 1004.953 447.094, 1004.261 447.820 C 1003.569 448.546, 1002.746 450.346, 1002.432 451.820 C 1002.118 453.294, 1001.388 455.625, 1000.809 457 C 1000.231 458.375, 998.509 463.158, 996.983 467.629 C 995.457 472.100, 993.548 477.275, 992.740 479.129 C 989.998 485.423, 986.323 495.655, 984.768 501.324 C 981.847 511.973, 996.645 514.843, 1000.038 504.285 C 1000.707 502.203, 1003.002 496.805, 1005.137 492.288 C 1007.273 487.772, 1010.814 478.547, 1013.006 471.788 C 1015.198 465.030, 1017.397 458.793, 1017.892 457.929 C 1019.091 455.840, 1023.480 444.736, 1025.565 438.522 C 1026.483 435.784, 1028.757 430.292, 1030.617 426.318 C 1032.478 422.344, 1034 418.597, 1034 417.991 C 1034 417.386, 1035.350 413.718, 1037 409.840 C 1040.525 401.556, 1040.747 398.179, 1037.961 395.189 C 1035.131 392.151, 1029.103 392.197, 1026.208 395.278 M 522.887 398.250 C 519.491 404.954, 515.288 409.701, 508.649 414.334 C 498.720 421.263, 495.318 422.376, 486.017 421.739 C 481.334 421.418, 478.232 421.566, 478.558 422.095 C 478.866 422.593, 478.641 423, 478.059 423 C 477.477 423, 476.993 424.012, 476.985 425.250 C 476.943 431.751, 468.891 447, 465.500 447 C 462.929 447, 461 450.674, 460.994 455.579 C 460.991 458.285, 460.489 462.300, 459.878 464.500 C 456.271 477.484, 452.625 518.025, 454.864 520.264 C 455.791 521.191, 456.557 520.864, 458.279 518.806 C 459.501 517.347, 462.525 515.276, 465 514.203 C 474.071 510.272, 479.813 509.501, 500 509.500 C 517.886 509.500, 520.032 509.692, 525.929 511.821 C 538.170 516.240, 540.530 518.030, 549.845 529.968 C 551.575 532.184, 551.951 532.286, 553.544 530.968 C 555.788 529.111, 578.985 528.913, 581.176 530.731 C 581.940 531.365, 583.712 532.320, 585.114 532.853 C 587.427 533.733, 588.329 533.184, 594.881 526.911 C 598.852 523.110, 602.698 520, 603.428 520 C 604.158 520, 605.267 519.383, 605.894 518.628 C 606.520 517.874, 609.837 516.188, 613.266 514.883 C 619.044 512.684, 620.891 512.512, 638.500 512.533 C 660.136 512.560, 663.485 513.228, 678.500 520.514 C 684.273 523.315, 689.099 526.516, 691.958 529.440 C 696.275 533.855, 696.608 534, 702.458 534.008 C 707.852 534.014, 722.341 535.354, 725.995 536.183 C 726.942 536.398, 727.672 535.028, 728.273 531.911 C 729.061 527.822, 728.876 526.907, 726.579 523.521 C 725.160 521.431, 724 519.093, 724 518.325 C 724 517.558, 723.212 515.728, 722.250 514.260 C 720.312 511.302, 719.754 498.132, 721.414 494.500 C 721.916 493.400, 722.404 492.275, 722.497 492 C 722.591 491.725, 723.192 490.233, 723.834 488.685 C 725.572 484.489, 725.288 483.362, 722.165 482.068 C 716.171 479.585, 708.278 469.946, 705.613 461.854 C 703.133 454.326, 702.858 449.824, 704.496 443.608 C 705.350 440.367, 705.791 437.458, 705.476 437.143 C 705.161 436.828, 700.978 436.554, 696.181 436.535 C 688.384 436.504, 686.753 436.152, 680.795 433.219 C 670.370 428.088, 661 416.118, 661 407.932 C 661 403.898, 659.712 403.610, 654.293 406.432 C 642.046 412.812, 624.851 413.766, 615.350 408.593 C 610.180 405.778, 603.911 400.319, 601.337 396.392 C 599.080 392.946, 597.112 393.384, 589.727 398.974 C 578.580 407.413, 566.053 410.851, 553.130 409.018 C 545.738 407.970, 535 403.846, 535 402.055 C 535 401.475, 534.372 401, 533.604 401 C 532.836 401, 530.824 399.425, 529.134 397.500 C 527.444 395.575, 525.832 394, 525.551 394 C 525.270 394, 524.072 395.913, 522.887 398.250 M 951.722 411.674 C 950.194 412.478, 947.269 414.837, 945.222 416.916 C 943.175 418.996, 940.775 420.952, 939.888 421.264 C 938.043 421.913, 919.128 436.100, 911.157 442.813 C 900.837 451.505, 901.346 454.017, 915.765 465.562 C 921.669 470.290, 927.439 474.533, 928.586 474.992 C 929.733 475.450, 932.058 477.212, 933.752 478.906 C 935.446 480.600, 937.882 482.399, 939.166 482.905 C 940.450 483.411, 944.315 486.115, 947.755 488.913 C 951.195 491.711, 954.961 494, 956.123 494 C 958.786 494, 963.963 488.237, 963.984 485.250 C 964.001 482.868, 957.284 475.415, 954.025 474.199 C 950.729 472.969, 925.868 452.730, 926.700 451.953 C 928.248 450.508, 943.420 438.448, 949.425 433.888 C 964.416 422.507, 966.736 418.430, 961.460 412.740 C 958.669 409.731, 955.975 409.436, 951.722 411.674 M 1063.646 412.452 C 1061.066 414.843, 1060.337 418.108, 1061.629 421.476 C 1062.229 423.040, 1089.486 445.718, 1095.250 449.450 C 1096.763 450.429, 1098 451.594, 1098 452.038 C 1098 452.483, 1094.063 455.959, 1089.250 459.763 C 1084.438 463.568, 1077.800 468.998, 1074.500 471.831 C 1071.200 474.664, 1068.133 476.986, 1067.685 476.991 C 1066.578 477.003, 1061.683 482.854, 1060.729 485.305 C 1059.418 488.676, 1065.756 496.424, 1068.835 495.215 C 1073.509 493.380, 1115.949 460.781, 1118.296 457.223 C 1121.094 452.982, 1119.921 448.672, 1114.601 443.647 C 1112.121 441.304, 1109.014 438.810, 1107.697 438.106 C 1106.381 437.401, 1103.998 435.687, 1102.402 434.296 C 1097.199 429.762, 1074.557 412.350, 1072.316 411.160 C 1068.989 409.393, 1066.556 409.756, 1063.646 412.452 M 796.045 436.129 C 796.020 436.475, 797.523 439.287, 799.385 442.379 C 801.570 446.008, 803.012 449.943, 803.455 453.484 C 804.301 460.261, 806 461.729, 806 455.684 C 806 448.244, 804.972 445.410, 800.441 440.354 C 798.048 437.684, 796.069 435.783, 796.045 436.129 M 501.027 478.022 C 499.117 478.471, 497.392 479.325, 497.194 479.919 C 496.995 480.514, 495.633 481.010, 494.167 481.022 C 487.085 481.080, 477 489.426, 477 495.228 C 477 496.753, 477.525 498, 478.167 498 C 478.808 498, 479.040 498.293, 478.682 498.652 C 477.715 499.618, 482.826 502, 485.864 501.999 C 487.314 501.999, 491.875 501.279, 496 500.400 C 501.667 499.192, 505.699 498.985, 512.500 499.552 C 527.939 500.841, 529.918 500.626, 532.581 497.370 C 536.012 493.175, 535.865 487.173, 532.250 483.836 C 526.997 478.987, 521.122 476.990, 512.434 477.102 C 508.070 477.159, 502.937 477.572, 501.027 478.022 M 631 479.951 C 630.175 480.409, 626.932 481.525, 623.793 482.430 C 613.904 485.281, 610.819 492.973, 617.062 499.215 L 620.123 502.277 630.812 501.639 C 643.118 500.904, 654.234 502.483, 660.485 505.852 C 664.586 508.062, 668.551 508.572, 670.754 507.173 C 672.912 505.803, 677 499.695, 677 497.841 C 677 492.539, 663.446 484.107, 651.423 481.930 C 648.165 481.340, 644.719 480.439, 643.764 479.928 C 641.638 478.792, 633.059 478.807, 631 479.951 M 482.268 527.604 C 472.872 532.150, 459.337 550.224, 461.367 555.514 C 462.341 558.053, 463.796 557.190, 467.894 551.644 C 470.070 548.698, 476.604 541.835, 482.413 536.394 C 488.222 530.952, 492.981 526.163, 492.988 525.750 C 493.013 524.183, 487.294 525.173, 482.268 527.604 M 623.352 528.993 C 622.171 529.470, 620.903 530.349, 620.533 530.946 C 620.164 531.544, 619.496 531.806, 619.048 531.530 C 617.960 530.857, 607.391 541.421, 604.381 546.188 C 601.802 550.273, 600.584 559.500, 602.623 559.500 C 603.241 559.500, 605.588 557.170, 607.839 554.323 C 610.090 551.475, 616.222 544.855, 621.466 539.611 C 626.710 534.367, 631 529.610, 631 529.038 C 631 527.801, 626.376 527.773, 623.352 528.993 M 432.206 541.281 C 430.993 542.572, 430 544.370, 430 545.275 C 430 546.181, 429.128 547.734, 428.062 548.727 C 425.050 551.534, 423.288 565.791, 424.793 575.180 C 426.644 586.721, 433 597.758, 433 589.430 C 433 588.082, 433.872 583.046, 434.938 578.239 C 437.845 565.137, 439.422 549.303, 438.350 544.008 C 437.286 538.758, 435.373 537.909, 432.206 541.281 M 557.297 546.700 C 554.890 547.166, 553.880 549.400, 553.446 555.219 C 553.118 559.619, 549.561 571.921, 547.149 577 C 542.678 586.412, 531.796 597.319, 522.218 601.989 C 516.259 604.894, 514.315 605.316, 505 605.724 C 480.537 606.795, 463.788 598.760, 454.443 581.470 C 452.757 578.350, 450.955 575.831, 450.438 575.874 C 449.922 575.916, 449.109 580.665, 448.631 586.428 C 447.884 595.426, 447.985 597.128, 449.343 598.486 C 451.046 600.189, 453.218 606.838, 452.468 608.052 C 451.761 609.196, 454.563 614.006, 456.884 615.632 C 458.029 616.433, 459.329 618.532, 459.772 620.295 C 460.354 622.609, 461.610 624.010, 464.289 625.332 C 467.396 626.867, 468.002 627.680, 468.015 630.332 C 468.035 634.376, 469.223 636.236, 471.281 635.446 C 472.241 635.077, 474.248 635.848, 476.201 637.334 C 478.015 638.715, 480.685 640.140, 482.132 640.501 C 483.580 640.862, 485.193 642.118, 485.716 643.291 C 486.418 644.863, 487.630 645.457, 490.327 645.551 C 492.340 645.620, 494.835 646.446, 495.873 647.385 C 497.685 649.025, 497.787 648.943, 498.446 645.296 C 499.327 640.422, 503.130 629.678, 504.246 628.909 C 504.718 628.583, 506.544 626.137, 508.302 623.473 C 510.907 619.526, 512.967 617.891, 519.413 614.652 C 524.040 612.326, 529.289 610.486, 532.053 610.221 C 535.808 609.860, 537.436 609.071, 539.971 606.383 C 541.726 604.523, 544.119 603, 545.288 603 C 546.457 603, 550.086 604.875, 553.353 607.167 C 560.471 612.160, 562.928 612.311, 569.446 608.154 C 575.567 604.251, 577.026 604.233, 582.500 608 C 585.716 610.213, 588.009 611, 591.239 611 C 593.647 611, 596.491 611.653, 597.559 612.451 C 598.816 613.391, 600.753 613.709, 603.058 613.354 C 605.870 612.921, 607.232 613.318, 609.558 615.251 C 612.349 617.570, 615.899 619.696, 620.614 621.872 C 624.013 623.440, 628.985 630.150, 630.156 634.750 C 630.751 637.087, 631.747 639.003, 632.369 639.006 C 634.357 639.017, 637 645.017, 637 649.522 C 637 654.660, 638.058 655.698, 640.521 652.976 C 642.696 650.573, 645.251 650.463, 648.560 652.631 C 650.990 654.223, 651.150 654.163, 655.222 650.131 C 659.619 645.777, 663.222 644.873, 666.932 647.190 C 669 648.481, 672 646.932, 672 644.574 C 672 643.924, 673.549 641.891, 675.442 640.056 C 678.472 637.120, 679.334 636.792, 682.629 637.327 C 686.871 638.016, 688.985 636.795, 689.032 633.628 C 689.085 630.059, 693.528 625.976, 698.234 625.173 C 702.182 624.499, 702.516 624.191, 703.083 620.703 C 703.731 616.719, 707.380 612, 709.814 612 C 711.977 612, 713.932 608.923, 713.968 605.462 C 713.988 603.576, 715.122 601.111, 716.959 598.962 C 718.587 597.058, 719.937 594.372, 719.959 592.993 C 720.029 588.706, 721.854 583.770, 724.740 580.061 C 727.416 576.623, 727.512 576.087, 727.506 564.581 L 727.500 552.662 715.550 552.273 C 699.126 551.738, 699.247 551.690, 698.417 559.029 C 698.043 562.338, 697.339 565.291, 696.852 565.591 C 696.365 565.892, 696.195 566.506, 696.473 566.956 C 696.751 567.405, 696.308 568.329, 695.489 569.009 C 694.670 569.689, 694 570.806, 694 571.492 C 694 572.178, 692.148 576.286, 689.885 580.620 C 685.492 589.033, 673.450 602, 670.030 602 C 669.048 602, 667.685 602.675, 667 603.500 C 666.315 604.325, 665.230 605, 664.589 605 C 663.948 605, 661.640 605.917, 659.461 607.038 C 653.077 610.321, 643.010 611.454, 631.219 610.215 C 623.533 609.408, 620.341 608.627, 618.362 607.070 C 616.915 605.932, 615.003 604.990, 614.115 604.978 C 613.227 604.966, 611.375 604.076, 610 603 C 608.625 601.924, 606.960 601.034, 606.300 601.022 C 605.640 601.010, 603.390 598.893, 601.300 596.317 C 599.210 593.742, 596.531 590.615, 595.347 589.369 C 590.261 584.017, 585.289 569.456, 584.127 556.515 L 583.500 549.530 580 548.903 C 578.075 548.558, 575.233 547.763, 573.685 547.138 C 570.985 546.047, 561.914 545.804, 557.297 546.700 M 766.637 549.445 C 758.821 553.274, 751 562.246, 751 567.383 C 751 568.188, 749.763 570.318, 748.250 572.116 C 745.770 575.065, 745.492 576.176, 745.416 583.443 C 745.370 587.874, 744.899 593.075, 744.369 595 C 743.751 597.242, 743.751 600.020, 744.367 602.731 C 745.117 606.030, 744.938 608.249, 743.558 612.809 C 741.304 620.253, 741.691 622.077, 746.003 624.318 C 750.801 626.812, 762.659 626.059, 768.944 622.861 C 774.353 620.108, 786.347 608.981, 788.571 604.652 C 793.903 594.271, 796.423 580.877, 795.072 570.098 C 794.069 562.101, 790.529 553.080, 788.372 553.027 C 787.752 553.012, 786.663 552.299, 785.952 551.442 C 784.136 549.253, 778.335 546.994, 774.628 547.031 C 772.908 547.048, 769.311 548.135, 766.637 549.445 M 253.144 572.155 C 250.219 574.896, 249.861 575.754, 250.360 578.831 C 251.440 585.485, 251.499 585.500, 277.148 585.500 L 300.221 585.500 303.110 582.038 C 306.537 577.933, 306.222 575.713, 301.658 571.777 L 298.500 569.054 277.500 569.032 L 256.500 569.009 253.144 572.155 M 154 581 C 154 581.550, 153.325 582, 152.500 582 C 151.675 582, 151 582.405, 151 582.900 C 151 583.394, 148.843 584.575, 146.207 585.523 C 140.561 587.553, 138.716 588.969, 133.864 595 C 128.760 601.344, 128.411 603.146, 131.558 606.886 C 135.679 611.784, 139.188 611.216, 145.421 604.645 C 150.050 599.765, 156.464 595.310, 158.192 595.775 C 159.490 596.124, 165 589.853, 165 588.027 C 165 585.717, 158.565 580, 155.965 580 C 154.884 580, 154 580.450, 154 581 M 918.050 586.039 C 916.153 587.097, 914.185 588.705, 913.677 589.613 C 912.348 591.987, 912.789 678.041, 914.139 679.667 C 917.098 683.233, 924.317 686, 930.661 686 C 939.441 686, 943.954 683.218, 943.985 677.789 C 944.007 673.829, 940.697 671.318, 934.425 670.534 L 929 669.856 929 651.088 C 929 640.765, 929.294 624.873, 929.653 615.773 L 930.305 599.226 934.715 598.729 C 940.385 598.090, 944 594.840, 944 590.382 C 944 585.276, 941.259 583.989, 930.527 584.057 C 923.558 584.102, 920.713 584.554, 918.050 586.039 M 974.174 586.314 C 971.317 589.356, 971.420 593.082, 974.452 596.354 C 976.480 598.542, 977.778 599, 981.952 599 C 986.505 599, 987.005 599.221, 987.052 601.250 C 987.080 602.487, 987.090 618.093, 987.073 635.928 C 987.040 671.239, 987.262 669.957, 981.173 669.985 C 977.250 670.003, 972 674.603, 972 678.022 C 972 679.219, 973.398 681.503, 975.106 683.099 C 977.948 685.754, 978.833 686, 985.536 686 C 991.422 686, 993.554 685.558, 996.385 683.750 C 1003.053 679.492, 1003.004 679.867, 1002.967 633.349 C 1002.936 595.287, 1002.778 591.316, 1001.217 589.469 C 997.278 584.810, 994.944 584, 985.452 584 C 977.229 584, 976.138 584.224, 974.174 586.314 M 286.807 615.956 C 279.611 616.443, 277.695 616.938, 275.677 618.834 C 273.567 620.816, 273.349 621.614, 274.059 624.763 C 275.412 630.760, 277.968 631.952, 289.527 631.978 C 296.998 631.994, 300.120 631.604, 301.770 630.449 C 308.488 625.743, 306.340 617.423, 298 615.843 C 296.625 615.582, 291.588 615.633, 286.807 615.956 M 202.763 617.565 C 197.728 620.297, 197.846 627.835, 202.965 630.482 C 205.324 631.702, 210.141 632, 227.500 632 C 251.063 632, 254.372 631.350, 255.594 626.482 C 256.576 622.571, 255.224 619.167, 252.035 617.518 C 247.798 615.327, 206.816 615.366, 202.763 617.565 M 559.316 634.901 C 558.283 638.849, 548.418 639.352, 541.317 635.820 C 539.015 634.674, 538.477 634.820, 533.169 638.033 C 530.439 639.686, 529.212 639.876, 526.363 639.090 C 523.457 638.287, 522.790 638.406, 522.296 639.815 C 521.971 640.742, 520.872 643.388, 519.853 645.695 C 517.609 650.777, 517.551 652.681, 519.500 657.346 C 520.325 659.320, 521 662.240, 521 663.833 C 521 665.427, 521.823 667.803, 522.830 669.115 C 523.836 670.427, 524.947 672.288, 525.298 673.250 C 525.650 674.212, 526.686 675, 527.601 675 C 528.515 675, 530.667 675.866, 532.382 676.923 C 534.293 678.102, 537.822 678.973, 541.500 679.173 L 547.500 679.500 547.799 673.772 C 548.036 669.231, 548.549 667.729, 550.272 666.522 C 553.053 664.574, 556.307 664.590, 560.136 666.570 C 562.439 667.761, 564.673 667.980, 569.385 667.475 C 577.179 666.641, 578.486 667.849, 578.494 675.897 L 578.500 681.500 584 681.807 C 587.025 681.976, 589.928 682.539, 590.450 683.057 C 592.123 684.718, 594.627 684.077, 598.500 681 C 600.576 679.350, 603.076 678, 604.056 678 C 606.759 678, 609 676.922, 609 675.621 C 609 674.980, 610.321 672.853, 611.936 670.894 C 615.158 666.985, 615.384 665.888, 615.156 655.253 C 615.009 648.427, 614.790 647.773, 611.384 644.003 C 608.756 641.094, 606.979 640, 604.884 640 C 602.096 640, 602 640.164, 602 644.922 C 602 649.426, 601.661 650.135, 598.008 653.262 C 595.812 655.141, 592.132 657.243, 589.830 657.933 C 587.528 658.622, 584.520 659.923, 583.146 660.824 C 581.096 662.167, 578.037 662.438, 566.074 662.334 C 556.808 662.254, 550.407 661.745, 548.500 660.938 C 546.850 660.239, 545.275 659.603, 545 659.523 C 544.725 659.444, 542.925 658.642, 541 657.742 C 531.787 653.436, 528.565 646.365, 533.156 640.529 C 535.920 637.015, 539.246 637.452, 547.441 642.408 L 553.382 646 567.323 646 C 579.701 646, 581.642 645.767, 584.632 643.918 C 586.668 642.660, 588 641.033, 588 639.805 C 588 638.052, 587.554 637.858, 584.750 638.394 C 573.241 640.595, 570.070 640.050, 565.593 635.102 C 563.223 632.484, 559.975 632.380, 559.316 634.901 M 132.250 636.220 C 130.606 637.013, 130 638.174, 130 640.532 C 130 643.229, 131.142 644.835, 136.969 650.332 C 141.596 654.697, 145.258 657.262, 147.866 657.964 C 150.027 658.546, 152.052 659.692, 152.366 660.511 C 152.736 661.477, 154.266 661.987, 156.719 661.964 C 159.872 661.933, 160.957 661.325, 163.250 658.303 C 166.543 653.962, 166.616 653.053, 163.945 649.657 C 162.031 647.223, 154.196 643, 151.596 643 C 150.963 643, 148.927 641.613, 147.071 639.917 C 141.769 635.075, 137.060 633.901, 132.250 636.220 M 596.245 638.250 C 596.734 639.736, 601 640.567, 601 639.177 C 601 638.207, 598.691 637, 596.835 637 C 596.284 637, 596.019 637.563, 596.245 638.250 M 255.259 663.651 C 250.020 664.787, 248.194 672.955, 252.314 676.826 C 254.549 678.925, 255.404 679, 277.127 679 L 299.626 679 302.313 676.195 C 305.654 672.708, 305.727 669.636, 302.545 666.455 C 300.141 664.050, 299.758 664, 283.795 663.991 C 274.833 663.987, 265.250 663.799, 262.500 663.574 C 259.750 663.349, 256.491 663.383, 255.259 663.651 M 665.725 716.417 C 662.917 719.226, 657.458 721.993, 654.719 721.996 C 653.172 721.998, 651.682 722.666, 651.362 723.500 C 651.045 724.325, 650.047 725.015, 649.143 725.034 C 648.239 725.053, 645.700 725.937, 643.500 727 C 641.300 728.063, 637.510 728.947, 635.079 728.966 C 632.523 728.986, 629.932 729.657, 628.937 730.557 C 627.913 731.483, 624.035 732.450, 619.358 732.944 C 615.036 733.400, 610.150 734.345, 608.500 735.043 C 606.850 735.741, 605.050 736.379, 604.500 736.461 C 603.950 736.542, 602.150 737.186, 600.500 737.891 C 597.234 739.287, 588.733 738.663, 588.167 736.986 C 587.656 735.477, 584.217 735.812, 581.422 737.643 C 579.392 738.973, 577.456 739.163, 571.264 738.640 C 567.056 738.284, 563.301 737.487, 562.919 736.868 C 562.536 736.250, 561.723 736.053, 561.112 736.431 C 560.500 736.809, 560 736.641, 560 736.059 C 560 735.409, 557.137 735, 552.583 735 C 548.504 735, 545.017 734.555, 544.833 734.011 C 544.650 733.467, 541.875 732.538, 538.667 731.945 C 535.459 731.353, 530.873 729.773, 528.476 728.435 C 526.079 727.096, 523.887 726.374, 523.606 726.829 C 521.876 729.627, 536.559 750.383, 542 752.831 C 543.375 753.449, 546.300 755.071, 548.500 756.434 C 550.700 757.798, 553.458 758.933, 554.628 758.957 C 555.798 758.980, 558.498 759.749, 560.628 760.664 C 562.758 761.579, 565.917 762.223, 567.649 762.096 C 569.381 761.968, 571.095 762.345, 571.458 762.932 C 572.353 764.380, 596.648 764.379, 597.543 762.931 C 597.906 762.343, 599.845 761.964, 601.852 762.090 C 603.858 762.215, 607.242 761.572, 609.372 760.659 C 611.502 759.747, 613.848 759, 614.585 759 C 616.798 759, 625.723 755.207, 629.741 752.559 C 631.809 751.197, 636.133 748.264, 639.351 746.041 C 642.569 743.819, 645.514 742, 645.895 742 C 647.961 742, 666.880 721.525, 668.273 717.782 C 669.128 715.486, 667.519 714.624, 665.725 716.417 M 180.769 810.701 C 176.580 812.098, 175.963 812.682, 175.378 815.800 C 174.404 820.993, 176.396 822, 187.642 822 C 200.404 822, 206.556 823.466, 211.858 827.772 C 215.564 830.782, 216.605 831.173, 218.827 830.392 C 222.261 829.184, 224.500 825.128, 223.635 821.681 C 223.265 820.206, 222.396 819, 221.704 819 C 221.012 819, 218.933 817.618, 217.083 815.929 C 210.180 809.624, 191.893 806.991, 180.769 810.701 M 975.500 811.921 C 971.202 812.642, 967.954 814.428, 961.250 819.756 C 956.179 823.786, 955.620 827.355, 959.490 830.991 C 962.203 833.540, 961.858 833.612, 970.500 828.703 C 972.700 827.453, 974.950 826.280, 975.500 826.096 C 976.050 825.911, 977.542 825.364, 978.815 824.880 C 980.088 824.396, 986.636 824, 993.365 824 C 1001.548 824, 1005.997 823.603, 1006.800 822.800 C 1010.027 819.573, 1006.374 813.828, 999.917 811.976 C 996.166 810.901, 981.778 810.868, 975.500 811.921 M 732.074 842.750 C 732.207 858.450, 733.733 862.264, 733.875 847.250 C 733.953 839, 733.623 834, 733 834 C 732.404 834, 732.030 837.534, 732.074 842.750 M 735.714 873.250 C 736.335 884.621, 737.131 890, 738.191 890 C 739.209 890, 738.545 872.843, 737.368 868.750 C 736.272 864.936, 735.391 867.333, 735.714 873.250" stroke="none" fill="#171916" fill-rule="evenodd"/>
</svg>