<svg role="img" aria-labelledby="artwork-title" shape-rendering="geometricPrecision" xmlns="http://www.w3.org/2000/svg" width="1200" height="1200" viewBox="0 0 1200 1200" version="1.1">
	<title id="artwork-title">Mascot holding a terminal window</title>
	<path d="M 937 274.884 C 937 275.369, 934.107 276.077, 930.570 276.456 C 920.887 277.493, 907.487 282.605, 902.656 287.106 C 899.991 289.589, 898.340 289.495, 894.594 286.648 C 883.925 278.540, 867.984 274.805, 853.448 277.008 C 845.016 278.286, 830.524 283.989, 827.840 287.085 C 826.927 288.138, 825.727 289, 825.175 289 C 823.727 289, 816.185 297.807, 814.386 301.599 C 811.642 307.381, 809.553 308.579, 804.706 307.149 C 795.114 304.318, 792.243 303.886, 787.167 304.509 C 781.598 305.194, 773.702 307.675, 768.377 310.413 C 764.108 312.609, 752.388 324.192, 751.474 327.120 C 751.065 328.429, 750.116 330.388, 749.365 331.473 C 748.537 332.670, 748 336.135, 748 340.288 C 748 347.458, 746.863 351, 744.561 351 C 742.528 351, 730.919 357.748, 727.721 360.788 C 726.192 362.241, 723.823 365.921, 722.456 368.965 C 721.088 372.009, 719.076 376.164, 717.985 378.198 C 714.868 384.006, 715.147 398.290, 718.500 404.596 C 719.875 407.182, 721.014 410.018, 721.032 410.899 C 721.049 411.780, 721.724 413.374, 722.532 414.441 C 724.799 417.439, 724.321 419.648, 720.182 425.293 C 716.011 430.982, 713 439.476, 713 445.554 C 713 452.191, 716.423 459.485, 724.002 469 C 725.747 471.191, 725.855 471.994, 724.876 475.500 C 722.610 483.611, 725.500 499.710, 730.103 504.609 L 732.138 506.775 727.894 509.638 C 716.170 517.547, 707.929 537.708, 709.381 554.933 C 710.302 565.868, 715.452 581.469, 718.532 582.650 C 719.339 582.960, 720 583.653, 720 584.189 C 720 584.725, 721.537 587.039, 723.416 589.332 L 726.831 593.500 727.166 606.670 C 727.460 618.267, 727.757 620.187, 729.647 622.741 C 730.829 624.336, 732.796 629.209, 734.019 633.569 C 735.912 640.313, 737.033 642.349, 741.534 647.210 C 744.444 650.353, 747.133 654.330, 747.510 656.047 C 748.147 658.948, 752.307 663.821, 759.512 670.107 C 761.155 671.541, 763.604 673.950, 764.953 675.459 C 766.302 676.969, 768.440 678.597, 769.703 679.077 C 773.529 680.532, 772.308 681.689, 766.250 682.347 C 745.764 684.574, 726.293 688.397, 724.765 690.493 C 724.280 691.158, 724.020 691.160, 724 690.500 C 723.983 689.950, 723.581 690.113, 723.106 690.862 C 722.632 691.611, 720.501 692.585, 718.372 693.027 C 716.242 693.468, 710.033 695.668, 704.573 697.915 C 699.113 700.162, 693.938 702, 693.073 702 C 691.652 702, 691.526 693.321, 691.771 612.250 C 691.933 558.838, 691.669 521.690, 691.119 520.500 C 690.611 519.400, 689.228 515.800, 688.046 512.500 C 684.607 502.898, 676.164 495.077, 665.873 491.962 C 659.839 490.135, 652.044 490.069, 428.064 489.958 L 196.492 489.844 190.641 492.033 C 182.960 494.907, 173.108 504.394, 169.248 512.634 L 166.500 518.500 166.500 706.033 C 166.500 890.514, 166.532 893.638, 168.472 898.033 C 169.557 900.490, 170.697 902.725, 171.005 903 C 171.314 903.275, 173.242 905.814, 175.290 908.643 C 179.060 913.850, 182.789 916.216, 192 919.240 C 195.922 920.528, 226.617 920.704, 431 920.609 L 665.500 920.500 670.840 917.687 C 682.027 911.796, 690 901.405, 690 892.718 C 690 890.343, 690.540 887.860, 691.200 887.200 C 692.133 886.267, 692.133 885.733, 691.200 884.800 C 689.719 883.319, 689.607 874.361, 691.058 873.464 C 691.703 873.066, 692.037 869.233, 691.914 863.655 C 691.737 855.670, 691.933 854.456, 693.445 854.159 C 694.398 853.972, 696.151 854.647, 697.339 855.659 C 700.512 858.362, 703.964 860.140, 704.907 859.557 C 705.361 859.277, 706.467 859.859, 707.366 860.851 C 708.802 862.439, 708.878 863.968, 707.999 873.578 C 706.256 892.615, 705.885 895.452, 704.860 897.566 C 704.310 898.702, 704.003 904.216, 704.180 909.818 C 704.374 915.996, 704.106 920.150, 703.500 920.374 C 702.853 920.612, 702.892 921.407, 703.609 922.621 C 704.677 924.430, 707.218 924.500, 771.526 924.500 C 819.735 924.500, 838.437 924.190, 838.705 923.386 C 838.909 922.773, 836.579 921.050, 833.527 919.557 C 830.475 918.064, 823.243 913.278, 817.456 908.921 C 811.670 904.564, 806.772 901, 806.573 901 C 806.374 901, 804.735 899.621, 802.930 897.935 C 801.126 896.249, 798.354 894.200, 796.770 893.381 C 791.764 890.793, 777.987 878.975, 763.392 864.750 L 749.284 851 739.392 850.985 C 729.597 850.971, 717.851 848.951, 715.314 846.846 C 714.591 846.246, 714 845.997, 714 846.292 C 714 846.587, 711.241 845.492, 707.868 843.858 C 703.848 841.911, 699.290 838.410, 694.633 833.694 C 686.101 825.052, 683.307 823.015, 679.973 823.007 C 675.594 822.995, 673 825.618, 673 830.057 C 673 832.226, 672.867 834, 672.705 834 C 672.543 834, 670.099 831.862, 667.274 829.250 C 658.543 821.176, 657.672 815.330, 664.250 808.956 C 666.587 806.691, 669.737 804.188, 671.250 803.393 C 673.232 802.352, 673.996 801.188, 673.985 799.224 C 673.966 795.832, 672.581 793.523, 671.112 794.431 C 670.500 794.809, 670 794.641, 670 794.059 C 670 792.347, 667.033 792.840, 663.899 795.072 C 660.240 797.677, 657.847 797.258, 656.936 793.853 C 655.394 788.087, 660.570 781.861, 671.346 776.522 C 674.533 774.942, 674.911 768.558, 671.912 766.953 C 669.068 765.431, 662.191 766.356, 660.646 768.470 C 658.623 771.236, 656 769.334, 656 765.101 C 656 759.957, 662.906 753.007, 668.038 752.986 C 673.344 752.965, 675.753 752.026, 677.557 749.273 C 678.965 747.124, 679.014 746.394, 677.889 744.292 C 676.197 741.131, 673.263 739.696, 664 737.500 C 659.875 736.522, 655.375 735.169, 654 734.494 C 652.625 733.820, 649.700 732.949, 647.500 732.560 C 645.300 732.170, 642.505 731.212, 641.289 730.429 C 640.074 729.646, 635.574 727.863, 631.289 726.467 C 616.314 721.585, 610.194 717.349, 611.367 712.675 C 612.082 709.826, 614.392 709.031, 622 709.017 C 631.133 709.001, 656.751 713.979, 658.009 716.014 C 658.396 716.641, 659.340 717.048, 660.106 716.919 C 660.873 716.790, 662.175 716.938, 663 717.249 C 663.825 717.559, 667.875 718.818, 672 720.047 C 676.125 721.276, 681.300 722.888, 683.500 723.629 C 685.700 724.370, 689.578 725.420, 692.119 725.963 C 694.659 726.505, 698.034 727.499, 699.619 728.170 C 701.203 728.842, 702.950 729.459, 703.500 729.542 C 704.050 729.625, 705.175 729.987, 706 730.346 C 706.825 730.705, 710.650 732.075, 714.500 733.390 C 731.808 739.301, 738.216 741.720, 738.834 742.578 C 739.200 743.085, 741.554 744.531, 744.065 745.791 C 752.875 750.212, 768.393 767.658, 774.722 780.256 C 777.428 785.642, 783.496 792, 785.931 792 C 786.824 792, 788.443 792.622, 789.527 793.382 C 790.612 794.141, 791.843 794.805, 792.262 794.857 C 793.225 794.975, 800.455 798.340, 819.740 807.646 C 828.123 811.691, 835.233 815, 835.542 815 C 835.851 815, 839.793 816.845, 844.302 819.101 C 848.811 821.356, 857.675 825.225, 864 827.699 C 870.325 830.172, 876.105 832.692, 876.844 833.298 C 878.043 834.282, 888.376 838.540, 899.500 842.634 C 901.700 843.444, 904.033 844.803, 904.683 845.653 C 905.334 846.504, 906.319 846.921, 906.872 846.579 C 907.425 846.237, 908.242 846.539, 908.689 847.250 C 909.906 849.189, 914.736 851.031, 916.738 850.321 C 922.758 848.185, 923.827 842.125, 919 837.500 C 917.350 835.919, 916 833.910, 916 833.034 C 916 831.118, 927.373 819.684, 931.262 817.691 C 933.694 816.444, 934.811 816.493, 940.619 818.104 C 944.246 819.110, 947.728 820.343, 948.357 820.844 C 948.986 821.345, 950.625 822.093, 952 822.506 C 957.923 824.286, 972.804 832.480, 979.375 837.581 C 993.517 848.559, 1006.975 863.289, 1012.881 874.254 C 1014.585 877.419, 1017.109 881.797, 1018.490 883.984 C 1019.870 886.171, 1021 888.559, 1021 889.290 C 1021 890.574, 1003.914 908, 1002.655 908 C 1002.313 908, 1000.339 909.598, 998.267 911.552 C 996.195 913.506, 992.026 916.571, 989.002 918.363 C 985.978 920.156, 983.361 922.363, 983.187 923.267 C 982.898 924.769, 986.240 924.917, 1021.863 924.977 C 1046.176 925.017, 1061.083 924.675, 1061.459 924.067 C 1061.790 923.531, 1062.301 917.109, 1062.594 909.796 C 1062.887 902.483, 1063.320 895.537, 1063.555 894.360 C 1063.790 893.184, 1066.670 889.255, 1069.955 885.630 C 1073.240 882.005, 1076.712 877.793, 1077.671 876.270 C 1078.630 874.746, 1080.435 872.241, 1081.683 870.702 C 1084.583 867.125, 1094.137 847.416, 1094.142 845 C 1094.142 844.725, 1094.760 843.818, 1095.515 842.984 C 1096.269 842.150, 1097.388 839.230, 1098.001 836.495 C 1098.614 833.761, 1099.724 829.493, 1100.468 827.012 C 1105.032 811.787, 1106.351 788.853, 1103.460 775 C 1100.164 759.204, 1097.472 750.179, 1095.362 747.847 C 1094.442 746.831, 1093.979 746, 1094.332 746 C 1096.300 746, 1083.364 729.216, 1075.594 721.689 C 1063.319 709.796, 1054.787 704.055, 1040 697.741 C 1037.525 696.685, 1034.600 695.429, 1033.500 694.952 C 1032.400 694.474, 1029.608 693.603, 1027.295 693.015 C 1024.982 692.428, 1022.427 691.284, 1021.616 690.474 C 1020.806 689.663, 1019.355 689, 1018.392 689 C 1017.429 689, 1013.909 688.140, 1010.570 687.088 C 1007.232 686.037, 1001.907 684.613, 998.737 683.925 C 988.919 681.794, 989.324 679.921, 1001.383 671.690 C 1003.671 670.129, 1006.473 666.976, 1007.691 664.594 C 1008.897 662.236, 1012.175 658.109, 1014.977 655.424 C 1017.779 652.739, 1021.188 648.182, 1022.553 645.297 C 1025.481 639.108, 1027.964 637.358, 1031.250 639.170 C 1033.966 640.668, 1049.590 640.585, 1051.424 639.063 C 1052.117 638.488, 1052.963 638.296, 1053.304 638.637 C 1053.883 639.217, 1061.664 636.126, 1065 633.990 C 1065.825 633.462, 1068.038 632.340, 1069.918 631.496 C 1071.797 630.652, 1076.747 626.483, 1080.918 622.231 C 1086.882 616.150, 1089.496 612.473, 1093.167 605 C 1101.225 588.599, 1102.481 580.174, 1099.143 564.901 C 1097.148 555.773, 1096.025 553.089, 1092.351 548.673 C 1089.224 544.914, 1089.386 542.954, 1093.113 539.437 C 1102.253 530.815, 1107.127 514.011, 1103.559 503.428 C 1103.003 501.780, 1104.105 500.084, 1108.949 495.132 C 1112.299 491.710, 1116.155 486.595, 1117.520 483.767 C 1119.800 479.040, 1120 477.488, 1120 464.513 C 1120 456.751, 1119.604 449.972, 1119.121 449.450 C 1118.637 448.928, 1117.675 446.728, 1116.982 444.563 C 1116.265 442.323, 1113.626 438.531, 1110.861 435.766 C 1105.691 430.596, 1105.057 428.700, 1107.568 425.925 C 1109.689 423.581, 1111.921 413.800, 1111.964 406.654 C 1112.002 400.502, 1109.629 390.540, 1107.522 388 C 1106.838 387.175, 1105.016 384.250, 1103.475 381.500 C 1100.583 376.340, 1096.203 371, 1094.863 371 C 1093.715 371, 1085 364.962, 1085 364.167 C 1085 363.550, 1076.961 361.036, 1069.891 359.442 C 1067.445 358.891, 1067.242 358.394, 1066.661 351.515 C 1065.910 342.637, 1063.301 335.675, 1058.069 328.593 C 1054.487 323.745, 1052.652 322.067, 1043.500 315.273 C 1032.283 306.946, 1017.276 304.072, 1003.500 307.614 C 1000.200 308.462, 996.561 309.385, 995.412 309.664 C 993.685 310.083, 992.823 309.175, 990.412 304.398 C 983.373 290.443, 965.217 278.336, 948.361 276.355 C 945.412 276.008, 943 275.337, 943 274.862 C 943 274.388, 941.650 274, 940 274 C 938.350 274, 937 274.398, 937 274.884 M 854 293.011 C 843.637 294.799, 832.928 301.286, 826.550 309.639 C 822.897 314.423, 821.699 319.437, 824.462 318.376 C 825.266 318.068, 826.217 316.844, 826.574 315.658 C 827.415 312.869, 831.975 308, 833.746 308 C 834.501 308, 834.840 307.550, 834.500 307 C 834.160 306.450, 834.367 306, 834.961 306 C 835.554 306, 837.943 304.777, 840.270 303.283 C 842.596 301.789, 844.725 300.511, 845 300.444 C 845.275 300.377, 847.700 299.301, 850.389 298.053 C 854.687 296.058, 856.500 295.829, 865.389 296.162 C 874.063 296.486, 876.175 296.918, 880.250 299.199 C 884.727 301.706, 885.922 301.797, 884.235 299.500 C 880 293.736, 866.543 290.848, 854 293.011 M 927.362 292.943 C 924.537 293.389, 920.712 294.594, 918.862 295.622 C 914.484 298.053, 905 305.891, 905 307.077 C 905 308.572, 908.012 308.132, 908.620 306.549 C 908.926 305.751, 911.162 304.340, 913.588 303.413 C 916.015 302.486, 918 301.291, 918 300.757 C 918 300.223, 918.675 300.045, 919.500 300.362 C 920.325 300.678, 921 300.600, 921 300.187 C 921 298.711, 930.355 296.711, 936.749 296.820 C 942.431 296.917, 945.224 297.433, 952 299.641 C 952.825 299.909, 953.500 299.989, 953.500 299.818 C 953.500 299.648, 954.850 300.445, 956.500 301.591 C 958.150 302.737, 960.175 303.926, 961 304.234 C 963.829 305.288, 971.094 311.080, 971.731 312.790 C 972.573 315.052, 977.297 321, 978.250 321 C 979.832 321, 978.890 316.669, 976.375 312.377 C 972.880 306.414, 963.389 298.196, 956.774 295.407 C 950.681 292.837, 935.879 291.597, 927.362 292.943 M 777.706 323.440 C 771.585 327.074, 767.129 332.033, 763.963 338.735 C 761.120 344.751, 760.278 348.945, 761.640 350.306 C 762.230 350.897, 764.432 347.548, 766.862 342.365 C 768.831 338.166, 778.641 329.229, 784.132 326.631 C 788.551 324.540, 791.187 324, 796.969 324 C 803.323 324, 804.087 323.810, 803 322.500 C 802.033 321.335, 799.495 321.021, 791.628 321.094 C 783.017 321.174, 780.932 321.526, 777.706 323.440 M 820 323 C 820 324.100, 820.450 325, 821 325 C 821.550 325, 822 324.100, 822 323 C 822 321.900, 821.550 321, 821 321 C 820.450 321, 820 321.900, 820 323 M 1007 322.477 C 1004.525 323.222, 1000.700 324.325, 998.500 324.930 C 993.172 326.393, 989.250 329.650, 990.867 331.267 C 991.784 332.184, 992.448 332.175, 993.778 331.225 C 997.658 328.454, 1000.864 327.856, 1010 328.200 C 1024.128 328.731, 1030.551 331.408, 1039.642 340.555 C 1044.203 345.144, 1047.033 348.872, 1047.472 350.870 C 1048.372 354.971, 1050.003 354.893, 1049.991 350.750 C 1049.972 344.432, 1043.370 335.719, 1032.224 327.305 C 1029.689 325.391, 1015.514 320.890, 1012.562 321.062 C 1011.978 321.096, 1009.475 321.733, 1007 322.477 M 744 368.113 C 740.651 369.433, 734.320 376.655, 733.668 379.896 C 733.381 381.328, 732.616 383.850, 731.968 385.500 C 730.484 389.283, 729.780 397, 730.919 397 C 731.391 397, 732.083 395.369, 732.457 393.375 C 733.756 386.451, 739.586 375.667, 743.909 372.193 C 749.459 367.733, 749.499 365.944, 744 368.113 M 1050.591 374.853 C 1050.301 375.322, 1050.694 376.559, 1051.465 377.603 C 1052.561 379.088, 1053.131 379.238, 1054.090 378.292 C 1055.057 377.340, 1055.045 376.759, 1054.035 375.542 C 1052.605 373.819, 1051.381 373.574, 1050.591 374.853 M 1063.459 376.067 C 1062.811 377.114, 1063.521 378.416, 1064.833 378.586 C 1065.200 378.634, 1066.400 379, 1067.500 379.400 C 1079.735 383.850, 1087.350 392.306, 1090.871 405.353 C 1091.999 409.533, 1093.076 411.583, 1094.262 411.812 C 1095.680 412.085, 1096 411.407, 1096 408.132 C 1096 405.924, 1095.519 403.821, 1094.932 403.458 C 1094.344 403.095, 1094.100 402.183, 1094.388 401.431 C 1094.677 400.679, 1094.482 399.798, 1093.956 399.473 C 1093.430 399.148, 1093 398.170, 1093 397.301 C 1093 391.371, 1083.678 381.079, 1074.500 376.876 C 1070.051 374.838, 1064.471 374.429, 1063.459 376.067 M 183.827 379.702 C 180.220 383.833, 179.996 385.411, 181.633 395.133 C 182.501 400.285, 183.453 405.175, 183.749 406 C 184.045 406.825, 184.186 408.760, 184.063 410.300 C 183.940 411.841, 184.291 413.646, 184.844 414.312 C 185.397 414.978, 186.548 419.529, 187.403 424.424 C 188.499 430.703, 189.603 434.013, 191.153 435.662 C 194.121 438.822, 198.924 438.775, 201.948 435.555 C 204.082 433.283, 204.197 432.557, 203.570 425.305 C 202.817 416.602, 199.113 391.330, 198.249 389 C 197.943 388.175, 197.790 386.712, 197.909 385.750 C 198.028 384.788, 197.672 384, 197.117 384 C 196.563 384, 195.519 382.762, 194.797 381.250 C 193.733 379.019, 192.722 378.444, 189.441 378.202 C 186.527 377.988, 184.958 378.407, 183.827 379.702 M 825 390.043 C 825 391.848, 815.758 401.056, 810.521 404.469 C 803.033 409.348, 796.934 411.342, 791.815 410.583 C 781.467 409.049, 781.694 408.971, 780.396 414.500 C 778.046 424.513, 775.877 427.685, 766.886 434.254 C 763.779 436.524, 763.174 437.634, 762.572 442.168 C 762.187 445.068, 761.001 450.028, 759.936 453.189 C 758.871 456.350, 758 460.050, 758 461.409 C 758 462.769, 757.610 464.123, 757.134 464.417 C 756.658 464.711, 756.486 466.091, 756.752 467.482 C 757.018 468.873, 756.712 470.642, 756.073 471.412 C 754.977 472.733, 751.753 502.023, 752.605 502.918 C 752.824 503.148, 754.015 502.823, 755.252 502.196 C 759.386 500.100, 770.386 498.206, 782.504 497.504 C 806.611 496.108, 829.322 502.864, 837 513.716 C 841.315 519.816, 844.118 522.147, 845.630 520.892 C 847.866 519.036, 868.954 520.128, 871.973 522.257 C 875.695 524.881, 878.443 524.420, 881.286 520.691 C 883.544 517.732, 892.680 512, 895.141 512 C 895.666 512, 897.987 511.079, 900.298 509.954 C 902.761 508.755, 906.034 508.014, 908.207 508.164 C 910.246 508.304, 912.234 508.099, 912.624 507.709 C 913.646 506.688, 934.779 506.833, 935.417 507.866 C 935.711 508.342, 937.120 508.508, 938.548 508.236 C 939.976 507.963, 942.124 508.232, 943.322 508.835 C 944.520 509.438, 948.425 510.640, 952 511.506 C 958.195 513.006, 960.486 513.861, 968.518 517.667 C 972.243 519.432, 979.757 526.236, 981.597 529.511 C 982.536 531.181, 984.221 531.558, 993.259 532.118 C 999.069 532.478, 1004.418 533.141, 1005.147 533.591 C 1005.875 534.041, 1007.963 534.281, 1009.786 534.124 C 1011.609 533.967, 1013.761 534.387, 1014.569 535.057 C 1015.747 536.035, 1016.430 535.921, 1018.019 534.483 C 1020.884 531.890, 1020.787 524.011, 1017.859 521.405 C 1014.432 518.357, 1012.046 512.030, 1012.022 505.932 C 1011.999 500.196, 1014.463 490, 1015.872 490 C 1018.155 490, 1015.754 485.278, 1011.296 481.004 C 1001.345 471.463, 997.299 460.364, 999.994 450 C 1002.726 439.489, 1003.129 440.307, 994.847 439.558 C 985.617 438.722, 978.892 435.539, 971.818 428.656 C 966.564 423.545, 961 414.012, 961 410.122 C 961 406.891, 959.356 406.713, 952.226 409.176 C 946.689 411.089, 943.467 411.497, 934 411.483 C 923.468 411.468, 922.079 411.241, 917.500 408.794 C 912.415 406.078, 906.105 400.123, 902.087 394.250 C 899.436 390.375, 898.985 390.314, 895.327 393.332 C 890.607 397.226, 878.273 403, 874.673 403 C 873.423 403, 871.884 403.516, 871.253 404.147 C 869.745 405.655, 855 406.634, 855 405.225 C 855 404.654, 854.070 404.430, 852.934 404.727 C 851.798 405.025, 849.886 404.798, 848.684 404.224 C 847.483 403.651, 845.825 402.911, 845 402.580 C 843.500 401.978, 841.493 400.695, 834.709 396 C 832.723 394.625, 830.635 392.488, 830.070 391.250 C 829.047 389.008, 825 388.045, 825 390.043 M 114.589 414.077 C 109.448 420.187, 110.698 422.094, 136.331 447.250 C 149.755 460.424, 151.922 461.365, 157.195 456.313 C 160.613 453.038, 160.782 449.761, 157.661 447.305 C 156.374 446.293, 155.137 444.951, 154.911 444.321 C 154.685 443.692, 147.585 435.938, 139.134 427.089 C 125.361 412.669, 123.425 411, 120.472 411 C 118.021 411, 116.515 411.788, 114.589 414.077 M 1093.570 443.887 C 1093.269 444.374, 1093.753 445.380, 1094.647 446.122 C 1098.050 448.946, 1100.980 455.115, 1102.025 461.654 C 1103.233 469.221, 1103.930 470.790, 1104.140 466.417 C 1104.575 457.328, 1103.388 453.394, 1098.051 446.250 C 1095.548 442.899, 1094.517 442.355, 1093.570 443.887 M 799.603 468.833 C 799.320 469.292, 797.714 469.465, 796.035 469.218 C 794.356 468.972, 792.398 469.255, 791.684 469.848 C 790.970 470.440, 787.711 471.607, 784.443 472.440 C 779.875 473.605, 777.748 474.809, 775.250 477.645 C 771.484 481.918, 771.241 483.765, 773.984 487.253 C 776.824 490.864, 779.966 491.290, 790.059 489.435 C 795.163 488.497, 801.012 488.042, 803.738 488.370 C 821.801 490.546, 822.394 490.509, 825.311 487.043 C 826.790 485.285, 828 482.791, 828 481.500 C 828 478.243, 823.618 473.359, 819.467 471.989 C 817.560 471.360, 816 470.379, 816 469.809 C 816 469.223, 814.677 468.967, 812.956 469.220 C 811.282 469.465, 809.680 469.292, 809.397 468.833 C 809.114 468.375, 806.910 468, 804.500 468 C 802.090 468, 799.886 468.375, 799.603 468.833 M 911.346 479.293 C 903.269 483.401, 901.751 490.051, 907.797 494.839 C 911.563 497.822, 911.708 497.848, 926.047 498.183 C 939.997 498.509, 940.730 498.633, 947.097 501.760 C 955.183 505.732, 958.525 505.834, 962.578 502.234 C 967.660 497.720, 967.642 495.273, 962.493 490.338 C 959.959 487.911, 956.387 485.643, 954.148 485.040 C 951.995 484.460, 949.705 483.349, 949.059 482.571 C 948.413 481.793, 946.074 480.850, 943.861 480.476 C 941.647 480.103, 938.636 479.170, 937.168 478.404 C 932.779 476.114, 916.494 476.674, 911.346 479.293 M 83.250 480.347 C 80.080 481.387, 80 481.556, 80 487.207 C 80 492.268, 80.244 493, 81.935 493 C 82.999 493, 85.137 493.525, 86.685 494.166 C 88.233 494.808, 89.725 495.409, 90 495.503 C 90.275 495.596, 91.175 495.945, 92 496.277 C 94.212 497.169, 114.544 500.800, 121.605 501.565 C 128.282 502.287, 131.046 501.385, 133.466 497.692 C 136.965 492.353, 131.060 487.721, 117.803 485.407 C 113.343 484.628, 109.136 483.527, 108.452 482.961 C 107.769 482.394, 106.826 482.017, 106.355 482.124 C 105.885 482.230, 104.825 482.071, 104 481.769 C 101.852 480.983, 89.531 478.973, 87.885 479.141 C 87.123 479.218, 85.037 479.761, 83.250 480.347 M 299.500 506 L 196.500 506.500 192.432 509.148 C 188.812 511.503, 184.523 516.383, 185.234 517.336 C 185.380 517.532, 184.950 518.355, 184.279 519.164 C 182.832 520.908, 182.324 573.724, 183.741 575.141 C 184.222 575.622, 293.023 575.892, 429.552 575.752 L 674.500 575.500 674.552 552.475 C 674.581 539.811, 674.943 528.902, 675.356 528.233 C 675.770 527.564, 675.344 524.292, 674.409 520.962 C 672.951 515.765, 671.940 514.249, 667.270 510.260 L 661.830 505.612 532.165 505.556 C 460.849 505.525, 356.150 505.725, 299.500 506 M 778 513.642 C 773.224 515.186, 767.888 518.450, 763.904 522.267 C 758.878 527.083, 753 536.573, 753 539.872 C 753 543.319, 756.562 542.454, 759.676 538.250 C 764.760 531.386, 771.231 524, 772.161 524 C 772.666 524, 774.844 522.200, 777 520 C 779.156 517.800, 781.614 516, 782.460 516 C 783.307 516, 784 515.325, 784 514.500 C 784 513.021, 781.173 512.617, 778 513.642 M 732.249 528.250 C 726.532 536.786, 725.498 540.539, 725.528 552.639 C 725.558 564.381, 726.917 569.354, 729.939 568.775 C 731.082 568.556, 731.675 566.708, 732.154 561.873 C 732.514 558.242, 733.592 553.755, 734.550 551.903 C 735.878 549.334, 736.348 545.623, 736.527 536.268 C 736.656 529.520, 736.387 524, 735.929 524 C 735.471 524, 733.815 525.913, 732.249 528.250 M 911.139 525.147 C 906.722 526.419, 901.260 529.976, 897.331 534.141 C 893.635 538.060, 889 546.450, 889 549.222 C 889 551.742, 892.084 551.208, 893.475 548.447 C 894.581 546.252, 909.685 531.023, 910.815 530.964 C 912.500 530.876, 917.185 526.109, 916.568 525.111 C 915.784 523.841, 915.677 523.842, 911.139 525.147 M 216.210 530.345 C 208.532 536.010, 206.281 542.483, 209.935 548.395 C 216.641 559.245, 227.450 560.778, 235.378 552.004 C 241.838 544.853, 241.190 537.748, 233.505 531.451 C 228.135 527.050, 221.271 526.611, 216.210 530.345 M 261.909 530.230 C 259.554 531.635, 257.558 534.027, 256.112 537.179 C 253.196 543.536, 254.013 548.020, 259.077 553.448 C 262.736 557.371, 263.062 557.500, 269.275 557.500 C 276.362 557.500, 277.658 556.806, 282.167 550.600 C 285.586 545.894, 285.806 541.608, 282.914 536.059 C 278.861 528.284, 269.519 525.692, 261.909 530.230 M 305.494 532.113 C 300.878 536.368, 298.749 541.212, 299.731 545.226 C 300.037 546.477, 301.818 549.401, 303.689 551.723 C 309.295 558.684, 318.749 559.917, 324.643 554.455 C 326.100 553.105, 327.583 552, 327.939 552 C 328.294 552, 329.136 549.939, 329.810 547.421 C 331.521 541.025, 330.041 536.174, 324.988 531.608 C 321.417 528.382, 320.410 528, 315.475 528 C 310.400 528, 309.596 528.331, 305.494 532.113 M 848.823 537.651 C 845.083 538.304, 844.065 539.904, 842.939 546.901 C 841.928 553.179, 836.474 566, 834.815 566 C 834.302 566, 834.131 566.403, 834.435 566.895 C 834.740 567.388, 834.316 568.048, 833.494 568.364 C 832.672 568.679, 832 569.553, 832 570.306 C 832 571.851, 824.610 579.444, 821.309 581.290 C 820.120 581.956, 817.022 583.743, 814.425 585.263 C 805.053 590.746, 792.951 592.186, 779.548 589.415 C 771.882 587.829, 768.792 586.348, 760.436 580.250 C 757.987 578.462, 755.594 577, 755.119 577 C 754.644 577, 752.736 574.535, 750.878 571.522 C 749.020 568.509, 747.050 566.182, 746.500 566.351 C 744.444 566.982, 744.258 577.252, 746.198 582.987 C 747.219 586.004, 747.801 589.628, 747.491 591.040 C 747.032 593.129, 747.678 594.281, 750.964 597.230 C 753.216 599.252, 755 601.770, 755 602.927 C 755 604.067, 755.482 605, 756.072 605 C 756.661 605, 756.998 606.237, 756.822 607.750 C 756.535 610.204, 756.852 610.534, 759.768 610.815 C 762.649 611.092, 763.392 611.834, 766.033 617.065 C 769.145 623.229, 769.549 623.571, 771.941 622.058 C 773.887 620.826, 777.675 622.889, 781.800 627.427 C 785.492 631.488, 787 631.329, 787 626.877 C 787 622.406, 791.154 614.155, 796.252 608.500 C 801.548 602.625, 811.714 597.058, 819.307 595.873 C 822.781 595.331, 824.954 594.391, 825.872 593.032 C 826.896 591.515, 828.338 591, 831.563 591 C 833.938 591, 836.171 591.468, 836.525 592.041 C 836.879 592.613, 838.921 594.188, 841.064 595.541 C 845.489 598.334, 851.430 598.746, 854.441 596.468 C 856.677 594.777, 865.560 594.478, 866.538 596.062 C 867.563 597.721, 872.215 599.315, 875.300 599.065 C 876.841 598.941, 878.641 599.266, 879.300 599.789 C 879.960 600.312, 882.300 601.300, 884.500 601.986 C 895.508 605.415, 908.004 614.322, 910.306 620.379 C 910.749 621.546, 912.657 624.750, 914.545 627.500 C 916.858 630.869, 918.172 634.131, 918.574 637.500 C 919.501 645.274, 919.628 645.474, 922.475 643.608 C 925.408 641.686, 930.259 641.522, 933.035 643.250 C 934.811 644.356, 935.452 644.067, 938.585 640.750 C 942.010 637.123, 947.036 635.631, 948.399 637.836 C 949.566 639.725, 953.200 638.116, 956.958 634.045 C 960.874 629.804, 961.056 629.728, 965.953 630.308 L 970.951 630.900 972.846 626.616 C 974.524 622.821, 975.297 622.184, 979.620 621.026 C 984.980 619.591, 987 617.778, 987 614.404 C 987 612.764, 988.425 611.387, 992.500 609.087 C 997.120 606.479, 998 605.535, 998 603.180 C 998 600.403, 999.337 598.515, 1004.259 594.341 C 1005.743 593.083, 1007.462 589.923, 1008.380 586.765 C 1009.246 583.784, 1011.513 579.306, 1013.417 576.813 C 1015.991 573.441, 1016.589 571.989, 1015.748 571.148 C 1014.458 569.858, 1014.346 560.867, 1015.596 558.845 C 1016.917 556.707, 1016.629 553.598, 1014.996 552.366 C 1014.169 551.742, 1007.316 550.900, 999.767 550.496 L 986.041 549.761 985.021 552.446 C 984.459 553.922, 983.996 556.563, 983.990 558.315 C 983.961 567.799, 967.628 590.091, 956.629 595.657 C 954.908 596.528, 952.712 597.932, 951.750 598.776 C 950.788 599.619, 950 599.960, 950 599.533 C 950 599.105, 949.438 599.186, 948.750 599.713 C 948.063 600.241, 944.880 601.473, 941.677 602.452 C 936.916 603.908, 933.544 604.138, 923.177 603.718 C 905.103 602.985, 899.233 600.401, 886.481 587.565 C 879.329 580.366, 872.239 568.425, 873.369 565.481 C 873.668 564.702, 873.547 563.838, 873.099 563.561 C 871.704 562.699, 869.783 551.583, 870.150 546.497 C 870.480 541.920, 870.315 541.538, 867.204 539.705 C 863.897 537.756, 854.339 536.688, 848.823 537.651 M 1055.759 550.423 C 1048.364 553.062, 1044.089 557.295, 1039.970 566.055 C 1038.821 568.500, 1036.786 572.024, 1035.448 573.887 C 1033.359 576.794, 1033.100 578, 1033.618 582.405 C 1034.047 586.056, 1033.744 588.677, 1032.567 591.494 C 1031.354 594.397, 1031.089 596.867, 1031.575 600.752 C 1032.156 605.401, 1031.925 606.508, 1029.693 609.775 C 1027.265 613.331, 1026.619 615.133, 1026.882 617.627 C 1026.947 618.247, 1029.354 619.766, 1032.230 621.004 C 1042.293 625.333, 1057.848 621.941, 1067.988 613.207 C 1073.020 608.872, 1080 599.211, 1080 596.581 C 1080 595.711, 1080.477 595, 1081.059 595 C 1081.641 595, 1081.838 594.547, 1081.495 593.992 C 1081.153 593.438, 1081.544 592.313, 1082.364 591.493 C 1085.621 588.236, 1085.764 569.341, 1082.569 564.464 C 1081.680 563.109, 1081.217 562, 1081.539 562 C 1081.861 562, 1080.674 559.980, 1078.900 557.511 C 1073.441 549.909, 1064.700 547.232, 1055.759 550.423 M 183.596 592.845 C 183.057 593.717, 182.898 646.549, 182.962 802.612 L 183 892.725 186.087 896.612 C 187.784 898.751, 190.592 901.400, 192.327 902.500 C 195.457 904.486, 197.154 904.500, 428.161 904.449 C 656.720 904.400, 660.913 904.364, 664.909 902.449 C 667.146 901.377, 668.982 900.180, 668.989 899.789 C 668.995 899.398, 669.833 898.273, 670.851 897.289 C 674.286 893.969, 675 889.280, 675 870.028 L 675 851.355 670.461 849.087 C 663.213 845.468, 663 845.994, 663 867.495 L 663 885.745 658.435 889.953 L 653.870 894.161 429.250 893.837 L 204.629 893.514 200.851 890.777 C 193.211 885.243, 193.823 899.677, 194.418 739.107 C 194.712 659.870, 194.690 594.355, 194.369 593.520 C 193.732 591.860, 184.559 591.286, 183.596 592.845 M 664.275 592.809 C 663.335 593.406, 663.039 605.790, 663 646.043 C 662.972 674.895, 662.961 699.063, 662.975 699.750 C 662.989 700.458, 664.264 701, 665.917 701 C 667.521 701, 669.008 701.524, 669.222 702.165 C 669.435 702.806, 670.823 703.383, 672.305 703.448 L 675 703.566 675 648.818 C 675 595.714, 674.942 594.039, 673.066 593.035 C 670.796 591.821, 666.024 591.698, 664.275 592.809 M 822 621.500 C 820.947 622.769, 821.163 623, 823.409 623 C 824.869 623, 826.321 623.672, 826.636 624.494 C 826.952 625.316, 827.612 625.740, 828.105 625.435 C 828.597 625.131, 829 625.359, 829 625.941 C 829 626.523, 829.411 627, 829.913 627 C 830.415 627, 833.227 628.604, 836.163 630.564 L 841.500 634.128 853 633.761 C 862.845 633.446, 865.040 633.063, 868.250 631.098 C 870.313 629.835, 872 628.507, 872 628.145 C 872 627.784, 873.386 626.875, 875.081 626.125 C 877.141 625.212, 877.829 624.429, 877.158 623.758 C 876.486 623.086, 875.138 623.478, 873.085 624.940 C 869.211 627.698, 857.948 628.091, 855.413 625.556 C 852.132 622.274, 850.126 621.828, 844.406 623.108 C 841.383 623.785, 838.697 624.682, 838.437 625.101 C 838.178 625.521, 836.736 625.222, 835.233 624.438 C 833.730 623.654, 831.799 623.010, 830.941 623.006 C 830.084 623.003, 828.509 622.339, 827.441 621.532 C 824.946 619.645, 823.547 619.636, 822 621.500 M 808.251 625.250 C 806.013 629.886, 805 634.467, 805 639.959 C 805 645.170, 805.338 646.016, 809.250 650.606 C 811.587 653.349, 814.201 656.654, 815.059 657.951 C 816.198 659.675, 817.948 660.497, 821.559 661.005 C 824.276 661.387, 827.137 661.880, 827.916 662.100 C 828.856 662.366, 829.585 661.330, 830.087 659.019 C 830.516 657.038, 832.061 654.562, 833.671 653.274 C 836.527 650.989, 842 650.151, 842 652 C 842 652.563, 844.818 653, 848.453 653 C 853.825 653, 858.695 654.069, 860.959 655.745 C 861.211 655.931, 861.661 658.185, 861.959 660.754 C 862.462 665.094, 862.736 665.471, 865.843 666.104 C 867.681 666.479, 869.684 667.284, 870.293 667.893 C 872.044 669.644, 874.720 669.202, 879.097 666.439 C 881.329 665.030, 884.211 664.016, 885.501 664.185 C 888.163 664.533, 893 660.575, 893 658.048 C 893 657.166, 893.768 655.349, 894.706 654.010 C 897.525 649.985, 896.939 639.622, 893.561 633.750 C 891.286 629.795, 890.341 629, 887.915 629 C 885.240 629, 885 629.294, 885 632.566 C 885 637.384, 883.761 639.381, 878.539 642.973 C 871.871 647.561, 861.411 649.448, 850.241 648.078 C 845.434 647.488, 839.447 647.004, 836.938 647.003 C 833.229 647.001, 831.180 646.198, 825.970 642.707 C 822.446 640.346, 818.717 636.968, 817.684 635.199 C 815.834 632.030, 815.837 631.926, 817.903 627.961 C 819.056 625.749, 820 623.727, 820 623.469 C 820 623.211, 817.601 623, 814.669 623 C 810.129 623, 809.177 623.334, 808.251 625.250 M 248.223 650.557 C 242.959 654.243, 246.278 659.447, 261.128 670.792 C 264.774 673.577, 271.524 679.579, 276.128 684.130 C 280.733 688.681, 285.400 692.887, 286.500 693.476 C 287.600 694.064, 288.635 695.699, 288.800 697.107 C 289.043 699.174, 287.857 700.759, 282.647 705.334 C 279.097 708.450, 275.941 711, 275.632 711 C 275.324 711, 270.816 715.235, 265.614 720.412 C 260.413 725.588, 255.896 729.563, 255.578 729.245 C 255.260 728.927, 255 729.391, 255 730.277 C 255 731.162, 253.674 732.670, 252.054 733.627 C 250.434 734.584, 249.336 735.734, 249.613 736.183 C 249.891 736.633, 249.465 737, 248.666 737 C 245.119 737, 246.073 742.899, 249.957 744.977 C 252.675 746.432, 252.573 746.480, 257.902 741.250 C 260.564 738.638, 264.263 735.070, 266.121 733.322 C 267.980 731.574, 270.400 729.008, 271.500 727.618 C 272.600 726.229, 273.900 725.072, 274.388 725.046 C 276.755 724.923, 303 699.166, 303 696.966 C 303 696.065, 299.932 692.442, 296.182 688.914 C 278.343 672.131, 275.975 670, 275.167 670 C 274.690 670, 271.952 667.300, 269.081 664 C 266.211 660.700, 263.437 658, 262.916 658 C 262.396 658, 259.886 655.975, 257.340 653.500 C 252.232 648.535, 251.463 648.287, 248.223 650.557 M 944.500 707.460 C 942.300 708.807, 938.475 710.198, 936 710.550 C 928.793 711.576, 919.686 714.027, 917.250 715.597 C 916.013 716.394, 915 716.756, 915 716.401 C 915 716.046, 914.256 716.373, 913.346 717.128 C 912.149 718.121, 908.356 718.505, 899.596 718.519 C 892.071 718.530, 886.697 718.991, 885.375 719.737 C 880.551 722.460, 841.965 719.481, 837.500 716.041 C 836.950 715.617, 834.518 715.018, 832.096 714.710 C 829.675 714.401, 826.430 713.216, 824.887 712.075 C 821.748 709.754, 818 709.323, 818 711.284 C 818 712.935, 823.757 721.822, 827 725.176 C 835.252 733.712, 844.595 738.450, 856.593 740.185 C 861.217 740.854, 865 741.648, 864.999 741.950 C 864.999 742.628, 876.931 742.370, 879 741.648 C 879.825 741.360, 884.417 740.632, 889.204 740.031 C 899.405 738.750, 920 731.383, 920 729.016 C 920 728.457, 920.798 728, 921.773 728 C 922.748 728, 925.785 726.522, 928.523 724.715 C 934.384 720.847, 951.352 707.130, 951.833 705.871 C 952.484 704.170, 948.442 705.046, 944.500 707.460 M 315.066 743.872 C 312.140 745.815, 312.368 749.809, 315.473 750.990 C 316.908 751.535, 329.186 751.737, 344.723 751.469 C 368.405 751.062, 371.644 750.813, 372.750 749.313 C 374.496 746.945, 374.337 746.267, 371.624 744.489 C 368.279 742.298, 318.259 741.752, 315.066 743.872 M 958.500 771.572 C 956.155 773.564, 955.132 774.976, 956.028 774.985 C 956.868 774.993, 958.279 774.155, 959.164 773.121 C 960.049 772.088, 961.342 771.053, 962.036 770.821 C 962.731 770.590, 963.120 769.899, 962.900 769.287 C 962.673 768.656, 960.766 769.647, 958.500 771.572 M 951.304 777.956 C 949.547 779.028, 947.357 781.051, 946.439 782.452 C 945.521 783.854, 944.147 785, 943.385 785 C 942.623 785, 942 785.759, 942 786.687 C 942 788.046, 942.534 787.867, 944.750 785.765 C 946.263 784.331, 949.220 781.546, 951.321 779.578 C 955.711 775.468, 955.709 775.270, 951.304 777.956" stroke="none" fill="#171916" fill-rule="evenodd"/>
</svg>