<svg role="img" aria-labelledby="artwork-title" shape-rendering="geometricPrecision" xmlns="http://www.w3.org/2000/svg" width="1200" height="1200" viewBox="0 0 1200 1200" version="1.1">
	<title id="artwork-title">Mascot running a command</title>
	<path d="M 862.500 215 C 862.160 215.550, 860.404 216, 858.598 216 C 856.791 216, 852.880 216.833, 849.907 217.851 C 846.933 218.868, 842.874 220.002, 840.887 220.370 C 838.900 220.738, 836.468 221.930, 835.482 223.020 C 834.497 224.109, 832.912 225, 831.960 225 C 831.009 225, 829.493 226.125, 828.592 227.500 C 827.691 228.875, 826.365 230, 825.644 230 C 824.299 230, 818 237.203, 818 238.741 C 818 239.214, 817.486 240.114, 816.858 240.742 C 816.002 241.598, 814.148 240.554, 809.453 236.571 C 805.550 233.260, 801.836 231.004, 799.595 230.584 C 797.618 230.213, 796 229.480, 796 228.955 C 796 228.430, 795.362 228, 794.583 228 C 793.804 228, 792.979 227.438, 792.749 226.750 C 792.435 225.812, 787.858 225.500, 774.415 225.500 L 756.500 225.500 753.604 228.250 C 752.011 229.762, 749.721 231, 748.515 231 C 742.591 231, 727.962 245.627, 721.870 257.641 C 719.469 262.378, 717.018 266.440, 716.424 266.667 C 715.831 266.895, 714.030 266.566, 712.422 265.935 C 708.425 264.367, 693.553 264.799, 688.572 266.627 C 686.333 267.450, 682.925 268.590, 681 269.161 C 679.075 269.732, 676.825 270.776, 676 271.481 C 675.175 272.186, 673.456 273.082, 672.179 273.472 C 670.903 273.861, 667.322 276.598, 664.222 279.553 C 658.838 284.685, 657.122 287.143, 653.435 295 C 652.532 296.925, 650.636 300.958, 649.223 303.962 C 647.077 308.524, 646.640 310.943, 646.567 318.639 C 646.519 323.707, 646.225 328.109, 645.913 328.420 C 645.602 328.731, 642.955 329.440, 640.030 329.994 C 635.959 330.766, 633.429 332.099, 629.238 335.680 C 623.910 340.231, 615.006 351.340, 614.994 353.450 C 614.990 354.028, 614.313 355.793, 613.489 357.373 C 611.597 361.001, 609.372 369.863, 608.562 377 C 607.325 387.895, 611.395 399.658, 619.926 409.843 L 624.402 415.186 621.826 419.843 C 618.076 426.624, 616.653 433.964, 617.246 443.468 C 617.924 454.323, 620.128 458.932, 628.842 467.716 C 632.779 471.684, 636 475.287, 636 475.722 C 636 476.157, 635.563 478.035, 635.030 479.896 C 634.496 481.756, 634.343 485.987, 634.689 489.298 C 635.203 494.213, 636.142 496.527, 639.806 501.909 C 642.274 505.534, 644.258 509.257, 644.214 510.183 C 644.098 512.631, 641.340 516.480, 638.682 517.903 C 635.765 519.464, 630.624 530.333, 628.467 539.500 C 627.561 543.350, 626.589 547.175, 626.307 548 C 624.972 551.904, 626.212 567.127, 628.668 577 C 632.500 592.406, 635.565 597.945, 646.848 609.855 C 649.790 612.960, 652.602 616.258, 653.098 617.184 C 653.594 618.111, 654 622.664, 654 627.304 C 654 632.986, 654.653 637.783, 656 642 C 657.100 645.443, 658.002 648.764, 658.004 649.380 C 658.006 649.996, 658.990 652.075, 660.190 654 C 661.391 655.925, 662.262 658.478, 662.125 659.673 C 661.866 661.939, 665.540 668.544, 668.364 670.887 C 669.264 671.634, 670.002 672.752, 670.005 673.372 C 670.007 673.993, 671.357 675.938, 673.005 677.696 C 674.652 679.453, 676 681.214, 676 681.608 C 676 683.635, 682.317 691.752, 685.195 693.424 C 687.013 694.480, 691.875 698.850, 696 703.135 C 701.581 708.933, 705.344 711.836, 710.706 714.482 C 717.015 717.595, 721 720.940, 721 723.123 C 721 723.496, 718.638 724.354, 715.750 725.031 C 710.683 726.219, 700.696 731.475, 696.436 735.197 C 695.300 736.188, 694.117 737, 693.807 737 C 692.495 737, 682.016 743.865, 676.483 748.349 C 659.395 762.197, 627.313 796.382, 620.443 808.062 C 619.190 810.192, 616.565 813.831, 612.660 818.850 C 609.518 822.889, 609.464 827.645, 612.523 831.026 C 614.021 832.680, 613.819 833.215, 609.625 838.731 C 603.548 846.721, 602.316 847.678, 599.984 846.222 C 597.387 844.600, 586.702 843.012, 582.728 843.657 C 579.860 844.122, 579.246 843.836, 578.205 841.551 C 577.542 840.096, 577 837.154, 577 835.012 C 577 832.870, 576.521 830.822, 575.935 830.460 C 575.349 830.098, 574.965 828.609, 575.081 827.151 C 575.197 825.693, 574.804 823.305, 574.207 821.844 C 573.610 820.384, 572.616 815.434, 571.999 810.844 C 571.383 806.255, 570.030 798.225, 568.993 793 C 567.957 787.775, 566.604 778.560, 565.988 772.522 C 565.371 766.484, 564.451 761.043, 563.942 760.430 C 563.433 759.817, 563.303 759.031, 563.651 758.682 C 564 758.334, 563.763 757.420, 563.126 756.651 C 562.488 755.883, 561.300 748.931, 560.487 741.202 C 559.673 733.473, 558.613 726.103, 558.130 724.825 C 557.648 723.546, 556.733 719.125, 556.097 715 C 554.180 702.560, 551.853 690.621, 550.934 688.500 C 550.457 687.400, 549.604 683.125, 549.038 679 C 546.614 661.325, 543.231 644.913, 541.652 643.168 C 540.743 642.164, 540 640.853, 540 640.255 C 540 638.749, 527.975 628, 526.290 628 C 525.537 628, 523.156 627.100, 521 626 C 517.256 624.090, 515.106 624, 473.240 624 C 448.741 624, 428.981 623.604, 428.450 623.103 C 427.900 622.584, 359.641 622.070, 266.500 621.884 L 105.500 621.562 99.500 625.196 C 92.019 629.728, 87 633.826, 87 635.404 C 87 636.068, 85.875 638.136, 84.500 640 C 83.125 641.864, 82 644.400, 82 645.635 C 82 646.871, 81.550 648.160, 81 648.500 C 79.687 649.311, 79.687 663, 81 663 C 81.550 663, 82.005 665.138, 82.012 667.750 C 82.018 670.362, 82.933 676.100, 84.044 680.500 C 85.156 684.900, 86.498 692.453, 87.028 697.285 C 87.558 702.117, 88.893 709.515, 89.995 713.724 C 91.098 717.933, 92 723.515, 92 726.129 C 92 728.743, 92.450 731.160, 93 731.500 C 93.550 731.840, 94.005 733.779, 94.011 735.809 C 94.017 737.839, 94.706 741.750, 95.543 744.500 C 96.380 747.250, 97.514 754, 98.063 759.500 C 98.613 765, 99.899 772.875, 100.922 777 C 101.945 781.125, 103.088 788.542, 103.462 793.483 C 103.836 798.424, 104.576 802.989, 105.106 803.628 C 105.636 804.267, 105.959 805.174, 105.823 805.645 C 105.686 806.115, 106.099 807.443, 106.740 808.596 C 107.381 809.749, 108.383 814.699, 108.967 819.596 C 109.550 824.493, 110.901 832.550, 111.967 837.500 C 113.034 842.450, 114.576 850.732, 115.394 855.905 C 116.213 861.077, 117.322 865.581, 117.859 865.913 C 118.397 866.245, 119.335 871.013, 119.945 876.508 C 120.555 882.004, 121.942 890.249, 123.028 894.831 C 124.113 899.414, 125.273 906.389, 125.605 910.331 C 126.252 918.025, 128.628 928.832, 130.050 930.555 C 130.529 931.135, 131.202 935.410, 131.547 940.055 C 131.891 944.700, 132.838 950.919, 133.651 953.876 C 134.464 956.833, 135.581 963.302, 136.134 968.253 C 136.902 975.134, 137.747 978.172, 139.723 981.158 L 142.307 985.063 153.404 984.781 C 163.917 984.515, 164.516 984.386, 164.808 982.336 C 165.017 980.874, 164.458 979.963, 163.086 979.527 C 160.692 978.767, 153.842 971.065, 154.547 969.925 C 154.814 969.492, 154.575 968.856, 154.016 968.510 C 153.457 968.165, 153 965.917, 153 963.514 C 153 961.112, 152.100 954.581, 151 949 C 149.900 943.419, 149 937.732, 149 936.363 C 149 934.993, 147.875 928.443, 146.500 921.806 C 145.125 915.169, 144 908.024, 144 905.928 C 144 903.833, 143.570 901.852, 143.044 901.527 C 142.518 901.202, 142.342 900.272, 142.654 899.460 C 142.965 898.648, 142.501 896.469, 141.623 894.618 C 140.744 892.766, 139.323 886.218, 138.465 880.066 C 137.607 873.915, 136.498 867.810, 136 866.500 C 135.502 865.190, 134.392 859.084, 133.534 852.931 C 131.716 839.896, 131.085 836.958, 129.735 835.244 C 129.191 834.553, 128.132 828.109, 127.381 820.923 C 126.631 813.736, 125.376 805.302, 124.592 802.178 C 123.808 799.055, 122.874 793.125, 122.517 789 C 121.836 781.142, 119.503 771.342, 117.827 769.303 C 117.286 768.645, 116.945 767.070, 117.070 765.803 C 117.195 764.536, 117.042 762.825, 116.731 762 C 116.419 761.175, 115.889 757.457, 115.553 753.739 C 115.217 750.020, 114.494 745.800, 113.947 744.362 C 113.400 742.923, 112.097 735.840, 111.050 728.623 C 110.004 721.405, 108.697 714.320, 108.147 712.877 C 107.597 711.435, 106.856 706.935, 106.502 702.877 C 106.148 698.820, 105.493 694.600, 105.046 693.500 C 103.309 689.222, 100.957 675.956, 99.887 664.397 C 98.589 650.372, 99.582 646.657, 105.630 642.920 L 109.047 640.808 285.274 640.954 C 499.550 641.132, 513.113 641.298, 517.378 643.789 C 519.093 644.790, 521.002 646.625, 521.620 647.866 C 522.239 649.106, 523.717 651.240, 524.906 652.607 C 526.094 653.974, 526.981 655.634, 526.876 656.296 C 526.771 656.958, 526.957 658.175, 527.291 659 C 527.624 659.825, 528.640 665.900, 529.549 672.500 C 530.458 679.100, 531.808 687.200, 532.548 690.500 C 533.288 693.800, 534.633 701.895, 535.536 708.489 C 536.439 715.083, 537.464 720.933, 537.814 721.489 C 538.164 722.045, 538.316 723.314, 538.152 724.310 C 537.988 725.305, 538.287 726.655, 538.816 727.310 C 539.345 727.964, 540.089 731.425, 540.470 735 C 540.850 738.575, 542.434 748.475, 543.990 757 C 545.545 765.525, 547.592 778.125, 548.540 785 C 549.487 791.875, 550.611 797.950, 551.038 798.500 C 551.464 799.050, 552.112 801.750, 552.478 804.500 C 552.843 807.250, 554.209 815.125, 555.512 822 C 556.815 828.875, 558.155 837.425, 558.490 841 C 559.331 849.967, 562.060 864.248, 563.210 865.700 C 563.733 866.359, 564.029 868.160, 563.867 869.700 C 563.706 871.241, 563.837 872.951, 564.159 873.501 C 564.482 874.050, 565.045 876.750, 565.413 879.500 C 565.780 882.250, 566.953 889, 568.020 894.500 C 569.088 900, 571.115 913.050, 572.526 923.500 C 573.937 933.950, 575.487 943.400, 575.971 944.500 C 576.454 945.600, 577.125 948.868, 577.461 951.762 C 577.797 954.656, 578.302 957.622, 578.582 958.353 C 578.902 959.188, 577.306 960.599, 574.296 962.144 C 570.560 964.061, 569.429 965.214, 569.178 967.363 C 568.740 971.112, 570.341 972.719, 575.308 973.518 C 581.598 974.530, 583.825 976.339, 584.189 980.733 L 584.500 984.500 591.891 984.500 C 597.837 984.500, 599.497 984.159, 600.384 982.753 C 601.202 981.456, 601.160 980.485, 600.220 978.980 C 598.141 975.652, 600.354 972.647, 604.339 973.384 C 606.078 973.706, 649.575 974.246, 701 974.585 C 800.156 975.237, 799.544 975.205, 798.353 979.757 C 798.086 980.777, 798.713 982.335, 799.778 983.299 C 801.530 984.885, 805.598 984.999, 852.089 984.759 L 902.500 984.500 902.500 982.069 C 902.500 979.919, 901.748 979.439, 896 977.923 C 887.696 975.734, 875.941 971.245, 874 969.522 C 873.175 968.790, 867.641 966.292, 861.702 963.971 C 853.953 960.943, 849.765 958.657, 846.870 955.875 C 842.524 951.700, 840.304 951.193, 836.154 953.432 C 830.530 956.467, 822.351 959.773, 819 960.367 C 814.761 961.117, 804.968 959.629, 800.948 957.624 C 799.338 956.821, 796.553 955.846, 794.760 955.457 C 792.967 955.069, 790.306 953.907, 788.846 952.876 C 787.386 951.844, 785.735 951, 785.177 951 C 783.705 951, 776 943.880, 776 942.520 C 776 941.887, 774.129 940.317, 771.843 939.032 L 767.686 936.696 760.593 938.509 C 752.352 940.615, 747.801 943.466, 739.338 951.825 C 732.175 958.900, 728.033 960.314, 723.069 957.382 C 719.502 955.275, 718.593 953.130, 719.505 948.977 C 720.114 946.205, 724.318 940.221, 728.997 935.465 C 730.099 934.345, 731 932.887, 731 932.223 C 731 931.036, 734.094 929.167, 743 924.975 C 745.475 923.810, 748.335 922.102, 749.355 921.179 C 750.375 920.255, 751.500 919.550, 751.855 919.611 C 752.210 919.672, 753.725 919.295, 755.221 918.773 C 758.427 917.656, 759.930 912.337, 758.147 908.423 C 757.149 906.233, 756.441 906.001, 750.771 906.006 C 747.322 906.010, 743.375 906.630, 742 907.384 C 740.625 908.139, 737.355 909.928, 734.734 911.359 C 727.873 915.104, 719.968 921.232, 716.500 925.494 C 714.850 927.521, 712.349 930.602, 710.943 932.340 C 709.536 934.078, 706.269 938.755, 703.682 942.734 C 697.980 951.504, 695.077 952.843, 691.431 948.385 C 688.521 944.826, 688.414 942.085, 691 937.261 C 692.100 935.209, 693.013 932.848, 693.028 932.015 C 693.073 929.555, 702.651 917.875, 708.658 912.955 C 712.678 909.662, 720.621 904.410, 724.470 902.500 C 729.710 899.900, 731.895 895.685, 729.872 892.082 C 729.091 890.689, 727.255 888.878, 725.793 888.057 C 723.394 886.711, 722.762 886.742, 719.317 888.379 C 717.218 889.377, 712.425 892.287, 708.667 894.847 C 704.909 897.406, 700.859 900.042, 699.667 900.705 C 696.887 902.252, 681 919.142, 681 920.551 C 681 921.138, 679.449 924.193, 677.554 927.341 C 675.658 930.489, 674.115 933.162, 674.124 933.282 C 674.261 935.061, 671.586 938.997, 669.869 939.541 C 667.173 940.397, 664 937.098, 664 933.438 C 664 922.782, 670.324 910.050, 681 899.213 C 686.309 893.824, 702.037 881.001, 703.346 880.994 C 703.981 880.990, 705.850 880.264, 707.500 879.380 C 710.536 877.752, 722.615 873.318, 726.750 872.314 C 727.987 872.013, 729 871.337, 729 870.812 C 729 870.287, 730.013 869.956, 731.250 870.077 C 732.487 870.198, 734.175 870.031, 735 869.705 C 737.610 868.673, 750.672 867, 756.192 866.990 C 762.013 866.980, 780.610 868.911, 783 869.774 C 783.825 870.072, 785.028 870.233, 785.673 870.132 C 786.318 870.030, 788.555 870.907, 790.643 872.080 C 792.732 873.253, 797.364 874.627, 800.936 875.133 C 804.509 875.639, 808.418 876.699, 809.623 877.489 C 810.828 878.278, 813.994 879.466, 816.657 880.127 C 819.321 880.788, 822.850 882.331, 824.500 883.554 C 826.150 884.777, 829.759 886.251, 832.520 886.829 C 835.282 887.407, 838.882 888.580, 840.520 889.434 C 842.426 890.428, 846.203 890.996, 851 891.010 C 863.760 891.048, 880.936 892.822, 884.170 894.435 C 885.860 895.278, 887.607 895.743, 888.052 895.468 C 888.498 895.192, 889.118 895.381, 889.430 895.887 C 889.743 896.393, 894.837 897.104, 900.750 897.467 C 906.662 897.830, 916 898.986, 921.500 900.037 C 927 901.087, 935.100 902.214, 939.500 902.541 C 948.805 903.232, 955.367 904.396, 959.537 906.095 C 961.167 906.759, 963.513 907.202, 964.750 907.080 C 965.987 906.957, 967 907.275, 967 907.786 C 967 908.296, 970.524 908.956, 974.832 909.251 C 980.034 909.608, 984.097 910.519, 986.931 911.965 C 992.154 914.629, 998.371 914.044, 1000.149 910.721 C 1001.689 907.843, 1001.563 901.383, 999.927 899.413 C 998.813 898.070, 995.030 895.971, 993 895.568 C 992.725 895.514, 992.050 895.195, 991.500 894.860 C 990.950 894.524, 987.800 893.932, 984.500 893.544 C 976.284 892.578, 974 890.959, 974 886.099 C 974 883.979, 974.563 881.801, 975.250 881.259 C 979.358 878.019, 1027.883 879.543, 1035.844 883.161 C 1038.234 884.247, 1043.409 885.738, 1047.344 886.473 C 1055.817 888.056, 1068.762 892.881, 1072.566 895.873 C 1074.053 897.043, 1076.077 898, 1077.064 898 C 1078.050 898, 1080.554 899.600, 1082.628 901.556 L 1086.398 905.111 1084.289 909.306 C 1082.993 911.885, 1081.770 917.194, 1081.113 923.093 C 1080.525 928.369, 1079.372 933.982, 1078.550 935.566 C 1077.728 937.150, 1076.768 940.484, 1076.418 942.973 C 1075.834 947.114, 1074.166 951.278, 1067.388 965.514 C 1066.074 968.272, 1065 971.050, 1065 971.688 C 1065 972.325, 1063.952 974.119, 1062.670 975.673 C 1056.583 983.059, 1057.909 985, 1069.040 985 C 1077.314 985, 1077.910 984.859, 1078.579 982.750 C 1078.971 981.512, 1080.357 978.813, 1081.659 976.750 C 1082.960 974.688, 1083.799 973, 1083.522 973 C 1083.245 973, 1084.318 970.863, 1085.906 968.250 C 1087.494 965.638, 1089.117 961.512, 1089.512 959.083 C 1089.908 956.654, 1091.078 953.279, 1092.112 951.583 C 1093.146 949.887, 1093.994 947.514, 1093.996 946.309 C 1093.998 945.104, 1094.390 943.877, 1094.866 943.583 C 1095.342 943.289, 1095.515 941.912, 1095.249 940.524 C 1094.984 939.136, 1095.233 938, 1095.803 938 C 1097.184 938, 1099.689 929.878, 1100.485 922.820 C 1101.183 916.635, 1101.982 915.524, 1106.506 914.449 C 1110.033 913.611, 1113.863 910.403, 1115.072 907.275 C 1115.545 906.052, 1116.395 901.351, 1116.962 896.829 C 1117.529 892.307, 1118.445 888.155, 1118.997 887.603 C 1119.618 886.982, 1120 876.432, 1120 859.914 C 1120 838.188, 1119.722 832.696, 1118.506 830.364 C 1117.685 828.789, 1117.006 825.925, 1116.999 824 C 1116.976 818.343, 1115.038 807.993, 1113.563 805.659 C 1112.813 804.472, 1111.710 801.144, 1111.113 798.263 C 1110.516 795.383, 1109.121 792.121, 1108.013 791.013 C 1106.906 789.906, 1106 788.260, 1106 787.355 C 1106 786.450, 1104.425 782.435, 1102.500 778.433 C 1100.575 774.431, 1099 770.671, 1099 770.078 C 1099 769.485, 1098.574 769, 1098.053 769 C 1097.228 769, 1094.433 765.075, 1088.795 756 C 1084.063 748.382, 1066.014 731.672, 1056 725.637 C 1053.525 724.145, 1049.025 721.384, 1046 719.501 C 1042.975 717.618, 1038.925 715.578, 1037 714.969 C 1033.181 713.760, 1032.637 713.533, 1022.828 709.070 C 1019.159 707.400, 1013.984 705.540, 1011.328 704.936 C 1008.673 704.332, 1002.427 702.749, 997.449 701.419 C 992.471 700.089, 987.274 699, 985.899 699 C 984.525 699, 982.860 698.460, 982.200 697.800 C 981.540 697.140, 981 696.970, 981 697.422 C 981 697.875, 980.274 697.642, 979.387 696.906 C 978.499 696.169, 975.687 695.327, 973.137 695.033 C 969.334 694.596, 968.444 694.107, 968.189 692.318 C 967.981 690.852, 968.637 689.746, 970.189 688.948 C 973.011 687.498, 979 681.929, 979 680.756 C 979 680.288, 981.001 678.013, 983.447 675.702 C 985.893 673.391, 988.599 669.812, 989.461 667.749 C 990.322 665.687, 993.159 661.785, 995.764 659.078 C 1002.938 651.624, 1005.124 647.463, 1006.307 639 C 1007.652 629.386, 1008.353 628.834, 1018.192 629.628 C 1022.811 630, 1028.479 629.759, 1032.377 629.023 C 1049.983 625.701, 1075.650 600.100, 1078.359 583.159 C 1078.732 580.823, 1080.154 576.598, 1081.519 573.769 C 1083.643 569.365, 1084 567.212, 1084 558.799 C 1084 553.395, 1083.599 548.191, 1083.110 547.236 C 1082.620 546.281, 1081.238 542.125, 1080.039 538 C 1078.042 531.131, 1077.092 528.792, 1073.163 521.066 C 1072.428 519.620, 1070.516 517.685, 1068.913 516.765 C 1065.060 514.554, 1065.065 510.666, 1068.927 505.414 C 1072.992 499.887, 1077 488.740, 1077 482.964 C 1077 480.325, 1076.100 476.066, 1075 473.500 C 1072.253 467.091, 1072.447 463.436, 1075.750 459.419 C 1080.060 454.176, 1083.492 449.631, 1083.586 449.040 C 1083.634 448.743, 1083.948 447.825, 1084.284 447 C 1088.174 437.451, 1088.978 426.443, 1086.366 418.500 C 1085.461 415.750, 1084.616 413.050, 1084.488 412.500 C 1083.907 410.012, 1083.497 409.207, 1080.411 404.500 C 1076.736 398.895, 1072.087 394, 1070.439 394 C 1069.069 394, 1065 389.736, 1065 388.300 C 1065 387.711, 1065.672 385.940, 1066.494 384.364 C 1067.315 382.789, 1067.992 380.825, 1067.998 380 C 1068.003 379.175, 1068.986 376.925, 1070.181 375 C 1073.319 369.946, 1073.369 356.076, 1070.268 351 C 1069.092 349.075, 1067.577 345.283, 1066.902 342.574 C 1065.505 336.970, 1063.264 333.045, 1057.412 325.953 C 1053.635 321.376, 1042 312.023, 1042 313.564 C 1042 313.934, 1040.467 313.068, 1038.593 311.639 C 1035.878 309.568, 1033.358 308.834, 1026.176 308.020 C 1021.220 307.459, 1016.566 307.220, 1015.833 307.489 C 1012.976 308.539, 1011.701 306.241, 1011.394 299.490 C 1011.226 295.803, 1010.462 291.821, 1009.696 290.643 C 1008.930 289.464, 1007.717 286.700, 1007.001 284.500 C 1004.296 276.185, 999.665 268.998, 993.110 262.935 C 983.915 254.432, 983.827 254.366, 980.750 253.624 C 979.237 253.260, 978 252.520, 978 251.981 C 978 251.441, 977.325 251, 976.500 251 C 975.675 251, 975 250.595, 975 250.100 C 975 247.267, 955.451 245.776, 939.554 247.397 C 932.626 248.104, 931.265 248.576, 928.918 251.087 L 926.228 253.967 923.701 251.980 C 922.312 250.887, 920.213 248.005, 919.037 245.577 C 917.862 243.149, 916.247 240.620, 915.450 239.958 C 914.652 239.297, 914 238.149, 914 237.409 C 914 236.669, 911.498 234.215, 908.439 231.955 C 905.381 229.696, 902.633 227.207, 902.332 226.424 C 902.032 225.641, 900.995 225, 900.028 225 C 899.061 225, 897.099 224.079, 895.667 222.953 C 894.236 221.827, 890.609 220.506, 887.608 220.018 C 884.607 219.529, 880.789 218.425, 879.125 217.565 C 877.461 216.704, 874.754 216, 873.109 216 C 871.464 216, 869.840 215.550, 869.500 215 C 869.160 214.450, 867.585 214, 866 214 C 864.415 214, 862.840 214.450, 862.500 215 M 855 236.859 C 850.875 237.761, 846.150 239.273, 844.500 240.218 C 842.850 241.163, 839.700 242.823, 837.500 243.907 C 832.828 246.210, 827.928 251.103, 825.526 255.866 C 824.593 257.717, 822.967 259.457, 821.914 259.733 C 820.504 260.101, 820 261.125, 820 263.617 C 820 265.477, 820.393 267, 820.873 267 C 821.353 267, 823.607 264.863, 825.883 262.250 C 832.046 255.175, 832.457 254.760, 836.641 251.407 C 838.763 249.707, 842.300 247.726, 844.500 247.006 C 846.700 246.286, 849.605 244.977, 850.956 244.098 C 852.861 242.858, 856.112 242.500, 865.456 242.500 C 876.010 242.500, 877.933 242.765, 881 244.642 C 882.925 245.820, 885.850 247.069, 887.500 247.417 C 889.150 247.765, 892.476 249.614, 894.891 251.525 C 897.306 253.436, 899.668 255, 900.141 255 C 900.613 255, 901 255.605, 901 256.345 C 901 257.695, 904.073 261, 905.329 261 C 906.933 261, 905.789 256.876, 903.500 254.405 C 902.125 252.922, 901 251.198, 901 250.574 C 901 249.950, 897.274 246.925, 892.719 243.850 C 880.134 235.354, 870.248 233.522, 855 236.859 M 758.806 245.938 C 757.451 247.004, 755.253 248.150, 753.921 248.485 C 751.543 249.083, 744.201 255.595, 740.743 260.174 C 736.556 265.718, 736.062 266.617, 736.032 268.750 C 735.977 272.641, 739.393 271.502, 741.396 266.962 C 742.524 264.407, 745.439 261.116, 749.339 257.996 C 752.728 255.285, 757.040 251.815, 758.922 250.284 C 762.238 247.586, 762.770 247.489, 776.172 247.154 C 789.189 246.829, 792.919 246.015, 787.750 244.630 C 786.513 244.299, 780.048 244.021, 773.385 244.014 C 762.900 244.002, 760.938 244.261, 758.806 245.938 M 796.190 251.618 C 797.080 252.508, 798.309 252.927, 798.920 252.549 C 800.548 251.543, 799.220 250, 796.727 250 C 794.741 250, 794.699 250.127, 796.190 251.618 M 940.597 266.105 C 937.351 266.579, 933.912 267.675, 932.955 268.541 C 931.998 269.407, 929.929 270.459, 928.357 270.880 C 926.786 271.300, 925.346 272.446, 925.157 273.426 C 924.857 274.983, 925.322 275.121, 928.848 274.526 C 931.068 274.151, 934.580 272.979, 936.653 271.922 C 942.676 268.851, 952.931 269.290, 963.182 273.057 C 967.757 274.738, 972.400 276.986, 973.500 278.053 C 974.600 279.120, 977.525 281.813, 980 284.038 C 982.475 286.262, 984.500 288.491, 984.500 288.991 C 984.500 290.464, 986.745 292.276, 987.779 291.637 C 989.310 290.690, 987.942 286.073, 985.655 284.471 C 984.500 283.662, 983.880 283, 984.277 283 C 984.675 283, 984.324 282.212, 983.498 281.250 C 982.672 280.288, 980.370 277.587, 978.382 275.250 C 976.394 272.913, 974.032 270.998, 973.134 270.996 C 972.235 270.994, 970.019 270.090, 968.210 268.986 C 965.074 267.074, 954.329 264.924, 949 265.142 C 947.625 265.198, 943.844 265.631, 940.597 266.105 M 919.074 278.411 C 918.237 279.419, 918.215 280.015, 918.995 280.497 C 920.322 281.317, 923.199 279.130, 922.430 277.887 C 921.637 276.604, 920.415 276.795, 919.074 278.411 M 692.473 284.365 C 691.388 285.116, 689.375 286.067, 688 286.478 C 686.625 286.889, 682.479 289.501, 678.786 292.282 C 673.166 296.514, 671.495 298.504, 668.536 304.494 C 665.035 311.579, 664.462 314.390, 665.630 318.750 C 666.553 322.193, 667.811 321.445, 668.996 316.750 C 670.067 312.503, 670.823 310.702, 673.505 306 C 675.918 301.771, 684.310 293.835, 688 292.293 C 689.925 291.489, 692.190 289.952, 693.034 288.877 C 694.206 287.382, 696.752 286.647, 703.857 285.750 C 714.477 284.409, 713.612 283.179, 701.973 283.070 C 697.137 283.025, 693.740 283.488, 692.473 284.365 M 1023 327.893 C 1023 328.976, 1025.469 330, 1028.082 330 C 1030.726 330, 1030.497 328.366, 1027.750 327.630 C 1024.557 326.775, 1023 326.861, 1023 327.893 M 1032.515 331.976 C 1031.618 333.427, 1033.784 336, 1035.903 336 C 1036.827 336, 1038.063 337.328, 1038.694 339 C 1040.117 342.769, 1043 343.042, 1043 339.406 C 1043 337.668, 1042.351 336.643, 1041.033 336.298 C 1039.951 336.016, 1038.796 334.933, 1038.466 333.892 C 1038.135 332.851, 1037.482 332, 1037.014 332 C 1036.546 332, 1035.497 331.744, 1034.683 331.432 C 1033.869 331.119, 1032.893 331.364, 1032.515 331.976 M 638.004 352.593 C 635.303 355.119, 632.573 358.763, 631.937 360.690 C 631.301 362.617, 630.158 365.387, 629.397 366.847 C 627.829 369.851, 627.529 375, 628.921 375 C 629.427 375, 630.125 373.706, 630.472 372.125 C 631.234 368.657, 642.260 353.866, 645.029 352.597 C 646.113 352.101, 647 350.863, 647 349.847 C 647 346.602, 643.154 347.776, 638.004 352.593 M 813 358.763 C 811.625 359.726, 808.700 362.249, 806.500 364.371 C 804.300 366.493, 800.983 368.881, 799.128 369.679 C 797.274 370.476, 793.995 372.241, 791.841 373.600 C 789.688 374.960, 787.523 375.824, 787.032 375.520 C 786.540 375.216, 785.856 375.425, 785.510 375.984 C 784.588 377.475, 762.710 377.310, 761.200 375.800 C 760.540 375.140, 760 374.906, 760 375.280 C 760 375.654, 758.001 374.844, 755.558 373.480 C 753.114 372.116, 750.581 371, 749.929 371 C 749.276 371, 746.999 369.425, 744.868 367.500 C 742.738 365.575, 740.368 364, 739.603 364 C 738.838 364, 735.698 367.282, 732.625 371.294 C 723.079 383.757, 708.538 392.217, 697.570 391.689 L 693.640 391.500 692.461 397.500 C 690.457 407.700, 684.856 416.935, 678.453 420.599 C 676.723 421.589, 676.511 423.062, 676.318 435.433 C 676.201 442.988, 675.678 449.693, 675.157 450.334 C 672.358 453.778, 669.279 505, 671.871 505 C 673.240 505, 681.334 499.881, 681.855 498.685 C 682.601 496.973, 687.908 495.744, 699 494.716 C 722.471 492.540, 744.167 493.876, 749.818 497.844 C 751.293 498.880, 754.525 500.632, 757 501.739 C 762.734 504.301, 767.151 508.424, 769.584 513.485 L 771.500 517.469 793.849 517.485 C 814.658 517.499, 816.266 517.371, 817.197 515.632 C 819.692 510.969, 827.075 502.307, 829.654 501.016 C 831.219 500.232, 833.400 498.819, 834.500 497.875 C 837.773 495.066, 846.909 492.087, 855.988 490.868 C 869.222 489.091, 902.004 490.303, 909.019 492.829 C 912.034 493.914, 915.668 495.063, 917.097 495.381 C 920.883 496.227, 930.781 502.419, 935.863 507.122 L 940.268 511.198 955.384 510.510 C 963.698 510.132, 973.899 509.718, 978.053 509.592 C 982.208 509.465, 986.145 509.028, 986.803 508.622 C 988.806 507.384, 988.144 504.140, 985.540 502.434 C 984.187 501.548, 981.712 498.014, 980.040 494.582 C 977.256 488.867, 977 487.478, 977 478.072 C 977 470.550, 977.447 466.861, 978.670 464.283 C 980.780 459.837, 979.978 458.480, 973.189 455.008 C 968.035 452.372, 964.450 448.737, 958.323 439.939 C 954.182 433.992, 952.391 422.573, 954.010 412.440 C 955.401 403.733, 954.840 403.161, 947.043 405.328 C 939.324 407.474, 935.938 407.433, 926.041 405.069 C 920.289 403.695, 916.447 402.050, 912.728 399.368 C 906.621 394.965, 900.300 388.521, 899.445 385.826 C 899.115 384.786, 897.755 382.846, 896.422 381.513 C 894.539 379.630, 893.997 378.024, 893.985 374.295 C 893.964 367.877, 892.890 366.214, 889.822 367.856 C 888.545 368.539, 886.150 369.809, 884.500 370.678 C 882.850 371.548, 880.451 373.213, 879.169 374.379 C 877.888 375.546, 876.538 376.445, 876.169 376.377 C 875.801 376.310, 875.050 376.378, 874.500 376.529 C 859.457 380.650, 854.797 380.901, 844.338 378.155 C 834.474 375.565, 823.623 367.942, 818.852 360.250 C 816.517 356.484, 816.325 356.436, 813 358.763 M 860.003 455.664 C 848.758 458.097, 840 465.876, 840 473.431 C 840 477.172, 840.503 478.235, 843.535 480.896 C 846.635 483.618, 847.796 484, 852.973 484 C 856.219 484, 861.941 483.279, 865.688 482.397 C 873.867 480.472, 884.080 481.014, 891.753 483.779 C 894.642 484.821, 897.241 485.908, 897.529 486.195 C 898.209 486.876, 907.938 485.103, 910.217 483.884 C 913.212 482.281, 915.253 477.171, 914.512 473.129 C 913.823 469.367, 908.636 463, 906.260 463 C 905.519 463, 903.729 461.902, 902.282 460.561 C 900.387 458.804, 897.674 457.818, 892.576 457.033 C 888.684 456.435, 883.873 455.507, 881.884 454.972 C 877.020 453.665, 867.913 453.953, 860.003 455.664 M 714.500 459.928 C 707.092 462.481, 705.651 463.050, 704 464.075 C 703.175 464.586, 701.375 465.480, 700 466.062 C 695.621 467.914, 690 474.140, 690 477.138 C 690 481.597, 691.641 484.615, 695.295 486.873 C 699.682 489.584, 704.859 489.575, 710.805 486.844 C 713.387 485.658, 717.661 484.473, 720.303 484.211 C 725.563 483.690, 739.758 485.714, 741.750 487.269 C 742.575 487.913, 743.457 487.866, 744.342 487.131 C 745.080 486.519, 745.932 486.266, 746.236 486.569 C 746.540 486.873, 748.636 485.364, 750.894 483.216 C 754.502 479.784, 754.997 478.775, 754.978 474.905 C 754.953 470.058, 753.501 467.746, 748 463.801 C 740.047 458.097, 724.896 456.346, 714.500 459.928 M 231.500 463.954 C 230.400 464.409, 228.446 465.917, 227.157 467.304 C 225.118 469.499, 224.870 470.586, 225.248 475.664 C 225.760 482.536, 228.115 492, 229.313 492 C 229.775 492, 230.056 493.462, 229.938 495.250 C 229.820 497.038, 229.952 499.175, 230.231 500 C 230.511 500.825, 231.247 503.975, 231.867 507 C 234.560 520.142, 236.856 527.064, 239.156 528.980 C 241.791 531.176, 245.729 531.536, 249.301 529.909 C 253.208 528.129, 256.679 518.156, 253.973 516.484 C 253.409 516.135, 253.030 515.321, 253.131 514.675 C 253.233 514.029, 253.054 512.825, 252.734 512 C 251.499 508.815, 250.111 503.312, 249.457 499 C 249.081 496.525, 247.699 490.235, 246.387 485.023 C 245.074 479.811, 244 474.555, 244 473.344 C 244 472.134, 243.293 470.436, 242.429 469.571 C 241.564 468.707, 241.227 467.998, 241.679 467.995 C 242.130 467.992, 240.700 466.881, 238.500 465.526 C 234.024 462.769, 234.245 462.819, 231.500 463.954 M 154.583 510.062 C 146.518 517.143, 147.367 518.569, 174.236 543.094 C 179.301 547.717, 184.592 552.725, 185.994 554.222 C 189.792 558.280, 194.118 559.507, 197.838 557.584 C 201.084 555.905, 205 551.077, 205 548.753 C 205 546.881, 194.515 535.918, 185.013 527.854 C 180.895 524.359, 174.145 518.238, 170.013 514.250 C 161.493 506.029, 159.723 505.549, 154.583 510.062 M 850.777 513.824 C 847.364 515.177, 837 525.134, 837 527.059 C 837 528.127, 836.502 529, 835.893 529 C 835.284 529, 835.045 529.675, 835.362 530.500 C 835.678 531.325, 835.501 532, 834.969 532 C 834.436 532, 834 532.660, 834 533.466 C 834 534.272, 833.240 536.527, 832.310 538.476 C 831.069 541.078, 830.916 542.316, 831.733 543.133 C 833.044 544.444, 838.723 538.516, 840.755 533.714 C 841.445 532.083, 845.607 527.150, 850.005 522.753 C 854.402 518.355, 858 514.362, 858 513.879 C 858 512.859, 853.299 512.824, 850.777 513.824 M 694.396 516.299 C 684.702 523.173, 677.838 532.537, 676.657 540.500 C 675.685 547.053, 678.917 549.453, 680.456 543.320 C 680.828 541.836, 682.003 539.400, 683.066 537.907 C 684.130 536.413, 685 534.770, 685 534.255 C 685 533.740, 686.688 531.527, 688.750 529.338 C 690.813 527.148, 694.075 523.495, 696 521.219 C 697.925 518.943, 700.063 517.063, 700.750 517.041 C 701.438 517.018, 702 516.325, 702 515.500 C 702 513.305, 698.030 513.722, 694.396 516.299 M 1032.461 523.548 C 1026.985 526.435, 1022.933 529.996, 1016.663 537.435 C 1012.751 542.077, 1012.470 542.833, 1011.929 550.195 C 1011.429 556.998, 1010.986 558.405, 1008.541 560.957 C 1006.094 563.511, 1005.793 564.470, 1006.227 568.318 C 1006.501 570.752, 1007.462 574.220, 1008.363 576.025 C 1010.091 579.490, 1010.596 587.514, 1009.142 588.412 C 1007.892 589.185, 1005.743 603.613, 1006.515 606.046 C 1007.192 608.180, 1011.436 610.502, 1013.894 610.084 C 1014.660 609.953, 1015.630 610.402, 1016.050 611.081 C 1017.125 612.820, 1028.274 612.848, 1030.360 611.116 C 1031.262 610.367, 1032 610.039, 1032 610.385 C 1032 610.732, 1034.695 609.176, 1037.990 606.927 C 1044.468 602.505, 1054 593.305, 1054 591.474 C 1054 590.852, 1055.302 588.353, 1056.894 585.921 C 1058.486 583.490, 1060.114 579.475, 1060.513 577 C 1060.911 574.525, 1061.934 571.150, 1062.785 569.500 C 1063.890 567.361, 1064.341 563.486, 1064.357 556 C 1064.376 547.117, 1064.042 544.852, 1062.190 541.290 C 1060.985 538.974, 1060 536.498, 1060 535.786 C 1060 533.318, 1049.390 523.241, 1046.124 522.607 C 1044.406 522.273, 1041.745 521.760, 1040.211 521.467 C 1038.332 521.108, 1035.803 521.787, 1032.461 523.548 M 974.904 529.429 C 974.668 529.665, 968.631 530.382, 961.488 531.022 C 946.447 532.370, 945 533.214, 945 540.636 C 945 543.064, 944.145 547.484, 943.099 550.458 C 942.054 553.433, 940.871 557.809, 940.471 560.183 C 940.072 562.557, 938.902 565.573, 937.872 566.885 C 936.842 568.197, 936 569.706, 936 570.238 C 936 573.828, 919.351 591.067, 911.970 595.118 C 910.349 596.008, 908.347 597.297, 907.522 597.981 C 906.697 598.666, 902.305 600.323, 897.761 601.663 C 878.690 607.289, 855.744 605.294, 843.355 596.932 C 840.135 594.759, 835.856 591.882, 833.847 590.539 C 831.838 589.196, 828.724 586.051, 826.928 583.549 C 825.131 581.047, 823.331 579, 822.928 579 C 822.525 579, 821.692 577.763, 821.076 576.250 C 820.459 574.737, 819.340 572.375, 818.587 571 C 815.164 564.744, 812.963 558.539, 812.366 553.460 C 812.010 550.426, 811.331 547.705, 810.859 547.413 C 810.387 547.121, 810 545.816, 810 544.514 C 810 543.146, 808.887 541.269, 807.365 540.073 C 805.057 538.257, 803.347 538, 793.556 538 C 779.600 538, 778.983 538.376, 777.774 547.604 C 777.277 551.397, 776.530 557.101, 776.115 560.280 C 775.575 564.415, 774.773 566.471, 773.296 567.505 C 772.161 568.300, 770.937 570.524, 770.576 572.446 C 770.215 574.368, 768.813 577.257, 767.460 578.865 C 766.107 580.473, 765 582.189, 765 582.679 C 765 584.216, 754.743 593.564, 749 597.260 C 740.196 602.926, 735.036 604.305, 720.883 604.775 C 710.191 605.130, 707.062 604.865, 700.383 603.038 C 692.906 600.993, 685.119 596.669, 679.210 591.282 C 676.860 589.140, 673.218 587.449, 672.501 588.166 C 671.907 588.759, 671.682 593.178, 671.846 601 C 671.995 608.081, 672.253 608.879, 676.463 615.284 C 678.915 619.014, 681.199 623.544, 681.538 625.348 C 682.459 630.259, 683.471 631.323, 687.524 631.642 C 692.487 632.033, 693.837 633.385, 694.196 638.328 L 694.500 642.500 700.787 643.001 C 707.530 643.537, 708.958 644.605, 708.985 649.128 C 709.007 652.987, 711.409 654.654, 714.534 652.982 C 716.576 651.889, 717.424 651.889, 719.466 652.982 C 722.641 654.681, 725.208 652.841, 724.911 649.080 C 724.799 647.661, 725.279 645.150, 725.977 643.500 C 726.675 641.850, 727.828 638.640, 728.540 636.368 C 730.733 629.362, 740.652 617.879, 746.688 615.357 C 748.474 614.611, 752.088 613.999, 754.718 613.999 C 758.669 613.998, 760.502 613.302, 765.261 609.999 C 772.321 605.097, 775.584 604.918, 783.609 608.987 C 791.085 612.778, 793.138 612.748, 798.855 608.760 C 802.830 605.987, 804.366 605.518, 809.500 605.510 C 814.269 605.502, 816.149 605.987, 818.661 607.872 C 821.581 610.063, 822.659 610.231, 832.788 610.070 C 844.521 609.883, 844.356 609.835, 855.185 616.581 C 860.615 619.963, 874.998 634.684, 875.005 636.867 C 875.008 637.765, 876.119 640.300, 877.474 642.500 C 879.388 645.608, 879.945 647.894, 879.969 652.750 C 880.004 659.819, 881.641 660.997, 885.179 656.500 C 887.313 653.787, 892.444 653.097, 896.066 655.035 C 898.490 656.333, 900.528 655.298, 908.324 648.810 C 912.882 645.017, 914.862 643.990, 917.333 644.136 C 923.528 644.502, 926.839 643.007, 931.413 637.778 C 934.830 633.872, 936.715 632.569, 939.638 632.094 C 943.009 631.546, 943.527 631.067, 944.304 627.785 C 945.019 624.759, 945.972 623.708, 949.586 621.959 C 954.784 619.442, 961 612.590, 961 609.375 C 961 607.981, 962.736 605.483, 965.515 602.878 C 970.854 597.874, 973 593.964, 973 589.241 C 973 586.039, 974.806 582.896, 979.505 577.916 C 980.327 577.045, 981 575.017, 981 573.410 C 981 568.901, 982.723 563.924, 985.194 561.293 C 987.321 559.030, 987.426 558.177, 987.244 544.703 C 987.139 536.892, 987.041 530.163, 987.026 529.750 C 986.999 528.972, 975.662 528.672, 974.904 529.429 M 650.225 532.250 C 649.664 532.938, 648.034 536.909, 646.603 541.075 C 643.583 549.863, 642.991 563.650, 645.387 569.384 C 646.150 571.210, 647.101 574.683, 647.500 577.102 C 649.114 586.878, 654.272 590.349, 654.765 581.991 C 654.911 579.521, 655.730 574.800, 656.586 571.500 C 657.840 566.664, 657.922 564.627, 657.007 561 C 654.310 550.304, 653.911 547.135, 654.481 540.941 C 654.812 537.333, 654.792 533.620, 654.435 532.691 C 653.670 530.698, 651.663 530.488, 650.225 532.250 M 791.973 642.750 C 790.500 643.792, 786.870 644.702, 783 645 C 777.401 645.431, 776.500 645.769, 776.500 647.444 C 776.500 651.385, 782.150 653.276, 795.363 653.758 C 806.448 654.161, 808.189 653.972, 815.446 651.578 C 823.662 648.866, 827 646.745, 827 644.236 C 827 643.115, 826.139 642.919, 823.250 643.381 C 810.998 645.341, 806.094 645.287, 801.087 643.133 C 795.102 640.558, 795.071 640.557, 791.973 642.750 M 756.887 644.295 C 755.450 644.958, 752.862 647.134, 751.137 649.132 C 747.229 653.657, 747.057 657.803, 750.496 664.581 C 751.869 667.286, 752.994 670.558, 752.996 671.850 C 753.001 674.837, 758.755 680.664, 762.591 681.567 C 764.191 681.944, 767.805 683.545, 770.622 685.126 C 773.439 686.707, 776.444 688, 777.300 688 C 779.670 688, 782 685.161, 782 682.273 C 782 680.852, 783.125 678.214, 784.500 676.411 C 785.875 674.608, 787 672.669, 787 672.102 C 787 670.697, 783.639 669.003, 780.816 668.985 C 774.030 668.943, 762.584 661.964, 759.492 655.984 C 757.820 652.751, 758.360 650.413, 761.118 648.937 C 763.579 647.620, 763.683 642.982, 761.250 643.045 C 760.288 643.070, 758.324 643.632, 756.887 644.295 M 841.667 644.667 C 841.300 645.033, 840.993 647.396, 840.984 649.917 C 840.968 654.304, 840.701 654.724, 834.734 659.735 C 827.449 665.853, 816.305 669.994, 807.089 670.009 C 796.531 670.025, 791 671.085, 791 673.092 C 791 675.641, 796.351 676.902, 804.421 676.254 C 812.298 675.622, 815 677.238, 815 682.584 C 815 688.204, 816.815 689.056, 827.307 688.359 C 835.454 687.817, 836.841 687.439, 839.500 685.031 C 841.150 683.537, 844.188 681.306, 846.252 680.074 C 850.871 677.317, 851.282 675.763, 850.810 662.812 C 850.468 653.401, 850.182 652.129, 847.540 648.250 C 844.780 644.199, 843.137 643.196, 841.667 644.667 M 125.340 662.634 C 119.676 665.782, 118.673 669.612, 120.033 682.906 C 120.629 688.733, 121.940 696.875, 122.947 701 C 123.955 705.125, 125.069 712.100, 125.424 716.500 C 126.038 724.103, 127.887 731.916, 130.197 736.669 C 130.777 737.861, 131.044 740.244, 130.792 741.963 C 130.540 743.682, 130.708 745.320, 131.167 745.603 C 131.625 745.886, 132 748.958, 132 752.429 C 132 755.900, 132.837 761.386, 133.861 764.620 C 134.884 767.854, 136.038 774.913, 136.425 780.307 C 136.812 785.701, 137.779 791.957, 138.574 794.209 C 139.368 796.460, 140.277 800.822, 140.593 803.901 C 140.909 806.981, 141.415 810.175, 141.717 811 C 142.020 811.825, 142.171 814.210, 142.054 816.301 C 141.936 818.391, 142.255 820.641, 142.763 821.301 C 144.510 823.568, 146.881 834.515, 147.898 845.005 C 148.458 850.782, 149.595 857.434, 150.424 859.785 C 151.254 862.137, 152.238 868.111, 152.612 873.062 C 152.986 878.012, 153.683 882.304, 154.162 882.600 C 154.641 882.896, 154.762 883.577, 154.430 884.113 C 154.099 884.649, 154.268 885.630, 154.806 886.294 C 155.882 887.621, 157.533 895.464, 158.534 904 C 158.889 907.025, 160.223 915.125, 161.499 922 C 162.774 928.875, 164.088 937.769, 164.417 941.764 C 165.100 950.040, 168.878 958.151, 172.912 959.999 C 175.974 961.402, 186.650 961.588, 345.500 962.992 C 417 963.625, 491.475 964.472, 511 964.874 C 530.525 965.277, 548.287 965.287, 550.471 964.897 C 558.446 963.473, 560.989 956.118, 557.548 944.432 C 556.749 941.719, 555.624 934.550, 555.046 928.500 C 554.001 917.547, 552.402 909.435, 550.901 907.465 C 550.467 906.896, 549.615 901.496, 549.008 895.465 C 548.401 889.434, 547.237 881.600, 546.421 878.055 C 545.605 874.510, 544.490 867.085, 543.943 861.555 C 543.027 852.298, 540.626 838.595, 539.290 835 C 538.983 834.175, 538.824 831.856, 538.936 829.848 C 539.047 827.839, 538.706 825.364, 538.178 824.348 C 536.955 821.996, 532.985 801.474, 532.984 797.500 C 532.984 795.850, 531.863 789.110, 530.492 782.522 C 529.121 775.935, 528 768.649, 528 766.331 C 528 764.014, 527.592 761.866, 527.094 761.558 C 526.596 761.250, 526.431 760.069, 526.728 758.933 C 527.025 757.798, 526.788 755.886, 526.201 754.684 C 524.858 751.932, 522.348 736.995, 521.466 726.500 C 521.096 722.100, 520.172 716.659, 519.411 714.408 C 518.650 712.157, 517.329 704.982, 516.474 698.462 C 515.620 691.943, 514.538 686.134, 514.070 685.554 C 513.602 684.974, 512.499 680.900, 511.618 676.500 C 510.212 669.476, 509.568 668.103, 506.342 665.250 C 504.038 663.213, 501.610 662, 499.833 662 C 498.275 662, 497 661.534, 497 660.965 C 497 660.273, 496.318 660.295, 494.941 661.031 C 493.809 661.637, 491.672 661.872, 490.191 661.552 C 488.711 661.232, 406.878 660.865, 308.340 660.735 L 129.180 660.500 125.340 662.634 M 928.362 721.500 C 928.045 722.325, 927.229 723, 926.548 723 C 925.867 723, 924.495 723.900, 923.500 725 C 922.505 726.100, 921.197 727.010, 920.595 727.022 C 919.993 727.034, 918.375 727.924, 917 729 C 915.278 730.347, 912.917 730.962, 909.414 730.978 C 905.200 730.996, 903.571 731.577, 899.914 734.366 C 894.870 738.212, 890.219 740, 885.258 740 C 880.892 740, 866.980 744.889, 866.299 746.663 C 865.926 747.636, 863.434 748, 857.136 748 C 852.379 748, 846.915 748.492, 844.993 749.093 C 840.336 750.551, 796.870 750.306, 791.500 748.791 C 789.300 748.171, 787.072 747.289, 786.550 746.831 C 784.681 745.196, 783.852 746.048, 784.489 748.951 C 785.012 751.332, 793 761.019, 793 759.272 C 793 759, 793.788 759.659, 794.750 760.734 C 796.513 762.704, 811.815 769.995, 814.211 770.006 C 814.920 770.010, 816.850 770.797, 818.500 771.756 C 821.026 773.224, 824.053 773.493, 837.647 773.458 C 848.992 773.428, 854.239 773.046, 855.292 772.173 C 856.115 771.489, 857.174 771.017, 857.645 771.124 C 858.115 771.230, 859.175 771.077, 860 770.782 C 860.825 770.488, 865.966 768.831, 871.425 767.099 C 886.321 762.374, 898.289 755.296, 912.415 742.859 C 925.088 731.700, 932 724.183, 932 721.560 C 932 719.566, 929.122 719.519, 928.362 721.500 M 210.374 755.467 C 209.755 757.082, 214.355 764, 216.049 764 C 216.570 764, 218.909 765.827, 221.248 768.059 C 223.587 770.291, 228.156 774.229, 231.402 776.809 C 248.762 790.608, 249.297 792.049, 240.496 801.282 C 237.468 804.458, 233.808 808.844, 232.363 811.028 C 230.917 813.213, 229.156 815, 228.450 815 C 226.632 815, 218.980 826.783, 219.655 828.543 C 220.681 831.216, 222.443 830.044, 230.500 821.329 C 234.900 816.570, 240.050 811.062, 241.943 809.088 C 247.849 802.934, 256.001 792.798, 255.988 791.623 C 255.973 790.172, 247.909 782.318, 241.500 777.512 C 238.750 775.450, 234.831 772.016, 232.790 769.882 C 230.750 767.747, 228.669 766, 228.168 766 C 227.666 766, 224.385 763.706, 220.877 760.902 C 212.506 754.209, 211.130 753.497, 210.374 755.467 M 974.454 809.260 C 973.595 811.497, 974.299 815.544, 975.500 815.281 C 976.050 815.161, 976.648 813.868, 976.828 812.409 C 977.219 809.247, 975.390 806.820, 974.454 809.260 M 276.189 830.828 C 273.573 831.198, 272.218 833.618, 273.761 835.161 C 274.534 835.934, 311.851 836.611, 322.250 836.041 C 323.553 835.970, 323.060 831, 321.750 830.994 C 321.063 830.991, 311.050 830.879, 299.500 830.744 C 287.950 830.610, 277.460 830.647, 276.189 830.828 M 969.272 835 C 969.272 837.475, 969.467 838.487, 969.706 837.250 C 969.944 836.013, 969.944 833.987, 969.706 832.750 C 969.467 831.513, 969.272 832.525, 969.272 835 M 629.474 843.250 C 624.473 849.022, 623.367 851.533, 624.975 853.470 C 625.674 854.312, 626.977 855.007, 627.872 855.016 C 630.461 855.043, 639.308 860.724, 647.789 867.805 C 652.989 872.147, 658 880.012, 658 883.832 C 658 884.876, 657.067 886.916, 655.927 888.365 C 652.807 892.333, 649.468 891.791, 642.826 886.241 C 632.834 877.891, 629.150 875, 628.501 875 C 628.152 875, 626.434 873.912, 624.683 872.583 C 622.932 871.254, 619.250 869.727, 616.500 869.189 C 613.750 868.652, 609.250 867.304, 606.500 866.194 C 603.750 865.084, 598.575 863.732, 595 863.188 C 591.425 862.645, 587.771 861.905, 586.879 861.543 C 585.934 861.159, 584.547 861.595, 583.555 862.588 C 581.600 864.543, 581.889 868.478, 585.088 883.453 C 586.139 888.377, 587 894.340, 587 896.703 C 587 899.066, 587.450 901, 588 901 C 588.550 901, 589 901.675, 589 902.500 C 589 904.710, 590.021 904.362, 594.891 900.490 C 597.595 898.341, 600.380 897, 602.141 897 C 603.713 897, 605 896.460, 605 895.800 C 605 894.867, 605.267 894.867, 606.200 895.800 C 606.860 896.460, 608.226 897, 609.235 897 C 612.914 897, 621.173 902.705, 623.548 906.888 L 625.870 910.976 622.858 913.988 C 619.291 917.555, 619.477 917.537, 612.350 915.032 C 603.564 911.944, 600.210 915.181, 603.870 923.215 C 606.475 928.932, 612.493 932.862, 621.500 934.728 C 625.350 935.525, 630.300 936.616, 632.500 937.150 C 640.820 939.174, 641.655 939.202, 643.339 937.518 C 644.357 936.500, 645 934.240, 645 931.675 C 645 923.489, 651.029 908.014, 657.704 899.066 C 659.166 897.105, 665.457 890.475, 671.682 884.334 C 679.362 876.758, 682.813 872.676, 682.415 871.639 C 682.092 870.799, 679.505 868.331, 676.664 866.156 C 673.824 863.981, 669.591 860.469, 667.258 858.351 C 664.925 856.233, 660.727 853.150, 657.931 851.500 C 655.134 849.850, 651.418 847.520, 649.673 846.323 C 645.652 843.564, 636.169 839, 634.457 839 C 633.741 839, 631.499 840.913, 629.474 843.250 M 963.411 856.498 C 962.663 859.477, 963.580 862.378, 964.993 861.504 C 966.290 860.703, 966.313 854, 965.019 854 C 964.480 854, 963.756 855.124, 963.411 856.498 M 600.010 953.488 C 599.010 954.693, 599.081 955.094, 600.387 955.595 C 601.274 955.936, 602.726 955.936, 603.613 955.595 C 604.919 955.094, 604.990 954.693, 603.990 953.488 C 603.311 952.670, 602.415 952, 602 952 C 601.585 952, 600.689 952.670, 600.010 953.488" stroke="none" fill="#171916" fill-rule="evenodd"/>
</svg>