<svg role="img" aria-labelledby="artwork-title" shape-rendering="geometricPrecision" xmlns="http://www.w3.org/2000/svg" width="1200" height="1200" viewBox="0 0 1200 1200" version="1.1">
	<title id="artwork-title">Mascot debugging with a magnifying glass</title>
	<path d="M 861.450 183.814 C 860.093 184.975, 850.329 187.703, 844.820 188.459 C 842.247 188.812, 839.061 189.951, 837.741 190.989 C 836.422 192.027, 834.099 193.188, 832.580 193.569 C 829.555 194.329, 823.314 199.267, 815.382 207.178 C 810.563 211.984, 808 212.795, 808 209.512 C 808 207.595, 799.861 202.309, 794.820 200.951 C 792.508 200.329, 788.340 198.680, 785.558 197.288 C 781.221 195.117, 779.146 194.754, 771 194.740 C 762.689 194.726, 760.937 195.039, 757 197.242 C 754.525 198.627, 750.475 200.086, 748 200.485 C 745.525 200.885, 742.600 202.037, 741.499 203.045 C 740.399 204.054, 738.499 205.250, 737.276 205.702 C 734.420 206.759, 721.145 218.148, 721.063 219.612 C 721.028 220.224, 719.650 222.424, 718 224.500 C 716.350 226.576, 715 229.088, 715 230.082 C 715 231.075, 713.913 233.151, 712.585 234.694 L 710.170 237.500 695.835 237.500 C 682.916 237.500, 681.105 237.718, 677.500 239.711 C 675.300 240.927, 671.671 242.385, 669.435 242.950 C 667.199 243.515, 664.308 245.108, 663.011 246.489 C 661.713 247.870, 660.135 249, 659.505 249 C 655.859 249, 637.417 271.319, 635.542 278 C 635.157 279.375, 634.089 282.075, 633.170 284 C 631.954 286.548, 631.490 290.304, 631.463 297.810 C 631.422 309.051, 630.986 309.956, 625.604 309.985 C 619.975 310.014, 605.902 321.831, 598.193 333 C 594.964 337.677, 590.035 351.588, 590.013 356.083 C 590.006 357.504, 589.711 358.956, 589.357 359.310 C 588.617 360.049, 588.553 367.768, 589.268 370 C 589.532 370.825, 590.959 375.403, 592.439 380.173 C 594.680 387.396, 596.122 390.028, 601.065 395.915 C 604.329 399.803, 607 403.877, 607 404.970 C 607 406.645, 604.349 413.241, 600.865 420.236 C 600.389 421.191, 600 425.958, 600 430.828 C 600 439.166, 600.237 440.161, 604.054 447.868 C 606.954 453.722, 609.802 457.666, 614.054 461.714 C 618.505 465.952, 620 468.068, 620 470.129 C 620 471.643, 619.550 473.160, 619 473.500 C 618.450 473.840, 618 477.466, 618 481.559 C 618 489.396, 617.447 490.256, 614.500 487 C 613.505 485.900, 612.050 485, 611.268 485 C 610.486 485, 608.485 483.639, 606.822 481.975 C 604.787 479.940, 601.622 478.359, 597.148 477.143 C 590.835 475.426, 578.781 475.324, 358 475.125 C 192.313 474.975, 124.494 475.229, 122 476.006 C 120.075 476.606, 116.181 477.495, 113.347 477.980 C 100.328 480.212, 83.973 497.866, 82.382 511.407 C 82.017 514.514, 81.331 517.295, 80.859 517.587 C 79.626 518.349, 79.746 622, 80.981 622 C 81.616 622, 82.056 682.029, 82.231 792.750 L 82.500 963.500 86.324 970.217 C 89.910 976.516, 99.849 987, 102.236 987 C 102.827 987, 104.833 988.161, 106.692 989.579 C 109.482 991.706, 111.687 992.302, 119.287 992.982 C 130.259 993.963, 541.207 994.328, 574.807 993.386 C 597.513 992.750, 598.209 992.669, 601.806 990.228 C 603.837 988.850, 606.848 987.271, 608.499 986.720 C 612.061 985.531, 618.887 978.902, 621.005 974.575 C 621.845 972.860, 623.439 971.367, 624.608 971.200 C 627.117 970.841, 635.400 975.066, 637.795 977.926 C 640.134 980.721, 652.069 985, 657.523 985 C 662.997 985, 666.627 987.909, 665.438 991.342 C 665.027 992.529, 664.502 996.875, 664.270 1001 C 664.039 1005.125, 663.434 1008.927, 662.925 1009.450 C 661.499 1010.915, 661.812 1012.421, 664.039 1014.811 L 666.078 1017 750.384 1017 C 832.506 1017, 834.735 1016.950, 836.443 1015.063 C 838.612 1012.666, 837.795 1011.230, 833.160 1009.293 C 829.492 1007.761, 827.219 1006.191, 819.704 1000 C 817.367 998.075, 813.198 995.052, 810.439 993.281 C 807.680 991.511, 804.414 988.698, 803.181 987.031 C 801.949 985.364, 800.357 984, 799.644 984 C 797.410 984, 780.149 965.126, 778.056 960.394 C 775.338 954.249, 771.962 952.965, 759.320 953.266 L 749.500 953.500 742.500 948.627 C 738.650 945.947, 734.663 943.022, 733.641 942.127 C 731.271 940.054, 726 929.678, 726 927.088 C 726 926.004, 725.592 924.866, 725.094 924.558 C 724.596 924.250, 724.423 923.098, 724.711 921.999 C 725.003 920.882, 724.741 920, 724.117 920 C 723.502 920, 723 919.170, 723 918.155 C 723 910.722, 703.921 909.013, 695.498 915.691 C 693.550 917.236, 689.892 921.567, 687.370 925.316 C 684.233 929.979, 682.319 931.953, 681.311 931.566 C 680.500 931.255, 679.489 931, 679.063 931 C 678.638 931, 676.231 928.999, 673.714 926.553 C 670.031 922.973, 669.003 921.202, 668.444 917.475 C 667.628 912.032, 668.433 904.958, 670.228 901.816 C 673.968 895.264, 689.412 884.610, 697.305 883.135 C 703.751 881.931, 710 877.697, 710 874.533 C 710 870.714, 708.200 867.694, 704.466 865.250 C 700.745 862.815, 698.480 862.414, 697.490 864.016 C 697.144 864.575, 696.423 864.762, 695.887 864.430 C 695.351 864.099, 694.370 864.277, 693.706 864.827 C 693.043 865.376, 688.900 867.252, 684.500 868.995 C 680.100 870.738, 675.790 872.802, 674.921 873.582 C 674.053 874.362, 672.814 875, 672.169 875 C 671.523 875, 669.369 876.800, 667.381 879 C 665.393 881.200, 663.370 883, 662.884 883 C 662.398 883, 661.107 883.893, 660.015 884.985 C 658.349 886.651, 657.630 886.788, 655.544 885.838 C 649.863 883.250, 649.405 869.634, 654.727 861.598 C 661.208 851.814, 673.910 843.870, 686.251 841.882 C 690.966 841.123, 692.795 840.226, 696.026 837.091 C 700.523 832.727, 700.652 832.149, 698.315 826.852 C 697.074 824.039, 695.718 822.732, 693.171 821.891 C 688.754 820.434, 680.508 821.279, 674.884 823.767 C 669.105 826.322, 666.650 827.309, 665.808 827.414 C 663.939 827.647, 652.043 836.326, 648.666 839.920 C 644.484 844.369, 641.646 845.075, 640.035 842.066 C 638.591 839.367, 638.759 824.957, 640.265 822.408 C 642.777 818.153, 647.527 812.075, 648.368 812.038 C 648.845 812.017, 650.774 810.650, 652.653 809 C 654.532 807.350, 656.652 806, 657.363 806 C 658.075 806, 660.690 804.654, 663.174 803.008 C 668.154 799.710, 683.993 796.217, 698 795.328 C 707.242 794.742, 728.788 798.728, 732.929 801.789 C 734.397 802.875, 737.826 804.962, 740.549 806.428 C 750.767 811.931, 757.459 817.158, 765.470 825.895 C 767.687 828.312, 771.142 832.032, 773.150 834.162 C 775.157 836.292, 777.069 838.589, 777.400 839.267 C 777.730 839.945, 779.585 842.525, 781.522 845 C 783.460 847.475, 785.823 850.794, 786.773 852.376 C 787.723 853.958, 789.519 856.505, 790.764 858.037 C 792.009 859.568, 793.664 862.324, 794.442 864.161 C 795.220 865.997, 796.789 868.283, 797.928 869.240 C 799.068 870.197, 800 871.895, 800 873.013 C 800 876, 807.564 883.745, 811.278 884.561 C 813.006 884.941, 816.463 886.170, 818.960 887.294 C 821.457 888.417, 823.725 889.411, 824 889.502 C 826.785 890.424, 830.787 892.388, 831.998 893.429 C 832.824 894.138, 835.669 895.246, 838.321 895.891 C 840.973 896.537, 844.910 898.181, 847.071 899.545 C 849.232 900.909, 851 901.739, 851 901.390 C 851 901.041, 851.563 901.208, 852.250 901.762 C 852.938 902.316, 855.068 903.105, 856.985 903.516 C 858.902 903.926, 861.481 904.924, 862.715 905.733 C 863.950 906.542, 866.881 907.612, 869.230 908.111 C 871.578 908.610, 876.200 910.300, 879.500 911.867 C 882.800 913.435, 888.020 915.906, 891.100 917.358 C 894.180 918.811, 897.555 920.007, 898.600 920.015 C 899.645 920.023, 901.625 920.678, 903 921.471 C 904.375 922.264, 907.975 924.077, 911 925.500 C 914.025 926.923, 917.625 928.685, 919 929.415 C 920.375 930.145, 923.300 931.270, 925.500 931.915 C 930.198 933.292, 938.354 937.171, 938.835 938.256 C 939.020 938.672, 939.625 938.732, 940.181 938.388 C 941.267 937.717, 944.484 939.162, 949.890 942.750 C 954.610 945.884, 962.257 945.898, 964.443 942.777 C 966.310 940.113, 966.499 933.488, 964.750 932.055 C 964.063 931.491, 961.980 929.786, 960.123 928.265 C 958.265 926.744, 953.315 923.684, 949.123 921.464 C 940.178 916.729, 939.421 914.967, 943.620 908.669 C 948.429 901.456, 950.108 900, 953.615 900 C 955.412 900, 957.179 900.481, 957.542 901.069 C 957.906 901.657, 960.397 902.021, 963.078 901.879 C 965.760 901.736, 968.264 901.930, 968.643 902.310 C 969.023 902.689, 970.817 903, 972.630 903 C 974.443 903, 978.173 903.886, 980.918 904.968 C 983.664 906.050, 988.743 907.596, 992.205 908.404 C 995.667 909.211, 1000.661 911.026, 1003.303 912.436 C 1005.945 913.846, 1008.696 915, 1009.418 915 C 1010.140 915, 1011.887 915.910, 1013.300 917.021 C 1014.713 918.133, 1017.587 919.651, 1019.685 920.395 C 1021.783 921.138, 1026.365 923.716, 1029.868 926.123 C 1033.370 928.531, 1037.420 931.277, 1038.868 932.227 C 1042.249 934.446, 1060 952.088, 1060 953.230 C 1060 953.706, 1061.227 955.233, 1062.727 956.623 C 1066.373 960.002, 1066.360 965.089, 1062.692 970.390 C 1061.211 972.529, 1060 974.918, 1060 975.698 C 1060 976.479, 1058.678 978.778, 1057.063 980.809 C 1055.447 982.839, 1053.813 985.850, 1053.432 987.500 C 1053.050 989.150, 1051.953 991.400, 1050.994 992.500 C 1048.834 994.977, 1046.505 999.252, 1046.781 1000.231 C 1046.895 1000.633, 1045.865 1001.697, 1044.494 1002.596 C 1043.122 1003.495, 1042 1004.775, 1042 1005.441 C 1042 1006.107, 1040.855 1007.727, 1039.455 1009.043 C 1037.762 1010.632, 1037.008 1012.283, 1037.205 1013.967 L 1037.500 1016.500 1052.885 1016.777 C 1071.609 1017.114, 1073.399 1016.465, 1072.371 1009.722 C 1072.017 1007.400, 1071.356 1005.025, 1070.902 1004.443 C 1070.432 1003.843, 1071.031 1001.448, 1072.288 998.895 C 1073.505 996.424, 1075.595 991.795, 1076.933 988.607 C 1079.523 982.437, 1081.494 981, 1087.362 981 C 1091.889 981, 1097.019 975.373, 1100.904 966.145 C 1102.607 962.100, 1104 958.208, 1104 957.497 C 1104 956.785, 1105.353 953.631, 1107.006 950.488 C 1108.660 947.345, 1110.299 942.911, 1110.648 940.636 C 1110.998 938.361, 1112.108 934.377, 1113.114 931.783 C 1114.121 929.189, 1115.427 922.889, 1116.016 917.783 C 1117.960 900.942, 1118.108 900.051, 1119.058 899.464 C 1120.657 898.476, 1120.256 854.843, 1118.615 851.404 C 1117.854 849.807, 1116.941 845.125, 1116.588 841 C 1115.846 832.345, 1110.344 815.070, 1106.548 809.476 C 1105.147 807.411, 1104 804.693, 1104 803.437 C 1104 802.181, 1102.942 799.881, 1101.649 798.327 C 1100.355 796.772, 1098.712 794.375, 1097.996 793 C 1093.683 784.712, 1072.407 761.391, 1062.956 754.592 C 1058.397 751.312, 1046.404 743.226, 1042 740.464 C 1040.075 739.256, 1034.675 736.546, 1030 734.441 C 1025.325 732.336, 1020.712 729.956, 1019.750 729.152 C 1018.788 728.348, 1018 728.040, 1018 728.467 C 1018 728.895, 1017.438 728.783, 1016.750 728.218 C 1015.143 726.897, 996.721 720.829, 987 718.418 C 982.875 717.396, 979.275 716.300, 979 715.985 C 978.725 715.669, 976.734 714.981, 974.576 714.455 C 969.337 713.180, 969.145 711.762, 973.925 709.653 C 978.321 707.714, 987.215 698.087, 989.443 692.857 C 990.273 690.908, 992.771 688.242, 995.398 686.500 C 997.888 684.850, 1000.476 682.150, 1001.151 680.500 C 1001.825 678.850, 1003.417 676.108, 1004.689 674.406 C 1005.960 672.704, 1007 670.628, 1007 669.793 C 1007 668.958, 1008.349 666.578, 1009.998 664.503 C 1011.646 662.428, 1013.434 659.104, 1013.970 657.115 C 1017.737 643.135, 1019.511 640, 1023.655 640 C 1024.945 640, 1026 640.450, 1026 641 C 1026 642.257, 1037.262 642.328, 1038.550 641.079 C 1039.073 640.573, 1043.182 638.974, 1047.683 637.526 C 1052.183 636.078, 1056.979 634.018, 1058.340 632.947 C 1059.702 631.876, 1061.050 631, 1061.337 631 C 1061.623 631, 1063.528 629.425, 1065.569 627.500 C 1067.610 625.575, 1069.827 624, 1070.496 624 C 1071.166 624, 1073.690 621.239, 1076.106 617.865 C 1078.523 614.490, 1081.498 610.505, 1082.718 609.009 C 1086.686 604.141, 1091.671 593.612, 1092.329 588.710 C 1092.683 586.075, 1093.525 582.925, 1094.201 581.710 C 1094.876 580.494, 1095.483 579.275, 1095.548 579 C 1095.614 578.725, 1096.228 577.150, 1096.914 575.500 C 1097.768 573.443, 1098.056 568.101, 1097.828 558.500 C 1097.554 546.978, 1097.173 544.024, 1095.674 541.813 C 1094.672 540.335, 1093.255 536.861, 1092.525 534.094 C 1090.937 528.075, 1086.711 520.844, 1082.250 516.513 C 1078.087 512.472, 1078.129 509.781, 1082.453 503.504 C 1085.088 499.677, 1086.180 496.720, 1087.066 491.012 C 1088.140 484.092, 1087.862 471.625, 1086.475 464.500 C 1085.996 462.040, 1086.636 460.516, 1090.032 456.035 C 1092.309 453.029, 1095.259 449.563, 1096.586 448.332 C 1097.914 447.102, 1099 445.367, 1099 444.476 C 1099 443.585, 1100.227 440.762, 1101.727 438.202 C 1104.359 433.712, 1104.455 433.038, 1104.455 419 C 1104.455 405.147, 1104.330 404.237, 1101.855 399.976 C 1100.425 397.514, 1098.951 394.513, 1098.578 393.306 C 1098.206 392.099, 1096.011 389.331, 1093.700 387.154 C 1091.390 384.977, 1087.289 381.112, 1084.586 378.565 L 1079.671 373.934 1082.781 370.717 C 1085.525 367.878, 1086.024 366.442, 1087.025 358.500 C 1088.183 349.315, 1087.637 333.534, 1085.932 326.909 C 1085.424 324.934, 1084.132 322.524, 1083.061 321.555 C 1081.990 320.586, 1080.832 318.513, 1080.489 316.948 C 1080.145 315.384, 1078.544 312.443, 1076.932 310.414 C 1075.319 308.385, 1074 306.128, 1074 305.398 C 1074 304.668, 1073.140 303.610, 1072.090 303.048 C 1071.039 302.486, 1068.677 300.631, 1066.840 298.927 C 1065.003 297.223, 1062.747 295.150, 1061.827 294.320 C 1060.907 293.490, 1057.082 291.266, 1053.327 289.377 C 1047.123 286.255, 1045.499 285.894, 1035.526 285.423 C 1023.077 284.835, 1021.070 283.884, 1021.798 278.920 C 1022.047 277.225, 1021.779 274.861, 1021.203 273.669 C 1020.627 272.476, 1019.888 268.879, 1019.560 265.675 C 1018.960 259.803, 1013.978 248.816, 1009.958 244.500 C 997.312 230.923, 991.205 226.015, 985.427 224.782 C 982.933 224.250, 980.380 222.953, 979.580 221.811 C 978.799 220.696, 977.674 220.084, 977.080 220.451 C 976.486 220.818, 976 220.686, 976 220.157 C 976 216.994, 944.200 217.795, 941.182 221.035 C 939.178 223.186, 934.805 225, 931.623 225 C 929.030 225, 925.948 221.264, 923.924 215.666 C 921.946 210.196, 906.994 195.378, 901.917 193.857 C 899.781 193.217, 897.280 191.862, 896.361 190.847 C 895.442 189.831, 893.994 189, 893.143 189 C 890.086 189, 874 184.666, 874 183.842 C 874 182.761, 862.709 182.735, 861.450 183.814 M 858.250 206.658 C 856.462 206.916, 855 207.582, 855 208.139 C 855 208.695, 853.763 209.051, 852.250 208.929 C 849.104 208.676, 846.371 209.808, 840 214.004 C 837.525 215.634, 834.825 217.279, 834 217.659 C 832.097 218.537, 828.933 221.866, 825.926 226.155 C 824.637 227.995, 822.822 230.055, 821.894 230.734 C 819.405 232.555, 817.657 238, 819.562 238 C 820.364 238, 821.803 237.014, 822.760 235.809 C 824.682 233.388, 830.352 227.967, 836.500 222.671 C 838.700 220.776, 842.413 218.654, 844.750 217.955 C 847.087 217.255, 849 216.359, 849 215.963 C 849 213.800, 855.668 212.781, 867.288 213.168 C 877.496 213.507, 880.166 213.930, 883.040 215.660 C 884.943 216.806, 887.703 218.026, 889.173 218.371 C 890.643 218.717, 893.118 220.059, 894.673 221.354 C 896.228 222.650, 898.766 224.365, 900.314 225.166 C 901.861 225.967, 903.673 227.716, 904.339 229.052 C 905.682 231.747, 909 232.954, 909 230.748 C 909 228.055, 899.798 217.470, 894.673 214.268 C 888.500 210.410, 884.810 208.606, 883.645 208.874 C 883.174 208.982, 882.187 208.570, 881.450 207.958 C 880.030 206.780, 863.733 205.866, 858.250 206.658 M 911 236.835 C 911 238.691, 912.207 241, 913.177 241 C 914.567 241, 913.736 236.734, 912.250 236.245 C 911.563 236.019, 911 236.284, 911 236.835 M 941.633 241.801 C 937.306 243.343, 932.593 245.649, 931.159 246.925 C 929.726 248.202, 927.529 249.918, 926.277 250.738 C 925.024 251.559, 924 253.127, 924 254.223 C 924 255.894, 924.445 256.108, 926.750 255.545 C 928.263 255.176, 931.075 253.807, 933 252.503 C 934.925 251.199, 939.875 249.336, 944 248.363 C 948.125 247.391, 951.650 246.236, 951.833 245.797 C 952.284 244.720, 958.361 244.780, 959.550 245.873 C 960.072 246.354, 964.323 247.499, 968.994 248.419 C 973.666 249.338, 978.563 250.858, 979.877 251.795 C 981.190 252.733, 983.154 254.016, 984.241 254.647 C 985.329 255.277, 987.494 257.190, 989.053 258.897 C 990.612 260.603, 992.354 262, 992.925 262 C 993.495 262, 994.240 263.107, 994.579 264.459 C 995.454 267.944, 997.870 269.818, 999.061 267.936 C 1000.384 265.844, 1000.310 265.620, 996.750 260.980 C 990.420 252.728, 982.553 245.768, 976 242.621 C 970.245 239.858, 968.354 239.471, 959.500 239.249 C 950.703 239.028, 948.554 239.335, 941.633 241.801 M 684 259.082 C 682.075 260.108, 678.200 261.648, 675.390 262.504 C 671.452 263.703, 668.813 265.546, 663.890 270.534 C 660.375 274.094, 657.323 277.568, 657.106 278.253 C 656.889 278.939, 655.402 282.296, 653.801 285.714 C 651.049 291.587, 650.928 292.394, 651.582 300.464 C 651.963 305.159, 652.582 309, 652.958 309 C 653.334 309, 654.166 305.629, 654.806 301.508 C 656.619 289.845, 661.607 281.874, 674.051 270.748 C 675.744 269.235, 679.238 267.484, 681.815 266.857 C 684.392 266.231, 687.296 265.029, 688.270 264.186 C 690.343 262.391, 702.594 262.194, 704.327 263.927 C 705.729 265.329, 709 265.311, 709 263.901 C 709 263.297, 707.602 261.497, 705.894 259.901 C 702.999 257.196, 702.271 257.007, 695.144 257.108 C 689.768 257.184, 686.461 257.770, 684 259.082 M 1009.106 305.598 C 1006.886 307.190, 1006.837 307.408, 1008.437 308.577 C 1010.114 309.804, 1019.510 309.598, 1023 308.258 C 1023.825 307.942, 1024.815 307.746, 1025.199 307.824 C 1025.584 307.902, 1029.184 308.463, 1033.199 309.071 C 1038.702 309.904, 1041.064 310.770, 1042.790 312.588 C 1044.050 313.915, 1045.659 315, 1046.366 315 C 1048.127 315, 1060.620 330.155, 1062.431 334.488 C 1064.347 339.075, 1066.005 338.964, 1065.982 334.250 C 1065.954 328.586, 1055.784 314.017, 1049.500 310.639 C 1047.850 309.752, 1045.231 308.008, 1043.679 306.763 C 1041.085 304.682, 1039.678 304.475, 1026.179 304.190 C 1013.576 303.925, 1011.161 304.124, 1009.106 305.598 M 629.500 329.375 C 627.850 330.113, 623.944 333.302, 620.820 336.462 C 616.545 340.787, 614.978 343.171, 614.482 346.104 C 614.120 348.247, 613.523 350, 613.156 350 C 612.161 350, 610 357.521, 610 360.984 C 610 362.643, 610.257 364, 610.571 364 C 611.600 364, 614 361.170, 614 359.958 C 614 359.306, 614.871 357.136, 615.935 355.136 C 617 353.136, 618.582 349.925, 619.452 348 C 621.350 343.800, 629.385 335.278, 634.067 332.500 C 635.920 331.400, 637.353 330.050, 637.250 329.500 C 636.960 327.954, 632.827 327.887, 629.500 329.375 M 813.005 340.062 C 805.868 346.923, 802.117 349.279, 787.500 356.086 C 781.196 359.022, 779.551 359.353, 770.948 359.417 C 763.777 359.471, 760.785 359.089, 758.948 357.887 C 757.601 357.006, 754.025 355.561, 751 354.676 C 747.723 353.717, 743.504 351.410, 740.562 348.968 C 732.250 342.068, 731.645 342.119, 729.450 349.894 C 728.489 353.297, 720.884 362.778, 715.269 367.574 C 708.102 373.695, 699.952 377.072, 690.750 377.731 C 686.487 378.036, 682.973 378.334, 682.939 378.393 C 682.906 378.452, 682.295 382.847, 681.581 388.159 C 680.405 396.905, 679.933 398.245, 676.584 402.333 C 674.549 404.816, 670.522 408.631, 667.635 410.811 L 662.385 414.774 662.793 423.266 C 663.058 428.785, 662.816 431.996, 662.101 432.438 C 661.451 432.839, 661 436.330, 661 440.950 C 661 446.617, 660.453 449.987, 659.022 453.141 C 657.239 457.070, 657.042 459.748, 657.022 480.281 C 657.003 500.010, 657.209 503.143, 658.560 503.661 C 659.479 504.014, 661.223 503.231, 662.810 501.752 C 666.369 498.435, 668.450 497.461, 674.890 496.100 C 677.854 495.474, 681.679 494.325, 683.390 493.548 C 690.680 490.237, 731.111 490.009, 734.762 493.259 C 735.718 494.109, 738.927 495.519, 741.892 496.391 C 744.858 497.263, 749.148 499.069, 751.427 500.404 C 756.737 503.516, 764.688 512.009, 766.620 516.634 C 767.997 519.928, 768.380 520.174, 771.245 519.601 C 772.963 519.257, 775.232 518.194, 776.286 517.238 C 777.842 515.828, 780.548 515.437, 790.624 515.168 C 802.474 514.851, 803.247 514.955, 807.450 517.418 C 813.753 521.112, 815.539 520.824, 817.803 515.750 C 820.394 509.942, 831.936 498.492, 836.726 496.978 C 838.801 496.322, 842.075 494.746, 844 493.477 C 846.908 491.558, 850.145 490.900, 863.141 489.584 C 881.333 487.742, 887.443 487.633, 896.731 488.986 C 900.454 489.529, 907.455 490.375, 912.289 490.866 C 918.254 491.473, 921.696 492.320, 923.003 493.503 C 924.063 494.462, 927.386 495.817, 930.389 496.515 C 936.302 497.890, 941.879 501.777, 946.898 508.022 C 950.799 512.877, 952.801 513.486, 958.493 511.554 C 961.894 510.399, 967.261 510, 979.380 510 C 993.911 510, 995.871 509.801, 997.345 508.171 C 999.584 505.698, 999.464 505.078, 996.069 501.548 C 994.457 499.871, 991.944 496.109, 990.485 493.187 C 988.004 488.219, 987.853 487.143, 988.166 476.658 C 988.459 466.835, 988.779 465.089, 990.750 462.587 C 993.264 459.395, 993.701 454.827, 991.655 453.128 C 990.915 452.514, 988.896 451.729, 987.170 451.384 C 985.155 450.981, 982.580 449.097, 979.984 446.128 C 977.760 443.583, 974.651 440.099, 973.076 438.386 C 971.502 436.673, 969.255 433.298, 968.084 430.886 C 966.913 428.474, 965.297 425.375, 964.492 424 C 962.404 420.430, 962.409 396.658, 964.500 391.654 C 965.325 389.680, 966 387.817, 966 387.514 C 966 387.212, 961.163 387.245, 955.250 387.587 C 946.164 388.114, 943.373 387.893, 937.216 386.159 C 925.030 382.728, 913.191 373.688, 906.232 362.500 C 903.751 358.512, 902.980 355.932, 902.423 349.750 C 902.039 345.488, 901.306 342, 900.795 342 C 900.285 342, 898.403 343.116, 896.614 344.481 C 894.825 345.845, 890.243 348.395, 886.431 350.148 C 880.194 353.016, 878.320 353.381, 867.720 353.792 C 858.245 354.159, 855.016 353.913, 851.220 352.532 C 840.831 348.752, 835.960 345.861, 829.389 339.575 C 825.609 335.959, 822.030 333, 821.435 333 C 820.840 333, 817.047 336.178, 813.005 340.062 M 875 451.303 C 874.725 451.572, 870 452.550, 864.500 453.477 C 859 454.403, 854.350 455.575, 854.167 456.081 C 853.983 456.586, 853.330 457, 852.715 457 C 852.100 457, 849.663 459.048, 847.299 461.551 C 841.596 467.587, 841.464 471.210, 846.750 476.538 C 850.294 480.110, 850.839 480.315, 856.655 480.277 C 860.040 480.254, 863.190 480.009, 863.655 479.731 C 866.323 478.140, 876.712 476.828, 884.037 477.158 C 890.795 477.461, 893.709 478.118, 898.500 480.418 C 906.269 484.148, 911.558 484.706, 915.500 482.211 C 918.375 480.391, 923 473.196, 923 470.542 C 923 469.105, 913.603 460, 912.120 460 C 911.588 460, 909.810 458.869, 908.167 457.487 C 905.743 455.448, 903.141 454.694, 894.341 453.485 C 888.378 452.666, 881.700 451.730, 879.500 451.405 C 877.300 451.080, 875.275 451.034, 875 451.303 M 708 457.049 C 706.075 458.057, 702.208 459.375, 699.408 459.979 C 689.632 462.086, 680 469.936, 680 475.797 C 680 479.213, 682.973 483.746, 686.050 485.021 C 690.399 486.822, 704.249 484.561, 711.236 480.908 C 713.499 479.725, 720.718 479.735, 721.452 480.922 C 722.174 482.091, 734.152 483.411, 736.634 482.595 C 739.121 481.777, 744.389 477.038, 745.838 474.316 C 746.477 473.114, 747 470.993, 747 469.601 C 747 466.668, 741.893 460.411, 738.688 459.417 C 737.485 459.043, 735.306 457.897, 733.846 456.869 C 730.103 454.234, 713.151 454.352, 708 457.049 M 118.037 497.174 C 109.860 499.520, 102.554 508.878, 100.900 519.125 C 99.462 528.031, 100.205 560.337, 101.894 562.372 C 103.057 563.774, 123.286 563.932, 302.765 563.946 L 502.344 563.961 506.150 559.838 C 508.243 557.571, 510.217 554.992, 510.536 554.108 C 511.652 551.013, 534.442 533, 537.241 533 C 537.774 533, 539.535 531.886, 541.153 530.525 C 542.771 529.163, 546.266 527.405, 548.919 526.617 C 551.573 525.829, 555.125 524.470, 556.813 523.597 C 558.501 522.724, 563.090 521.555, 567.009 520.999 C 570.929 520.443, 576.243 519.016, 578.818 517.828 C 582.762 516.008, 585.268 515.676, 594.725 515.717 C 606.802 515.769, 608.777 515.023, 607.469 510.902 C 606.356 507.397, 598.856 499.861, 594.500 497.871 C 590.661 496.117, 581.057 496.047, 356 496.112 C 203.854 496.156, 120.284 496.529, 118.037 497.174 M 854.820 515.032 C 848.686 518.272, 839.224 527.684, 838.472 531.293 C 838.105 533.057, 836.723 536.380, 835.402 538.678 C 833.137 542.618, 832.111 549.018, 833.750 548.985 C 835.153 548.956, 836.688 547.506, 838.096 544.881 C 838.868 543.441, 840.572 540.291, 841.883 537.881 C 843.193 535.471, 847.903 529.900, 852.350 525.500 C 856.796 521.100, 860.449 517.200, 860.467 516.833 C 860.485 516.467, 860.837 515.829, 861.250 515.417 C 864.104 512.562, 859.965 512.315, 854.820 515.032 M 679.233 521.007 C 672.855 525.755, 670.603 528.109, 669.025 531.677 C 666.575 537.215, 666.521 538.358, 668.631 540.108 C 670.039 541.277, 670.482 541.139, 671.881 539.099 C 672.771 537.800, 674.737 535.571, 676.250 534.146 C 677.763 532.721, 679 531.092, 679 530.527 C 679.001 529.275, 687.790 521.638, 690.320 520.690 C 692.820 519.754, 692.166 515.595, 689.458 515.208 C 688.206 515.028, 684.250 517.272, 679.233 521.007 M 1040.228 524.574 C 1033.899 527.727, 1027.306 535.333, 1025.394 541.685 C 1024.622 544.252, 1023.155 547.767, 1022.136 549.495 C 1021.116 551.223, 1019.973 554.692, 1019.597 557.203 C 1019.215 559.752, 1018.048 562.552, 1016.956 563.540 C 1014.321 565.925, 1014.493 568.277, 1017.655 573.055 L 1020.310 577.067 1019.660 592.284 C 1019.302 600.653, 1018.622 608.850, 1018.149 610.500 C 1016.912 614.810, 1019.077 618.534, 1023.733 620.105 C 1028.829 621.826, 1036.642 621.565, 1041.500 619.512 C 1049.088 616.306, 1062.569 604.479, 1065.869 598.133 C 1066.622 596.685, 1068.263 594.375, 1069.516 593 C 1070.769 591.625, 1072.113 588.475, 1072.503 586 C 1072.893 583.525, 1074.176 579.925, 1075.356 578 C 1077.290 574.843, 1077.499 573.077, 1077.493 560 C 1077.487 545.566, 1077.471 545.469, 1074.133 538.738 C 1069.847 530.096, 1063.729 524.536, 1056.889 523.070 C 1049.320 521.446, 1045.881 521.757, 1040.228 524.574 M 988.450 529.940 C 987.928 530.456, 981.875 531.603, 975 532.487 C 960.671 534.331, 955.397 535.549, 954.340 537.258 C 953.931 537.920, 953.287 542.971, 952.909 548.481 C 952.257 557.990, 951.644 560.223, 946.731 571 C 946.104 572.375, 944.842 574.400, 943.927 575.500 C 943.011 576.600, 941.970 578.735, 941.613 580.245 C 939.944 587.304, 920.511 605.149, 909.500 609.733 C 895.572 615.531, 865.410 614.997, 851.675 608.709 C 842.944 604.711, 830 594.993, 830 592.435 C 830 591.781, 829.320 590.681, 828.490 589.991 C 826.468 588.314, 818 575.518, 818 574.142 C 818 573.542, 816.650 569.654, 815 565.500 C 812.989 560.437, 812 556.194, 812 552.628 C 812 546.201, 809.722 541.229, 806.144 539.852 C 804.690 539.292, 798.482 538.581, 792.348 538.273 C 781.485 537.727, 781.133 537.776, 778.740 540.169 C 777.144 541.765, 776.026 544.355, 775.548 547.563 C 775.144 550.278, 774.452 552.950, 774.011 553.500 C 773.569 554.050, 772.699 557.875, 772.077 562 C 771.454 566.125, 770.128 570.625, 769.130 572 C 768.132 573.375, 766.739 576.300, 766.034 578.500 C 765.330 580.700, 763.459 583.712, 761.877 585.194 C 760.294 586.675, 759 588.594, 759 589.458 C 759 591.064, 749.225 600.945, 747.601 600.980 C 747.107 600.991, 745.238 602.508, 743.448 604.350 C 740.212 607.682, 728.944 612.040, 719.850 613.476 C 715.062 614.233, 713.576 616.109, 714.495 620.241 C 714.894 622.033, 715.411 627.775, 715.645 633 C 715.878 638.225, 716.284 643.113, 716.546 643.863 C 717.295 646, 719.497 643.621, 720.804 639.262 C 722.206 634.589, 731.571 625.179, 738.500 621.481 C 742.370 619.416, 745.143 618.754, 750.774 618.555 C 757.238 618.325, 758.483 617.946, 761.965 615.148 C 767.407 610.775, 773.296 610.776, 780.389 615.154 C 787.412 619.487, 792.014 619.503, 798.348 615.216 C 806.442 609.739, 812.151 609.914, 821.500 615.925 C 824.694 617.979, 832.465 618.675, 833.500 617 C 834.265 615.762, 843.676 615.667, 844.432 616.889 C 844.734 617.378, 846.223 618.079, 847.741 618.447 C 849.258 618.814, 852.856 620.664, 855.735 622.557 C 858.614 624.451, 861.314 626.012, 861.735 626.028 C 863.594 626.095, 873.504 638.465, 876.672 644.673 C 879.344 649.910, 880.420 653.642, 881.289 660.694 C 882.329 669.141, 882.617 669.938, 884.828 670.493 C 887.435 671.147, 891 668.733, 891 666.313 C 891 663.133, 900.994 663.090, 904.805 666.253 C 905.910 667.170, 907.338 666.153, 911.892 661.201 C 917.344 655.272, 917.803 655, 922.339 655 C 927.650 655, 930.086 653.340, 932.824 647.857 C 934.332 644.837, 935.019 644.448, 939.667 643.980 C 945.731 643.370, 948.499 641.260, 951.081 635.281 C 952.413 632.196, 953.654 630.877, 955.701 630.373 C 960.114 629.286, 962.822 627.088, 963.489 624.052 C 963.827 622.512, 965.205 620.216, 966.552 618.951 C 967.898 617.686, 969.003 616.167, 969.007 615.576 C 969.011 614.984, 970.614 613.410, 972.570 612.078 C 976.843 609.167, 979.200 604.964, 978.968 600.666 C 978.686 595.430, 978.830 595.096, 983.564 590.035 C 987.610 585.710, 988.197 584.493, 988.728 579.328 C 989.373 573.057, 992.782 565.542, 996.006 563.283 C 998.545 561.505, 998.517 559.699, 995.865 554.221 C 994.035 550.441, 993.804 548.618, 994.251 541.465 C 994.645 535.144, 994.421 532.619, 993.329 531.059 C 991.779 528.846, 989.974 528.432, 988.450 529.940 M 579.500 538.055 C 573.450 539.169, 566.475 541.127, 564 542.405 C 561.525 543.684, 558.375 545.064, 557 545.471 C 552.532 546.795, 540.761 553.092, 536.691 556.336 C 528.414 562.931, 513.147 578.667, 511.130 582.682 C 509.974 584.982, 508.602 587.128, 508.080 587.451 C 507.558 587.773, 506.437 590.424, 505.589 593.342 C 504.741 596.260, 503.136 599.472, 502.023 600.479 C 500.910 601.486, 500 602.956, 500 603.745 C 500 604.534, 498.689 609.077, 497.087 613.840 C 494.907 620.320, 494.034 625.143, 493.620 633 C 492.940 645.877, 494.123 660.312, 496.242 665 C 497.112 666.925, 498.383 670.975, 499.066 674 C 499.748 677.025, 501.377 681.200, 502.684 683.279 C 503.992 685.357, 505.334 688.507, 505.668 690.279 C 507.036 697.551, 516.131 709.077, 529 719.846 C 544.703 732.986, 542.827 731.907, 560 737.681 C 562.475 738.513, 565.175 739.444, 566 739.750 C 566.825 740.057, 568.288 740.210, 569.250 740.091 C 570.212 739.972, 571 740.281, 571 740.778 C 571 741.878, 579.190 743.686, 588 744.530 C 594.995 745.200, 617.343 743.580, 621.169 742.126 C 622.451 741.638, 623.768 741.298, 624.096 741.370 C 624.424 741.441, 625.324 740.996, 626.096 740.380 C 626.868 739.765, 629.300 738.698, 631.500 738.011 C 639.826 735.410, 648.179 730.894, 656.390 724.556 C 661.062 720.950, 665.360 718, 665.942 718 C 666.524 718, 667.024 717.438, 667.052 716.750 C 667.081 716.063, 669.781 713.295, 673.052 710.601 C 676.324 707.906, 679 705.248, 679 704.695 C 679 704.142, 680.024 702.296, 681.277 700.594 C 685.980 694.201, 691.037 685.058, 691.652 681.837 C 692.002 680.002, 693.123 676.832, 694.142 674.794 C 696.318 670.443, 697.952 660.232, 697.980 650.809 C 697.991 647.129, 698.338 643.909, 698.750 643.654 C 699.659 643.093, 699.588 637.255, 698.661 636.328 C 698.297 635.964, 698 632.115, 698 627.775 C 698 618.328, 696.277 606.389, 694.503 603.550 C 693.799 602.422, 692.652 599.700, 691.953 597.500 C 690.756 593.728, 685.695 585.305, 682.640 582 C 681.877 581.175, 680.906 579.378, 680.482 578.006 C 679.548 574.988, 662.616 558, 660.542 558 C 659.733 558, 658.585 557.094, 657.993 555.986 C 657.400 554.879, 654.347 552.700, 651.208 551.145 C 648.068 549.590, 643.925 547.543, 642 546.596 C 640.075 545.648, 637.825 544.443, 637 543.916 C 626.313 537.101, 599.515 534.369, 579.500 538.055 M 578.062 545.115 C 573.972 545.667, 568.303 547.217, 565.466 548.559 C 562.629 549.902, 559.625 551, 558.791 551 C 557.957 551, 555.599 552.332, 553.550 553.960 C 551.501 555.589, 548.851 557.224, 547.662 557.595 C 546.473 557.966, 544.022 559.559, 542.215 561.135 C 540.409 562.711, 538.257 564, 537.434 564 C 536.611 564, 535.639 564.776, 535.275 565.725 C 534.646 567.366, 527.120 575.170, 524.640 576.754 C 523.048 577.771, 516 588.253, 516 589.604 C 516 590.201, 515.111 591.495, 514.024 592.479 C 511.803 594.488, 504.543 612.357, 503.451 618.500 C 503.059 620.700, 502.298 623.057, 501.758 623.737 C 501.218 624.418, 501.016 625.600, 501.310 626.365 C 501.604 627.130, 501.358 628.242, 500.765 628.835 C 499.073 630.527, 499.166 654.286, 500.872 656.345 C 501.627 657.255, 501.910 658, 501.500 658 C 501.090 658, 501.259 658.607, 501.875 659.349 C 502.491 660.091, 503.425 662.965, 503.950 665.736 C 505.036 671.463, 511.457 688.239, 514.002 692 C 518.429 698.541, 521.618 703.488, 522.835 705.701 C 523.570 707.036, 524.920 708.416, 525.835 708.767 C 526.751 709.118, 529.630 711.535, 532.233 714.138 C 536.998 718.902, 546.853 726, 548.703 726 C 549.252 726, 551.607 727.381, 553.937 729.070 C 556.765 731.118, 560.161 732.459, 564.145 733.101 C 567.428 733.630, 572.002 734.836, 574.307 735.781 C 577.722 737.181, 581.747 737.500, 596 737.500 C 611.628 737.500, 614.169 737.259, 619.754 735.250 C 623.194 734.013, 627.031 733, 628.281 733 C 629.532 733, 631.443 732.379, 632.527 731.621 C 634.832 730.010, 644.752 724.527, 650.495 721.690 C 652.692 720.605, 655.617 718.641, 656.995 717.327 C 667.639 707.174, 673.555 700.931, 675.724 697.564 C 680.520 690.120, 688 674.666, 688 672.203 C 688 670.846, 689.013 668.108, 690.250 666.118 C 692.421 662.627, 692.500 661.653, 692.500 638.419 C 692.500 615.183, 692.416 614.147, 690.103 608.919 C 688.785 605.938, 687.040 601.925, 686.226 600 C 685.411 598.075, 684.191 595.825, 683.514 595 C 682.837 594.175, 681.788 592.023, 681.183 590.218 C 680.110 587.021, 674.839 579.726, 670.405 575.303 C 669.193 574.095, 668.044 572.745, 667.851 572.303 C 667.518 571.540, 660.775 565.454, 656.215 561.800 C 653.306 559.468, 648.398 557, 646.672 557 C 645.886 557, 644.627 556.129, 643.872 555.064 C 642.520 553.155, 632.750 549.324, 622 546.486 C 614.992 544.636, 587.878 543.790, 578.062 545.115 M 588.500 560.602 C 582.436 561.204, 573 564.168, 573 565.471 C 573 566.106, 574.350 567.919, 576 569.500 C 581.198 574.480, 579.350 581.643, 571.942 585.231 C 566.690 587.775, 558.874 584.618, 557.571 579.426 C 556.580 575.477, 552.647 576.309, 545.405 582 C 541.906 584.750, 538.583 587, 538.021 587 C 537.460 587, 536.996 587.563, 536.990 588.250 C 536.985 588.938, 535.410 591.476, 533.490 593.891 C 531.571 596.306, 530 598.789, 530 599.409 C 530 600.029, 528.823 602.268, 527.384 604.386 C 525.945 606.503, 524.131 610.966, 523.352 614.304 C 522.574 617.641, 521.388 621.031, 520.718 621.837 C 519.901 622.820, 519.391 628.766, 519.170 639.904 C 518.899 653.505, 519.140 657.318, 520.502 661.003 C 521.417 663.476, 522.739 667.750, 523.439 670.500 C 524.140 673.250, 526.128 677.726, 527.857 680.446 C 529.586 683.166, 531 685.909, 531 686.541 C 531 687.173, 531.900 688.505, 533 689.500 C 534.100 690.495, 535 691.816, 535 692.435 C 535 693.775, 548.628 705.400, 554.424 709.004 C 559.614 712.231, 563.632 713.998, 565.797 714.006 C 566.734 714.010, 568.655 714.615, 570.067 715.352 C 573.650 717.222, 576.076 717.723, 587.534 718.965 C 606.118 720.980, 617.077 717.662, 615.488 710.503 C 614.107 704.281, 614.612 701.013, 617.616 696.728 C 622.214 690.168, 627.249 690.236, 635.359 696.967 C 638.066 699.214, 641.283 701, 642.624 701 C 645.019 701, 655.978 695.402, 656.025 694.155 C 656.038 693.795, 658.304 691.025, 661.060 688 C 663.816 684.975, 666.333 681.375, 666.654 680 C 666.974 678.625, 668.266 675.692, 669.525 673.481 C 670.783 671.271, 672.301 666.822, 672.898 663.594 C 673.495 660.366, 674.427 657.190, 674.971 656.536 C 675.514 655.881, 676.410 652.159, 676.963 648.264 C 678.064 640.495, 676.702 625.052, 674.812 623.884 C 674.225 623.521, 674.053 622.723, 674.431 622.112 C 674.809 621.500, 674.700 621, 674.189 621 C 673.678 621, 672.732 618.314, 672.086 615.032 C 671.440 611.749, 670.516 608.819, 670.032 608.520 C 669.549 608.221, 668.396 605.698, 667.471 602.914 C 663.912 592.196, 647.052 574.952, 635.142 569.846 C 632.611 568.762, 630.306 567.510, 630.020 567.064 C 629.734 566.619, 625.450 565.024, 620.501 563.519 C 611.571 560.805, 598.480 559.611, 588.500 560.602 M 101.716 585.843 C 99.910 588.018, 99.993 951.963, 101.801 957 C 103.233 960.991, 106.889 965.288, 112.485 969.556 L 116.344 972.500 356.422 972.500 L 596.500 972.500 601.211 969 C 603.802 967.075, 605.940 965.025, 605.961 964.444 C 605.982 963.864, 607.159 961.839, 608.576 959.944 L 611.152 956.500 610.738 861.297 C 610.427 789.896, 610.027 765.737, 609.138 764.666 C 608.239 763.583, 604.153 763.114, 592.226 762.727 C 578.048 762.267, 575.368 761.879, 565 758.783 C 558.675 756.895, 551.700 754.401, 549.500 753.242 C 547.300 752.083, 542.131 749.481, 538.014 747.459 C 533.897 745.438, 529.531 742.707, 528.312 741.392 C 527.093 740.076, 525.595 739, 524.983 739 C 523.577 739, 498 713.161, 498 711.741 C 498 711.162, 496.851 709.183, 495.447 707.342 C 494.043 705.501, 492.404 702.533, 491.805 700.747 C 491.207 698.961, 490.139 696.825, 489.432 696 C 486.734 692.850, 481.114 679.223, 479.945 673 C 479.274 669.425, 477.780 664.475, 476.624 662 C 474.743 657.971, 474.522 655.670, 474.512 640 C 474.505 630.375, 474.911 621.600, 475.414 620.500 C 475.916 619.400, 476.405 618.275, 476.500 618 C 476.595 617.725, 476.957 616.825, 477.305 616 C 477.652 615.175, 478.871 610.946, 480.013 606.602 C 481.155 602.258, 483.164 596.858, 484.479 594.602 C 485.793 592.346, 487.010 589.155, 487.184 587.511 L 487.500 584.522 295.216 584.450 C 127.489 584.387, 102.776 584.565, 101.716 585.843 M 608.749 587.008 C 602.789 587.762, 599.024 589.764, 591.155 596.359 C 588.766 598.361, 586.446 600, 586.001 600 C 585.295 600, 579.149 609.759, 578.129 612.500 C 577.924 613.050, 577.085 614.964, 576.263 616.754 C 575.441 618.544, 574.983 621.131, 575.246 622.504 C 575.508 623.877, 575.335 625, 574.861 625 C 573.677 625, 573.767 639.738, 574.956 640.473 C 575.482 640.798, 575.684 641.659, 575.405 642.387 C 575.126 643.115, 576.746 647.263, 579.005 651.605 C 583.339 659.936, 593.598 670.978, 599.500 673.664 C 601.150 674.415, 603.175 675.452, 604 675.967 C 609.499 679.405, 613.889 680.495, 621.847 680.402 C 626.438 680.348, 630.488 679.875, 630.847 679.351 C 631.206 678.827, 633.975 677.128, 637 675.577 C 647.645 670.116, 664.194 652.554, 662.603 648.407 C 662.306 647.633, 662.499 647, 663.031 647 C 664.165 647, 664.386 621.720, 663.263 620.596 C 662.857 620.191, 662.520 619.328, 662.513 618.679 C 662.485 616.147, 656.206 607.224, 650.368 601.421 C 644.687 595.774, 642.529 594.306, 632.250 589.101 C 627.901 586.898, 617.165 585.942, 608.749 587.008 M 600.686 610.672 C 597.283 612.484, 596.352 614.515, 598.011 616.513 C 600.875 619.964, 608.477 616.418, 607.843 611.926 C 607.430 609.003, 604.714 608.527, 600.686 610.672 M 713.469 652.709 C 713.145 654.244, 712.456 656.281, 711.940 657.236 C 710.574 659.760, 710.789 664.580, 712.324 665.854 C 714.698 667.824, 716 664.991, 716 657.859 C 716 650.875, 714.501 647.825, 713.469 652.709 M 788.669 653.174 C 786.563 654.744, 783.748 655.440, 777.669 655.892 C 773.129 656.230, 769.565 656.944, 769.645 657.500 C 769.725 658.050, 772.650 659.578, 776.145 660.895 C 785.818 664.540, 805.144 665.095, 814.649 661.999 C 822.883 659.318, 825.969 656.873, 824.045 654.555 C 822.560 652.765, 819.875 652.525, 818.354 654.046 C 817.778 654.622, 813.965 655.184, 809.881 655.296 C 803.510 655.471, 802.047 655.180, 799.592 653.250 C 796.036 650.454, 792.352 650.428, 788.669 653.174 M 844.035 654.458 C 843.310 655.332, 842.981 657.372, 843.263 659.241 C 843.821 662.927, 842.290 666.516, 838.845 669.598 C 836.749 671.474, 825.259 678.385, 824 678.528 C 823.725 678.559, 821.362 679.553, 818.749 680.736 C 814.584 682.623, 811.996 682.911, 797.749 683.076 C 784.831 683.225, 780.603 682.929, 777.124 681.631 C 774.718 680.734, 771.905 680, 770.874 680 C 769.843 680, 769 679.498, 769 678.883 C 769 678.250, 768.113 677.999, 766.950 678.303 C 765.426 678.701, 763.247 677.292, 758.450 672.805 L 752 666.771 752 660.885 C 752 655.594, 751.790 655, 749.923 655 C 748.781 655, 746.531 656.315, 744.923 657.923 C 742.033 660.813, 742 660.975, 742 672.292 L 742 683.739 745.948 688.697 C 751.862 696.125, 756.235 698.702, 766.220 700.645 C 776.153 702.577, 777.309 702.169, 779.009 696.134 C 781.023 688.983, 785.727 686.238, 793.068 687.930 C 795.506 688.491, 799.975 688.969, 803 688.990 C 811.546 689.051, 813.378 690.429, 814.126 697.353 C 814.903 704.548, 816.016 705.874, 819.413 703.649 C 821.152 702.509, 824.180 701.989, 829.215 701.965 C 838.498 701.919, 841.528 700.164, 850.853 689.433 L 854.207 685.574 853.826 675.037 C 853.486 665.628, 853.127 663.918, 850.473 659.065 C 847.199 653.081, 845.931 652.173, 844.035 654.458 M 340.374 685.689 C 337.067 686.338, 334.445 689.918, 332.088 697 C 330.898 700.575, 329.643 704.175, 329.299 705 C 328.954 705.825, 328.618 706.725, 328.551 707 C 328.484 707.275, 327.929 708.400, 327.319 709.500 C 326.708 710.600, 325.272 715.830, 324.128 721.122 C 322.984 726.414, 321.595 731.935, 321.041 733.391 C 320.488 734.848, 319.339 739.037, 318.490 742.700 C 317.640 746.364, 316.546 749.843, 316.058 750.431 C 315.569 751.019, 315.163 751.725, 315.155 752 C 315.147 752.275, 314.627 753.850, 313.998 755.500 C 313.370 757.150, 312.465 760.525, 311.987 763 C 311.509 765.475, 310.407 769.496, 309.538 771.936 C 308.669 774.376, 307.286 779.266, 306.466 782.802 C 305.646 786.338, 304.650 789.742, 304.253 790.366 C 303.856 790.990, 303.483 791.725, 303.425 792 C 303.367 792.275, 302.572 794.173, 301.660 796.218 C 300.747 798.263, 300 800.845, 300 801.957 C 300 803.069, 299.069 806.346, 297.931 809.239 C 296.793 812.133, 294.980 818.069, 293.903 822.432 C 292.825 826.794, 291.496 830.903, 290.948 831.563 C 289.641 833.137, 287 843.348, 287 846.826 C 287 848.327, 287.675 850.518, 288.499 851.695 C 290.762 854.926, 296.669 858.240, 298.902 857.531 C 304.853 855.642, 310.035 847.674, 311.911 837.525 C 312.510 834.283, 313.926 829.718, 315.058 827.380 C 316.190 825.042, 318.176 818.262, 319.472 812.314 C 322.402 798.866, 326.045 786.819, 327.581 785.500 C 328.222 784.950, 329.273 781.575, 329.918 778 C 331.087 771.512, 332.082 768.166, 334.531 762.500 C 335.244 760.850, 336.158 757.257, 336.562 754.517 C 336.966 751.776, 337.990 747.951, 338.838 746.017 C 339.685 744.082, 340.444 742.275, 340.523 742 C 340.603 741.725, 341.129 740.375, 341.694 739 C 342.258 737.625, 343.047 734.716, 343.446 732.535 C 343.845 730.354, 344.857 727.243, 345.695 725.623 C 346.533 724.002, 347.849 719.067, 348.619 714.654 C 349.389 710.242, 350.915 705.114, 352.010 703.259 C 353.104 701.404, 354 698.164, 354 696.059 C 354 692.863, 353.340 691.637, 349.997 688.616 C 346.139 685.131, 344.995 684.783, 340.374 685.689 M 244.018 708.179 C 240.377 709.223, 231.167 716.646, 212.557 733.535 C 206.476 739.054, 196.138 748.172, 189.585 753.796 C 183.031 759.421, 176.579 765.627, 175.246 767.589 C 171.462 773.158, 172.388 774.576, 190.500 790.939 C 192.150 792.430, 197.775 797.216, 202.999 801.575 C 208.224 805.934, 215.005 811.750, 218.070 814.500 C 221.134 817.250, 226.506 821.975, 230.008 825 C 233.509 828.025, 237.458 831.625, 238.783 833 C 240.827 835.120, 242.103 835.500, 247.183 835.500 C 252.506 835.500, 253.442 835.188, 255.587 832.694 C 257.941 829.957, 258.743 825.100, 257.413 821.633 C 256.692 819.755, 239.576 805, 238.119 805 C 237.542 805, 236.585 804.093, 235.992 802.985 C 235.399 801.877, 233.173 799.872, 231.046 798.529 C 227.628 796.372, 220.157 789.806, 206.250 776.741 C 203.912 774.545, 202 772.327, 202 771.813 C 202 770.455, 216.273 757.019, 217.727 757.009 C 218.402 757.004, 219.708 755.848, 220.631 754.441 C 221.553 753.033, 225.163 749.844, 228.654 747.353 C 232.144 744.862, 235 742.189, 235 741.412 C 235 740.636, 235.338 740.092, 235.750 740.203 C 236.709 740.463, 241.523 736.350, 250.713 727.419 C 256.109 722.176, 258 719.657, 258 717.716 C 258 713.591, 256.159 710.646, 252.393 708.750 C 248.503 706.791, 248.789 706.811, 244.018 708.179 M 387.217 709.561 C 385.991 710.419, 384.290 712.472, 383.437 714.122 C 380.255 720.275, 384.085 725.048, 411 748.474 C 427.716 763.023, 426.827 762.243, 432.500 767.362 L 437.500 771.873 433 775.683 C 430.525 777.779, 422.650 784.899, 415.500 791.505 C 408.350 798.111, 398.450 807.070, 393.500 811.413 C 382.501 821.063, 380.554 823.810, 381.424 828.445 C 382.391 833.602, 384.851 835.921, 390.092 836.618 C 394.612 837.219, 394.796 837.130, 401.948 830.864 C 405.944 827.364, 411.614 822.700, 414.548 820.500 C 417.481 818.300, 420.841 815.263, 422.013 813.750 C 423.186 812.237, 424.611 811, 425.181 811 C 425.751 811, 428.692 808.525, 431.717 805.500 C 434.742 802.475, 437.445 800, 437.723 800 C 438.721 800, 461.094 779.693, 462.037 777.931 C 462.567 776.941, 463 775.239, 463 774.149 C 463 773.059, 463.563 771.940, 464.250 771.662 C 465.250 771.259, 465.250 771.142, 464.250 771.079 C 463.563 771.036, 462.993 769.763, 462.985 768.250 C 462.964 764.576, 462.663 764.201, 454 757.059 C 449.875 753.659, 444.767 749.442, 442.649 747.688 C 440.530 745.935, 436.241 742.025, 433.116 739 C 429.991 735.975, 426.212 732.861, 424.717 732.081 C 423.223 731.301, 422 730.118, 422 729.452 C 422 728.787, 418.738 725.757, 414.750 722.719 C 410.762 719.681, 405.285 715.127, 402.577 712.598 C 398.382 708.681, 397.046 708, 393.549 708 C 391.292 708, 388.442 708.702, 387.217 709.561 M 684.750 725.162 C 683.237 725.715, 682 726.770, 682 727.506 C 682 728.243, 680.745 730.118, 679.210 731.673 C 673.593 737.366, 670.745 745, 674.240 745 C 674.841 745, 675.040 745.293, 674.682 745.651 C 673.701 746.633, 677.193 748.932, 679.719 748.968 C 682.433 749.007, 689.258 745.588, 694.075 741.776 C 696.302 740.013, 698.941 738.908, 701.075 738.844 C 707.314 738.656, 709 738.056, 709 736.019 C 709 734.596, 707.919 733.786, 704.952 732.987 C 702.726 732.388, 698.564 730.122, 695.702 727.953 C 690.231 723.804, 689.192 723.540, 684.750 725.162 M 927.883 740 C 922.617 745.032, 913.194 750, 908.917 750 C 906.866 750, 904.028 751.278, 900.777 753.664 C 896.041 757.140, 895.282 757.358, 885.973 757.914 C 877.649 758.411, 875.797 758.841, 873.766 760.750 C 872.449 761.987, 870.725 763.003, 869.936 763.006 C 869.146 763.010, 867.216 763.682, 865.646 764.501 C 864.076 765.320, 862.420 765.759, 861.965 765.478 C 861.510 765.197, 860.856 765.425, 860.510 765.984 C 859.776 767.172, 856 767.367, 856 766.217 C 856 765.185, 852.143 765.478, 849 766.747 C 841.101 769.938, 831.351 770.601, 802.805 769.891 L 787.111 769.500 783.757 766.249 C 781.146 763.718, 780.136 763.264, 779.201 764.199 C 777.118 766.282, 777.873 768.730, 782.126 773.689 C 787.038 779.418, 794.145 784.165, 801.294 786.495 C 804.157 787.428, 808.341 789.027, 810.591 790.048 C 822.190 795.313, 853.656 795.031, 865.500 789.556 C 867.150 788.793, 870.975 787.267, 874 786.163 C 884.504 782.331, 891.438 779.122, 892.576 777.565 C 893.205 776.704, 894.056 776, 894.467 776 C 897.467 776, 926.932 749.149, 926.980 746.372 C 926.991 745.752, 927.945 744.617, 929.099 743.850 C 930.516 742.910, 931.085 741.650, 930.849 739.978 L 930.500 737.500 927.883 740 M 648.944 752.543 C 647.050 753.942, 643.108 755.783, 640.184 756.633 C 637.260 757.484, 634.641 758.773, 634.363 759.497 C 634.085 760.221, 634.948 762.543, 636.280 764.657 C 637.613 766.771, 639.033 770.750, 639.437 773.500 C 639.840 776.250, 640.981 779.400, 641.970 780.500 C 642.960 781.600, 644.102 783.625, 644.507 785 C 645.344 787.838, 646.869 790, 648.033 790 C 648.466 790, 650.998 788.279, 653.660 786.175 C 656.322 784.071, 660.032 782.043, 661.905 781.669 C 667.029 780.644, 668.145 779.309, 667.384 775.112 C 667.024 773.125, 665.778 769.742, 664.615 767.594 C 663.452 765.446, 661.088 761.004, 659.363 757.723 C 656.559 752.391, 654.619 750.061, 652.944 750.015 C 652.639 750.007, 650.839 751.144, 648.944 752.543 M 966 831 C 966 832.100, 966.450 833, 967 833 C 967.550 833, 968 832.100, 968 831 C 968 829.900, 967.550 829, 967 829 C 966.450 829, 966 829.900, 966 831 M 960.359 837.228 C 959.039 839.364, 959.495 843.500, 961.050 843.500 C 962.004 843.500, 962.606 842.216, 962.810 839.750 C 963.114 836.077, 961.865 834.792, 960.359 837.228 M 953.607 849.582 C 952.648 852.080, 952.900 858, 953.965 858 C 955.453 858, 957 854.466, 957 851.066 C 957 847.774, 954.689 846.763, 953.607 849.582 M 948.378 862.750 C 948.070 863.712, 947.329 865.522, 946.730 866.770 C 945.934 868.428, 945.947 869.347, 946.778 870.178 C 948.708 872.108, 951 869.230, 951 864.878 C 951 860.913, 949.384 859.602, 948.378 862.750 M 632.154 868.552 C 632.345 869.532, 633.105 870.536, 633.846 870.782 C 634.706 871.069, 635.066 870.588, 634.846 869.448 C 634.655 868.468, 633.895 867.464, 633.154 867.218 C 632.294 866.931, 631.934 867.412, 632.154 868.552 M 941.607 874.582 C 940.513 877.432, 940.950 881, 942.393 881 C 944.005 881, 945 878.870, 945 875.418 C 945 872.698, 942.560 872.097, 941.607 874.582 M 704.066 933.420 C 703.378 934.249, 702.572 938.490, 702.273 942.845 C 701.601 952.656, 704.056 959.102, 710.411 964.212 C 714.042 967.131, 715.152 967.487, 720.312 967.388 C 723.509 967.326, 726.616 966.784, 727.216 966.184 C 729.177 964.223, 728.334 958.638, 725.829 957 C 719.257 952.701, 710.961 942.333, 709.453 936.535 C 708.336 932.239, 706.113 930.953, 704.066 933.420" stroke="none" fill="#171916" fill-rule="evenodd"/>
</svg>