<svg role="img" aria-labelledby="artwork-title" shape-rendering="geometricPrecision" xmlns="http://www.w3.org/2000/svg" width="1200" height="1200" viewBox="0 0 1200 1200" version="1.1">
	<title id="artwork-title">Mascot catching a bug</title>
	<path d="M 847 167.946 C 844.464 169.348, 832.723 172.810, 828.533 173.393 C 826.351 173.696, 823.332 174.857, 821.824 175.972 C 820.315 177.088, 818.449 178, 817.676 178 C 816.903 178, 814.748 179.369, 812.886 181.042 C 811.023 182.715, 808.375 184.696, 807 185.444 C 805.625 186.193, 803.557 188.087, 802.404 189.654 C 799.451 193.667, 795.409 193.362, 789.983 188.718 C 787.664 186.732, 784.501 184.830, 782.956 184.490 C 781.411 184.151, 779.454 182.816, 778.607 181.524 C 777.747 180.211, 775.618 178.890, 773.784 178.531 C 771.978 178.177, 767.988 176.986, 764.917 175.884 C 753.190 171.677, 723.817 175.227, 716.764 181.704 C 715.519 182.848, 712.400 184.726, 709.833 185.879 C 706.727 187.274, 703.885 189.670, 701.333 193.048 C 699.225 195.839, 696.254 199.626, 694.732 201.463 C 693.210 203.301, 691.473 206.213, 690.874 207.933 C 689.878 210.787, 685.714 214, 683.009 214 C 682.410 214, 680.639 213.053, 679.074 211.897 C 676.461 209.965, 675.182 209.822, 663.365 210.147 C 652.523 210.444, 649.945 210.828, 646.970 212.586 C 645.029 213.734, 642.104 215.002, 640.470 215.405 C 632.346 217.408, 614.615 233.441, 610.335 242.654 C 609.018 245.489, 607.304 248.053, 606.526 248.352 C 605.747 248.650, 604.847 250.606, 604.524 252.697 C 604.202 254.789, 603.256 258.856, 602.422 261.736 C 601.588 264.616, 601.007 268.918, 601.130 271.295 C 601.363 275.788, 600.612 278, 598.856 278 C 598.291 278, 594.632 279.575, 590.725 281.500 C 586.817 283.425, 583.077 285, 582.414 285 C 581.374 285, 568.134 297.498, 564.311 302.090 C 563.583 302.964, 562.255 305.889, 561.359 308.590 C 560.463 311.290, 558.812 314.512, 557.691 315.750 C 556.569 316.988, 556.010 318, 556.448 318 C 556.886 318, 556.627 318.744, 555.872 319.654 C 554.826 320.916, 554.503 325.370, 554.513 338.404 L 554.525 355.500 557.763 360.611 C 559.543 363.421, 561 366.181, 561 366.742 C 561 367.303, 562.406 369.137, 564.123 370.816 C 566.815 373.448, 567.158 374.344, 566.604 377.298 C 566.250 379.183, 565.109 381.496, 564.068 382.438 C 563.027 383.380, 561.129 387.380, 559.850 391.326 C 558.571 395.272, 557.181 398.650, 556.762 398.833 C 556.343 399.017, 556 402.195, 556 405.896 C 556 410.995, 556.596 413.860, 558.458 417.720 C 559.809 420.522, 561.204 423.963, 561.556 425.366 C 561.908 426.770, 562.835 428.448, 563.617 429.097 C 564.398 429.745, 565.705 431.676, 566.522 433.388 C 567.339 435.099, 569.356 437.267, 571.004 438.203 C 574.378 440.122, 574.593 441.506, 572.838 450.005 C 571.123 458.307, 573.057 474.367, 576.170 477.681 C 579.106 480.806, 578.220 482.254, 570.087 487.628 C 566.650 489.899, 563.205 492.978, 562.431 494.470 C 561.657 495.962, 559.982 498.421, 558.709 499.935 C 557.435 501.448, 554.672 506.171, 552.567 510.430 L 548.740 518.175 548.238 535.837 C 547.676 555.646, 549.033 569.642, 552.010 574.721 C 553.049 576.493, 554.196 579.530, 554.561 581.471 C 554.925 583.412, 555.649 585, 556.170 585 C 556.692 585, 556.869 585.403, 556.565 585.895 C 556.260 586.388, 556.704 587.056, 557.551 587.381 C 558.398 587.706, 559.784 589.633, 560.633 591.664 C 561.481 593.695, 564.833 598.123, 568.081 601.505 L 573.986 607.655 574.271 622.077 C 574.522 634.789, 574.824 637.008, 576.813 640.780 C 578.341 643.675, 579.334 647.906, 579.883 653.858 C 580.532 660.888, 581.228 663.442, 583.347 666.561 C 584.806 668.708, 586 670.880, 586 671.388 C 586 671.896, 587.112 673.769, 588.472 675.552 C 589.831 677.334, 591.382 680.751, 591.918 683.146 C 592.469 685.611, 593.783 688.095, 594.946 688.872 C 596.076 689.627, 597 690.764, 597 691.399 C 597 692.034, 600.150 695.680, 604 699.500 C 607.850 703.320, 611 706.974, 611 707.618 C 611 709.346, 618.694 717.072, 625.001 721.678 C 628.027 723.888, 631.119 726.439, 631.874 727.348 C 632.628 728.256, 633.596 729, 634.026 729 C 635.676 729, 642 735.455, 642 737.139 C 642 738.414, 640.950 739.074, 638.250 739.497 C 636.188 739.820, 633.221 740.287, 631.659 740.535 C 630.096 740.783, 626.603 742.099, 623.897 743.458 C 621.190 744.817, 614.405 747.773, 608.817 750.025 C 603.230 752.278, 596.823 755.371, 594.579 756.899 C 592.336 758.427, 588.475 760.981, 586 762.574 C 583.525 764.168, 579.025 767.524, 576 770.033 C 572.975 772.541, 569.186 775.247, 567.579 776.047 C 561.902 778.871, 531.109 805.996, 512.031 824.978 C 496.031 840.897, 493 844.721, 493 848.990 C 493 850.976, 493.510 853.110, 494.133 853.733 C 495.576 855.176, 494.533 858, 492.557 858 C 491.729 858, 490.411 856.761, 489.628 855.248 C 488.845 853.734, 487.259 851.639, 486.102 850.593 C 484.946 849.546, 483.996 848.197, 483.990 847.595 C 483.985 846.993, 481.273 843.575, 477.965 840 C 470.443 831.872, 467.136 825.613, 468.886 822.812 C 470.578 820.102, 472.057 806.572, 472.074 793.642 L 472.089 782.784 474.795 783.412 C 484.919 785.762, 488.180 785.402, 492.923 781.411 C 496.193 778.660, 496.943 774.609, 495.086 769.725 C 494.201 767.398, 486.067 763, 482.648 763 C 478.488 763, 471.868 758.618, 464.051 750.692 C 457.623 744.174, 453.777 741.212, 447.975 738.312 C 440.944 734.797, 440.141 734.071, 437.681 729 C 436.214 725.975, 434.743 721.250, 434.413 718.500 C 434.083 715.750, 432.393 710.650, 430.659 707.167 C 427.580 700.984, 427.551 700.801, 429.444 699.417 C 432.201 697.401, 436.719 697.664, 440.046 700.033 C 443.829 702.727, 451.459 704.976, 456.860 704.989 C 460.073 704.997, 462.507 704.166, 466.110 701.832 L 471 698.663 471 692.987 C 471 687.182, 469.845 685.136, 465.750 683.683 C 464.787 683.342, 464 682.608, 464 682.052 C 464 681.496, 462.087 680.075, 459.750 678.896 C 457.413 677.716, 451 672.398, 445.500 667.077 C 431.462 653.496, 420.579 646, 414.900 646 C 410.933 646, 409 644.137, 409 640.313 C 409 637.250, 409.814 635.914, 414.314 631.598 C 417.237 628.794, 420.837 625.522, 422.314 624.326 C 426.304 621.096, 426.121 615.121, 421.923 611.589 C 418.162 608.424, 418.306 608.426, 407.926 611.478 C 400.330 613.712, 399.031 614.471, 394.732 619.189 C 391.845 622.356, 389.553 626.016, 388.922 628.461 C 388.350 630.682, 387.661 633.260, 387.393 634.188 C 387.124 635.117, 385.238 636.416, 383.202 637.075 C 377.502 638.920, 370.705 642.557, 368.595 644.892 C 365.323 648.512, 362.312 647.643, 359.829 642.360 C 358.630 639.809, 356.940 637.510, 356.074 637.252 C 355.208 636.994, 352.328 634.108, 349.673 630.838 C 347.017 627.567, 343.721 624.464, 342.347 623.942 C 340.973 623.419, 337.970 621.726, 335.674 620.179 C 330.551 616.727, 322.836 613.481, 317.500 612.532 C 311.289 611.428, 311 610.869, 311 599.959 C 311 587.354, 311.154 587, 316.647 587 C 321.298 587, 327.877 584.261, 331.750 580.713 C 333.389 579.211, 334 577.527, 334 574.510 C 334 570.987, 333.444 569.876, 330.282 567.076 C 323.736 561.281, 317.742 560.692, 314.572 565.531 C 312.309 568.984, 309.601 567.746, 310.423 563.634 C 311.214 559.681, 316.229 554.471, 322.164 551.438 C 329.903 547.482, 331.031 539.413, 324.537 534.461 C 320.046 531.035, 313.280 531.052, 309.182 534.500 C 307.548 535.875, 305.750 537, 305.187 537 C 303.686 537, 296 544.124, 296 545.516 C 296 546.169, 294.725 548.038, 293.166 549.669 C 290.995 551.941, 289.908 554.653, 288.521 561.264 C 286.784 569.540, 286.781 570.611, 288.445 587.374 C 289.400 596.989, 289.888 605.778, 289.530 606.905 C 288.810 609.176, 285.831 610.156, 274 612.016 C 269.491 612.725, 264.705 614.242, 262 615.821 C 259.525 617.266, 257.200 618.459, 256.833 618.474 C 256.467 618.488, 255.829 618.838, 255.417 619.250 C 253.743 620.923, 249.940 619.972, 249.061 617.661 C 248.572 616.375, 246.837 614.200, 245.206 612.827 C 243.575 611.454, 241.910 609.244, 241.506 607.915 C 241.102 606.587, 239.967 604.150, 238.982 602.500 C 237.998 600.850, 236.638 597.621, 235.960 595.324 C 235.282 593.027, 233.439 589.737, 231.864 588.012 C 230.289 586.288, 229 584.516, 229 584.075 C 229 582.890, 219.270 574, 217.973 574 C 217.361 574, 214.898 572.650, 212.500 571 C 209.216 568.740, 207.012 568, 203.570 568 C 201.056 568, 199 568.450, 199 569 C 199 569.550, 198.178 570, 197.174 570 C 195.039 570, 191.514 573.561, 190.574 576.668 C 189.713 579.509, 194.946 585.610, 199.009 586.502 C 200.617 586.855, 203.544 588.237, 205.511 589.572 C 207.479 590.907, 209.334 592, 209.634 592 C 210.853 592, 213.736 596.524, 213.278 597.717 C 212.593 599.504, 205.362 599.343, 199.703 597.414 C 195.842 596.099, 194.406 596.036, 191.275 597.045 C 186.444 598.601, 185.339 599.512, 184.570 602.578 C 182.572 610.537, 190.975 619, 200.874 619 C 204.711 619, 207.013 618.287, 210.818 615.922 C 217.253 611.922, 220.652 612.219, 223.139 617 C 224.140 618.925, 226.993 622.972, 229.479 625.993 C 234.804 632.463, 235.134 635.102, 231 638.158 C 229.350 639.378, 228 640.885, 228 641.508 C 228 642.131, 226.528 644.409, 224.729 646.570 C 213.574 659.974, 207.884 678.464, 211.078 690.927 C 212.318 695.767, 212.271 696.174, 210.224 698.221 C 207.744 700.701, 198.337 702.205, 193.619 700.876 C 192.035 700.430, 187.954 698.250, 184.550 696.032 C 176.151 690.560, 172.128 690.569, 161.426 696.085 C 150.725 701.600, 149 703.329, 149 708.539 C 149 715.881, 156.548 722.295, 162.500 720.011 C 164.150 719.377, 165.628 718.911, 165.785 718.975 C 165.942 719.038, 167.240 718.169, 168.670 717.045 C 172.168 714.293, 172.653 714.373, 181.665 719.175 C 188.884 723.022, 190.208 723.380, 198.500 723.729 C 203.450 723.937, 207.781 724.421, 208.124 724.804 C 208.468 725.187, 209.039 728.497, 209.393 732.160 C 210.209 740.600, 209.313 741.615, 200.259 742.498 C 196.535 742.862, 191.131 744.245, 188.223 745.579 C 185.320 746.911, 182.599 748, 182.176 748 C 181.752 748, 179.762 749.688, 177.752 751.750 C 174.211 755.384, 171.320 760.094, 166.243 770.500 C 164.901 773.250, 162.911 776.468, 161.820 777.652 C 156.602 783.311, 159.208 794.171, 166.238 796.064 C 169.978 797.071, 174 796.041, 174 794.077 C 174 793.607, 175.932 791.261, 178.294 788.862 C 182.552 784.536, 186.257 778.078, 187.560 772.711 C 188.761 767.762, 193.406 765.338, 203 764.653 C 207.675 764.319, 211.995 764.373, 212.600 764.773 C 214.319 765.909, 216 769.627, 216 772.295 C 216 773.629, 217.119 776.370, 218.487 778.386 C 219.856 780.402, 221.242 783.116, 221.568 784.416 C 221.895 785.717, 223.475 788.039, 225.081 789.578 C 227.919 792.296, 228.732 795.333, 227.235 797.624 C 226.831 798.243, 224.025 799.769, 221 801.015 C 217.975 802.262, 214.713 804.168, 213.750 805.252 C 212.787 806.335, 212 807.028, 212 806.791 C 212 806.554, 210.024 808.200, 207.609 810.449 C 201.113 816.499, 197.961 822.872, 196.445 833.021 C 195.533 839.124, 194.395 842.803, 192.601 845.446 C 188.483 851.515, 187.997 857.880, 191.307 862.405 C 192.293 863.753, 194.280 864.432, 198.100 864.727 C 202.946 865.100, 203.866 864.835, 207.069 862.148 C 209.296 860.279, 211.117 857.554, 211.912 854.899 C 212.613 852.559, 213.881 849.585, 214.729 848.291 C 215.581 846.991, 216.502 842.704, 216.785 838.718 C 217.449 829.393, 220.254 824.654, 226.817 821.771 C 229.392 820.639, 232.573 818.878, 233.885 817.857 C 237.597 814.967, 241.307 815.528, 246.415 819.750 C 253.970 825.994, 256.764 828, 257.906 828 C 258.505 828, 260.665 829.575, 262.706 831.500 C 264.747 833.425, 267.030 835, 267.780 835 C 268.530 835, 271.090 836.141, 273.469 837.535 C 275.849 838.929, 280.092 840.342, 282.899 840.674 C 287.281 841.193, 288.568 841.892, 292.001 845.617 C 294.201 848.003, 296 850.585, 296 851.355 C 296 852.125, 296.683 853.322, 297.518 854.015 C 298.354 854.708, 299.716 856.707, 300.547 858.458 C 302.366 862.291, 316.643 876.476, 319.605 877.392 C 320.762 877.750, 323.012 879.370, 324.605 880.993 C 326.197 882.616, 327.985 883.957, 328.579 883.972 C 329.172 883.988, 331.694 885.349, 334.184 886.998 C 336.674 888.648, 341.138 890.455, 344.105 891.014 C 349.689 892.067, 355 896.177, 355 899.446 C 355 900.301, 355.484 901, 356.075 901 C 356.667 901, 357.026 902.238, 356.874 903.750 C 356.721 905.263, 357.806 909.128, 359.284 912.339 C 360.762 915.550, 362.474 920.048, 363.090 922.333 C 363.705 924.619, 365.154 928.291, 366.309 930.494 C 367.464 932.697, 368.476 934.725, 368.556 935 C 369.153 937.038, 371.476 942.511, 373.076 945.650 C 374.134 947.725, 375 949.823, 375 950.312 C 375 952.019, 380.424 963, 381.267 963 C 381.735 963, 381.840 963.450, 381.500 964 C 381.160 964.550, 381.359 965, 381.941 965 C 382.523 965, 383.008 965.563, 383.018 966.250 C 383.028 966.938, 384.266 969.386, 385.768 971.691 C 387.271 973.995, 390.493 979.058, 392.930 982.941 C 395.366 986.823, 397.745 990, 398.215 990 C 398.686 990, 399.910 991.957, 400.935 994.348 C 401.960 996.740, 403.859 999.552, 405.154 1000.598 C 406.450 1001.644, 408.356 1003.814, 409.389 1005.419 C 412.247 1009.859, 429.817 1027, 431.510 1027 C 432.330 1027, 433 1027.717, 433 1028.594 C 433 1029.470, 433.900 1030.423, 435 1030.710 C 436.100 1030.998, 437 1031.631, 437 1032.117 C 437 1032.602, 444.274 1033, 453.164 1033 C 466.171 1033, 470.077 1032.669, 473.164 1031.308 C 475.274 1030.377, 477 1029.069, 477 1028.402 C 477 1026.969, 468.836 1024, 464.899 1024 C 463.389 1024, 460.881 1022.938, 459.327 1021.641 C 457.772 1020.343, 454.925 1018.490, 453 1017.524 C 451.075 1016.557, 448.600 1014.964, 447.500 1013.983 C 446.400 1013.002, 444.611 1012.038, 443.525 1011.841 C 442.439 1011.644, 441.072 1010.586, 440.486 1009.491 C 438.985 1006.680, 432.840 1000.529, 430.727 999.722 C 429.752 999.350, 428.665 998.248, 428.311 997.273 C 427.956 996.298, 426.279 993.843, 424.583 991.819 C 422.887 989.794, 420.150 986.296, 418.500 984.045 C 416.850 981.794, 414.037 978.121, 412.250 975.882 C 410.462 973.643, 409 971.356, 409 970.799 C 409 970.243, 407.720 968.148, 406.156 966.144 C 404.592 964.140, 402.808 961.016, 402.192 959.203 C 401.575 957.390, 400.155 954.742, 399.036 953.318 C 397.916 951.895, 397 949.925, 397 948.942 C 397 947.958, 395.862 945.801, 394.470 944.147 C 393.079 942.494, 391.094 938.679, 390.058 935.669 C 389.023 932.660, 387.491 929.141, 386.653 927.849 C 385.816 926.557, 384.575 923.250, 383.896 920.500 C 383.217 917.750, 381.875 914.938, 380.914 914.252 C 379.953 913.565, 378.681 910.740, 378.088 907.973 C 377.494 905.207, 376.228 901.752, 375.274 900.295 C 374.015 898.374, 373.514 895.432, 373.448 889.574 C 373.397 885.133, 373.033 880.525, 372.637 879.334 C 371.756 876.677, 367.763 875.198, 358.146 873.965 C 349.297 872.831, 340.452 868.737, 333.262 862.448 C 330.466 860.002, 327.865 858, 327.483 858 C 327.100 858, 325.896 856.866, 324.806 855.480 C 323.715 854.094, 321.513 852.282, 319.912 851.454 C 318.310 850.626, 317 849.130, 317 848.129 C 317 845.835, 320.065 843, 322.545 843 C 325.233 843, 333.071 839.953, 335.885 837.813 C 337.650 836.471, 340.048 836, 345.115 836 C 352.354 836, 359.025 833.975, 362.181 830.819 C 363.181 829.819, 364.837 829, 365.860 829 C 366.884 829, 369.379 827.875, 371.405 826.500 C 373.431 825.125, 375.726 824, 376.505 824 C 378.135 824, 382.137 827.970, 381.517 828.972 C 380.323 830.904, 396.435 847, 399.564 847 C 400.813 847, 406.764 842.550, 408.235 840.516 C 408.639 839.957, 408.976 837.793, 408.985 835.707 C 408.998 832.456, 408.212 831.097, 403.492 826.207 C 396.321 818.778, 394.719 813.231, 396.956 803.586 C 398.124 798.550, 405.122 792.107, 409.500 792.037 C 415.264 791.944, 419.948 790.057, 420.570 787.576 C 421.908 782.245, 420.722 779.617, 415.806 777.021 C 410.042 773.976, 409 771.826, 409 762.976 C 409 753.700, 410.240 752.821, 421.669 754.003 C 428.658 754.726, 430.696 755.400, 435.788 758.674 C 441.614 762.419, 450 771.017, 450 773.245 C 450 773.863, 450.941 776.313, 452.092 778.689 C 454.133 782.906, 454.145 783.232, 452.587 792.255 C 451.709 797.340, 450.542 806.174, 449.992 811.887 C 449.292 819.168, 448.396 823.240, 446.997 825.505 C 445.899 827.282, 445 829.605, 445 830.668 C 445 831.731, 444.511 833.089, 443.913 833.687 C 443.130 834.470, 443.130 834.962, 443.913 835.446 C 444.511 835.816, 445 836.980, 445 838.033 C 445 839.188, 446.291 840.606, 448.250 841.604 C 454.080 844.573, 460.649 849.874, 463.272 853.726 C 464.685 855.802, 468.125 859.975, 470.917 863 C 473.708 866.025, 475.998 868.950, 476.004 869.500 C 476.011 870.050, 478.150 872.786, 480.758 875.579 C 483.366 878.372, 487.525 883.519, 490 887.017 C 492.475 890.515, 495.510 894.435, 496.745 895.729 C 497.981 897.023, 499.663 899.301, 500.484 900.791 C 501.304 902.281, 503.492 905.188, 505.344 907.250 C 509.537 911.918, 514.229 912.361, 518.794 908.520 C 525.573 902.816, 523.318 895.319, 510.957 882.465 C 508.059 879.451, 508.467 875.491, 512 872.342 C 513.650 870.872, 515 869.069, 515 868.335 C 515 865.826, 517.793 867, 524.912 872.500 C 528.827 875.525, 532.422 878, 532.900 878 C 533.379 878, 534.513 879.134, 535.422 880.521 C 537.963 884.399, 545.516 892, 546.829 892 C 547.473 892, 548 892.508, 548 893.129 C 548 893.750, 549.462 895.981, 551.250 898.087 C 553.037 900.193, 555.977 903.847, 557.781 906.208 C 559.586 908.569, 562.180 911.922, 563.545 913.661 C 564.910 915.399, 566.716 918.324, 567.557 920.161 C 568.399 921.997, 570.193 925.029, 571.544 926.898 C 572.895 928.767, 574 931.267, 574 932.454 C 574 933.640, 575.136 936.151, 576.525 938.033 C 577.913 939.915, 579.330 943.214, 579.674 945.364 C 580.027 947.569, 581.281 950.127, 582.550 951.231 C 583.920 952.422, 585.054 954.872, 585.447 957.492 C 585.801 959.859, 587.455 963.855, 589.122 966.371 C 591.164 969.453, 591.942 971.606, 591.509 972.973 C 591.155 974.088, 590.507 975, 590.069 975 C 589.631 975, 588.199 976.030, 586.886 977.289 C 578.957 984.896, 562.262 998.343, 554.966 1003 C 553.674 1003.825, 551.657 1005.400, 550.484 1006.500 C 549.312 1007.600, 546.361 1009.604, 543.926 1010.952 C 541.492 1012.301, 537.975 1014.439, 536.110 1015.702 C 534.246 1016.966, 532.324 1018, 531.839 1018 C 531.354 1018, 529.184 1019.174, 527.016 1020.608 C 524.408 1022.334, 520.272 1023.688, 514.788 1024.611 C 501.807 1026.797, 498.637 1029.091, 506.546 1030.575 C 508.458 1030.933, 510.269 1031.626, 510.570 1032.113 C 510.871 1032.601, 519.262 1033, 529.215 1033 C 546.900 1033, 547.384 1032.944, 550.538 1030.539 C 552.312 1029.186, 555.630 1027.332, 557.911 1026.419 C 560.192 1025.506, 562.511 1023.914, 563.064 1022.880 C 563.618 1021.846, 564.622 1021, 565.295 1021 C 565.969 1021, 567.673 1019.932, 569.081 1018.626 C 570.489 1017.320, 573.410 1015.127, 575.571 1013.753 C 577.732 1012.379, 581.745 1009.154, 584.488 1006.586 C 588.968 1002.392, 595.201 998, 596.671 998 C 597.331 998, 596.068 1007.074, 595.214 1008.459 C 594.889 1008.987, 594.739 1011.303, 594.881 1013.607 C 595.023 1015.911, 594.657 1018.094, 594.069 1018.457 C 593.481 1018.821, 593 1021.515, 593 1024.444 C 593 1031.574, 595.077 1033, 605.465 1033 C 609.822 1033, 613 1032.578, 613 1032 C 613 1031.450, 613.873 1031, 614.941 1031 C 616.009 1031, 617.160 1031.450, 617.500 1032 C 617.908 1032.661, 680.119 1033, 800.885 1033 L 983.651 1033 985.799 1030.714 C 987.937 1028.438, 987.940 1028.371, 986.425 1015.317 C 985.588 1008.105, 985.038 999.121, 985.202 995.352 L 985.500 988.500 993 987.756 C 997.125 987.347, 1001.728 986.586, 1003.229 986.065 C 1004.731 985.545, 1011.481 984.604, 1018.229 983.976 C 1024.978 983.347, 1031.281 982.421, 1032.236 981.917 C 1033.191 981.412, 1035.006 981, 1036.269 981 C 1037.531 981, 1041.025 980.329, 1044.032 979.510 C 1047.039 978.690, 1054.704 977.345, 1061.064 976.520 C 1067.424 975.695, 1075.257 974.116, 1078.470 973.010 C 1088.788 969.460, 1093.225 970.745, 1092.857 977.175 C 1092.652 980.755, 1094.087 999.311, 1094.699 1001 C 1094.998 1001.825, 1095.152 1004.926, 1095.042 1007.892 C 1094.932 1010.858, 1095.299 1013.567, 1095.858 1013.912 C 1096.418 1014.258, 1097.188 1018.132, 1097.570 1022.520 C 1097.952 1026.909, 1098.710 1031.063, 1099.255 1031.750 C 1100.777 1033.672, 1115.393 1033.436, 1117.031 1031.463 C 1119.072 1029.004, 1117.564 1004.324, 1113.765 978 C 1112.269 967.633, 1112.422 966.232, 1115.406 963.026 C 1119.351 958.786, 1120 956.493, 1119.997 946.816 C 1119.991 926.381, 1112.324 883.583, 1107.413 876.572 C 1106.636 875.463, 1106.002 873.868, 1106.005 873.027 C 1106.018 869.425, 1096.292 847.090, 1085.745 826.500 C 1082.013 819.213, 1074.743 808.601, 1068.328 801.075 C 1064.848 796.992, 1062 793.054, 1062 792.325 C 1062 791.596, 1061.591 791, 1061.092 791 C 1059.829 791, 1051.526 782.813, 1050.758 780.811 C 1050.411 779.909, 1049.027 778.570, 1047.681 777.835 C 1046.335 777.101, 1042.654 774.475, 1039.502 772 C 1036.351 769.525, 1032.055 766.375, 1029.957 765 C 1027.858 763.625, 1023.522 760.666, 1020.321 758.425 C 1015.031 754.722, 986.486 740, 984.596 740 C 984.159 740, 982.384 739.342, 980.651 738.538 C 978.918 737.734, 974.125 735.882, 970 734.422 C 965.875 732.962, 962.050 731.414, 961.500 730.981 C 960.950 730.548, 956.225 728.989, 951 727.516 C 936.716 723.489, 934.784 723.050, 931.250 723.024 C 925.970 722.985, 926.876 719.603, 932.997 716.501 C 936.077 714.941, 938.902 712.536, 940.360 710.235 C 942.609 706.685, 944.076 705.155, 955.250 694.705 C 958.352 691.804, 960 689.434, 960 687.874 C 960 685.039, 964.097 677.001, 968.213 671.762 C 969.828 669.706, 971.678 665.881, 972.325 663.262 C 973.444 658.729, 973.680 658.485, 977.245 658.190 C 979.479 658.005, 981.889 658.510, 983.218 659.440 C 988.157 662.900, 999.624 660.646, 1014.076 653.375 C 1022.368 649.203, 1035.898 639.086, 1038.306 635.258 C 1038.750 634.553, 1040.160 632.969, 1041.441 631.738 C 1044.461 628.836, 1048.413 622.463, 1053.371 612.500 C 1055.561 608.100, 1057.424 604.275, 1057.512 604 C 1057.601 603.725, 1057.905 602.825, 1058.189 602 C 1064.143 584.716, 1064.479 561.318, 1058.959 548.500 C 1058.249 546.850, 1057.630 545.251, 1057.584 544.946 C 1057.252 542.750, 1050.033 532.981, 1047.792 531.695 C 1044.486 529.798, 1044.820 528.204, 1049.667 522.747 C 1051.500 520.683, 1053 518.565, 1053 518.041 C 1053 517.517, 1054.369 514.765, 1056.043 511.927 C 1061.341 502.941, 1063.447 490.448, 1060.896 483.132 C 1059.180 478.208, 1060.575 475.227, 1067.689 468.617 C 1073.012 463.673, 1075.028 460.870, 1078.206 454 C 1080.369 449.325, 1082.505 444.803, 1082.953 443.950 C 1085.008 440.038, 1086.222 430.665, 1085.808 421.899 C 1085.177 408.514, 1081.491 400.908, 1069.292 387.824 C 1064.102 382.258, 1062.965 379.758, 1065.041 378.475 C 1066.652 377.479, 1071.214 369.881, 1070.581 369.248 C 1070.271 368.938, 1070.394 368.193, 1070.854 367.592 C 1071.919 366.201, 1073.727 358.875, 1074.506 352.797 C 1075.167 347.639, 1073.520 333.359, 1071.779 329.156 C 1071.174 327.695, 1070.771 325.938, 1070.883 325.250 C 1070.996 324.563, 1070.618 324, 1070.044 324 C 1069.470 324, 1069 323.267, 1069 322.372 C 1069 319.179, 1062.873 310.114, 1056.150 303.361 C 1047.011 294.182, 1043.063 291.236, 1037.321 289.310 C 1034.669 288.421, 1031.612 287.088, 1030.527 286.347 C 1029.385 285.567, 1025.887 285, 1022.212 285 C 1013.598 285, 1012 284.005, 1012 278.641 C 1012 270.500, 1008.892 255.789, 1006.306 251.693 C 1004.945 249.537, 1002.969 245.760, 1001.914 243.300 C 999.237 237.055, 985.551 223.781, 980.108 222.150 C 977.848 221.474, 976 220.596, 976 220.200 C 976 217.649, 958.328 213.039, 948.449 213.013 C 941.869 212.996, 925.932 216.493, 924.885 218.184 C 924.225 219.249, 923.539 219.184, 921.285 217.842 C 918.377 216.111, 918.148 215.755, 912.797 204.666 C 910.984 200.907, 907.568 195.559, 905.206 192.782 C 900.673 187.453, 889.335 178.539, 885.670 177.424 C 884.477 177.061, 882.796 176.147, 881.936 175.395 C 881.075 174.642, 877.250 173.376, 873.436 172.582 C 865.168 170.861, 859 168.799, 859 167.755 C 859 166.740, 848.892 166.901, 847 167.946 M 842.345 193.250 C 842.090 193.662, 839.996 194.007, 837.691 194.015 C 835.386 194.023, 832.375 194.687, 831 195.491 C 829.625 196.296, 826.250 198.059, 823.500 199.411 C 820.750 200.762, 816.102 204.148, 813.172 206.934 C 810.241 209.720, 807.406 212, 806.871 212 C 806.336 212, 805.247 213.558, 804.451 215.463 C 803.655 217.367, 801.574 220.554, 799.826 222.545 C 797.376 225.336, 796.954 226.354, 797.983 226.990 C 799.808 228.117, 801.800 227.205, 802.529 224.908 C 802.862 223.858, 803.551 223, 804.059 223 C 804.567 223, 807.966 220.075, 811.612 216.500 C 815.258 212.925, 819.007 210, 819.943 210 C 820.878 210, 823.411 208.662, 825.572 207.027 C 827.732 205.393, 831.075 203.783, 833 203.450 C 834.925 203.117, 839.512 202.150, 843.194 201.301 C 846.876 200.452, 851.151 199.989, 852.694 200.273 C 864.520 202.450, 870.794 204.411, 874.387 207.053 C 876.591 208.674, 878.939 210, 879.605 210 C 881.097 210, 890 218.531, 890 219.960 C 890 220.529, 891.556 222.717, 893.458 224.822 C 895.360 226.927, 897.384 229.881, 897.956 231.385 C 898.528 232.889, 899.447 233.842, 899.998 233.501 C 903.503 231.335, 896.230 216.500, 887.265 207.529 C 881.154 201.414, 871.946 195.897, 865.500 194.488 C 863.850 194.128, 861.825 193.611, 861 193.340 C 858.505 192.521, 842.842 192.445, 842.345 193.250 M 706.560 217.218 C 705.228 219.119, 705.207 219.635, 706.407 220.836 C 708.349 222.778, 710 221.448, 710 217.941 C 710 214.441, 708.697 214.167, 706.560 217.218 M 655.621 232.713 C 655.229 233.105, 652.791 234.363, 650.204 235.509 C 637.497 241.137, 629.123 249.015, 623.640 260.500 C 620.377 267.336, 619.819 269.496, 619.806 275.345 C 619.797 279.109, 620.272 282.672, 620.862 283.262 C 622.146 284.546, 622.619 283.388, 623.328 277.213 C 623.609 274.758, 624.927 271.474, 626.410 269.529 C 627.834 267.662, 629.014 265.316, 629.032 264.317 C 629.071 262.100, 631.303 259, 632.860 259 C 633.487 259, 634 258.304, 634 257.452 C 634 255.676, 643.329 246, 645.042 246 C 645.668 246, 646.953 245.045, 647.898 243.877 C 649.722 241.625, 664.760 236.042, 669 236.043 C 670.375 236.044, 673.462 236.934, 675.859 238.022 C 681.353 240.515, 684.264 240.608, 683.814 238.275 C 683.632 237.326, 682.436 236.029, 681.157 235.391 C 679.878 234.753, 678.330 233.730, 677.716 233.116 C 676.484 231.884, 656.808 231.525, 655.621 232.713 M 932.149 236.028 C 928.687 236.531, 925.292 237.888, 922.532 239.870 C 920.186 241.554, 917.992 242.659, 917.657 242.324 C 917.322 241.989, 916.324 242.317, 915.438 243.052 C 914.552 243.787, 911.953 244.639, 909.663 244.944 C 906.200 245.407, 905.442 245.911, 905.155 247.944 C 904.455 252.905, 910.595 254.631, 914.198 250.487 C 915.400 249.105, 918.206 247.483, 920.433 246.884 C 922.660 246.284, 925.739 244.898, 927.276 243.803 C 928.813 242.709, 930.716 242.061, 931.503 242.363 C 932.291 242.665, 933.228 242.440, 933.585 241.863 C 934.506 240.372, 950.007 241.864, 951.754 243.611 C 952.507 244.364, 955.458 245.667, 958.311 246.508 C 961.165 247.348, 965.480 249.378, 967.900 251.018 C 970.321 252.658, 972.908 254, 973.650 254 C 974.393 254, 975 254.541, 975 255.202 C 975 255.864, 976.319 257.776, 977.931 259.452 C 979.543 261.129, 982.041 264.863, 983.483 267.750 C 987.144 275.080, 989.478 274.920, 988.701 267.392 C 988.045 261.036, 985.311 256.442, 977.818 249.104 C 965.798 237.334, 951.437 233.222, 932.149 236.028 M 595.694 301.532 C 594.151 302.889, 592.014 304, 590.944 304 C 589.875 304, 589 304.433, 589 304.963 C 589 305.492, 587.109 307.742, 584.799 309.963 C 582.488 312.183, 580.959 314, 581.402 314 C 581.845 314, 580.846 315.550, 579.182 317.445 C 576.947 319.991, 575.980 322.312, 575.477 326.337 C 574.782 331.902, 575.436 336, 577.020 336 C 578.030 336, 579.986 329.609, 579.994 326.285 C 579.997 325.066, 581.288 322.591, 582.861 320.785 C 584.435 318.978, 586.449 316.081, 587.337 314.347 C 588.225 312.612, 590.425 310.260, 592.226 309.119 C 594.027 307.978, 596.510 305.961, 597.745 304.637 C 599.161 303.118, 601.653 301.979, 604.495 301.553 C 610.662 300.628, 610.179 298.993, 603.750 299.032 C 599.621 299.056, 597.901 299.590, 595.694 301.532 M 1003.004 303.832 C 999.042 304.208, 997 305.543, 997 307.759 C 997 309.017, 998.143 309.180, 1003.750 308.717 C 1012.383 308.004, 1018.914 309.407, 1025.223 313.329 C 1033.107 318.230, 1044 330.302, 1044 334.138 C 1044 335.162, 1044.470 336, 1045.044 336 C 1045.618 336, 1045.960 336.563, 1045.804 337.250 C 1045.648 337.938, 1046.476 340.075, 1047.646 342 C 1048.815 343.925, 1050.079 346.512, 1050.453 347.750 C 1051.111 349.921, 1053 350.930, 1053 349.110 C 1053 348.621, 1052.090 343.783, 1050.978 338.360 C 1049.437 330.850, 1048.424 328.088, 1046.728 326.772 C 1045.502 325.822, 1044.870 325.034, 1045.321 325.022 C 1045.773 325.010, 1045.436 324.293, 1044.571 323.429 C 1043.707 322.564, 1043 321.307, 1043 320.635 C 1043 318.690, 1035.917 312.510, 1031 310.165 C 1028.525 308.984, 1025.084 307.149, 1023.353 306.087 C 1020.209 304.158, 1010.689 303.103, 1003.004 303.832 M 699.819 329.701 C 699.169 331.240, 696.317 334.750, 693.481 337.500 C 690.646 340.250, 687.784 343.518, 687.121 344.762 C 686.459 346.006, 684.427 347.806, 682.606 348.762 C 671.204 354.748, 668.412 355.989, 667.304 355.563 C 666.622 355.302, 665.798 355.518, 665.473 356.044 C 664.811 357.114, 656.698 357.365, 655.679 356.346 C 655.320 355.987, 653.107 355.689, 650.763 355.685 L 646.500 355.677 645.439 362.589 C 644.156 370.953, 643.570 372.615, 638.996 380.880 C 636.622 385.169, 632.022 390, 630.313 390 C 629.591 390, 629 390.450, 629 391 C 629 391.550, 628.381 392, 627.625 392 C 625.919 392, 625 396.358, 625 404.450 C 625 408.436, 624.107 413.274, 622.500 418 C 621.125 422.043, 620 426.403, 620 427.689 C 620 428.975, 619.603 430.809, 619.117 431.764 C 616.050 437.797, 613.649 449.528, 612.929 462 C 612.501 469.425, 611.608 477.429, 610.944 479.786 C 610.281 482.143, 610.004 484.337, 610.328 484.661 C 610.652 484.985, 614.873 483.291, 619.708 480.896 L 628.500 476.542 651.508 476.193 C 675.992 475.822, 682.914 476.633, 692.493 480.997 C 694.911 482.098, 697.503 483, 698.251 483 C 698.999 483, 701.136 484.125, 703 485.500 C 704.864 486.875, 706.894 488, 707.512 488 C 709.258 488, 717 494.275, 717 495.690 C 717 496.384, 718.521 498.336, 720.380 500.028 C 722.679 502.120, 723.959 504.340, 724.379 506.968 C 725.101 511.483, 726.041 511.979, 731.474 510.707 C 742.729 508.073, 748.949 508.567, 768.681 513.663 L 774.862 515.259 783.736 506.214 C 791.697 498.101, 793.223 496.998, 798.555 495.505 C 801.825 494.590, 806.525 492.918, 809 491.789 C 820.232 486.667, 853.733 487.468, 864.291 493.111 C 865.276 493.637, 866.482 493.820, 866.972 493.518 C 867.461 493.215, 868.144 493.425, 868.490 493.984 C 868.835 494.543, 870.734 495, 872.709 495 C 874.685 495, 878.596 496.098, 881.400 497.441 C 884.205 498.783, 888.360 500.362, 890.634 500.948 C 892.907 501.535, 895.325 502.686, 896.006 503.507 C 896.687 504.328, 897.894 505, 898.687 505 C 899.480 505, 901.265 506.350, 902.653 508 C 904.042 509.650, 905.820 511, 906.605 511 C 907.390 511, 908.813 512.688, 909.766 514.750 C 910.720 516.813, 911.950 518.831, 912.500 519.235 C 913.050 519.639, 924.377 519.976, 937.671 519.985 L 961.841 520 962.525 516.887 C 963.041 514.535, 962.691 513.074, 961.094 510.913 C 953.586 500.758, 952.567 498.019, 952.573 488 C 952.578 478.239, 953.874 472.867, 958.207 464.654 C 960.492 460.323, 960.765 460.852, 952.856 454.330 C 945.087 447.924, 939.422 440.105, 937.098 432.583 C 934.495 424.154, 934.489 421.765, 937.043 409.537 C 938.166 404.157, 938.918 399.255, 938.715 398.644 C 938.473 397.918, 934.317 397.515, 926.727 397.481 L 915.110 397.429 906.805 393.106 C 902.237 390.729, 897.709 388.085, 896.743 387.231 C 895.777 386.377, 893.986 385.179, 892.763 384.569 C 891.540 383.959, 890.069 382.569, 889.493 381.480 C 888.918 380.391, 886.998 377.992, 885.227 376.148 C 883.456 374.305, 882.192 372.499, 882.417 372.135 C 882.642 371.771, 881.534 369.578, 879.955 367.263 C 877.785 364.081, 876.888 361.275, 876.279 355.776 L 875.475 348.500 872.151 348.657 C 870.323 348.743, 867.854 349.726, 866.664 350.840 C 864.904 352.488, 860.522 354.824, 858 355.458 C 857.725 355.527, 856.056 356.354, 854.291 357.296 C 849.893 359.643, 836.928 361.302, 829.574 360.459 C 825.396 359.980, 821.003 358.473, 815.500 355.631 C 807.467 351.483, 797 342.822, 797 340.324 C 797 339.589, 795.832 337.977, 794.405 336.743 C 792.977 335.510, 791.166 333.262, 790.379 331.750 C 788.626 328.379, 787.235 328.252, 786.056 331.354 C 785.563 332.648, 783.662 334.664, 781.830 335.832 C 761.778 348.622, 758.347 349.956, 745.434 349.984 C 729.441 350.020, 718.913 345.394, 708.479 333.747 C 702.154 326.686, 701.268 326.272, 699.819 329.701 M 1049.172 400.036 C 1050.091 400.573, 1051.132 402.326, 1051.485 403.932 C 1051.838 405.539, 1053.223 407.571, 1054.563 408.450 C 1055.903 409.328, 1057.014 410.823, 1057.032 411.773 C 1057.076 414.189, 1059.650 417.334, 1060.933 416.541 C 1064.199 414.523, 1057.892 403.732, 1051.513 400.422 C 1048.441 398.829, 1046.575 398.521, 1049.172 400.036 M 663 438.620 C 658.015 439.596, 651 442.181, 651 443.042 C 651 443.526, 649.313 444.382, 647.250 444.943 C 645.188 445.504, 641.587 447.720, 639.250 449.866 C 635.726 453.102, 635 454.398, 635 457.450 C 635 462.509, 636.203 464.343, 641.592 467.501 C 646.769 470.535, 650.823 470.474, 657.059 467.269 C 662.367 464.540, 678.815 464.944, 685.434 467.965 C 691.570 470.766, 700.448 470.478, 702.690 467.405 C 703.455 466.357, 704.890 464.567, 705.880 463.427 C 706.870 462.287, 707.965 459.927, 708.313 458.183 C 709.386 452.822, 702.592 444.849, 693.230 440.482 C 689.919 438.937, 668.207 437.600, 663 438.620 M 187.923 447.923 C 185.470 450.376, 185 451.652, 185 455.858 C 185 458.614, 185.485 462.137, 186.079 463.685 C 186.672 465.233, 188.261 471.450, 189.610 477.500 C 190.959 483.550, 192.347 489.175, 192.695 490 C 193.043 490.825, 193.404 491.725, 193.497 492 C 193.591 492.275, 194.191 493.764, 194.831 495.309 C 195.471 496.853, 196.270 499.834, 196.605 501.933 C 197.388 506.826, 200.755 512.759, 204.197 515.312 C 206.809 517.249, 207.038 517.257, 211.408 515.588 C 214.527 514.397, 216.397 512.911, 217.460 510.779 C 219.127 507.439, 219.528 501.444, 218.143 500.588 C 217.671 500.297, 217.026 497.870, 216.710 495.196 C 216.393 492.522, 215.204 487.575, 214.068 484.203 C 212.932 480.831, 211.557 474.928, 211.012 471.086 C 210.467 467.244, 208.944 461.715, 207.626 458.800 C 206.309 455.885, 204.659 452, 203.959 450.166 C 201.689 444.214, 192.866 442.980, 187.923 447.923 M 826.600 450.663 C 823.244 451.240, 813.875 458.015, 811.572 461.531 C 809.089 465.321, 809.664 469.067, 813.411 473.500 L 816.791 477.500 834.750 478.007 C 847.843 478.376, 853.154 478.883, 854.354 479.879 C 855.259 480.630, 856 480.910, 856 480.500 C 856 480.090, 856.563 480.222, 857.250 480.792 C 859.693 482.819, 872.297 487, 875.965 487 C 883.016 487, 888.270 482.899, 889.574 476.380 C 890.042 474.040, 889.597 472.675, 887.589 470.288 C 886.165 468.596, 884.983 466.826, 884.962 466.356 C 884.941 465.885, 883.068 464.150, 880.800 462.500 C 875.573 458.698, 875.127 458.420, 871.500 456.722 C 869.850 455.949, 866.567 454.289, 864.206 453.034 C 860.369 450.995, 858.288 450.720, 844.706 450.458 C 836.342 450.296, 828.195 450.389, 826.600 450.663 M 636.112 500.310 C 624.473 506.123, 614.174 517.747, 611.387 528.216 C 610.404 531.911, 609.919 535.253, 610.310 535.644 C 611.314 536.647, 617 530.971, 617 528.966 C 617 528.054, 618.462 525.675, 620.250 523.682 C 622.038 521.688, 625.015 518.244, 626.866 516.028 C 628.717 513.813, 630.785 512, 631.461 512 C 632.137 512, 633.494 511.111, 634.477 510.026 C 635.460 508.940, 637.217 507.766, 638.382 507.417 C 641.050 506.618, 648 500.028, 648 498.297 C 648 496.080, 642.831 496.955, 636.112 500.310 M 112.500 500.984 C 110.305 501.871, 104.133 508, 105.435 508 C 105.881 508, 105.689 508.669, 105.011 509.487 C 104.285 510.362, 104.094 511.701, 104.547 512.737 C 104.971 513.707, 105.262 514.789, 105.195 515.143 C 104.846 516.962, 119.988 529.203, 149.241 550.750 C 156.329 555.971, 164 552.355, 164 543.793 C 164 539.497, 163.643 538.886, 158.192 533.858 C 154.997 530.911, 149.080 525.807, 145.044 522.516 C 141.007 519.224, 135.408 514.395, 132.602 511.783 C 129.796 509.172, 126.986 507.027, 126.357 507.018 C 125.728 507.008, 124.965 506.351, 124.661 505.558 C 123.408 502.294, 116.080 499.538, 112.500 500.984 M 579.400 506.250 C 577.755 508.038, 575.623 511.075, 574.663 513 C 573.703 514.925, 572.268 517.625, 571.474 519 C 570.679 520.375, 570.023 523.611, 570.015 526.191 C 570.007 528.771, 569.550 531.160, 569 531.500 C 568.424 531.856, 568 537.157, 568 544 C 568 550.843, 568.424 556.144, 569 556.500 C 569.550 556.840, 570.010 559.004, 570.022 561.309 C 570.053 567.299, 575.513 578.037, 577.807 576.619 C 578.324 576.300, 578.946 572.246, 579.190 567.611 C 579.595 559.894, 579.897 558.882, 582.771 555.608 C 587.416 550.317, 588.547 545.536, 587.151 537.083 C 585.698 528.284, 585.696 522.379, 587.146 514.513 C 589.233 503.183, 585.697 499.410, 579.400 506.250 M 818.125 515.704 C 817.369 516.004, 815.906 517.094, 814.875 518.125 C 813.844 519.156, 812.261 520, 811.358 520 C 808.872 520, 799.480 528.468, 797.621 532.386 C 796.720 534.285, 795.539 535.988, 794.996 536.170 C 793.668 536.614, 789.860 547.176, 790.461 548.750 C 790.723 549.438, 792.022 550, 793.347 550 C 795.130 550, 796.100 549.154, 797.073 546.750 C 797.796 544.962, 800.038 541.250, 802.054 538.500 C 805.474 533.837, 808.421 530.910, 820.324 520.354 C 822.896 518.073, 825 515.936, 825 515.604 C 825 514.871, 820.039 514.944, 818.125 515.704 M 739.500 531 C 739.160 531.550, 737.389 532, 735.563 532 C 731.465 532, 730.279 533.357, 729.402 539.050 C 729.025 541.497, 727.940 545.525, 726.991 548 C 726.043 550.475, 724.959 554.602, 724.584 557.171 C 724.136 560.236, 722.892 562.987, 720.967 565.171 C 719.353 567.002, 718.025 569.014, 718.016 569.642 C 717.967 573.146, 703.217 588.741, 694.091 594.938 C 684.109 601.717, 677.264 603.429, 660 603.468 C 638.867 603.515, 629.357 600.769, 616.870 591.016 C 611.814 587.066, 604 578.478, 604 576.870 C 604 576.315, 602.987 576.005, 601.750 576.180 C 599.562 576.491, 599.494 576.858, 599.275 589.500 C 599.041 603.014, 599.394 604.685, 603.730 610.594 C 605.207 612.608, 606 615.103, 606 617.739 C 606 622.239, 608.981 626.131, 614.783 629.203 C 617.435 630.608, 618 631.500, 618 634.287 C 618 636.146, 618.337 638.004, 618.750 638.417 C 619.163 638.829, 619.502 639.692, 619.504 640.333 C 619.506 641.048, 621.307 641.517, 624.152 641.543 C 629.483 641.593, 631.373 642.851, 634.076 648.150 C 636.434 652.770, 639.192 654.374, 643.416 653.582 C 646.355 653.030, 646.807 653.312, 648.874 656.990 C 650.114 659.196, 651.487 661, 651.926 661 C 652.366 661, 653.038 657.063, 653.420 652.250 C 654.007 644.858, 654.538 642.957, 656.837 640 C 658.334 638.075, 660.411 635.150, 661.452 633.500 C 664.195 629.155, 669.232 624, 670.735 624 C 671.447 624, 672.921 622.538, 674.011 620.750 C 675.101 618.962, 676.001 617.950, 676.012 618.500 C 676.022 619.050, 676.365 618.974, 676.775 618.330 C 678.281 615.963, 688.005 613, 694.287 612.994 C 701.420 612.988, 707.398 611.556, 711.010 608.990 C 714.689 606.375, 718.086 606.276, 722.017 608.670 C 723.933 609.836, 728.079 611.592, 731.230 612.572 C 736.188 614.113, 737.822 614.194, 743.346 613.176 C 754.335 611.152, 762.074 611.604, 766 614.500 C 769.113 616.797, 770.252 617, 779.994 617 C 786.910 617, 791.018 617.418, 791.800 618.200 C 792.460 618.860, 793 619.118, 793 618.773 C 793 618.428, 795.587 619.739, 798.750 621.687 C 801.913 623.634, 805.625 625.920, 807 626.767 C 808.375 627.614, 811.075 630.275, 813 632.680 C 814.925 635.084, 817.679 638.503, 819.120 640.276 C 820.560 642.049, 823.196 646.395, 824.977 649.934 C 827.837 655.617, 828.289 657.658, 828.857 667.423 C 829.618 680.514, 830.547 681.379, 837.057 675.061 C 841.583 670.669, 844.647 670.012, 849 672.500 C 852.959 674.763, 854.972 674.280, 859.681 669.940 C 863.873 666.076, 864.360 665.893, 869.793 666.139 C 876.517 666.443, 878.397 665.448, 882.500 659.416 L 885.500 655.004 892.641 655.002 L 899.783 655 901.373 651.027 C 902.901 647.208, 905.310 645.182, 913.500 640.831 C 915.312 639.868, 917.542 637.186, 919.132 634.057 C 920.580 631.208, 925.391 625.162, 929.824 620.621 C 937.218 613.046, 937.938 611.945, 938.557 607.283 C 939.143 602.866, 940 601.386, 945.115 595.960 C 950.988 589.731, 951 589.705, 951 583.533 C 951 578.229, 951.356 577.014, 953.500 575 C 955.839 572.803, 956.003 572.002, 956.044 562.576 C 956.068 557.034, 956.455 550.600, 956.904 548.279 C 958.094 542.131, 956.509 541.074, 947 541.670 C 942.875 541.928, 938.545 542.604, 937.379 543.170 C 936.212 543.737, 932.724 544.043, 929.627 543.850 C 926.531 543.658, 923.998 543.837, 923.999 544.250 C 923.999 544.663, 923.186 545, 922.191 545 C 918.129 545, 916.597 547.486, 915.939 555.144 C 915.280 562.812, 910.196 577.705, 906.941 581.500 C 905.998 582.600, 904.323 585.300, 903.219 587.500 C 902.116 589.700, 900.265 592.357, 899.106 593.405 C 897.948 594.453, 897 595.626, 897 596.012 C 897 596.780, 887.002 607, 886.251 607 C 885.997 607, 884.388 608.179, 882.676 609.619 C 879.539 612.259, 866 619.304, 866 618.297 C 866 617.999, 865.404 618.250, 864.675 618.854 C 862.180 620.926, 848.869 623, 838.185 622.983 C 827.942 622.966, 813.637 620.404, 812.096 618.310 C 811.768 617.865, 808.940 616.161, 805.812 614.523 C 799.178 611.052, 786.512 600.372, 783.864 596.016 C 782.855 594.357, 781.582 593, 781.035 593 C 780.488 593, 779.072 591.101, 777.888 588.781 C 776.704 586.460, 774.941 583.423, 773.969 582.031 C 772.998 580.639, 771.948 577.415, 771.636 574.867 C 771.325 572.318, 770.061 568.522, 768.826 566.430 C 766.959 563.265, 766.492 560.640, 766.041 550.776 C 765.631 541.787, 765.138 538.687, 764 537.944 C 757.541 533.723, 755.550 532.922, 750.098 532.352 C 746.710 531.998, 743.700 531.324, 743.410 530.854 C 742.688 529.686, 740.256 529.777, 739.500 531 M 1005.603 537.416 C 997.108 540.576, 987.725 553.339, 985.019 565.416 C 984.421 568.085, 982.539 572.208, 980.837 574.577 C 977.990 578.542, 977.793 579.329, 978.371 584.443 C 978.717 587.499, 979.252 592.362, 979.559 595.250 C 980.245 601.682, 976.795 621.465, 974.556 623.938 C 972.514 626.195, 972.568 631.425, 974.655 633.512 C 977.044 635.901, 979.848 636.765, 987.723 637.541 C 998.933 638.646, 1005.468 636.122, 1016.959 626.250 C 1019.040 624.462, 1021.229 623, 1021.824 623 C 1022.419 623, 1023.654 621.425, 1024.567 619.500 C 1025.480 617.575, 1026.555 616, 1026.955 616 C 1027.355 616, 1028.859 613.837, 1030.298 611.194 C 1031.736 608.551, 1033.796 605.590, 1034.874 604.614 C 1036.061 603.539, 1037.110 600.839, 1037.533 597.763 C 1037.917 594.971, 1039.079 589.721, 1040.115 586.097 C 1042.586 577.458, 1042.572 567.270, 1040.083 561.185 C 1039.028 558.608, 1037.913 555.335, 1037.604 553.911 C 1036.764 550.036, 1029.041 541.074, 1024.572 538.788 C 1019.466 536.175, 1010.652 535.537, 1005.603 537.416 M 86.962 595.959 C 85.058 597.587, 82.713 598.937, 81.750 598.959 C 80.282 598.993, 80 599.968, 80 605 C 80 609.736, 80.324 611, 81.540 611 C 82.387 611, 84.768 611.861, 86.831 612.914 C 89.966 614.513, 93.782 614.944, 110.041 615.534 C 130.823 616.287, 135.807 615.692, 139.793 611.978 C 142.657 609.310, 142.823 603.055, 140.095 600.586 C 136.770 597.577, 129.075 596.011, 114.327 595.340 C 106.447 594.982, 100 594.309, 100 593.845 C 100 593.380, 97.846 593, 95.212 593 C 91.354 593, 89.752 593.574, 86.962 595.959 M 684.989 652.250 C 683.899 654.038, 683.006 656.261, 683.004 657.191 C 683.002 658.121, 682.550 659.160, 682 659.500 C 681.450 659.840, 681 663.691, 681 668.059 C 681 672.686, 681.417 676, 682 676 C 682.550 676, 683 676.649, 683 677.443 C 683 681.305, 691.938 692.820, 697 695.478 C 698.375 696.200, 702.381 697.736, 705.903 698.891 C 713.363 701.339, 714.690 700.793, 715.634 694.889 C 716.315 690.627, 717.124 689.712, 721.438 688.322 C 725.659 686.961, 725.615 685.527, 721.289 683.420 C 719.205 682.406, 717.275 681.551, 717 681.520 C 715.844 681.391, 706.223 676.453, 702.899 674.283 C 700.918 672.989, 697.405 669.604, 695.091 666.760 C 690.886 661.591, 690.885 661.587, 691.559 655.295 L 692.233 649 689.602 649 C 687.706 649, 686.416 649.909, 684.989 652.250 M 731 652.156 C 726.521 654.160, 725.147 654.188, 714.500 652.493 L 710.500 651.856 712.750 653.838 C 713.987 654.929, 715 656.305, 715 656.897 C 715 658.610, 721.675 660.943, 731.458 662.649 C 750.964 666.052, 776.210 660.753, 769.983 654.563 C 768.824 653.411, 767.626 653.292, 764.500 654.021 C 762.300 654.533, 757.047 654.963, 752.827 654.976 C 746.082 654.997, 744.794 654.698, 742.182 652.500 C 738.656 649.533, 736.975 649.481, 731 652.156 M 243.610 652.573 C 243.190 653.669, 243.511 654.048, 244.671 653.823 C 245.586 653.645, 246.522 652.938, 246.750 652.250 C 247.363 650.411, 244.320 650.724, 243.610 652.573 M 788.600 658.734 C 788.270 659.063, 788 660.413, 788 661.732 C 788 667.902, 777.949 678.356, 769 681.495 C 768.725 681.591, 766.475 682.634, 764 683.813 C 761.136 685.177, 757.318 686.007, 753.500 686.096 C 750.200 686.174, 746.154 686.525, 744.509 686.877 C 741.556 687.508, 741.593 687.554, 747.509 690.508 C 753.491 693.496, 753.501 693.507, 754.015 698.614 C 754.298 701.427, 755.141 704.465, 755.887 705.364 C 757.398 707.185, 760.547 707.542, 761.500 706 C 761.840 705.450, 764.315 705, 767 705 C 769.685 705, 772.160 705.450, 772.500 706 C 772.840 706.550, 774.608 707, 776.429 707 C 779.006 707, 781.052 705.836, 785.654 701.750 C 795.300 693.187, 796.154 691.800, 797.534 682.455 C 798.527 675.731, 798.518 672.879, 797.489 667.947 C 796.784 664.570, 795.824 661.487, 795.354 661.094 C 793.707 659.717, 789.194 658.140, 788.600 658.734 M 390.706 661.740 C 385.718 662.052, 384.788 662.428, 384.021 664.444 C 382.803 667.649, 383.785 670.889, 387.157 674.785 C 389.234 677.185, 390 679.121, 390 681.972 C 390 685.602, 389.665 686.057, 385.227 688.473 C 378.669 692.042, 372.822 700.007, 372.216 706.196 C 371.488 713.630, 372.305 715.230, 378.404 718.319 C 383.476 720.887, 384.449 721.043, 391.443 720.409 C 395.599 720.032, 399 719.336, 399 718.862 C 399 718.388, 399.918 718, 401.040 718 C 404.541 718, 411.089 714.014, 412.832 710.822 C 413.750 709.143, 415.962 705.978, 417.750 703.790 C 419.538 701.601, 421 699.658, 421 699.470 C 421 694.905, 412.456 688.986, 407.018 689.784 C 404.539 690.148, 403.856 689.929, 404.201 688.882 C 404.452 688.122, 405.672 687.351, 406.913 687.169 C 408.382 686.954, 409.672 685.635, 410.610 683.391 C 411.403 681.494, 413.164 678.974, 414.525 677.791 C 415.886 676.608, 417 674.886, 417 673.965 C 417 672.107, 411.359 667, 409.307 667 C 408.588 667, 408 666.374, 408 665.609 C 408 664.073, 400.964 660.890, 398.230 661.189 C 397.278 661.293, 393.893 661.541, 390.706 661.740 M 236.750 711.080 C 234.324 712.493, 234.462 716, 236.943 716 C 238.726 716, 242 712.619, 242 710.777 C 242 709.683, 238.836 709.865, 236.750 711.080 M 414.185 731.076 C 413.181 732.682, 413.154 733.481, 414.065 734.578 C 416.225 737.181, 418.154 736.280, 417.813 732.827 C 417.434 728.983, 415.942 728.263, 414.185 731.076 M 876.871 751.789 C 869.183 759.715, 859.253 764.106, 852.722 762.466 C 850.983 762.030, 849.038 762.582, 846.359 764.273 C 844.236 765.612, 841.487 767.029, 840.250 767.421 C 839.013 767.814, 838 768.554, 838 769.067 C 838 769.580, 837.362 770, 836.583 770 C 835.804 770, 835.005 770.486, 834.807 771.080 C 834.601 771.696, 829.741 772.503, 823.473 772.962 C 815.248 773.563, 811.498 774.305, 808.500 775.923 C 804.968 777.829, 803.036 778.069, 792 777.968 C 785.125 777.905, 770.500 777.867, 759.500 777.884 C 741.945 777.912, 739.062 777.689, 735.920 776.062 C 732.451 774.267, 721.591 771.909, 715.525 771.635 C 710.395 771.402, 711.089 774.517, 717.653 781.185 C 722.393 786, 734.075 795, 735.584 795 C 735.780 795, 738.317 796.068, 741.220 797.373 C 748.560 800.673, 758.568 803.769, 764.500 804.575 C 767.250 804.949, 769.851 805.457, 770.279 805.704 C 771.291 806.288, 791.701 806.292, 792.721 805.708 C 793.149 805.463, 795.300 804.949, 797.500 804.565 C 799.700 804.181, 806.709 802.575, 813.076 800.995 C 828.643 797.132, 847.629 787.378, 860.497 776.634 C 874.518 764.926, 885.914 752.287, 884.504 750.007 C 883.360 748.155, 879.527 749.050, 876.871 751.789" stroke="none" fill="#171916" fill-rule="evenodd"/>
</svg>