<svg role="img" aria-labelledby="artwork-title" shape-rendering="geometricPrecision" xmlns="http://www.w3.org/2000/svg" width="1200" height="1200" viewBox="0 0 1200 1200" version="1.1">
	<title id="artwork-title">Mascot removing a bug from code</title>
	<path d="M 825 199.522 C 822.525 200.791, 818.700 202.141, 816.500 202.521 C 814.300 202.901, 810.475 204.536, 808 206.156 C 802.411 209.813, 793 218.780, 793 220.449 C 793 221.132, 792.098 222.506, 790.996 223.504 C 789.340 225.002, 788.558 225.120, 786.496 224.180 C 785.123 223.555, 784 222.434, 784 221.690 C 784 220.947, 782.763 219.711, 781.250 218.945 C 779.737 218.179, 777.427 216.753, 776.115 215.776 C 774.803 214.799, 772.954 214, 772.005 214 C 771.056 214, 768.529 212.787, 766.390 211.304 C 762.925 208.903, 761.382 208.563, 752.265 208.192 C 746.636 207.962, 741.236 208.119, 740.265 208.541 C 739.294 208.962, 737.651 209.199, 736.612 209.067 C 735.574 208.936, 734.449 209.227, 734.112 209.716 C 733.425 210.713, 727.801 213.388, 724 214.526 C 722.625 214.937, 720.228 216.337, 718.673 217.637 C 717.119 218.937, 715.206 220, 714.423 220 C 713.640 220, 712.999 220.338, 712.999 220.750 C 712.998 221.162, 710.520 224.200, 707.491 227.500 C 701.791 233.711, 696.562 241.911, 695.433 246.412 C 694.864 248.676, 694.265 248.999, 690.642 248.994 C 688.364 248.990, 685.211 248.315, 683.636 247.494 C 680.309 245.759, 678.644 245.635, 676.236 246.944 C 675.281 247.464, 670.936 248.372, 666.579 248.964 C 662.223 249.555, 658.173 250.417, 657.579 250.879 C 656.986 251.341, 654.475 252.476, 652 253.400 C 644.092 256.355, 626 275.808, 626 281.356 C 626 282.297, 624.875 285.287, 623.500 288 C 621.403 292.138, 620.998 294.349, 620.985 301.717 C 620.967 311.684, 620.637 312.556, 616.490 313.579 C 614.845 313.985, 612.600 314.873, 611.500 315.554 C 610.400 316.235, 608.375 317.123, 607 317.528 C 604.119 318.376, 591 330.795, 591 332.674 C 591 333.365, 590.179 334.369, 589.176 334.906 C 588.173 335.443, 586.772 337.821, 586.063 340.191 C 585.354 342.561, 583.813 345.850, 582.637 347.500 C 580.675 350.254, 580.500 351.771, 580.500 366 C 580.500 381.300, 580.536 381.550, 583.250 385.390 C 584.763 387.529, 586 389.953, 586 390.777 C 586 391.600, 588.475 395.174, 591.500 398.717 C 594.525 402.261, 597 405.496, 597 405.906 C 597 406.316, 595.898 407.686, 594.552 408.951 C 593.205 410.216, 591.819 412.657, 591.471 414.376 C 591.123 416.094, 589.897 420.364, 588.745 423.865 C 586.517 430.642, 586.611 431.931, 590.255 444.551 C 591.710 449.587, 598.255 459.096, 603.767 464.181 C 606.077 466.311, 606.581 467.495, 606.222 469.943 C 605.973 471.638, 605.371 473.271, 604.885 473.571 C 603.108 474.669, 604.020 482.130, 606.500 486.788 C 607.875 489.371, 609 492.213, 609 493.105 C 609 493.996, 610.350 496.424, 612 498.500 C 615.670 503.118, 615.788 506.256, 612.448 510.363 C 604.784 519.786, 603.097 522.281, 602.473 525.123 C 602.096 526.841, 600.882 529.781, 599.776 531.656 C 595.881 538.257, 596.377 574.430, 600.424 578.923 C 601.205 579.791, 602.171 581.850, 602.571 583.500 C 602.971 585.150, 604.512 588.300, 605.996 590.500 C 607.481 592.700, 609.453 595.625, 610.379 597 C 611.306 598.375, 612.994 600.962, 614.131 602.750 C 615.267 604.538, 616.699 606, 617.311 606 C 617.924 606, 619.567 607.123, 620.962 608.495 C 622.358 609.867, 625.517 612.752, 627.982 614.906 L 632.463 618.822 632.991 630.661 C 633.392 639.667, 633.935 643.092, 635.259 644.973 C 636.217 646.332, 637 648.138, 637 648.986 C 637 649.833, 638.610 652.917, 640.578 655.839 C 642.546 658.761, 643.962 661.680, 643.724 662.326 C 642.901 664.568, 653.142 678.951, 657.250 681.321 C 658.769 682.197, 660 683.781, 660 684.859 C 660 686.444, 663.815 692.078, 667.751 696.304 C 668.969 697.611, 678.790 703.794, 680.721 704.468 C 681.699 704.810, 684.300 707.306, 686.500 710.014 C 689.772 714.042, 691.243 715.050, 694.585 715.558 C 696.831 715.899, 699.238 716.529, 699.933 716.959 C 702.100 718.298, 700.645 721.333, 696.995 723.086 C 682.914 729.849, 676.186 733.547, 674.210 735.610 C 672.950 736.924, 671.469 738, 670.919 738 C 670.369 738, 664.621 742.464, 658.145 747.919 C 648.565 755.989, 634.631 769.900, 618.500 787.498 C 614.213 792.176, 610.331 797.647, 609.039 800.834 C 608.276 802.716, 606.558 804.627, 605.094 805.221 C 601.344 806.743, 578.089 807.319, 576.417 805.931 C 575.316 805.017, 575.104 790.392, 575.224 723.660 L 575.371 642.500 572.979 631.500 C 571.091 622.820, 569.998 619.867, 567.798 617.500 C 566.264 615.850, 565.007 614.037, 565.005 613.470 C 564.998 611.960, 558.835 606.400, 556.264 605.584 C 555.047 605.198, 553.226 603.831, 552.216 602.547 C 550.813 600.764, 548.742 599.963, 543.440 599.152 C 533.903 597.695, 125.141 597.625, 116.016 599.079 C 112.450 599.648, 108.850 600.708, 108.016 601.436 C 107.182 602.164, 105.065 603.485, 103.312 604.373 C 101.558 605.261, 97.219 608.892, 93.669 612.442 C 88.445 617.666, 86.686 620.289, 84.443 626.198 C 82.919 630.214, 81.296 633.650, 80.836 633.833 C 80.376 634.017, 80 716.428, 80 816.969 L 80 999.772 83.401 1001.386 C 87.619 1003.388, 96.319 1003.526, 97.904 1001.616 C 98.757 1000.587, 99.042 962.476, 99.013 853.183 C 98.989 761.871, 99.333 705.913, 99.919 705.550 C 101.617 704.501, 554.340 704.940, 555.392 705.992 C 555.991 706.591, 556.456 725.559, 556.600 755.234 C 556.729 781.781, 556.943 803.951, 557.076 804.501 C 557.209 805.050, 557.021 806.288, 556.659 807.250 C 556.296 808.212, 555.801 809.643, 555.558 810.430 C 555.295 811.282, 553.172 812.112, 550.308 812.484 C 543.947 813.310, 532.218 815.888, 528.642 817.246 C 525.274 818.526, 518.238 827.048, 517.414 830.846 C 516.546 834.843, 514.844 839, 514.075 839 C 513.699 839, 511.954 837.516, 510.196 835.702 C 507.509 832.930, 507 831.645, 507 827.637 C 507 821.588, 505.698 819.190, 501.452 817.415 C 497.232 815.652, 488.224 815.582, 484.184 817.281 C 482.509 817.985, 479.269 820.685, 476.984 823.281 C 470.953 830.132, 468.312 829.886, 460.221 821.723 C 456.800 818.271, 454 814.650, 454 813.678 C 454 812.705, 455.069 810.840, 456.375 809.534 C 458.322 807.587, 460.219 807.031, 466.908 806.448 C 477.899 805.489, 480.410 803.618, 479.762 796.873 C 479.508 794.229, 478.727 791.376, 478.028 790.533 C 476.415 788.590, 470.351 788.548, 464.188 790.437 C 461.610 791.228, 457.400 792.150, 454.832 792.486 C 450.978 792.991, 449.497 793.841, 446.332 797.365 C 444.225 799.711, 442.022 802.468, 441.438 803.491 C 440.782 804.641, 439.895 805.053, 439.115 804.571 C 437.125 803.341, 438.692 784.393, 441.116 780.382 C 442.980 777.297, 443.580 771.675, 442.379 768.545 C 441.631 766.595, 436.884 764, 434.065 764 C 432.947 764, 430.613 765.267, 428.880 766.816 C 425.752 769.611, 425.724 769.720, 425.114 781.874 C 424.536 793.405, 424.355 794.227, 422 796.036 C 418.916 798.404, 416.674 798.487, 413.420 796.356 C 411.314 794.976, 409.256 794.818, 400.631 795.376 C 391.628 795.958, 390.102 795.821, 388.333 794.270 C 387.222 793.297, 386.505 791.938, 386.740 791.250 C 386.975 790.563, 386.679 790, 386.083 790 C 385.488 790, 385 789.502, 385 788.894 C 385 788.286, 383.875 786.452, 382.500 784.818 C 380.324 782.231, 380 780.883, 380 774.409 C 380 767.090, 379.948 766.939, 376.750 764.989 C 372.312 762.283, 370.887 762.474, 367.335 766.250 C 363.572 770.249, 361 775.426, 361 779 C 361 783.124, 365.751 791.777, 370.750 796.758 C 373.800 799.797, 373.657 803.524, 370.409 805.652 C 368.984 806.586, 367.420 808.396, 366.934 809.675 C 366.447 810.954, 365.363 812, 364.525 812 C 363.686 812, 363 812.510, 363 813.133 C 363 814.784, 358.985 818, 356.924 818 C 355.950 818, 353.816 816.875, 352.182 815.500 C 350.548 814.125, 348.795 813, 348.286 813 C 347.777 813, 345.875 811.674, 344.059 810.053 C 340.400 806.786, 336.228 805.489, 332.772 806.545 C 328.794 807.760, 322.191 812.419, 321.076 814.797 C 318.791 819.675, 320.782 827.935, 324.597 829.399 C 326.925 830.292, 332.694 829.074, 334.087 827.395 C 335.796 825.336, 337.423 825.635, 345.596 829.514 L 353 833.027 353.021 838.764 C 353.034 842.265, 354.006 847.227, 355.517 851.500 C 358.741 860.620, 358.700 862.499, 355.250 863.771 C 353.738 864.328, 350.475 865.512, 348 866.401 C 342.511 868.375, 342.513 868.373, 337.250 874.228 C 333.765 878.104, 333 879.666, 333 882.906 C 333 887.596, 334.784 889.681, 339.562 890.578 C 342.762 891.178, 343.506 890.812, 348.295 886.282 C 352.186 882.602, 354.585 881.162, 357.635 880.674 C 359.893 880.313, 362.304 879.339, 362.993 878.509 C 364.771 876.366, 367.587 876.640, 369.961 879.189 C 373.397 882.876, 372.563 885.744, 366.096 892.479 C 357.027 901.923, 355.658 910.351, 362.066 917.294 L 365.024 920.500 370.012 915.180 C 372.755 912.254, 375 909.002, 375 907.953 C 375 904.687, 379.393 902.650, 385.003 903.314 C 394.363 904.423, 395.530 906.209, 391.854 913.802 C 389.891 917.856, 389.758 919.304, 390.296 930.696 C 390.638 937.934, 391.379 943.752, 392.065 944.578 C 392.791 945.453, 395.129 946, 398.147 946 C 402.539 946, 403.174 945.714, 404.243 943.250 C 404.914 941.704, 405.451 935.811, 405.468 929.786 C 405.511 915.226, 405.311 915.402, 421.399 915.822 C 432.621 916.115, 434.245 915.925, 439.610 913.692 C 442.849 912.344, 446.568 910.914, 447.873 910.514 C 450.139 909.820, 454.031 906.592, 463.832 897.276 C 468.408 892.927, 469.270 892.857, 472.234 896.591 C 473.188 897.792, 475.173 899.078, 476.645 899.447 C 478.117 899.816, 481.362 902.130, 483.856 904.589 C 490.305 910.947, 492.554 911.266, 496.667 906.404 C 500.347 902.054, 500.679 900.215, 498.533 896.065 C 496.570 892.267, 486.834 886.884, 480.536 886.113 C 474.427 885.365, 473.908 883.960, 477.052 876.670 C 479.135 871.840, 479.242 870.529, 478.681 856.755 L 478.080 842.010 480.990 840.505 C 484.106 838.894, 487.622 838.524, 488.167 839.750 C 488.350 840.163, 490.386 841.962, 492.691 843.750 C 496.322 846.565, 497.660 846.999, 502.691 846.995 C 507.213 846.991, 509.124 846.491, 511.316 844.737 L 514.132 842.483 518.735 846.770 C 525.976 853.513, 536.939 858.779, 545.414 859.585 C 549.311 859.956, 553.229 860.635, 554.120 861.095 C 555.545 861.830, 558.288 869.378, 557.439 870.228 C 557.261 870.406, 556.941 899.943, 556.728 935.865 L 556.341 1001.179 558.921 1002.206 C 562.841 1003.766, 594.894 1001.754, 598.061 999.749 C 599.403 998.900, 602.975 997.503, 606 996.644 C 609.025 995.785, 612.283 994.163, 613.240 993.041 C 614.197 991.918, 615.850 991, 616.913 991 C 617.977 991, 620.184 989.875, 621.818 988.500 C 623.452 987.125, 625.130 986, 625.546 986 C 626.256 986, 630.132 983.268, 638.672 976.750 C 640.654 975.237, 642.700 974, 643.219 974 C 644.282 974, 652.294 967.820, 655.790 964.303 C 658.563 961.515, 660.216 961.461, 665.765 963.980 C 669.915 965.863, 670.145 965.867, 674.265 964.100 C 676.594 963.101, 681.250 959.632, 684.612 956.392 C 693.519 947.805, 697.153 945.359, 699.161 946.600 C 699.971 947.100, 700.083 954.540, 699.565 973.499 C 698.917 997.248, 699.006 999.864, 700.521 1001.378 C 702.063 1002.920, 709.373 1003.028, 794.846 1002.775 C 890.255 1002.492, 892.935 1002.379, 891.739 998.682 C 891.529 998.032, 889.364 996.920, 886.928 996.212 C 884.493 995.503, 881.150 994.186, 879.500 993.284 C 873.904 990.227, 859.124 983, 858.469 983 C 858.110 983, 856.620 982.080, 855.158 980.957 C 850.532 977.400, 842.084 972, 841.147 972 C 840.651 972, 839.688 971.329, 839.008 970.510 C 837.620 968.838, 826.382 961, 825.372 961 C 824.358 961, 812.015 950.807, 806.865 945.715 C 801.641 940.551, 796.730 938.953, 792.855 941.156 C 789.009 943.343, 763.121 942.603, 758.259 940.167 C 756.191 939.131, 753.351 938.008, 751.946 937.672 C 749.614 937.113, 745.777 933.635, 733 920.495 C 729 916.382, 728.125 915.926, 725.127 916.391 C 722.988 916.723, 719.590 918.797, 715.841 922.057 C 709.105 927.916, 707.376 928.025, 701.601 922.955 C 697.230 919.116, 696.083 913.734, 698.537 908.564 C 699.467 906.604, 700.782 905, 701.459 905 C 702.136 905, 703.547 904.038, 704.595 902.862 C 705.643 901.686, 708.075 900.064, 710 899.256 C 711.925 898.449, 715.637 896.411, 718.250 894.726 C 723.586 891.285, 724.399 888.178, 721.326 882.976 C 718.418 878.053, 712.885 877.684, 707.358 882.044 C 700.764 887.246, 687.170 896, 685.686 896 C 683.458 896, 679 890.963, 679 888.445 C 679 885.553, 685.441 878.781, 690.896 875.937 C 693.177 874.748, 695.637 872.929, 696.362 871.894 C 697.086 870.859, 698.013 870.347, 698.421 870.755 C 698.830 871.163, 699.689 870.791, 700.332 869.927 C 700.974 869.064, 704.076 867.145, 707.224 865.662 C 710.372 864.179, 713.410 862.103, 713.974 861.049 C 715.571 858.064, 715.186 853.451, 713.127 850.909 C 711.350 848.714, 711.030 848.663, 706.877 849.905 C 699.435 852.132, 694.759 854.340, 688.512 858.580 C 678.826 865.153, 674.022 867.178, 668.968 866.818 L 664.500 866.500 664.190 862.191 C 663.648 854.674, 671.307 843.057, 677.947 841.323 C 679.293 840.972, 684.610 838.492, 689.762 835.813 C 694.915 833.134, 700.788 830.598, 702.815 830.179 C 707.182 829.275, 709.314 825.819, 708.381 821.156 C 707.565 817.074, 703.142 815.600, 693.560 816.214 C 687.215 816.622, 685.587 817.180, 679.357 821.087 C 665.952 829.494, 664.098 830.976, 661.546 835.331 C 660.136 837.737, 658.097 840.507, 657.015 841.487 C 655.933 842.466, 655.269 843.626, 655.540 844.065 C 655.811 844.503, 655.575 845.144, 655.016 845.490 C 654.457 845.835, 653.997 846.879, 653.994 847.809 C 653.990 848.739, 653.268 850.850, 652.388 852.500 C 651.508 854.150, 650.257 857.300, 649.608 859.500 C 647.969 865.054, 642.785 867.982, 638.057 866.024 C 631.466 863.293, 627.820 853.272, 631.414 847.762 C 632.225 846.518, 633.373 843.331, 633.965 840.679 C 636.823 827.868, 648.250 810.547, 656 807.277 C 657.925 806.465, 660.175 805.213, 661 804.493 C 661.825 803.774, 664.525 802.653, 667 802.002 C 669.475 801.350, 673.525 799.757, 676 798.460 C 678.475 797.164, 685.450 794.897, 691.500 793.423 C 705.926 789.909, 724.584 789.700, 735.497 792.929 C 739.345 794.068, 743.311 795, 744.311 795 C 745.310 795, 748.534 796.100, 751.474 797.445 C 754.415 798.790, 759.223 800.534, 762.160 801.321 C 765.097 802.107, 770.008 804.269, 773.073 806.125 C 776.139 807.981, 780.189 810.400, 782.073 811.500 C 786.430 814.043, 801.025 828.100, 805.433 834 C 820.826 854.599, 823.445 857.536, 829.528 861.016 C 832.400 862.659, 836.944 864.289, 839.625 864.638 C 842.306 864.987, 845.625 865.862, 847 866.582 C 852.662 869.547, 856.946 871.139, 858.671 870.918 C 859.677 870.789, 862.975 871.875, 866 873.332 C 869.025 874.789, 872.857 875.985, 874.515 875.990 C 876.173 875.996, 879.251 876.923, 881.356 878.051 C 883.460 879.179, 887.654 880.558, 890.674 881.117 C 893.694 881.675, 898.041 883.172, 900.333 884.442 C 902.625 885.713, 906.885 887.258, 909.800 887.877 C 912.715 888.495, 916.461 889.704, 918.125 890.565 C 919.789 891.425, 923.605 892.529, 926.604 893.017 C 929.603 893.505, 933.365 894.836, 934.964 895.974 C 936.562 897.113, 940.487 898.524, 943.685 899.111 C 951.210 900.492, 962.938 905.091, 967.535 908.465 C 969.354 909.800, 969.931 909.775, 972.964 908.229 C 974.831 907.278, 977.244 905.291, 978.327 903.814 C 980.112 901.377, 980.177 900.703, 979.018 896.564 C 978.315 894.054, 977.426 892, 977.041 892 C 976.657 892, 974.272 890.629, 971.742 888.952 C 969.030 887.156, 964.648 885.441, 961.070 884.776 C 957.732 884.155, 955 883.276, 955 882.823 C 955 882.371, 954.341 882, 953.535 882 C 950.422 882, 949.883 878.397, 952.086 872.304 C 955.096 863.975, 957.628 862.001, 965.306 861.997 C 975.129 861.992, 998.906 864.979, 1005.771 867.080 C 1009.220 868.136, 1012.708 869, 1013.521 869 C 1014.334 869, 1015 869.484, 1015 870.075 C 1015 870.667, 1016.237 871.026, 1017.750 870.873 C 1019.320 870.714, 1022.430 871.703, 1025 873.179 C 1027.475 874.600, 1030.814 876.070, 1032.421 876.444 C 1034.028 876.818, 1036.451 877.996, 1037.806 879.062 C 1039.161 880.128, 1040.773 881, 1041.388 881 C 1042.003 881, 1044.722 882.575, 1047.429 884.500 C 1050.137 886.425, 1052.722 888, 1053.174 888 C 1053.626 888, 1056.584 890.048, 1059.748 892.550 C 1062.912 895.053, 1067.408 898.511, 1069.739 900.235 C 1072.716 902.437, 1074.160 904.338, 1074.588 906.620 C 1075.191 909.832, 1073.670 916.328, 1071.747 918.750 C 1071.202 919.438, 1071.090 920, 1071.500 920 C 1071.910 920, 1071.754 920.591, 1071.154 921.314 C 1070.554 922.037, 1069.407 925.300, 1068.605 928.564 C 1067.803 931.829, 1065.813 937.650, 1064.182 941.500 C 1060.003 951.365, 1049.066 972.433, 1047.911 972.842 C 1047.381 973.030, 1046.068 974.906, 1044.995 977.010 C 1041.744 983.383, 1037.142 989.704, 1032.467 994.218 C 1027.358 999.152, 1026.989 1000.665, 1030.565 1002.025 C 1034.020 1003.338, 1075.114 1003.287, 1078.592 1001.965 L 1081.314 1000.930 1080.710 976.465 L 1080.107 952 1083.004 946.492 C 1084.598 943.463, 1086.374 938.429, 1086.951 935.306 C 1088.246 928.301, 1090.747 925.500, 1097.059 923.986 L 1101.909 922.822 1106.352 913.661 C 1111.402 903.249, 1114.146 892.052, 1116.421 872.585 C 1117.251 865.482, 1118.396 859.204, 1118.965 858.635 C 1120.245 857.355, 1120.387 823.357, 1119.116 822.571 C 1118.060 821.919, 1116.296 812.591, 1115.114 801.412 C 1114.643 796.963, 1113.548 792.238, 1112.680 790.912 C 1111.811 789.585, 1110.791 786.557, 1110.412 784.183 C 1110.033 781.808, 1109.120 779.263, 1108.384 778.527 C 1107.647 777.790, 1106.185 775.006, 1105.134 772.341 C 1102.820 766.469, 1099.652 760.952, 1095.276 755.173 C 1093.474 752.794, 1092 750.384, 1092 749.818 C 1092 749.252, 1090.987 747.498, 1089.750 745.920 C 1088.513 744.342, 1085.700 740.756, 1083.500 737.951 C 1078.043 730.995, 1062.563 717.319, 1056.892 714.445 C 1054.338 713.151, 1052.005 711.455, 1051.706 710.675 C 1051.406 709.895, 1049.964 708.957, 1048.500 708.589 C 1047.036 708.222, 1044.187 706.865, 1042.169 705.574 C 1040.151 704.283, 1036.362 702.440, 1033.750 701.478 C 1031.138 700.516, 1029 699.375, 1029 698.944 C 1029 698.512, 1027.537 697.855, 1025.750 697.483 C 1023.962 697.112, 1020.250 695.762, 1017.500 694.483 C 1014.750 693.205, 1008.900 691.166, 1004.500 689.952 C 1000.100 688.738, 996.035 687.378, 995.466 686.929 C 994.897 686.480, 991.747 685.623, 988.466 685.024 C 985.185 684.425, 977.024 682.937, 970.331 681.718 C 963.638 680.498, 957.817 679.154, 957.396 678.732 C 956.975 678.309, 958.851 675.747, 961.565 673.038 C 964.279 670.330, 969.114 665.466, 972.308 662.230 C 977.824 656.643, 980.858 651.086, 980.956 646.394 C 980.980 645.235, 982.613 642.175, 984.584 639.593 C 988.558 634.390, 990 630.421, 990 624.691 C 990 618.073, 991.180 617, 998.459 617 C 1005.530 617, 1015 615.150, 1015 613.769 C 1015 613.281, 1015.450 613.160, 1016 613.500 C 1016.550 613.840, 1017 613.641, 1017 613.059 C 1017 612.477, 1017.741 612, 1018.646 612 C 1020.784 612, 1030.292 605.680, 1035.893 600.535 C 1041.594 595.298, 1051.670 581.892, 1053.443 577.184 C 1054.206 575.158, 1055.622 571.250, 1056.590 568.500 C 1057.558 565.750, 1058.907 562.150, 1059.588 560.500 C 1062.512 553.415, 1063.312 545.258, 1062.115 534.714 C 1061.477 529.096, 1060.541 524.358, 1060.034 524.185 C 1059.527 524.012, 1059.362 523.219, 1059.668 522.423 C 1059.974 521.626, 1059.785 520.418, 1059.250 519.737 C 1058.714 519.057, 1057.953 517.153, 1057.558 515.506 C 1057.163 513.859, 1055.075 509.870, 1052.920 506.642 C 1050.764 503.413, 1048.990 500.486, 1048.979 500.136 C 1048.967 499.786, 1047.226 498.276, 1045.109 496.779 C 1039.641 492.913, 1039.104 489.250, 1042.993 482.358 C 1044.647 479.428, 1046 476.123, 1046 475.015 C 1046 473.907, 1046.450 473, 1047 473 C 1048.454 473, 1048.291 455.691, 1046.824 454.224 C 1046.176 453.576, 1045.614 450.871, 1045.574 448.212 C 1045.508 443.909, 1045.961 442.853, 1049.703 438.601 C 1053.976 433.746, 1059.166 424.126, 1059.469 420.500 C 1059.515 419.950, 1059.816 419.050, 1060.138 418.500 C 1061.436 416.282, 1062.167 411.142, 1062.109 404.636 C 1062.057 398.768, 1061.501 396.678, 1058.274 390.218 C 1051.869 377.397, 1051.301 376.599, 1046.100 373.109 C 1043.320 371.244, 1040.799 368.943, 1040.499 367.997 C 1040.199 367.050, 1040.941 364.076, 1042.149 361.388 C 1043.880 357.537, 1044.434 354.060, 1044.763 345 C 1045.155 334.195, 1045 333.010, 1042.212 325.392 C 1036.339 309.351, 1027.880 299.716, 1013.120 292.259 C 1007.311 289.324, 1005.520 288.907, 998.500 288.854 C 987.531 288.772, 987 288.384, 987 280.451 C 987 276.888, 986.586 273.191, 986.080 272.236 C 985.574 271.281, 984.150 267.800, 982.915 264.500 C 981.680 261.200, 979.596 256.621, 978.284 254.325 C 975.276 249.062, 962.462 237, 959.878 237 C 958.811 237, 957.672 236.308, 957.347 235.463 C 956.651 233.648, 951.867 231, 949.285 231 C 948.287 231, 945.677 230.030, 943.485 228.843 C 940.095 227.009, 937.918 226.694, 928.906 226.737 C 921.646 226.772, 917.397 227.251, 915.406 228.260 C 913.808 229.070, 910.858 230.030, 908.851 230.393 C 906.845 230.756, 903.978 232.016, 902.480 233.194 C 898.962 235.961, 897.572 235.084, 893.353 227.429 C 889.762 220.916, 880.940 211.451, 874.255 206.939 C 871.898 205.348, 867.388 203.375, 864.234 202.554 C 857.703 200.855, 853.019 198.850, 853.008 197.750 C 853.004 197.338, 847.712 197.048, 841.250 197.106 C 831.069 197.198, 828.899 197.521, 825 199.522 M 830 219.041 C 826.975 220.051, 823.487 220.905, 822.250 220.939 C 821.013 220.973, 820 221.450, 820 222 C 820 222.550, 819.306 223, 818.457 223 C 814.833 223, 803.468 233.116, 797.171 241.947 C 793.835 246.625, 793.320 248.462, 795.044 249.527 C 796.506 250.431, 799 248.130, 799 245.878 C 799 244.845, 799.592 244, 800.316 244 C 801.040 244, 803.002 242.537, 804.676 240.750 C 809.467 235.635, 814.848 231, 815.994 231 C 816.571 231, 818.892 229.777, 821.151 228.281 C 825.139 225.642, 825.678 225.563, 839.510 225.563 C 853.296 225.563, 853.888 225.649, 857.631 228.218 C 859.759 229.679, 862.680 231.161, 864.122 231.513 C 865.564 231.865, 867.301 233.193, 867.982 234.466 C 868.663 235.738, 870.295 237.269, 871.610 237.868 C 872.924 238.467, 874 239.572, 874 240.324 C 874 242.436, 877.864 245.536, 879.037 244.363 C 880.138 243.262, 878.392 237, 876.984 237 C 876.532 237, 875.204 235.449, 874.033 233.553 C 872.038 230.326, 860.277 221, 858.201 221 C 857.684 221, 854.443 220.100, 851 219 C 843.432 216.582, 837.329 216.594, 830 219.041 M 720.667 239.667 C 719.516 240.817, 719.938 242, 721.500 242 C 722.325 242, 723 241.325, 723 240.500 C 723 238.938, 721.817 238.516, 720.667 239.667 M 715.200 245.200 C 713.776 246.624, 713.596 250, 714.943 250 C 715.462 250, 716.568 249.027, 717.402 247.837 C 719.613 244.680, 717.842 242.558, 715.200 245.200 M 921.446 246.087 C 921.077 246.685, 919.925 246.952, 918.887 246.681 C 917.849 246.409, 917 246.513, 917 246.911 C 917 247.309, 914.433 248.444, 911.295 249.433 C 906.225 251.031, 898.066 256.395, 898.018 258.162 C 897.990 259.195, 900.258 258.578, 903 256.807 C 904.375 255.919, 907.525 254.903, 910 254.550 C 912.475 254.196, 916.525 253.463, 919 252.920 C 925.437 251.509, 940.653 254.689, 945.013 258.358 C 946.740 259.811, 948.722 261, 949.416 261 C 950.111 261, 952.439 262.783, 954.589 264.962 C 956.740 267.141, 959.737 270.172, 961.250 271.697 C 964.425 274.899, 964.961 273.492, 962 269.727 C 960.900 268.329, 960 266.689, 960 266.083 C 960 265.477, 958.650 263.569, 957 261.843 C 955.350 260.116, 954 258.146, 954 257.466 C 954 256.785, 952.444 255.490, 950.542 254.587 C 948.641 253.685, 946.845 252.558, 946.552 252.084 C 946.259 251.610, 944.976 250.960, 943.701 250.640 C 942.426 250.320, 939.610 249.285, 937.442 248.340 C 935.274 247.395, 933.200 246.594, 932.833 246.561 C 932.467 246.527, 931.829 246.162, 931.417 245.750 C 930.258 244.592, 922.202 244.864, 921.446 246.087 M 665.273 268.113 C 663.498 268.626, 661.570 269.935, 660.988 271.023 C 660.406 272.110, 659.066 273, 658.010 273 C 655.679 273, 645 283.190, 645 285.413 C 645 286.286, 644.475 287, 643.833 287 C 643.192 287, 642.929 287.262, 643.250 287.583 C 643.571 287.904, 643.018 288.982, 642.022 289.978 C 638.697 293.303, 637.348 305.861, 640.131 307.581 C 640.622 307.884, 641.299 306.753, 641.637 305.066 C 641.974 303.380, 642.672 302, 643.188 302 C 643.704 302, 644.029 301.212, 643.912 300.250 C 643.309 295.326, 654.553 280.653, 661.346 277.500 C 662.530 276.950, 664.774 275.637, 666.330 274.582 C 668.525 273.095, 671.505 272.560, 679.603 272.200 C 690.249 271.727, 692.747 270.751, 689.462 268.348 C 687.314 266.778, 670.461 266.614, 665.273 268.113 M 618.500 334 C 618.840 334.550, 619.740 335, 620.500 335 C 621.260 335, 622.160 334.550, 622.500 334 C 622.852 333.431, 621.991 333, 620.500 333 C 619.009 333, 618.148 333.431, 618.500 334 M 614 336.804 C 611.347 337.697, 605.367 344.399, 604.208 347.780 C 603.589 349.584, 602.390 351.753, 601.542 352.601 C 599.851 354.292, 599.447 359.540, 600.936 360.460 C 601.451 360.778, 602.179 358.989, 602.555 356.484 C 603.096 352.872, 603.812 351.631, 606.010 350.495 C 607.535 349.706, 609.259 347.695, 609.841 346.026 C 610.423 344.357, 612.111 341.948, 613.592 340.674 C 616.381 338.275, 616.629 335.920, 614 336.804 M 786.701 344.516 C 782.411 348.604, 776.803 352.878, 774.237 354.013 C 771.672 355.148, 768.865 356.717, 768 357.500 C 765.702 359.580, 754.498 361.968, 746.960 361.985 C 738.640 362.004, 729.219 359.566, 726 356.562 C 723.330 354.069, 717.812 351, 716.001 351 C 715.398 351, 714.357 352.238, 713.690 353.750 C 710.016 362.077, 698.518 374.826, 692.772 376.946 C 690.972 377.610, 687.205 379.244, 684.400 380.577 C 680.620 382.373, 677.611 383, 672.773 383 C 668.743 383, 665.867 383.478, 665.258 384.250 C 664.716 384.938, 664.004 388.856, 663.677 392.957 C 663.243 398.392, 662.519 401.103, 661.004 402.957 C 659.862 404.356, 658.693 406.184, 658.407 407.019 C 658.121 407.855, 656.450 409.551, 654.694 410.788 C 646.435 416.606, 647.121 414.237, 646.330 439.643 C 645.939 452.214, 645.665 471.050, 645.721 481.500 C 645.812 498.432, 646.005 500.537, 647.501 500.841 C 648.423 501.028, 650.151 500.287, 651.339 499.195 C 654.545 496.249, 666.054 492, 670.828 492 C 673.123 492, 675 491.550, 675 491 C 675 490.450, 676.557 490, 678.459 490 C 680.362 490, 685.396 489.483, 689.647 488.851 C 700.898 487.177, 723.801 489.237, 728.885 492.380 C 730.873 493.609, 734.590 495.396, 737.144 496.350 C 739.997 497.416, 741.986 498.840, 742.301 500.042 C 742.582 501.119, 743.417 502.008, 744.156 502.018 C 744.895 502.029, 746.850 504.166, 748.500 506.768 C 750.966 510.658, 752.095 511.557, 754.844 511.820 C 757.031 512.030, 758.882 511.511, 760.199 510.320 C 761.964 508.723, 763.942 508.519, 776.355 508.657 C 784.135 508.744, 791.850 508.969, 793.500 509.157 C 796.036 509.447, 796.750 509, 798.117 506.264 C 800.913 500.667, 809.004 492.054, 815.319 487.950 C 818.662 485.777, 821.871 483.997, 822.449 483.994 C 823.027 483.990, 824.850 483.282, 826.500 482.420 C 828.150 481.558, 831.750 480.599, 834.500 480.289 C 837.250 479.979, 840.132 479.224, 840.905 478.613 C 842.982 476.968, 884.505 477.105, 886.163 478.763 C 886.843 479.443, 888.453 480, 889.740 480 C 891.027 480, 893.749 480.836, 895.790 481.857 C 897.830 482.879, 901.243 483.985, 903.373 484.315 C 906.010 484.723, 909.043 486.447, 912.873 489.716 C 915.968 492.357, 919.246 495.097, 920.158 495.805 C 922.661 497.748, 960.752 495.442, 963.297 493.193 C 965.706 491.064, 965.131 486.777, 962.268 485.521 C 961.040 484.982, 959.552 483.407, 958.961 482.021 C 958.369 480.634, 957.012 477.925, 955.944 476 C 953.265 471.169, 953.110 450.934, 955.711 445.480 C 957.918 440.851, 956.983 439.280, 949.964 435.829 C 946.977 434.360, 943.535 431.998, 942.314 430.579 C 941.094 429.161, 939.737 427.972, 939.298 427.938 C 937.381 427.789, 932.038 418.646, 929.496 411.168 C 926.699 402.935, 926.445 395.882, 928.613 386.599 L 929.291 383.698 921.895 384.338 C 913.397 385.074, 903.401 383.871, 899.313 381.621 C 897.766 380.769, 894.475 379.043, 892 377.785 C 886.399 374.937, 880 369.889, 880 368.318 C 880 367.668, 878.661 366.183, 877.025 365.018 C 875.098 363.645, 873.656 361.421, 872.932 358.700 C 872.317 356.390, 871.238 353.825, 870.534 353 C 869.829 352.175, 868.965 349.925, 868.612 348 C 867.468 341.758, 866.322 341.057, 863.199 344.689 C 859.804 348.636, 847.893 353.543, 839.500 354.452 C 825.540 355.963, 810.806 351.238, 801.016 342.112 C 798 339.300, 795.300 337.018, 795.016 337.041 C 794.732 337.063, 790.990 340.427, 786.701 344.516 M 845 444.431 C 835.391 445.794, 827.603 449.306, 823.577 454.091 C 819.852 458.517, 819.882 466.609, 823.636 470.364 C 825.920 472.647, 827.091 472.996, 832.386 472.967 C 835.786 472.949, 840.942 472.076, 844 471 C 850.897 468.574, 863.969 468.382, 874.185 470.558 C 880.223 471.843, 882.167 471.899, 885.322 470.874 C 890.261 469.270, 893 465.744, 893 460.993 C 893 457.846, 892.291 456.601, 888.522 453.127 C 886.060 450.857, 883.508 449, 882.851 449 C 882.195 449, 880.821 448.243, 879.799 447.318 C 878.611 446.243, 874.433 445.173, 868.220 444.354 C 856.826 442.851, 856.123 442.853, 845 444.431 M 697 454.861 C 697 455.334, 694.688 455.995, 691.863 456.330 C 689.037 456.664, 685.941 457.649, 684.981 458.517 C 684.022 459.385, 681.534 460.566, 679.454 461.140 C 674.876 462.404, 667.313 467.778, 666.417 470.402 C 665.070 474.351, 665.838 480.282, 667.972 482.412 C 671.221 485.655, 679.714 485.115, 688.097 481.133 C 694.943 477.882, 702.553 476.953, 704.707 479.107 C 705.316 479.716, 709.190 480.266, 713.315 480.329 L 720.815 480.443 725.285 475.778 C 731.730 469.052, 731.965 467.002, 726.916 461.525 C 724.175 458.551, 721.651 456.837, 719.385 456.413 C 717.511 456.061, 715.731 455.374, 715.430 454.887 C 714.724 453.745, 697 453.720, 697 454.861 M 836.726 501.700 C 835.751 501.951, 833.513 503.471, 831.754 505.078 C 829.994 506.685, 828.020 508, 827.366 508 C 825.250 508, 820.802 514.288, 816.325 523.605 C 812.073 532.455, 811.578 536, 814.593 536 C 816.280 536, 820.386 529.787, 821.918 524.917 C 822.986 521.520, 834.384 508.770, 838.381 506.500 C 840.309 505.405, 841.100 501.856, 839.500 501.480 C 838.950 501.350, 837.702 501.449, 836.726 501.700 M 1012.345 504.250 C 1012.090 504.663, 1011.018 505, 1009.962 505 C 1007.364 505, 997.844 514.843, 994.204 521.292 C 992.249 524.756, 991.003 528.716, 990.515 533.012 C 990.110 536.580, 989.154 541.017, 988.390 542.872 C 986.614 547.180, 986.620 551.471, 988.404 554.285 C 990.833 558.117, 991.250 564.761, 989.940 578.756 C 988.671 592.307, 988.671 592.316, 990.906 594.125 C 994.454 596.998, 999.627 597.476, 1007.280 595.640 C 1012.974 594.273, 1015.213 593.082, 1020.125 588.810 C 1025.942 583.750, 1033 575.047, 1033 572.934 C 1033 572.350, 1034.154 569.349, 1035.564 566.266 C 1040.141 556.259, 1041.261 549.802, 1040.829 535.914 L 1040.434 523.248 1036.285 517.068 C 1031.876 510.502, 1025.832 505, 1023.029 505 C 1022.096 505, 1021.041 504.708, 1020.684 504.351 C 1019.764 503.431, 1012.901 503.348, 1012.345 504.250 M 672.290 512.459 C 664.310 518.146, 659.060 523.364, 655.479 529.165 C 651.985 534.826, 651.602 536.114, 651.554 542.372 C 651.517 547.063, 651.904 549.445, 652.750 549.736 C 653.438 549.973, 654 549.454, 654 548.583 C 654 547.712, 654.436 547, 654.969 547 C 655.501 547, 655.704 546.391, 655.418 545.648 C 654.939 544.399, 657.901 538.770, 663.703 529.907 C 664.996 527.931, 668.967 523.529, 672.527 520.125 C 678.917 514.014, 680.848 509.910, 677.250 510.086 C 676.288 510.133, 674.056 511.201, 672.290 512.459 M 958 513.133 C 956.075 513.657, 953.825 514.361, 953 514.697 C 952.175 515.033, 950.686 515.205, 949.690 515.081 C 948.695 514.956, 947.345 515.290, 946.690 515.822 C 946.036 516.354, 942.419 517.264, 938.652 517.844 C 927.688 519.532, 927.428 519.863, 926.670 533.103 C 926.307 539.450, 925.550 544.660, 924.936 545.039 C 924.337 545.410, 923.964 546.340, 924.107 547.106 C 924.251 547.873, 923.681 550.075, 922.842 552 C 922.002 553.925, 920.772 557.152, 920.107 559.170 C 919.442 561.189, 918.246 563.381, 917.449 564.042 C 916.652 564.704, 916 565.899, 916 566.699 C 916 567.499, 914.650 569.504, 913 571.154 C 911.350 572.804, 910 574.499, 910 574.920 C 910 575.722, 900.531 584, 899.615 584 C 899.326 584, 897.381 585.171, 895.294 586.601 C 885.057 593.620, 874.654 596.218, 856.966 596.173 C 838.551 596.126, 829.396 593.331, 818.448 584.414 C 811.273 578.570, 807.430 574.419, 805.044 569.933 C 804 567.971, 802.434 565.775, 801.563 565.052 C 800.692 564.330, 799.274 561.210, 798.412 558.119 C 797.549 555.029, 796.249 551.150, 795.524 549.500 C 794.798 547.850, 793.891 543.708, 793.509 540.295 C 793.097 536.618, 792.179 533.563, 791.254 532.795 C 789.104 531.010, 766.945 530.366, 763.059 531.975 C 759.756 533.344, 759.033 535.326, 759.014 543.062 C 758.995 550.578, 755.623 562.957, 751.983 568.873 C 750.342 571.540, 749 574.230, 749 574.852 C 749 576.763, 742.024 585.249, 736.422 590.152 C 731.973 594.047, 721.183 600.213, 717.500 600.966 C 716.950 601.078, 716.015 601.573, 715.422 602.065 C 713.921 603.310, 701.795 604.958, 694 604.975 C 688.170 604.987, 682.235 603.991, 678 602.288 C 677.175 601.956, 675.938 601.775, 675.250 601.886 C 674.563 601.997, 674 601.674, 674 601.169 C 674 600.663, 672.644 599.979, 670.987 599.647 C 667.379 598.926, 658.456 593.311, 655.076 589.636 C 653.742 588.186, 652.055 587, 651.326 587 C 649.781 587, 649.746 588.312, 650.955 600.811 C 651.674 608.247, 652.345 610.764, 654.284 613.311 C 655.620 615.065, 657.036 617.523, 657.431 618.774 C 657.827 620.025, 660.535 622.849, 663.449 625.049 C 667.277 627.940, 669.222 630.294, 670.461 633.536 C 672.387 638.581, 674.323 640, 679.279 640 C 683.066 640, 686 642.477, 686 645.674 C 686 648.890, 689.178 651, 694.024 651 C 697.377 651, 699.028 651.611, 701.136 653.630 C 705.736 658.037, 706.998 656.461, 707.015 646.281 C 707.023 641.147, 707.542 636.622, 708.265 635.386 C 708.944 634.223, 710.473 631.523, 711.662 629.386 C 712.851 627.249, 716.963 622.267, 720.800 618.316 C 728.016 610.885, 728.235 610.779, 738.862 609.632 C 741.581 609.338, 744.216 608.252, 745.862 606.746 C 751.820 601.295, 759.865 598.355, 761.516 601.027 C 761.865 601.591, 762.679 601.958, 763.325 601.843 C 763.971 601.727, 766.300 602.456, 768.500 603.463 C 774.684 606.294, 779.617 605.865, 782.958 602.207 C 786.433 598.402, 792.993 597.185, 801.053 598.850 C 804.115 599.483, 808.705 600, 811.253 600 C 814.250 600, 817.222 600.788, 819.670 602.233 C 822.514 603.911, 825.228 604.509, 830.600 604.641 C 839.583 604.862, 842.474 606.334, 850.898 614.979 C 859.297 623.596, 865.212 634.778, 865.820 643.187 C 866.051 646.384, 866.532 649, 866.888 649 C 867.244 649, 869.327 647.783, 871.516 646.296 C 874.740 644.104, 876.475 643.632, 880.660 643.807 C 885.683 644.018, 885.936 643.893, 889.895 639.262 C 893.940 634.530, 894.004 634.500, 900.206 634.479 C 905.999 634.460, 906.556 634.258, 907.973 631.662 C 908.815 630.121, 912.238 627.324, 915.603 625.429 C 920.056 622.921, 922.520 620.683, 924.716 617.149 C 927.223 613.116, 928.351 612.205, 931.453 611.701 C 936.465 610.888, 938 609.401, 938 605.358 C 938 601.166, 941.540 595.330, 948.635 587.824 C 953.801 582.359, 954 581.941, 954 576.577 C 954 571.568, 954.370 570.597, 957.658 566.956 C 961.190 563.047, 961.309 562.669, 961.095 556.052 C 960.952 551.652, 961.294 548.936, 962.049 548.469 C 962.697 548.069, 964.098 545.772, 965.163 543.365 C 966.890 539.461, 966.971 538.339, 965.913 532.965 C 965.262 529.652, 964.996 524.685, 965.322 521.926 C 965.968 516.472, 964.796 511.947, 962.775 512.090 C 962.074 512.140, 959.925 512.609, 958 513.133 M 623.193 526.207 C 622.537 526.863, 622 528.007, 622 528.750 C 622 529.492, 621.231 531.539, 620.292 533.300 C 619.352 535.060, 618.526 536.725, 618.456 537 C 618.385 537.275, 617.916 538.400, 617.414 539.500 C 616.911 540.600, 616.532 547.800, 616.571 555.500 C 616.641 569.276, 616.693 569.593, 619.821 575.352 C 621.569 578.570, 623 581.790, 623 582.507 C 623 583.224, 624.515 585.624, 626.366 587.839 C 630.893 593.258, 631.993 591.937, 632.024 581.050 C 632.038 576.348, 632.520 570.475, 633.097 568 C 634.149 563.481, 633.046 554.170, 630.905 549.500 C 630.401 548.400, 629.654 543.053, 629.244 537.618 C 628.613 529.235, 628.188 527.530, 626.443 526.375 C 624.850 525.320, 624.118 525.282, 623.193 526.207 M 135.500 618 C 111.787 618.565, 111.954 618.513, 103.464 627.906 L 99.500 632.292 99.187 657.718 C 98.959 676.253, 99.195 683.530, 100.059 684.572 C 101.080 685.801, 130.324 686, 310.063 686 C 448.197 686, 519.091 686.338, 519.500 687 C 520.431 688.507, 553.279 688.321, 554.800 686.800 C 555.658 685.942, 556 679.548, 556 664.365 C 556 652.686, 556.433 641.992, 556.962 640.601 C 557.578 638.981, 557.578 637.857, 556.962 637.476 C 556.433 637.149, 556 635.961, 556 634.835 C 556 633.710, 554.875 631.452, 553.500 629.818 C 552.125 628.184, 551 626.212, 551 625.436 C 551 624.660, 549.087 622.812, 546.750 621.329 C 543.231 619.097, 541.124 618.577, 534.500 618.302 C 521.006 617.742, 157.877 617.467, 135.500 618 M 802.621 637.084 C 798.531 640.301, 792.023 640.735, 787.015 638.125 C 781.792 635.403, 780.137 635.452, 774.404 638.500 C 771.273 640.165, 768.101 641, 764.910 641 C 755.377 641, 758.439 645.984, 769.115 647.846 C 778.316 649.451, 782.120 649.307, 793.545 646.922 C 804.147 644.708, 810.500 641.137, 810.500 637.390 C 810.500 634.603, 805.997 634.428, 802.621 637.084 M 184 638 C 182.732 639.100, 181.246 640, 180.698 640 C 178.313 640, 172.780 647.222, 172.274 650.996 C 171.506 656.722, 172.455 659.149, 177.491 664.331 C 181.799 668.764, 182.305 669, 187.480 669 C 192.186 669, 193.447 668.556, 196.715 665.750 C 201.257 661.850, 202.971 659.762, 202.395 658.830 C 202.160 658.450, 202.425 657.856, 202.984 657.510 C 204.296 656.699, 204.309 650.309, 203 649.500 C 202.450 649.160, 202 648.093, 202 647.128 C 202 645.107, 198.107 641.277, 192.882 638.159 C 188.404 635.487, 186.928 635.460, 184 638 M 136.922 638.823 C 123.962 647.255, 122.343 656.381, 132.165 665.647 C 138.479 671.604, 146.704 670.960, 153.526 663.974 C 157.375 660.032, 157.500 659.688, 157.500 653.057 C 157.500 645.022, 156.243 643.099, 148.563 639.386 C 142.835 636.618, 140.487 636.504, 136.922 638.823 M 228 639.274 C 222.548 642.477, 218.813 647.474, 218.276 652.282 C 217.878 655.842, 218.327 657.280, 221.152 661.500 C 227.544 671.046, 236.441 672.392, 244.355 665.010 C 248.311 661.320, 248.386 661.121, 248.442 654.182 C 248.497 647.427, 248.345 646.952, 245.008 643.508 C 238.525 636.819, 234.066 635.709, 228 639.274 M 826.357 638.513 C 826.037 639.345, 826.332 640.695, 827.011 641.513 C 827.948 642.643, 827.958 643, 827.051 643 C 826.376 643, 825.991 644.024, 826.165 645.354 C 826.668 649.191, 821.439 655.652, 815.621 658.382 C 809.292 661.351, 806.791 662.361, 805.500 662.469 C 804.950 662.515, 803.939 662.904, 803.253 663.333 C 802.567 663.763, 797.392 664.532, 791.753 665.043 C 786.114 665.555, 778.543 666.259, 774.928 666.609 C 768.368 667.244, 758.292 665.285, 755.250 662.783 C 754.563 662.218, 754 662.043, 754 662.394 C 754 663.219, 743.746 656.178, 742.731 654.656 C 742.307 654.020, 742.051 651.130, 742.163 648.233 C 742.384 642.506, 741.234 640.453, 738.351 641.426 C 734.222 642.819, 732.481 647.017, 732.783 654.854 C 733.250 667, 740.318 677.312, 750.442 680.619 C 753.224 681.528, 756.770 682.913, 758.322 683.698 C 761.819 685.467, 764 684.059, 764 680.033 C 764 674.521, 770.357 671.464, 783.500 670.655 C 795.529 669.914, 797.787 670.802, 800.034 677.160 L 801.568 681.500 811.034 681.544 L 820.500 681.588 827.056 676.813 C 835.013 671.017, 836.569 668.023, 837.513 656.691 C 838.295 647.295, 837.833 645.824, 832.183 639.750 C 829.331 636.683, 827.230 636.237, 826.357 638.513 M 914.987 712.515 C 914.257 713.395, 912.273 714.768, 910.580 715.566 C 907.570 716.983, 903.851 719.431, 897.205 724.370 C 895.297 725.789, 890.667 727.522, 886.205 728.490 C 873.530 731.238, 871.001 732.210, 868.359 735.350 C 865.940 738.225, 865.420 738.372, 855.668 738.938 C 848.270 739.367, 844.770 740.019, 842.821 741.332 C 841.073 742.510, 836.901 743.452, 830.821 744.042 C 825.694 744.540, 819.928 745.409, 818.007 745.974 C 816.085 746.538, 812.849 747, 810.816 747 C 808.782 747, 806.840 747.450, 806.500 748 C 805.786 749.155, 784.341 749.391, 783.833 748.250 C 783.650 747.837, 781.356 746.766, 778.736 745.869 C 773.583 744.105, 771.749 744.961, 774.402 747.892 C 775.281 748.863, 776 750.022, 776 750.468 C 776 750.915, 776.788 751.895, 777.750 752.648 C 780.829 755.056, 789.230 760.500, 789.876 760.506 C 790.219 760.509, 792.075 761.476, 794 762.654 C 799.443 765.987, 808.157 767.300, 824.500 767.252 C 842.561 767.199, 851.940 765.166, 865.224 758.426 C 870.023 755.992, 874.483 754, 875.137 754 C 881.125 754, 911.011 726.936, 916.422 716.612 C 918.541 712.570, 917.473 709.520, 914.987 712.515 M 193.580 777.710 L 150.660 778.022 147.277 780.602 C 144.277 782.891, 143.928 783.642, 144.197 787.241 C 144.428 790.331, 145.174 791.801, 147.323 793.400 C 150.118 795.479, 150.746 795.500, 210.823 795.500 C 244.195 795.500, 272.703 795.163, 274.172 794.750 C 276.034 794.228, 277.192 792.948, 277.990 790.529 C 279.377 786.326, 277.978 782.775, 273.680 779.590 C 270.436 777.186, 269.352 777.161, 193.580 777.710 M 562 828.079 C 547.423 829.159, 539.740 830.646, 538.250 832.678 C 535.413 836.547, 537.090 838.464, 544.500 839.824 C 547.800 840.429, 554.931 841.842, 560.347 842.962 C 565.762 844.083, 572.373 845, 575.038 845 C 577.702 845, 580.119 845.383, 580.408 845.851 C 580.697 846.318, 585.694 847.009, 591.512 847.385 C 597.330 847.761, 604.407 848.508, 607.237 849.045 C 612.251 849.996, 612.470 849.937, 615.768 846.760 C 618.836 843.806, 624 834.751, 624 832.328 C 624 831.789, 622.958 830.370, 621.686 829.174 C 619.435 827.060, 618.725 827.004, 595.936 827.151 C 583.046 827.234, 567.775 827.652, 562 828.079 M 148.400 851.428 C 144.837 852.979, 144 854.618, 144 860.046 C 144 863.409, 144.499 864.267, 147.732 866.464 L 151.464 869 195.982 868.996 C 238.691 868.993, 240.633 868.912, 243.770 866.999 C 250.341 862.992, 250.438 855.031, 243.956 851.752 C 240.816 850.163, 236.427 850.007, 196 850.041 C 160.911 850.070, 150.844 850.364, 148.400 851.428 M 577.070 865.957 C 576.257 866.459, 575.780 882.781, 575.384 923.615 C 574.733 990.927, 573.803 985.630, 585.970 983.898 C 590.078 983.314, 594.353 982.326, 595.470 981.703 C 596.586 981.080, 597.725 980.523, 598 980.464 C 601.419 979.734, 615.005 972.764, 619.430 969.470 C 621.669 967.804, 625.709 965.104, 628.410 963.470 C 631.110 961.837, 634.868 959.038, 636.760 957.250 C 638.652 955.462, 640.417 954, 640.682 954 C 640.947 954, 643.145 952.087, 645.566 949.750 C 650.736 944.758, 651.163 941.902, 647.488 936.911 C 646.106 935.035, 643.390 931.337, 641.452 928.694 C 639.513 926.051, 637.667 922.586, 637.349 920.995 C 637.031 919.404, 635.922 917.334, 634.885 916.396 C 633.848 915.458, 633 914.152, 633 913.494 C 633 911.651, 624.020 900.231, 616.899 893.019 C 610.020 886.053, 607.432 882.426, 603.570 874.341 C 601.574 870.162, 600.504 869.050, 597.936 868.486 C 595.458 867.942, 594.316 868.240, 592.702 869.853 C 590.905 871.651, 590.778 872.369, 591.715 875.423 C 592.558 878.170, 592.498 879.171, 591.439 880.050 C 589.250 881.867, 588.280 880.387, 587.790 874.483 C 587.537 871.429, 586.860 868.460, 586.287 867.887 C 584.844 866.444, 578.449 865.105, 577.070 865.957 M 150.292 921.403 C 144.545 924.001, 142.337 928.479, 144.386 933.382 C 145.181 935.283, 146.739 937.325, 147.850 937.920 C 149.233 938.660, 169.131 939, 211.033 939 L 272.198 939 275.099 935.894 C 278.125 932.655, 278.754 929.112, 277.083 924.718 C 275.305 920.041, 271.046 919.685, 222.979 920.197 C 198.790 920.455, 178.820 920.487, 178.601 920.267 C 178.382 920.048, 172.869 919.786, 166.351 919.685 C 156.571 919.532, 153.764 919.833, 150.292 921.403" stroke="none" fill="#171916" fill-rule="evenodd"/>
</svg>