<svg role="img" aria-labelledby="artwork-title" shape-rendering="geometricPrecision" xmlns="http://www.w3.org/2000/svg" width="1200" height="1200" viewBox="0 0 1200 1200" version="1.1">
	<title id="artwork-title">Mascot connecting code blocks</title>
	<path d="M 822.604 179.832 C 822.118 180.618, 814.275 182.148, 803.773 183.505 C 801.174 183.841, 798.806 184.504, 798.513 184.979 C 798.219 185.454, 795.846 186.636, 793.240 187.606 C 787.875 189.601, 783.655 192.756, 774.323 201.750 C 770.756 205.188, 767.236 208, 766.501 208 C 763.903 208, 761.837 206.702, 761.021 204.556 C 760.512 203.217, 758.580 201.852, 755.980 200.993 C 753.661 200.228, 750.715 198.777, 749.432 197.768 C 743.723 193.277, 708.247 193.338, 702 197.850 C 700.625 198.843, 697.994 200.175, 696.153 200.810 C 692.925 201.922, 689.720 204.324, 681.763 211.588 C 679.707 213.465, 677.570 215, 677.013 215 C 676.456 215, 676 215.613, 676 216.362 C 676 217.112, 674.681 219.385, 673.068 221.414 C 671.456 223.443, 669.868 226.325, 669.540 227.818 C 668.895 230.755, 663.648 236.952, 661.699 237.077 C 661.040 237.120, 654.875 237.099, 648 237.032 C 637.044 236.925, 635.006 237.172, 631.500 239.030 C 629.300 240.196, 625.587 241.747, 623.249 242.478 C 618.354 244.006, 614.534 246.897, 605.382 256 C 598.466 262.880, 593.464 271.453, 590.582 281.367 C 589.697 284.409, 588.530 287.173, 587.987 287.508 C 586.302 288.550, 586.830 299.542, 588.724 302.842 C 590.372 305.712, 590.364 305.940, 588.564 307.930 C 587.527 309.075, 586.477 309.810, 586.230 309.563 C 585.982 309.316, 584.105 310.171, 582.058 311.464 C 580.010 312.756, 576.600 314.292, 574.480 314.878 C 570.510 315.974, 569.241 316.966, 560.891 325.500 C 555.922 330.579, 550 340.652, 550 344.027 C 550 345.047, 549.511 346.184, 548.913 346.554 C 548.315 346.923, 548.048 348.074, 548.319 349.112 C 548.590 350.149, 548.456 351.218, 548.022 351.487 C 547.587 351.755, 546.668 354.962, 545.979 358.613 C 544.966 363.979, 544.975 366.567, 546.024 372.125 C 546.737 375.906, 547.685 379, 548.129 379 C 548.574 379, 548.667 379.705, 548.336 380.567 C 548.005 381.430, 548.188 383.117, 548.743 384.317 C 549.297 385.518, 550.254 387.625, 550.869 389 C 552.972 393.700, 555.904 398.290, 558.606 401.111 C 562.290 404.956, 562.241 410.208, 558.461 416.650 C 555.771 421.235, 555.612 422.159, 555.558 433.559 C 555.506 444.373, 555.758 446.178, 558 451.059 C 559.375 454.051, 560.812 456.642, 561.194 456.815 C 561.575 456.988, 561.655 457.734, 561.372 458.474 C 561.073 459.253, 561.751 460.104, 562.985 460.495 C 564.156 460.867, 565.843 462.701, 566.735 464.571 C 567.914 467.042, 569.551 468.427, 572.731 469.641 C 578.926 472.007, 579.886 473.751, 578.674 480.439 C 577.165 488.760, 578.968 498.855, 583.722 508.708 L 587.681 516.916 584.474 520.025 C 582.709 521.735, 580.646 524.342, 579.889 525.817 C 579.131 527.293, 577.271 530.255, 575.756 532.400 C 574.240 534.545, 573 537.371, 573 538.680 C 573 539.989, 571.875 543.733, 570.500 547 C 568.286 552.261, 568.002 554.344, 568.021 565.220 C 568.039 575.698, 568.405 578.527, 570.517 584.500 C 571.878 588.350, 572.993 592.133, 572.996 592.906 C 572.998 593.679, 574.146 595.813, 575.546 597.649 C 576.946 599.485, 578.683 602.952, 579.406 605.353 C 580.129 607.755, 581.570 610.736, 582.610 611.977 C 587.636 617.979, 599.178 629, 600.438 629 C 601.219 629, 603.423 630.477, 605.337 632.281 C 608.675 635.429, 608.845 635.938, 609.541 644.838 C 610.095 651.912, 610.788 654.883, 612.464 657.352 C 615.184 661.359, 617 666.433, 617 670.022 C 617 674.563, 620.968 682.072, 627.185 689.295 C 630.426 693.061, 633.346 697.479, 633.673 699.113 C 634.562 703.561, 646.887 716.303, 652.300 718.370 C 654.812 719.330, 657.253 721.104, 658.012 722.523 C 658.741 723.885, 659.700 725, 660.143 725 C 660.586 725, 661.599 726.258, 662.395 727.796 C 663.834 730.580, 672.917 736, 676.142 736 C 677.029 736, 678.315 736.675, 679 737.500 C 680.695 739.542, 678.865 741.668, 674.681 742.518 C 667.362 744.005, 657.619 748.703, 652.300 753.310 C 643.026 761.342, 646.439 760.832, 608 759.926 C 589.025 759.479, 564.725 758.636, 554 758.054 C 519.659 756.187, 503.234 756.267, 497.500 758.329 C 487.334 761.984, 483.172 765.440, 475.026 776.992 C 472.904 780.002, 472.501 781.848, 472.190 790 C 471.990 795.225, 471.416 799.928, 470.913 800.450 C 470.411 800.972, 470 812.266, 470 825.546 C 470 857.850, 470.214 858.251, 488 859.305 C 498.104 859.903, 512.075 863.725, 512.869 866.107 C 513.111 866.832, 514.701 868.862, 516.404 870.618 C 525.367 879.862, 525.500 880.188, 525.500 893 C 525.500 904.458, 525.450 904.715, 522.500 908.357 C 509.714 924.143, 504.996 926.935, 489.805 927.704 C 478.503 928.277, 474.263 929.915, 468.558 935.916 C 465.794 938.823, 465.568 939.691, 464.815 950.255 C 463.390 970.265, 462.385 1003.418, 463.111 1006.500 C 463.499 1008.150, 464.101 1011.173, 464.448 1013.218 C 465.485 1019.332, 466.834 1020, 478.137 1020 C 483.634 1020, 489.002 1019.534, 490.066 1018.965 C 492.895 1017.450, 492.418 1014.745, 488.976 1012.787 C 487.320 1011.844, 485.661 1010.269, 485.289 1009.287 C 484.916 1008.304, 484.024 1006.905, 483.306 1006.179 C 481.744 1004.598, 481.563 998.388, 483.052 997.468 C 483.705 997.065, 484.039 992.477, 483.934 985.360 C 483.840 979.059, 484.042 973.625, 484.382 973.285 C 484.722 972.945, 485 967.117, 485 960.333 L 485 948 491.941 948 C 495.759 948, 499.134 947.592, 499.442 947.094 C 499.750 946.596, 500.904 946.424, 502.006 946.712 C 503.109 947, 504.634 946.719, 505.395 946.087 C 506.157 945.455, 509.500 943.872, 512.825 942.569 C 516.149 941.266, 519.883 939.255, 521.123 938.100 C 522.363 936.945, 523.855 935.971, 524.439 935.935 C 526.336 935.819, 538.465 920.941, 539.738 917.168 C 540.419 915.151, 541.754 912.150, 542.706 910.500 C 544.035 908.197, 544.528 904.462, 544.829 894.420 C 545.212 881.680, 545.144 881.161, 542.222 874.420 C 540.573 870.614, 538.914 866.476, 538.536 865.223 C 538.158 863.971, 536.757 862.232, 535.424 861.358 C 534.091 860.485, 533 859.240, 533 858.593 C 533 856.223, 524.312 849.108, 517.500 845.900 C 513.650 844.086, 510.275 842.572, 510 842.536 C 509.725 842.499, 508.863 842.066, 508.085 841.574 C 507.307 841.081, 503.387 840.468, 499.374 840.210 C 494.358 839.888, 491.630 839.235, 490.649 838.121 C 489.439 836.747, 489.367 832.710, 490.174 811.582 C 491.068 788.203, 491.262 786.496, 493.313 783.955 C 494.516 782.465, 496.357 780.694, 497.404 780.018 C 499.582 778.614, 518.918 777.058, 519.641 778.228 C 519.903 778.653, 526.729 779.016, 534.809 779.035 C 553.323 779.079, 590.621 780.423, 630 782.466 C 646.775 783.336, 673.031 784.315, 688.348 784.641 L 716.196 785.233 719.527 788.158 C 721.359 789.767, 724.015 793.057, 725.429 795.470 C 727.917 799.715, 728 800.402, 728 816.857 C 728 837.805, 728.623 836.815, 714.500 838.325 C 712.300 838.560, 708.700 839.555, 706.500 840.536 C 704.300 841.517, 702.275 842.387, 702 842.470 C 700.649 842.879, 694.132 846.216, 691.258 847.971 C 686.775 850.708, 682.214 855.962, 681.467 859.249 C 681.123 860.761, 679.887 862.667, 678.719 863.484 C 677.030 864.667, 676.515 866.261, 676.195 871.285 C 675.834 876.944, 676.064 877.922, 678.401 880.700 C 682.659 885.760, 682.742 888.923, 678.743 893.709 C 675.986 897.009, 675.061 899.297, 674.017 905.401 C 672.843 912.262, 672.897 913.543, 674.580 918.745 C 675.791 922.489, 676.468 927.645, 676.519 933.500 C 676.621 945.139, 676.245 943.927, 681.962 951.050 L 686.924 957.233 686.805 965.384 C 686.658 975.444, 688.156 978.966, 695.560 985.968 C 702.209 992.257, 709.859 995.977, 716.168 995.990 C 722.837 996.004, 723.823 996.636, 724.530 1001.349 C 725.096 1005.125, 724.340 1008.651, 721.577 1015.121 C 721.167 1016.082, 721.549 1017.406, 722.514 1018.371 C 723.978 1019.835, 729.487 1020, 776.961 1020 C 827.218 1020, 829.891 1019.909, 832.107 1018.115 C 834.103 1016.498, 834.244 1015.999, 833.095 1014.615 C 832.358 1013.727, 830.985 1013, 830.044 1013 C 829.103 1013, 827.996 1012.663, 827.583 1012.250 C 827.171 1011.837, 826.456 1011.500, 825.994 1011.500 C 824.805 1011.500, 817.194 1005.932, 814.717 1003.250 C 813.574 1002.013, 812.158 1000.997, 811.570 1000.994 C 810.981 1000.990, 809.202 1000.311, 807.615 999.483 C 805.278 998.264, 804.442 998.218, 803.211 999.239 C 801.022 1001.056, 774.874 1000.970, 772.668 999.139 C 771.788 998.409, 770.490 998.008, 769.784 998.248 C 769.078 998.489, 766.821 997.631, 764.770 996.343 C 762.718 995.054, 760.787 994, 760.477 994 C 759.046 994, 749.086 985.847, 748.584 984.264 C 748.272 983.283, 745.876 981.469, 743.259 980.232 C 739.228 978.327, 736.818 977.982, 727.500 977.975 C 714.293 977.966, 709.771 976.111, 707.228 969.661 C 705.863 966.197, 705.873 965.490, 707.331 962.432 C 708.446 960.093, 709.424 959.226, 710.486 959.633 C 711.333 959.958, 712.591 959.754, 713.283 959.180 C 713.974 958.606, 719.098 957.724, 724.669 957.220 C 736.437 956.154, 741.311 954.016, 741.817 949.699 C 742.268 945.844, 738.673 941.281, 734.207 940.041 C 728.564 938.474, 716.580 938.800, 709.388 940.716 C 703.388 942.315, 702.763 942.319, 700.224 940.779 C 696.413 938.467, 696.278 932.174, 700 930.355 C 709.344 925.790, 712.980 924.996, 726.562 924.555 C 739.014 924.151, 740.468 923.909, 742.626 921.881 C 744.063 920.532, 745 918.510, 745 916.760 C 745 913.569, 743.432 910, 742.030 910 C 741.535 910, 739.863 909.475, 738.315 908.834 C 736.767 908.192, 735.200 907.630, 734.833 907.584 C 734.467 907.538, 733.829 907.163, 733.417 906.750 C 732.292 905.625, 713 905.832, 713 906.969 C 713 907.501, 712.295 907.667, 711.433 907.336 C 710.570 907.005, 708.883 907.224, 707.683 907.822 C 704.514 909.402, 697.879 912, 697.013 912 C 696.604 912, 695.108 911.086, 693.687 909.969 L 691.105 907.937 693.160 904.453 C 694.907 901.492, 702.849 894.681, 704.862 894.416 C 705.213 894.370, 706.715 893.827, 708.199 893.210 C 712.789 891.302, 727.952 889.737, 735.061 890.437 C 747.259 891.639, 752.313 887.398, 748.349 879.286 C 745.694 873.851, 741.676 872.726, 724.500 872.606 C 711.738 872.518, 710.148 872.708, 706.515 874.755 C 698.896 879.047, 694.080 876.693, 696.097 869.662 C 697.291 865.497, 698.457 864.436, 705.840 860.790 L 712.500 857.500 733 857.179 C 748.594 856.934, 755.056 857.216, 760 858.355 C 771.654 861.041, 781.402 864.529, 786.500 867.836 C 789.250 869.620, 792.513 871.335, 793.750 871.648 C 794.987 871.961, 796 872.588, 796 873.041 C 796 873.494, 796.887 874.147, 797.971 874.491 C 800.729 875.366, 818.685 893.428, 819.563 896.212 C 819.961 897.470, 821.119 899.225, 822.136 900.111 C 823.154 900.997, 824.655 903.324, 825.473 905.282 C 827.660 910.515, 832.513 917.365, 836.537 920.898 C 839.412 923.423, 840.941 924, 844.752 924 C 847.327 924, 853.948 925.082, 859.467 926.405 C 864.985 927.727, 872.702 929.291, 876.616 929.879 C 880.530 930.467, 885.030 931.484, 886.616 932.140 C 888.202 932.796, 889.725 933.409, 890 933.503 C 890.275 933.596, 891.175 933.943, 892 934.274 C 892.825 934.605, 897.423 935.368, 902.218 935.971 C 907.012 936.573, 912.862 937.747, 915.218 938.581 C 917.573 939.414, 924.450 940.555, 930.500 941.117 C 941.095 942.101, 950.141 944.188, 952.744 946.250 C 953.429 946.792, 955.116 947.020, 956.494 946.756 C 957.872 946.493, 959 946.665, 959 947.139 C 959 947.612, 961.032 948, 963.515 948 C 965.998 948, 970.641 948.726, 973.833 949.613 C 979.445 951.174, 979.773 951.157, 983.818 949.093 C 987.684 947.120, 988 946.655, 988 942.923 C 988 939.654, 987.389 938.329, 984.784 935.949 C 983.015 934.334, 981.102 933.100, 980.534 933.209 C 979.965 933.317, 977.250 932.386, 974.500 931.139 C 969.110 928.694, 960.335 926.675, 958.916 927.552 C 958.435 927.849, 957.091 927.584, 955.930 926.962 C 954.122 925.995, 953.886 925.162, 954.293 921.166 C 954.554 918.600, 955.648 914.041, 956.724 911.036 C 958.305 906.621, 959.309 905.316, 961.954 904.237 C 966.626 902.331, 990.221 901.447, 999.168 902.843 C 1003.200 903.473, 1011.397 904.435, 1017.382 904.981 C 1023.367 905.527, 1028.880 906.485, 1029.632 907.110 C 1030.384 907.734, 1031 907.954, 1031 907.599 C 1031 907.244, 1032.047 907.640, 1033.328 908.479 C 1034.608 909.318, 1038.320 910.488, 1041.578 911.079 C 1044.835 911.671, 1049.300 913.181, 1051.500 914.435 C 1053.700 915.690, 1056.749 917.017, 1058.275 917.384 C 1059.802 917.751, 1061.858 918.858, 1062.844 919.844 C 1063.831 920.831, 1066.583 922.416, 1068.959 923.367 C 1077.619 926.832, 1083.044 932.884, 1080.777 936.553 C 1080.431 937.112, 1079.640 942.279, 1079.019 948.035 C 1077.330 963.700, 1070.901 991.916, 1068.263 995.238 C 1067.712 995.932, 1066.690 998.300, 1065.993 1000.500 C 1065.296 1002.700, 1063.437 1007.075, 1061.863 1010.221 C 1058.503 1016.937, 1058.581 1016.438, 1060.571 1018.429 C 1061.733 1019.590, 1064.189 1020, 1069.987 1020 L 1077.832 1020 1080.878 1016.154 C 1083.850 1012.402, 1091 994.583, 1091 990.930 C 1091 987.277, 1093.204 978.939, 1094.516 977.626 C 1095.990 976.153, 1097.505 968.479, 1098.533 957.292 C 1099.221 949.792, 1099.838 948.702, 1104 947.634 C 1105.375 947.281, 1108.417 945.306, 1110.760 943.246 L 1115.020 939.500 1117.098 925.500 C 1119.792 907.341, 1120.421 895.833, 1119.092 889 C 1118.503 885.975, 1117.130 874.179, 1116.040 862.788 C 1114.881 850.672, 1113.410 840.524, 1112.497 838.338 C 1111.638 836.283, 1110.546 831.854, 1110.071 828.497 C 1109.552 824.830, 1108.225 820.947, 1106.748 818.770 C 1105.396 816.777, 1103.754 812.428, 1103.100 809.105 C 1102.447 805.782, 1101.458 802.783, 1100.903 802.440 C 1100.348 802.097, 1098.796 799.495, 1097.454 796.658 C 1096.112 793.821, 1092.761 788.365, 1090.007 784.533 C 1087.253 780.701, 1085 777.248, 1085 776.860 C 1085 776.471, 1083.646 774.657, 1081.992 772.827 C 1076.580 766.842, 1075.309 765.248, 1074.717 763.705 C 1074.396 762.868, 1071.291 759.827, 1067.817 756.947 C 1064.342 754.066, 1061.367 751.165, 1061.205 750.499 C 1061.042 749.834, 1059.692 748.662, 1058.205 747.895 C 1056.717 747.128, 1052.876 744.475, 1049.668 742 C 1040.079 734.601, 1030.690 729, 1027.878 729 C 1027.395 729, 1027 728.550, 1027 728 C 1027 727.450, 1026.325 727, 1025.500 727 C 1024.675 727, 1024 726.523, 1024 725.941 C 1024 725.359, 1023.550 725.160, 1023 725.500 C 1022.450 725.840, 1022 725.641, 1022 725.059 C 1022 724.477, 1021.362 724, 1020.581 724 C 1019.801 724, 1015.876 722.425, 1011.860 720.500 C 1007.843 718.575, 1003.994 717, 1003.306 717 C 1002.618 717, 999.552 715.815, 996.494 714.367 C 993.435 712.919, 990.652 712.015, 990.308 712.358 C 989.965 712.702, 989.193 712.588, 988.592 712.105 C 986.975 710.806, 961.065 703.190, 957 702.819 C 954.038 702.549, 953.452 702.085, 953.189 699.801 C 952.932 697.576, 953.602 696.645, 957.012 694.493 C 963.384 690.470, 969.847 683.179, 973.584 675.798 C 975.450 672.112, 978.332 667.553, 979.988 665.666 C 981.645 663.779, 983 661.928, 983 661.551 C 983 661.175, 984.090 659.434, 985.422 657.683 C 986.754 655.932, 988.166 653.150, 988.560 651.500 C 988.954 649.850, 989.680 647.985, 990.173 647.355 C 990.666 646.726, 990.971 645.826, 990.849 645.355 C 990.728 644.885, 991.387 642.758, 992.314 640.628 C 993.241 638.498, 994 635.516, 994 634 C 994 629.536, 995.937 628.799, 1008.234 628.584 C 1018.510 628.405, 1019.983 628.134, 1025 625.503 C 1028.025 623.917, 1033.130 620.567, 1036.343 618.060 C 1039.557 615.552, 1043.262 612.791, 1044.575 611.925 C 1045.889 611.058, 1047.985 608.951, 1049.232 607.242 C 1050.479 605.533, 1053.323 601.742, 1055.552 598.817 C 1061.191 591.417, 1065.727 583, 1066.558 578.393 C 1066.945 576.252, 1067.668 573.985, 1068.165 573.355 C 1068.663 572.726, 1068.982 571.826, 1068.874 571.355 C 1068.765 570.885, 1069.232 569.150, 1069.910 567.500 C 1073.942 557.693, 1073.943 540.314, 1069.912 530.500 C 1069.234 528.850, 1068.763 526.971, 1068.866 526.325 C 1068.969 525.679, 1068.591 524.865, 1068.027 524.516 C 1067.462 524.167, 1067 522.844, 1067 521.576 C 1067 520.307, 1066.164 518.197, 1065.141 516.885 C 1064.119 515.573, 1062.590 513.150, 1061.744 511.500 C 1060.897 509.850, 1057.895 506.025, 1055.071 503 C 1052.248 499.975, 1049.690 496.536, 1049.388 495.358 C 1049.035 493.986, 1050.155 490.775, 1052.501 486.430 C 1054.795 482.182, 1055.997 478.767, 1055.717 477.298 C 1055.470 476.008, 1055.658 474.711, 1056.134 474.417 C 1057.355 473.663, 1057.218 458.253, 1055.984 457.490 C 1055.425 457.144, 1055.238 456.423, 1055.570 455.887 C 1055.901 455.351, 1055.745 454.370, 1055.224 453.706 C 1051.906 449.486, 1053.257 443.939, 1058.911 438.563 C 1060.610 436.948, 1062 435.105, 1062 434.468 C 1062 433.832, 1063.124 432.004, 1064.499 430.406 C 1065.873 428.807, 1066.998 426.514, 1066.999 425.309 C 1066.999 424.104, 1067.489 422.816, 1068.087 422.446 C 1068.685 422.077, 1068.952 420.925, 1068.681 419.887 C 1068.409 418.849, 1068.534 418, 1068.957 418 C 1069.380 418, 1070.298 415.310, 1070.995 412.023 C 1072.313 405.813, 1071.819 398.084, 1069.794 393.211 C 1069.175 391.720, 1068.591 390.275, 1068.497 390 C 1067.619 387.418, 1066.300 384.461, 1063.370 378.500 C 1060.024 371.694, 1059.090 370.733, 1049.750 364.484 C 1045.994 361.971, 1045.035 359.365, 1047.104 357.296 C 1048.471 355.929, 1051.976 338.913, 1051.990 333.578 C 1052.009 326.159, 1048.899 313.014, 1045.519 306.229 C 1040.194 295.541, 1025.078 281.175, 1016.815 278.950 C 1014.700 278.381, 1011.439 277.012, 1009.568 275.908 C 1006.672 274.199, 1004.579 273.926, 995.468 274.072 C 988.019 274.191, 984.541 273.875, 984.021 273.034 C 983.610 272.369, 983.035 268.340, 982.743 264.081 C 982.377 258.736, 981.496 254.967, 979.901 251.918 C 978.630 249.488, 977.570 247.219, 977.545 246.876 C 977.442 245.447, 970.352 235.174, 966.590 231 C 961.631 225.500, 952.817 217.850, 952.177 218.490 C 951.919 218.748, 949.885 217.618, 947.657 215.979 C 945.429 214.341, 942.457 212.995, 941.053 212.988 C 939.649 212.982, 936.025 212.312, 933 211.500 C 925.758 209.556, 920.891 209.647, 906.666 211.993 C 896.695 213.638, 894.536 214.320, 892.960 216.324 C 891.529 218.143, 890.213 218.664, 887.366 218.541 C 883.910 218.391, 883.423 217.967, 880.571 212.629 C 877.538 206.950, 869.148 196.020, 867.811 196.007 C 867.432 196.003, 865.042 194.200, 862.500 192 C 859.958 189.800, 857.251 188, 856.484 188 C 855.716 188, 853.431 186.875, 851.405 185.500 C 849.379 184.125, 846.321 183.001, 844.610 183.001 C 839.151 183.004, 825 180.728, 825 179.848 C 825 178.757, 823.275 178.745, 822.604 179.832 M 811 202.866 C 807.105 203.700, 795.287 209.270, 790.210 212.665 C 788.400 213.875, 785.376 216.583, 783.490 218.683 C 769.496 234.260, 767.878 243.110, 781.509 229.523 C 785.676 225.369, 790.754 220.857, 792.793 219.496 C 794.832 218.135, 797.486 216.304, 798.691 215.428 C 801.465 213.410, 813.785 210.058, 821.078 209.336 C 829.931 208.460, 850.001 213.954, 851.416 217.641 C 851.729 218.458, 852.395 218.874, 852.895 218.565 C 853.703 218.065, 855.990 219.884, 863.754 227.201 C 867.344 230.584, 867.478 228.579, 864.061 222.607 C 860.804 216.914, 856.124 212.586, 848.753 208.451 C 846.414 207.138, 843.150 205.291, 841.500 204.345 C 838.191 202.448, 817.612 201.450, 811 202.866 M 708 217.535 C 708 218.760, 708.404 218.854, 710 218 C 711.100 217.411, 712 216.720, 712 216.465 C 712 216.209, 711.100 216, 710 216 C 708.869 216, 708 216.667, 708 217.535 M 699.482 220.945 C 698.372 221.395, 695.962 223.167, 694.126 224.882 C 692.291 226.597, 690.386 228, 689.894 228 C 689.402 228, 689 228.538, 689 229.196 C 689 229.854, 687.909 231.992, 686.575 233.946 C 683.734 238.109, 683.010 241.121, 684.708 241.715 C 685.372 241.948, 686.549 240.645, 687.323 238.819 C 688.730 235.502, 692.746 231.414, 700.750 225.155 C 703.087 223.328, 705 221.420, 705 220.916 C 705 219.809, 702.247 219.824, 699.482 220.945 M 912.998 232.094 C 902.635 232.690, 900.880 233.078, 895.279 236.014 C 888.584 239.524, 885.446 242.294, 886.406 243.848 C 887.037 244.868, 888.804 244.865, 890.500 243.839 C 891.050 243.507, 892.919 242.931, 894.652 242.560 C 896.386 242.188, 899.519 241.010, 901.614 239.942 C 907.718 236.830, 921.939 237.196, 930.730 240.692 C 940.319 244.505, 951.354 253.099, 954.376 259.107 C 956.224 262.781, 958 262.603, 958 258.744 C 958 254.935, 954.875 250.019, 948.500 243.801 C 944.077 239.487, 932.153 233, 928.645 233 C 927.410 233, 925.972 232.647, 925.450 232.216 C 924.928 231.785, 919.324 231.730, 912.998 232.094 M 637.268 258.842 C 636.295 259.580, 633.250 261.268, 630.500 262.593 C 625.005 265.240, 620 269.144, 620 270.783 C 620 271.361, 619.659 271.983, 619.243 272.167 C 616.992 273.157, 611.444 281.989, 608.865 288.688 C 606.599 294.571, 605.980 297.657, 606.205 301.929 C 606.552 308.484, 608.272 308.952, 609.028 302.696 C 609.318 300.293, 610.443 297.069, 611.528 295.531 C 614.935 290.702, 615.970 288.568, 615.985 286.345 C 616.002 283.967, 620.028 278.778, 627.151 271.955 C 635.991 263.488, 641.549 261.178, 653.323 261.076 C 660.795 261.012, 662.097 260.759, 661.823 259.426 C 661.381 257.276, 640.001 256.767, 637.268 258.842 M 982 293.954 L 978.500 294.737 982.083 294.868 C 984.054 294.941, 985.981 295.315, 986.366 295.699 C 986.750 296.084, 989.030 296.278, 991.431 296.130 C 993.832 295.982, 996.094 296.343, 996.457 296.931 C 996.821 297.519, 998.045 298, 999.177 298 C 1000.309 298, 1002.774 299.350, 1004.653 301 C 1006.532 302.650, 1008.536 304, 1009.106 304 C 1009.676 304, 1012.248 306.325, 1014.821 309.166 C 1017.394 312.007, 1020.440 315.270, 1021.588 316.416 C 1022.737 317.562, 1024.494 319.764, 1025.492 321.310 C 1026.845 323.403, 1027.518 323.785, 1028.131 322.810 C 1029.001 321.426, 1028.371 318.380, 1026.842 316.577 C 1026.340 315.985, 1024.596 313.348, 1022.966 310.717 C 1021.336 308.086, 1018.427 305.004, 1016.501 303.868 C 1014.575 302.732, 1013 301.451, 1013 301.023 C 1013 300.594, 1011.538 299.665, 1009.750 298.959 C 1007.962 298.254, 1005.452 296.737, 1004.170 295.588 C 1002.251 293.869, 1000.398 293.471, 993.670 293.335 C 989.177 293.245, 983.925 293.523, 982 293.954 M 586 331.500 C 586 332.325, 585.346 333, 584.547 333 C 582.898 333, 573.992 341.659, 574.805 342.472 C 575.096 342.762, 574.808 343, 574.167 343 C 573.525 343, 573 343.675, 573 344.500 C 573 345.325, 572.622 346, 572.161 346 C 570.853 346, 569 350.768, 569 354.130 C 569 358.423, 571.259 357.306, 572.500 352.399 C 573.160 349.792, 575.202 346.751, 578.500 343.464 C 581.250 340.724, 584.298 337.248, 585.273 335.741 C 586.248 334.233, 587.656 333, 588.401 333 C 589.146 333, 590.315 332.325, 591 331.500 C 592.061 330.221, 591.785 330, 589.122 330 C 587.014 330, 586 330.487, 586 331.500 M 770.250 342.220 C 769.013 342.817, 768 343.818, 768 344.445 C 768 347.385, 755.394 357.158, 742.794 363.987 C 737.673 366.763, 727.635 368.018, 719.116 366.948 C 709.938 365.796, 704.889 363.377, 695.363 355.571 C 693.637 354.157, 691.307 353, 690.185 353 C 687.978 353, 684.882 356.386, 682.811 361.065 C 682.096 362.679, 680.972 364, 680.313 364 C 679.653 364, 678.419 364.992, 677.569 366.204 C 674.901 370.014, 664.707 376.992, 659.568 378.527 C 656.856 379.337, 652.780 380, 650.510 380 C 644.247 380, 642.932 381.507, 642.031 389.718 C 640.990 399.203, 636.011 407.644, 628.527 412.614 C 621.556 417.242, 620.619 419.441, 622.516 426.722 C 624.657 434.942, 624.350 443.364, 621.500 454.599 C 619.206 463.640, 619 466.277, 619 486.527 C 619 502.036, 619.348 508.948, 620.169 509.769 C 621.061 510.661, 622.305 510.412, 625.419 508.719 C 627.664 507.499, 629.950 506.028, 630.500 505.451 C 633.113 502.709, 635.572 501.849, 647.586 499.474 C 677.313 493.598, 700.367 493.800, 712.809 500.047 C 719.671 503.493, 730.235 512.624, 732.252 516.853 C 733.968 520.452, 739.170 520.990, 743.230 517.988 C 749.758 513.162, 771.561 512.693, 778.605 517.227 C 779.880 518.048, 783.356 514.650, 784.976 511 C 787.890 504.435, 794.167 497, 796.796 497 C 797.568 497, 799.775 495.425, 801.700 493.500 C 803.625 491.575, 805.627 490, 806.148 490 C 806.670 490, 808.987 489.045, 811.298 487.877 C 813.609 486.710, 820.675 484.921, 827 483.903 C 833.325 482.884, 840.975 481.586, 844 481.017 C 853.954 479.146, 890.385 483.048, 895.314 486.513 C 896.516 487.358, 899.188 488.506, 901.250 489.063 C 903.313 489.621, 905 490.507, 905 491.032 C 905 491.558, 906.868 493.340, 909.150 494.994 C 911.433 496.647, 912.903 498, 912.418 498 C 911.933 498, 913.301 499.200, 915.459 500.666 C 919.175 503.191, 919.667 503.273, 924.734 502.210 C 927.678 501.593, 937.154 500.327, 945.793 499.398 C 966.577 497.163, 967.982 496.027, 959.924 487.974 C 954.815 482.868, 950.529 474.911, 951.299 471.963 C 951.582 470.883, 951.405 470, 950.906 470 C 949.692 470, 949.739 458.279, 950.956 457.527 C 951.482 457.202, 951.658 456.272, 951.346 455.460 C 951.035 454.648, 951.540 452.381, 952.470 450.422 C 954.661 445.805, 954.079 444.571, 948.559 442.129 C 946.052 441.020, 944 439.681, 944 439.154 C 944 438.627, 942.728 437.752, 941.173 437.210 C 938.100 436.139, 929.661 426.833, 928.582 423.326 C 928.214 422.130, 926.695 419.430, 925.207 417.326 C 922.576 413.607, 922.500 413.109, 922.500 399.500 C 922.500 385.596, 922.484 385.498, 920.168 385.170 C 918.885 384.988, 917.001 385.595, 915.981 386.518 C 914.961 387.441, 913.679 387.919, 913.132 387.582 C 912.585 387.244, 911.856 387.425, 911.510 387.984 C 910.657 389.363, 895 389.323, 895 387.941 C 895 387.359, 894.512 387.184, 893.915 387.553 C 893.318 387.921, 891.406 387.521, 889.665 386.664 C 887.924 385.806, 884.025 383.946, 881 382.530 C 872.783 378.684, 871.769 377.950, 866.940 372.353 C 861.225 365.728, 856 357.117, 856 354.321 C 856 350.890, 854.194 347, 852.601 347 C 851.805 347, 849.749 348.182, 848.032 349.627 C 843.327 353.586, 832.536 358.797, 827.470 359.557 C 824.998 359.927, 822.729 360.629, 822.429 361.115 C 821.711 362.276, 813.463 362.257, 811.236 361.090 C 810.281 360.589, 806.552 359.694, 802.950 359.102 C 794.379 357.692, 786.321 353.226, 780.136 346.459 C 774.967 340.803, 774.026 340.399, 770.250 342.220 M 829 444.892 C 825.975 445.950, 822.191 447.109, 820.591 447.467 C 818.991 447.825, 816.134 449.666, 814.241 451.559 C 812.348 453.452, 810.407 455, 809.926 455 C 809.445 455, 808.318 456.418, 807.422 458.151 C 805.172 462.501, 806.210 468.404, 809.773 471.522 C 815.347 476.401, 816.846 476.533, 831.650 473.450 C 844.895 470.693, 845.463 470.657, 855.360 471.976 C 875.492 474.659, 879.865 473.790, 884.296 466.224 C 885.906 463.476, 885.945 462.811, 884.674 459.828 C 882.449 454.606, 872.497 447.015, 867.849 446.994 C 867.107 446.990, 865.150 446.244, 863.500 445.335 C 858.655 442.666, 836.191 442.377, 829 444.892 M 682.805 456.528 C 682.514 456.819, 677.964 457.892, 672.693 458.913 C 667.148 459.987, 661.507 461.763, 659.305 463.129 C 657.212 464.426, 655.275 465.529, 655 465.578 C 652.339 466.055, 648.747 468.551, 645.231 472.365 C 639.769 478.291, 639.495 482.244, 644.250 486.554 C 649.914 491.689, 655.845 493.679, 657.500 491 C 657.840 490.450, 658.879 489.986, 659.809 489.969 C 660.739 489.951, 664.200 488.596, 667.500 486.956 C 673.471 483.989, 673.562 483.977, 686.500 484.550 C 697.208 485.024, 699.941 484.853, 702 483.579 C 703.375 482.728, 705.288 481.747, 706.250 481.399 C 707.212 481.051, 708 480.199, 708 479.506 C 708 478.812, 708.675 477.685, 709.500 477 C 710.346 476.298, 711 474.118, 711 472 C 711 469.882, 710.346 467.702, 709.500 467 C 708.675 466.315, 708 465.243, 708 464.618 C 708 460.752, 685.732 453.602, 682.805 456.528 M 825.436 508.956 C 821.258 510.544, 813 516.535, 813 517.979 C 813 518.425, 810.995 520.913, 808.544 523.507 C 805.002 527.258, 803.800 529.483, 802.680 534.362 C 801.905 537.738, 801.630 540.897, 802.069 541.383 C 803.331 542.781, 805.943 541.281, 806.976 538.563 C 808.901 533.499, 813.584 527.274, 821.780 518.881 C 831.106 509.332, 832.190 506.390, 825.436 508.956 M 1008.391 513.988 C 1005.737 516.182, 1002.618 519.545, 1001.461 521.462 C 1000.305 523.379, 998.573 525.815, 997.613 526.875 C 996.385 528.232, 995.598 531.658, 994.956 538.440 C 994.225 546.161, 993.566 548.714, 991.638 551.288 C 988.343 555.688, 987.735 558.230, 989.170 561.618 C 989.841 563.203, 990.458 564.950, 990.539 565.500 C 990.621 566.050, 991.220 567.797, 991.869 569.381 C 995.413 578.028, 995.589 591.645, 992.223 596.783 C 989.221 601.364, 989.951 603.874, 994.965 606.209 C 997.459 607.371, 999.800 608.362, 1000.167 608.411 C 1000.533 608.460, 1001.171 608.837, 1001.583 609.250 C 1001.996 609.663, 1004.208 610, 1006.500 610 C 1008.792 610, 1011.004 609.663, 1011.417 609.250 C 1011.829 608.837, 1012.467 608.488, 1012.833 608.474 C 1015.899 608.353, 1031.299 597.218, 1036.084 591.662 C 1055.035 569.655, 1055.917 531.068, 1037.822 515.580 C 1032.801 511.282, 1028.712 510.013, 1019.859 510.006 C 1013.584 510, 1012.952 510.220, 1008.391 513.988 M 650.136 521.361 C 643.936 524.623, 636.301 532.538, 632.906 539.221 C 630.507 543.945, 630 546.183, 630 552.055 C 630 557.289, 630.329 559.057, 631.246 558.751 C 631.932 558.523, 632.749 556.757, 633.063 554.828 C 633.869 549.870, 642.173 537.797, 650.759 529.099 C 654.778 525.028, 657.901 521.203, 657.700 520.599 C 657.077 518.728, 654.680 518.970, 650.136 521.361 M 957 520.142 C 955.075 520.539, 947.885 521.604, 941.022 522.510 C 934.160 523.415, 927.361 524.855, 925.914 525.710 C 923.316 527.245, 923.277 527.435, 922.753 541.435 C 922.254 554.765, 922.030 556.019, 918.981 562.553 C 917.198 566.374, 914.786 570.701, 913.620 572.169 C 912.454 573.637, 910.375 576.774, 909 579.141 C 905.871 584.527, 898.166 593, 896.398 593 C 895.668 593, 894.620 593.841, 894.070 594.870 C 893.519 595.898, 891.591 597.425, 889.785 598.264 C 879.670 602.960, 876.434 604.149, 869.804 605.608 C 865.787 606.492, 861.669 607.648, 860.653 608.176 C 859.637 608.705, 856.610 609.021, 853.926 608.879 C 851.243 608.737, 848.736 608.930, 848.357 609.310 C 847.409 610.258, 842 610.184, 842 609.224 C 842 608.797, 840.193 608.619, 837.984 608.830 C 835.713 609.047, 832.564 608.561, 830.734 607.712 C 828.955 606.886, 825.925 605.898, 824 605.515 C 814.960 603.716, 794.261 586.822, 788.679 576.686 C 787.481 574.510, 785.944 571.777, 785.265 570.614 C 784.585 569.451, 784.023 567.487, 784.015 566.250 C 784.007 565.013, 783.475 564, 782.833 564 C 782.192 564, 781.945 563.721, 782.286 563.381 C 782.626 563.040, 782.292 562.149, 781.544 561.401 C 780.795 560.652, 779.890 558.118, 779.533 555.770 C 777.495 542.362, 776.868 540.845, 772.561 538.888 C 767.565 536.619, 753.582 536.312, 748.672 538.364 C 743.367 540.580, 742.352 543.176, 741.778 556 C 741.249 567.802, 740.206 571.568, 733.739 585 C 728.971 594.904, 715.934 608.213, 707 612.295 C 680.169 624.557, 651.021 621.903, 634.227 605.669 C 630.715 602.274, 629.647 601.733, 628.227 602.628 C 626.391 603.786, 625.912 605.852, 627.096 607.500 C 628.262 609.121, 629.928 619.561, 629.364 621.714 C 628.460 625.173, 631.631 630.781, 636.387 634.133 C 639.738 636.495, 641.449 638.678, 643.059 642.645 C 644.250 645.579, 645.624 647.733, 646.112 647.431 C 646.600 647.129, 647 647.341, 647 647.902 C 647 648.464, 648.913 649.432, 651.250 650.054 C 656.648 651.492, 658.368 653.056, 660.005 658.014 C 661.268 661.841, 661.492 662, 665.625 662 C 669.015 662, 670.682 662.660, 673.468 665.106 C 677.099 668.294, 683.171 670.345, 686.215 669.413 C 687.260 669.093, 688.166 667.444, 688.533 665.194 C 689.803 657.403, 690.187 656, 691.048 656 C 691.537 656, 691.678 655.325, 691.362 654.500 C 691.045 653.675, 691.234 653, 691.782 653 C 692.329 653, 693.093 651.318, 693.479 649.261 C 695.399 639.028, 712.684 623, 721.800 623 C 723.377 623, 725.004 622.663, 725.417 622.250 C 725.829 621.837, 726.467 621.488, 726.833 621.474 C 727.200 621.459, 729.652 620.171, 732.281 618.611 C 739.453 614.355, 743.968 613.648, 751.657 615.576 C 760.971 617.912, 763.688 617.716, 771.208 614.166 C 779.110 610.436, 784.825 610.087, 790.261 613 C 793.312 614.635, 795.903 615, 804.461 615 C 817.177 615, 821.762 616.373, 832 623.246 C 845.494 632.305, 856 648.012, 856 659.125 C 856 665.583, 858.142 666.644, 862.142 662.167 C 864.286 659.768, 865.810 659, 868.427 659 C 870.327 659, 872.135 659.410, 872.445 659.911 C 873.564 661.721, 876.155 660.275, 881.121 655.068 L 886.182 649.762 891.928 650.412 C 899.195 651.234, 900.395 650.740, 904.060 645.412 C 906.358 642.073, 908.031 640.802, 911.276 639.932 C 918.810 637.911, 919.890 637.150, 922.481 632.038 C 923.885 629.267, 925.476 627, 926.017 627 C 926.558 627, 927 626.413, 927 625.696 C 927 623.960, 932.699 618.627, 936.720 616.602 C 940.361 614.767, 942 612.291, 942 608.623 C 942 605.403, 945.613 599.258, 947.941 598.519 C 951.610 597.354, 953.321 594.182, 953.487 588.232 C 953.623 583.331, 954.206 581.687, 957.431 577.098 C 960.595 572.597, 961.123 571.144, 960.651 568.238 C 960.241 565.708, 960.750 563.453, 962.525 559.952 C 963.865 557.306, 965.348 554.903, 965.819 554.612 C 966.943 553.917, 966.034 522.844, 964.847 521.358 C 963.530 519.710, 960.997 519.317, 957 520.142 M 596.098 537.125 C 589.245 544.481, 587.272 569.510, 592.365 584.500 C 593.859 588.900, 595.964 594.408, 597.041 596.739 C 598.118 599.071, 599 601.423, 599 601.966 C 599 603.554, 603.842 606.274, 605.522 605.630 C 606.776 605.149, 606.945 603.881, 606.440 598.770 C 605.963 593.941, 606.324 590.685, 608.011 584.603 C 609.973 577.531, 610.077 576.068, 609.004 570.615 C 608.345 567.266, 607.135 563.229, 606.316 561.644 C 605.436 559.943, 604.631 554.815, 604.352 549.131 C 603.702 535.918, 603.453 535, 600.520 535 C 599.177 535, 597.187 535.956, 596.098 537.125 M 300.936 577.264 C 297.261 579.740, 295.647 584.299, 296.602 589.500 C 297.283 593.209, 300.065 601.194, 301.087 602.372 C 301.503 602.851, 301.623 603.818, 301.354 604.521 C 301.084 605.223, 301.344 606.095, 301.932 606.458 C 302.519 606.821, 303.015 608.554, 303.033 610.309 C 303.051 612.064, 303.976 615.975, 305.089 619 C 306.203 622.025, 307.594 626.504, 308.181 628.954 C 310.204 637.390, 316.035 643.710, 320.714 642.536 C 325.022 641.454, 329 636.374, 329 631.953 C 329 629.844, 328.543 627.835, 327.984 627.490 C 327.425 627.144, 327.238 626.423, 327.570 625.887 C 327.901 625.351, 327.743 624.370, 327.218 623.706 C 325.821 621.940, 323.258 613.226, 322.513 607.712 C 322.157 605.078, 321.163 601.253, 320.303 599.212 C 319.444 597.170, 318.129 592.599, 317.381 589.054 C 316.309 583.966, 315.239 581.805, 312.308 578.804 C 308.029 574.422, 305.635 574.098, 300.936 577.264 M 222.836 618.269 C 219.548 619.573, 218 622.794, 218 628.334 C 218 632.467, 218.356 632.922, 232.250 646.552 C 248.059 662.061, 255.759 668.809, 261 671.747 L 264.500 673.710 268.750 670.807 C 272.583 668.189, 273 667.503, 273 663.817 C 273 658.983, 271.097 656.819, 241.708 628.250 C 229.680 616.557, 228.598 615.984, 222.836 618.269 M 811 649.500 C 811 649.775, 811.900 650.900, 813 652 C 814.454 653.454, 815 655.333, 815 658.881 C 815 663.342, 814.678 664.010, 811.258 666.631 C 809.200 668.209, 805.825 670.265, 803.758 671.201 C 801.691 672.137, 800 673.305, 800 673.796 C 800 674.288, 795.837 675.996, 790.750 677.590 C 782.086 680.306, 780.455 680.488, 765 680.462 C 745.648 680.429, 738.101 678.675, 730.493 672.441 C 724.683 667.680, 724.287 663.362, 729.196 658.298 L 732.392 655 728.743 655 C 720.276 655, 716 660.119, 716 670.253 C 716 673.899, 716.474 677.175, 717.053 677.533 C 717.632 677.890, 717.933 678.701, 717.722 679.333 C 717.512 679.965, 717.938 681.081, 718.670 681.813 C 719.401 682.544, 720 683.950, 720 684.937 C 720 685.924, 722.436 689.267, 725.414 692.366 C 730.536 697.697, 731.089 698, 735.691 698 C 738.366 698, 741.454 698.630, 742.552 699.399 C 744.974 701.095, 749.045 701.722, 750.750 700.660 C 751.438 700.232, 752 697.939, 752 695.563 C 752 693.036, 752.594 690.752, 753.432 690.057 C 754.353 689.292, 760.147 688.756, 769.682 688.553 C 787.052 688.183, 789.945 689.059, 789.985 694.703 C 789.993 695.915, 790.529 698.068, 791.176 699.488 C 792.267 701.881, 792.687 702.021, 796.926 701.409 C 799.442 701.045, 802.029 700.327, 802.676 699.813 C 803.323 699.299, 804.448 698.977, 805.176 699.097 C 809.832 699.865, 819.576 693.445, 824.624 686.284 C 829.597 679.228, 827.239 653, 821.632 653 C 820.905 653, 819.495 652.100, 818.500 651 C 816.935 649.270, 811 648.083, 811 649.500 M 761.473 651.315 C 757.955 653.661, 751.405 655.017, 746.707 654.373 C 744.196 654.029, 740.872 654.070, 739.321 654.464 C 736.567 655.164, 736.619 655.227, 741.500 657.090 C 744.250 658.140, 747.175 659.002, 748 659.005 C 748.825 659.009, 750.850 659.725, 752.500 660.595 C 755.977 662.429, 771.503 662.657, 773.615 660.904 C 774.321 660.318, 776.159 659.940, 777.700 660.063 C 779.240 660.186, 781.175 660.049, 782 659.758 C 782.825 659.467, 785.388 658.716, 787.696 658.090 C 790.381 657.362, 792.804 655.790, 794.421 653.726 C 797.457 649.854, 796.629 649.367, 790.530 651.438 C 784.722 653.410, 776.360 653.436, 772.636 651.494 C 769.097 649.648, 764.092 649.568, 761.473 651.315 M 905.400 734.023 C 898.283 741.350, 889.458 746.359, 881.584 747.540 C 878.643 747.981, 875.272 749.559, 871.904 752.071 C 866.709 755.948, 857.820 759.625, 856.146 758.590 C 854.941 757.845, 845.752 760.614, 839.210 763.693 C 836.072 765.170, 833.224 765.901, 832.210 765.490 C 829.383 764.345, 821.701 764.703, 818.500 766.129 C 816.232 767.139, 808.688 767.470, 787.583 767.483 C 767.985 767.495, 759.556 767.832, 759.296 768.613 C 758.800 770.100, 772.334 781.568, 778 784.462 C 780.475 785.726, 785.200 787.313, 788.500 787.987 C 791.800 788.662, 795.175 789.420, 796 789.673 C 798.166 790.335, 822.093 790.240, 822.767 789.567 C 823.078 789.255, 824.285 789, 825.449 789 C 826.612 789, 830.025 788.299, 833.032 787.442 C 836.039 786.584, 841.817 785.031, 845.870 783.989 C 854.392 781.798, 874.807 770.646, 881.089 764.750 C 883.286 762.688, 885.497 761, 886.003 761 C 886.958 761, 902.366 745.429, 905.871 740.921 C 909.920 735.713, 909.515 729.785, 905.400 734.023 M 315 758.061 C 306.475 758.470, 290.950 759.325, 280.500 759.961 C 246.973 762.002, 227.777 762.894, 216.250 762.948 C 210.063 762.976, 205.001 763.337, 205.002 763.750 C 205.003 764.163, 199.966 764.358, 193.809 764.184 C 187.574 764.008, 181.703 764.316, 180.557 764.880 C 179.426 765.437, 171.075 766.060, 162 766.266 C 144.970 766.653, 138.354 767.843, 129.446 772.122 C 123.662 774.901, 115.828 783.004, 112.421 789.731 L 109.500 795.500 109.748 823.683 L 109.996 851.867 106.748 854.180 C 104.962 855.452, 103.275 856.403, 103 856.295 C 102.725 856.186, 100.925 857.077, 99 858.275 C 97.075 859.472, 94.755 860.770, 93.844 861.159 C 91.587 862.123, 86.568 869.644, 85.026 874.375 C 84.290 876.631, 82.977 878.455, 81.881 878.741 C 79.081 879.473, 79.147 887, 81.953 887 C 87.225 887, 87.125 910.370, 81.848 911.750 C 79.294 912.418, 79.082 921.856, 81.625 921.639 C 84.075 921.430, 86.131 928.131, 86.977 939.080 C 87.700 948.442, 89.684 953.933, 94.539 960 C 95.199 960.825, 96.035 964.543, 96.398 968.261 C 96.761 971.980, 97.503 976.193, 98.047 977.623 C 99.753 982.110, 105.369 987.767, 113.326 993.013 L 121 998.073 121 1007.102 C 121 1019.746, 121.205 1020, 131.413 1020 C 142.440 1020, 142.475 1019.953, 141.675 1005.984 C 141.331 999.963, 141.328 994.309, 141.669 993.421 C 142.010 992.532, 144.227 990.974, 146.596 989.959 C 149.345 988.781, 151.788 986.734, 153.344 984.306 C 154.687 982.213, 156.846 979.386, 158.142 978.023 C 160.222 975.839, 160.500 974.590, 160.500 967.427 C 160.500 961.916, 160.048 958.762, 159.092 957.611 C 158.026 956.327, 157.966 955.634, 158.842 954.758 C 159.479 954.121, 160.014 952.903, 160.031 952.050 C 160.048 951.197, 161.169 948.250, 162.522 945.500 C 165.562 939.320, 165.564 939.520, 162.392 932.374 C 160.110 927.233, 159.877 925.751, 160.524 920.500 C 162.095 907.767, 160.992 899.328, 157.587 898.033 C 153.909 896.635, 153.405 891.497, 156.488 886.838 C 159.474 882.327, 159.674 878.773, 157.146 875.154 C 156.126 873.694, 154.968 871.165, 154.573 869.534 C 153.653 865.741, 144.984 857, 142.143 857 C 140.964 857, 140 856.502, 140 855.893 C 140 855.284, 139.325 855.045, 138.500 855.362 C 137.675 855.678, 137 855.558, 137 855.094 C 137 854.630, 135.686 853.987, 134.080 853.666 C 132.475 853.345, 130.920 852.276, 130.625 851.291 C 130.331 850.306, 129.957 838.186, 129.795 824.359 L 129.500 799.218 134.175 794.859 C 136.746 792.461, 139.221 790.474, 139.675 790.443 C 140.129 790.411, 141.850 789.794, 143.500 789.070 C 146.572 787.722, 158.573 786.954, 206.500 785.037 C 220.800 784.466, 250.500 783.082, 272.500 781.962 C 294.500 780.842, 322.738 779.651, 335.250 779.314 C 347.762 778.978, 358 778.315, 358 777.843 C 358 777.370, 358.788 777.410, 359.750 777.931 C 360.712 778.453, 362.711 779.133, 364.191 779.444 C 367.785 780.198, 373.871 786.761, 374.444 790.500 C 374.696 792.150, 375.113 803.400, 375.369 815.500 C 375.804 836.030, 377.130 847, 379.176 847 C 379.595 847, 379.678 847.675, 379.362 848.500 C 379.045 849.325, 379.284 850, 379.893 850 C 380.502 850, 381 850.642, 381 851.427 C 381 854.495, 386.005 857, 392.135 857 C 395.361 857, 398 856.663, 397.999 856.250 C 397.999 855.433, 408.569 855.503, 411 856.336 C 411.825 856.619, 414.549 857.124, 417.054 857.457 C 421.899 858.103, 434.451 865.298, 435.444 868 C 435.747 868.825, 437.034 870.900, 438.304 872.612 C 439.575 874.323, 441.223 878.261, 441.967 881.362 C 442.711 884.463, 443.585 887, 443.910 886.999 C 444.864 886.998, 444.283 897.262, 443.167 900.126 C 442.605 901.570, 441.643 904.613, 441.030 906.889 C 439.489 912.612, 434.955 917.856, 426 924.271 C 421.597 927.426, 421.215 927.506, 408.342 927.998 C 395.452 928.490, 395.105 928.563, 391.342 931.597 C 385.263 936.497, 384.869 938.871, 386.102 963.178 C 386.692 974.793, 387.022 988.855, 386.837 994.429 L 386.500 1004.562 382.500 1008.629 C 380.300 1010.866, 377.702 1012.980, 376.727 1013.326 C 374.018 1014.287, 373.389 1017.080, 375.529 1018.645 C 376.829 1019.596, 380.749 1020, 388.665 1020 L 399.949 1020 401.408 1017.177 C 402.211 1015.625, 403.568 1013.774, 404.423 1013.064 C 405.278 1012.354, 405.751 1011.405, 405.473 1010.956 C 405.195 1010.506, 405.425 1009.856, 405.984 1009.510 C 407.029 1008.864, 407.462 987.795, 406.451 986.785 C 406.149 986.483, 405.901 977.970, 405.899 967.868 L 405.896 949.500 413.698 948.795 C 424.819 947.789, 427.621 947.161, 429.135 945.337 C 429.870 944.451, 432.278 942.948, 434.486 941.997 C 440.835 939.260, 451.897 928.204, 457.149 919.343 C 460.797 913.190, 462.186 909.528, 463.594 902.348 C 465.374 893.273, 465.370 893.110, 463.171 882.848 C 461.565 875.353, 460.133 871.352, 457.977 868.337 C 456.339 866.047, 455 863.700, 455 863.121 C 455 862.543, 453.726 860.591, 452.169 858.785 C 450.612 856.978, 449.058 854.732, 448.716 853.793 C 448.120 852.152, 445.074 849.868, 435.114 843.593 C 427.073 838.526, 421.365 836.880, 409.697 836.265 C 400.131 835.760, 398.682 835.444, 397.476 833.596 C 396.470 832.054, 395.921 825.088, 395.401 807.259 C 394.981 792.878, 394.248 782.228, 393.597 781.073 C 386.342 768.207, 380.720 762.480, 371.781 758.850 C 367.022 756.918, 345.190 756.614, 315 758.061 M 109.809 871.228 C 105.939 873.058, 101 879.734, 101 883.135 C 101 884.809, 102.451 888.016, 104.500 890.867 C 108.110 895.892, 109.015 900.585, 106.800 902.800 C 106.140 903.460, 106.003 904, 106.496 904 C 106.989 904, 105.898 905.542, 104.071 907.427 C 99.938 911.691, 99.898 914.267, 103.875 920.160 C 106.365 923.849, 107 925.830, 107 929.909 C 107 932.724, 106.442 935.921, 105.759 937.014 C 104.769 938.600, 104.776 939.411, 105.793 941.041 C 106.494 942.163, 106.838 943.453, 106.557 943.907 C 105.977 944.846, 108.405 947.176, 111.783 948.924 C 114.061 950.103, 119.564 948.989, 122.693 946.716 C 123.349 946.240, 126.380 945.965, 129.428 946.106 C 132.476 946.248, 135.277 946.056, 135.652 945.682 C 136.027 945.307, 137.539 945, 139.014 945 C 141.716 945, 146.340 941.856, 145.887 940.326 C 144.805 936.668, 139.521 935, 129.012 935 C 120.454 935, 120.050 934.896, 117.077 931.923 C 113.667 928.513, 113.208 925.576, 115.561 922.217 C 117.881 918.904, 121.603 917.354, 130.500 915.997 C 139.458 914.630, 142.067 912.801, 141.238 908.467 C 140.635 905.310, 139.349 904.730, 126.715 901.916 C 115.890 899.506, 114.360 898.227, 115.435 892.495 C 116.328 887.736, 118.144 886.743, 126.786 886.294 C 139.077 885.655, 139.162 885.615, 138.806 880.815 C 138.515 876.896, 138.219 876.553, 132.716 873.768 C 125.950 870.344, 114.391 869.062, 109.809 871.228 M 116.250 965.491 C 114.463 966.268, 113 967.347, 113 967.889 C 113 968.431, 114.688 970.473, 116.750 972.428 C 120.449 975.934, 120.617 975.983, 129.128 975.991 C 138.706 976.001, 139.729 975.445, 140.657 969.725 C 141.175 966.532, 140.972 966.186, 137.960 965.136 C 133.440 963.560, 120.193 963.777, 116.250 965.491" stroke="none" fill="#171916" fill-rule="evenodd"/>
</svg>