<svg role="img" aria-labelledby="artwork-title" shape-rendering="geometricPrecision" xmlns="http://www.w3.org/2000/svg" width="1200" height="1200" viewBox="0 0 1200 1200" version="1.1">
	<title id="artwork-title">Mascot assembling components</title>
	<path d="M 868 221.863 C 868 222.692, 862.222 224.702, 853.250 226.992 C 850.913 227.589, 849 228.513, 849 229.047 C 849 229.580, 847.227 230.726, 845.059 231.593 C 842.892 232.460, 840.406 234.257, 839.535 235.587 C 838.664 236.916, 836.161 239.188, 833.973 240.636 L 829.995 243.269 825.748 240.437 C 823.411 238.880, 820.333 236.552, 818.906 235.265 C 817.479 233.978, 814.554 232.653, 812.406 232.320 C 810.258 231.987, 806.700 230.789, 804.500 229.657 C 798.864 226.757, 781.468 226.077, 775 228.504 C 772.525 229.433, 768.025 230.864, 765 231.684 C 761.975 232.504, 758.825 233.987, 758 234.979 C 757.175 235.972, 755.085 237.495, 753.356 238.363 C 748.504 240.800, 740.083 250.793, 736.809 258 C 735.184 261.575, 733.505 265.175, 733.077 266 C 731.872 268.321, 727.309 268.354, 723.611 266.068 C 718.586 262.963, 706.137 263.125, 699.992 266.377 C 697.521 267.685, 693.925 269.083, 692 269.485 C 690.075 269.886, 687.288 271.516, 685.806 273.107 C 684.325 274.698, 682.440 276, 681.617 276 C 679.747 276, 667 288.754, 667 290.625 C 667 291.381, 666.523 292, 665.941 292 C 665.359 292, 665.160 292.450, 665.500 293 C 665.840 293.550, 665.726 294, 665.246 294 C 664.190 294, 660.646 301.921, 658.963 308.045 C 658.290 310.495, 657.460 316.054, 657.119 320.399 L 656.500 328.297 651.552 329.737 C 645.289 331.558, 642.438 333.634, 632.873 343.330 C 626.911 349.373, 624.572 352.600, 622.623 357.469 C 619.118 366.225, 617.691 375.550, 618.208 386.326 C 618.782 398.275, 622.784 408.145, 630.050 415.531 C 635.262 420.829, 636.217 423.998, 633.504 426.996 C 632.681 427.905, 631.262 431.668, 630.352 435.357 C 627.827 445.588, 629.428 456.924, 634.469 464.519 C 636.521 467.610, 638.761 470.355, 639.448 470.618 C 640.134 470.882, 641.767 472.538, 643.077 474.299 C 645.224 477.185, 645.428 478.344, 645.155 486.093 C 644.794 496.366, 646.749 504.150, 651.049 509.561 C 652.672 511.604, 653.995 513.551, 653.988 513.888 C 653.982 514.224, 651.691 516.750, 648.897 519.500 C 646.104 522.250, 642.965 526.157, 641.923 528.182 C 640.881 530.207, 639.578 532.143, 639.028 532.483 C 638.477 532.823, 637.019 536.341, 635.786 540.301 C 633.878 546.433, 633.542 549.797, 633.523 563 C 633.508 573.035, 633.992 580.439, 634.895 584 C 637.342 593.650, 644.802 606.610, 652.820 615.140 C 658.730 621.428, 660.078 623.445, 659.820 625.613 C 659.182 630.966, 655.094 630.647, 643.500 624.342 C 641.850 623.444, 635.695 620.286, 629.823 617.324 C 623.951 614.362, 619.001 611.555, 618.823 611.086 C 618.308 609.726, 603.687 602.262, 599.140 601.038 C 596.863 600.425, 595 599.415, 595 598.795 C 595 598.174, 594.766 597.901, 594.480 598.187 C 593.832 598.835, 582 587.597, 582 586.334 C 582 585.467, 566.553 573.511, 555.500 565.824 C 552.750 563.911, 547.575 560.314, 544 557.830 C 540.425 555.345, 536.303 552.680, 534.841 551.906 C 533.378 551.133, 528.264 547.800, 523.476 544.500 C 518.688 541.200, 513.092 537.375, 511.040 536 C 508.988 534.625, 504.820 531.834, 501.778 529.799 C 498.736 527.763, 494.390 525.129, 492.119 523.945 C 489.848 522.761, 487.758 521.418, 487.475 520.960 C 487.192 520.502, 483.707 517.990, 479.730 515.378 C 475.754 512.765, 471.075 509.474, 469.332 508.064 C 463.377 503.243, 457.501 499.235, 455.500 498.628 C 454.400 498.295, 452.375 497.005, 451 495.761 C 449.625 494.517, 446.765 492.600, 444.644 491.500 C 436.548 487.301, 433.290 485.424, 430.162 483.157 C 428.384 481.868, 426.270 481.066, 425.465 481.375 C 424.659 481.684, 424 481.501, 424 480.969 C 424 480.436, 423.282 480, 422.404 480 C 421.527 480, 419.614 479.173, 418.154 478.162 C 416.694 477.152, 413.250 475.751, 410.500 475.050 C 402.183 472.929, 391.628 469.792, 389.401 468.779 C 388.246 468.253, 386.446 467.932, 385.401 468.065 C 384.355 468.198, 382.600 467.901, 381.500 467.404 C 380.400 466.907, 370.950 466.500, 360.500 466.500 C 350.050 466.500, 340.600 466.907, 339.500 467.404 C 338.400 467.901, 336.645 468.198, 335.599 468.065 C 334.554 467.932, 332.754 468.259, 331.599 468.791 C 330.445 469.323, 325.900 470.745, 321.500 471.951 C 312.840 474.325, 303.470 478.553, 295.396 483.728 C 292.590 485.528, 289.975 487, 289.587 487 C 288.392 487, 280 494.362, 280 495.411 C 280 495.954, 277.750 498.510, 275 501.092 C 272.250 503.674, 269.998 506.172, 269.996 506.643 C 269.993 507.114, 268.285 509.750, 266.200 512.500 C 264.115 515.250, 262.349 517.725, 262.275 518 C 261.713 520.094, 259.783 523.991, 258.066 526.500 C 256.937 528.150, 256.010 530.434, 256.007 531.576 C 256.003 532.717, 254.875 536.871, 253.500 540.807 C 252.125 544.742, 251 549.969, 251 552.422 C 251 554.875, 250.550 557.160, 250 557.500 C 248.697 558.305, 248.697 569.695, 250 570.500 C 250.550 570.840, 251 572.604, 251 574.419 C 251 576.335, 252.103 579.347, 253.628 581.593 C 255.073 583.723, 256.311 586.823, 256.378 588.483 C 256.497 591.428, 256.368 591.513, 251 592.033 C 243.347 592.776, 239.013 595.184, 235.598 600.593 L 232.697 605.189 233.367 642.845 C 234.231 691.375, 233.696 694.668, 225.027 694.157 C 218.424 693.767, 215.042 696.274, 215.015 701.576 C 214.994 705.756, 218.697 709.021, 224.690 710.108 C 228.338 710.769, 230.225 711.818, 232.500 714.454 C 234.150 716.365, 237.141 718.606, 239.147 719.434 C 243.934 721.412, 249.608 728.046, 249.457 731.490 C 249.245 736.333, 246.737 738, 239.659 738 C 230.994 738, 227.776 739.348, 223.579 744.734 C 220.452 748.748, 219.999 750.033, 219.994 754.914 C 219.984 765.177, 217.127 771.010, 213.560 768.050 C 212.666 767.308, 208.854 766.949, 203.196 767.073 C 198.273 767.181, 193.798 766.993, 193.251 766.655 C 192.704 766.317, 189.145 765.919, 185.342 765.770 C 178.843 765.516, 178.177 765.698, 174.268 768.791 C 171.980 770.601, 169.826 772.974, 169.480 774.063 C 168.305 777.765, 170.027 782.083, 173.492 784.128 C 175.303 785.197, 177.052 787.067, 177.379 788.285 C 178.443 792.255, 178.070 847, 176.965 849.066 C 176.217 850.462, 174.863 851, 172.091 851 C 169.979 851, 166.338 851.675, 164 852.500 C 161.662 853.325, 158.747 854, 157.523 854 C 154.577 854, 141.869 862.402, 140.308 865.381 C 138.135 869.529, 134.921 870.045, 113 869.763 L 92.500 869.500 88.270 872.250 C 85.943 873.762, 83.131 875, 82.020 875 C 80.020 875, 80 875.498, 80 926.500 L 80 978 88.259 978 C 95.401 978, 96.686 977.733, 97.752 976.025 C 98.671 974.553, 99.024 963.536, 99.138 932.775 C 99.229 908.253, 99.687 890.725, 100.266 889.590 C 101.210 887.743, 102.494 887.703, 139.779 888.357 C 177.296 889.015, 178.412 889.092, 181.909 891.261 C 185.416 893.437, 186.469 893.506, 227 894.225 C 284.807 895.250, 288.126 895.443, 290.114 897.895 C 291.528 899.639, 291.751 904.566, 291.914 937.651 C 292.038 962.787, 292.459 975.848, 293.173 976.708 C 293.842 977.515, 296.620 978, 300.566 978 C 310.478 978, 310 980.088, 310 936.742 C 310 904.460, 310.200 899.625, 311.623 897.452 L 313.247 894.974 347.373 895.614 C 366.143 895.967, 381.928 896.647, 382.450 897.127 C 383.789 898.357, 399.757 898.229, 400.172 896.985 C 400.654 895.538, 414.761 890.797, 416.799 891.397 C 417.735 891.673, 440.325 892.182, 467 892.528 C 493.675 892.875, 515.867 893.512, 516.315 893.945 C 516.764 894.377, 517.087 912.550, 517.035 934.330 C 516.961 964.762, 517.233 974.401, 518.210 975.965 C 519.295 977.701, 520.523 978, 526.586 978 C 537.715 978, 537 980.792, 537 937.338 C 537 916.985, 536.691 900.024, 536.313 899.646 C 535.186 898.519, 535.251 895.033, 536.416 894.122 C 539.083 892.036, 556.404 886.909, 559.822 887.194 L 563.500 887.500 564.097 912.500 C 564.425 926.250, 565.032 938.278, 565.446 939.230 C 566.302 941.197, 572.029 945, 574.136 945 C 574.906 945, 577.232 943.847, 579.305 942.438 L 583.075 939.877 582.788 906.003 L 582.500 872.129 579.667 869.173 C 576.381 865.745, 567.882 863.009, 560.434 862.982 C 557.720 862.972, 551.225 862.305, 546 861.500 C 540.775 860.695, 533.714 860.028, 530.309 860.018 C 526.904 860.008, 523.816 859.511, 523.446 858.913 C 523.077 858.315, 521.926 858.048, 520.888 858.319 C 519.851 858.590, 518.745 858.396, 518.430 857.887 C 518.116 857.378, 515.528 855.751, 512.679 854.271 L 507.500 851.580 481.500 851.277 C 459.783 851.023, 454.303 851.253, 448.236 852.673 C 442.473 854.021, 440.717 854.117, 439.736 853.138 C 438.815 852.218, 438.372 842.068, 438 813.364 L 437.500 774.824 434.703 772.419 C 433.164 771.096, 430.689 769.759, 429.203 769.447 C 427.716 769.135, 425.719 768.456, 424.764 767.940 C 422.460 766.693, 415.282 766.735, 414.500 768 C 413.662 769.355, 396.302 769.298, 395.461 767.938 C 395.071 767.306, 391.744 766.964, 387.255 767.096 C 377.901 767.369, 377 766.479, 377 756.970 C 377 751.246, 376.618 749.828, 374.250 746.767 C 372.737 744.812, 370.103 742.454, 368.396 741.527 C 362.466 738.309, 340.208 736.904, 329.960 739.102 C 326.133 739.923, 323.697 741.282, 320.411 744.430 C 317.985 746.755, 316 749.340, 316 750.174 C 316 751.008, 315.126 752.481, 314.057 753.449 C 312.988 754.416, 311.829 756.623, 311.482 758.354 C 310.345 764.020, 309.952 764.802, 307.394 766.477 C 305.422 767.769, 304.554 767.874, 303.446 766.955 C 302.665 766.307, 301.232 766.099, 300.263 766.495 C 299.293 766.890, 296.555 767.229, 294.179 767.249 C 287.985 767.302, 286.665 765.554, 286.375 756.923 C 286.027 746.551, 282.016 741.196, 273.319 739.494 C 268.999 738.648, 268.053 737.206, 267.785 731.055 C 267.605 726.914, 267.950 725.509, 269.413 724.440 C 270.953 723.314, 284.241 723.172, 347.385 723.605 C 389.248 723.893, 426.245 724.509, 429.601 724.974 C 437.008 726.002, 443.595 724.764, 448.528 721.417 C 450.500 720.078, 454.083 718.542, 456.489 718.002 C 461.452 716.890, 466.885 712.290, 469.371 707.096 C 471.210 703.253, 471.491 699.421, 470 698.500 C 468.525 697.588, 468.784 691.424, 470.353 690.122 C 471.415 689.241, 473.512 690.666, 480.108 696.750 C 490.191 706.049, 495.804 710.486, 498.618 711.379 C 499.767 711.743, 501.901 713.382, 503.361 715.021 C 504.821 716.659, 506.617 718, 507.353 718 C 508.088 718, 509.547 718.948, 510.595 720.106 C 511.643 721.265, 514.300 723.127, 516.500 724.244 C 518.700 725.361, 521.507 727.061, 522.738 728.022 C 523.969 728.983, 527.119 730.079, 529.738 730.458 C 534.489 731.146, 539.217 733.736, 546.181 739.470 C 553.955 745.868, 564.424 753, 566.044 753 C 566.570 753, 567 753.477, 567 754.059 C 567 754.641, 567.450 754.840, 568 754.500 C 568.550 754.160, 569 754.286, 569 754.780 C 569 755.275, 570.013 756.191, 571.250 756.817 C 573.555 757.983, 576.584 759.867, 586.014 766 C 588.974 767.925, 593.404 770.625, 595.859 772 C 600.144 774.400, 600.322 774.685, 600.304 779.114 C 600.294 781.652, 599.976 784.230, 599.597 784.844 C 598.674 786.336, 600.714 790, 602.467 790 C 603.235 790, 604.801 791.316, 605.946 792.924 C 607.091 794.531, 609.350 796.138, 610.967 796.493 C 612.583 796.848, 614.947 797.957, 616.220 798.958 C 617.492 799.959, 620.320 801.525, 622.503 802.437 C 624.686 803.349, 627.379 804.919, 628.486 805.925 C 629.594 806.931, 632.300 808.325, 634.500 809.022 C 636.700 809.720, 639.573 811.125, 640.885 812.145 C 642.197 813.165, 643.796 814, 644.439 814 C 645.082 814, 647.609 815.269, 650.054 816.819 C 652.499 818.370, 654.725 819.688, 655 819.749 C 657.073 820.206, 661.765 822.372, 662.998 823.441 C 663.824 824.157, 666.857 825.510, 669.738 826.448 C 672.619 827.386, 675.250 828.596, 675.585 829.138 C 676.130 830.019, 680.491 832.200, 682.139 832.416 C 682.491 832.462, 684.617 833.704, 686.864 835.174 C 689.111 836.645, 691.819 838.125, 692.882 838.463 C 695.693 839.355, 696.093 841.301, 695.008 848.802 C 694.476 852.486, 694.031 863.438, 694.020 873.139 C 693.996 893.952, 693.641 894.887, 685.461 895.678 C 682.732 895.942, 679.825 896.421, 679 896.742 C 678.175 897.064, 677.275 897.385, 677 897.456 C 676.725 897.526, 674.991 898.388, 673.148 899.371 C 671.304 900.353, 667.902 901.727, 665.587 902.424 C 649.454 907.279, 630.324 926.509, 628.268 939.938 C 627.968 941.897, 627.313 944.022, 626.813 944.661 C 626.253 945.375, 626.307 946.072, 626.951 946.470 C 627.528 946.826, 628 948.007, 628 949.094 C 628 950.181, 628.744 952.207, 629.654 953.595 C 631.107 955.813, 631.130 956.298, 629.843 957.585 C 627.236 960.192, 616.172 961.173, 593.215 960.831 C 577.766 960.602, 570.711 960.837, 570.215 961.600 C 569.822 962.205, 568.503 963.225, 567.285 963.867 C 564.276 965.451, 562.285 972.135, 563.819 975.503 L 564.957 978 614.304 978 L 663.651 978 665.709 975.750 C 666.840 974.513, 668.489 972.069, 669.372 970.321 C 670.255 968.572, 671.885 966.854, 672.994 966.502 C 674.103 966.150, 676.246 964.852, 677.755 963.617 C 681.574 960.495, 690.720 955.545, 695.500 954.014 C 697.700 953.309, 700.850 952.025, 702.500 951.161 C 704.150 950.296, 705.885 949.697, 706.355 949.829 C 706.826 949.962, 707.726 949.656, 708.355 949.151 C 708.985 948.645, 710.962 947.918, 712.750 947.536 C 714.565 947.148, 716 946.214, 716 945.421 C 716 944.639, 716.450 944, 717 944 C 718.471 944, 718.157 937.791, 716.580 935.712 C 713.018 931.015, 697.504 931.721, 686.515 937.081 C 683.223 938.686, 679.780 940, 678.864 940 C 677.948 940, 674.791 941.121, 671.849 942.490 C 660.423 947.810, 646.251 943.722, 650.383 936.298 C 651.846 933.671, 663.073 923.429, 664.143 923.745 C 664.599 923.880, 667.359 922.699, 670.277 921.121 C 673.194 919.542, 677.087 917.920, 678.928 917.516 C 680.769 917.112, 684.575 915.710, 687.387 914.400 C 690.411 912.992, 694.372 912.016, 697.083 912.010 C 699.604 912.004, 701.973 911.693, 702.348 911.318 C 702.723 910.944, 705.453 910.749, 708.414 910.886 C 711.428 911.026, 714.089 910.666, 714.458 910.068 C 715.351 908.623, 739.647 908.621, 740.540 910.065 C 740.912 910.666, 743.879 911.052, 747.349 910.951 C 750.732 910.852, 754.175 911.011, 755 911.303 C 755.825 911.596, 758.419 912.055, 760.765 912.325 C 763.111 912.594, 766.729 913.699, 768.805 914.781 C 770.881 915.863, 774.137 917.068, 776.040 917.458 C 777.943 917.848, 781.431 919.521, 783.791 921.175 C 786.151 922.829, 788.738 923.931, 789.541 923.623 C 790.343 923.315, 791 923.499, 791 924.031 C 791 924.564, 791.491 925, 792.092 925 C 792.692 925, 794.380 925.933, 795.842 927.074 C 797.304 928.215, 801.200 930.858, 804.500 932.949 C 807.800 935.039, 812.300 938.426, 814.500 940.476 C 820.744 946.293, 822.070 946.902, 830.033 947.609 C 834.140 947.974, 838.057 948.712, 838.737 949.248 C 839.418 949.785, 840.655 949.963, 841.487 949.643 C 842.319 949.324, 843 949.427, 843 949.873 C 843 951.419, 850.560 952.898, 862 953.589 C 869.747 954.057, 875.876 955.053, 880.781 956.642 C 884.785 957.939, 890.220 959, 892.857 959 C 900.839 959, 919.419 961.122, 920.706 962.180 C 921.370 962.726, 922.351 962.901, 922.887 962.570 C 923.423 962.238, 924.112 962.373, 924.419 962.868 C 925.070 963.923, 929.488 964.612, 944.312 965.970 C 951.071 966.590, 956.834 967.718, 959.689 968.980 C 967.898 972.612, 973.388 971.200, 976.491 964.660 C 977.899 961.693, 977.894 961.094, 976.429 958.159 C 974.513 954.317, 971.648 952.267, 966.948 951.374 C 965.051 951.013, 962.960 950.296, 962.300 949.779 C 961.641 949.262, 959.841 948.966, 958.300 949.122 C 954.120 949.546, 951.699 947.741, 951.592 944.122 C 951.542 942.405, 951.837 941, 952.250 941 C 952.663 941, 953.004 939.763, 953.010 938.250 C 953.015 936.737, 954.140 933.093, 955.510 930.151 C 956.879 927.209, 958 924.046, 958 923.123 C 958 922.200, 958.747 920.379, 959.659 919.076 L 961.318 916.707 978.409 917.394 C 994.642 918.046, 1006.902 920.066, 1013.586 923.188 C 1014.734 923.724, 1016.309 924.055, 1017.086 923.924 C 1018.653 923.659, 1020.563 924.280, 1026.500 926.983 C 1028.700 927.984, 1032.037 929.125, 1033.914 929.518 C 1035.792 929.910, 1039.347 931.304, 1041.813 932.616 C 1044.280 933.927, 1047.104 935, 1048.090 935 C 1049.076 935, 1050.165 935.457, 1050.510 936.016 C 1050.856 936.575, 1051.492 936.814, 1051.924 936.547 C 1052.356 936.280, 1053.717 937.135, 1054.949 938.446 C 1056.182 939.758, 1058.354 941.123, 1059.778 941.480 C 1061.201 941.838, 1063.577 943.113, 1065.057 944.315 C 1066.537 945.517, 1069.116 947.244, 1070.788 948.154 C 1072.460 949.064, 1074.624 951.022, 1075.595 952.505 C 1077.122 954.835, 1077.189 955.630, 1076.088 958.351 C 1075.387 960.083, 1074.114 964.524, 1073.260 968.220 C 1071.167 977.273, 1071.811 978, 1081.922 978 C 1090.282 978, 1092 977.146, 1092 972.991 C 1092 969.389, 1093.797 967.527, 1098.575 966.176 C 1104.982 964.365, 1109.396 957.063, 1110.902 945.782 C 1111.542 940.987, 1112.759 935.137, 1113.606 932.782 C 1114.577 930.084, 1115.509 921.842, 1116.128 910.500 C 1116.713 899.781, 1117.751 890.375, 1118.693 887.247 C 1120.142 882.437, 1120.137 881.133, 1118.632 871.747 C 1117.727 866.111, 1116.573 855.584, 1116.066 848.354 C 1115.429 839.250, 1114.532 833.716, 1113.150 830.354 C 1112.052 827.684, 1110.600 823.025, 1109.924 820 C 1109.247 816.975, 1107.909 813.945, 1106.950 813.266 C 1105.992 812.587, 1104.667 809.780, 1104.007 807.027 C 1103.346 804.275, 1101.993 800.990, 1100.999 799.726 C 1100.006 798.463, 1098.695 795.582, 1098.087 793.324 C 1097.446 790.944, 1095.971 788.556, 1094.578 787.643 C 1093.256 786.777, 1091.881 784.734, 1091.523 783.103 C 1091.164 781.472, 1090.164 779.551, 1089.300 778.834 C 1088.435 778.116, 1086.708 775.948, 1085.460 774.015 C 1081.250 767.488, 1057.493 745, 1054.809 745 C 1054.311 745, 1052.913 743.897, 1051.702 742.548 C 1050.491 741.199, 1045.908 738.231, 1041.518 735.951 C 1037.127 733.671, 1032.402 731.013, 1031.018 730.045 C 1027.412 727.524, 1001.728 717, 999.181 717 C 998.532 717, 998 716.522, 998 715.937 C 998 715.353, 997.212 714.992, 996.250 715.136 C 995.288 715.279, 992.305 714.407, 989.623 713.198 C 986.940 711.989, 983.058 711, 980.995 711 C 977.307 711, 974.293 708.953, 975.383 707.189 C 975.688 706.695, 978.470 704.338, 981.564 701.951 C 989.144 696.103, 993.797 691.335, 995.570 687.601 C 998.057 682.361, 1001.821 676.577, 1003.781 674.983 C 1004.807 674.148, 1007.301 671.060, 1009.323 668.121 C 1012.191 663.951, 1013 661.808, 1013 658.378 C 1013 655.284, 1013.567 653.495, 1014.913 652.342 C 1016.830 650.701, 1024.002 649.839, 1024.001 651.250 C 1024 652.279, 1030.757 652.203, 1031.397 651.167 C 1031.680 650.708, 1033.174 650.519, 1034.718 650.745 C 1039.665 651.471, 1058.236 641.357, 1066.757 633.297 C 1070.741 629.528, 1074 625.892, 1074 625.216 C 1074 624.540, 1075.125 623.009, 1076.500 621.813 C 1077.875 620.618, 1079 619.080, 1079 618.396 C 1079 617.713, 1080.171 615.762, 1081.602 614.061 C 1083.033 612.360, 1085.322 607.938, 1086.689 604.234 C 1091.927 590.034, 1092.173 588.450, 1091.707 571.835 C 1091.328 558.296, 1090.991 555.717, 1089.225 552.835 C 1088.102 551.001, 1086.699 547.678, 1086.107 545.450 C 1085.396 542.776, 1083.331 539.719, 1080.027 536.450 C 1075.294 531.768, 1073.701 527.921, 1075.926 526.546 C 1076.436 526.231, 1078.727 523.167, 1081.018 519.737 C 1086.201 511.979, 1087.149 506.767, 1086.328 490.569 L 1085.713 478.434 1091.325 473.078 C 1094.670 469.885, 1097.393 466.264, 1098.068 464.111 C 1098.690 462.125, 1100.054 458.670, 1101.099 456.434 C 1104.309 449.568, 1103.767 436.721, 1099.831 426.358 C 1097.173 419.360, 1095.624 416.961, 1090.224 411.482 C 1084.385 405.556, 1083.840 404.649, 1084.352 401.724 C 1084.663 399.951, 1085.353 396.025, 1085.885 393 C 1088.186 379.935, 1086.562 358.800, 1082.898 354.144 C 1081.754 352.690, 1080.239 350.113, 1079.530 348.417 C 1077.718 344.081, 1071.124 335.640, 1068.879 334.782 C 1067.846 334.387, 1067 333.639, 1067 333.120 C 1067 332.601, 1064.412 330.410, 1061.250 328.253 C 1055.678 324.451, 1039.996 319, 1034.630 319 C 1031.308 319, 1028.333 315.157, 1027.663 310 C 1026.432 300.525, 1024.247 291.931, 1022.609 290.121 C 1021.671 289.084, 1020.460 286.628, 1019.917 284.661 C 1019.346 282.592, 1017.681 280.197, 1015.965 278.975 C 1014.334 277.814, 1013 276.295, 1013 275.599 C 1013 274.265, 1005.757 268, 1004.214 268 C 1003.717 268, 1002.506 267.111, 1001.523 266.026 C 1000.540 264.940, 998.783 263.754, 997.618 263.391 C 996.453 263.028, 993.700 261.457, 991.500 259.900 C 982.874 253.794, 949.775 253.657, 945.015 259.708 C 944.024 260.968, 942.803 262, 942.302 262 C 940.459 262, 935.199 255.380, 933.959 251.500 C 932.487 246.896, 926.575 239.384, 923.866 238.675 C 922.853 238.410, 921.607 237.095, 921.096 235.753 C 920.577 234.388, 918.699 232.730, 916.834 231.991 C 915 231.265, 912.757 230.040, 911.849 229.270 C 910.940 228.499, 907.340 227.206, 903.849 226.397 C 896.742 224.750, 892 222.892, 892 221.756 C 892 221.340, 886.600 221, 880 221 C 873.400 221, 868 221.388, 868 221.863 M 862 244.770 C 857.875 246.857, 853.150 249.468, 851.500 250.572 C 849.850 251.677, 847.682 253.012, 846.683 253.540 C 844.848 254.510, 843.422 256.691, 840.565 262.904 C 838.502 267.391, 838.590 267.817, 841.039 265.189 C 842.160 263.985, 843.661 263, 844.374 263 C 845.086 263, 846.831 261.762, 848.250 260.250 C 852.819 255.382, 859.215 252.210, 868.195 250.362 C 876.314 248.691, 877.473 248.680, 886.870 250.189 C 892.380 251.074, 898.151 252.457, 899.694 253.263 C 901.237 254.068, 903.660 255.359, 905.079 256.131 C 908.180 257.819, 917 266.605, 917 268.006 C 917 268.553, 917.900 269, 919 269 C 923.976 269, 919.094 259.735, 910.791 253.421 C 907.347 250.802, 901.373 247.073, 897.515 245.134 C 891.032 241.876, 889.703 241.585, 880 241.292 C 869.561 240.977, 869.456 240.997, 862 244.770 M 775.200 247.200 C 774.540 247.860, 774 248.045, 774 247.611 C 774 247.177, 772.615 247.987, 770.923 249.411 C 769.231 250.835, 767.269 252, 766.564 252 C 763.068 252, 752 264.492, 752 268.438 C 752 271.008, 756.205 269.993, 757.656 267.072 C 758.319 265.737, 759.824 264.129, 761 263.500 C 762.176 262.871, 763.670 261.294, 764.319 259.998 C 764.969 258.701, 766.684 257.324, 768.130 256.938 C 769.577 256.553, 772.201 255.171, 773.963 253.869 C 776.868 251.720, 778.364 251.467, 790.082 251.150 C 797.187 250.957, 803 250.427, 803 249.973 C 803 249.518, 801.581 248.439, 799.846 247.573 C 795.914 245.612, 777.074 245.326, 775.200 247.200 M 807.728 253.605 C 806.639 254.694, 807.955 256, 810.142 256 C 811.317 256, 811.992 255.475, 811.750 254.750 C 811.275 253.322, 808.735 252.599, 807.728 253.605 M 956.988 275.999 C 941.593 278.428, 942.519 281, 958.789 281 C 972.329 281, 972.011 280.918, 982.591 287.107 C 993.362 293.408, 998.054 297.955, 1000.563 304.526 C 1001.488 306.949, 1003.294 309.618, 1004.576 310.458 C 1005.947 311.356, 1007.178 313.433, 1007.567 315.503 C 1007.930 317.439, 1008.626 319.269, 1009.113 319.570 C 1010.529 320.445, 1010.138 315.100, 1008.535 311.651 C 1007.729 309.918, 1006.674 306.684, 1006.190 304.464 C 1004.417 296.339, 989.761 280.591, 981.144 277.551 C 975.754 275.649, 963.993 274.894, 956.988 275.999 M 707 284.470 C 705.625 285.262, 702.250 287.057, 699.500 288.459 C 691.848 292.360, 687.690 295.771, 685.766 299.726 C 684.803 301.706, 683.372 304.040, 682.586 304.913 C 681.799 305.786, 680.834 307.850, 680.440 309.500 C 680.046 311.150, 679.281 313.063, 678.740 313.750 C 678.077 314.591, 678.170 315.499, 679.021 316.525 C 680.152 317.888, 680.478 317.877, 682.087 316.422 C 683.077 315.526, 684.192 313.401, 684.566 311.699 C 685.005 309.699, 687.839 306.054, 692.584 301.385 C 698.577 295.489, 700.930 293.871, 705.411 292.569 C 708.429 291.692, 711.173 290.530, 711.508 289.987 C 712.343 288.637, 720.412 288.744, 725.166 290.168 C 730.711 291.829, 731.921 290.198, 728.144 286.154 C 725.319 283.130, 724.874 283.001, 717.349 283.015 C 712.365 283.024, 708.587 283.555, 707 284.470 M 1024 337.857 C 1024 338.329, 1021.862 338.683, 1019.250 338.644 C 1014.123 338.569, 1013.415 340.425, 1018.500 340.608 C 1033.324 341.144, 1039.519 342.324, 1044.115 345.485 C 1050.893 350.147, 1059.829 360.363, 1061.500 365.360 C 1062.050 367.004, 1063.063 368.534, 1063.750 368.758 C 1065.879 369.454, 1065.200 362.465, 1062.750 358.469 C 1059.390 352.989, 1050.933 344.566, 1047.322 343.104 C 1045.575 342.396, 1043.377 340.969, 1042.439 339.932 C 1041.500 338.895, 1040.374 338.269, 1039.935 338.540 C 1039.497 338.811, 1038.856 338.575, 1038.510 338.016 C 1037.752 336.789, 1024 336.638, 1024 337.857 M 654.144 349.698 C 652.372 350.403, 644 358.430, 644 359.424 C 644 359.846, 642.988 361.611, 641.752 363.346 C 640.515 365.081, 639.464 366.725, 639.415 367 C 639.367 367.275, 638.980 368.289, 638.556 369.252 C 637.646 371.319, 638.629 376, 639.972 376 C 640.486 376, 641.843 374.087, 642.989 371.750 C 647.654 362.229, 649.117 359.974, 652.023 357.825 C 654.474 356.013, 658 351.011, 658 349.346 C 658 348.854, 655.747 349.060, 654.144 349.698 M 823.827 369.277 C 818.381 374.056, 809.206 379.573, 802.460 382.127 C 797.863 383.868, 794.328 384.397, 787 384.442 C 775.172 384.514, 766.330 381.629, 758.832 375.250 C 756.085 372.913, 753.395 371, 752.855 371 C 752.314 371, 750.664 372.338, 749.186 373.974 C 747.709 375.609, 743.211 380.266, 739.190 384.321 C 730.395 393.192, 722.561 397, 713.103 397 C 706.150 397, 704.462 398.434, 704.864 403.998 C 705.015 406.087, 704.657 408.094, 704.069 408.457 C 703.481 408.821, 703 409.971, 703 411.015 C 703 413.799, 698.615 419.790, 692.696 425.092 L 687.500 429.747 687.492 438.123 C 687.482 448.832, 685.343 467.919, 683.366 474.938 C 682.495 478.031, 681.593 486.659, 681.275 494.947 C 680.802 507.244, 680.952 509.716, 682.236 510.781 C 683.506 511.835, 684.458 511.459, 687.982 508.515 C 692.867 504.434, 692.334 504.592, 710 501.996 C 726.131 499.627, 738.582 499.456, 746.032 501.502 C 749.039 502.328, 754.200 503.724, 757.500 504.605 C 760.800 505.486, 764.175 506.782, 765 507.487 C 765.825 508.191, 768.300 509.682, 770.500 510.800 C 772.700 511.919, 776.525 515.189, 779 518.068 C 787.269 527.687, 786.299 527.118, 791.433 525.368 C 795.963 523.825, 811.187 523.912, 823.165 525.550 C 827.313 526.117, 827.962 525.940, 829.027 523.950 C 833.085 516.366, 845.033 506.876, 854.114 504.022 C 867.798 499.722, 896.738 498.820, 908 502.341 C 910.475 503.115, 914.975 504.081, 918 504.487 C 928.056 505.837, 943.221 514.569, 948.259 521.910 C 950.150 524.666, 948.602 524.541, 976.781 524.220 C 993.581 524.028, 996.144 523.789, 996.691 522.364 C 997.036 521.464, 996.909 520.176, 996.409 519.501 C 995.909 518.826, 993.560 515.399, 991.189 511.887 L 986.879 505.500 987.189 494.500 C 987.463 484.811, 987.778 483.130, 989.830 480.396 C 993.329 475.736, 992.531 471.967, 987.754 470.584 C 985.694 469.988, 983.306 468.488, 982.447 467.250 C 981.589 466.012, 980.279 465, 979.536 465 C 978.794 465, 976.355 462.813, 974.117 460.139 C 967.482 452.215, 965.381 439.516, 968.187 424.290 C 969.672 416.230, 968.194 414.673, 961.714 417.470 C 958.686 418.778, 942.820 417.428, 939 415.537 C 937.075 414.585, 933.561 412.837, 931.190 411.653 C 925.431 408.776, 915.760 398.980, 914.386 394.631 C 914.015 393.459, 912.686 391.150, 911.431 389.500 C 910.177 387.850, 908.617 384.379, 907.966 381.787 C 906.921 377.631, 905.616 376.384, 904 378 C 903.725 378.275, 899.675 380.397, 895 382.716 C 883.080 388.629, 874.285 389.958, 862.456 387.634 C 850.763 385.336, 845.618 382.823, 839.433 376.386 C 836.587 373.424, 834.459 371, 834.706 371 C 834.952 371, 833.816 369.875, 832.182 368.500 C 828.450 365.359, 828.273 365.376, 823.827 369.277 M 740.482 464.565 C 739.942 464.686, 736.237 465.356, 732.250 466.053 C 728.263 466.750, 725 467.685, 725 468.129 C 725 468.574, 724.295 468.667, 723.433 468.336 C 721.938 467.762, 720.830 468.137, 713.178 471.801 C 707.355 474.590, 700.998 481.263, 701.014 484.570 C 701.037 489.473, 701.973 491.448, 705.136 493.263 C 708.279 495.067, 716.482 495.648, 717.418 494.132 C 717.713 493.655, 721.746 492.469, 726.379 491.496 C 734.237 489.848, 735.339 489.836, 742.741 491.328 C 752.648 493.324, 756.861 492.685, 761.436 488.495 C 764.516 485.673, 765 484.616, 765 480.700 C 765 476.570, 764.594 475.813, 760.398 472.119 C 757.867 469.891, 755.504 468.148, 755.148 468.246 C 754.792 468.345, 753.494 467.867, 752.264 467.185 C 749.948 465.900, 742.207 464.179, 740.482 464.565 M 869.413 466.817 C 865.275 467.961, 861.800 469.815, 858.556 472.610 C 854.439 476.158, 853.715 477.352, 853.266 481.333 C 852.786 485.590, 853.018 486.218, 856.273 489.473 C 860.226 493.426, 862.979 493.774, 876.496 492.034 C 884.003 491.067, 899.540 492.410, 901.745 494.217 C 902.429 494.777, 903.892 495, 904.995 494.712 C 906.098 494.423, 907 494.538, 907 494.966 C 907 496.337, 914.452 496.990, 918.224 495.949 C 922.541 494.757, 927 489.870, 927 486.332 C 927 481.468, 916.266 471.565, 909.635 470.311 C 907.911 469.985, 905.971 469.305, 905.324 468.798 C 904.677 468.292, 903.552 467.977, 902.824 468.097 C 902.096 468.217, 900.825 468.071, 900 467.772 C 891.130 464.558, 878.959 464.178, 869.413 466.817 M 347.500 485 C 339.619 485.907, 324.737 490.023, 319.780 492.667 C 317.976 493.629, 316.209 494.435, 315.854 494.458 C 315.499 494.481, 312.151 496.525, 308.415 499 C 304.679 501.475, 300.521 504.116, 299.176 504.869 C 297.830 505.623, 295.393 507.760, 293.761 509.619 C 292.128 511.479, 290.138 513, 289.337 513 C 288.537 513, 288.131 513.403, 288.435 513.895 C 288.740 514.388, 288.316 515.048, 287.494 515.364 C 286.672 515.679, 286 516.626, 286 517.469 C 286 518.311, 285.438 519.016, 284.750 519.036 C 284.063 519.056, 282.600 520.853, 281.500 523.029 C 280.400 525.205, 277.585 530.311, 275.244 534.376 C 270.293 542.975, 268.470 552.680, 269.199 566.561 C 269.573 573.698, 270.014 575.330, 272.422 578.487 C 275.792 582.905, 277.668 583.761, 279.645 581.783 C 280.912 580.517, 280.968 579.069, 280.019 572.136 C 278.508 561.103, 280.135 545.887, 283.553 539.082 C 284.899 536.402, 286 533.759, 286 533.208 C 286 531.356, 293.046 526, 295.484 526 C 298.688 526, 303 531.648, 303 535.844 C 303 537.580, 302.523 539, 301.941 539 C 301.359 539, 301.172 539.470, 301.527 540.044 C 301.882 540.618, 301.736 541.630, 301.203 542.294 C 299.595 544.295, 298 553.662, 298 561.106 C 298 570.709, 299.610 576.323, 303.620 580.701 C 305.479 582.730, 307 584.779, 307 585.254 C 307 585.729, 307.403 585.869, 307.895 585.565 C 308.388 585.260, 309.048 585.684, 309.364 586.506 C 309.679 587.328, 310.743 588, 311.728 588 C 313.882 588, 316.449 584.395, 314.953 583.471 C 314.400 583.129, 314.050 582.321, 314.177 581.675 C 314.303 581.029, 313.564 578.925, 312.535 577 C 309.920 572.109, 309.916 554.339, 312.529 548.500 C 313.514 546.300, 314.367 544.275, 314.425 544 C 314.483 543.725, 314.801 543.050, 315.132 542.500 C 315.463 541.950, 316.475 539.250, 317.381 536.500 C 319.833 529.059, 324.537 523.998, 329.634 523.319 C 332.973 522.874, 334.175 523.175, 335.884 524.884 C 338.813 527.813, 338.551 532.023, 335.017 538.813 C 331.534 545.506, 330.103 552.134, 329.837 562.810 C 329.510 575.927, 334.099 586.434, 339.286 584.444 C 341.493 583.597, 344.456 576.794, 346.437 568.027 C 347.366 563.917, 348.489 560.092, 348.932 559.527 C 349.376 558.962, 350.307 556.700, 351 554.500 C 351.693 552.300, 352.707 549.938, 353.253 549.250 C 353.798 548.563, 353.957 548, 353.606 548 C 351.558 548, 365.721 530.196, 369.200 528.397 C 372.409 526.737, 376.618 526.572, 377.543 528.070 C 377.907 528.659, 379.099 529.471, 380.193 529.876 C 381.374 530.313, 383.385 533.343, 385.147 537.343 L 388.113 544.074 385.691 549.287 C 384.359 552.154, 381.009 557.055, 378.248 560.179 C 372.630 566.532, 366.500 574.803, 366.500 576.029 C 366.500 576.471, 366.163 577.171, 365.750 577.583 C 364.611 578.722, 364.851 595.790, 366.016 596.510 C 366.575 596.856, 366.799 597.516, 366.514 597.978 C 365.906 598.961, 371.150 603.596, 373.834 604.447 C 376.611 605.329, 382.942 602.283, 383.974 599.569 C 384.470 598.263, 385.361 596.895, 385.953 596.529 C 386.546 596.163, 387.690 594.432, 388.496 592.682 C 391.432 586.306, 399.343 576.394, 406.798 569.750 C 410.439 566.505, 411.662 566, 415.881 566 C 418.562 566, 422.364 566.672, 424.330 567.493 C 428.229 569.122, 431.828 568.370, 435.339 565.193 C 436.984 563.705, 437.109 562.503, 436.501 554.012 C 435.871 545.211, 435.982 544.293, 437.983 541.749 C 440.358 538.729, 443.922 538.192, 447.828 540.265 C 451.806 542.376, 455.106 552.094, 455.224 562.044 C 455.315 569.685, 455.027 571.112, 452.501 575.544 C 450.948 578.270, 448.502 581.850, 447.067 583.500 C 442.627 588.604, 443.990 592.092, 450.331 591.852 C 452.644 591.765, 455.428 592.144, 456.518 592.695 C 457.608 593.246, 459.850 594.397, 461.500 595.251 C 463.170 596.116, 465.493 598.733, 466.740 601.153 C 468.699 604.955, 468.981 607.036, 468.990 617.750 C 468.996 625.652, 469.374 630, 470.053 630 C 470.754 630, 471.004 634.675, 470.803 644.002 C 470.636 651.703, 470.803 658.003, 471.172 658.002 C 471.542 658.001, 472.389 659.688, 473.053 661.750 C 474.992 667.767, 499.244 691.035, 509.542 696.758 C 510.787 697.450, 513.226 699.343, 514.961 700.964 C 516.697 702.585, 519.328 704.550, 520.809 705.329 C 522.289 706.109, 525.975 708.145, 529 709.855 C 533.109 712.178, 535.771 712.968, 539.527 712.982 C 542.432 712.992, 545.493 713.657, 546.777 714.557 C 548 715.413, 549 715.789, 549 715.393 C 549 714.996, 552.038 717.589, 555.750 721.155 C 561.634 726.806, 573.835 736, 575.450 736 C 575.757 736, 578.850 737.986, 582.322 740.413 C 589.069 745.128, 595.380 748.980, 600.936 751.773 C 602.826 752.723, 605.393 754.513, 606.641 755.750 C 611.554 760.624, 615.278 758.231, 621.341 746.302 C 623.353 742.343, 625 738.405, 625 737.552 C 625 736.698, 625.477 736, 626.059 736 C 626.641 736, 626.864 735.588, 626.553 735.085 C 626.242 734.582, 626.392 734.020, 626.885 733.835 C 627.379 733.651, 630.139 726.525, 633.018 718 C 635.897 709.475, 638.641 702.009, 639.117 701.408 C 639.593 700.807, 639.697 700.031, 639.349 699.682 C 639 699.334, 639.178 698.475, 639.745 697.774 C 641.784 695.251, 646.157 675.368, 647.027 664.664 C 648.256 649.550, 647.835 648.711, 635.992 642.658 C 630.890 640.050, 625.542 637.011, 624.108 635.905 C 619.405 632.277, 613.557 628.741, 610.501 627.678 C 608.850 627.104, 605.499 625.366, 603.054 623.817 C 600.582 622.251, 597.197 621, 595.429 621 C 588.974 621, 585.983 619.739, 581.497 615.124 C 579.024 612.581, 577.001 610.181, 577.001 609.790 C 576.999 607.468, 535.522 574, 532.646 574 C 532.347 574, 530.842 572.815, 529.302 571.367 C 527.761 569.919, 525.150 568.160, 523.500 567.458 C 521.850 566.755, 518.831 564.903, 516.791 563.340 C 514.751 561.778, 511.601 559.468, 509.791 558.207 C 502.172 552.900, 495.338 548.014, 493 546.204 C 491.625 545.139, 488.925 543.409, 487 542.359 C 485.075 541.309, 480.125 538.264, 476 535.593 C 471.875 532.921, 466.025 529.134, 463 527.176 C 459.975 525.219, 456.583 522.815, 455.463 521.834 C 454.343 520.854, 449.983 517.902, 445.774 515.276 C 441.566 512.649, 435.249 508.433, 431.738 505.907 C 428.226 503.381, 422.911 500.006, 419.927 498.407 C 416.942 496.808, 414.349 495.160, 414.165 494.744 C 413.980 494.328, 413.367 494.273, 412.803 494.622 C 412.238 494.971, 411.489 494.840, 411.138 494.330 C 410.465 493.353, 396.626 489.003, 386.500 486.585 C 379.093 484.817, 356.926 483.916, 347.500 485 M 710 520.875 C 710 521.356, 708.763 522, 707.250 522.305 C 704.096 522.941, 689.852 536.451, 687.462 541.073 C 685.413 545.036, 685.793 555.500, 687.986 555.500 C 688.804 555.500, 689.642 554.600, 689.850 553.500 C 690.635 549.340, 698.352 537.961, 705.046 531.092 C 711.276 524.699, 713.799 520, 711 520 C 710.450 520, 710 520.394, 710 520.875 M 861.434 525.792 C 855.739 528.965, 851.198 533.075, 850.554 535.640 C 850.202 537.043, 848.572 539.417, 846.931 540.916 C 844.636 543.012, 843.811 544.803, 843.351 548.685 C 842.990 551.732, 843.163 553.982, 843.786 554.368 C 845.170 555.223, 848.134 554.026, 847.435 552.895 C 847.131 552.403, 847.359 552, 847.941 552 C 848.523 552, 849 551.380, 849 550.621 C 849 547.798, 856.153 537.503, 861.978 531.943 C 865.290 528.781, 868 525.701, 868 525.097 C 868 523.504, 864.965 523.825, 861.434 525.792 M 658.247 536.753 C 657.084 537.916, 655.945 541.616, 655.083 547.035 C 654.342 551.691, 653.523 555.871, 653.262 556.325 C 652.600 557.481, 652.707 570.180, 653.395 572 C 653.707 572.825, 654.602 577.259, 655.384 581.853 C 656.167 586.448, 657.270 590.670, 657.836 591.236 C 659.866 593.266, 661.727 591.194, 662.241 586.333 C 662.522 583.675, 663.307 580.150, 663.985 578.500 C 665.405 575.045, 665.673 567.898, 664.457 565.930 C 664.001 565.193, 663.571 558.334, 663.502 550.689 C 663.394 538.877, 663.127 536.650, 661.720 535.863 C 660.538 535.202, 659.543 535.457, 658.247 536.753 M 1042.500 539.931 C 1032.049 542.463, 1024.575 552.366, 1020.460 569.135 C 1019.542 572.873, 1018.038 575.808, 1015.988 577.858 C 1013.272 580.574, 1012.982 581.389, 1013.587 584.610 C 1013.965 586.625, 1015.101 589.101, 1016.112 590.112 C 1017.122 591.122, 1018.243 593.121, 1018.603 594.554 C 1019.592 598.494, 1018.233 607.491, 1016.003 611.769 C 1014.913 613.862, 1013.748 617.582, 1013.415 620.037 C 1012.477 626.958, 1016.147 629.514, 1028.713 630.692 C 1034.857 631.268, 1042.331 628.321, 1049.385 622.541 C 1051.762 620.593, 1054.150 619, 1054.692 619 C 1055.726 619, 1062 612.505, 1062 611.434 C 1062 611.094, 1062.900 609.671, 1064 608.273 C 1065.100 606.874, 1066 605.046, 1066 604.210 C 1066 603.373, 1067.155 601.175, 1068.566 599.325 C 1070.836 596.348, 1071.253 594.478, 1072.178 583.107 C 1073.430 567.718, 1072.154 557.153, 1068.651 553.890 C 1067.468 552.789, 1065.825 550.490, 1065 548.782 C 1064.175 547.074, 1062.375 544.851, 1061 543.841 C 1058.817 542.238, 1048.141 538.819, 1046.201 539.102 C 1045.816 539.159, 1044.150 539.532, 1042.500 539.931 M 980.535 544.745 C 977.254 544.947, 974.018 545.570, 973.344 546.129 C 972.670 546.688, 971.305 547.044, 970.310 546.919 C 969.314 546.795, 967.825 546.953, 967 547.272 C 966.175 547.590, 963.475 548.122, 961 548.455 C 953.987 549.396, 953.585 549.923, 953.212 558.700 C 953.030 562.990, 952.694 567.067, 952.467 567.760 C 952.240 568.454, 951.988 569.354, 951.906 569.760 C 951.824 570.167, 950.743 571.705, 949.503 573.179 C 948.264 574.652, 946.956 577.419, 946.598 579.328 C 946.240 581.237, 945.258 583.371, 944.416 584.070 C 943.574 584.769, 942.215 586.952, 941.397 588.920 C 939.241 594.110, 930.567 602.526, 922.500 607.257 C 918.650 609.515, 914.821 611.927, 913.991 612.618 C 910.581 615.456, 896.686 618.428, 887 618.391 C 877.189 618.353, 856.896 614.114, 856.157 611.948 C 855.969 611.395, 853.269 609.326, 850.157 607.350 C 843.749 603.281, 836.019 596.124, 836.008 594.250 C 836.003 593.563, 835.475 593, 834.833 593 C 834.192 593, 833.948 592.719, 834.291 592.376 C 834.634 592.033, 834.111 591.020, 833.129 590.126 C 832.147 589.232, 829.667 584.532, 827.618 579.683 C 824.642 572.638, 823.776 569.120, 823.311 562.183 C 822.990 557.407, 822.284 552.938, 821.742 552.250 C 821.199 551.563, 821.148 550.990, 821.628 550.977 C 822.107 550.965, 821.038 550.233, 819.250 549.352 C 817.462 548.471, 816 547.434, 816 547.048 C 816 546.662, 814.703 546.537, 813.118 546.769 C 811.534 547.002, 809.932 546.699, 809.559 546.096 C 808.687 544.685, 797.328 544.660, 796.458 546.068 C 796.095 546.656, 795.262 546.931, 794.607 546.679 C 793.952 546.428, 792.535 546.866, 791.458 547.653 C 789.818 548.850, 789.416 550.667, 788.985 558.834 C 788.558 566.932, 788.091 569.069, 786.235 571.428 C 785.006 572.991, 784 575.307, 784 576.576 C 784 577.844, 783.543 579.165, 782.984 579.510 C 782.425 579.856, 782.195 580.506, 782.473 580.956 C 782.751 581.405, 782.247 582.380, 781.353 583.122 C 780.459 583.864, 778.724 586.062, 777.496 588.006 C 772.636 595.705, 759.050 606.911, 752.794 608.380 C 751.306 608.730, 748.831 609.537, 747.294 610.174 C 745.757 610.811, 744.275 611.409, 744 611.503 C 743.725 611.596, 742.600 612.084, 741.500 612.586 C 740.400 613.089, 733.425 613.489, 726 613.476 C 713.316 613.453, 712.137 613.282, 706.500 610.640 C 697.630 606.482, 690.495 601.473, 686.305 596.461 C 683.832 593.503, 682.253 592.347, 681.590 593.010 C 679.899 594.701, 680.878 618.985, 682.766 622.181 C 683.647 623.672, 684.734 624.664, 685.183 624.387 C 685.633 624.109, 686 624.391, 686 625.012 C 686 626.402, 687.853 628.316, 690.644 629.809 C 691.913 630.489, 693.182 632.665, 693.846 635.304 C 695.110 640.322, 698.211 643.808, 703.854 646.553 C 706.892 648.031, 708.268 649.573, 709.816 653.237 C 711.790 657.910, 711.912 658, 716.298 658 C 720.243 658, 721.191 658.469, 724.381 662 C 730.375 668.635, 733 666.722, 733 655.716 C 733 650.279, 733.546 648.272, 736.585 642.545 C 738.557 638.829, 741.778 634.374, 743.741 632.645 C 748.890 628.111, 755 623.710, 755 624.536 C 755 624.926, 755.563 624.782, 756.250 624.217 C 756.938 623.652, 760.168 622.416, 763.428 621.472 C 766.689 620.527, 771.144 618.460, 773.328 616.877 C 778.530 613.109, 785.307 612.984, 792.500 616.522 C 798.187 619.320, 802.609 619.663, 805.637 617.542 C 808.590 615.473, 819.741 613.895, 824.192 614.916 C 826.222 615.382, 829.095 616.716, 830.577 617.882 C 832.317 619.250, 834.726 620.006, 837.385 620.016 C 843.795 620.040, 852.932 622.550, 855.107 624.885 C 856.191 626.048, 857.647 627, 858.342 627 C 860.175 627, 867.687 632.548, 873.749 638.381 C 880.203 644.589, 885 653.968, 885 660.378 C 885 662.855, 885.457 665.165, 886.016 665.510 C 886.575 665.856, 886.840 666.450, 886.605 666.830 C 886.370 667.211, 886.788 668.357, 887.533 669.377 C 888.845 671.171, 889.006 671.159, 892.457 669.026 C 894.420 667.814, 896.483 665.966, 897.043 664.921 C 897.602 663.875, 898.384 663.087, 898.780 663.169 C 899.176 663.251, 900.373 662.940, 901.440 662.479 C 902.679 661.943, 903.515 662.046, 903.755 662.764 C 903.961 663.382, 904.805 663.628, 905.632 663.311 C 906.459 662.994, 908.169 663.288, 909.432 663.964 C 911.474 665.056, 912.254 664.793, 916.442 661.596 C 919.033 659.618, 922.357 657.733, 923.827 657.407 C 929.086 656.241, 929.675 655.939, 933.439 652.492 C 936.351 649.825, 938.121 649, 940.935 649 C 945.632 649, 947.740 647.420, 950.380 641.919 C 952.144 638.242, 953.231 637.269, 956.854 636.122 C 960.325 635.024, 961.530 634.010, 962.790 631.122 C 963.660 629.130, 964.301 627.201, 964.214 626.836 C 964.128 626.470, 967.419 622.721, 971.529 618.503 C 977.224 612.658, 979 610.169, 979 608.032 C 979 606.426, 980.709 602.669, 983 599.238 C 985.333 595.744, 987 592.059, 987 590.394 C 987 588.824, 988.657 584.855, 990.682 581.574 L 994.364 575.609 994.104 561.063 C 993.957 552.829, 993.391 545.971, 992.800 545.258 C 992.225 544.566, 990.573 544.085, 989.128 544.189 C 987.682 544.293, 983.816 544.543, 980.535 544.745 M 416.980 586.524 C 414.531 589.475, 417.367 591.948, 421.418 590.393 C 423.628 589.545, 423.394 588.488, 420.592 586.652 C 418.494 585.278, 418.028 585.261, 416.980 586.524 M 285 609.731 C 283.075 609.958, 281.072 610.561, 280.550 611.071 C 279.157 612.433, 262.637 612.237, 261.242 610.842 C 260.366 609.966, 259.721 609.986, 258.586 610.928 C 257.762 611.613, 256.665 611.911, 256.149 611.592 C 255.632 611.273, 254.871 611.796, 254.457 612.756 C 254.043 613.715, 253.582 634.191, 253.432 658.258 C 253.211 693.655, 253.414 702.271, 254.492 703.349 C 256.516 705.373, 424.693 706.736, 426.685 704.744 C 428.779 702.650, 429.021 614.846, 426.938 612.867 C 425.439 611.442, 420.591 611.076, 419.371 612.296 C 418.307 613.360, 413 613.140, 413 612.031 C 413 611.499, 412.371 611.304, 411.601 611.600 C 410.832 611.895, 409.905 611.656, 409.542 611.068 C 408.146 608.810, 403.681 610.116, 398.166 614.398 C 393.210 618.244, 382.741 624.318, 380.833 624.453 C 380.467 624.479, 379.829 624.837, 379.417 625.250 C 378.214 626.453, 370.514 626.114, 369.200 624.800 C 368.540 624.140, 368 623.901, 368 624.270 C 368 625.139, 361.089 620.631, 358.500 618.072 C 355.352 614.961, 349.828 613.083, 345.447 613.634 C 337.705 614.608, 304.721 612.346, 301.500 610.620 C 298.624 609.079, 293.089 608.781, 285 609.731 M 447.115 616.785 C 446.413 618.096, 446.302 679.567, 446.969 697.320 C 446.986 697.770, 447.952 697.995, 449.116 697.820 C 451.225 697.501, 451.232 697.368, 451.489 657.500 C 451.653 632.053, 451.384 617.045, 450.751 616.250 C 449.372 614.520, 448.238 614.687, 447.115 616.785 M 764.768 652 C 763.406 652.825, 760.345 655.260, 757.966 657.410 C 754.096 660.908, 753.632 661.806, 753.570 665.910 C 753.526 668.771, 754.300 672.022, 755.624 674.540 C 756.793 676.762, 758.055 679.972, 758.428 681.674 C 759.299 685.638, 765.522 691.241, 770.816 692.827 C 773.071 693.502, 775.204 694.520, 775.555 695.089 C 776.715 696.966, 780.890 697.992, 783.431 697.026 C 785.245 696.337, 786.077 695.013, 786.710 691.816 C 787.940 685.597, 789.895 684.921, 804.500 685.664 C 817.456 686.323, 820 687.031, 820 689.976 C 820 691.024, 820.489 692.184, 821.087 692.554 C 821.685 692.923, 821.971 694.004, 821.722 694.956 C 821.016 697.653, 824.332 699.006, 832.883 699.511 C 839.720 699.914, 840.938 699.726, 842.474 698.029 C 843.441 696.960, 847.134 695.120, 850.680 693.940 C 858.631 691.294, 859 690.496, 859 675.948 C 859 665.645, 858.844 664.806, 856.250 661.129 C 853.038 656.576, 848.235 653, 845.333 653 C 843.434 653, 843.297 653.575, 843.395 661.167 L 843.500 669.333 837.031 673.687 C 833.473 676.082, 828.973 678.466, 827.031 678.985 C 825.089 679.505, 815.997 679.732, 806.827 679.489 C 790.492 679.057, 790.036 678.985, 784.327 675.949 C 770.191 668.432, 768.084 666.543, 768.032 661.333 C 768.003 658.490, 768.461 657.989, 772.500 656.447 C 777.560 654.514, 778.005 653.608, 774.751 651.867 C 771.605 650.183, 767.681 650.235, 764.768 652 M 797.673 653.459 C 783.197 659.461, 784.836 660.703, 807.835 661.157 L 825.170 661.500 827.585 658.694 C 830.650 655.133, 830.713 653.530, 827.750 654.512 C 821.449 656.599, 816.437 656.212, 810.886 653.209 L 805.415 650.249 797.673 653.459 M 931.902 736.930 C 924.397 743.115, 916.456 747, 911.314 747 C 907.789 747, 905.459 747.683, 902.785 749.500 C 900.762 750.875, 898.662 752, 898.118 752 C 897.575 752, 895.863 752.525, 894.315 753.166 C 892.767 753.808, 891.275 754.407, 891 754.498 C 890.725 754.589, 888.262 755.666, 885.527 756.892 C 881.480 758.705, 878.462 759.161, 869.320 759.340 C 859.114 759.540, 857.785 759.786, 854.793 762.030 C 851.895 764.204, 850.661 764.462, 844.500 764.188 C 840.650 764.017, 836.375 763.889, 835 763.905 C 816.862 764.113, 814.894 763.996, 812.093 762.548 C 810.447 761.697, 806.939 760.997, 804.300 760.994 C 801.660 760.991, 797.754 760.504, 795.619 759.911 C 792.485 759.041, 791.455 759.116, 790.272 760.300 C 788.983 761.588, 789.496 762.446, 794.495 767.366 C 797.804 770.623, 802.971 774.325, 806.843 776.215 C 810.504 778.001, 813.651 779.812, 813.835 780.238 C 814.020 780.664, 814.582 780.758, 815.085 780.447 C 815.588 780.136, 816 780.327, 816 780.870 C 816 782.384, 825.786 784.892, 835.644 785.904 C 849.261 787.302, 868.616 784.620, 878.802 779.924 C 881.168 778.834, 885.218 777.226, 887.802 776.352 C 890.386 775.478, 893.694 773.917, 895.154 772.882 C 896.614 771.847, 898.091 771, 898.436 771 C 899.831 771, 915.783 759.231, 919.776 755.256 C 922.128 752.915, 924.248 751, 924.486 751 C 925.047 751, 931.846 744.166, 934.750 740.683 C 936.918 738.083, 937.821 734, 936.228 734 C 935.803 734, 933.856 735.318, 931.902 736.930 M 334.250 758.938 C 330.154 761.499, 329.624 766.923, 333.223 769.443 C 336.066 771.435, 354.715 771.673, 357.295 769.750 C 360.039 767.706, 360.477 762.811, 358.172 759.963 C 356.350 757.712, 355.376 757.474, 346.839 757.203 C 338.858 756.949, 337.027 757.201, 334.250 758.938 M 237 760.290 C 234.904 761.347, 234.311 762.688, 233.330 768.591 C 232.047 776.310, 228.836 783.465, 226.201 784.476 C 225.274 784.832, 219.369 785.344, 213.079 785.613 C 206.789 785.882, 201.245 786.348, 200.760 786.649 C 198.673 787.938, 196.656 795.670, 198.164 796.601 C 199.293 797.299, 199.232 803.739, 198.089 804.445 C 197.085 805.065, 197.213 807.546, 198.304 808.638 C 199.118 809.451, 199.258 825.409, 198.458 826.208 C 198.160 826.506, 197.902 836.594, 197.884 848.625 C 197.851 870.471, 197.854 870.504, 200.310 873.250 C 202.624 875.838, 203.264 875.999, 211.135 875.986 C 215.736 875.978, 256.323 876.489, 301.328 877.122 C 370.854 878.099, 383.353 878.064, 384.466 876.886 C 385.533 875.756, 385.593 868.506, 384.792 837.645 C 384.127 811.996, 384.139 798.492, 384.831 795.766 C 385.457 793.302, 385.505 790.829, 384.956 789.384 L 384.059 787.025 349.779 787.302 C 330.926 787.455, 303.125 787.313, 288 786.988 C 256.650 786.313, 254.938 785.936, 251.167 778.871 C 248.497 773.868, 248.495 773.519, 251.116 769.837 C 253.073 767.089, 253.644 766.885, 258.721 767.120 C 263.130 767.324, 264.409 767.021, 265.214 765.582 C 266.867 762.629, 263.965 760.879, 255.861 759.940 C 245.436 758.733, 239.884 758.836, 237 760.290 M 408.842 787.750 C 405.297 791.978, 403.810 795.210, 404.907 796.307 C 406.365 797.765, 406.293 801.559, 404.759 804.014 C 403.772 805.595, 403.772 806.405, 404.759 807.986 C 406.277 810.417, 406.485 831.582, 405 832.500 C 403.605 833.362, 403.659 868.671, 405.057 869.535 C 407.015 870.745, 410.683 869.059, 414.380 865.251 L 418.053 861.466 418.053 825.504 C 418.053 794.809, 417.831 789.283, 416.536 787.771 C 414.597 785.506, 410.733 785.496, 408.842 787.750 M 166.716 868.470 C 160.358 869.861, 159.479 870.348, 160.459 871.933 C 161.516 873.644, 174.522 873.281, 176 871.500 C 176.993 870.303, 176.993 869.697, 176 868.500 C 174.570 866.777, 174.456 866.777, 166.716 868.470 M 440.086 869.805 C 439.489 870.004, 439 871.246, 439 872.564 C 439 875.339, 442.076 876.518, 447.263 875.733 C 450.451 875.250, 462.517 875.826, 497 878.105 C 517.131 879.436, 537.032 879.368, 538.436 877.964 C 540.628 875.772, 536.560 874.994, 518.150 874.084 C 507.542 873.560, 498.290 872.655, 497.589 872.074 C 496.889 871.493, 496.031 871.303, 495.682 871.651 C 495.334 872, 494.343 871.700, 493.481 870.984 C 492.295 870, 485.751 869.655, 466.543 869.563 C 452.588 869.497, 440.683 869.606, 440.086 869.805 M 643.200 956.200 C 639.806 959.594, 643.797 965.249, 648 963 C 650.458 961.685, 650.751 956.502, 648.418 955.607 C 646.044 954.696, 644.532 954.868, 643.200 956.200 M 703.250 971.119 C 695.854 973.254, 701.246 978, 711.068 978 C 717.714 978, 721 976.395, 721 973.147 C 721 970.298, 710.319 969.078, 703.250 971.119" stroke="none" fill="#171916" fill-rule="evenodd"/>
</svg>