<svg role="img" aria-labelledby="artwork-title" shape-rendering="geometricPrecision" xmlns="http://www.w3.org/2000/svg" width="1200" height="1200" viewBox="0 0 1200 1200" version="1.1">
	<title id="artwork-title">Mascot building a website with blocks</title>
	<path d="M 936 268.928 C 936 269.438, 933.413 270.179, 930.250 270.573 C 924.479 271.292, 914.319 275.706, 911.997 278.503 C 911.314 279.327, 910.248 280.001, 909.628 280.003 C 909.007 280.004, 907.600 281.349, 906.500 282.992 C 905.400 284.634, 903.902 286.207, 903.171 286.488 C 901.138 287.268, 897 285.943, 897 284.512 C 897 283.063, 888.742 276, 887.048 276 C 886.435 276, 883.626 274.831, 880.806 273.402 C 875.956 270.944, 875.022 270.824, 863.589 271.193 C 853.753 271.511, 850.625 271.995, 846.805 273.792 C 844.223 275.006, 841.716 276, 841.235 276 C 839.504 276, 830.108 283.686, 826.839 287.775 C 823.100 292.453, 818.531 298.527, 816.584 301.409 C 815.406 303.153, 814.913 303.208, 810.897 302.045 C 802.806 299.702, 798.364 299.714, 788.806 302.103 C 783.740 303.369, 778.823 305.177, 777.881 306.119 C 776.938 307.062, 775.904 307.571, 775.583 307.250 C 775.263 306.929, 775 307.192, 775 307.833 C 775 308.475, 774.064 309, 772.921 309 C 770.685 309, 759 320.410, 759 322.593 C 759 323.288, 758.293 324.564, 757.429 325.429 C 756.564 326.293, 756.132 327, 756.468 327 C 756.803 327, 756.210 327.932, 755.149 329.070 C 752.487 331.928, 750.563 339.400, 750.747 346.169 C 750.925 352.736, 750.920 352.741, 741.500 356.418 C 737.406 358.017, 732.927 360.673, 730.709 362.818 C 725.715 367.650, 725.044 366.500, 724.984 353 C 724.944 343.925, 724.604 341.821, 722.478 337.500 C 721.125 334.750, 720.014 331.764, 720.009 330.865 C 720.004 329.966, 718.909 328.515, 717.576 327.642 C 716.243 326.768, 714.839 325.029, 714.458 323.777 C 713.654 321.140, 706.434 314, 704.571 314 C 703.877 314, 702.519 313.126, 701.551 312.057 C 700.584 310.988, 698.377 309.810, 696.646 309.439 C 694.916 309.068, 693.050 308.487, 692.500 308.148 C 691.950 307.808, 691.275 307.483, 691 307.425 C 690.725 307.367, 688.827 306.572, 686.782 305.660 C 683.347 304.126, 661.721 304, 402.482 304 C 139.800 304, 121.697 304.109, 118.700 305.708 C 116.940 306.648, 115.275 307.474, 115 307.544 C 114.725 307.615, 113.825 307.934, 113 308.253 C 112.175 308.572, 110.188 309.123, 108.585 309.477 C 102.258 310.875, 87.097 325.395, 85.138 331.934 C 84.252 334.891, 83.385 336, 81.960 336 C 80.018 336, 80 338.701, 80 633.930 L 80 931.860 87.976 931.811 C 93.882 931.775, 96.283 931.364, 97.226 930.227 C 98.250 928.993, 98.500 879.245, 98.500 676.266 C 98.500 427.546, 98.528 423.819, 100.441 422.420 C 103.293 420.334, 704.152 420.273, 705.882 422.358 C 707.491 424.296, 707.746 707.654, 706.141 709.259 C 704.743 710.657, 703.073 711.034, 695.382 711.693 C 689.805 712.170, 689.121 712.010, 687.632 709.886 C 686.735 708.604, 686 706.586, 686 705.402 C 686 704.218, 684.876 700.707, 683.502 697.600 C 680.697 691.257, 678.438 689.827, 670.795 689.558 C 665.503 689.371, 662.835 687.509, 659.962 682 C 655.758 673.936, 644.025 663.162, 637.794 661.643 C 636.306 661.281, 633.831 660.450, 632.294 659.797 C 630.757 659.144, 629.050 658.541, 628.500 658.458 C 627.950 658.375, 626.600 657.900, 625.500 657.403 C 622.995 656.272, 614.158 656.309, 611.497 657.462 C 610.399 657.938, 609.275 658.404, 609 658.497 C 608.725 658.591, 607.150 659.258, 605.500 659.979 C 603.720 660.757, 599.856 661.163, 596 660.978 C 582.898 660.349, 581.436 660.584, 574.571 664.423 C 566.041 669.193, 558 678.476, 558 683.552 C 558 687.391, 555.394 690.679, 551.775 691.407 C 550.524 691.658, 533.975 692.364, 515 692.975 C 472.827 694.334, 473.057 694.308, 467.840 698.312 C 459.149 704.982, 459.793 700.028, 459.940 759.116 C 460.011 787.927, 460.342 813.300, 460.674 815.500 C 461.775 822.792, 466.215 829.630, 471.211 831.731 C 475.119 833.374, 498.523 833.251, 527.500 831.435 C 539.050 830.712, 559.525 829.812, 573 829.437 C 586.475 829.061, 597.839 828.557, 598.252 828.316 C 598.666 828.076, 611.344 827.919, 626.426 827.968 C 644.233 828.026, 654.069 827.697, 654.482 827.029 C 655.526 825.339, 661.332 825.926, 663.782 827.969 C 665.037 829.016, 666.923 832.369, 667.973 835.421 C 670.209 841.921, 675.405 848.813, 678.690 849.637 C 679.961 849.956, 681 850.866, 681 851.659 C 681 854.293, 687.972 856.368, 697.215 856.485 C 702.008 856.546, 706.169 856.835, 706.461 857.128 C 706.754 857.421, 707.246 874.022, 707.555 894.019 C 707.863 914.016, 708.359 930.772, 708.657 931.254 C 709.379 932.422, 722.160 931.983, 723.750 930.736 C 724.619 930.054, 725.010 926.207, 725.032 918.128 C 725.071 903.661, 725.457 903, 733.856 903 C 737.231 903, 742.581 902.148, 745.746 901.106 C 757.623 897.197, 761.101 896.557, 762.133 898.094 C 762.696 898.932, 762.813 905.621, 762.422 914.652 C 761.787 929.328, 761.833 929.840, 763.853 930.921 C 766.915 932.560, 857.432 932.371, 860.076 930.721 C 863.091 928.837, 862.380 927.419, 857.250 925.089 C 854.638 923.902, 849.800 921.170, 846.500 919.018 C 843.200 916.867, 837.243 913.170, 833.262 910.803 C 829.282 908.436, 826.019 905.938, 826.012 905.250 C 826.006 904.563, 825.498 904, 824.884 904 C 823.760 904, 816.163 898.787, 810.386 894.052 C 808.673 892.649, 805.792 890.375, 803.984 889 C 795.830 882.799, 775.203 863.214, 774.503 861.009 C 773.486 857.805, 768.954 856.603, 757.500 856.498 C 750.541 856.435, 745.398 855.896, 743.500 855.033 C 741.850 854.282, 740.275 853.623, 740 853.568 C 739.725 853.514, 739.050 853.201, 738.500 852.873 C 737.950 852.545, 736.152 851.953, 734.505 851.558 C 731.437 850.821, 726.252 846.967, 719.154 840.148 C 714.853 836.016, 709.406 833, 706.243 833 C 705.167 833, 702.092 834.677, 699.408 836.726 C 696.724 838.775, 693.964 840.535, 693.274 840.636 C 692.585 840.737, 689.991 838.761, 687.510 836.245 C 679.754 828.378, 681.830 823.931, 695.315 819.529 C 699.576 818.138, 703.653 817, 704.376 817 C 707.156 817, 709.270 813.252, 708.576 809.552 C 707.724 805.012, 705.671 804, 697.316 804.001 C 691.796 804.001, 689.275 804.581, 684.057 807.050 C 680.145 808.900, 676.412 809.980, 674.557 809.799 C 671.694 809.519, 671.482 809.214, 671.218 805 C 670.811 798.512, 674.178 796.150, 689 792.521 C 703.866 788.882, 705 788.178, 705 782.592 C 705 779.059, 704.531 777.923, 702.535 776.615 C 699.862 774.863, 692.034 774.446, 689.236 775.906 C 688.281 776.405, 685.638 777.308, 683.363 777.913 C 679.020 779.067, 671.628 782.272, 668.886 784.190 C 664.643 787.156, 662.233 780.967, 665.703 776.014 C 668.282 772.331, 673.952 767.600, 676.886 766.682 C 679.309 765.924, 684.737 763.886, 689.500 761.946 C 690.600 761.498, 694.155 760.947, 697.400 760.721 C 703.872 760.271, 706.025 758.597, 705.968 754.059 C 705.902 748.752, 699.797 744.991, 691.282 745.012 C 684.945 745.027, 672.372 748.182, 668 750.854 C 662.890 753.977, 658.431 753.673, 654.968 749.965 C 652.254 747.061, 652.200 746.814, 653.697 744.215 C 659.034 734.948, 689.178 726.692, 711 728.520 C 720.496 729.315, 736.585 733.589, 740.479 736.350 C 743.386 738.412, 748.440 740.459, 758.434 743.624 C 763.659 745.279, 773.976 754.155, 778.630 761 C 779.939 762.925, 782.573 766.525, 784.483 769 C 786.393 771.475, 788.618 774.962, 789.427 776.750 C 790.236 778.537, 791.988 781.462, 793.321 783.250 C 794.654 785.037, 795.559 787.004, 795.332 787.621 C 794.508 789.859, 804.719 797.733, 810.127 799.031 C 812.952 799.708, 816.051 801.051, 817.015 802.015 C 817.980 802.980, 820.508 804.325, 822.634 805.006 C 824.760 805.686, 827.903 807.088, 829.618 808.121 C 831.333 809.155, 833.607 810, 834.672 810 C 835.737 810, 838.639 811.288, 841.122 812.862 C 843.604 814.436, 847.256 816.259, 849.237 816.913 C 851.219 817.567, 853.357 818.725, 853.989 819.487 C 854.621 820.248, 856.570 821.175, 858.319 821.547 C 860.069 821.919, 862.176 822.816, 863.002 823.542 C 864.317 824.697, 867.317 826.105, 870.500 827.061 C 871.050 827.226, 873.501 828.630, 875.946 830.181 C 878.391 831.731, 880.740 833, 881.166 833 C 881.592 833, 884.317 834.072, 887.220 835.383 C 890.124 836.693, 893.625 838.105, 895 838.519 C 896.375 838.934, 898.772 840.337, 900.327 841.637 C 901.881 842.937, 903.588 844, 904.118 844 C 904.649 844, 907.971 845.350, 911.500 847 C 915.029 848.650, 918.307 850, 918.784 850 C 919.261 850, 920.727 851.145, 922.042 852.545 C 924.089 854.723, 925.157 855.047, 929.466 854.795 C 934.381 854.507, 934.512 854.417, 935.024 851 C 935.763 846.057, 935.069 843.157, 932.989 842.497 C 931.015 841.870, 929.671 838.022, 930.589 835.628 C 930.912 834.786, 932.672 833.603, 934.500 833 C 936.328 832.397, 938.052 831.306, 938.333 830.576 C 939.013 828.802, 947.427 823.182, 950.590 822.388 C 952.351 821.946, 953.772 822.350, 955.305 823.729 C 957.532 825.731, 960.632 827.325, 962.560 827.460 C 963.144 827.501, 964.944 828.565, 966.560 829.824 C 970.518 832.908, 978.336 837.959, 979.185 837.982 C 979.562 837.992, 982.259 840.475, 985.179 843.500 C 988.099 846.525, 991.067 849, 991.775 849 C 992.483 849, 993.350 849.788, 993.700 850.750 C 994.051 851.712, 995.499 853.932, 996.919 855.682 C 998.338 857.432, 1001.075 860.966, 1003 863.535 C 1004.925 866.104, 1007.004 868.744, 1007.620 869.402 C 1008.237 870.060, 1009.444 871.959, 1010.304 873.622 C 1011.164 875.285, 1012.573 877.230, 1013.434 877.945 C 1014.295 878.660, 1015 880.315, 1015 881.622 C 1015 882.930, 1015.348 884, 1015.773 884 C 1017.867 884, 1023.318 898.948, 1023.194 904.351 C 1023.119 907.584, 1020.814 910.528, 1016.682 912.665 C 1015.129 913.467, 1011.303 916.058, 1008.179 918.422 C 1005.056 920.785, 1000.362 923.657, 997.750 924.803 C 992.981 926.896, 991.879 928.825, 994.303 930.837 C 995.191 931.573, 1009.361 931.938, 1038.713 931.978 C 1077.836 932.033, 1081.974 931.883, 1083.502 930.355 C 1084.924 928.933, 1085.092 927.333, 1084.584 920.085 C 1084.253 915.363, 1083.873 907.188, 1083.741 901.918 C 1083.506 892.592, 1083.580 892.238, 1086.500 888.674 C 1095.422 877.784, 1097.955 873.701, 1102.734 862.500 C 1105.487 856.049, 1107.060 852.256, 1107.504 851 C 1107.601 850.725, 1108.419 848.847, 1109.322 846.826 C 1110.225 844.806, 1111.433 839.008, 1112.006 833.943 C 1112.580 828.878, 1113.477 822.882, 1114 820.617 C 1116.554 809.560, 1113.174 777.846, 1108.286 767 C 1100.878 750.563, 1096.090 742.340, 1090.555 736.552 C 1089.425 735.370, 1086.914 732.624, 1084.976 730.451 C 1079.897 724.758, 1068.939 715, 1067.623 714.999 C 1067.005 714.999, 1064.767 713.456, 1062.648 711.570 C 1054.653 704.454, 1020.370 689.614, 1010 688.781 C 1004.324 688.325, 1004.902 685.495, 1012.210 677.964 C 1015.669 674.398, 1019.400 670.167, 1020.500 668.561 C 1021.600 666.955, 1025.090 662.528, 1028.255 658.723 C 1031.421 654.919, 1034.233 650.725, 1034.505 649.403 C 1034.777 648.081, 1035.232 645.881, 1035.516 644.513 C 1036.341 640.533, 1039.659 639.040, 1045.500 640.020 C 1055.220 641.650, 1073.615 636.412, 1076.758 631.119 C 1077.451 629.954, 1078.576 628.995, 1079.258 628.989 C 1080.968 628.974, 1089 621.161, 1089 619.514 C 1089 618.779, 1090.379 617.017, 1092.065 615.599 C 1093.751 614.180, 1094.849 612.565, 1094.506 612.010 C 1094.163 611.454, 1094.246 610.996, 1094.691 610.992 C 1095.589 610.984, 1096.730 608.802, 1101.225 598.500 C 1103.943 592.270, 1104.330 590.147, 1104.744 579.202 C 1105.144 568.616, 1104.926 566.111, 1103.179 561.202 C 1102.063 558.066, 1100.891 554.297, 1100.575 552.827 C 1100.259 551.357, 1098.802 548.729, 1097.337 546.988 C 1093.763 542.742, 1093.733 538.630, 1097.250 535.260 C 1098.763 533.811, 1100 532.144, 1100 531.555 C 1100 530.966, 1101.125 528.371, 1102.500 525.788 C 1104.679 521.695, 1105 519.828, 1105 511.258 L 1105 501.425 1109.912 496.586 C 1112.614 493.925, 1115.576 489.780, 1116.495 487.374 C 1117.414 484.968, 1118.578 483, 1119.083 483 C 1119.603 483, 1120 475.645, 1120 466 C 1120 456.650, 1119.605 449, 1119.121 449 C 1118.638 449, 1117.661 447.596, 1116.951 445.881 C 1116.240 444.165, 1113.485 440.495, 1110.829 437.725 C 1108.173 434.954, 1106 431.893, 1106 430.921 C 1106 429.949, 1107.237 427.683, 1108.750 425.885 C 1111.492 422.626, 1111.500 422.573, 1111.500 407.059 L 1111.500 391.500 1107.222 385 C 1104.869 381.425, 1101.719 376.602, 1100.222 374.282 C 1098.725 371.961, 1097.007 370.049, 1096.405 370.032 C 1095.803 370.014, 1094.454 369.054, 1093.407 367.898 C 1092.361 366.741, 1090.154 365.103, 1088.502 364.257 C 1086.851 363.411, 1084.228 361.657, 1082.673 360.359 C 1080.512 358.555, 1078.629 357.996, 1074.673 357.985 C 1067.495 357.963, 1066.874 357.336, 1066.457 349.691 C 1066.237 345.657, 1065.306 341.560, 1064.049 339.096 C 1062.922 336.887, 1062 334.333, 1062 333.420 C 1062 330.381, 1056.582 322.728, 1049.544 315.824 C 1045.718 312.071, 1042.143 309, 1041.599 309 C 1041.055 309, 1039.460 307.915, 1038.055 306.588 C 1036.195 304.832, 1033.152 303.741, 1026.863 302.577 C 1018.977 301.117, 1017.246 301.115, 1006.937 302.553 C 996.044 304.072, 995.557 304.060, 993.079 302.209 C 991.666 301.155, 990.482 299.664, 990.448 298.896 C 990.281 295.145, 988.579 292.754, 979.783 283.910 C 972.352 276.438, 963.363 271.515, 955.163 270.427 C 952.299 270.047, 949.714 269.346, 949.419 268.868 C 948.695 267.697, 936 267.754, 936 268.928 M 932.597 288.105 C 929.351 288.579, 925.976 289.588, 925.097 290.349 C 924.219 291.109, 922.292 292.018, 920.815 292.368 C 915.825 293.552, 905.510 303.844, 907.410 305.743 C 908.070 306.404, 914.203 302.538, 916.471 300.032 C 917.482 298.915, 918.963 298, 919.761 298 C 920.558 298, 922.527 296.893, 924.135 295.540 C 927.910 292.363, 932.180 291.619, 943.065 292.239 C 950.707 292.675, 952.324 293.095, 954.983 295.332 C 956.675 296.756, 959.632 298.215, 961.554 298.576 C 963.476 298.937, 965.628 300.058, 966.336 301.069 C 967.043 302.079, 968.791 303.350, 970.219 303.893 C 971.941 304.548, 973.041 305.910, 973.487 307.940 C 973.856 309.623, 974.573 311, 975.079 311 C 976.791 311, 976.014 306.323, 974 304.500 C 972.900 303.505, 971.992 302.197, 971.983 301.595 C 971.960 300.088, 965.271 293.800, 960.913 291.188 C 957.528 289.159, 946.494 286.917, 941 287.142 C 939.625 287.198, 935.844 287.631, 932.597 288.105 M 853.953 288.892 C 848.236 290.747, 836 300.154, 836 302.696 C 836 303.243, 835.048 304.547, 833.885 305.595 C 831.094 308.109, 829.615 312.015, 830.950 313.350 C 831.648 314.048, 832.315 313.395, 833.048 311.293 C 834.252 307.838, 844.909 298.312, 848.608 297.384 C 849.924 297.053, 851 296.201, 851 295.489 C 851 293.286, 856.884 291.999, 866.899 292.014 C 877.771 292.029, 881 292.625, 881 294.617 C 881 295.377, 881.638 296, 882.417 296 C 883.196 296, 884.010 296.531, 884.227 297.180 C 884.470 297.911, 885.358 298.075, 886.560 297.613 C 888.467 296.878, 888.466 296.846, 886.500 295.709 C 885.400 295.073, 884.120 294.540, 883.655 294.526 C 883.191 294.512, 881.740 293.158, 880.432 291.517 C 878.082 288.570, 877.922 288.531, 867.276 288.300 C 861.349 288.172, 855.354 288.438, 853.953 288.892 M 795.608 319.826 C 795.288 320.343, 792.521 321.079, 789.458 321.462 C 785.253 321.987, 782.992 322.934, 780.223 325.329 C 768.947 335.082, 764.050 344.622, 764.866 355.250 C 765.113 358.469, 766.730 357.046, 767.253 353.151 C 767.537 351.033, 769.171 347.366, 770.885 345.001 C 772.598 342.635, 774 340.288, 774 339.784 C 774 339.280, 776.914 335.997, 780.476 332.487 C 786.384 326.665, 787.589 325.948, 794.226 324.303 C 799.224 323.064, 801.500 322.031, 801.500 321 C 801.500 319.315, 796.535 318.325, 795.608 319.826 M 1007.470 320.048 C 1007.114 320.624, 1006.075 321.005, 1005.161 320.894 C 1004.248 320.783, 1002.825 320.949, 1002 321.263 C 1001.175 321.576, 999.231 322.112, 997.679 322.453 C 996.088 322.803, 995.037 323.603, 995.269 324.287 C 995.562 325.153, 998.368 325.410, 1005.090 325.186 C 1016.630 324.802, 1024.043 326.169, 1028.388 329.482 C 1030.203 330.867, 1032.209 332, 1032.844 332 C 1033.480 332, 1034 332.623, 1034 333.385 C 1034 334.147, 1035.125 335.507, 1036.500 336.408 C 1037.875 337.309, 1039 338.577, 1039 339.225 C 1039 339.874, 1040.401 341.850, 1042.113 343.617 C 1044.384 345.960, 1045.366 348.069, 1045.743 351.414 C 1046.443 357.627, 1048 357.235, 1048 350.846 C 1048 343.321, 1044.128 335.770, 1036.642 328.696 C 1033.264 325.504, 1029.263 322.635, 1027.750 322.321 C 1026.237 322.007, 1025 321.398, 1025 320.969 C 1025 320.539, 1024.151 320.409, 1023.113 320.681 C 1022.075 320.952, 1020.923 320.685, 1020.554 320.087 C 1019.693 318.694, 1008.328 318.660, 1007.470 320.048 M 806.065 321.335 C 804.776 322.624, 807.704 324.925, 810.691 324.968 C 813.562 325.010, 814.378 323.559, 812.406 321.922 C 810.451 320.300, 807.384 320.016, 806.065 321.335 M 119.994 323.934 C 112.979 326.068, 107.325 330.455, 102.118 337.805 L 99.500 341.500 98.988 371 C 98.647 390.657, 98.823 400.914, 99.514 401.740 C 101.060 403.588, 706.148 403.617, 706.949 401.769 C 707.252 401.071, 707.275 387.262, 707 371.082 C 706.616 348.462, 706.205 341.566, 705.223 341.240 C 704.521 341.006, 703.098 339.170, 702.061 337.158 C 699.331 331.862, 694.263 327.438, 688.213 325.070 L 682.926 323 402.713 323.086 C 248.596 323.133, 121.372 323.515, 119.994 323.934 M 139.435 349.877 C 137.749 350.905, 134.936 353.555, 133.185 355.767 C 130.481 359.181, 130 360.616, 130 365.273 C 130 370.270, 130.338 371.107, 133.793 374.667 C 141.591 382.702, 148.032 383.657, 155.915 377.947 C 162.063 373.493, 164.189 369.557, 163.741 363.460 C 163.384 358.611, 159.911 352, 157.720 352 C 157.222 352, 155.671 351.100, 154.273 350 C 150.955 347.390, 143.612 347.329, 139.435 349.877 M 187.779 351.750 C 177.533 360.567, 177.637 369.792, 188.075 378.059 C 195.788 384.168, 202.703 382.838, 210.483 373.749 C 213.405 370.335, 214 368.859, 214 365.019 C 214 358.728, 212.513 356.045, 206.619 351.702 C 202.495 348.663, 200.749 348, 196.866 348 C 192.842 348, 191.486 348.560, 187.779 351.750 M 240.327 350.330 C 238.772 351.611, 236.783 352.920, 235.906 353.239 C 235.029 353.557, 233.280 356.576, 232.020 359.948 C 229.745 366.029, 229.742 366.106, 231.614 369.635 C 234.348 374.789, 241.912 380.802, 246.606 381.553 C 249.979 382.092, 251.213 381.705, 255.511 378.753 C 267.832 370.293, 268.023 360.770, 256.072 350.714 C 251.744 347.072, 244.494 346.895, 240.327 350.330 M 745.500 370.991 C 744.400 371.466, 741.925 373.482, 740 375.470 C 738.075 377.458, 735.487 380.047, 734.250 381.223 C 733.013 382.399, 732 384.105, 732 385.014 C 732 385.923, 731.719 386.948, 731.375 387.292 C 730.486 388.181, 730.599 398.541, 731.513 400.022 C 732.551 401.700, 733.610 399.704, 735.020 393.411 C 735.625 390.710, 736.942 387.601, 737.945 386.500 C 738.949 385.400, 740.071 383.508, 740.438 382.297 C 740.805 381.085, 743.332 378.459, 746.053 376.461 C 752.696 371.585, 752.337 368.037, 745.500 370.991 M 1072 378.031 C 1072 378.599, 1072.787 379.358, 1073.750 379.720 C 1076.069 380.590, 1083.962 388.203, 1083.983 389.589 C 1083.993 390.189, 1085.080 391.171, 1086.401 391.773 C 1088.136 392.564, 1088.992 393.993, 1089.488 396.928 C 1090.398 402.313, 1092 403.131, 1092 398.212 C 1092 395.761, 1091.266 393.460, 1090.030 392.034 C 1088.946 390.785, 1087.811 388.980, 1087.508 388.025 C 1087.205 387.069, 1084.266 384.197, 1080.977 381.644 C 1075.209 377.165, 1072 375.873, 1072 378.031 M 894.500 389.208 C 893.400 389.839, 892.050 390.876, 891.500 391.512 C 889.001 394.405, 880.893 400.168, 876.420 402.231 C 872.136 404.207, 869.884 404.500, 859 404.498 C 844.881 404.496, 841.430 403.339, 833.272 395.870 C 828.259 391.281, 826.636 391.058, 825.094 394.750 C 823.554 398.437, 814.643 407.817, 808.666 412.042 C 804.301 415.128, 802.998 415.509, 795.207 415.980 L 786.580 416.500 785.359 420.500 C 783.257 427.381, 779.271 433.985, 774.295 438.831 C 769.809 443.199, 769.520 443.786, 769.817 447.941 C 769.991 450.383, 769.692 453.308, 769.152 454.441 C 767.064 458.820, 765.041 470.163, 763.536 485.940 C 762.673 494.982, 761.442 504.130, 760.801 506.268 C 759.863 509.401, 759.897 510.318, 760.977 510.986 C 762.472 511.910, 764.737 511.331, 767 509.447 C 769.470 507.391, 776.067 506.012, 783.500 505.998 C 787.350 505.991, 793.388 505.516, 796.919 504.943 C 806.133 503.448, 824.090 506.883, 832.184 511.690 C 837.299 514.727, 843.750 521.335, 846.543 526.400 C 847.254 527.689, 848.766 528.324, 851.294 528.396 C 853.333 528.453, 855.001 528.163, 855.001 527.750 C 855 526.779, 872.433 526.767, 873.404 527.737 C 873.809 528.143, 874.672 528.499, 875.321 528.529 C 875.969 528.558, 877.704 529.184, 879.176 529.918 C 881.555 531.106, 882.250 531.009, 885.426 529.045 C 887.392 527.831, 889 526.452, 889 525.981 C 889 524.898, 896.208 518.020, 897.356 518.009 C 897.826 518.004, 899.488 516.926, 901.048 515.613 C 904.360 512.827, 914.124 510.453, 928.187 509.017 C 937.564 508.060, 944.093 508.589, 950 510.786 C 951.375 511.297, 954.959 512.033, 957.965 512.421 C 960.971 512.809, 966.139 514.448, 969.450 516.063 C 972.761 517.678, 975.947 519, 976.529 519 C 977.112 519, 980.918 522.175, 984.987 526.055 C 992.316 533.043, 992.425 533.103, 996.443 532.322 C 1001.125 531.412, 1005.174 531.353, 1017 532.020 L 1025.500 532.500 1025.827 529.636 C 1026.064 527.568, 1025.368 525.950, 1023.327 523.820 C 1020.568 520.939, 1020.500 520.601, 1020.507 509.684 C 1020.513 499.923, 1020.808 497.947, 1022.826 494.153 C 1025.642 488.862, 1025.341 487.877, 1020.376 486.125 C 1016.136 484.629, 1009 477.989, 1009 475.539 C 1009 474.692, 1008.605 474, 1008.121 474 C 1007.638 474, 1006.693 472.538, 1006.020 470.750 C 1005.348 468.962, 1004.340 466.530, 1003.781 465.345 C 1003.222 464.160, 1003.050 462.729, 1003.398 462.164 C 1003.747 461.600, 1003.575 460.856, 1003.016 460.510 C 1002.457 460.165, 1002 458.135, 1002 456 C 1002 453.865, 1002.457 451.835, 1003.016 451.490 C 1003.575 451.144, 1003.774 450.443, 1003.457 449.931 C 1003.141 449.419, 1003.242 448.438, 1003.683 447.750 C 1005.577 444.794, 1006.892 439.492, 1005.962 438.562 C 1005.432 438.032, 1002.950 437.724, 1000.446 437.878 C 997.943 438.032, 995.356 437.731, 994.697 437.209 C 994.039 436.688, 991.700 435.939, 989.500 435.546 C 982.375 434.274, 970 426.609, 970 423.468 C 970 422.831, 969.100 421.495, 968 420.500 C 966.900 419.505, 966 418.222, 966 417.650 C 966 417.078, 964.839 415.398, 963.420 413.916 C 961.727 412.150, 960.674 409.722, 960.358 406.862 C 959.564 399.674, 959.118 398.333, 957.523 398.333 C 956.685 398.333, 956 398.708, 956 399.167 C 956 399.625, 955.570 400, 955.044 400 C 954.519 400, 952.381 401.163, 950.294 402.584 C 946.602 405.099, 946.138 405.159, 933 404.829 C 916.906 404.424, 912.995 402.947, 903.670 393.750 C 897.326 387.493, 897.414 387.537, 894.500 389.208 M 800.686 475.017 C 799.138 475.481, 797.338 476.302, 796.686 476.840 C 796.034 477.378, 792.575 478.779, 789 479.954 C 781.283 482.490, 778 485.668, 778 490.601 C 778 498.188, 785.673 501.468, 796.538 498.527 C 803.318 496.692, 808.665 496.818, 818.114 499.037 C 825.382 500.744, 828.961 499.370, 833.166 493.259 C 836.595 488.275, 836.280 486.496, 831.109 481.667 C 825.465 476.396, 819.094 473.993, 811.008 474.086 C 806.879 474.133, 802.234 474.552, 800.686 475.017 M 726.200 477.200 C 724.767 478.633, 724.496 522.656, 725.906 524.882 C 726.587 525.957, 727.184 525.624, 728.595 523.382 C 729.592 521.797, 731.892 518.811, 733.704 516.747 C 735.517 514.683, 737 512.412, 737 511.700 C 737 510.987, 735.425 507.329, 733.500 503.570 C 730.124 496.978, 729.056 491.701, 730.871 490.580 C 731.350 490.284, 732.030 488.601, 732.382 486.841 C 732.883 484.337, 732.445 482.807, 730.375 479.820 C 727.322 475.413, 727.730 475.670, 726.200 477.200 M 918.500 482.465 C 911.739 486.035, 910 488.305, 910 493.560 C 910 497.321, 910.454 498.244, 913.412 500.501 C 916.690 503.001, 917.309 503.098, 929.162 502.964 C 941.865 502.821, 942.282 502.883, 950.185 506.095 C 959.386 509.835, 967.895 508.059, 969.104 502.145 C 970.234 496.622, 968.521 492.760, 963.258 488.965 C 955.043 483.040, 947.982 480.880, 935 480.320 C 924.019 479.847, 923.274 479.944, 918.500 482.465 M 231.815 492 L 155.130 492.500 152.065 495.437 C 148.374 498.974, 148.185 501.940, 151.411 505.694 C 153.715 508.375, 154.305 508.522, 164.661 509 C 170.622 509.275, 207.153 509.275, 245.839 509 L 316.179 508.500 318.089 506.139 C 320.490 503.172, 320.549 497.900, 318.214 495.016 C 317.186 493.746, 314.745 492.532, 312.464 492.155 C 310.284 491.795, 273.992 491.725, 231.815 492 M 379.231 496.850 C 376.768 497.556, 373.017 502.526, 373.007 505.097 C 372.998 507.101, 375.733 510.270, 379 512.042 C 381.074 513.166, 403.180 513.353, 508.652 513.138 C 578.586 512.996, 637.086 512.540, 638.652 512.125 C 644.656 510.535, 645.603 500.114, 640 497.290 C 638.026 496.294, 610.594 496.047, 509.500 496.114 C 439.100 496.161, 380.479 496.492, 379.231 496.850 M 774.299 527.250 C 772.160 529.038, 770.265 530.950, 770.089 531.500 C 769.912 532.050, 768.470 533.978, 766.884 535.785 C 764.742 538.224, 764 540.090, 764 543.035 C 764 547.752, 766.570 548.613, 767.629 544.250 C 768.373 541.186, 772.359 536.009, 778.727 529.833 C 781.052 527.579, 782.713 525.344, 782.418 524.867 C 781.341 523.125, 778.097 524.077, 774.299 527.250 M 907.535 535.056 C 904.594 537.836, 901.898 541.271, 901.542 542.688 C 901.187 544.105, 900.038 545.992, 898.990 546.882 C 896.361 549.115, 895.490 553.332, 897.342 554.869 C 898.572 555.890, 899.574 554.956, 903.461 549.162 C 906.018 545.351, 910.560 539.895, 913.555 537.037 C 916.550 534.178, 919 531.426, 919 530.920 C 919 530.414, 917.623 530, 915.940 530 C 913.635 530, 911.561 531.248, 907.535 535.056 M 739.301 534.672 L 736.500 538.343 736.500 555.922 C 736.500 565.590, 736.846 574.737, 737.269 576.250 C 738.198 579.572, 740.625 579.859, 741.494 576.750 C 741.839 575.513, 743.118 572.250, 744.336 569.500 C 746.387 564.870, 746.527 563.261, 746.229 547.750 C 745.927 532.066, 745.786 531, 744.004 531 C 742.958 531, 740.841 532.652, 739.301 534.672 M 854.096 546.920 C 853.323 547.409, 852.346 550.352, 851.924 553.460 C 851.503 556.568, 850.347 560.323, 849.356 561.805 C 848.366 563.287, 847.648 564.817, 847.762 565.204 C 847.876 565.591, 846.864 567.841, 845.512 570.204 C 844.161 572.567, 842.133 576.388, 841.005 578.695 C 839.878 581.002, 837.779 583.815, 836.343 584.945 C 834.906 586.075, 834.079 587, 834.505 587 C 834.931 587, 833.529 588.164, 831.390 589.586 C 829.250 591.009, 827.050 592.710, 826.500 593.366 C 825.950 594.023, 822.575 595.862, 819 597.452 C 813.601 599.854, 810.764 600.422, 802.254 600.803 C 784.852 601.582, 775.332 598.715, 766.107 589.916 C 758.387 582.553, 757.692 583.273, 758.558 597.746 L 759.261 609.500 764.006 614.558 C 766.615 617.340, 769.501 621.068, 770.418 622.842 C 771.553 625.037, 773.044 626.259, 775.086 626.667 C 777.422 627.134, 778.575 628.290, 780.293 631.884 C 782.215 635.904, 782.989 636.577, 786.287 637.099 C 788.385 637.430, 791.310 638.880, 792.842 640.349 C 795.938 643.315, 799.473 643.816, 800.393 641.418 C 800.727 640.548, 801.001 637.511, 801.001 634.668 C 801.002 630.248, 801.594 628.647, 805.091 623.610 C 811.175 614.845, 817.184 610.100, 822.282 610.035 C 826.191 609.986, 831.633 607.530, 835.649 604.003 C 837.803 602.112, 840.166 601, 842.031 601 C 844.808 601, 856.297 604.449, 858.500 605.944 C 859.911 606.902, 860.850 606.697, 867.797 603.919 C 871.923 602.269, 878.412 602.903, 883.554 605.459 C 886.274 606.811, 891.235 608.553, 894.577 609.330 C 903.871 611.490, 907.921 613.796, 915 620.961 C 924.277 630.351, 929.132 638.642, 929.407 645.566 C 929.705 653.089, 930.903 653.991, 936.059 650.579 C 939.694 648.174, 940.800 647.922, 945.121 648.517 C 949.782 649.158, 950.255 649.003, 954.025 645.597 C 957.568 642.395, 958.604 642, 963.452 642 C 968.501 642, 969.093 641.745, 971.568 638.500 C 973.691 635.716, 974.929 635, 977.619 635 C 979.478 635, 981 634.631, 981 634.179 C 981 632.519, 989.763 624.275, 993.505 622.417 C 996.359 620.998, 997.697 619.512, 998.646 616.701 C 999.352 614.611, 1001.922 610.561, 1004.358 607.701 C 1006.793 604.840, 1009.245 600.825, 1009.805 598.779 C 1010.365 596.732, 1011.763 593.738, 1012.911 592.124 C 1014.060 590.511, 1015 588.678, 1015 588.050 C 1015 587.423, 1016.083 585.826, 1017.407 584.502 C 1018.730 583.179, 1020.269 580.612, 1020.825 578.798 C 1022.356 573.809, 1022.974 552.217, 1021.617 551.127 C 1020.995 550.627, 1015.118 550.511, 1008.353 550.865 C 995.143 551.556, 992 552.861, 992 557.655 C 992 558.945, 991.628 560, 991.173 560 C 990.718 560, 990.525 561.237, 990.743 562.750 C 991 564.539, 989.891 567.930, 987.569 572.452 C 985.606 576.276, 984 579.891, 984 580.485 C 984 584.404, 968.752 598.974, 960.321 603.112 C 956.569 604.953, 953.275 606.508, 953 606.566 C 952.725 606.625, 951.600 607.084, 950.500 607.586 C 947.909 608.770, 919.117 608.778, 916.500 607.597 C 915.400 607.100, 914.050 606.647, 913.500 606.590 C 912.950 606.533, 909.044 604.554, 904.820 602.191 C 897.336 598.006, 895.598 596.294, 885.956 583.612 C 884.330 581.474, 883 579.087, 883 578.308 C 883 577.528, 882.101 574.918, 881.003 572.507 C 879.726 569.704, 878.844 565.157, 878.558 559.902 C 878.291 554.994, 877.585 551.176, 876.805 550.427 C 873.439 547.190, 857.546 544.735, 854.096 546.920 M 1061.500 548.371 C 1054.786 551.512, 1046 563.360, 1046 569.273 C 1046 571.868, 1045.044 573.955, 1042.414 577.102 C 1039.655 580.405, 1038.952 582.008, 1039.361 584.057 C 1041.607 595.285, 1040.664 609.504, 1037.437 613.070 C 1035.836 614.839, 1035.837 615.102, 1037.446 617.558 C 1041.192 623.274, 1053.002 625.080, 1060.760 621.123 C 1063.092 619.933, 1065 618.567, 1065 618.088 C 1065 617.609, 1066.015 616.962, 1067.255 616.651 C 1068.496 616.340, 1070.944 614.603, 1072.697 612.792 C 1077.442 607.891, 1082.518 601.746, 1082.370 601.083 C 1082.155 600.121, 1083.899 595.699, 1085.754 592.500 C 1087.174 590.051, 1087.495 587.004, 1087.497 575.919 C 1087.500 562.536, 1087.457 562.275, 1084.578 558.116 C 1078.096 548.754, 1068.943 544.889, 1061.500 548.371 M 176.820 558.901 C 157.899 559.449, 155.899 559.679, 153.320 561.600 C 149.533 564.420, 148.873 570.670, 152.057 573.552 C 154.127 575.426, 156.332 575.512, 209.854 575.803 C 245.883 575.999, 266.744 575.744, 269.030 575.079 C 271.672 574.310, 272.981 573.124, 274.232 570.363 C 275.837 566.821, 275.822 566.558, 273.834 563.767 C 272.696 562.169, 270.580 560.375, 269.132 559.781 C 266.069 558.525, 208.716 557.978, 176.820 558.901 M 333.500 561.053 C 326.201 562.062, 323.538 563.994, 323.204 568.526 C 322.955 571.889, 323.396 573.005, 325.926 575.429 L 328.944 578.320 462.222 578.132 L 595.500 577.944 598.250 574.760 C 601.625 570.852, 601.707 568.396, 598.591 564.500 L 596.193 561.500 578.346 561.246 C 539.485 560.694, 337.254 560.534, 333.500 561.053 M 724.977 591.250 C 724.642 623.565, 725.261 709.329, 725.844 711.511 C 726.872 715.352, 728.791 715.653, 734.708 712.904 C 737.344 711.680, 739.725 710.599, 740 710.503 C 740.275 710.406, 742.975 709.160, 746 707.732 C 754.225 703.852, 770.368 699.859, 780.278 699.255 C 785.105 698.960, 789.318 698.295, 789.639 697.775 C 790.268 696.758, 784.207 691.108, 782.414 691.041 C 781.817 691.018, 779.769 689.313, 777.863 687.250 C 775.958 685.188, 773.521 682.927, 772.449 682.227 C 771.377 681.527, 769.132 680.076, 767.460 679.002 C 764.198 676.908, 758 668.796, 758 666.620 C 758 665.894, 756.689 664.295, 755.088 663.067 C 753.486 661.840, 751.883 659.635, 751.525 658.168 C 751.167 656.700, 749.818 653.925, 748.529 652 C 747.239 650.075, 745.878 646.587, 745.504 644.250 C 745.130 641.913, 744.387 640, 743.853 640 C 743.319 640, 743.160 639.550, 743.500 639 C 743.840 638.450, 743.685 638, 743.157 638 C 741.259 638, 739.879 631.289, 739.290 619.195 L 738.691 606.890 733.345 598.765 C 730.405 594.296, 728 590.271, 728 589.820 C 728 589.369, 727.325 589, 726.500 589 C 725.618 589, 724.990 589.927, 724.977 591.250 M 470.245 622.275 C 463.272 623.659, 460.697 631.223, 465.452 636.354 L 467.905 639 485.702 639.243 C 514.789 639.641, 514.161 639.694, 519.108 636.381 C 522.557 634.071, 523.567 632.748, 523.813 630.220 C 524.013 628.169, 523.680 627, 522.897 627 C 522.220 627, 521.964 626.703, 522.327 626.340 C 522.690 625.977, 521.982 624.976, 520.754 624.115 C 519.192 623.021, 515.667 622.472, 509.011 622.287 C 480.992 621.508, 474.121 621.506, 470.245 622.275 M 157 625.091 C 152.693 626.322, 149 630.265, 149 633.633 C 149 636.757, 153.994 641.951, 157.173 642.133 C 158.453 642.206, 215.750 642.166, 284.500 642.044 C 426.314 641.791, 415.500 642.456, 415.500 633.984 C 415.500 630.092, 415.105 629.313, 412.102 627.290 L 408.704 625 288.102 624.989 C 221.771 624.983, 165.925 624.778, 164 624.534 C 162.075 624.290, 158.925 624.541, 157 625.091 M 828.405 633.576 C 826.807 634.305, 824.150 636.043, 822.500 637.439 C 819.614 639.882, 819.500 640.291, 819.500 648.239 C 819.500 656.184, 819.634 656.667, 823 660.856 C 824.925 663.251, 828.300 666.118, 830.500 667.227 C 832.700 668.335, 835.095 669.719, 835.822 670.303 C 836.548 670.886, 838.539 671.364, 840.245 671.364 C 842.942 671.364, 843.519 670.865, 844.671 667.537 C 846.793 661.408, 847.781 660.688, 852.961 661.495 C 855.457 661.884, 859.856 662.326, 862.735 662.476 C 870.430 662.878, 872.302 664.425, 875.902 673.356 C 876.919 675.878, 877.431 676.146, 880.277 675.644 C 882.050 675.332, 886.318 674.657, 889.761 674.146 C 895.787 673.250, 897.547 672.447, 903 668.100 C 905.410 666.179, 905.500 665.686, 905.500 654.458 L 905.500 642.810 902.500 640.394 C 898.189 636.924, 896.603 637.631, 895.948 643.316 C 895.520 647.035, 894.735 648.649, 892.448 650.518 C 889.043 653.301, 881.693 657, 879.570 657 C 878.771 657, 877.840 657.450, 877.500 658 C 877.160 658.550, 874.434 659, 871.441 659 C 868.448 659, 866 658.550, 866 658 C 866 656.583, 854.371 656.751, 852.048 658.202 C 850.603 659.104, 849.547 659.124, 847.812 658.282 C 846.540 657.665, 842.035 655.543, 837.801 653.567 C 829.184 649.545, 829.506 649.851, 828.604 644.848 C 827.321 637.728, 834.330 635.087, 843.194 639.351 C 847.805 641.570, 850.368 641.994, 862.765 642.593 C 875.670 643.217, 877.220 643.111, 879.015 641.486 C 882.074 638.718, 881.419 638.046, 876.250 638.645 C 872.366 639.096, 870.514 638.699, 866.092 636.466 C 860.984 633.888, 860.427 633.808, 856.092 635.038 C 849.419 636.931, 838.477 636.479, 834.525 634.147 C 831.706 632.484, 830.952 632.414, 828.405 633.576 M 610.592 677.750 C 607.830 679.706, 605.863 682.378, 603.783 687 C 602.175 690.575, 601.003 693.543, 601.180 693.596 C 601.356 693.649, 600.882 694.437, 600.128 695.346 C 599.161 696.511, 599.062 697.370, 599.793 698.250 C 600.363 698.938, 600.821 699.950, 600.810 700.500 C 600.798 701.050, 601.922 702.346, 603.307 703.380 C 607.345 706.395, 610.593 704.838, 619.073 695.822 L 626.647 687.771 631.073 688.353 C 633.508 688.674, 637.452 689.227, 639.837 689.582 C 642.398 689.963, 644.599 689.801, 645.213 689.187 C 646.470 687.930, 645.404 683, 643.875 683 C 643.278 683, 641.465 681.886, 639.847 680.525 C 635.965 677.258, 628.080 675, 620.557 675 C 615.532 675, 613.802 675.477, 610.592 677.750 M 581.896 678.114 C 578.353 679.414, 573.403 687.454, 572.560 693.276 C 571.646 699.598, 574.625 705, 579.025 705 C 582.994 705, 585 701.767, 585 695.372 C 585 690.913, 585.489 689.604, 588.500 686 C 590.425 683.696, 592 681.268, 592 680.605 C 592 677.286, 587.306 676.128, 581.896 678.114 M 160.661 700.707 C 155.436 702.053, 147 710.197, 147 713.894 C 147 715.052, 146.533 716, 145.962 716 C 145.277 716, 144.965 722.647, 145.043 735.586 C 145.107 746.359, 144.899 755.434, 144.580 755.753 C 143.713 756.620, 143.879 794, 144.750 793.999 C 145.162 793.999, 145.374 807.129, 145.220 823.176 C 144.919 854.573, 145.107 855.975, 150.404 861.808 C 152.238 863.828, 156.177 866.166, 158.167 866.416 C 158.533 866.462, 159.171 866.837, 159.583 867.250 C 159.996 867.663, 166.033 868, 173 868 C 179.967 868, 186.004 867.663, 186.417 867.250 C 186.829 866.837, 187.467 866.484, 187.833 866.465 C 188.200 866.445, 189.512 865.867, 190.750 865.179 C 192.481 864.218, 192.984 863.073, 192.930 860.215 C 192.866 856.854, 191.260 851.102, 191.055 853.500 C 191.008 854.050, 190.570 853.870, 190.082 853.099 C 189.434 852.076, 185.791 851.537, 176.560 851.099 C 166.898 850.641, 163.702 850.147, 162.978 849 C 161.705 846.985, 161.705 721.015, 162.978 719 C 163.789 717.715, 171.212 717.393, 214.712 716.753 C 277.488 715.830, 269.031 715.849, 298.134 716.569 L 322.768 717.179 326.009 714.283 C 329.481 711.181, 330.411 706.508, 327.875 704.902 C 327.119 704.423, 326.950 704.005, 327.500 703.973 C 328.050 703.942, 326.925 703.067, 325 702.030 C 321.652 700.226, 318.043 700.146, 242 700.189 C 198.275 700.213, 161.673 700.446, 160.661 700.707 M 348.589 703.077 C 345.267 707.024, 345.217 711.308, 348.455 714.545 C 350.807 716.898, 351.445 717, 363.832 717 C 379.491 717, 379.377 716.920, 379.090 727.801 C 378.912 734.519, 379.232 736.163, 381.510 740.238 C 383.601 743.980, 384.812 745.062, 387.467 745.560 C 395.643 747.094, 398.298 743.096, 398.841 728.435 C 399.181 719.236, 398.994 717.925, 396.700 713.428 C 394.228 708.581, 390.905 704.915, 386.027 701.653 C 383.982 700.285, 380.760 700, 367.366 700 L 351.178 700 348.589 703.077 M 968.417 708.357 C 968.070 709.261, 967.391 710, 966.908 710 C 966.425 710, 963.886 711.296, 961.265 712.880 C 958.644 714.464, 954.136 716.309, 951.247 716.981 C 948.358 717.652, 945.742 718.609, 945.433 719.108 C 944.066 721.320, 936.289 724.084, 932 723.882 C 929.022 723.742, 926.092 724.395, 923.336 725.812 C 916.705 729.222, 910.395 730.286, 905.003 728.904 C 900.934 727.861, 899.498 727.989, 893.133 729.959 C 888.513 731.389, 884.555 732.008, 882.196 731.669 C 880.163 731.377, 872.888 730.411, 866.028 729.523 C 858.573 728.558, 852.910 727.323, 851.949 726.454 C 849.295 724.052, 847.500 724.680, 847.500 728.012 C 847.500 729.973, 848.095 731.213, 849.206 731.565 C 850.144 731.863, 852.028 733.433, 853.392 735.053 C 854.755 736.674, 856.312 738, 856.852 738 C 857.392 738, 857.983 738.337, 858.167 738.750 C 859.317 741.338, 876.698 748, 882.302 748 C 884.152 748, 885.937 748.270, 886.267 748.600 C 886.994 749.328, 900.894 749.374, 903 748.655 C 903.825 748.374, 907.465 747.661, 911.088 747.071 C 924.197 744.936, 933.489 740.883, 947.240 731.302 C 949.847 729.486, 952.401 728, 952.917 728 C 953.432 728, 955.574 725.794, 957.677 723.097 C 959.780 720.401, 962.737 717.450, 964.250 716.541 C 965.763 715.631, 967 714.160, 967 713.272 C 967 712.384, 967.747 710.832, 968.661 709.823 C 969.574 708.813, 970.034 707.701, 969.684 707.351 C 969.334 707, 968.763 707.453, 968.417 708.357 M 642.001 709.797 C 639.358 711.076, 638.433 711.127, 636.762 710.083 C 635.107 709.050, 634.575 709.064, 633.881 710.158 C 633.413 710.896, 633.024 711.145, 633.015 710.711 C 633.007 710.276, 632.438 710.394, 631.750 710.971 C 631.063 711.549, 628.925 713.359, 627 714.995 C 625.075 716.630, 622.993 717.975, 622.372 717.984 C 621.752 717.993, 620.730 718.621, 620.100 719.379 C 619.470 720.138, 617.540 721.042, 615.811 721.388 C 614.082 721.734, 611.197 723.138, 609.400 724.508 C 607.603 725.879, 605.766 727.014, 605.317 727.032 C 603.251 727.112, 599 732.105, 599 734.452 C 599 736.827, 595.963 741, 594.234 741 C 593.813 741, 591.995 743.250, 590.195 746 C 588.036 749.298, 586.227 751, 584.880 751 C 583.445 751, 582.395 752.130, 581.344 754.807 C 580.143 757.865, 579.027 758.898, 575.674 760.057 C 572.660 761.099, 571.411 762.125, 571.180 763.750 C 571.005 764.987, 570.417 766, 569.875 766 C 568.319 766, 557 777.948, 557 779.590 C 557 780.403, 555.473 781.968, 553.607 783.069 C 550.603 784.842, 548.552 787.990, 548.905 790.289 C 548.972 790.723, 547.669 791.848, 546.010 792.789 C 544.352 793.730, 542.740 795.175, 542.428 796 C 542.117 796.825, 539.666 799.300, 536.982 801.500 C 533.045 804.727, 529 809.859, 529 811.629 C 529 811.806, 530.154 811.512, 531.565 810.975 C 532.976 810.439, 535.242 810, 536.601 810 C 539.333 810, 539.928 809.424, 550.572 796.500 C 554.649 791.550, 557.988 786.802, 557.992 785.950 C 558.002 783.948, 559.968 782, 561.977 782 C 563.803 782, 568.695 776.844, 570.950 772.544 C 571.802 770.918, 574.300 768.667, 576.500 767.541 C 579.424 766.046, 580.583 764.783, 580.807 762.848 C 581.048 760.764, 581.792 760.069, 584.307 759.582 C 586.793 759.099, 588.162 757.847, 590.489 753.927 C 592.587 750.394, 593.980 749.023, 595.160 749.331 C 596.289 749.627, 597.035 748.997, 597.432 747.414 C 597.757 746.118, 598.824 744.629, 599.802 744.106 C 602.588 742.615, 608.614 736.685, 609.309 734.750 C 609.654 733.788, 610.548 733, 611.294 733 C 612.041 733, 613.708 731.875, 615 730.500 C 616.292 729.125, 617.935 728, 618.651 728 C 619.368 728, 620.691 726.875, 621.592 725.500 C 623.648 722.362, 625 722.302, 625 725.347 C 625 727.513, 615.367 738.397, 607.981 744.576 C 606.617 745.718, 602.722 749.543, 599.327 753.076 C 595.932 756.609, 592.332 760.323, 591.327 761.329 C 584.131 768.533, 581.761 771.388, 580.880 773.915 C 580.117 776.102, 579.048 776.956, 576.463 777.441 C 573.792 777.942, 572.179 779.300, 569.026 783.703 C 566.812 786.796, 565 789.938, 565 790.688 C 565 791.437, 563.875 792.477, 562.500 793 C 560.722 793.676, 560 794.698, 560 796.540 C 560 798.189, 558.911 800.045, 557 801.653 C 555.194 803.173, 554 805.138, 554 806.589 C 554 810.054, 556.935 810.092, 567 806.757 C 574.559 804.253, 576 803.352, 576 801.128 C 576 799.274, 582.160 794, 584.324 794 C 585.111 794, 586.315 793.325, 587 792.500 C 587.685 791.675, 587.852 790.994, 587.372 790.986 C 586.893 790.978, 588.489 789.178, 590.920 786.986 C 593.351 784.794, 595.938 783, 596.670 783 C 597.401 783, 598 782.558, 598 782.018 C 598 780.355, 606.558 772, 608.261 772 C 609.143 772, 610.130 771.166, 610.454 770.146 C 610.777 769.126, 613.283 766.170, 616.021 763.577 C 618.760 760.985, 621 758.228, 621 757.451 C 621 756.674, 622.105 755.761, 623.455 755.422 C 626.070 754.766, 631 749.079, 631 746.720 C 631 744.796, 636.023 738.651, 647.210 726.886 C 652.587 721.232, 654.467 719.954, 660.163 718.083 C 663.828 716.879, 667.065 715.272, 667.357 714.511 C 667.649 713.750, 666.981 711.974, 665.872 710.564 C 663.575 707.644, 659.481 707.169, 656.441 709.468 C 654.277 711.105, 650.410 711.473, 649.575 710.121 C 648.515 708.406, 645.167 708.263, 642.001 709.797 M 552.194 710.206 C 551.537 710.863, 551 711.059, 551 710.643 C 551 710.227, 550.087 710.526, 548.971 711.308 C 547.505 712.335, 545.052 712.594, 540.124 712.241 C 534.767 711.858, 532.745 712.121, 530.684 713.471 C 528.231 715.078, 527.784 715.083, 523.742 713.539 C 520.385 712.257, 518.796 712.127, 516.615 712.956 C 514.637 713.708, 512.731 713.711, 510.155 712.966 C 507.411 712.173, 505.228 712.248, 501.398 713.270 C 498.592 714.018, 495.442 714.295, 494.398 713.885 C 493.354 713.476, 489.743 713.109, 486.372 713.070 C 478.249 712.977, 477.670 713.760, 478.521 723.691 C 479.058 729.954, 479.760 755.285, 480.054 779 C 480.077 780.925, 479.804 784.648, 479.446 787.274 C 478.578 793.637, 479.916 795.388, 484.063 793.319 C 485.702 792.501, 487.658 790.362, 488.409 788.565 C 489.699 785.476, 494.657 781, 496.788 781 C 497.326 781, 498.002 780.100, 498.290 779 C 498.577 777.900, 499.530 777, 500.406 777 C 501.283 777, 502 776.523, 502 775.941 C 502 775.359, 502.403 775.131, 502.895 775.435 C 503.388 775.740, 504.051 775.309, 504.370 774.479 C 504.688 773.649, 506.077 772.541, 507.455 772.017 C 508.983 771.436, 509.755 770.524, 509.431 769.681 C 509.105 768.832, 510.053 767.740, 511.885 766.852 C 513.527 766.057, 516.403 763.178, 518.277 760.453 C 520.312 757.494, 522.577 755.368, 523.904 755.172 C 525.311 754.965, 527.394 752.860, 529.593 749.422 C 531.653 746.202, 533.782 744, 534.835 744 C 536.792 744, 543 738.091, 543 736.228 C 543 735.581, 544.237 734.391, 545.750 733.584 C 547.263 732.776, 550.669 729.840, 553.319 727.058 C 555.970 724.276, 558.557 722, 559.069 722 C 560.543 722, 560.152 716.194, 558.457 712.918 C 557.606 711.272, 556.436 710.231, 555.846 710.595 C 555.258 710.959, 554.464 710.751, 554.083 710.134 C 553.575 709.313, 553.068 709.332, 552.194 710.206 M 540.246 717.542 C 537.004 719.037, 534.264 721.162, 533.089 723.094 C 532.043 724.815, 530.153 726.738, 528.889 727.368 C 527.625 727.998, 525.099 730.535, 523.276 733.007 C 521.452 735.478, 518.196 739.423, 516.040 741.773 C 513.884 744.123, 511.844 746.915, 511.507 747.979 C 511.169 749.042, 509.680 750.964, 508.197 752.250 C 504.765 755.225, 499 762.554, 499 763.941 C 499 765.578, 502.596 765.192, 504.086 763.396 C 504.819 762.514, 506.436 761.404, 507.681 760.931 C 508.926 760.458, 510.230 758.930, 510.580 757.535 C 510.930 756.141, 511.590 755, 512.045 755 C 513.301 755, 519.981 747.673, 519.991 746.285 C 519.996 745.617, 521.013 744.541, 522.250 743.893 C 524.316 742.813, 532.721 735.893, 544 725.986 C 546.475 723.812, 549.400 721.377, 550.500 720.575 C 552.103 719.407, 552.282 718.758, 551.399 717.309 C 549.811 714.700, 546.247 714.775, 540.246 717.542 M 517.500 716.892 C 513.785 717.457, 513.496 717.734, 513.442 720.785 C 513.400 723.203, 512.316 725.206, 509.334 728.375 C 506.836 731.028, 505.021 734.073, 504.601 736.312 C 504.226 738.311, 503.271 740.308, 502.479 740.752 C 501.687 741.195, 500.749 743.007, 500.394 744.779 C 499.883 747.337, 500.080 748, 501.356 748 C 502.239 748, 503.247 746.865, 503.595 745.477 C 503.944 744.089, 505.068 742.365, 506.094 741.646 C 508.421 740.017, 515 731.481, 515 730.092 C 515 729.526, 516.057 728.487, 517.348 727.782 C 520.964 725.808, 526.290 719.199, 525.637 717.497 C 525.040 715.941, 524.175 715.877, 517.500 716.892 M 633.695 718.700 C 630.681 719.481, 632.415 721.480, 636.397 721.815 C 640.162 722.131, 643.449 720.536, 642.430 718.887 C 641.867 717.975, 636.900 717.869, 633.695 718.700 M 486.687 721.617 C 480.576 725.611, 483.365 729.713, 490.379 727.046 C 492.696 726.165, 493.078 725.504, 492.813 722.828 C 492.412 718.762, 491.370 718.556, 486.687 721.617 M 586.203 721.994 C 584.411 725.144, 582.207 725.807, 580.200 723.800 C 579.380 722.980, 579 722.950, 579 723.706 C 579 724.315, 576.638 725.103, 573.750 725.458 C 568.333 726.123, 560.572 728.905, 561.511 729.844 C 561.803 730.137, 560.047 731.617, 557.609 733.135 C 555.170 734.653, 552.364 737.268, 551.372 738.947 C 550.380 740.626, 549.189 742, 548.725 742 C 548.262 742, 548.126 742.395, 548.425 742.878 C 548.723 743.361, 547.674 744.015, 546.093 744.331 C 544.102 744.730, 542.339 746.282, 540.359 749.380 C 538.676 752.014, 536.472 754.115, 535 754.488 C 533.625 754.837, 530.246 757.458, 527.492 760.311 C 519.742 768.341, 512.354 774.676, 509.015 776.154 C 507.344 776.893, 505.755 778.198, 505.483 779.052 C 504.945 780.748, 491.270 794.998, 490.175 795.004 C 489.804 795.006, 487.363 797.652, 484.750 800.885 C 479.410 807.492, 478.659 811.185, 482.250 813.179 C 485.421 814.941, 486.037 814.872, 490.230 812.294 C 492.282 811.032, 494.589 810, 495.358 810 C 497.607 810, 499.136 807.391, 498.462 804.703 C 497.751 801.874, 500.271 796.225, 503.149 794.193 C 504.167 793.475, 505 792.274, 505 791.525 C 505 790.776, 506.575 789.190, 508.500 788 C 510.425 786.810, 512 785.424, 512 784.918 C 512 784.413, 512.949 784, 514.108 784 C 515.900 784, 516.119 784.413, 515.563 786.750 C 514.706 790.357, 511.874 794.213, 509.019 795.660 C 507.760 796.297, 506.348 797.422, 505.880 798.160 C 504.517 800.311, 504.871 804.013, 506.500 804.638 C 508.297 805.328, 508.481 809.119, 506.800 810.800 C 505.867 811.733, 506.526 812, 509.766 812 C 513.950 812, 521 809.358, 521 807.790 C 521 807.328, 522.068 806.544, 523.373 806.048 C 524.735 805.530, 526.040 803.977, 526.435 802.404 C 526.813 800.896, 529.795 797.088, 533.061 793.941 C 536.605 790.527, 539 787.374, 539 786.123 C 539 784.690, 540.061 783.584, 542.352 782.626 C 544.823 781.594, 545.866 780.418, 546.319 778.156 C 546.736 776.072, 547.931 774.570, 550.041 773.479 C 551.782 772.579, 553.599 770.580, 554.172 768.936 C 554.735 767.321, 555.766 766, 556.463 766 C 558.969 766, 563 761.880, 563 759.319 C 563 757.134, 563.336 756.867, 565.427 757.392 C 567.311 757.865, 568.312 757.387, 569.905 755.251 C 573.297 750.703, 575.344 748.918, 576.611 749.404 C 578.094 749.973, 581 746.905, 581 744.770 C 581 743.905, 582.542 742.288, 584.426 741.176 C 588.396 738.834, 591.282 734.899, 590.509 732.885 C 590.130 731.896, 588.661 731.592, 585.487 731.845 C 581.367 732.172, 581 732.422, 581 734.901 C 581 738.366, 579.323 740, 575.766 740 C 573.588 740, 572.455 740.809, 570.867 743.500 C 569.185 746.352, 568.204 747, 565.570 747 C 562.395 747, 561.208 748.230, 559.677 753.108 C 559.399 753.992, 557.848 754.980, 556.230 755.304 C 554.170 755.716, 552.905 756.814, 552.015 758.964 C 551.315 760.654, 549 763.416, 546.871 765.102 C 544.742 766.788, 543 768.733, 543 769.424 C 543 770.114, 541.899 771.180, 540.554 771.793 C 538.916 772.540, 537.896 774.040, 537.465 776.334 C 537.036 778.621, 536.014 780.128, 534.391 780.868 C 533.054 781.477, 531.530 783.106, 531.005 784.488 C 530.479 785.869, 529.624 787, 529.104 787 C 528.584 787, 527.863 788.345, 527.502 789.989 C 527.110 791.776, 525.700 793.655, 523.994 794.662 C 522.426 795.589, 520.928 797.169, 520.665 798.174 C 520.402 799.178, 519.500 800, 518.661 800 C 517.822 800, 516.849 800.900, 516.500 802 C 515.770 804.301, 510.908 804.799, 509.205 802.747 C 508.027 801.328, 509.903 798, 511.882 798 C 512.520 798, 513.545 796.898, 514.158 795.552 C 514.772 794.205, 516.225 792.967, 517.387 792.802 C 520.209 792.399, 521.015 785.463, 518.457 783.592 C 515.913 781.732, 517.017 778.421, 520.041 778.843 C 521.393 779.031, 523.122 779.256, 523.882 779.343 C 524.642 779.429, 526.269 777.728, 527.497 775.563 C 528.724 773.397, 532.715 768.576, 536.365 764.850 C 540.014 761.123, 543 757.596, 543 757.012 C 543 756.428, 544.108 755.529, 545.463 755.014 C 546.818 754.499, 549.062 752.277, 550.452 750.077 C 551.841 747.876, 554.078 745.496, 555.423 744.788 C 556.769 744.080, 558.927 741.925, 560.218 740 C 562.049 737.272, 563.994 736.014, 569.034 734.300 C 572.590 733.090, 576.665 732.078, 578.089 732.050 C 579.853 732.016, 581.042 731.202, 581.818 729.500 C 583.177 726.517, 586.028 726.268, 588.431 728.923 C 589.768 730.401, 591.019 730.720, 593.836 730.298 C 601.236 729.190, 601.507 725.267, 594.469 721.114 C 589.680 718.289, 588.224 718.444, 586.203 721.994 M 500.416 723.676 C 499.009 728.113, 497.964 730, 496.915 730 C 495.783 730, 491.935 734.295, 491 736.601 C 490.725 737.280, 488.612 739.844, 486.304 742.301 C 482.542 746.305, 482.251 746.959, 483.484 748.633 C 484.795 750.411, 485.026 750.340, 488.352 747.130 C 490.272 745.276, 492.093 742.766, 492.398 741.551 C 492.703 740.337, 494.112 738.815, 495.529 738.169 C 496.946 737.523, 498.576 735.646, 499.151 733.997 C 499.813 732.099, 500.886 731, 502.079 731 C 504.061 731, 505.458 727.615, 504.827 724.341 C 504.351 721.867, 501.143 721.384, 500.416 723.676 M 627.115 734.361 C 626.463 735.147, 626.058 736.363, 626.215 737.063 C 626.372 737.763, 625.593 738.823, 624.484 739.418 C 620.547 741.531, 615 746.256, 615 747.497 C 615 748.190, 612.525 750.666, 609.500 753 C 606.475 755.334, 604 757.812, 604 758.507 C 604 759.201, 602.909 760.485, 601.576 761.358 C 600.243 762.232, 598.862 763.859, 598.508 764.973 C 598.155 766.088, 597.287 767, 596.581 767 C 595.142 767, 589 772.553, 589 773.854 C 589 775.218, 585.470 778, 583.739 778 C 582.857 778, 581.828 778.966, 581.454 780.146 C 580.731 782.422, 576.166 786.915, 574.522 786.968 C 572.594 787.031, 566 795.278, 566 797.626 C 566 800.550, 566.801 800.574, 572.643 797.828 C 576.286 796.115, 577.675 794.727, 579.203 791.274 C 580.407 788.553, 582.156 786.456, 583.820 785.739 C 585.294 785.105, 591 780.057, 596.500 774.521 C 602 768.985, 608.173 763.186, 610.218 761.634 C 612.264 760.081, 613.839 758.478, 613.718 758.072 C 613.598 757.665, 615.975 754.865, 619 751.849 C 625.325 745.543, 627.411 743.006, 626.289 742.985 C 625.855 742.977, 626.625 742.401, 628 741.706 C 629.926 740.731, 630.500 739.663, 630.500 737.054 C 630.500 733.343, 628.970 732.126, 627.115 734.361 M 630.897 758.193 C 629.038 761.666, 625.734 764.800, 622.750 765.919 C 621.237 766.486, 620 767.660, 620 768.526 C 620 769.393, 618.462 770.744, 616.583 771.530 C 613.312 772.896, 609 777.639, 609 779.869 C 609 780.452, 607.987 781.449, 606.750 782.085 C 603.090 783.964, 598 789.253, 598 791.177 C 598 792.278, 596.975 793.219, 595.326 793.633 C 593.855 794.002, 590.034 796.711, 586.835 799.652 C 583.635 802.593, 580.365 805, 579.568 805 C 577.405 805, 576.655 806.879, 578.116 808.639 C 581.209 812.367, 592.881 807.103, 596.757 800.232 C 597.915 798.180, 600.356 795.691, 602.181 794.702 C 604.007 793.712, 606.625 791.394, 608 789.550 C 609.375 787.707, 612.300 785.053, 614.500 783.655 C 618.312 781.231, 624.033 775.931, 632.250 767.213 C 636.085 763.144, 637.031 759.431, 634.800 757.200 C 633.084 755.484, 632.230 755.702, 630.897 758.193 M 386.731 760.693 C 383.219 761.608, 381.999 767.345, 382.015 782.872 C 382.025 792.627, 382.449 798.330, 383.290 799.991 C 384.542 802.465, 387.025 803.588, 389.308 802.712 C 389.964 802.460, 390.790 802.310, 391.145 802.377 C 392.475 802.630, 396.219 798.415, 397.680 795.020 C 400.025 789.574, 398.953 769.278, 396.075 764.621 C 393.361 760.230, 391.504 759.449, 386.731 760.693 M 488.872 764.705 C 484.780 769.123, 482.406 773.806, 483.636 775.036 C 485.195 776.595, 497 770.171, 497 767.763 C 497 766.759, 496.212 765.642, 495.250 765.281 C 494.288 764.919, 493.041 764.013, 492.480 763.267 C 491.660 762.175, 490.955 762.456, 488.872 764.705 M 639.500 771 C 637.300 772.063, 635.010 772.947, 634.412 772.966 C 633.813 772.985, 630.912 775.718, 627.964 779.040 C 625.017 782.363, 621.119 785.999, 619.303 787.122 C 617.486 788.245, 616 789.801, 616 790.582 C 616 791.362, 615.597 792, 615.105 792 C 613.471 792, 605.118 800.559, 604.075 803.302 C 603.511 804.786, 602.337 806, 601.466 806 C 600.595 806, 600.118 806.382, 600.406 806.848 C 600.695 807.315, 605.878 807.958, 611.926 808.277 C 621.666 808.791, 623.410 808.624, 627.210 806.814 C 629.570 805.690, 632.309 804.058, 633.298 803.187 C 634.996 801.691, 638 800.679, 638 801.602 C 638 801.836, 637.465 802.884, 636.810 803.932 C 634.551 807.550, 637.207 808.959, 645.832 808.716 C 652.312 808.533, 653.528 808.225, 653.822 806.692 C 654.013 805.697, 653.832 804.122, 653.421 803.192 C 653.009 802.261, 652.634 801.183, 652.586 800.796 C 652.539 800.408, 650.752 798, 648.616 795.445 C 643.354 789.150, 642.644 783.647, 646.370 778.018 C 649.669 773.033, 649.683 771.210, 646.435 769.975 C 643.376 768.812, 644.317 768.673, 639.500 771 M 985.500 773 C 984.684 774.320, 985.880 776.192, 987.069 775.457 C 988.284 774.707, 988.276 772, 987.059 772 C 986.541 772, 985.840 772.450, 985.500 773 M 630 787.357 C 627.238 788.259, 626.500 789.027, 626.500 791 C 626.500 794.575, 630.323 794.962, 632.520 791.610 C 635.158 787.584, 634.209 785.983, 630 787.357 M 319.571 795.571 C 318.707 796.436, 318 798.610, 318 800.404 C 318 803.016, 318.811 804.317, 322.073 806.939 C 324.314 808.739, 327.351 810.531, 328.823 810.921 C 330.704 811.420, 332.157 813.004, 333.710 816.251 C 334.926 818.793, 337.554 822.364, 339.550 824.186 C 344.761 828.943, 359.983 843.094, 362.777 845.778 C 366.253 849.119, 365.119 850.413, 358.019 851.206 C 350.622 852.032, 346 855.460, 346 860.119 C 346 862.735, 350.558 867.334, 352.685 866.863 C 353.133 866.764, 354.175 866.945, 355 867.267 C 356.574 867.880, 372.813 869.162, 381.695 869.375 C 386.339 869.487, 387.265 869.136, 390.433 866.066 C 392.381 864.177, 394.733 860.577, 395.660 858.066 C 396.586 855.555, 397.777 852.931, 398.307 852.236 C 398.865 851.502, 399.069 845.829, 398.794 838.736 C 398.128 821.589, 395.973 817.853, 387.986 820.004 C 383.434 821.229, 382 824.350, 382 833.027 C 382 841.754, 380.499 842.168, 373.391 835.402 C 366.008 828.374, 356.931 821.304, 353.725 820.086 C 351.744 819.332, 351.178 818.271, 350.755 814.515 C 350.124 808.925, 347.189 805.437, 341.741 803.804 C 339.608 803.165, 337.270 801.796, 336.546 800.763 C 332.383 794.818, 323.149 791.994, 319.571 795.571 M 621.500 849.020 C 619.300 849.454, 598.150 850.089, 574.500 850.431 C 517.921 851.249, 513.723 851.521, 510.072 854.593 C 505.815 858.175, 505.301 861.661, 508.532 865.033 C 513.337 870.049, 516.353 870.314, 556.770 869.272 C 577.065 868.749, 594.207 867.990, 594.861 867.586 C 595.516 867.181, 605.378 866.891, 616.776 866.941 C 636.966 867.030, 637.573 866.973, 640.343 864.736 C 643.892 861.870, 644.421 856.228, 641.449 852.944 C 637.173 848.219, 631.356 847.074, 621.500 849.020 M 217.032 851.605 C 212.686 853.462, 212.034 854.499, 212.015 859.595 C 212 863.784, 214.812 867.852, 216.852 866.592 C 217.389 866.259, 218.017 866.553, 218.247 867.244 C 218.551 868.158, 222.810 868.593, 233.893 868.843 C 248.879 869.180, 249.183 869.145, 253.042 866.591 C 257.764 863.466, 258.750 860.383, 256.527 855.698 C 254.455 851.332, 252.694 850.914, 234.500 850.467 C 223.749 850.203, 219.695 850.467, 217.032 851.605 M 281.028 852.113 C 277.666 853.455, 277.033 854.724, 277.015 860.161 C 277 864.720, 277.101 864.871, 281.632 867.064 C 286.082 869.218, 286.967 869.281, 304.223 868.656 C 314.101 868.298, 322.704 867.673, 323.341 867.268 C 323.979 866.862, 324.823 866.524, 325.218 866.515 C 327.145 866.474, 330 862.723, 330 860.232 C 330 856.242, 327.512 853.236, 323.221 852.044 C 318.516 850.738, 284.335 850.793, 281.028 852.113 M 726.250 866.662 C 725.390 867.009, 725 869.771, 725 875.512 C 725 886.199, 725.700 887.028, 733.666 885.765 C 740.057 884.751, 752.307 881.453, 755.555 879.871 C 756.686 879.321, 758.250 879.012, 759.032 879.185 C 760.783 879.573, 761.619 875.219, 760.087 873.687 C 759.492 873.092, 753.570 872.296, 746.927 871.918 C 735.732 871.280, 734.650 871.039, 732.120 868.615 C 729.384 865.994, 728.575 865.724, 726.250 866.662 M 200.500 916.695 C 177.400 916.864, 157.825 917.300, 157 917.664 C 156.175 918.029, 155.275 918.382, 155 918.449 C 150.438 919.560, 148.145 924.521, 150.057 929.139 L 151.230 931.970 212.305 931.968 C 280.230 931.967, 277 932.298, 277 925.335 C 277 922.168, 274.843 919.087, 272.500 918.907 C 271.950 918.865, 271.050 918.470, 270.500 918.031 C 268.950 916.792, 246.371 916.361, 200.500 916.695 M 367.735 917.598 C 367.407 917.927, 360.425 918.132, 352.221 918.054 L 337.305 917.913 334.152 920.858 C 330.793 923.996, 330.165 927.317, 332.379 930.232 C 333.598 931.837, 337.671 931.964, 388.015 931.965 C 426.207 931.965, 442.732 931.637, 443.668 930.860 C 444.401 930.252, 445 928.089, 445 926.052 C 445 921.579, 441.290 917.429, 438.048 918.277 C 436.922 918.572, 436 918.405, 436 917.906 C 436 916.912, 368.725 916.608, 367.735 917.598 M 509.643 917.690 C 509.264 918.070, 506.770 918.264, 504.102 918.123 C 499.865 917.898, 498.982 918.207, 497.126 920.567 C 494.516 923.885, 494.387 928.135, 496.829 930.345 C 498.494 931.852, 504.976 932, 569.394 932 C 616.243 932, 640.785 931.650, 642.066 930.965 C 644.776 929.514, 644.774 922.011, 642.063 919.557 C 640.998 918.593, 639.679 918.081, 639.132 918.418 C 638.585 918.756, 637.856 918.575, 637.510 918.016 C 636.849 916.947, 580.826 916.508, 579.770 917.563 C 578.908 918.425, 554 918.605, 554 917.750 C 554 916.808, 510.584 916.750, 509.643 917.690" stroke="none" fill="#171916" fill-rule="evenodd"/>
</svg>