<svg role="img" aria-labelledby="artwork-title" shape-rendering="geometricPrecision" xmlns="http://www.w3.org/2000/svg" width="1200" height="1200" viewBox="0 0 1200 1200" version="1.1">
	<title id="artwork-title">Mascot holding frontend and backend panels</title>
	<path d="M 700 274.861 C 700 275.335, 697.413 275.959, 694.250 276.249 C 690.833 276.562, 686.512 277.836, 683.601 279.388 C 680.907 280.825, 678.171 282, 677.521 282 C 676.872 282, 673.606 284.475, 670.263 287.500 C 666.920 290.525, 663.740 293, 663.196 293 C 662.652 293, 660.824 291.425, 659.134 289.500 C 657.444 287.575, 655.433 286, 654.665 286 C 653.898 286, 652.067 285.054, 650.598 283.898 C 645.666 280.019, 625.548 276.705, 620.240 278.897 C 618.733 279.520, 614.842 280.460, 611.593 280.988 C 608.110 281.553, 604.801 282.778, 603.529 283.973 C 602.342 285.088, 600.904 286, 600.333 286 C 597.551 286, 582.500 304.447, 581.475 309.112 C 580.652 312.860, 576.118 314.701, 573.095 312.516 C 570.979 310.987, 551.509 311.333, 549.580 312.933 C 548.711 313.655, 548 313.886, 548 313.448 C 548 313.010, 546.987 313.562, 545.750 314.675 C 544.513 315.788, 541.250 317.759, 538.500 319.056 C 533.414 321.455, 524 330.252, 524 332.606 C 524 333.318, 523.438 334.260, 522.750 334.700 C 521.403 335.562, 519.332 338.579, 518.426 341 C 518.117 341.825, 516.995 344.425, 515.932 346.777 C 514.734 349.429, 514 353.264, 514 356.872 C 514 361.241, 513.544 363.103, 512.169 364.347 C 511.162 365.259, 510.077 365.743, 509.758 365.424 C 509.439 365.105, 506.550 366.711, 503.339 368.991 C 500.127 371.272, 496.265 373.895, 494.756 374.819 C 493.247 375.744, 492.010 377.028, 492.006 377.673 C 492.003 378.319, 490.937 380.119, 489.637 381.673 C 488.337 383.228, 486.924 385.616, 486.496 386.981 C 486.069 388.345, 484.830 390.664, 483.743 392.134 C 481.095 395.716, 480.095 401.501, 480.049 413.500 C 480.001 426.274, 480.871 429.199, 486.969 436.767 C 492.404 443.511, 492.366 442.955, 487.932 451 C 486.388 453.802, 486.004 456.494, 486.007 464.500 C 486.011 475.251, 487.229 481.488, 489.854 484.202 C 490.759 485.138, 491.976 486.488, 492.557 487.202 C 493.138 487.916, 495.108 489.757, 496.935 491.293 L 500.255 494.086 499.030 499.859 C 498.144 504.034, 498.095 506.584, 498.852 509.066 C 501.277 517.017, 504.069 524.379, 505.158 525.690 C 506.089 526.812, 505.507 527.940, 502.262 531.297 C 494.696 539.126, 492.293 544.324, 490.843 556 C 488.579 574.216, 489.719 587.730, 494.246 596.371 C 495.436 598.642, 496.430 600.752, 496.455 601.059 C 496.592 602.751, 504.767 614.017, 506.224 614.521 C 510.193 615.896, 512.271 620.826, 512.655 629.783 C 512.934 636.295, 513.620 639.617, 515.511 643.615 C 516.880 646.509, 518 649.966, 518 651.299 C 518 652.631, 519.045 655.261, 520.322 657.143 C 521.600 659.025, 522.476 661.072, 522.270 661.691 C 522.063 662.310, 522.368 663.110, 522.947 663.467 C 523.526 663.825, 524 664.813, 524 665.663 C 524 666.512, 526.250 669.900, 529 673.191 C 531.876 676.633, 534 680.171, 534 681.519 C 534 684.643, 540.614 692.389, 545.055 694.466 C 548.756 696.196, 555.999 702.306, 556.001 703.699 C 556.002 704.140, 558.235 705.754, 560.965 707.288 C 563.695 708.821, 566.227 710.559, 566.592 711.149 C 567.601 712.781, 564.974 713.968, 560.315 713.985 C 558.013 713.993, 554.863 714.482, 553.315 715.070 C 551.767 715.659, 550.457 715.996, 550.404 715.820 C 550.351 715.644, 549.676 716.018, 548.904 716.651 C 548.132 717.284, 543.881 719.193, 539.457 720.894 C 535.034 722.594, 529.296 725.329, 526.707 726.971 C 524.118 728.613, 522 729.687, 522 729.359 C 522 729.031, 520.538 729.877, 518.750 731.239 C 516.962 732.602, 513.025 734.959, 510 736.478 C 504.235 739.373, 492.404 748.391, 487.802 753.397 C 482.373 759.303, 482.392 759.472, 481.672 698.247 C 481.016 642.498, 481.014 642.461, 478.491 633.758 C 475.642 623.931, 471.832 617.635, 465.686 612.599 C 457.159 605.612, 456.981 605.587, 412.500 605.209 C 390.500 605.021, 351.125 605.405, 325 606.061 C 298.875 606.718, 246.225 607.535, 208 607.877 L 138.500 608.500 130.902 612.215 C 126.723 614.258, 122.730 616.620, 122.029 617.465 C 121.329 618.309, 120.211 619, 119.547 619 C 117.886 619, 112.910 626.359, 110.081 633 C 108.793 636.025, 107.287 639.483, 106.735 640.684 C 106.184 641.886, 105.975 643.798, 106.273 644.934 C 106.570 646.070, 106.405 647, 105.906 647 C 105.408 647, 105 649.025, 105 651.500 C 105 653.975, 105.338 656, 105.750 655.999 C 106.162 655.999, 106.371 666.685, 106.214 679.747 C 106.047 693.531, 106.331 704.336, 106.888 705.498 C 107.417 706.599, 108.139 724.150, 108.494 744.500 C 108.848 764.850, 109.474 791.850, 109.885 804.500 L 110.633 827.500 107.668 830.701 C 106.038 832.461, 104.433 833.851, 104.102 833.789 C 102.733 833.534, 98.370 835.914, 96.595 837.885 C 95.547 839.048, 94.062 840, 93.294 840 C 92.526 840, 91.219 841.462, 90.389 843.250 C 89.559 845.038, 88.239 847.625, 87.455 849 C 86.536 850.612, 85.997 854.698, 85.939 860.500 C 85.836 870.641, 84.189 876.663, 81.641 876.206 C 80.247 875.957, 80 876.974, 80 882.956 C 80 888.654, 80.296 890, 81.551 890 C 84.189 890, 85.868 896.163, 86.276 907.342 C 86.646 917.460, 86.825 918.216, 89.689 921.760 C 92.639 925.411, 92.890 925.507, 100.201 925.789 C 109.697 926.156, 111.180 924.944, 108.503 919.007 C 107.524 916.836, 105.885 914.301, 104.861 913.375 C 103.327 911.986, 103 910.211, 103 903.280 C 103 896.943, 102.480 893.663, 100.892 889.970 C 98.553 884.534, 98.688 880.362, 101.438 873.080 C 103.362 867.986, 103.567 865.301, 102.522 858.908 C 101.812 854.564, 101.954 854.144, 105.136 851.162 C 106.986 849.428, 109.287 848.007, 110.250 848.005 C 111.213 848.002, 112 847.663, 112 847.250 C 111.999 846.384, 129.878 846.544, 130.752 847.418 C 131.072 847.738, 132.140 848, 133.126 848 C 135.113 848, 140 852.775, 140 854.717 C 140 857.430, 135.011 859.334, 128.517 859.098 C 124.718 858.961, 121.246 859.395, 119.841 860.184 C 113.048 864.002, 112.376 866.681, 117.106 871.099 C 119.916 873.724, 125 875.110, 125 873.250 C 125 872.337, 130.747 872.413, 131.672 873.339 C 132.036 873.703, 133.854 874, 135.712 874 C 141.826 874, 146.148 880.884, 142.750 885.208 C 141.793 886.426, 139.038 886.899, 131 887.227 C 119.207 887.708, 116.836 888.568, 114.985 893.037 C 113.789 895.924, 113.890 896.344, 116.372 898.825 C 118.954 901.405, 119.394 901.490, 128.814 901.230 C 137.507 900.989, 138.822 901.186, 140.790 903.019 C 143.124 905.194, 143.562 907.564, 142.066 909.927 C 141.416 910.954, 139.483 911.286, 135.182 911.111 C 131.892 910.977, 128.935 911.296, 128.611 911.820 C 128.287 912.344, 126.330 913.087, 124.261 913.471 C 119.264 914.399, 117 916.600, 117 920.533 C 117 925.802, 118.050 926.075, 137.132 925.774 L 154.500 925.500 155.066 921.260 C 155.401 918.747, 156.623 915.966, 158.066 914.429 C 161.313 910.970, 161.370 903.557, 158.180 899.502 C 155.581 896.197, 155.522 895.621, 157.571 893.571 C 158.436 892.707, 158.773 891.993, 158.321 891.985 C 157.870 891.976, 158.119 891.577, 158.875 891.098 C 159.739 890.551, 160.439 887.599, 160.756 883.168 C 161.231 876.526, 161.076 875.830, 158.130 871.383 C 154.685 866.182, 154.436 864.327, 156.431 858.737 C 159.231 850.890, 153.194 840.119, 142.599 834.056 C 139.661 832.375, 135.935 831, 134.319 831 C 128.457 831, 128.181 830.197, 127.086 810 C 125.712 784.634, 125.040 760.394, 124.017 699.194 C 123.077 642.996, 123.249 640.178, 127.952 634.769 C 130.829 631.462, 139.077 627, 142.315 627 C 143.608 627, 144.918 626.748, 145.226 626.441 C 145.533 626.134, 158.624 625.921, 174.316 625.969 C 190.283 626.018, 203.093 625.659, 203.405 625.154 C 203.713 624.655, 224.606 623.972, 250.231 623.624 C 275.679 623.278, 330.250 622.471, 371.500 621.831 L 446.500 620.668 450.500 622.742 C 454.953 625.052, 458.642 628.742, 461.753 634 C 463.782 637.430, 463.846 639.301, 464.955 728 C 465.577 777.775, 466.505 831.775, 467.016 848 C 467.527 864.225, 467.958 887.542, 467.973 899.816 C 467.989 913.231, 468.413 922.903, 469.035 924.066 C 469.905 925.692, 471.172 926, 476.978 926 C 482.984 926, 484.090 925.709, 485.443 923.777 C 486.299 922.555, 487 920.772, 487 919.815 C 487 918.792, 489.578 916.351, 493.250 913.897 C 496.688 911.599, 500.697 908.612, 502.161 907.258 C 504.666 904.940, 505.123 904.861, 509.960 905.898 C 512.786 906.504, 515.709 907, 516.455 907 C 517.798 907, 524.490 901.993, 528.666 897.863 C 529.980 896.564, 531.477 895.969, 532.473 896.351 C 533.924 896.908, 534.045 898.532, 533.520 910.337 C 533.041 921.088, 533.197 923.919, 534.320 924.851 C 535.363 925.716, 563.375 925.945, 645.108 925.754 L 754.500 925.500 754.463 904 C 754.442 892.175, 753.956 842.225, 753.383 793 C 752.810 743.775, 752.602 695.372, 752.920 685.437 C 753.560 665.503, 752.840 667.910, 761.208 657.705 C 764.539 653.644, 768.875 651.619, 773.648 651.897 C 775.930 652.030, 778.094 651.657, 778.457 651.069 C 779.306 649.695, 798.654 649.631, 799.500 651 C 800.316 652.321, 822.684 652.321, 823.500 651 C 824.231 649.818, 1049.237 649.570, 1050.417 650.750 C 1050.829 651.163, 1051.544 651.500, 1052.006 651.500 C 1054.435 651.500, 1061.155 658.128, 1063.666 663 L 1066.500 668.500 1066.758 722.500 C 1066.901 752.200, 1067.254 777.141, 1067.544 777.924 C 1068.231 779.781, 1068.658 829, 1067.987 829 C 1067.705 829, 1067.026 830.013, 1066.478 831.250 C 1065.862 832.641, 1064.781 833.380, 1063.646 833.184 C 1060.971 832.725, 1054.034 836.350, 1050 840.317 C 1046.424 843.833, 1042.516 848.969, 1042.506 850.167 C 1042.503 850.533, 1042.162 851.171, 1041.750 851.583 C 1041.338 851.996, 1041 855.183, 1041 858.667 C 1041 862.150, 1041.338 865, 1041.750 865 C 1043.256 865, 1042.207 870.646, 1039.636 876.374 C 1036.442 883.492, 1036.424 884.073, 1039.199 890.767 C 1041.242 895.697, 1041.304 896.476, 1040.069 901.786 C 1037.864 911.263, 1038.743 915.675, 1044.343 923.250 L 1046.376 926 1063.988 926 C 1082.522 926, 1084 925.663, 1084 921.435 C 1084 917.390, 1080.436 914.248, 1075.002 913.500 C 1072.252 913.122, 1069.731 912.374, 1069.400 911.838 C 1069.069 911.303, 1066.481 910.971, 1063.649 911.102 C 1057.729 911.375, 1054 909.786, 1054 906.990 C 1054 903.710, 1058.966 901.980, 1067.897 902.150 C 1079.706 902.374, 1083.771 899.252, 1080.539 892.440 C 1078.381 887.892, 1075.846 887, 1065.090 887 C 1057.854 887, 1056.019 886.678, 1054.655 885.171 C 1052.136 882.388, 1052.639 880.513, 1056.750 877.369 C 1060.218 874.716, 1061.252 874.478, 1070.500 874.208 C 1076 874.048, 1081.551 873.389, 1082.835 872.744 C 1086.079 871.114, 1088.344 866.511, 1087.071 864.133 C 1085.812 861.780, 1081.227 858.742, 1080.041 859.475 C 1079.544 859.782, 1078.856 859.575, 1078.510 859.016 C 1077.761 857.805, 1064 857.631, 1064 858.833 C 1064 860.202, 1059.912 859.473, 1058.935 857.930 C 1058.438 857.143, 1058.024 855.729, 1058.015 854.786 C 1057.995 852.549, 1064.732 848, 1068.065 848 C 1069.496 848, 1070.948 847.719, 1071.292 847.375 C 1072.025 846.641, 1082.391 846.525, 1083.643 847.237 C 1084.114 847.504, 1085.625 848.018, 1087 848.379 C 1088.375 848.739, 1091.474 850.780, 1093.887 852.913 L 1098.275 856.791 1098.399 865.646 C 1098.497 872.567, 1099.013 875.525, 1100.762 879.195 C 1103.491 884.920, 1103.488 884.642, 1100.871 890.560 C 1099.020 894.743, 1098.826 896.495, 1099.386 903.937 C 1099.993 912.009, 1099.884 912.715, 1097.479 916.250 C 1096.076 918.312, 1094.464 920, 1093.898 920 C 1093.331 920, 1093.010 921.237, 1093.184 922.750 C 1093.497 925.474, 1093.579 925.503, 1101.709 925.790 L 1109.919 926.080 1112.497 922.184 C 1114.791 918.718, 1115.115 917.089, 1115.441 907.394 C 1115.702 899.625, 1116.431 894.660, 1117.981 890.086 C 1119.970 884.220, 1120.032 883.365, 1118.709 880.086 C 1115.731 872.703, 1115 869.166, 1115 862.129 C 1115 853.647, 1113.854 850.973, 1106.636 842.605 C 1102.359 837.647, 1097.639 834.320, 1094.255 833.879 C 1093.215 833.743, 1087.678 829.832, 1086.708 828.548 C 1086.273 827.972, 1085.983 816.025, 1086.064 802 C 1086.226 773.865, 1084.318 676.132, 1083.413 666.250 C 1083.098 662.813, 1082.441 660, 1081.952 660 C 1081.463 660, 1081.322 659.325, 1081.638 658.500 C 1081.955 657.675, 1081.760 657, 1081.205 657 C 1080.650 657, 1079.725 655.651, 1079.151 654.003 C 1076.082 645.198, 1064.869 636.143, 1053.822 633.547 C 1047.023 631.949, 1039.604 631.888, 950 632.694 C 896.925 633.171, 853.150 633.288, 852.723 632.953 C 852.295 632.619, 854.545 629.834, 857.723 626.763 C 864.134 620.568, 869 614.363, 869 612.383 C 869 611.671, 870.350 608.798, 872 606 C 873.650 603.202, 875 600.354, 875 599.671 C 875 598.989, 875.900 595.870, 877 592.740 C 879.796 584.786, 879.747 571.843, 876.885 562.500 C 874.679 555.295, 874.330 554.051, 874.149 552.732 C 874.091 552.310, 871.783 549.249, 869.022 545.930 C 866.260 542.611, 864 539.465, 864 538.938 C 864 538.411, 864.900 537.210, 866 536.268 C 867.100 535.326, 868 534.069, 868 533.474 C 868 532.878, 869.376 530.221, 871.058 527.569 C 872.740 524.917, 873.885 522.143, 873.602 521.405 C 873.319 520.668, 873.518 519.798, 874.044 519.473 C 875.111 518.813, 875.371 508.704, 874.346 507.679 C 873.375 506.709, 873.554 499.616, 874.596 497.774 C 875.093 496.895, 877.138 494.409, 879.141 492.250 C 882.139 489.017, 885.965 483.206, 886.548 481 C 886.621 480.725, 887.428 478.827, 888.340 476.782 C 891.044 470.726, 889.942 452, 886.882 452 C 886.441 452, 885.527 450.152, 884.850 447.894 C 884.051 445.227, 881.574 441.710, 877.778 437.855 L 871.935 431.921 875.192 425.211 C 878.159 419.098, 878.451 417.654, 878.474 409 C 878.502 398.712, 877.085 393.594, 871.800 384.889 C 870.260 382.354, 868.994 379.879, 868.988 379.389 C 868.966 377.874, 861.161 370, 859.680 370 C 858.910 370, 857.456 368.902, 856.448 367.560 C 855.440 366.218, 854.252 365.344, 853.808 365.619 C 853.363 365.893, 853 365.744, 853 365.286 C 853 363.115, 845.575 360.668, 837.263 360.099 L 828.500 359.500 827.846 350.200 C 827.017 338.421, 826.731 337.354, 822.428 330.012 C 818.856 323.918, 807.600 312, 805.416 312 C 804.772 312, 803.686 311.327, 803.004 310.505 C 802.321 309.682, 799.904 308.505, 797.631 307.889 C 795.359 307.272, 791.803 306.145, 789.730 305.384 C 784.417 303.434, 777.918 303.738, 767.500 306.425 C 761.379 308.003, 757.772 308.471, 756.224 307.888 C 753.915 307.017, 753.601 306.500, 752.612 301.940 C 752.307 300.531, 751.032 298.096, 749.779 296.527 C 744.984 290.527, 734.623 281.122, 732.118 280.497 C 730.678 280.138, 728.734 279.154, 727.798 278.311 C 726.808 277.418, 723.359 276.558, 719.548 276.252 C 715.947 275.963, 713 275.338, 713 274.863 C 713 274.388, 710.075 274, 706.500 274 C 702.925 274, 700 274.388, 700 274.861 M 694.670 293.148 C 689.133 294.209, 680.779 298.668, 676.729 302.724 C 672.578 306.883, 667.021 314.331, 667.010 315.750 C 666.995 317.648, 669.974 317.244, 670.697 315.250 C 671.465 313.134, 677.037 308.097, 678.673 308.041 C 679.319 308.018, 681.119 306.943, 682.673 305.652 C 684.228 304.361, 686.823 302.981, 688.439 302.586 C 690.055 302.190, 692.530 301.062, 693.939 300.079 C 698.846 296.652, 713.926 296.856, 717.924 300.403 C 718.791 301.172, 721.175 302.256, 723.221 302.812 C 725.268 303.368, 728.262 304.763, 729.876 305.911 C 731.489 307.060, 733.291 308, 733.880 308 C 734.470 308, 735.843 309.688, 736.932 311.750 C 738.875 315.431, 738.912 315.449, 738.956 312.719 C 738.981 311.136, 738.353 309.689, 737.500 309.362 C 736.675 309.045, 736 308.136, 736 307.342 C 736 306.548, 734.313 304.319, 732.250 302.389 C 722.922 293.661, 709.382 290.332, 694.670 293.148 M 623 296.008 C 622.175 296.498, 619.372 297.173, 616.770 297.508 C 613.179 297.970, 610.728 299.186, 606.588 302.558 C 603.589 305.001, 600.709 307, 600.189 307 C 599.668 307, 598.645 308.462, 597.914 310.250 C 597.183 312.038, 596.003 314.095, 595.292 314.821 C 593.634 316.517, 593.554 322.315, 595.195 321.768 C 595.853 321.549, 596.728 320.109, 597.140 318.568 C 598.266 314.360, 609.622 304.160, 614.750 302.752 C 617.087 302.110, 619 301.202, 619 300.734 C 619 300.265, 619.450 300.160, 620 300.500 C 620.550 300.840, 621 300.416, 621 299.559 C 621 298.427, 622.026 297.996, 624.750 297.986 C 630.113 297.967, 633.528 296.950, 631.835 295.877 C 630.112 294.785, 624.930 294.862, 623 296.008 M 636.378 299.366 C 637.962 300.694, 640.822 302.034, 642.735 302.344 C 644.648 302.655, 646.803 303.716, 647.525 304.703 C 648.246 305.690, 649.210 306.123, 649.667 305.667 C 650.123 305.210, 649.710 304.261, 648.748 303.558 C 647.787 302.855, 647 301.782, 647 301.175 C 647 299.544, 644.131 298.338, 638.500 297.604 L 633.500 296.951 636.378 299.366 M 768.500 321.686 C 762.261 323.102, 758 325.369, 758 327.274 C 758 329.113, 758.448 329.223, 763.534 328.625 C 766.578 328.267, 769.941 327.429, 771.009 326.762 C 772.532 325.811, 773.214 325.814, 774.175 326.775 C 774.849 327.449, 776.997 328.003, 778.950 328.006 C 783.867 328.013, 790.113 329.846, 792.500 331.981 C 793.600 332.965, 795.511 334.077, 796.748 334.452 C 797.984 334.827, 799.262 336.196, 799.588 337.494 C 799.914 338.793, 800.813 340.098, 801.585 340.394 C 802.357 340.691, 803.716 342.748, 804.603 344.967 C 806.487 349.675, 810 350.712, 810 346.559 C 810 345.216, 809.543 343.835, 808.984 343.490 C 808.425 343.144, 808.216 342.459, 808.520 341.967 C 808.824 341.475, 805.483 337.483, 801.095 333.095 C 794.029 326.029, 792.354 324.881, 786.453 323.058 C 780.257 321.144, 773.248 320.609, 768.500 321.686 M 559 329.049 C 552.902 330.226, 544.423 334.738, 541.171 338.534 C 531.720 349.571, 530.135 352.594, 530.176 359.500 C 530.204 364.293, 531.351 368.871, 532.178 367.490 C 532.505 366.945, 533.087 364.160, 533.473 361.299 C 534.310 355.092, 537.003 351.007, 546.299 341.841 C 552.557 335.671, 553.643 335.014, 559.967 333.576 C 564.543 332.535, 568.865 332.226, 572.918 332.649 C 577.250 333.102, 579 332.949, 579 332.118 C 579 329.485, 566.597 327.582, 559 329.049 M 749.543 331.931 C 748.521 333.584, 750.648 333.979, 752.603 332.500 C 754.438 331.111, 754.428 331.063, 752.309 331.032 C 751.104 331.014, 749.859 331.419, 749.543 331.931 M 825.648 374.686 C 825.270 375.063, 822.224 375.694, 818.878 376.089 C 811.794 376.924, 809.817 378.246, 812.154 380.583 C 813.485 381.913, 814.390 381.973, 818.112 380.978 C 820.525 380.333, 823.082 379.328, 823.792 378.745 C 824.709 377.993, 825.421 378.021, 826.242 378.842 C 826.879 379.479, 828.830 380, 830.578 380 C 832.326 380, 835.373 380.676, 837.349 381.501 C 841.628 383.289, 851.876 392.565, 853.092 395.750 C 853.564 396.988, 854.687 398, 855.587 398 C 856.933 398, 857.099 397.342, 856.526 394.284 C 855.338 387.957, 844.608 377.521, 838.198 376.458 C 836.164 376.121, 833.195 375.430, 831.601 374.923 C 828.145 373.823, 826.573 373.760, 825.648 374.686 M 510.204 383.678 C 507.988 384.566, 503.430 389.332, 501.147 393.147 C 498.841 397, 497.810 403.813, 499.500 404.027 C 500.598 404.167, 501.228 403.138, 503.048 398.227 C 503.716 396.427, 506.678 392.499, 509.631 389.499 C 512.584 386.498, 515 383.808, 515 383.521 C 515 382.876, 511.955 382.975, 510.204 383.678 M 659.946 398.631 C 646.732 412.555, 624.222 418.379, 609.570 411.664 C 606.308 410.169, 601.641 407.308, 599.197 405.305 C 594.517 401.471, 592.845 401.509, 590.567 405.504 C 589.980 406.533, 588.343 408.388, 586.928 409.626 C 585.514 410.864, 583.156 413.611, 581.688 415.729 C 577.900 421.196, 568.133 426.061, 560.375 426.347 C 557.144 426.466, 553.992 426.879, 553.371 427.266 C 552.751 427.652, 552.054 430.574, 551.824 433.760 C 551.344 440.389, 547.122 447.633, 541.961 450.682 C 538.532 452.707, 537.343 456.312, 537.110 465.379 C 537.026 468.613, 536.661 471.739, 536.298 472.326 C 535.935 472.914, 535.754 475.580, 535.896 478.252 C 536.038 480.923, 535.745 483.647, 535.245 484.305 C 532.704 487.645, 530.061 519.862, 532.061 523.099 C 532.605 523.979, 534.073 523.478, 537.396 521.276 C 543.316 517.355, 557.412 514.672, 572.500 514.593 C 586.011 514.522, 597.457 517.302, 606.302 522.803 C 614.091 527.647, 614.294 527.843, 620.393 536.460 C 621.600 538.165, 622.128 538.263, 624.438 537.210 C 625.899 536.545, 628.198 536, 629.547 536 C 630.896 536, 632 535.550, 632 535 C 632 534.437, 634.814 534, 638.441 534 C 641.984 534, 645.160 534.450, 645.500 535 C 645.840 535.550, 647.014 536, 648.109 536 C 649.204 536, 651.398 536.672, 652.986 537.493 C 656.898 539.516, 658.850 538.515, 661.062 533.356 C 662.089 530.960, 663.565 529, 664.342 529 C 665.119 529, 666.338 528.297, 667.051 527.438 C 670.019 523.863, 679.020 518.961, 685.558 517.360 C 700.268 513.759, 733.020 515.686, 742.500 520.711 C 744.150 521.586, 746.850 522.983, 748.500 523.816 C 751.968 525.567, 754.693 528.163, 757.879 532.750 C 759.538 535.139, 760.898 536, 763.009 536 C 764.589 536, 766.160 535.550, 766.500 535 C 767.407 533.532, 790.566 533.712, 792.958 535.206 C 794.548 536.199, 795.251 536.083, 796.944 534.551 C 799.622 532.127, 799.539 530.448, 796.593 527.502 C 795.270 526.179, 793.593 523.387, 792.868 521.298 C 791.222 516.558, 791.246 500.782, 792.908 495.766 C 794.539 490.840, 793.781 489.002, 788.878 486 C 783.811 482.897, 777.372 474.978, 776.442 470.707 C 776.058 468.943, 775.127 466.612, 774.372 465.527 C 772.165 462.354, 772.587 451.405, 775.072 447.384 C 777.648 443.215, 777.356 439.358, 774.500 439.831 C 773.400 440.014, 771.050 440.399, 769.277 440.688 C 765.362 441.325, 757.405 439.511, 750.264 436.353 C 742.270 432.818, 730.825 420.572, 728.858 413.449 C 727.817 409.676, 724.201 403, 723.199 403 C 722.867 403, 721.224 404.290, 719.548 405.866 C 713.565 411.492, 701.509 413.742, 690.044 411.374 C 680.460 409.394, 678.298 408.220, 670.892 400.973 C 667.534 397.688, 664.473 395, 664.090 395 C 663.706 395, 661.842 396.634, 659.946 398.631 M 567 486.971 C 557.939 489.132, 551.897 492.372, 549.662 496.266 C 545.686 503.193, 549.518 510, 557.393 510 C 559.862 510, 562.148 509.570, 562.473 509.044 C 562.798 508.518, 563.679 508.323, 564.431 508.612 C 565.183 508.900, 566.095 508.656, 566.458 508.068 C 567.324 506.666, 582.671 506.658, 583.536 508.059 C 583.896 508.642, 585.161 508.993, 586.346 508.840 C 587.530 508.687, 589.073 508.919, 589.774 509.355 C 591.833 510.637, 596.368 509.146, 600.321 505.887 C 605.570 501.561, 605.515 496.886, 600.156 491.652 C 593.324 484.981, 582.026 483.386, 567 486.971 M 694.657 487.151 C 690.238 487.996, 684.551 491.032, 682.799 493.480 C 681.035 495.945, 680.901 501.988, 682.533 505.427 C 683.460 507.383, 684.620 508.735, 685.110 508.432 C 685.599 508.130, 686 508.359, 686 508.941 C 686 510.126, 698.222 510.445, 699.376 509.291 C 699.766 508.901, 701.820 508.707, 703.941 508.860 C 706.061 509.013, 708.094 508.657, 708.457 508.069 C 709.307 506.694, 713.684 506.679, 714.530 508.048 C 714.886 508.624, 715.925 509.005, 716.839 508.894 C 717.752 508.783, 719.175 508.947, 720 509.258 C 724.855 511.089, 728.681 512, 731.514 512 C 738.645 512, 743.563 503.357, 739.122 498.630 C 737.955 497.387, 737 495.816, 737 495.137 C 737 494.459, 735.763 493.361, 734.250 492.698 C 732.737 492.035, 730.360 490.719, 728.966 489.773 C 724.173 486.520, 705.435 485.088, 694.657 487.151 M 549.373 535.845 C 544.535 539.349, 537 548.206, 537 550.389 C 537 551.275, 536.663 552, 536.250 551.999 C 535.087 551.998, 535.565 558.965, 536.814 560.214 C 537.630 561.030, 538.221 560.550, 539.032 558.413 C 541.495 551.931, 552.047 539, 554.873 539 C 555.575 539, 558 534.698, 558 533.453 C 558 531.963, 552.706 533.430, 549.373 535.845 M 683.208 539.930 C 677.282 544.614, 674.642 548.125, 672.569 554.078 C 670.537 559.912, 670.604 560.695, 673.118 560.510 C 674.628 560.398, 675.622 559.226, 676.581 556.427 C 677.320 554.267, 678.842 551.753, 679.962 550.840 C 681.083 549.927, 682.006 548.802, 682.012 548.340 C 682.036 546.781, 689.907 539, 691.460 539 C 692.307 539, 693 538.325, 693 537.500 C 693 534.744, 688.291 535.912, 683.208 539.930 M 510.324 546.250 C 509.888 546.938, 509.505 547.725, 509.473 548 C 509.442 548.275, 508.422 550.695, 507.208 553.377 C 503.319 561.968, 504.290 578.818, 509.305 589.748 C 509.872 590.985, 510.057 592.276, 509.716 592.618 C 508.857 593.476, 511.781 596.253, 512.850 595.593 C 513.325 595.299, 513.980 592.819, 514.304 590.083 C 514.628 587.346, 515.647 583.650, 516.567 581.870 C 517.882 579.328, 518.077 577.435, 517.474 573.066 C 516.849 568.537, 516.180 556.354, 516.028 546.750 C 515.995 544.679, 511.568 544.291, 510.324 546.250 M 833.525 549.494 C 826.799 553.039, 818 566.584, 818 573.394 C 818 574.572, 816.875 577.191, 815.500 579.215 C 812.577 583.517, 812.418 585.182, 814.611 588.529 C 817.007 592.186, 816.272 611.937, 813.631 614.855 C 811.835 616.840, 811.844 616.972, 813.960 619.944 C 816.576 623.618, 819.339 624.428, 826.902 623.743 C 839.417 622.608, 854.346 610.315, 856.875 599.063 C 857.394 596.750, 858.476 594.102, 859.279 593.178 C 860.082 592.255, 860.549 590.979, 860.317 590.342 C 860.084 589.705, 860.368 588.890, 860.947 588.533 C 861.589 588.136, 862 583.245, 862 576.018 C 862 565.037, 861.825 563.943, 859.652 561.327 C 858.361 559.772, 856.673 557.205, 855.902 555.623 C 854.609 552.968, 850.379 550.046, 845.500 548.435 C 841.591 547.144, 837.257 547.527, 833.525 549.494 M 788 552.673 C 779.963 553.324, 765.616 555.984, 764.586 557.014 C 764.034 557.566, 763.484 560.743, 763.363 564.074 C 763.243 567.405, 762.474 571.154, 761.654 572.406 C 760.834 573.657, 759.665 576.532, 759.055 578.795 C 758.446 581.058, 756.834 584.232, 755.474 585.849 C 754.113 587.466, 753 589.245, 753 589.803 C 753 592.026, 743.559 602.221, 738.507 605.452 C 731.595 609.874, 724.941 613.081, 723.949 612.469 C 723.521 612.204, 723.004 612.489, 722.799 613.102 C 722.228 614.816, 697.283 615.537, 693.500 613.948 C 691.850 613.255, 690.050 612.637, 689.500 612.574 C 686.756 612.261, 673.240 604.524, 670.488 601.691 C 666.437 597.520, 660 588.162, 660 586.445 C 660 585.713, 659.149 583.626, 658.109 581.807 C 657.069 579.988, 655.634 576.025, 654.921 573 C 654.207 569.975, 653.220 566.957, 652.726 566.294 C 652.232 565.630, 652.099 564.649, 652.430 564.113 C 652.762 563.577, 652.575 562.856, 652.016 562.510 C 651.457 562.165, 651 561.078, 651 560.096 C 651 556.284, 647.399 554.635, 638.103 554.191 C 629.913 553.799, 629.142 553.932, 627.146 556.073 C 625.938 557.370, 624.990 559.715, 624.978 561.439 C 624.966 563.122, 624.140 566.300, 623.143 568.500 C 622.145 570.700, 621.027 574.397, 620.658 576.715 C 620.289 579.033, 618.865 582.583, 617.494 584.604 C 616.122 586.625, 615 588.920, 615 589.704 C 615 590.488, 613.674 592.245, 612.053 593.608 C 610.433 594.972, 608.825 596.975, 608.481 598.058 C 608.137 599.142, 607.506 599.813, 607.079 599.549 C 606.651 599.284, 605.767 600.066, 605.114 601.286 C 603.693 603.943, 592.110 609.639, 586.211 610.582 C 583.895 610.953, 582 611.683, 582 612.204 C 582 612.726, 580.531 613.027, 578.736 612.872 C 576.940 612.717, 574.907 612.939, 574.218 613.365 C 572.816 614.232, 562.055 613.167, 560.500 612.008 C 559.950 611.597, 557.025 610.704, 554 610.022 C 547.617 608.584, 542.277 605.360, 536.118 599.228 C 533.329 596.452, 531.387 595.213, 530.779 595.821 C 530.239 596.361, 529.970 601.880, 530.161 608.506 C 530.480 619.547, 530.640 620.331, 532.878 621.868 C 538.265 625.564, 541 628.876, 541 631.701 C 541 634.895, 543.648 639.335, 545.040 638.475 C 546.534 637.552, 550.923 641.027, 554.105 645.652 C 556.567 649.231, 557.654 650, 560.250 650 C 562.359 650, 564.415 650.958, 566.452 652.890 C 570.679 656.897, 573.209 657.496, 574.846 654.875 C 575.792 653.361, 575.858 652.458, 575.082 651.682 C 573.796 650.396, 573.619 644, 574.869 644 C 575.347 644, 575.995 642.416, 576.310 640.480 C 577.801 631.289, 596.529 614.840, 603.507 616.591 C 604.645 616.877, 607.809 616.110, 610.538 614.887 C 613.267 613.664, 615.725 612.620, 616 612.566 C 616.275 612.513, 617.063 612.112, 617.750 611.676 C 618.438 611.239, 619 611.316, 619 611.847 C 619 612.378, 619.902 612.577, 621.005 612.288 C 622.108 612, 623.571 612.196, 624.255 612.724 C 624.940 613.252, 627.424 614.431, 629.776 615.344 C 633.631 616.841, 634.407 616.857, 637.648 615.502 C 639.626 614.676, 642.089 614, 643.122 614 C 644.155 614, 645 613.550, 645 613 C 645 611.344, 651.358 611.873, 655.562 613.879 C 657.728 614.912, 663.100 616.086, 667.500 616.487 C 679.466 617.578, 684.900 620.011, 692.487 627.673 C 696.035 631.256, 699.493 635.721, 700.170 637.594 C 700.848 639.467, 701.761 641, 702.201 641 C 702.640 641, 703 641.675, 703 642.500 C 703 643.325, 703.478 644, 704.063 644 C 704.647 644, 705.028 644.788, 704.909 645.750 C 704.790 646.712, 704.972 648.175, 705.314 649 C 705.656 649.825, 706.063 652.525, 706.218 655 C 706.568 660.581, 709.150 661.444, 713.484 657.427 C 716.106 654.997, 716.832 654.822, 721.850 655.412 C 727.044 656.023, 727.521 655.887, 730.562 652.940 C 733.244 650.340, 734.585 649.815, 738.639 649.777 C 743.333 649.733, 743.723 649.495, 750 642.849 C 754.993 637.562, 757.539 635.671, 760.979 634.695 C 764.849 633.597, 765.596 632.939, 766.479 629.853 C 767.734 625.464, 769.407 623.400, 774.116 620.427 C 777.225 618.464, 782.414 610.608, 782.482 607.759 C 782.492 607.352, 783.737 605.871, 785.250 604.469 C 787.044 602.806, 788 600.901, 788 598.989 C 788 597.378, 789.350 593.403, 791 590.156 C 792.650 586.909, 794 583.854, 794 583.367 C 794 582.880, 794.788 581.989, 795.750 581.387 C 797.280 580.430, 797.500 578.547, 797.500 566.396 L 797.500 552.500 795 552.404 C 793.625 552.352, 790.475 552.473, 788 552.673 M 601.750 646.220 C 599.688 647.415, 598 648.925, 598 649.574 C 598 650.224, 597.325 651.315, 596.500 652 C 595.402 652.911, 595.007 655.289, 595.025 660.872 C 595.048 667.989, 595.283 668.818, 598.533 673.247 C 600.448 675.858, 602.350 677.926, 602.758 677.843 C 603.166 677.760, 606.577 679.133, 610.338 680.895 C 615.834 683.471, 617.462 683.862, 618.634 682.889 C 621.004 680.922, 623.660 676.699, 624.367 673.774 C 624.965 671.302, 624.582 670.808, 620.263 668.485 C 606.519 661.092, 602.909 655.945, 606.541 648.921 C 607.972 646.153, 607.816 643.969, 606.191 644.023 C 605.811 644.036, 603.813 645.024, 601.750 646.220 M 630.500 645.657 C 624.122 646.257, 622 646.942, 622 648.402 C 622 650.210, 625.439 651.190, 631.148 651.009 C 633.705 650.929, 636.094 651.343, 636.458 651.931 C 637.325 653.334, 648.685 653.318, 649.554 651.913 C 649.923 651.315, 650.962 651.016, 651.863 651.250 C 653.760 651.741, 659.175 648.976, 659.761 647.218 C 660.052 646.344, 658.046 646.086, 652.330 646.261 C 648.023 646.392, 642.250 646.226, 639.500 645.890 C 636.750 645.555, 632.700 645.450, 630.500 645.657 M 673.639 646.695 C 673.287 647.046, 673 649.272, 673 651.642 C 673 655.309, 672.466 656.439, 669.419 659.226 C 664.507 663.717, 658.022 668, 656.133 668 C 653.327 668, 646 671.240, 646 672.481 C 646 673.146, 646.903 674.508, 648.007 675.507 C 650.429 677.698, 653.162 682.930, 652.469 684.049 C 651.613 685.436, 655.821 686.166, 657.987 685.007 C 659.121 684.400, 662.222 684.003, 664.879 684.124 C 670.200 684.367, 672.835 682.949, 679 676.529 C 682.498 672.885, 682.500 672.877, 682.452 663.576 C 682.408 654.861, 682.225 654.054, 679.578 650.885 C 676.367 647.040, 674.565 645.768, 673.639 646.695 M 309.517 658.758 C 299.401 659.048, 298.329 659.269, 295.940 661.557 C 293.439 663.953, 293.215 663.988, 289.705 662.521 C 281.765 659.204, 278.373 662.136, 279.521 671.324 C 279.931 674.605, 279.807 677.001, 279.207 677.372 C 278.211 677.988, 267 664.936, 267 663.160 C 267 660.877, 259.426 660.205, 256.741 662.250 C 254.763 663.757, 254.580 666.053, 254.852 686 C 255.079 702.638, 255.506 704.172, 260.235 705.350 C 264.924 706.517, 267 703.358, 267 695.059 C 267 687.116, 268.379 685.269, 270.506 690.361 C 271.312 692.289, 272.978 694.571, 274.208 695.433 C 275.438 696.295, 276.050 697, 275.567 697 C 275.084 697, 275.884 698.027, 277.344 699.282 C 278.805 700.537, 280 702.064, 280 702.675 C 280 705.478, 286.510 705.716, 289.994 703.040 C 292.427 701.170, 292.503 700.717, 293.110 684.312 C 293.453 675.065, 293.793 667.362, 293.867 667.194 C 293.940 667.026, 295.020 668.074, 296.266 669.523 C 297.512 670.971, 300.100 672.476, 302.016 672.867 L 305.500 673.576 306.003 688.038 C 306.280 695.992, 306.869 703.063, 307.312 703.750 C 308.617 705.774, 314.373 705.233, 316.937 702.844 C 319.183 700.752, 319.237 700.296, 318.793 687.216 L 318.336 673.743 322.864 670.871 C 329.545 666.634, 330.980 666.962, 331.092 672.750 C 331.418 689.649, 332.198 698.616, 333.600 701.569 C 334.955 704.425, 335.775 704.919, 340.167 705.523 C 342.927 705.903, 348.165 705.894, 351.807 705.504 C 358.934 704.741, 360.924 703.325, 360.953 699 C 360.982 694.556, 359.591 693.599, 352.813 693.397 C 349.341 693.294, 346.131 693.163, 345.680 693.105 C 345.230 693.047, 345.005 691.987, 345.180 690.750 C 345.455 688.819, 346.259 688.424, 350.858 687.962 C 356.387 687.407, 359 685.454, 359 681.877 C 359 679.105, 353.729 676, 349.022 676 C 345.592 676, 344.912 675.690, 345.187 674.250 C 345.444 672.897, 346.845 672.382, 351.365 671.980 C 355.904 671.575, 357.633 670.936, 359.105 669.119 C 364.721 662.183, 357.629 657.353, 343.716 658.638 C 336.707 659.286, 332 661.699, 332 664.644 C 332 665.565, 330.702 664.767, 328.632 662.571 C 326.779 660.607, 324.791 659, 324.214 659 C 323.636 659, 322.564 658.875, 321.832 658.722 C 321.099 658.569, 315.558 658.585, 309.517 658.758 M 408.926 660.074 C 406.943 662.057, 406.866 663.019, 407.176 681.923 C 407.420 696.832, 407.838 702.104, 408.872 703.349 C 409.947 704.641, 412.052 705, 418.563 705 C 423.139 705, 427.165 704.543, 427.510 703.984 C 427.856 703.425, 428.546 703.220, 429.045 703.528 C 429.544 703.836, 432.366 701.706, 435.318 698.794 C 440.288 693.891, 440.779 692.978, 441.967 686.437 C 444.197 674.159, 439.917 665.002, 429.705 660.201 C 423.190 657.139, 411.930 657.070, 408.926 660.074 M 228.230 660.048 C 223.355 661.103, 217.656 665.489, 214.985 670.240 C 211.909 675.714, 210.943 689.075, 213.299 693.575 C 216.353 699.411, 221.901 704.778, 226.496 706.344 C 230.570 707.732, 231.448 707.726, 235.685 706.282 C 241.167 704.414, 245.244 701.069, 248.823 695.500 C 251.089 691.976, 251.390 690.470, 251.360 682.842 C 251.334 676.126, 250.953 673.810, 249.660 672.517 C 248.743 671.600, 246.633 668.873, 244.970 666.456 C 242.616 663.035, 241.012 661.824, 237.724 660.982 C 235.401 660.388, 233.050 659.775, 232.500 659.621 C 231.950 659.466, 230.029 659.659, 228.230 660.048 M 391.544 661.954 C 388.914 664.699, 388.760 665.300, 389.366 670.454 C 389.753 673.752, 389.632 676, 389.066 676 C 388.543 676, 385.055 672.400, 381.315 668 C 375.484 661.140, 374.068 660, 371.373 660 C 369.063 660, 367.736 660.729, 366.365 662.750 C 364.731 665.159, 364.500 667.549, 364.500 682.043 C 364.500 701.700, 365.283 704, 371.978 704 C 375.634 704, 375.948 703.772, 376.459 700.750 C 376.761 698.962, 377.119 694.575, 377.254 691 C 377.539 683.458, 379.686 682.043, 381.668 688.091 C 383.912 694.941, 392.461 705, 396.039 705 C 396.915 705, 398.615 703.251, 399.816 701.114 C 401.803 697.578, 402 695.815, 402 681.564 C 402 665.303, 401.114 661.025, 397.455 659.621 C 394.939 658.656, 394.561 658.805, 391.544 661.954 M 150.255 661.117 C 146.674 662.152, 144.248 665.165, 143.910 669 C 143.788 670.375, 143.759 678.278, 143.844 686.561 C 143.985 700.214, 144.191 701.828, 146.039 703.811 C 148.265 706.201, 152.879 706.721, 154.800 704.800 C 155.460 704.140, 156 701.860, 156 699.734 C 156 694.578, 157.511 692, 160.535 692 C 161.891 692, 163 691.523, 163 690.941 C 163 690.359, 163.493 690.187, 164.095 690.559 C 164.698 690.931, 166.273 690.657, 167.595 689.949 C 169.380 688.994, 170 687.821, 170 685.402 C 170 681.107, 167.724 679, 163.084 679 C 160.576 679, 158.701 678.327, 157.494 676.994 C 155.138 674.390, 155.845 673.822, 162.590 672.907 C 165.664 672.490, 169.060 671.350, 170.138 670.375 C 172.901 667.874, 172.284 662.940, 169 661.288 C 166.122 659.839, 155.030 659.738, 150.255 661.117 M 184 660.698 C 182.625 660.917, 180.375 661.949, 179 662.992 L 176.500 664.888 176.500 684.025 C 176.500 701.815, 176.637 703.262, 178.441 704.581 C 182.814 707.778, 187.986 704.990, 188.015 699.421 C 188.051 692.650, 192.652 692.438, 196.027 699.052 C 198.039 702.997, 202.278 706, 205.835 706 C 207.946 706, 211.522 701.440, 210.100 700.562 C 209.617 700.263, 208.919 698.813, 208.549 697.338 C 208.179 695.864, 207.004 693.549, 205.938 692.194 C 203.420 688.992, 203.478 685.782, 206.099 683.410 C 207.915 681.767, 208.148 680.621, 207.825 674.904 C 207.494 669.042, 207.089 667.935, 204.236 665.082 C 199.648 660.494, 193.560 659.175, 184 660.698 M 634.750 669.701 C 631.279 670.585, 633.674 673, 638.023 673 C 639.718 673, 641.688 671.298, 640.850 670.558 C 640 669.807, 636.348 669.294, 634.750 669.701 M 228.991 673.199 C 225.964 674.319, 225.035 675.732, 225.015 679.250 C 225.007 680.763, 224.625 682, 224.167 682 C 223.708 682, 223.333 682.675, 223.333 683.500 C 223.333 684.325, 223.708 685, 224.167 685 C 224.625 685, 225 686.324, 225 687.943 C 225 691.107, 228.009 694, 231.299 694 C 232.319 694, 234.469 692.685, 236.077 691.077 C 238.519 688.635, 239 687.341, 239 683.212 C 239 675.518, 234.605 671.122, 228.991 673.199 M 419.842 673.750 C 418.320 675.563, 418.230 676.455, 419.309 679 C 419.659 679.825, 420.070 682.971, 420.223 685.991 C 420.567 692.810, 422.356 693.465, 426.339 688.231 C 428.714 685.110, 429.102 683.798, 428.708 680.209 C 427.939 673.211, 423.194 669.754, 419.842 673.750 M 188 675.971 C 188 679.621, 190.036 680.760, 193.632 679.122 C 195.415 678.309, 196.045 677.335, 195.818 675.740 C 195.563 673.944, 194.757 673.438, 191.750 673.190 C 188.158 672.892, 188 673.010, 188 675.971 M 787.731 686.207 C 784.860 686.969, 783.380 688.202, 781.516 691.383 C 779.124 695.463, 779.081 695.921, 779.602 711.529 C 780.139 727.608, 780.541 729.398, 784.503 733.360 C 786.764 735.621, 802.148 735.731, 804 733.500 C 804.685 732.675, 805.880 732, 806.656 732 C 807.432 732, 808.997 730.425, 810.133 728.500 C 812.621 724.283, 813.746 724.095, 814.619 727.750 C 815.616 731.923, 816.902 733.001, 820.872 732.990 C 824.153 732.981, 824.660 732.598, 826.176 728.990 L 827.851 725 833.869 725 C 839.399 725, 840.021 725.227, 841.540 727.799 C 843.605 731.294, 848.640 733.714, 850.900 732.298 C 853.370 730.750, 853.444 723.200, 851.048 717.122 C 849.922 714.264, 849 710.844, 849 709.522 C 849 708.200, 848.543 706.835, 847.984 706.490 C 847.425 706.144, 847.216 705.460, 847.520 704.968 C 847.824 704.477, 846.917 702.245, 845.505 700.008 C 844.094 697.772, 842.676 694.628, 842.354 693.022 C 841.633 689.417, 839.464 687.456, 835.336 686.679 C 832.520 686.150, 831.794 686.547, 828.736 690.292 C 826.847 692.606, 824.996 696.142, 824.624 698.149 C 824.252 700.155, 823.046 702.943, 821.945 704.343 C 820.788 705.813, 819.636 709.337, 819.218 712.681 C 817.644 725.284, 811.373 716.751, 811.842 702.644 L 812.103 694.788 808 691 C 802.199 685.644, 795.669 684.100, 787.731 686.207 M 870.640 686.440 C 863.953 688.238, 857.100 695.080, 855.932 701.124 C 853.723 712.561, 855.322 722.673, 860.121 727.625 C 867.753 735.499, 876.710 737.166, 883.798 732.031 C 890.208 727.388, 891.786 722.428, 888.246 718.055 L 886.491 715.888 880.784 718.934 C 874.825 722.114, 871.959 722.066, 869.199 718.740 C 867.652 716.876, 867.408 706.355, 868.830 702.804 C 870.652 698.253, 879.268 698.003, 882.914 702.396 C 884.751 704.610, 886.604 704.403, 888.443 701.777 C 891.137 697.931, 890.401 694.166, 886.118 689.882 C 883.982 687.747, 881.319 686, 880.199 686 C 879.080 686, 877.564 685.805, 876.832 685.567 C 876.099 685.329, 873.313 685.722, 870.640 686.440 M 1015.157 685.984 C 1013.319 686.425, 1011.294 687.306, 1010.657 687.943 C 1009.856 688.744, 1009.500 695.418, 1009.500 709.638 C 1009.500 730.016, 1009.518 730.192, 1011.861 732.088 C 1014.785 734.456, 1020.954 734.585, 1029.193 732.450 C 1033.753 731.268, 1036.067 729.962, 1038.927 726.956 C 1040.991 724.787, 1042.451 722.784, 1042.173 722.506 C 1041.894 722.228, 1042.156 722, 1042.753 722 C 1044.750 722, 1047.293 712.120, 1046.663 706.805 C 1046.002 701.223, 1042.481 694.221, 1039.515 692.591 C 1038.424 691.991, 1036.945 690.725, 1036.229 689.779 C 1034 686.832, 1021.221 684.531, 1015.157 685.984 M 938.196 686.713 C 936.929 686.955, 935.494 688.200, 935.008 689.479 C 934.521 690.759, 933.700 692.067, 933.183 692.387 C 931.897 693.181, 930.640 714.745, 931.510 721.070 C 932.082 725.229, 933.004 727.013, 936.435 730.594 C 940.653 734.996, 940.663 735, 947.795 735 C 959.744 735, 965.502 730.524, 961.856 724.069 C 960.544 721.745, 959.817 721.500, 954.242 721.500 C 949.720 721.500, 947.614 721.037, 946.335 719.760 C 944.676 718.105, 944.687 717.947, 946.545 716.542 C 947.620 715.729, 950.568 715.049, 953.095 715.032 C 961.276 714.975, 963.327 709.506, 956.888 704.920 C 954.900 703.505, 952.898 702.935, 950.928 703.224 C 947.838 703.677, 945.333 701.889, 946.473 700.044 C 946.828 699.470, 949.095 699, 951.512 699 C 957.987 699, 960.843 697.355, 961.627 693.173 C 962.685 687.538, 959.896 685.967, 949.139 686.136 C 944.388 686.211, 939.463 686.471, 938.196 686.713 M 994.372 688.537 C 991.897 691.013, 991.793 691.518, 992.430 697.985 C 993.557 709.423, 991.042 708.489, 981.694 694 C 977.914 688.141, 977.137 687.470, 973.815 687.194 C 967.953 686.706, 967.500 688.383, 967.500 710.597 C 967.500 731.359, 967.896 733, 972.900 733 C 974.360 733, 976.615 732.258, 977.910 731.350 C 980.104 729.814, 980.226 729.234, 979.693 722.872 C 979.378 719.117, 979.504 715.807, 979.972 715.517 C 980.830 714.987, 985.024 719.934, 988.435 725.500 C 990.942 729.590, 995.054 732.921, 997.651 732.964 C 1000.564 733.013, 1004.220 726.770, 1003.842 722.390 C 1003.687 720.585, 1003.884 718.783, 1004.280 718.387 C 1005.235 717.432, 1005.209 711.999, 1004.250 712.002 C 1003.837 712.003, 1003.643 707.759, 1003.817 702.569 C 1004.072 694.975, 1003.801 692.625, 1002.425 690.527 C 999.511 686.078, 997.362 685.547, 994.372 688.537 M 894.996 689.510 C 893.604 693.172, 893.708 726.266, 895.122 729.368 C 896.249 731.841, 898.599 732.961, 902.715 732.986 C 905.562 733.004, 907.364 729.630, 906.698 725.527 C 905.923 720.751, 907.013 719.661, 910.719 721.510 C 912.642 722.469, 914.369 724.465, 915.310 726.818 C 917.261 731.692, 922.950 735.116, 925.535 732.971 C 929.513 729.670, 928.981 724.284, 924.092 718.358 C 916.534 709.198, 916.446 708.437, 922.250 702.362 C 927.036 697.352, 928.573 692.263, 926.286 688.998 C 923.874 685.554, 917.353 687.104, 914.889 691.707 C 913.292 694.692, 907.993 699.327, 907.146 698.480 C 906.815 698.148, 906.309 695.542, 906.022 692.689 L 905.500 687.500 900.746 687.195 C 896.411 686.917, 895.905 687.121, 894.996 689.510 M 793.110 699.367 C 791.894 700.833, 793.825 703.210, 796.557 703.611 C 798.848 703.948, 800.452 701.249, 799 699.500 C 797.447 697.628, 794.607 697.564, 793.110 699.367 M 1021.880 700.250 C 1021.474 704.476, 1021.360 716.784, 1021.713 718.250 C 1022.343 720.862, 1026.675 720.416, 1029.661 717.430 C 1031.968 715.123, 1032.187 714.259, 1031.804 708.968 C 1031.526 705.119, 1030.738 702.368, 1029.534 701.037 C 1027.511 698.802, 1022.073 698.242, 1021.880 700.250 M 832 710 C 832 711.506, 832.522 712.046, 833.750 711.810 C 834.712 711.624, 835.500 710.810, 835.500 710 C 835.500 709.190, 834.712 708.376, 833.750 708.190 C 832.522 707.954, 832 708.494, 832 710 M 794.200 716.200 C 792.367 718.033, 792.755 719.531, 795.433 720.964 C 799.806 723.305, 804.165 719.353, 800.375 716.484 C 798.057 714.728, 795.777 714.623, 794.200 716.200 M 306.400 751.428 C 303.782 752.567, 302.545 753.974, 301.500 757 C 301.405 757.275, 301.064 758.175, 300.742 759 C 298.361 765.101, 289.998 795.658, 289.999 798.250 C 290 799.212, 289.523 800, 288.941 800 C 288.359 800, 288.160 800.450, 288.500 801 C 288.840 801.550, 288.713 802, 288.219 802 C 287.724 802, 286.748 804.587, 286.050 807.750 C 285.352 810.913, 283.886 816.425, 282.791 820 C 281.697 823.575, 279.948 829.826, 278.905 833.892 C 277.862 837.958, 276.530 841.862, 275.944 842.568 C 275.358 843.274, 274.977 844.448, 275.097 845.176 C 275.322 846.541, 275.184 847.064, 273.037 853 C 269.699 862.229, 270.441 866.476, 275.643 867.912 C 280.647 869.293, 285.677 867.184, 286.603 863.316 C 286.973 861.767, 287.545 860.050, 287.873 859.500 C 288.201 858.950, 288.514 858.275, 288.570 858 C 288.625 857.725, 289.634 855.475, 290.813 853 C 291.992 850.525, 292.968 846.925, 292.982 845 C 292.997 843.075, 294.122 838.350, 295.483 834.500 C 296.844 830.650, 297.967 826.698, 297.979 825.718 C 297.991 824.738, 298.747 822.263, 299.660 820.218 C 300.572 818.173, 301.360 816.200, 301.410 815.833 C 301.459 815.467, 301.837 814.829, 302.250 814.417 C 302.663 814.004, 303.015 812.504, 303.033 811.083 C 303.051 809.663, 303.980 806.025, 305.099 803 C 306.217 799.975, 307.576 795.025, 308.119 792 C 308.661 788.975, 309.744 785.217, 310.526 783.649 C 311.308 782.081, 312.243 779.156, 312.604 777.149 C 312.965 775.142, 313.679 772.971, 314.191 772.324 C 314.703 771.677, 315.012 770.552, 314.877 769.824 C 314.742 769.096, 315.390 766.758, 316.316 764.628 C 317.242 762.498, 318 760.113, 318 759.328 C 318 756.975, 315.114 752.131, 313.055 751.030 C 310.650 749.742, 310.212 749.768, 306.400 751.428 M 647 752.768 C 647 754.141, 649.546 756.121, 650.318 755.349 C 650.666 755, 651.618 755.268, 652.432 755.943 C 653.246 756.619, 657.012 757.288, 660.800 757.431 C 664.589 757.573, 668.118 757.955, 668.642 758.279 C 670.171 759.224, 672.123 757.485, 671.463 755.765 C 670.834 754.126, 667.534 753.477, 654.250 752.380 C 649.743 752.008, 647 752.155, 647 752.768 M 898 764.966 C 884.845 765.843, 879.102 766.781, 877.096 768.380 C 876.324 768.996, 875.649 769.356, 875.596 769.180 C 875.543 769.004, 874.233 769.341, 872.685 769.930 C 871.137 770.518, 869.187 771, 868.351 771 C 862.901 771, 844.732 780.832, 839.723 786.492 C 837.130 789.421, 833.726 796.747, 834.428 797.884 C 834.761 798.422, 834.575 799.144, 834.016 799.490 C 832.825 800.226, 832.562 877.001, 833.750 876.998 C 834.163 876.997, 834.361 882.686, 834.191 889.639 C 833.996 897.617, 834.272 902.672, 834.941 903.341 C 835.523 903.923, 836 905.386, 836 906.591 C 836 909.510, 845.802 919.242, 851.538 922.018 C 853.992 923.206, 856 924.588, 856 925.089 C 856 925.626, 879.171 926, 912.455 926 L 968.909 926 971.409 923.500 C 972.784 922.125, 974.725 921, 975.722 921 C 977.915 921, 986.064 913.371, 989.636 907.974 L 992.223 904.065 992.062 851.825 C 991.967 820.867, 991.518 799.124, 990.959 798.451 C 990.441 797.827, 990.271 797.062, 990.581 796.752 C 991.529 795.805, 986.320 788.379, 981.274 783.485 C 975.819 778.193, 970.489 775.248, 960.500 772.006 C 956.650 770.756, 952.938 769.289, 952.250 768.744 C 951.563 768.200, 951 768.090, 951 768.500 C 951 768.910, 950.421 768.764, 949.713 768.177 C 946.651 765.636, 916.272 763.749, 898 764.966 M 238.440 768.779 C 236.757 770.276, 229.557 776.411, 222.440 782.413 C 215.323 788.415, 208.552 794.265, 207.393 795.413 C 206.234 796.561, 203.196 799.292, 200.643 801.483 C 194.976 806.347, 193.249 810.647, 195.341 814.689 C 196.863 817.630, 212.147 831.270, 214.531 831.814 C 215.287 831.987, 216.183 833, 216.521 834.065 C 216.859 835.131, 218.117 836.517, 219.318 837.147 C 220.518 837.777, 221.860 838.901, 222.300 839.646 C 222.740 840.391, 223.641 841, 224.303 841 C 224.965 841, 227.890 843.250, 230.804 846 C 233.718 848.750, 236.473 851, 236.928 851 C 237.383 851, 238.315 851.675, 239 852.500 C 240.720 854.573, 246.990 854.348, 249.902 852.109 C 251.950 850.534, 252.213 849.698, 251.684 846.438 C 251.342 844.335, 250.367 842.225, 249.516 841.749 C 248.665 841.273, 247.189 840.083, 246.235 839.105 C 242.145 834.913, 219.296 815.229, 217.246 814.132 C 216.011 813.471, 215 812.465, 215 811.898 C 215 810.326, 220.084 804.003, 221.369 803.978 C 221.991 803.966, 224.750 801.917, 227.500 799.425 C 252.106 777.129, 252.163 777.066, 251.325 772.830 C 249.987 766.060, 243.715 764.089, 238.440 768.779 M 338.724 767.752 C 332.406 774.734, 333.385 777.830, 344.931 787.382 C 349.333 791.024, 354.240 795.241, 355.834 796.752 C 359.292 800.031, 361.407 801.754, 365.752 804.834 C 370.461 808.172, 371.585 810.696, 369.425 813.083 C 368.471 814.137, 367.198 815, 366.598 815 C 365.997 815, 363.438 817.138, 360.911 819.750 C 358.384 822.362, 352.367 827.839, 347.540 831.921 C 338.459 839.599, 335.010 843.932, 335.004 847.673 C 334.999 850.579, 339.674 856, 342.185 856 C 344.209 856, 349.230 852.900, 352 849.941 C 355.490 846.212, 367.858 836, 368.884 836 C 369.498 836, 370 835.419, 370 834.709 C 370 834, 372.507 831.187, 375.571 828.459 C 378.635 825.732, 382.347 822.172, 383.821 820.549 C 385.294 818.925, 387.512 816.542, 388.750 815.253 C 390.142 813.803, 391 811.668, 391 809.656 C 391 805.753, 387.658 802.022, 373.902 790.561 C 368.731 786.252, 363.591 781.776, 362.481 780.614 C 361.370 779.451, 357.182 775.688, 353.174 772.250 C 345.392 765.576, 341.726 764.435, 338.724 767.752 M 902.500 779.620 C 900.850 779.868, 898.518 780.564, 897.317 781.168 C 896.117 781.772, 894.459 782.006, 893.632 781.689 C 892.805 781.372, 891.988 781.522, 891.815 782.022 C 891.642 782.522, 887.401 783.394, 882.391 783.959 C 877.381 784.525, 871.081 785.915, 868.391 787.049 C 858.970 791.018, 855 793.150, 855 794.237 C 855 794.840, 854.702 795.036, 854.339 794.672 C 853.612 793.945, 849 800.246, 849 801.967 C 849 804.077, 853.760 810.530, 856.108 811.604 C 857.424 812.205, 861.086 813.885, 864.247 815.337 C 867.408 816.788, 871.796 818.263, 873.997 818.616 C 876.199 818.968, 878 819.606, 878 820.034 C 878 820.462, 878.902 820.577, 880.005 820.288 C 881.108 820, 882.571 820.216, 883.255 820.767 C 888.898 825.317, 939.885 825.263, 945.774 820.702 C 946.475 820.159, 947.334 820, 947.682 820.349 C 948.031 820.697, 948.807 820.606, 949.408 820.146 C 950.009 819.687, 952.649 818.729, 955.276 818.018 C 957.902 817.307, 960.284 816.350, 960.568 815.890 C 960.852 815.430, 962.774 814.599, 964.840 814.043 C 969.639 812.751, 973.917 808.289, 974.642 803.821 C 975.918 795.954, 960.640 786.424, 942.741 783.920 C 937.933 783.247, 934 782.378, 934 781.987 C 934 781.597, 932.872 781.493, 931.494 781.756 C 930.116 782.020, 928.407 781.752, 927.695 781.162 C 926.316 780.017, 907.514 778.866, 902.500 779.620 M 849.642 825.788 C 849.406 826.180, 849.173 832.575, 849.125 840 L 849.036 853.500 852.531 857.250 C 854.454 859.313, 856.489 861, 857.053 861 C 857.618 861, 859.974 861.969, 862.290 863.153 C 867.572 865.853, 878.544 868.630, 889.228 869.969 C 901.744 871.539, 929.215 871.243, 937.500 869.450 C 941.350 868.617, 947.650 867.315, 951.500 866.558 C 959.415 865.002, 967.483 861.270, 972.544 856.828 L 975.970 853.819 975.745 839.910 L 975.521 826 972.955 826 C 971.543 826, 968.864 827.125, 967 828.500 C 965.136 829.875, 962.505 831, 961.152 831 C 959.800 831, 956.313 832.126, 953.404 833.502 C 946.561 836.739, 934.968 837.962, 911 837.976 C 892.064 837.986, 875.193 836.235, 872.473 833.977 C 871.663 833.305, 871 833.090, 871 833.500 C 871 833.910, 870.438 833.780, 869.750 833.212 C 869.063 832.644, 866.700 831.872, 864.500 831.496 C 862.300 831.120, 859.269 829.946, 857.764 828.887 C 854.267 826.425, 850.194 824.871, 849.642 825.788 M 483.929 827.500 C 483.586 829.899, 483.833 836.921, 484.286 837.653 C 484.600 838.162, 485.136 850.710, 485.476 865.539 C 485.817 880.368, 486.310 893.911, 486.572 895.635 C 487.140 899.381, 489.486 899.623, 492.532 896.250 C 493.649 895.013, 494.894 894, 495.297 894 C 495.701 894, 498.499 892.361, 501.515 890.358 C 506.772 886.869, 507 886.535, 507 882.340 C 507 879.932, 505.875 874.742, 504.500 870.807 C 503.125 866.871, 502 862.615, 502 861.348 C 502 860.081, 500.595 856.447, 498.877 853.273 C 497.159 850.098, 495.792 847.395, 495.839 847.268 C 495.886 847.140, 494.821 844.665, 493.472 841.768 C 492.123 838.870, 491.015 835.913, 491.010 835.197 C 490.991 832.714, 484.233 825.369, 483.929 827.500 M 848.784 874.750 C 848.601 875.163, 848.686 881.291, 848.975 888.368 L 849.500 901.236 853.220 904.448 C 855.266 906.215, 858.730 908.251, 860.918 908.973 C 863.106 909.695, 865.120 910.872, 865.395 911.588 C 865.670 912.304, 867.606 913.201, 869.697 913.582 C 871.789 913.962, 875.750 915.196, 878.500 916.323 C 883.124 918.218, 885.568 918.371, 911 918.366 C 934.870 918.362, 939.094 918.129, 943 916.601 C 945.475 915.634, 949.999 914.474, 953.053 914.025 C 960.469 912.934, 970.479 906.541, 974.119 900.572 C 975.669 898.030, 975.993 895.471, 975.996 885.750 L 976 874 973.552 874 C 972.205 874, 969.889 875.125, 968.405 876.500 C 966.773 878.013, 964.483 879.017, 962.604 879.044 C 960.897 879.068, 957.700 879.787, 955.500 880.641 C 953.300 881.495, 949.025 882.743, 946 883.414 C 942.975 884.085, 939.825 884.933, 939 885.299 C 934.233 887.411, 903.082 888.161, 898 886.286 C 897.175 885.982, 894.790 885.829, 892.699 885.946 C 890.609 886.064, 888.359 885.736, 887.699 885.217 C 887.040 884.699, 883.800 883.997, 880.500 883.659 C 877.200 883.320, 872.133 882.133, 869.239 881.022 C 866.346 879.910, 862.971 878.998, 861.739 878.995 C 860.508 878.992, 857.700 877.881, 855.500 876.526 C 851.369 873.982, 849.362 873.451, 848.784 874.750" stroke="none" fill="#171916" fill-rule="evenodd"/>
</svg>