<svg role="img" aria-labelledby="artwork-title" shape-rendering="geometricPrecision" xmlns="http://www.w3.org/2000/svg" width="1200" height="1200" viewBox="0 0 1200 1200" version="1.1">
	<title id="artwork-title">Mascot connecting an API plug</title>
	<path d="M 845.500 204 C 845.160 204.550, 843.879 205, 842.652 205 C 841.426 205, 838.796 205.829, 836.808 206.843 C 834.820 207.857, 831.163 209.254, 828.682 209.949 C 826.201 210.644, 822.923 212.514, 821.398 214.106 C 819.873 215.698, 818.148 217.005, 817.563 217.012 C 816.978 217.018, 814.279 219.268, 811.565 222.012 C 808.851 224.755, 806.151 227, 805.565 227 C 804.979 227, 802.491 225.165, 800.038 222.922 C 794.951 218.272, 792.051 216.469, 790.250 216.834 C 789.563 216.974, 789 216.698, 789 216.221 C 789 214.224, 779.952 211.040, 771.020 209.895 C 756.966 208.093, 742.815 209.925, 734.054 214.679 C 730.508 216.604, 726.018 219.488, 724.076 221.089 C 722.134 222.690, 719.972 224, 719.272 224 C 718.572 224, 718 224.606, 718 225.347 C 718 226.087, 716.538 228.299, 714.750 230.261 C 708.717 236.884, 705.155 242.018, 704.489 245.050 C 703.578 249.197, 699.929 251.450, 695.752 250.445 C 693.963 250.015, 686.875 249.626, 680 249.581 C 668.678 249.508, 667.170 249.711, 664 251.742 C 662.075 252.976, 658.954 254.704, 657.064 255.584 C 649.894 258.920, 638.022 269.231, 635.285 274.500 C 634.427 276.150, 632.468 279.102, 630.930 281.059 C 629.392 283.017, 627.843 285.942, 627.488 287.559 C 627.132 289.177, 625.684 293.182, 624.270 296.460 C 622.019 301.678, 621.833 302.921, 622.770 306.434 C 623.359 308.641, 623.622 310.802, 623.355 311.235 C 622.451 312.698, 612.447 318.697, 608.960 319.868 C 605.478 321.037, 596 329.113, 596 330.911 C 596 331.442, 594.638 333.367, 592.973 335.188 C 591.308 337.010, 589.461 340.296, 588.869 342.491 C 588.277 344.686, 586.868 347.781, 585.738 349.369 C 584.607 350.956, 583.470 354.457, 583.212 357.149 C 582.953 359.840, 582.350 362.284, 581.871 362.580 C 580.631 363.346, 580.756 385, 582 385 C 582.550 385, 583 386.375, 583 388.055 C 583 391.455, 589.749 403.435, 592.912 405.651 C 594 406.413, 595.886 408.435, 597.104 410.145 C 599.309 413.242, 599.310 413.269, 597.418 416.877 C 596.374 418.870, 595.065 420.831, 594.510 421.235 C 593.954 421.639, 593.855 421.976, 594.289 421.985 C 594.723 421.993, 594.193 422.949, 593.112 424.110 C 588.170 429.415, 587.731 445.973, 592.348 452.950 C 593.763 455.088, 595.205 457.967, 595.551 459.347 C 595.897 460.728, 599.175 464.927, 602.835 468.678 L 609.490 475.500 609.495 486 C 609.499 493.900, 609.911 497.243, 611.159 499.500 C 613.346 503.456, 617 514.189, 617 516.657 C 617 517.730, 615.371 520.158, 613.381 522.054 C 611.390 523.949, 609.136 526.850, 608.372 528.500 C 607.607 530.150, 606.051 532.667, 604.913 534.093 C 602.254 537.425, 598.628 559.788, 599.333 568.500 C 600.465 582.477, 602.817 594.125, 605.254 597.815 C 606.592 599.842, 608.232 603.155, 608.897 605.178 C 609.615 607.358, 613.481 612.446, 618.396 617.678 L 626.685 626.500 627.315 639.870 C 627.902 652.310, 628.131 653.483, 630.603 656.723 C 632.064 658.639, 633.677 662.072, 634.188 664.353 C 634.699 666.634, 635.976 670.300, 637.025 672.500 C 638.075 674.700, 639.416 678.411, 640.005 680.746 C 640.990 684.654, 644.246 689, 646.189 689 C 646.635 689, 647 689.605, 647 690.345 C 647 691.085, 647.958 692.547, 649.130 693.595 C 650.301 694.643, 652.339 697.075, 653.659 699 C 662.795 712.328, 668.630 718.700, 675.637 723 C 678.774 724.925, 682.726 727.862, 684.420 729.526 C 687.723 732.770, 693.196 736.857, 696.479 738.530 C 697.670 739.136, 698.500 740.557, 698.500 741.989 C 698.500 744.150, 697.856 744.547, 692.661 745.588 C 689.449 746.231, 685.849 747.220, 684.661 747.786 C 683.472 748.351, 680.549 749.543, 678.164 750.433 C 675.779 751.324, 671.208 753.900, 668.006 756.158 C 661.194 760.962, 658.345 760.872, 655.113 755.752 C 650.464 748.385, 637.763 738.592, 627 734.075 C 623.975 732.805, 618.800 730.523, 615.500 729.002 C 612.200 727.481, 607.224 725.757, 604.442 725.170 C 597.600 723.727, 510.454 723.431, 506.852 724.839 C 505.395 725.408, 501.510 728.534, 498.217 731.786 C 491.514 738.406, 490 742.578, 490 754.427 C 490 762.685, 488.962 763.566, 479.602 763.251 C 468.995 762.894, 463.284 764.426, 458.008 769.041 L 453.516 772.971 453.161 780.786 C 452.710 790.724, 454.280 794.720, 460.248 798.827 C 464.304 801.617, 465.727 801.966, 476.389 802.784 C 482.820 803.278, 488.533 804.133, 489.084 804.684 C 489.755 805.355, 489.703 809.469, 488.930 817.093 C 488.294 823.367, 488.052 832.581, 488.394 837.569 C 488.992 846.305, 488.924 846.723, 486.543 848.960 C 484.478 850.899, 483.366 851.186, 479.786 850.703 C 475.365 850.107, 465.027 851.824, 461.500 853.741 C 460.400 854.339, 458.158 856.238, 456.517 857.962 C 453.852 860.761, 453.494 861.898, 453.155 868.610 C 452.598 879.625, 454.078 883.770, 460.015 887.835 C 464.777 891.095, 465.092 891.163, 474.068 890.879 C 482.978 890.597, 483.318 890.669, 485.585 893.304 C 487.408 895.424, 487.880 897.060, 487.733 900.760 C 487.624 903.513, 488.537 908.557, 489.911 912.792 C 491.993 919.207, 493.004 920.740, 498.321 925.552 C 501.742 928.648, 505.912 931.423, 507.932 931.948 C 510.098 932.511, 528.589 932.550, 555 932.046 C 591.500 931.351, 598.857 931.441, 600.717 932.610 C 603.822 934.561, 609.307 940.029, 610.500 942.364 C 611.460 944.241, 617.419 948.059, 625.156 951.754 C 629.182 953.677, 637.306 960.835, 638.952 963.911 C 639.529 964.988, 640 968.357, 640 971.399 C 640 976.020, 640.463 977.471, 642.816 980.215 C 646.591 984.618, 651.649 992.318, 652.474 994.918 C 653.140 997.016, 653.286 997.023, 690.321 996.762 L 727.500 996.500 727.818 993.730 C 728.074 991.503, 727.585 990.719, 725.318 989.724 C 720.212 987.482, 713.814 982.640, 712.947 980.362 C 712.479 979.130, 709.784 976.295, 706.958 974.061 C 702.208 970.306, 701.355 970, 695.645 970 C 686.641 970, 679.023 974.317, 678.985 979.441 C 678.976 980.574, 678.568 982.134, 678.077 982.910 C 676.684 985.110, 671.863 982.630, 666.605 977.009 C 659.642 969.565, 659.340 963.948, 665.511 956.723 C 671.208 950.054, 677.268 946.773, 685.238 946.042 C 691.898 945.432, 692.476 945.176, 695.630 941.448 C 699.827 936.488, 699.819 934.502, 695.582 929.500 C 692.253 925.570, 692.084 925.502, 685.847 925.636 C 681.539 925.728, 677.894 926.518, 674.500 928.094 C 671.750 929.371, 669.275 930.453, 669 930.500 C 667.348 930.778, 662.193 934.134, 660.498 936.036 C 659.399 937.268, 656.998 938.911, 655.163 939.688 C 649.856 941.933, 648.730 940.279, 649.158 930.866 C 649.502 923.290, 649.588 923.065, 653.504 919.522 C 660.850 912.876, 671.571 908.593, 686.174 906.472 C 690.299 905.872, 696 900.337, 696 896.930 C 696 894.708, 693.457 890.176, 691.129 888.250 C 689.019 886.505, 678.681 886.688, 674.226 888.550 C 672.186 889.402, 668.586 890.533, 666.226 891.061 C 661.891 892.033, 652.730 897.382, 647.845 901.794 C 644.763 904.578, 638.437 905.245, 636.885 902.950 C 635.304 900.612, 636.685 892.227, 639.208 888.848 C 646.104 879.611, 662.073 869, 669.079 869 C 670.502 869, 671.967 868.700, 672.333 868.333 C 672.700 867.967, 675.860 867.770, 679.356 867.897 C 685.934 868.135, 691.864 865.952, 694.750 862.230 C 697.056 859.255, 696.273 853.504, 693.099 850.106 L 690.198 847 678.349 847.035 C 661 847.087, 650.140 850.091, 641.393 857.260 C 639.802 858.564, 636.756 860.685, 634.624 861.975 C 630.847 864.259, 630.668 864.274, 627.624 862.570 C 623.933 860.503, 618 852.780, 618 850.042 C 618 847.290, 625.463 838.898, 630.282 836.232 C 632.537 834.985, 635.083 833.382, 635.941 832.671 C 636.798 831.960, 641.100 829.605, 645.500 827.439 L 653.500 823.500 682 823.507 L 710.500 823.514 716.720 826.257 C 720.141 827.766, 723.859 829, 724.983 829 C 726.107 829, 727.809 829.429, 728.764 829.953 C 734.870 833.305, 743.832 837, 745.854 837 C 749.215 837, 759.267 843.240, 767.454 850.410 C 777.006 858.776, 782.284 864.621, 792 877.595 C 793.925 880.166, 796.769 883.766, 798.320 885.596 C 799.871 887.426, 801.549 890.405, 802.049 892.216 C 802.549 894.027, 804.285 896.961, 805.906 898.736 C 807.527 900.511, 809.133 902.842, 809.474 903.917 C 809.847 905.093, 811.966 906.534, 814.797 907.539 C 817.384 908.456, 821.075 910.022, 823 911.018 C 824.925 912.014, 828.300 913.153, 830.500 913.548 C 835.050 914.366, 839.656 916.473, 840.160 917.968 C 840.347 918.523, 843.189 919.474, 846.475 920.081 C 849.762 920.688, 853.587 921.974, 854.975 922.939 C 856.364 923.904, 860.650 925.468, 864.500 926.416 C 868.350 927.363, 872.429 929.007, 873.564 930.069 C 874.699 931.130, 878.299 932.484, 881.564 933.077 C 884.829 933.669, 889.300 935.182, 891.500 936.438 C 893.700 937.694, 897.412 938.967, 899.748 939.266 C 902.085 939.565, 906.022 941.151, 908.498 942.791 C 910.974 944.431, 915.138 946.089, 917.750 946.474 C 920.363 946.860, 923.864 948.012, 925.532 949.035 C 927.200 950.057, 930.800 951.391, 933.532 951.998 C 936.264 952.605, 940.075 954.169, 942 955.474 C 943.925 956.778, 947.404 958.346, 949.731 958.956 C 952.058 959.567, 956.783 961.401, 960.231 963.033 C 967.340 966.396, 974.221 966.934, 977.827 964.409 C 979.767 963.050, 980.055 962.075, 979.799 957.720 C 979.510 952.793, 979.319 952.498, 974.094 948.881 C 971.121 946.822, 967.633 944.874, 966.344 944.550 C 965.055 944.227, 964 943.566, 964 943.082 C 964 942.599, 960.513 940.960, 956.250 939.440 C 948.090 936.531, 944.665 933.736, 945.990 931.066 C 946.417 930.205, 947.341 928.270, 948.043 926.767 C 948.745 925.264, 950.224 923.064, 951.328 921.878 C 953.290 919.772, 953.802 919.734, 973.418 920.251 C 990.415 920.698, 994.345 921.097, 999 922.845 C 1002.025 923.981, 1007.837 925.597, 1011.915 926.436 C 1016.109 927.299, 1020.236 928.807, 1021.415 929.909 C 1022.562 930.981, 1025.750 932.394, 1028.500 933.050 C 1031.250 933.706, 1035.075 935.268, 1037 936.521 C 1038.925 937.775, 1041.625 939.130, 1043 939.533 C 1044.375 939.936, 1047.164 941.668, 1049.197 943.383 C 1054.892 948.185, 1058.204 950.559, 1061.750 952.381 C 1063.537 953.300, 1065 954.670, 1065 955.427 C 1065 956.183, 1066.600 957.747, 1068.556 958.900 C 1070.862 960.261, 1072.811 962.579, 1074.101 965.495 C 1076.208 970.258, 1076.132 971.644, 1072.863 988.236 C 1071.261 996.368, 1071.996 997, 1083.063 997 C 1087.914 997, 1092.156 996.557, 1092.491 996.015 C 1092.825 995.474, 1093.421 993.147, 1093.814 990.844 C 1094.460 987.060, 1094.918 986.527, 1098.576 985.308 C 1100.803 984.566, 1104.482 982.055, 1106.753 979.729 C 1110.702 975.684, 1111.015 974.890, 1113.926 961.500 C 1121.361 927.298, 1121.597 872.173, 1114.417 847.043 C 1113.087 842.392, 1112 837.866, 1112 836.986 C 1112 836.106, 1110.426 832.261, 1108.503 828.443 C 1106.580 824.624, 1105.005 820.928, 1105.003 820.228 C 1104.999 818.553, 1097.327 803.320, 1096.108 802.567 C 1095.588 802.245, 1093.548 799.096, 1091.576 795.569 C 1087.082 787.534, 1074.857 773.378, 1064.881 764.659 C 1060.690 760.997, 1056.963 758, 1056.597 758 C 1056.232 758, 1054.331 756.398, 1052.373 754.440 C 1050.415 752.481, 1047.842 750.440, 1046.656 749.902 C 1045.470 749.365, 1041.800 747.158, 1038.500 744.999 C 1031.494 740.414, 1019.948 734, 1018.702 734 C 1018.227 734, 1014.781 732.466, 1011.045 730.591 C 1003.903 727.007, 983.420 720, 980.084 720 C 979.009 720, 976.863 719.475, 975.315 718.834 C 973.767 718.192, 972.275 717.592, 972 717.500 C 971.725 717.408, 970.233 716.808, 968.685 716.166 C 967.137 715.525, 964.154 715, 962.057 715 C 954.891 715, 954.316 710.648, 961.104 707.789 C 963.353 706.841, 965.394 705.208, 965.676 704.131 C 965.956 703.061, 967.027 701.965, 968.057 701.695 C 969.101 701.422, 971.066 698.803, 972.501 695.772 C 973.916 692.783, 976.883 688.350, 979.094 685.919 C 987.837 676.308, 995.380 664.347, 997.163 657.267 C 998.744 650.987, 1001.557 649.365, 1008.300 650.846 C 1011.160 651.474, 1014.400 651.787, 1015.500 651.542 C 1033.720 647.476, 1038.377 645.115, 1050.450 633.819 C 1059.386 625.458, 1062.712 621.143, 1066.642 612.808 C 1067.859 610.228, 1069.770 606.853, 1070.890 605.308 C 1075.722 598.642, 1079.354 577.908, 1077.913 565.221 C 1076.253 550.613, 1072.089 540.445, 1064.693 532.940 C 1060.230 528.410, 1059.517 524.309, 1062.453 520.040 C 1063.792 518.093, 1065.813 514.250, 1066.944 511.500 C 1068.074 508.750, 1069.499 505.640, 1070.109 504.588 C 1071.554 502.099, 1072.491 491.655, 1071.479 489.317 C 1071.047 488.318, 1070.790 486.713, 1070.909 485.750 C 1071.028 484.788, 1070.647 484, 1070.063 484 C 1069.478 484, 1069.002 482.538, 1069.004 480.750 C 1069.008 478.228, 1070.240 476.120, 1074.504 471.340 C 1077.527 467.951, 1080 464.744, 1080 464.212 C 1080 463.679, 1080.925 462.627, 1082.056 461.872 C 1085.506 459.570, 1090.003 444.054, 1089.987 434.507 C 1089.971 425.441, 1086.629 413.150, 1083.102 409.190 C 1081.946 407.892, 1081 406.456, 1081 405.999 C 1081 405.542, 1078.254 402.682, 1074.897 399.645 L 1068.793 394.122 1071.337 388.811 C 1077.443 376.064, 1076.752 353.423, 1069.884 341.191 C 1062.538 328.110, 1059.742 324.273, 1054.511 320.099 C 1051.480 317.680, 1049 315.367, 1049 314.959 C 1049 314.551, 1047.910 313.943, 1046.577 313.609 C 1045.244 313.274, 1042.778 311.842, 1041.096 310.427 C 1037.918 307.754, 1030.187 306.061, 1020.966 306.020 C 1017.082 306.003, 1016.203 305.605, 1014.838 303.250 C 1013.962 301.738, 1012.940 297.800, 1012.568 294.500 C 1011.677 286.620, 1009.528 280.126, 1005.382 272.792 C 1003.522 269.501, 1002 266.562, 1002 266.262 C 1002 264.981, 992.729 255, 991.539 255 C 990.821 255, 989.996 254.092, 989.706 252.983 C 989.390 251.774, 987.240 250.115, 984.339 248.840 C 981.678 247.670, 978.427 245.878, 977.115 244.857 C 975.803 243.836, 974 243, 973.107 243 C 972.214 243, 969.238 241.778, 966.492 240.284 C 962.183 237.939, 960.337 237.565, 953 237.552 C 945.327 237.537, 936.119 239.172, 933.500 241.013 C 932.950 241.400, 930.283 242.455, 927.574 243.358 C 921.211 245.477, 919.598 244.483, 915.281 235.784 C 913.511 232.216, 911.373 228.725, 910.531 228.026 C 909.689 227.327, 909 226.346, 909 225.847 C 909 224.069, 893.634 211.653, 890.008 210.503 C 888.702 210.088, 885.624 208.680, 883.168 207.374 C 880.712 206.069, 877.419 205, 875.851 205 C 874.283 205, 873 204.550, 873 204 C 873 203.383, 867.853 203, 859.559 203 C 851.677 203, 845.862 203.414, 845.500 204 M 842.582 225.985 C 840.427 226.400, 838.177 227.362, 837.582 228.123 C 836.987 228.883, 834.082 230.620, 831.126 231.982 C 824.475 235.047, 809.737 250.166, 810.206 253.444 C 810.626 256.377, 813.241 255.985, 814.788 252.756 C 815.511 251.247, 817.189 249.740, 818.516 249.407 C 819.843 249.074, 821.201 247.941, 821.535 246.890 C 821.869 245.838, 823.529 244.261, 825.225 243.384 C 826.921 242.507, 830.024 240.547, 832.120 239.028 C 834.503 237.302, 837.882 236.008, 841.134 235.577 C 843.995 235.197, 847.890 234.237, 849.790 233.443 C 854.235 231.586, 862.025 231.596, 866.216 233.464 C 868.022 234.269, 872.082 235.425, 875.237 236.032 C 879.256 236.806, 882.204 238.164, 885.082 240.568 C 887.341 242.456, 889.738 244, 890.409 244 C 891.080 244, 892.381 245.575, 893.299 247.500 C 895.039 251.150, 899 252.493, 899 249.434 C 899 244.785, 887.138 232.653, 880.967 230.991 C 878.785 230.404, 877 229.464, 877 228.902 C 877 228.341, 876.588 228.136, 876.085 228.447 C 875.582 228.758, 875.012 228.536, 874.818 227.953 C 873.947 225.342, 852.664 224.042, 842.582 225.985 M 751.131 231.054 C 745.756 231.722, 742.508 232.769, 739.131 234.922 C 733.397 238.578, 725 246.105, 725 247.588 C 725 248.194, 724.100 249.505, 723 250.500 C 721.900 251.495, 721 253.114, 721 254.096 C 721 255.078, 720.528 256.174, 719.951 256.530 C 719.235 256.973, 719.273 257.624, 720.074 258.589 C 721.938 260.835, 722.722 260.294, 724.553 255.500 C 725.498 253.025, 726.594 251, 726.988 251 C 727.381 251, 729.073 249.691, 730.747 248.091 C 732.421 246.491, 734.851 244.626, 736.146 243.946 C 737.441 243.267, 740.161 241.409, 742.191 239.818 C 746.981 236.064, 757.695 234.676, 771.139 236.067 C 779.594 236.942, 780.679 237.298, 783.160 240.014 C 786.447 243.613, 789 243.919, 789 240.716 C 789 239.238, 787.941 237.805, 786 236.659 C 784.350 235.684, 783 234.516, 783 234.062 C 783 231.505, 762.821 229.600, 751.131 231.054 M 934.500 261.128 C 926.609 263.126, 922.620 265.359, 923.299 267.397 C 923.523 268.068, 930.045 268.451, 941.585 268.470 L 959.524 268.500 964.397 271.726 C 967.078 273.500, 970.560 275.523, 972.135 276.220 C 973.711 276.918, 975 277.975, 975 278.570 C 975 279.165, 976.186 280.742, 977.636 282.076 C 979.086 283.409, 981.808 286.875, 983.685 289.779 C 987.192 295.202, 989 295.757, 989 291.409 C 989 288.406, 986.437 282, 985.235 282 C 984.758 282, 983.349 280.186, 982.102 277.968 C 978.569 271.682, 969.144 264.442, 961.244 261.947 C 951.720 258.938, 944.076 258.704, 934.500 261.128 M 677 271.003 C 674.525 271.425, 670.083 273.107, 667.129 274.742 C 659.858 278.765, 649.166 288.478, 648.344 291.808 C 647.979 293.289, 646.591 296.236, 645.260 298.357 C 642.504 302.750, 641.574 312.960, 643.733 315.128 C 645.556 316.959, 646.239 315.691, 647.165 308.751 C 647.719 304.605, 648.635 301.972, 649.887 300.931 C 650.925 300.068, 652.694 297.593, 653.818 295.431 C 656.355 290.551, 664.648 283.388, 669.910 281.532 C 672.084 280.765, 674.734 279.266, 675.798 278.202 C 678.209 275.791, 685.376 274.653, 692.527 275.547 C 697.186 276.129, 698.073 275.973, 698.650 274.469 C 699.801 271.471, 696.360 269.988, 688.559 270.118 C 684.676 270.182, 679.475 270.581, 677 271.003 M 914.250 271.667 C 913.563 271.942, 913 272.610, 913 273.153 C 913 274.431, 917.068 273.811, 917.115 272.525 C 917.157 271.348, 915.950 270.987, 914.250 271.667 M 1001.687 324.044 C 996.967 324.837, 992 327.287, 992 328.823 C 992 330.457, 994.512 332, 997.170 332 C 999.088 332, 1000.622 331.078, 1002.158 329 C 1004.017 326.486, 1005.064 326, 1008.623 326 C 1013.703 326, 1017.217 327.217, 1019.907 329.907 C 1021 331, 1023.627 332.361, 1025.745 332.931 C 1027.863 333.502, 1030.896 335.325, 1032.485 336.984 C 1034.074 338.643, 1035.965 340, 1036.687 340 C 1037.409 340, 1038 340.414, 1038 340.919 C 1038 341.425, 1040.237 344.286, 1042.971 347.278 C 1045.705 350.269, 1048.404 353.933, 1048.969 355.419 C 1049.534 356.905, 1050.449 357.841, 1051.002 357.499 C 1053.272 356.096, 1048.600 344.921, 1043.088 338.568 C 1032.578 326.456, 1017.927 321.316, 1001.687 324.044 M 617.210 340.254 C 614.300 342.589, 609.912 347.191, 607.460 350.480 C 603.833 355.343, 603 357.247, 603 360.671 C 603 368.283, 607.396 367.211, 608.581 359.310 C 609.058 356.126, 610.110 354.026, 612.130 352.227 C 613.708 350.820, 615 349.213, 615 348.656 C 615 348.098, 616.597 346.035, 618.548 344.071 C 626.467 336.101, 626.540 336, 624.408 336.004 C 623.359 336.006, 620.119 337.919, 617.210 340.254 M 798.500 359 C 796.352 361.200, 794.026 363, 793.332 363 C 792.638 363, 791.636 363.811, 791.106 364.802 C 790.576 365.792, 786.173 368.378, 781.321 370.547 C 772.868 374.326, 772.062 374.491, 762 374.495 C 755.931 374.498, 749.390 373.901, 746.500 373.080 C 740.209 371.294, 732.043 366.785, 729.221 363.539 C 727.314 361.346, 722.372 359.125, 721.636 360.130 C 714.643 369.683, 707.376 378.031, 701.882 382.819 C 698.728 385.567, 686.749 389.950, 682.309 389.979 C 680.554 389.991, 678.821 390.481, 678.458 391.068 C 678.095 391.656, 677.241 391.923, 676.560 391.661 C 675.040 391.078, 672.485 395.287, 671.498 400 C 671.095 401.925, 670.492 403.950, 670.159 404.500 C 669.826 405.050, 669.532 405.950, 669.506 406.500 C 669.356 409.710, 664.445 417.014, 660.093 420.500 L 655.100 424.500 655.029 436.500 C 654.990 443.112, 654.302 451.419, 653.498 455 C 652.694 458.575, 651.611 463.750, 651.090 466.500 C 649.857 473.011, 649.062 505.483, 650.095 507.153 C 651.119 508.811, 657.232 506.774, 661.222 503.446 C 663.331 501.688, 665.698 501.036, 671.722 500.557 C 676 500.216, 683.389 499.277, 688.143 498.469 C 699.131 496.602, 704.627 496.621, 717.295 498.570 C 730.077 500.538, 736 501.997, 736 503.179 C 736 503.684, 737.693 504.863, 739.763 505.799 C 745.347 508.323, 751.753 513.853, 752.898 517.136 C 753.452 518.726, 754.714 520.314, 755.703 520.665 C 756.691 521.017, 758.310 522.001, 759.300 522.852 C 760.842 524.178, 761.560 524.212, 764.300 523.088 C 766.060 522.366, 772.769 521.546, 779.210 521.266 C 789.824 520.804, 791.306 520.958, 795.048 522.908 L 799.176 525.060 802.838 521.203 C 804.852 519.082, 807.990 515.466, 809.812 513.167 C 811.633 510.868, 814.558 508.253, 816.312 507.355 C 818.065 506.457, 820.978 504.435, 822.785 502.861 C 824.591 501.288, 826.670 500, 827.405 500 C 828.139 500, 831.611 499.039, 835.120 497.864 C 840.846 495.947, 843.856 495.717, 864.500 495.614 C 884.279 495.516, 887.928 495.735, 890.557 497.176 C 892.238 498.098, 897.413 499.365, 902.057 499.991 C 908.728 500.891, 910.966 501.625, 912.719 503.488 C 913.939 504.785, 915.964 506.160, 917.219 506.544 C 918.473 506.929, 922.494 510.113, 926.153 513.622 C 929.812 517.130, 933.187 520.021, 933.653 520.046 C 941.828 520.493, 973.932 520.160, 974.807 519.619 C 976.899 518.326, 976.099 514.903, 972.586 510.118 C 966.363 501.639, 965.494 485.370, 970.674 474.287 C 973.641 467.939, 972.869 465.759, 966.680 463.016 C 958.771 459.510, 951.565 450.741, 948.718 441.158 C 945.663 430.876, 945.383 422.797, 947.913 417.942 C 951.796 410.493, 949.904 405.792, 943.872 407.895 C 935.885 410.679, 918.484 407.896, 912.941 402.947 C 911.125 401.326, 909.033 400, 908.291 400 C 905.930 400, 892.153 384.977, 891.424 381.606 C 890.594 377.770, 885.641 367.777, 883.821 366.266 C 882.786 365.407, 881.124 366.166, 876.565 369.576 C 873.313 372.009, 870.167 374.002, 869.576 374.005 C 868.250 374.010, 857.197 378.469, 856.310 379.356 C 855.184 380.483, 839 380.091, 839 378.937 C 839 378.353, 838.212 377.973, 837.250 378.093 C 836.288 378.214, 834.375 377.836, 833 377.252 C 823.678 373.299, 821.317 372.087, 820.113 370.637 C 819.366 369.736, 818.222 369, 817.570 369 C 816.453 369, 811.033 362.191, 808.218 357.250 C 806.283 353.853, 802.937 354.456, 798.500 359 M 851.500 459.559 C 840.262 462.168, 838.500 462.969, 833.191 467.883 C 828.039 472.652, 827.891 472.938, 828.191 477.607 C 828.469 481.932, 828.903 482.703, 832.500 485.256 L 836.500 488.094 848.500 487.397 C 865.424 486.414, 869.876 486.582, 879.246 488.558 C 893.475 491.559, 895.295 491.709, 898 490.109 C 905.776 485.510, 907.751 480.231, 903.865 474.428 C 901.034 470.199, 889.195 462.010, 885.866 461.976 C 884.564 461.964, 880.155 461.064, 876.068 459.976 C 867.518 457.703, 860.044 457.576, 851.500 459.559 M 700.044 461.151 C 695.393 461.698, 690.218 462.789, 688.544 463.575 C 677.022 468.987, 667 476.882, 667 480.546 C 667 484.575, 668.944 487.423, 673.051 489.411 C 675.223 490.462, 677 491.699, 677 492.161 C 677 493.379, 686.769 493.194, 687.177 491.968 C 687.891 489.828, 699.336 487.678, 708.500 487.963 C 732.013 488.693, 730.521 488.860, 734.446 485.054 C 737.444 482.146, 738 480.928, 738 477.261 C 738 473.470, 737.407 472.281, 733.365 467.959 C 726.848 460.992, 717.550 459.092, 700.044 461.151 M 204.542 462.729 C 195.708 464.973, 192.534 475.162, 197.408 485.630 C 198.722 488.452, 200.736 494.472, 201.883 499.009 C 203.030 503.545, 204.633 507.761, 205.445 508.378 C 206.257 508.995, 207.400 511.679, 207.985 514.341 C 208.571 517.004, 209.750 520.829, 210.607 522.841 C 211.464 524.854, 213.019 529.200, 214.063 532.500 C 215.191 536.068, 217.506 540.281, 219.773 542.895 C 223.506 547.199, 223.680 547.275, 228.177 546.601 C 235.141 545.556, 236.500 543.441, 236.500 533.645 C 236.500 526.465, 236.121 524.753, 233.303 519.197 C 231.545 515.730, 229.798 510.780, 229.421 508.197 C 229.044 505.614, 227.733 501.475, 226.509 499 C 225.285 496.525, 223.975 492.496, 223.597 490.046 C 223.220 487.597, 221.921 483.997, 220.711 482.046 C 219.502 480.096, 218.471 478.275, 218.422 478 C 218.373 477.725, 217.808 476.233, 217.166 474.685 C 216.525 473.137, 216 471.450, 216 470.936 C 216 469.675, 208.458 461.970, 207.367 462.116 C 206.890 462.180, 205.619 462.456, 204.542 462.729 M 840.056 520.664 C 833.907 523.343, 825.568 531.693, 822.743 538 C 821.634 540.475, 819.889 543.694, 818.864 545.154 C 816.589 548.394, 816.476 550.862, 818.566 551.664 C 820.696 552.481, 826.730 546.504, 827.552 542.763 C 828.453 538.660, 841.728 524, 844.542 524 C 845.431 524, 846 523.023, 846 521.500 C 846 518.670, 844.966 518.524, 840.056 520.664 M 671.701 524.750 C 664.623 530.626, 655.357 542.284, 654.613 546.248 C 653.150 554.049, 656.751 555.273, 660.505 548.250 C 665.807 538.332, 667.833 535.459, 670.440 534.165 C 671.918 533.430, 673.386 532.080, 673.702 531.165 C 674.017 530.249, 675.863 528.115, 677.803 526.422 C 681.404 523.281, 681.508 521, 678.050 521 C 677.042 521, 674.185 522.688, 671.701 524.750 M 120.500 533.686 C 119.400 533.914, 116.962 535.365, 115.083 536.910 C 112.057 539.399, 111.667 540.271, 111.667 544.532 C 111.667 550.341, 111.146 549.817, 135.246 568.250 C 139.381 571.413, 143.155 574.002, 143.632 574.005 C 144.110 574.007, 146.213 575.582, 148.306 577.505 C 150.399 579.427, 152.467 581, 152.901 581 C 153.335 581, 154.547 581.958, 155.595 583.130 C 158.609 586.500, 164.719 590, 167.586 590 C 169.031 590, 171.964 588.612, 174.106 586.916 C 177.426 584.286, 178 583.263, 178 579.972 C 178 577.357, 177.274 575.326, 175.750 573.676 C 173.008 570.707, 160.052 559.789, 153.588 555 C 150.990 553.075, 147.373 550.263, 145.550 548.750 C 143.727 547.237, 141.845 546, 141.368 545.999 C 140.891 545.999, 138.754 544.199, 136.621 541.999 C 134.487 539.800, 132.325 538, 131.817 538 C 131.310 538, 129.238 536.875, 127.215 535.500 C 125.191 534.125, 123.303 533.061, 123.018 533.136 C 122.733 533.211, 121.600 533.459, 120.500 533.686 M 626.400 536.765 C 624.889 537.774, 623.393 540.914, 622.714 544.500 C 622.401 546.150, 621.595 548.850, 620.921 550.500 C 620.248 552.150, 619.792 554.470, 619.908 555.654 C 620.023 556.839, 619.642 558.104, 619.059 558.464 C 617.695 559.307, 617.666 573.675, 619.027 574.516 C 619.591 574.865, 619.969 575.679, 619.866 576.325 C 619.763 576.971, 620.193 578.743, 620.820 580.263 C 621.447 581.783, 622.407 585.798, 622.952 589.185 C 624.535 599.011, 626.711 599.718, 628.111 590.862 C 628.673 587.307, 629.803 584.771, 631.715 582.776 C 634.122 580.264, 634.468 579.166, 634.265 574.685 C 634.136 571.833, 633.887 562.584, 633.713 554.131 C 633.430 540.433, 633.190 538.612, 631.507 537.381 C 629.399 535.840, 628.032 535.675, 626.400 536.765 M 1022.500 537.655 C 1018.398 539.808, 1012.160 545.865, 1010.301 549.500 C 1009.457 551.150, 1007.945 553.401, 1006.942 554.502 C 1005.898 555.648, 1004.649 559.439, 1004.021 563.368 C 1003.321 567.750, 1002.062 571.366, 1000.540 573.366 C 996.909 578.138, 996.604 580.925, 999.038 587.059 C 1000.957 591.896, 1001.120 593.611, 1000.504 602.500 C 1000.122 608, 999.178 614.017, 998.405 615.872 C 997.632 617.727, 997 620.753, 997 622.596 C 997 625.357, 997.574 626.254, 1000.250 627.677 C 1002.038 628.628, 1004.029 629.303, 1004.675 629.177 C 1005.321 629.050, 1006.135 629.409, 1006.484 629.973 C 1007.317 631.322, 1016.694 631.304, 1017.530 629.952 C 1017.886 629.376, 1018.930 629.032, 1019.849 629.188 C 1020.769 629.343, 1023.766 628.139, 1026.510 626.510 C 1029.255 624.882, 1032.850 622.816, 1034.500 621.918 C 1036.150 621.021, 1037.950 619.421, 1038.500 618.364 C 1039.050 617.306, 1041.120 614.879, 1043.100 612.970 C 1050.353 605.977, 1057 586.086, 1057 571.370 C 1057 562.540, 1052.884 549.991, 1048.101 544.239 C 1042.163 537.098, 1029.678 533.887, 1022.500 537.655 M 969.527 540.956 C 969.202 541.482, 968.321 541.677, 967.569 541.388 C 966.817 541.100, 965.905 541.344, 965.542 541.932 C 965.179 542.519, 962.546 543.015, 959.691 543.033 C 956.836 543.051, 951.356 543.470, 947.514 543.965 C 938.919 545.072, 937.530 546.525, 936.625 555.358 C 936.259 558.930, 935.288 563.459, 934.468 565.422 C 933.648 567.385, 933.059 569.105, 933.159 569.245 C 933.259 569.385, 932.224 571.300, 930.859 573.500 C 929.494 575.700, 927.761 579.075, 927.008 581 C 922.748 591.893, 907.554 607.471, 897.076 611.686 C 895.109 612.477, 892.082 613.772, 890.349 614.562 C 888.616 615.353, 886.118 616, 884.799 616 C 883.479 616, 881.848 616.552, 881.173 617.227 C 879.555 618.845, 847.373 618.988, 843.906 617.393 C 824.756 608.585, 819.855 605.289, 812.622 596.353 C 810.016 593.134, 807.935 590.144, 807.998 589.709 C 808.061 589.274, 806.737 587.047, 805.056 584.762 C 803.375 582.476, 801.991 579.682, 801.979 578.553 C 801.967 577.424, 800.869 573.413, 799.537 569.640 C 798.206 565.867, 796.800 560.242, 796.414 557.140 C 795.138 546.890, 792.194 545.001, 777.131 544.767 C 766.356 544.599, 764 545.906, 764 552.050 C 764 554.106, 763.139 558.649, 762.087 562.145 C 761.034 565.640, 759.872 570.075, 759.503 572 C 759.135 573.925, 757.601 577.300, 756.094 579.500 C 754.588 581.700, 752.790 584.918, 752.098 586.651 C 751.405 588.384, 749.750 590.825, 748.420 592.076 C 747.089 593.326, 746 594.656, 746 595.031 C 746 595.843, 735.962 606, 735.161 606 C 734.857 606, 733.008 607.093, 731.054 608.430 C 723.426 613.645, 715.820 615.318, 699.500 615.368 C 685.510 615.411, 683.928 615.219, 676 612.517 C 666.742 609.362, 663.958 607.725, 656.716 601.180 C 654.085 598.802, 651.385 597.041, 650.716 597.268 C 649.838 597.565, 649.500 601.624, 649.500 611.877 L 649.500 626.074 655.763 632.164 C 659.208 635.514, 662.276 639.435, 662.582 640.877 C 663.666 645.989, 664.965 647.953, 667.716 648.639 C 674.841 650.414, 678.498 652.891, 681.094 657.697 C 683.471 662.099, 684.056 662.546, 688.094 663.046 C 693.591 663.727, 696.172 665.127, 699.302 669.127 C 700.654 670.854, 702.204 671.992, 702.748 671.656 C 703.291 671.320, 703.949 666.244, 704.210 660.375 C 704.662 650.228, 704.815 649.610, 707.342 647.769 C 708.804 646.704, 710 645.306, 710 644.662 C 710 642.757, 719.658 631.534, 724.633 627.658 C 728.285 624.813, 730.470 623.933, 735.219 623.396 C 740.220 622.830, 741.935 622.085, 745.656 618.865 C 748.105 616.745, 751.173 614.744, 752.473 614.417 C 755.207 613.731, 765.885 615.718, 767.795 617.268 C 769.589 618.724, 780.227 618.735, 783.120 617.283 C 786.856 615.408, 797.842 614.177, 802.168 615.149 C 804.301 615.628, 807.903 617.366, 810.173 619.010 C 813.703 621.568, 815.200 622, 820.524 622 C 831.359 622, 838.341 625.634, 850.747 637.731 C 859.781 646.540, 860.476 647.730, 863.482 659.531 C 864.879 665.014, 866.457 670.513, 866.989 671.750 C 868.230 674.634, 871.344 674.632, 873.677 671.745 C 877.234 667.345, 881.165 665.596, 887.773 665.475 C 893.588 665.369, 894.323 665.090, 897.830 661.666 C 902.159 657.439, 906.481 655.879, 911.573 656.706 C 914.635 657.202, 915.591 656.821, 918.624 653.890 C 920.553 652.026, 923.039 649.037, 924.149 647.248 C 925.258 645.460, 927.336 643.703, 928.766 643.344 C 930.196 642.985, 932.441 642.134, 933.754 641.453 C 936.504 640.026, 942.627 630.976, 943.485 627.070 C 943.889 625.230, 945.469 623.671, 948.664 621.961 C 953.607 619.315, 956 615.407, 956 609.981 C 956 607.773, 956.961 605.991, 959.390 603.699 C 961.855 601.372, 963.118 599.001, 964.022 595 C 965.520 588.367, 966.250 586.890, 971 580.881 L 974.684 576.220 975.378 559.979 C 975.997 545.516, 975.887 543.533, 974.381 541.869 C 972.542 539.836, 970.461 539.445, 969.527 540.956 M 90.323 635.695 C 89.126 635.929, 86.965 637.668, 85.522 639.560 C 84.079 641.452, 82.246 643, 81.449 643 C 80.451 643, 80 644.124, 80 646.607 C 80 649.295, 80.358 650.077, 81.406 649.674 C 82.898 649.102, 86 651.884, 86 653.794 C 86 656.850, 96.288 658.394, 124.500 659.573 C 147.594 660.538, 152 659.003, 152 649.997 C 152 644.099, 149.653 641.992, 140.461 639.636 C 129.866 636.921, 97.199 634.353, 90.323 635.695 M 775.885 652.876 C 774.573 653.908, 773.275 654.776, 773 654.806 C 772.725 654.835, 771.233 655.341, 769.685 655.930 C 768.137 656.518, 766.310 657, 765.626 657 C 764.942 657, 763.556 657.604, 762.547 658.342 C 760.794 659.624, 760.818 659.759, 763.078 661.342 C 766.759 663.921, 796.811 663.723, 802.627 661.082 C 810.572 657.474, 808.715 655.446, 799.030 657.152 C 791.819 658.422, 789.781 658.003, 783.945 654.048 C 778.666 650.472, 778.899 650.505, 775.885 652.876 M 738.652 656.471 C 736.536 657.726, 733.661 660.671, 732.263 663.015 C 729.887 667, 729.760 667.867, 730.311 676.372 C 730.635 681.374, 731.373 685.624, 731.950 685.817 C 732.528 686.009, 733 687.168, 733 688.392 C 733 692.505, 736.070 694.855, 747.981 699.858 C 759.192 704.567, 760.601 704.137, 762.338 695.486 C 763.834 688.038, 765.190 687.175, 772.704 688.893 C 779.018 690.337, 778.796 690.329, 787.502 689.421 C 795.129 688.626, 797.119 690.385, 797.793 698.515 C 798.105 702.284, 798.678 704, 799.624 704 C 800.381 704, 801 704.505, 801 705.122 C 801 705.900, 801.460 705.863, 802.495 705.004 C 803.317 704.322, 804.891 704, 805.994 704.288 C 807.096 704.576, 808.250 704.404, 808.558 703.906 C 809.420 702.512, 813.395 702.831, 815.559 704.468 C 819.530 707.472, 821.961 706.380, 830.236 697.880 C 834.584 693.414, 838.566 688.642, 839.086 687.275 C 840.369 683.899, 837.755 669.231, 834.824 663.362 C 833.250 660.210, 831.540 658.417, 829.162 657.423 C 822.481 654.632, 820.298 656.304, 823.377 661.855 C 825.168 665.085, 824.274 668.674, 821.130 670.880 C 814.109 675.805, 804.875 680.801, 801.686 681.399 C 794.619 682.725, 762.077 682.188, 759.192 680.698 C 746.060 673.914, 743.208 671.955, 741.401 668.472 C 739.442 664.696, 739.587 664.021, 743.156 660.339 C 745.809 657.602, 746.109 656.836, 745.034 655.541 C 743.463 653.647, 743.396 653.657, 738.652 656.471 M 342.562 713.988 C 340.396 714.405, 337.921 715.591, 337.062 716.623 C 333.749 720.604, 329.494 721.273, 305.357 721.606 C 285.041 721.886, 280.866 722.229, 271.177 724.416 C 260.590 726.806, 252.930 729.915, 246.500 734.433 C 244.850 735.592, 242.219 737.193, 240.653 737.991 C 239.087 738.789, 236.754 740.692, 235.468 742.221 C 234.181 743.749, 232.770 745, 232.331 745 C 231.016 745, 221 756.119, 221 757.579 C 221 758.322, 220.108 759.407, 219.019 759.990 C 216.680 761.242, 210.231 774.705, 209.359 780.155 C 208.334 786.564, 207.456 787.097, 196.446 787.991 C 187.609 788.709, 184.499 789.369, 179 791.693 C 178.175 792.042, 177.275 792.404, 177 792.497 C 176.725 792.591, 175.233 793.192, 173.685 793.834 C 172.137 794.475, 170.167 795, 169.309 795 C 167.018 795, 152.222 803.053, 148.637 806.250 C 146.942 807.763, 145.173 809, 144.706 809 C 143.583 809, 133.029 818.278, 133.013 819.281 C 133.006 819.710, 131.394 821.472, 129.430 823.195 C 127.467 824.919, 125.104 827.796, 124.180 829.588 C 123.256 831.380, 120.407 835.918, 117.849 839.673 C 114.227 844.988, 106.310 859.901, 105.464 863 C 105.389 863.275, 105.075 864.175, 104.766 865 C 101.258 874.378, 99.654 880.125, 98.066 889 C 97.033 894.775, 95.623 900.850, 94.933 902.500 C 94.242 904.150, 93.765 905.885, 93.874 906.355 C 93.982 906.826, 93.492 907.907, 92.785 908.759 C 91.087 910.804, 90.930 952.970, 92.612 955.095 C 93.981 956.824, 94.546 959.148, 96.936 972.883 C 98.904 984.192, 101.939 992.730, 104.963 995.466 C 106.396 996.763, 108.657 997.020, 116.620 996.788 L 126.500 996.500 126.814 993.771 C 127.029 991.912, 126.169 989.842, 124.115 987.271 C 122.457 985.197, 120.661 981.522, 120.124 979.105 C 119.587 976.687, 118.656 974.405, 118.055 974.034 C 116.081 972.814, 114.947 966.734, 113.448 949.324 C 112.137 934.105, 112.140 930.630, 113.470 918.824 C 114.951 905.682, 116.424 898.467, 118.029 896.488 C 118.480 895.932, 119.537 891.657, 120.377 886.988 C 121.218 882.320, 123.052 876.286, 124.453 873.581 C 125.854 870.875, 127 867.592, 127 866.285 C 127 864.978, 128.077 862.832, 129.394 861.515 C 130.711 860.198, 132.564 857.090, 133.511 854.609 C 134.459 852.128, 136.082 849.331, 137.117 848.394 C 138.153 847.457, 139 846.112, 139 845.406 C 139 844.700, 140.800 842.042, 143 839.500 C 145.200 836.958, 147.007 834.568, 147.016 834.189 C 147.052 832.604, 154.767 825.059, 158 823.448 C 159.925 822.488, 162.937 820.612, 164.693 819.277 C 166.449 817.942, 168.024 816.913, 168.193 816.990 C 168.765 817.249, 172.481 815.904, 176.500 813.983 C 187.322 808.808, 206.149 807.274, 226 809.949 C 237.543 811.505, 243.923 814.485, 253 822.560 C 258.153 827.144, 259.744 829.263, 260.675 832.784 C 262.033 837.916, 261.661 839.467, 258.166 843.250 C 255.029 846.646, 252.107 846.724, 247.072 843.545 C 235.612 836.311, 222.794 833.486, 204.866 834.243 C 190.733 834.840, 189.470 835.191, 187.463 839.072 C 185.099 843.643, 185.601 847.487, 188.929 850.287 C 191.570 852.509, 193.095 852.823, 204.432 853.477 C 211.348 853.875, 217.257 854.606, 217.562 855.101 C 217.868 855.595, 218.980 856, 220.033 856 C 224.148 856, 237.447 863.836, 241.585 868.699 C 246.908 874.955, 248.077 877.266, 248.261 881.896 C 248.618 890.853, 241.833 893.900, 235.541 887.607 C 227.830 879.896, 224.700 878.472, 206.500 874.387 C 198.660 872.628, 191.717 873.526, 187.823 876.802 C 181.842 881.835, 182.004 886.231, 188.339 890.772 C 191.859 893.295, 193.810 893.865, 201 894.471 C 211.636 895.367, 223.245 900.511, 229.761 907.214 C 235.217 912.828, 237.455 921.130, 234.661 925.394 C 232.507 928.682, 231.446 928.629, 226.500 924.991 C 218.069 918.789, 215.268 917.317, 208 915.265 C 192.527 910.897, 186.859 911.130, 181.968 916.336 C 176.903 921.727, 177.084 923.575, 183.331 930.250 C 185.792 932.880, 186.323 933, 195.502 933 C 206.935 933, 208.450 933.644, 216.250 941.823 C 221.475 947.301, 222 948.255, 222 952.277 C 222 957.881, 220.321 962.763, 218.157 963.450 C 217.236 963.742, 216.036 964.981, 215.491 966.202 C 214.946 967.423, 213.007 969.287, 211.181 970.343 C 208.242 972.045, 207.556 972.106, 205.181 970.882 C 203.707 970.122, 201.974 968.825, 201.331 968 C 200.688 967.175, 199.563 965.714, 198.831 964.753 C 197.413 962.891, 187.804 960, 183.034 960 C 178.214 960, 171.107 963.616, 169.826 966.720 C 169.195 968.249, 168.774 970.074, 168.889 970.776 C 169.005 971.477, 168.290 973.279, 167.300 974.780 C 166.310 976.281, 165.027 978.407, 164.448 979.504 C 163.230 981.815, 154.765 986.261, 147.426 988.444 C 141.222 990.290, 138.115 993.228, 139.984 995.481 C 141.042 996.756, 144.798 997, 163.330 997 L 185.416 997 189.245 993.261 L 193.074 989.522 202.486 989.839 C 211.436 990.140, 212.257 989.988, 219.224 986.725 C 227.585 982.810, 235.298 975.192, 237.012 969.157 C 238.728 963.112, 245.765 955.145, 253.500 950.487 C 259.157 947.080, 260.980 945.335, 263 941.394 C 264.481 938.504, 266.649 935.968, 268.319 935.170 C 270.884 933.946, 271.472 934.053, 274.819 936.357 C 277.962 938.518, 280.329 939.052, 291 940.002 C 297.875 940.614, 309.575 941.001, 317 940.863 C 332.125 940.581, 351.784 941.842, 352.590 943.145 C 353.345 944.367, 358.756 944.204, 359.540 942.935 C 359.902 942.349, 361.391 941.965, 362.849 942.081 C 364.307 942.197, 366.767 941.776, 368.315 941.146 C 369.863 940.516, 371.570 940, 372.108 940 C 374.359 940, 383.435 930.087, 386.284 924.516 C 389.034 919.138, 389.420 917.269, 389.930 906.900 C 390.683 891.584, 390.488 891.792, 403.675 892.189 C 409.356 892.360, 414.003 892.159, 414.002 891.742 C 414.001 891.325, 415.780 890.272, 417.955 889.402 C 424.056 886.960, 428.790 878.369, 428.922 869.500 C 428.985 865.284, 428.409 863.653, 425.248 859.100 C 420.175 851.790, 416.895 850.660, 402.748 851.342 C 393.365 851.795, 391.883 851.647, 391.106 850.181 C 390.026 848.140, 389.459 806.382, 390.470 803.335 C 391.480 800.292, 394.790 799.768, 404.301 801.143 C 411.696 802.212, 413.053 802.145, 417.365 800.499 C 420.073 799.464, 422.892 797.533, 423.815 796.081 C 424.716 794.661, 425.689 793.275, 425.977 793 C 427.937 791.127, 429 787.153, 429 781.701 C 429 775.804, 428.712 774.996, 424.750 769.778 C 419.523 762.893, 416.613 761.975, 402.388 762.723 C 396.532 763.030, 392.031 762.859, 391.694 762.314 C 391.375 761.797, 390.835 755.421, 390.494 748.145 C 389.959 736.707, 389.527 734.211, 387.306 729.708 C 384.611 724.243, 381.295 720, 379.720 720 C 379.207 720, 377.915 718.891, 376.848 717.534 C 375.782 716.178, 373.242 714.606, 371.205 714.040 C 367.009 712.875, 348.519 712.841, 342.562 713.988 M 353.500 737.710 C 346.054 738.331, 342.733 741.863, 340.999 751.007 C 339.266 760.142, 339.933 905.839, 341.736 912.255 C 343.544 918.687, 346.105 919.946, 356 919.270 C 364.059 918.719, 369.612 916.800, 368.475 914.960 C 368.196 914.508, 368.425 913.856, 368.984 913.510 C 369.543 913.165, 370 909.110, 370 904.500 C 370 899.890, 369.543 895.835, 368.984 895.490 C 368.425 895.144, 368.181 894.516, 368.442 894.093 C 368.703 893.671, 367.604 891.789, 365.999 889.913 C 363.162 886.594, 363.080 886.194, 363.041 875.377 C 363.007 866.198, 363.366 863.426, 365.096 859.515 C 366.593 856.131, 367.013 853.736, 366.565 851.138 C 366.220 849.137, 365.796 839.444, 365.622 829.598 C 365.352 814.343, 365.061 811.518, 363.653 810.488 C 361.577 808.970, 361.557 807.612, 363.587 805.928 C 365.308 804.500, 365.152 801.059, 363.003 793 C 362.343 790.525, 361.765 785.062, 361.719 780.861 C 361.635 773.271, 361.661 773.192, 365.817 768.470 C 369.849 763.891, 370 763.473, 370 756.943 C 370 752.430, 369.582 750.015, 368.750 749.714 C 367.759 749.355, 367.771 748.803, 368.807 747.052 C 369.731 745.492, 369.807 744.472, 369.066 743.580 C 368.489 742.885, 368.277 742.056, 368.595 741.738 C 369.514 740.820, 364.684 738.065, 361.448 737.662 C 359.826 737.459, 356.250 737.481, 353.500 737.710 M 910 745.290 C 907.525 746.388, 904.938 748.085, 904.252 749.060 C 903.565 750.035, 900.865 751.628, 898.252 752.599 C 895.638 753.570, 892.612 754.957, 891.527 755.682 C 890.443 756.407, 888.180 757, 886.500 757 C 883.301 757, 880.350 758.602, 875.759 762.832 C 873.367 765.036, 871.901 765.413, 864.259 765.793 C 859.441 766.033, 854.825 766.784, 854 767.463 C 851.563 769.466, 849.254 769.990, 840.145 770.603 C 835.395 770.923, 831.222 771.363, 830.871 771.580 C 825.415 774.951, 779.986 773.427, 767.750 769.461 L 761 767.274 761 770.040 C 761 772.041, 762.337 774.087, 765.835 777.440 C 770.534 781.943, 784.007 791, 786.007 791 C 786.553 791, 787 791.477, 787 792.059 C 787 792.641, 787.412 792.864, 787.915 792.553 C 788.418 792.242, 788.984 792.452, 789.174 793.021 C 789.909 795.228, 800.844 797.164, 815.500 797.682 C 828.162 798.129, 832.184 797.883, 841.302 796.105 C 847.244 794.947, 853.769 793.106, 855.802 792.015 C 857.836 790.923, 863.325 788.279, 868 786.140 C 875.929 782.511, 881.878 778.823, 891.614 771.500 C 899.699 765.420, 916.647 745.041, 914.841 743.571 C 914.654 743.419, 912.475 744.192, 910 745.290 M 281 745.761 C 272.089 746.792, 260.166 751.414, 253.500 756.423 C 245.811 762.200, 238.019 770.411, 236.859 773.961 C 236.222 775.907, 234.418 779.065, 232.851 780.978 C 228.037 786.850, 229.980 792.578, 236.013 790.301 C 238.432 789.388, 239.389 789.580, 242.309 791.564 C 246.035 794.096, 246.830 793.804, 250.394 788.597 C 252.087 786.124, 254 787.353, 254 790.913 C 254 792.801, 255.143 794.812, 257.518 797.104 C 259.453 798.972, 262.450 801.962, 264.179 803.750 C 268.295 808.007, 271.411 808.046, 272.613 803.854 C 273.109 802.124, 274.326 800.212, 275.316 799.604 C 277.779 798.094, 280 801.159, 280 806.066 C 280 809.359, 279.682 809.814, 277 810.350 C 275.350 810.680, 274 811.581, 274 812.353 C 274 814.399, 276.794 820.754, 278.029 821.518 C 280.063 822.775, 282 819.812, 282 815.444 C 282 811.501, 282.231 811.106, 284.711 810.816 C 286.978 810.552, 287.555 809.853, 288.238 806.542 C 289.152 802.113, 290.298 801.038, 294.128 801.015 C 297.319 800.997, 299.267 803.113, 298.827 806.118 C 298.578 807.812, 297.302 808.724, 293.500 809.923 C 288.561 811.481, 288.489 811.563, 287.578 816.685 C 286.830 820.895, 286.219 821.979, 284.328 822.454 C 281.614 823.135, 281.158 827.305, 283.465 830.350 C 285.379 832.876, 286.614 831.813, 287.388 826.973 L 288.039 822.901 293.770 823.201 C 298.866 823.467, 299.463 823.721, 299.168 825.500 C 298.986 826.600, 297.544 828.850, 295.964 830.500 C 294.385 832.150, 293.014 833.950, 292.919 834.500 C 292.823 835.050, 292.527 836.069, 292.260 836.764 C 291.295 839.280, 294.450 842.287, 298.170 842.396 C 301.165 842.483, 301.934 842.050, 302.981 839.682 C 304.266 836.778, 308.331 834.529, 310.672 835.428 C 312.258 836.036, 312.448 842.295, 310.965 845.066 C 310.220 846.458, 308.863 847, 306.125 847 C 301.948 847, 300.015 849.454, 299.985 854.797 C 299.961 858.932, 298.691 860.187, 294.895 859.824 C 291.548 859.505, 291.505 859.439, 291.827 855.164 C 292.056 852.129, 291.644 850.264, 290.455 848.950 C 289.520 847.917, 288.360 844.955, 287.876 842.368 C 287.393 839.781, 286.766 837.432, 286.482 837.149 C 285.243 835.910, 283.832 839.207, 282.695 846 C 281.504 853.110, 281.355 853.377, 277.484 855.307 C 269.563 859.256, 264 863.229, 264 864.937 C 264 866.897, 271.100 873, 273.380 873 C 274.384 873, 275.096 871.546, 275.539 868.591 C 275.987 865.599, 277.131 863.291, 279.100 861.404 C 280.695 859.876, 282 858.035, 282 857.313 C 282 855.814, 285.786 855.579, 287.943 856.944 C 289.120 857.688, 289.166 858.340, 288.193 860.475 C 287.537 861.916, 286.993 864.535, 286.985 866.297 C 286.964 870.638, 285.975 871.905, 281.400 873.450 C 278.529 874.419, 277.034 875.726, 275.732 878.405 C 274.759 880.406, 271.675 885.251, 268.878 889.171 C 261.898 898.954, 261.120 901.435, 264.056 904.559 C 265.437 906.029, 267.472 907, 269.172 907 C 270.819 907, 274.082 908.499, 277.003 910.598 C 282.469 914.525, 288.881 915.881, 302.500 915.991 C 306.350 916.022, 311.206 916.444, 313.290 916.928 C 316.709 917.721, 317.240 917.564, 318.711 915.318 C 319.978 913.385, 320.063 912.657, 319.094 912.058 C 318.408 911.634, 317.972 910.660, 318.126 909.894 C 318.280 909.127, 317.624 907.030, 316.669 905.233 C 315.204 902.478, 314.632 902.127, 313.021 902.989 C 311.971 903.551, 310.835 904.458, 310.497 905.005 C 309.491 906.632, 308.390 906.151, 307.214 903.570 C 306.369 901.715, 298.658 897, 296.468 897 C 296.315 897, 295.003 899.025, 293.553 901.500 C 291.040 905.788, 290.702 906, 286.362 906 C 278.079 906, 272.944 899.786, 276.607 894.196 L 278.306 891.604 280.976 894.802 C 283.502 897.828, 286 899.001, 286 897.161 C 286 895.986, 290.637 894, 293.380 894 C 294.838 894, 296.812 892.574, 298.833 890.059 C 302.612 885.356, 303.082 880.290, 300 877.500 C 297.296 875.053, 297.481 872.828, 300.835 867.439 C 303.940 862.451, 307.656 860, 312.114 860 C 314.799 860, 315 859.730, 315 856.122 C 315 853.989, 315.740 850.502, 316.644 848.372 C 318.798 843.300, 318.757 839.085, 316.522 835.674 C 314.982 833.324, 314.902 832.552, 315.985 830.528 C 316.873 828.868, 317.038 826.380, 316.529 822.323 C 315.574 814.701, 315.570 809.659, 316.510 797.293 C 317.180 788.477, 317.052 786.729, 315.571 784.468 C 314.181 782.347, 314.059 781.268, 314.928 778.776 C 315.518 777.085, 316 771.461, 316 766.279 C 316 757.930, 316.297 756.349, 318.606 752.409 C 322.654 745.502, 322.075 745.267, 301.245 745.378 C 291.485 745.429, 282.375 745.602, 281 745.761 M 574 748.306 C 571.125 749.287, 570.446 750.058, 570.196 752.627 C 570.029 754.346, 568.791 756.787, 567.446 758.051 C 564.734 760.598, 564.182 764, 566.480 764 C 567.294 764, 570.782 761.302, 574.230 758.005 C 577.679 754.708, 581.175 752.001, 582 751.990 C 582.825 751.979, 584.175 751.518, 585 750.966 C 586.298 750.097, 586.239 749.763, 584.559 748.481 C 582.258 746.725, 578.804 746.668, 574 748.306 M 350.250 750.841 C 347.470 753.240, 347 754.304, 347 758.200 C 347 763.653, 348.674 765.450, 352.890 764.524 C 357.301 763.555, 358.135 761.910, 357.800 754.837 C 357.541 749.360, 357.229 748.469, 355.500 748.268 C 354.400 748.141, 352.038 749.298, 350.250 750.841 M 513.055 749.434 C 511.093 751.798, 511.299 886.630, 513.267 888.599 C 515.110 890.444, 516.488 886.688, 516.164 880.701 C 515.979 877.291, 515.979 856.275, 516.164 834 C 516.886 746.909, 516.813 744.906, 513.055 749.434 M 542.159 749.309 C 540.764 750.989, 541.644 753.651, 544.783 757.250 C 547.025 759.819, 548.494 759.433, 552.721 755.163 C 554.810 753.053, 557.190 751.090, 558.010 750.800 C 560.854 749.796, 558.155 748.857, 550.825 748.303 C 544.881 747.854, 543.205 748.048, 542.159 749.309 M 594.500 750.968 C 590.982 751.436, 590.460 751.848, 590.170 754.391 C 589.529 760.005, 594.576 759.654, 597.563 753.877 C 598.435 752.193, 599.002 750.729, 598.824 750.625 C 598.646 750.520, 596.700 750.675, 594.500 750.968 M 605.352 752.692 C 603.100 753.133, 602.037 755.571, 602.014 760.344 C 602.004 762.336, 601.403 763.343, 600.008 763.708 C 598.734 764.041, 597.645 765.606, 596.987 768.048 C 596.235 770.840, 595.360 771.951, 593.729 772.183 C 592.503 772.357, 591.054 773.517, 590.509 774.759 C 589.964 776.002, 588.614 777.300, 587.509 777.644 C 585.012 778.422, 584.035 779.849, 584.015 782.750 C 584.004 784.473, 583.420 785, 581.526 785 C 579.793 785, 578.591 785.891, 577.515 787.970 C 576.671 789.604, 575.084 791.420, 573.990 792.006 C 572.895 792.591, 572 793.954, 572 795.034 C 572 796.114, 570.200 798.852, 568 801.119 C 565.800 803.386, 564 805.570, 564 805.972 C 564 806.374, 562.650 808.116, 561 809.843 C 557.493 813.512, 557.212 815, 560.025 815 C 561.246 815, 562.414 814.040, 562.969 812.581 C 563.475 811.251, 565.151 809.559, 566.694 808.822 C 568.327 808.042, 569.637 806.521, 569.827 805.184 C 570.007 803.921, 571.214 802.404, 572.509 801.814 C 573.805 801.224, 575.359 799.547, 575.964 798.087 C 576.568 796.628, 578.400 794.172, 580.034 792.630 C 581.669 791.087, 583.269 788.778, 583.590 787.499 C 583.932 786.135, 585.184 784.920, 586.617 784.560 C 588.291 784.140, 589.243 783.036, 589.639 781.054 C 590.034 779.081, 590.988 777.969, 592.643 777.554 C 593.977 777.219, 595.575 775.832, 596.195 774.472 C 596.814 773.113, 597.962 772, 598.746 772 C 599.530 772, 602.542 769.452, 605.440 766.339 C 608.657 762.882, 612.403 760.015, 615.058 758.977 C 620.473 756.860, 620.969 755.553, 617.113 753.559 C 614.248 752.077, 610.073 751.769, 605.352 752.692 M 280.359 755.507 C 280.006 756.427, 280.416 757.844, 281.286 758.714 C 283.410 760.838, 286.227 759.621, 285.820 756.754 C 285.426 753.977, 281.307 753.037, 280.359 755.507 M 623.678 759.656 C 623.305 760.028, 623 761.608, 623 763.167 C 623 765.010, 622.479 766, 621.509 766 C 620.690 766, 618.102 768.097, 615.759 770.659 C 613.417 773.222, 609.700 777.211, 607.500 779.524 C 605.300 781.838, 600.575 787.186, 597 791.410 C 593.425 795.634, 584.538 805.129, 577.250 812.511 C 569.962 819.893, 563.997 826.285, 563.994 826.716 C 563.990 827.147, 562.640 828.267, 560.994 829.203 C 559.261 830.190, 558 831.735, 558 832.874 C 558 834.225, 557.105 835.038, 555.143 835.469 C 553.572 835.814, 550.647 837.598, 548.643 839.433 C 545.739 842.092, 545 843.504, 545 846.385 C 545 850.914, 547.871 851.373, 550.558 847.272 C 551.541 845.771, 554.901 842.059, 558.025 839.022 C 561.149 835.985, 564.237 832.487, 564.887 831.250 C 565.538 830.013, 566.617 828.976, 567.285 828.946 C 567.953 828.917, 573.120 824.079, 578.767 818.196 C 589.094 807.438, 603.032 793.309, 612.721 783.779 C 615.593 780.955, 619.364 778.046, 621.101 777.316 C 624.074 776.065, 624.231 775.740, 623.780 771.744 L 623.300 767.500 627.640 767.619 C 632.648 767.757, 634.764 769.194, 636.668 773.750 C 638.364 777.806, 639 777.861, 639 773.952 C 639 772.038, 638.122 770.086, 636.639 768.702 C 635.340 767.491, 633.983 765.560, 633.622 764.410 C 632.737 761.587, 625.301 758.032, 623.678 759.656 M 295.607 761.582 C 293.423 767.273, 296.427 776.807, 298.930 772.130 C 300.291 769.587, 300.284 767.112, 298.902 763.149 C 297.697 759.692, 296.543 759.143, 295.607 761.582 M 263.153 765.247 C 261.021 767.379, 261.994 775, 264.399 775 C 265.766 775, 269.162 768.071, 268.399 766.836 C 267.261 764.995, 264.302 764.098, 263.153 765.247 M 309.639 765.694 C 308.660 766.673, 308.880 773, 309.893 773 C 311.747 773, 312.819 766.624, 311.139 765.586 C 310.666 765.294, 309.991 765.342, 309.639 765.694 M 557.342 768 C 555.872 769.650, 553.679 771, 552.470 771 C 547.905 771, 541.617 778.821, 542.738 783.105 C 543.784 787.107, 550.438 784.083, 552.320 778.750 C 552.659 777.788, 553.526 777, 554.246 777 C 554.966 777, 556.728 775.763, 558.162 774.250 C 559.596 772.737, 561.496 770.920, 562.384 770.211 C 563.273 769.501, 564 768.039, 564 766.961 C 564 763.972, 560.436 764.528, 557.342 768 M 578.229 767.171 C 577.553 767.847, 577 769.179, 577 770.130 C 577 771.164, 576.093 771.990, 574.750 772.180 C 573.139 772.409, 572.410 773.281, 572.184 775.250 C 571.762 778.913, 573.581 778.737, 575.922 774.889 C 576.962 773.177, 578.868 771.252, 580.157 770.609 C 581.446 769.967, 582.500 768.785, 582.500 767.984 C 582.500 766.099, 579.813 765.587, 578.229 767.171 M 281.073 771.635 C 279.933 773.084, 279 775.136, 279 776.195 C 279 777.809, 279.608 778.070, 282.750 777.810 C 286.027 777.539, 286.541 777.146, 286.822 774.690 C 287.132 771.985, 285.625 769, 283.950 769 C 283.507 769, 282.212 770.186, 281.073 771.635 M 640 780.453 C 640 783.794, 642.029 788, 643.641 788 C 645.812 788, 646.407 783.271, 644.587 780.493 C 642.468 777.259, 640 777.238, 640 780.453 M 292.241 781.777 C 290.449 783.275, 288.986 785.423, 288.991 786.550 C 289.003 789.211, 287.160 791, 284.407 791 C 283.201 791, 281.955 791.675, 281.638 792.500 C 279.587 797.846, 286.590 798.566, 288.930 793.250 C 289.717 791.462, 290.916 790, 291.595 790 C 293.092 790, 298.206 781.143, 297.432 779.890 C 296.590 778.528, 295.775 778.824, 292.241 781.777 M 478.750 780.394 C 477.788 781.124, 477 782.225, 477 782.841 C 477 784.141, 481.010 785.337, 483.659 784.827 C 486.100 784.357, 486.548 781.417, 484.298 780.629 C 483.309 780.282, 482.050 779.789, 481.500 779.533 C 480.950 779.277, 479.712 779.665, 478.750 780.394 M 565.277 781.718 C 562.571 786.065, 557.580 791.472, 548.133 800.292 C 543.869 804.272, 543 805.669, 543 808.542 C 543 810.444, 543.158 812, 543.351 812 C 546.307 812, 549.814 809.402, 550.896 806.411 C 551.650 804.326, 553.150 802.513, 554.566 801.975 C 556.146 801.374, 556.762 800.542, 556.374 799.532 C 556.051 798.689, 556.284 798, 556.893 798 C 557.502 798, 558 797.325, 558 796.500 C 558 795.675, 558.689 795, 559.531 795 C 560.374 795, 561.347 794.212, 561.694 793.250 C 562.041 792.288, 564.310 789.347, 566.735 786.716 C 569.160 784.085, 570.962 781.385, 570.739 780.716 C 569.947 778.337, 567.050 778.869, 565.277 781.718 M 273.110 782.396 C 271.796 783.124, 270.154 784.778, 269.462 786.071 C 268.770 787.363, 266.696 788.926, 264.852 789.543 C 262.170 790.441, 261.440 791.265, 261.199 793.668 C 260.732 798.322, 263.261 799.853, 267.577 797.529 C 269.460 796.515, 271 795.104, 271 794.393 C 271 793.683, 272.575 791.900, 274.500 790.432 C 277.284 788.309, 278 787.071, 278 784.381 C 278 780.694, 276.950 780.267, 273.110 782.396 M 305.750 789.977 C 301.749 793.902, 301.016 796.409, 303.582 797.393 C 306.584 798.545, 310.778 798.022, 311.393 796.418 C 312.653 793.135, 311.757 785.774, 310.143 786.149 C 309.789 786.232, 307.813 787.954, 305.750 789.977 M 647.442 798.377 C 646.657 801.502, 647.526 803, 650.122 803 C 651.780 803, 652.073 802.440, 651.813 799.758 C 651.416 795.642, 648.369 794.680, 647.442 798.377 M 309 806.286 C 309 809.047, 310.332 809.890, 311.559 807.904 C 311.932 807.301, 311.508 806.080, 310.618 805.190 C 309.127 803.699, 309 803.785, 309 806.286 M 301.084 817.656 C 299.728 822.570, 300.372 823.215, 305.839 822.409 C 312.904 821.368, 313.292 818.753, 306.872 815.434 C 302.846 813.352, 302.205 813.598, 301.084 817.656 M 551.946 819.102 C 551.144 820.599, 551.273 821.168, 552.524 821.648 C 554.251 822.310, 555.659 821.341, 556.179 819.133 C 556.684 816.982, 553.094 816.956, 551.946 819.102 M 350.964 827.583 C 348.471 833.400, 348.496 834.705, 351.119 835.538 C 354.622 836.649, 357.789 834.210, 358.528 829.831 C 359.861 821.946, 354.113 820.238, 350.964 827.583 M 580.797 831.680 C 579.860 831.927, 578.825 832.977, 578.496 834.013 C 578.167 835.050, 577.061 836.163, 576.038 836.488 C 575.015 836.813, 572.990 838.636, 571.538 840.539 C 570.086 842.443, 568.246 844, 567.449 844 C 566.652 844, 566 844.456, 566 845.013 C 566 846.169, 560.331 852.610, 554.649 857.909 C 548.636 863.516, 545.997 868.766, 546.015 875.088 C 546.030 880.246, 547.239 884.094, 548.461 882.872 C 548.774 882.559, 549.701 879.729, 550.521 876.582 C 551.562 872.583, 552.912 870.104, 555.005 868.342 C 556.652 866.956, 558 865.317, 558 864.699 C 558 864.081, 559.100 862.433, 560.444 861.038 C 561.788 859.642, 564.488 856.843, 566.444 854.817 C 568.400 852.792, 570 850.733, 570 850.241 C 570 849.750, 571.125 848.292, 572.500 847 C 573.875 845.708, 575.002 844.167, 575.005 843.576 C 575.010 842.335, 579.746 837.191, 582.873 835.029 C 586.695 832.387, 585.491 830.445, 580.797 831.680 M 586.294 862.843 C 585.731 863.204, 584.941 864.551, 584.540 865.835 C 584.138 867.125, 582.552 868.609, 580.998 869.151 C 579.353 869.724, 577.941 871.097, 577.601 872.455 C 577.268 873.778, 576.011 875.031, 574.680 875.365 C 573.395 875.688, 571.821 877.097, 571.184 878.496 C 570.546 879.895, 568.933 881.455, 567.598 881.963 C 566.263 882.470, 564.878 883.810, 564.519 884.940 C 564.160 886.071, 562.880 887.243, 561.674 887.546 C 560.468 887.848, 558.715 889.432, 557.777 891.065 C 556.840 892.699, 555.269 894.319, 554.287 894.666 C 553.304 895.014, 551.530 896.170, 550.344 897.235 C 548.624 898.780, 547.779 898.952, 546.160 898.086 C 543.083 896.439, 542.188 896.735, 540.526 899.950 C 538.608 903.659, 538.571 907.399, 540.438 908.948 C 541.563 909.883, 543.087 909.759, 547.461 908.381 C 552.090 906.922, 553.706 905.754, 556.898 901.560 C 559.016 898.777, 564.174 893.125, 568.359 889 C 572.544 884.875, 575.975 881.061, 575.984 880.525 C 575.993 879.988, 578.860 876.838, 582.355 873.525 C 588.989 867.237, 591.098 863.635, 588.689 862.711 C 587.935 862.422, 586.858 862.481, 586.294 862.843 M 311.665 869.608 C 308.346 872.927, 308.307 875.225, 311.500 879.411 C 314.540 883.396, 314.582 884.293, 311.903 887.917 C 309.522 891.138, 309.665 893.774, 312.309 895.393 C 315.645 897.435, 316.525 894.312, 316.512 880.468 C 316.504 872.163, 316.119 867.540, 315.415 867.305 C 314.818 867.106, 313.130 868.142, 311.665 869.608 M 390.250 870.684 C 389.012 870.934, 388 871.578, 388 872.113 C 388 872.683, 391.010 872.966, 395.250 872.794 C 399.238 872.632, 402.500 872.050, 402.500 871.500 C 402.500 870.455, 394.137 869.897, 390.250 870.684 M 591.554 879.896 C 590.711 881.525, 589.162 883.131, 588.110 883.465 C 587.059 883.799, 585.928 885.151, 585.597 886.469 C 585.266 887.788, 584.065 889.162, 582.929 889.523 C 581.792 889.883, 580.106 891.420, 579.181 892.937 C 578.256 894.454, 574.913 898.059, 571.750 900.948 C 565.368 906.778, 564.277 909.596, 568.750 908.698 C 574.359 907.571, 577 906.075, 577 904.025 C 577 902.911, 577.900 901.100, 579 900 C 580.100 898.900, 581 897.617, 581 897.148 C 581 896.679, 584.150 892.657, 588 888.209 C 591.850 883.761, 595 879.671, 595 879.120 C 595 876.721, 592.958 877.181, 591.554 879.896 M 286.689 881.145 C 284.032 884.046, 284.906 886.441, 288.758 886.813 C 291.933 887.120, 292 887.043, 292 883.063 C 292 878.428, 289.878 877.662, 286.689 881.145 M 609.881 884.250 C 609.815 885.487, 609.850 888.986, 609.960 892.024 C 610.202 898.779, 607.887 901.724, 603.285 900.516 C 597.885 899.098, 591.630 899.855, 589.717 902.157 C 585.549 907.174, 591.552 908.796, 596.509 903.992 C 599.720 900.879, 599.840 900.849, 602.389 902.519 C 604.228 903.724, 606.003 904.034, 608.439 903.577 C 612.503 902.815, 613.480 900.685, 612.564 894.580 C 612.052 891.165, 612.338 889.839, 614.062 887.648 C 615.780 885.464, 615.957 884.653, 614.974 883.469 C 613.062 881.165, 610.020 881.632, 609.881 884.250" stroke="none" fill="#171916" fill-rule="evenodd"/>
</svg>