<svg role="img" aria-labelledby="artwork-title" shape-rendering="geometricPrecision" xmlns="http://www.w3.org/2000/svg" width="1200" height="1200" viewBox="0 0 1200 1200" version="1.1">
	<title id="artwork-title">Mascot sending an API request</title>
	<path d="M 867 242.863 C 867 243.337, 863.513 244.281, 859.250 244.959 C 854.987 245.637, 850.150 246.994, 848.500 247.975 C 846.850 248.955, 843.908 250.265, 841.963 250.886 C 840.018 251.507, 835.968 254.402, 832.963 257.321 C 829.958 260.239, 826.684 262.933, 825.687 263.306 C 823.802 264.013, 818 261.589, 818 260.096 C 818 259.626, 816.636 258.678, 814.968 257.987 C 813.301 257.296, 810.314 255.442, 808.331 253.866 C 806.348 252.290, 803.836 251, 802.749 251 C 801.662 251, 796.949 250.075, 792.274 248.945 C 783.596 246.847, 781.326 246.924, 773.215 249.591 C 770.858 250.366, 767.663 251, 766.115 251 C 764.567 251, 761.545 252.240, 759.400 253.756 C 757.255 255.271, 754.237 257.161, 752.693 257.955 C 748.452 260.137, 736.402 272.334, 733.798 277.081 C 727.854 287.919, 727.721 288.041, 723.205 286.779 C 721.017 286.168, 714.912 285.985, 708.299 286.332 C 695.367 287.012, 689.885 289.167, 679.656 297.588 C 673.469 302.682, 664.006 314.387, 663.991 316.966 C 663.986 317.810, 662.875 320.750, 661.522 323.500 C 659.575 327.458, 659.056 330.090, 659.031 336.128 C 658.997 344.548, 658.396 345.579, 652.905 346.655 C 651.032 347.022, 648.108 348.375, 646.406 349.661 C 644.704 350.947, 642.872 352, 642.335 352 C 641.798 352, 639.015 354.925, 636.150 358.500 C 633.285 362.075, 630.505 365, 629.971 365 C 629.437 365, 629 365.608, 629 366.351 C 629 367.094, 627.809 369.907, 626.354 372.601 C 621.513 381.564, 619.829 398.301, 622.493 410.965 C 623.996 418.111, 625.690 421.259, 631.861 428.375 C 635.898 433.031, 635.753 436.835, 631.316 442.654 C 628.632 446.175, 628.500 446.851, 628.500 457.094 C 628.500 466.833, 628.709 468.062, 630.730 470.213 C 631.956 471.518, 633.496 474.142, 634.152 476.043 C 635.420 479.720, 639.983 486.049, 643.825 489.461 C 645.950 491.348, 646.168 492.431, 646.355 502.013 C 646.545 511.793, 646.782 512.914, 649.874 518.639 C 653.444 525.250, 653.249 527.726, 648.977 530.012 C 647.890 530.594, 647 531.661, 647 532.382 C 647 533.103, 645.425 535.315, 643.500 537.297 C 641.575 539.279, 640 541.626, 640 542.512 C 640 543.399, 638.922 546.458, 637.605 549.312 C 633.054 559.169, 633.251 588.878, 637.925 597.599 C 639.066 599.728, 640 602.230, 640 603.158 C 640 604.087, 641.079 606.129, 642.397 607.696 C 643.716 609.263, 645.767 612.410, 646.955 614.690 C 648.144 616.969, 651.386 620.958, 654.161 623.554 L 659.207 628.274 659.925 638.887 C 660.383 645.642, 661.254 650.663, 662.322 652.700 C 663.245 654.461, 664 656.586, 664 657.424 C 664 658.261, 664.869 660.871, 665.932 663.223 C 668.875 669.736, 669.306 671.262, 669.063 674.297 C 668.852 676.934, 670.498 679.732, 677.603 688.812 C 678.759 690.291, 680.471 693.130, 681.407 695.123 C 682.395 697.229, 689.325 704.559, 697.949 712.623 C 713.358 727.031, 716.621 729.600, 723.750 732.939 C 726.087 734.033, 728 735.530, 728 736.264 C 728 738.098, 725.941 740, 723.955 740 C 723.050 740, 719.452 741.847, 715.960 744.105 C 712.467 746.362, 708.869 748.500, 707.964 748.855 C 706.083 749.592, 694.356 759.103, 686.206 766.500 C 679.360 772.714, 663 791.598, 663 793.287 C 663 793.973, 660.863 796.763, 658.250 799.486 C 655.638 802.209, 652.709 806.026, 651.743 807.968 C 649.999 811.473, 646.927 816.148, 643.141 821.055 C 642.057 822.461, 639.100 827.924, 636.569 833.196 C 634.039 838.468, 631.345 843.299, 630.582 843.932 C 629.820 844.564, 628.899 846.301, 628.535 847.791 C 628.171 849.281, 626.684 852.233, 625.231 854.351 C 623.019 857.574, 622.591 859.285, 622.604 864.851 C 622.613 868.508, 623.188 872.543, 623.881 873.817 C 624.936 875.755, 624.846 876.852, 623.330 880.517 C 622.333 882.927, 620.525 885.351, 619.313 885.903 C 617.979 886.511, 616.621 888.532, 615.876 891.020 C 614.275 896.363, 610.577 898.480, 605.234 897.114 C 603.180 896.589, 599.138 895.856, 596.251 895.486 C 593.364 895.116, 590.750 894.405, 590.442 893.906 C 589.723 892.743, 559.296 892.712, 558.578 893.874 C 558.281 894.355, 553.642 895.287, 548.269 895.945 C 537.463 897.269, 531.608 898.791, 525.298 901.918 C 518.190 905.440, 516.621 904.549, 515.014 896.073 C 514.469 893.198, 513.813 890.507, 513.557 890.092 C 513.301 889.678, 512.413 883.526, 511.584 876.420 C 510.255 865.036, 509.404 860.805, 507.273 855 C 506.971 854.175, 506.816 852.083, 506.929 850.351 C 507.043 848.619, 506.655 846.905, 506.068 846.542 C 505.481 846.179, 505 844.521, 505 842.858 C 505 841.194, 504.122 836.383, 503.049 832.167 C 501.976 827.950, 500.574 820.225, 499.933 815 C 499.293 809.775, 497.921 802.359, 496.884 798.520 C 495.848 794.681, 495 789.838, 495 787.757 C 495 785.676, 494.605 783.191, 494.123 782.236 C 492.940 779.894, 489.335 763.594, 487.523 752.395 C 486.713 747.388, 485.364 740.656, 484.525 737.435 C 483.686 734.215, 483 729.901, 483 727.849 C 483 725.797, 482.592 723.866, 482.094 723.558 C 481.596 723.250, 481.423 722.100, 481.710 721.003 C 481.997 719.905, 481.479 717.422, 480.559 715.484 C 478.577 711.307, 476.042 699.912, 476.017 695.070 C 476.008 693.184, 474.828 686.659, 473.397 680.570 C 471.278 671.562, 469.927 668.161, 466.147 662.312 C 463.591 658.359, 460.938 655.096, 460.250 655.062 C 459.563 655.028, 459 654.550, 459 654 C 459 653.450, 458.380 653, 457.622 653 C 456.865 653, 455.699 652.342, 455.031 651.538 C 454.364 650.734, 451.271 649.069, 448.159 647.840 L 442.500 645.604 369.719 645.470 C 315.685 645.372, 296.636 645.036, 295.769 644.169 C 294.332 642.732, 112.005 642.467, 109.236 643.897 C 108.281 644.391, 105.475 645.591, 103 646.564 C 100.525 647.538, 96.839 649.609, 94.809 651.167 C 92.778 652.725, 90.740 654, 90.278 654 C 89.816 654, 88.910 655.237, 88.264 656.750 C 87.618 658.263, 86.145 660.651, 84.992 662.059 C 83.661 663.682, 82.680 666.698, 82.308 670.309 C 81.985 673.439, 81.333 676, 80.860 676 C 80.387 676, 80 677.800, 80 680 C 80 682.200, 80.374 684, 80.832 684 C 81.289 684, 82.190 689.389, 82.835 695.975 C 83.479 702.561, 84.641 709.874, 85.415 712.225 C 86.190 714.576, 87.317 720.550, 87.919 725.500 C 89.319 736.997, 92.029 749, 93.226 749 C 93.736 749, 94.020 750.551, 93.856 752.446 C 93.693 754.342, 93.884 756.217, 94.280 756.613 C 94.676 757.009, 95.009 758.496, 95.021 759.917 C 95.032 761.337, 95.699 765.425, 96.502 769 C 97.306 772.575, 98.635 780.675, 99.456 787 C 100.973 798.687, 103.909 812, 104.969 812 C 105.290 812, 105.386 813.747, 105.183 815.883 C 104.979 818.020, 105.304 820.070, 105.906 820.442 C 106.508 820.814, 107 822.906, 107 825.091 C 107 827.275, 107.877 831.667, 108.949 834.849 C 110.021 838.032, 111.393 844.655, 111.998 849.568 C 112.602 854.480, 113.975 861.360, 115.049 864.855 C 116.122 868.351, 117 873.162, 117 875.546 C 117 877.931, 117.450 880.160, 118 880.500 C 118.550 880.840, 119 882.626, 119 884.470 C 119 886.313, 119.906 890.674, 121.013 894.161 C 122.120 897.647, 123.483 905.159, 124.043 910.854 C 124.602 916.549, 125.756 922.849, 126.606 924.854 C 127.457 926.859, 128.380 931.875, 128.658 936 C 128.936 940.125, 129.416 944.175, 129.725 945 C 130.034 945.825, 130.189 947.738, 130.068 949.250 C 129.948 950.763, 130.333 952, 130.925 952 C 131.516 952, 132 952.643, 132 953.429 C 132 954.214, 132.707 955.564, 133.571 956.429 C 135.722 958.579, 149.797 958.692, 150.613 956.566 C 151.502 954.250, 149.076 937.087, 146.942 930.585 C 145.861 927.292, 144.722 921.426, 144.410 917.549 C 144.099 913.672, 143.479 909.600, 143.032 908.500 C 141.066 903.653, 138.890 893.840, 138.044 886 C 137.539 881.325, 136.436 874.868, 135.592 871.651 C 134.748 868.435, 133.549 861.010, 132.928 855.151 C 132.306 849.293, 131.431 843.600, 130.984 842.500 C 129.511 838.881, 127.134 827.681, 125.502 816.680 C 124.619 810.729, 123.489 804.785, 122.990 803.473 C 122.491 802.160, 121.409 795.952, 120.586 789.676 C 119.611 782.243, 118.385 777.071, 117.067 774.838 C 115.607 772.364, 114.774 768.326, 114.072 760.320 C 113.536 754.220, 112.176 746.491, 111.049 743.146 C 109.922 739.800, 109 734.998, 109 732.474 C 109 726.106, 106.899 714, 105.794 714 C 105.293 714, 105.191 713.500, 105.569 712.888 C 105.947 712.277, 105.760 711.469, 105.153 711.094 C 104.546 710.719, 103.581 706.832, 103.008 702.456 C 102.435 698.080, 101.524 691.748, 100.983 688.385 C 98.962 675.812, 100.601 669.853, 107.300 665.420 L 111.449 662.675 196.474 663.420 C 243.239 663.831, 316.600 664.347, 359.500 664.567 C 402.400 664.788, 438.574 665.224, 439.887 665.537 C 446.476 667.109, 456.256 679.785, 454.054 683.900 C 452.374 687.039, 452.799 689.752, 455.924 695.821 C 459.204 702.191, 461.378 711.106, 462.956 724.655 C 463.542 729.689, 464.643 735.314, 465.401 737.155 C 466.159 738.995, 467.079 743.875, 467.445 748 C 467.811 752.125, 468.471 756.400, 468.911 757.500 C 470.618 761.769, 473.924 777.846, 474.502 784.696 C 474.837 788.655, 475.961 794.866, 477 798.500 C 478.039 802.134, 479.197 808.345, 479.574 812.304 C 479.950 816.262, 480.524 819.950, 480.848 820.500 C 481.173 821.050, 481.307 822.513, 481.148 823.750 C 480.988 824.987, 481.288 826, 481.815 826 C 482.342 826, 483.019 827.238, 483.320 828.750 C 483.621 830.263, 484.318 833.525, 484.868 836 C 485.419 838.475, 486.372 844.511, 486.987 849.413 C 487.602 854.316, 488.546 859.152, 489.086 860.160 C 489.625 861.169, 490.778 867.508, 491.648 874.247 C 492.517 880.986, 493.634 886.756, 494.130 887.069 C 495.575 887.980, 497.916 900.884, 498.220 909.617 L 498.500 917.651 491.750 924.145 C 488.038 927.718, 485 931.344, 485 932.203 C 485 933.063, 484.167 933.985, 483.148 934.251 C 482.014 934.548, 480.580 936.725, 479.450 939.868 C 478.435 942.690, 477.298 945, 476.924 945 C 475.604 945, 473.859 950.803, 474.178 954.131 L 474.500 957.500 481.870 957.796 C 489.773 958.114, 493 956.678, 493 952.845 C 493 951.830, 493.450 951, 494 951 C 494.550 951, 495 950.100, 495 949 C 495 947.900, 495.353 947, 495.784 947 C 496.216 947, 497.412 945.537, 498.443 943.750 C 502.348 936.979, 514.577 926.817, 525.068 921.625 C 528.056 920.146, 531.625 918.317, 533 917.559 C 534.375 916.801, 540.124 915.233, 545.776 914.073 C 559.094 911.341, 591.457 910.976, 599.500 913.466 C 602.250 914.318, 607.406 915.702, 610.959 916.541 C 614.511 917.381, 618.111 918.687, 618.959 919.444 C 619.806 920.201, 623.200 921.598, 626.500 922.549 C 632.742 924.347, 641.647 928.860, 646.063 932.465 C 647.473 933.615, 650.477 935.167, 652.739 935.914 C 656.460 937.142, 657.167 937.087, 660.176 935.335 C 665.903 931.999, 665.320 926.392, 658.579 919.967 C 653.166 914.808, 647.411 911.381, 639.500 908.605 C 634.257 906.766, 633.459 906.142, 633.175 903.662 C 632.996 902.100, 633.493 900.075, 634.279 899.162 C 635.064 898.248, 636.365 896.150, 637.170 894.500 C 637.974 892.850, 639.165 890.600, 639.816 889.500 C 640.467 888.400, 641.399 886.365, 641.888 884.979 C 643.022 881.762, 647.761 878.996, 648.922 880.873 C 649.357 881.577, 650.341 882.009, 651.110 881.833 C 651.878 881.656, 653.855 882.466, 655.503 883.632 C 657.151 884.798, 659.941 886.063, 661.703 886.445 C 663.465 886.826, 665.940 887.925, 667.203 888.887 C 668.466 889.848, 670.962 891.222, 672.750 891.939 C 674.538 892.656, 676 893.638, 676 894.121 C 676 894.605, 676.689 895, 677.531 895 C 678.374 895, 679.306 895.634, 679.604 896.410 C 679.901 897.185, 681.311 898.112, 682.737 898.470 C 688.074 899.810, 700 910.539, 700 914 C 700 916.976, 694.854 921.733, 687.254 925.784 C 683.899 927.572, 681.008 929.364, 680.828 929.767 C 680.282 930.987, 669.391 939, 668.279 939 C 667.709 939, 665.082 941.587, 662.441 944.750 C 659.799 947.913, 656.719 951.253, 655.595 952.173 C 653.592 953.814, 653.589 953.888, 655.431 955.923 C 657.088 957.754, 658.461 958, 667.033 958 C 674.269 958, 677.060 957.632, 677.949 956.562 C 678.605 955.771, 681.865 953.183, 685.192 950.812 C 688.520 948.440, 692.650 945.335, 694.371 943.910 C 698.102 940.822, 709.094 935.556, 714 934.506 C 715.925 934.094, 719.407 932.648, 721.738 931.291 C 725.099 929.335, 728.298 928.614, 737.201 927.807 C 752.351 926.435, 773.205 928.036, 777.033 930.866 C 778.494 931.946, 781.897 933.508, 784.595 934.337 C 787.293 935.166, 791.283 936.779, 793.461 937.922 C 795.640 939.065, 798.130 940, 798.995 940 C 799.860 940, 803.012 941.575, 806 943.500 C 808.988 945.425, 812.175 947, 813.081 947 C 813.988 947, 815.803 947.828, 817.115 948.840 C 818.427 949.852, 820.961 951.178, 822.747 951.787 C 824.533 952.396, 827.501 954.043, 829.342 955.447 L 832.689 958 914.144 958 C 976.165 958, 995.886 957.714, 996.800 956.800 C 998.962 954.638, 998.070 951.430, 994.404 948.184 C 992.426 946.433, 990.176 945, 989.404 945 C 988.632 945, 988 944.550, 988 944 C 988 943.437, 985.183 943, 981.550 943 C 976.993 943, 974.864 942.580, 974.298 941.569 C 973.401 939.965, 974.739 920.302, 975.898 918.060 C 976.713 916.483, 977.892 916.064, 989 913.406 C 998.840 911.052, 1025.367 910.982, 1035 913.285 C 1038.575 914.140, 1044.924 915.312, 1049.109 915.890 C 1053.293 916.468, 1058.918 918.025, 1061.609 919.351 C 1064.299 920.676, 1068.261 922.074, 1070.413 922.456 C 1075.783 923.411, 1087.808 929.164, 1088.272 931 C 1088.480 931.825, 1087.971 937.822, 1087.141 944.327 C 1085.831 954.588, 1085.821 956.274, 1087.065 957.062 C 1089.293 958.471, 1103.578 958.220, 1104.762 956.750 C 1106.354 954.773, 1107.860 946.260, 1106.804 945.204 C 1106.235 944.635, 1108.606 941.516, 1112.939 937.131 L 1120 929.986 1120 890.958 C 1120 858.676, 1119.751 851.547, 1118.560 849.715 C 1117.767 848.497, 1116.447 843.304, 1115.626 838.176 C 1114.805 833.048, 1113.496 827.873, 1112.718 826.676 C 1111.940 825.479, 1110.721 822.025, 1110.010 819 C 1109.298 815.975, 1108.140 813.160, 1107.437 812.744 C 1106.733 812.329, 1105.379 809.629, 1104.428 806.744 C 1103.477 803.860, 1101.642 799.933, 1100.349 798.018 C 1099.057 796.103, 1098 794.235, 1098 793.868 C 1098 793.501, 1096.425 790.861, 1094.500 788 C 1092.575 785.139, 1091 782.332, 1091 781.760 C 1091 778.601, 1063.634 750.739, 1058.206 748.373 C 1056.395 747.583, 1054.659 746.274, 1054.348 745.463 C 1054.037 744.653, 1049.669 741.915, 1044.641 739.378 C 1039.613 736.842, 1034.375 733.968, 1033 732.993 C 1031.625 732.018, 1030.050 731.096, 1029.500 730.944 C 1028.950 730.793, 1026.025 729.573, 1023 728.234 C 1019.975 726.895, 1013.450 724.470, 1008.500 722.845 C 1003.550 721.220, 998.825 719.617, 998 719.282 C 997.175 718.947, 996.275 718.593, 996 718.496 C 995.725 718.399, 993.827 717.572, 991.782 716.660 C 989.737 715.747, 987.037 714.994, 985.782 714.987 C 984.527 714.980, 980.576 714.058, 977.002 712.938 C 973.428 711.818, 969.191 711.036, 967.586 711.201 C 963.073 711.664, 963.358 709.451, 968.479 704.256 C 971.039 701.660, 974.091 697.831, 975.262 695.749 C 976.432 693.666, 979.215 690.888, 981.445 689.576 C 987.492 686.018, 989.593 683.128, 990.844 676.646 C 991.603 672.716, 992.933 669.702, 994.892 667.471 C 996.496 665.644, 998.093 662.878, 998.442 661.324 C 998.790 659.771, 999.933 657.375, 1000.981 656 C 1002.717 653.723, 1003.582 653.494, 1010.693 653.429 C 1017.078 653.372, 1020.029 652.754, 1026.892 650.038 C 1031.507 648.211, 1036.082 645.918, 1037.058 644.942 C 1038.035 643.965, 1039.096 643.429, 1039.417 643.750 C 1039.738 644.071, 1040 643.808, 1040 643.167 C 1040 642.525, 1040.607 642, 1041.350 642 C 1042.743 642, 1056 629.222, 1056 627.879 C 1056 627.463, 1057.332 625.665, 1058.960 623.883 C 1060.588 622.101, 1062.194 619.394, 1062.529 617.868 C 1062.864 616.342, 1063.972 614.034, 1064.990 612.740 C 1066.009 611.445, 1067.359 607.535, 1067.991 604.051 C 1068.622 600.567, 1069.895 596.563, 1070.820 595.152 C 1072.112 593.181, 1072.500 590.267, 1072.500 582.544 C 1072.500 577.020, 1072.089 571.600, 1071.586 570.500 C 1071.084 569.400, 1070.596 568.275, 1070.503 568 C 1070.409 567.725, 1069.865 566.375, 1069.294 565 C 1068.722 563.625, 1067.914 560.925, 1067.497 559 C 1067.080 557.075, 1065.898 554.427, 1064.870 553.115 C 1063.841 551.803, 1063 550.197, 1063 549.545 C 1063 548.893, 1061.425 546.520, 1059.500 544.271 C 1055.240 539.294, 1055.068 536.156, 1058.817 531.785 C 1064.699 524.928, 1068.209 506.996, 1064.886 500.787 C 1062.991 497.246, 1065.325 492.039, 1070.977 487.195 C 1073.740 484.827, 1076 482.294, 1076 481.567 C 1076 480.840, 1076.635 479.718, 1077.412 479.073 C 1078.189 478.428, 1079.364 475.561, 1080.025 472.700 C 1080.685 469.840, 1081.961 466.375, 1082.860 465 C 1084.865 461.934, 1084.982 448.888, 1083.026 446.531 C 1082.327 445.689, 1082.090 445, 1082.500 445 C 1082.910 445, 1082.792 444.438, 1082.238 443.750 C 1081.684 443.063, 1080.923 441.059, 1080.547 439.299 C 1079.672 435.207, 1072.550 424.138, 1070.252 423.299 C 1067.710 422.371, 1064.380 418.853, 1063.562 416.231 C 1063.046 414.581, 1063.520 413.170, 1065.303 411.052 C 1067.294 408.685, 1067.878 406.587, 1068.430 399.821 C 1069.636 385.029, 1067.706 374.619, 1061.656 363.288 C 1059.338 358.945, 1048.185 347.465, 1044.376 345.502 C 1042.244 344.403, 1040.050 342.941, 1039.500 342.253 C 1038.165 340.584, 1028.879 338.002, 1021.734 337.313 C 1018.563 337.007, 1015.677 336.287, 1015.322 335.711 C 1014.966 335.136, 1014.338 331.703, 1013.927 328.083 C 1012.002 311.148, 1001.683 295.228, 985.030 283.500 C 982.687 281.850, 980.366 280.614, 979.872 280.754 C 979.378 280.894, 977.067 279.769, 974.737 278.254 C 970.608 275.570, 970.132 275.500, 956 275.500 C 941.720 275.500, 941.446 275.542, 937.906 278.250 C 932.103 282.690, 927.444 281.472, 925.477 275 C 923.613 268.867, 909.166 253.725, 902.317 250.726 C 900.768 250.048, 898.366 248.723, 896.981 247.782 C 895.580 246.832, 890.362 245.514, 885.231 244.815 C 880.154 244.124, 876 243.207, 876 242.779 C 876 242.351, 873.975 242, 871.500 242 C 869.025 242, 867 242.388, 867 242.863 M 857.561 264.432 C 854.294 265.183, 851.128 266.472, 850.526 267.295 C 849.924 268.119, 847.871 269.470, 845.965 270.297 C 840.379 272.722, 828 285.855, 828 289.357 C 828 290.852, 835.397 287.223, 836.274 285.297 C 836.850 284.034, 837.683 283, 838.126 283 C 838.568 283, 840.596 281.538, 842.631 279.750 C 844.666 277.962, 848.845 275.208, 851.916 273.630 C 856.868 271.084, 858.817 270.705, 869.147 270.277 C 880.227 269.819, 881.104 269.931, 887.147 272.573 C 890.641 274.101, 894.429 276.172, 895.564 277.175 C 896.700 278.179, 897.892 279, 898.214 279 C 898.537 279, 900.375 280.575, 902.300 282.500 C 904.225 284.425, 906.520 286, 907.400 286 C 909.423 286, 909.410 285.845, 907.020 281.281 C 903.943 275.406, 895.777 268.499, 888.096 265.274 C 883.254 263.241, 864.937 262.736, 857.561 264.432 M 780.499 268.623 C 779.656 269.240, 776.244 270.054, 772.917 270.430 C 768.174 270.966, 765.856 271.877, 762.184 274.642 C 756.140 279.195, 748.180 288.417, 747.344 291.833 C 746.986 293.300, 746.231 294.802, 745.666 295.170 C 744.277 296.078, 744.051 300.148, 745.415 299.700 C 746.012 299.504, 746.647 298.342, 746.827 297.118 C 747.010 295.868, 748.216 294.488, 749.577 293.971 C 750.909 293.464, 752 292.353, 752 291.502 C 752 289.272, 759.923 281, 762.060 281 C 763.053 281, 764.151 280.100, 764.500 278.999 C 765.259 276.608, 767.213 275.496, 772.254 274.586 C 774.319 274.213, 776.886 272.965, 777.959 271.813 C 779.669 269.978, 780.689 269.788, 786.205 270.276 C 789.667 270.582, 794.283 271.770, 796.461 272.916 C 800.478 275.029, 806 275.727, 806 274.122 C 806 272.626, 803.701 271.363, 798.500 270.001 C 795.750 269.281, 793.116 268.481, 792.646 268.222 C 790.878 267.251, 781.971 267.545, 780.499 268.623 M 938.101 298.011 C 936.232 299.054, 933.420 300.355, 931.851 300.902 C 930.283 301.449, 929 302.519, 929 303.281 C 929 305.356, 930.021 305.982, 931.858 305.035 C 935.944 302.927, 946.063 300.812, 950.099 301.221 C 955.069 301.726, 963.625 303.792, 966.236 305.118 C 967.191 305.603, 968.477 306, 969.092 306 C 969.708 306, 971.626 307.109, 973.356 308.465 C 981.063 314.506, 984.305 317.756, 986.107 321.250 C 987.170 323.313, 988.463 325, 988.980 325 C 989.497 325, 990.464 326.913, 991.128 329.250 C 992.808 335.155, 994 336.121, 994 331.578 C 994 324.309, 989.181 314.440, 982.243 307.502 C 976.766 302.025, 974.899 300.849, 968.106 298.596 C 958.053 295.261, 943.536 294.978, 938.101 298.011 M 702.791 306.988 C 701.302 307.437, 698.757 308.749, 697.137 309.902 C 695.517 311.056, 693.793 312, 693.306 312 C 691.909 312, 684 319.488, 684 320.810 C 684 321.464, 683.569 322, 683.042 322 C 680.791 322, 677 330.682, 677 335.838 C 677 338.677, 677.340 341, 677.756 341 C 678.172 341, 679.583 338.637, 680.893 335.750 C 683.735 329.483, 692.973 318.582, 697.364 316.313 C 699.089 315.422, 700.950 314.080, 701.500 313.330 C 702.790 311.573, 713.747 309.814, 721.125 310.180 C 727.557 310.499, 729.452 309.535, 726.557 307.418 C 724.401 305.841, 707.605 305.537, 702.791 306.988 M 997.380 355.452 C 996.083 358.833, 1000.595 360.398, 1003.063 357.424 C 1004.147 356.117, 1004.126 355.692, 1002.936 354.939 C 1000.766 353.566, 998.006 353.821, 997.380 355.452 M 1018.075 355.410 C 1017.121 356.559, 1017.479 356.946, 1020.005 357.501 C 1021.711 357.876, 1024.478 359.379, 1026.154 360.841 C 1034.916 368.484, 1046 380.423, 1046 382.216 C 1046 382.712, 1046.450 382.840, 1047 382.500 C 1048.564 381.533, 1048.172 377.280, 1046.458 376.622 C 1045.610 376.297, 1044.113 374.236, 1043.131 372.044 C 1041.095 367.497, 1033.583 360.435, 1029.760 359.476 C 1028.346 359.121, 1026.169 357.744, 1024.921 356.415 C 1022.364 353.694, 1019.810 353.319, 1018.075 355.410 M 654.750 365.689 C 653.788 365.941, 653 366.763, 653 367.517 C 653 368.270, 652.105 369.514, 651.010 370.280 C 644.338 374.954, 637.651 390.773, 642.750 389.820 C 643.837 389.616, 645.120 387.625, 646.137 384.560 C 647.284 381.106, 649.607 377.754, 653.887 373.382 C 661.502 365.603, 661.696 363.874, 654.750 365.689 M 818.536 382.646 C 807.911 392.420, 799.177 396.310, 784.858 397.647 C 772.213 398.828, 765.612 396.639, 751.230 386.500 C 750.152 385.740, 749.053 386.436, 746.656 389.395 C 740.443 397.065, 732.580 405.096, 729.300 407.123 C 724.524 410.075, 716.112 412.983, 712.014 413.100 C 704.475 413.314, 703.673 413.981, 701.866 421.542 C 699.697 430.623, 697.747 434.238, 693.461 437.130 C 688.276 440.629, 686.006 445.076, 685.968 451.807 C 685.951 454.938, 685.290 462.225, 684.500 468 C 683.710 473.775, 683.049 480.644, 683.032 483.264 C 683.014 485.884, 682.593 488.809, 682.095 489.764 C 681.597 490.719, 680.699 497.561, 680.099 504.968 C 679.182 516.284, 679.234 518.662, 680.419 519.848 C 681.971 521.399, 685.978 520.832, 688.180 518.748 C 690.978 516.102, 697.058 514.715, 712 513.314 C 732.777 511.367, 747.174 512.542, 755.965 516.904 C 762.723 520.257, 772.859 527.883, 772.944 529.679 C 772.975 530.327, 774.505 532.453, 776.344 534.404 C 779.496 537.746, 779.885 537.887, 783.094 536.864 C 787.499 535.459, 809.597 535.590, 813.100 537.041 C 816.785 538.568, 821.371 536.128, 823.584 531.465 C 825.301 527.847, 833.564 520.018, 835.679 520.006 C 836.327 520.003, 837.452 519.433, 838.179 518.739 C 838.905 518.046, 842.650 516.379, 846.500 515.037 C 853.128 512.724, 854.694 512.596, 876 512.614 C 896.535 512.632, 899.043 512.824, 904.718 514.817 C 908.139 516.018, 911.626 517, 912.468 517 C 913.311 517, 914 517.478, 914 518.063 C 914 518.647, 914.791 518.992, 915.758 518.828 C 918.380 518.384, 927.734 524.445, 934.237 530.803 L 939.974 536.411 943.737 535.020 C 946.277 534.081, 950.587 533.739, 957 533.969 C 962.225 534.155, 968.975 534.352, 972 534.404 L 977.500 534.500 977.810 530.762 C 978.039 527.994, 977.472 526.174, 975.628 523.757 C 972.956 520.253, 970.542 515.073, 970.891 513.592 C 971.009 513.092, 970.548 512.339, 969.866 511.917 C 968.446 511.040, 968.383 496.524, 969.790 494.639 C 970.257 494.012, 971.262 491.528, 972.023 489.118 C 973.394 484.777, 973.380 484.714, 970.454 482.316 C 968.829 480.984, 966.332 479.268, 964.904 478.501 C 959.726 475.722, 955.135 470.124, 950.142 460.500 C 947.749 455.888, 947.322 440.230, 949.466 435.713 C 950.397 433.751, 951.010 431.101, 950.829 429.823 C 950.514 427.601, 950.109 427.494, 941.500 427.361 C 926.697 427.133, 914.508 421.907, 905.347 411.861 C 902.150 408.356, 896 396.434, 896 393.743 C 896 388.646, 892.499 387.755, 887.490 391.576 C 874.568 401.432, 846.506 397.129, 832.082 383.080 C 829.213 380.286, 826.109 378.018, 825.183 378.040 C 824.258 378.062, 821.266 380.134, 818.536 382.646 M 871.500 478.632 C 870.400 478.899, 868.825 479.385, 868 479.712 C 867.175 480.040, 865.712 480.210, 864.750 480.091 C 863.788 479.972, 863 480.313, 863 480.849 C 863 481.385, 861.189 482.130, 858.976 482.504 C 854.011 483.343, 845.961 488.724, 844.160 492.407 C 842.095 496.631, 843.431 499.428, 849.413 503.398 C 853.638 506.203, 855.840 507, 859.360 507 C 861.847 507, 864.179 506.519, 864.542 505.932 C 864.905 505.345, 866.707 504.994, 868.547 505.152 C 870.387 505.311, 872.217 505.116, 872.613 504.720 C 873.648 503.685, 879.777 503.831, 880.442 504.906 C 880.750 505.404, 881.904 505.576, 883.006 505.288 C 884.109 505, 885.595 505.249, 886.310 505.842 C 887.025 506.435, 891.185 507.187, 895.555 507.514 C 904.885 508.210, 907.560 507.196, 910.426 501.879 C 912.352 498.306, 912.352 498.305, 910.091 494.647 C 907.423 490.331, 896.477 483.552, 890.500 482.515 C 888.300 482.133, 885.938 481.356, 885.250 480.788 C 884.563 480.220, 884 480.090, 884 480.500 C 884 480.910, 883.415 480.760, 882.700 480.166 C 881.154 478.883, 874.323 477.947, 871.500 478.632 M 727.536 480.942 C 727.215 481.460, 724.826 482.174, 722.227 482.529 C 718.019 483.102, 711.304 485.686, 704.032 489.531 C 699.222 492.073, 697.821 500.655, 701.448 505.360 C 703.473 507.988, 714.395 508.824, 719.088 506.712 C 723.454 504.746, 729.686 503.688, 731.239 504.648 C 731.902 505.057, 734.144 505.270, 736.222 505.120 C 738.422 504.961, 740 505.297, 740 505.924 C 740 507.316, 750.479 507.349, 753.066 505.965 C 754.130 505.395, 755 504.270, 755 503.465 C 755 502.659, 755.659 502, 756.465 502 C 758.717 502, 760.280 498.125, 759.718 493.936 C 759.093 489.277, 754.224 484.494, 748.500 482.916 C 746.300 482.309, 743.719 481.405, 742.764 480.906 C 740.469 479.709, 728.280 479.737, 727.536 480.942 M 374.586 496.557 C 369.615 501.528, 365.779 512, 368.929 512 C 370.284 512, 372.745 521.418, 373.503 529.500 C 373.864 533.350, 375.033 539.119, 376.102 542.319 C 377.171 545.520, 378.328 550.843, 378.673 554.148 C 379.019 557.454, 379.941 560.798, 380.722 561.579 C 381.504 562.361, 381.780 563, 381.336 563 C 380.893 563, 382.209 563.900, 384.261 565 C 389.467 567.790, 391.684 567.516, 395.600 563.600 C 399.663 559.537, 400.071 554.958, 396.978 548.141 C 395.890 545.743, 395 542.957, 395 541.950 C 395 540.942, 394.519 539.821, 393.931 539.457 C 393.343 539.094, 392.953 537.155, 393.065 535.148 C 393.176 533.142, 393.025 530.825, 392.728 530 C 392.432 529.175, 391.707 525.575, 391.117 522 C 390.527 518.425, 389.589 513.700, 389.034 511.500 C 388.478 509.300, 387.779 505.845, 387.480 503.821 C 386.748 498.870, 384.234 496.057, 379.924 495.367 C 377.285 494.945, 375.886 495.257, 374.586 496.557 M 454.673 515.940 C 452.565 518.273, 450.827 521.435, 450.412 523.690 C 450.027 525.786, 448.651 529.834, 447.356 532.686 C 446.060 535.538, 445 538.582, 445 539.449 C 445 540.317, 444.595 541.809, 444.101 542.764 C 440.888 548.968, 438.926 554.513, 437.448 561.565 C 435.881 569.039, 435.877 569.861, 437.389 572.785 C 439.291 576.464, 441.752 578.006, 445.684 577.985 C 449.442 577.964, 450.355 577.242, 452.851 572.318 C 454.017 570.018, 455.422 567.857, 455.973 567.517 C 456.523 567.177, 457.685 564.334, 458.554 561.199 C 459.424 558.065, 460.965 553.475, 461.979 551 C 462.993 548.525, 464.302 543.883, 464.889 540.685 C 465.476 537.487, 466.899 533.547, 468.051 531.928 C 469.262 530.228, 470.383 526.692, 470.707 523.550 C 471.231 518.474, 471.065 517.912, 468.211 515.057 C 463.678 510.524, 459.309 510.809, 454.673 515.940 M 699.963 535.823 C 696.844 537.884, 689 545.715, 689 546.768 C 689 547.190, 687.848 549.231, 686.439 551.304 C 684.723 553.829, 683.981 556.107, 684.189 558.209 C 684.635 562.712, 686.676 562.765, 688.730 558.327 C 689.703 556.222, 691.063 553.905, 691.750 553.179 C 692.438 552.452, 693 551.459, 693 550.973 C 693 550.487, 695.523 547.505, 698.607 544.347 C 701.690 541.188, 704.892 537.568, 705.722 536.302 C 707.151 534.120, 707.106 534.004, 704.865 534.073 C 703.564 534.113, 701.358 534.901, 699.963 535.823 M 853.311 536.560 C 850.495 537.792, 843.944 543.707, 840.190 548.405 C 838.314 550.752, 836 556.586, 836 558.968 C 836 562.098, 838.715 561.385, 841.235 557.594 C 846.266 550.026, 852.564 542.110, 853.595 542.057 C 855.227 541.972, 858 538.582, 858 536.671 C 858 534.711, 857.556 534.701, 853.311 536.560 M 657.167 553.203 C 654.803 557.989, 653.897 561.458, 653.392 567.660 C 652.712 576.012, 654.423 591.525, 656.141 592.587 C 656.632 592.890, 656.827 593.471, 656.576 593.877 C 655.737 595.235, 660.769 600.580, 661.869 599.500 C 663.827 597.578, 664.887 581.610, 664.191 564.511 C 663.602 550.035, 663.262 547.477, 661.889 547.215 C 660.778 547.002, 659.314 548.859, 657.167 553.203 M 1020.936 549.331 C 1016.979 551.135, 1010 557.008, 1010 558.534 C 1010 559.286, 1009.396 560.260, 1008.657 560.700 C 1006.218 562.153, 1004.166 566.428, 1003.473 571.500 C 1003.098 574.250, 1001.758 578.075, 1000.495 580 C 996.977 585.365, 996.800 587.141, 999.054 594.440 C 1001.265 601.598, 1001.215 603.218, 998.368 616.625 C 995.948 628.019, 996.488 629.988, 1002.929 633.250 C 1005.915 634.763, 1009.740 635.990, 1011.429 635.978 C 1015.489 635.949, 1022.381 632.748, 1027.611 628.463 C 1029.935 626.558, 1032.271 625, 1032.802 625 C 1034.978 625, 1044.891 611.719, 1045.490 608 C 1045.535 607.725, 1046.130 606.493, 1046.814 605.262 C 1047.498 604.032, 1048.937 599.532, 1050.013 595.262 C 1056.466 569.654, 1045.934 547.693, 1027.384 548.081 C 1025.248 548.126, 1022.346 548.688, 1020.936 549.331 M 961.750 553.745 C 956.938 553.928, 953 554.468, 953 554.945 C 953 555.422, 952.070 555.570, 950.934 555.273 C 946.215 554.038, 942.626 558.249, 940.940 567 C 938.500 579.657, 936.684 585.431, 933.359 591.106 C 929.131 598.320, 917.101 610.921, 912 613.479 C 910.075 614.444, 907.517 616.132, 906.317 617.229 C 903.207 620.070, 889.084 623.179, 878.500 623.353 C 869.433 623.501, 852 620.451, 852 618.716 C 852 618.257, 851.547 618.162, 850.993 618.504 C 850.439 618.846, 848.752 618.277, 847.243 617.238 C 845.734 616.199, 843.027 614.762, 841.227 614.044 C 836.856 612.300, 828.394 603.839, 823.108 595.926 C 817.012 586.800, 813.899 578.734, 813.295 570.500 C 813.012 566.650, 812.185 562.548, 811.456 561.385 C 809.762 558.681, 803.120 557, 794.130 557 C 787.775 557, 786.958 557.238, 785.073 559.635 C 783.933 561.084, 783 563.694, 783 565.435 C 783 567.176, 782.632 569.027, 782.183 569.550 C 781.733 570.072, 780.802 572.975, 780.113 576 C 778.800 581.770, 772.289 595.987, 770.397 597.218 C 769.790 597.612, 767.338 600.470, 764.947 603.568 C 762.557 606.666, 759.679 609.605, 758.551 610.098 C 757.423 610.592, 753.688 612.769, 750.250 614.937 C 746.813 617.104, 744 618.625, 744 618.317 C 744 618.008, 743.256 618.373, 742.346 619.128 C 740.103 620.988, 704.320 621.136, 703.178 619.289 C 702.767 618.623, 700.257 617.116, 697.600 615.941 C 694.944 614.766, 690.126 611.374, 686.894 608.402 C 680.701 602.709, 679.543 602.142, 678.684 604.381 C 678.210 605.616, 679.588 623.246, 680.577 628.606 C 680.983 630.807, 683.640 633.696, 690.720 639.638 C 693.041 641.585, 694.842 643.476, 694.722 643.839 C 694.602 644.203, 695.485 646.162, 696.685 648.193 C 698.290 650.912, 699.890 652.163, 702.748 652.932 C 706.657 653.985, 709.192 656.183, 712.338 661.250 C 713.700 663.443, 714.801 664.005, 717.773 664.022 C 719.875 664.035, 722.582 664.876, 723.982 665.952 C 727.345 668.536, 729 666.986, 729 661.254 C 729 657.667, 729.813 655.535, 733 650.762 C 735.200 647.468, 737 644.401, 737 643.948 C 737 641.580, 743.905 635.729, 750 632.932 C 751.375 632.301, 753.281 631.383, 754.236 630.892 C 755.191 630.402, 756.440 630, 757.011 630 C 757.581 630, 760.329 628.431, 763.116 626.514 C 770.597 621.368, 774.718 620.530, 782.287 622.615 C 792.228 625.353, 797.152 625.469, 802.530 623.090 C 808.721 620.351, 812.746 620.453, 818.813 623.500 C 822.453 625.328, 825.388 626, 829.736 626 C 838.613 626, 845.595 629.889, 856.187 640.735 C 872.239 657.170, 875.522 661.626, 876.530 668.349 C 877.372 673.969, 879.020 675.010, 883.182 672.552 C 885.313 671.293, 887.149 670.993, 889.746 671.480 C 893.132 672.115, 893.633 671.849, 898.002 667.097 L 902.653 662.038 908.937 662.269 C 915.178 662.498, 915.246 662.471, 919.001 658.245 C 922.959 653.789, 928.158 651, 932.506 651 C 934.479 651, 935.708 649.961, 937.788 646.532 C 939.280 644.074, 940.868 642.049, 941.317 642.032 C 944.488 641.909, 953 632.085, 953 628.546 C 953 627.810, 954.462 625.896, 956.250 624.293 C 960.025 620.909, 963 616.035, 963 613.235 C 963 612.159, 964.125 609.621, 965.500 607.595 C 966.875 605.569, 968 603.706, 968 603.456 C 968 603.205, 968.900 602.100, 970 601 C 971.389 599.611, 972 597.667, 972 594.638 C 972 591.359, 972.700 589.394, 974.817 586.731 C 977.617 583.207, 977.633 583.106, 977.507 569.306 C 977.438 561.672, 977.044 554.880, 976.632 554.213 C 976.219 553.546, 974.671 553.093, 973.191 553.206 C 971.711 553.319, 966.563 553.561, 961.750 553.745 M 516.432 568.275 C 514.819 569.623, 511.700 571.679, 509.500 572.844 C 507.300 574.008, 503.700 576.308, 501.500 577.956 C 499.300 579.603, 495.845 582.072, 493.823 583.442 C 487.648 587.625, 483 592.118, 483 593.904 C 483 594.837, 482.517 596.083, 481.927 596.673 C 481.164 597.436, 482.154 599.121, 485.363 602.517 L 489.871 607.289 493.685 605.489 C 495.783 604.498, 499.300 602.532, 501.500 601.119 C 503.700 599.706, 507.173 597.780, 509.218 596.838 C 512.547 595.305, 521.698 588.516, 527.750 583.089 C 529.422 581.590, 529.999 579.970, 529.995 576.786 C 529.985 568.266, 522.248 563.411, 516.432 568.275 M 758.592 655.879 C 754.710 658.507, 752.999 662.943, 753.006 670.365 C 753.013 678.027, 754.449 683.344, 757.298 686.254 C 758.509 687.491, 760.675 689.926, 762.112 691.665 C 765.397 695.639, 774.521 699.775, 776.865 698.351 C 777.764 697.805, 779.850 695.293, 781.500 692.769 C 785.552 686.572, 788.131 685.186, 792.305 686.963 C 794.062 687.711, 798.701 688.426, 802.612 688.553 C 812.359 688.867, 814.968 690.603, 814.130 696.215 C 814.071 696.609, 814.441 698.031, 814.952 699.375 C 815.859 701.759, 816.143 701.818, 826.564 701.792 L 837.245 701.764 840.831 698.382 C 842.803 696.522, 844.764 695, 845.188 695 C 845.612 695, 846.868 693.218, 847.980 691.040 C 850.276 686.538, 850.501 681.453, 848.885 670.586 L 847.770 663.089 842.903 660.545 C 840.227 659.145, 837.229 658, 836.241 658 C 835.253 658, 833.401 657.269, 832.125 656.375 C 828.868 654.094, 821.572 654.405, 818.318 656.964 C 816.794 658.163, 814.244 658.998, 812.115 658.994 C 807.641 658.988, 800.728 657.141, 799.833 655.713 C 798.945 654.298, 789.125 654.199, 788.215 655.596 C 787.822 656.199, 786.275 656.992, 784.779 657.358 C 783.282 657.724, 781.577 658.923, 780.989 660.021 C 779.540 662.727, 782.313 663.716, 795.314 665.131 C 806.151 666.310, 813.565 665.869, 817.221 663.830 C 824.121 659.983, 831.784 658.926, 834.329 661.472 C 836.159 663.302, 835.070 669.160, 832.340 672.177 C 829.427 675.396, 822.874 678.837, 818.250 679.576 C 815.913 679.950, 814 680.612, 814 681.048 C 814 682.442, 807.944 683.236, 796.847 683.296 C 788.424 683.342, 785.660 683.012, 784.275 681.794 C 783.299 680.936, 779.810 679.463, 776.522 678.522 C 767.745 676.010, 765 673.743, 765 669.003 C 765 664.405, 766.672 662.472, 771.416 661.582 C 776.311 660.664, 776.571 659.534, 772.448 657.102 C 767.113 653.954, 762.091 653.511, 758.592 655.879 M 118.059 682.566 C 111.849 688.176, 111.367 691.016, 114.419 704.030 C 115.838 710.084, 117 716.127, 117 717.460 C 117 718.792, 117.481 720.179, 118.068 720.542 C 118.655 720.905, 119.042 722.619, 118.927 724.351 C 118.812 726.083, 119.199 728.682, 119.787 730.126 C 121.867 735.233, 122.905 740.604, 123.532 749.500 C 123.881 754.450, 125.216 763.450, 126.497 769.500 C 127.779 775.550, 129.128 783.541, 129.494 787.258 C 129.861 790.974, 130.859 795.415, 131.713 797.126 C 132.566 798.836, 133.900 804.570, 134.677 809.868 C 135.453 815.166, 136.964 822.736, 138.034 826.692 C 139.103 830.648, 140.447 838.298, 141.020 843.692 C 141.593 849.086, 142.456 854.400, 142.938 855.500 C 145.801 862.036, 146.965 866.653, 147.511 873.641 C 147.849 877.964, 148.987 884.425, 150.041 888 C 151.094 891.575, 152.400 898.718, 152.941 903.873 C 153.564 909.796, 154.696 914.723, 156.017 917.257 C 157.413 919.936, 158.396 924.460, 158.976 930.884 C 159.989 942.097, 161.458 949.109, 163.820 954 C 165.461 957.398, 165.696 957.509, 171.904 957.802 C 175.420 957.967, 178.744 957.656, 179.291 957.109 C 180.318 956.082, 180.682 947.955, 179.772 946.386 C 179.490 945.899, 178.947 942.225, 178.566 938.223 C 178.185 934.220, 177.067 928.595, 176.081 925.723 C 175.095 922.850, 173.957 916.225, 173.551 911 C 173.146 905.775, 172.187 899.700, 171.422 897.500 C 170.656 895.300, 170.023 892.712, 170.015 891.750 C 170.007 890.788, 169.592 890, 169.094 890 C 168.595 890, 168.423 889.098, 168.712 887.995 C 169 886.892, 168.792 885.429, 168.250 884.745 C 167.708 884.060, 166.963 880.025, 166.593 875.779 C 166.224 871.532, 165.237 866.419, 164.401 864.416 C 163.564 862.414, 162.266 855.314, 161.515 848.638 C 160.765 841.962, 159.442 834.827, 158.576 832.782 C 157.709 830.737, 157 827.501, 157 825.591 C 157 823.681, 156.520 821.821, 155.933 821.459 C 155.343 821.094, 154.949 818.277, 155.051 815.150 C 155.152 812.042, 155.028 808.825, 154.775 808 C 154.522 807.175, 153.527 804.070, 152.563 801.100 C 151.599 798.129, 150.349 790.929, 149.785 785.100 C 149.220 779.270, 147.894 772.297, 146.837 769.605 C 145.780 766.913, 144.642 761.176, 144.309 756.855 C 143.976 752.535, 143.320 749, 142.852 749 C 142.383 749, 142 747.932, 142 746.626 C 142 745.320, 141.291 742.282, 140.424 739.876 C 139.557 737.469, 138.400 730.775, 137.852 725 C 137.269 718.840, 136.060 712.691, 134.929 710.123 C 132.715 705.098, 132.439 700.685, 134.250 699.265 C 135.051 698.638, 187.408 698.237, 280 698.150 C 359.475 698.075, 427.566 697.725, 431.314 697.371 C 439.216 696.626, 441 695.291, 441 690.120 C 441 685.782, 439.866 684.120, 434.882 681.153 L 431.264 679 276.635 679 L 122.006 679 118.059 682.566 M 919.727 740 C 918.329 741.100, 916.893 742, 916.537 742 C 914.400 742, 897.645 750.302, 894.760 752.791 C 893.803 753.616, 890.653 754.482, 887.760 754.715 C 884.867 754.948, 881.600 755.501, 880.500 755.945 C 877.250 757.255, 873.670 758.981, 871 760.525 C 869.347 761.481, 865.539 761.976, 859.761 761.985 C 852.678 761.997, 849.775 762.499, 844.451 764.630 C 838.589 766.977, 837.107 767.182, 830.691 766.535 C 826.736 766.136, 819.225 765.502, 814 765.126 C 808.775 764.751, 801.961 763.602, 798.858 762.573 C 788.426 759.115, 787.095 762.611, 795.750 770.740 C 798.913 773.710, 802.850 776.854, 804.500 777.725 C 806.150 778.597, 808.651 780.161, 810.057 781.200 C 818.649 787.553, 851.880 788.542, 865.630 782.855 C 867.209 782.202, 868.725 781.591, 869 781.497 C 869.275 781.404, 870.175 781.049, 871 780.710 C 871.825 780.370, 875.163 779.343, 878.418 778.427 C 885.848 776.335, 899.443 767.664, 907.858 759.650 C 914.129 753.678, 926 740.162, 926 738.994 C 926 737.315, 922.409 737.891, 919.727 740 M 319.975 754.250 C 315.482 757.295, 314.436 760.864, 315.981 767.883 C 316.661 770.972, 317.461 774.175, 317.758 775 C 318.055 775.825, 318.190 777.578, 318.058 778.896 C 317.926 780.214, 318.263 782.239, 318.806 783.396 C 319.349 784.553, 320.288 789.550, 320.892 794.500 C 322.478 807.487, 326.237 821.994, 328.317 823.158 C 329.262 823.686, 331.711 823.979, 333.760 823.809 C 339.724 823.314, 340.517 820.529, 339.023 805.335 C 338.353 798.522, 337.172 790.596, 336.400 787.723 C 335.627 784.850, 334.730 778.450, 334.407 773.500 C 333.648 761.873, 332.637 758.767, 328.404 755.050 C 324.250 751.402, 324.187 751.396, 319.975 754.250 M 218 754.289 C 215.614 755.490, 214.131 757.891, 210.614 766.244 C 209.747 768.303, 208.533 774.153, 207.915 779.244 C 206.773 788.661, 206.541 789.586, 203.618 796.328 C 201.688 800.780, 199.515 813.609, 199.653 819.746 C 199.776 825.227, 201.330 827, 206.012 827 C 211.344 827, 213.804 824.550, 215.014 818.035 C 215.573 815.029, 216.469 812.131, 217.006 811.594 C 217.544 811.056, 222.052 810.422, 227.026 810.184 C 237.388 809.689, 238.744 810.366, 242.230 817.772 C 245.712 825.170, 251.964 828.182, 255.821 824.319 C 257.039 823.100, 257.485 820.970, 257.447 816.569 C 257.403 811.597, 256.837 809.596, 254.316 805.500 C 252.623 802.750, 250.669 798.700, 249.974 796.500 C 249.278 794.300, 247.875 791.427, 246.855 790.115 C 245.835 788.803, 245 786.980, 245 786.062 C 245 785.145, 243.691 782.614, 242.090 780.438 C 240.490 778.262, 238.845 774.685, 238.435 772.491 C 238.025 770.296, 236.733 766.925, 235.565 765 C 234.396 763.075, 232.962 760.600, 232.376 759.500 C 230.943 756.807, 225.201 752.997, 222.602 753.015 C 221.446 753.023, 219.375 753.596, 218 754.289 M 266.157 753.945 C 264.319 754.407, 262.294 755.311, 261.657 755.955 C 259.877 757.754, 260.717 782.643, 262.941 794 C 263.965 799.225, 265.085 806.543, 265.430 810.261 C 266.263 819.227, 267.183 821.332, 271.412 823.946 C 275.664 826.574, 277.901 826.061, 280.250 821.922 C 282.140 818.591, 282.628 810.506, 281 809.500 C 279.456 808.546, 279.817 803.859, 281.586 801.905 C 282.724 800.648, 284.097 800.304, 286.453 800.686 C 288.259 800.979, 292.383 800.455, 295.618 799.521 C 300.281 798.176, 302.371 796.858, 305.705 793.162 L 309.910 788.500 309.955 779.302 L 310 770.104 305.065 764.173 C 297.169 754.685, 294.630 753.539, 281 753.303 C 274.675 753.194, 267.996 753.483, 266.157 753.945 M 279.200 771.200 C 277.085 773.315, 277.744 780.591, 280.323 783.589 C 282.325 785.917, 283.139 786.197, 286.221 785.618 C 291.712 784.588, 295 781.511, 295 777.403 C 295 774.678, 294.494 773.758, 292.597 773.037 C 291.276 772.534, 289.899 771.646, 289.538 771.062 C 288.641 769.610, 280.684 769.716, 279.200 771.200 M 221.950 784.632 C 220.131 789.416, 224.448 796.460, 227.882 794.311 C 230.696 792.550, 230.464 788.093, 227.390 784.886 C 223.983 781.329, 223.219 781.293, 221.950 784.632 M 397.102 824.411 C 395.233 825.798, 393.291 827.070, 392.787 827.238 C 392.283 827.406, 391.614 829.456, 391.301 831.794 C 390.706 836.230, 392.706 840, 395.655 840 C 396.395 840, 397 840.665, 397 841.477 C 397 842.289, 398.238 843.737, 399.750 844.694 C 403.115 846.824, 407 850.766, 407 852.052 C 407 852.618, 399.001 853, 387.160 853 C 376.248 853, 359.771 853.298, 350.544 853.662 C 334.733 854.285, 333.604 854.463, 330.885 856.750 C 326.544 860.403, 326.905 864.765, 331.990 870.110 L 335.981 874.305 372.240 873.632 C 392.183 873.262, 409.611 872.856, 410.969 872.730 C 415.171 872.339, 414.363 875.226, 408.605 881.170 C 402.231 887.752, 400.710 892.976, 403.337 899.265 C 404.569 902.212, 405.622 903.090, 409.026 904.007 C 412.813 905.027, 413.547 904.904, 416.894 902.689 C 418.924 901.346, 422.742 897.308, 425.378 893.717 C 428.014 890.126, 431.031 886.964, 432.081 886.689 C 433.131 886.415, 434.296 885.391, 434.671 884.414 C 435.523 882.194, 441.982 875.550, 444.016 874.800 C 444.850 874.493, 446.200 872.950, 447.016 871.371 C 447.832 869.792, 449.063 867.905, 449.750 867.179 C 452.055 864.742, 451.209 859.118, 447.830 854.413 C 446.087 851.986, 444.132 850, 443.485 850 C 442.839 850, 441.571 849.183, 440.667 848.185 C 439.764 847.187, 435.757 844.163, 431.762 841.466 C 427.768 838.769, 422.025 834.485, 419 831.945 C 406.876 821.766, 402.634 820.307, 397.102 824.411 M 519.594 936.989 C 515.976 938.136, 510.345 943.488, 509.590 946.498 C 509.278 947.739, 507.893 949.495, 506.512 950.400 C 503.814 952.168, 503.262 954.862, 505.200 956.800 C 505.913 957.513, 509.345 958, 513.653 958 C 520.378 958, 521.038 957.807, 522.703 955.354 C 523.691 953.898, 526.638 950.564, 529.250 947.944 C 534.157 943.024, 535.095 940.153, 532.499 938 C 530.550 936.382, 523.301 935.814, 519.594 936.989 M 555.704 937.442 C 553.616 938.187, 550.466 940.445, 548.704 942.461 C 546.942 944.477, 544.038 947.688, 542.250 949.597 C 538.591 953.504, 538.619 953.420, 540.035 956.066 C 540.928 957.733, 542.185 958, 549.153 958 C 557.161 958, 557.270 957.965, 560.978 954.250 C 563.037 952.188, 565.641 948.590, 566.767 946.256 L 568.813 942.011 566.005 939.006 C 562.902 935.684, 561.310 935.442, 555.704 937.442 M 719.257 944.437 C 718.023 945.119, 716.223 946.384, 715.257 947.248 C 714.291 948.111, 711.250 949.468, 708.500 950.262 C 703.291 951.767, 701.808 953.858, 704.040 956.548 C 704.967 957.666, 707.934 958, 716.922 958 C 729.725 958, 731.009 957.503, 730.986 952.550 C 730.962 947.107, 729.957 945, 727.383 945 C 726.073 945, 725 944.550, 725 944 C 725 942.670, 722.044 942.895, 719.257 944.437 M 598.686 951.017 C 597.138 951.481, 595.191 952.427, 594.358 953.118 C 593.031 954.219, 593.132 954.595, 595.172 956.165 C 596.936 957.522, 599.357 957.961, 605.168 957.978 C 614.394 958.005, 616 957.487, 616 954.491 C 616 950.631, 606.393 948.703, 598.686 951.017" stroke="none" fill="#171916" fill-rule="evenodd"/>
</svg>