<svg role="img" aria-labelledby="artwork-title" shape-rendering="geometricPrecision" xmlns="http://www.w3.org/2000/svg" width="1200" height="1200" viewBox="0 0 1200 1200" version="1.1">
	<title id="artwork-title">Mascot holding JSON-shaped blocks</title>
	<path d="M 870.583 226.865 C 870.289 227.341, 868.350 227.996, 866.274 228.321 C 864.198 228.646, 859.641 229.354, 856.147 229.895 C 852.652 230.435, 849.052 231.500, 848.147 232.261 C 847.241 233.022, 844.631 234.232, 842.347 234.950 C 839.656 235.797, 835.884 238.499, 831.631 242.628 C 824.017 250.021, 820.622 250.877, 817.029 246.310 C 815.866 244.831, 813.864 242.918, 812.582 242.060 C 811.300 241.202, 809.097 239.679, 807.686 238.675 C 806.276 237.671, 802.282 236.249, 798.811 235.514 C 795.340 234.779, 791.150 233.466, 789.500 232.595 C 785.093 230.270, 770.519 230.433, 764.287 232.878 C 761.654 233.911, 757.598 235.073, 755.273 235.462 C 752.949 235.850, 749.574 237.236, 747.773 238.541 C 745.973 239.847, 743.197 241.654, 741.605 242.558 C 738.252 244.461, 729.601 252.914, 725.800 258 C 724.361 259.925, 722.689 263.363, 722.083 265.641 C 720.405 271.948, 714.942 274.749, 710.452 271.604 C 705.375 268.048, 687.760 268.782, 678.659 272.928 C 676.157 274.067, 673.453 275, 672.649 275 C 671.264 275, 667.932 277.447, 658.216 285.603 C 652.785 290.162, 644.051 301.992, 641.310 308.500 C 638.475 315.235, 636.680 324.478, 637.430 328.479 C 638.698 335.240, 634.816 339.155, 625.449 340.560 C 616.616 341.885, 602.887 355.381, 596.045 369.466 C 586.559 388.996, 588.656 410.372, 601.776 427.889 C 604.848 431.992, 604.969 437.340, 602.058 440.438 C 597.171 445.640, 594.716 461.088, 597.007 472.223 C 598.639 480.157, 598.839 480.532, 606.117 489.221 C 611.326 495.441, 612.081 496.846, 611.572 499.388 C 609.068 511.911, 610.400 523.540, 615.094 530.132 C 618.382 534.750, 617.589 537.486, 610.750 545.107 C 603.078 553.656, 598.721 561.878, 596.984 571.086 C 596.257 574.939, 595.392 578.258, 595.062 578.462 C 594.245 578.967, 595.626 599.815, 597.051 608.483 C 598.875 619.578, 604.837 634.307, 608.242 636.130 C 609.262 636.675, 610.504 638.196, 611.003 639.509 C 611.502 640.821, 613.082 642.663, 614.514 643.601 C 615.945 644.539, 618.519 646.616, 620.233 648.218 L 623.350 651.129 623.123 664.514 C 622.885 678.506, 623.572 682.765, 627.454 691.383 C 628.721 694.197, 630.076 698.707, 630.463 701.403 C 630.851 704.100, 632.256 708.029, 633.584 710.133 C 634.913 712.238, 636 714.317, 636 714.752 C 636 715.188, 637.276 717.109, 638.835 719.022 C 640.394 720.935, 643.577 725.784, 645.907 729.798 C 650.976 738.529, 658.104 746.864, 662.495 749.193 C 664.250 750.125, 668.883 754.433, 672.791 758.768 C 677.076 763.521, 681.515 767.380, 683.976 768.489 C 686.221 769.501, 687.894 770.818, 687.696 771.415 C 687.270 772.697, 683.068 773.717, 677.533 773.882 C 673.823 773.992, 665.117 776.646, 664 778.006 C 663.725 778.341, 660.800 779.554, 657.500 780.702 C 644.036 785.383, 638.257 787.830, 633.554 790.837 C 630.834 792.577, 628.204 794, 627.709 794 C 627.214 794, 625.500 794.932, 623.900 796.071 C 622.301 797.210, 619.689 798.516, 618.096 798.973 C 614.465 800.014, 599.024 810.622, 589.887 818.351 C 582.295 824.774, 580.002 825.106, 579.997 819.781 C 579.986 807.057, 577.864 745.897, 577.039 734.500 C 576.048 720.823, 574.988 692.693, 572.988 627 C 571.424 575.609, 569.819 541.591, 568.904 540.434 C 568.440 539.848, 567.769 536.698, 567.413 533.434 C 566.288 523.133, 559.209 512.623, 546.831 502.877 C 543.991 500.641, 539.919 498.776, 528.500 494.483 C 525.094 493.203, 445.897 493.966, 372 495.992 C 333.225 497.054, 268.650 498.418, 228.500 499.022 L 155.500 500.120 151 502.432 C 148.525 503.703, 144.925 505.064, 143 505.455 C 132.589 507.573, 115.288 525.377, 112.649 536.691 C 111.897 539.917, 110.543 543.984, 109.640 545.728 C 107.798 549.291, 107.575 564.535, 109.007 589 C 110.761 618.966, 112.869 680.872, 113.485 720.500 C 113.844 743.600, 114.778 772.400, 115.560 784.500 C 116.342 796.600, 116.986 810.122, 116.991 814.550 C 116.996 818.977, 117.411 823.027, 117.913 823.550 C 118.416 824.072, 119.150 833.826, 119.545 845.225 C 120.352 868.513, 119.980 870.209, 113.784 871.522 C 109.003 872.535, 103.242 875.908, 98.052 880.733 C 95.549 883.061, 93.162 884.974, 92.750 884.983 C 92.338 884.992, 92 885.498, 92 886.106 C 92 886.714, 90.960 888.448, 89.688 889.959 C 88.417 891.470, 86.549 895.764, 85.537 899.501 C 83.909 905.515, 83.851 906.883, 85.031 911.398 C 86.716 917.846, 86.711 929.439, 85.022 931.474 C 84.325 932.313, 82.910 933, 81.878 933 C 80.160 933, 80 933.894, 80 943.469 C 80 951.926, 80.263 953.836, 81.371 953.411 C 83.420 952.625, 85.837 955.585, 86.574 959.782 C 88.455 970.503, 88.429 970.448, 92.040 971.694 C 96.721 973.308, 106.198 973.307, 108.408 971.691 C 111.198 969.651, 112.039 962.661, 110.250 956.373 C 109.409 953.418, 108.334 951, 107.861 951 C 107.387 951, 107 950.325, 107 949.500 C 107 948.675, 106.592 948, 106.094 948 C 105.595 948, 105.409 947.151, 105.681 946.113 C 105.952 945.075, 105.685 943.923, 105.087 943.554 C 103.401 942.512, 103.795 939.423, 106.142 935.280 C 107.319 933.201, 108.881 929.261, 109.611 926.524 C 110.807 922.042, 110.725 920.735, 108.795 913.374 C 106.742 905.549, 106.723 905.015, 108.328 900.811 C 109.678 897.277, 111.252 895.601, 116.409 892.211 C 121.987 888.543, 123.526 888, 128.341 888 C 131.382 888, 134.912 888.396, 136.185 888.880 C 137.458 889.364, 138.768 889.702, 139.096 889.630 C 139.424 889.559, 140.324 890.019, 141.096 890.652 C 141.868 891.286, 144.361 892.302, 146.636 892.910 C 149.583 893.698, 151.811 895.284, 154.386 898.426 C 156.374 900.852, 158 903.283, 158 903.829 C 158 904.375, 156.569 906.026, 154.820 907.498 C 152.542 909.415, 150.910 910.026, 149.070 909.652 C 147.656 909.364, 144.325 908.657, 141.666 908.079 C 133.501 906.305, 122.567 909.894, 121.349 914.746 C 121.036 915.993, 121.062 918.516, 121.407 920.354 C 122.277 924.993, 125.356 926.136, 138.500 926.701 C 150.071 927.198, 153.863 928.290, 158.305 932.406 C 161.611 935.471, 161.752 938.945, 158.687 941.824 C 156.810 943.588, 154.313 944.211, 145.437 945.129 C 133.403 946.373, 127.741 948.910, 126.569 953.582 C 125.808 956.614, 128.194 961.426, 131.549 963.624 C 134.003 965.232, 143.382 965.952, 144.700 964.633 C 145.048 964.285, 147.604 964, 150.379 964 C 154.969 964, 155.815 964.384, 159.755 968.250 L 164.085 972.500 172.507 972.500 C 183.228 972.500, 185.049 971.207, 183.013 965.041 C 182.280 962.818, 181.399 961, 181.056 961 C 180.712 961, 179.674 959.718, 178.748 958.150 C 177.125 955.402, 177.150 955.185, 179.474 952.035 C 185.380 944.030, 184.705 931.736, 177.906 923.509 C 173.044 917.625, 172.569 915.967, 174.456 911.451 C 176.471 906.628, 176.334 897.597, 174.164 892.255 C 172.634 888.488, 165.107 879, 163.649 879 C 163.342 879, 162.031 877.940, 160.736 876.645 C 159.440 875.350, 155.422 873.305, 151.807 872.102 C 141.150 868.556, 141.640 870.041, 140.752 838.657 C 140.330 823.720, 139.572 804.525, 139.070 796 C 138.567 787.475, 137.454 758.225, 136.597 731 C 133.875 644.534, 131.862 597.533, 130.854 596.910 C 130.306 596.571, 129.964 591.454, 130.065 585.111 C 130.163 578.950, 129.963 573.630, 129.622 573.288 C 128.628 572.295, 128.904 565.177, 129.962 564.524 C 130.578 564.143, 130.578 563.019, 129.962 561.399 C 128.819 558.395, 128.687 551.646, 129.750 550.583 C 130.162 550.171, 130.540 549.533, 130.589 549.167 C 130.637 548.800, 131.823 546.025, 133.223 543 C 136.890 535.077, 146.086 526.589, 153.101 524.651 C 158.666 523.114, 182.707 522.375, 304.500 519.997 C 332 519.460, 379.025 518.527, 409 517.924 C 527.747 515.535, 522.141 515.554, 528.093 517.531 C 532.095 518.860, 534.857 520.753, 538.835 524.893 C 547.395 533.802, 547.271 533.325, 548.084 560.500 C 548.479 573.700, 549.306 596.875, 549.922 612 C 551.175 642.757, 552.509 678.285, 554.033 721.500 C 554.596 737.450, 555.302 751.175, 555.601 752 C 555.900 752.825, 556.095 761.983, 556.034 772.351 C 555.972 782.719, 556.329 791.719, 556.825 792.351 C 557.322 792.983, 558.024 802.950, 558.386 814.500 C 558.747 826.050, 559.464 848.100, 559.978 863.500 C 560.492 878.900, 561.229 902.847, 561.615 916.714 L 562.317 941.929 559.593 942.964 C 558.095 943.534, 555.561 944, 553.961 944 C 547.242 944, 524.337 955.701, 520.193 961.250 C 519.475 962.212, 518.269 963, 517.515 963 C 515.349 963, 513 965.912, 513 968.596 C 513 971.901, 516.207 973, 525.854 973 C 533.709 973, 534.770 972.663, 544.412 967.106 C 546.564 965.866, 549.152 965.068, 550.162 965.332 C 551.173 965.597, 552 965.508, 552 965.136 C 552 964.764, 555.263 963.491, 559.250 962.307 C 572.009 958.519, 592.538 958.609, 606 962.512 C 609.025 963.389, 614.763 964.373, 618.750 964.698 C 622.737 965.023, 626 965.674, 626 966.144 C 626 966.615, 626.988 967, 628.196 967 C 629.404 967, 632.178 968.237, 634.361 969.750 L 638.329 972.500 773.414 972.392 C 847.711 972.332, 910.525 972.245, 913 972.198 C 915.475 972.150, 962.122 972.320, 1016.660 972.575 C 1103.434 972.980, 1116.005 972.852, 1117.304 971.553 C 1120.953 967.904, 1120.179 906.891, 1116.352 896.540 C 1114.065 890.355, 1113.135 887.019, 1111.941 880.718 C 1111.286 877.261, 1109.921 873.939, 1108.549 872.458 C 1107.286 871.095, 1105.958 868.138, 1105.598 865.886 C 1105.238 863.634, 1103.872 860.376, 1102.564 858.646 C 1101.255 856.916, 1099.682 853.612, 1099.068 851.304 C 1098.454 848.996, 1096.898 846.279, 1095.611 845.266 C 1094.323 844.253, 1092.942 842.391, 1092.541 841.129 C 1091.037 836.392, 1069.792 813.783, 1059.161 805.607 C 1056.224 803.348, 1051.949 800.039, 1049.661 798.254 C 1047.372 796.469, 1044.411 794.538, 1043.079 793.964 C 1041.748 793.390, 1038.598 791.436, 1036.079 789.622 C 1030.554 785.642, 1021.414 780.501, 1018.056 779.483 C 1016.712 779.075, 1014.912 777.909, 1014.056 776.891 C 1013.200 775.872, 1009.800 774.169, 1006.500 773.106 C 1001.092 771.364, 990.736 767.355, 985.500 764.977 C 980.228 762.583, 970.344 759.904, 964.730 759.348 C 955.545 758.438, 955.197 757.970, 960.326 753.429 C 962.767 751.268, 966.413 748.375, 968.427 747 C 970.479 745.600, 972.786 742.830, 973.672 740.706 C 974.793 738.013, 976.450 736.310, 979.376 734.839 C 985.495 731.764, 986.656 730.434, 990.982 721.537 C 993.155 717.068, 996.078 712.336, 997.478 711.021 C 1000.204 708.460, 1005 698.892, 1005 696.014 C 1005 693.445, 1008.849 689, 1011.073 689 C 1012.133 689, 1013 689.450, 1013 690 C 1013 690.577, 1016.147 691, 1020.441 691 C 1024.534 691, 1028.160 690.550, 1028.500 690 C 1028.840 689.450, 1030.679 689, 1032.587 689 C 1036.679 689, 1047.585 683.830, 1054.292 678.711 C 1060.128 674.256, 1071.890 662.250, 1074.221 658.367 C 1075.168 656.790, 1076.410 654.825, 1076.982 654 C 1077.554 653.175, 1078.711 650.925, 1079.554 649 C 1080.397 647.075, 1082.148 644.036, 1083.446 642.247 C 1085.016 640.082, 1086.032 636.906, 1086.485 632.747 C 1086.859 629.311, 1087.803 623.660, 1088.583 620.188 C 1090.382 612.174, 1090.390 602.946, 1088.604 595.960 C 1087.836 592.957, 1086.895 588.148, 1086.513 585.273 C 1086.044 581.741, 1084.876 578.860, 1082.909 576.386 C 1081.309 574.372, 1080 572.393, 1080 571.988 C 1080 571.583, 1078.425 569.532, 1076.500 567.430 C 1072.342 562.891, 1071.705 557.482, 1074.979 554.519 C 1076.068 553.534, 1077.902 550.202, 1079.056 547.114 C 1080.209 544.026, 1082.131 539.925, 1083.327 538 C 1085.303 534.817, 1085.481 533.313, 1085.292 521.412 L 1085.085 508.323 1089.042 504.459 C 1091.219 502.333, 1093 499.996, 1093 499.266 C 1093 498.535, 1093.692 497.672, 1094.537 497.347 C 1096.637 496.541, 1098.619 492.397, 1099.486 487 C 1099.884 484.525, 1100.837 480.043, 1101.604 477.040 C 1103.370 470.132, 1103.366 465.461, 1101.590 458.235 C 1100.815 455.081, 1099.673 450.292, 1099.052 447.594 C 1097.914 442.645, 1095.617 439.166, 1088.750 431.995 C 1084.307 427.355, 1084.184 425.763, 1087.559 416.500 C 1091.926 404.511, 1092.222 402.850, 1091.820 392.538 C 1091.540 385.335, 1090.956 381.790, 1089.755 379.987 C 1088.834 378.605, 1087.575 375.115, 1086.956 372.231 C 1086.238 368.882, 1084.597 365.510, 1082.416 362.899 C 1080.537 360.651, 1079 358.404, 1079 357.906 C 1079 357.408, 1076.412 354.474, 1073.250 351.385 C 1064.744 343.077, 1063.824 342.326, 1060 340.582 C 1058.075 339.703, 1055.033 338.044, 1053.241 336.895 C 1050.845 335.359, 1048.057 334.737, 1042.710 334.548 C 1033.241 334.212, 1031 332.830, 1031 327.325 C 1031 325.018, 1030.522 321.874, 1029.939 320.338 C 1029.355 318.803, 1028.215 314.400, 1027.406 310.553 C 1026.597 306.707, 1025.109 302.646, 1024.099 301.530 C 1023.089 300.413, 1021.970 298.262, 1021.612 296.750 C 1021.255 295.238, 1020.520 294, 1019.981 294 C 1019.441 294, 1019 293.420, 1019 292.711 C 1019 291.253, 1003.996 275.694, 999.260 272.241 C 997.557 270.999, 994.663 269.701, 992.831 269.356 C 990.999 269.012, 987.025 267.356, 984 265.676 C 978.840 262.811, 977.882 262.629, 968.500 262.730 C 959.381 262.827, 957.927 263.119, 952 266.040 C 943.113 270.420, 938.774 270.943, 936.636 267.891 C 935.736 266.606, 935 264.305, 935 262.777 C 935 260.130, 932.013 256, 930.098 256 C 929.602 256, 928.730 254.663, 928.160 253.029 C 926.969 249.613, 921.227 243.524, 918.328 242.604 C 917.246 242.261, 915.366 240.634, 914.151 238.990 C 912.935 237.345, 911.247 236, 910.399 236 C 909.552 236, 906.303 234.672, 903.179 233.048 C 899.311 231.037, 894.696 229.708, 888.705 228.880 C 883.868 228.211, 879.679 227.289, 879.396 226.832 C 878.715 225.730, 871.268 225.758, 870.583 226.865 M 865 249.175 C 861.975 249.690, 858.825 250.341, 858 250.621 C 857.175 250.900, 856.488 250.988, 856.472 250.815 C 856.457 250.642, 854.456 251.963, 852.025 253.750 C 849.595 255.537, 846.822 257, 845.865 257 C 844.907 257, 842.645 258.350, 840.839 260 C 839.032 261.650, 837.213 263, 836.796 263 C 836.379 263, 835.771 264.065, 835.444 265.368 C 835.117 266.670, 833.534 268.708, 831.925 269.897 C 829.181 271.926, 828.052 275.296, 829.761 276.352 C 830.815 277.004, 833.193 275.023, 835.287 271.750 C 836.254 270.238, 837.700 269, 838.500 269 C 839.300 269, 840.705 267.854, 841.623 266.452 C 842.541 265.051, 844.914 263.230, 846.896 262.406 C 848.878 261.582, 852.075 259.847, 854 258.551 C 860.620 254.093, 888.230 254.281, 893.464 258.819 C 894.584 259.789, 897.226 261.364, 899.336 262.317 C 904.654 264.719, 913.684 273.513, 915.034 277.604 C 915.800 279.924, 916.774 281, 918.109 281 C 920.450 281, 921.721 278.321, 920.133 276.733 C 919.510 276.110, 919 274.859, 919 273.953 C 919 270.593, 897.903 251.636, 894 251.488 C 893.725 251.478, 892.966 251.130, 892.314 250.715 C 890.901 249.817, 877.760 248.025, 873.500 248.150 C 871.850 248.198, 868.025 248.659, 865 249.175 M 761.139 255.033 C 759.841 256.115, 757.762 257, 756.520 257 C 754.214 257, 744 264.419, 744 266.094 C 744 266.602, 742.650 268.431, 741 270.157 C 738.076 273.217, 737.058 277.300, 738.932 278.458 C 740.082 279.169, 743 275.165, 743 272.875 C 743 271.906, 744.277 270.751, 746.021 270.143 C 747.682 269.563, 749.816 267.741, 750.762 266.093 C 751.708 264.445, 753.490 262.843, 754.722 262.534 C 755.955 262.224, 758.470 260.648, 760.312 259.031 C 763.057 256.621, 764.910 255.966, 770.581 255.400 C 781.590 254.301, 782.566 253.130, 772.500 253.097 C 764.989 253.072, 763.109 253.392, 761.139 255.033 M 954 285.968 C 948.977 287.028, 939.813 291.952, 940.299 293.331 C 940.810 294.778, 951.062 294.572, 953.891 293.059 C 956.876 291.461, 963.597 291.801, 972.500 294 C 976.900 295.087, 981.175 295.984, 982 295.994 C 983.683 296.013, 993 304.469, 993 305.978 C 993 306.512, 994.303 307.623, 995.897 308.446 C 997.891 309.478, 999.275 311.360, 1000.342 314.491 C 1001.194 316.992, 1003.206 320.144, 1004.812 321.495 C 1006.958 323.301, 1007.610 324.590, 1007.272 326.359 C 1007.019 327.683, 1007.304 329.070, 1007.906 329.442 C 1008.508 329.814, 1009.014 331.104, 1009.030 332.309 C 1009.059 334.347, 1009.135 334.372, 1010.130 332.660 C 1011.541 330.233, 1010.446 323.262, 1008.029 319.288 C 1006.976 317.557, 1005.626 314.323, 1005.027 312.101 C 1003.669 307.058, 991.778 294.603, 984.500 290.601 C 975.425 285.611, 963.954 283.869, 954 285.968 M 690 291.911 C 684.550 293.730, 676.369 297.852, 674 299.972 C 672.625 301.203, 670.559 302.959, 669.408 303.875 C 667.513 305.382, 663.492 310.888, 660.265 316.393 C 659.585 317.552, 659.023 320.895, 659.015 323.823 C 659.003 328.181, 659.291 329.088, 660.604 328.823 C 661.486 328.645, 662.889 326.475, 663.721 324 C 666.499 315.741, 681.085 301, 686.479 301 C 687.167 301, 688.973 300.022, 690.492 298.827 C 692.602 297.168, 695.232 296.498, 701.632 295.990 C 710.565 295.280, 712.094 294.694, 710.134 292.733 C 708.680 291.279, 693.724 290.668, 690 291.911 M 1037.667 355.667 C 1036.050 357.283, 1037.311 358.953, 1041.299 360.476 C 1046.098 362.309, 1060 374.848, 1060 377.344 C 1060 378.210, 1061.111 379.950, 1062.469 381.210 C 1065.076 383.628, 1066.938 392.288, 1066.980 402.191 C 1066.991 404.771, 1067.450 407.160, 1068 407.500 C 1068.603 407.873, 1069 406.530, 1069 404.118 C 1069 401.918, 1069.450 399.840, 1070 399.500 C 1070.550 399.160, 1071 395.820, 1071 392.077 C 1071 386.230, 1070.663 384.935, 1068.603 382.876 C 1067.285 381.557, 1065.716 378.658, 1065.116 376.432 C 1064.120 372.733, 1060.646 368.582, 1050.454 358.918 C 1047.420 356.040, 1039.346 353.988, 1037.667 355.667 M 1009.688 356.646 C 1008.383 357.950, 1009.006 359, 1011.083 359 C 1012.247 359, 1012.992 358.476, 1012.771 357.813 C 1012.284 356.351, 1010.614 355.719, 1009.688 356.646 M 624 366.139 C 622.075 368.371, 619.938 370.796, 619.250 371.527 C 618.563 372.259, 618 373.198, 618 373.614 C 618 374.030, 616.991 375.446, 615.757 376.759 C 613.957 378.674, 613.512 380.315, 613.507 385.053 C 613.498 392.539, 615.025 392.490, 617.092 384.939 C 618.025 381.530, 619.990 377.637, 621.842 375.528 C 623.579 373.549, 625 371.281, 625 370.488 C 625 369.695, 626.125 368.309, 627.500 367.408 C 630.084 365.715, 630.956 361.969, 628.750 362.041 C 628.063 362.063, 625.925 363.907, 624 366.139 M 813.500 382.543 C 803.551 393.662, 787.471 399.773, 771.009 398.690 C 759.178 397.912, 751.288 395.191, 743.751 389.290 C 740.313 386.598, 736.909 384.038, 736.187 383.600 C 734.702 382.700, 731 385.554, 731 387.598 C 731 389.463, 720.400 400.629, 715.296 404.140 C 709.174 408.353, 695.374 412.254, 691.017 411.005 C 687.967 410.130, 687.415 410.350, 683.947 413.818 C 680.978 416.787, 680.044 418.624, 679.512 422.540 C 678.568 429.487, 677.035 434.049, 675.437 434.662 C 674.689 434.950, 673.797 436.065, 673.455 437.140 C 673.114 438.216, 669.947 441.366, 666.417 444.139 L 660 449.183 660 455.408 C 660 463.778, 658.349 472.724, 656.002 477.070 C 653.250 482.167, 652.060 491.957, 651.761 511.974 C 651.517 528.286, 651.623 529.472, 653.349 529.816 C 654.373 530.020, 656.411 529.022, 657.917 527.580 C 660.858 524.762, 663.326 524.337, 690 522.053 C 707.264 520.576, 711.995 520.708, 720.833 522.913 C 725.050 523.965, 730.413 525.130, 732.750 525.501 C 735.087 525.872, 737 526.605, 737 527.130 C 737 527.654, 739.813 529.375, 743.250 530.954 C 749.861 533.990, 753.257 536.892, 761.744 546.757 L 766.988 552.853 770.171 551.265 C 776.874 547.921, 797.468 548.801, 804.093 552.714 C 806.612 554.202, 806.963 554.163, 809.902 552.070 C 811.622 550.845, 813.683 548.579, 814.482 547.035 C 817.194 541.790, 827.800 533.200, 833.671 531.493 C 836.641 530.630, 840.293 529.419, 841.786 528.801 C 843.279 528.184, 845.096 527.779, 845.824 527.901 C 846.552 528.022, 847.847 527.542, 848.701 526.833 C 850.924 524.989, 890.021 524.945, 892.240 526.785 C 893.092 527.492, 894.174 527.982, 894.645 527.874 C 895.115 527.765, 896.694 528.172, 898.153 528.777 C 899.612 529.382, 903.662 530.387, 907.153 531.010 C 910.644 531.633, 914.887 532.951, 916.581 533.939 C 918.276 534.926, 921.426 536.310, 923.581 537.015 C 928.218 538.531, 937.912 545.884, 941.535 550.635 C 943.521 553.238, 944.838 554, 947.351 554 C 949.138 554, 951.140 553.460, 951.800 552.800 C 952.560 552.040, 953 551.989, 953 552.662 C 953 553.340, 958.335 553.912, 967.750 554.245 C 988.174 554.965, 991.763 552.730, 985.005 543.500 C 978.685 534.868, 978.492 534.249, 978.608 522.975 C 978.718 512.276, 979.865 508.017, 983.434 505.055 C 984.297 504.338, 985 502.219, 985 500.332 C 985 497.206, 984.572 496.710, 980.074 494.626 C 973.440 491.552, 966.914 484.873, 962.853 477 C 959.800 471.080, 959.470 469.579, 959.157 460.183 C 958.905 452.607, 959.278 448.153, 960.559 443.419 C 961.519 439.873, 962.124 436.799, 961.902 436.588 C 961.681 436.377, 958.800 436.646, 955.500 437.186 C 947.789 438.447, 940.898 437.681, 934 434.794 C 926.548 431.676, 923.934 429.748, 915.294 421 C 907.406 413.012, 902.333 404.934, 901.352 398.798 C 900.375 392.693, 899.302 392.568, 889.676 397.439 C 884.904 399.854, 881 401.588, 881 401.292 C 881 400.997, 880.438 401.221, 879.750 401.789 C 877.202 403.898, 862.800 405.355, 856.125 404.179 C 849.552 403.021, 840.595 399.253, 835.500 395.504 C 833.850 394.289, 831.712 393.018, 830.750 392.679 C 829.788 392.340, 829 391.458, 829 390.718 C 829 389.979, 827.683 388.112, 826.073 386.570 C 824.463 385.027, 822.608 382.468, 821.951 380.883 C 820.302 376.900, 818.174 377.318, 813.500 382.543 M 702.135 485.108 C 697.535 486.168, 692.676 487.896, 691.338 488.948 C 690.001 490.001, 687.553 491.159, 685.899 491.522 C 684.245 491.885, 681.117 493.872, 678.946 495.936 C 675.621 499.100, 675 500.326, 675 503.734 C 675 506.225, 675.734 508.686, 676.910 510.139 C 678.704 512.356, 679.452 512.495, 689.160 512.421 C 694.847 512.377, 703.775 512.198, 709 512.024 C 714.662 511.835, 721.530 512.305, 726 513.186 C 734.407 514.843, 735.189 514.630, 741.250 509.048 C 744.596 505.967, 745 505.070, 745 500.732 C 745 496.281, 744.598 495.458, 740.250 491.003 C 735.779 486.422, 735.009 486.044, 727.140 484.568 C 716.671 482.605, 712.621 482.692, 702.135 485.108 M 855.773 487.452 C 853.723 488.237, 851.051 489.807, 849.834 490.940 C 848.618 492.073, 847.079 493, 846.415 493 C 845.751 493, 843.811 494.591, 842.104 496.535 C 836.437 502.989, 838.405 512.081, 846.295 515.901 C 850.389 517.883, 851.264 517.941, 861.152 516.899 C 872.071 515.747, 876.853 516.175, 891 519.571 C 901.484 522.088, 906.099 522.331, 910.214 520.582 C 914.211 518.883, 915.377 517.302, 916.324 512.299 C 917.147 507.956, 913.919 500.814, 910.287 498.939 C 908.754 498.147, 906.023 496.520, 904.217 495.322 C 902.411 494.124, 899.538 492.838, 897.832 492.463 C 896.126 492.088, 892.428 490.615, 889.615 489.189 C 885.053 486.876, 883.148 486.565, 872 486.310 C 862.988 486.104, 858.460 486.423, 855.773 487.452 M 674.339 546.453 C 670.865 547.965, 659 559.605, 659 561.501 C 659 562.155, 658.054 563.546, 656.898 564.593 C 652.604 568.479, 650.801 574.401, 653.186 576.786 C 654.101 577.701, 654.787 577.597, 656.186 576.331 C 657.184 575.429, 658 574.119, 658 573.422 C 658 572.724, 659.027 570.881, 660.281 569.327 C 661.536 567.772, 663.449 564.793, 664.531 562.707 C 665.681 560.491, 667.476 558.668, 668.845 558.324 C 670.135 558, 672.046 556.332, 673.091 554.618 C 674.137 552.903, 674.994 551.812, 674.996 552.194 C 674.998 552.575, 676.403 551.606, 678.118 550.039 C 682.838 545.728, 680.690 543.690, 674.339 546.453 M 848.473 551.382 C 847.388 552.141, 846.173 552.704, 845.774 552.632 C 845.374 552.559, 841.710 555.522, 837.631 559.217 C 831.197 565.045, 830.056 566.598, 829.011 570.955 C 828.348 573.717, 826.948 577.067, 825.900 578.400 C 824.179 580.588, 824.204 584.528, 825.934 583.792 C 827.563 583.100, 833.903 575.170, 835.761 571.500 C 836.876 569.300, 838.735 566.643, 839.894 565.595 C 841.052 564.547, 842 563.137, 842 562.460 C 842 561.784, 843.237 560.445, 844.750 559.486 C 848.896 556.856, 853 552.790, 853 551.313 C 853 549.608, 850.961 549.639, 848.473 551.382 M 625.621 559.083 C 623.451 560.790, 620.039 565.724, 619.456 568 C 619.385 568.275, 619.059 569.175, 618.732 570 C 616.399 575.880, 614.674 584.636, 614.594 591 C 614.507 597.965, 616.672 608.613, 619.128 613.291 C 619.645 614.276, 619.863 615.413, 619.612 615.819 C 619.361 616.224, 619.964 617.626, 620.950 618.934 C 623.770 622.672, 625.627 621.053, 626.237 614.325 C 626.589 610.446, 627.817 606.535, 629.884 602.715 C 633.072 596.821, 634.082 589.482, 631.992 587.392 C 630.578 585.978, 629.120 569.988, 630.150 567.185 C 631.420 563.726, 631.177 559.392, 629.641 558.117 C 628.602 557.255, 627.656 557.482, 625.621 559.083 M 1041.500 571.490 C 1040.950 571.684, 1038.306 572.139, 1035.624 572.501 C 1032.475 572.927, 1029.914 573.995, 1028.392 575.517 C 1027.096 576.813, 1024.790 578.495, 1023.267 579.254 C 1021.745 580.013, 1020.621 581.190, 1020.768 581.870 C 1020.915 582.551, 1020.353 583.790, 1019.518 584.625 C 1018.683 585.460, 1018 586.984, 1018 588.012 C 1018 589.041, 1017.615 590.120, 1017.145 590.410 C 1016.675 590.701, 1015.279 593.713, 1014.043 597.103 C 1012.806 600.494, 1010.491 604.542, 1008.897 606.100 C 1006.662 608.286, 1006 609.841, 1006 612.907 C 1006 615.093, 1006.408 617.134, 1006.906 617.442 C 1007.404 617.750, 1007.577 618.902, 1007.289 620.001 C 1006.997 621.118, 1007.259 622, 1007.883 622 C 1009.371 622, 1009.379 636.221, 1007.892 637.708 C 1007.281 638.319, 1006.948 640.876, 1007.149 643.408 C 1007.350 645.934, 1007.174 648, 1006.757 648 C 1005.253 648, 1005.943 661.474, 1007.566 663.791 C 1009.792 666.970, 1016.252 670, 1020.801 670 C 1025.921 670, 1033.708 667.602, 1036.370 665.206 C 1037.541 664.151, 1040.075 662.441, 1042 661.406 C 1050.636 656.762, 1062.015 640.992, 1064.056 630.840 C 1064.647 627.903, 1066.050 623.278, 1067.174 620.562 C 1068.888 616.420, 1069.147 614.081, 1068.779 606.062 C 1068.513 600.268, 1067.706 595.121, 1066.731 593 C 1065.846 591.075, 1064.849 588.213, 1064.515 586.641 C 1063.677 582.699, 1054.561 573.262, 1050.912 572.560 C 1045.093 571.441, 1042.480 571.144, 1041.500 571.490 M 774.109 573 C 769.966 574.062, 766.835 580.231, 764.976 591 C 762.322 606.368, 751.997 622.382, 737.912 632.979 C 734.935 635.218, 730.827 637.503, 728.783 638.055 C 726.739 638.607, 724.714 639.657, 724.283 640.388 C 722.605 643.237, 715.686 644.367, 700.500 644.274 C 684.061 644.172, 678.060 643.204, 672.567 639.767 C 660.070 631.946, 654.531 627.757, 651.824 624.076 C 648.090 618.998, 645.770 619.048, 644.929 624.224 C 644.598 626.261, 644.668 628.281, 645.085 628.713 C 645.502 629.146, 645.991 634.712, 646.172 641.082 L 646.500 652.664 652.635 658.582 C 657.450 663.227, 658.921 665.361, 659.474 668.500 C 660.367 673.565, 661.412 674.799, 665.450 675.557 C 669.263 676.272, 673.325 679.762, 675.605 684.282 C 678.428 689.878, 682.034 693, 685.675 693 C 688.437 693, 689.386 693.651, 691.500 697 C 693.516 700.193, 694.621 701, 696.977 701 C 700.703 701, 701.601 699.287, 702.236 690.971 C 702.956 681.539, 707.446 673.883, 718.265 663.639 C 725.268 657.009, 727.065 656.111, 735.513 655.026 C 739.678 654.490, 742.932 653.303, 746.106 651.161 C 754.937 645.202, 757.662 645.031, 768 649.791 C 771.025 651.183, 773.800 652.363, 774.167 652.411 C 774.533 652.460, 775.171 652.837, 775.583 653.250 C 776.917 654.584, 779.799 654.051, 783.693 651.750 C 786.897 649.856, 788.955 649.500, 796.682 649.500 C 805.521 649.500, 805.981 649.612, 808.997 652.500 C 812.047 655.420, 812.402 655.502, 822.317 655.567 C 832.449 655.634, 832.530 655.654, 837.265 659.269 C 853.706 671.818, 861.491 680.999, 863.650 690.383 C 864.424 693.747, 865.325 698.750, 865.651 701.500 C 866.631 709.745, 870.050 712.040, 874.591 707.500 C 877.141 704.950, 882.313 704.079, 883.500 706 C 883.840 706.550, 885.840 707, 887.944 707 C 890.923 707, 892.133 706.446, 893.410 704.497 C 894.312 703.120, 896.867 700.846, 899.088 699.445 C 902.437 697.330, 903.857 697.006, 907.421 697.540 C 913.160 698.401, 918.147 695.808, 924.841 688.484 C 933.108 679.438, 937.717 676, 941.574 676 C 944.507 676, 945.227 675.475, 946.965 672.068 C 948.069 669.905, 949.428 667.854, 949.986 667.509 C 950.544 667.164, 951 665.939, 951 664.786 C 951 662.451, 958.265 655, 960.542 655 C 961.344 655, 962 654.325, 962 653.500 C 962 652.675, 962.433 652, 962.961 652 C 963.932 652, 965.265 647.692, 966.461 640.697 C 966.851 638.411, 967.819 636.617, 968.889 636.197 C 972.794 634.666, 976.862 628.519, 977.587 623.053 C 978.071 619.408, 979.144 616.756, 981 614.618 C 982.489 612.903, 984.161 610.600, 984.716 609.500 C 985.890 607.173, 985.855 579.109, 984.675 577.250 C 983.696 575.707, 963.440 575.478, 962.500 577 C 962.160 577.550, 959.411 578, 956.391 578 C 950.551 578, 945.650 579.904, 944.139 582.760 C 943.632 583.717, 942.679 588.775, 942.020 594 C 941.228 600.280, 940.050 604.856, 938.546 607.500 C 937.294 609.700, 935.724 613.188, 935.057 615.251 C 934.390 617.314, 932.529 620.317, 930.922 621.924 C 929.315 623.531, 928 625.490, 928 626.278 C 928 627.066, 925.413 630.034, 922.250 632.875 C 919.087 635.715, 915.150 639.380, 913.499 641.020 C 911.849 642.659, 909.918 644, 909.208 644 C 908.499 644, 905.259 645.384, 902.008 647.076 C 896.276 650.059, 895.595 650.168, 879.299 650.714 C 860.501 651.343, 847.515 650.072, 842.626 647.126 C 840.907 646.090, 837.888 644.728, 835.919 644.099 C 828.798 641.827, 806.451 616.873, 807.785 612.685 C 807.942 612.192, 807.639 611.270, 807.112 610.635 C 805.365 608.530, 802 593.714, 801.985 588.062 C 801.957 577.240, 797.992 573.732, 784.961 573 C 780.065 572.725, 775.182 572.725, 774.109 573 M 405.314 592.878 C 401.072 595.561, 399.665 598.465, 400.303 603.222 C 401.019 608.561, 402.868 610.285, 410.228 612.473 C 417.758 614.713, 423.871 618.532, 425.101 621.765 C 425.595 623.066, 426 631.100, 426 639.618 C 426 657.851, 427.679 667.179, 431.811 671.908 C 442.504 684.146, 442.568 684.347, 437.695 690.397 C 435.878 692.654, 433.115 696.713, 431.555 699.417 L 428.720 704.334 429.046 721.417 C 429.668 754.015, 429.844 751.857, 426.309 755.015 C 424.593 756.549, 420.763 758.508, 417.798 759.370 C 414.833 760.232, 411.475 761.964, 410.336 763.219 C 406.476 767.470, 404.748 770.911, 405.554 772.742 C 405.979 773.709, 406.378 774.725, 406.440 775 C 406.935 777.206, 410.692 781.046, 413.215 781.925 C 419.479 784.109, 429.566 782.198, 434.461 777.900 C 436.278 776.305, 438.079 775, 438.464 775 C 438.849 775, 441.131 773.388, 443.536 771.417 C 446.493 768.994, 449.097 765.428, 451.581 760.402 L 455.253 752.969 454.523 730.053 L 453.793 707.136 458.511 702.092 C 461.928 698.439, 464.232 696.873, 466.865 696.415 C 473.184 695.316, 482 687.939, 482 683.749 C 482 681.085, 478.903 676.067, 475.969 673.978 C 474.368 672.838, 470.559 671.255, 467.503 670.459 C 460.307 668.585, 457.733 666.822, 454.032 661.234 L 451 656.657 450.984 640.079 C 450.967 621.290, 449.703 613.982, 445.485 608.274 C 436.652 596.320, 429.437 592.105, 416.500 591.337 C 409.683 590.933, 408.029 591.161, 405.314 592.878 M 232.476 595.868 C 226.041 597.711, 216.422 604.222, 213.347 608.816 C 212.359 610.292, 210.076 614.399, 208.275 617.943 C 205.014 624.357, 205 624.450, 205 639.134 C 205 647.887, 205.406 654.133, 206 654.500 C 206.550 654.840, 207 657.090, 207 659.500 C 207 661.910, 206.550 664.160, 206 664.500 C 205.450 664.840, 204.986 665.879, 204.968 666.809 C 204.914 669.713, 202.363 672.075, 196.833 674.341 C 193.900 675.543, 188.911 678.095, 185.746 680.013 C 179.913 683.548, 178.091 686.411, 179.551 689.748 C 179.973 690.711, 180.255 691.810, 180.179 692.189 C 179.855 693.802, 189.929 701.300, 194 702.477 C 197.146 703.387, 202.193 706.283, 204.298 708.389 C 208.474 712.564, 209.998 718.666, 210.017 731.285 C 210.043 747.999, 211.613 760.948, 214.009 764.210 C 215.104 765.700, 216 767.376, 216 767.934 C 216 768.492, 217.642 770.423, 219.649 772.224 C 221.656 774.026, 224.468 776.656, 225.899 778.068 C 227.696 779.842, 231.592 781.482, 238.500 783.370 L 248.500 786.103 253.500 784.168 C 259.215 781.958, 260.964 779.419, 260.985 773.301 C 260.998 769.730, 260.514 768.731, 257.750 766.625 C 255.963 765.262, 251.446 763.146, 247.713 761.921 C 242.448 760.194, 240.262 758.855, 237.963 755.953 C 235.029 752.249, 235 752.085, 234.982 739.356 C 234.953 718.232, 233.783 710.505, 229.391 702.430 C 227.317 698.619, 224.581 694.509, 223.310 693.298 C 220.287 690.416, 220.191 685.038, 223.117 682.405 C 225.658 680.118, 230 670.675, 230 667.435 C 230 666.160, 230.450 664.840, 231 664.500 C 232.323 663.682, 232.287 658.295, 230.953 657.471 C 230.295 657.065, 229.962 651.861, 230.057 643.485 C 230.140 636.148, 229.967 629.755, 229.672 629.278 C 228.784 627.841, 234.316 620.116, 237 619.045 C 238.375 618.497, 241.367 617.645, 243.649 617.153 C 256.001 614.489, 257.839 598.665, 246.202 595.179 C 241.221 593.686, 239.852 593.755, 232.476 595.868 M 732.238 688.264 C 724.475 693.515, 723.768 695.573, 724.874 709.697 C 725.636 719.427, 725.840 720.098, 729.306 724.329 C 732.033 727.657, 734.631 729.446, 739.720 731.501 C 750.803 735.976, 751.846 736.154, 754.054 733.946 C 755.124 732.876, 756 731.309, 756 730.465 C 756 727.620, 759.093 724.180, 763.086 722.582 C 766.531 721.204, 767.487 721.177, 770.358 722.376 C 772.586 723.307, 775.939 723.594, 780.650 723.257 L 787.636 722.757 791.249 726.978 C 793.236 729.299, 794.619 731.828, 794.324 732.599 C 794.028 733.370, 794.284 734, 794.893 734 C 795.502 734, 796 735.017, 796 736.259 C 796 737.502, 796.917 739.092, 798.039 739.792 C 799.745 740.858, 800.345 740.797, 801.721 739.422 C 802.984 738.159, 804.422 737.923, 807.932 738.403 C 810.445 738.746, 812.650 739.471, 812.833 740.014 C 813.422 741.756, 817.221 741.069, 820.406 738.644 C 822.108 737.349, 825.330 735.357, 827.567 734.217 C 833.038 731.431, 833.849 730.254, 835.029 723.387 C 835.585 720.149, 836.547 715.561, 837.166 713.192 C 838.010 709.963, 837.998 707.570, 837.118 703.635 C 835.795 697.725, 830.903 691, 827.927 691 C 826.867 691, 826 690.550, 826 690 C 826 688.608, 823.839 688.806, 821.755 690.389 C 820.104 691.641, 820.124 691.926, 822.106 695.607 C 825.584 702.063, 822.968 705.697, 809.687 712.865 C 801.068 717.516, 793.329 718.466, 774.354 717.203 C 757.375 716.073, 756.345 715.771, 747.428 709.315 C 738.562 702.896, 737.802 694.758, 745.618 689.927 C 749.490 687.534, 749.797 686.497, 747.066 685.035 C 743.135 682.932, 738.689 683.900, 732.238 688.264 M 772 687.550 C 769.525 688.259, 765.475 688.890, 763 688.951 C 760.525 689.013, 757.693 689.676, 756.706 690.424 C 755.012 691.709, 755.055 691.898, 757.485 693.810 C 760.542 696.214, 763.274 696.703, 780.847 697.990 L 794.194 698.967 800.847 695.734 L 807.500 692.500 798.563 691.756 C 793.647 691.347, 789.372 690.649, 789.063 690.205 C 788.290 689.097, 779.774 685.970, 777.967 686.131 C 777.160 686.202, 774.475 686.841, 772 687.550 M 913.242 783.926 C 908.991 787.809, 898.641 793, 895.152 793 C 891.112 793, 882.113 795.856, 879.074 798.104 C 877.635 799.167, 873.553 800.505, 870.002 801.077 C 866.451 801.649, 863.311 802.463, 863.023 802.887 C 862.735 803.310, 860.925 804.485, 859 805.497 C 856.310 806.911, 852.759 807.412, 843.650 807.660 C 837.132 807.837, 829.707 808.587, 827.150 809.327 C 822.017 810.812, 780.428 811, 778.080 809.549 C 777.374 809.113, 773.435 808.380, 769.327 807.919 C 763.052 807.215, 761.292 806.585, 758.331 803.986 C 754.005 800.188, 751.609 800.403, 751.196 804.628 C 750.859 808.083, 754.043 812.565, 764.124 822.822 C 773.005 831.859, 784.239 836.972, 798.500 838.469 C 802.350 838.873, 805.861 839.424, 806.302 839.693 C 807.447 840.391, 824.033 840.300, 824.742 839.591 C 825.067 839.266, 827.171 838.983, 829.417 838.963 C 838.226 838.884, 860.200 832.422, 867.243 827.839 C 869.221 826.553, 873.155 824.150, 875.986 822.500 C 878.817 820.850, 882.791 818.218, 884.817 816.651 C 886.843 815.083, 890.075 812.979, 892 811.974 C 896.103 809.833, 902 804.574, 902 803.056 C 902 802.475, 902.610 802, 903.355 802 C 904.557 802, 907.704 798.839, 918.093 787.198 C 920.665 784.316, 920.856 783.713, 919.591 782.448 C 917.576 780.434, 916.891 780.593, 913.242 783.926 M 365.081 851.750 C 351.650 851.907, 340.175 852.425, 339.581 852.900 C 337.790 854.331, 321.777 854.979, 274.500 855.531 C 225.805 856.100, 221.853 856.524, 218.580 861.519 C 216.803 864.230, 216.432 871, 218.059 871 C 218.641 871, 218.875 871.393, 218.578 871.874 C 218.280 872.355, 220.339 873.705, 223.152 874.874 C 227.691 876.761, 230.194 876.999, 245.383 876.995 C 254.798 876.993, 269.700 876.551, 278.500 876.013 C 293.250 875.112, 398.330 873.034, 435.481 872.909 C 450.908 872.857, 451.628 872.762, 456.232 870.178 C 459.955 868.087, 461.131 866.804, 461.597 864.328 C 462.574 859.131, 461.200 855.286, 457.561 853.038 C 454.023 850.851, 448.336 850.772, 365.081 851.750 M 942.430 913.322 C 942.076 914.245, 942.076 915.755, 942.430 916.678 C 943.032 918.248, 943.181 918.248, 944.751 916.678 C 946.321 915.107, 946.321 914.893, 944.751 913.322 C 943.181 911.752, 943.032 911.752, 942.430 913.322 M 439.917 922.416 C 439.688 922.646, 394.725 923.339, 340 923.958 C 285.275 924.576, 238.137 925.321, 235.249 925.613 C 231.097 926.033, 228.950 926.972, 224.999 930.095 C 219.723 934.265, 218.931 936.559, 221.110 941.343 C 222.622 944.660, 225.269 945.743, 233.500 946.410 C 241.188 947.034, 375.250 945.397, 421.660 944.113 C 450.091 943.327, 450.941 943.244, 455.660 940.792 C 461.694 937.656, 463.556 934.285, 462.365 928.655 C 461.594 925.008, 461.065 924.432, 457.500 923.358 C 453.710 922.217, 440.808 921.526, 439.917 922.416 M 936.435 925.402 C 935.565 928.871, 936.499 929.805, 938.012 926.978 C 938.822 925.464, 938.864 924.464, 938.148 923.748 C 937.432 923.032, 936.902 923.543, 936.435 925.402" stroke="none" fill="#171916" fill-rule="evenodd"/>
</svg>