<svg role="img" aria-labelledby="artwork-title" shape-rendering="geometricPrecision" xmlns="http://www.w3.org/2000/svg" width="1200" height="1200" viewBox="0 0 1200 1200" version="1.1">
	<title id="artwork-title">Mascot working with a database cylinder</title>
	<path d="M 809 231.947 C 803.651 234.906, 796.143 238, 794.312 238 C 793.125 238, 790.881 239.042, 789.327 240.315 C 787.772 241.589, 784.925 243.585, 783 244.752 C 781.075 245.919, 777.721 248.702, 775.547 250.937 C 770.912 255.701, 767.014 256.287, 763.483 252.750 C 759.703 248.963, 752.803 244.328, 746.500 241.342 C 740.599 238.547, 740.204 238.500, 722.500 238.500 L 704.500 238.500 699.500 241.496 C 696.750 243.144, 694.230 244.494, 693.900 244.496 C 692.506 244.505, 681.159 253.186, 677.134 257.324 C 674.733 259.792, 670.627 265.792, 668.010 270.656 C 662.686 280.551, 663.535 280.160, 651.788 278.132 C 643.277 276.663, 635.078 277.610, 628.008 280.879 C 624.979 282.279, 621.712 283.301, 620.750 283.150 C 619.788 282.998, 619 283.353, 619 283.937 C 619 284.522, 618.127 285, 617.059 285 C 615.991 285, 614.829 285.468, 614.475 286.041 C 614.121 286.613, 612.182 288.141, 610.166 289.436 C 606.625 291.711, 602.480 295.498, 596.772 301.672 C 595.272 303.294, 593.344 306.607, 592.489 309.033 C 591.633 311.458, 590.075 314.356, 589.027 315.472 C 587.979 316.587, 587.040 317.950, 586.941 318.500 C 586.842 319.050, 586.304 320.625, 585.747 322 C 585.190 323.375, 584.592 328.476, 584.418 333.336 C 584.227 338.680, 583.588 342.792, 582.801 343.741 C 581.228 345.637, 575.017 348.464, 573.172 348.122 C 572.442 347.987, 569.476 349.704, 566.580 351.938 C 563.684 354.172, 560.879 356, 560.345 356 C 559.154 356, 554 361.272, 554 362.490 C 554 362.975, 553.136 364.300, 552.080 365.436 C 548.602 369.175, 542.202 382.390, 540.909 388.500 C 538.967 397.682, 539.267 415.360, 541.479 422 C 543.497 428.060, 546.779 433.758, 551.146 438.785 C 554.843 443.040, 554.752 444.263, 550.250 450.797 L 546.500 456.241 546.166 468.371 C 545.942 476.517, 546.243 481.485, 547.082 483.500 C 547.770 485.150, 548.371 486.725, 548.419 487 C 548.614 488.122, 554.861 495.594, 560.342 501.260 C 565.596 506.692, 566.118 507.611, 565.535 510.400 C 563.134 521.885, 564.492 533.231, 569.148 540.572 C 570.717 543.046, 572 545.778, 572 546.645 C 572 547.511, 569.976 550.216, 567.503 552.654 C 562.329 557.754, 556.795 566.015, 555.185 571.040 C 552.300 580.045, 549.851 595.773, 550.285 602.500 C 550.873 611.606, 554.476 627.446, 556.889 631.537 C 557.933 633.306, 559.102 636.189, 559.488 637.944 C 559.873 639.699, 560.821 641.378, 561.594 641.675 C 562.367 641.971, 563 642.663, 563 643.213 C 563 644.559, 566.819 649.148, 574.612 657.165 L 581.091 663.830 580.478 668.665 C 579.417 677.038, 581.486 690.040, 584.765 695.601 C 586.353 698.296, 587.801 700.950, 587.982 701.500 C 588.163 702.050, 588.916 703.948, 589.655 705.718 C 590.395 707.488, 591.003 709.738, 591.006 710.718 C 591.018 714.843, 593.301 720.146, 596.977 724.595 C 599.137 727.209, 600.693 729.688, 600.436 730.104 C 600.178 730.521, 600.333 731.088, 600.779 731.363 C 601.226 731.639, 603.044 734.708, 604.819 738.183 C 606.826 742.110, 609.268 745.264, 611.274 746.521 C 616.623 749.871, 615.495 751.211, 607.325 751.211 C 603.378 751.211, 599.778 750.995, 599.325 750.732 C 598.871 750.469, 585.450 749.969, 569.500 749.621 C 553.550 749.272, 535.226 748.458, 528.781 747.811 L 517.062 746.634 510.890 749.817 C 504.553 753.086, 496.817 754.131, 495.441 751.904 C 495.068 751.302, 493.249 750.986, 491.398 751.202 C 489.546 751.418, 487.904 751.211, 487.747 750.742 C 487.591 750.273, 481.847 749.717, 474.982 749.506 C 460.854 749.071, 461.014 749.116, 451.500 743.001 C 447.650 740.527, 444.275 738.470, 444 738.432 C 443.725 738.393, 440.957 737.200, 437.849 735.780 C 434.741 734.359, 431.141 732.883, 429.849 732.499 C 428.557 732.115, 422.550 729.404, 416.500 726.475 C 396.521 716.802, 387.513 712.624, 386.500 712.562 C 385.950 712.528, 385.275 712.236, 385 711.913 C 384.725 711.591, 380.675 709.458, 376 707.173 C 362.078 700.370, 349.970 693.222, 342 687.102 C 337.875 683.933, 332.475 680.252, 330 678.921 C 327.525 677.589, 325.350 676.163, 325.167 675.750 C 324.983 675.337, 324.046 675, 323.083 675 C 322.121 675, 320.996 674.663, 320.583 674.250 C 320.171 673.837, 319.533 673.484, 319.167 673.465 C 318.800 673.445, 317.600 672.939, 316.500 672.339 C 311.310 669.510, 297.767 665.723, 290.053 664.943 C 285.349 664.468, 277.225 663.570, 272 662.947 C 261.431 661.689, 256.831 662.023, 236.500 665.530 C 223.874 667.708, 213.193 670.778, 210.500 673.004 C 209.950 673.458, 209.150 673.843, 208.723 673.858 C 206.248 673.949, 191.740 681.905, 187.500 685.497 C 180.514 691.416, 171.744 700.029, 169.680 703 C 168.724 704.375, 166.599 707.300, 164.957 709.500 C 162.474 712.827, 159.033 719.016, 158.562 721 C 158.497 721.275, 157.157 724.200, 155.584 727.500 C 153.294 732.304, 152.583 735.512, 152.015 743.599 C 151.624 749.153, 151.003 754.186, 150.634 754.783 C 150.265 755.380, 147.586 756.560, 144.682 757.404 C 138.137 759.307, 120.298 768.465, 111.478 774.450 C 99.801 782.374, 87.806 796.519, 86.374 804.052 C 85.422 809.058, 84.190 811, 81.965 811 C 80.029 811, 80 812.130, 80 888.544 C 80 950.054, 80.258 966.033, 81.250 965.822 C 81.938 965.676, 84.638 966.165, 87.250 966.908 C 93.093 968.571, 100.385 967.865, 103.151 965.368 C 105.016 963.684, 105.166 962.710, 104.673 955.500 C 104.372 951.100, 103.985 946.600, 103.813 945.500 C 103.554 943.845, 104.008 943.537, 106.440 943.714 C 108.057 943.832, 109.739 944.569, 110.177 945.351 C 111.321 947.396, 119.855 952.685, 124.859 954.450 C 127.209 955.279, 130.437 956.887, 132.032 958.023 C 133.627 959.158, 137.243 960.774, 140.067 961.613 C 142.891 962.451, 146.969 964.059, 149.129 965.184 C 152.618 967.003, 155.424 967.286, 174.278 967.727 C 198.493 968.292, 235.806 966.693, 240.988 964.867 L 244.476 963.638 241.488 962.364 C 239.845 961.664, 237.289 961.070, 235.809 961.045 C 234.329 961.020, 232.821 960.520, 232.459 959.933 C 232.094 959.343, 229.277 958.949, 226.150 959.051 C 223.042 959.152, 219.825 958.995, 219 958.701 C 218.175 958.408, 212.299 957.926, 205.943 957.631 C 197.395 957.234, 193.128 956.555, 189.558 955.025 C 186.903 953.887, 180.854 952.550, 176.116 952.054 C 166.459 951.044, 164.781 950.564, 160.500 947.591 C 158.850 946.445, 157.387 945.619, 157.250 945.754 C 156.894 946.105, 157.122 946.172, 150 943.607 C 137.054 938.944, 132.655 937.025, 130.597 935.147 C 128.651 933.372, 126.140 931.834, 118.912 927.993 C 114.445 925.619, 106.561 917.702, 104.648 913.670 C 103.107 910.423, 102.929 906.911, 103.121 883.453 C 103.240 868.854, 103.710 856.679, 104.166 856.397 C 105.100 855.820, 111 859.046, 111 860.134 C 111 860.521, 112.687 861.846, 114.750 863.080 C 116.812 864.314, 119.400 866.115, 120.500 867.082 C 121.600 868.049, 124.525 869.629, 127 870.593 C 129.475 871.558, 132.573 873.169, 133.885 874.173 C 135.197 875.178, 137.046 876, 137.994 876 C 138.942 876, 142.342 877.324, 145.549 878.941 C 148.757 880.559, 151.745 881.658, 152.190 881.382 C 152.636 881.107, 153 881.299, 153 881.809 C 153 882.319, 154.702 882.965, 156.782 883.244 C 158.862 883.523, 162.574 884.653, 165.032 885.755 C 167.489 886.858, 172.200 888.064, 175.500 888.436 C 185.923 889.611, 205.451 893.228, 206.700 894.214 C 207.360 894.735, 209.391 895.033, 211.214 894.876 C 213.037 894.719, 215.197 895.005, 216.014 895.511 C 217.997 896.739, 313.041 896.795, 314.947 895.569 C 315.743 895.057, 318.512 894.751, 321.100 894.888 C 323.688 895.026, 326.637 894.712, 327.653 894.192 C 331.316 892.315, 336.823 890.974, 347.069 889.464 C 352.806 888.618, 359.300 887.296, 361.500 886.527 C 363.700 885.757, 367.975 884.589, 371 883.932 C 374.025 883.274, 376.950 882.470, 377.500 882.145 C 378.050 881.819, 378.950 881.534, 379.500 881.512 C 380.050 881.489, 382.300 880.526, 384.500 879.371 C 386.700 878.215, 390.260 876.951, 392.410 876.560 C 394.561 876.169, 398.786 874.533, 401.801 872.925 C 404.815 871.316, 408.118 870, 409.141 870 C 410.163 870, 411 869.523, 411 868.941 C 411 868.359, 411.403 868.131, 411.895 868.435 C 412.388 868.740, 413.043 868.330, 413.352 867.526 C 413.660 866.721, 415.620 865.351, 417.706 864.481 C 419.793 863.611, 422.911 861.533, 424.635 859.865 C 426.731 857.836, 428.553 856.942, 430.135 857.165 L 432.500 857.500 432.766 885.250 C 432.965 906.088, 432.737 913, 431.849 913 C 431.199 913, 430.902 913.235, 431.189 913.522 C 431.812 914.145, 420.971 926, 419.778 926 C 418.883 926, 410.231 931.577, 405.695 935.078 C 402.968 937.183, 391.073 942.145, 384 944.128 C 382.075 944.667, 379.825 945.383, 379 945.718 C 378.175 946.053, 377.275 946.407, 377 946.504 C 376.725 946.601, 374.778 947.448, 372.674 948.386 C 370.570 949.323, 364.045 950.969, 358.174 952.043 C 352.303 953.117, 345.679 954.638, 343.454 955.422 C 341.229 956.207, 334.929 957.143, 329.454 957.502 C 323.979 957.861, 318.825 958.391, 318 958.678 C 317.175 958.966, 312.598 959.130, 307.830 959.042 C 303.061 958.955, 298.336 959.320, 297.330 959.855 C 296.323 960.389, 293.336 961.203, 290.691 961.663 C 288.046 962.123, 285.796 962.950, 285.691 963.500 C 285.295 965.574, 300.559 966.891, 332.500 967.540 C 369.600 968.293, 382.271 967.506, 386.491 964.186 C 387.948 963.039, 391.134 961.803, 393.570 961.437 C 396.007 961.072, 398 960.347, 398 959.827 C 398 959.307, 398.403 959.131, 398.895 959.435 C 399.388 959.740, 400.019 959.394, 400.297 958.667 C 400.576 957.941, 402.986 956.532, 405.652 955.537 C 411.970 953.178, 418.006 949.497, 424.028 944.329 C 427.453 941.390, 429.496 940.317, 430.944 940.696 C 433.376 941.332, 433.278 940.690, 433.018 954.262 L 432.811 965.023 436.373 966.512 C 442.169 968.933, 452.913 967.735, 453.052 964.652 C 453.081 964.018, 453.193 952.346, 453.302 938.713 C 453.513 912.239, 453.706 911.268, 458.500 912.479 C 463.324 913.698, 472.487 915.086, 485.463 916.562 C 501.873 918.429, 505.666 919.709, 506.568 923.684 C 506.920 925.233, 507.526 927.845, 507.915 929.489 C 508.415 931.607, 510.206 933.547, 514.061 936.148 L 519.500 939.817 550 941.021 C 594.992 942.796, 597.339 943.025, 600.422 945.924 C 603.320 948.650, 603.710 951.679, 601.532 954.559 C 599.304 957.504, 599.607 963.334, 602.105 965.595 C 604.159 967.454, 608.407 967.497, 778.355 967.364 C 874.135 967.290, 953.850 967.219, 955.500 967.207 C 957.150 967.195, 993.150 967.381, 1035.500 967.620 C 1107.748 968.029, 1112.731 967.946, 1116.239 966.278 C 1120.210 964.389, 1121.243 961.276, 1118.621 959.100 C 1117.813 958.430, 1116.735 953.929, 1116.019 948.243 C 1115.346 942.901, 1113.954 936.274, 1112.925 933.515 C 1111.896 930.757, 1110.621 925.432, 1110.093 921.682 C 1109.564 917.932, 1108.597 914.219, 1107.943 913.432 C 1107.290 912.644, 1107.105 912, 1107.533 912 C 1107.960 912, 1107.555 911.165, 1106.632 910.145 C 1105.708 909.125, 1104.084 905.188, 1103.021 901.395 C 1101.958 897.603, 1100.169 892.717, 1099.045 890.539 C 1097.920 888.360, 1096.998 885.885, 1096.996 885.039 C 1096.993 884.192, 1095.634 881.475, 1093.975 879 C 1092.315 876.525, 1090.263 872.146, 1089.413 869.268 C 1088.564 866.391, 1087.411 863.754, 1086.852 863.408 C 1086.292 863.063, 1084.956 860.917, 1083.883 858.640 C 1081.324 853.213, 1069.604 834.715, 1064.396 827.883 C 1054.350 814.705, 1029.247 792.466, 1016.729 785.655 C 1013.853 784.091, 1009.025 781.321, 1006 779.501 C 1000.482 776.181, 988.272 770.902, 978 767.394 C 974.975 766.362, 972.213 765.118, 971.862 764.630 C 971.511 764.143, 970.723 764.053, 970.112 764.431 C 969.500 764.809, 969 764.641, 969 764.059 C 969 763.477, 967.904 763, 966.565 763 C 965.226 763, 962.863 762.489, 961.315 761.866 C 957.157 760.190, 946.259 757.128, 940.161 755.922 C 937.224 755.341, 933.340 754.033, 931.528 753.016 C 929.228 751.724, 927.918 751.482, 927.184 752.216 C 926.583 752.817, 925.358 752.927, 924.317 752.474 C 923.318 752.039, 922.176 751.749, 921.780 751.831 C 921.384 751.913, 920.558 751.042, 919.944 749.896 C 918.630 747.440, 920.557 744.983, 928.216 739.349 C 931.722 736.769, 933.095 735.008, 933.569 732.482 C 934.056 729.885, 935.502 728.107, 939.698 724.938 C 945.047 720.900, 948 716.309, 948 712.032 C 948 710.914, 948.450 710, 949 710 C 949.550 710, 950 709.373, 950 708.607 C 950 707.841, 950.619 706.977, 951.375 706.687 C 952.131 706.396, 953.066 704.042, 953.454 701.455 C 953.977 697.972, 955.136 695.705, 957.919 692.722 C 961.521 688.860, 961.816 688.740, 964.988 689.846 C 972.178 692.352, 986.244 689.925, 993.802 684.873 C 996.168 683.292, 999.500 681.276, 1001.208 680.393 C 1002.915 679.510, 1005.227 677.935, 1006.344 676.894 C 1007.462 675.852, 1008.731 675, 1009.163 675 C 1009.595 675, 1010.630 673.682, 1011.463 672.071 C 1012.296 670.460, 1013.820 668.875, 1014.848 668.548 C 1015.877 668.222, 1018.469 665.488, 1020.609 662.473 C 1022.749 659.459, 1025.940 655.026, 1027.699 652.623 C 1029.459 650.219, 1031.206 646.959, 1031.582 645.377 C 1031.958 643.794, 1033.444 640.025, 1034.883 637 C 1037.421 631.666, 1037.500 630.926, 1037.500 612.500 C 1037.500 593.650, 1037.478 593.461, 1034.750 588.508 C 1033.237 585.762, 1032 582.532, 1032 581.329 C 1032 580.127, 1031.293 578.436, 1030.429 577.571 C 1029.564 576.707, 1029.214 576, 1029.651 576 C 1030.088 576, 1029.445 575.299, 1028.223 574.443 C 1027 573.587, 1026 572.316, 1026 571.618 C 1026 570.920, 1024.875 569.292, 1023.500 568 C 1021.037 565.686, 1020.157 561.639, 1021.884 560.572 C 1022.370 560.271, 1023.679 558.107, 1024.793 555.763 C 1025.907 553.418, 1027.792 550.472, 1028.981 549.215 C 1031.624 546.421, 1032.915 535.852, 1032.215 522.729 L 1031.747 513.957 1037.719 507.229 C 1041.003 503.528, 1044.271 498.700, 1044.980 496.500 C 1045.690 494.300, 1047.222 490.700, 1048.384 488.500 C 1050.244 484.980, 1050.498 482.821, 1050.499 470.500 L 1050.500 456.500 1046.724 449.278 C 1044.389 444.813, 1040.620 439.779, 1036.850 436.090 C 1029.954 429.343, 1029.769 427.934, 1034.813 420.585 C 1037.479 416.702, 1037.500 416.531, 1037.500 399.085 C 1037.500 382.908, 1037.330 381.220, 1035.371 378 C 1034.200 376.075, 1032.696 372.792, 1032.028 370.703 C 1031.017 367.542, 1028.261 363.605, 1022.085 356.500 C 1020.046 354.154, 1013.572 348.745, 1009.872 346.297 C 1004.802 342.941, 989.932 338, 984.905 338 C 980.097 338, 979 336.186, 979 328.232 C 979 324.988, 978.663 321.996, 978.250 321.583 C 977.837 321.171, 977.484 320.533, 977.465 320.167 C 977.445 319.800, 976.848 318.452, 976.137 317.171 C 975.427 315.891, 974.165 312.552, 973.334 309.752 C 970.254 299.382, 953.373 281.272, 941.503 275.604 C 930.643 270.418, 928.921 269.787, 926.997 270.290 C 925.900 270.577, 924.750 270.404, 924.442 269.906 C 923.742 268.773, 908 268.697, 908 269.827 C 908 270.282, 906.650 270.455, 904.999 270.213 C 901.724 269.733, 895.930 272.070, 892.911 275.089 C 890.428 277.572, 884.417 277.671, 883.167 275.250 C 882.670 274.288, 881.970 271.873, 881.612 269.886 C 879.846 260.088, 858.251 239.422, 847.741 237.472 C 845.674 237.088, 842.903 235.925, 841.584 234.887 C 840.264 233.849, 838.468 233, 837.592 233 C 836.717 233, 836 232.550, 836 232 C 836 230.781, 811.197 230.732, 809 231.947 M 811.500 253.865 C 808.200 254.241, 804.375 255.197, 803 255.989 C 801.625 256.781, 800.275 257.465, 800 257.510 C 797.346 257.938, 790.132 263.054, 784.943 268.188 C 779.034 274.035, 774.398 280.731, 775.497 281.830 C 776.083 282.416, 782.436 278.037, 786.812 274.032 C 788.633 272.364, 790.483 271, 790.922 271 C 791.361 271, 793.390 269.425, 795.431 267.500 C 797.661 265.397, 800.154 264, 801.677 264 C 803.071 264, 806.976 263.281, 810.356 262.403 C 820.610 259.737, 838.012 262.465, 844.740 267.794 C 846.929 269.528, 848.938 270.729, 849.203 270.463 C 850.317 269.350, 860.520 280.914, 862.405 285.427 C 863.278 287.515, 864.596 289, 865.579 289 C 868.066 289, 866.934 281.013, 863.880 277.013 C 855.868 266.516, 849.798 261.409, 842.458 258.986 C 840.371 258.297, 837.240 256.894, 835.502 255.868 C 831.862 253.721, 820.834 252.800, 811.500 253.865 M 707.500 260.175 C 698.357 263.605, 687.246 273.674, 684.981 280.584 C 684.275 282.738, 683.041 285.509, 682.238 286.742 C 680.744 289.039, 681.244 292.585, 682.916 291.552 C 683.428 291.236, 684.142 289.632, 684.503 287.989 C 684.864 286.345, 685.720 285, 686.405 285 C 687.091 285, 688.708 283.875, 690 282.500 C 691.292 281.125, 691.965 280, 691.495 280 C 691.026 280, 692.860 277.867, 695.571 275.260 C 698.282 272.653, 700.812 270.619, 701.192 270.741 C 701.573 270.862, 703.247 269.599, 704.913 267.934 C 707.616 265.230, 708.915 264.797, 717.042 263.889 C 729.223 262.529, 741.561 263.928, 743.647 266.906 C 744.453 268.058, 745.763 269, 746.557 269 C 747.351 269, 748 269.477, 748 270.059 C 748 270.641, 748.453 270.838, 749.008 270.495 C 749.562 270.153, 750.799 270.657, 751.758 271.615 C 753.414 273.271, 753.517 273.270, 753.841 271.589 C 754.193 269.759, 750.429 265, 748.629 265 C 748.067 265, 745.824 263.764, 743.644 262.253 C 739.810 259.597, 739.197 259.498, 725.090 259.278 C 716.151 259.138, 709.338 259.486, 707.500 260.175 M 897.159 291.946 C 894.018 292.734, 887 298.434, 887 300.196 C 887 301.605, 891.706 301.059, 893 299.500 C 893.685 298.675, 895.738 298, 897.563 298 C 899.389 298, 901.160 297.550, 901.500 297 C 901.840 296.450, 903.640 296, 905.500 296 C 907.360 296, 909.160 296.450, 909.500 297 C 909.840 297.550, 912.241 298, 914.837 298 C 917.432 298, 920.443 298.610, 921.527 299.356 C 922.612 300.102, 925.760 301.454, 928.523 302.361 C 934.218 304.231, 943.222 311.579, 945.665 316.351 C 946.552 318.083, 948.518 320.925, 950.034 322.666 C 952.052 324.983, 953.111 327.729, 953.986 332.916 C 955.910 344.325, 958.819 340.676, 957.664 328.302 C 957.148 322.782, 956.358 320.751, 952.370 314.698 C 946.190 305.317, 939.111 298.672, 931.087 294.721 C 924.926 291.687, 923.848 291.489, 912.523 291.303 C 905.910 291.195, 898.996 291.484, 897.159 291.946 M 629.698 302.351 C 625.957 304.163, 621.523 306.851, 619.845 308.323 C 618.167 309.795, 616.391 311, 615.897 311 C 615.404 311, 615 311.479, 615 312.065 C 615 312.650, 613.677 314.242, 612.060 315.603 C 610.112 317.242, 608.561 320.005, 607.465 323.789 C 606.555 326.930, 605.437 329.956, 604.979 330.514 C 603.936 331.785, 603.295 343.628, 604.219 344.552 C 604.595 344.928, 605.170 343.945, 605.497 342.368 C 606.975 335.232, 608.126 332.196, 609.991 330.508 C 611.096 329.508, 612 328.112, 612 327.406 C 612 324.598, 628.261 308.425, 630.002 309.501 C 630.363 309.724, 632.250 308.594, 634.196 306.990 C 637.200 304.514, 639.153 303.902, 647.117 302.939 C 652.278 302.316, 656.688 301.624, 656.917 301.403 C 658.175 300.186, 654.860 299.539, 646.200 299.311 C 637.016 299.069, 636.138 299.231, 629.698 302.351 M 961.675 358.658 C 961.313 359.020, 961.505 359.903, 962.100 360.621 C 962.989 361.692, 963.570 361.682, 965.342 360.562 C 967.647 359.105, 983 359.519, 983 361.038 C 983 361.464, 983.807 361.602, 984.794 361.344 C 985.888 361.057, 988.022 362.166, 990.268 364.187 C 992.292 366.009, 996.435 369.505, 999.474 371.956 C 1002.513 374.406, 1005 376.963, 1005 377.638 C 1005 378.312, 1006.290 379.783, 1007.868 380.906 C 1010.094 382.491, 1010.880 384.015, 1011.384 387.724 C 1012.205 393.772, 1013.363 395.773, 1015.174 394.272 C 1017.465 392.371, 1015.571 381, 1012.963 381 C 1012.569 381, 1011.292 378.781, 1010.125 376.068 C 1007.885 370.862, 1003.644 366.908, 994.184 361.205 C 988.911 358.027, 988.757 358, 975.600 358 C 968.303 358, 962.037 358.296, 961.675 358.658 M 582.362 366.500 C 582.045 367.325, 580.915 368, 579.850 368 C 577.854 368, 568 376.517, 568 378.242 C 568 378.775, 566.875 380.548, 565.500 382.182 C 564.125 383.816, 563 386.154, 563 387.377 C 563 388.600, 562.513 390.087, 561.918 390.682 C 560.646 391.954, 562.840 396.213, 564.492 395.681 C 565.046 395.503, 566.400 392.879, 567.500 389.850 C 569.496 384.355, 572.728 379.613, 578.608 373.553 C 580.318 371.791, 581.893 369.934, 582.108 369.425 C 582.324 368.916, 584.075 367.741, 586 366.814 L 589.500 365.128 586.219 365.064 C 584.178 365.024, 582.720 365.567, 582.362 366.500 M 762.356 389.036 C 757.901 393.862, 747.169 401.063, 739.090 404.646 C 728.192 409.480, 711.033 409.451, 700.396 404.581 C 693.828 401.574, 686.125 395.458, 684.922 392.296 C 683.647 388.942, 681.240 389.489, 679.559 393.514 C 678.751 395.447, 677.395 397.295, 676.545 397.621 C 675.695 397.947, 675 398.745, 675 399.395 C 675 400.941, 665.789 410, 664.216 410 C 663.547 410, 663 410.450, 663 411 C 663 411.550, 662.487 412, 661.860 412 C 661.233 412, 660.221 412.595, 659.610 413.323 C 657.417 415.936, 644.160 420.253, 640.460 419.559 C 637.600 419.022, 636.566 419.343, 634.500 421.409 C 633.125 422.784, 632 424.633, 632 425.517 C 632 426.402, 630.987 430.084, 629.750 433.701 C 627.174 441.230, 621.492 448.242, 614.072 453.050 L 609.281 456.155 608.586 471.352 C 607.887 486.643, 607.362 490.150, 604.674 497.500 C 602.807 502.605, 601.864 543.120, 603.599 543.699 C 604.204 543.901, 606.004 542.793, 607.599 541.236 C 613.466 535.513, 632.570 532.029, 658.201 532.009 C 670.060 531.999, 675.887 532.947, 686.973 536.688 C 696.591 539.934, 701.133 543.130, 709.155 552.291 L 715.675 559.737 719.587 557.815 C 721.739 556.758, 724.523 556.082, 725.774 556.313 C 727.024 556.543, 728.289 556.342, 728.583 555.866 C 729.296 554.712, 742.727 554.749, 743.442 555.906 C 743.750 556.404, 744.904 556.576, 746.006 556.288 C 747.109 556, 748.571 556.223, 749.255 556.784 C 749.940 557.345, 752.380 558.307, 754.678 558.921 L 758.856 560.038 767.428 551.543 C 772.143 546.871, 776.007 543.375, 776.015 543.774 C 776.024 544.173, 776.361 544.013, 776.765 543.417 C 778.163 541.355, 788.533 537.210, 796.500 535.527 C 808.505 532.991, 833.414 532.301, 840.712 534.302 C 843.896 535.174, 850.325 536.427, 855 537.085 C 860.114 537.806, 865.769 539.377, 869.196 541.029 C 872.328 542.540, 875.052 543.614, 875.249 543.417 C 875.939 542.728, 885.461 551.215, 887.709 554.522 L 889.977 557.860 912.238 558.182 C 924.482 558.359, 935.063 558.110, 935.750 557.629 C 937.732 556.243, 937.258 550.543, 934.990 548.491 C 933.885 547.491, 932.351 544.553, 931.582 541.964 C 930.813 539.375, 929.468 535.871, 928.592 534.178 C 926.273 529.693, 926.621 521.415, 929.500 512.597 C 933.138 501.451, 932.964 500.306, 927.250 497.824 C 922.195 495.628, 918.006 492.348, 917.991 490.576 C 917.987 489.984, 916.524 487.911, 914.741 485.968 C 912.959 484.025, 910.160 479.975, 908.523 476.968 C 905.658 471.706, 905.545 471.010, 905.523 458.500 L 905.500 445.500 895.725 444.862 C 884.863 444.154, 878.615 442.017, 871.686 436.642 C 866.193 432.380, 860.892 427.302, 859.011 424.501 C 858.180 423.263, 856.679 421.097, 855.676 419.688 C 854.673 418.278, 853.191 414.293, 852.384 410.832 C 850.937 404.629, 847.977 400.034, 845.648 400.375 C 844.992 400.472, 842.831 401.790, 840.844 403.305 C 836.464 406.647, 821.848 411.953, 816.950 411.980 C 814.997 411.991, 812.879 412.521, 812.242 413.158 C 811.444 413.956, 810.684 413.998, 809.792 413.294 C 809.082 412.732, 805.922 411.983, 802.771 411.630 C 795.659 410.832, 786.892 407.622, 783.090 404.422 C 781.507 403.090, 779.714 402, 779.106 402 C 778.498 402, 778 401.653, 778 401.228 C 778 400.804, 775.994 398.272, 773.542 395.601 C 771.091 392.931, 769.175 390.466, 769.285 390.123 C 769.395 389.780, 768.748 388.456, 767.848 387.179 L 766.212 384.858 762.356 389.036 M 225.289 453.772 C 220.938 457.173, 218.693 466.638, 220.919 472.203 C 222.937 477.250, 223.299 478.568, 223.106 480.161 C 222.995 481.075, 223.376 482.114, 223.952 482.470 C 224.528 482.827, 225 484.896, 225 487.070 C 225 489.243, 225.938 495.179, 227.085 500.261 C 228.231 505.342, 229.585 512.351, 230.093 515.836 C 231.070 522.542, 234.761 530.019, 238.327 532.517 C 241.823 534.965, 246.767 534.387, 250.003 531.150 C 253.854 527.300, 254.673 522.240, 252.633 514.902 C 251.735 511.673, 251 507.700, 251 506.074 C 251 504.448, 250.610 502.877, 250.134 502.583 C 249.658 502.289, 249.486 500.909, 249.752 499.518 C 250.018 498.127, 249.801 496.429, 249.271 495.744 C 247.900 493.975, 244.340 479.848, 243.036 471 C 241.252 458.901, 236.718 452.044, 230.500 452.044 C 228.850 452.044, 226.505 452.822, 225.289 453.772 M 646.269 496.958 C 629.366 502.357, 621.459 510.844, 625.466 519.287 C 628.328 525.318, 634.294 526.267, 650.810 523.317 C 658.733 521.901, 661.334 521.822, 667.136 522.817 C 679.961 525.016, 682.854 524.575, 688.250 519.598 C 692.533 515.647, 693 514.784, 693 510.817 C 693 506.935, 692.499 505.944, 688.750 502.410 C 682.066 496.109, 678.066 494.687, 666 494.325 C 656.621 494.043, 654.514 494.324, 646.269 496.958 M 814 496.111 C 802.343 497.972, 799.603 499.048, 794.145 503.911 C 789.514 508.037, 788.722 509.286, 788.288 513.138 C 787.861 516.923, 788.188 518.070, 790.466 520.777 C 794.387 525.437, 799.243 526.440, 810.945 525.007 C 823.476 523.472, 836.581 524.829, 844.057 528.435 C 850.189 531.393, 853.431 531.629, 857.822 529.439 C 862.630 527.040, 865 523.385, 865 518.368 C 865 514.760, 864.374 513.313, 861.384 510.003 C 859.395 507.801, 857.145 506, 856.384 506 C 855.623 506, 855 505.523, 855 504.941 C 855 504.359, 854.550 504.160, 854 504.500 C 853.450 504.840, 853 504.672, 853 504.126 C 853 503.581, 851.987 502.844, 850.750 502.488 C 849.513 502.132, 846.993 501.160, 845.151 500.327 C 842.295 499.035, 821.787 494.773, 820.081 495.117 C 819.761 495.181, 817.025 495.629, 814 496.111 M 145.495 518.414 C 142.738 521.171, 141.523 524.975, 142.354 528.250 C 143.114 531.249, 173.089 561.162, 176.909 562.734 C 182.651 565.097, 188.150 562.079, 190.090 555.500 C 191.172 551.829, 187.236 546.435, 172.311 531.135 L 157.500 515.953 152.705 515.976 C 148.988 515.995, 147.366 516.543, 145.495 518.414 M 627 556.220 C 620.875 560.045, 616.278 564.389, 612.396 570.023 C 609.107 574.795, 608.614 576.260, 608.561 581.406 C 608.493 588.041, 610.248 589.957, 612.155 585.331 C 612.798 583.774, 613.234 582.113, 613.125 581.640 C 613.016 581.167, 614.743 578.425, 616.963 575.548 C 619.183 572.670, 621 569.873, 621 569.332 C 621 567.957, 624.968 564.608, 628.252 563.211 C 630.685 562.177, 634.986 556.780, 634.996 554.750 C 635.004 553.245, 630.411 554.089, 627 556.220 M 798 560.500 C 797.315 561.325, 796.116 562, 795.335 562 C 793.744 562, 784 570.761, 784 572.191 C 784 572.696, 782.685 574.516, 781.077 576.236 C 776.800 580.812, 775.721 590, 779.460 590 C 780.620 590, 782.157 587.828, 782.414 585.827 C 782.691 583.664, 798.698 564.386, 801.616 562.700 C 803.642 561.530, 803.305 559, 801.122 559 C 800.090 559, 798.685 559.675, 798 560.500 M 578.790 569.037 C 577.850 569.597, 576.778 571.730, 576.409 573.777 C 576.040 575.825, 575.466 577.950, 575.134 578.500 C 574.802 579.050, 574.505 579.725, 574.473 580 C 574.442 580.275, 573.633 581.968, 572.676 583.763 C 569.267 590.153, 569.511 609.056, 573.112 617.500 C 573.815 619.150, 574.459 620.950, 574.542 621.500 C 574.698 622.530, 575.495 624.826, 577.060 628.750 C 579.119 633.914, 581.959 630.426, 581.986 622.698 C 581.994 620.607, 582.878 617.232, 583.950 615.198 C 587.235 608.970, 588.179 604.716, 586.778 602.450 C 585.241 599.963, 584.041 585.243, 584.934 579.829 C 586.479 570.466, 583.926 565.982, 578.790 569.037 M 983 575.293 C 976.303 577.833, 973.552 579.514, 972.440 581.743 C 971.826 582.977, 970.620 584.777, 969.761 585.743 C 968.902 586.709, 967.746 589.169, 967.192 591.208 C 966.638 593.248, 964.800 596.848, 963.108 599.208 C 959.821 603.794, 956.484 613.355, 957.561 615.099 C 960.513 619.876, 959.436 644.966, 955.939 652.871 C 952.360 660.962, 953.382 664.338, 960.402 667.606 C 970.669 672.387, 982.934 669.960, 994.203 660.916 C 1001.685 654.911, 1008.784 646.751, 1009.644 643.166 C 1009.995 641.700, 1011.345 638.660, 1012.642 636.412 C 1013.939 634.164, 1015 631.201, 1015 629.829 C 1015 628.456, 1015.319 627.014, 1015.709 626.624 C 1016.099 626.234, 1016.293 624.180, 1016.140 622.059 C 1015.987 619.939, 1016.343 617.906, 1016.931 617.543 C 1018.357 616.661, 1018.333 602.324, 1016.904 601.441 C 1016.301 601.068, 1015.984 599.561, 1016.200 598.091 C 1016.429 596.530, 1015.659 593.773, 1014.347 591.460 C 1013.112 589.282, 1011.094 585.597, 1009.862 583.271 C 1008.236 580.201, 1006.373 578.453, 1003.061 576.892 C 997.462 574.252, 987.779 573.480, 983 575.293 M 723.235 579.037 C 720.225 580.246, 719 583.813, 719 591.365 C 719 594.881, 718.477 598.123, 717.800 598.800 C 717.140 599.460, 716.946 600, 717.368 600 C 717.791 600, 717.279 601.237, 716.230 602.750 C 715.182 604.263, 713.743 607.750, 713.031 610.500 C 712.319 613.250, 710.716 617.075, 709.469 619 C 708.221 620.925, 706.900 623.513, 706.533 624.750 C 706.166 625.987, 705.419 627, 704.874 627 C 704.328 627, 704.160 627.450, 704.500 628 C 704.840 628.550, 704.427 629, 703.582 629 C 702.737 629, 701.280 630.237, 700.343 631.750 C 697.927 635.652, 692.811 641, 691.495 641 C 690.883 641, 687.934 642.474, 684.941 644.277 C 679.748 647.404, 678.784 647.890, 676.500 648.538 C 664.353 651.985, 649.934 652.747, 639 650.521 C 634.325 649.569, 629.868 648.275, 629.096 647.645 C 628.324 647.015, 627.424 646.581, 627.096 646.680 C 625.982 647.017, 615.507 640.626, 614.193 638.809 C 613.475 637.814, 612.343 637, 611.679 637 C 611.015 637, 609.353 635.189, 607.986 632.975 C 603.673 625.993, 602.540 627.760, 602.218 641.977 C 602.048 649.429, 602.377 655.495, 603.035 657.084 C 603.640 658.545, 606.467 662.161, 609.317 665.120 C 612.895 668.834, 614.872 671.894, 615.701 675 C 617.002 679.878, 620.439 682.712, 626.895 684.230 C 631.072 685.213, 633.585 687.975, 634.438 692.519 C 635.175 696.452, 637.833 698.331, 641.393 697.438 C 643.064 697.018, 644.426 697.426, 645.740 698.740 C 646.792 699.792, 648.388 700.935, 649.287 701.280 C 650.185 701.625, 651.951 703.497, 653.210 705.441 C 657.173 711.557, 659 709.821, 659 699.940 C 659 693.068, 662.518 684.640, 667.741 679 C 669.524 677.075, 670.987 675.029, 670.991 674.453 C 671.006 672.719, 678.213 666.356, 682.710 664.106 C 685.026 662.948, 688.626 661.985, 690.710 661.967 C 693.286 661.944, 695.781 660.996, 698.500 659.005 C 708.219 651.889, 712.649 651.455, 724.730 656.433 C 732.495 659.632, 733.978 659.629, 740.816 656.394 C 748.163 652.918, 756.223 652.751, 761.646 655.962 C 763.962 657.333, 768.371 658.603, 772.695 659.143 C 778.042 659.811, 782.024 661.143, 788.195 664.328 C 799.202 670.007, 805 673.940, 805 675.727 C 805 676.530, 805.788 677.405, 806.750 677.671 C 810.033 678.579, 815.594 688.093, 817.464 696 C 818.439 700.125, 819.904 704.033, 820.719 704.683 C 821.534 705.334, 821.904 706.347, 821.541 706.933 C 821.179 707.520, 821.252 708, 821.704 708 C 822.156 708, 822.970 708.978, 823.513 710.173 C 825.137 713.747, 830.560 713.265, 834.102 709.231 C 837.827 704.989, 841.392 703.688, 847.221 704.447 C 851.766 705.038, 852.025 704.933, 854.201 701.615 C 857.128 697.149, 862.758 695.093, 867.331 696.819 C 869.510 697.641, 870.606 697.683, 870.849 696.953 C 871.043 696.371, 872.957 694.270, 875.101 692.286 C 877.245 690.302, 879 688.146, 879 687.494 C 879 685.520, 882.394 683.084, 887.583 681.334 C 890.287 680.422, 893.479 679.044, 894.675 678.272 C 896.773 676.918, 899.439 671.636, 899.139 669.427 C 899.059 668.837, 902.962 664.328, 907.812 659.408 C 916.065 651.036, 916.708 650.081, 917.826 644.513 C 918.715 640.085, 919.886 637.660, 922.404 635.032 C 926.769 630.476, 930 623.970, 930 619.736 C 930 617.738, 931.208 614.487, 933 611.661 C 936.441 606.235, 936.596 605.054, 934.420 600.844 C 932.979 598.059, 932.979 597.361, 934.420 592.956 C 936.179 587.576, 936.422 583.215, 935.080 581.096 C 933.920 579.263, 903.758 580.126, 901.429 582.059 C 900.616 582.733, 899.662 582.995, 899.307 582.640 C 898.952 582.286, 897.838 582.741, 896.831 583.653 C 895.444 584.908, 894.994 586.789, 894.976 591.405 C 894.947 598.568, 893.436 605.851, 891.535 607.985 C 890.793 608.818, 889.655 611.525, 889.006 614 C 888.357 616.475, 886.792 619.625, 885.527 621 C 884.263 622.375, 882.546 624.850, 881.712 626.500 C 880.262 629.369, 869.849 639.618, 862.825 645.090 C 858.124 648.751, 848.977 652.707, 842.066 654.067 C 838.323 654.803, 829.660 655.063, 818.335 654.778 C 800.835 654.337, 800.371 654.269, 793.617 651.146 C 785.953 647.603, 782.593 645.125, 774.220 636.839 C 766.641 629.338, 764.170 625.937, 762.011 620.030 C 761.021 617.321, 759.241 613.743, 758.056 612.078 C 756.870 610.413, 755.994 608.477, 756.108 607.776 C 756.222 607.074, 756.045 605.825, 755.715 605 C 755.385 604.175, 754.974 599.796, 754.801 595.269 C 754.498 587.340, 754.361 586.923, 751.064 583.911 C 749.181 582.191, 745.865 580.158, 743.695 579.392 C 739.307 577.844, 726.747 577.626, 723.235 579.037 M 97 591.681 C 93.653 592.941, 89 598.430, 89 601.119 C 89 606.648, 98.263 613.514, 108.250 615.387 C 111.559 616.008, 118.027 618.437, 123.586 621.146 C 124.734 621.705, 126.309 622.055, 127.086 621.924 C 127.864 621.792, 129.175 621.910, 130 622.184 C 140.489 625.681, 142.503 626.091, 146.147 625.475 C 154.043 624.141, 157.684 617.560, 154.152 611.006 C 152.135 607.264, 148.613 605.520, 136 602.020 C 126.194 599.298, 118.748 596.939, 116.345 595.793 C 115.160 595.227, 113.698 595.069, 113.095 595.441 C 112.493 595.813, 112 595.740, 112 595.277 C 112 593.749, 99.480 590.747, 97 591.681 M 249.813 683.967 C 246.136 684.342, 242.429 685.229, 241.576 685.937 C 240.723 686.645, 239.359 686.968, 238.545 686.656 C 237.730 686.343, 236.798 686.518, 236.473 687.044 C 236.148 687.570, 234.835 688, 233.555 688 C 228.661 688, 209.162 695.312, 207.700 697.696 C 207.260 698.413, 205.460 699.734, 203.700 700.630 C 199.816 702.608, 198.960 703.309, 192.098 710.130 C 182.699 719.474, 181.294 721.334, 178.125 728.636 C 173.619 739.017, 172.714 744.592, 173.210 758.894 C 173.606 770.329, 173.929 772.112, 176.689 778.091 C 178.362 781.717, 180.530 784.989, 181.506 785.364 C 183.893 786.280, 188 783.469, 188 780.920 C 188 778.011, 185.886 769.674, 184.864 768.550 C 183.656 767.222, 183.778 749.255, 185 748.500 C 185.550 748.160, 186 746.755, 186 745.377 C 186 742.331, 190.183 732.923, 192.330 731.141 C 193.184 730.432, 195.971 729.773, 198.522 729.676 C 205.666 729.405, 206.319 730.878, 205.324 745 C 203.752 767.296, 204.616 772.508, 211.779 783.939 C 215.051 789.160, 220.052 791.847, 222.040 789.452 C 223.248 787.996, 223.766 779.066, 222.740 777.370 C 222.451 776.892, 221.705 773.194, 221.083 769.152 C 219.919 761.592, 221.156 745.824, 223.103 743.408 C 223.587 742.807, 223.703 742.036, 223.360 741.694 C 222.415 740.748, 225.842 734.020, 229.698 729.250 C 233.761 724.225, 237.273 723.670, 241.314 727.415 C 245.080 730.905, 245.639 734.459, 243.527 741.485 C 240.908 750.198, 240.415 767.493, 242.539 776.161 C 243.861 781.552, 244.927 783.607, 247.640 785.989 C 251.725 789.576, 254.194 789.782, 257 786.770 C 259.645 783.931, 260.378 780.964, 259.600 776.247 C 257.522 763.650, 257.806 760.160, 261.735 750 C 262.054 749.175, 262.233 747.971, 262.131 747.325 C 262.030 746.679, 262.409 745.865, 262.973 745.516 C 263.538 745.167, 264 743.997, 264 742.916 C 264 739.380, 270.838 727.225, 274.323 724.567 C 278.430 721.434, 280.360 721.382, 285.415 724.266 C 290.878 727.383, 292.866 732.816, 290.935 739.354 C 290.181 741.909, 289.185 744, 288.723 744 C 288.260 744, 288.160 744.450, 288.500 745 C 288.840 745.550, 288.641 746, 288.059 746 C 287.477 746, 287 746.638, 287 747.417 C 287 748.196, 286.571 748.983, 286.047 749.167 C 284.428 749.733, 281.999 761.079, 282.024 767.960 C 282.058 777.229, 283.360 781.745, 287.118 785.622 C 289.905 788.497, 291.079 789, 295 789 C 301.897 789, 305.265 785.044, 309.598 771.850 C 311.468 766.157, 312.998 760.938, 312.999 760.250 C 312.999 759.563, 313.436 759, 313.969 759 C 314.501 759, 314.676 758.319, 314.357 757.487 C 313.587 755.480, 321.638 745.091, 324.949 743.819 C 326.352 743.280, 329.716 742.755, 332.424 742.652 C 336.773 742.487, 337.536 742.117, 338.963 739.483 C 340.710 736.256, 340.926 734.592, 339.750 733.417 C 338.202 731.869, 339.086 727.823, 341.500 725.409 C 343.617 723.292, 344.574 723.013, 347.750 723.585 C 349.812 723.957, 352.075 724.717, 352.777 725.275 C 355.552 727.480, 360 735.254, 360 737.901 C 360 744.537, 363.164 749, 367.869 749 C 368.970 749, 371.137 749.525, 372.685 750.166 C 374.233 750.808, 375.725 751.389, 376 751.458 C 376.275 751.528, 378.721 752.590, 381.437 753.818 C 384.152 755.047, 388.877 756.773, 391.937 757.654 C 397.704 759.315, 409.134 764.603, 413.814 767.776 C 415.291 768.778, 417.754 770.136, 419.286 770.794 C 425.319 773.384, 441.824 787.447, 446 793.555 C 446.825 794.762, 448.366 796.971, 449.424 798.464 C 453.158 803.734, 453.925 812.546, 453.963 850.639 C 454.006 893.030, 453.354 890.462, 464.500 892.091 C 468.350 892.653, 472.175 893.384, 473 893.714 C 473.825 894.045, 475.136 894.208, 475.914 894.076 C 476.691 893.945, 478.266 894.287, 479.414 894.836 C 484.659 897.348, 489.586 898.187, 504.387 899.091 C 522.597 900.203, 522.734 900.158, 525.467 892.149 C 531.356 874.888, 533.107 837.477, 529.188 812.657 C 526.941 798.427, 524.511 788.440, 522.767 786.263 C 522.222 785.582, 522.037 784.345, 522.357 783.513 C 522.676 782.681, 522.554 782, 522.085 782 C 521.617 782, 521.009 781.141, 520.734 780.092 C 520.460 779.043, 518.495 777.064, 516.368 775.695 C 512.829 773.417, 511.027 773.122, 495.166 772.219 C 485.632 771.676, 477.006 771.447, 475.998 771.711 C 474.989 771.975, 473.636 773.465, 472.991 775.023 C 472.345 776.581, 470.984 778.609, 469.966 779.530 C 466.992 782.223, 461.339 779.663, 455.541 773 C 449.859 766.470, 445.125 762.736, 439 759.954 C 436.525 758.830, 433.825 757.480, 433 756.953 C 432.175 756.426, 430.488 755.546, 429.250 754.998 C 425.370 753.277, 421.520 751.672, 421 751.558 C 420.725 751.497, 418.475 750.255, 416 748.798 C 413.525 747.341, 409.700 745.830, 407.500 745.440 C 405.300 745.050, 401.660 743.666, 399.412 742.365 C 397.164 741.064, 394.808 740, 394.177 740 C 393.546 740, 390.886 738.690, 388.265 737.089 C 385.644 735.488, 381.578 733.669, 379.229 733.045 C 376.881 732.422, 373.330 730.807, 371.340 729.456 C 369.349 728.105, 367.323 727, 366.836 727 C 366.350 727, 363.662 725.425, 360.864 723.500 C 358.065 721.575, 354.538 720, 353.025 720 C 351.513 720, 348.526 718.665, 346.388 717.034 C 344.249 715.402, 340.520 712.590, 338.101 710.784 C 335.681 708.978, 332.081 706.106, 330.101 704.403 C 325.216 700.202, 316.036 694.007, 314.638 693.969 C 314.012 693.951, 310.811 692.601, 307.525 690.969 C 304.239 689.336, 300.527 688, 299.275 688 C 298.024 688, 297 687.564, 297 687.031 C 297 686.499, 296.295 686.333, 295.433 686.664 C 294.570 686.995, 292.883 686.794, 291.683 686.217 C 290.482 685.640, 283.176 684.680, 275.448 684.084 C 260.433 682.926, 260.026 682.924, 249.813 683.967 M 693.695 693.725 C 686.838 696.010, 685.777 698.967, 686.184 714.648 C 686.451 724.912, 686.796 727.123, 688.405 728.898 C 689.453 730.054, 691.037 731, 691.926 731 C 692.815 731, 697.133 733.472, 701.521 736.493 C 705.909 739.514, 710.255 741.989, 711.178 741.993 C 713.170 742.001, 718.002 736.168, 717.369 734.519 C 716.923 733.356, 719.466 730.395, 724.507 726.207 L 727.267 723.913 730.937 726.457 C 734.020 728.593, 735.735 729, 741.649 729 C 749.316 729, 751.244 730.093, 752.507 735.155 C 752.871 736.616, 754.292 738.866, 755.665 740.155 C 757.921 742.275, 759.160 742.517, 768.585 742.682 C 780.164 742.883, 779.823 743.029, 789.750 733.614 C 793.598 729.965, 794 729.130, 794 724.792 C 794 722.156, 794.337 720, 794.750 720.001 C 795.643 720.001, 795.509 714.337, 794.549 711.500 C 791.848 703.515, 782.791 693.606, 778.722 694.184 C 776.356 694.520, 776.290 695.015, 777.564 702.757 C 778.216 706.717, 778.025 707.240, 774.818 710.257 C 772.922 712.041, 768.925 714.842, 765.935 716.482 C 760.694 719.358, 759.894 719.488, 743.500 720.124 C 722.664 720.931, 712.432 719.871, 705.562 716.193 C 699.572 712.986, 698.272 711.558, 697.419 707.246 C 696.744 703.831, 699.230 698.406, 700.975 699.484 C 701.463 699.786, 702.144 699.575, 702.490 699.016 C 703.213 697.847, 712.292 697.625, 713.417 698.750 C 713.829 699.163, 714.467 699.501, 714.833 699.502 C 715.200 699.502, 717.016 700.583, 718.868 701.904 C 722.189 704.271, 722.457 704.295, 738.346 703.670 C 752.507 703.112, 755.003 702.754, 758.978 700.708 C 761.988 699.160, 763.500 697.732, 763.500 696.441 C 763.500 694.673, 762.517 694.447, 752.500 693.905 C 746.450 693.578, 740.140 692.980, 738.478 692.576 C 736.523 692.101, 732.637 692.549, 727.478 693.844 C 719.306 695.895, 716.437 695.791, 705.500 693.050 C 700.338 691.756, 699.449 691.807, 693.695 693.725 M 335.500 765.939 C 333.250 767.194, 331.994 769.099, 330.477 773.556 C 329.365 776.825, 328.101 780.063, 327.668 780.750 C 327.236 781.438, 327.203 782, 327.596 782 C 327.989 782, 327.621 782.788, 326.778 783.750 C 325.936 784.712, 324.316 787.638, 323.179 790.251 C 320.416 796.601, 315.657 802.158, 309.067 806.730 C 303.868 810.337, 303.228 810.515, 294.220 810.850 C 285.038 811.191, 284.700 811.123, 280.489 808.100 C 275.169 804.279, 272.111 804.194, 267.887 807.750 C 264.963 810.211, 263.696 810.537, 255.812 810.849 C 248.266 811.149, 246.492 810.898, 243.444 809.099 C 239.239 806.618, 235.280 806.415, 232.267 808.526 C 226.465 812.589, 212.072 812.287, 207.500 808.006 C 203.793 804.535, 200.594 803.954, 194.297 805.607 C 188.337 807.172, 181.403 806.814, 177.500 804.740 C 171.388 801.492, 156.738 785.929, 158.311 784.356 C 158.638 784.029, 158.364 783.196, 157.702 782.503 C 157.041 781.811, 155.919 780.402, 155.210 779.373 C 153.325 776.637, 149.267 777.163, 141.385 781.165 C 137.598 783.088, 133.375 784.952, 132 785.307 C 130.625 785.663, 128.062 787.314, 126.304 788.977 C 124.547 790.640, 122.764 792, 122.343 792 C 119.638 792, 106.855 809.133, 106.550 813.167 C 106.523 813.533, 106.163 814.171, 105.750 814.583 C 104.775 815.558, 104.775 823.442, 105.750 824.417 C 106.162 824.829, 106.519 825.467, 106.542 825.833 C 106.842 830.603, 121.881 845.938, 128.786 848.515 C 131.379 849.482, 134.175 850.800, 135 851.443 C 136.393 852.530, 141.864 855.259, 143 855.434 C 143.275 855.477, 145.075 856.461, 147 857.622 C 148.925 858.783, 153.302 860.263, 156.726 860.912 C 160.150 861.561, 164.875 862.927, 167.226 863.947 C 169.577 864.968, 174.313 866.117, 177.752 866.500 C 181.190 866.883, 184.259 867.610, 184.571 868.115 C 184.883 868.620, 185.577 868.762, 186.113 868.430 C 186.649 868.099, 187.630 868.256, 188.294 868.780 C 193.342 872.763, 234.313 876.552, 270.500 876.383 C 296.834 876.260, 328.846 873.863, 336.934 871.408 C 339.445 870.645, 342.512 870.017, 343.750 870.011 C 344.988 870.005, 346 869.498, 346 868.883 C 346 868.229, 347.044 867.966, 348.524 868.249 C 349.912 868.515, 351.289 868.342, 351.583 867.866 C 351.877 867.390, 353.329 866.995, 354.809 866.988 C 356.289 866.982, 359.975 866.267, 363 865.401 C 366.025 864.534, 372.436 862.777, 377.246 861.497 C 382.057 860.216, 387.611 858.167, 389.590 856.945 C 391.568 855.722, 396.857 852.867, 401.343 850.600 C 405.829 848.333, 411.341 845.285, 413.591 843.827 C 418.760 840.477, 430 828.104, 430 825.764 C 430 824.794, 430.337 824, 430.750 824 C 431.845 824, 431.449 813.936, 430.236 810.949 C 428.398 806.420, 423.101 799.293, 419.016 795.853 C 416.826 794.009, 413.395 791.038, 411.392 789.250 C 409.388 787.462, 407.319 786, 406.795 786 C 406.270 786, 401.827 784.005, 396.921 781.567 C 392.014 779.130, 388 777.385, 388 777.690 C 388 777.995, 387.438 777.800, 386.750 777.255 C 384.649 775.592, 373.818 772.260, 368 771.488 C 364.975 771.086, 360.475 769.966, 358 768.999 C 355.525 768.032, 350.575 766.912, 347 766.509 C 343.425 766.107, 340.050 765.437, 339.500 765.021 C 338.950 764.605, 337.150 765.018, 335.500 765.939 M 874.267 781.490 C 869.946 785.378, 862 791.164, 862 790.423 C 862 790.056, 861.438 790.205, 860.750 790.754 C 860.063 791.304, 856.936 792.063, 853.802 792.442 C 850.538 792.837, 847.029 793.976, 845.590 795.108 C 844.207 796.195, 840.697 797.790, 837.788 798.651 C 834.880 799.513, 831.150 800.937, 829.500 801.817 C 827.850 802.696, 826.275 803.474, 826 803.544 C 825.725 803.615, 824.825 803.964, 824 804.320 C 817.391 807.170, 813.503 807.878, 807.524 807.320 C 802.663 806.866, 800.513 807.089, 798.775 808.228 C 794.210 811.219, 776.860 813.085, 763.500 812.023 C 758.185 811.600, 752.544 811.726, 749.723 812.331 C 742.912 813.792, 725.118 810.490, 719.748 806.768 C 715.932 804.123, 712.586 804.758, 712.188 808.202 C 711.575 813.520, 733.383 832.499, 742.500 834.582 C 744.150 834.959, 748.136 836.359, 751.359 837.692 C 756.766 839.930, 758.576 840.124, 774.859 840.204 C 791.711 840.288, 793.059 840.145, 805 837.023 C 812.024 835.186, 819.471 832.540, 822 830.984 C 824.475 829.460, 827.625 827.887, 829 827.488 C 834.191 825.979, 842.658 821.525, 846.889 818.077 C 854.154 812.156, 875.749 790.337, 878.585 786.052 C 882.828 779.639, 879.837 776.478, 874.267 781.490" stroke="none" fill="#171916" fill-rule="evenodd"/>
</svg>