<svg role="img" aria-labelledby="artwork-title" shape-rendering="geometricPrecision" xmlns="http://www.w3.org/2000/svg" width="1200" height="1200" viewBox="0 0 1200 1200" version="1.1">
	<title id="artwork-title">Mascot organizing database tables</title>
	<path d="M 913.565 307.894 C 913.261 308.386, 911.322 309.015, 909.256 309.291 C 899.699 310.569, 890.420 314.864, 883.424 321.250 C 880.561 323.863, 877.449 326, 876.507 326 C 875.565 326, 872.608 324.035, 869.936 321.633 C 862.264 314.734, 856.107 312.384, 842.930 311.324 C 834.901 310.677, 821.402 313.223, 816.417 316.325 C 814.493 317.521, 811.123 319.939, 808.928 321.698 C 804.327 325.383, 793.007 338.620, 792.985 340.341 C 792.938 343.898, 791.405 344.268, 784.294 342.436 C 777.611 340.714, 777.060 340.715, 769.922 342.446 C 765.840 343.437, 761.375 344.673, 760 345.194 C 758.625 345.715, 757.275 346.179, 757 346.226 C 756.725 346.272, 754.250 347.852, 751.500 349.735 C 743.993 354.877, 735.048 364.961, 733.526 370 C 733.110 371.375, 731.830 373.527, 730.680 374.782 C 729.095 376.514, 728.508 378.686, 728.249 383.782 C 727.733 393.942, 727.427 394.747, 723.772 395.550 C 718.856 396.630, 707.927 404.340, 704 409.498 C 702.075 412.027, 699.525 415.332, 698.334 416.843 C 697.142 418.353, 695.843 421.369, 695.445 423.545 C 695.048 425.720, 693.857 428.734, 692.798 430.243 C 691.740 431.752, 691.134 433.408, 691.453 433.924 C 691.772 434.440, 691.575 435.144, 691.016 435.490 C 690.457 435.835, 690 438.990, 690 442.500 C 690 446.010, 690.457 449.165, 691.016 449.510 C 691.575 449.856, 691.822 450.479, 691.565 450.896 C 691.307 451.312, 692.200 453.832, 693.548 456.496 C 694.897 459.160, 696 461.979, 696 462.761 C 696 463.542, 697.575 466.022, 699.500 468.271 C 703.070 472.442, 703.686 474.677, 702.117 477.764 C 694.267 493.210, 695.661 505.761, 706.658 518.633 L 711.201 523.951 709.450 529.519 C 707.701 535.079, 707.703 535.098, 710.349 542.915 C 713.735 552.912, 713.777 556.445, 710.539 558.566 C 709.185 559.453, 707.804 561.041, 707.470 562.095 C 707.135 563.149, 705.763 565.316, 704.421 566.912 C 701.201 570.739, 696.001 588.808, 696.050 596 C 696.115 605.556, 700.423 622.117, 704.299 627.710 C 705.785 629.854, 707.007 632.033, 707.015 632.554 C 707.023 633.074, 709.481 636.141, 712.476 639.368 C 715.471 642.595, 717.868 645.520, 717.802 645.868 C 717.736 646.216, 718.060 647.373, 718.521 648.440 C 719.068 649.706, 718.950 650.517, 718.180 650.773 C 716.800 651.233, 716.546 661.108, 717.877 662.550 C 719.457 664.263, 722.999 675.004, 723.066 678.288 C 723.102 680.054, 724.893 684.875, 727.046 689 C 729.200 693.125, 731.849 698.319, 732.935 700.541 C 734.021 702.764, 737.179 706.732, 739.954 709.360 C 742.729 711.987, 745 714.726, 745 715.446 C 745 716.166, 745.736 717.366, 746.636 718.113 C 747.536 718.860, 749.306 721.109, 750.571 723.112 C 752.199 725.691, 753.836 726.944, 756.185 727.407 C 760.672 728.292, 773.467 740.133, 771.770 741.830 C 771.126 742.474, 769.540 743, 768.245 743 C 766.949 743, 763.102 744.511, 759.695 746.358 C 745.239 754.192, 736.310 759.404, 733.500 761.646 C 721.824 770.961, 707.562 783.332, 702.500 788.536 C 694.188 797.081, 679.968 812.599, 675.500 818 C 673.452 820.475, 671.164 823.175, 670.415 824 C 663.599 831.502, 662.937 832.754, 663.599 836.895 C 664.520 842.652, 662.138 843.365, 657.944 838.589 C 656.211 836.615, 654.255 835, 653.598 835 C 652.941 835, 649.807 832.525, 646.634 829.500 C 643.460 826.475, 640.483 824, 640.017 824 C 639.551 824, 638.119 823.113, 636.835 822.029 C 635.551 820.944, 631.970 818.041, 628.878 815.578 C 623.615 811.384, 621 808.155, 616.754 800.605 C 614.834 797.190, 604.322 785.795, 602.359 785 C 601.680 784.725, 598.621 782.337, 595.562 779.692 L 590 774.885 590 746.186 C 590 730.401, 589.585 716.038, 589.077 714.268 C 587.808 709.844, 582.400 703.521, 576.989 700.135 C 572.607 697.393, 565.921 695.412, 564.807 696.526 C 564.504 696.829, 543.081 697.051, 517.199 697.020 C 486.276 696.982, 469.925 697.312, 469.511 697.982 C 468.700 699.295, 462.309 699.310, 461.500 698 C 461.115 697.377, 451.595 697, 436.257 697 C 413.053 697, 411.373 697.125, 407.161 699.164 C 401.198 702.051, 391.289 712.298, 390.011 716.901 C 388.621 721.903, 388.644 854.935, 390.035 858.593 C 391.500 862.445, 396.553 867.931, 401.899 871.473 L 406.468 874.500 462.744 874.782 L 519.020 875.064 524.223 880.026 C 527.662 883.307, 530.625 885.206, 532.963 885.629 C 534.908 885.981, 538.353 887.342, 540.618 888.652 C 544.449 890.869, 545.893 891.052, 561.323 891.268 C 575.902 891.472, 578.119 891.291, 579.648 889.771 C 581.300 888.128, 581.231 887.826, 578.290 883.771 L 575.194 879.500 566.541 879.360 C 561.781 879.284, 557.613 878.946, 557.277 878.610 C 556.941 878.275, 555.643 878, 554.392 878 C 551.263 878, 550.463 876.251, 552.541 873.954 C 553.497 872.899, 554.819 869.664, 555.478 866.767 C 556.834 860.815, 555.467 861.206, 570.155 862.571 C 577.509 863.254, 577.911 863.180, 580.405 860.686 C 583.445 857.646, 583.840 853.030, 581.250 850.811 C 580.288 849.987, 576.375 848.563, 572.556 847.648 C 566.030 846.084, 560.460 842.682, 561.547 840.924 C 561.814 840.492, 561.575 839.856, 561.016 839.510 C 560.457 839.165, 560 837.740, 560 836.345 C 560 833.834, 557.822 829.110, 555.128 825.774 C 553.962 824.330, 552.570 824.135, 546.617 824.579 C 537.564 825.254, 534.603 823.912, 534.254 818.977 C 533.901 813.973, 535.926 812.047, 543.318 810.361 C 550.225 808.785, 551.230 807.652, 550.252 802.539 C 549.498 798.591, 546.164 796.997, 536.602 796.010 C 531.876 795.523, 527.637 794.894, 527.182 794.612 C 525.954 793.853, 511.846 791.002, 509.315 791.001 C 508.113 791, 505.863 790.475, 504.315 789.834 C 502.767 789.192, 501.275 788.598, 501 788.512 C 500.725 788.427, 499.150 787.776, 497.500 787.065 C 495.850 786.354, 493.488 785.383, 492.250 784.908 C 487.326 783.015, 490.383 777, 496.268 777 C 497.587 777, 498.939 776.728, 499.272 776.395 C 499.999 775.667, 512.873 775.616, 515 776.332 C 515.825 776.610, 522.350 777.076, 529.500 777.367 C 537.463 777.692, 545.406 778.649, 550 779.838 C 554.125 780.905, 559.454 782.065, 561.842 782.416 C 564.230 782.766, 567.924 783.941, 570.052 785.026 C 572.180 786.112, 574.410 787, 575.008 787 C 575.607 787, 578.473 788.520, 581.377 790.378 C 584.282 792.237, 587.523 794.033, 588.579 794.371 C 593.448 795.926, 607.937 812.162, 607.982 816.112 C 608.025 819.933, 615.688 827.199, 626 833.197 C 630.004 835.525, 638.925 842.690, 657.508 858.500 C 665.397 865.213, 672.139 871.929, 674.192 875.122 C 677.221 879.833, 684.046 879.717, 686.033 874.921 C 688.109 869.908, 686.463 865.222, 680.853 860.178 L 675.859 855.688 678.679 853.380 C 680.231 852.110, 682.106 851.056, 682.846 851.036 C 684.839 850.983, 690 854.925, 690 856.501 C 690 857.251, 690.857 858.137, 691.905 858.470 C 694.321 859.237, 711.787 876.754, 712.558 879.184 C 712.875 880.183, 713.779 881, 714.567 881 C 715.355 881, 716.022 881.563, 716.049 882.250 C 716.076 882.938, 717.867 885.300, 720.028 887.500 L 723.958 891.500 917.229 891.613 C 1023.528 891.675, 1112.638 891.500, 1115.250 891.223 L 1120 890.721 1120 881.944 C 1120 877.116, 1119.575 873.017, 1119.055 872.833 C 1118.535 872.650, 1117.386 868.900, 1116.502 864.500 C 1114.570 854.883, 1110.248 838.468, 1108.734 835 C 1108.134 833.625, 1107.572 832.275, 1107.485 832 C 1105.626 826.108, 1096.478 805.886, 1093.912 802 C 1093.005 800.625, 1090.403 796.693, 1088.131 793.261 C 1085.859 789.830, 1084 786.568, 1084 786.011 C 1084 785.455, 1083.569 785, 1083.043 785 C 1082.517 785, 1079.541 781.850, 1076.431 778.001 C 1073.321 774.151, 1069.753 770.439, 1068.503 769.751 C 1067.252 769.063, 1062.150 765.350, 1057.165 761.500 C 1052.180 757.650, 1046.616 753.489, 1044.801 752.253 C 1041.101 749.735, 1017.425 738.008, 1013 736.503 C 1012.725 736.409, 1011.150 735.759, 1009.500 735.059 C 1004.746 733.041, 993.991 729.988, 988.074 728.976 C 983.181 728.139, 981.059 726.872, 981.015 724.763 C 981.007 724.357, 982.913 722.840, 985.250 721.391 C 988.853 719.157, 1004.631 704, 1003.354 704 C 1003.116 704, 1003.840 703.015, 1004.961 701.811 C 1006.082 700.608, 1007 699.083, 1007 698.424 C 1007 697.764, 1008.501 695.036, 1010.335 692.362 C 1012.170 689.688, 1013.952 686.375, 1014.296 685 C 1014.640 683.625, 1016.229 680.938, 1017.827 679.029 C 1020.521 675.811, 1020.929 675.647, 1023.414 676.779 C 1027.335 678.565, 1033.258 678.274, 1039.239 676.001 C 1042.133 674.901, 1045.308 674.001, 1046.295 674.001 C 1047.283 674, 1049.216 672.875, 1050.591 671.500 C 1051.966 670.125, 1053.453 669, 1053.895 669 C 1055.904 669, 1063.176 662.620, 1067.351 657.194 C 1071.625 651.640, 1078.992 636.876, 1079.006 633.838 C 1079.010 633.102, 1079.701 631.180, 1080.542 629.566 C 1081.384 627.952, 1081.857 626.068, 1081.592 625.380 C 1081.328 624.692, 1081.650 623.950, 1082.306 623.730 C 1083.963 623.177, 1083.884 600.770, 1082.218 598.763 C 1081.558 597.967, 1081.235 597.098, 1081.502 596.831 C 1082.197 596.136, 1077.269 586.220, 1074.282 582.303 C 1071.297 578.389, 1071.610 574.727, 1075.360 569.704 C 1076.676 567.942, 1078.291 564.819, 1078.949 562.764 C 1079.607 560.709, 1080.570 558.765, 1081.089 558.445 C 1081.608 558.124, 1081.793 557.474, 1081.500 557 C 1081.207 556.526, 1081.425 555.856, 1081.984 555.510 C 1083.246 554.730, 1083.338 543.327, 1082.089 542.555 C 1080.004 541.266, 1082.701 536.148, 1088.661 530.085 C 1091.047 527.657, 1093 525.070, 1093 524.335 C 1093 523.601, 1093.477 523, 1094.059 523 C 1094.641 523, 1094.840 522.550, 1094.500 522 C 1094.160 521.450, 1094.259 521, 1094.719 521 C 1096.311 521, 1099 509.377, 1099 502.500 C 1099 495.623, 1096.311 484, 1094.719 484 C 1094.259 484, 1094.131 483.597, 1094.435 483.105 C 1094.740 482.612, 1094.316 481.952, 1093.494 481.636 C 1092.672 481.321, 1092 480.447, 1092 479.694 C 1092 478.940, 1089.978 476.339, 1087.508 473.912 C 1082.277 468.775, 1082.076 467.260, 1085.606 459.550 C 1088.037 454.240, 1088.181 453.108, 1087.763 442.679 C 1087.304 431.221, 1085.011 423.175, 1080.939 418.733 C 1080.049 417.761, 1078.685 415.760, 1077.910 414.287 C 1075.971 410.601, 1070.256 405, 1068.435 405 C 1067.611 405, 1066.694 404.366, 1066.397 403.592 C 1066.100 402.817, 1064.426 401.596, 1062.678 400.878 C 1060.930 400.160, 1058.073 398.610, 1056.329 397.434 C 1054.504 396.204, 1050.798 395.053, 1047.604 394.723 C 1044.550 394.408, 1041.590 393.865, 1041.026 393.516 C 1040.462 393.167, 1040 390.425, 1040 387.422 C 1040 372.005, 1026.705 351.552, 1011.742 343.948 C 1003.843 339.934, 993.014 338.442, 982.919 339.977 C 966.580 342.460, 967.317 342.465, 965.956 339.869 C 963.158 334.528, 957.644 326.879, 953.874 323.109 C 948.982 318.217, 941.274 313, 938.938 313 C 937.992 313, 935.257 312.110, 932.859 311.022 C 930.462 309.934, 926.587 309.034, 924.250 309.022 C 921.913 309.010, 920 308.550, 920 308 C 920 306.760, 914.324 306.666, 913.565 307.894 M 909.500 326.714 C 903.036 328.273, 895.280 331.456, 893.376 333.332 C 892.165 334.524, 890.044 336.385, 888.661 337.466 C 887.279 338.547, 886.335 339.733, 886.563 340.102 C 886.791 340.471, 886.085 341.006, 884.994 341.291 C 882.574 341.924, 881.337 344.737, 882.823 346.223 C 883.608 347.008, 885.009 346.321, 887.846 343.759 C 890.009 341.804, 892.729 339.904, 893.889 339.535 C 895.050 339.167, 896 338.464, 896 337.973 C 896 337.226, 898.432 336.340, 905.500 334.513 C 906.050 334.371, 906.768 334.310, 907.096 334.377 C 907.424 334.445, 908.324 333.978, 909.096 333.339 C 911.762 331.136, 917.807 330.644, 920.504 332.411 C 921.877 333.310, 923 333.756, 923 333.401 C 923 333.046, 923.563 333.209, 924.250 333.764 C 924.938 334.320, 927.372 335.083, 929.661 335.460 C 931.949 335.837, 934.607 337.013, 935.566 338.073 C 936.525 339.133, 937.743 340, 938.273 340 C 940.059 340, 946.490 346.334, 947.779 349.364 C 948.943 352.098, 949.201 352.227, 950.632 350.797 C 952.062 349.366, 951.877 348.712, 948.586 343.567 C 944.565 337.281, 939.221 332.152, 934.699 330.239 C 927.099 327.024, 915.148 325.352, 909.500 326.714 M 829.693 329.054 C 822.118 331.118, 814.097 336.939, 811.333 342.376 C 810.460 344.094, 808.903 346.305, 807.873 347.289 C 805.514 349.542, 805.298 353.483, 807.582 352.607 C 808.452 352.273, 809.352 352, 809.582 352 C 809.812 352, 810 350.891, 810 349.535 C 810 348.180, 810.788 346.644, 811.750 346.122 C 812.712 345.601, 815.740 343.110, 818.478 340.587 C 821.216 338.064, 823.774 336, 824.163 336 C 824.552 336, 826.137 335.475, 827.685 334.834 C 829.233 334.192, 830.725 333.589, 831 333.493 C 831.275 333.398, 833.173 332.572, 835.218 331.660 C 839.921 329.560, 842.290 329.569, 846.300 331.703 C 848.060 332.640, 850.029 333.303, 850.675 333.177 C 851.321 333.050, 852.135 333.409, 852.484 333.973 C 852.833 334.538, 854.216 335, 855.559 335 C 858.493 335, 858.841 332.520, 856.112 331.060 C 854.618 330.261, 837.096 326.701, 836.619 327.099 C 836.554 327.154, 833.437 328.034, 829.693 329.054 M 978.859 357.668 C 975.953 357.939, 973.560 358.829, 972.454 360.050 C 971.484 361.123, 971.097 362.027, 971.595 362.059 C 972.093 362.092, 977.750 362.204, 984.167 362.309 C 994.557 362.479, 996.170 362.748, 998.903 364.769 C 1000.590 366.017, 1003.146 367.485, 1004.582 368.031 C 1006.018 368.577, 1007.424 369.904, 1007.705 370.979 C 1007.986 372.054, 1009.044 373.197, 1010.057 373.518 C 1011.069 373.839, 1012.172 374.968, 1012.508 376.025 C 1012.844 377.083, 1014.217 378.812, 1015.559 379.868 C 1016.902 380.924, 1018 382.264, 1018 382.847 C 1018 384.599, 1020.260 389, 1021.161 389 C 1022.867 389, 1021.993 381.261, 1020 378.727 C 1018.900 377.329, 1018 375.756, 1018 375.233 C 1018 373.143, 1009.563 364.880, 1003.945 361.467 C 998.784 358.331, 997.009 357.804, 990.741 357.540 C 986.759 357.373, 981.412 357.431, 978.859 357.668 M 765.335 362.500 C 761.944 364.150, 758.344 366.219, 757.335 367.098 C 756.326 367.977, 754.712 368.975, 753.750 369.317 C 752.788 369.658, 752 370.548, 752 371.294 C 752 372.041, 750.858 373.725, 749.461 375.036 C 748.065 376.348, 746.440 379.338, 745.850 381.680 C 745.260 384.023, 744.153 386.458, 743.389 387.092 C 741.873 388.350, 741.446 396, 742.892 396 C 743.382 396, 744.090 394.762, 744.466 393.250 C 744.841 391.738, 745.959 389.600, 746.951 388.500 C 747.942 387.400, 749.296 384.807, 749.959 382.737 C 751.827 376.903, 765.968 365.509, 775.250 362.360 C 776.212 362.034, 777 361.257, 777 360.633 C 777 358.584, 771.609 359.447, 765.335 362.500 M 282.452 395.947 C 279.934 396.979, 273.542 401.199, 269.452 404.529 C 267.775 405.894, 264.970 409.821, 263.217 413.256 L 260.030 419.500 260.265 488.787 C 260.445 541.742, 260.785 558.250, 261.711 558.822 C 262.377 559.233, 263.582 561.129, 264.388 563.035 C 265.194 564.941, 267.799 568.380, 270.177 570.677 C 277.425 577.681, 280.848 578.147, 323.885 577.995 C 344.023 577.924, 361.014 577.896, 361.642 577.933 C 363.519 578.043, 363.920 581.969, 363.073 591.963 C 362.284 601.275, 362.210 601.479, 358.513 604.676 L 354.754 607.924 321.442 608.212 L 288.129 608.500 285.064 611.437 C 281.302 615.043, 281.265 615.941, 284.750 619.191 C 289.955 624.045, 289.954 624.045, 324.781 623.626 C 360.281 623.199, 359.820 623.266, 367.683 617.382 C 372.057 614.109, 373.801 614.351, 381.132 619.250 L 387.492 623.500 403.415 623.821 C 416.298 624.081, 420.154 623.831, 423.610 622.511 C 427.507 621.023, 428.283 621.017, 432.475 622.440 C 435.002 623.298, 439.867 624.003, 443.285 624.006 C 450.254 624.012, 456.244 625.387, 458.313 627.455 C 459.104 628.247, 459.973 632.147, 460.349 636.597 C 461.075 645.184, 462.734 648.644, 466.590 649.612 C 473.243 651.282, 475.725 645.921, 474.476 632.586 C 473.859 625.999, 473.324 624.546, 469.779 619.826 C 462.225 609.769, 459.708 609.203, 422 609.087 C 406.875 609.041, 393.150 608.634, 391.500 608.183 C 386.398 606.789, 382.809 600.197, 381.972 590.685 C 381.584 586.267, 381.576 581.493, 381.956 580.076 L 382.645 577.500 434.573 577.500 C 489.800 577.500, 490.930 577.409, 494.872 572.655 C 495.627 571.745, 496.856 571, 497.602 571 C 498.349 571, 499.981 569.139, 501.230 566.864 C 502.478 564.590, 504.056 561.777, 504.735 560.614 C 505.684 558.990, 505.974 541.904, 505.985 486.946 L 506 415.392 502.928 410.548 C 499.325 404.866, 496.794 402.527, 492 400.451 C 490.075 399.617, 487.918 398.162, 487.207 397.217 C 486.002 395.616, 479.087 395.487, 385.207 395.304 C 329.818 395.195, 283.578 395.485, 282.452 395.947 M 282.253 416.354 L 279 419.207 279 433.604 C 279 444.436, 279.309 448.008, 280.250 448.033 C 283.371 448.116, 389.937 448.264, 410.500 448.214 C 423.150 448.183, 435.300 448.171, 437.500 448.188 C 439.700 448.205, 452.137 448.172, 465.138 448.114 L 488.775 448.010 488.839 434.011 L 488.903 420.011 485.702 417.010 L 482.500 414.009 445.500 413.867 C 425.150 413.790, 380.826 413.675, 347.003 413.613 L 285.506 413.500 282.253 416.354 M 719.045 417.393 C 713.830 421.509, 711.010 426.410, 712.817 428.217 C 713.751 429.151, 718.229 426.179, 717.547 425.076 C 717.280 424.644, 719.522 422.015, 722.530 419.234 C 725.539 416.454, 728 413.914, 728 413.589 C 728 411.841, 723.845 413.605, 719.045 417.393 M 1040 413.988 C 1040 414.532, 1041.841 415.271, 1044.090 415.630 C 1052.010 416.897, 1065.544 430.795, 1066.657 438.804 C 1066.939 440.837, 1067.429 443.175, 1067.744 444 C 1068.059 444.825, 1068.246 445.837, 1068.159 446.250 C 1068.071 446.663, 1068.675 447, 1069.500 447 C 1070.679 447, 1071 445.611, 1071 440.500 C 1071 436.643, 1070.575 434, 1069.954 434 C 1069.379 434, 1067.873 431.766, 1066.608 429.037 C 1064.056 423.528, 1059.809 418.720, 1056 417.026 C 1054.625 416.414, 1052.375 415.265, 1051 414.472 C 1048.171 412.840, 1040 412.480, 1040 413.988 M 299.634 422.737 C 298.608 422.987, 296.470 424.348, 294.884 425.761 C 291.096 429.136, 290.738 436.002, 294.223 438.443 C 297.027 440.408, 304.386 440.471, 306.310 438.548 C 307.108 437.749, 308.011 437.345, 308.316 437.650 C 309.317 438.651, 310.237 431.079, 309.556 427.447 C 309.190 425.494, 308.352 423.731, 307.695 423.531 C 304.829 422.658, 301.360 422.316, 299.634 422.737 M 319.463 424.041 C 318.193 425.444, 317.615 427.621, 317.615 431 C 317.615 437.049, 319.880 440, 324.520 440 C 331.256 440, 335.371 433.433, 332.906 426.617 C 331.973 424.037, 330.929 423.036, 328.707 422.591 C 323.630 421.576, 321.374 421.930, 319.463 424.041 M 709.667 430.667 C 708.602 431.732, 708.897 440, 710 440 C 710.550 440, 711.006 438.762, 711.014 437.250 C 711.021 435.738, 711.299 433.488, 711.630 432.250 C 712.203 430.114, 711.105 429.229, 709.667 430.667 M 864.573 434.613 C 856.649 441.902, 851.271 444.119, 839.999 444.740 C 827.184 445.446, 818.159 442.858, 810.874 436.388 C 808.157 433.975, 805.252 432, 804.420 432 C 803.588 432, 802.140 433.397, 801.203 435.104 C 797.512 441.830, 784.028 452.951, 777.613 454.561 C 776.281 454.895, 772.561 455.243, 769.346 455.334 L 763.500 455.500 762.983 460.500 C 762.139 468.668, 756.460 477.103, 747.789 483.072 C 747.332 483.387, 746.790 488.562, 746.585 494.572 C 746.379 500.582, 745.639 506.850, 744.940 508.500 C 744.240 510.150, 743.623 511.725, 743.568 512 C 743.514 512.275, 743.139 513.019, 742.736 513.653 C 741.855 515.036, 739.895 546.022, 740.615 547.186 C 741.529 548.664, 744.734 548.036, 749.148 545.512 C 753.152 543.223, 754.515 543.023, 766.191 543.012 C 773.559 543.005, 779.141 542.581, 779.500 542 C 779.840 541.450, 781.415 541, 783 541 C 784.585 541, 786.160 541.450, 786.500 542 C 786.840 542.550, 788.554 542.981, 790.309 542.957 C 792.064 542.933, 797.535 544.171, 802.467 545.707 C 811.166 548.416, 811.699 548.762, 820.265 557.257 C 828.250 565.175, 829.355 565.941, 831.798 565.257 C 833.284 564.841, 839.225 564.500, 845 564.500 C 854.511 564.500, 855.820 564.728, 858.899 566.924 L 862.299 569.349 865.382 565.424 C 872.387 556.511, 876.517 553.549, 886.999 549.921 C 892.423 548.044, 895.623 547.730, 910.392 547.623 C 926.281 547.509, 928.319 547.710, 938.990 550.443 C 952.559 553.919, 956.889 556.521, 966.301 566.853 L 969.102 569.929 981.415 569.893 C 988.187 569.874, 995.273 570.148, 997.162 570.503 C 999.773 570.992, 1001.185 570.670, 1003.048 569.158 L 1005.500 567.170 1003.260 564.781 C 1002.028 563.468, 1000.072 559.502, 998.912 555.969 C 996.533 548.723, 996.775 543.874, 999.979 534.561 C 1002.201 528.101, 1001.996 527.019, 998.110 524.724 C 993.012 521.713, 986.920 514.624, 983.429 507.640 C 980.548 501.876, 980.002 499.720, 980.015 494.140 C 980.024 490.193, 980.616 486.486, 981.476 485 C 984.141 480.391, 984.323 479.735, 983.355 478.202 C 982.239 476.432, 979.267 475.759, 978.445 477.089 C 977.697 478.300, 970.280 478.262, 969.527 477.044 C 969.202 476.518, 968.365 476.307, 967.666 476.574 C 966.290 477.103, 955.744 471.863, 952.500 469.039 C 951.400 468.082, 949.702 467.016, 948.726 466.671 C 947.750 466.326, 946.625 465.232, 946.226 464.239 C 945.827 463.247, 944.686 461.324, 943.690 459.967 C 939.046 453.637, 935 446.362, 935 444.343 C 935 441.372, 933.263 440.453, 931.187 442.326 C 930.259 443.162, 926.575 445.055, 923 446.531 C 919.425 448.007, 915.561 449.653, 914.414 450.189 C 913.266 450.725, 911.691 451.055, 910.914 450.924 C 910.136 450.792, 908.712 451.029, 907.750 451.449 C 906.788 451.870, 905.212 451.870, 904.250 451.449 C 903.288 451.029, 901.864 450.792, 901.086 450.924 C 900.309 451.055, 898.734 450.716, 897.586 450.171 C 896.439 449.625, 893.308 448.351, 890.629 447.339 C 885.422 445.373, 876 437.713, 876 435.446 C 876 433.849, 872.110 429.982, 870.561 430.040 C 869.978 430.062, 867.283 432.119, 864.573 434.613 M 278.871 465.839 C 278.367 467.164, 278.078 476.180, 278.227 485.874 L 278.500 503.500 305 503.781 C 319.575 503.935, 332.512 503.814, 333.750 503.512 C 335.978 502.967, 336 502.791, 336 485.181 C 336 472.685, 335.643 467.043, 334.800 466.200 C 333.931 465.331, 326.756 465, 308.800 465 C 295.160 465, 284 464.646, 284 464.214 C 284 462.251, 279.720 463.607, 278.871 465.839 M 351.750 464.730 L 349 466.109 349 483.855 C 349 496.323, 349.357 501.957, 350.200 502.800 C 351.747 504.347, 414.068 504.532, 415.606 502.994 C 416.790 501.810, 416.485 467.010, 415.283 466.023 C 413.281 464.379, 409.032 463.140, 408.477 464.038 C 407.795 465.141, 358.732 465.398, 357.638 464.304 C 356.480 463.147, 354.643 463.280, 351.750 464.730 M 431.676 464.805 C 430.243 466.389, 430 469.185, 430 484.129 C 430 496.384, 430.358 501.958, 431.200 502.800 C 433.012 504.612, 485.844 504.434, 488.250 502.608 C 489.790 501.439, 490 499.335, 490 485.074 C 490 475.816, 489.556 468.039, 488.965 466.934 C 487.982 465.097, 486.609 465, 461.665 465 C 445.084 465, 435.023 464.623, 434.376 463.976 C 433.678 463.278, 432.820 463.542, 431.676 464.805 M 780 512.583 C 776.975 513.381, 773.825 514.321, 773 514.671 C 772.175 515.020, 771.050 515.366, 770.500 515.438 C 768.361 515.718, 762.366 519.657, 759.260 522.821 C 754.996 527.165, 755.105 529.840, 759.713 533.919 C 763.737 537.482, 764.337 537.524, 780.888 535.408 C 783.932 535.019, 789.868 535.253, 794.532 535.947 C 802.526 537.137, 802.926 537.100, 807.096 534.780 C 814.160 530.851, 814.846 523.845, 808.742 517.961 C 801.782 511.251, 791.990 509.419, 780 512.583 M 897.791 517.839 C 890.456 522.027, 886 526.828, 886 530.541 C 886 533.926, 887.606 535.800, 892.735 538.397 C 895.346 539.720, 898.548 539.984, 909.328 539.768 C 919.583 539.562, 923.077 539.823, 924.367 540.893 C 925.292 541.658, 926.334 542, 926.682 541.651 C 927.031 541.303, 927.807 541.394, 928.408 541.854 C 929.009 542.313, 931.632 543.266, 934.238 543.971 C 940.081 545.552, 944.359 544.140, 946.547 539.909 C 948.718 535.710, 948.355 533.753, 944.459 528.650 C 940.944 524.047, 937.874 522.204, 927.500 518.469 C 924.750 517.479, 922.072 516.294, 921.550 515.835 C 921.028 515.376, 916.528 515.034, 911.550 515.075 C 903.640 515.141, 901.907 515.489, 897.791 517.839 M 431.426 518.300 C 430.264 518.951, 430 522.872, 430 539.443 C 430 557.887, 430.163 559.851, 431.750 560.479 C 432.712 560.859, 443.625 561.120, 456 561.057 C 480.237 560.935, 487.285 559.829, 488.514 555.956 C 489.762 552.025, 489.901 521.244, 488.678 519.623 C 487.670 518.286, 483.560 518.020, 460.176 517.780 C 445.147 517.626, 432.210 517.860, 431.426 518.300 M 279.035 519.934 C 277.928 522.003, 277.601 550.908, 278.641 554.790 C 279.896 559.476, 282.987 560, 309.391 560 C 326.356 560, 334.094 559.657, 334.573 558.883 C 335.501 557.381, 335.537 520.678, 334.612 519.181 C 334.080 518.320, 326.579 518, 306.976 518 C 281.399 518, 280.019 518.095, 279.035 519.934 M 349.572 519.673 C 348.694 521.961, 349.129 557.590, 350.053 559.086 C 350.596 559.964, 359.243 560.400, 382.220 560.710 C 409.192 561.073, 413.820 560.922, 414.881 559.644 C 416.211 558.040, 416.816 521.129, 415.545 519.073 C 415.095 518.345, 404.486 518, 382.548 518 C 353.245 518, 350.154 518.157, 349.572 519.673 M 757.727 562 C 756.329 563.100, 754.457 564, 753.568 564 C 752.678 564, 751.518 565.137, 750.990 566.526 C 750.462 567.915, 749.370 569.305, 748.563 569.614 C 747.757 569.924, 746.608 571.658, 746.011 573.468 C 745.413 575.277, 744.042 577.557, 742.962 578.534 C 740.770 580.518, 740.187 586.430, 742.250 585.761 C 742.938 585.538, 744.280 583.723, 745.234 581.728 C 746.188 579.733, 750.800 574.173, 755.484 569.372 C 760.168 564.571, 764 560.498, 764 560.321 C 764 559.216, 759.856 560.326, 757.727 562 M 896.250 565.769 C 895.013 565.972, 894 566.549, 894 567.049 C 894 567.550, 892.270 568.842, 890.155 569.921 C 883.331 573.402, 877 582.328, 877 588.468 C 877 592.071, 879.491 591.644, 881.097 587.765 C 881.835 585.985, 886.476 580.582, 891.412 575.758 C 900.075 567.291, 901.207 564.952, 896.250 565.769 M 720.269 572.261 C 719.334 573.469, 718.154 576.276, 717.956 577.760 C 717.902 578.167, 717.102 579.333, 716.179 580.352 C 714.796 581.877, 714.444 584.876, 714.183 597.355 C 713.879 611.880, 713.964 612.650, 716.223 616.003 C 720.093 621.746, 721.307 620.693, 722.566 610.500 C 723.717 601.183, 723.273 572.287, 721.967 571.480 C 721.560 571.228, 720.795 571.580, 720.269 572.261 M 832.400 585.828 C 829.693 587.540, 829.213 588.530, 828.615 593.644 C 828.238 596.865, 827.090 601.300, 826.064 603.500 C 825.038 605.700, 823.670 609.186, 823.023 611.247 C 822.376 613.308, 821.087 615.558, 820.158 616.247 C 819.229 616.936, 817.959 618.660, 817.335 620.078 C 816.710 621.495, 813.261 625.235, 809.670 628.388 C 803.729 633.604, 798.862 636.184, 789.507 639.075 C 785.678 640.258, 771.562 640.231, 767 639.032 C 761.300 637.535, 753.538 634.703, 753 633.925 C 752.725 633.527, 749.714 631.152, 746.310 628.647 C 742.905 626.142, 739.620 623.159, 739.010 622.018 C 736.858 617.997, 736 621.247, 736 633.424 C 736 646.987, 736.867 649.328, 743.074 652.538 C 744.804 653.433, 746.216 655.137, 746.578 656.768 C 747.865 662.554, 748.292 663.224, 751.567 664.593 C 753.423 665.368, 755.968 667.396, 757.221 669.099 C 759.663 672.418, 766.652 677, 769.270 677 C 770.146 677, 771.838 678.369, 773.030 680.041 C 774.758 682.470, 775.478 682.848, 776.598 681.919 C 777.369 681.279, 778 679.516, 778 678.003 C 778 673.291, 779.147 669.219, 781.051 667.176 C 782.057 666.096, 782.634 664.967, 782.333 664.666 C 781.734 664.067, 786.900 657.273, 791.258 652.931 C 793.941 650.257, 801.557 647, 805.125 647 C 806.097 647, 809.657 645.380, 813.036 643.400 C 818.516 640.188, 819.669 639.873, 823.727 640.482 C 826.229 640.857, 829.676 641.769, 831.388 642.509 C 837.961 645.350, 842 646.286, 842 644.969 C 842 643.761, 850.412 641, 854.092 641 C 856.031 641, 858.491 641.661, 859.559 642.468 C 860.626 643.276, 862.063 643.951, 862.750 643.968 C 863.438 643.986, 864.900 644.900, 866 646 C 867.456 647.456, 869.333 648, 872.901 648 C 880.353 648, 891.053 653.493, 893.876 658.769 C 894.533 659.996, 895.730 661, 896.535 661 C 897.341 661, 898 661.675, 898 662.500 C 898 663.325, 898.525 664, 899.167 664 C 899.808 664, 900.062 664.271, 899.730 664.603 C 899.399 664.934, 900.176 666.172, 901.457 667.353 C 904.127 669.813, 906 676.624, 906 683.871 C 906 687.071, 906.563 689.420, 907.571 690.429 C 909.566 692.423, 909.356 692.455, 913.829 689.494 C 917.241 687.237, 918.105 687.080, 922.558 687.916 C 927.715 688.884, 931 687.502, 931 684.364 C 931 683.635, 932.013 682.832, 933.250 682.580 C 934.487 682.328, 936.850 681.833, 938.500 681.480 C 940.150 681.127, 943.170 680.605, 945.212 680.318 C 947.253 680.032, 949.446 679.168, 950.084 678.399 C 950.723 677.629, 951.828 677, 952.541 677 C 953.254 677, 954.814 675.419, 956.008 673.487 C 958.406 669.607, 960.756 668, 964.033 668 C 966.803 668, 971.756 662.721, 972.811 658.646 C 973.259 656.916, 974.507 655.050, 975.584 654.500 C 980.481 651.999, 984 648.732, 984.006 646.682 C 984.018 641.932, 986.311 636.716, 990.424 632.085 C 993.660 628.442, 994.912 626.074, 995.431 622.614 C 995.811 620.076, 996.529 618, 997.026 618 C 997.523 618, 998.476 616.987, 999.144 615.750 C 1000.717 612.837, 1001.082 588.279, 999.569 587.139 C 998.610 586.416, 981.947 587.457, 976.225 588.597 C 972.526 589.335, 970 592.601, 970 596.647 C 970 600.792, 966.209 612, 964.807 612 C 964.298 612, 964.181 612.484, 964.547 613.076 C 964.913 613.668, 963.814 615.892, 962.106 618.018 C 960.398 620.143, 959 622.275, 959 622.754 C 959 623.715, 947.964 634.798, 944 637.820 C 942.625 638.868, 940.375 640.063, 939 640.476 C 937.625 640.889, 934.386 642.359, 931.802 643.744 C 929.097 645.193, 926.235 646.033, 925.053 645.724 C 923.925 645.429, 922.750 645.596, 922.442 646.094 C 921.782 647.162, 904.665 647.331, 903.613 646.280 C 903.217 645.884, 901.415 645.687, 899.610 645.842 C 897.714 646.006, 894.883 645.300, 892.913 644.172 C 891.036 643.098, 887.745 641.663, 885.600 640.983 C 879.689 639.108, 865.631 624.563, 864.187 618.827 C 863.584 616.433, 862.166 613.482, 861.035 612.268 C 859.470 610.588, 858.841 608.205, 858.400 602.281 C 857.289 587.388, 855.659 585.580, 842.313 584.447 C 836.616 583.964, 834.992 584.190, 832.400 585.828 M 1039.645 585.554 C 1034.007 587.622, 1025.006 597.476, 1024.994 601.594 C 1024.984 604.995, 1022.967 610.890, 1021.212 612.647 C 1019.747 614.114, 1019.500 616.540, 1019.500 629.431 C 1019.500 643.319, 1019.324 644.783, 1017.250 648.118 C 1014.192 653.035, 1014.391 654.297, 1018.750 657.631 C 1022.034 660.144, 1023.349 660.500, 1029.331 660.500 C 1034.323 660.500, 1036.476 660.084, 1037.331 658.953 C 1037.974 658.103, 1039.974 656.806, 1041.776 656.071 C 1050.253 652.616, 1058.313 643.299, 1062.972 631.571 C 1065.711 624.676, 1066 622.875, 1065.998 612.724 C 1065.997 603.516, 1065.650 600.871, 1064.068 598 C 1063.007 596.075, 1061.709 593.600, 1061.184 592.500 C 1059.692 589.373, 1056.906 587.345, 1051.715 585.604 C 1046.036 583.700, 1044.717 583.695, 1039.645 585.554 M 200.500 608.917 C 195.394 610.191, 191.349 612.774, 187.596 617.158 C 183.285 622.195, 182.013 626.281, 182.006 635.115 C 181.999 642.771, 184.359 647, 188.638 647 C 193.126 647, 194.835 645.320, 195.508 640.247 C 195.854 637.636, 196.609 634.530, 197.187 633.345 C 197.764 632.160, 197.993 630.798, 197.696 630.317 C 197.399 629.837, 197.968 628.368, 198.960 627.052 C 201.560 623.607, 209.223 622.903, 236 623.653 C 255.048 624.186, 259.804 624.020, 267 622.568 C 279.015 620.143, 282.363 616.634, 278.036 611 L 276.116 608.500 239.808 608.335 C 219.839 608.244, 202.150 608.506, 200.500 608.917 M 186.837 655.673 C 185.923 655.915, 184.424 657.694, 183.507 659.626 C 181.106 664.687, 181.658 686.808, 184.250 689.396 C 185.213 690.357, 186 691.696, 186 692.371 C 186 695.840, 184.145 696, 143.859 696 C 121.189 696, 103.877 696.389, 103.558 696.906 C 103.250 697.404, 102.098 697.577, 100.999 697.289 C 99.882 696.997, 99 697.259, 99 697.883 C 99 698.498, 98.325 699, 97.500 699 C 96.675 699, 96 699.450, 96 700 C 96 700.550, 95.361 701, 94.580 701 C 93.155 701, 83 711.699, 83 713.200 C 83 713.640, 82.325 714, 81.500 714 C 80.180 714, 80 722.722, 80 786.500 C 80 851.786, 80.157 859, 81.574 859 C 82.439 859, 85.409 861.475, 88.174 864.500 C 90.939 867.525, 93.649 870, 94.196 870 C 94.743 870, 96.611 871.013, 98.346 872.250 L 101.500 874.500 201 874.500 L 300.500 874.500 305 871.485 C 312.213 866.652, 315.608 862.845, 317.472 857.500 C 319.042 853.001, 319.266 845.887, 319.714 786.500 L 320.212 720.500 317.612 714.639 C 314.699 708.072, 308.654 701.625, 303.156 699.220 C 301.145 698.341, 299.200 697.594, 298.833 697.561 C 298.467 697.527, 297.829 697.163, 297.417 696.750 C 296.556 695.890, 292.596 695.737, 291.800 696.533 C 291.507 696.827, 278.772 697.067, 263.500 697.067 C 248.228 697.067, 235.493 696.827, 235.200 696.533 C 234.907 696.240, 226.387 696, 216.268 696 C 193.185 696, 192.187 695.583, 195.618 687.372 C 196.508 685.242, 197.070 683.457, 196.868 683.404 C 196.666 683.351, 197.135 682.542, 197.911 681.607 C 199.617 679.551, 199.769 667.756, 198.096 667.199 C 197.487 666.996, 197.256 666.395, 197.584 665.864 C 198.346 664.631, 195.272 657.890, 193.198 656.250 C 191.616 654.999, 189.952 654.847, 186.837 655.673 M 463.441 662.418 C 461.761 663.645, 461.454 665.335, 461.160 674.989 C 460.972 681.124, 461.096 687.248, 461.435 688.597 C 462.339 692.198, 465.595 695, 468.878 695 C 473.872 695, 474.500 693.100, 474.500 677.998 C 474.500 667.862, 474.144 663.876, 473.128 662.653 C 471.445 660.627, 466.072 660.496, 463.441 662.418 M 805 672.650 C 798.131 677.514, 796.592 683.897, 799.806 694.191 C 802.037 701.335, 804.234 703.778, 809.654 705.143 C 812.011 705.737, 814.458 706.847, 815.092 707.611 C 817.353 710.335, 820.528 709.186, 823.965 704.399 L 827.269 699.799 838.384 700.493 C 851.477 701.311, 853.713 702.350, 854.622 708.039 C 854.975 710.242, 855.752 712.347, 856.350 712.717 C 856.949 713.086, 860.671 713.510, 864.623 713.659 C 871.394 713.914, 872.042 713.744, 875.866 710.715 C 883.670 704.531, 885 701.764, 885 691.706 C 885 682.911, 884.958 682.758, 881.600 679.400 C 879.704 677.504, 877.182 676, 875.900 676 C 874.111 676, 873.867 676.267, 874.800 677.200 C 877.920 680.320, 874.262 687.156, 866.776 692.196 L 862.500 695.075 842.500 694.787 L 822.500 694.500 817 691.295 C 813.460 689.232, 810.795 686.779, 809.521 684.412 L 807.542 680.735 811.225 677.551 C 818.300 671.435, 812.814 667.116, 805 672.650 M 833.500 673.431 C 832.950 673.648, 831.263 674.098, 829.750 674.432 C 826.616 675.123, 826.125 677.461, 828.811 678.899 C 831.040 680.092, 849.652 680.644, 852.764 679.609 C 854.846 678.917, 854.645 678.652, 850.264 676.316 C 845.917 673.998, 836.272 672.338, 833.500 673.431 M 102.521 716.680 C 100.020 718.379, 98.973 719.858, 98.906 721.786 C 98.855 723.279, 98.652 728.775, 98.456 734 C 98.260 739.225, 98.332 744.286, 98.616 745.247 C 99.099 746.880, 102.371 746.993, 148.499 746.980 C 175.650 746.973, 200.257 747.204, 203.182 747.495 C 206.107 747.785, 229.382 747.680, 254.905 747.262 L 301.310 746.500 301.309 742.237 C 301.308 739.893, 301.013 737.680, 300.654 737.321 C 299.748 736.414, 299.829 728.224, 300.750 727.654 C 301.871 726.961, 301.503 721.808, 300.151 719.283 C 298.273 715.774, 292.186 714.732, 275.500 715.063 C 267.250 715.227, 258.475 715.358, 256 715.355 C 253.525 715.351, 239.575 715.318, 225 715.280 C 210.425 715.242, 196.925 715.217, 195 715.225 C 193.075 715.232, 172.272 715.025, 148.771 714.763 L 106.042 714.287 102.521 716.680 M 413.676 715.399 C 411.572 716.178, 409.620 717.046, 409.338 717.329 C 406.888 719.778, 406.023 744.945, 408.324 746.854 C 409.264 747.634, 422.788 747.791, 455.074 747.396 C 480.058 747.090, 505 746.895, 510.500 746.963 C 516 747.031, 523.802 746.654, 527.838 746.126 C 531.917 745.592, 536.358 745.536, 537.838 746 C 539.302 746.459, 547.316 747.077, 555.648 747.374 C 569.453 747.864, 570.986 747.747, 572.947 746.046 C 574.270 744.899, 574.695 743.929, 574.050 743.531 C 572.840 742.783, 572.605 730.362, 573.786 729.632 C 576.034 728.243, 573.007 720.312, 569.075 717.289 C 567.920 716.400, 558.837 716.062, 535 716.020 C 487.534 715.937, 437.278 715.269, 426.712 714.582 C 419.976 714.144, 416.472 714.363, 413.676 715.399 M 116.336 721.643 C 113.164 722.337, 110.689 728.199, 111.512 733.069 C 112.332 737.924, 115.057 740, 120.612 740 C 126.892 740, 129.047 737.725, 129.626 730.481 C 129.889 727.191, 129.678 723.876, 129.158 723.113 C 128.190 721.692, 120.266 720.784, 116.336 721.643 M 136.750 722.022 C 135.343 722.888, 135 724.522, 135 730.350 C 135 738.730, 135.829 740, 141.300 740 C 146.844 740, 152.014 734.839, 151.968 729.350 C 151.921 723.626, 149.992 721.733, 143.768 721.306 C 140.871 721.107, 137.713 721.429, 136.750 722.022 M 421.385 724.216 C 417.431 727.252, 417.033 727.970, 417.015 732.095 C 416.997 736.395, 419.083 738.568, 424.129 739.504 C 433.583 741.258, 439.603 731.449, 433.077 724.923 C 429.509 721.356, 425.430 721.109, 421.385 724.216 M 445.490 723.016 C 445.144 723.575, 444.479 723.796, 444.011 723.507 C 443.543 723.218, 442.180 724.223, 440.982 725.740 C 439.221 727.971, 438.892 729.430, 439.265 733.357 C 439.788 738.855, 440.944 739.963, 446.179 739.985 C 450.871 740.004, 452.710 738.118, 453.566 732.407 C 454.259 727.788, 452.627 722.494, 450.849 723.593 C 450.382 723.882, 450 723.641, 450 723.059 C 450 721.706, 446.321 721.671, 445.490 723.016 M 499.525 722.960 C 499.160 723.550, 498.494 723.805, 498.044 723.527 C 497.595 723.249, 496.680 723.681, 496.012 724.486 C 494.163 726.713, 498.904 728.604, 503.229 727.363 C 507.746 726.068, 507.823 722.628, 503.344 722.194 C 501.608 722.025, 499.889 722.370, 499.525 722.960 M 519.751 723.841 C 518.038 724.874, 516.779 726.680, 516.412 728.628 C 516.056 730.519, 514.869 732.268, 513.412 733.047 C 510.440 734.638, 510.160 738, 513 738 C 514.100 738, 515.002 737.663, 515.004 737.250 C 515.013 735.692, 523.586 727.193, 525.500 726.844 C 526.662 726.632, 527.634 725.541, 527.820 724.240 C 528.088 722.358, 527.689 722.015, 525.320 722.091 C 523.769 722.142, 521.263 722.929, 519.751 723.841 M 239 724.427 C 239 725.354, 239.855 726, 241.083 726 C 243.520 726, 243.176 723.663, 240.667 723.177 C 239.680 722.985, 239 723.495, 239 724.427 M 277 724.800 C 277 725.790, 277.519 727.119, 278.153 727.753 C 279.755 729.355, 283 727.488, 283 724.965 C 283 723.448, 282.315 723, 280 723 C 277.778 723, 277 723.467, 277 724.800 M 288.570 723.887 C 287.917 724.944, 290.783 727.550, 291.648 726.686 C 292.481 725.852, 291.276 723, 290.090 723 C 289.556 723, 288.871 723.399, 288.570 723.887 M 464.480 724.032 C 464.092 724.660, 464.256 725.656, 464.844 726.244 C 466.087 727.487, 472.046 726.097, 472.325 724.500 C 472.573 723.083, 465.334 722.651, 464.480 724.032 M 480.131 724.342 C 479.519 725.080, 479.313 725.980, 479.675 726.342 C 480.494 727.161, 484.754 727.173, 487.771 726.364 C 489.567 725.883, 489.803 725.467, 488.899 724.378 C 487.434 722.613, 481.586 722.589, 480.131 724.342 M 546.200 724.200 C 544.267 726.133, 544.799 727, 547.918 727 C 552.455 727, 554.280 726.042, 552.903 724.383 C 551.491 722.682, 547.819 722.581, 546.200 724.200 M 559.531 723.950 C 558.656 725.365, 562.979 727.421, 564.220 726.180 C 564.773 725.627, 564.923 724.685, 564.554 724.087 C 563.726 722.748, 560.331 722.655, 559.531 723.950 M 539.593 733.170 C 537.178 736.619, 537.567 738.183, 540.750 737.816 C 543.049 737.552, 543.500 737.022, 543.500 734.583 C 543.500 730.888, 541.658 730.222, 539.593 733.170 M 490.667 733.667 C 489.637 734.696, 489.878 737.807, 491.044 738.527 C 491.618 738.882, 493.223 738.428, 494.611 737.519 C 496.643 736.188, 496.902 735.587, 495.944 734.433 C 494.704 732.938, 491.815 732.518, 490.667 733.667 M 268 737.583 C 268 740.716, 270.348 740.373, 270.820 737.172 C 271.032 735.729, 270.612 735, 269.570 735 C 268.549 735, 268 735.903, 268 737.583 M 947.116 748.867 C 947.043 749.724, 946.254 750.038, 945 749.710 C 943.900 749.423, 943 749.488, 943 749.856 C 943 750.534, 941.244 751.572, 935.115 754.514 C 933.253 755.408, 930.553 756.967, 929.115 757.978 C 927.458 759.143, 923.753 760.062, 919 760.488 C 913.059 761.020, 910.773 761.715, 908 763.829 C 904.877 766.211, 903.368 766.559, 894 767.064 C 886.812 767.451, 882.486 768.178, 880.286 769.370 C 877.367 770.951, 875.296 771.026, 857.786 770.188 C 844.994 769.575, 837.153 768.753, 834.500 767.746 C 821.214 762.701, 820.383 765.675, 831.920 776.981 C 836.275 781.250, 841.098 785.059, 842.637 785.445 C 844.176 785.831, 847.925 787.352, 850.968 788.824 C 856.328 791.417, 857.045 791.499, 874 791.474 C 890.754 791.450, 891.734 791.338, 897 788.844 C 900.025 787.411, 903.625 785.924, 905 785.539 C 909.704 784.222, 916.488 780.761, 921.995 776.869 C 925.023 774.729, 928.395 772.420, 929.488 771.739 C 932.684 769.748, 945.022 756.759, 946.639 753.683 C 947.454 752.133, 947.921 750.108, 947.676 749.183 C 947.407 748.165, 947.186 748.040, 947.116 748.867 M 99.896 764.310 C 98.092 765.992, 97.974 767.396, 98.228 784.310 L 98.500 802.500 124.430 802.767 C 144.508 802.974, 150.542 802.748, 151.165 801.767 C 151.607 801.070, 151.976 792.755, 151.985 783.289 C 151.999 766.908, 151.895 765.980, 149.831 764.057 C 148.071 762.417, 147.381 762.268, 146.175 763.268 C 144.628 764.550, 112.790 764.606, 110.726 763.330 C 108.473 761.938, 101.791 762.543, 99.896 764.310 M 221.239 763.161 C 220.787 763.613, 208.767 764.205, 194.527 764.476 C 175.181 764.845, 168.434 765.289, 167.834 766.235 C 167.392 766.931, 167.024 774.743, 167.015 783.595 C 167.002 797.929, 167.200 799.871, 168.829 801.345 C 170.439 802.802, 173.938 802.996, 198.079 802.968 C 220.481 802.942, 225.852 802.670, 227.421 801.483 C 229.192 800.143, 229.336 798.681, 229.256 782.885 C 229.185 768.797, 228.892 765.464, 227.616 764.187 C 225.879 762.450, 222.494 761.906, 221.239 763.161 M 246.241 764.421 C 244.498 766.637, 244.259 768.679, 244.112 782.593 C 243.978 795.272, 244.242 798.721, 245.496 800.634 L 247.046 803 273.466 803 C 299.635 803, 299.901 802.979, 301.443 800.777 C 303.205 798.262, 303.499 794.426, 302 793.500 C 300.616 792.645, 300.699 771.701, 302.093 770.307 C 303.403 768.997, 301.636 765.024, 299.715 764.959 C 299.047 764.937, 287.881 764.824, 274.903 764.709 C 257.385 764.554, 250.907 764.168, 249.755 763.212 C 248.450 762.129, 247.893 762.321, 246.241 764.421 M 407.403 766.750 C 405.249 768.730, 404.500 771, 406 771 C 407.051 771, 407.426 781.240, 406.413 782.254 C 406.090 782.576, 405.818 787.039, 405.809 792.170 C 405.793 800.960, 405.928 801.572, 408.146 802.735 C 411.628 804.563, 448.946 804.491, 451.461 802.652 C 453.119 801.440, 453.271 800.008, 452.975 788.402 C 452.794 781.306, 452.701 773.933, 452.768 772.018 C 453.005 765.256, 452.157 765, 429.498 765 C 411.659 765, 409.084 765.204, 407.403 766.750 M 468.032 766.461 C 467.179 767.489, 466.859 772.739, 466.951 784.178 C 467.114 804.388, 466.884 804, 478.728 804 C 486.203 804, 487.110 803.804, 486.820 802.250 C 486.641 801.288, 484.967 799.737, 483.101 798.805 C 476.567 795.540, 473.229 791.712, 472.464 786.606 C 471.277 778.691, 472.408 775.003, 477.474 770.277 C 479.963 767.955, 482 765.817, 482 765.527 C 482 765.237, 479.130 765, 475.622 765 C 471.249 765, 468.864 765.459, 468.032 766.461 M 563 765.754 C 563 768.755, 571.940 770.982, 574.004 768.495 C 574.709 767.646, 574.995 766.662, 574.641 766.308 C 573.515 765.182, 563 764.681, 563 765.754 M 98.772 817.773 C 98.143 818.532, 97.687 825.182, 97.641 834.273 C 97.568 848.785, 97.676 849.650, 99.935 852.701 C 101.238 854.462, 102.893 856.129, 103.613 856.405 C 105.607 857.170, 149.707 857.299, 150.930 856.543 C 152.540 855.548, 152.376 820.880, 150.750 818.724 C 149.655 817.273, 146.410 817.031, 124.663 816.783 C 105.497 816.565, 99.586 816.791, 98.772 817.773 M 196.582 816.766 C 178.767 816.943, 169.214 817.407, 168.332 818.139 C 166.734 819.466, 166.369 855.492, 167.944 856.466 C 168.464 856.787, 182.229 857.112, 198.534 857.188 C 223.068 857.302, 228.347 857.083, 229.145 855.913 C 229.675 855.136, 229.863 851.575, 229.562 848 C 229.261 844.425, 229.004 836.550, 228.992 830.500 C 228.979 824.450, 228.639 818.998, 228.235 818.385 C 227.056 816.595, 224.909 816.486, 196.582 816.766 M 245.321 817.821 C 243.473 819.670, 243.407 855.341, 245.250 856.628 C 245.938 857.107, 257.823 857.500, 271.663 857.500 L 296.825 857.500 299.382 855.105 C 300.788 853.787, 301.720 852.356, 301.453 851.924 C 301.186 851.492, 301.425 850.856, 301.984 850.510 C 303.222 849.745, 303.354 820.106, 302.128 818.172 C 300.894 816.227, 247.247 815.895, 245.321 817.821 M 517.200 818.200 C 516.540 818.860, 516 820.468, 516 821.773 C 516 824.955, 519.371 824.384, 519.835 821.124 C 520.253 818.183, 518.814 816.586, 517.200 818.200 M 418.541 819.748 C 409.300 820.021, 407.303 820.372, 405.801 821.983 C 404.723 823.141, 404.417 824.140, 405.026 824.516 C 405.580 824.858, 405.793 825.526, 405.500 826 C 405.207 826.474, 405.425 827.144, 405.984 827.490 C 407.079 828.167, 407.405 836.262, 406.378 837.289 C 405.525 838.142, 405.336 848.002, 406.172 848.001 C 406.542 848, 407.366 849.578, 408.003 851.508 C 408.639 853.437, 409.916 855.420, 410.840 855.914 C 413.587 857.385, 449.722 857.678, 451.159 856.241 C 452.791 854.609, 452.563 822.383, 450.904 820.385 C 449.730 818.969, 446.845 818.913, 418.541 819.748 M 468.200 820.200 C 467.360 821.040, 467 826.554, 467 838.593 C 467 854.031, 467.179 855.858, 468.750 856.493 C 470.144 857.057, 492.571 857.406, 505.500 857.066 C 508.785 856.979, 508.663 855.828, 504.483 847.530 C 500.703 840.026, 498.773 831.171, 499.689 825.531 C 500.677 819.441, 499.590 819, 483.578 819 C 473.884 819, 469.020 819.380, 468.200 820.200 M 517.584 835.521 C 516.787 838.697, 518.143 841.256, 522.263 844.346 C 526.587 847.589, 542.590 849.232, 543.624 846.539 C 544.331 844.695, 540.273 839.713, 538.804 840.621 C 538.307 840.929, 536.431 840.483, 534.636 839.632 C 532.842 838.780, 529.510 837.785, 527.233 837.421 C 524.955 837.057, 522.327 835.913, 521.391 834.880 C 519.126 832.376, 518.340 832.509, 517.584 835.521 M 525.387 860.182 C 524.415 861.755, 531.677 868, 534.478 868 C 537.165 868, 541 864.523, 541 862.086 C 541 860.830, 540.013 860.053, 537.875 859.625 C 532.810 858.612, 526.175 858.908, 525.387 860.182" stroke="none" fill="#171916" fill-rule="evenodd"/>
</svg>