<svg role="img" aria-labelledby="artwork-title" shape-rendering="geometricPrecision" xmlns="http://www.w3.org/2000/svg" width="1200" height="1200" viewBox="0 0 1200 1200" version="1.1">
	<title id="artwork-title">Mascot connecting database nodes</title>
	<path d="M 909 290.863 C 909 291.656, 902.283 294.048, 895.824 295.555 C 894.352 295.899, 892.369 297.039, 891.419 298.090 C 890.468 299.140, 889.133 300, 888.453 300 C 887.773 300, 884.964 302.025, 882.211 304.500 C 875.901 310.173, 873.470 310.272, 868.781 305.048 C 866.829 302.875, 863.943 300.791, 862.367 300.417 C 860.790 300.043, 858.588 298.913, 857.474 297.905 C 854.426 295.148, 839.843 293.743, 828.524 295.115 C 816.081 296.623, 808.153 300.725, 797.936 310.943 C 792.373 316.506, 789.813 319.892, 788.921 322.868 C 788.237 325.154, 787.031 327.559, 786.243 328.214 C 784.552 329.617, 778.166 330.077, 777.408 328.851 C 776.728 327.752, 762.281 327.736, 761.603 328.833 C 761.320 329.292, 759.772 329.473, 758.162 329.237 C 756.553 329.001, 754.932 329.301, 754.559 329.904 C 754.187 330.507, 753.064 331, 752.063 331 C 751.063 331, 749.745 331.602, 749.134 332.338 C 748.524 333.074, 746.300 334.193, 744.193 334.824 C 741.807 335.539, 737.930 338.335, 733.914 342.236 C 725.703 350.214, 722.735 354.287, 720.667 360.417 C 719.754 363.122, 718.225 366.199, 717.269 367.256 C 716.026 368.629, 715.424 371.362, 715.157 376.838 C 714.739 385.417, 713.947 387, 710.076 387 C 706.099 387, 695.773 394.186, 690.568 400.575 C 688.056 403.660, 686 406.713, 686 407.360 C 686 408.006, 684.909 410.141, 683.576 412.102 C 682.243 414.064, 680.835 417.431, 680.446 419.585 C 680.057 421.738, 679.309 424.043, 678.784 424.706 C 678.258 425.370, 678.094 426.344, 678.420 426.871 C 678.746 427.398, 678.538 427.987, 677.958 428.181 C 676.281 428.740, 675.641 439.091, 677.073 442.500 C 677.766 444.150, 678.377 445.725, 678.432 446 C 678.486 446.275, 678.802 446.950, 679.134 447.500 C 679.466 448.050, 680.033 450.142, 680.395 452.150 C 680.757 454.157, 681.716 456.349, 682.526 457.022 C 683.337 457.695, 684 458.801, 684 459.482 C 684 460.162, 685.739 462.694, 687.865 465.109 C 689.991 467.524, 691.735 469.950, 691.741 470.500 C 691.747 471.050, 690.394 473.475, 688.733 475.888 C 685.773 480.190, 685.714 480.517, 685.714 492.672 L 685.714 505.068 689.544 510.784 C 691.650 513.928, 694.612 517.850, 696.126 519.500 C 700.353 524.109, 701.104 527.020, 699.366 532.063 C 697.607 537.170, 697.984 539.039, 702.742 548.798 L 706.343 556.181 703.349 558.524 C 700.056 561.101, 690.463 574.797, 691.338 575.672 C 691.640 575.973, 690.674 578.083, 689.193 580.360 C 686.545 584.431, 686.500 584.776, 686.500 601 C 686.500 617.066, 686.570 617.622, 689.178 622.156 C 690.650 624.716, 691.642 627.025, 691.381 627.286 C 691.120 627.547, 691.817 629.277, 692.929 631.130 C 694.042 632.984, 696.054 636.525, 697.401 639 C 699.653 643.139, 703.414 647.573, 707.402 650.789 C 708.626 651.777, 709 653.955, 709 660.098 C 709 675.347, 712.694 691.235, 717.644 697.279 C 718.896 698.808, 720.215 701.733, 720.574 703.779 C 721.195 707.316, 727.550 718, 729.032 718 C 729.416 718, 732.447 721.262, 735.766 725.250 C 743.274 734.270, 744.822 735.875, 749.027 739 C 750.877 740.375, 753.765 742.675, 755.445 744.111 C 757.125 745.548, 759.990 747.486, 761.812 748.419 C 764.247 749.666, 765.041 750.683, 764.812 752.256 C 764.549 754.063, 763.469 754.565, 757.887 755.475 C 753.524 756.186, 749.781 757.563, 746.887 759.520 C 744.474 761.152, 741.375 763.077, 740 763.798 C 722.142 773.168, 701.930 788.185, 688.034 802.406 C 680.609 810.005, 677 809.703, 677 801.484 C 677 788.273, 672.876 779.325, 661.966 768.859 L 654 761.218 654 707.153 L 654 653.088 651 648 C 649.350 645.202, 648 642.227, 648 641.391 C 648 638.862, 630.303 623, 627.482 623 C 627.252 623, 623.449 621.234, 619.032 619.075 C 614.614 616.916, 611 615.396, 611 615.698 C 611 615.999, 610.418 615.762, 609.706 615.171 C 608.994 614.580, 604.157 613.184, 598.956 612.068 C 576.766 607.308, 547.680 605.937, 522 608.441 C 506.788 609.925, 490.668 612.914, 487.500 614.839 C 486.950 615.174, 486.050 615.484, 485.500 615.528 C 484.950 615.573, 483.375 616.083, 482 616.662 C 480.625 617.241, 476.957 618.656, 473.850 619.806 C 461.654 624.320, 450.498 633.722, 444.391 644.634 L 440.958 650.767 441.229 717.134 L 441.500 783.500 444 787.304 C 445.375 789.396, 447.738 792.534, 449.250 794.277 C 450.762 796.020, 452.003 797.908, 452.007 798.473 C 452.011 799.038, 453.691 800.625, 455.740 802 C 457.790 803.375, 461.162 806.015, 463.233 807.866 C 465.305 809.718, 467 810.902, 467 810.498 C 467 810.093, 468.578 810.966, 470.506 812.437 C 472.435 813.908, 476.148 815.749, 478.756 816.528 C 481.365 817.306, 485.283 818.856, 487.461 819.972 C 489.640 821.087, 492.846 822, 494.585 822 C 496.325 822, 499.717 823.075, 502.124 824.389 C 505.820 826.406, 508.910 826.958, 522 827.937 C 530.525 828.575, 541.224 829.016, 545.775 828.916 C 554.935 828.716, 557.082 829.740, 559.574 835.500 C 560.288 837.150, 563.376 841.170, 566.436 844.432 C 569.496 847.695, 572.013 850.845, 572.029 851.432 C 572.045 852.020, 572.157 863.525, 572.279 877 C 572.478 899.010, 572.689 901.779, 574.359 904.241 C 577.649 909.091, 589.648 910.438, 591.874 906.207 C 592.390 905.226, 592.422 900.886, 591.949 896 C 590.488 880.910, 590.817 860.255, 592.610 854.569 C 594.862 847.426, 593.205 843.767, 584.689 837.075 C 581.124 834.272, 577.949 831.310, 577.635 830.492 C 576.881 828.526, 580.387 826.371, 585.745 825.509 C 588.079 825.133, 590.217 824.457, 590.496 824.007 C 590.774 823.556, 591.902 823.423, 593.001 823.711 C 594.118 824.003, 595 823.741, 595 823.117 C 595 822.466, 596.814 822, 599.351 822 C 603.426 822, 603.979 822.348, 608.099 827.511 C 610.518 830.543, 613.324 833.286, 614.335 833.606 C 617.322 834.554, 622.896 833.062, 623.988 831.023 C 625.244 828.675, 625.299 822.916, 624.095 819.749 C 622.899 816.603, 608.685 802.205, 603.075 798.457 C 598.691 795.528, 593 786.707, 593 782.842 C 593 780.619, 597.658 777, 600.521 777 C 602.491 777, 618.784 784.774, 621.508 787.014 C 623.286 788.476, 631.404 790.970, 634.434 790.985 C 638.402 791.005, 645.764 787.319, 646.521 784.933 C 647.491 781.879, 650.461 782.661, 654.384 787.003 C 657.349 790.285, 658 791.774, 658 795.276 C 658 801.017, 662.542 818.611, 665.010 822.430 C 668.174 827.327, 671.168 833.995, 670.757 835.229 C 670.517 835.950, 668.124 836.272, 664.189 836.111 C 660.785 835.972, 658 836.272, 658 836.776 C 658 837.281, 653.039 837.978, 646.975 838.325 C 634.656 839.030, 633.283 839.517, 627.258 845.317 C 622.396 849.997, 621.435 853.309, 622.485 861.763 C 623.139 867.029, 623.662 867.961, 628.849 873.114 C 634.079 878.310, 635.021 878.824, 641.500 880.022 C 650.391 881.666, 655 883.586, 655 885.645 C 655 886.536, 654.147 888.667, 653.104 890.382 C 652.062 892.097, 650.897 896.275, 650.516 899.667 C 649.705 906.879, 650.750 908, 658.279 908 C 663.475 908, 666.510 905.448, 665.790 901.684 C 665.437 899.835, 666.716 897.765, 671.471 892.493 L 677.607 885.690 684.554 884.856 C 692.265 883.931, 694 882.573, 694 877.464 C 694 871.493, 694.245 871.559, 653.644 866.628 C 645.899 865.688, 643.482 865.012, 642.357 863.473 C 640.388 860.780, 641.032 857.782, 643.886 856.365 C 648.197 854.224, 667.922 853.840, 697.500 855.323 C 722.075 856.555, 727.263 857.085, 731.500 858.800 C 739.338 861.973, 740.433 862.378, 741.500 862.502 C 743.340 862.715, 753.104 868.468, 756.321 871.234 C 758.069 872.738, 759.792 873.975, 760.150 873.984 C 760.507 873.993, 762.402 875.463, 764.361 877.250 C 766.320 879.038, 769.965 882.246, 772.461 884.380 C 774.957 886.514, 777 888.830, 777 889.526 C 777 890.223, 778.575 892.176, 780.500 893.866 C 782.425 895.556, 784 897.373, 784 897.902 C 784 899.279, 792.013 905.660, 795.532 907.087 C 797.720 907.973, 815.188 908.335, 862 908.462 C 896.925 908.556, 927.828 908.433, 930.674 908.188 C 935.608 907.763, 936.245 907.353, 944.372 899.371 C 949.059 894.767, 953.191 891, 953.554 891 C 953.916 891, 955.097 889.875, 956.179 888.500 C 957.461 886.869, 959.145 886, 961.020 886 C 962.601 886, 966.010 887.125, 968.596 888.500 C 971.182 889.875, 974.462 891, 975.885 891 C 977.307 891, 980.728 892.091, 983.486 893.424 C 986.244 894.758, 989.625 896.097, 991 896.401 C 992.375 896.705, 994.938 898.314, 996.696 899.977 C 998.453 901.640, 1000.229 903, 1000.642 903 C 1001.055 903, 1003.178 904.237, 1005.361 905.750 L 1009.330 908.500 1060.629 908.500 C 1118.539 908.500, 1114.494 909.088, 1116.112 900.431 C 1116.603 897.803, 1117.678 894.908, 1118.502 893.998 C 1119.750 892.618, 1120 888.079, 1120 866.755 C 1120 848.742, 1119.668 841.056, 1118.879 840.793 C 1118.262 840.587, 1116.947 836.387, 1115.955 831.460 C 1114.171 822.594, 1109.958 810.900, 1107.503 808 C 1106.804 807.175, 1105.226 804.475, 1103.996 802 C 1102.766 799.525, 1100.167 795.475, 1098.220 793 C 1093.553 787.064, 1081.791 775, 1080.671 775 C 1080.185 775, 1078.908 773.882, 1077.833 772.515 C 1076.758 771.148, 1072.868 768.356, 1069.189 766.310 C 1065.510 764.264, 1059.478 760.646, 1055.783 758.268 C 1049.023 753.918, 1032.444 745.854, 1029.500 745.483 C 1028.950 745.414, 1026.700 744.574, 1024.500 743.617 C 1022.300 742.659, 1018.025 741.278, 1015 740.548 C 1011.975 739.818, 1008.233 738.721, 1006.685 738.110 C 1005.137 737.500, 1002.129 737, 1000.002 737 C 997.019 737, 995.990 736.545, 995.503 735.009 C 994.670 732.385, 995.305 731.519, 999.989 728.886 C 1002.150 727.671, 1003.685 726.300, 1003.400 725.839 C 1003.115 725.377, 1003.471 724.999, 1004.191 724.997 C 1004.911 724.996, 1006.387 723.670, 1007.471 722.052 C 1008.556 720.434, 1009.578 719.244, 1009.743 719.409 C 1010.454 720.121, 1020 709.908, 1020 708.435 C 1020 706.612, 1021.861 702.990, 1026.777 695.246 C 1028.612 692.356, 1029.871 689.600, 1029.575 689.121 C 1029.279 688.643, 1030.152 687.049, 1031.514 685.580 C 1033.690 683.232, 1034.446 683.001, 1037.745 683.674 C 1043.662 684.881, 1051.563 684.282, 1055.183 682.352 C 1057.007 681.380, 1058.725 680.527, 1059 680.458 C 1059.275 680.389, 1060.767 679.808, 1062.315 679.166 C 1063.863 678.525, 1065.357 678, 1065.635 678 C 1066.936 678, 1075.263 671.564, 1080.129 666.799 C 1086.471 660.588, 1090.100 655.795, 1091.968 651.165 C 1092.708 649.330, 1093.822 647.305, 1094.445 646.665 C 1098.442 642.549, 1102.339 627.281, 1102.282 615.954 C 1102.230 605.458, 1098.948 591.916, 1095.450 587.759 C 1094.103 586.157, 1093 584.454, 1093 583.975 C 1093 583.495, 1091.875 581.889, 1090.500 580.405 C 1087.676 577.358, 1087.030 571.309, 1089.431 570.388 C 1090.218 570.086, 1092.581 567.063, 1094.681 563.669 L 1098.500 557.500 1098.500 545.301 L 1098.500 533.102 1103.669 528.301 C 1106.684 525.500, 1110.225 520.792, 1112.169 517 L 1115.500 510.500 1115.500 495.500 L 1115.500 480.500 1111.827 475 C 1109.807 471.975, 1106.095 467.349, 1103.577 464.721 C 1101.060 462.092, 1099 459.472, 1099 458.899 C 1099 458.325, 1100.073 455.976, 1101.384 453.678 C 1104.593 448.052, 1106.187 435.063, 1104.919 424.856 C 1103.747 415.411, 1098.768 405.306, 1092.414 399.471 C 1089.986 397.243, 1088 394.958, 1088 394.395 C 1088 393.831, 1086.537 392.598, 1084.750 391.653 C 1082.963 390.709, 1080.375 389.295, 1079 388.512 C 1077.625 387.729, 1074.250 386.115, 1071.500 384.925 C 1068.750 383.735, 1065.669 382.334, 1064.652 381.811 C 1063.636 381.289, 1061.149 380.981, 1059.125 381.127 C 1057.100 381.273, 1054.948 381.086, 1054.342 380.711 C 1053.735 380.336, 1052.923 376.234, 1052.536 371.595 C 1052.101 366.373, 1051.104 361.798, 1049.917 359.584 C 1048.863 357.617, 1048 355.408, 1048 354.675 C 1048 352.319, 1041.718 343.768, 1035.366 337.478 C 1031.238 333.390, 1026.590 330.080, 1021.345 327.492 L 1013.500 323.622 998.796 323.686 C 985.881 323.742, 983.602 324.005, 980.063 325.850 C 977.847 327.005, 975.463 327.731, 974.764 327.463 C 974.066 327.195, 971.921 324.004, 969.997 320.371 C 966.852 314.432, 955.044 301, 952.968 301 C 952.520 301, 950.851 299.904, 949.260 298.565 C 947.668 297.226, 945.046 295.838, 943.433 295.482 C 938.158 294.316, 931 291.622, 931 290.802 C 931 290.361, 926.050 290, 920 290 C 913.950 290, 909 290.388, 909 290.863 M 905.557 311.486 C 901.738 312.877, 897.688 314.859, 896.557 315.890 C 895.425 316.922, 893.038 318.505, 891.250 319.409 C 889.462 320.312, 888 321.478, 888 322 C 888 322.522, 886.650 323.647, 885 324.500 C 882.647 325.717, 882 326.719, 882 329.148 C 882 331.989, 882.153 332.131, 883.853 330.872 C 884.872 330.117, 887.685 328.063, 890.103 326.308 C 892.521 324.552, 895.625 322.254, 897 321.201 C 898.375 320.148, 901.577 318.979, 904.115 318.602 C 906.653 318.226, 909.578 317.276, 910.615 316.491 C 912.783 314.849, 922.566 314.489, 923.510 316.016 C 923.856 316.575, 924.526 316.793, 925 316.500 C 925.474 316.207, 926.128 316.399, 926.454 316.926 C 926.780 317.453, 929.174 318.200, 931.773 318.586 C 937.155 319.384, 939.810 321.118, 948.221 329.322 C 951.503 332.524, 954.416 334.917, 954.694 334.639 C 955.583 333.751, 953.864 326, 952.778 326 C 952.203 326, 949.465 323.696, 946.693 320.881 C 935.965 309.982, 919.812 306.293, 905.557 311.486 M 823.558 313.663 C 817.933 315.277, 802 330.232, 802 333.898 C 802 337.034, 803.756 337.302, 805.624 334.450 C 807.420 331.710, 813.922 325.018, 818.364 321.336 C 821.474 318.760, 830.678 317.654, 844.752 318.164 C 849.841 318.349, 854.004 318.249, 854.002 317.941 C 854.001 317.634, 853.392 316.550, 852.648 315.533 C 851.475 313.929, 849.588 313.646, 838.398 313.395 C 831.304 313.236, 824.626 313.357, 823.558 313.663 M 858 322.500 C 858.685 323.325, 859.865 324, 860.622 324 C 861.380 324, 862 323.325, 862 322.500 C 862 321.548, 861.042 321, 859.378 321 C 857.160 321, 856.947 321.232, 858 322.500 M 989.441 342.096 C 989.068 342.698, 987.242 343.014, 985.382 342.796 C 983.522 342.579, 982 342.761, 982 343.201 C 982 343.640, 981.351 344, 980.557 344 C 979.763 344, 978.511 344.861, 977.774 345.913 C 977.037 346.965, 974.761 348.623, 972.717 349.598 C 969.558 351.104, 967.773 353, 969.514 353 C 970.305 353, 974.288 350.671, 976.355 349 C 979.121 346.764, 1004.009 346.834, 1006.644 349.085 C 1007.665 349.957, 1010.075 351.261, 1012 351.982 C 1017.106 353.895, 1029.046 366.966, 1031.119 372.911 C 1031.711 374.610, 1032.660 376, 1033.228 376 C 1034.508 376, 1033.630 367.023, 1032.263 366.126 C 1031.738 365.782, 1031.005 364.262, 1030.635 362.750 C 1030.265 361.238, 1029.520 360, 1028.981 360 C 1028.441 360, 1028 359.370, 1028 358.600 C 1028 357.183, 1017.507 347, 1016.047 347 C 1015.611 347, 1013.060 346.018, 1010.377 344.818 C 1007.695 343.617, 1004.083 342.748, 1002.351 342.886 C 1000.619 343.023, 998.905 342.655, 998.542 342.068 C 997.674 340.664, 990.312 340.687, 989.441 342.096 M 760.407 347.343 C 752.096 349.464, 742.437 356.635, 738.306 363.750 C 734.746 369.883, 734.012 371.750, 734.006 374.691 C 733.998 379.105, 735.505 379.615, 737.098 375.737 C 738.958 371.209, 746.691 361.230, 749.858 359.270 C 751.311 358.371, 753.625 356.627, 755 355.394 C 758.337 352.402, 768.438 350.640, 777.204 351.520 C 782.997 352.102, 784 351.972, 784 350.637 C 784 349.775, 783.059 348.567, 781.909 347.951 C 778.706 346.237, 766.131 345.881, 760.407 347.343 M 211.500 371.989 C 192.214 374.621, 178.014 377.355, 174.037 379.202 C 171.542 380.361, 168.926 381.218, 168.224 381.105 C 167.523 380.993, 165.723 381.744, 164.224 382.776 C 162.726 383.807, 159.925 385.251, 158 385.985 C 153.025 387.882, 145.141 394.146, 140.706 399.726 C 132.347 410.243, 131.077 412.307, 130.498 416.324 C 130.167 418.621, 130.032 449.975, 130.198 486 L 130.500 551.500 133.750 556.446 C 135.537 559.166, 137 561.900, 137 562.521 C 137 564.139, 147.992 575, 149.630 575 C 150.383 575, 151 575.477, 151 576.059 C 151 576.641, 151.450 576.840, 152 576.500 C 152.550 576.160, 153 576.379, 153 576.987 C 153 578.400, 168.931 585.752, 174.885 587.086 C 177.378 587.645, 179.952 588.545, 180.604 589.086 C 181.256 589.627, 182.174 589.982, 182.645 589.874 C 183.115 589.765, 184.850 590.234, 186.500 590.914 C 201.105 596.936, 276.299 596.864, 287.277 590.817 C 288.500 590.143, 289.950 589.546, 290.500 589.489 C 291.050 589.432, 292.175 589.122, 293 588.800 C 293.825 588.478, 297.200 587.308, 300.500 586.201 C 312.269 582.250, 316.924 580.316, 320.686 577.814 C 326.987 573.622, 337.807 562.154, 338.519 558.912 C 338.877 557.284, 340.369 554.527, 341.835 552.785 L 344.500 549.619 344.823 483.740 L 345.146 417.862 341.038 411.062 C 336.478 403.515, 326.530 392, 324.571 392 C 323.877 392, 322.511 391.117, 321.534 390.038 C 320.557 388.958, 318.125 387.547, 316.129 386.902 C 314.133 386.257, 310.700 384.784, 308.500 383.629 C 306.300 382.474, 304.050 381.479, 303.500 381.418 C 302.950 381.357, 301.600 380.946, 300.500 380.506 C 299.400 380.065, 297.063 379.130, 295.307 378.427 C 293.551 377.724, 288.601 376.617, 284.307 375.966 C 280.013 375.316, 273.350 374.083, 269.500 373.227 C 261.528 371.454, 221.656 370.603, 211.500 371.989 M 219.357 389.944 C 207.681 390.853, 196.042 392.835, 194.303 394.210 C 193.645 394.731, 192.070 395.054, 190.803 394.927 C 189.536 394.801, 187.375 395.159, 186 395.724 C 184.625 396.288, 181.025 397.544, 178 398.513 C 167.581 401.853, 160.748 405.495, 155.381 410.570 C 150.172 415.496, 150 415.831, 150 421.030 C 150 426.258, 150.155 426.552, 155.781 432.024 C 159.516 435.656, 162.967 438.034, 165.531 438.742 C 169.039 439.711, 181.926 444.095, 186 445.705 C 186.825 446.031, 188.512 446.198, 189.750 446.077 C 190.988 445.956, 192 446.298, 192 446.838 C 192 448.582, 219.041 452, 232.846 452 C 237.225 452, 249.289 451.310, 259.654 450.466 C 277.280 449.031, 284 447.800, 284 446.008 C 284 445.595, 286.270 444.957, 289.044 444.589 C 295.121 443.782, 309.708 438.045, 315.598 434.143 C 324.377 428.328, 327.567 421.931, 324.574 416.143 C 321.471 410.142, 307.803 401.056, 299.649 399.572 C 297.531 399.187, 294.381 398.258, 292.649 397.509 C 287.214 395.157, 285.557 394.685, 283.599 394.935 C 282.554 395.068, 280.754 394.721, 279.599 394.164 C 272.747 390.860, 238.452 388.457, 219.357 389.944 M 1052.750 399.652 C 1049.818 400.481, 1050.789 401.875, 1054.750 402.522 C 1056.813 402.859, 1059.670 403.350, 1061.099 403.614 C 1064.166 404.179, 1081.349 421.322, 1083.175 425.638 L 1084.386 428.500 1084.769 425.646 C 1085.023 423.759, 1084.470 422.064, 1083.137 420.646 C 1082.028 419.466, 1081.103 418.158, 1081.081 417.740 C 1081.004 416.296, 1077.947 411, 1077.190 411 C 1076.773 411, 1075.650 409.677, 1074.695 408.061 C 1073.740 406.444, 1071.964 404.806, 1070.749 404.420 C 1069.533 404.034, 1067.405 402.908, 1066.019 401.918 C 1063.430 400.066, 1055.860 398.774, 1052.750 399.652 M 1038.667 400.667 C 1037.181 402.152, 1038.181 403, 1041.418 403 C 1045.389 403, 1048 402.164, 1048 400.893 C 1048 399.865, 1039.670 399.663, 1038.667 400.667 M 710.376 407.462 C 710.068 408.266, 708.844 409.229, 707.658 409.601 C 703.959 410.762, 699.088 417.112, 699.042 420.833 C 698.988 425.094, 700.698 424.613, 703.519 419.574 C 704.687 417.487, 706.398 415.357, 707.321 414.840 C 708.245 414.323, 709 413.252, 709 412.459 C 709 411.666, 709.900 410.455, 711 409.768 C 713.101 408.456, 713.732 406, 711.969 406 C 711.401 406, 710.685 406.658, 710.376 407.462 M 864.649 426.413 C 863.780 427.739, 861.253 429.626, 859.034 430.605 C 856.815 431.584, 855 432.775, 855 433.251 C 855 433.728, 854.550 433.840, 854 433.500 C 853.450 433.160, 853 433.297, 853 433.805 C 853 434.313, 851.087 435.457, 848.750 436.347 C 833.476 442.163, 818.269 439.751, 806.095 429.579 C 800.955 425.285, 798.542 425.074, 796.595 428.750 C 794.620 432.478, 787.144 440.071, 780.538 445.059 C 775.050 449.203, 774.446 449.381, 758.288 451.629 C 755.489 452.019, 754.989 452.554, 754.396 455.788 C 753.223 462.190, 749.407 469.269, 743.601 475.814 C 738.003 482.124, 738 482.131, 737.963 488.814 C 737.943 492.491, 737.290 498.650, 736.511 502.500 C 734.821 510.861, 732.375 546.929, 733.329 549.416 C 733.957 551.052, 734.207 551.035, 737.255 549.152 C 739.045 548.045, 743.657 546.634, 747.505 546.015 C 751.352 545.397, 758.659 544.182, 763.743 543.315 C 773.012 541.736, 782.306 542.025, 787.660 544.061 C 789.020 544.578, 793.184 545.637, 796.913 546.415 C 806.835 548.483, 818.635 556.892, 825.624 566.872 C 827.149 569.051, 827.701 569.181, 832.392 568.458 C 839.528 567.358, 852.434 567.889, 856.904 569.466 C 862.308 571.373, 865.725 570.384, 868.466 566.120 C 872.130 560.420, 878.939 554.542, 885.899 551.071 C 891.655 548.200, 893.613 547.791, 905.399 547.005 C 913.312 546.478, 922.856 546.509, 929.500 547.085 C 941.576 548.132, 944 548.641, 944 550.126 C 944 550.672, 944.470 550.828, 945.044 550.473 C 945.618 550.118, 946.630 550.264, 947.294 550.797 C 947.957 551.330, 950.911 552.275, 953.858 552.896 C 956.806 553.517, 960.354 554.920, 961.743 556.013 C 963.133 557.106, 964.782 558, 965.407 558 C 967.126 558, 974 563.960, 974 565.450 C 974 568.593, 976.957 569.145, 995.849 569.533 C 1014.735 569.920, 1016.778 569.626, 1016.854 566.500 C 1016.868 565.950, 1016.056 564.600, 1015.050 563.500 C 1014.044 562.400, 1011.945 559.025, 1010.385 556 C 1006.658 548.769, 1006.492 538.489, 1009.984 531.035 C 1013.106 524.369, 1012.283 521.684, 1006.170 518.586 C 1000.357 515.641, 998.722 513.824, 994.838 506 C 994.156 504.625, 992.760 502.266, 991.736 500.757 C 990.711 499.248, 990.134 497.592, 990.453 497.076 C 990.772 496.560, 990.575 495.856, 990.016 495.510 C 988.322 494.463, 988.764 479.782, 990.568 477.207 C 991.430 475.976, 991.992 473.973, 991.818 472.755 C 991.516 470.653, 991.096 470.555, 983.500 470.824 C 971.083 471.263, 960.661 467.049, 952.500 458.288 C 945.836 451.135, 944.351 448.736, 943.036 443 C 940.713 432.869, 938.567 431.455, 932.660 436.161 C 930.922 437.545, 925.778 439.941, 921.230 441.486 C 909.532 445.457, 899.860 444.686, 887 438.758 C 884.344 437.534, 876.793 430.140, 874.277 426.300 C 872.155 423.061, 866.804 423.124, 864.649 426.413 M 320.047 451.591 C 318.148 452.902, 314.323 454.720, 311.547 455.631 C 308.771 456.542, 304.475 458.326, 302 459.596 C 297.724 461.790, 292.005 463.271, 275 466.589 C 264.332 468.671, 228.208 469.555, 212.843 468.110 C 196.621 466.585, 178.514 462.798, 172.369 459.646 C 169.691 458.272, 165.475 456.577, 163 455.879 C 160.525 455.181, 157.059 453.535, 155.297 452.222 C 153.536 450.909, 151.286 449.991, 150.297 450.182 C 148.628 450.504, 148.525 451.876, 148.858 469.514 C 149.262 490.872, 149.067 490.257, 157.427 496.549 C 162.851 500.631, 171.327 503.867, 186.405 507.613 C 191.853 508.967, 196.797 510.374, 197.391 510.742 C 197.985 511.109, 199.963 511.281, 201.786 511.124 C 203.609 510.967, 205.823 511.437, 206.706 512.169 C 209.045 514.107, 266.959 514.110, 269.294 512.171 C 270.174 511.441, 271.930 510.977, 273.197 511.141 C 274.464 511.304, 275.950 511.194, 276.500 510.896 C 278.056 510.053, 284.902 508.262, 291.500 506.973 C 303.374 504.654, 316.957 497.998, 322.967 491.554 C 325.396 488.950, 325.437 488.619, 325.595 469.975 C 325.705 456.955, 325.403 450.755, 324.628 450.125 C 323.901 449.535, 322.272 450.056, 320.047 451.591 M 321.500 512.570 C 319.850 513.901, 317.803 514.992, 316.950 514.995 C 316.097 514.998, 314.972 515.425, 314.450 515.944 C 313.264 517.122, 298.949 522.992, 297.250 522.997 C 296.563 522.998, 296 523.478, 296 524.063 C 296 524.647, 295.212 525.028, 294.250 524.909 C 293.288 524.790, 291.825 524.946, 291 525.256 C 289.626 525.771, 286.954 526.487, 276.918 529.028 C 268.695 531.110, 237.610 532.800, 223.500 531.933 C 206.424 530.883, 192.802 529.141, 187.624 527.345 C 185.493 526.605, 182.680 526, 181.374 526 C 180.068 526, 179 525.523, 179 524.941 C 179 524.359, 178.568 524.149, 178.041 524.475 C 177.513 524.801, 176.276 524.610, 175.291 524.050 C 174.306 523.491, 169.139 521.007, 163.808 518.532 C 158.478 516.056, 153.753 513.381, 153.308 512.587 C 152.153 510.521, 150.694 510.559, 149.859 512.676 C 148.766 515.451, 148.913 541.912, 150.050 546.840 C 151.249 552.039, 155.858 558.070, 160.572 560.609 C 162.457 561.624, 164 562.829, 164 563.286 C 164 563.744, 164.450 563.840, 165 563.500 C 165.550 563.160, 166 563.258, 166 563.718 C 166 566.014, 195.005 575, 202.413 575 C 203.653 575, 204.991 575.324, 205.387 575.720 C 205.783 576.116, 207.613 576.311, 209.453 576.152 C 211.293 575.994, 213.095 576.345, 213.458 576.932 C 214.370 578.407, 259.629 578.410, 260.540 576.935 C 260.902 576.349, 262.391 575.964, 263.849 576.079 C 265.307 576.193, 267.175 576.028, 268 575.711 C 268.825 575.394, 274 574.392, 279.500 573.484 C 289.612 571.816, 306.830 566.027, 309.439 563.418 C 310.219 562.638, 311.248 562, 311.725 562 C 312.202 562, 315.497 559.246, 319.046 555.879 L 325.500 549.759 325.845 530.775 C 326.035 520.333, 325.810 511.421, 325.345 510.970 C 324.880 510.519, 323.150 511.238, 321.500 512.570 M 773.581 511.869 C 773.286 512.346, 771.321 513.013, 769.215 513.350 C 765.307 513.975, 755.162 520.398, 751.884 524.323 C 750.040 526.532, 749.426 531.612, 750.765 533.578 C 752.054 535.469, 758.197 538, 761.500 538 C 763.256 538, 766.163 537.266, 767.961 536.370 C 770.545 535.081, 773.206 534.843, 780.678 535.234 C 785.876 535.506, 790.639 536.239, 791.264 536.864 C 794.195 539.795, 802.627 536.598, 807.750 530.613 C 810.121 527.844, 810.692 524.546, 808.984 523.490 C 808.425 523.144, 808.196 522.492, 808.475 522.041 C 809.144 520.959, 803.655 515.638, 800.212 514.032 C 798.721 513.336, 796.719 512.369, 795.764 511.883 C 793.519 510.741, 774.286 510.729, 773.581 511.869 M 906 515.016 C 905.175 515.557, 902.776 516.477, 900.670 517.060 C 894.938 518.646, 889.989 523.649, 889.350 528.501 C 888.911 531.840, 889.320 533.181, 891.826 536.623 C 895.306 541.402, 899.291 542.634, 906.152 541.051 C 916.205 538.733, 933.551 540.256, 943 544.286 C 946.247 545.671, 946.822 545.624, 950.958 543.639 C 955.387 541.514, 956.670 539.482, 956.900 534.228 C 957.041 531.014, 950.249 524.036, 943.842 520.812 C 935.500 516.615, 924.564 513.991, 915.500 514.012 C 911.100 514.022, 906.825 514.474, 906 515.016 M 365 532.294 C 361.312 534.159, 359.757 538.005, 361.116 541.902 C 362.136 544.830, 366.280 548, 369.086 548 C 369.737 548, 371.313 549.125, 372.588 550.500 C 374.373 552.426, 375.890 552.996, 379.202 552.985 C 384.361 552.966, 385.233 552.441, 386.886 548.353 C 388.970 543.194, 386.059 538.900, 376.912 533.639 C 371.855 530.730, 368.779 530.383, 365 532.294 M 401.887 558.113 C 400.241 559.759, 399.901 561.001, 400.345 563.737 C 400.931 567.350, 403.470 570.996, 405.405 571.005 C 406.007 571.007, 408.131 572.507, 410.123 574.338 C 417.809 581.398, 426.870 584.011, 430.345 580.171 C 434.254 575.852, 431.597 571.197, 420.576 563.057 C 410.474 555.596, 405.674 554.326, 401.887 558.113 M 754.583 562.750 C 754.171 563.163, 753.533 563.501, 753.167 563.502 C 751.692 563.505, 745 568.003, 745 568.991 C 745 569.573, 743.884 570.474, 742.520 570.992 C 741.019 571.563, 739.198 573.728, 737.904 576.480 C 736.729 578.980, 735.370 581.271, 734.884 581.572 C 734.398 581.872, 734 583.961, 734 586.214 C 734 590.247, 734.031 590.282, 736 588.500 C 737.100 587.505, 738 586.268, 738 585.753 C 738 583.610, 750.291 569.365, 752.855 568.537 C 755.058 567.825, 758.414 562, 756.620 562 C 755.912 562, 754.996 562.337, 754.583 562.750 M 896.429 569.511 C 891.093 571.854, 882.430 581.393, 881 586.499 C 880.298 589.006, 879.947 591.280, 880.219 591.552 C 881.269 592.603, 884.048 590.659, 885.992 587.513 C 887.109 585.705, 889.593 582.512, 891.512 580.417 C 893.430 578.323, 895 576.247, 895 575.805 C 895 575.362, 895.644 575, 896.432 575 C 897.718 575, 902 570.075, 902 568.596 C 902 567.671, 899.797 568.033, 896.429 569.511 M 709.014 578.971 C 707.356 582.256, 706 585.781, 706 586.805 C 706 587.829, 705.676 588.991, 705.280 589.387 C 704.884 589.783, 704.693 591.658, 704.856 593.554 C 705.027 595.532, 704.695 597, 704.077 597 C 702.678 597, 702.671 603.679, 704.069 604.543 C 704.657 604.906, 705.013 606.939, 704.860 609.059 C 704.707 611.180, 704.901 613.234, 705.291 613.624 C 705.681 614.014, 706.007 616.171, 706.015 618.417 C 706.034 623.329, 707.122 625.317, 709.535 624.848 C 712.391 624.294, 715.199 611.458, 714.667 601.388 C 714.431 596.927, 714.585 589.738, 715.009 585.412 C 715.766 577.672, 715.025 573, 713.039 573 C 712.483 573, 710.672 575.687, 709.014 578.971 M 1054.037 585.671 C 1050.582 587.176, 1041.906 595.572, 1042.840 596.507 C 1043.111 596.778, 1042.845 597, 1042.249 597 C 1041.652 597, 1039.977 600.566, 1038.525 604.925 C 1037.073 609.284, 1035.186 613.431, 1034.331 614.140 C 1031.501 616.489, 1031.208 619.215, 1033.280 623.899 C 1034.904 627.570, 1035.159 629.737, 1034.700 635.938 C 1034.175 643.042, 1032.156 651.154, 1029.870 655.346 C 1028.513 657.835, 1030.959 660.449, 1037.571 663.577 C 1043.626 666.441, 1044.461 666.493, 1050.715 664.393 C 1063.643 660.053, 1075.058 648.671, 1079.108 636.082 C 1079.742 634.112, 1080.648 632.009, 1081.122 631.408 C 1081.595 630.807, 1081.697 630.031, 1081.349 629.682 C 1081 629.334, 1081.342 628.294, 1082.107 627.371 C 1084.049 625.033, 1084.065 605.992, 1082.128 603.655 C 1081.373 602.745, 1081.023 602, 1081.349 602 C 1081.676 602, 1080.774 599.862, 1079.343 597.250 C 1077.913 594.638, 1076.123 591.322, 1075.365 589.883 C 1072.659 584.746, 1061.308 582.505, 1054.037 585.671 M 447.200 587.200 C 446.540 587.860, 446 590.338, 446 592.707 C 446 596.148, 446.537 597.464, 448.671 599.257 C 450.141 600.490, 452.057 602.175, 452.930 603 C 455.836 605.748, 462.642 608.247, 465.140 607.484 C 471.176 605.641, 473.082 599.221, 468.750 595.325 C 460.297 587.722, 450.407 583.993, 447.200 587.200 M 835.772 586.714 C 832.882 587.153, 829 591.224, 829 593.817 C 829 594.668, 828.060 598.846, 826.912 603.102 C 823.019 617.529, 811.103 633.259, 798.959 640 C 797.473 640.825, 794.982 642.400, 793.424 643.500 C 790.904 645.278, 788.979 645.500, 776.045 645.500 C 758.362 645.500, 752.810 644.655, 749.337 641.436 C 747.891 640.096, 746.029 639, 745.198 639 C 743.457 639, 738.095 635.204, 732.911 630.302 C 727.805 625.474, 727.093 626.929, 727.869 640.616 L 728.500 651.732 733.225 656.915 C 735.823 659.766, 738.470 663.838, 739.107 665.963 C 740.220 669.677, 742.738 671.722, 748.287 673.419 C 749.269 673.719, 750.844 675.407, 751.787 677.170 C 754.447 682.144, 757.650 685, 760.570 685 C 762.346 685, 764.324 686.194, 766.520 688.592 C 771.550 694.083, 773.029 693.120, 775.719 682.605 C 777.618 675.180, 778.729 672.862, 782.512 668.434 C 789.516 660.236, 798.894 653.478, 802.102 654.316 C 803.146 654.589, 804 654.405, 804 653.906 C 804 653.408, 805.237 652.998, 806.750 652.996 C 808.263 652.994, 811.714 651.869, 814.419 650.496 C 820.484 647.419, 823.738 647.361, 831.782 650.186 L 838.064 652.392 843.782 650.446 C 852.233 647.570, 860.191 647.927, 867 651.488 C 870.025 653.070, 873.693 654.253, 875.151 654.117 C 876.609 653.981, 878.098 654.349, 878.460 654.935 C 878.822 655.521, 880.249 656, 881.631 656 C 885.601 656, 892.743 660.780, 900.992 668.957 C 909.896 677.784, 914.513 685.377, 915.501 692.821 C 916.276 698.660, 918.007 700.209, 920.866 697.621 C 922.069 696.533, 924.496 696, 928.252 696 C 932.867 696, 934.407 695.529, 937.046 693.308 C 938.871 691.773, 941.722 690.500, 943.683 690.346 C 945.575 690.197, 948.426 688.978, 950.020 687.637 C 951.834 686.110, 954.861 684.932, 958.120 684.484 C 962.760 683.845, 963.987 683.105, 969.480 677.634 C 972.867 674.260, 977.084 670.441, 978.851 669.147 C 980.618 667.854, 982.914 665.129, 983.952 663.094 C 984.991 661.058, 987.819 657.392, 990.237 654.946 C 992.656 652.501, 995.701 648.025, 997.005 645 C 998.309 641.975, 1000.830 638.093, 1002.608 636.374 C 1005.024 634.037, 1006.016 632.018, 1006.537 628.374 C 1006.993 625.181, 1008.135 622.536, 1009.847 620.704 C 1012.288 618.094, 1012.485 617.167, 1012.812 606.704 C 1013.005 600.542, 1013.238 593.925, 1013.331 592 L 1013.500 588.500 1004.651 588.210 C 998.875 588.020, 995.304 588.333, 994.367 589.110 C 993.255 590.033, 992.417 590.026, 990.646 589.078 C 988.716 588.045, 987.802 588.184, 984.769 589.974 C 980.516 592.483, 980.403 592.727, 979.482 601.326 C 979.089 604.997, 978.343 608, 977.824 608 C 977.306 608, 977.162 608.453, 977.504 609.007 C 977.846 609.561, 977.198 611.318, 976.063 612.911 C 974.928 614.505, 974 616.232, 974 616.749 C 974 618.930, 965.642 630.366, 959.959 635.961 C 952.700 643.108, 942.494 648.507, 933.174 650.130 C 929.466 650.776, 920.993 651.050, 913.126 650.779 C 900.121 650.331, 899.209 650.160, 893.111 647.020 C 877.996 639.237, 865.253 625.613, 863.443 615.302 C 863.076 613.211, 862.141 610.487, 861.365 609.250 C 860.589 608.013, 860.244 607, 860.599 607 C 860.954 607, 860.794 606.438, 860.244 605.750 C 859.693 605.063, 858.919 601.384, 858.523 597.576 C 858.127 593.767, 857.578 590.064, 857.302 589.345 C 856.270 586.654, 845.128 585.293, 835.772 586.714 M 218.804 613.250 C 216.496 615.078, 213.115 625.914, 212.378 633.846 C 211.799 640.070, 211.949 640.949, 213.923 642.923 C 215.613 644.613, 217.060 645.040, 220.292 644.805 C 224.042 644.531, 224.710 644.071, 226.761 640.342 C 228.354 637.446, 229.237 633.744, 229.668 628.147 C 230.426 618.326, 229.258 614.857, 224.634 613.185 C 220.603 611.727, 220.729 611.726, 218.804 613.250 M 522 625.688 C 516.225 626.530, 510.488 627.695, 509.252 628.277 C 508.015 628.860, 506.706 629.040, 506.344 628.677 C 505.981 628.314, 505.193 628.416, 504.592 628.903 C 503.991 629.390, 498.604 631.032, 492.621 632.552 C 480.042 635.748, 474.053 638.748, 465.868 645.953 C 460.397 650.768, 460 651.413, 460 655.479 C 460 659.523, 460.418 660.216, 465.750 665.003 C 472.373 670.950, 478.393 674.265, 487.829 677.162 C 491.498 678.288, 495.063 679.667, 495.750 680.227 C 496.438 680.787, 497 680.910, 497 680.500 C 497 680.090, 497.600 680.253, 498.332 680.861 C 500.896 682.989, 530.651 686.162, 547.333 686.087 C 556.041 686.048, 563.530 685.791, 563.975 685.516 C 564.419 685.241, 570.819 684.585, 578.197 684.057 C 585.574 683.530, 592.935 682.552, 594.555 681.883 C 596.175 681.215, 597.725 680.592, 598 680.500 C 598.275 680.408, 599.774 679.805, 601.331 679.160 C 602.887 678.516, 606.262 677.475, 608.831 676.848 C 615.435 675.235, 625.890 668.928, 630.812 663.588 C 636.723 657.175, 636.568 654.143, 630.003 647.816 C 627.255 645.167, 624.378 643, 623.610 643 C 622.842 643, 621.972 642.370, 621.677 641.601 C 621.382 640.831, 619.421 639.656, 617.320 638.989 C 615.219 638.323, 612.551 637.184, 611.392 636.459 C 610.233 635.733, 604.833 633.957, 599.392 632.511 C 593.951 631.065, 588.825 629.612, 588 629.283 C 587.175 628.954, 585.864 628.792, 585.086 628.924 C 584.309 629.055, 582.734 628.729, 581.586 628.198 C 574.311 624.832, 538.280 623.314, 522 625.688 M 210.341 665.250 C 206.465 669.378, 206.160 670.312, 204.982 681.677 C 203.956 691.567, 204.795 698.620, 207.176 700.130 C 207.904 700.592, 210.177 700.976, 212.227 700.985 C 217.043 701.004, 218.298 699.027, 220.468 688 C 221.388 683.325, 222.559 679.072, 223.070 678.550 C 223.582 678.028, 224 675.768, 224 673.528 C 224 670.457, 223.244 668.539, 220.927 665.728 C 217.105 661.090, 214.363 660.967, 210.341 665.250 M 805.482 678.667 C 804.372 678.893, 802.572 680.409, 801.482 682.036 C 800.392 683.663, 799.151 684.996, 798.725 684.997 C 797.843 685, 795.575 690.057, 795.874 691.355 C 795.982 691.826, 795.583 692.798, 794.987 693.516 C 794.206 694.457, 794.215 695.015, 795.019 695.512 C 795.633 695.891, 796.032 697.619, 795.904 699.351 C 795.650 702.808, 798.105 709.339, 800.788 712.343 C 802.673 714.454, 809.124 718.770, 810.145 718.605 C 810.500 718.547, 811.625 719.252, 812.645 720.172 C 816.164 723.344, 819.508 723.441, 821.868 720.440 C 823.041 718.950, 824 717.141, 824 716.422 C 824 713.164, 828.213 712, 840 712 C 853.565 712, 855.639 712.888, 856.636 719.122 C 857.617 725.259, 859.917 726.286, 869.599 724.910 C 879.151 723.553, 883.851 720.823, 887.993 714.228 C 890.562 710.137, 890.965 708.534, 890.981 702.328 C 890.998 695.740, 890.731 694.803, 887.699 690.828 C 885.390 687.801, 883.662 686.500, 881.949 686.500 C 879.795 686.500, 879.464 686.997, 879.199 690.624 C 878.831 695.657, 877.035 697.481, 867 703.011 C 861.475 706.056, 858.644 707.046, 856.250 706.773 C 854.462 706.569, 853 706.761, 853 707.201 C 853 708.157, 847.614 708.281, 846.679 707.346 C 846.320 706.986, 842.615 706.791, 838.446 706.913 C 834.278 707.035, 830.334 706.698, 829.683 706.165 C 829.033 705.632, 825.676 704.272, 822.224 703.143 C 815.785 701.038, 807.516 695.201, 806.518 692.057 C 805.544 688.987, 807.479 685.771, 811 684.607 C 814.528 683.441, 815.448 682.237, 814.234 680.376 C 813.372 679.055, 808.368 678.078, 805.482 678.667 M 630.690 683.366 C 630.096 684.913, 628.992 685.611, 619.158 690.664 C 615.771 692.404, 613 693.587, 613 693.292 C 613 692.997, 612.407 693.247, 611.682 693.849 C 610.957 694.451, 607.919 695.438, 604.932 696.043 C 601.944 696.648, 597.475 697.766, 595 698.528 C 589.669 700.168, 579.856 701.452, 559.759 703.141 C 547.032 704.210, 542.426 704.148, 526.033 702.685 C 513.406 701.557, 505.449 700.366, 502.274 699.128 C 499.648 698.104, 495.250 696.952, 492.500 696.567 C 489.750 696.182, 485.475 694.830, 483 693.562 C 480.525 692.294, 476.967 690.923, 475.094 690.515 C 473.221 690.107, 469.567 688.249, 466.975 686.386 C 464.382 684.524, 461.801 683, 461.239 683 C 459.371 683, 459.012 687.622, 459.516 705.141 L 460.016 722.500 463.446 725.500 C 469.703 730.972, 472.823 733.026, 477.183 734.546 C 479.557 735.373, 482.850 736.668, 484.500 737.424 C 486.150 738.179, 492.675 740.006, 499 741.482 C 505.325 742.959, 511.175 744.424, 512 744.737 C 512.825 745.051, 514.314 745.205, 515.310 745.081 C 516.305 744.956, 517.655 745.298, 518.310 745.840 C 520.714 747.832, 549.148 749.149, 563.252 747.921 C 570.538 747.287, 577.039 746.335, 577.697 745.806 C 578.355 745.276, 579.930 744.945, 581.197 745.070 C 582.464 745.195, 584.175 745.043, 585 744.732 C 591.957 742.111, 596.493 740.872, 602.484 739.956 C 606.325 739.368, 610.179 738.243, 611.049 737.456 C 611.918 736.669, 614.063 735.525, 615.815 734.915 C 617.567 734.304, 619 733.372, 619 732.843 C 619 732.315, 619.450 732.160, 620 732.500 C 620.550 732.840, 621 732.625, 621 732.023 C 621 731.421, 622.913 730.086, 625.250 729.055 C 627.587 728.025, 630.747 725.989, 632.271 724.531 L 635.042 721.880 634.771 702.203 C 634.534 684.974, 634.298 682.487, 632.876 682.214 C 631.983 682.042, 630.999 682.561, 630.690 683.366 M 832.500 683.491 C 831.950 683.675, 830.263 684.098, 828.750 684.432 C 824.625 685.341, 825.370 687.753, 830.176 689.047 C 835.569 690.500, 853.576 689.808, 857.500 687.998 L 860.500 686.614 857.500 686.272 C 855.850 686.084, 851.486 685.271, 847.803 684.465 C 841.620 683.113, 834.915 682.686, 832.500 683.491 M 203.897 717.495 C 200.810 719.173, 199 726.362, 199 736.944 C 199 744.849, 200.710 748, 205.001 748 C 209.739 748, 212.870 744.368, 214.053 737.500 C 214.621 734.200, 215.537 730.345, 216.088 728.934 C 217.273 725.900, 215.951 721.657, 212.759 718.250 C 210.356 715.684, 207.652 715.454, 203.897 717.495 M 626.781 746.644 C 621.166 751.489, 618.207 753.091, 611 755.190 C 607.573 756.187, 606.423 757.042, 606.178 758.771 C 605.918 760.599, 606.601 761.332, 609.678 762.530 C 615.051 764.623, 623.131 768.961, 625.500 771.027 C 628.184 773.366, 631.174 774.159, 633 773.015 C 634.193 772.268, 634.570 769.125, 634.841 757.679 C 635.251 740.343, 634.799 739.724, 626.781 746.644 M 460.634 745.699 C 460.285 746.048, 460 753.808, 460 762.944 C 460 780.984, 459.997 780.972, 466.347 787.750 C 468.022 789.538, 469.735 791, 470.154 791 C 470.573 791, 474.609 793.459, 479.124 796.464 C 484.937 800.332, 488.963 802.241, 492.917 803.003 C 495.987 803.594, 500.300 804.758, 502.500 805.589 C 504.700 806.419, 511.675 807.579, 518 808.165 C 524.325 808.751, 530.161 809.427, 530.969 809.668 C 532.872 810.235, 564.789 810.240, 565.760 809.674 C 566.167 809.437, 570.100 808.944, 574.500 808.578 C 586.832 807.553, 587.580 807.315, 587.455 804.454 C 587.395 803.088, 586.481 801.121, 585.423 800.083 C 584.365 799.045, 582.150 795.868, 580.500 793.022 C 578.850 790.176, 576.271 785.970, 574.768 783.674 C 573.266 781.378, 572.028 778.767, 572.018 777.870 C 572.008 776.974, 574.025 773.633, 576.500 770.446 C 581.256 764.320, 582.215 761.508, 579.250 762.380 C 572.211 764.448, 558.526 765.228, 537.591 764.752 C 514.839 764.235, 509.382 763.490, 497 759.211 C 496.175 758.926, 494.686 758.795, 493.690 758.919 C 492.695 759.044, 491.345 758.717, 490.690 758.192 C 490.036 757.667, 485.904 756.040, 481.510 754.576 C 477.115 753.113, 472.518 751.259, 471.295 750.457 C 470.071 749.656, 468.440 749, 467.670 749 C 466.900 749, 465.144 748.115, 463.769 747.033 C 462.393 745.951, 460.983 745.351, 460.634 745.699 M 954 760.722 C 953.175 761.032, 951.306 762.121, 949.846 763.143 C 948.386 764.164, 946.097 765, 944.760 765 C 943.422 765, 940.221 766.642, 937.646 768.648 C 935.070 770.655, 932.693 772.026, 932.362 771.696 C 932.032 771.365, 931.135 771.722, 930.369 772.488 C 929.603 773.254, 926.844 774.169, 924.238 774.520 C 917.646 775.410, 910.393 777.822, 908.900 779.621 C 907.957 780.756, 905.887 781.072, 900.573 780.889 C 893.643 780.651, 882.204 782.339, 878.764 784.108 C 876.542 785.249, 857.291 785.280, 856.589 784.143 C 856.297 783.672, 850.665 782.971, 844.072 782.586 C 837.478 782.200, 830.621 781.465, 828.832 780.952 C 821.499 778.849, 822.665 784.566, 830.933 791.250 C 834.165 793.862, 837.302 796, 837.904 796 C 838.507 796, 839 796.395, 839 796.877 C 839 797.924, 846.590 801.281, 855.249 804.064 C 862.649 806.442, 881.537 807.691, 887.500 806.197 C 900.407 802.962, 906.926 801.096, 910.268 799.682 C 912.341 798.805, 914.250 798.061, 914.511 798.030 C 914.772 797.999, 916.676 797.006, 918.743 795.824 C 920.809 794.641, 923.850 793.003, 925.500 792.183 C 927.150 791.363, 930.865 788.700, 933.757 786.263 C 941.406 779.818, 959 762.229, 959 761.028 C 959 759.937, 956.495 759.784, 954 760.722 M 165.625 764.038 C 161.293 764.527, 156.343 765.387, 154.625 765.949 C 152.906 766.510, 147.900 767.463, 143.500 768.066 C 139.100 768.670, 134.150 769.993, 132.500 771.006 C 130.850 772.020, 127.250 773.400, 124.500 774.074 C 115.269 776.336, 105.001 782.392, 94.750 791.619 C 92.688 793.476, 91 795.376, 91 795.842 C 91 796.309, 90.119 797.488, 89.041 798.463 C 86.091 801.133, 83.842 809.135, 83.024 819.873 C 82.336 828.913, 82.282 829.089, 82.145 822.750 C 82.065 819.014, 81.554 816, 81 816 C 80.351 816, 80 829.207, 80 853.622 C 80 885.327, 80.215 891.066, 81.367 890.110 C 82.471 889.194, 82.854 889.701, 83.356 892.738 C 83.698 894.807, 83.983 898.582, 83.989 901.128 C 84.003 907.105, 85.724 908.569, 92.395 908.279 C 96.543 908.098, 97.823 907.590, 99.325 905.529 C 101.622 902.375, 104.036 902.325, 107.673 905.354 C 110.063 907.344, 112.052 907.813, 120.543 908.386 C 131.517 909.126, 158.350 907.410, 161.422 905.771 C 163.163 904.842, 162.974 904.565, 159.422 902.825 C 157.265 901.769, 153.912 901.014, 151.972 901.148 C 150.032 901.283, 148.007 901.138, 147.472 900.828 C 146.937 900.517, 143.575 899.949, 140 899.565 C 136.425 899.182, 132.600 898.287, 131.500 897.577 C 130.400 896.866, 126.850 895.515, 123.610 894.574 C 117.907 892.917, 113.592 890.782, 111.477 888.570 C 110.914 887.981, 109.564 887.007, 108.477 886.405 C 107.390 885.803, 104.994 883.348, 103.153 880.950 C 100.340 877.285, 99.899 876.023, 100.392 873.044 C 100.714 871.095, 100.983 863.313, 100.989 855.750 C 100.997 846.177, 101.344 842, 102.133 842 C 102.757 842, 106.388 843.590, 110.202 845.534 C 114.016 847.478, 117.894 849.450, 118.818 849.917 C 125.433 853.254, 133.446 855.419, 141.783 856.122 C 146.987 856.562, 153.553 857.712, 156.373 858.679 C 160.759 860.183, 165.329 860.437, 188 860.438 C 211.660 860.439, 215.589 860.201, 224.657 858.220 C 230.243 856.999, 235.924 856, 237.279 856 C 239.279 856, 249.116 853.209, 257 850.404 C 257.825 850.111, 258.576 850.012, 258.669 850.185 C 258.763 850.358, 259.907 849.497, 261.212 848.270 C 262.518 847.044, 265.142 845.504, 267.043 844.848 C 268.944 844.192, 271.705 842.772, 273.178 841.693 C 278.613 837.710, 279 838.947, 279 860.314 C 279 877.815, 278.823 879.850, 277.171 881.345 C 276.165 882.255, 275.036 883, 274.662 883 C 274.288 883, 270.198 885.441, 265.574 888.424 C 260.950 891.407, 254.766 894.514, 251.833 895.328 C 248.900 896.142, 244.700 897.506, 242.500 898.360 C 240.300 899.214, 237.037 899.932, 235.250 899.956 C 233.463 899.980, 232 900.372, 232 900.827 C 232 901.282, 230.646 901.455, 228.991 901.212 C 227.336 900.969, 225.423 901.213, 224.741 901.755 C 224.058 902.296, 221.754 903.054, 219.620 903.439 C 213.101 904.616, 216.776 905.884, 231.537 907.551 C 248.842 909.506, 265.724 908.792, 269.333 905.952 C 270.612 904.947, 272.907 903.810, 274.434 903.427 C 276.736 902.849, 277.603 903.223, 279.511 905.615 C 281.530 908.146, 282.443 908.491, 286.945 908.426 C 289.988 908.382, 292.639 907.772, 293.458 906.926 C 294.587 905.761, 294.892 896.625, 295.124 857 C 295.428 804.963, 295.283 803.155, 290.382 798 C 289.075 796.625, 286.381 793.750, 284.397 791.610 C 277.081 783.726, 267.328 777.864, 256.061 774.581 C 253.070 773.709, 248.686 772.058, 246.320 770.913 C 243.953 769.767, 239.651 768.466, 236.758 768.021 C 233.866 767.577, 227 766.519, 221.500 765.670 C 209.277 763.785, 176.370 762.824, 165.625 764.038 M 410 782.026 C 406.975 783.690, 403.485 785.563, 402.245 786.189 C 399.110 787.769, 397.462 794.118, 399.238 797.771 C 400.471 800.308, 400.986 800.494, 406.548 800.417 C 412.447 800.335, 414.116 799.742, 421.234 795.198 C 426.670 791.729, 428.783 783.923, 425.171 780.655 C 422.287 778.045, 416.245 778.591, 410 782.026 M 165.788 781.993 C 160.996 782.378, 156.389 783.262, 155.551 783.958 C 154.712 784.654, 153.345 784.963, 152.513 784.643 C 151.681 784.324, 151 784.408, 151 784.830 C 151 785.252, 146.696 786.401, 141.436 787.383 C 132.966 788.965, 123.393 792.253, 119 795.089 C 118.175 795.621, 116.181 796.832, 114.569 797.779 C 112.957 798.725, 110.655 800.513, 109.454 801.750 C 108.253 802.987, 106.831 804, 106.293 804 C 104.562 804, 100.709 812.706, 101.342 815.186 C 102.869 821.171, 112.280 828.652, 121.354 831.095 C 123.628 831.708, 127.291 833.152, 129.494 834.304 C 131.697 835.457, 134.096 836.282, 134.824 836.139 C 135.552 835.996, 136.677 836.298, 137.324 836.810 C 137.971 837.323, 141.875 838.454, 146 839.325 C 161.188 842.529, 172.525 843.267, 198.286 842.730 C 219.921 842.279, 224.527 841.906, 230.737 840.102 C 234.718 838.946, 238.880 838, 239.987 838 C 241.094 838, 242 837.518, 242 836.928 C 242 836.339, 243.020 835.991, 244.267 836.154 C 245.514 836.317, 248.101 835.504, 250.017 834.347 C 251.933 833.189, 255.152 831.715, 257.170 831.070 C 259.189 830.425, 261.381 829.246, 262.042 828.449 C 262.704 827.652, 263.872 827, 264.639 827 C 266.601 827, 279 814.852, 279 812.930 C 279 810.779, 268.727 800.806, 262.189 796.609 C 259.267 794.734, 255.264 792.897, 253.292 792.527 C 251.321 792.157, 248.761 791.243, 247.604 790.495 C 246.447 789.747, 241.675 788.399, 237 787.499 C 232.325 786.599, 227.825 785.639, 227 785.367 C 226.175 785.094, 225.457 785.012, 225.404 785.185 C 225.351 785.358, 224.624 784.933, 223.789 784.240 C 220.315 781.357, 188.895 780.140, 165.788 781.993 M 372 800.024 C 371.175 800.571, 368.114 801.728, 365.197 802.595 C 358.165 804.687, 353 809.742, 353 814.533 C 353 816.440, 353.450 818, 354 818 C 354.550 818, 355 818.675, 355 819.500 C 355 822.166, 363.905 821.418, 370.109 818.230 C 377.351 814.508, 383.812 809.861, 384.493 807.882 C 386.451 802.202, 377.352 796.479, 372 800.024 M 325.123 820.002 C 318.804 821.494, 312.049 828.289, 313.522 831.672 C 313.959 832.677, 314.227 833.894, 314.117 834.375 C 314.007 834.856, 314.680 836.094, 315.613 837.125 C 317.953 839.711, 324.388 839.615, 327.842 836.944 C 329.304 835.813, 332.060 833.892, 333.968 832.676 C 338.092 830.045, 339.891 825.252, 338.172 821.479 C 337.214 819.374, 336.398 819.015, 332.771 819.102 C 330.422 819.159, 326.980 819.564, 325.123 820.002 M 974.667 840.667 C 974.300 841.033, 974 841.988, 974 842.789 C 974 843.970, 974.283 844.010, 975.500 843 C 976.325 842.315, 977 841.360, 977 840.878 C 977 839.842, 975.616 839.717, 974.667 840.667 M 684 897.949 C 679.667 900.252, 675.580 904.512, 676.412 905.858 C 676.754 906.411, 679.391 907.392, 682.272 908.036 C 688.142 909.350, 695.372 908.078, 696.338 905.562 C 697.154 903.434, 694.864 899.351, 691.857 897.575 C 688.574 895.636, 688.330 895.647, 684 897.949" stroke="none" fill="#171916" fill-rule="evenodd"/>
</svg>