<svg role="img" aria-labelledby="artwork-title" shape-rendering="geometricPrecision" xmlns="http://www.w3.org/2000/svg" width="1200" height="1200" viewBox="0 0 1200 1200" version="1.1">
	<title id="artwork-title">Mascot pushing code into a repository</title>
	<path d="M 888 271.915 C 885.671 273.152, 873.663 277, 872.130 277 C 869.833 277, 862.027 282.207, 856.014 287.750 C 852.882 290.637, 849.566 293, 848.647 293 C 847.727 293, 844.711 290.863, 841.946 288.250 C 838.887 285.361, 835.269 283.030, 832.709 282.301 C 830.394 281.641, 825.800 280.127, 822.500 278.935 C 810.708 274.675, 793.148 277.843, 779.500 286.692 C 772.209 291.419, 767.099 295.379, 767.046 296.344 C 767.006 297.073, 756.094 312.877, 753.890 315.397 C 753.436 315.917, 750.513 315.566, 746.936 314.562 C 740.172 312.664, 731.010 313.084, 725.500 315.543 C 723.850 316.280, 720.565 317.383, 718.200 317.993 C 709.390 320.269, 693.603 334.370, 688.950 344.120 C 687.801 346.529, 685.927 350.246, 684.786 352.379 C 683.161 355.419, 682.671 358.316, 682.521 365.772 C 682.309 376.356, 681.375 377.997, 675.559 378.004 C 673.876 378.006, 670.943 378.957, 669.040 380.117 C 664.117 383.118, 649.512 398.282, 648.289 401.661 C 647.725 403.223, 646.079 407.546, 644.631 411.270 C 642.307 417.249, 642 419.453, 642 430.145 C 642 441.130, 642.250 442.816, 644.708 448.375 C 646.197 451.744, 649.797 457.338, 652.708 460.807 C 658.524 467.738, 658.982 469.482, 655.985 473.292 C 652.116 478.211, 651.179 500.346, 654.494 508.542 C 655.170 510.215, 658.879 514.986, 662.735 519.145 L 669.747 526.707 668.749 532.497 C 667.569 539.345, 669.514 548.063, 673.618 554.323 C 676.387 558.546, 676.608 557.894, 669.934 565.196 C 667.907 567.413, 665.741 570.923, 665.120 572.995 C 664.499 575.067, 663.321 577.319, 662.503 577.998 C 658.690 581.162, 656.822 598.479, 658.469 615.379 C 659.525 626.212, 660.062 628.482, 662.347 631.780 C 663.806 633.885, 665 636.285, 665 637.113 C 665 639.893, 671.785 649.918, 677.417 655.462 C 680.488 658.484, 683.024 661.528, 683.053 662.228 C 683.082 662.928, 683.255 668.350, 683.436 674.277 C 683.735 684.051, 684.015 685.415, 686.444 688.919 C 688.309 691.610, 689.290 694.563, 689.675 698.642 C 690.241 704.643, 692.570 709.187, 698.131 715.140 C 699.586 716.698, 701.064 719.120, 701.416 720.523 C 702.144 723.421, 708.752 733, 710.024 733 C 712.337 733, 718.066 737.916, 719.345 741 C 720.638 744.114, 724.171 747.525, 729.186 750.500 C 733.542 753.084, 741.786 759.037, 742.949 760.438 C 743.662 761.297, 744.910 762, 745.722 762 C 747.625 762, 754.324 768.667, 753.599 769.840 C 753.296 770.330, 751.411 770.996, 749.409 771.321 C 747.408 771.646, 742.109 774.359, 737.635 777.350 C 733.161 780.341, 727.005 784.346, 723.955 786.250 C 714.776 791.982, 701.612 803.644, 679.883 825.292 C 657.054 848.037, 654.111 851.754, 655.873 855.621 C 657.791 859.829, 657.212 861.073, 650.250 867.719 C 644.115 873.575, 643.196 874.114, 640.157 873.629 C 638.318 873.336, 635.311 871.949, 633.474 870.548 C 631.637 869.147, 629.842 868, 629.485 868 C 629.128 868, 626.157 866.429, 622.881 864.510 C 619.606 862.590, 615.705 860.726, 614.213 860.367 C 612.721 860.008, 609.377 858.653, 606.783 857.357 C 604.189 856.061, 601.178 855, 600.092 855 C 599.006 855, 597.816 854.511, 597.446 853.913 C 597.077 853.315, 595.925 853.048, 594.887 853.319 C 593.849 853.591, 593 853.504, 593 853.126 C 593 850.889, 565.694 845.004, 555.266 844.993 C 549.074 844.987, 536.259 846.392, 518.675 849.005 C 514.921 849.563, 509.938 851.087, 507.601 852.392 C 505.264 853.696, 501.946 855.073, 500.228 855.450 C 498.510 855.827, 495.443 857.456, 493.414 859.068 C 489.255 862.374, 485.511 862.852, 484.167 860.250 C 483.670 859.288, 482.958 829.925, 482.586 795 C 482.213 760.075, 481.524 723.175, 481.055 713 C 480.585 702.825, 479.652 680.100, 478.981 662.500 C 478.310 644.900, 477.350 629.987, 476.849 629.359 C 476.347 628.732, 475.980 617.032, 476.033 603.359 C 476.086 589.686, 475.828 577.599, 475.461 576.500 C 472.927 568.908, 468.941 561.118, 465.694 557.411 C 461.315 552.411, 454.161 547.312, 450.215 546.378 C 448.722 546.024, 445.475 544.782, 443 543.617 L 438.500 541.500 278.500 541.500 L 118.500 541.500 114 543.617 C 111.525 544.782, 108.348 546.007, 106.939 546.339 C 99.945 547.989, 87.407 561.123, 85.493 568.805 C 84.714 571.927, 83.598 573.831, 82.161 574.487 L 80 575.474 80 629.206 C 80 674.308, 80.220 682.853, 81.371 682.411 C 82.125 682.122, 83.101 682.698, 83.540 683.693 C 84.515 685.901, 85.769 735.278, 85.935 778 C 86.002 795.325, 86.754 822.325, 87.606 838 C 88.458 853.675, 89.385 879.550, 89.665 895.500 C 90.066 918.320, 90.480 924.980, 91.610 926.750 C 92.914 928.793, 93.825 929, 101.504 929 C 109.777 929, 109.976 928.943, 110.614 926.402 C 111.276 923.766, 110.506 909.122, 109.402 903.339 C 108.916 900.792, 109.206 899.960, 110.893 899.057 C 112.382 898.260, 141.914 897.808, 213.243 897.491 C 268.384 897.246, 317.325 896.797, 322 896.495 C 326.675 896.192, 357.275 895.847, 390 895.728 C 452.926 895.499, 454 895.572, 454 900.035 C 454 901.116, 453.543 902, 452.985 902 C 452.427 902, 451.122 903.395, 450.085 905.100 C 447.285 909.706, 442.456 912.308, 438.195 911.509 C 434.119 910.744, 144.013 912.722, 130.100 913.610 C 122.021 914.125, 120.370 914.539, 118.350 916.559 C 115.623 919.286, 115.293 923.545, 117.557 926.777 L 119.113 929 290.402 929 C 458.030 929, 461.727 928.959, 463.427 927.080 C 464.575 925.812, 465.075 923.861, 464.902 921.330 C 464.718 918.656, 465.599 915.542, 467.819 911.015 C 469.569 907.448, 471 903.895, 471 903.118 C 471 900.235, 478.251 890.929, 486.250 883.549 C 492.670 877.624, 495.660 875.596, 499.732 874.402 C 502.609 873.559, 505.195 872.494, 505.478 872.035 C 506.259 870.772, 514.422 869.088, 524.835 868.042 C 529.969 867.526, 534.807 866.575, 535.585 865.929 C 536.363 865.284, 537 865.090, 537 865.500 C 537 865.910, 537.745 865.627, 538.655 864.872 C 540.794 863.099, 570.174 863.069, 572.305 864.838 C 573.064 865.468, 573.969 865.697, 574.318 865.349 C 574.666 865, 575.525 865.168, 576.226 865.721 C 576.927 866.274, 580.875 867.531, 585 868.515 C 589.125 869.498, 593.580 871.140, 594.900 872.163 C 596.221 873.187, 599.062 874.306, 601.214 874.650 C 603.367 874.994, 606.609 876.281, 608.419 877.509 C 610.229 878.738, 613.991 880.500, 616.778 881.426 C 619.565 882.352, 622.341 883.706, 622.945 884.434 C 623.550 885.163, 625.283 886.007, 626.797 886.309 C 628.310 886.612, 631.195 888.129, 633.208 889.680 C 635.220 891.231, 639.195 893.850, 642.041 895.500 C 644.887 897.150, 648.400 899.470, 649.848 900.655 L 652.481 902.811 650.493 905.008 C 649.399 906.216, 647.234 907.862, 645.682 908.665 C 644.129 909.467, 640.303 912.061, 637.179 914.427 C 634.056 916.794, 629.587 919.700, 627.250 920.885 C 624.887 922.084, 623 923.760, 623 924.660 C 623 927.904, 626.178 928.935, 636.274 928.968 C 645.831 928.999, 646.161 928.922, 651.136 925.500 C 653.935 923.575, 656.642 922, 657.153 922 C 657.663 922, 659.300 921.142, 660.790 920.094 C 662.281 919.045, 665.947 917.630, 668.939 916.949 C 671.930 916.267, 675.896 914.814, 677.753 913.718 C 685.363 909.228, 722.750 909.082, 732.500 913.505 C 734.700 914.503, 736.725 915.399, 737 915.496 C 737.275 915.593, 738.175 915.937, 739 916.260 C 739.825 916.584, 742.112 917.342, 744.082 917.946 C 746.052 918.550, 749.409 919.934, 751.543 921.022 C 753.677 922.110, 756.166 923, 757.074 923 C 757.982 923, 760.424 924.350, 762.500 926 L 766.275 929 941.515 929 C 1100.514 929, 1116.877 928.853, 1118.075 927.409 C 1119.057 926.227, 1119.501 919.874, 1119.807 902.659 C 1120.248 877.888, 1119.072 860.622, 1116.688 856.836 C 1115.878 855.551, 1114.728 851.621, 1114.132 848.102 C 1113.536 844.583, 1112.137 839.957, 1111.024 837.821 C 1109.911 835.686, 1109 833.466, 1109 832.889 C 1109 832.311, 1107.425 829.466, 1105.500 826.566 C 1103.575 823.666, 1102 820.932, 1102 820.491 C 1102 820.050, 1100.875 818.214, 1099.500 816.411 C 1098.125 814.608, 1097 812.841, 1097 812.483 C 1097 812.126, 1095.425 810.304, 1093.500 808.434 C 1091.575 806.565, 1090 804.572, 1090 804.005 C 1090 802.498, 1082.717 795.004, 1081.250 795.002 C 1080.563 795.001, 1080 794.395, 1080 793.657 C 1080 792.210, 1070.784 784, 1069.159 784 C 1068.620 784, 1067.042 782.650, 1065.653 781 C 1064.265 779.350, 1062.650 778, 1062.065 778 C 1061.479 778, 1061 777.602, 1061 777.117 C 1061 776.631, 1060.213 775.967, 1059.250 775.642 C 1058.287 775.317, 1054.800 773.266, 1051.500 771.084 C 1045.159 766.892, 1031.207 759.735, 1027 758.516 C 1025.625 758.118, 1022.700 756.778, 1020.500 755.538 C 1018.300 754.297, 1013.800 752.504, 1010.500 751.551 C 1007.200 750.599, 1002.700 749.211, 1000.500 748.468 C 998.300 747.725, 994.250 746.808, 991.500 746.432 C 984.777 745.512, 983.623 744.505, 985.686 741.357 C 986.572 740.005, 988.468 738.280, 989.898 737.525 C 992.996 735.890, 1004.417 725.034, 1007.683 720.620 C 1008.953 718.904, 1011.071 715.232, 1012.391 712.460 C 1013.710 709.688, 1015.512 706.820, 1016.395 706.088 C 1017.278 705.355, 1018 704.113, 1018 703.328 C 1018 702.543, 1018.769 700.461, 1019.708 698.700 C 1020.648 696.940, 1021.435 695.200, 1021.458 694.833 C 1021.481 694.467, 1021.837 693.829, 1022.250 693.417 C 1022.663 693.004, 1023 691.667, 1023 690.444 C 1023 689.222, 1023.814 687.216, 1024.810 685.987 C 1026.549 683.839, 1026.742 683.815, 1029.760 685.376 C 1031.487 686.269, 1034.386 686.977, 1036.200 686.950 C 1041.851 686.863, 1055.684 683.444, 1058.548 681.425 C 1060.051 680.366, 1061.972 679.050, 1062.818 678.500 C 1074.750 670.739, 1086.112 657.060, 1092.099 643.250 C 1093.351 640.362, 1094.678 638, 1095.049 638 C 1095.419 638, 1095.507 636.872, 1095.244 635.494 C 1094.980 634.116, 1095.209 632.429, 1095.752 631.744 C 1098.343 628.479, 1099.317 617.522, 1098.046 605.924 C 1097.358 599.641, 1096.353 593.957, 1095.812 593.294 C 1095.270 592.630, 1095.081 591.678, 1095.390 591.177 C 1095.700 590.677, 1095.105 589.500, 1094.068 588.561 C 1093.031 587.623, 1091.620 585.425, 1090.932 583.678 C 1090.243 581.930, 1087.899 578.139, 1085.721 575.254 L 1081.762 570.007 1084.433 564.754 C 1085.902 561.864, 1087.731 558.366, 1088.496 556.981 C 1090.659 553.067, 1092.021 542.148, 1090.989 537 C 1089.108 527.616, 1089.543 525.868, 1095.108 520.462 C 1100.185 515.529, 1107 503.262, 1107 499.055 C 1107 497.990, 1107.450 496.840, 1108 496.500 C 1109.235 495.737, 1109.339 479.328, 1108.113 478.570 C 1107.626 478.269, 1106.942 476.507, 1106.595 474.655 C 1105.494 468.784, 1100.114 460.252, 1094.478 455.437 C 1091.508 452.900, 1088.826 450.028, 1088.518 449.055 C 1088.209 448.082, 1089.390 443.531, 1091.142 438.942 C 1093.878 431.778, 1094.341 429.245, 1094.414 421.049 C 1094.489 412.727, 1094.133 410.600, 1091.642 404.500 C 1090.070 400.650, 1088.210 396.825, 1087.510 396 C 1086.810 395.175, 1085.936 393.513, 1085.569 392.307 C 1084.072 387.389, 1069.284 374.326, 1063.147 372.500 C 1061.853 372.115, 1059.202 370.720, 1057.257 369.400 C 1054.626 367.614, 1052.366 367, 1048.426 367 C 1038.922 367, 1038.408 366.491, 1037.665 356.334 C 1036.956 346.643, 1035.441 340, 1033.940 340 C 1033.409 340, 1031.887 337.541, 1030.558 334.536 C 1027.340 327.260, 1012.888 313, 1008.731 313 C 1007.933 313, 1005.641 311.889, 1003.640 310.530 C 1001.638 309.172, 1000 308.327, 1000 308.653 C 1000 308.978, 999.363 308.716, 998.585 308.071 C 996.389 306.248, 983.525 305.253, 973.310 306.115 C 963.892 306.909, 961.336 307.685, 959.045 310.445 C 956.401 313.632, 952 311.240, 952 306.616 C 952 304.144, 946.549 296.801, 939.230 289.413 C 930.271 280.368, 926.748 277.882, 921.511 276.903 C 919.134 276.459, 914.812 274.949, 911.907 273.548 C 907.464 271.405, 905.266 271.009, 898.063 271.059 C 893.353 271.091, 888.825 271.476, 888 271.915 M 889.500 291.632 C 884.324 292.968, 877 296.116, 871.996 299.156 C 866.155 302.705, 858 310.072, 858 311.800 C 858 312.368, 856.806 313.703, 855.348 314.765 C 853.813 315.883, 852.996 317.184, 853.408 317.851 C 854.388 319.437, 856.412 318.216, 863.006 312.065 C 866.028 309.245, 869.625 306.668, 871 306.338 C 872.375 306.008, 874.440 304.886, 875.588 303.846 C 876.932 302.630, 880.857 301.441, 886.591 300.513 C 894.260 299.273, 896.692 299.265, 904.003 300.459 C 913.195 301.959, 916 302.784, 916 303.986 C 916 304.410, 917.249 305.275, 918.775 305.907 C 920.301 306.539, 925.251 310.640, 929.775 315.020 C 934.299 319.401, 938 322.532, 938 321.979 C 938 320.713, 935.789 316.710, 934.622 315.862 C 934.139 315.511, 934.053 314.723, 934.431 314.112 C 934.809 313.500, 934.641 313, 934.059 313 C 933.477 313, 933 312.230, 933 311.289 C 933 308.983, 921.612 298.370, 918.225 297.520 C 916.737 297.147, 915.291 296.527, 915.010 296.143 C 913.235 293.715, 894.362 290.377, 889.500 291.632 M 800.350 297.243 C 800.093 297.659, 798.994 298, 797.908 298 C 793.612 298, 779 306.910, 779 309.530 C 779 310.241, 777.593 312.006, 775.874 313.452 C 774.155 314.899, 773.028 316.362, 773.370 316.703 C 773.711 317.044, 772.868 318.796, 771.495 320.595 C 768.689 324.274, 767.874 328.057, 769.744 328.721 C 770.428 328.964, 771.462 327.888, 772.043 326.331 C 772.623 324.774, 774.538 322.070, 776.299 320.323 C 778.060 318.576, 781.300 315.278, 783.500 312.996 C 785.854 310.553, 790.552 307.429, 794.916 305.404 C 801.773 302.222, 803.143 301.948, 813.119 301.763 C 822.874 301.582, 824.126 301.766, 826.203 303.682 C 827.466 304.847, 829.397 305.963, 830.492 306.162 C 831.588 306.362, 833.075 307.756, 833.797 309.262 C 834.964 311.697, 839 313.254, 839 311.269 C 839 309.798, 829.778 302, 828.038 302 C 827.051 302, 825.614 301.051, 824.844 299.891 C 823.606 298.028, 822.130 297.707, 812.131 297.134 C 805.909 296.778, 800.607 296.827, 800.350 297.243 M 965.075 327.254 C 963.191 327.939, 961.444 329.131, 961.191 329.902 C 960.817 331.045, 961.911 331.196, 967.116 330.722 C 977.604 329.767, 988.854 331.172, 990.832 333.684 C 991.750 334.849, 993.907 336.095, 995.627 336.454 C 999.177 337.193, 1008.708 345.993, 1012.550 352.078 C 1013.911 354.235, 1015.469 356, 1016.013 356 C 1017.806 356, 1017.040 351.523, 1014.641 347.982 C 1013.344 346.067, 1011.974 343.520, 1011.597 342.323 C 1011.220 341.125, 1009.356 339.228, 1007.456 338.106 C 1005.555 336.985, 1004 335.351, 1004 334.475 C 1004 333.599, 1003.550 333.160, 1003 333.500 C 1002.450 333.840, 1002 333.674, 1002 333.132 C 1002 332.590, 999.413 330.915, 996.250 329.409 C 991.277 327.042, 989.013 326.627, 979.500 326.340 C 972.412 326.126, 967.282 326.451, 965.075 327.254 M 741.457 333.069 C 741.094 333.657, 739.155 334.036, 737.148 333.910 C 735.142 333.785, 731.925 334.355, 730 335.177 C 728.075 336, 725.306 336.969, 723.846 337.331 C 717.390 338.933, 704.024 352.943, 701.906 360.328 C 700.413 365.532, 700.752 368, 702.959 368 C 704.412 368, 705.380 366.688, 706.709 362.917 C 708.805 356.969, 719.980 344.989, 725.243 343.046 C 727.035 342.386, 730.425 340.980, 732.777 339.922 C 737.899 337.620, 742.300 337.489, 747.917 339.471 C 751.621 340.778, 752.150 340.772, 752.669 339.420 C 753.300 337.776, 749.231 332.739, 747.924 333.547 C 747.492 333.814, 746.856 333.575, 746.510 333.016 C 745.682 331.676, 742.296 331.712, 741.457 333.069 M 953.583 333.643 C 952.786 335.722, 953.278 336.214, 955.357 335.417 C 956.261 335.070, 957 334.159, 957 333.393 C 957 331.451, 954.350 331.645, 953.583 333.643 M 1021.923 386.190 C 1021 389.934, 1021.163 390.107, 1025.331 389.804 C 1030.870 389.400, 1031.190 386.640, 1025.750 386.190 C 1023.688 386.019, 1021.966 386.019, 1021.923 386.190 M 1042.115 386.858 C 1040.995 387.607, 1041.126 387.997, 1042.799 388.893 C 1043.937 389.502, 1045.541 390, 1046.363 390 C 1047.185 390, 1049.528 391.575, 1051.569 393.500 C 1053.610 395.425, 1055.685 397, 1056.180 397 C 1058.242 397, 1065.098 405.741, 1066.116 409.668 C 1066.710 411.960, 1068.277 414.851, 1069.598 416.092 C 1070.919 417.333, 1072 418.916, 1072 419.609 C 1072 420.303, 1072.496 422.137, 1073.103 423.685 L 1074.206 426.500 1075.093 424.189 C 1076.024 421.766, 1074.971 415.357, 1072.815 410.324 C 1070.095 403.972, 1059.391 391.387, 1055.629 390.120 C 1055.008 389.910, 1053.813 389.144, 1052.974 388.417 C 1050.980 386.690, 1043.886 385.672, 1042.115 386.858 M 682.345 394.543 C 682.019 395.392, 682.032 396.365, 682.372 396.706 C 683.341 397.674, 688.187 395.112, 687.497 393.996 C 686.541 392.448, 683.005 392.824, 682.345 394.543 M 670.719 402.253 C 668.640 404.589, 666.656 407.625, 666.311 409 C 665.965 410.375, 664.629 412.892, 663.341 414.594 C 660.686 418.103, 660.392 420.251, 662.344 421.870 C 663.410 422.755, 663.927 422.186, 664.848 419.115 C 665.987 415.311, 667.245 413.573, 675.750 404.051 C 678.087 401.434, 680 399.002, 680 398.646 C 680 398.291, 678.763 398.001, 677.250 398.003 C 675.278 398.006, 673.431 399.207, 670.719 402.253 M 841.728 416.817 C 833.966 423.824, 818.849 430.969, 811.736 430.991 C 810.216 430.996, 808.020 431.563, 806.856 432.250 C 805.162 433.250, 804.648 433.250, 804.286 432.250 C 804.037 431.563, 802.408 431.002, 800.667 431.005 C 795.346 431.013, 783.320 426.034, 778.577 421.859 C 773.150 417.082, 771.003 416.982, 768.626 421.397 C 766.495 425.353, 756.071 435.967, 751 439.344 C 745.862 442.765, 741.470 444, 734.440 444 C 728.753 444, 727.953 444.267, 725.730 446.909 C 724.205 448.722, 723.030 451.716, 722.614 454.851 C 721.785 461.098, 719.803 465.964, 717.083 468.425 C 715.937 469.462, 715 470.831, 715 471.467 C 715 472.103, 713.609 473.653, 711.908 474.910 C 707.926 477.854, 705.992 482.525, 706.669 487.565 C 706.961 489.743, 706.508 496.244, 705.663 502.012 C 704.819 507.780, 703.810 520.927, 703.422 531.227 C 702.631 552.258, 702.893 553.070, 709.225 549.184 C 712.991 546.872, 722.054 545, 729.484 545 C 732.298 545, 735.162 544.438, 735.850 543.750 C 737.457 542.142, 765.712 541.967, 766.786 543.559 C 767.179 544.141, 770.425 545.150, 774 545.801 C 777.575 546.452, 782.745 548.129, 785.488 549.527 C 790.566 552.115, 797 557.609, 797 559.357 C 797 559.888, 798.462 561.631, 800.250 563.232 C 802.886 565.593, 804.067 566.020, 806.500 565.489 C 808.150 565.130, 814.059 564.608, 819.630 564.330 C 827.668 563.929, 830.395 564.153, 832.831 565.412 C 838.323 568.252, 840.034 567.562, 847.246 559.599 C 852.703 553.574, 855.394 551.513, 861.724 548.511 C 866.001 546.483, 870.332 544.382, 871.348 543.842 C 872.365 543.302, 879.252 542.167, 886.652 541.321 C 901.613 539.609, 916.109 540.411, 921.834 543.268 C 923.567 544.132, 927.953 545.157, 931.580 545.546 C 935.208 545.934, 940.049 547.245, 942.338 548.459 C 944.627 549.673, 947.689 550.963, 949.142 551.325 C 950.596 551.688, 954.152 554.575, 957.044 557.742 L 962.304 563.500 981.902 564 C 992.681 564.275, 1002.288 564.147, 1003.250 563.715 C 1005.374 562.762, 1005.467 560.349, 1003.509 557 C 1001.536 553.626, 996.655 543.664, 996.569 542.833 C 996.531 542.467, 996.163 541.829, 995.750 541.417 C 995.337 541.004, 995 537.164, 995 532.883 C 995 526.933, 995.361 524.898, 996.532 524.242 C 997.374 523.771, 998.336 521.706, 998.669 519.653 C 999.328 515.591, 998.338 514.293, 992.500 511.565 C 987.603 509.276, 981.534 502.790, 978.514 496.618 C 974.816 489.060, 973.692 473.431, 976.461 468.076 C 978.998 463.169, 977.656 462.503, 965.200 462.483 C 953.476 462.464, 950.709 461.542, 940.866 454.374 C 938.317 452.518, 935.655 451, 934.949 451 C 934.244 451, 933.919 450.747, 934.228 450.438 C 934.537 450.129, 933.717 448.719, 932.406 447.304 C 929.545 444.217, 922.542 432.111, 922.396 430 C 922.237 427.690, 920.143 422.999, 919.275 423.007 C 918.849 423.010, 917.150 423.937, 915.500 425.066 C 913.124 426.692, 903.511 431.619, 901 432.498 C 900.725 432.594, 899.600 433.084, 898.500 433.586 C 897.400 434.089, 892.225 434.500, 887 434.500 C 881.775 434.500, 876.600 434.089, 875.500 433.586 C 874.400 433.084, 873.275 432.628, 873 432.572 C 872.725 432.517, 868.754 430.235, 864.175 427.500 C 858.339 424.016, 854.825 421.104, 852.426 417.764 C 850.544 415.144, 848.318 413, 847.479 413 C 846.641 413, 844.053 414.718, 841.728 416.817 M 886 506.999 C 885.175 507.483, 881.800 509.057, 878.500 510.496 C 866.036 515.932, 863.553 522.382, 870.894 530.252 L 874.788 534.427 894.144 534.463 C 912.157 534.497, 913.817 534.656, 918.066 536.750 C 920.577 537.987, 923.862 539, 925.365 539 C 930.979 539, 937.505 533.727, 938.586 528.318 C 939.934 521.579, 927.646 513.024, 911.500 509.459 C 907.100 508.488, 903.072 507.312, 902.550 506.846 C 901.306 505.738, 887.937 505.861, 886 506.999 M 747.601 510.039 C 744.356 510.548, 740.756 511.580, 739.601 512.331 C 738.445 513.082, 735.838 514.241, 733.807 514.907 C 731.775 515.573, 727.838 517.929, 725.057 520.144 C 721.005 523.370, 720 524.765, 720 527.162 C 720 531.020, 724.024 535.084, 730.164 537.427 C 734.810 539.199, 734.853 539.196, 741.335 536.603 C 748.572 533.708, 756.738 533.211, 766.122 535.096 C 774.277 536.733, 778.733 535.182, 782.354 529.444 C 784.584 525.910, 785.074 524.206, 784.594 521.647 C 783.969 518.317, 779.449 513.243, 775.127 511.019 C 772.064 509.443, 755.211 508.843, 747.601 510.039 M 122.819 562.034 C 119.145 562.467, 115.249 563.104, 114.161 563.449 C 112.263 564.051, 107.159 569.373, 102.105 576.018 L 99.710 579.167 100.372 616.833 C 100.736 637.550, 101.457 662.375, 101.975 672 C 102.492 681.625, 103.219 703, 103.590 719.500 C 103.961 736, 104.667 750.010, 105.158 750.633 C 105.649 751.256, 106.016 766.720, 105.973 784.998 C 105.931 803.275, 106.144 818.478, 106.448 818.781 C 106.752 819.085, 107 832.507, 107 848.608 C 107 869.179, 107.334 878.088, 108.123 878.576 C 109.873 879.657, 280.348 879.033, 281.450 877.941 C 282.715 876.688, 289.717 876.733, 290.500 878 C 290.895 878.639, 304.991 879, 329.500 879 C 354.009 879, 368.105 878.639, 368.500 878 C 368.898 877.356, 385.947 877, 416.368 877 C 470.517 877, 467.593 877.469, 467.350 868.828 C 466.640 843.646, 465.672 824, 465.141 824.002 C 464.788 824.003, 464.654 821.018, 464.841 817.368 C 465.041 813.483, 464.752 810.465, 464.145 810.089 C 463.463 809.668, 462.730 787.448, 462.013 745.474 C 461.411 710.288, 460.502 676.550, 459.991 670.500 C 459.480 664.450, 458.570 641.950, 457.968 620.500 C 457.365 599.050, 456.657 580.042, 456.393 578.261 C 455.761 573.993, 448.882 566.028, 443.644 563.500 C 439.558 561.528, 437.319 561.498, 284.500 561.374 C 199.250 561.304, 126.494 561.602, 122.819 562.034 M 724.750 564.787 C 722.688 565.713, 721 566.895, 721 567.414 C 721 567.933, 719.538 569.814, 717.750 571.593 C 712.212 577.107, 709.273 581.352, 708.120 585.506 C 706.649 590.803, 706.680 591, 708.977 591 C 711.064 591, 713.308 588.165, 714.518 584 C 715.563 580.400, 721.698 573.172, 726.698 569.647 C 729.064 567.979, 731 565.802, 731 564.807 C 731 562.600, 729.630 562.596, 724.750 564.787 M 870.687 569.274 C 867.716 572.175, 864.482 576.113, 863.501 578.024 C 862.520 579.936, 860.881 582.573, 859.859 583.885 C 857.606 586.776, 857.385 591, 859.487 591 C 860.306 591, 862.087 589.238, 863.447 587.084 C 864.807 584.930, 866.387 582.879, 866.959 582.525 C 867.532 582.171, 868 581.055, 868 580.045 C 868 579.034, 869.575 576.824, 871.500 575.134 C 873.425 573.444, 875 571.597, 875 571.031 C 875 570.464, 875.510 570, 876.133 570 C 877.389 570, 881 566.177, 881 564.847 C 881 564.381, 879.895 564, 878.545 564 C 876.931 564, 874.238 565.808, 870.687 569.274 M 682.828 579.036 C 677.920 581.900, 676.011 601.420, 678.821 620 C 680.640 632.023, 681.822 632.731, 686.079 624.345 C 688.997 618.594, 689.480 616.665, 689.363 611.214 C 689.287 607.700, 688.760 604.360, 688.191 603.791 C 687.622 603.222, 687.412 602.091, 687.724 601.277 C 688.036 600.464, 687.820 599.506, 687.244 599.149 C 686.668 598.792, 685.887 596.435, 685.509 593.911 C 684.979 590.375, 685.186 588.957, 686.411 587.732 C 688.284 585.859, 688.510 580.910, 686.800 579.200 C 685.375 577.775, 685.016 577.760, 682.828 579.036 M 1049.548 580.923 C 1049.234 581.431, 1047.704 582.126, 1046.148 582.467 C 1040.801 583.642, 1031.664 595.504, 1030.498 602.785 C 1030.121 605.141, 1028.806 608.291, 1027.576 609.785 C 1024.247 613.828, 1024.050 615.073, 1025.584 622.390 C 1027.654 632.267, 1027.556 636.526, 1025.012 647.234 C 1023.077 655.375, 1022.908 657.363, 1023.938 659.849 C 1025.376 663.322, 1034.612 669.524, 1036.363 668.193 C 1036.988 667.717, 1040.200 666.511, 1043.500 665.513 C 1058.948 660.839, 1072.301 645.545, 1076.507 627.706 C 1078.693 618.434, 1078.443 604.252, 1075.964 596.892 C 1073.914 590.807, 1069.417 585.194, 1063.785 581.689 C 1060.857 579.867, 1050.543 579.312, 1049.548 580.923 M 980.672 585.537 C 975.817 586.244, 970.550 587.358, 968.968 588.013 C 965.937 589.269, 966.124 588.659, 964.377 603 C 963.817 607.599, 954.501 626.653, 950.901 630.564 C 949.855 631.700, 948.984 633.050, 948.965 633.564 C 948.911 635.028, 932.063 647.235, 926.500 649.842 C 916.385 654.581, 889.506 654.698, 877.410 650.055 C 867.438 646.228, 865.101 644.828, 858.331 638.624 C 845.992 627.318, 839.768 614.830, 838.643 599.126 C 837.973 589.774, 837.411 588.958, 830.246 586.937 C 824.589 585.342, 811.900 586.180, 808.560 588.369 C 806.536 589.695, 806 590.865, 806 593.958 C 806 608.536, 798.343 623.925, 784.209 637.750 C 780.695 641.188, 777.592 644, 777.314 644 C 777.036 644, 775.614 644.844, 774.154 645.875 C 770.371 648.547, 755.327 652, 747.467 652 C 741.492 652, 738.186 651.404, 724.795 647.913 C 722.758 647.382, 719.720 645.794, 718.045 644.385 C 716.370 642.975, 715 642.145, 715 642.538 C 715 642.932, 712.985 641.397, 710.522 639.127 C 708.060 636.857, 705.390 635, 704.590 635 C 702.518 635, 701.846 637.976, 703.005 642.016 C 703.552 643.925, 704 648.786, 704 652.818 L 704 660.148 709.560 665.977 C 712.887 669.466, 715.848 673.753, 716.934 676.653 C 718.505 680.851, 719.467 681.867, 724.124 684.239 C 727.081 685.746, 730.856 688.565, 732.512 690.505 C 734.206 692.486, 737.081 694.460, 739.078 695.011 C 741.032 695.551, 744.473 697.569, 746.724 699.496 C 748.976 701.423, 751.598 703, 752.551 703 C 754.077 703, 754.208 702.266, 753.646 696.891 C 752.606 686.941, 755.953 677.960, 764.183 668.607 C 768.781 663.382, 774.549 660.467, 783.272 658.958 C 787.776 658.179, 790.351 657.212, 790.963 656.070 C 792.066 654.007, 799.080 651.752, 804.169 651.822 C 808.747 651.885, 816 653.996, 816 655.265 C 816 655.787, 816.675 655.955, 817.500 655.638 C 818.325 655.322, 819 655.499, 819 656.031 C 819 657.718, 821.623 657.092, 827.500 654 C 834.925 650.094, 840 650.055, 847.211 653.848 C 850.898 655.787, 854.682 656.861, 859.072 657.214 C 862.618 657.498, 867.765 658.744, 870.510 659.982 C 876.942 662.883, 890.929 676.977, 892.901 682.544 C 893.671 684.720, 895.337 688.145, 896.604 690.156 C 897.870 692.166, 899.210 696.104, 899.582 698.906 C 900.365 704.806, 900.903 704.986, 908.793 701.987 C 912.844 700.447, 914.554 700.226, 916.081 701.043 C 918.662 702.425, 921.696 701.431, 925.785 697.865 C 928.330 695.645, 930.058 695, 933.463 695 C 936.124 695, 938.477 694.380, 939.429 693.429 C 940.293 692.564, 941 692.175, 941 692.563 C 941 692.952, 941.907 692.116, 943.016 690.706 C 945.577 687.451, 951.122 684, 953.790 684 C 955.014 684, 957.667 681.917, 960.349 678.851 C 962.826 676.019, 967.006 672.532, 969.637 671.101 C 973.680 668.903, 974.696 667.725, 976.190 663.500 C 977.377 660.144, 979.588 656.963, 982.914 653.825 C 987.234 649.750, 988.022 648.377, 989.055 643.124 C 989.985 638.397, 991.185 635.992, 994.620 631.967 C 998.184 627.793, 999 626.103, 999 622.897 C 999 620.427, 999.901 617.566, 1001.416 615.229 C 1003.502 612.008, 1003.851 610.206, 1003.974 602 C 1004.053 596.775, 1004.158 591.312, 1004.208 589.860 C 1004.390 584.551, 1003.614 583.990, 996.281 584.126 C 992.552 584.196, 985.527 584.831, 980.672 585.537 M 263.500 604.046 C 260.200 604.551, 256.600 605.360, 255.500 605.843 C 254.400 606.327, 249.450 607.961, 244.500 609.474 C 234.911 612.404, 233.246 613.248, 220 621.883 C 210.416 628.132, 197.434 640.566, 194.470 646.336 C 193.387 648.446, 191.731 650.589, 190.791 651.099 C 189.851 651.609, 188.157 653.933, 187.027 656.263 C 185.898 658.593, 184.332 661.625, 183.548 663 C 178.603 671.673, 175.897 678.673, 174.975 685.180 C 174.407 689.180, 173.242 694.713, 172.386 697.476 C 171.481 700.396, 170.601 708.154, 170.284 716 C 169.791 728.227, 169.979 730.443, 172.280 739.500 C 173.677 745, 175.126 751.525, 175.500 754 C 175.873 756.475, 177.187 760.075, 178.419 762 C 179.651 763.925, 181.170 766.984, 181.794 768.797 C 182.418 770.610, 183.845 773.258, 184.964 774.682 C 186.084 776.105, 187 778.131, 187 779.184 C 187 780.238, 188.575 782.721, 190.500 784.703 C 192.425 786.685, 194 788.683, 194 789.142 C 194 790.523, 202.534 801.283, 206.181 804.500 C 212.996 810.512, 217.819 813.917, 220.461 814.580 C 221.946 814.952, 223.394 815.863, 223.678 816.604 C 224.228 818.038, 229.503 821, 231.505 821 C 232.163 821, 234.818 822.125, 237.404 823.500 C 246.718 828.452, 253.637 826.260, 256.991 817.294 C 258.857 812.306, 258.985 811.016, 257.968 807.386 C 257.325 805.091, 255.462 801.590, 253.827 799.606 C 250.893 796.047, 250.756 796, 243.328 796 C 233.841 796, 230.423 794.423, 224.261 787.204 C 221.643 784.136, 218.329 780.467, 216.899 779.050 C 214.120 776.300, 210.552 770.114, 211.308 769.358 C 212.654 768.012, 217.606 770.956, 225.440 777.759 C 233.878 785.087, 234.454 785.405, 240.007 785.807 C 247.243 786.330, 251.440 784.934, 256.350 780.369 C 261.004 776.043, 262.355 772.032, 260.936 766.761 C 259.712 762.217, 258.539 761.604, 247.063 759.510 C 239.857 758.196, 236.457 756.742, 234 753.927 C 233.725 753.612, 232.782 753.090, 231.905 752.768 C 231.028 752.445, 228.184 749.693, 225.585 746.651 C 221.380 741.729, 220.683 740.208, 219.248 732.811 C 218.361 728.240, 217.202 724.208, 216.672 723.851 C 216.142 723.494, 215.964 722.536, 216.276 721.723 C 216.588 720.909, 216.369 719.769, 215.789 719.189 C 215.187 718.587, 215.072 717.355, 215.521 716.317 C 215.953 715.318, 216.210 713.712, 216.091 712.750 C 215.972 711.788, 216.353 711, 216.937 711 C 217.522 711, 218 710.118, 218 709.041 C 218 702.094, 220.420 691.839, 222.619 689.466 C 224.879 687.027, 225 686.222, 225 673.571 C 225 659.480, 225.802 656.924, 229.737 658.468 C 230.707 658.848, 233.892 659.555, 236.815 660.038 C 241.857 660.871, 251.754 664.953, 255 667.537 C 257.898 669.845, 261.941 670.123, 265.788 668.279 C 271.208 665.682, 297.314 665.660, 300.973 668.250 C 304.029 670.413, 306.876 670.476, 309.777 668.443 C 311 667.587, 312 667.167, 312 667.510 C 312 667.853, 313.947 666.538, 316.328 664.588 C 321.988 659.949, 333.034 657.973, 338.582 660.606 C 341.962 662.210, 343.139 665.178, 340.935 666.540 C 340.349 666.902, 339.995 668.391, 340.148 669.850 C 340.301 671.308, 340.060 673.094, 339.612 673.819 C 339.164 674.543, 338.580 677.693, 338.312 680.818 C 337.887 685.796, 338.147 686.927, 340.413 689.944 C 341.836 691.839, 343 693.872, 343 694.462 C 343 695.053, 344.238 697.328, 345.750 699.518 C 348.444 703.419, 348.500 703.796, 348.488 718.091 C 348.476 732.310, 348.406 732.788, 345.738 736.820 C 344.232 739.095, 343 741.435, 343 742.018 C 343 743.366, 335.549 750.759, 331.144 753.781 C 328.045 755.908, 319.290 759.088, 312.768 760.456 C 311.266 760.771, 308.498 762.380, 306.617 764.032 C 303.148 767.077, 302.911 768.459, 304.993 773.500 C 305.447 774.600, 306.174 776.400, 306.608 777.500 C 307.042 778.600, 307.645 787.675, 307.948 797.668 L 308.500 815.835 311.559 820.168 C 314.330 824.092, 314.990 824.488, 318.559 824.371 C 323.280 824.216, 333.255 820.674, 337.443 817.666 C 339.102 816.475, 341.199 815.050, 342.103 814.500 C 353.128 807.798, 365.907 795.966, 369.374 789.250 C 370.296 787.462, 371.459 786, 371.958 786 C 372.457 786, 373.148 785.110, 373.493 784.023 C 373.838 782.935, 375.668 780.192, 377.560 777.928 C 379.452 775.663, 381 773.356, 381 772.801 C 381 772.245, 382.125 769.551, 383.500 766.813 C 384.875 764.076, 386 761.284, 386 760.611 C 386 759.937, 387.504 756.395, 389.343 752.741 C 392.387 746.692, 392.799 744.772, 393.950 731.299 C 395.572 712.304, 393.595 690.629, 389.606 683.691 C 388.280 681.386, 386.871 677.925, 386.474 676 C 386.076 674.075, 384.963 671.375, 384 670 C 383.037 668.625, 381.944 666.094, 381.572 664.376 C 381.201 662.657, 379.752 660.182, 378.353 658.876 C 376.954 657.569, 375.117 655.150, 374.270 653.500 C 369.901 644.991, 353.891 629.528, 340.125 620.522 C 331.651 614.980, 314.048 606.995, 310.309 606.998 C 309.104 606.999, 307.823 606.523, 307.464 605.941 C 307.104 605.358, 305.839 605.007, 304.654 605.160 C 303.470 605.313, 301.826 605.019, 301.003 604.507 C 298.976 603.247, 270.974 602.903, 263.500 604.046 M 780.763 688.241 C 778.203 690.023, 775.864 692.386, 775.567 693.491 C 774.477 697.546, 775.044 708.061, 776.603 712.715 C 779.212 720.505, 782.266 723.735, 788.788 725.600 C 791.930 726.498, 795.175 727.751, 796 728.383 C 799.478 731.050, 801.885 729.647, 803.983 723.732 C 804.522 722.210, 806.030 720.559, 807.333 720.064 C 809.233 719.341, 826.360 719.212, 834.179 719.861 C 836.796 720.078, 839 722.866, 839 725.961 C 839 727.510, 839.788 729.709, 840.750 730.845 C 842.320 732.699, 843.011 732.813, 847.452 731.949 C 850.175 731.419, 853.840 731.255, 855.596 731.584 C 857.468 731.935, 859.764 731.643, 861.145 730.877 C 862.440 730.159, 863.883 729.555, 864.351 729.535 C 864.818 729.516, 867.179 727.025, 869.597 724 C 873.974 718.522, 873.992 718.468, 873.996 710.404 C 874 702.606, 873.328 700.002, 869.504 693 C 867.933 690.123, 858.430 684.817, 855.578 685.225 C 852.827 685.619, 852.620 687.355, 855.186 688.511 C 857.594 689.597, 860.812 694.494, 860.927 697.249 C 861.045 700.074, 853.831 706.658, 847.595 709.416 C 842.336 711.742, 840.298 712.011, 824.661 712.453 C 807.895 712.927, 807.391 712.881, 802.768 710.469 C 800.166 709.111, 797.375 708, 796.567 708 C 795.758 708, 793.567 706.425, 791.697 704.500 C 789.828 702.575, 787.811 701, 787.216 701 C 785.552 701, 784.763 697.311, 785.952 695.089 C 787.509 692.180, 791.052 690, 794.223 690 C 795.835 690, 797 689.455, 797 688.700 C 797 686.266, 794.608 685, 790.010 685 C 786.458 685, 784.366 685.733, 780.763 688.241 M 815.717 687.085 C 813.637 688.183, 809.024 689.353, 805.467 689.685 C 801.910 690.017, 799 690.697, 799 691.196 C 799 691.694, 800.688 692.834, 802.750 693.729 C 807.765 695.906, 832.581 696.573, 839.033 694.705 C 845.780 692.752, 844.846 690.791, 836.500 689.387 C 832.650 688.739, 827.700 687.507, 825.500 686.648 C 820.444 684.676, 820.267 684.684, 815.717 687.085 M 942.327 771.363 C 940.772 772.663, 938.528 774.030, 937.340 774.402 C 936.152 774.773, 934.635 775.735, 933.968 776.539 C 933.292 777.354, 931.066 778, 928.937 778 C 926.836 778, 924.840 778.450, 924.500 779 C 924.160 779.550, 922.987 780, 921.893 780 C 920.799 780, 918.770 781.225, 917.383 782.721 C 915.185 785.093, 913.938 785.494, 907.680 785.847 C 902.645 786.131, 899.788 786.812, 898.115 788.126 C 896.803 789.157, 895.153 790, 894.448 790 C 893.743 790, 893.009 790.474, 892.816 791.053 C 892.241 792.778, 885.001 793.925, 878.514 793.319 C 873.529 792.854, 871.750 793.130, 868.491 794.877 C 864.831 796.839, 863.007 797, 844.500 797 C 826.381 797, 824.114 796.809, 820.739 795 C 816.543 792.751, 811.992 792.360, 812.015 794.250 C 812.065 798.453, 827.875 811.335, 835.757 813.595 C 838.916 814.500, 842.057 815.687, 842.737 816.233 C 843.418 816.778, 844.641 816.968, 845.455 816.656 C 846.270 816.343, 847.202 816.518, 847.527 817.044 C 848.317 818.322, 877 818.310, 877 817.031 C 877 816.499, 877.681 816.324, 878.513 816.643 C 879.345 816.963, 880.582 816.783, 881.263 816.244 C 881.943 815.705, 884.975 814.461, 888 813.478 C 897.895 810.263, 908.533 805.305, 915.076 800.860 C 918.609 798.459, 922.737 795.943, 924.250 795.269 C 925.763 794.595, 927 793.462, 927 792.752 C 927 791.703, 932.622 786.616, 937.557 783.199 C 938.112 782.814, 940.279 780.135, 942.373 777.244 C 944.466 774.353, 947.139 771.316, 948.312 770.494 C 950.434 769.008, 950.431 769, 947.799 769 C 946.344 769, 943.881 770.063, 942.327 771.363 M 673.130 870.151 C 672.507 870.893, 669.537 874.200, 666.528 877.500 C 661.183 883.364, 659.466 887.934, 662.016 889.510 C 662.575 889.856, 662.816 890.488, 662.552 890.916 C 662.287 891.344, 663.368 892.936, 664.953 894.455 C 667.689 897.076, 668.154 897.179, 674.167 896.497 C 677.650 896.102, 682.075 895.100, 684 894.270 C 686.060 893.382, 690.299 892.789, 694.301 892.830 C 703.341 892.923, 704.009 891.341, 697.439 885.395 C 694.769 882.978, 692.338 881, 692.038 881 C 691.738 881, 688.878 878.508, 685.683 875.462 C 679.635 869.697, 675.117 867.786, 673.130 870.151 M 495.578 887.156 C 489.540 891.156, 481.402 900.872, 480.473 905.191 C 480.082 907.011, 478.465 910.276, 476.881 912.447 C 475.296 914.618, 474 917.023, 474 917.793 C 474 918.562, 473.239 920.480, 472.308 922.055 C 470.706 924.768, 470.714 925.026, 472.463 926.959 C 473.947 928.599, 475.539 929, 480.566 929 C 486.320 929, 487.029 928.754, 489.403 925.933 C 490.822 924.247, 492.694 920.422, 493.562 917.434 C 494.431 914.446, 495.726 911.417, 496.441 910.702 C 497.156 909.987, 498.470 907.992, 499.361 906.268 C 500.253 904.545, 503.208 901.257, 505.930 898.962 C 508.651 896.668, 511.358 893.413, 511.945 891.729 C 514.711 883.794, 504.824 881.032, 495.578 887.156 M 536.490 890.016 C 536.144 890.575, 535.520 890.821, 535.102 890.563 C 534.685 890.305, 532.881 891.429, 531.094 893.061 C 529.307 894.693, 526.530 896.709, 524.923 897.540 C 523.315 898.371, 522 899.377, 521.999 899.776 C 521.999 900.174, 520.424 902.269, 518.499 904.432 C 516.575 906.594, 515 908.732, 515 909.182 C 515 909.632, 514.302 910, 513.449 910 C 512.596 910, 511.194 911.684, 510.335 913.742 C 509.475 915.799, 507.698 918.759, 506.386 920.318 C 501.422 926.218, 503.716 929, 513.545 929 C 519.197 929, 521.036 928.618, 522.345 927.171 C 523.255 926.165, 524 925.002, 524 924.585 C 524 924.169, 525.390 922.354, 527.088 920.554 C 528.786 918.753, 530.700 916.230, 531.340 914.946 C 531.980 913.662, 535.752 910.409, 539.723 907.718 C 545.744 903.637, 547.049 902.255, 547.586 899.396 C 548.452 894.779, 546.348 889.676, 543.848 890.330 C 542.833 890.595, 541.750 890.404, 541.442 889.906 C 540.684 888.680, 537.269 888.756, 536.490 890.016 M 567.734 912.942 C 563.544 915.111, 559.189 917.811, 558.058 918.942 C 556.926 920.074, 555.568 921, 555.039 921 C 554.510 921, 553.164 921.981, 552.047 923.180 C 550.153 925.212, 550.127 925.483, 551.663 927.180 C 553.078 928.744, 554.969 929, 565.096 929 C 571.875 929, 577.145 928.575, 577.500 928 C 577.840 927.450, 579.216 927, 580.559 927 C 581.902 927, 583 927.450, 583 928 C 583 929.460, 598.322 929.278, 599.800 927.800 C 601.534 926.066, 601.274 922.327, 599.250 919.907 C 598.288 918.756, 595.525 915.831, 593.111 913.407 C 588.797 909.075, 588.609 909, 582.037 909 C 576.209 909, 574.375 909.505, 567.734 912.942" stroke="none" fill="#171916" fill-rule="evenodd"/>
</svg>