<svg role="img" aria-labelledby="artwork-title" shape-rendering="geometricPrecision" xmlns="http://www.w3.org/2000/svg" width="1200" height="1200" viewBox="0 0 1200 1200" version="1.1">
	<title id="artwork-title">Mascot pulling code from a cloud</title>
	<path d="M 894 248 C 894 248.550, 893.382 249, 892.628 249 C 890.247 249, 875.568 254.084, 874 255.451 C 873.175 256.170, 871.069 257.483, 869.321 258.368 C 867.572 259.254, 865.865 260.850, 865.527 261.916 C 865.028 263.486, 860.495 267.058, 856.780 268.808 C 855.906 269.219, 848.991 264.157, 847.249 261.831 C 846.562 260.912, 843.637 259.391, 840.749 258.452 C 837.862 257.512, 834.665 256.013, 833.645 255.122 C 832.094 253.765, 829.066 253.500, 815.145 253.500 C 799.032 253.500, 798.318 253.588, 792.812 256.250 C 789.683 257.762, 786.820 259, 786.448 259 C 786.076 259, 783.049 261.358, 779.722 264.241 C 771.987 270.942, 765.131 280.331, 764.334 285.314 C 763.486 290.613, 760.876 291.486, 750.496 289.942 C 739.772 288.346, 726.605 289.971, 721.347 293.539 C 719.353 294.893, 717.126 296, 716.399 296 C 715.672 296, 713.316 297.688, 711.164 299.750 C 709.012 301.813, 705.170 305.219, 702.626 307.320 C 700.082 309.421, 698 311.550, 698 312.052 C 698 312.554, 696.128 316.010, 693.841 319.732 C 688.446 328.509, 686.849 333.861, 687.632 340.530 C 688.324 346.411, 688.533 346.161, 678.543 351.375 C 670.630 355.505, 660.547 365.203, 656.277 372.789 C 654.200 376.480, 652.488 379.950, 652.474 380.500 C 652.459 381.050, 652.162 381.954, 651.813 382.509 C 650.165 385.134, 648 396.473, 648 402.480 C 648 409.172, 650.745 422, 652.178 422 C 652.595 422, 652.721 422.563, 652.457 423.251 C 652.193 423.938, 654.260 427.322, 657.050 430.770 L 662.122 437.038 659.510 443.568 C 658.073 447.159, 656.412 453.788, 655.819 458.299 C 654.799 466.057, 654.886 466.927, 657.418 474.412 C 658.890 478.763, 661.198 483.635, 662.547 485.239 C 663.896 486.842, 665 488.580, 665 489.101 C 665 489.623, 666.036 490.443, 667.301 490.925 C 670.440 492.118, 671.895 497.439, 671.257 505.387 C 670.790 511.204, 671.064 512.566, 673.868 518.379 C 675.590 521.951, 677 525.487, 677 526.237 C 677 526.987, 677.452 528.052, 678.004 528.604 C 678.676 529.276, 677.051 531.689, 673.093 535.901 C 662.496 547.177, 658.087 559.369, 658.050 577.500 C 658.008 597.941, 665.809 617.354, 679.012 629.670 L 683.403 633.766 683.540 645.633 C 683.662 656.304, 684.011 658.457, 686.998 667 C 688.825 672.225, 691.427 678.264, 692.779 680.419 C 694.132 682.575, 695.758 685.500, 696.393 686.919 C 700.652 696.446, 706.150 703.559, 717.716 714.509 C 720.035 716.704, 723.410 719.985, 725.216 721.799 C 728.628 725.227, 735.740 729.279, 736.990 728.506 C 737.385 728.262, 738.218 729.184, 738.843 730.554 C 739.566 732.142, 741.108 733.272, 743.092 733.668 C 746.168 734.284, 750.385 739.308, 749.663 741.498 C 749.483 742.047, 746.926 742.843, 743.981 743.267 C 741.037 743.690, 736.630 745.154, 734.188 746.519 C 731.746 747.883, 729.191 749, 728.511 749 C 727.830 749, 723.123 751.812, 718.050 755.250 C 712.976 758.688, 707.806 762.175, 706.561 763 C 705.315 763.825, 703.093 765.625, 701.622 767 C 700.152 768.375, 697.273 771.026, 695.224 772.890 C 688.239 779.249, 676 791.269, 676 791.771 C 676 792.046, 674.987 793.247, 673.750 794.440 C 672.513 795.633, 669.925 798.558, 668 800.940 C 666.075 803.322, 663.499 806.447, 662.276 807.885 C 660.333 810.170, 649.694 823.762, 644.184 831 C 643.137 832.375, 641.962 834.513, 641.573 835.750 C 641.184 836.987, 640.419 838, 639.874 838 C 639.328 838, 639.160 838.450, 639.500 839 C 639.840 839.550, 639.648 840, 639.073 840 C 638.499 840, 636.692 842.649, 635.058 845.886 C 633.424 849.123, 630.717 853.801, 629.043 856.281 C 625.266 861.878, 625.099 866.141, 628.500 870.182 C 629.875 871.816, 631 873.550, 631 874.035 C 631 874.519, 629.155 876.847, 626.900 879.208 C 624.645 881.569, 621.219 885.874, 619.286 888.776 C 614.034 896.660, 611.408 897.457, 600 894.637 C 595.937 893.632, 589.141 893.024, 581.872 893.015 C 568.775 892.998, 568.426 892.827, 567.467 885.950 C 566.675 880.265, 562.753 867, 561.864 867 C 561.492 867, 561.430 866.070, 561.727 864.934 C 562.025 863.798, 561.825 861.886, 561.285 860.684 C 559.177 856.001, 555.864 844.126, 554.538 836.500 C 553.773 832.100, 552.505 826.925, 551.721 825 C 550.937 823.075, 549.944 820.600, 549.514 819.500 C 549.084 818.400, 548.824 815.856, 548.936 813.848 C 549.047 811.839, 548.723 809.364, 548.214 808.348 C 545.894 803.713, 542.919 792.801, 542.007 785.587 C 540.434 773.133, 534.682 763.365, 523.526 754.206 C 515.319 747.468, 512.896 747.212, 451 746.544 C 421.025 746.221, 386.375 745.535, 374 745.020 C 361.625 744.505, 317.525 743.780, 276 743.409 C 194.125 742.677, 194.666 742.648, 187.809 748.077 C 185.778 749.685, 183.630 751, 183.034 751 C 182.438 751, 181.529 752.108, 181.014 753.462 C 180.499 754.817, 178.823 757.824, 177.289 760.146 C 174.726 764.025, 174.508 765.102, 174.599 773.433 C 174.675 780.472, 175.157 783.400, 176.753 786.523 C 177.884 788.736, 179.103 792.786, 179.462 795.523 C 180.542 803.762, 182.143 810.369, 183.636 812.750 C 184.411 813.987, 184.756 815, 184.401 815 C 184.046 815, 184.213 815.563, 184.773 816.250 C 185.333 816.938, 186.281 820.689, 186.879 824.586 C 187.478 828.483, 188.830 833.658, 189.885 836.086 C 190.941 838.514, 192.124 843.370, 192.515 846.879 C 192.906 850.387, 194.169 855.337, 195.321 857.879 C 196.473 860.420, 197.435 862.800, 197.458 863.167 C 197.481 863.533, 197.838 864.171, 198.250 864.583 C 198.663 864.996, 199 866.870, 199 868.749 C 199 870.627, 200.142 875.472, 201.537 879.516 C 202.933 883.559, 204.694 890.610, 205.450 895.184 C 206.207 899.758, 207.623 905.300, 208.597 907.500 C 209.571 909.700, 210.273 912.029, 210.157 912.675 C 210.042 913.321, 210.409 914.135, 210.973 914.484 C 211.538 914.833, 212 917.130, 212 919.589 C 212 922.072, 213.079 926.625, 214.427 929.828 C 215.763 933, 217.172 938.400, 217.560 941.829 C 218.508 950.211, 220.694 952, 229.980 952 C 240.684 952, 242.150 948.774, 237.248 936 C 236.932 935.175, 236.595 934.275, 236.500 934 C 236.405 933.725, 236.045 932.825, 235.699 932 C 234.848 929.967, 229.283 908.489, 226.889 898 C 225.822 893.325, 224.667 888.825, 224.321 888 C 223.976 887.175, 223.648 886.050, 223.592 885.500 C 223.536 884.950, 222.968 883.588, 222.330 882.474 C 221.692 881.359, 220.668 877.685, 220.056 874.309 C 219.444 870.933, 218.287 865.962, 217.485 863.262 C 216.683 860.562, 215.117 853.926, 214.003 848.517 C 212.890 843.107, 211.572 838.190, 211.075 837.590 C 210.577 836.991, 210.078 836.050, 209.965 835.500 C 209.853 834.950, 209.407 833.571, 208.975 832.435 C 208.543 831.299, 207.864 827.699, 207.466 824.435 C 207.068 821.171, 205.905 815.760, 204.881 812.411 C 203.857 809.063, 202.316 802.617, 201.457 798.089 C 200.598 793.560, 199.394 788.650, 198.782 787.178 C 198.169 785.705, 197.614 784.275, 197.548 784 C 197.483 783.725, 196.927 782.600, 196.313 781.500 C 195.700 780.400, 194.884 777.407, 194.500 774.849 C 192.887 764.090, 195.541 762.870, 219.166 763.519 C 228.700 763.780, 293.425 764.499, 363 765.116 C 441.657 765.813, 489.958 766.605, 490.712 767.209 C 491.378 767.744, 494.642 768.028, 497.964 767.841 C 501.286 767.653, 504.003 767.837, 504.002 768.250 C 504.001 768.663, 504.788 769.019, 505.750 769.042 C 511.254 769.174, 521 778.785, 521 784.082 C 521 785.622, 521.390 787.123, 521.866 787.417 C 522.342 787.711, 522.514 789.091, 522.248 790.482 C 521.982 791.873, 522.223 793.571, 522.784 794.256 C 523.344 794.940, 525.198 801.350, 526.904 808.500 C 528.610 815.650, 530.679 824.274, 531.503 827.664 C 532.326 831.054, 533 834.513, 533 835.349 C 533 836.185, 533.523 838.137, 534.161 839.685 C 534.800 841.233, 535.235 842.885, 535.126 843.355 C 535.018 843.826, 535.331 844.726, 535.822 845.355 C 536.312 845.985, 537.248 849.425, 537.902 853 C 538.930 858.624, 542.424 873.792, 546.193 889 C 546.806 891.475, 547.565 893.950, 547.879 894.500 C 548.193 895.050, 548.316 896.314, 548.152 897.310 C 547.988 898.305, 548.336 899.700, 548.924 900.409 C 549.513 901.118, 550.437 903.904, 550.977 906.599 C 551.518 909.295, 553.097 915.550, 554.487 920.500 C 555.876 925.450, 557.712 932.875, 558.567 937 C 559.421 941.125, 560.392 945.175, 560.724 946 C 561.056 946.825, 561.366 947.874, 561.414 948.331 C 561.648 950.583, 565.796 952, 572.156 952 C 581.304 952, 581.545 951.480, 579.462 936.251 C 578.577 929.788, 577.136 923.388, 576.259 922.030 C 575.382 920.671, 574.628 918.307, 574.582 916.778 C 574.511 914.382, 574.972 913.908, 577.906 913.358 C 585.257 911.979, 610.760 914.860, 616.341 917.700 C 623.091 921.135, 629.903 916.988, 631.454 908.500 C 632.440 903.102, 635.354 898.469, 642.771 890.507 C 646.197 886.829, 649 883.211, 649 882.467 C 649 880.589, 652.958 878, 655.828 878 C 657.139 878, 659.548 879.125, 661.182 880.500 C 662.816 881.875, 664.681 883.023, 665.327 883.051 C 667.121 883.128, 678.281 891.364, 678.132 892.500 C 678.059 893.050, 676.763 893.867, 675.250 894.314 C 673.737 894.762, 671.375 895.630, 670 896.243 C 668.625 896.856, 667.275 897.421, 667 897.498 C 664.462 898.212, 655.104 903.022, 654.569 903.888 C 654.191 904.500, 653.109 905, 652.164 905 C 650.531 905, 643.859 909.496, 635.817 916.015 C 633.792 917.657, 631.839 919, 631.478 919 C 630.387 919, 616.782 933.346, 612.408 939.109 C 606.883 946.390, 606.848 946.470, 607.968 949.416 C 608.924 951.929, 609.196 952, 617.911 952 L 626.872 952 632.820 944.721 C 639.298 936.793, 648.067 928.834, 652.572 926.792 C 654.141 926.082, 656.532 924.477, 657.884 923.226 C 659.237 921.975, 661.482 920.666, 662.872 920.317 C 664.262 919.968, 667.831 918.404, 670.801 916.841 C 673.772 915.279, 677.620 913.995, 679.352 913.988 C 681.083 913.981, 684.525 912.811, 687 911.387 C 690.472 909.389, 693.671 908.600, 701 907.933 C 716.410 906.531, 739 908.281, 739 910.877 C 739 911.694, 743.888 913.508, 748.777 914.503 C 750.579 914.870, 753.954 916.213, 756.277 917.487 C 758.600 918.760, 761.916 920.097, 763.646 920.458 C 765.377 920.818, 767.599 922.004, 768.584 923.093 C 769.569 924.182, 772.412 925.973, 774.901 927.074 C 777.390 928.176, 780.118 929.670, 780.963 930.397 C 781.809 931.123, 784.062 932.242, 785.972 932.884 C 787.881 933.525, 790.656 935.212, 792.138 936.632 C 794.303 938.706, 796.370 939.398, 802.666 940.154 C 806.975 940.672, 815.675 941.755, 822 942.561 C 828.325 943.366, 839.800 944.468, 847.500 945.009 C 861.755 946.011, 870.514 947.481, 872.737 949.243 C 873.418 949.782, 874.600 949.984, 875.365 949.690 C 876.130 949.396, 877.283 949.684, 877.928 950.328 C 878.773 951.174, 890.436 951.597, 919.816 951.850 C 959.577 952.191, 960.591 952.151, 963.016 950.160 L 965.500 948.122 963.443 946.032 C 962.312 944.883, 959.208 943.163, 956.545 942.210 C 949.655 939.745, 949.013 938.229, 952.301 932.188 C 953.786 929.461, 955 926.644, 955 925.929 C 955 925.214, 955.963 923.604, 957.139 922.352 C 958.316 921.100, 959.789 919.046, 960.412 917.787 C 961.954 914.678, 965.482 914.467, 973.086 917.029 C 976.575 918.204, 983.452 919.582, 988.369 920.091 C 995.700 920.849, 998.120 921.554, 1001.825 924.008 C 1004.310 925.653, 1007.278 927.010, 1008.421 927.022 C 1009.565 927.035, 1013.200 928.375, 1016.500 930 C 1019.800 931.625, 1023.001 932.965, 1023.612 932.978 C 1024.224 932.990, 1026.385 934.319, 1028.414 935.932 C 1030.443 937.544, 1033.384 939.145, 1034.948 939.489 C 1036.513 939.832, 1038.599 941.004, 1039.584 942.093 C 1040.569 943.182, 1043.289 944.919, 1045.628 945.953 C 1047.966 946.988, 1050.465 948.772, 1051.180 949.917 C 1052.443 951.939, 1053.228 952, 1077.817 952 L 1103.154 952 1105.953 949.201 C 1108.152 947.002, 1109.016 944.806, 1109.988 938.951 C 1110.668 934.853, 1112.095 929.566, 1113.159 927.203 C 1114.402 924.441, 1115.454 918.724, 1116.104 911.203 C 1116.661 904.766, 1117.765 898.193, 1118.558 896.596 C 1120.693 892.298, 1120.654 849.929, 1118.513 846.660 C 1117.695 845.411, 1116.566 839.962, 1116.005 834.551 C 1115.338 828.117, 1114.326 823.637, 1113.080 821.606 C 1112.033 819.898, 1110.860 816.360, 1110.473 813.743 C 1110.044 810.837, 1108.675 807.608, 1106.954 805.442 C 1105.404 803.492, 1103.846 800.575, 1103.491 798.960 C 1103.136 797.344, 1102.424 795.762, 1101.909 795.444 C 1101.393 795.125, 1100.018 792.982, 1098.853 790.682 C 1096.291 785.622, 1092.834 781.363, 1083.093 771.266 C 1074.870 762.743, 1071.233 759.828, 1065.903 757.486 C 1063.925 756.617, 1061.324 754.577, 1060.123 752.953 C 1058.922 751.329, 1057.080 750, 1056.029 750 C 1054.978 750, 1053.834 749.540, 1053.486 748.978 C 1053.139 748.415, 1050.220 746.625, 1047 745 C 1043.780 743.375, 1040.896 741.640, 1040.590 741.145 C 1040.284 740.651, 1037.439 739.246, 1034.267 738.025 C 1031.095 736.803, 1025.969 734.722, 1022.875 733.402 C 1019.781 732.081, 1016.326 731, 1015.196 731 C 1014.067 731, 1012.439 730.296, 1011.579 729.436 C 1010.719 728.576, 1009.600 728.129, 1009.093 728.442 C 1008.586 728.756, 1008.020 728.672, 1007.835 728.256 C 1007.157 726.725, 993.135 722.928, 990.554 723.576 C 988.075 724.198, 985 722.736, 985 720.934 C 985 720.482, 987.667 717.396, 990.927 714.075 C 994.187 710.753, 997.109 707.232, 997.421 706.248 C 997.733 705.265, 1000.122 703.326, 1002.728 701.940 C 1005.335 700.554, 1008.022 698.313, 1008.699 696.960 C 1011.339 691.687, 1012.938 688.409, 1013.923 686.250 C 1014.488 685.013, 1015.438 684, 1016.034 684 C 1016.630 684, 1016.840 683.550, 1016.500 683 C 1016.160 682.450, 1016.275 682, 1016.755 682 C 1018.286 682, 1022 673.932, 1022 670.605 C 1022 665.661, 1023.372 665, 1033.641 665 C 1038.724 665, 1043.148 664.570, 1043.473 664.044 C 1043.798 663.518, 1044.688 663.327, 1045.451 663.620 C 1046.214 663.912, 1047.914 663.447, 1049.230 662.585 C 1050.545 661.724, 1053.732 660.383, 1056.311 659.607 C 1058.891 658.830, 1062.610 656.914, 1064.576 655.348 C 1070.735 650.440, 1083.096 637.634, 1084.699 634.500 C 1085.543 632.850, 1087.054 630.600, 1088.057 629.500 C 1089.059 628.399, 1090.380 625.249, 1090.991 622.500 C 1091.602 619.750, 1093.153 615.925, 1094.438 614 C 1097.407 609.553, 1098.308 600.782, 1097.383 585.315 C 1096.780 575.234, 1096.398 573.438, 1094.335 570.986 C 1093.037 569.444, 1091.362 566.444, 1090.613 564.320 C 1089.863 562.195, 1088.069 558.717, 1086.625 556.589 C 1082.867 551.052, 1083.401 544.426, 1088.001 539.500 C 1089.028 538.400, 1090.608 534.242, 1091.512 530.261 C 1092.416 526.280, 1093.578 522.761, 1094.094 522.442 C 1094.610 522.123, 1094.793 521.474, 1094.500 521 C 1094.207 520.526, 1094.447 519.842, 1095.032 519.480 C 1095.773 519.022, 1095.740 518.392, 1094.926 517.411 C 1094.282 516.635, 1094.090 516, 1094.500 516 C 1094.910 516, 1094.803 515.438, 1094.263 514.750 C 1093.723 514.063, 1092.990 511.966, 1092.634 510.092 C 1092.035 506.940, 1092.438 506.214, 1097.993 500.428 C 1101.297 496.988, 1104 493.470, 1104 492.610 C 1104 491.750, 1105.081 490.338, 1106.403 489.472 C 1110.085 487.059, 1114.356 468.041, 1112.872 460.663 C 1109.429 443.546, 1109.367 443.411, 1100.278 433.326 C 1096.194 428.795, 1095.518 426.603, 1096.816 422.107 C 1100.210 410.348, 1101.200 404.545, 1100.721 399.223 C 1099.894 390.033, 1097.088 378.703, 1094.969 376 C 1093.891 374.625, 1092.105 371.828, 1091.001 369.783 C 1089.897 367.739, 1088.095 365.586, 1086.997 364.998 C 1085.899 364.411, 1085 363.276, 1085 362.477 C 1085 361.679, 1083.313 359.888, 1081.250 358.499 C 1079.188 357.109, 1075.025 354.174, 1072 351.975 C 1065.717 347.409, 1061.620 346.014, 1054.473 346.006 C 1047.051 345.997, 1045.421 344.416, 1044.683 336.507 C 1044.344 332.883, 1043.727 329.374, 1043.310 328.709 C 1042.894 328.044, 1042.515 327.050, 1042.469 326.500 C 1042.423 325.950, 1042.125 324.825, 1041.807 324 C 1041.489 323.175, 1040.711 320.595, 1040.079 318.266 C 1039.447 315.938, 1037.933 312.386, 1036.715 310.374 C 1033.208 304.581, 1019.932 291.919, 1015.250 289.902 C 1012.913 288.895, 1011 287.530, 1011 286.869 C 1011 286.208, 1010.721 285.945, 1010.381 286.286 C 1010.040 286.626, 1009.168 286.310, 1008.441 285.584 C 1006.326 283.469, 991.742 281.646, 982.641 282.360 C 972.546 283.150, 967.827 284.429, 965.495 287.006 C 962.732 290.059, 961.343 289.421, 960.113 284.533 C 959.494 282.077, 958.147 279.264, 957.118 278.283 C 956.090 277.303, 954.958 275.555, 954.604 274.400 C 953.967 272.321, 942.202 260.735, 936.018 256.097 C 934.256 254.776, 930.494 253.124, 927.657 252.428 C 921.098 250.817, 916 248.785, 916 247.781 C 916 247.351, 911.050 247, 905 247 C 898.333 247, 894 247.394, 894 248 M 891.275 269.480 C 883.267 272.962, 880.308 274.529, 877.673 276.686 C 876.119 277.959, 874.319 279.008, 873.673 279.018 C 872.070 279.043, 866 286.491, 866 288.433 C 866 290.995, 868.708 290.219, 871 287 C 872.175 285.350, 873.706 284, 874.403 284 C 875.099 284, 876.831 282.696, 878.252 281.102 C 880.013 279.125, 882.212 277.982, 885.167 277.507 C 887.550 277.124, 890.988 275.953, 892.807 274.905 C 896.832 272.587, 906.049 272.332, 909.285 274.449 C 910.503 275.246, 914.019 276.554, 917.098 277.355 C 922.894 278.863, 934 285.567, 934 287.557 C 934 289.469, 937.824 292.282, 939.532 291.626 C 942.983 290.302, 939.189 285.252, 927.650 275.809 C 921.901 271.105, 911.885 267.995, 902.631 268.039 C 897.943 268.062, 893.135 268.672, 891.275 269.480 M 808.442 273.094 C 808.070 273.696, 806.020 274.021, 803.883 273.817 C 801.747 273.614, 800 273.690, 800 273.986 C 800 274.283, 799.133 274.970, 798.073 275.513 C 789.204 280.057, 787.069 281.648, 784.204 285.846 C 782.442 288.428, 781 291.095, 781 291.771 C 781 293.279, 782.642 293.388, 783.538 291.938 C 783.899 291.354, 785.284 290.462, 786.615 289.956 C 787.947 289.450, 789.452 287.941, 789.961 286.604 C 790.469 285.266, 791.924 283.869, 793.193 283.499 C 794.462 283.130, 796.414 281.745, 797.531 280.422 C 799.202 278.443, 801.276 277.760, 809.234 276.565 C 815.883 275.567, 819.935 275.408, 822.197 276.056 C 826.438 277.273, 831 277.267, 831 276.045 C 831 275.030, 827.211 274.175, 820.218 273.614 C 817.863 273.425, 815.651 272.984, 815.302 272.635 C 814.248 271.582, 809.166 271.922, 808.442 273.094 M 969.500 304.523 C 966.750 305.287, 964.163 305.932, 963.750 305.956 C 963.337 305.980, 963.001 306.563, 963.002 307.250 C 963.003 308.196, 966.955 308.516, 979.252 308.564 C 996.509 308.633, 997.061 308.759, 1004.500 314.333 C 1011.714 319.738, 1021.647 331.433, 1022.477 335.500 C 1022.701 336.600, 1023.196 339.300, 1023.577 341.500 L 1024.269 345.500 1025.177 342.500 C 1026.311 338.752, 1025.437 331.163, 1023.629 329.073 C 1022.881 328.208, 1021.957 326.191, 1021.575 324.591 C 1021.194 322.991, 1019.384 320.184, 1017.552 318.352 C 1015.721 316.521, 1013.978 314.385, 1013.679 313.606 C 1012.767 311.228, 1004.755 306.302, 999.040 304.605 C 992.359 302.620, 976.510 302.577, 969.500 304.523 M 732.579 308.824 C 729.872 309.723, 726.096 311.930, 724.189 313.729 C 722.281 315.528, 720.370 317, 719.942 317 C 719.514 317, 717.392 318.702, 715.227 320.782 C 712.243 323.649, 710.915 326.010, 709.744 330.532 C 708.893 333.815, 707.897 337.400, 707.530 338.500 C 706.878 340.453, 706.893 340.452, 708.181 338.466 C 710.003 335.656, 713.305 332.010, 721.621 323.625 C 727.478 317.719, 729.634 316.216, 733.765 315.157 C 736.528 314.449, 740.273 312.774, 742.089 311.435 C 743.904 310.096, 746.003 309, 746.753 309 C 747.504 309, 747.840 308.550, 747.500 308 C 746.576 306.505, 738.170 306.969, 732.579 308.824 M 754.262 311.690 C 755.192 312.620, 756.233 313.100, 756.576 312.757 C 757.561 311.773, 756.050 310, 754.227 310 C 752.700 310, 752.703 310.132, 754.262 311.690 M 957.250 310.662 C 956.563 310.940, 956 312.077, 956 313.190 C 956 314.625, 956.461 315.037, 957.582 314.607 C 958.452 314.273, 959.352 314, 959.582 314 C 959.812 314, 960 313.100, 960 312 C 960 309.979, 959.521 309.746, 957.250 310.662 M 1053.665 366.733 C 1053.356 367.232, 1055.218 368.897, 1057.802 370.432 C 1062.833 373.422, 1069.295 380.797, 1072.421 387.116 C 1074.550 391.419, 1075.570 391.929, 1076.458 389.132 C 1077.162 386.913, 1075.777 382.904, 1073.290 379.963 C 1069.059 374.960, 1060.683 366.999, 1059.637 366.986 C 1059.012 366.979, 1057.538 366.715, 1056.363 366.399 C 1055.187 366.084, 1053.973 366.234, 1053.665 366.733 M 685.601 369.250 C 677.171 376.233, 673 381.148, 673 384.099 C 673 386.246, 673.361 386.902, 674.250 386.370 C 676.015 385.314, 678.538 381.664, 678.207 380.645 C 677.797 379.379, 680.087 376.936, 681.098 377.561 C 681.577 377.857, 682.849 376.653, 683.924 374.885 C 684.999 373.117, 687.288 371.078, 689.010 370.354 C 690.732 369.630, 691.858 368.579, 691.512 368.019 C 690.515 366.406, 688.536 366.819, 685.601 369.250 M 848.070 390.428 C 844.435 394.178, 835.784 399.079, 829.500 400.949 C 827.300 401.604, 824.518 402.618, 823.317 403.203 C 822.117 403.787, 820.444 404.001, 819.599 403.677 C 818.755 403.352, 817.798 403.518, 817.473 404.044 C 816.736 405.236, 809.311 405.312, 808.583 404.134 C 808.289 403.658, 806.965 403.475, 805.641 403.728 C 804.317 403.981, 802.930 403.696, 802.558 403.094 C 802.186 402.492, 800.671 402, 799.191 402 C 795.206 401.999, 786.196 396.851, 784.074 393.362 C 782.881 391.400, 781.485 390.372, 780.148 390.471 C 777.745 390.648, 774 393.739, 774 395.547 C 774 399.412, 757.832 413.040, 751.426 414.575 C 749.817 414.960, 747.985 415.680, 747.355 416.173 C 746.726 416.666, 745.826 416.983, 745.355 416.876 C 744.885 416.770, 743.825 416.967, 743 417.314 C 742.175 417.661, 739.025 418.070, 736 418.223 C 732.635 418.392, 730.500 418.953, 730.500 419.667 C 730.500 420.308, 730.163 421.171, 729.750 421.583 C 729.337 421.996, 729 424.372, 729 426.863 C 729 432.105, 726.527 436.333, 718.288 445.176 C 713.356 450.469, 713 451.190, 713 455.885 C 713 458.653, 712.534 464.199, 711.964 468.209 C 711.394 472.219, 710.275 484.050, 709.477 494.500 C 708.680 504.950, 707.749 515.409, 707.410 517.741 C 706.921 521.094, 707.127 522.112, 708.393 522.597 C 709.864 523.162, 711.357 522.556, 720.698 517.602 C 722.956 516.404, 728.247 515.618, 738.698 514.927 C 757.410 513.689, 772.741 514.863, 779.630 518.061 C 782.309 519.304, 784.835 520.362, 785.244 520.411 C 785.918 520.492, 790.272 523.692, 797.882 529.699 C 799.415 530.909, 801.751 533.940, 803.075 536.435 C 804.398 538.929, 805.975 541.160, 806.578 541.392 C 807.182 541.623, 810.336 541.168, 813.588 540.380 C 820.516 538.701, 833.358 539.384, 839.302 541.747 C 842.808 543.141, 843.380 543.112, 846.645 541.379 C 848.592 540.346, 851 537.925, 851.995 536 C 854.556 531.048, 857.634 528.471, 866.257 524.061 C 874.094 520.053, 882.819 518.339, 900.806 517.272 C 908.134 516.837, 921.574 518.502, 922.473 519.956 C 922.736 520.383, 924.035 520.525, 925.359 520.272 C 926.683 520.019, 928.070 520.304, 928.442 520.906 C 928.814 521.508, 930.779 522.018, 932.809 522.040 C 934.839 522.063, 940.212 523.554, 944.748 525.355 C 952.806 528.553, 957.735 532.118, 961.236 537.280 C 964.050 541.429, 968.659 543.253, 972.666 541.804 C 975.269 540.862, 978.914 540.860, 989.220 541.794 C 1000.819 542.845, 1002.624 542.805, 1003.967 541.462 C 1005.341 540.088, 1005.318 539.619, 1003.746 536.881 C 996.332 523.963, 994.319 510.074, 998.807 502.812 C 1000.013 500.860, 1001 497.651, 1001 495.679 C 1001 492.446, 1000.562 491.868, 996.548 489.797 C 992.482 487.700, 982 476.211, 982 473.853 C 982 473.362, 980.833 471.112, 979.408 468.854 C 977.809 466.322, 976.989 463.837, 977.269 462.374 C 977.518 461.068, 977.335 460, 976.861 460 C 975.715 460, 975.752 456.271, 976.906 455.558 C 977.404 455.250, 977.577 454.098, 977.289 452.997 C 976.963 451.750, 977.776 449.671, 979.448 447.480 C 981.197 445.187, 982.020 443.014, 981.815 441.232 L 981.500 438.500 972 438.834 C 963.203 439.143, 961.945 438.935, 955 436.018 C 950.875 434.285, 946.509 431.772, 945.298 430.434 C 944.087 429.095, 942.610 428, 942.017 428 C 941.423 428, 940.638 427.212, 940.272 426.250 C 939.906 425.288, 938.607 423.709, 937.386 422.743 C 934.543 420.492, 928 407.304, 928 403.823 C 928 399.646, 926.980 398, 924.393 398 C 923.077 398, 922 398.426, 922 398.947 C 922 400.641, 911.624 406.822, 906.708 408.056 C 903.767 408.794, 897.875 409.079, 891.452 408.793 C 882.318 408.387, 880.253 407.949, 875.206 405.346 C 866.653 400.935, 859.600 395.034, 857.759 390.750 C 855.657 385.855, 852.601 385.753, 848.070 390.428 M 312 393.300 C 311.725 393.588, 305.470 394.590, 298.101 395.527 C 288.952 396.690, 283.084 397.984, 279.601 399.605 C 276.795 400.912, 273.712 401.985, 272.750 401.990 C 271.788 401.996, 271 402.477, 271 403.059 C 271 403.641, 270.514 403.818, 269.920 403.451 C 269.326 403.084, 268.232 403.651, 267.489 404.713 C 266.745 405.774, 264.194 407.219, 261.819 407.923 C 257.175 409.300, 251.933 412.292, 243.722 418.250 C 240.879 420.313, 237.989 422, 237.298 422 C 235.499 422, 216 441.279, 216 443.058 C 216 443.875, 214.076 446.640, 211.724 449.201 C 209.372 451.763, 206.381 455.803, 205.078 458.179 C 203.776 460.556, 201.942 463.400, 201.004 464.500 C 199.388 466.395, 198.347 468.531, 198.179 470.294 C 198.138 470.730, 196.996 472.405, 195.641 474.015 C 194.287 475.624, 192.695 479.193, 192.105 481.944 C 191.515 484.695, 190.125 488.639, 189.016 490.708 C 187.907 492.777, 187 495.854, 187 497.544 C 187 503.109, 185.632 503.789, 173.500 504.254 C 167.450 504.486, 161.150 505.271, 159.500 505.999 C 157.850 506.727, 156.115 507.235, 155.645 507.126 C 155.174 507.018, 154.274 507.333, 153.645 507.826 C 153.015 508.319, 150.897 508.968, 148.938 509.268 C 144.232 509.988, 124.081 519.897, 122.645 522.197 C 122.026 523.189, 120.935 524, 120.221 524 C 118.124 524, 101.532 541.351, 99.562 545.604 C 98.569 547.747, 96.643 550.695, 95.281 552.157 C 93.919 553.618, 92.858 555.085, 92.923 555.417 C 93.093 556.288, 89.992 562.233, 88.440 564.012 C 87.714 564.844, 86.656 568.410, 86.088 571.936 C 85.098 578.080, 83.973 579.951, 81.250 579.985 C 80.286 579.996, 80 585.375, 80 603.500 C 80 622.794, 80.247 627, 81.378 627 C 83.588 627, 84.924 629.325, 86.013 635.067 C 86.586 638.088, 88.853 643.511, 91.198 647.468 C 96.056 655.665, 104.902 668.174, 106.590 669.232 C 107.233 669.635, 110.625 672.712, 114.129 676.070 C 117.633 679.427, 121.807 682.858, 123.404 683.693 C 125.001 684.528, 128.106 686.513, 130.304 688.105 C 132.502 689.697, 134.726 691, 135.246 691 C 135.766 691, 137.431 691.883, 138.947 692.963 C 140.463 694.042, 144.583 695.572, 148.102 696.363 C 151.621 697.154, 156.300 698.501, 158.500 699.357 C 161.040 700.345, 165.854 700.928, 171.691 700.956 C 176.746 700.980, 181.160 701.450, 181.500 702 C 181.871 702.601, 188.657 703, 198.500 703 C 208.343 703, 215.129 702.601, 215.500 702 C 215.840 701.450, 217.463 701, 219.107 701 C 221.044 701, 222.947 700.081, 224.516 698.389 C 227.836 694.806, 228.199 693.126, 226.742 688.093 C 224.684 680.985, 221.276 680.124, 194.934 680.056 C 174.115 680.002, 162.866 678.941, 160.250 676.785 C 159.563 676.219, 159 676.090, 159 676.500 C 159 676.910, 158.438 676.802, 157.750 676.260 C 157.063 675.719, 155.182 674.960, 153.572 674.574 C 135.102 670.148, 111.568 647.204, 108.450 630.583 C 108.078 628.600, 107.367 626.727, 106.870 626.420 C 106.374 626.113, 106.197 625.490, 106.478 625.035 C 106.759 624.580, 106.327 622.931, 105.517 621.370 C 101.473 613.575, 100.929 593.414, 104.549 585.500 C 105.555 583.300, 106.445 581.275, 106.526 581 C 106.607 580.725, 106.932 579.825, 107.250 579 C 107.567 578.175, 108.076 576.058, 108.379 574.295 C 108.854 571.541, 111.759 565.777, 116.295 558.591 C 116.958 557.540, 119.629 554.390, 122.230 551.591 C 124.832 548.791, 126.970 546.163, 126.980 545.750 C 126.991 545.337, 127.605 545, 128.345 545 C 129.085 545, 130.466 544.143, 131.414 543.095 C 133.417 540.882, 146.236 533.419, 153.500 530.237 C 161.469 526.746, 172.508 525.709, 186.674 527.118 C 197.654 528.210, 199.099 528.165, 201.404 526.655 C 205.151 524.200, 206.626 520.565, 207.951 510.521 C 208.602 505.582, 209.610 500.970, 210.190 500.271 C 210.770 499.572, 210.910 499, 210.500 499 C 210.090 499, 210.202 498.438, 210.747 497.750 C 211.293 497.063, 212.301 494.700, 212.988 492.500 C 218.063 476.251, 224.897 465.046, 237.454 452.391 C 256.053 433.645, 270.292 425.210, 291.500 420.372 C 297.550 418.991, 303.159 417.645, 303.965 417.380 C 305.765 416.787, 337.999 416.733, 340.035 417.319 C 340.841 417.551, 345.517 418.519, 350.428 419.469 C 361.381 421.589, 369.210 424.083, 374.572 427.162 C 385.732 433.570, 389.943 436.226, 391.041 437.550 C 391.703 438.347, 392.865 439, 393.622 439 C 394.380 439, 395 439.450, 395 440 C 395 440.550, 395.645 441, 396.433 441 C 397.221 441, 398.140 441.788, 398.475 442.750 C 398.810 443.712, 401.541 446.463, 404.542 448.863 C 407.544 451.262, 410 453.682, 410 454.241 C 410 454.800, 411.462 456.976, 413.250 459.076 C 419.973 466.974, 426.947 478.586, 428.343 484.206 C 428.713 485.694, 429.537 488.169, 430.174 489.706 C 430.811 491.243, 431.389 492.725, 431.458 493 C 431.527 493.275, 432.341 494.918, 433.266 496.650 C 434.806 499.534, 435.923 505.193, 437.567 518.440 C 438.036 522.227, 438.952 524.152, 441.490 526.690 C 444.442 529.642, 445.401 530, 450.351 530 C 455.661 530, 464.826 531.433, 468 532.759 C 468.825 533.104, 469.950 533.455, 470.500 533.540 C 472.130 533.790, 475.187 535.026, 480.514 537.588 C 483.272 538.915, 486.018 540, 486.615 540 C 488.486 540, 500.469 549.590, 504.931 554.658 C 512.258 562.980, 515.220 568.188, 518.157 577.913 C 519.721 583.090, 521 588.152, 521 589.163 C 521 590.173, 521.337 591, 521.750 591 C 522.536 591, 522.475 612.398, 521.686 613.732 C 521.435 614.154, 520.907 616.525, 520.511 619 C 519.075 627.980, 515.063 639.862, 511.691 645.122 C 507.965 650.934, 496.512 662.929, 490.747 667.055 C 487.330 669.501, 472.192 675.900, 468.500 676.458 C 467.950 676.541, 466.150 677.189, 464.500 677.897 C 458.917 680.292, 449.561 681.033, 433 680.390 C 408.210 679.427, 401.102 681.608, 399.396 690.702 C 398.576 695.075, 400.287 698.382, 404.727 701.001 C 407.822 702.828, 409.916 703, 428.998 703 C 441.842 703, 450.120 702.615, 450.500 702 C 450.840 701.450, 453.470 701, 456.344 701 C 459.218 701, 464.189 700.079, 467.390 698.954 C 470.592 697.829, 475.504 696.473, 478.305 695.942 C 484.131 694.837, 496.982 688.782, 499.570 685.923 C 500.527 684.865, 501.742 684, 502.269 684 C 503.530 684, 514.214 674.733, 519.689 668.892 C 524.473 663.788, 528.061 659.045, 530.574 654.500 C 531.487 652.850, 533.054 650.600, 534.056 649.500 C 535.059 648.400, 535.875 647.275, 535.869 647 C 535.858 646.411, 537.135 643, 539.360 637.679 C 540.785 634.270, 542.032 628.423, 544.978 611.327 C 545.514 608.219, 545.494 603.630, 544.928 599.827 C 544.409 596.347, 543.488 589.900, 542.879 585.500 C 542.271 581.100, 540.766 575.025, 539.535 572 C 536.932 565.603, 535.869 562.700, 535.875 562 C 535.877 561.725, 535.059 560.600, 534.056 559.500 C 533.054 558.400, 531.440 555.925, 530.469 554 C 529.498 552.075, 527.645 549.108, 526.352 547.406 C 525.058 545.704, 524 544.072, 524 543.779 C 524 542.803, 508.555 528.119, 504.500 525.241 C 496.307 519.426, 488.267 515.068, 483.941 514.099 C 481.489 513.549, 477.814 512.402, 475.774 511.550 C 473.733 510.697, 469.980 510, 467.433 510 C 463.576 510, 462.334 509.498, 459.996 506.996 C 458.151 505.021, 457.369 503.306, 457.713 501.990 C 458.001 500.890, 457.785 499.429, 457.235 498.745 C 456.684 498.060, 455.716 495.025, 455.083 492 C 453.416 484.030, 448.248 471.121, 444.896 466.553 C 443.303 464.382, 442 462.089, 442 461.458 C 442 460.827, 441.100 459.495, 440 458.500 C 438.900 457.505, 438 456.155, 438 455.501 C 438 451.469, 410.434 422.874, 403.250 419.453 C 401.462 418.602, 400 417.452, 400 416.897 C 400 416.342, 397.994 415, 395.541 413.915 C 393.089 412.831, 390.839 411.548, 390.540 411.065 C 390.242 410.582, 387.888 409.468, 385.309 408.590 C 382.730 407.711, 379.545 405.981, 378.230 404.746 C 376.915 403.511, 375.655 402.600, 375.430 402.723 C 375.205 402.845, 374.454 402.769, 373.760 402.554 C 373.067 402.338, 371.375 401.949, 370 401.689 C 368.625 401.429, 365.250 400.298, 362.500 399.174 C 359.750 398.051, 352.550 396.373, 346.500 395.445 C 335.346 393.734, 312.915 392.339, 312 393.300 M 751 480.969 C 751 481.501, 750.319 481.676, 749.487 481.357 C 748.655 481.037, 747.418 481.198, 746.737 481.713 C 746.057 482.228, 743.680 483.169, 741.455 483.804 C 738.998 484.505, 735.172 487.041, 731.705 490.267 C 726.489 495.122, 726 495.942, 726 499.836 C 726 506.180, 729.412 509, 737.087 509 C 740.274 509, 743.123 508.610, 743.417 508.134 C 743.711 507.658, 745.035 507.475, 746.359 507.728 C 747.683 507.981, 749.070 507.696, 749.442 507.094 C 750.313 505.684, 759.674 505.663, 760.543 507.069 C 760.906 507.657, 762.939 508.013, 765.059 507.860 C 767.180 507.707, 769.234 507.901, 769.624 508.291 C 770.014 508.681, 772.874 509, 775.980 509 C 780.852 509, 781.976 508.623, 784.183 506.250 C 791.240 498.662, 791.597 493.487, 785.434 488.076 C 783.507 486.384, 781.551 485, 781.087 485 C 780.624 485, 778.502 484.240, 776.372 483.311 C 774.242 482.382, 772.200 481.594, 771.833 481.561 C 771.467 481.527, 770.829 481.163, 770.417 480.750 C 769.293 479.627, 751 479.833, 751 480.969 M 889.459 483.915 C 884.022 484.808, 878.739 488.230, 875.049 493.249 C 871.161 498.535, 871.158 501.972, 875.038 506.390 C 878.874 510.759, 885.452 512.431, 893.099 510.981 C 901.763 509.338, 912.338 509.768, 917.984 511.994 C 929.233 516.428, 940.139 515.278, 941.588 509.505 C 943.022 503.793, 941.403 498.725, 936.899 494.824 C 934.565 492.802, 931.045 490.490, 929.077 489.687 C 927.110 488.883, 923.700 487.489, 921.500 486.588 C 913.713 483.401, 899.696 482.232, 889.459 483.915 M 308.393 515.157 C 306.255 516.193, 303 521.853, 303 524.534 C 303 525.340, 302.544 526, 301.986 526 C 301.311 526, 300.989 548.286, 301.021 592.750 C 301.069 658.594, 301.042 659.504, 299.083 659.813 C 297.890 660.001, 296.179 659.053, 294.798 657.437 C 290.733 652.679, 277.659 639.586, 274.154 636.762 C 268.909 632.537, 262.992 634.745, 258.355 642.658 C 254.719 648.861, 255.380 650.432, 265.724 660.173 C 266.701 661.093, 269.261 664.130, 271.414 666.923 C 273.566 669.715, 275.943 672, 276.695 672 C 277.447 672, 278.357 672.788, 278.717 673.750 C 279.729 676.457, 287.348 684.999, 288.750 685 C 289.438 685, 290 685.635, 290 686.411 C 290 687.870, 302.626 700, 304.145 700 C 304.615 700, 305 700.585, 305 701.301 C 305 702.016, 306.966 703.557, 309.370 704.725 C 313.369 706.668, 313.982 706.722, 316.597 705.365 C 318.169 704.550, 319.795 703.347, 320.212 702.691 C 320.628 702.036, 320.976 701.792, 320.985 702.150 C 320.993 702.507, 322.473 701.382, 324.274 699.650 C 326.075 697.917, 329.675 694.707, 332.274 692.516 C 334.873 690.325, 337 687.948, 337 687.234 C 337 686.520, 337.828 685.613, 338.840 685.218 C 341.454 684.198, 350 676.469, 350 675.124 C 350 674.506, 350.465 674, 351.033 674 C 352.700 674, 369.858 655.805, 371.553 652.240 C 373.036 649.121, 372.984 648.767, 370.355 644.089 C 367.243 638.553, 363.660 636, 359.004 636 C 356.236 636, 353.969 637.853, 341.784 650.076 C 331.380 660.513, 327.461 663.861, 326.626 663.025 C 325.813 662.212, 325.498 642.781, 325.493 593.199 C 325.486 519.631, 325.598 521.313, 320.364 516.462 C 317.514 513.820, 312.319 513.254, 308.393 515.157 M 726.394 538.056 C 724.136 539.641, 720.649 542.865, 718.646 545.219 C 716.643 547.574, 714.284 550.332, 713.404 551.348 C 710.281 554.955, 709.341 563, 712.042 563 C 713.145 563, 716 557.675, 716 555.617 C 716 554.802, 716.860 553.862, 717.911 553.528 C 718.962 553.195, 721.018 551.354, 722.480 549.438 C 725.944 544.895, 728.961 541.910, 732.298 539.724 C 733.784 538.751, 735 537.289, 735 536.477 C 735 534.130, 730.919 534.879, 726.394 538.056 M 883.500 540.850 C 876.808 543.026, 867.974 551.451, 865.395 558.115 C 864.463 560.527, 863.317 562.928, 862.850 563.450 C 861.677 564.761, 861.777 570, 862.974 570 C 863.510 570, 864.647 568.650, 865.500 567 C 866.353 565.350, 867.481 564, 868.005 564 C 868.530 564, 869.822 562.309, 870.876 560.243 C 872.754 556.561, 880.652 548.491, 886.402 544.378 C 890.648 541.342, 888.820 539.120, 883.500 540.850 M 683.774 551.734 C 682.327 553.255, 680.848 555.850, 680.488 557.500 C 680.128 559.150, 679.617 561.173, 679.354 561.995 C 678.679 564.100, 678.755 590.088, 679.438 590.771 C 679.747 591.080, 680 593.233, 680 595.556 C 680 600.129, 682.833 604.839, 684.838 603.600 C 685.477 603.205, 686 600.866, 686 598.401 C 686 595.883, 686.882 592.191, 688.015 589.971 C 689.964 586.150, 689.976 585.790, 688.384 578.790 C 687.155 573.386, 686.921 569.527, 687.458 563.529 C 688.870 547.778, 688.540 546.723, 683.774 551.734 M 1051.458 559.068 C 1051.095 559.656, 1050.168 559.895, 1049.399 559.600 C 1048.629 559.304, 1048 559.468, 1048 559.964 C 1048 560.460, 1046.994 561.185, 1045.764 561.575 C 1041.155 563.038, 1035.961 568.388, 1032.803 574.926 C 1031.056 578.542, 1029.738 581.919, 1029.874 582.431 C 1030.309 584.073, 1026.600 589.992, 1024.772 590.572 C 1022.028 591.443, 1021.590 595.517, 1023.401 603.334 C 1024.761 609.204, 1024.875 611.857, 1024.031 618 C 1021.657 635.283, 1021.592 637.891, 1023.478 639.975 C 1026.027 642.792, 1035.474 645.306, 1040.616 644.535 C 1042.944 644.186, 1047.517 642.173, 1050.796 640.053 C 1056.648 636.271, 1070 623.675, 1070 621.937 C 1070 621.449, 1071.452 618.001, 1073.227 614.275 L 1076.454 607.500 1076.477 590.500 L 1076.500 573.500 1072.174 567.689 C 1069.794 564.493, 1067.094 561.594, 1066.174 561.245 C 1065.253 560.897, 1063.905 560.024, 1063.179 559.306 C 1061.594 557.740, 1052.394 557.553, 1051.458 559.068 M 811.557 565.223 C 810.701 566.445, 810 568.620, 810 570.056 C 810 571.492, 809.663 573.004, 809.250 573.417 C 808.837 573.829, 808.488 574.467, 808.474 574.833 C 808.460 575.200, 807.715 576.625, 806.820 578 C 805.925 579.375, 804.885 582.406, 804.510 584.737 C 804.135 587.067, 802.789 590.505, 801.519 592.378 C 800.248 594.250, 798.622 597.404, 797.905 599.387 C 797.188 601.370, 795.791 603.249, 794.801 603.563 C 793.810 603.878, 793 604.591, 793 605.149 C 793 606.301, 783.043 616, 781.860 616 C 781.436 616, 779.527 617.060, 777.618 618.355 C 775.709 619.651, 771.301 621.268, 767.823 621.949 C 764.346 622.631, 760.957 623.634, 760.294 624.180 C 759.630 624.726, 758.649 624.901, 758.113 624.570 C 757.577 624.238, 756.856 624.425, 756.510 624.984 C 755.745 626.221, 749.330 626.343, 748.583 625.134 C 748.289 624.658, 746.880 624.492, 745.452 624.764 C 744.024 625.037, 741.876 624.789, 740.678 624.213 C 737.241 622.559, 731.895 621.001, 729.601 620.985 C 728.445 620.977, 726.375 620.312, 725 619.508 C 723.625 618.703, 720.391 617.022, 717.814 615.773 C 714.952 614.385, 711.887 611.782, 709.940 609.088 L 706.753 604.676 704.899 607.088 C 702.843 609.762, 702.422 613.525, 704.064 614.539 C 704.690 614.926, 705.034 618.085, 704.900 622.207 C 704.698 628.454, 704.959 629.575, 707.296 632.504 C 708.738 634.312, 710.423 637.794, 711.039 640.242 C 712.421 645.728, 715.883 649.592, 721.621 652.052 C 724.891 653.453, 726.431 654.886, 727.710 657.714 C 728.651 659.796, 730.071 662.288, 730.865 663.250 C 732.543 665.283, 735.605 665.562, 736.341 663.750 C 736.693 662.882, 737.100 662.827, 737.674 663.573 C 738.128 664.163, 739.288 664.936, 740.250 665.292 C 741.212 665.647, 742 666.626, 742 667.469 C 742 668.311, 742.498 669, 743.106 669 C 743.714 669, 745.578 670.150, 747.249 671.556 C 749.009 673.037, 750.659 673.741, 751.172 673.228 C 751.658 672.742, 752.512 669.454, 753.069 665.922 C 753.626 662.390, 754.731 659.006, 755.525 658.401 C 756.319 657.797, 756.676 657.009, 756.318 656.651 C 755.960 656.293, 756.192 656, 756.833 656 C 757.475 656, 758 655.186, 758 654.190 C 758 652.211, 764.652 643.987, 770.076 639.261 C 774.420 635.475, 778.443 633.459, 783.470 632.547 C 785.653 632.151, 789.415 630.669, 791.831 629.253 C 797.390 625.996, 805.378 625.852, 812 628.891 C 817.748 631.529, 821.558 631.525, 827.543 628.878 C 833.217 626.368, 844.243 626.619, 848.415 629.352 C 849.778 630.245, 854.094 631.274, 858.007 631.637 C 863.859 632.181, 866.308 633.010, 871.811 636.310 C 875.490 638.517, 879.905 641.487, 881.621 642.911 C 884.817 645.562, 897 659.363, 897 660.332 C 897 660.628, 897.525 662.137, 898.166 663.685 C 898.808 665.233, 899.377 666.725, 899.432 667 C 899.486 667.275, 899.966 668.175, 900.497 669 C 901.029 669.825, 901.697 672.703, 901.982 675.397 C 902.710 682.279, 904.899 683.455, 909.220 679.287 C 913.649 675.014, 916.975 673.936, 923.769 674.569 C 929.975 675.148, 930.675 674.870, 933.264 670.800 C 935.103 667.907, 940.111 666.015, 945.951 666.006 C 948.874 666.001, 950.321 665.043, 955.407 659.750 C 958.709 656.313, 964.327 651.475, 967.891 649 C 972.376 645.885, 975.095 643.115, 976.727 640 C 978.023 637.525, 981.315 633.236, 984.042 630.469 C 987.536 626.922, 989 624.635, 989 622.719 C 989 621.223, 989.436 620, 989.969 620 C 990.501 620, 990.678 619.325, 990.362 618.500 C 990.045 617.675, 990.232 617, 990.776 617 C 991.321 617, 992.031 616.212, 992.354 615.250 C 992.678 614.288, 993.362 612.825, 993.877 612 C 994.391 611.175, 996.541 606.905, 998.656 602.511 C 1000.770 598.118, 1003.063 593.923, 1003.750 593.190 C 1005.292 591.545, 1005.388 587.358, 1003.904 586.441 C 1003.301 586.068, 1003.001 584.447, 1003.237 582.838 C 1003.473 581.228, 1003.292 579.680, 1002.833 579.397 C 1001.796 578.756, 1001.736 574.597, 1002.750 573.583 C 1003.163 573.171, 1003.539 572.533, 1003.586 572.167 C 1003.634 571.800, 1004.037 570.667, 1004.482 569.649 C 1005.018 568.424, 1004.820 567.500, 1003.896 566.914 C 1003.128 566.428, 1002.950 566.006, 1003.500 565.975 C 1004.050 565.945, 1003.326 565.282, 1001.890 564.502 C 999.764 563.346, 997.172 563.258, 987.890 564.025 C 981.626 564.543, 975.537 564.975, 974.361 564.984 C 969.572 565.020, 967.951 567.863, 967.012 577.868 C 966.356 584.869, 965.645 587.766, 964.192 589.364 C 961.573 592.245, 960 595.445, 960 597.894 C 960 601.452, 943.908 618.305, 938.255 620.667 C 936.200 621.526, 933.582 623.238, 932.439 624.472 C 929.989 627.115, 911.460 631.024, 901.453 631.009 C 891.574 630.994, 877.702 627.502, 872.579 623.741 C 870.151 621.958, 866.338 619.184, 864.106 617.576 C 857.406 612.749, 846.863 597.961, 844.929 590.678 C 844.319 588.380, 842.960 583.927, 841.910 580.782 C 840.859 577.636, 840 573.049, 840 570.588 C 840 563.900, 838.143 563, 824.334 563 C 813.873 563, 813.008 563.150, 811.557 565.223 M 781.469 663.267 C 775.912 668.825, 774.807 675.346, 777.598 686.110 C 779.331 692.788, 779.711 693.363, 784.466 696.474 C 790.016 700.106, 799.063 705, 800.228 705 C 800.637 705, 802.190 703.087, 803.679 700.750 C 809.597 691.459, 812.528 689.572, 816.441 692.532 C 817.722 693.500, 820.785 694.001, 825.441 694.002 C 835.490 694.004, 839.130 695.999, 840.701 702.368 C 841.362 705.046, 842.119 707.453, 842.384 707.717 C 842.648 707.982, 847.058 707.740, 852.182 707.180 C 861.254 706.189, 861.621 706.048, 866.086 701.831 C 873.664 694.675, 875 692.101, 875 684.655 C 875 681.060, 874.538 677.833, 873.973 677.484 C 873.409 677.135, 873.039 676.321, 873.152 675.675 C 873.265 675.029, 872.518 672.813, 871.493 670.750 C 870.143 668.033, 868.992 667, 867.315 667 C 865.311 667, 865 667.499, 865 670.708 C 865 676.968, 859.834 681.230, 847.594 685.070 C 842.042 686.812, 836.719 688.634, 835.764 689.119 C 833.377 690.330, 829.258 690.226, 828.460 688.935 C 828.062 688.292, 824.572 687.956, 819.651 688.087 C 811.847 688.294, 811.095 688.111, 802 683.779 C 796.775 681.291, 791.462 678.934, 790.193 678.542 C 787.591 677.738, 785.651 673.675, 786.537 670.884 C 786.860 669.865, 789.163 667.361, 791.655 665.320 C 795.823 661.904, 796.042 661.504, 794.401 660.304 C 790.723 657.614, 786.052 658.685, 781.469 663.267 M 810.166 662.698 C 804.321 665.711, 803.773 667.854, 808.500 669.228 C 810.150 669.708, 818.250 670.191, 826.500 670.300 C 839.233 670.470, 841.991 670.232, 844.750 668.724 C 849.995 665.859, 848.669 665, 839 665 C 834.050 665, 830 664.633, 830 664.185 C 830 662.705, 822.999 660, 819.168 660 C 817.039 660, 813.128 661.172, 810.166 662.698 M 941 748.500 C 939.708 749.875, 937.986 751, 937.172 751 C 936.358 751, 932.949 752.517, 929.596 754.370 C 926.007 756.354, 920.621 758.261, 916.500 759.006 C 912.650 759.702, 907.475 761.448, 905 762.886 C 900.937 765.246, 899.495 765.500, 890.162 765.500 C 880.342 765.500, 879.723 765.625, 877.801 768 L 875.777 770.500 849.945 770.811 C 822.675 771.139, 814.367 770.362, 809.882 767.062 C 807.933 765.628, 806.975 765.425, 806.132 766.268 C 804.161 768.239, 804.896 770.681, 808.250 773.306 C 810.038 774.705, 813.443 777.659, 815.818 779.871 C 820.447 784.183, 835.641 792, 839.391 792 C 840.643 792, 841.930 792.263, 842.252 792.585 C 842.904 793.238, 875.637 793.385, 878 792.746 C 878.825 792.523, 883.118 791.139, 887.540 789.670 C 891.961 788.202, 896.236 787, 897.040 786.999 C 899.393 786.999, 912.364 779.852, 918.159 775.364 C 928.448 767.395, 946.348 749.350, 945.683 747.617 C 944.826 745.382, 943.737 745.587, 941 748.500 M 980 837 C 980 838.100, 980.450 839, 981 839 C 981.550 839, 982 838.100, 982 837 C 982 835.900, 981.550 835, 981 835 C 980.450 835, 980 835.900, 980 837 M 367 870.290 C 365.625 871.064, 362.558 872.726, 360.185 873.983 C 357.811 875.241, 355.189 877.308, 354.358 878.577 C 353.527 879.845, 352.181 881.022, 351.367 881.191 C 348.552 881.778, 344.675 892.858, 344.261 901.500 C 343.928 908.439, 344.221 910.275, 346.468 915.344 C 349.636 922.492, 354.683 928.668, 362.159 934.542 C 366.651 938.073, 369.279 939.297, 374.911 940.481 C 382.095 941.993, 384.209 941.773, 394.500 938.445 C 397.005 937.635, 406.643 926.561, 409.352 921.381 C 412.571 915.225, 412.102 901.215, 408.415 893.386 C 405.548 887.296, 394.410 875, 391.762 875 C 390.979 875, 388.125 873.848, 385.419 872.439 C 379.405 869.308, 370.576 868.278, 367 870.290 M 955.667 882.667 C 954.629 883.704, 954.883 887, 956 887 C 956.550 887, 957 885.875, 957 884.500 C 957 881.882, 956.769 881.564, 955.667 882.667 M 674.435 929.879 C 671.099 930.835, 666.712 932.881, 664.685 934.427 C 662.658 935.973, 661 936.928, 661 936.551 C 661 935.944, 655.298 939.529, 654 940.952 C 653.725 941.253, 651.813 942.280, 649.750 943.234 C 645.896 945.016, 645.230 946.692, 647.035 950.066 C 647.957 951.789, 649.212 952, 658.542 952 C 668.432 952, 669.132 951.863, 671.162 949.529 C 672.344 948.170, 675.473 946.339, 678.115 945.462 C 685.862 942.889, 689.568 934.568, 685 930 C 682.634 927.634, 682.288 927.630, 674.435 929.879" stroke="none" fill="#171916" fill-rule="evenodd"/>
</svg>