<svg role="img" aria-labelledby="artwork-title" shape-rendering="geometricPrecision" xmlns="http://www.w3.org/2000/svg" width="1200" height="1200" viewBox="0 0 1200 1200" version="1.1">
	<title id="artwork-title">Mascot merging two branches</title>
	<path d="M 891 289.891 C 891 290.380, 889.538 291.008, 887.750 291.286 C 879.179 292.617, 867.215 298.939, 861.054 305.391 C 856.764 309.883, 854.544 309.923, 850.042 305.590 C 848.094 303.715, 843.853 300.764, 840.619 299.032 C 829.318 292.981, 810.376 292.955, 798.353 298.975 C 791.243 302.535, 779.452 313.729, 777.259 319 C 775.254 323.822, 771.291 328.881, 769.765 328.567 C 769.069 328.424, 767.150 327.749, 765.500 327.066 C 763.850 326.383, 761.005 325.575, 759.178 325.270 C 755.761 324.699, 745.286 326.727, 744.421 328.127 C 744.154 328.559, 743.336 328.682, 742.603 328.401 C 741.870 328.120, 739.747 328.817, 737.885 329.949 C 736.023 331.082, 732.925 332.723, 731 333.595 C 727.013 335.402, 721 340.805, 721 342.580 C 721 343.232, 720.102 344.001, 719.005 344.288 C 717.908 344.575, 716.710 345.640, 716.342 346.655 C 715.975 347.670, 714.839 349.707, 713.818 351.181 C 711.209 354.949, 707 368.323, 707 372.844 C 707 377.281, 703.514 381.249, 697.972 383.123 C 692.705 384.904, 685.104 390.833, 683.567 394.359 C 682.814 396.086, 681.130 398.625, 679.824 400 C 678.518 401.375, 676.930 404.075, 676.295 406 C 675.660 407.925, 674.454 411.300, 673.614 413.500 C 672.614 416.121, 672.073 421.086, 672.044 427.900 C 672.004 437.274, 672.271 438.851, 674.750 443.884 C 676.263 446.955, 679.188 451.253, 681.250 453.435 C 683.313 455.617, 685 458, 685 458.730 C 685 459.460, 683.546 462.857, 681.768 466.279 C 679.990 469.700, 678.522 473.031, 678.505 473.679 C 678.488 474.328, 678.143 475.191, 677.737 475.596 C 676.532 476.801, 676.900 486.500, 678.200 487.800 C 678.860 488.460, 679.054 489, 678.632 489 C 678.209 489, 678.729 490.238, 679.786 491.750 C 680.843 493.262, 681.981 495.631, 682.314 497.014 C 682.647 498.396, 684.819 501.677, 687.142 504.305 C 691.592 509.341, 692.567 513.407, 690.053 516.437 C 688.144 518.736, 689.236 526.236, 691.862 528.862 C 693.038 530.038, 694.014 531.788, 694.032 532.750 C 694.049 533.712, 694.724 535.374, 695.532 536.441 C 697.959 539.650, 697.265 541.789, 693.008 544.220 C 690.812 545.474, 689.012 546.995, 689.008 547.600 C 689.003 548.204, 687.658 550.679, 686.018 553.100 C 684.377 555.520, 682.744 559.075, 682.387 561 C 682.031 562.925, 680.898 566.272, 679.870 568.438 C 678.426 571.478, 678 574.682, 678 582.488 C 678 588.050, 678.406 593.028, 678.903 593.550 C 679.400 594.072, 680.798 598.078, 682.012 602.451 C 683.225 606.824, 684.793 611.324, 685.497 612.451 C 686.201 613.578, 687.282 616.075, 687.900 618 C 688.517 619.925, 691.421 624.004, 694.354 627.064 L 699.685 632.627 700.377 642.064 C 701.234 653.746, 702.910 663.827, 704.120 664.574 C 704.622 664.884, 704.771 665.561, 704.452 666.078 C 704.132 666.595, 705.188 668.971, 706.799 671.357 C 708.410 673.744, 710.032 677.730, 710.405 680.217 C 711.061 684.590, 715.666 691.425, 720.235 694.807 C 721.206 695.525, 722 696.790, 722 697.617 C 722 699.541, 731.847 710, 733.659 710 C 734.412 710, 737.553 712.689, 740.639 715.976 C 743.724 719.262, 748.556 723.402, 751.375 725.176 C 754.194 726.949, 757.727 729.397, 759.226 730.615 C 760.725 731.834, 763.337 733.135, 765.029 733.506 C 768.672 734.307, 768.453 735.928, 764.420 738 C 762.814 738.825, 759.202 740.963, 756.393 742.752 C 753.585 744.541, 749.760 746.525, 747.893 747.161 C 740.897 749.546, 727.731 760.538, 716.273 773.560 C 708.422 782.482, 699 795.062, 699 796.621 C 699 799.067, 696.229 798.086, 695.125 795.250 C 691.117 784.957, 684.832 777.756, 670.490 767.027 C 664.995 762.917, 659.180 758.079, 657.566 756.277 C 655.952 754.475, 654.322 753, 653.942 753 C 652.674 753, 645 745.473, 645 744.228 C 645 743.553, 644.576 743, 644.057 743 C 643.538 743, 640.271 740.638, 636.797 737.750 C 622.296 725.699, 613.285 720, 608.728 720 C 607.293 720, 605.840 719.550, 605.500 719 C 604.735 717.763, 599.319 717.674, 598.570 718.887 C 598.269 719.374, 596.439 720.070, 594.503 720.433 C 592.422 720.824, 590.356 722.053, 589.446 723.442 C 588.599 724.734, 587.063 726.012, 586.032 726.281 C 583.933 726.830, 582.008 732.449, 582.017 738 C 582.029 746.127, 583.089 748.473, 591.078 758.051 C 600.657 769.537, 601.085 771.884, 594.241 775.391 C 592.217 776.428, 590.226 778.661, 588.989 781.280 C 587.894 783.601, 585.193 787.750, 582.988 790.500 C 580.783 793.250, 578.706 796.288, 578.373 797.250 C 578.040 798.212, 577.369 799, 576.883 799 C 576.398 799, 576 799.873, 576 800.941 C 576 802.009, 575.519 803.179, 574.931 803.543 C 574.343 803.906, 573.951 806.070, 574.060 808.352 C 574.169 810.633, 574.008 813.175, 573.701 814 C 573.395 814.825, 571.961 818.935, 570.516 823.134 L 567.889 830.768 569.944 839.269 C 572.017 847.843, 578.185 859.089, 581.515 860.367 C 582.332 860.681, 583 861.576, 583 862.356 C 583 863.136, 586.150 866.320, 590 869.430 C 593.850 872.541, 597 875.517, 597 876.043 C 597 876.569, 597.605 877, 598.345 877 C 599.085 877, 600.514 877.910, 601.521 879.023 C 602.528 880.136, 605.692 881.727, 608.553 882.558 C 616.310 884.813, 618.827 888.598, 621.047 901.347 C 621.796 905.647, 622.801 908.352, 623.856 908.906 C 626.620 910.355, 633.307 911.014, 637 910.200 C 641.741 909.156, 642.224 905.434, 638.370 899.662 C 635.942 896.026, 635.517 894.235, 635.014 885.500 C 634.697 880, 634.115 874.982, 633.720 874.348 C 633.326 873.714, 629.740 872.225, 625.751 871.038 C 609.607 866.234, 606.091 864.158, 609.602 861.501 C 610.646 860.710, 613.126 860.049, 615.112 860.032 C 617.588 860.010, 619.913 859.056, 622.500 857 C 624.576 855.350, 626.844 854, 627.540 854 C 628.235 854, 629.236 852.762, 629.764 851.249 C 630.546 849.003, 631.299 848.514, 633.853 848.587 C 636.321 848.658, 637.616 849.550, 639.972 852.803 C 643.845 858.149, 647.085 860.274, 649.822 859.261 C 651.929 858.482, 657.169 852.237, 656.670 851.101 C 654.722 846.669, 652.875 844.019, 649.750 841.177 C 644.841 836.714, 644.777 833.439, 649.500 828.431 C 653.477 824.215, 653.753 822.538, 651.050 819.021 C 649.408 816.883, 648.274 816.519, 642.823 816.383 C 635.043 816.188, 632.444 815.179, 628.136 810.681 L 624.772 807.169 629.052 804.467 C 634.243 801.190, 638.138 800, 643.672 800 C 648.941 800, 651 798.029, 651 792.984 C 651 789.419, 650.548 788.787, 645.337 785.055 C 642.223 782.825, 639.251 781, 638.734 781 C 638.217 781, 634.578 778.316, 630.647 775.036 C 626.716 771.756, 621.959 767.818, 620.076 766.286 C 615.258 762.366, 599.092 742.962, 598.373 740.237 C 597.036 735.167, 603.773 733.207, 609.500 737 C 611.150 738.093, 613.175 738.990, 614 738.993 C 614.826 738.997, 617.526 740.856, 620 743.125 C 622.475 745.393, 625.962 748.247, 627.750 749.467 C 632.157 752.474, 639.937 759.459, 652.845 772 C 658.790 777.775, 666.037 784.525, 668.949 787 C 678.188 794.851, 681.623 800.452, 684.071 811.653 C 687.225 826.084, 687.395 828.336, 685.593 831.821 C 683.513 835.843, 683.567 841.387, 685.720 844.785 C 686.666 846.278, 690.041 850.464, 693.220 854.086 C 696.399 857.709, 699 861.332, 699 862.139 C 699 862.946, 700.375 865.476, 702.056 867.762 C 703.737 870.047, 705.055 872.049, 704.986 872.209 C 704.617 873.058, 707.011 877.764, 708.396 878.914 C 709.278 879.646, 710 880.804, 710 881.488 C 710 882.171, 710.956 883.946, 712.124 885.431 C 714.063 887.896, 714.775 888.110, 720.285 887.885 C 725.771 887.661, 726.399 887.847, 727.168 889.924 C 727.633 891.181, 728.910 893.469, 730.007 895.009 C 731.429 897.007, 732 899.418, 732 903.429 C 732 908.575, 732.222 909.134, 734.624 910.047 C 736.689 910.832, 1072.204 910.740, 1089.500 909.950 C 1091.150 909.875, 1095.949 909.928, 1100.164 910.069 L 1107.828 910.325 1111.643 906.412 C 1117.086 900.831, 1120.030 894.591, 1118.968 890.888 C 1118.506 889.278, 1117.631 881.782, 1117.022 874.230 C 1116.414 866.679, 1115.056 857.350, 1114.004 853.500 C 1112.953 849.650, 1111.835 844.857, 1111.519 842.848 C 1111.204 840.840, 1109.858 837.150, 1108.528 834.648 C 1107.198 832.147, 1105.794 828.390, 1105.408 826.300 C 1105.022 824.210, 1103.873 820.932, 1102.853 819.015 C 1101.834 817.098, 1101 815.146, 1101 814.677 C 1101 814.207, 1099.662 810.933, 1098.027 807.399 C 1096.391 803.866, 1095.152 800.868, 1095.273 800.738 C 1095.393 800.607, 1094.369 798.949, 1092.996 797.053 C 1090.485 793.584, 1087.545 788.413, 1084.483 782.076 C 1083.573 780.193, 1081.768 777.819, 1080.473 776.800 C 1079.178 775.781, 1077.802 773.947, 1077.416 772.724 C 1076.599 770.134, 1056.059 749, 1054.359 749 C 1053.728 749, 1051.798 747.679, 1050.070 746.065 C 1048.342 744.451, 1045.391 742.313, 1043.512 741.315 C 1041.634 740.317, 1036.370 737.483, 1031.816 735.018 C 1023.448 730.488, 1018.420 728.411, 1007.500 724.971 C 995.996 721.347, 991.485 719.810, 989.316 718.775 C 988.114 718.201, 986.202 717.975, 985.066 718.273 C 983.930 718.570, 983 718.444, 983 717.994 C 983 716.984, 975.349 715.455, 972.164 715.829 C 969.918 716.092, 967 714.520, 967 713.046 C 967 712.656, 969.258 710.874, 972.017 709.086 C 974.776 707.298, 977.717 704.513, 978.553 702.898 C 979.388 701.282, 981.831 698.686, 983.981 697.129 C 988.991 693.500, 994.491 686.297, 995.285 682.325 C 995.625 680.623, 997.051 677.541, 998.452 675.476 C 999.853 673.411, 1001 670.629, 1001 669.295 C 1001 663.339, 1005.183 660.214, 1010.296 662.350 C 1013.217 663.571, 1014.763 663.526, 1022.569 661.992 C 1027.664 660.991, 1033.549 659.071, 1036.269 657.522 C 1040.761 654.966, 1042.745 653.346, 1050.808 645.655 C 1057.047 639.703, 1065.450 625.430, 1066.593 618.841 C 1066.912 617.004, 1067.433 614.825, 1067.750 614 C 1068.068 613.175, 1068.405 612.275, 1068.500 612 C 1068.595 611.725, 1069.084 610.600, 1069.586 609.500 C 1070.089 608.400, 1070.500 603.450, 1070.500 598.500 C 1070.500 593.550, 1070.089 588.600, 1069.586 587.500 C 1069.084 586.400, 1068.595 585.275, 1068.500 585 C 1068.405 584.725, 1068.064 583.825, 1067.742 583 C 1067.419 582.175, 1066.874 579.803, 1066.529 577.728 C 1066.140 575.394, 1064.206 571.875, 1061.451 568.492 C 1059.003 565.487, 1057 562.506, 1057 561.868 C 1057 560.570, 1063.550 550.396, 1064.937 549.539 C 1065.426 549.237, 1066.129 547.194, 1066.500 545 C 1066.871 542.806, 1067.585 540.757, 1068.087 540.446 C 1069.328 539.679, 1069.252 528.273, 1068 527.500 C 1065.813 526.148, 1067.256 522.838, 1072.500 517.173 C 1075.525 513.906, 1078 510.505, 1078 509.616 C 1078 508.727, 1078.863 507.137, 1079.917 506.083 C 1080.971 505.029, 1081.571 503.904, 1081.250 503.583 C 1080.929 503.262, 1081.141 503, 1081.720 503 C 1084.823 503, 1085.802 478.165, 1082.951 471.755 C 1081.386 468.234, 1077.373 463.021, 1071.348 456.681 C 1065.194 450.205, 1065.033 448.988, 1069.461 442.463 C 1072.514 437.964, 1073.445 431.927, 1072.659 421.734 C 1072.147 415.097, 1071.434 412.669, 1068.367 407.136 C 1066.344 403.486, 1063.409 398.860, 1061.845 396.856 C 1060.280 394.852, 1059 392.814, 1059 392.327 C 1059 391.840, 1058.058 390.780, 1056.907 389.971 C 1055.756 389.162, 1053.618 387.485, 1052.157 386.244 C 1050.696 385.003, 1048.600 383.714, 1047.500 383.379 C 1046.400 383.044, 1044.519 381.873, 1043.320 380.776 C 1041.818 379.403, 1038.707 378.475, 1033.320 377.792 C 1029.019 377.248, 1024.825 376.463, 1024 376.048 C 1022.996 375.544, 1022.329 373.179, 1021.982 368.897 C 1021.373 361.358, 1018.910 354.448, 1014.321 347.396 C 1012.495 344.590, 1011 341.942, 1011 341.513 C 1011 340.252, 1003.609 333.002, 1002.323 333.001 C 1001.675 333, 1000.212 331.814, 999.073 330.365 C 997.933 328.916, 996.993 328.128, 996.985 328.615 C 996.976 329.102, 996.639 329.026, 996.235 328.447 C 994.342 325.736, 987.653 323.070, 978.809 321.502 C 969.293 319.816, 968.935 319.824, 958.957 321.961 C 953.369 323.157, 948.191 323.904, 947.451 323.619 C 946.711 323.335, 945.587 321.180, 944.954 318.829 C 943.673 314.072, 940.226 309.448, 935.875 306.652 C 934.294 305.635, 933 304.182, 933 303.422 C 933 302.181, 931.304 301.017, 923 296.561 C 917.246 293.473, 910.785 291, 908.473 291 C 907.113 291, 906 290.550, 906 290 C 906 289.422, 902.833 289, 898.500 289 C 894.375 289, 891 289.401, 891 289.891 M 887.500 309.604 C 885.300 310.439, 881.925 311.587, 880 312.156 C 878.075 312.726, 875.504 314.111, 874.287 315.235 C 873.071 316.359, 871.046 317.791, 869.787 318.419 C 868.529 319.046, 867.500 320.183, 867.500 320.946 C 867.500 323.359, 869.819 323.224, 872.029 320.681 C 873.287 319.235, 875.735 317.978, 878.003 317.616 C 880.116 317.278, 883.183 315.876, 884.817 314.501 C 887.443 312.291, 888.716 312, 895.755 312 C 902.592 312, 904.240 312.352, 907.386 314.487 C 909.402 315.856, 912.275 317.282, 913.770 317.657 C 915.265 318.032, 918.669 320.063, 921.334 322.170 C 923.999 324.276, 926.524 326, 926.945 326 C 927.366 326, 928.113 327.384, 928.605 329.075 C 929.097 330.767, 929.950 332.004, 930.500 331.825 C 932.057 331.319, 931.156 327.665, 929.065 326 C 928.028 325.175, 927.023 323.611, 926.831 322.525 C 926.639 321.439, 925.409 320.015, 924.097 319.361 C 922.786 318.707, 920.765 317.023, 919.606 315.619 C 916.912 312.354, 903.652 307.984, 896.622 308.044 C 893.805 308.068, 889.700 308.770, 887.500 309.604 M 790.604 325.590 C 789.924 327.363, 790.622 329, 792.059 329 C 792.577 329, 793 327.875, 793 326.500 C 793 323.703, 791.541 323.149, 790.604 325.590 M 959 338.693 C 953.030 340.086, 949 342.237, 949 344.030 C 949 344.426, 955.413 344.694, 963.250 344.625 C 977.407 344.501, 977.533 344.520, 982.489 347.500 C 989.420 351.668, 998.765 361.496, 999.991 365.907 C 1000.540 367.883, 1000.991 371.220, 1000.994 373.323 C 1000.999 376.423, 1001.331 377.084, 1002.750 376.814 C 1004.077 376.562, 1004.575 375.305, 1004.810 371.618 C 1004.980 368.943, 1004.880 366.130, 1004.587 365.367 C 1004.294 364.603, 1004.155 363.845, 1004.277 363.681 C 1004.400 363.517, 1003.263 361.912, 1001.750 360.115 C 1000.237 358.317, 999 356.189, 999 355.386 C 999 353.812, 990.421 345, 988.888 345 C 988.378 345, 986.280 343.939, 984.225 342.642 C 980.303 340.166, 970.492 336.938, 967.346 337.088 C 966.331 337.137, 962.575 337.859, 959 338.693 M 753.345 342.250 C 753.090 342.663, 752.021 343, 750.969 343 C 746.775 343, 737.972 347.983, 733.052 353.141 C 730.273 356.054, 728 358.830, 728 359.311 C 728 359.791, 727.100 361.329, 726 362.727 C 724.564 364.552, 724 366.784, 724 370.635 C 724 376.289, 725.570 377.916, 726.524 373.250 C 727.130 370.287, 727.879 368.839, 732.500 361.690 C 734.150 359.138, 736.219 356.805, 737.098 356.506 C 737.977 356.206, 739.205 354.845, 739.827 353.481 C 740.448 352.116, 741.800 351, 742.830 351 C 743.859 351, 746.818 349.875, 749.404 348.500 C 752.572 346.816, 755.700 346, 758.994 346 C 764.524 346, 766.143 344.682, 762.806 342.896 C 760.263 341.535, 754.048 341.111, 753.345 342.250 M 943.441 347.468 C 941.538 348.908, 941.542 348.937, 943.628 348.968 C 944.798 348.986, 946.315 348.325, 947 347.500 C 948.699 345.453, 946.136 345.430, 943.441 347.468 M 1020.250 391.662 C 1018.144 392.512, 1018.845 393.696, 1022.250 395.037 C 1037.079 400.876, 1041.303 404.480, 1048.798 417.685 C 1049.511 418.942, 1050.369 423.847, 1050.703 428.584 C 1051.392 438.343, 1052.435 437.871, 1053.361 427.384 C 1053.968 420.505, 1052.811 414, 1050.980 414 C 1050.526 414, 1049.667 412.520, 1049.069 410.710 C 1047.828 406.950, 1037.450 396.016, 1035.077 395.969 C 1034.210 395.952, 1031.250 394.831, 1028.500 393.478 C 1023.414 390.976, 1022.467 390.768, 1020.250 391.662 M 705.030 398.113 C 701.053 399.700, 696.193 403.817, 695.424 406.249 C 695.033 407.487, 693.896 409.075, 692.898 409.777 C 691.900 410.480, 691.338 411.717, 691.649 412.527 C 691.960 413.337, 691.716 414, 691.107 414 C 689.535 414, 689.733 420.252, 691.376 422.500 C 692.634 424.220, 692.852 423.919, 693.903 419.018 C 695.026 413.781, 699.153 407.812, 706.413 400.922 C 710.340 397.196, 709.845 396.191, 705.030 398.113 M 846.958 417.559 C 844.506 420.066, 839.575 423.553, 836 425.309 C 829.744 428.380, 829.031 428.500, 817 428.500 C 805.327 428.500, 804.159 428.320, 799.340 425.779 C 796.502 424.282, 792.535 421.357, 790.524 419.279 L 786.867 415.500 784.708 418.500 C 780.639 424.154, 769.306 434.500, 764.622 436.836 C 761.972 438.157, 757.042 439.460, 753.268 439.836 L 746.598 440.500 745.441 446.910 C 744.804 450.435, 743.636 453.810, 742.845 454.410 C 742.054 455.009, 740.841 456.888, 740.150 458.585 C 739.459 460.282, 736.688 463.352, 733.991 465.409 C 728.286 469.760, 728.202 469.979, 728.217 480.500 C 728.224 485.295, 727.616 490.102, 726.700 492.500 C 724.380 498.569, 723.924 501.351, 722.936 515.480 C 722.435 522.641, 721.744 529.732, 721.399 531.238 C 720.507 535.130, 722.965 535.710, 728.754 532.971 C 734.742 530.138, 747.202 528.515, 762 528.641 C 784.504 528.833, 796.890 534.679, 807.251 550 C 809.173 552.843, 810.170 553.450, 812.559 553.233 C 828.477 551.786, 834.801 551.846, 837.945 553.472 C 842.338 555.743, 845.366 554.783, 848.092 550.252 C 853.661 540.997, 864.545 534.283, 876.161 532.938 C 895.326 530.718, 919.619 532.385, 928.663 536.541 C 931.873 538.016, 936.320 540.068, 938.544 541.101 C 940.768 542.134, 945.071 545.463, 948.107 548.499 L 953.628 554.019 958.804 553.037 C 961.651 552.497, 964.548 552.250, 965.240 552.489 C 967.822 553.377, 985.132 554.887, 986.539 554.347 C 987.342 554.038, 988 552.730, 988 551.440 C 988 548.755, 986.042 544, 984.937 544 C 983.346 544, 982 537.321, 982 529.428 C 982 522.030, 982.269 520.834, 984.535 518.141 C 988.013 514.007, 987.113 510.910, 981.638 508.176 C 976.344 505.532, 973.384 502.188, 969.256 494.189 C 967.018 489.851, 966 486.491, 966 483.439 C 966 480.998, 965.550 479, 965 479 C 963.773 479, 963.662 470.769, 964.871 469.450 C 966.489 467.685, 967.024 463.263, 965.740 462.262 C 965.058 461.731, 960.874 461.289, 956.443 461.281 C 949.235 461.268, 947.709 460.910, 941.963 457.883 C 929.422 451.278, 920.024 439.717, 920.006 430.872 C 919.995 426.067, 917.634 425.365, 911.533 428.353 C 908.559 429.809, 905.498 431, 904.730 431 C 903.962 431, 902.996 431.337, 902.583 431.750 C 902.171 432.163, 901.533 432.539, 901.167 432.586 C 900.800 432.634, 899.600 433.084, 898.500 433.586 C 897.400 434.089, 892.225 434.461, 887 434.412 C 877.963 434.329, 877.171 434.142, 870.758 430.575 C 864.250 426.956, 856.875 419.909, 854.720 415.250 C 853.235 412.041, 851.993 412.410, 846.958 417.559 M 759.129 500.060 C 752.070 501.320, 740.613 507.360, 739.137 510.599 C 737.017 515.251, 737.704 519.653, 740.904 521.932 C 744.464 524.467, 751.342 524.674, 755.932 522.384 C 758.669 521.019, 761.236 520.879, 772.476 521.481 L 785.780 522.193 789.890 518.480 C 795.289 513.603, 795.558 509.338, 790.750 504.860 C 788.962 503.196, 786.375 501.383, 785 500.833 C 781.432 499.406, 765.468 498.928, 759.129 500.060 M 878.881 503.998 C 872.898 507.088, 868 512.008, 868 514.929 C 868 517.001, 872.135 523.461, 873.540 523.584 C 874.068 523.630, 875.625 524.134, 877 524.703 C 878.472 525.313, 883.743 525.530, 889.819 525.232 C 898.226 524.820, 902.080 525.152, 910.621 527.027 C 923.939 529.949, 927.637 529.317, 930.296 523.659 C 932.045 519.938, 932.042 519.703, 930.213 516.159 C 925.586 507.197, 910.689 500.965, 894.089 501.048 C 885.516 501.091, 883.904 501.404, 878.881 503.998 M 114.425 520.481 C 108.238 521.827, 99.679 526.412, 95.441 530.650 C 94.148 531.943, 92.620 533, 92.045 533 C 91.470 533, 91 533.614, 91 534.365 C 91 535.116, 90.077 536.904, 88.948 538.338 C 87.820 539.773, 86.183 543.042, 85.310 545.603 C 84.346 548.434, 82.994 550.450, 81.862 550.746 C 80.265 551.164, 80 552.251, 80 558.380 C 80 564.748, 80.237 565.633, 82.175 566.513 C 83.567 567.145, 85.009 569.460, 86.180 572.944 C 87.187 575.938, 88.391 578.638, 88.855 578.944 C 89.320 579.250, 90.245 580.534, 90.911 581.798 C 91.577 583.062, 93.219 584.513, 94.561 585.023 C 95.902 585.533, 97.001 586.524, 97.002 587.225 C 97.005 589.728, 105.342 593.794, 113.109 595.081 C 123.011 596.723, 132.477 595.305, 138.362 591.300 C 144.749 586.953, 152.903 578.011, 153.955 574.200 C 154.477 572.310, 155.670 569.917, 156.607 568.882 C 158.246 567.070, 161.175 567.001, 234.905 567.015 C 293.923 567.026, 312.063 567.315, 313.955 568.272 C 315.511 569.059, 317.055 571.315, 318.170 574.434 C 321.738 584.405, 333.106 593.303, 345.213 595.600 C 352.449 596.972, 353.872 596.963, 360.350 595.494 C 364.282 594.603, 369.649 592.497, 372.276 590.816 C 378.488 586.839, 385.324 578.611, 386.857 573.266 C 388.620 567.115, 390.206 566.608, 405.455 567.316 C 415.045 567.761, 420.619 568.564, 426.500 570.350 C 435.536 573.093, 440 574.978, 440 576.052 C 440 576.454, 441.047 577.046, 442.327 577.367 C 445.455 578.152, 457.772 586.534, 463.155 591.541 C 471.377 599.187, 481.005 611.497, 485.805 620.500 C 488.014 624.644, 491.243 633.830, 493.539 642.500 C 494.267 645.250, 496.771 651.100, 499.103 655.500 C 501.436 659.900, 504.279 665.412, 505.422 667.749 C 506.565 670.086, 507.970 671.999, 508.545 671.999 C 509.119 672, 511.343 674.300, 513.487 677.112 C 515.631 679.923, 520.224 684.046, 523.693 686.273 C 527.162 688.500, 530 690.872, 530 691.543 C 530 692.890, 523.743 698, 522.093 698 C 520.768 698, 512 706.074, 512 707.295 C 512 707.800, 510.843 709.122, 509.430 710.234 C 507.343 711.875, 500 725.310, 500 727.486 C 500 727.804, 499.253 729.737, 498.340 731.782 C 497.428 733.827, 496.602 735.725, 496.507 736 C 496.411 736.275, 495.808 737.767, 495.166 739.315 C 494.525 740.863, 494 742.992, 494 744.045 C 494 749.471, 484.601 769.558, 477.303 779.730 C 474.386 783.795, 472 787.544, 472 788.061 C 472 788.577, 471.413 789, 470.696 789 C 469.979 789, 467.842 790.624, 465.946 792.609 C 462.758 795.947, 458.539 799.137, 452.089 803.084 C 447.664 805.792, 440.008 809.970, 439.481 809.965 C 439.205 809.962, 437.726 810.607, 436.195 811.399 C 432.629 813.243, 412.068 816.721, 400.817 817.382 C 390.595 817.984, 387.557 816.485, 386.390 810.268 C 385.910 807.709, 384.130 805.058, 380.421 801.378 C 373.467 794.480, 371.530 793.296, 363.373 790.964 C 354.819 788.517, 350.277 788.495, 341.754 790.859 C 331.684 793.651, 320.926 802.984, 318.897 810.688 C 316.755 818.822, 318.690 818.463, 275.146 818.790 C 253.891 818.950, 235.525 818.838, 234.334 818.542 C 232.914 818.189, 231.100 815.852, 229.062 811.752 C 227.247 808.098, 224.226 804.046, 221.793 802 C 219.504 800.075, 216.386 797.239, 214.866 795.698 C 212.827 793.632, 209.843 792.339, 203.504 790.774 C 195.667 788.840, 194.313 788.767, 188.203 789.959 C 179.968 791.566, 176.945 793.033, 170.350 798.620 C 165.068 803.096, 158.541 812.915, 158.448 816.525 C 158.419 817.639, 157.998 819.195, 157.511 819.983 C 156.242 822.036, 156.416 833.816, 157.734 835.134 C 158.345 835.745, 158.604 836.868, 158.311 837.632 C 158.018 838.396, 158.953 840.561, 160.389 842.443 C 161.825 844.326, 163 846.517, 163 847.313 C 163 849.247, 170.602 857, 172.499 857 C 173.325 857, 174 857.420, 174 857.933 C 174 858.446, 175.012 859.166, 176.250 859.533 C 177.487 859.900, 180.262 861.393, 182.415 862.850 C 185.938 865.235, 187.238 865.500, 195.415 865.500 C 203.634 865.500, 204.903 865.238, 208.730 862.750 C 211.057 861.237, 213.364 860, 213.859 860 C 215.932 860, 228.921 846.368, 229.580 843.500 C 230.836 838.028, 232.561 837, 240.488 837 C 244.436 837, 247.919 836.748, 248.227 836.440 C 248.534 836.132, 261.420 835.920, 276.861 835.969 C 297.858 836.035, 305.445 835.739, 306.957 834.795 C 309.750 833.050, 315.849 836.343, 317.503 840.489 C 321.086 849.467, 325.791 856, 328.674 856 C 329.403 856, 330 856.407, 330 856.903 C 330 857.400, 333.262 859.491, 337.250 861.549 C 343.868 864.965, 345.241 865.300, 353 865.394 C 360.742 865.487, 362.004 865.218, 367.144 862.380 C 378.941 855.866, 384.325 850.988, 386.040 845.262 C 386.738 842.931, 388.890 839.444, 390.821 837.512 C 394.528 833.805, 395.497 833.377, 396.500 835 C 396.840 835.550, 398.415 836, 400 836 C 401.585 836, 403.160 835.550, 403.500 835 C 403.840 834.450, 405.725 834, 407.690 834 C 413.158 834, 431.186 830.944, 434 829.540 C 435.375 828.853, 438.697 827.755, 441.383 827.098 C 448.709 825.307, 460.544 818.914, 468.912 812.226 C 482.942 801.014, 500.500 779.916, 502.505 771.858 C 502.867 770.405, 504.251 767.066, 505.581 764.439 C 506.912 761.811, 508 759.088, 508 758.388 C 508 757.687, 508.916 755.562, 510.035 753.666 C 511.154 751.769, 512.497 747.590, 513.020 744.379 C 514.123 737.598, 518.323 727.027, 521.911 722 C 525.734 716.644, 531.340 711.036, 532.890 711.017 C 533.655 711.008, 536.130 710.136, 538.390 709.081 C 544.076 706.425, 546.305 705.654, 547.675 705.869 C 548.321 705.970, 549.135 705.591, 549.484 705.027 C 549.833 704.462, 551.891 704, 554.059 704 C 557.520 704, 558 704.284, 558 706.331 C 558 707.801, 557.066 709.162, 555.470 710.016 C 551.649 712.061, 544 721.848, 544 724.692 C 544 728.471, 549.102 733, 553.359 733 C 556.430 733, 557.601 732.174, 562.685 726.423 C 565.883 722.805, 568.823 718.980, 569.218 717.923 C 569.613 716.865, 570.625 716, 571.468 716 C 572.310 716, 573 715.325, 573 714.500 C 573 713.675, 573.381 713, 573.847 713 C 575.553 713, 590.101 699.804, 592.662 695.935 C 596.099 690.741, 595.388 689.182, 585.276 679.744 C 581.007 675.760, 573.089 668.112, 567.681 662.750 C 556.153 651.319, 553.981 650.627, 547.695 656.385 C 541.423 662.130, 541.953 663.515, 555.054 675.613 C 556.674 677.109, 558 678.933, 558 679.667 C 558 681.422, 553.541 681.385, 550.154 679.603 C 548.694 678.835, 544.350 676.738, 540.500 674.943 C 535.842 672.772, 531.605 669.764, 527.836 665.952 C 524.721 662.802, 521.773 660.061, 521.285 659.862 C 520.049 659.358, 513 645.201, 513 643.224 C 513 642.335, 511.882 639.994, 510.516 638.023 C 509.149 636.051, 507.586 632.092, 507.043 629.225 C 506.499 626.358, 505.404 622.997, 504.608 621.756 C 503.813 620.515, 502.673 617.640, 502.074 615.366 C 501.476 613.093, 500.314 610.675, 499.493 609.994 C 498.672 609.313, 498 608.271, 498 607.679 C 498 605.265, 488.178 592.216, 479.631 583.275 C 470.886 574.128, 461.008 566.556, 456.250 565.352 C 455.012 565.039, 454 564.359, 454 563.841 C 454 563.322, 452.312 562.220, 450.250 561.392 C 448.188 560.564, 443.350 558.602, 439.500 557.031 C 435.650 555.461, 428.900 553.404, 424.500 552.460 C 420.100 551.516, 415.520 550.293, 414.322 549.742 C 413.124 549.190, 410.976 548.963, 409.548 549.236 C 408.120 549.508, 406.711 549.342, 406.417 548.866 C 405.644 547.615, 396.600 547.800, 395.307 549.093 C 393.488 550.912, 389.307 547.338, 386.600 541.652 C 385.251 538.819, 382.651 534.891, 380.823 532.924 C 374.031 525.615, 360.639 519, 352.632 519 C 349.075 519, 336.718 521.958, 336 522.982 C 335.725 523.374, 333.199 525.001, 330.388 526.597 C 324.136 530.147, 319.947 534.955, 317.587 541.292 C 316.606 543.927, 314.679 546.819, 313.306 547.719 C 310.682 549.439, 306 550.120, 306 548.783 C 306 547.879, 222.837 547.939, 184.687 548.870 C 155.719 549.577, 157.012 549.866, 153.970 542 C 150.213 532.285, 139.632 523.441, 128.205 520.465 C 121.689 518.768, 122.300 518.767, 114.425 520.481 M 113.746 538.941 C 106.131 541.397, 101.194 548.939, 101.074 558.300 C 100.990 564.910, 102.726 569.029, 107.229 572.903 C 111.793 576.828, 114.889 577.905, 121.747 577.955 C 127.505 577.996, 128.296 577.727, 131.849 574.517 C 133.969 572.602, 136.947 569.241, 138.467 567.048 C 140.964 563.444, 141.192 562.402, 140.840 556.176 C 140.509 550.316, 140.008 548.760, 137.476 545.725 C 135.839 543.764, 133.076 541.446, 131.335 540.573 C 127.493 538.648, 117.525 537.723, 113.746 538.941 M 346 539.174 C 334.651 541.704, 328.363 556.447, 334.250 566.723 C 335.488 568.884, 338.263 572.192, 340.417 574.076 C 344.171 577.357, 344.663 577.500, 352.262 577.500 C 359.712 577.500, 360.322 577.334, 362.382 574.750 C 363.588 573.237, 365.078 572, 365.693 572 C 366.307 572, 367.978 570.007, 369.405 567.572 C 372.314 562.609, 372.900 555.087, 370.750 550.326 C 369.426 547.393, 362.844 540.923, 360.121 539.878 C 356.624 538.534, 350.287 538.219, 346 539.174 M 742.125 546.750 C 741.369 547.025, 739.952 547.981, 738.976 548.875 C 738 549.769, 735.566 551.625, 733.567 553 C 729.405 555.863, 724 565.572, 724 570.186 C 724 574.057, 726.008 573.432, 727.463 569.108 C 728.069 567.310, 732.323 561.794, 736.916 556.853 C 744.357 548.848, 746.203 545.267, 742.125 546.750 M 876.727 553 C 875.329 554.100, 873.715 555, 873.140 555 C 870.555 555, 860.109 568.609, 860.758 571.131 C 860.848 571.478, 860.038 572.560, 858.960 573.536 C 856.978 575.330, 856.225 580, 857.918 580 C 858.424 580, 859.810 578.425, 861 576.500 C 862.190 574.575, 863.522 573, 863.960 573 C 864.399 573, 865.271 571.763, 865.898 570.250 C 866.525 568.737, 870.397 564.182, 874.503 560.128 C 881.116 553.596, 882.701 551, 880.076 551 C 879.632 551, 878.126 551.900, 876.727 553 M 699.782 563.110 C 696.522 568.138, 695.618 574.544, 696.235 588.239 C 696.679 598.088, 698.300 603.831, 701.130 605.580 C 702.287 606.296, 705.072 602.925, 704.323 601.714 C 704.049 601.270, 704.794 598.843, 705.979 596.322 C 707.848 592.346, 707.971 591.323, 706.907 588.619 C 706.232 586.903, 705.302 585.072, 704.840 584.550 C 703.549 583.090, 703.840 568.229, 705.202 566.048 C 706.152 564.527, 706.117 563.587, 705.033 561.562 C 704.279 560.153, 703.389 559, 703.054 559 C 702.720 559, 701.247 560.850, 699.782 563.110 M 1023.693 570.286 C 1017.937 573.146, 1011.487 580.592, 1010.580 585.424 C 1009.671 590.273, 1006.170 598.051, 1003.664 600.795 C 1001.927 602.695, 1001.779 603.383, 1002.804 604.795 C 1006.620 610.057, 1007.123 612.879, 1006.016 622.805 C 1005.284 629.375, 1004.471 632.716, 1003.470 633.277 C 1001.415 634.427, 1001.601 640.348, 1003.750 642.190 C 1004.712 643.015, 1007.381 644.418, 1009.679 645.309 C 1013.435 646.763, 1014.432 646.778, 1019.511 645.455 C 1026.555 643.620, 1028.297 642.708, 1034.348 637.679 C 1041.294 631.906, 1047.105 623.571, 1049.094 616.527 C 1050.029 613.212, 1051.291 609.233, 1051.898 607.685 C 1052.504 606.137, 1053 601.280, 1053 596.893 C 1053 590.123, 1052.546 587.946, 1050 582.500 C 1048.350 578.971, 1047 575.667, 1047 575.158 C 1047 574.650, 1046.213 573.972, 1045.250 573.653 C 1044.287 573.334, 1042.369 572.148, 1040.986 571.017 C 1036.956 567.723, 1029.489 567.407, 1023.693 570.286 M 814.540 571.347 C 813.149 572.364, 812.547 574.553, 812.077 580.290 C 811.622 585.858, 810.916 588.502, 809.433 590.193 C 808.320 591.462, 806.822 594.232, 806.104 596.349 C 804.213 601.925, 799.760 608.105, 793.528 613.800 C 788.415 618.474, 785.361 620.272, 775.500 624.416 C 773.300 625.340, 770.719 626.525, 769.764 627.048 C 767.611 628.228, 751.750 628.312, 750.450 627.151 C 749.928 626.684, 746.223 625.113, 742.218 623.660 C 738.212 622.207, 734.387 620.575, 733.718 620.033 C 733.048 619.492, 729.818 616.766, 726.540 613.977 C 720.585 608.909, 720.579 608.907, 718.964 611.047 C 717.342 613.198, 717.030 616.363, 718.313 617.646 C 718.691 618.024, 719 621.997, 719 626.476 C 719 635.311, 719.318 636.018, 725.250 640.358 C 727.313 641.867, 729 643.754, 729 644.551 C 729 645.348, 729.477 646, 730.059 646 C 730.641 646, 730.840 646.450, 730.500 647 C 730.160 647.550, 730.355 648, 730.933 648 C 731.511 648, 732.776 649.688, 733.744 651.750 C 735.316 655.098, 735.982 655.554, 739.966 656 C 744.094 656.463, 744.540 656.799, 745.931 660.500 C 747.843 665.590, 748.989 666.816, 751.278 666.217 C 752.398 665.924, 754.232 666.806, 755.977 668.477 C 759.550 671.901, 760.564 671.300, 761.390 665.272 C 762.545 656.842, 766.635 646.961, 770.713 642.748 C 775.419 637.886, 777.951 636.548, 785.318 635.029 C 788.517 634.370, 793.593 632.743, 796.596 631.415 C 803.599 628.318, 807.431 628.372, 815.488 631.681 L 822.016 634.361 827.258 632.233 C 836.323 628.553, 838.734 628.516, 846.353 631.934 C 851.164 634.093, 854.733 635, 858.413 635 C 862.914 635, 864.391 635.547, 869.069 638.947 C 878.284 645.646, 884 650.293, 884 651.087 C 884 651.505, 885.047 653.119, 886.327 654.673 C 888.396 657.186, 892.398 668.109, 893.225 673.500 C 893.507 675.339, 894.279 675.496, 902.830 675.446 L 912.127 675.391 915.555 671.649 C 918.717 668.197, 919.276 667.963, 922.742 668.631 C 929.119 669.861, 930.369 669.629, 931.663 666.974 C 933.711 662.772, 937.442 659.991, 942.091 659.199 C 945.916 658.548, 946.770 657.922, 948.538 654.474 C 949.845 651.925, 951.933 649.830, 954.363 648.632 C 956.446 647.604, 958.657 645.579, 959.275 644.132 C 959.894 642.684, 963.010 638.726, 966.200 635.337 C 969.612 631.711, 972 628.275, 972 626.991 C 972 624.233, 974.622 619.428, 978.373 615.308 C 980.370 613.116, 981.538 610.485, 982.103 606.912 C 982.555 604.050, 983.797 600.761, 984.862 599.604 C 986.585 597.733, 986.782 596.094, 986.650 584.800 C 986.567 577.791, 986.052 571.703, 985.500 571.215 C 984.923 570.706, 978.785 570.698, 971 571.196 C 958.358 572.006, 957.357 572.221, 955.250 574.586 C 954.013 575.975, 953 578.185, 953 579.497 C 953 580.809, 952.625 582.114, 952.167 582.397 C 951.708 582.680, 951.527 584.228, 951.763 585.838 C 951.999 587.447, 951.699 589.068, 951.096 589.441 C 950.493 589.813, 950 591.381, 950 592.924 C 950 594.468, 949.165 596.803, 948.145 598.115 C 947.125 599.427, 945.775 602.075, 945.144 604 C 942.756 611.285, 923.324 629.106, 919.407 627.603 C 918.633 627.306, 917.996 627.386, 917.991 627.781 C 917.987 628.177, 915.174 629.400, 911.741 630.500 C 900.902 633.974, 887.311 633.164, 873 628.194 C 872.175 627.907, 871.275 627.622, 871 627.560 C 870.031 627.342, 860.471 621.602, 858.176 619.860 C 855.631 617.928, 852.240 613.376, 847.242 605.182 C 844.116 600.057, 841.800 592.003, 839.901 579.656 C 839.407 576.442, 838.773 573.441, 838.492 572.987 C 836.851 570.331, 817.721 569.021, 814.540 571.347 M 814.829 660.892 C 805.676 661.534, 804.404 662.003, 805.323 664.399 C 806.854 668.389, 810.925 669.471, 825.871 669.857 C 838.944 670.195, 840.486 670.055, 841.679 668.425 C 842.405 667.431, 843 665.873, 843 664.962 C 843 663.336, 842.235 663.143, 826 660.665 C 824.625 660.455, 819.598 660.557, 814.829 660.892 M 787 661.648 C 782.543 662.884, 778.987 675.587, 782.200 678.800 C 782.860 679.460, 783.030 680, 782.578 680 C 782.125 680, 782.198 680.563, 782.740 681.250 C 783.281 681.938, 784.039 683.814, 784.424 685.421 C 785.111 688.287, 788.971 694.122, 789.030 692.385 C 789.047 691.898, 789.487 692.229, 790.007 693.119 C 790.527 694.010, 793.681 695.759, 797.014 697.005 C 804.523 699.813, 806.378 699.158, 809.956 692.437 L 812.584 687.500 822.542 687.839 C 832.009 688.161, 832.653 688.324, 835.610 691.149 C 837.320 692.783, 839.251 695.893, 839.900 698.060 C 840.959 701.595, 841.410 701.997, 844.290 701.967 C 846.056 701.949, 849.975 701.064, 853 700 C 856.025 698.936, 859.743 698.051, 861.263 698.033 C 863.638 698.005, 864.400 697.194, 866.699 692.250 C 871.234 682.496, 869.174 670.108, 862.189 665.134 C 857.193 661.577, 856.313 662.184, 856.796 668.858 C 857.257 675.226, 857.276 675.193, 850.500 679.673 C 843.764 684.127, 838.764 685.131, 826.500 684.495 C 807.311 683.500, 805.555 683.174, 801.936 679.942 C 800.123 678.324, 798.064 677, 797.360 677 C 795.372 677, 791 671.765, 791 669.383 C 791 668.207, 791.675 666.685, 792.500 666 C 793.325 665.315, 794 663.910, 794 662.878 C 794 661.026, 791.087 660.515, 787 661.648 M 932.592 736.500 C 931.691 737.875, 930.344 739, 929.599 739 C 928.854 739, 927.678 739.683, 926.985 740.518 C 925.255 742.602, 919.555 745.202, 917.329 744.923 C 915.483 744.690, 913.966 745.137, 908.500 747.524 C 906.850 748.245, 903.700 749.157, 901.500 749.552 C 899.300 749.947, 895.559 751.393, 893.187 752.766 C 889.338 754.995, 888.176 755.192, 882.358 754.596 C 875.891 753.933, 869.430 755.217, 867.765 757.495 C 867.279 758.160, 867.020 758.162, 867 757.500 C 866.983 756.950, 866.611 757.065, 866.172 757.755 C 865.075 759.483, 830.786 759.858, 830.216 758.148 C 830.003 757.510, 829.375 757.268, 828.819 757.612 C 828.264 757.955, 826.840 757.770, 825.655 757.201 C 822.372 755.626, 814.019 753.870, 812.949 754.532 C 810.435 756.085, 812.217 759.997, 817.736 765.042 C 825.771 772.385, 829.304 774.461, 838.802 777.416 C 846.010 779.660, 848.842 779.994, 860.302 779.956 C 869.689 779.925, 874.655 779.468, 877.500 778.374 C 879.700 777.528, 883.761 776.262, 886.523 775.561 C 889.286 774.860, 893.111 773.453, 895.023 772.435 C 896.936 771.417, 898.725 770.548, 899 770.504 C 901.022 770.182, 915.088 761.485, 917.500 759.067 C 920.765 755.793, 921.066 755.493, 930.509 746.156 C 934.038 742.667, 937.197 738.955, 937.530 737.906 C 937.863 736.858, 938.581 736, 939.126 736 C 939.672 736, 939.840 735.550, 939.500 735 C 938.315 733.083, 934.253 733.965, 932.592 736.500 M 608.288 784.250 C 607.154 785.487, 605.216 789.309, 603.982 792.743 C 602.142 797.859, 600.852 799.660, 596.829 802.729 C 592.033 806.386, 590.478 809.085, 591.161 812.564 C 591.543 814.506, 592.279 814.958, 600 817.991 C 603.025 819.180, 606.310 821.095, 607.300 822.248 C 609.548 824.866, 619.890 828.510, 621.240 827.160 C 622.278 826.122, 621.294 821.702, 620.178 822.388 C 619.805 822.617, 618.375 821.286, 617 819.430 C 615.625 817.574, 613.986 816.043, 613.357 816.028 C 611.225 815.976, 608.776 807.711, 609.597 803.336 C 610.033 801.010, 611.789 798.878, 616.144 795.384 C 623.029 789.862, 623.637 786.896, 618.500 783.897 C 614.322 781.459, 610.731 781.583, 608.288 784.250 M 347.910 807.395 C 338.469 810.707, 332.292 819.371, 333.300 827.887 C 334.214 835.600, 336.661 840.407, 341.301 843.604 C 344.959 846.125, 346.409 846.498, 352.559 846.499 C 358.801 846.500, 359.996 846.182, 362.886 843.750 C 364.683 842.237, 366.569 841, 367.077 841 C 367.585 841, 368 840.325, 368 839.500 C 368 838.675, 368.360 838, 368.799 838 C 370.303 838, 372 831.362, 372 825.483 C 372 820.757, 371.482 818.860, 369.351 815.785 C 367.895 813.683, 365.645 811.698, 364.351 811.373 C 363.058 811.049, 362 810.437, 362 810.013 C 362 809.168, 357.928 807.456, 354 806.649 C 352.625 806.367, 349.884 806.702, 347.910 807.395 M 186.411 809.572 C 175.271 815.312, 171.651 831.760, 179.670 840.203 C 186.665 847.569, 196.294 849.102, 204.173 844.105 C 212.586 838.770, 214.708 834.233, 214.175 822.717 C 213.959 818.053, 209.731 813.477, 202.091 809.639 C 195.525 806.342, 192.705 806.329, 186.411 809.572 M 588 827.729 C 584.089 829.218, 584.602 834.191, 589.350 840.824 C 591.987 844.507, 592.820 845.054, 594.973 844.513 C 601.389 842.902, 603.062 842.885, 606.091 844.396 C 612.138 847.412, 615.332 845.962, 612.422 841.521 C 611.308 839.821, 609.500 838.784, 606.935 838.374 C 604.106 837.921, 601.674 836.361, 597.598 832.381 C 592.210 827.121, 591.061 826.564, 588 827.729" stroke="none" fill="#171916" fill-rule="evenodd"/>
</svg>