<svg role="img" aria-labelledby="artwork-title" shape-rendering="geometricPrecision" xmlns="http://www.w3.org/2000/svg" width="1200" height="1200" viewBox="0 0 1200 1200" version="1.1">
	<title id="artwork-title">Mascot resolving a merge conflict</title>
	<path d="M 914 282.891 C 914 283.380, 912.538 284.005, 910.750 284.279 C 906.219 284.973, 895.098 289.119, 891.500 291.456 C 889.850 292.528, 886.598 295.113, 884.272 297.202 C 879.254 301.711, 875.781 302.121, 873.400 298.487 C 872.486 297.093, 867.946 294.088, 863.201 291.737 L 854.649 287.500 840.075 287.504 L 825.500 287.507 817.835 291.298 C 809.874 295.236, 797.857 305.903, 795.609 311.028 C 793.686 315.410, 788.560 321.956, 787.033 321.979 C 786.227 321.990, 783.615 321.255, 781.230 320.344 C 777.562 318.943, 775.782 318.853, 769.696 319.758 C 755.260 321.907, 749.077 324.641, 739.745 333 C 728.977 342.644, 722.372 355.040, 721.123 367.943 L 720.500 374.387 712.835 378.443 C 702.322 384.007, 692.328 393.865, 689.802 401.161 C 689.166 402.998, 687.828 405.850, 686.827 407.500 C 685.826 409.150, 685.006 411.437, 685.004 412.583 C 685.002 413.729, 684.736 414.931, 684.413 415.254 C 684.090 415.576, 683.826 419.962, 683.826 425 C 683.826 430.038, 684.090 434.424, 684.413 434.746 C 684.736 435.069, 685.003 436.271, 685.007 437.417 C 685.010 438.563, 685.907 440.850, 687 442.500 C 688.093 444.150, 688.990 446.286, 688.993 447.247 C 688.997 448.208, 690.575 450.738, 692.500 452.868 C 696.753 457.576, 696.870 459.665, 693.114 463.872 C 689.462 467.963, 687.394 479.515, 688.486 489.728 C 689.343 497.745, 690.386 499.922, 696.437 506.334 C 698.947 508.993, 701.046 511.693, 701.102 512.334 C 701.158 512.975, 701.270 518.285, 701.352 524.134 C 701.495 534.429, 701.603 534.911, 704.750 539.297 C 708.847 545.008, 708.911 547.950, 705 550.842 C 703.350 552.062, 702 553.643, 702 554.356 C 702 555.068, 700.875 556.708, 699.500 558 C 698.125 559.292, 696.995 560.833, 696.990 561.424 C 696.984 562.016, 695.882 564.525, 694.541 567 C 689.980 575.417, 689.835 576.173, 689.805 591.776 C 689.779 605.181, 690.049 607.783, 692.010 613.026 C 693.238 616.312, 694.667 619, 695.185 619 C 695.702 619, 695.991 619.795, 695.826 620.767 C 695.662 621.738, 696.636 624.326, 697.992 626.517 C 699.348 628.708, 700.692 631.027, 700.979 631.672 C 701.265 632.317, 704.024 635.510, 707.109 638.767 L 712.718 644.691 713.204 657.095 C 713.596 667.077, 714.112 670.367, 715.845 673.938 C 717.030 676.379, 718 679.165, 718 680.129 C 718 681.093, 718.450 682.160, 719 682.500 C 719.550 682.840, 720.007 684.329, 720.015 685.809 C 720.023 687.289, 720.679 689.625, 721.472 691 C 722.265 692.375, 723.402 694.591, 723.998 695.924 C 724.595 697.256, 726.076 699.318, 727.291 700.505 C 728.506 701.692, 731.473 705.889, 733.884 709.831 C 736.295 713.774, 738.575 717, 738.950 717 C 740.181 717, 760 736.710, 760 737.934 C 760 738.592, 762.293 741.364, 765.096 744.094 C 767.899 746.824, 769.967 749.644, 769.692 750.361 C 769.417 751.078, 766.561 752.915, 763.346 754.444 C 746.240 762.576, 734.383 771.315, 720.997 785.656 C 717.420 789.488, 713.820 793.564, 712.997 794.714 C 707.068 802.997, 701.758 811.335, 700.508 814.327 C 699.695 816.272, 698.623 818.115, 698.126 818.422 C 697.629 818.730, 696.919 820.189, 696.548 821.664 C 696.178 823.140, 694.590 826.182, 693.021 828.424 C 691.451 830.666, 689.849 834.075, 689.459 836 C 689.070 837.925, 687.907 840.694, 686.876 842.154 C 685.844 843.614, 685 845.500, 685 846.345 C 685 847.190, 684.543 848.165, 683.984 848.510 C 683.425 848.856, 683.216 849.540, 683.520 850.032 C 683.824 850.523, 682.944 852.712, 681.566 854.895 C 680.110 857.203, 678.605 861.714, 677.973 865.666 C 677.376 869.407, 676.012 874.444, 674.944 876.861 C 673.875 879.277, 673 882.520, 673 884.068 C 673 885.616, 672.519 887.179, 671.931 887.542 C 671.343 887.906, 670.979 890.397, 671.121 893.078 C 671.264 895.760, 671.070 898.264, 670.690 898.643 C 669.666 899.667, 669.854 903.792, 670.956 904.473 C 671.482 904.798, 671.677 905.679, 671.389 906.430 C 670.452 908.870, 678.825 915.860, 683.413 916.469 C 685.661 916.768, 727.196 916.897, 775.714 916.756 C 856.995 916.520, 864.061 916.367, 865.619 914.810 C 867.205 913.223, 867.192 912.955, 865.404 910.420 C 864.357 908.935, 863.050 906.995, 862.500 906.110 C 861.950 905.224, 861.050 904.169, 860.500 903.765 C 859.877 903.308, 859.867 903.025, 860.473 903.015 C 861.007 903.007, 860.445 902.299, 859.223 901.443 C 858 900.587, 857 899.325, 857 898.639 C 857 897.953, 855.701 895.343, 854.113 892.839 C 852.525 890.335, 850.898 887.209, 850.498 885.893 C 850.098 884.577, 848.943 882.594, 847.933 881.486 C 846.922 880.379, 845.420 877.857, 844.595 875.883 C 842.632 871.184, 839.575 869.304, 830.945 867.488 C 827.042 866.667, 821.787 864.788, 819.268 863.311 C 812.751 859.492, 801.281 847.782, 795.454 839 C 790.606 831.692, 790.364 831.492, 785.989 831.183 C 780.770 830.815, 777.594 828.328, 775.939 823.314 C 774.594 819.239, 775.594 817.619, 780.443 816.019 C 787.434 813.712, 788.660 802.494, 782.461 797.551 C 780.181 795.733, 779.994 795.146, 780.918 792.715 C 782.091 789.630, 782.518 789.415, 789.238 788.515 C 791.844 788.166, 794.703 787.154, 795.591 786.266 C 798.815 783.042, 795.102 774.119, 789.842 772.450 C 787.287 771.639, 787.352 766.417, 789.934 765.035 C 792.799 763.502, 795.611 763.765, 800.236 766 C 804.708 768.161, 806.643 768.483, 807.167 767.155 C 807.350 766.691, 808.850 765.675, 810.500 764.898 C 815.694 762.452, 815.068 759.228, 808.035 752.195 C 804.695 748.855, 801.063 745.837, 799.963 745.488 C 798.863 745.139, 796.541 743.555, 794.803 741.967 C 793.064 740.379, 790.480 738.825, 789.060 738.513 C 787.640 738.201, 784.346 736.123, 781.739 733.895 C 773.728 727.048, 775.832 723.082, 787.500 723.036 C 792.545 723.015, 795.338 723.516, 797.500 724.829 C 799.150 725.830, 802.750 727.206, 805.500 727.885 C 808.250 728.565, 812.075 730.174, 814 731.461 C 815.925 732.747, 818.589 734.125, 819.921 734.521 C 822.743 735.363, 832.574 741.502, 833.502 743.003 C 833.850 743.567, 835.793 744.883, 837.818 745.927 C 839.843 746.971, 844.995 751.060, 849.267 755.012 C 855.585 760.857, 857.668 762.217, 860.429 762.295 C 865.221 762.431, 866.676 760.764, 867.479 754.220 C 868.329 747.290, 870.574 743.409, 876.581 738.487 C 882.064 733.994, 887.939 732.369, 891.820 734.272 C 894.121 735.400, 894.466 736.135, 894.260 739.468 C 894.126 741.632, 893.167 744.269, 892.093 745.425 C 887.629 750.234, 885.012 765.733, 887.483 772.734 C 888.731 776.269, 889.284 782.149, 889.627 795.500 C 889.882 805.400, 890.312 814.946, 890.583 816.712 C 891.150 820.403, 898.442 828.099, 916.279 843.831 C 922.451 849.274, 928.357 854.689, 929.405 855.864 C 930.453 857.039, 931.746 858, 932.280 858 C 932.813 858, 935.331 860.138, 937.875 862.750 C 940.419 865.362, 943.744 868.056, 945.265 868.735 C 946.785 869.415, 948.541 871.094, 949.166 872.466 C 949.792 873.839, 951.063 875.203, 951.992 875.497 C 952.921 875.792, 956.403 878.838, 959.730 882.267 C 963.057 885.695, 967.291 889.867, 969.139 891.537 C 973.276 895.274, 978.573 901.363, 978.145 901.888 C 976.478 903.937, 987.512 904.689, 990.119 902.704 C 992.405 900.963, 993.352 895.597, 992.063 891.691 C 990.865 888.059, 985.346 882.328, 980.250 879.422 C 978.462 878.403, 977 877.099, 977 876.525 C 977 875.020, 980.790 872.851, 981.477 873.963 C 981.790 874.470, 984.174 875.182, 986.773 875.547 C 989.373 875.911, 993.075 877.245, 995 878.510 C 996.925 879.776, 999.929 881.108, 1001.676 881.469 C 1003.424 881.831, 1005.546 883.184, 1006.393 884.476 C 1007.239 885.769, 1009.292 887.125, 1010.955 887.490 C 1012.617 887.855, 1014.245 888.587, 1014.573 889.117 C 1014.900 889.647, 1017.037 891.261, 1019.322 892.703 C 1021.607 894.146, 1028.138 900.090, 1033.836 905.913 L 1044.196 916.500 1067.348 916.699 C 1093.574 916.924, 1098.307 916.241, 1100.549 911.906 C 1101.347 910.362, 1102 908.475, 1102 907.711 C 1102 905.709, 1107.074 889.663, 1108.035 888.628 C 1108.480 888.149, 1108.604 887.130, 1108.310 886.365 C 1108.016 885.600, 1108.237 884.418, 1108.801 883.737 C 1112.589 879.165, 1112.911 837.994, 1109.228 829 C 1108.891 828.175, 1108.577 827.050, 1108.531 826.500 C 1108.485 825.950, 1108.188 825.050, 1107.871 824.500 C 1107.555 823.950, 1106.051 819.675, 1104.530 815 C 1103.009 810.325, 1099.905 803.428, 1097.632 799.673 C 1095.359 795.919, 1092.600 791.332, 1091.500 789.480 C 1087.625 782.959, 1069.254 765.165, 1060.500 759.454 C 1057.200 757.301, 1054.350 755.193, 1054.167 754.770 C 1053.983 754.346, 1053.499 754, 1053.090 754 C 1052.681 754, 1048.591 751.975, 1044 749.500 C 1039.409 747.025, 1035.056 745, 1034.327 745 C 1033.597 745, 1033 744.530, 1033 743.956 C 1033 743.382, 1032.438 743.022, 1031.750 743.156 C 1031.063 743.290, 1028.700 742.459, 1026.500 741.310 C 1024.300 740.161, 1020.250 738.537, 1017.500 737.703 C 1014.750 736.868, 1010.827 735.468, 1008.782 734.592 C 1006.737 733.716, 1003.358 733, 1001.273 733 C 998.691 733, 997.119 732.420, 996.346 731.182 C 995.380 729.635, 996.076 728.405, 1001.016 722.932 C 1004.209 719.394, 1007.649 715.726, 1008.661 714.781 C 1020.146 704.045, 1031.989 687.264, 1032.015 681.688 C 1032.024 679.934, 1032.361 677.991, 1032.765 677.369 C 1033.227 676.659, 1038.415 676.088, 1046.725 675.833 C 1058.416 675.475, 1060.272 675.176, 1062.725 673.259 C 1064.251 672.066, 1067.525 670.080, 1070 668.846 C 1083.201 662.263, 1098.894 639.392, 1102.644 621.270 C 1104.904 610.349, 1104.151 592.262, 1101.176 585.990 C 1098.405 580.148, 1096.009 576.098, 1093.240 572.577 C 1089.937 568.379, 1090.413 566.182, 1096.635 556.903 L 1102.269 548.500 1101.652 536.182 L 1101.035 523.864 1107.361 517.380 C 1118.065 506.410, 1121.668 494.055, 1118.701 478.500 C 1116.906 469.090, 1113.955 463.452, 1107.044 456.226 C 1104.270 453.326, 1102 450.108, 1102 449.076 C 1102 448.043, 1103.121 444.791, 1104.490 441.849 C 1105.860 438.907, 1106.985 435.067, 1106.990 433.315 C 1106.996 431.563, 1107.433 428.992, 1107.962 427.601 C 1108.491 426.209, 1108.553 424.842, 1108.101 424.562 C 1107.648 424.283, 1107.051 421.227, 1106.774 417.772 C 1106.252 411.275, 1101.156 399.150, 1097.052 394.642 C 1095.980 393.464, 1093 390.137, 1090.430 387.250 C 1087.861 384.363, 1085.332 382, 1084.810 382 C 1084.287 382, 1081.942 380.680, 1079.597 379.067 C 1074.494 375.556, 1064.415 372, 1059.567 372 C 1055.380 372, 1054 370.005, 1054 363.950 C 1054 359.821, 1051.152 349.796, 1049.806 349.185 C 1049.425 349.012, 1049.360 348.225, 1049.663 347.435 C 1049.966 346.646, 1049.716 346, 1049.107 346 C 1048.498 346, 1048 345.573, 1048 345.050 C 1048 343.368, 1041.968 335.099, 1037.166 330.199 C 1032.510 325.448, 1023.749 319, 1021.950 319 C 1021.427 319, 1021 318.550, 1021 318 C 1021 317.450, 1019.763 317, 1018.250 316.999 C 1016.737 316.999, 1013.133 316.099, 1010.239 314.999 C 1003.562 312.462, 998.447 312.478, 988.204 315.068 C 978.757 317.457, 974.961 317.310, 973.523 314.500 C 965.810 299.424, 950.128 286.873, 935.750 284.271 C 934.237 283.997, 933 283.374, 933 282.887 C 933 282.399, 928.725 282, 923.500 282 C 918.275 282, 914 282.401, 914 282.891 M 908.394 301.896 C 902.827 303.317, 894.556 308.773, 889.223 314.542 C 883.590 320.637, 883.113 321.722, 885.643 322.693 C 886.750 323.118, 888.139 322.287, 889.893 320.153 C 891.327 318.409, 892.885 316.986, 893.356 316.991 C 893.827 316.996, 895.097 315.875, 896.179 314.500 C 897.260 313.125, 898.917 312, 899.861 312 C 900.805 312, 903.360 311.053, 905.539 309.895 C 911.300 306.834, 928.056 305.758, 931.255 308.243 C 932.490 309.203, 935.194 310.460, 937.265 311.036 C 942.891 312.604, 947.889 315.885, 949.555 319.106 C 950.370 320.682, 952.153 322.251, 953.518 322.594 C 955.265 323.032, 956 323.901, 956 325.527 C 956 329.488, 957.034 331.217, 958.617 329.903 C 960.648 328.217, 960.384 327.221, 956.275 321.073 C 950.734 312.785, 946.186 308.371, 939.500 304.795 C 933.917 301.809, 932.736 301.569, 922.500 301.344 C 916.450 301.212, 910.102 301.460, 908.394 301.896 M 823.330 307.695 C 820.335 308.279, 808 319.766, 808 321.972 C 808 322.959, 807.100 324.002, 806 324.290 C 804.544 324.671, 804 325.654, 804 327.906 C 804 332.033, 805.571 331.830, 807.136 327.500 C 807.832 325.575, 808.933 324, 809.582 324 C 810.231 324, 811.964 322.425, 813.432 320.500 C 814.900 318.575, 816.738 317, 817.516 317 C 818.293 317, 819.394 316.132, 819.962 315.072 C 820.565 313.945, 823.280 312.479, 826.497 311.544 C 835.496 308.928, 832.941 305.822, 823.330 307.695 M 854.218 309.154 C 854.464 309.895, 855.468 310.655, 856.448 310.846 C 857.588 311.066, 858.069 310.706, 857.782 309.846 C 857.536 309.105, 856.532 308.345, 855.552 308.154 C 854.412 307.934, 853.931 308.294, 854.218 309.154 M 990 333.044 C 982.580 334.286, 975.500 337.503, 975.500 339.631 C 975.500 341.703, 978.568 342.206, 980.904 340.516 C 981.679 339.955, 987.729 339.519, 994.404 339.543 C 1009.208 339.596, 1011.519 340.529, 1021.737 350.577 C 1029.270 357.984, 1031.989 362.652, 1032.015 368.218 C 1032.024 370.023, 1032.474 372.175, 1033.015 373 C 1034.802 375.722, 1036.114 372.011, 1035.747 365.272 C 1035.514 360.983, 1034.773 358.180, 1033.369 356.272 C 1032.247 354.747, 1031.031 352.301, 1030.667 350.836 C 1030.303 349.371, 1027.321 345.743, 1024.040 342.774 C 1019.202 338.397, 1016.695 336.969, 1010.787 335.229 C 1002.063 332.659, 996.065 332.029, 990 333.044 M 764.500 339.343 C 762.850 339.965, 761.187 340.917, 760.804 341.458 C 760.422 341.999, 759.798 342.131, 759.417 341.751 C 757.709 340.042, 746.743 350.285, 744.479 355.704 C 743.644 357.704, 742.069 359.964, 740.980 360.727 C 739.466 361.787, 739 363.263, 739 366.998 C 739 372.141, 740.244 374.183, 741.588 371.244 C 742.027 370.285, 742.420 369.039, 742.461 368.475 C 742.503 367.912, 743.653 365.689, 745.018 363.537 C 746.383 361.384, 747.950 358.895, 748.500 358.006 C 751.428 353.270, 758.925 347.640, 765.500 345.239 C 769.350 343.833, 773.040 342.268, 773.700 341.761 C 774.359 341.254, 776.160 340.971, 777.700 341.133 C 779.241 341.294, 780.996 341.121, 781.600 340.747 C 782.210 340.370, 783.285 341.164, 784.018 342.534 C 785.572 345.437, 787 345.749, 787 343.185 C 787 338.861, 772.397 336.367, 764.500 339.343 M 117.410 377.939 C 116.910 378.411, 112.719 380.039, 108.098 381.556 C 100.701 383.985, 98.966 385.044, 93.598 390.407 C 88.984 395.017, 86.811 398.204, 84.671 403.500 C 83.116 407.350, 81.428 411.281, 80.921 412.236 C 80.367 413.282, 80 513.382, 80 663.817 L 80 913.662 82.585 915.045 C 86.092 916.922, 95.573 916.855, 97.489 914.940 C 98.798 913.630, 99.009 883.145, 99.239 662.309 L 99.500 411.168 104.250 406.485 C 106.862 403.910, 109 401.446, 109 401.010 C 109 400.574, 110.781 399.504, 112.958 398.633 C 116.533 397.203, 141.143 397.047, 366.504 397.028 C 609.484 397.007, 616.189 397.056, 619.796 398.900 C 624.763 401.439, 630.789 408.330, 631.505 412.289 C 631.824 414.055, 632.179 527.421, 632.293 664.214 C 632.488 898.118, 632.603 913.031, 634.223 914.652 C 636.167 916.596, 648.247 917.153, 650.020 915.380 C 650.677 914.723, 650.928 828.048, 650.758 660.773 L 650.500 407.161 648.412 404.831 C 647.263 403.549, 645.772 401.099, 645.097 399.386 C 643.817 396.137, 636.098 387, 634.633 387 C 634.169 387, 632.452 385.875, 630.818 384.500 C 629.184 383.125, 627.258 382, 626.538 382 C 625.364 382, 616.842 379.626, 613 378.228 C 612.175 377.928, 611.050 377.804, 610.500 377.953 C 608.891 378.389, 119.672 377.915, 118.963 377.477 C 118.610 377.259, 117.911 377.466, 117.410 377.939 M 1039.222 391.166 C 1039.739 392.716, 1042.881 392.976, 1043.250 391.500 C 1043.388 390.950, 1042.437 390.350, 1041.139 390.166 C 1039.520 389.937, 1038.917 390.251, 1039.222 391.166 M 1050.633 390.786 C 1050.274 391.366, 1052.817 392.288, 1056.760 393.009 C 1060.467 393.686, 1064.400 395.073, 1065.500 396.090 C 1075.238 405.095, 1078 407.885, 1078 408.720 C 1078 409.254, 1078.864 410.472, 1079.920 411.428 C 1080.976 412.383, 1082.385 415.491, 1083.051 418.333 C 1083.717 421.175, 1084.705 424.058, 1085.246 424.741 C 1085.787 425.423, 1086.029 427.348, 1085.784 429.018 C 1085.074 433.857, 1087.363 431.934, 1088.280 426.921 C 1089.456 420.496, 1088.551 415.444, 1085.596 411.932 C 1084.168 410.235, 1083 408.392, 1083 407.837 C 1083 405.385, 1076.026 397.444, 1071 394.173 C 1066.278 391.100, 1064.491 390.537, 1058.373 390.193 C 1054.283 389.964, 1050.984 390.216, 1050.633 390.786 M 716.250 395.662 C 715.563 395.940, 715 396.852, 715 397.690 C 715 398.669, 715.566 398.997, 716.582 398.607 C 717.452 398.273, 718.577 398, 719.082 398 C 719.587 398, 720 397.325, 720 396.500 C 720 395.007, 718.632 394.701, 716.250 395.662 M 710.750 400.080 C 709.788 400.641, 709 402.202, 709 403.550 C 709 405.007, 708.421 406, 707.571 406 C 704.839 406, 703 409.046, 703 413.571 C 703 416.007, 703.417 418, 703.927 418 C 705.055 418, 707.612 413.044, 708.449 409.234 C 708.785 407.702, 710.059 406.010, 711.280 405.474 C 712.642 404.877, 713.622 403.437, 713.816 401.750 C 714.155 398.808, 713.524 398.464, 710.750 400.080 M 870.254 416.860 C 868.469 418.388, 863.744 421.506, 859.754 423.788 C 842.923 433.417, 822.502 432.282, 809.655 421.002 C 807.774 419.351, 805.383 418, 804.340 418 C 801.890 418, 798 420.729, 798 422.449 C 798 424.316, 789.120 434, 787.407 434 C 786.633 434, 786 434.413, 786 434.918 C 786 437.342, 778.781 440.169, 771.258 440.693 C 762.982 441.268, 761 442.427, 761 446.688 C 761 451.230, 755.035 461.953, 751.141 464.411 C 745.660 467.871, 745.313 468.671, 744.713 479.253 C 744.278 486.917, 743.686 489.772, 741.947 492.587 C 740.437 495.029, 739.307 499.401, 738.394 506.334 C 737.658 511.925, 736.370 521, 735.534 526.500 C 733.620 539.074, 733.614 541, 735.491 541 C 736.311 541, 740.474 539.781, 744.741 538.292 C 752.204 535.688, 753.302 535.583, 773.500 535.542 C 793.529 535.502, 794.850 535.620, 802.073 538.087 C 810.785 541.064, 818.956 546.717, 825.128 554.037 L 829.432 559.141 839.966 558.473 C 848.599 557.925, 851.312 558.110, 855 559.497 C 862.982 562.500, 864.454 562.495, 865.837 559.459 C 869.861 550.626, 881.430 542.243, 893.355 539.519 C 906.667 536.477, 919.022 535.807, 930.140 537.523 C 935.838 538.402, 943.390 539.554, 946.922 540.081 C 950.454 540.609, 953.930 541.527, 954.646 542.122 C 955.363 542.716, 958.533 544.253, 961.691 545.536 C 964.888 546.836, 970.365 550.416, 974.050 553.615 L 980.666 559.360 995.583 559.763 C 1003.787 559.985, 1012.064 560.242, 1013.975 560.333 C 1018.579 560.554, 1019.017 558.239, 1015.202 553.847 C 1011.860 549.999, 1008 538.912, 1008 533.161 C 1008 530.686, 1009.266 526.725, 1011.434 522.418 C 1013.323 518.665, 1014.635 515.218, 1014.350 514.757 C 1014.065 514.296, 1012.105 512.829, 1009.994 511.496 C 1007.884 510.164, 1003.759 506.613, 1000.828 503.604 C 996.002 498.650, 995.326 497.389, 993.649 490.215 C 991.682 481.801, 991.803 475.161, 994.078 466.674 C 995.525 461.275, 994.368 459.366, 990.500 460.773 C 987.459 461.878, 974.743 461.202, 973.933 459.891 C 973.543 459.260, 972.723 459.053, 972.112 459.431 C 971.500 459.809, 971 459.641, 971 459.059 C 971 458.477, 970.266 458, 969.368 458 C 965.436 458, 950.908 446.675, 948.293 441.572 C 947.427 439.882, 945.657 437.228, 944.359 435.673 C 942.775 433.775, 942 431.577, 942 428.982 C 942 423.979, 940.615 423.234, 937.520 426.573 C 931.387 433.190, 909.890 436.123, 897.570 432.023 C 890.034 429.516, 882.219 423.799, 878.365 417.975 C 876.918 415.789, 875.232 414.018, 874.617 414.041 C 874.003 414.063, 872.039 415.332, 870.254 416.860 M 181.186 460.074 C 180.474 461.214, 178.453 462.809, 176.695 463.617 C 171.763 465.886, 161.837 473.244, 156.799 478.367 C 149.437 485.853, 152.207 490.169, 174.266 505.576 C 180.836 510.165, 182.717 511, 186.481 511 C 191.535 511, 193 509.378, 193 503.784 C 193 500.117, 189.247 496.205, 179.561 489.777 C 176.845 487.975, 174.456 485.970, 174.252 485.323 C 173.905 484.220, 185.353 476.124, 189.295 474.684 C 191.697 473.806, 194.191 467.611, 193.405 464.476 C 191.997 458.869, 183.786 455.911, 181.186 460.074 M 232.490 459.016 C 232.144 459.575, 231.503 459.811, 231.065 459.540 C 230.626 459.269, 229.427 459.976, 228.400 461.110 C 226.513 463.195, 218.375 469, 217.339 469 C 216.558 469, 206.882 476.895, 204.750 479.271 C 203.720 480.420, 203 482.816, 203 485.098 C 203 488.447, 203.671 489.609, 207.926 493.624 C 212.521 497.961, 217.029 501.134, 222.978 504.216 C 224.341 504.922, 226.591 506.718, 227.978 508.206 C 233.676 514.320, 241.926 512.231, 242.197 504.605 C 242.318 501.199, 241.777 500.194, 237.891 496.605 C 235.446 494.347, 231.321 491.047, 228.723 489.271 C 226.125 487.494, 224 485.378, 224 484.567 C 224 483.757, 225.912 482.229, 228.250 481.172 C 235.931 477.700, 240.831 473.415, 241.559 469.537 C 242.348 465.332, 241.575 461.718, 239.427 459.570 C 237.661 457.804, 233.447 457.468, 232.490 459.016 M 279.500 461.838 C 267.745 469.720, 256.468 479.156, 255.053 482.294 C 251.692 489.749, 256.850 495.468, 276.088 505.619 C 277.512 506.371, 279.494 507.888, 280.493 508.993 C 282.967 511.726, 289.517 511.772, 290.965 509.066 C 293.991 503.412, 289.655 495.030, 281.994 491.722 C 276.101 489.178, 274.627 487.623, 275.355 484.722 C 275.725 483.249, 276.974 481.840, 278.252 481.454 C 282.707 480.107, 290.539 474.118, 292.377 470.651 C 293.980 467.629, 294.053 466.889, 292.877 465.591 C 285.926 457.913, 285.522 457.800, 279.500 461.838 M 328 463.026 C 324.975 465.213, 320.889 468.083, 318.921 469.406 C 312.296 473.855, 303 483.427, 303 485.799 C 303 488.637, 312.694 498.187, 318.377 500.947 C 320.645 502.049, 324.693 504.767, 327.373 506.987 C 333.198 511.812, 335.917 512.647, 339.965 510.855 C 343.300 509.379, 345.126 504.033, 343.301 501.087 C 342.008 499, 329.790 489.045, 328.491 489.020 C 327.935 489.009, 326.939 488.132, 326.277 487.072 C 325.232 485.398, 325.535 484.737, 328.570 482.073 C 330.494 480.384, 333.290 478.246, 334.784 477.321 C 344.021 471.604, 346.144 466.428, 341.195 461.687 C 337.390 458.042, 334.489 458.336, 328 463.026 M 380.703 461.531 C 379.715 462.889, 378.436 464, 377.861 464 C 375.560 464, 357.203 479.459, 355.770 482.604 C 354.977 484.346, 354.995 486.011, 355.838 488.747 C 357.071 492.746, 360.057 495.265, 371.994 502.374 C 375.572 504.505, 379.531 507.318, 380.790 508.624 C 384.153 512.112, 390.668 512.003, 392.025 508.435 C 394.056 503.092, 393.253 500.510, 388.043 495.637 C 385.316 493.087, 382.452 491, 381.678 491 C 379.677 491, 375 487.121, 375 485.462 C 375 484.696, 378.142 482.018, 381.983 479.511 C 391.201 473.494, 393 471.449, 393 466.986 C 393 459.887, 384.609 456.165, 380.703 461.531 M 429 462.992 C 425.975 465.128, 422.004 467.646, 420.175 468.587 C 418.346 469.529, 416.157 471.357, 415.310 472.649 C 414.463 473.942, 413.124 475, 412.334 475 C 411.544 475, 409.348 476.688, 407.454 478.750 C 402.287 484.375, 402.654 487.818, 409.086 494.084 C 411.883 496.808, 415.594 499.773, 417.333 500.672 C 419.071 501.571, 423.375 504.488, 426.896 507.153 C 436.236 514.224, 443.400 513.559, 443.400 505.621 C 443.400 501.513, 439.984 497.374, 431.500 491.203 C 426.474 487.547, 425.044 486.126, 425.015 484.763 C 425 484.012, 430.670 480.010, 436.524 476.638 C 441.118 473.992, 444.473 467.783, 442.932 464.776 C 441.465 461.912, 437.965 459.035, 436 459.076 C 435.175 459.094, 432.025 460.856, 429 462.992 M 774.110 505.041 C 771.695 505.537, 768.995 506.562, 768.110 507.318 C 767.224 508.074, 764.366 509.700, 761.757 510.932 C 757.420 512.980, 753 517.431, 753 519.751 C 753 522.243, 756.488 527.201, 759.245 528.627 C 762.491 530.305, 768.068 530.128, 777 528.063 C 780.202 527.323, 784.459 527.363, 791.760 528.201 C 804.363 529.648, 806.630 529.007, 809.906 523.068 C 812.182 518.941, 812.243 518.435, 810.914 514.628 C 809.942 511.844, 808.146 509.628, 805.168 507.539 C 801.022 504.631, 800.355 504.492, 789.668 504.319 C 783.526 504.220, 776.524 504.544, 774.110 505.041 M 904.328 504.960 C 900.075 505.973, 891.067 512.693, 889.921 515.708 C 888.292 519.991, 888.892 523.045, 891.962 526.116 L 894.924 529.078 911.807 528.789 C 924.980 528.563, 929.054 528.802, 930.345 529.872 C 931.255 530.627, 932 530.934, 932 530.554 C 932 530.175, 933.237 530.739, 934.750 531.808 C 938.775 534.652, 943.534 535.390, 948.639 533.961 C 954.009 532.458, 957 528.969, 957 524.210 C 957 519.742, 951.154 513.865, 943.057 510.192 C 940.001 508.805, 937.275 507.345, 937 506.947 C 935.457 504.712, 911.489 503.255, 904.328 504.960 M 753.460 556.570 C 750.691 558.340, 746.234 562.351, 743.557 565.485 C 739.506 570.226, 738.610 572.008, 738.217 576.092 C 737.839 580.024, 738.048 581, 739.266 581 C 740.532 581, 741.891 579.292, 742.449 577 C 743.035 574.594, 746.570 570.307, 753.312 563.826 C 760.153 557.250, 761.094 555.952, 759.895 554.752 C 758.696 553.553, 757.775 553.813, 753.460 556.570 M 896.934 558.820 C 894.107 560.047, 886 567.213, 886 568.485 C 886 569.169, 884.657 571.252, 883.016 573.114 C 880.848 575.574, 880.028 577.525, 880.016 580.250 C 879.996 584.992, 881.217 585.003, 884.132 580.286 C 886.829 575.922, 887.511 575.094, 893.834 568.500 C 896.471 565.750, 899.467 563.021, 900.493 562.436 C 901.692 561.752, 902.126 560.771, 901.710 559.686 C 901.035 557.929, 899.591 557.667, 896.934 558.820 M 160.323 563.810 C 154.660 564.616, 150.931 575.601, 154.561 580.783 C 158.416 586.287, 150.455 586, 299.222 586 L 436.544 586 440.272 582.927 C 443.620 580.167, 443.997 579.378, 443.968 575.177 C 443.944 571.599, 443.328 569.808, 441.347 567.554 C 438.811 564.667, 438.492 564.592, 425.629 563.827 C 413.609 563.113, 165.331 563.097, 160.323 563.810 M 712.736 568.250 C 710.100 570.252, 709.165 574.086, 708.412 585.995 C 707.951 593.281, 708.134 600.188, 708.939 605.836 C 710.463 616.528, 711.473 619.246, 713.761 618.814 C 715.065 618.567, 715.875 616.568, 717 610.814 C 717.825 606.595, 718.837 602.811, 719.250 602.405 C 720.399 601.274, 720.141 597, 718.924 597 C 718.283 597, 717.955 595.268, 718.113 592.709 C 718.258 590.349, 718.028 587.854, 717.602 587.165 C 717.176 586.476, 716.914 582.669, 717.021 578.706 C 717.300 568.316, 717.150 567, 715.691 567 C 714.971 567, 713.642 567.563, 712.736 568.250 M 1059.836 574.944 C 1055.688 575.751, 1053.126 577.326, 1047.767 582.360 C 1044.002 585.897, 1039 595.259, 1039 598.769 C 1039 599.813, 1038.662 601.004, 1038.250 601.417 C 1037.838 601.829, 1037.499 602.467, 1037.498 602.833 C 1037.498 603.200, 1036.373 605.075, 1034.998 607 C 1032.016 611.178, 1031.695 618.299, 1034.319 622.045 C 1036.628 625.342, 1036.456 632.603, 1033.858 641.545 C 1031.826 648.538, 1031.803 649.050, 1033.410 651.503 C 1035.661 654.938, 1039.157 656.184, 1047 656.346 C 1055.191 656.516, 1061.477 653.292, 1070.380 644.358 C 1077.984 636.726, 1081.631 630.078, 1083.029 621.297 C 1083.625 617.559, 1084.537 614.072, 1085.056 613.550 C 1086.206 612.393, 1086.330 596, 1085.189 596 C 1084.743 596, 1083.774 593.638, 1083.035 590.750 C 1081.146 583.372, 1075.240 576.550, 1069.486 575.101 C 1067.081 574.495, 1064.751 574.052, 1064.307 574.115 C 1063.863 574.178, 1061.851 574.551, 1059.836 574.944 M 836.500 580.155 C 833.367 581.868, 832 584.115, 832 587.550 C 832 590.864, 825.803 605.386, 823.882 606.573 C 823.272 606.950, 821.865 609.338, 820.754 611.879 C 818.665 616.660, 817.892 617.700, 812 623.649 C 807.580 628.113, 799.135 633.680, 795.378 634.609 C 793.795 635, 790.772 636.214, 788.660 637.307 C 783.023 640.226, 767.068 640.112, 761.473 637.113 C 759.304 635.951, 756.721 635, 755.733 635 C 752.173 635, 747.299 632.171, 741.321 626.636 C 732.400 618.377, 731.970 618.693, 732.666 633 C 733.296 645.961, 733.443 646.430, 738.408 651.255 C 740.810 653.590, 742.884 655.950, 743.015 656.500 C 744.821 664.042, 745.655 665, 750.410 665 C 754.185 665, 755.179 665.443, 756.932 667.904 C 758.069 669.502, 759 671.223, 759 671.730 C 759 673.388, 763.422 676.729, 767.233 677.949 C 769.316 678.616, 771.912 680.472, 773.106 682.149 C 775.980 686.185, 777.437 684.558, 777.118 677.670 C 776.933 673.688, 777.402 671.431, 778.939 668.903 C 780.078 667.032, 781.730 663.936, 782.612 662.025 C 784.363 658.229, 790.467 651.735, 793.250 650.709 C 794.212 650.353, 795 649.634, 795 649.109 C 795 647.794, 800.334 646.239, 807.500 645.463 C 810.800 645.106, 815.629 643.731, 818.232 642.407 C 824.283 639.328, 828.380 639.381, 834 642.609 C 840.477 646.328, 843.964 646.108, 852 641.472 C 855.592 639.399, 858.754 639.671, 865 642.589 C 868.437 644.195, 873.501 645.475, 878.500 646.003 C 886.926 646.892, 890 647.695, 890 649.009 C 890 649.447, 891.237 650.252, 892.750 650.799 C 896.438 652.133, 906.226 661.063, 909.791 666.346 C 913.384 671.670, 915 676.223, 915 681.024 C 915 683.073, 915.270 686.099, 915.600 687.748 L 916.199 690.746 925.350 690.510 L 934.500 690.273 936.448 686.887 C 939.617 681.375, 944.221 679.365, 948.542 681.606 C 950.019 682.373, 951.607 683, 952.070 683 C 952.532 683, 955.432 680.538, 958.515 677.529 C 963.141 673.012, 964.418 672.244, 965.834 673.128 C 968.369 674.711, 974.692 670.674, 976.516 666.306 C 978.100 662.517, 981.010 659.727, 985.263 657.920 C 986.854 657.244, 988.295 655.672, 988.662 654.211 C 989.012 652.816, 991.755 648.779, 994.757 645.240 C 998.705 640.587, 1000.360 637.733, 1000.736 634.934 C 1001.084 632.335, 1002.034 630.552, 1003.627 629.508 C 1004.932 628.653, 1006 627.528, 1006 627.007 C 1006 626.486, 1007.072 623.683, 1008.383 620.780 C 1009.693 617.876, 1011.104 614.392, 1011.517 613.038 C 1011.931 611.684, 1013.334 609.739, 1014.635 608.715 C 1017.327 606.597, 1017.825 601.930, 1015.559 600.049 C 1014.767 599.392, 1014.365 598.212, 1014.666 597.427 C 1014.968 596.642, 1014.689 596, 1014.048 596 C 1013.359 596, 1013.206 595.489, 1013.676 594.750 C 1014.112 594.063, 1014.517 593.275, 1014.575 593 C 1014.633 592.725, 1015.428 590.827, 1016.340 588.782 C 1020.197 580.143, 1018.539 579.108, 1001.793 579.698 C 994.482 579.956, 987.037 580.614, 985.250 581.161 C 981.684 582.252, 981.452 582.835, 980.564 592.898 C 980.254 596.416, 979.495 599.904, 978.877 600.648 C 978.260 601.391, 978.066 602, 978.446 602 C 978.825 602, 978.196 603.320, 977.047 604.934 C 975.898 606.548, 974.333 609.639, 973.569 611.804 C 970.987 619.122, 957.039 635, 953.192 635 C 952.587 635, 950.984 636.107, 949.632 637.459 C 948.279 638.812, 945.896 640.196, 944.336 640.534 C 942.776 640.873, 938.894 642.078, 935.708 643.212 C 930.736 644.983, 928.330 645.204, 918.708 644.769 C 912.041 644.468, 906.041 643.648, 903.898 642.744 C 901.917 641.909, 898.357 640.898, 895.988 640.498 C 893.598 640.094, 890.651 638.742, 889.372 637.463 C 888.103 636.194, 886.177 634.874, 885.092 634.529 C 882.986 633.861, 871 620.883, 871 619.271 C 871 618.743, 870.152 617.543, 869.116 616.605 C 868.080 615.667, 866.659 612.785, 865.958 610.200 C 865.257 607.615, 863.593 603.506, 862.260 601.068 C 860.874 598.534, 860.028 595.633, 860.284 594.294 C 860.530 593.006, 860.342 591.711, 859.866 591.417 C 859.390 591.123, 859 589.164, 859 587.063 C 859 582.303, 857.976 581.457, 850.566 580.092 C 843.163 578.729, 839.073 578.747, 836.500 580.155 M 177.667 638.902 C 159.643 639.445, 157.706 639.675, 156.430 641.424 C 154.376 644.238, 153.679 649.272, 154.469 655.595 C 155.536 664.141, 156.313 664.561, 172.495 665.337 C 210.084 667.140, 212.613 666.435, 214.535 653.617 C 215.337 648.266, 213.021 640.606, 210.284 639.555 C 207.464 638.474, 198.090 638.286, 177.667 638.902 M 236.417 639.049 C 232.273 640.288, 231 643.534, 231 652.860 C 231 660.211, 231.163 660.782, 234.048 663.546 L 237.096 666.466 260.703 666.306 C 284.211 666.146, 284.319 666.136, 286.717 663.737 C 288.875 661.580, 289.145 660.378, 289.313 652.203 C 289.483 643.911, 289.292 642.868, 287.224 640.789 C 284.998 638.550, 284.454 638.496, 262.224 638.314 C 249.726 638.212, 238.113 638.543, 236.417 639.049 M 391.521 639.361 C 386.087 640.653, 384.863 643.304, 385.208 653.035 C 385.643 665.343, 384.759 664.974, 414.548 665.265 C 444.430 665.557, 443.404 665.953, 444.395 653.738 C 445.170 644.190, 444.184 640.309, 440.785 639.535 C 436.749 638.616, 395.272 638.469, 391.521 639.361 M 310.134 640.866 C 307.777 643.223, 306.663 650.452, 307.555 657.596 C 308.627 666.178, 308.709 666.202, 335.714 666.078 C 363.146 665.953, 367.399 665.043, 368.384 659.090 C 369.325 653.402, 369.098 646.309, 367.890 643.657 C 365.941 639.380, 363.415 639, 336.953 639 C 313.929 639, 311.856 639.144, 310.134 640.866 M 469.382 639.982 C 468.216 640.453, 466.245 642.485, 465.001 644.498 C 463.062 647.636, 462.814 649.092, 463.264 654.696 C 463.975 663.556, 465.684 665.191, 475.238 666.148 C 486.148 667.242, 507.001 667.128, 511.238 665.951 C 515.054 664.891, 517.611 661.819, 517.157 658.839 C 517.018 657.925, 517.376 656.886, 517.952 656.530 C 520 655.264, 519.123 647.155, 516.487 642.980 L 513.975 639 492.737 639.063 C 481.057 639.098, 470.547 639.512, 469.382 639.982 M 536.672 640.810 C 533.922 643.849, 533.185 648.067, 534.186 655.042 C 534.888 659.936, 535.718 662.045, 537.612 663.750 C 540.024 665.921, 540.797 666, 559.605 666 C 585.737 666, 585.959 665.877, 585.986 651.361 C 585.997 645.810, 585.575 643.696, 584.090 641.861 C 582.203 639.528, 581.919 639.496, 560.293 639.197 C 539.786 638.914, 538.296 639.016, 536.672 640.810 M 809.312 672.209 C 808.315 673.311, 805.895 675.032, 803.933 676.033 C 798.388 678.863, 797.685 680.260, 797.831 688.151 C 797.947 694.448, 798.343 695.805, 801.399 700.367 C 805.339 706.252, 806.861 707.600, 813.223 710.841 C 819.467 714.021, 821.201 713.494, 822.882 707.903 C 824.578 702.261, 827.971 700.612, 835 702.015 C 837.475 702.509, 842.200 702.939, 845.500 702.971 C 853.934 703.053, 856.359 704.508, 857.086 709.922 C 857.783 715.108, 860.229 717.331, 864.500 716.658 C 869.964 715.796, 876.426 714.013, 882.249 711.760 C 888.837 709.211, 889.426 708.105, 890.472 696.310 C 891.338 686.545, 890.010 682.212, 885.089 678.750 C 881.151 675.979, 877 675.106, 877 677.050 C 877 677.627, 877.693 679.440, 878.541 681.079 C 879.388 682.718, 879.763 684.608, 879.373 685.279 C 877.757 688.061, 872.391 692.979, 870.961 692.989 C 870.115 692.995, 867.640 693.977, 865.461 695.171 C 862.065 697.032, 859.492 697.401, 847.412 697.761 C 835.892 698.104, 833.053 697.910, 831.841 696.699 C 831.026 695.883, 827.831 694.691, 824.740 694.050 C 821.650 693.408, 818.082 692.104, 816.811 691.152 C 815.540 690.200, 813.250 688.880, 811.722 688.219 C 808.330 686.752, 807.585 685.023, 808.423 680.559 C 808.924 677.887, 809.884 676.733, 812.783 675.317 C 816.923 673.293, 817.174 671.824, 813.543 670.853 C 811.814 670.391, 810.606 670.778, 809.312 672.209 M 839.125 673.274 C 838.700 673.699, 835.737 674.473, 832.540 674.994 C 825.996 676.058, 825.524 676.316, 826.318 678.387 C 827.133 680.509, 833.963 681.256, 848.876 680.852 C 857.541 680.618, 862.320 680.081, 863.151 679.250 C 865.180 677.220, 862.877 675.915, 855.694 675.024 C 852.097 674.578, 848.601 673.871, 847.925 673.454 C 846.274 672.433, 840.091 672.307, 839.125 673.274 M 158.512 716.213 C 155.723 717.830, 153.073 721.194, 153.033 723.167 C 153.015 724.083, 152.438 725.096, 151.750 725.417 C 150.750 725.883, 150.750 726.117, 151.750 726.583 C 152.438 726.904, 153 728.176, 153 729.409 C 153 731.944, 156.269 735.400, 160.004 736.815 C 163.595 738.175, 431.299 738.254, 436.365 736.897 C 442.370 735.287, 445 732.036, 445 726.220 C 445 720.616, 442.632 717.615, 436.917 715.976 C 431.727 714.488, 161.091 714.718, 158.512 716.213 M 954.768 755 C 954.081 756.100, 953.089 757, 952.563 757 C 952.038 757, 950.008 758.102, 948.054 759.448 C 946.099 760.794, 942.250 762.415, 939.500 763.049 C 931.032 765.003, 926.524 766.382, 925.950 767.194 C 925.647 767.622, 921.147 769.170, 915.950 770.634 C 904.546 773.848, 903.660 774.445, 904.366 778.444 C 906.524 790.673, 907.401 791.594, 914.500 789.081 C 924.327 785.602, 931.176 781.732, 936.927 776.407 C 940.139 773.433, 942.949 771, 943.172 771 C 944.053 771, 954 761.154, 954 760.281 C 954 759.768, 955.125 758.292, 956.500 757 C 957.875 755.708, 959 754.280, 959 753.826 C 959 752.203, 955.994 753.037, 954.768 755 M 308.038 793.840 C 306.138 794.859, 304.207 796.879, 303.711 798.367 C 302.948 800.655, 303.310 801.617, 306.158 804.866 C 309.161 808.292, 311.509 810.089, 321.158 816.342 C 322.721 817.355, 323.986 818.705, 323.968 819.342 C 323.951 819.979, 321.138 822.391, 317.718 824.703 C 311.463 828.931, 304 835.599, 304 836.960 C 304 839.316, 307.461 843.948, 310.010 845.004 C 312.767 846.146, 313.506 845.923, 320.013 841.992 C 323.877 839.658, 327.285 837.348, 327.587 836.860 C 327.889 836.371, 329.793 835.110, 331.818 834.058 C 333.843 833.005, 337.637 830.158, 340.250 827.731 C 345.797 822.578, 346.564 818.473, 342.750 814.349 C 340.018 811.395, 324.055 798.509, 318.446 794.731 C 313.655 791.503, 312.569 791.410, 308.038 793.840 M 357.094 793.906 C 355.697 795.303, 355 797.276, 355 799.833 C 355 803.076, 355.591 804.140, 358.843 806.754 C 360.957 808.452, 364.332 810.530, 366.343 811.370 C 368.354 812.210, 370 813.381, 370 813.970 C 370 814.560, 371.125 815.555, 372.500 816.182 C 376.409 817.963, 375.483 820.283, 369.250 824.322 C 358.402 831.353, 355.765 834.187, 355.640 838.946 C 355.423 847.243, 363.158 848.358, 371.747 841.267 C 374.361 839.109, 378.525 835.963, 381 834.275 C 387.880 829.583, 393.779 823.728, 394.494 820.882 C 395.370 817.389, 392.304 812.151, 387.865 809.560 C 384.465 807.576, 383.051 806.520, 371.455 797.312 C 364.869 792.083, 360.058 790.942, 357.094 793.906 M 411 792.694 C 408.476 793.596, 407 796.215, 407 799.790 C 407 804.179, 410.870 807.954, 423.620 816 C 424.927 816.825, 425.997 818.084, 425.998 818.798 C 426 820.183, 421.099 824.916, 419.608 824.968 C 419.118 824.986, 417.426 826.350, 415.850 828 C 414.273 829.650, 412.537 831, 411.991 831 C 407.468 831, 404.885 842.798, 408.934 844.965 C 412.824 847.047, 415.791 846.080, 422.198 840.645 C 425.669 837.700, 430.439 834.307, 432.796 833.104 C 435.154 831.901, 438.864 829.136, 441.041 826.959 C 444.294 823.706, 445 822.307, 445 819.116 C 445 815.854, 444.360 814.654, 440.997 811.616 C 438.796 809.627, 436.473 808, 435.836 808 C 435.199 808, 433.401 806.569, 431.839 804.820 C 430.278 803.071, 428.993 802.058, 428.985 802.570 C 428.976 803.082, 428.639 803.051, 428.235 802.500 C 427.831 801.950, 426.774 801.050, 425.887 800.500 C 424.999 799.950, 421.855 797.813, 418.900 795.750 C 415.945 793.688, 413.296 792.036, 413.013 792.079 C 412.731 792.122, 411.825 792.399, 411 792.694 M 158.074 794.411 C 157.430 795.187, 156.652 797.372, 156.344 799.266 C 155.872 802.177, 156.272 803.209, 158.920 805.918 C 160.644 807.682, 163.587 809.765, 165.460 810.548 C 167.334 811.331, 169.459 812.772, 170.183 813.751 C 170.907 814.730, 172.738 816.077, 174.250 816.744 C 177.687 818.260, 177.755 819.762, 174.445 821.021 C 171.708 822.062, 165.824 826.442, 159.750 831.961 C 156.531 834.885, 156 835.974, 156 839.649 C 156 847.724, 163.252 848.079, 171.551 840.410 C 174.273 837.895, 178.300 835.032, 180.500 834.048 C 182.700 833.064, 185.357 831.301, 186.405 830.130 C 187.453 828.958, 188.832 828, 189.471 828 C 191.581 828, 195.253 820.150, 194.526 817.195 C 193.851 814.455, 188.356 808, 186.698 808 C 186.198 808, 184.514 806.987, 182.957 805.750 C 181.399 804.513, 177.959 801.942, 175.312 800.039 C 172.666 798.135, 169.695 795.772, 168.711 794.789 C 166.544 792.622, 159.759 792.381, 158.074 794.411 M 209.229 793.669 C 207.252 794.465, 204.829 799.887, 205.503 802.009 C 206.157 804.070, 211.666 808.742, 216.500 811.335 C 218.150 812.220, 221.075 814.307, 223 815.972 L 226.500 819 223 821.973 C 221.075 823.608, 219.138 824.958, 218.696 824.973 C 218.253 824.988, 216.453 826.348, 214.696 827.995 C 212.938 829.643, 211.016 830.993, 210.424 830.995 C 208.322 831.004, 205 835.653, 205.015 838.564 C 205.034 842.059, 205.766 843.314, 208.684 844.850 C 213.061 847.154, 214.638 846.470, 226.065 837.310 C 228.254 835.556, 231.041 833.804, 232.258 833.418 C 237.954 831.610, 245 823.327, 245 818.438 C 245 816.695, 232.140 804, 230.375 804 C 229.619 804, 229 803.523, 229 802.941 C 229 802.359, 228.597 802.131, 228.105 802.435 C 227.612 802.740, 226.952 802.316, 226.636 801.494 C 226.321 800.672, 225.594 800, 225.021 800 C 224.448 800, 221.739 798.425, 219 796.500 C 214.253 793.164, 212.063 792.529, 209.229 793.669 M 256.557 795.223 C 253.505 799.580, 254.511 802.506, 260.750 807.410 C 270.330 814.941, 271.735 815.961, 273.399 816.600 C 276.285 817.707, 274.993 820.440, 269.901 824 C 267.148 825.925, 263.771 828.513, 262.396 829.750 C 261.022 830.987, 259.261 832, 258.484 832 C 254.813 832, 253.484 843.119, 256.934 844.965 C 260.957 847.118, 268.313 845.540, 271 841.947 C 271.275 841.580, 272.850 840.522, 274.500 839.597 C 278.294 837.470, 283.685 833.765, 287.302 830.798 C 294.456 824.931, 295 824.176, 295 820.116 C 295 816.439, 294.444 815.641, 287.584 809.477 C 283.505 805.812, 279.863 802.899, 279.490 803.004 C 279.118 803.109, 277.618 802.068, 276.157 800.690 C 272.154 796.916, 264.494 793, 261.114 793 C 259.147 793, 257.577 793.765, 256.557 795.223" stroke="none" fill="#171916" fill-rule="evenodd"/>
</svg>