<svg role="img" aria-labelledby="artwork-title" shape-rendering="geometricPrecision" xmlns="http://www.w3.org/2000/svg" width="1200" height="1200" viewBox="0 0 1200 1200" version="1.1">
	<title id="artwork-title">Mascot reviewing a pull request</title>
	<path d="M 871.576 286.015 C 869.968 287.042, 866.864 288.185, 864.678 288.554 C 857.418 289.781, 851.394 293.167, 844.314 300.001 C 838.655 305.464, 836.920 305.779, 833.477 301.974 C 832.494 300.889, 831.100 300, 830.379 300 C 829.659 300, 827.688 298.650, 826 297 C 824.312 295.350, 822.029 294, 820.926 294 C 819.823 294, 817.156 293.100, 815 292 C 809.565 289.227, 794.613 289.149, 789.210 291.865 C 787.170 292.890, 783.856 294.028, 781.847 294.392 C 779.837 294.756, 777.932 295.736, 777.612 296.569 C 777.292 297.402, 775.336 298.867, 773.265 299.825 C 768.949 301.820, 762 307.806, 762 309.529 C 762 310.168, 761.100 311.505, 760 312.500 C 758.900 313.495, 758 314.915, 758 315.655 C 758 316.395, 757.550 317, 757 317 C 756.450 317, 756 317.695, 756 318.545 C 756 319.395, 754.850 321.241, 753.445 322.646 C 751.264 324.827, 750.347 325.098, 747.195 324.495 C 738.948 322.916, 732.889 322.370, 732.400 323.162 C 732.115 323.623, 729.996 324.010, 727.691 324.022 C 725.386 324.034, 721.538 324.934, 719.141 326.022 C 716.743 327.110, 714.253 328, 713.607 328 C 711.520 328, 699.625 337.604, 695.207 342.857 C 692.846 345.663, 690.214 349.657, 689.358 351.730 C 688.501 353.804, 687.115 356.272, 686.277 357.215 C 685.253 358.368, 684.583 361.902, 684.236 367.993 C 683.951 372.987, 683.221 377.366, 682.610 377.747 C 681.999 378.128, 678.604 378.741, 675.064 379.110 C 669.565 379.683, 668.254 380.219, 666.064 382.789 C 664.654 384.444, 662.600 386.197, 661.500 386.685 C 660.342 387.199, 613.211 387.245, 549.500 386.794 C 489 386.367, 367.725 386.126, 280 386.258 L 120.500 386.500 115 388.875 C 111.975 390.181, 108.825 391.657, 108 392.154 C 107.175 392.651, 105.712 393.322, 104.750 393.646 C 103.787 393.969, 103 394.631, 103 395.117 C 103 395.602, 102.325 396, 101.500 396 C 100.675 396, 100 396.388, 100 396.861 C 100 397.335, 98.083 399.781, 95.740 402.297 C 93.397 404.813, 90.250 409.379, 88.747 412.444 C 82.910 424.346, 83.138 415.257, 83.401 625 C 83.599 783.333, 83.040 892.812, 82.176 864.809 C 82.079 861.679, 81.550 858.840, 81 858.500 C 80.343 858.094, 80 867.156, 80 884.941 C 80 906.941, 80.251 912, 81.345 912 C 82.085 912, 83.505 912.900, 84.500 914 C 86.872 916.621, 98.980 916.934, 101.059 914.428 C 102.124 913.146, 102.376 868.082, 102.432 669.678 C 102.498 434.123, 102.559 426.382, 104.372 422.733 C 106.542 418.366, 115.136 410.270, 119.500 408.482 C 121.150 407.806, 127.900 406.980, 134.500 406.647 C 141.100 406.314, 259.450 405.945, 397.500 405.828 L 648.500 405.615 648.842 407.978 C 649.030 409.278, 648.193 412.327, 646.981 414.753 C 644.855 419.009, 643.782 431.116, 645.389 432.722 C 645.725 433.058, 646 434.176, 646 435.207 C 646 436.237, 646.900 438.844, 648 441 C 649.100 443.156, 650 445.815, 650 446.909 C 650 448.002, 651.125 450.111, 652.500 451.595 C 655.645 454.988, 655.670 458.407, 652.584 462.946 C 649.064 468.122, 647.610 479.084, 649.096 489.241 C 650.255 497.172, 653.314 503.354, 659.225 509.715 C 660.990 511.615, 661.191 512.719, 660.634 517.457 C 659.593 526.316, 660.935 536.626, 663.651 540.628 C 664.943 542.531, 665.988 544.856, 665.973 545.794 C 665.957 546.732, 663.509 549.525, 660.532 552 C 657.555 554.475, 655.093 557.200, 655.060 558.056 C 655.027 558.911, 653.932 561.060, 652.626 562.830 C 651.266 564.672, 649.960 568.242, 649.570 571.180 C 649.196 574.003, 648.239 577.570, 647.445 579.107 C 646.650 580.643, 646 583.723, 646 585.950 C 646 588.178, 645.625 590, 645.167 590 C 644.193 590, 644.307 593.641, 645.313 594.646 C 645.691 595.024, 646 596.929, 646 598.878 C 646 604.103, 650.959 623.082, 653.127 626.154 C 654.157 627.614, 655 629.102, 655 629.460 C 655 629.818, 658.327 633.963, 662.394 638.672 C 669.282 646.646, 670.457 648.877, 668.696 650.638 C 667.543 651.790, 667.879 666, 669.059 666 C 669.641 666, 669.840 666.450, 669.500 667 C 669.160 667.550, 669.300 668, 669.811 668 C 670.901 668, 672.649 674.448, 673.443 681.399 C 673.751 684.094, 674.495 686.892, 675.097 687.617 C 677.311 690.285, 683.056 700.375, 683.604 702.559 C 683.915 703.797, 685.256 705.831, 686.585 707.079 C 687.913 708.328, 689 709.905, 689 710.585 C 689 711.266, 690.325 712.937, 691.945 714.300 C 693.564 715.663, 694.614 717.053, 694.278 717.389 C 693.942 717.725, 694.192 718, 694.833 718 C 695.475 718, 696 718.620, 696 719.379 C 696 720.871, 706.170 730, 707.832 730 C 708.389 730, 710.960 732.475, 713.544 735.500 C 716.128 738.525, 718.803 741, 719.487 741 C 720.171 741, 721.872 741.898, 723.267 742.995 C 724.662 744.093, 727.535 745.350, 729.652 745.790 C 732.438 746.369, 733.500 747.099, 733.500 748.436 C 733.500 750.667, 732.369 751.289, 724.065 753.621 C 717.868 755.362, 707.095 761.854, 694.477 771.453 C 689.743 775.054, 669.060 795.728, 664.224 801.693 C 656.726 810.941, 655 813.308, 654.999 814.345 C 654.998 814.980, 653.873 816.807, 652.499 818.406 C 651.124 820.004, 650 822.078, 650 823.016 C 650 823.954, 648.987 826.246, 647.750 828.110 C 646.513 829.975, 644.841 832.850, 644.036 834.500 C 643.231 836.150, 641.807 838.640, 640.872 840.034 C 639.937 841.427, 638.853 844.352, 638.464 846.534 C 638.075 848.715, 636.960 851.850, 635.986 853.500 C 635.012 855.150, 633.890 858.075, 633.492 860 C 633.095 861.925, 632.412 863.950, 631.975 864.500 C 630.478 866.387, 627 877.937, 627 881.023 C 627 882.721, 626.034 886.223, 624.854 888.805 C 622.274 894.448, 621.039 910.335, 622.908 913.828 L 624.070 916 870.913 916 C 1079.101 916, 1117.934 915.785, 1118.896 914.625 C 1120.179 913.079, 1118.916 898.441, 1116.512 887 C 1115.761 883.425, 1114.638 878.025, 1114.016 875 C 1113.019 870.144, 1109.681 858.175, 1108.161 854 C 1107.860 853.175, 1107.563 852.050, 1107.501 851.500 C 1107.438 850.950, 1106.175 847.982, 1104.693 844.904 C 1103.212 841.825, 1101.986 838.225, 1101.969 836.904 C 1101.952 835.582, 1100.829 832.700, 1099.474 830.500 C 1098.119 828.300, 1097.008 825.867, 1097.005 825.094 C 1097.002 824.321, 1095.851 822.183, 1094.447 820.342 C 1093.043 818.501, 1091.392 815.553, 1090.778 813.792 C 1089.010 808.720, 1086.689 805.543, 1071.562 787.490 C 1064.162 778.658, 1049.848 765.158, 1045.161 762.590 C 1044.247 762.090, 1042.317 760.702, 1040.870 759.506 C 1036.545 755.930, 1004.978 740.813, 997 738.498 C 995.625 738.098, 993.150 736.986, 991.500 736.025 C 989.850 735.065, 985.575 733.698, 982 732.989 C 978.425 732.279, 974.285 731.091, 972.800 730.349 C 971.314 729.607, 968.922 729, 967.484 729 C 966.045 729, 964.007 728.539, 962.954 727.975 C 961.141 727.005, 961.229 726.686, 964.587 722.012 C 966.538 719.296, 969.957 715.734, 972.186 714.095 C 976.442 710.965, 979.813 706.605, 983.990 698.828 C 985.371 696.258, 987.769 691.823, 989.320 688.973 C 990.871 686.122, 992.458 681.929, 992.846 679.654 C 993.662 674.875, 995.335 674.131, 1001.036 676.012 C 1004.088 677.019, 1006.174 676.943, 1012.898 675.581 C 1017.385 674.672, 1022.507 673.042, 1024.278 671.959 C 1026.050 670.877, 1029.029 669.284, 1030.897 668.420 C 1035.405 666.337, 1041 661.812, 1041 660.250 C 1041 659.563, 1041.637 659, 1042.415 659 C 1043.877 659, 1052 649.486, 1052 647.774 C 1052 647.243, 1052.836 645.614, 1053.857 644.154 C 1059.274 636.412, 1061.296 631.181, 1063.069 620.323 C 1064.542 611.301, 1064.715 607.445, 1063.965 600.323 C 1062.808 589.326, 1059.965 580.031, 1057.750 580.008 C 1057.338 580.004, 1057 579.148, 1057 578.107 C 1057 577.066, 1056.325 575.955, 1055.500 575.638 C 1054.675 575.322, 1054 574.429, 1054 573.654 C 1054 572.879, 1053.325 571.685, 1052.500 571 C 1050.248 569.131, 1050.675 565.632, 1053.934 559.248 C 1060.868 545.663, 1061.619 541.540, 1059.511 528.650 L 1058.717 523.801 1063.609 518.978 C 1071.103 511.588, 1072.907 508.712, 1075.011 500.800 C 1077.322 492.113, 1077.527 483.120, 1075.584 475.662 C 1073.603 468.056, 1072.064 465.441, 1065.101 457.847 C 1058.952 451.141, 1057.802 448.239, 1060.431 446.057 C 1063.712 443.335, 1065.107 425.357, 1062.946 413.664 C 1062.351 410.447, 1060.285 405.245, 1058.206 401.731 C 1054.235 395.017, 1042.074 382.186, 1038 380.410 C 1031.134 377.418, 1024.885 375.677, 1019 375.118 L 1012.500 374.500 1011.838 365.815 C 1011.084 355.919, 1010.435 353.263, 1008.132 350.645 C 1007.234 349.625, 1006.725 348.653, 1007 348.486 C 1007.957 347.903, 999.031 335.478, 995.278 332.168 C 989.961 327.479, 983.885 323, 982.841 323 C 982.355 323, 980.109 321.777, 977.851 320.283 C 974.023 317.750, 972.868 317.538, 960.782 317.162 C 948.791 316.788, 947.604 316.917, 944.950 318.879 C 943.372 320.046, 941.613 321, 941.040 321 C 940.468 321, 940 321.450, 940 322 C 940 322.550, 939.131 323, 938.068 323 C 935.885 323, 932.053 318.158, 932.726 316.250 C 932.968 315.563, 932.679 315, 932.083 315 C 931.487 315, 931 314.325, 931 313.500 C 931 312.675, 930.550 312, 930 312 C 929.450 312, 929 311.368, 929 310.595 C 929 307.469, 918.459 296.970, 910.866 292.533 C 907.969 290.841, 900.144 288.226, 892.250 286.312 C 891.013 286.012, 890 285.369, 890 284.883 C 890 284.398, 886.513 284.033, 882.250 284.073 C 876.485 284.127, 873.751 284.625, 871.576 286.015 M 869.500 305.649 C 865.010 306.627, 861.584 308.039, 859.945 309.587 C 858.540 310.914, 856.992 312, 856.505 312 C 855.181 312, 848 320.218, 848 321.733 C 848 322.730, 848.601 322.652, 850.500 321.408 C 851.875 320.507, 853 319.380, 853 318.904 C 853 318.428, 854.237 317.736, 855.750 317.367 C 857.263 316.998, 859.740 315.667, 861.255 314.408 C 862.770 313.150, 866.038 311.817, 868.517 311.445 C 870.996 311.073, 873.271 310.371, 873.571 309.885 C 874.305 308.697, 885.727 308.748, 886.464 309.942 C 886.785 310.460, 889.174 311.191, 891.773 311.565 C 897.319 312.364, 903.950 316.049, 908.941 321.105 C 912.116 324.321, 917 327.702, 917 326.684 C 917 322.924, 908.790 312, 905.964 312 C 905.484 312, 904.026 310.935, 902.725 309.634 C 898.605 305.514, 880.236 303.311, 869.500 305.649 M 795.250 308.662 C 792.225 309.883, 794.419 311.080, 799.171 310.802 C 805.728 310.419, 807.227 307.962, 800.833 308.079 C 798.450 308.122, 795.938 308.385, 795.250 308.662 M 778.344 315.978 C 774.142 319.068, 768.660 326.327, 769.725 327.391 C 770.920 328.587, 773.074 327.971, 773.715 326.250 C 774.797 323.347, 780.376 318.288, 784.305 316.646 C 786.337 315.797, 788 314.629, 788 314.051 C 788 311.938, 782.287 313.079, 778.344 315.978 M 765.500 331 C 764.771 332.180, 765.717 334, 767.059 334 C 767.577 334, 768 333.100, 768 332 C 768 329.891, 766.545 329.309, 765.500 331 M 948 336.673 C 946.075 336.935, 943.600 337.958, 942.500 338.947 C 941.400 339.936, 939.178 341.168, 937.563 341.685 C 934.445 342.682, 932.847 345, 935.277 345 C 936.071 345, 938.379 343.875, 940.405 342.500 C 943.773 340.214, 945.016 340, 954.910 340 C 963.923 340, 966.128 340.310, 968.115 341.855 C 969.427 342.875, 972.244 344.278, 974.375 344.973 C 976.631 345.709, 978.455 347.023, 978.741 348.119 C 979.012 349.153, 979.772 350, 980.430 350 C 981.087 350, 982.919 351.350, 984.500 353 C 986.984 355.593, 990 356.982, 990 355.534 C 990 353.291, 985.963 347.855, 982.176 345 C 973.607 338.539, 969.305 336.896, 960 336.530 C 955.325 336.346, 949.925 336.410, 948 336.673 M 721.500 344 C 720.505 345.100, 719.197 346.002, 718.595 346.004 C 717.088 346.010, 708 354.360, 708 355.739 C 708 356.353, 706.873 357.741, 705.496 358.825 C 704.118 359.908, 702.712 362.191, 702.371 363.897 C 701.522 368.138, 703.691 367.983, 705.491 363.675 C 707.598 358.633, 721.696 345.616, 726.302 344.460 C 730.353 343.444, 730.595 342, 726.714 342 C 724.580 342, 722.635 342.746, 721.500 344 M 1012.594 392.847 C 1011.900 393.971, 1013.355 394.447, 1020.376 395.393 C 1022.791 395.718, 1024.822 396.728, 1025.763 398.071 C 1026.593 399.257, 1028.665 401.414, 1030.365 402.864 C 1032.066 404.314, 1035.375 407.525, 1037.718 410 C 1042.572 415.127, 1042.802 415.035, 1039.939 409.110 C 1037.464 403.987, 1031.127 397.014, 1029.510 397.634 C 1028.873 397.879, 1027.193 396.920, 1025.777 395.504 C 1022.928 392.655, 1013.844 390.825, 1012.594 392.847 M 673.533 400.275 C 671.361 402.324, 669.227 404, 668.792 404 C 668.356 404, 668 404.900, 668 406 C 668 409.083, 670.130 408.389, 674.313 403.944 C 679.615 398.309, 678.947 395.168, 673.533 400.275 M 830.852 412.881 C 826.321 417.696, 817.694 423.491, 812.138 425.451 C 804.615 428.106, 792.107 429.372, 785.982 428.099 C 779.921 426.839, 771.953 423.234, 767.807 419.876 C 765.241 417.797, 764.994 417.774, 762.557 419.371 C 761.151 420.292, 760 421.530, 760 422.122 C 760 426.126, 737.890 440.983, 731.890 441.011 C 725.451 441.041, 721.835 442.302, 720.759 444.894 C 720.164 446.327, 719.745 447.823, 719.828 448.218 C 719.911 448.613, 718.280 452.169, 716.203 456.119 C 713.450 461.355, 711.488 463.800, 708.963 465.140 C 703.360 468.112, 702 470.466, 702 477.188 C 702 482.121, 697.004 511.766, 695.290 517 C 695.020 517.825, 694.870 522.395, 694.957 527.155 C 695.052 532.335, 694.691 536.073, 694.058 536.464 C 693.476 536.824, 693 538.216, 693 539.559 C 693 541.627, 693.478 542, 696.132 542 C 697.855 542, 700.783 541.061, 702.641 539.913 C 705.371 538.226, 708.637 537.652, 719.707 536.915 C 727.236 536.414, 733.847 535.553, 734.398 535.002 C 735.695 533.705, 740.699 533.704, 741.500 535 C 741.840 535.550, 743.302 536, 744.749 536 C 749.569 536, 759.425 538.167, 765.894 540.649 C 771.760 542.899, 781 549.219, 781 550.981 C 781 551.387, 782.575 553.390, 784.500 555.431 C 786.425 557.472, 788 559.560, 788 560.071 C 788 561.326, 795.721 561.261, 796.500 560 C 797.349 558.626, 814 558.686, 814 560.063 C 814 560.647, 814.788 561.022, 815.750 560.894 C 816.712 560.767, 818.768 561.274, 820.317 562.022 C 822.747 563.195, 823.503 563.165, 825.817 561.801 C 827.293 560.931, 829.144 558.820, 829.930 557.110 C 830.717 555.399, 831.792 554, 832.319 554 C 832.845 554, 835.273 552.160, 837.712 549.911 C 843.427 544.643, 848.533 542.440, 859.437 540.539 C 869.295 538.820, 887.130 538.574, 894 540.062 C 896.475 540.598, 902.100 541.712, 906.500 542.537 C 913.722 543.892, 920.563 546.643, 929.710 551.871 C 931.476 552.880, 934.880 555.780, 937.275 558.316 L 941.629 562.925 948.564 561.839 C 952.379 561.241, 960.144 560.986, 965.819 561.272 C 975.992 561.784, 976.153 561.757, 977.241 559.369 C 978.363 556.908, 978.017 555.864, 973.474 548 C 972.470 546.262, 972.025 542.316, 972.015 535.054 C 972.001 525.496, 972.215 524.297, 974.528 520.959 C 977.582 516.553, 977.051 514.584, 972.127 512.045 C 968.781 510.320, 965.080 506.596, 958.403 498.233 C 953.081 491.569, 951.465 478.315, 954.536 466.524 C 955.380 463.282, 955.873 460.111, 955.630 459.479 C 955.337 458.716, 951.440 458.299, 944.037 458.239 C 933.993 458.158, 932.368 457.882, 927.692 455.466 C 924.836 453.991, 921.571 451.932, 920.436 450.892 C 919.300 449.851, 917.838 449, 917.186 449 C 916.533 449, 916 448.631, 916 448.180 C 916 447.729, 914.763 445.953, 913.250 444.233 C 910.782 441.426, 909.388 439.387, 905.265 432.549 C 904.585 431.422, 904.023 428.643, 904.015 426.372 C 903.994 420.620, 901.824 418.937, 898.204 421.867 C 892.951 426.118, 888.831 427.347, 878.340 427.791 C 867.323 428.256, 860.357 426.741, 854.521 422.609 C 851.532 420.493, 851.015 420.152, 845.328 416.554 C 843.637 415.484, 841.409 413.348, 840.377 411.807 C 837.819 407.989, 835.174 408.287, 830.852 412.881 M 664.015 414.250 C 664.027 416.716, 664.264 417.138, 665 416 C 666.270 414.035, 666.270 411, 665 411 C 664.450 411, 664.007 412.462, 664.015 414.250 M 169.905 468.723 C 166.290 469.928, 165.071 470.921, 164.193 473.377 C 163.299 475.879, 162.507 520.297, 162.948 543.173 C 163.030 547.376, 167.518 552, 171.516 552 C 175.152 552, 179 548.331, 179 544.865 C 179 543.839, 179.338 543.001, 179.750 543.002 C 180.162 543.003, 180.358 538.775, 180.184 533.605 C 179.886 524.765, 180.004 524.111, 182.156 522.603 C 183.507 521.657, 186.472 521, 189.391 521 C 199.866 521, 206.600 519.104, 211.527 514.767 C 218.216 508.879, 221.979 501.805, 221.991 495.096 C 222.009 484.394, 212.099 471.889, 200.983 468.588 C 194.012 466.517, 176.290 466.595, 169.905 468.723 M 236.960 469.250 C 234.886 470.649, 233.299 472.758, 232.764 474.827 C 232.290 476.656, 232.037 493.684, 232.202 512.666 L 232.500 547.179 234.861 549.089 C 237.810 551.476, 242.209 551.552, 244.217 549.250 C 247.572 545.404, 248.473 542.138, 248.977 532 L 249.500 521.500 252.694 521.191 C 255.339 520.935, 256.598 521.614, 260.031 525.151 C 262.309 527.499, 264.987 531.013, 265.980 532.960 C 266.974 534.907, 268.735 537.357, 269.894 538.405 C 271.052 539.453, 272 540.786, 272 541.367 C 272 543.626, 280.410 551, 282.986 551 C 287.761 551, 290 548.447, 290 543.002 C 290 540.316, 289.541 537.835, 288.981 537.488 C 288.421 537.142, 286.894 534.753, 285.589 532.179 C 284.284 529.606, 282.276 526.651, 281.128 525.613 C 279.979 524.575, 278.755 522.209, 278.407 520.355 C 277.890 517.598, 278.295 516.323, 280.637 513.351 C 288.171 503.789, 289.258 501.649, 289.760 495.398 C 290.199 489.929, 289.900 488.563, 287.020 482.880 C 280.580 470.174, 273.767 467, 252.930 467 C 241.483 467, 239.982 467.211, 236.960 469.250 M 182.611 485.091 C 180.203 486.986, 179.897 487.848, 180.123 492.102 C 180.264 494.770, 180.070 497.264, 179.690 497.643 C 176.235 501.098, 183.418 505.497, 190.773 504.430 C 199.086 503.224, 202.912 499.888, 202.967 493.798 C 202.996 490.550, 202.479 489.739, 198.750 487.188 C 192.786 483.107, 186.219 482.254, 182.611 485.091 M 251.305 486.250 C 249.917 487.779, 249.065 490.499, 248.647 494.738 C 248.071 500.588, 248.186 501.076, 250.495 502.589 C 252.437 503.861, 254.247 504.052, 259.067 503.492 C 274.057 501.752, 276.881 488.316, 262.666 486.368 C 260.070 486.012, 257.706 485.334, 257.414 484.860 C 256.436 483.279, 253.370 483.976, 251.305 486.250 M 738.500 503.955 C 731.670 505.064, 724.271 508.037, 718.406 512.029 C 712.352 516.149, 712.034 516.606, 712.015 521.214 C 712.002 524.390, 712.540 525.295, 715.732 527.464 C 720.115 530.442, 724.908 530.725, 731.953 528.420 C 737.600 526.574, 749.954 526.836, 757.059 528.954 C 762.722 530.642, 765.969 529.877, 769.923 525.923 C 776.266 519.580, 774.483 513.015, 764.870 507.317 C 760.387 504.660, 758.178 504.053, 751.500 503.639 C 747.100 503.366, 741.250 503.508, 738.500 503.955 M 872.059 507.167 C 856.955 509.325, 848.040 518.375, 852.508 527.015 C 853.381 528.704, 855.248 530.524, 856.656 531.059 C 858.065 531.595, 866.256 531.915, 874.859 531.770 C 890.128 531.513, 890.635 531.572, 896.188 534.253 C 905.003 538.510, 911.138 537.931, 914.865 532.492 C 918.041 527.858, 917.167 522.307, 912.682 518.616 C 906.690 513.685, 895.989 509.008, 887.184 507.473 C 882.539 506.663, 878.684 506.056, 878.619 506.123 C 878.554 506.191, 875.602 506.661, 872.059 507.167 M 80 533.500 C 80 542.991, 80.351 547.901, 81 547.500 C 81.586 547.138, 82 541.343, 82 533.500 C 82 525.657, 81.586 519.862, 81 519.500 C 80.351 519.099, 80 524.009, 80 533.500 M 712.948 557.366 C 706.789 560.481, 698.740 569.783, 697.191 575.577 C 695.188 583.066, 698.525 584.466, 701.486 577.380 C 702.286 575.464, 706.934 569.904, 711.814 565.024 C 718.704 558.134, 720.293 556.048, 718.927 555.691 C 717.960 555.438, 715.269 556.192, 712.948 557.366 M 402.750 558.705 C 401.238 558.940, 400 559.585, 400 560.138 C 400 560.691, 398.988 561.017, 397.750 560.862 C 394.147 560.412, 383.501 566.778, 378.035 572.651 C 375.266 575.626, 373 578.618, 373 579.298 C 373 579.979, 371.859 582.215, 370.464 584.268 C 366.266 590.445, 365.750 599.619, 366.209 659.906 C 366.509 699.232, 366.939 714.480, 367.756 714.752 C 368.378 714.959, 368.640 715.775, 368.337 716.565 C 368.034 717.354, 368.232 718, 368.776 718 C 369.321 718, 370.063 718.788, 370.425 719.750 C 372.978 726.537, 385.238 739.627, 389.919 740.563 C 391.339 740.846, 395.047 741.726, 398.160 742.518 C 402.667 743.665, 413.644 743.981, 452.038 744.070 C 496.170 744.171, 500.605 744.334, 504.378 745.984 C 506.645 746.977, 509.232 748.623, 510.128 749.644 C 511.818 751.571, 514.680 753.979, 526.500 763.416 C 530.350 766.490, 535.075 770.351, 537 771.997 C 546.870 780.436, 555.138 784.684, 559.541 783.579 C 563.322 782.630, 568 777.684, 568 774.636 C 568 773.251, 568.450 771.840, 569 771.500 C 569.583 771.139, 570 765.490, 570 757.941 C 570 746.333, 570.206 744.794, 572 743 C 573.100 741.900, 574.819 741, 575.819 741 C 578.133 741, 586.533 734.707, 591.170 729.500 C 593.129 727.300, 596.212 722.642, 598.020 719.148 L 601.309 712.796 601.769 654.046 C 602.098 612.085, 601.902 593.770, 601.084 589.955 C 598.830 579.444, 588.701 567.864, 578 563.563 C 574.425 562.125, 570.600 560.399, 569.500 559.725 C 567.969 558.787, 548.494 558.474, 486.500 558.389 C 441.950 558.327, 404.262 558.470, 402.750 558.705 M 855.340 564.814 C 849.033 568.887, 843.139 576.169, 841.394 582.045 C 840.552 584.879, 840.076 587.409, 840.335 587.668 C 841.389 588.722, 845.294 585.253, 847.193 581.575 C 848.950 578.171, 852.052 574.600, 862.243 564.250 L 864.458 562 861.979 562.064 C 860.616 562.099, 857.628 563.337, 855.340 564.814 M 669.750 567.392 C 668.788 568.123, 668 569.421, 668 570.277 C 668 571.134, 667.078 573.984, 665.952 576.612 C 661.223 587.644, 664.587 621, 670.428 621 C 672.309 621, 673 618.729, 673 612.553 C 673 608.776, 673.573 606.542, 675.009 604.716 C 678.135 600.741, 678.390 597.017, 676.095 588.838 C 673.661 580.164, 673.579 577.929, 675.496 572.545 C 677.545 566.794, 674.333 563.913, 669.750 567.392 M 1016.780 576.713 C 1015.008 576.983, 1011.964 579.416, 1008.041 583.697 C 1002.364 589.892, 1000.019 594.525, 1000.006 599.572 C 1000.003 600.711, 998.663 603.411, 997.028 605.572 C 993.590 610.115, 993.479 610.773, 995.495 614.636 C 996.317 616.211, 997.280 619.035, 997.636 620.910 C 998.388 624.876, 996.193 643.763, 994.886 644.571 C 994.399 644.872, 994 646.829, 994 648.920 C 994 652.536, 994.287 652.874, 999.890 655.861 C 1003.129 657.587, 1006.679 659, 1007.778 659 C 1012.759 659, 1023.550 652.601, 1030.500 645.527 C 1036.465 639.455, 1037.984 637.152, 1040.776 629.951 C 1042.577 625.303, 1044.040 620.750, 1044.026 619.833 C 1044.011 618.917, 1044.459 618.014, 1045.020 617.827 C 1045.621 617.626, 1046.061 613.186, 1046.093 606.993 C 1046.145 596.917, 1046.007 596.222, 1042.612 589.500 C 1040.668 585.650, 1038.451 581.717, 1037.686 580.761 C 1034.560 576.851, 1026.339 575.259, 1016.780 576.713 M 401.272 578.113 C 396.144 579.595, 387.047 588.737, 385.960 593.500 C 384.626 599.349, 384.740 702.688, 386.087 708.972 C 387.310 714.673, 391.558 719.906, 397.724 723.307 C 401.372 725.320, 403.278 725.411, 454 726.002 C 482.875 726.338, 507.400 727, 508.500 727.473 C 512.313 729.112, 519.562 734.536, 532.120 745.149 C 539.061 751.015, 546.156 756.547, 547.888 757.442 C 550.798 758.947, 551.083 758.946, 551.662 757.437 C 552.007 756.539, 551.985 750.428, 551.614 743.856 L 550.939 731.908 553.750 729.096 C 555.929 726.917, 557.903 726.121, 562.530 725.552 C 571.375 724.466, 578.724 719.306, 582.543 711.500 C 584.391 707.723, 584.516 704.799, 584.778 659.035 C 584.931 632.379, 584.653 606.118, 584.160 600.677 L 583.265 590.785 577.306 584.826 C 573.067 580.587, 570.216 578.605, 567.424 577.958 C 562.203 576.747, 405.494 576.893, 401.272 578.113 M 795.759 579.141 C 792.377 580.399, 790.610 584.143, 788.562 594.395 C 787.694 598.737, 786.006 603.912, 784.809 605.895 C 778.086 617.038, 773.730 622.993, 769.850 626.343 C 763.968 631.423, 764.331 631.177, 756.993 635.062 L 750.500 638.500 736 638.500 C 722.205 638.500, 721.228 638.366, 715.904 635.750 C 712.825 634.237, 709.810 633, 709.204 633 C 707.344 633, 698.706 626.847, 694.904 622.815 C 692.810 620.593, 690.368 619, 689.060 619 C 686.914 619, 686.848 619.238, 687.608 624.250 C 688.046 627.138, 688.289 632.211, 688.149 635.524 C 687.872 642.075, 688.065 642.467, 696.755 653.024 C 699.095 655.866, 701.260 659.387, 701.565 660.846 C 702.509 665.364, 703.561 666.449, 707.821 667.291 C 711.926 668.103, 716 671.768, 716 674.650 C 716 676.373, 721.794 679.991, 724.563 679.996 C 725.698 679.998, 727.939 681.370, 729.543 683.045 C 732.236 685.856, 732.558 685.957, 733.730 684.354 C 734.429 683.399, 735 680.333, 735 677.541 C 735 673.774, 735.645 671.515, 737.500 668.785 C 738.875 666.762, 740 664.713, 740 664.232 C 740 662.728, 752.873 650.215, 756.268 648.419 C 758.045 647.479, 762.343 646.380, 765.818 645.977 C 770.638 645.418, 772.780 644.627, 774.854 642.640 C 779.330 638.352, 782.662 638.302, 790.141 642.413 C 797.790 646.618, 798.088 646.644, 806.648 643.879 C 813.859 641.549, 819.704 641.761, 825.092 644.548 C 826.774 645.417, 831.328 646.395, 835.213 646.721 C 839.202 647.056, 844.163 648.224, 846.612 649.407 C 851.288 651.664, 871.867 668.827, 871.950 670.539 C 871.977 671.110, 872.900 673.342, 874 675.500 C 875.278 678.006, 876.006 681.423, 876.015 684.961 C 876.034 691.806, 877.172 694.043, 879.722 692.248 C 883.548 689.553, 886.620 688.876, 892.121 689.514 C 897.726 690.165, 897.750 690.156, 898.823 687.078 C 900.145 683.287, 903.560 681.841, 909.325 682.631 C 913.521 683.206, 913.763 683.080, 918.983 677.610 C 923.696 672.672, 924.805 672, 928.235 672 C 933.426 672, 935.612 670.681, 937.921 666.155 C 938.981 664.077, 941.641 661.135, 943.833 659.616 C 946.025 658.097, 948.334 655.608, 948.965 654.084 C 949.596 652.560, 952.322 649.138, 955.022 646.479 C 958.915 642.644, 960.066 640.743, 960.583 637.295 C 961.217 633.065, 962.458 630.873, 968.340 623.591 C 970.074 621.444, 971.387 618.405, 971.712 615.787 C 972.054 613.031, 973.127 610.651, 974.716 609.122 C 976.778 607.139, 977.084 606.142, 976.556 603.122 C 974.963 594.001, 974.877 591.904, 975.963 588.614 C 976.820 586.014, 976.832 584.555, 976.008 583.015 C 974.937 581.014, 974.372 580.957, 961.697 581.562 C 944.956 582.360, 943.952 582.935, 942.376 592.603 C 940.761 602.519, 934.435 617.512, 931.370 618.688 C 930.617 618.977, 930 619.879, 930 620.692 C 930 622.916, 914.614 637.527, 910.814 638.912 C 908.991 639.576, 905.700 641.097, 903.500 642.292 C 899.923 644.236, 897.658 644.505, 882.064 644.835 C 871.142 645.067, 863.250 644.792, 860.943 644.101 C 855.370 642.431, 844.702 636.206, 839.270 631.455 C 833.803 626.672, 826.361 616.373, 825.390 612.244 C 824.676 609.210, 821.380 600.536, 819.846 597.655 C 819.306 596.640, 818.949 593.490, 819.053 590.655 C 819.286 584.306, 818.505 582.305, 815.129 580.595 C 811.593 578.804, 799.171 577.871, 795.759 579.141 M 468.777 618.979 C 427.331 619.484, 425.992 619.562, 423.995 621.560 C 422.863 622.693, 421.680 625.200, 421.366 627.131 C 420.879 630.135, 421.256 631.102, 423.975 633.821 C 426.559 636.405, 427.935 636.991, 431.327 636.950 C 433.622 636.923, 459.171 637.132, 488.103 637.414 L 540.706 637.927 544.853 634.877 C 548.433 632.244, 549 631.315, 549 628.088 C 549 625.484, 548.317 623.726, 546.750 622.299 C 542.423 618.358, 540.549 617.993, 525.816 618.229 C 517.942 618.355, 492.275 618.692, 468.777 618.979 M 164.626 624.485 C 160.190 627.116, 159.037 628.599, 159.015 631.703 C 158.986 635.854, 161.191 638.978, 164.915 640.063 C 167.298 640.758, 191.071 641.007, 235.837 640.804 L 303.174 640.500 305.587 637.694 C 310.101 632.445, 308.259 626.094, 301.750 624.470 C 300.238 624.092, 299 623.382, 299 622.892 C 299 622.378, 271.365 622.040, 233.750 622.094 L 168.500 622.189 164.626 624.485 M 80 643 C 80 648.824, 80.361 651.895, 81 651.500 C 81.550 651.160, 82 647.335, 82 643 C 82 638.665, 81.550 634.840, 81 634.500 C 80.361 634.105, 80 637.176, 80 643 M 430.286 663.938 C 424.719 664.846, 422 667.400, 422 671.721 C 422 676.618, 423.506 678.769, 427.762 679.951 C 429.988 680.569, 444.560 680.991, 463.800 680.994 C 491.007 680.999, 496.571 680.756, 499.093 679.452 C 504.987 676.404, 505.281 669.096, 499.663 665.250 C 496.418 663.029, 495.982 663.002, 465.438 663.125 C 448.422 663.194, 432.604 663.560, 430.286 663.938 M 792.280 675.826 C 781.232 680.314, 784.380 682.495, 803.058 683.294 C 817.079 683.894, 824.763 682.881, 824.264 680.500 C 824.148 679.950, 821.393 679.236, 818.142 678.913 C 814.285 678.530, 811.273 677.573, 809.480 676.163 C 806.063 673.475, 798.435 673.326, 792.280 675.826 M 762.656 677.286 C 758.316 680.759, 756.644 692.459, 759.390 700.146 C 760.495 703.237, 767.066 710.408, 768.917 710.542 C 769.238 710.565, 771.740 711.598, 774.478 712.837 C 781.361 715.951, 784.234 715.462, 785.134 711.024 C 786.401 704.782, 788.647 703.892, 801.373 704.587 C 814.151 705.285, 817.299 706.675, 817.813 711.849 C 817.986 713.582, 818.623 715, 819.230 715 C 819.837 715, 820.036 715.297, 819.673 715.660 C 819.310 716.023, 819.835 716.897, 820.840 717.601 C 822.340 718.651, 823.459 718.607, 827.084 717.356 C 829.815 716.412, 832.965 716.064, 835.340 716.441 C 840.793 717.309, 844.796 714.530, 848.779 707.110 C 852.872 699.487, 853.128 692.608, 849.616 684.667 C 847.697 680.327, 846.676 679.171, 844.372 678.731 C 840.310 677.954, 839.724 678.673, 840.453 683.535 C 841.084 687.746, 841.002 687.907, 836.405 691.417 C 833.824 693.388, 831.169 695, 830.505 695 C 829.841 695, 827.093 696.217, 824.399 697.703 C 819.659 700.319, 819.007 700.405, 804.282 700.339 C 792.608 700.287, 788.532 699.926, 786.782 698.787 C 785.527 697.971, 782.700 696.727, 780.500 696.022 C 778.300 695.317, 774.587 693.194, 772.250 691.303 C 768.592 688.345, 768 687.334, 768 684.048 C 768 681.079, 768.556 679.866, 770.500 678.592 C 774.044 676.270, 773.601 674.999, 769.250 675.005 C 766.854 675.008, 764.473 675.832, 762.656 677.286 M 164.002 687.653 C 159.312 690.980, 158.733 692.293, 159.953 696.825 C 160.825 700.065, 161.586 700.860, 164.745 701.829 C 169.071 703.156, 201.254 703.623, 262.673 703.250 L 303.847 703 306.923 700.411 C 311.964 696.170, 311.094 690.584, 304.785 686.680 C 302.309 685.148, 296.147 685.008, 234.785 685.086 L 167.500 685.171 164.002 687.653 M 916.653 755 C 914.774 756.650, 912.870 758, 912.423 758 C 911.975 758, 910.368 759.189, 908.851 760.643 C 906.617 762.783, 904.784 763.406, 899.209 763.917 C 893.645 764.427, 891.679 765.093, 888.944 767.393 C 885.858 769.991, 885.078 770.189, 880.017 769.660 C 874.366 769.069, 873.753 769.259, 866.995 773.695 C 863.588 775.932, 858.278 776.336, 836.277 776.035 C 832.769 775.988, 828.462 776.616, 826.405 777.475 C 821.871 779.369, 817.090 779.383, 814.615 777.509 C 812.545 775.942, 808.919 775.372, 795.750 774.541 L 787 773.988 787 776.494 C 787 777.872, 787.348 779, 787.773 779 C 788.199 779, 791.011 781.285, 794.023 784.078 C 800.036 789.652, 808.500 794.044, 817 795.998 C 820.025 796.693, 823.058 797.705, 823.741 798.246 C 824.423 798.787, 826.356 799.028, 828.035 798.782 C 829.714 798.535, 831.320 798.708, 831.603 799.167 C 832.302 800.298, 846.739 800.231, 847.442 799.094 C 847.750 798.596, 848.904 798.424, 850.006 798.712 C 851.109 799, 852.602 798.745, 853.325 798.146 C 854.047 797.546, 857.757 796.342, 861.569 795.471 C 869.900 793.566, 879.652 789.840, 886.622 785.897 C 889.439 784.304, 892.229 783, 892.822 783 C 895.110 783, 903.581 776.348, 911.367 768.436 C 923.593 756.012, 925 754.436, 925 753.167 C 925 750.932, 920.046 752.020, 916.653 755 M 217.250 768.031 C 216.012 768.529, 215 769.377, 215 769.916 C 215 771.294, 206.394 781.475, 196.298 792.041 C 189.493 799.162, 187.161 801, 184.927 801 C 183.382 801, 181.854 800.573, 181.531 800.050 C 181.208 799.528, 178.200 797.014, 174.846 794.463 C 169.553 790.437, 168.308 789.907, 165.417 790.450 C 159.647 791.532, 156.703 797.572, 158.566 804.503 C 158.862 805.604, 161.356 808.304, 164.109 810.503 C 166.862 812.701, 171.935 816.807, 175.382 819.627 C 183.692 826.424, 185.200 826.826, 189.973 823.519 C 193.829 820.847, 206.336 808.135, 217.500 795.541 C 220.800 791.818, 224.473 787.811, 225.663 786.636 C 228.893 783.445, 230.141 777.715, 228.589 773.205 C 226.774 767.932, 222.429 765.950, 217.250 768.031 M 276.400 799.400 C 274.530 801.270, 273 803.658, 273 804.706 C 273 807.040, 277.450 813.249, 279.791 814.180 C 282.571 815.285, 430.039 815.118, 434 814.005 C 437.551 813.007, 441.029 808.600, 440.973 805.169 C 440.958 804.251, 439.377 801.813, 437.459 799.750 L 433.973 796 356.887 796 L 279.800 796 276.400 799.400 M 411 849.009 C 411 849.380, 409.220 850.217, 407.045 850.868 C 401.138 852.638, 399.740 854.469, 400.538 859.386 C 401.344 864.348, 401.867 864.963, 406.718 866.653 C 411.850 868.440, 413.327 868.345, 419.111 865.857 C 422.990 864.188, 424.425 862.918, 425.595 860.119 C 426.421 858.141, 426.861 855.583, 426.573 854.433 C 425.994 852.130, 422.174 850, 418.620 850 C 417.362 850, 416.024 849.691, 415.646 849.313 C 414.731 848.397, 411 848.153, 411 849.009 M 164.713 854.500 C 157.654 856.833, 155.892 865.917, 161.753 869.758 C 164.232 871.382, 170.636 871.500, 256.552 871.500 C 330.156 871.500, 349.004 871.241, 350.242 870.214 C 353.822 867.243, 353.102 856.260, 349.202 854.338 C 346.709 853.110, 168.446 853.266, 164.713 854.500" stroke="none" fill="#171916" fill-rule="evenodd"/>
</svg>