<svg role="img" aria-labelledby="artwork-title" shape-rendering="geometricPrecision" xmlns="http://www.w3.org/2000/svg" width="1200" height="1200" viewBox="0 0 1200 1200" version="1.1">
	<title id="artwork-title">Mascot approving code with a checkmark</title>
	<path d="M 757.500 240 C 757.160 240.550, 755.870 241, 754.632 241 C 753.395 241, 751.509 241.668, 750.441 242.484 C 749.374 243.300, 746.899 244.419, 744.942 244.971 C 736.687 247.298, 720.229 263.162, 715.261 273.580 C 713.338 277.612, 711.254 277.907, 705.236 275 C 697.350 271.190, 676.896 273.025, 670.408 278.124 C 669.807 278.596, 669.056 278.722, 668.738 278.404 C 667.762 277.429, 654.777 286.531, 649.828 291.659 C 647.258 294.321, 643.309 298.975, 641.053 302 C 637.163 307.215, 636.095 309.862, 632.528 323.131 C 630.714 329.875, 628.602 331.534, 621 332.186 C 616.913 332.536, 614.087 333.571, 610 336.216 C 603.508 340.416, 592.441 351.241, 590.285 355.500 C 589.449 357.150, 587.913 359.435, 586.870 360.579 C 585.546 362.029, 584.360 366.409, 582.943 375.079 C 580.988 387.040, 580.974 387.870, 582.580 397.500 C 584.129 406.790, 584.664 408.139, 590.123 416.498 C 593.356 421.446, 596 426.214, 596 427.093 C 596 427.971, 595.096 429.508, 593.991 430.508 C 592.887 431.508, 591.469 434.040, 590.841 436.135 C 590.214 438.231, 588.875 440.830, 587.868 441.911 C 583.535 446.562, 583.059 463.263, 587.112 468.415 C 588.190 469.786, 589.619 472.467, 590.286 474.373 C 590.954 476.279, 592.850 479.456, 594.500 481.434 L 597.500 485.029 597.500 498.765 C 597.500 512.259, 597.549 512.564, 600.290 516.147 C 604.144 521.185, 605.071 524.927, 603.430 528.830 C 602.696 530.573, 601.488 532, 600.744 532 C 598.742 532, 593.534 537.863, 590.971 543 C 589.737 545.475, 587.705 548.722, 586.457 550.215 C 585.209 551.709, 583.865 554.859, 583.472 557.215 C 583.078 559.572, 581.869 563.750, 580.786 566.500 C 579.054 570.896, 578.861 573.374, 579.193 587 C 579.479 598.727, 579.961 603.230, 581.171 605.500 C 582.052 607.150, 583.297 611.048, 583.939 614.163 C 584.581 617.278, 585.699 620.054, 586.425 620.333 C 587.150 620.611, 588.714 622.844, 589.901 625.295 C 591.087 627.745, 594.808 632.374, 598.169 635.580 L 604.281 641.409 604.390 657.455 C 604.482 670.893, 604.796 674.069, 606.324 677 C 608.490 681.157, 610.534 687.176, 611.403 691.953 C 612.175 696.195, 617.521 707.358, 619.613 709.094 C 620.456 709.794, 621.983 712.006, 623.005 714.010 C 627.088 722.012, 632.948 729.736, 635.849 730.937 C 638.500 732.036, 645.242 739.273, 650.295 746.448 C 652.097 749.005, 662.163 756, 664.042 756 C 665.900 756, 674 764.237, 674 766.127 C 674 767.634, 673.246 768, 670.140 768 C 667.431 768, 663.179 769.600, 655.890 773.361 C 638.735 782.213, 636.581 783.435, 635.364 785 C 634.723 785.825, 632.466 787.400, 630.349 788.500 C 626.198 790.656, 620.227 794.975, 615.627 799.147 C 614.046 800.581, 611.282 802.982, 609.484 804.484 C 596.817 815.061, 575.277 836.545, 567 846.859 C 565.625 848.572, 561.464 853.242, 557.754 857.237 C 554.043 861.232, 551.006 865.032, 551.004 865.683 C 551.002 866.333, 550.150 867.135, 549.112 867.465 C 548.073 867.794, 545.945 869.962, 544.382 872.282 C 538.227 881.420, 537.802 883.522, 541.037 888.829 L 543.066 892.157 540.978 895.536 C 538.585 899.408, 533.952 903.563, 530.975 904.508 C 529.529 904.967, 527.924 904.262, 525.435 902.077 C 523.507 900.385, 521.113 899, 520.114 899 C 519.115 899, 516.236 897.904, 513.715 896.563 C 511.195 895.223, 506.290 893.591, 502.816 892.936 C 499.342 892.281, 494.475 890.482, 492 888.937 C 489.525 887.392, 486.307 885.677, 484.848 885.126 C 483.034 884.441, 481.815 882.919, 480.991 880.312 C 476.679 866.679, 455.356 846.430, 439.066 840.500 C 431.002 837.565, 429.430 834.718, 428.751 821.821 C 428.382 814.814, 427.546 809.839, 426.148 806.326 C 425.016 803.480, 423.791 798.755, 423.428 795.826 C 422.810 790.850, 420.970 785.944, 417.492 780 C 416.688 778.625, 416.023 776.640, 416.015 775.588 C 416.007 774.536, 414.937 771.836, 413.637 769.588 C 412.337 767.340, 410.499 763.133, 409.553 760.240 C 408.607 757.348, 407.025 754.548, 406.037 754.020 C 405.049 753.491, 403.522 751.263, 402.645 749.070 C 401.170 745.385, 398.159 741.015, 391.951 733.553 C 387.937 728.727, 370.796 711.733, 366.683 708.500 C 364.583 706.850, 360.983 704.026, 358.683 702.225 C 356.382 700.424, 353.038 698.309, 351.250 697.526 C 349.463 696.743, 348 695.554, 348 694.884 C 348 694.215, 347.703 693.964, 347.340 694.327 C 346.977 694.690, 346.051 694.090, 345.283 692.994 C 344.515 691.897, 343.350 690.989, 342.693 690.975 C 342.037 690.961, 337.905 689.161, 333.511 686.975 C 329.117 684.789, 324.730 683, 323.761 683 C 322.792 683, 322 682.523, 322 681.941 C 322 681.359, 321.550 681.160, 321 681.500 C 320.450 681.840, 320 681.702, 320 681.193 C 320 678.917, 293.886 671.468, 282.052 670.368 C 278.139 670.005, 274.700 669.323, 274.409 668.853 C 273.683 667.679, 240.390 667.771, 238.236 668.954 C 237.281 669.478, 232.450 670.347, 227.500 670.885 C 217.494 671.971, 193.426 678.154, 188 681.033 C 186.075 682.054, 180.464 684.774, 175.531 687.078 C 166.530 691.281, 161.071 694.921, 149 704.768 C 136.475 714.986, 134.718 716.538, 130.127 721.440 C 127.582 724.158, 124.568 727.308, 123.429 728.440 C 122.290 729.573, 119.037 733.650, 116.202 737.500 C 113.366 741.350, 110.194 745.625, 109.154 747 C 108.113 748.375, 107.123 749.950, 106.953 750.500 C 106.783 751.050, 105.206 753.975, 103.447 757 C 101.689 760.025, 99.916 763.625, 99.508 765 C 99.100 766.375, 97.244 770.034, 95.383 773.131 C 93.522 776.228, 92 779.744, 92 780.945 C 92 782.146, 90.937 785.462, 89.638 788.314 C 88.339 791.166, 86.945 796.200, 86.540 799.500 C 85.565 807.459, 83.591 812.164, 81.555 811.383 C 80.167 810.850, 80 814.492, 80 845.362 C 80 874.857, 80.209 879.857, 81.423 879.391 C 83.413 878.627, 84.732 881.560, 86.015 889.605 C 86.620 893.397, 88.261 899.875, 89.662 904 C 92.617 912.701, 92.962 913.827, 92.898 914.568 C 92.871 914.868, 94.029 916.661, 95.471 918.551 C 96.912 920.440, 98.695 923.991, 99.432 926.441 C 100.170 928.891, 101.724 932.105, 102.886 933.583 C 104.049 935.061, 105 936.857, 105 937.574 C 105 938.291, 106.800 940.958, 109 943.500 C 111.200 946.042, 113 948.464, 113 948.882 C 113 949.301, 115.492 952.236, 118.538 955.407 L 124.076 961.170 135.505 960.835 C 144.302 960.577, 147.300 960.133, 148.525 958.906 C 150.822 956.605, 149.523 952.720, 145.924 951.127 C 144.291 950.404, 142.319 948.584, 141.543 947.083 C 140.767 945.582, 139.394 943.742, 138.493 942.994 C 137.591 942.246, 135.994 939.949, 134.944 937.890 C 133.893 935.830, 132.154 933.866, 131.079 933.525 C 129.968 933.172, 128.612 931.306, 127.939 929.202 C 127.287 927.166, 125.918 924.581, 124.897 923.457 C 123.876 922.333, 122.500 919.858, 121.839 917.957 C 121.179 916.056, 119.430 912.828, 117.953 910.784 C 116.475 908.740, 114.967 905.196, 114.601 902.907 C 114.235 900.619, 112.859 896.891, 111.542 894.623 C 109.813 891.646, 108.952 888.201, 108.443 882.228 C 108.055 877.678, 107.389 873.740, 106.963 873.477 C 106.537 873.214, 106.423 872.098, 106.711 870.999 C 106.998 869.900, 106.797 869, 106.263 869 C 102.215 869, 102.173 825.227, 106.216 820.263 C 106.770 819.582, 106.963 818.345, 106.643 817.513 C 106.324 816.681, 106.499 816, 107.031 816 C 107.564 816, 108 814.508, 108 812.684 C 108 806.992, 110.089 797.638, 112.087 794.382 C 113.139 792.667, 114.003 790.642, 114.006 789.882 C 114.019 786.643, 116.138 781.314, 118.366 778.919 C 119.686 777.500, 121.070 774.959, 121.440 773.273 C 121.810 771.587, 123.034 769.374, 124.159 768.356 C 125.284 767.338, 126.897 765.154, 127.743 763.502 C 129.235 760.590, 131.151 758.004, 137.583 750.228 C 139.279 748.177, 140.969 745.670, 141.338 744.655 C 141.708 743.640, 142.795 742.585, 143.755 742.310 C 144.715 742.034, 147.949 738.922, 150.943 735.394 C 153.936 731.865, 158.774 727.333, 161.693 725.323 C 164.612 723.312, 167 721.158, 167 720.535 C 167 719.912, 168.688 718.798, 170.750 718.059 C 172.813 717.321, 175.726 715.694, 177.225 714.444 C 178.723 713.194, 181.557 711.641, 183.523 710.993 C 185.488 710.344, 188.126 708.783, 189.385 707.525 C 190.657 706.252, 193.978 704.742, 196.865 704.122 C 199.720 703.510, 203.091 702.331, 204.356 701.502 C 205.621 700.674, 209.320 699.547, 212.578 698.998 C 222.735 697.287, 229 695.713, 229 694.872 C 229 694.427, 229.681 694.324, 230.513 694.643 C 231.345 694.963, 232.763 694.612, 233.664 693.864 C 236.047 691.886, 273.953 691.894, 276.342 693.872 C 277.254 694.627, 278 694.910, 278 694.500 C 278 694.090, 278.603 694.256, 279.340 694.867 C 280.077 695.479, 285.933 696.877, 292.352 697.975 C 298.772 699.072, 305.032 700.624, 306.263 701.422 C 307.493 702.221, 311.340 703.659, 314.812 704.618 C 318.394 705.608, 321.525 707.113, 322.052 708.098 C 322.563 709.052, 325.182 710.564, 327.873 711.458 C 330.563 712.351, 333.562 713.964, 334.537 715.041 C 335.512 716.119, 336.900 717, 337.621 717 C 338.342 717, 342.500 720.150, 346.862 724 C 351.224 727.850, 355.290 731, 355.897 731 C 356.503 731, 357.011 731.337, 357.024 731.750 C 357.037 732.163, 360.008 735.650, 363.625 739.500 C 367.242 743.350, 371.897 748.750, 373.968 751.500 C 376.039 754.250, 378.693 757.357, 379.867 758.405 C 381.040 759.453, 382 760.778, 382 761.350 C 382 761.922, 383.053 763.540, 384.341 764.945 C 385.628 766.350, 387.298 769.075, 388.052 771 C 388.807 772.925, 390.402 775.280, 391.597 776.232 C 392.793 777.185, 394.081 779.660, 394.460 781.732 C 394.839 783.805, 396.215 787.336, 397.518 789.581 C 398.820 791.826, 400.189 796.101, 400.560 799.081 C 400.931 802.061, 402.154 806.525, 403.278 809 C 404.402 811.475, 405.369 813.725, 405.426 814 C 405.484 814.275, 405.858 815.014, 406.258 815.643 C 406.658 816.271, 407.101 824.011, 407.243 832.843 C 407.471 847.067, 407.298 849.104, 405.734 850.681 C 404.267 852.159, 403.633 852.252, 401.997 851.230 C 399.687 849.788, 395.363 849.603, 394.554 850.913 C 394.243 851.415, 392.231 852.123, 390.081 852.486 C 385.642 853.236, 374.202 860.266, 373.274 862.814 C 372.936 863.741, 371.611 865.772, 370.330 867.327 C 369.048 868.881, 368 871.217, 368 872.518 C 368 873.818, 367.550 875.160, 367 875.500 C 365.773 876.259, 365.674 880.680, 366.867 881.418 C 367.344 881.713, 367.963 883.978, 368.242 886.452 C 368.842 891.773, 371.946 896.042, 380.500 903.305 C 382.909 905.351, 386.064 906.947, 388.431 907.317 C 390.593 907.656, 393.039 908.610, 393.867 909.438 C 395.207 910.778, 394.980 911.522, 391.803 916.222 C 389.840 919.125, 387.843 922.625, 387.366 924 C 385.646 928.956, 379.613 938.288, 377.826 938.756 C 376.822 939.018, 376 939.847, 376 940.598 C 376 941.348, 373.075 945.063, 369.500 948.853 C 365.925 952.643, 363 956.455, 363 957.325 C 363 959.590, 369.019 960.988, 378.800 960.994 C 391.055 961.003, 391.995 960.292, 403.097 942.632 C 406.427 937.336, 409.781 937.303, 414.846 942.518 C 419.240 947.042, 429.109 952, 433.720 952 C 436.472 952, 438.081 951.154, 441.128 948.108 C 445.435 943.800, 445.611 942.071, 442.225 937.316 C 440.570 934.992, 438.699 933.887, 434.854 932.965 C 431.150 932.076, 428.829 930.752, 426.600 928.256 C 419.902 920.753, 419.521 916.560, 425 910.616 C 429.368 905.877, 429.986 902.808, 427.530 898.059 C 425.528 894.188, 421.445 893.001, 410.101 892.994 C 398.296 892.988, 393.880 891.835, 390.564 887.894 C 385.726 882.144, 386.315 876.945, 392.362 872 C 395.231 869.654, 396.133 869.500, 406.960 869.500 C 415.467 869.500, 420.143 870.002, 424.753 871.409 C 432.355 873.730, 435.697 872.766, 436.655 867.976 C 437.640 863.052, 439.803 862.733, 445.666 866.647 C 448.508 868.543, 451.616 871.311, 452.574 872.798 C 453.531 874.284, 454.924 875.863, 455.669 876.306 C 456.414 876.750, 458.108 879.253, 459.434 881.869 C 460.759 884.485, 462.558 887.218, 463.431 887.943 C 464.304 888.667, 465.302 891.034, 465.648 893.202 C 466.238 896.888, 470.822 903.700, 474.766 906.750 C 475.655 907.438, 478.659 908.011, 481.441 908.024 C 484.224 908.037, 488.075 908.469, 490 908.984 C 494.618 910.220, 506.167 914.355, 507.750 915.340 C 508.438 915.768, 509 915.813, 509 915.440 C 509 915.068, 510.528 915.928, 512.396 917.353 C 514.264 918.777, 517.751 920.238, 520.146 920.598 C 522.541 920.958, 526.525 922.287, 529 923.552 C 531.475 924.817, 535.300 926.633, 537.500 927.588 C 539.700 928.543, 542.716 930.441, 544.203 931.805 C 547.769 935.076, 555.818 936.005, 559.528 933.573 C 565.191 929.863, 564.943 923.618, 558.969 919.478 C 556.495 917.764, 554.880 915.732, 554.455 913.797 C 553.881 911.180, 554.356 910.213, 558.085 906.414 C 560.444 904.009, 562.587 902.254, 562.846 902.512 C 563.104 902.771, 563.920 902.481, 564.658 901.869 C 565.657 901.040, 566 901.069, 566 901.985 C 566 902.661, 566.619 902.976, 567.376 902.686 C 568.178 902.378, 569.195 903.132, 569.815 904.492 C 570.400 905.776, 571.918 907.156, 573.188 907.560 C 579.566 909.584, 611.718 941.239, 620.056 953.704 C 623.809 959.314, 624.603 959.962, 628.353 960.469 C 631.269 960.863, 889.203 960.746, 960.500 960.318 C 961.600 960.311, 996.250 960.436, 1037.500 960.596 C 1084.345 960.778, 1113.908 960.518, 1116.250 959.905 L 1120 958.923 1120 950.926 C 1120 945.423, 1119.522 942.200, 1118.466 940.588 C 1117.601 939.268, 1116.266 932.855, 1115.405 925.880 C 1114.565 919.078, 1113.034 911.605, 1112.003 909.274 C 1110.972 906.942, 1109.817 902.889, 1109.436 900.267 C 1109.056 897.645, 1108.477 895.050, 1108.149 894.500 C 1107.821 893.950, 1107.518 893.050, 1107.475 892.500 C 1107.432 891.950, 1106.187 889.025, 1104.708 886 C 1103.230 882.975, 1102.015 879.551, 1102.010 878.390 C 1102.004 877.230, 1100.690 873.630, 1099.088 870.390 C 1096.137 864.420, 1095.155 861.928, 1095.377 860.972 C 1095.445 860.682, 1094.037 858.456, 1092.250 856.025 C 1090.463 853.595, 1088.993 850.682, 1088.985 849.553 C 1088.977 848.424, 1088.415 846.530, 1087.735 845.345 C 1086.520 843.225, 1076.101 827.408, 1073.346 823.500 C 1072.571 822.400, 1071.035 820.086, 1069.933 818.357 C 1068.831 816.629, 1067.051 814.985, 1065.977 814.704 C 1064.903 814.423, 1063.604 813.137, 1063.091 811.847 C 1062.578 810.556, 1060.773 808.224, 1059.079 806.665 C 1057.386 805.106, 1056 803.419, 1056 802.915 C 1056 802.412, 1055.325 802, 1054.500 802 C 1053.675 802, 1053 801.590, 1053 801.089 C 1053 799.441, 1042.569 789.877, 1039.236 788.469 C 1037.441 787.711, 1035.699 786.379, 1035.366 785.510 C 1035.032 784.641, 1033.126 783.112, 1031.130 782.111 C 1029.133 781.110, 1023.366 777.778, 1018.313 774.707 C 1013.260 771.635, 1007.185 768.447, 1004.813 767.621 C 1002.441 766.796, 998.786 765.229, 996.692 764.139 C 994.597 763.048, 991.110 761.856, 988.942 761.490 C 986.774 761.124, 985 760.366, 985 759.805 C 985 759.245, 984.325 759.045, 983.500 759.362 C 982.675 759.678, 982 759.606, 982 759.201 C 982 758.183, 971.558 754.236, 965.500 752.965 C 962.750 752.389, 958.121 751.035, 955.212 749.958 C 952.304 748.881, 947.747 748, 945.085 748 C 940.500 748, 938.190 746.768, 938.525 744.500 C 938.939 741.697, 940.613 739.728, 944.089 737.954 C 948.330 735.791, 957.534 725.360, 959.632 720.339 C 960.368 718.576, 961.875 716.501, 962.979 715.727 C 964.084 714.954, 964.690 714.023, 964.327 713.660 C 963.964 713.297, 964.149 713, 964.738 713 C 965.949 713, 970.091 706.305, 974.172 697.750 C 975.681 694.587, 977.272 691.961, 977.708 691.914 C 978.143 691.867, 984.350 691.748, 991.500 691.650 C 1004.046 691.477, 1004.717 691.358, 1010.709 688.236 C 1014.124 686.456, 1017.601 685, 1018.436 685 C 1019.271 685, 1020.669 683.909, 1021.543 682.575 C 1022.417 681.241, 1024.340 679.722, 1025.816 679.200 C 1029.036 678.061, 1041 666.406, 1041 664.408 C 1041 663.634, 1041.477 663, 1042.059 663 C 1042.641 663, 1042.864 662.588, 1042.553 662.085 C 1042.242 661.582, 1042.370 661.020, 1042.838 660.835 C 1043.811 660.452, 1044.670 658.900, 1051.285 645.567 C 1053.917 640.263, 1055.803 635.491, 1055.476 634.962 C 1055.149 634.433, 1055.256 634, 1055.713 634 C 1056.663 634, 1059.118 622.881, 1059.772 615.614 C 1060.157 611.328, 1057.784 594.138, 1056.234 590 C 1055.925 589.175, 1055.622 588.275, 1055.560 588 C 1055.498 587.725, 1054.257 585.475, 1052.802 583 C 1051.347 580.525, 1049.354 576.794, 1048.373 574.708 C 1046.367 570.443, 1046.719 569.331, 1053.506 558.500 C 1057.132 552.713, 1061 542.886, 1061 539.460 C 1061 538.161, 1060.335 534.543, 1059.522 531.421 C 1058.708 528.300, 1058.371 525.163, 1058.772 524.452 C 1059.172 523.741, 1062.987 520.185, 1067.250 516.550 C 1071.513 512.915, 1075 509.549, 1075 509.071 C 1075 508.592, 1076.587 505.843, 1078.527 502.960 C 1080.466 500.078, 1081.820 497.487, 1081.535 497.202 C 1081.250 496.917, 1081.576 496.011, 1082.259 495.188 C 1083.909 493.199, 1083.825 464.699, 1082.163 462.696 C 1081.533 461.937, 1081.273 461.060, 1081.586 460.747 C 1082.118 460.215, 1077.564 453.029, 1073.359 447.766 C 1072.337 446.486, 1069.813 444.162, 1067.750 442.601 C 1063.281 439.218, 1062.993 436.660, 1066.653 432.840 C 1068.569 430.841, 1069.813 427.767, 1071.129 421.785 C 1073.922 409.093, 1073.563 401.870, 1069.412 387.240 C 1069.216 386.546, 1069.155 385.836, 1069.277 385.662 C 1069.400 385.487, 1068.327 383.804, 1066.894 381.922 C 1065.461 380.040, 1063.339 376.700, 1062.178 374.500 C 1059.599 369.614, 1050.598 360.794, 1042.443 355.163 C 1037.205 351.547, 1035.244 350.823, 1027.943 349.814 C 1019.327 348.623, 1015.520 346.414, 1016.716 343.299 C 1016.995 342.571, 1016.668 341.305, 1015.989 340.487 C 1015.132 339.454, 1015.098 339, 1015.878 339 C 1017.200 339, 1017.403 334.367, 1016.115 333.571 C 1015.629 333.271, 1014.983 331.781, 1014.679 330.262 C 1012.420 318.942, 1006.167 307.159, 997.630 298.134 C 993.292 293.549, 982.256 285, 980.675 285 C 979.756 285, 969.089 280.640, 965.764 278.906 C 963.535 277.743, 943.525 277.721, 941.236 278.878 C 931.883 283.607, 928.848 283.943, 926.592 280.500 C 925.691 279.125, 925.177 278, 925.449 278 C 925.721 278, 924.771 275.863, 923.338 273.250 C 921.904 270.637, 919.908 266.867, 918.901 264.871 C 916.632 260.372, 904.719 249.279, 900 247.270 C 898.075 246.450, 893.350 244.243, 889.500 242.364 L 882.500 238.949 866.309 238.974 C 856.622 238.990, 849.870 239.402, 849.500 240 C 849.160 240.550, 847.884 241, 846.663 241 C 845.443 241, 843.461 241.689, 842.258 242.532 C 841.055 243.374, 838.277 244.697, 836.084 245.470 C 831.926 246.937, 822.485 253.862, 820.206 257.117 C 817.803 260.546, 814.303 259.399, 806.887 252.750 C 803.053 249.313, 798.697 246.141, 797.208 245.703 C 793.565 244.630, 785.582 240.684, 785.167 239.750 C 784.656 238.600, 758.217 238.839, 757.500 240 M 851 261.142 C 847.975 261.642, 845.350 262.489, 845.167 263.025 C 844.983 263.561, 844.196 264, 843.417 264 C 842.638 264, 842 264.477, 842 265.059 C 842 265.641, 841.550 265.840, 841 265.500 C 840.450 265.160, 840 265.359, 840 265.941 C 840 266.523, 839.212 267.007, 838.250 267.017 C 835.832 267.039, 828 275.369, 828 277.918 C 828 280.824, 829.638 280.516, 833.219 276.935 C 834.904 275.250, 838.132 273.147, 840.392 272.262 C 842.651 271.377, 845.573 269.831, 846.885 268.827 C 848.917 267.270, 851.225 267, 862.500 267 C 874.188 267, 876.025 267.232, 878.257 268.987 C 879.646 270.080, 883.087 271.469, 885.902 272.072 C 889.006 272.738, 891.405 273.889, 891.998 274.996 C 892.535 276, 894.579 277.813, 896.540 279.025 C 898.501 280.237, 899.856 281.478, 899.550 281.783 C 898.746 282.587, 902.068 286, 903.655 286 C 906.011 286, 905.108 282.429, 901.587 277.818 C 898.319 273.538, 888.637 265.347, 887.192 265.640 C 886.811 265.717, 885.256 264.895, 883.736 263.812 C 878.943 260.399, 863.250 259.119, 851 261.142 M 740.293 270.750 C 736.252 274.666, 731.451 282.784, 732.535 283.869 C 732.881 284.214, 733.689 283.816, 734.332 282.985 C 734.974 282.153, 736.737 280.681, 738.250 279.713 C 739.763 278.746, 741 277.386, 741 276.693 C 741 275.999, 742.462 274.581, 744.250 273.541 C 747.792 271.481, 748.961 270.174, 748.985 268.250 C 749.017 265.648, 744.099 267.062, 740.293 270.750 M 681.500 294.992 C 672.397 297.383, 662.327 305.533, 655.302 316.196 C 652.140 320.995, 651.025 323.549, 651.558 324.766 C 651.976 325.720, 652.246 326.837, 652.159 327.250 C 651.704 329.400, 654.929 327.586, 655.951 325.117 C 656.608 323.532, 658.463 320.973, 660.073 319.430 C 661.683 317.888, 663 316.035, 663 315.313 C 663 314.591, 663.397 314, 663.882 314 C 664.368 314, 666.565 312.200, 668.765 310 C 670.965 307.800, 673.096 306, 673.502 306 C 673.907 306, 676.923 304.369, 680.205 302.375 C 686.018 298.844, 686.440 298.749, 696.619 298.666 C 705.329 298.596, 707.018 298.333, 706.778 297.085 C 706.619 296.261, 705.367 295.275, 703.995 294.894 C 700.607 293.951, 685.209 294.018, 681.500 294.992 M 935 300.735 C 934.175 301.052, 932.150 302.322, 930.500 303.557 C 928.850 304.793, 925.778 306.514, 923.673 307.383 C 920.933 308.514, 919.951 309.465, 920.214 310.731 C 920.776 313.432, 925.473 312.316, 934 307.455 C 935.689 306.492, 939.677 306.025, 946.296 306.015 C 954.842 306.002, 956.691 306.319, 960.788 308.500 C 963.371 309.875, 966.236 311, 967.155 311 C 969.735 311, 980.742 320.704, 983.501 325.411 C 984.858 327.727, 987.087 330.672, 988.453 331.956 C 989.820 333.240, 990.738 334.615, 990.493 335.012 C 990.248 335.408, 990.881 336.487, 991.900 337.410 C 994.902 340.127, 995.421 336.693, 992.844 331.155 C 991.653 328.595, 990.619 326.275, 990.547 326 C 990.102 324.299, 986.824 319, 986.218 319 C 985.817 319, 984.886 317.640, 984.150 315.977 C 983.414 314.314, 981.392 312.227, 979.656 311.338 C 977.920 310.448, 976.260 309.352, 975.966 308.900 C 975.672 308.449, 971.897 306.262, 967.577 304.040 L 959.724 300 948.112 300.079 C 941.725 300.122, 935.825 300.417, 935 300.735 M 615.750 357.349 C 613.138 359.692, 611 362.009, 611 362.499 C 611 362.990, 609.879 364.561, 608.509 365.991 C 605.582 369.045, 603.632 378.608, 606.096 377.821 C 606.868 377.574, 608.611 375.216, 609.969 372.581 C 611.326 369.945, 615.697 364.745, 619.681 361.024 C 623.666 357.303, 626.642 353.976, 626.296 353.629 C 624.533 351.866, 620.135 353.417, 615.750 357.349 M 1023.186 372.725 C 1023.368 373.674, 1024.535 374.957, 1025.778 375.577 C 1030.142 377.752, 1041.784 389.950, 1044.330 395.015 C 1045.765 397.870, 1047.804 398.675, 1048.566 396.688 C 1051.236 389.730, 1033.911 371, 1024.805 371 C 1023.495 371, 1022.963 371.568, 1023.186 372.725 M 796.635 394.336 C 793.107 398.090, 784.976 402.853, 777.500 405.544 C 774.750 406.534, 771.961 407.752, 771.303 408.251 C 770.645 408.749, 769.070 409.023, 767.803 408.859 C 766.536 408.696, 764.938 408.912, 764.250 409.340 C 763.563 409.768, 762.438 409.768, 761.750 409.340 C 761.063 408.912, 759.422 408.701, 758.104 408.872 C 756.786 409.042, 754.761 408.724, 753.604 408.165 C 752.447 407.605, 748.414 406.193, 744.642 405.026 C 738.307 403.066, 729.396 397.592, 726.126 393.652 C 723.920 390.994, 721.706 391.702, 716.958 396.585 C 704.519 409.379, 695.150 414, 681.647 414 C 672.134 414, 672.066 414.044, 669.489 421.938 C 668.513 424.930, 666.653 428.437, 665.357 429.734 C 664.061 431.030, 663 432.486, 663 432.968 C 663 433.450, 660.327 435.792, 657.061 438.173 C 650.115 443.234, 649.110 445.385, 650.148 452.973 C 650.967 458.964, 650.553 461.174, 645.102 479.916 C 643.436 485.645, 641.774 492.395, 641.409 494.916 C 641.044 497.437, 640.505 499.912, 640.212 500.415 C 639.918 500.918, 639.780 504.135, 639.905 507.565 C 640.034 511.146, 639.677 514.082, 639.065 514.460 C 637.580 515.378, 637.728 523.552, 639.250 524.689 C 640.946 525.956, 642.029 525.763, 645.227 523.624 C 648.836 521.210, 654.129 520.053, 661.691 520.024 C 665.096 520.011, 668.176 519.524, 668.536 518.941 C 668.896 518.359, 668.051 516.221, 666.658 514.191 C 662.717 508.445, 662.318 505.358, 665.128 502.350 C 668.962 498.244, 672.044 497.184, 683.584 496 C 696.969 494.626, 703.073 492.980, 710.654 488.700 C 718.791 484.106, 719.482 483.931, 722.050 485.824 C 724.445 487.590, 728.646 491.704, 730.750 494.346 C 732.255 496.236, 732.399 500.636, 730.984 501.510 C 730.425 501.856, 730.202 502.517, 730.488 502.981 C 731.503 504.623, 718.675 514.748, 714 515.995 C 709.351 517.235, 707 518.615, 707 520.102 C 707 520.802, 714.203 525.135, 716 525.516 C 718.376 526.019, 724.888 529.536, 727.982 531.986 C 730.075 533.644, 732.275 535, 732.871 535 C 733.467 535, 734.731 536.237, 735.682 537.750 C 739.015 543.056, 745.200 550, 746.593 550 C 747.367 550, 748 550.450, 748 551 C 748 552.223, 750.232 551.876, 751.214 550.500 C 752.303 548.974, 773.242 549.225, 773.756 550.769 C 773.984 551.453, 774.614 551.739, 775.155 551.404 C 775.696 551.070, 778.105 551.839, 780.507 553.113 C 784.743 555.360, 784.983 555.379, 788.437 553.731 C 790.397 552.797, 792.030 551.463, 792.067 550.766 C 792.154 549.125, 805.938 537.083, 810.212 534.913 C 814.132 532.924, 826.554 530.006, 831.197 529.985 C 833.014 529.976, 835.076 529.604, 835.780 529.157 C 837.723 527.924, 833.755 523.437, 828.695 521.146 C 823.643 518.858, 817.665 512.703, 816.192 508.272 C 815.227 505.366, 815.447 504.570, 818.405 500.278 C 824.192 491.880, 833.042 491.048, 840.327 498.218 C 841.882 499.748, 843.582 501, 844.105 501 C 844.629 501, 847.647 502.308, 850.813 503.906 C 854.187 505.609, 861.212 507.736, 867.785 509.046 C 873.953 510.275, 879 511.694, 879 512.199 C 879 512.705, 879.450 512.840, 880 512.500 C 880.550 512.160, 881 512.359, 881 512.941 C 881 513.523, 881.839 514, 882.864 514 C 885.054 514, 889.866 518.531, 891.093 521.750 C 891.997 524.123, 890.889 528.333, 889.062 529.462 C 886.636 530.961, 888.134 538, 891 538.568 C 891.275 538.623, 892.767 539.192, 894.315 539.834 C 895.863 540.475, 897.699 541, 898.394 541 C 900.852 541, 909.079 547.272, 914.548 553.316 L 920.089 559.439 930.794 559.154 C 936.682 558.997, 945.385 559.354, 950.133 559.948 C 963.532 561.623, 964.772 560.269, 959.604 549.606 C 955.069 540.248, 953.702 532.623, 955.050 524.188 C 955.621 520.611, 956.969 516.448, 958.044 514.938 C 960.795 511.075, 960.483 508.519, 956.934 505.826 C 950.517 500.957, 944.632 495.371, 942.370 492 C 941.078 490.075, 939.319 487.537, 938.461 486.359 C 936.268 483.350, 934.716 467.231, 936.047 461.291 C 936.618 458.743, 937.784 456.147, 938.637 455.523 C 939.524 454.875, 940.042 453.339, 939.845 451.944 C 939.518 449.629, 939.105 449.486, 932 449.229 C 927.875 449.080, 924.050 448.800, 923.500 448.606 C 922.950 448.413, 922.232 448.310, 921.904 448.377 C 921.576 448.445, 920.676 447.981, 919.904 447.348 C 919.132 446.714, 916.629 445.695, 914.341 445.084 C 907.255 443.190, 897.235 434.415, 889.694 423.500 C 886.476 418.842, 885.431 416.293, 885.024 412.103 C 884.332 404.973, 882.216 403.461, 878.249 407.262 C 875.269 410.116, 865.876 414.354, 857.500 416.622 C 847.309 419.382, 833.131 417.784, 824.476 412.900 C 818.245 409.383, 808.511 399.467, 806.451 394.537 C 804.473 389.802, 800.963 389.730, 796.635 394.336 M 657 544.101 C 645.615 550.913, 634.189 568.527, 639.162 571.600 C 640.491 572.421, 644 568.559, 644 566.276 C 644 563.310, 654.188 552.183, 661.771 546.869 C 668.399 542.223, 664.206 539.790, 657 544.101 M 609.659 552.381 C 606.641 556.338, 602 566.447, 602 569.065 C 602 570.065, 601.610 571.123, 601.134 571.417 C 600.658 571.711, 600.475 573.035, 600.728 574.359 C 600.981 575.683, 600.696 577.070, 600.094 577.442 C 598.663 578.326, 598.637 593.658, 600.065 594.540 C 600.651 594.902, 601.005 596.391, 600.852 597.850 C 600.699 599.308, 600.842 600.951, 601.169 601.501 C 601.497 602.050, 602.097 604.075, 602.503 606 C 603.525 610.848, 605.789 615, 607.409 615 C 609.135 615, 609.969 611.880, 609.986 605.362 C 609.998 601.139, 610.623 599.319, 613.500 595.136 C 616.097 591.361, 617 588.995, 617 585.967 C 617 581.369, 615.395 573.662, 613.714 570.188 C 612.926 568.560, 612.906 567.378, 613.645 566.188 C 615.963 562.459, 617.406 554.186, 616.200 551.540 C 614.634 548.102, 612.736 548.346, 609.659 552.381 M 820.709 559.125 C 817.242 560.897, 814.563 563.018, 814.034 564.411 C 813.547 565.690, 811.930 567.696, 810.440 568.869 C 808.950 570.041, 808.128 571.007, 808.615 571.015 C 809.102 571.024, 808.959 571.375, 808.297 571.795 C 807.635 572.216, 806.795 574.431, 806.429 576.717 C 805.802 580.637, 805.889 580.842, 807.955 580.301 C 809.160 579.986, 811.181 578.102, 812.446 576.114 C 814.788 572.435, 826.652 560.334, 829.457 558.764 C 830.306 558.289, 831 557.473, 831 556.950 C 831 555.200, 826.552 556.140, 820.709 559.125 M 754.856 572.713 C 750.032 573.236, 748.167 575.525, 746.403 583.087 C 745.596 586.544, 744.388 590.032, 743.718 590.839 C 743.048 591.647, 742.555 592.576, 742.623 592.904 C 742.903 594.267, 735.464 608.881, 732.075 613.623 C 730.062 616.441, 726.184 620.611, 723.457 622.891 C 720.731 625.170, 717.211 628.231, 715.635 629.694 C 714.059 631.156, 710.684 632.927, 708.135 633.630 C 705.586 634.332, 701.700 635.583, 699.500 636.410 C 696.748 637.444, 691.576 637.926, 682.917 637.956 C 671.599 637.996, 669.392 637.697, 660.972 634.991 C 655.823 633.336, 650.685 631.161, 649.555 630.157 C 648.425 629.153, 645.475 627.178, 643 625.766 C 640.525 624.355, 636.563 621.130, 634.195 618.600 C 629.646 613.739, 628.606 613.232, 627.324 615.250 C 626.192 617.033, 626.223 618.296, 627.439 619.906 C 628.069 620.742, 628.405 625.610, 628.266 631.906 C 627.998 644.052, 629.355 648.597, 634.084 651.391 C 635.995 652.519, 638.097 655.430, 640.109 659.733 C 643.325 666.612, 645.326 669.341, 646.381 668.286 C 646.721 667.945, 647 668.192, 647 668.833 C 647 669.475, 648.289 670, 649.865 670 C 654.233 670, 657.398 673.127, 658.879 678.905 C 660.001 683.283, 660.528 684, 662.625 684 C 665.130 684, 670.182 686.004, 673.205 688.196 C 675.913 690.161, 679.651 685.920, 681.162 679.168 C 681.906 675.844, 683.531 672.325, 685.203 670.421 C 686.741 668.669, 688 666.803, 688 666.274 C 688 665.745, 690.731 663.122, 694.068 660.445 C 697.406 657.768, 700.444 655.084, 700.818 654.481 C 701.920 652.708, 710.128 649.321, 715.073 648.599 C 719.621 647.934, 732.549 643.785, 733.720 642.614 C 735.478 640.856, 740.799 642.679, 751 648.535 C 754.332 650.448, 755.995 650.367, 762 648 C 769.282 645.130, 775.730 645.404, 783.474 648.916 C 787.011 650.519, 793.053 652.320, 796.901 652.917 C 811.780 655.225, 825.513 666.032, 835.841 683.558 C 839.624 689.978, 840.003 691.244, 840.035 697.558 C 840.055 701.376, 840.658 705.559, 841.376 706.853 L 842.680 709.205 846.163 705.514 C 849.838 701.619, 853.817 700.773, 860.311 702.506 C 862.741 703.155, 863.592 702.744, 866.577 699.485 L 870.032 695.714 876.534 696.321 L 883.035 696.928 889.268 690.969 C 894.204 686.249, 896.162 685.009, 898.685 685.005 C 903.612 684.997, 906.869 683.336, 908.984 679.751 C 910.049 677.947, 913.334 675.008, 916.284 673.220 C 919.235 671.432, 924.063 667.051, 927.013 663.484 C 929.963 659.918, 932.675 657, 933.040 657 C 933.405 657, 935.835 652.837, 938.439 647.750 C 941.044 642.663, 944.458 637.150, 946.026 635.500 C 948.819 632.562, 951.517 627.344, 951.125 625.642 C 951.017 625.170, 951.966 623.370, 953.234 621.642 C 957.393 615.977, 958.226 613.462, 957.797 607.870 C 957.570 604.917, 957.952 598.545, 958.646 593.712 C 959.998 584.299, 959.759 582.356, 957.158 581.584 C 956.246 581.313, 948.583 581.427, 940.129 581.836 C 925.094 582.564, 924.707 582.639, 922.443 585.271 C 921.072 586.866, 919.873 589.906, 919.503 592.731 C 918.728 598.650, 916.312 605.627, 913.783 609.250 C 912.728 610.763, 912.157 612, 912.516 612 C 912.875 612, 911.842 613.688, 910.221 615.750 C 908.600 617.813, 906.575 620.850, 905.721 622.500 C 904.053 625.721, 892.518 637.716, 886.693 642.287 C 884.740 643.819, 880.972 645.805, 878.321 646.699 C 875.669 647.593, 872.395 649.039, 871.044 649.912 C 867.393 652.273, 827.585 652.264, 823.956 649.902 C 822.605 649.023, 819.841 647.760, 817.814 647.095 C 813.998 645.845, 801.458 636.422, 796.898 631.378 C 793.142 627.224, 787 617.550, 787 615.787 C 787 614.959, 785.609 611.631, 783.908 608.391 C 781.176 603.186, 780.733 601.160, 780.110 591 C 779.313 578.019, 778.393 575.581, 773.758 574.165 C 769.765 572.945, 759.783 572.178, 754.856 572.713 M 1003.705 581.470 C 1000.354 583.218, 992 591.981, 992 593.748 C 992 594.437, 991.630 595, 991.177 595 C 989.962 595, 986.260 602.858, 985.159 607.773 C 984.633 610.123, 983.032 613.581, 981.601 615.456 C 980.171 617.332, 979 619.347, 979 619.933 C 979 620.520, 978.625 621, 978.167 621 C 977.708 621, 977.333 621.675, 977.333 622.500 C 977.333 623.325, 977.672 624, 978.086 624 C 979.291 624, 982.319 634.129, 982.185 637.707 C 982.067 640.845, 979.582 651.891, 978.294 655 C 977.952 655.825, 977.618 656.725, 977.551 657 C 977.484 657.275, 976.855 658.535, 976.152 659.801 C 975.068 661.753, 975.157 662.586, 976.738 665.301 C 979.393 669.860, 983.297 671.500, 991.500 671.500 C 998.111 671.500, 998.944 671.230, 1006.500 666.634 C 1010.900 663.958, 1014.860 661.146, 1015.300 660.384 C 1015.740 659.623, 1016.640 658.981, 1017.300 658.957 C 1017.960 658.934, 1020.300 656.585, 1022.500 653.737 C 1035.291 637.179, 1037.489 631.060, 1037.496 612 C 1037.499 602.180, 1037.108 598.543, 1035.672 595.035 C 1033.544 589.836, 1027.801 583.025, 1024.087 581.295 C 1020.384 579.571, 1007.129 579.684, 1003.705 581.470 M 715.966 678.892 C 711.697 679.765, 710.013 680.723, 709.959 682.309 C 709.937 682.964, 708.653 684.979, 707.105 686.788 C 705.212 688.999, 704.438 690.842, 704.740 692.420 C 704.987 693.710, 704.696 695.070, 704.094 695.442 C 702.698 696.305, 702.661 702.673, 704.048 703.530 C 704.624 703.886, 704.985 704.925, 704.849 705.839 C 704.185 710.325, 713.195 721.279, 719.992 724.248 C 730.452 728.816, 733.446 728.467, 734.556 722.553 C 735.920 715.283, 741.441 713.487, 756.376 715.455 C 769.018 717.121, 770.941 718.342, 772.887 725.938 C 773.585 728.658, 774.683 731.316, 775.328 731.845 C 777.294 733.456, 781.305 733.375, 785.218 731.644 C 787.577 730.601, 791.644 730, 796.345 730 C 804.254 730, 805.005 729.602, 806.716 724.499 C 807.270 722.848, 808.951 719.698, 810.452 717.499 C 812.793 714.070, 813.126 712.716, 812.790 708 C 812.350 701.834, 807.272 692.658, 801.625 687.827 C 797.925 684.661, 790.736 682.540, 788.224 683.872 C 786.347 684.866, 779.249 685.423, 771.750 685.164 C 768.494 685.052, 766.371 684.371, 765 683 C 763.900 681.900, 763 681.225, 763 681.500 C 763 681.775, 762.100 681.100, 761 680 C 758.250 677.250, 752.555 677.425, 746.446 680.447 C 743.726 681.792, 740.263 683.356, 738.750 683.922 C 732.837 686.134, 736.618 690.003, 744.684 689.995 C 747.333 689.992, 755.203 690.522, 762.172 691.172 C 773.406 692.220, 775.435 692.163, 780.037 690.677 C 782.893 689.755, 786.521 689, 788.099 689 C 791.496 689, 797.604 693.983, 796.794 696.094 C 796.497 696.867, 796.170 697.950, 796.067 698.500 C 795.677 700.576, 791.573 703.985, 788.103 705.116 C 786.121 705.762, 783.466 707.094, 782.203 708.076 C 778.700 710.799, 775.952 711.025, 756.500 710.190 C 738.618 709.422, 738.450 709.393, 730.917 705.828 C 726.746 703.855, 722.359 701, 721.167 699.485 C 717.035 694.233, 719.108 686.794, 725.069 685.485 C 726.755 685.114, 728.391 684.144, 728.704 683.328 C 730.023 679.891, 723.016 677.451, 715.966 678.892 M 892.356 772.745 C 892.080 773.801, 889.750 775.648, 887.177 776.851 C 884.605 778.053, 880.925 779.923, 879 781.007 C 872.203 784.832, 866.063 787, 862.023 787 C 857.269 787, 847.334 790.150, 841.538 793.495 C 838.198 795.423, 835.427 795.947, 825.500 796.529 C 818.900 796.917, 812.960 797.667, 812.300 798.197 C 811.641 798.728, 809.840 799.029, 808.300 798.867 C 806.759 798.706, 804.937 798.921, 804.249 799.346 C 803.562 799.771, 803 799.754, 803.001 799.309 C 803.002 798.155, 793.037 798.601, 789.685 799.905 C 785.224 801.640, 777.891 801.231, 774.308 799.046 C 771.956 797.612, 768.402 796.928, 760.808 796.449 C 755.138 796.092, 748.281 795.170, 745.568 794.400 C 739.300 792.621, 738 792.640, 738 794.514 C 738 796.991, 740.146 799.872, 746.766 806.281 C 754.524 813.792, 762.911 818.533, 771.739 820.395 C 775.458 821.180, 779.850 822.384, 781.500 823.071 C 783.150 823.759, 785.029 824.237, 785.675 824.134 C 786.321 824.031, 787.135 824.409, 787.484 824.973 C 788.358 826.389, 807.681 826.325, 808.559 824.904 C 808.932 824.302, 810.758 823.986, 812.618 824.204 C 814.478 824.421, 816 824.323, 816 823.985 C 816 823.648, 820.388 822.347, 825.750 821.094 C 831.112 819.841, 838.031 817.732, 841.125 816.408 C 844.219 815.083, 847.674 814, 848.804 814 C 849.933 814, 851.564 813.293, 852.429 812.429 C 853.293 811.564, 854 811.114, 854 811.429 C 854 811.743, 854.900 811.100, 856 810 C 857.100 808.900, 858.632 808, 859.405 808 C 860.178 808, 862.696 806.425, 865 804.500 C 867.304 802.575, 869.484 800.998, 869.845 800.995 C 870.668 800.989, 891.796 780.120, 894.500 776.641 C 896.986 773.444, 897.045 771.632, 894.679 771.177 C 893.538 770.957, 892.671 771.543, 892.356 772.745 M 321.500 780.399 C 318.148 781.875, 313.968 785.915, 296.430 804.624 C 268.132 834.814, 255.562 848.857, 254.696 851.250 C 254.348 852.212, 253.486 853.014, 252.781 853.032 C 252.077 853.050, 249.475 855.359, 247 858.164 C 244.525 860.969, 241.083 864.780, 239.350 866.632 C 237.617 868.484, 236.492 870.003, 236.850 870.007 C 237.208 870.010, 236.150 870.907, 234.500 872 C 232.850 873.093, 230.925 873.990, 230.222 873.993 C 229.519 873.997, 226.594 871.475, 223.722 868.388 C 220.850 865.302, 215.688 860.538, 212.250 857.802 C 208.813 855.066, 206 852.359, 206 851.785 C 206 850.347, 196.777 841.057, 195.318 841.026 C 194.668 841.012, 193.183 839.661, 192.018 838.025 C 190.740 836.230, 188.300 834.571, 185.867 833.842 C 182.354 832.790, 181.383 832.878, 178.323 834.526 C 173.243 837.261, 166.183 845.507, 165.415 849.601 C 164.532 854.311, 167.208 858.011, 184.116 875.453 C 191.605 883.179, 199.666 891.750, 202.029 894.500 C 204.392 897.250, 207.490 900.693, 208.913 902.151 C 210.336 903.609, 212.065 905.409, 212.757 906.151 C 217.354 911.087, 220.582 914.003, 221.470 914.022 C 222.037 914.034, 223.625 914.924, 225 916 C 227.901 918.269, 229.783 918.450, 233.685 916.834 C 235.233 916.192, 236.838 915.630, 237.250 915.584 C 239.234 915.362, 245.902 908.845, 256.012 897.247 C 262.124 890.236, 271.034 880.284, 275.812 875.131 C 292.834 856.776, 297.570 851.722, 302.937 846.188 C 311.605 837.251, 325 822.240, 325 821.463 C 325 821.072, 326.986 819.004, 329.414 816.867 C 331.842 814.730, 335.104 810.961, 336.664 808.492 C 338.224 806.024, 340.047 804.003, 340.715 804.002 C 342.579 803.999, 344 800.567, 344 796.067 C 344 792.678, 343.335 791.317, 340 787.881 C 337.800 785.614, 336 783.412, 336 782.988 C 336 782.008, 328.525 778.987, 326.230 779.039 C 325.278 779.061, 323.150 779.673, 321.500 780.399" stroke="none" fill="#171916" fill-rule="evenodd"/>
</svg>