<svg role="img" aria-labelledby="artwork-title" shape-rendering="geometricPrecision" xmlns="http://www.w3.org/2000/svg" width="1200" height="1200" viewBox="0 0 1200 1200" version="1.1">
	<title id="artwork-title">Mascot rejecting broken code</title>
	<path d="M 850.450 229.861 C 849.928 230.335, 845.900 231.304, 841.500 232.015 C 837.100 232.726, 832.375 234.080, 831 235.023 C 829.625 235.967, 826.700 237.656, 824.500 238.776 C 822.300 239.897, 817.932 243.330, 814.793 246.407 C 811.655 249.483, 808.435 252, 807.638 252 C 806.841 252, 804.377 250.537, 802.162 248.750 C 793.623 241.859, 789.700 239.481, 784.199 237.862 C 781.065 236.939, 776.475 235.422, 774 234.492 C 768.408 232.389, 754.678 233.176, 748.366 235.961 C 746.092 236.964, 742.414 238.092, 740.192 238.468 C 737.773 238.876, 734.724 240.424, 732.593 242.325 C 730.636 244.071, 727.204 247.075, 724.967 249 C 720.121 253.170, 712.375 263.656, 711.467 267.276 C 710.393 271.555, 707.723 273.208, 702.323 272.936 C 688.310 272.232, 676.548 273.033, 672.887 274.942 C 670.847 276.005, 667.346 277.368, 665.106 277.971 C 662.854 278.578, 660.548 279.976, 659.947 281.100 C 659.349 282.217, 656.974 283.940, 654.669 284.927 C 650.639 286.655, 641 296.514, 641 298.909 C 641 299.509, 640.563 300, 640.029 300 C 639.042 300, 634.890 308.349, 632.383 315.376 C 631.622 317.507, 631 322.095, 631 325.570 C 631 333.418, 628.708 336.612, 622 338.114 C 619.525 338.668, 616.600 339.943, 615.500 340.946 C 614.400 341.949, 612.528 343.064, 611.339 343.424 C 610.151 343.784, 608.389 345.283, 607.424 346.756 C 606.459 348.229, 603.719 351.828, 601.336 354.754 C 595.491 361.931, 593.616 365.895, 591.051 376.500 C 589.853 381.450, 588.452 386.281, 587.937 387.236 C 586.748 389.440, 586.721 396.485, 587.893 398.764 C 588.385 399.719, 589.335 402.975, 590.006 406 C 591.781 414.004, 594.131 418.879, 598.834 424.311 C 603.643 429.864, 603.989 432.455, 600.589 437.464 C 595.688 444.686, 594.743 463.132, 598.806 472.276 C 599.839 474.599, 603.246 479.650, 606.378 483.500 C 612.521 491.049, 612.549 491.185, 610.042 500.954 C 608.506 506.936, 610.188 513.783, 614.619 519.588 C 616.478 522.024, 618 524.662, 618 525.450 C 618 526.238, 615.290 529.268, 611.977 532.184 C 608.664 535.100, 605.424 538.951, 604.776 540.743 C 604.128 542.534, 603.239 544, 602.799 544 C 602.360 544, 602 544.675, 602 545.500 C 602 546.325, 601.502 547, 600.893 547 C 600.284 547, 600.034 547.646, 600.337 548.435 C 600.640 549.225, 600.575 550.012, 600.194 550.185 C 599.812 550.358, 598.391 553.650, 597.036 557.500 C 594.924 563.500, 594.589 566.143, 594.693 576 C 594.801 586.331, 596.700 599.451, 598.939 605.340 C 599.391 606.528, 599.896 607.950, 600.061 608.500 C 600.226 609.050, 601.630 611.501, 603.181 613.946 C 604.731 616.391, 606 618.888, 606 619.496 C 606 620.912, 614.014 631.880, 616.964 634.500 C 622.534 639.447, 623.337 641.684, 623.573 652.900 C 623.695 658.730, 624.361 664.850, 625.053 666.500 C 625.746 668.150, 626.382 669.950, 626.467 670.500 C 626.552 671.050, 627.360 673.121, 628.263 675.102 C 629.165 677.084, 630.666 681.740, 631.598 685.449 C 632.529 689.158, 634.298 693.389, 635.528 694.851 C 638.996 698.973, 644.995 709.311, 644.997 711.172 C 645 712.951, 653.712 720.983, 655.651 720.994 C 656.284 720.997, 657.709 722.536, 658.817 724.414 C 661.459 728.891, 666.046 734, 667.425 734 C 668.027 734, 669.104 734.937, 669.820 736.083 C 670.535 737.228, 673.231 739.093, 675.810 740.225 C 678.390 741.358, 681.681 743.234, 683.124 744.393 C 684.567 745.552, 687.121 747.247, 688.799 748.160 C 691.987 749.895, 692.529 752.787, 689.913 754.103 C 689.136 754.494, 685.575 755.609, 682 756.582 C 675.300 758.405, 672.766 759.566, 662.500 765.515 C 659.200 767.427, 654.561 769.926, 652.191 771.069 C 649.820 772.211, 647.636 773.786, 647.336 774.567 C 647.036 775.349, 646.388 775.740, 645.895 775.435 C 645.403 775.131, 645 775.370, 645 775.966 C 645 776.562, 643.987 777.440, 642.750 777.917 C 638.529 779.545, 622.824 792.738, 607.712 807.352 C 606.659 808.370, 603.255 811.482, 600.148 814.268 C 583.202 829.463, 570.950 841.585, 569.546 844.544 C 568.470 846.813, 568.162 849.164, 568.592 851.849 C 569.111 855.093, 568.888 855.986, 567.363 856.786 C 565.197 857.923, 562.032 856.949, 560.023 854.527 C 557.883 851.949, 550.161 846.853, 543.870 843.869 C 540.774 842.401, 537.931 840.698, 537.553 840.085 C 537.174 839.473, 535.207 838.054, 533.182 836.933 C 531.157 835.812, 526.800 833.112, 523.500 830.934 C 520.200 828.755, 514.722 825.662, 511.326 824.062 C 504.691 820.934, 503.653 819.686, 502.550 813.500 C 502.157 811.300, 500.527 807.363, 498.927 804.750 C 497.327 802.138, 496.278 800, 496.594 800 C 496.911 800, 495.567 797.815, 493.607 795.145 C 491.647 792.475, 489.688 789.330, 489.254 788.157 C 487.884 784.454, 471.107 766, 469.110 766 C 468.500 766, 468 765.550, 468 765 C 468 764.450, 467.433 764, 466.741 764 C 466.048 764, 464.927 763.112, 464.249 762.028 C 463.572 760.943, 461.326 759.197, 459.259 758.148 C 449.384 753.136, 444.979 750.320, 443.916 748.339 C 443.174 746.955, 442.676 739.048, 442.532 726.339 C 442.321 707.855, 442.050 705.237, 438.556 688.013 C 436.494 677.846, 434.081 668.171, 433.195 666.513 C 432.309 664.856, 431.565 663.200, 431.542 662.833 C 431.519 662.467, 431.163 661.829, 430.750 661.417 C 430.338 661.004, 430 659.943, 430 659.058 C 430 658.173, 428.664 654.761, 427.031 651.475 C 425.399 648.189, 424.049 644.817, 424.031 643.983 C 424.014 643.149, 421.072 637.994, 417.493 632.527 C 413.913 627.060, 410.429 621.330, 409.748 619.794 C 409.068 618.257, 408.203 617, 407.825 617 C 407.447 617, 404.668 613.495, 401.649 609.212 C 398.631 604.929, 395 600.803, 393.581 600.043 C 392.161 599.284, 391 598.128, 391 597.476 C 391 596.824, 388.413 593.989, 385.250 591.177 C 382.088 588.365, 378.038 584.738, 376.250 583.118 C 374.463 581.497, 373 580.418, 373 580.721 C 373 581.023, 372.067 580.084, 370.927 578.635 C 369.788 577.186, 368.449 576, 367.952 576 C 367.456 576, 362.831 573.140, 357.676 569.645 C 337.094 555.690, 314.458 546.504, 293 543.399 C 290.525 543.041, 287.942 542.303, 287.259 541.759 C 286.577 541.215, 284.664 540.969, 283.009 541.212 C 281.354 541.455, 280 541.282, 280 540.827 C 280 540.372, 271.900 540, 262 540 C 252.100 540, 244 540.372, 244 540.827 C 244 541.282, 242.613 541.450, 240.919 541.201 C 239.224 540.953, 236.861 541.220, 235.669 541.796 C 234.476 542.371, 230.796 543.084, 227.490 543.381 C 224.185 543.677, 219.460 544.656, 216.990 545.557 C 214.521 546.457, 209.869 547.830, 206.653 548.608 C 203.438 549.386, 199.850 550.692, 198.681 551.511 C 197.512 552.330, 195.755 553, 194.777 553 C 193.800 553, 193 553.415, 193 553.922 C 193 554.430, 191.510 555.337, 189.688 555.938 C 184.656 557.599, 173.992 563.519, 164.810 569.750 C 162.176 571.538, 159.706 573, 159.322 573 C 155.384 573, 122 605.897, 122 609.778 C 122 610.395, 121.213 611.359, 120.250 611.920 C 119.288 612.481, 118.898 612.953, 119.385 612.970 C 119.872 612.986, 119.094 613.925, 117.657 615.055 C 116.221 616.185, 114.128 618.998, 113.008 621.305 C 111.887 623.612, 108.505 629.100, 105.492 633.500 C 102.479 637.900, 100.011 642.228, 100.007 643.118 C 100.003 644.008, 98.415 647.830, 96.479 651.612 C 94.542 655.394, 93.036 659.166, 93.132 659.994 C 93.334 661.726, 92.679 663.705, 89.822 670 C 88.574 672.751, 87.452 678.191, 86.935 684 C 85.547 699.594, 84.383 703.468, 81.427 702.334 C 80.218 701.870, 80 705.090, 80 723.393 C 80 744.192, 80.073 745, 81.961 745 C 84.426 745, 85.608 749.078, 86.980 762.306 C 87.532 767.631, 88.839 773.903, 89.884 776.244 C 92.687 782.525, 93.334 784.378, 93.148 785.600 C 93.057 786.205, 94.561 789.783, 96.491 793.552 C 98.421 797.321, 100 801.265, 100 802.316 C 100 804.177, 108.092 818.092, 110.810 820.905 C 111.557 821.678, 112.599 823.253, 113.127 824.405 C 115.067 828.642, 116.934 831.444, 118.824 832.953 C 119.890 833.804, 122.280 836.525, 124.136 839 C 129.515 846.171, 139.990 856.723, 146.500 861.525 C 149.800 863.959, 153.039 866.819, 153.699 867.880 C 154.358 868.940, 156.950 870.833, 159.459 872.086 C 161.967 873.339, 164.760 875.182, 165.665 876.182 C 166.570 877.182, 167.726 878, 168.236 878 C 168.745 878, 171.487 879.532, 174.331 881.404 C 177.174 883.277, 181.175 885.262, 183.221 885.816 C 185.268 886.370, 188.262 887.763, 189.876 888.911 C 191.489 890.060, 193.500 891, 194.345 891 C 195.190 891, 196.167 891.462, 196.516 892.027 C 196.865 892.591, 197.679 892.950, 198.325 892.823 C 198.971 892.697, 201.750 893.627, 204.500 894.889 C 207.250 896.151, 213.014 897.812, 217.310 898.580 C 221.605 899.348, 227.755 900.659, 230.976 901.494 C 234.197 902.328, 240.260 903.301, 244.450 903.655 C 248.639 904.009, 252.303 904.682, 252.592 905.150 C 253.278 906.259, 274.721 906.260, 275.407 905.151 C 275.695 904.684, 279.694 904.036, 284.293 903.712 C 288.893 903.387, 294.420 902.429, 296.578 901.581 C 298.735 900.734, 304.100 899.426, 308.500 898.674 C 312.900 897.922, 318.525 896.248, 321 894.954 C 323.475 893.659, 326.029 892.702, 326.675 892.827 C 327.321 892.951, 328.135 892.591, 328.484 892.027 C 328.833 891.462, 329.904 891, 330.865 891 C 331.825 891, 334.072 889.923, 335.856 888.606 C 337.641 887.289, 341.111 885.910, 343.568 885.542 C 346.265 885.138, 349.118 883.866, 350.767 882.333 C 352.270 880.937, 355.165 878.943, 357.199 877.903 C 362.215 875.338, 364.722 876.424, 373.487 884.960 C 382.779 894.009, 386.785 897.362, 391.004 899.622 C 392.931 900.655, 395.969 902.543, 397.754 903.818 C 399.539 905.093, 401 905.843, 401 905.484 C 401 905.125, 402.752 906.220, 404.894 907.916 C 407.706 910.143, 410.972 911.449, 416.644 912.616 C 427.819 914.913, 431.133 916.961, 436.683 925 C 439.428 928.977, 446.591 937.776, 451.722 943.475 C 452.700 944.561, 454.044 946.706, 454.708 948.240 C 455.373 949.775, 456.723 951.339, 457.708 951.717 C 459.505 952.405, 462.904 955.923, 462.967 957.160 C 462.985 957.523, 465.735 960.756, 469.078 964.345 L 475.157 970.870 486.494 970.857 C 496.077 970.846, 498.080 970.569, 499.440 969.067 C 501.451 966.844, 500.679 964.691, 497.227 962.891 C 494.460 961.447, 479.256 946.792, 477.500 943.876 C 476.950 942.962, 472.943 938.229, 468.596 933.357 C 464.249 928.486, 458.072 920.900, 454.869 916.500 C 446.383 904.841, 444.136 901.769, 442.218 899.201 C 440.336 896.682, 434.891 895.061, 428.187 895.024 C 425.512 895.009, 421.334 893.823, 417.187 891.902 C 413.509 890.199, 409.375 888.286, 408 887.652 C 403.096 885.392, 397 880.835, 397 879.429 C 397 878.643, 396.296 878, 395.435 878 C 393.099 878, 383.237 867.357, 382.512 864.053 C 381.944 861.467, 382.708 860.349, 390.190 852.814 C 394.761 848.213, 399.309 843.222, 400.297 841.724 C 402.215 838.816, 406.003 838.068, 407.764 840.250 C 408.320 840.938, 409.083 843.372, 409.460 845.661 C 409.837 847.949, 411.013 850.607, 412.073 851.566 C 413.133 852.525, 414 853.896, 414 854.612 C 414 855.328, 416.475 858.369, 419.500 861.370 C 422.525 864.371, 425 866.580, 425 866.278 C 425 865.977, 425.919 866.899, 427.043 868.328 C 429.418 871.346, 434.358 872.575, 438.220 871.107 C 441.244 869.957, 446.498 862.741, 445.744 860.775 C 445.475 860.074, 445.148 859.050, 445.017 858.500 C 444.326 855.585, 440.186 851.602, 435.638 849.474 C 432.812 848.152, 430.950 847.041, 431.500 847.005 C 432.050 846.969, 431.713 846.481, 430.750 845.920 C 429.788 845.359, 429 844.396, 429 843.779 C 429 843.162, 428.296 841.880, 427.436 840.929 C 426.576 839.979, 425.233 836.793, 424.452 833.851 C 423.044 828.541, 423.056 828.462, 426.069 823.600 C 430.228 816.885, 429.802 813.575, 424.232 809.338 C 421.884 807.552, 417.384 805.310, 414.232 804.356 C 411.079 803.401, 407.825 802.083, 407 801.427 C 406.175 800.770, 403.700 799.325, 401.500 798.214 C 397.027 795.957, 390 789.348, 390 787.398 C 390 783.741, 392.119 781.120, 396.398 779.486 C 400.631 777.869, 401.548 777.860, 410.388 779.354 C 415.591 780.233, 421.795 781.812, 424.174 782.862 C 432.971 786.746, 435.578 788.102, 438.898 790.523 C 442.748 793.329, 449.414 793.880, 452.473 791.644 C 453.568 790.842, 454.567 788.490, 454.914 785.894 C 455.385 782.358, 455.927 781.439, 457.688 781.189 C 459.435 780.940, 460.827 782.320, 464.587 788.027 C 467.178 791.959, 469.880 795.400, 470.592 795.674 C 471.714 796.104, 474.229 800.382, 479.734 811.219 C 480.494 812.715, 481.353 815.640, 481.643 817.719 C 481.933 819.799, 482.431 822.175, 482.749 823 C 483.067 823.825, 483.366 824.765, 483.414 825.088 C 483.461 825.412, 484.927 827.972, 486.671 830.778 C 489.468 835.278, 495.270 839.760, 498.343 839.795 C 498.807 839.801, 500.382 840.942, 501.843 842.331 C 503.305 843.721, 505.702 845.154, 507.171 845.517 C 509.979 846.211, 518.081 851.024, 524 855.515 C 525.925 856.976, 528.850 859.006, 530.500 860.028 C 532.150 861.049, 536.824 864.161, 540.886 866.942 C 544.949 869.724, 548.871 872, 549.602 872 C 550.332 872, 552.468 873.350, 554.347 875 C 556.226 876.650, 558.163 878, 558.650 878 C 559.521 878, 567.239 883.984, 571.837 888.223 C 575.480 891.582, 579.172 893.228, 580.371 892.029 C 580.937 891.463, 582.570 891, 584 891 C 587.669 891, 589 889.242, 589 884.397 C 589 880.762, 588.507 879.798, 585.349 877.265 C 582.266 874.792, 581.803 873.922, 582.368 871.668 C 583.751 866.159, 588.858 868.704, 597 878.959 C 600.293 883.106, 605.624 889.361, 609 893.037 C 613.145 897.549, 618.442 904.298, 619.617 906.563 C 620.946 909.125, 623.290 912.359, 628.115 918.287 C 629.554 920.054, 631.656 923.300, 632.787 925.500 C 633.918 927.700, 637.022 932.200, 639.684 935.500 C 653.752 952.940, 654.789 955.795, 649.252 961.841 C 645.412 966.033, 645.235 967.351, 648.230 969.449 C 650.232 970.851, 667.997 971.009, 821.075 970.994 C 914.913 970.985, 992.019 970.645, 992.423 970.239 C 992.826 969.832, 996.159 968.992, 999.828 968.371 C 1003.498 967.751, 1008.975 966.751, 1012 966.149 C 1015.025 965.548, 1023.350 964.572, 1030.500 963.980 C 1037.650 963.388, 1046.383 962.240, 1049.907 961.430 C 1053.431 960.619, 1060.406 959.703, 1065.407 959.394 C 1070.408 959.085, 1075.175 958.584, 1076 958.282 C 1076.825 957.980, 1079.144 957.824, 1081.152 957.936 C 1083.161 958.047, 1085.750 957.548, 1086.906 956.827 C 1090.411 954.638, 1092.447 956.791, 1092.810 963.073 C 1093.249 970.682, 1093.864 971.128, 1103.630 970.913 C 1114.350 970.676, 1115.789 969.458, 1114.027 962.111 C 1112.636 956.313, 1113.964 952.179, 1117.754 950.513 C 1119.976 949.536, 1120 949.306, 1120 929.228 C 1120 912.977, 1119.704 908.479, 1118.518 906.667 C 1117.703 905.423, 1116.527 899.702, 1115.906 893.953 C 1115.285 888.204, 1113.757 880.780, 1112.511 877.455 C 1111.264 874.131, 1109.924 868.956, 1109.534 865.955 C 1109.143 862.955, 1107.752 858.844, 1106.443 856.820 C 1105.135 854.796, 1103.530 850.971, 1102.877 848.320 C 1102.224 845.669, 1100.409 841.074, 1098.845 838.109 C 1097.280 835.144, 1096 831.897, 1096 830.894 C 1096 829.891, 1094.703 827.591, 1093.117 825.785 C 1091.531 823.978, 1089.490 820.925, 1088.581 819 C 1086.270 814.106, 1081.925 806.892, 1079.200 803.426 C 1070.294 792.096, 1066.001 786.937, 1062.975 783.931 C 1056.905 777.900, 1042.537 766.305, 1040.225 765.571 C 1039 765.183, 1037.560 764.047, 1037.026 763.048 C 1036.155 761.421, 1016.701 751, 1014.535 751 C 1014.053 751, 1012.880 750.297, 1011.930 749.437 C 1009.890 747.590, 997.378 742.692, 987.500 739.873 C 983.650 738.774, 979.600 737.297, 978.500 736.591 C 975.469 734.645, 967.451 732.267, 958.070 730.533 C 953.434 729.675, 949.445 728.778, 949.206 728.539 C 948.434 727.767, 953.046 721.123, 954.800 720.482 C 958.075 719.284, 973.876 699.117, 975.467 694.103 C 975.834 692.946, 976.581 692, 977.126 692 C 977.672 692, 977.864 691.588, 977.553 691.085 C 977.242 690.582, 977.344 690.020, 977.780 689.835 C 980.157 688.829, 983.505 681.944, 984.471 676.072 L 985.553 669.500 995.527 669.445 C 1007.287 669.380, 1016.149 667.693, 1021 664.595 C 1022.925 663.366, 1025.240 662.086, 1026.144 661.752 C 1029.769 660.412, 1040.131 651.627, 1044.677 646.041 C 1058.055 629.602, 1061.454 622.411, 1063.961 605.245 C 1065.752 592.979, 1065.753 592.250, 1063.980 580.871 C 1061.994 568.126, 1058.433 559.160, 1053.142 553.581 C 1048.363 548.541, 1048.334 546.737, 1052.958 542.159 C 1055.181 539.958, 1057 537.282, 1057 536.213 C 1057 535.144, 1057.857 533.181, 1058.904 531.850 C 1062.194 527.667, 1063.278 521.366, 1062.531 510.782 C 1061.765 499.947, 1061.446 500.657, 1070.307 493.500 C 1072.536 491.700, 1074.689 488.700, 1075.690 486 C 1076.607 483.525, 1078.289 480.150, 1079.427 478.500 C 1080.566 476.850, 1081.498 475.200, 1081.498 474.833 C 1081.499 474.467, 1081.838 473.829, 1082.250 473.417 C 1083.556 472.111, 1083.144 443.544, 1081.800 442.200 C 1081.140 441.540, 1080.968 441, 1081.419 441 C 1081.869 441, 1081.124 439.538, 1079.763 437.750 C 1078.401 435.962, 1076.969 433.491, 1076.579 432.257 C 1076.189 431.023, 1072.974 427.456, 1069.435 424.329 C 1061.949 417.717, 1061.494 415.757, 1066.106 410.018 C 1067.814 407.892, 1068.913 405.668, 1068.547 405.076 C 1068.181 404.484, 1068.359 404, 1068.941 404 C 1070.167 404, 1070.464 375.797, 1069.250 374.583 C 1068.838 374.171, 1068.498 373.533, 1068.496 373.167 C 1068.494 372.800, 1067.257 370.395, 1065.746 367.822 C 1064.236 365.249, 1063 362.272, 1063 361.207 C 1063 360.141, 1061.987 357.983, 1060.750 356.411 C 1059.513 354.839, 1057.375 351.896, 1056 349.872 C 1052.759 345.101, 1044.529 338.356, 1041.115 337.673 C 1039.644 337.379, 1037.219 336.005, 1035.725 334.621 C 1032.739 331.854, 1025.033 330, 1016.516 330 C 1013.702 330, 1010.860 329.460, 1010.200 328.800 C 1009.487 328.087, 1009 324.653, 1009 320.337 C 1009 313.681, 1008.304 310.770, 1004.495 301.500 C 1004.043 300.400, 1003.634 299.162, 1003.586 298.750 C 1003.539 298.337, 1002.331 296.534, 1000.901 294.743 C 999.472 292.952, 997.604 290.140, 996.750 288.493 C 994.950 285.025, 982.973 273.801, 978.342 271.244 C 976.605 270.285, 974.033 268.671, 972.626 267.657 C 969.021 265.061, 956.574 263.693, 943.500 264.457 C 930.582 265.212, 925.984 266.255, 923.504 268.996 C 920.893 271.880, 919.225 271.473, 918.182 267.696 C 916.586 261.918, 911.199 255.239, 897.965 242.633 C 893.811 238.675, 882.003 233.372, 874.250 231.980 C 870.263 231.265, 867 230.301, 867 229.840 C 867 228.731, 851.675 228.751, 850.450 229.861 M 850.500 250.477 C 848.300 251.203, 844.344 252.356, 841.710 253.040 C 839.075 253.723, 835.301 255.569, 833.322 257.141 C 831.344 258.714, 829.339 260, 828.868 260 C 827.594 260, 818 269.623, 818 270.901 C 818 273.199, 821.757 271.859, 824.731 268.500 C 826.435 266.575, 828.491 265, 829.300 265 C 830.904 265, 833.948 263.508, 838.278 260.599 C 840.435 259.151, 843.564 258.624, 852.278 258.244 C 871.893 257.388, 881.121 260.095, 890.128 269.348 C 893.717 273.035, 896 273.473, 896 270.475 C 896 269.702, 894.650 267.688, 893 266 C 891.350 264.312, 890 262.545, 890 262.074 C 890 261.603, 888.200 260.497, 886 259.617 C 883.800 258.736, 882 257.386, 882 256.615 C 882 254.908, 880.920 254.460, 869.500 251.427 C 859.374 248.739, 856.245 248.582, 850.500 250.477 M 749.510 257.750 C 748.068 258.988, 745.901 260.002, 744.694 260.004 C 739.220 260.015, 726.505 272.668, 727.211 277.403 C 727.680 280.548, 729.761 280.362, 731.489 277.020 C 732.373 275.312, 734.137 273.439, 735.409 272.859 C 736.681 272.280, 738.453 270.274, 739.345 268.403 C 740.367 266.260, 741.686 265, 742.907 265 C 743.974 265, 746.119 263.942, 747.673 262.649 C 752.012 259.040, 754.512 258, 758.852 258 C 763.032 258, 765.999 257.229, 766.001 256.143 C 766.001 255.789, 762.881 255.500, 759.067 255.500 C 753.318 255.500, 751.683 255.885, 749.510 257.750 M 814.250 273.662 C 813.563 273.940, 813 275.062, 813 276.157 C 813 278.856, 816.020 278.189, 817.105 275.250 C 817.943 272.980, 817.101 272.512, 814.250 273.662 M 930.072 286.591 C 927.087 287.393, 924.050 288.544, 923.322 289.147 C 920.175 291.760, 922.148 292.248, 933.007 291.544 C 939.060 291.152, 947.402 291.148, 951.545 291.536 C 960.345 292.361, 962.747 293.867, 975.046 306.271 C 982.767 314.056, 983.306 315.045, 985.512 325.448 C 985.994 327.721, 986.347 328.064, 987.053 326.948 C 988.469 324.711, 988.137 316.786, 986.512 314 C 985.710 312.625, 984.346 309.925, 983.482 308 C 980.437 301.218, 979.758 300.208, 977.390 298.941 C 976.075 298.238, 975 297.105, 975 296.425 C 975 294.077, 965.451 288.280, 958.861 286.627 C 950.923 284.636, 937.406 284.619, 930.072 286.591 M 682 292.606 C 681.175 292.910, 679.825 293.421, 679 293.743 C 678.175 294.064, 677.275 294.369, 677 294.419 C 676.725 294.470, 675.375 295.320, 674 296.309 C 672.625 297.297, 669.382 299.409, 666.794 301.003 C 662.640 303.560, 659.430 307.289, 655.265 314.393 C 654.585 315.552, 654.023 318.220, 654.015 320.323 C 653.995 325.465, 656.650 324.983, 658.873 319.442 C 660.588 315.165, 668.783 305.001, 670.518 305 C 671.078 305, 673.175 303.886, 675.179 302.524 C 679.807 299.379, 686.484 297.878, 696 297.841 C 704.231 297.810, 707.263 296.573, 704.262 294.471 C 702.382 293.154, 684.563 291.662, 682 292.606 M 911.907 295.617 C 911.306 296.337, 911.511 297.179, 912.483 297.986 C 913.703 298.999, 914.466 298.925, 916.495 297.595 C 917.873 296.692, 919 295.579, 919 295.120 C 919 293.892, 912.994 294.313, 911.907 295.617 M 1020.664 352.669 C 1019.822 353.511, 1022.904 357, 1024.491 357 C 1025.140 357, 1027.288 358.800, 1029.263 361 C 1031.238 363.200, 1033.306 365, 1033.859 365 C 1034.413 365, 1035.124 365.816, 1035.441 366.814 C 1035.757 367.811, 1037.617 370.375, 1039.573 372.510 C 1041.793 374.934, 1042.953 377.072, 1042.659 378.197 C 1042.399 379.189, 1042.537 380, 1042.964 380 C 1043.392 380, 1044.058 383.207, 1044.444 387.127 C 1045.443 397.270, 1047.500 394.757, 1047.500 383.393 C 1047.500 375.488, 1047.323 374.752, 1045 373 C 1043.625 371.963, 1042.484 370.751, 1042.465 370.307 C 1042.356 367.838, 1033.446 356, 1031.696 356 C 1031.212 356, 1029.671 355.100, 1028.273 354 C 1025.766 352.028, 1021.969 351.364, 1020.664 352.669 M 621.867 362.500 C 620.732 364.425, 619.161 366, 618.376 366 C 616.853 366, 615 369.877, 615 373.065 C 615 376.482, 616.837 375.140, 619.195 370 C 620.456 367.250, 621.984 365, 622.589 365 C 624.285 365, 627.278 361.259, 626.539 360.063 C 625.379 358.186, 623.983 358.915, 621.867 362.500 M 798.565 380.504 C 789.350 389.195, 778.107 394.508, 765.557 396.102 C 752.643 397.742, 741.231 394.704, 733.181 387.482 C 727.037 381.970, 724.747 381.282, 722.079 384.146 C 720.935 385.373, 720 387.206, 720 388.220 C 720 389.233, 719.212 390.363, 718.250 390.729 C 717.288 391.095, 714.168 393.760, 711.318 396.651 C 708.307 399.705, 703.186 403.392, 699.093 405.453 C 693.067 408.488, 691.058 409, 685.180 409 C 676.606 409, 675.016 410.437, 673.822 419.264 C 673.358 422.694, 672.153 426.625, 671.144 428 C 670.135 429.375, 668.556 431.958, 667.634 433.740 C 666.691 435.565, 664.235 437.860, 662.013 438.993 C 656.882 441.611, 655.975 443.514, 656.211 451.169 C 656.420 457.934, 654.331 477.668, 653.219 479.436 C 652.851 480.021, 652.679 481.288, 652.838 482.250 C 652.996 483.212, 652.698 484, 652.176 484 C 650.542 484, 648.954 495.944, 648.722 509.971 C 648.464 525.611, 649.046 526.469, 656.076 520.818 C 659.918 517.730, 660.802 517.476, 668.852 517.147 C 673.608 516.954, 678.039 516.356, 678.697 515.819 C 679.356 515.282, 681.929 514.968, 684.415 515.120 C 686.901 515.273, 689.250 515.084, 689.634 514.699 C 690.535 513.798, 706.449 513.782, 707.348 514.682 C 707.723 515.056, 710.453 515.251, 713.414 515.114 C 716.428 514.974, 719.089 515.334, 719.458 515.932 C 719.821 516.519, 721.001 517, 722.081 517 C 725.072 517, 736.422 522.441, 740.844 525.995 C 743.007 527.733, 747.044 531.949, 749.814 535.364 C 755.141 541.929, 756.526 542.458, 762.312 540.132 C 769.006 537.442, 785.314 537.837, 790.450 540.814 C 793.540 542.606, 796.254 541.343, 800.729 536.034 C 810.781 524.107, 821.552 518.523, 836.784 517.342 C 841.340 516.989, 845.304 516.317, 845.593 515.850 C 846.286 514.729, 865.725 514.746, 866.419 515.869 C 866.714 516.346, 870.131 517.050, 874.011 517.432 C 877.892 517.815, 883.189 518.738, 885.784 519.484 C 888.378 520.230, 893.200 521.378, 896.500 522.035 C 904.142 523.556, 909.134 526.498, 917.988 534.695 C 924.413 540.644, 925.500 541.273, 929.541 541.381 C 931.994 541.446, 934.001 541.163, 934.001 540.750 C 934 539.715, 960.758 539.799, 961.399 540.836 C 962.143 542.040, 965.567 541.604, 967.417 540.069 C 969.919 537.993, 969.282 534.526, 965.584 530.101 C 960.381 523.873, 958.514 511.224, 961.140 500 C 963.403 490.325, 963.080 489.160, 956.725 484.099 C 948.164 477.282, 942.325 469.886, 941.467 464.777 C 941.072 462.424, 940.281 459.375, 939.709 458 C 939.136 456.625, 938.630 455.200, 938.584 454.833 C 938.538 454.467, 938.163 453.829, 937.750 453.417 C 936.087 451.754, 937.075 444.728, 939.570 440.470 C 941.115 437.834, 942.013 434.970, 941.820 433.292 L 941.500 430.500 931.326 430.474 C 921.280 430.449, 921.045 430.393, 912.553 426.027 C 907.823 423.596, 903.219 420.795, 902.322 419.803 C 901.424 418.811, 900.101 418, 899.381 418 C 898.661 418, 896.931 416.321, 895.536 414.268 C 894.141 412.215, 892.988 410.978, 892.974 411.518 C 892.929 413.170, 885.136 397.895, 884.465 394.841 C 884.119 393.267, 883.178 391.321, 882.373 390.516 C 881.089 389.232, 880.408 389.416, 876.805 392.026 C 874.547 393.662, 872.372 395, 871.972 395 C 871.572 395, 869.502 395.760, 867.372 396.689 C 865.242 397.618, 863.275 398.445, 863 398.526 C 862.725 398.607, 861.600 399.084, 860.500 399.586 C 857.255 401.069, 835.515 400.672, 833.616 399.096 C 832.727 398.359, 832 398.028, 832 398.360 C 832 398.693, 830.313 397.998, 828.250 396.814 C 826.188 395.631, 822.925 393.875, 821 392.913 C 816.873 390.850, 811.489 385.394, 810.574 382.346 C 810.054 380.616, 804.755 377, 802.739 377 C 802.486 377, 800.608 378.577, 798.565 380.504 M 691.196 480.561 C 680.115 483.838, 674.777 486.710, 671.076 491.388 C 667.064 496.458, 666.953 500.923, 670.750 504.537 C 676.011 509.546, 680.366 510.126, 689.260 507 C 696.060 504.610, 705.486 504.411, 712.409 506.511 C 719.333 508.611, 722.499 508.378, 727.595 505.392 C 733.028 502.207, 734 500.519, 734 494.262 C 734 490.078, 733.542 488.951, 730.750 486.257 C 728.962 484.532, 725.025 481.973, 722 480.570 C 714.473 477.080, 702.985 477.076, 691.196 480.561 M 846 478.668 C 840.804 479.764, 831.517 484.293, 828.359 487.271 C 822.266 493.019, 822.670 500.757, 829.333 505.942 C 833.378 509.089, 833.690 509.162, 840 508.434 C 852.871 506.950, 864.072 507.415, 875.514 509.910 C 892.437 513.599, 898 511.660, 898 502.068 C 898 497.815, 897.488 496.543, 894.274 492.818 C 889.824 487.660, 882.218 483.600, 872 480.928 C 864.339 478.924, 850.494 477.721, 846 478.668 M 672.110 537.087 C 669.972 537.939, 664.156 542.332, 661.500 545.102 C 660.950 545.676, 659.506 547.159, 658.291 548.399 C 655.651 551.093, 654 555.120, 654 558.865 C 654 560.369, 653.460 562.140, 652.800 562.800 C 651.867 563.733, 652.211 564, 654.351 564 C 656.585 564, 657.396 563.295, 658.666 560.250 C 660.472 555.921, 673.854 540.185, 675.823 540.074 C 677.319 539.990, 677.040 536.809, 675.500 536.400 C 674.950 536.254, 673.424 536.563, 672.110 537.087 M 831.728 542.434 C 829.653 543.663, 826.704 545.868, 825.173 547.334 C 823.643 548.800, 821.943 550, 821.396 550 C 820.849 550, 819.832 551.575, 819.136 553.500 C 818.440 555.426, 816.699 558.392, 815.268 560.093 C 812.851 562.965, 811.782 568.116, 813.290 569.624 C 814.679 571.012, 816.787 568.949, 817.419 565.582 C 817.903 562.999, 818.907 561.582, 821.030 560.484 C 822.648 559.648, 824.249 557.858, 824.588 556.506 C 825.167 554.199, 829.777 549.366, 834.655 545.953 C 836.975 544.330, 838.136 540.869, 836.500 540.454 C 835.950 540.314, 833.803 541.205, 831.728 542.434 M 622.529 549.614 C 621.688 550.455, 621 551.784, 621 552.567 C 621 553.351, 619.991 556.806, 618.758 560.246 C 616.841 565.591, 616.514 568.534, 616.508 580.500 C 616.501 592.829, 616.769 595.119, 618.752 599.689 C 619.990 602.543, 621.478 606.128, 622.059 607.655 C 622.904 609.879, 623.300 610.140, 624.042 608.966 C 624.552 608.160, 624.976 606.038, 624.985 604.250 C 624.993 602.462, 625.436 601, 625.969 601 C 626.501 601, 626.694 600.365, 626.396 599.589 C 626.098 598.813, 627.071 596.339, 628.558 594.092 C 631.215 590.077, 631.239 589.898, 629.944 583.753 C 629.219 580.314, 628.598 571.252, 628.563 563.615 C 628.502 550.209, 628.423 549.701, 626.279 548.907 C 624.736 548.337, 623.590 548.552, 622.529 549.614 M 1014 557.820 C 1008.736 560.206, 997 570.352, 997 572.518 C 997 573.119, 995.875 575.136, 994.500 577 C 993.125 578.864, 992 581.426, 992 582.694 C 992 583.962, 991.592 585, 991.094 585 C 990.595 585, 990.417 585.878, 990.697 586.951 C 991.008 588.137, 989.991 590.706, 988.104 593.501 C 984.461 598.899, 984.321 600.711, 987.001 607.761 C 989.507 614.355, 989.529 619.484, 987.083 626.782 C 983.594 637.191, 983.517 639.273, 986.490 642.806 C 987.947 644.537, 989.445 645.891, 989.819 645.815 C 990.194 645.739, 991.850 646.239, 993.500 646.926 C 1002.083 650.500, 1010.094 648.981, 1019.225 642.047 C 1026.526 636.503, 1035 627.710, 1035 625.678 C 1035 624.903, 1035.864 623.171, 1036.921 621.827 C 1037.978 620.484, 1039.346 616.486, 1039.963 612.943 C 1040.579 609.399, 1041.363 605.825, 1041.705 605 C 1042.047 604.175, 1042.404 603.275, 1042.497 603 C 1042.591 602.725, 1043.192 601.233, 1043.834 599.685 C 1045.555 595.530, 1045.317 584.897, 1043.442 582.221 C 1042.585 580.997, 1042.143 579.578, 1042.458 579.067 C 1042.774 578.556, 1042.614 577.880, 1042.103 577.564 C 1041.592 577.248, 1040.858 575.079, 1040.471 572.745 C 1040.084 570.410, 1039.333 567.673, 1038.802 566.663 C 1037.121 563.464, 1031.628 559.071, 1028 558.023 C 1024.088 556.892, 1016.297 556.780, 1014 557.820 M 944.113 561.944 L 931.725 562.553 928.597 566.172 C 925.865 569.332, 925.516 570.386, 925.842 574.487 C 926.051 577.105, 925.726 579.674, 925.108 580.292 C 924.499 580.901, 923.990 582.548, 923.978 583.950 C 923.965 585.352, 922.625 589.200, 921 592.500 C 919.375 595.800, 918.035 598.908, 918.022 599.408 C 917.997 600.427, 911.381 609.354, 905.991 615.640 C 901.605 620.755, 893.847 626.755, 889.083 628.717 C 887.112 629.528, 884.543 631.075, 883.373 632.154 C 880.665 634.654, 871.849 635.955, 857.500 635.974 C 843.498 635.992, 836.143 634.774, 831.327 631.639 C 829.222 630.270, 825.618 628.656, 823.317 628.054 C 816.912 626.377, 801.098 610.237, 798.280 602.500 C 797.679 600.850, 796.847 598.600, 796.430 597.500 C 796.014 596.400, 795.594 595.275, 795.497 595 C 795.401 594.725, 794.373 592.463, 793.213 589.974 C 791.948 587.259, 790.735 581.761, 790.180 576.231 C 789.147 565.933, 788.370 564.475, 783.142 563.023 C 777.837 561.549, 762.478 561.709, 761.244 563.250 C 760.693 563.938, 759.929 567.650, 759.546 571.500 C 759.078 576.192, 758.092 579.665, 756.554 582.033 C 755.291 583.976, 753.748 587.947, 753.124 590.857 C 752.500 593.766, 750.867 597.619, 749.495 599.418 C 748.123 601.217, 747 603.205, 747 603.837 C 747 606.246, 731.550 620.066, 724.607 623.867 C 718.541 627.188, 715.748 628.010, 705.542 629.480 C 694.174 631.118, 693.038 631.115, 682.542 629.436 C 669.302 627.318, 660.123 623.186, 652.235 615.793 C 644.363 608.415, 643.418 609.116, 643.856 622.011 C 644.236 633.204, 645.731 637.840, 650.655 643.102 C 651.994 644.533, 653.862 647.862, 654.806 650.500 C 655.750 653.137, 657.192 655.613, 658.011 656.001 C 666.915 660.221, 666.943 660.246, 675.105 671.250 C 676.692 673.390, 677.969 674, 680.857 674 C 683.883 674, 684.882 674.530, 686.264 676.870 C 688.073 679.933, 693.056 682.576, 695.356 681.694 C 696.252 681.350, 696.899 679.066, 697.173 675.289 C 697.524 670.431, 698.412 668.111, 702.316 661.847 C 707.164 654.068, 714.555 645.648, 719.212 642.597 C 720.661 641.648, 724.918 640.442, 728.673 639.918 C 732.428 639.394, 736.625 638.161, 738 637.179 C 742.998 633.610, 749.277 630.893, 750.886 631.604 C 751.774 631.996, 752.885 632.230, 753.355 632.124 C 753.826 632.017, 754.726 632.336, 755.355 632.832 C 755.985 633.328, 758.975 634.629, 762 635.723 C 768.083 637.923, 769.447 637.747, 778.096 633.651 C 783.810 630.945, 788 630.233, 788 631.969 C 788 632.501, 788.619 632.700, 789.375 632.410 C 790.131 632.120, 793.768 633.484, 797.458 635.441 C 802.958 638.359, 805.228 639, 810.063 639 C 817.712 639, 823.439 641.335, 828.915 646.686 C 831.343 649.059, 833.725 651, 834.208 651 C 835.716 651, 845 660.199, 845 661.693 C 845 662.474, 846.462 664.443, 848.250 666.069 C 851.192 668.745, 851.643 669.949, 853.011 678.763 C 854.473 688.180, 854.604 688.492, 857.011 688.267 C 858.380 688.139, 862.630 687.852, 866.455 687.629 C 872.394 687.284, 873.730 686.853, 875.599 684.679 C 876.803 683.280, 877.980 681.561, 878.213 680.860 C 878.488 680.037, 881.223 679.440, 885.939 679.173 C 892.868 678.782, 893.438 678.562, 897.155 674.845 C 899.309 672.691, 901.618 671.016, 902.286 671.122 C 902.954 671.228, 904.175 671.055, 905 670.736 C 905.825 670.417, 908.221 669.869, 910.326 669.518 C 913.563 668.979, 914.421 668.279, 915.906 664.961 C 917.652 661.061, 921.550 657.801, 929.025 653.987 C 933.390 651.760, 934.502 650.174, 935.528 644.704 C 935.966 642.366, 937.039 640.523, 938.366 639.828 C 944.665 636.529, 947.890 632.919, 948.566 628.409 C 948.997 625.533, 950.375 622.539, 952.371 620.143 C 955.622 616.241, 959.443 608.493, 960.448 603.768 C 960.768 602.266, 962.447 599.422, 964.180 597.448 L 967.332 593.858 967.497 578.679 C 967.588 570.312, 967.234 562.939, 966.708 562.250 C 965.708 560.938, 964.797 560.926, 944.113 561.944 M 247.500 565.625 C 245.850 565.870, 243.517 566.565, 242.316 567.169 C 241.114 567.773, 239.202 568.025, 238.067 567.728 C 236.931 567.431, 235.789 567.532, 235.529 567.953 C 235.269 568.374, 232.061 569.025, 228.401 569.400 C 224.740 569.775, 219.215 571.138, 216.123 572.428 C 213.030 573.719, 208.599 575.088, 206.276 575.471 C 203.953 575.854, 200.128 577.471, 197.776 579.065 C 195.424 580.659, 193.077 581.972, 192.560 581.982 C 191.242 582.007, 178.154 589.877, 174.318 592.951 C 172.568 594.353, 169.043 597.075, 166.485 599 C 161.158 603.008, 135 629.746, 135 631.182 C 135 631.705, 133.922 633.566, 132.604 635.317 C 131.287 637.068, 128.343 642.550, 126.062 647.500 C 123.782 652.450, 120.866 658.525, 119.583 661 C 115.749 668.397, 110.142 690.035, 108.441 704 C 108.073 707.025, 107.566 709.847, 107.314 710.270 C 106.701 711.303, 106.726 733.748, 107.342 734.744 C 107.608 735.175, 108.535 741.597, 109.401 749.014 C 110.267 756.431, 111.880 764.862, 112.984 767.749 C 114.088 770.636, 115.460 775.090, 116.033 777.647 C 116.606 780.204, 117.883 783.467, 118.872 784.898 C 119.860 786.329, 121.445 789.488, 122.393 791.917 C 123.341 794.346, 124.991 797.444, 126.059 798.802 C 127.126 800.159, 128 802.018, 128 802.933 C 128 805.142, 133.602 812.950, 144.082 825.347 C 152.971 835.863, 158.278 841.013, 166.394 847 C 169.003 848.925, 173.120 852.153, 175.542 854.174 C 177.964 856.195, 180.971 858.161, 182.223 858.542 C 183.475 858.924, 185.175 859.784, 186 860.454 C 186.825 861.123, 189.075 862.287, 191 863.040 C 192.925 863.793, 196.425 865.620, 198.779 867.099 C 201.132 868.578, 204.732 870.099, 206.779 870.478 C 208.825 870.857, 211.850 871.991, 213.500 872.998 C 215.150 874.004, 220.775 875.598, 226 876.539 C 231.225 877.480, 235.991 878.640, 236.592 879.117 C 237.193 879.593, 237.969 879.697, 238.318 879.349 C 238.666 879, 239.707 879.342, 240.630 880.107 C 243.012 882.085, 279.674 882.145, 280.893 880.173 C 281.344 879.443, 282.340 878.952, 283.106 879.081 C 283.873 879.210, 285.175 879.043, 286 878.710 C 286.825 878.377, 292.171 877.387, 297.880 876.511 C 303.589 875.634, 309.439 874.331, 310.880 873.615 C 312.321 872.899, 316.408 871.518, 319.963 870.545 C 323.517 869.573, 327.792 867.756, 329.463 866.509 C 331.133 865.262, 334.300 863.645, 336.500 862.916 C 338.700 862.187, 341.400 860.839, 342.500 859.920 C 343.600 859.002, 345.619 857.671, 346.987 856.963 C 351.398 854.680, 364.676 843.250, 372.777 834.762 C 391.668 814.969, 391.633 815.043, 384.152 810.195 C 381.485 808.467, 378.664 806.808, 377.884 806.509 C 377.103 806.209, 375.128 803.835, 373.495 801.232 C 370.777 796.900, 370.525 795.739, 370.513 787.500 C 370.498 776.648, 372.087 772.772, 379.471 765.650 C 387.744 757.670, 390.526 756.682, 403.253 757.207 C 413.448 757.627, 414.187 757.527, 415.293 755.577 C 418.139 750.558, 416.975 700.322, 413.819 692.026 C 413.291 690.637, 411.833 684.759, 410.580 678.966 C 409.326 673.172, 407.687 667.322, 406.936 665.966 C 406.185 664.609, 405.514 663.275, 405.445 663 C 404.507 659.272, 394.047 638.135, 392.718 637.282 C 392.048 636.852, 390.622 634.925, 389.548 633 C 384.547 624.031, 363.352 601.369, 355.281 596.361 C 353.752 595.412, 351.375 593.673, 350 592.495 C 347.269 590.157, 335.303 583, 334.124 583 C 333.721 583, 331.238 581.634, 328.605 579.965 C 325.973 578.295, 321.047 576.278, 317.659 575.483 C 314.272 574.687, 309.214 573.159, 306.421 572.087 C 303.627 571.015, 298.452 569.847, 294.921 569.491 C 291.389 569.134, 287.825 568.587, 287 568.273 C 286.175 567.959, 284.464 567.805, 283.197 567.930 C 281.930 568.055, 280.210 567.589, 279.373 566.895 C 277.841 565.623, 253.926 564.670, 247.500 565.625 M 314 649.724 C 310.660 651.031, 304.648 656.463, 284.085 676.750 C 272.238 688.438, 262.162 698, 261.694 698 C 261.225 698, 250.865 688.179, 238.671 676.175 C 226.477 664.171, 215.081 653.371, 213.346 652.175 C 207.758 648.323, 203.511 649.359, 196.170 656.367 C 188.445 663.740, 187.239 668.696, 191.390 676.003 C 192.704 678.317, 200.485 687.250, 208.682 695.855 C 232.613 720.979, 234 722.568, 234 724.860 C 234 726.336, 227.598 733.510, 213.937 747.343 C 202.902 758.517, 192.554 769.648, 190.941 772.079 C 187.612 777.097, 187.099 782.347, 189.661 785.178 C 190.575 786.188, 191.812 787.979, 192.411 789.159 C 193.010 790.338, 194.399 791.798, 195.497 792.402 C 196.595 793.006, 198.973 794.737, 200.782 796.250 C 205.949 800.572, 208.800 799.976, 217.224 792.817 C 225.411 785.861, 234.441 777.439, 243.429 768.380 C 253.281 758.449, 259.924 753, 262.178 753 C 263.567 753, 269.975 758.621, 280.895 769.417 C 297.054 785.393, 307.169 794.675, 311.746 797.727 C 315.955 800.533, 320.509 798.625, 328.647 790.643 C 335.276 784.142, 336 783.051, 336 779.560 C 336 774.306, 334.359 772.308, 309.390 747.163 C 297.737 735.427, 288.296 725.187, 288.411 724.408 C 288.603 723.097, 297.574 713.362, 322.158 687.784 C 337.604 671.714, 338.393 667.217, 327.668 656.380 C 321.628 650.276, 317.600 648.314, 314 649.724 M 727 672.692 C 724.525 674.638, 722.103 676.919, 721.618 677.761 C 719.952 680.657, 721.873 695.113, 724.641 700.500 C 727.476 706.016, 731.872 711.197, 733.084 710.448 C 733.512 710.184, 734.136 710.411, 734.471 710.953 C 734.806 711.496, 738.244 712.882, 742.111 714.033 C 749.944 716.366, 751.416 715.937, 752.499 711.002 C 753.352 707.122, 761.282 702.802, 765 704.192 C 766.375 704.706, 771.325 705.383, 776 705.696 C 785.252 706.315, 787.500 707.449, 788.500 712 C 788.837 713.536, 789.962 715.560, 790.998 716.498 C 793.010 718.319, 793.277 718.341, 805.439 717.668 L 813.378 717.229 818.589 711.806 C 825.990 704.105, 828.065 694.212, 824.438 683.928 C 822.667 678.906, 816.190 673, 812.453 673 C 810.134 673, 810.130 673.024, 811.633 677.437 C 813.794 683.780, 813.160 687.180, 809.500 688.872 C 807.850 689.635, 805.600 691.042, 804.500 691.998 C 803.400 692.955, 801.150 694.050, 799.500 694.432 C 797.850 694.814, 794.738 696.335, 792.584 697.813 C 788.731 700.456, 788.421 700.498, 773.524 700.366 C 758.531 700.233, 758.325 700.201, 752.859 697.116 C 749.823 695.402, 746.700 693.997, 745.919 693.994 C 745.139 693.990, 742.314 692.113, 739.641 689.823 C 735.050 685.887, 734.812 685.442, 735.311 681.718 C 735.625 679.374, 736.898 676.672, 738.451 675.051 C 744.813 668.411, 735.014 666.392, 727 672.692 M 762.555 674.130 C 754.192 674.933, 750.762 676.095, 752.277 677.610 C 754.800 680.133, 786.232 681.013, 789.462 678.652 C 791.996 676.799, 790.837 675.448, 785.574 674.123 C 780.591 672.868, 775.671 672.870, 762.555 674.130 M 904.658 756.448 C 904.353 757.244, 902.617 758.657, 900.801 759.588 C 898.986 760.520, 896.289 762.292, 894.808 763.527 C 893.198 764.871, 888.977 766.441, 884.308 767.435 C 879.958 768.361, 872.514 771.061, 867.500 773.532 C 862.550 775.971, 856.025 778.446, 853 779.031 C 849.975 779.617, 844.771 780.793, 841.435 781.646 C 836.770 782.839, 834.495 782.954, 831.573 782.148 C 828.320 781.249, 826.872 781.460, 821.496 783.612 C 814.507 786.410, 813.300 786.486, 786.863 785.788 C 769.671 785.335, 767.985 785.125, 765.122 783.087 C 760.881 780.067, 755.249 779.188, 754.395 781.413 C 753.664 783.318, 765.298 795.102, 770.471 797.696 C 772.137 798.532, 774.175 800.054, 775 801.078 C 775.825 802.103, 781 804.364, 786.500 806.105 C 803.124 811.364, 823.459 811.331, 842 806.016 C 845.575 804.991, 849.706 803.892, 851.180 803.575 C 852.654 803.257, 854.464 802.394, 855.201 801.656 C 855.939 800.918, 859.192 799.323, 862.431 798.112 C 865.670 796.900, 869.633 794.804, 871.237 793.454 C 872.841 792.104, 874.467 791, 874.849 791 C 876.351 791, 904 764.820, 904 763.399 C 904 763.063, 905.128 761.448, 906.507 759.810 C 907.885 758.171, 908.759 756.419, 908.448 755.915 C 907.577 754.507, 905.279 754.830, 904.658 756.448" stroke="none" fill="#171916" fill-rule="evenodd"/>
</svg>