<svg role="img" aria-labelledby="artwork-title" shape-rendering="geometricPrecision" xmlns="http://www.w3.org/2000/svg" width="1200" height="1200" viewBox="0 0 1200 1200" version="1.1">
	<title id="artwork-title">Mascot refactoring tangled code</title>
	<path d="M 909.581 281.869 C 909.286 282.346, 905.772 283.057, 901.772 283.447 C 893.558 284.249, 887.011 287.395, 878.392 294.682 C 872.300 299.832, 867.661 300.544, 865.866 296.605 C 864.606 293.840, 860.567 290.620, 856.981 289.521 C 855.616 289.104, 852.475 287.803, 850 286.631 C 846.271 284.865, 843.701 284.508, 835 284.544 C 825.792 284.582, 823.574 284.951, 816.977 287.544 C 812.840 289.170, 807.308 292.052, 804.685 293.950 C 799.543 297.669, 791 307.403, 791 309.542 C 791 310.264, 789.855 311.755, 788.456 312.856 C 786.151 314.669, 784.900 314.803, 775.086 314.285 C 764.428 313.723, 764.162 313.763, 757.970 316.857 C 754.511 318.586, 750.689 320, 749.478 320 C 745.854 320, 734.482 329.259, 729.828 336 C 726.248 341.184, 721.008 353.469, 721.003 356.691 C 721.002 357.896, 720.521 359.178, 719.935 359.540 C 719.349 359.902, 719.012 361.612, 719.185 363.341 C 719.484 366.324, 719.272 366.534, 714.986 367.491 C 709.548 368.707, 703.412 372.306, 699.970 376.300 C 697.071 379.663, 697.068 379.663, 677 376.090 C 665.596 374.059, 663.245 374.042, 394.500 374.065 C 245.450 374.077, 121.700 374.477, 119.500 374.953 C 104.274 378.249, 89.191 390.950, 85.524 403.565 C 84.301 407.774, 83.499 409, 81.972 409 C 80.015 409, 80 410.764, 80 641.500 C 80 838.315, 80.211 874, 81.378 874 C 83.468 874, 85.017 876.378, 86.440 881.774 C 87.150 884.462, 88.578 887.702, 89.615 888.973 C 98.491 899.860, 103.306 903.320, 112.803 905.640 C 116.487 906.540, 119.927 907.663, 120.450 908.138 C 121.812 909.374, 149 909.243, 149 908 C 149 906.646, 183.663 906.646, 184.500 908 C 185.351 909.378, 321.649 909.378, 322.500 908 C 323.349 906.627, 421.651 906.627, 422.500 908 C 422.884 908.621, 432.157 909, 447 909 C 461.843 909, 471.116 908.621, 471.500 908 C 471.905 907.345, 503.494 907, 563.010 907 C 658.541 907, 662.349 906.836, 666.405 902.559 C 667.557 901.345, 669.227 900.084, 670.117 899.758 C 672.777 898.782, 675.436 887.232, 674.104 882.435 C 673.503 880.271, 673.009 877.697, 673.006 876.716 C 673 874.959, 679.664 870.226, 681.355 870.787 C 681.826 870.943, 682.811 870.572, 683.545 869.963 C 684.279 869.353, 688.209 868.603, 692.278 868.295 L 699.676 867.736 701.906 870.868 C 704.850 875.003, 710.500 875.246, 715.474 871.452 C 717.311 870.051, 720.420 868.644, 722.383 868.325 C 725.579 867.807, 726.060 868.028, 726.977 870.438 C 727.682 872.293, 727.672 873.744, 726.947 875.099 C 726.368 876.181, 725.483 885.489, 724.980 895.783 C 724.088 914.032, 724.117 914.543, 726.128 916.237 C 728.066 917.870, 736.859 917.975, 871.345 917.975 C 956.533 917.976, 1015.085 917.604, 1015.946 917.058 C 1017.105 916.322, 1017.344 913.601, 1017.153 903.320 C 1017.023 896.269, 1016.667 889.673, 1016.363 888.663 C 1016.059 887.653, 1016.095 885.307, 1016.443 883.451 C 1016.996 880.504, 1017.546 879.995, 1020.788 879.434 C 1022.830 879.081, 1026.300 878.215, 1028.500 877.509 C 1030.700 876.803, 1035.875 875.914, 1040 875.533 C 1047.720 874.821, 1053.287 873.655, 1057.874 871.787 C 1059.318 871.199, 1061.917 870.812, 1063.649 870.927 C 1065.381 871.042, 1067.095 870.655, 1067.458 870.068 C 1067.821 869.481, 1070.495 869, 1073.400 869 C 1076.305 869, 1082.403 868.499, 1086.950 867.887 C 1098.997 866.266, 1098.517 865.355, 1099.918 892.500 C 1100.967 912.814, 1101.213 914.634, 1103.138 916.250 C 1105.830 918.511, 1113.723 918.583, 1116.875 916.375 C 1119.178 914.762, 1119.190 914.639, 1118.529 900.125 C 1118.059 889.804, 1117.148 882.650, 1115.432 875.816 C 1114.094 870.490, 1113 865.900, 1113 865.616 C 1113 865.333, 1114.411 863.783, 1116.135 862.171 C 1118.607 859.861, 1119.367 858.211, 1119.725 854.371 C 1120.492 846.161, 1118.333 824.899, 1116.082 818.494 C 1114.947 815.265, 1113.723 810.345, 1113.362 807.562 C 1113.001 804.778, 1111.479 799.951, 1109.980 796.836 C 1108.481 793.720, 1106.934 789.445, 1106.543 787.336 C 1106.151 785.226, 1105.206 782.803, 1104.442 781.950 C 1103.678 781.098, 1102.383 778.503, 1101.565 776.184 C 1100.747 773.865, 1098.937 770.473, 1097.544 768.646 C 1096.150 766.819, 1095.332 765.001, 1095.726 764.608 C 1096.120 764.214, 1096.005 763.578, 1095.471 763.196 C 1094.937 762.813, 1094.050 761.780, 1093.500 760.900 C 1086.172 749.172, 1077.668 739.193, 1067.784 730.724 C 1056.708 721.232, 1052.868 718.446, 1047.457 715.973 C 1044.731 714.727, 1039.575 712.347, 1036 710.685 C 1032.425 709.023, 1029.275 707.589, 1029 707.498 C 1028.725 707.407, 1027.233 706.808, 1025.685 706.166 C 1024.137 705.525, 1022.241 705, 1021.472 705 C 1020.704 705, 1017.696 704.126, 1014.788 703.059 C 1011.879 701.991, 1007.700 700.834, 1005.500 700.489 C 998.387 699.371, 988.533 696.827, 987.250 695.778 C 985.121 694.036, 985.866 691.052, 988.887 689.215 C 992.260 687.163, 999 679.385, 999 677.543 C 999 676.846, 1000.350 674.576, 1002 672.500 C 1003.650 670.424, 1005 668.292, 1005 667.764 C 1005 667.235, 1006.350 665.541, 1008 664 C 1010.361 661.795, 1011 660.350, 1011 657.221 C 1011 651.660, 1012.360 650.868, 1018.961 652.580 C 1023.730 653.817, 1025.351 653.802, 1031.842 652.461 C 1040.228 650.729, 1040.833 650.462, 1050.500 644.211 C 1058.108 639.293, 1065 633.246, 1065 631.490 C 1065 630.882, 1066.237 628.892, 1067.750 627.066 C 1069.263 625.240, 1070.502 623.466, 1070.504 623.123 C 1070.506 622.780, 1071.750 620.384, 1073.268 617.797 C 1076.632 612.067, 1079.458 598.392, 1079.425 588 C 1079.397 578.946, 1076.611 565.348, 1074.209 562.539 C 1070.783 558.535, 1068 554.056, 1068 552.549 C 1068 551.706, 1068.900 550.455, 1070 549.768 C 1071.100 549.081, 1072 548.094, 1072 547.574 C 1072 547.054, 1072.916 545.654, 1074.035 544.463 C 1078.639 539.562, 1080.818 525.903, 1078.384 517.202 C 1077.865 515.347, 1078.680 514.005, 1082.620 510.230 C 1091.022 502.180, 1096.602 492.930, 1095.749 488.466 C 1095.484 487.084, 1095.658 485.711, 1096.134 485.417 C 1097.288 484.704, 1097.251 469.273, 1096.094 468.558 C 1095.596 468.250, 1095.410 467.149, 1095.681 466.112 C 1095.952 465.074, 1095.685 463.923, 1095.087 463.554 C 1094.489 463.184, 1094 462.192, 1094 461.349 C 1094 459.807, 1093.219 458.658, 1085.958 449.518 C 1082.080 444.637, 1081.082 441.686, 1082.923 440.548 C 1083.431 440.234, 1084.165 438.526, 1084.554 436.753 C 1084.944 434.980, 1085.991 432.418, 1086.881 431.059 C 1089.452 427.135, 1089.141 409.895, 1086.393 404 C 1084.110 399.103, 1082.722 395.807, 1082.586 394.960 C 1082.060 391.669, 1067.312 376.708, 1061.871 373.945 C 1059.467 372.724, 1056.427 370.887, 1055.115 369.863 C 1053.490 368.593, 1051.083 368, 1047.556 368 C 1041.144 368, 1038.544 366.254, 1038.367 361.829 C 1038.051 353.938, 1034.347 344.474, 1027.903 335.090 C 1024.381 329.961, 1020.600 325.420, 1019.500 324.997 C 1018.400 324.575, 1016.643 323.278, 1015.595 322.115 C 1014.547 320.952, 1013.323 320, 1012.874 320 C 1012.426 320, 1009.983 318.538, 1007.446 316.750 L 1002.833 313.500 987.667 313.500 C 975.186 313.500, 971.897 313.810, 969.096 315.250 C 964.433 317.648, 963.149 317.457, 962.369 314.250 C 962 312.738, 960.417 310.022, 958.850 308.215 C 957.282 306.409, 956 304.460, 956 303.886 C 956 302.258, 943.947 291.053, 939.614 288.653 C 937.477 287.469, 934.816 285.972, 933.701 285.326 C 932.585 284.680, 927.921 283.840, 923.336 283.458 C 918.751 283.076, 915 282.367, 915 281.882 C 915 280.741, 910.285 280.729, 909.581 281.869 M 899.180 301.894 C 894.309 302.986, 891.297 304.243, 890.180 305.650 C 889.256 306.814, 887.487 308.284, 886.250 308.918 C 885.013 309.552, 884 310.718, 884 311.510 C 884 312.301, 882.650 313.647, 881 314.500 C 877.685 316.214, 877.321 317.192, 879.367 318.890 C 881.207 320.416, 883 318.496, 883 315 C 883 314.450, 883.884 314, 884.965 314 C 886.046 314, 889.059 312.650, 891.661 311 C 894.413 309.255, 897.749 308, 899.637 308 C 901.422 308, 903.177 307.523, 903.536 306.941 C 903.896 306.358, 905.161 305.975, 906.346 306.090 C 907.530 306.204, 909.288 305.957, 910.250 305.542 C 911.212 305.126, 912.788 305.126, 913.750 305.542 C 914.712 305.957, 916.578 306.190, 917.896 306.058 C 919.214 305.926, 921.239 306.264, 922.396 306.808 C 923.553 307.353, 925.962 308.348, 927.750 309.020 C 929.538 309.693, 931 310.638, 931 311.121 C 931 311.605, 931.612 312, 932.360 312 C 933.109 312, 935.411 313.147, 937.478 314.549 C 939.544 315.952, 941.461 316.873, 941.737 316.596 C 943.183 315.150, 940.428 311.019, 935.489 307.226 C 930.921 303.718, 928.542 302.687, 922.212 301.476 C 912.851 299.685, 908.702 299.760, 899.180 301.894 M 818.750 303.689 C 817.788 303.941, 817 304.777, 817 305.548 C 817 306.318, 815.663 307.640, 814.030 308.485 C 812.396 309.329, 810.580 310.916, 809.994 312.010 C 809.409 313.105, 808.319 314, 807.573 314 C 806.073 314, 804.581 318.513, 805.558 320.095 C 806.393 321.445, 808.952 319.255, 810.116 316.194 C 810.616 314.881, 811.898 313.578, 812.965 313.299 C 814.033 313.020, 815.613 311.713, 816.476 310.396 C 817.340 309.078, 818.861 308, 819.856 308 C 820.852 308, 822.004 307.663, 822.417 307.250 C 822.829 306.837, 823.467 306.439, 823.833 306.365 C 826.490 305.829, 829 304.623, 829 303.883 C 829 302.987, 821.950 302.853, 818.750 303.689 M 975.643 331.500 C 974.818 332.325, 973.406 333, 972.506 333 C 969.941 333, 966.874 334.987, 967.608 336.174 C 968.041 336.875, 970.520 337.018, 974.744 336.585 C 978.319 336.219, 984.734 336.437, 989.075 337.071 C 995.693 338.039, 997.758 338.835, 1002.148 342.110 C 1005.015 344.250, 1007.700 346, 1008.113 346 C 1008.527 346, 1009.118 346.797, 1009.427 347.772 C 1009.737 348.746, 1011.303 350.981, 1012.908 352.738 C 1014.513 354.496, 1016.143 357.411, 1016.531 359.217 C 1017.462 363.556, 1017.796 364.016, 1019.532 363.349 C 1022.095 362.366, 1021.290 356.764, 1018.041 352.962 C 1016.413 351.058, 1015.063 348.935, 1015.041 348.243 C 1015.018 347.552, 1013.875 346.009, 1012.500 344.813 C 1011.125 343.618, 1010 342.052, 1010 341.333 C 1010 340.615, 1008.538 339.416, 1006.750 338.668 C 1004.962 337.921, 1002.892 336.577, 1002.150 335.681 C 1001.407 334.786, 999.264 333.765, 997.388 333.413 C 995.513 333.061, 993.713 332.344, 993.389 331.820 C 993.065 331.296, 990.148 330.975, 986.907 331.107 C 983.666 331.239, 980.711 331.044, 980.341 330.674 C 979.226 329.559, 977.234 329.909, 975.643 331.500 M 756.500 336 C 755.505 337.100, 754.086 338, 753.348 338 C 751.208 338, 744.354 344.721, 741.462 349.654 C 739.325 353.301, 738.945 354.889, 739.501 357.839 L 740.191 361.500 742.302 357.500 C 743.464 355.300, 744.456 353.275, 744.507 353 C 744.559 352.725, 746.266 350.780, 748.301 348.679 C 750.335 346.577, 752 344.440, 752 343.929 C 752 343.418, 752.874 343, 753.943 343 C 755.012 343, 756.482 342.150, 757.209 341.112 C 758.912 338.681, 764.990 337.013, 772.168 337.006 C 775.286 337.003, 778.586 336.712, 779.502 336.361 C 783.022 335.010, 778.387 334.030, 768.405 334.015 C 759.569 334.002, 758.084 334.249, 756.500 336 M 1042.531 387.950 C 1041.866 389.026, 1044.175 390.406, 1048.285 391.390 C 1049.943 391.786, 1051.444 393.038, 1051.992 394.480 C 1052.499 395.813, 1054.283 397.612, 1055.957 398.478 C 1057.631 399.343, 1059 400.472, 1059 400.985 C 1059 401.499, 1060.063 402.950, 1061.362 404.210 C 1062.896 405.697, 1064.174 408.703, 1065.005 412.779 C 1066.516 420.187, 1067.535 421.290, 1068.436 416.491 C 1070.020 408.045, 1064.191 396.773, 1054.673 389.878 C 1050.664 386.974, 1043.807 385.885, 1042.531 387.950 M 712.830 388.674 C 710.522 389.285, 702.639 401.616, 703.358 403.490 C 704.263 405.848, 705.710 405.277, 707.165 401.988 C 707.899 400.332, 709.222 398.747, 710.106 398.466 C 710.990 398.186, 712.534 396.053, 713.535 393.728 C 714.537 391.403, 715.539 389.163, 715.762 388.750 C 716.187 387.962, 715.581 387.946, 712.830 388.674 M 128.457 394.069 C 128.094 394.657, 125.930 395.048, 123.648 394.937 C 116.753 394.603, 111.426 397.691, 105.021 405.737 C 101.670 409.944, 100.687 412.160, 99.886 417.306 C 98.426 426.684, 99.146 470.272, 100.794 472.254 C 101.961 473.658, 126.294 473.764, 348.294 473.331 C 530.314 472.975, 601.930 473.163, 623 474.050 C 638.675 474.710, 656.151 475.155, 661.835 475.039 C 668.118 474.911, 673.313 475.301, 675.085 476.035 C 677.715 477.125, 677.999 477.695, 677.985 481.871 C 677.967 487.298, 677.337 488.541, 673.955 489.827 C 671 490.951, 620.932 491.500, 521.500 491.500 C 481.900 491.500, 371.364 491.613, 275.864 491.750 L 102.228 492 100.826 495.250 C 99.632 498.019, 99.535 526.192, 100.169 685.785 L 100.913 873.069 103.118 876.285 C 106.777 881.623, 110.308 885.085, 114.068 887.019 C 117.497 888.783, 128.064 888.872, 385.568 889.296 L 653.500 889.738 656.744 887.619 C 659.968 885.513, 661.993 880.416, 660.540 878.065 C 659.610 876.560, 655.857 876.744, 651.654 878.500 C 645.329 881.143, 631.210 880.481, 619.040 876.970 C 612.902 875.200, 607.600 873.033, 606.209 871.727 C 604.905 870.502, 603.538 869.572, 603.169 869.659 C 600.276 870.346, 589.667 863.386, 576.108 851.905 C 563.617 841.328, 535.249 810.419, 533.249 805.207 C 532.950 804.427, 531.199 802.149, 529.357 800.145 C 527.516 798.140, 526.007 795.993, 526.005 795.372 C 525.995 793.145, 522.685 791.571, 516.646 790.922 C 509.675 790.174, 501.362 786.610, 489.325 779.209 C 484.829 776.445, 480.166 773.870, 478.963 773.488 C 475.518 772.395, 464.701 761.066, 461.184 754.867 C 459.426 751.769, 457.327 748.686, 456.520 748.017 C 454.327 746.197, 453.529 740.298, 455.053 737.173 C 455.770 735.703, 456.389 734.200, 456.429 733.833 C 456.468 733.467, 456.834 732.833, 457.241 732.425 C 457.649 732.018, 457.472 731.069, 456.849 730.318 C 456.225 729.566, 456 728.666, 456.349 728.318 C 456.697 727.969, 456.435 727.024, 455.765 726.217 C 455.035 725.337, 454.574 721.785, 454.613 717.338 C 454.665 711.377, 455.101 709.355, 456.840 707.003 C 459.610 703.256, 468 686.554, 468 684.787 C 468 684.047, 465.037 680.530, 461.416 676.971 C 450.758 666.495, 448.583 662.766, 448.617 655.021 C 448.642 649.332, 449.060 647.894, 451.894 643.750 C 453.680 641.138, 455.750 639, 456.494 639 C 457.238 639, 459.184 637.875, 460.818 636.500 C 462.570 635.025, 465.044 634, 466.848 634 C 472.680 634, 487.270 639.577, 495.164 644.823 C 500.517 648.381, 504.825 650.379, 509.453 651.453 C 513.097 652.298, 517.364 653.654, 518.935 654.466 C 520.505 655.278, 523.647 656.240, 525.917 656.603 C 528.187 656.966, 530.286 657.654, 530.581 658.131 C 530.876 658.609, 531.946 659, 532.957 659 C 535.116 659, 544.076 663.580, 550.315 667.873 C 555.524 671.456, 565 681.578, 565 683.558 C 565 684.326, 566.090 685.668, 567.421 686.540 C 569.756 688.070, 581.625 710.374, 581.235 712.500 C 581.047 713.530, 588.248 718.766, 600.500 726.505 C 604.350 728.937, 608.624 731.730, 609.997 732.713 C 611.370 733.696, 615.645 736.323, 619.497 738.550 C 623.349 740.778, 629.602 744.940, 633.393 747.800 C 640.914 753.474, 643.526 754.051, 648.382 751.114 C 650.097 750.077, 652.625 748.886, 654 748.469 C 655.375 748.051, 659.151 745.350, 662.390 742.465 C 666.996 738.364, 669.669 736.845, 674.652 735.496 C 678.156 734.548, 681.262 733.386, 681.553 732.914 C 682.243 731.798, 689.485 728.529, 699.500 724.814 C 703.900 723.181, 708.175 721.263, 709 720.551 C 711.646 718.267, 738.723 709.066, 743.088 708.968 C 743.865 708.951, 745.295 708.333, 746.267 707.595 C 748.587 705.835, 747.578 703.350, 743.737 701.364 C 740.842 699.867, 734.015 693.197, 734.005 691.856 C 734.002 691.501, 732.625 689.740, 730.944 687.940 C 729.264 686.141, 727.229 683.091, 726.423 681.162 C 725.617 679.233, 723.478 675.820, 721.670 673.577 C 716.080 666.643, 713.977 662.407, 712.421 654.941 C 711.596 650.985, 710.263 646.476, 709.460 644.923 C 708.657 643.370, 708 641.177, 708 640.050 C 708 638.922, 707.550 638, 707 638 C 706.398 638, 706 633.903, 706 627.708 L 706 617.416 701.421 612.958 C 693.816 605.555, 689.518 597.104, 687.102 584.802 C 684.588 572.007, 684.484 566.412, 686.573 556.300 C 689.190 543.629, 691.555 538.643, 698.572 530.997 C 702.107 527.144, 705 523.388, 705 522.651 C 705 521.913, 704.098 520.494, 702.996 519.496 C 699.850 516.649, 698.702 510.553, 699.468 500.748 L 700.151 491.995 695.592 486.659 C 689.986 480.098, 688.084 475.702, 687.323 467.553 C 686.458 458.292, 687.604 452.799, 691.622 446.959 L 695.130 441.859 692.708 438.680 C 691.376 436.931, 688.872 432.275, 687.143 428.332 C 684.440 422.168, 684 419.993, 684 412.794 C 684 406.397, 684.472 403.498, 686 400.500 C 689.970 392.714, 691.250 393, 652.492 393 C 630.655 393, 617.893 393.365, 617.500 394 C 617.133 394.594, 610.823 395, 601.941 395 C 592.647 395, 587 394.622, 587 394 C 587 393.346, 569.353 393, 536.059 393 C 503.177 393, 484.899 393.355, 484.500 394 C 484.094 394.656, 447.990 395, 379.441 395 C 310.480 395, 275 394.660, 275 394 C 275 393.389, 270.333 393, 263 393 C 255.667 393, 251 393.389, 251 394 C 251 394.651, 236.353 395, 209.059 395 C 182.177 395, 166.896 394.641, 166.500 394 C 165.630 392.593, 129.329 392.659, 128.457 394.069 M 860.253 407.362 C 852.842 414, 840.742 417.980, 828 417.970 C 820.447 417.964, 818.664 417.581, 812 414.529 C 807.875 412.640, 803.509 409.948, 802.298 408.547 C 799.041 404.779, 796.693 405.343, 792.213 410.970 C 784.314 420.890, 769.268 429.877, 762.898 428.478 C 759.167 427.658, 756.414 429.824, 755.429 434.354 C 755.052 436.084, 754.127 438.388, 753.372 439.473 C 752.618 440.557, 752 442.255, 752 443.245 C 752 445.375, 744.327 454, 742.432 454 C 740.278 454, 739.827 455.645, 738.913 466.828 C 738.368 473.505, 737.239 479.559, 735.899 483 C 734.127 487.547, 733.670 491.315, 733.261 504.750 C 732.988 513.688, 732.948 521, 733.171 521 C 733.394 521, 735.342 520.100, 737.500 519 C 740.129 517.660, 743.397 517, 747.410 517 C 750.702 517, 757.020 516.479, 761.448 515.843 C 768.220 514.870, 770.931 514.950, 778.500 516.345 C 783.450 517.257, 789.098 518.003, 791.050 518.002 C 793.003 518.001, 795.140 518.540, 795.800 519.200 C 796.460 519.860, 797 520.047, 797 519.615 C 797 519.183, 799.198 520.443, 801.884 522.415 C 804.570 524.387, 807.253 526, 807.847 526 C 808.440 526, 810.695 528.606, 812.858 531.790 C 818.411 539.968, 819.259 540.550, 823.229 538.905 C 827.599 537.095, 838.116 537.681, 844.181 540.071 C 851.407 542.920, 852.550 542.613, 858.879 536.124 C 862.531 532.380, 866.994 529.099, 871.181 527.080 C 877.216 524.169, 879.018 523.825, 893.286 522.857 C 907.567 521.889, 909.857 521.981, 921.660 523.992 C 938.701 526.896, 946.484 529.962, 953.211 536.421 C 958.678 541.671, 966.477 545.655, 967.631 543.787 C 968.020 543.159, 970.805 542.997, 974.881 543.365 C 978.521 543.694, 985.077 544.043, 989.448 544.141 C 1000.311 544.384, 1000.756 543.533, 995.225 533.078 C 991.509 526.053, 991 524.308, 991 518.581 C 991 512.772, 991.324 511.701, 994 508.653 C 998.541 503.481, 998.072 500.892, 992 497.606 C 988.113 495.502, 984 492.056, 984 490.903 C 984 490.491, 982.696 488.850, 981.102 487.256 C 978.594 484.748, 978.107 483.317, 977.480 476.628 C 977.081 472.376, 977.065 466.558, 977.444 463.699 C 977.823 460.839, 978.216 457.150, 978.317 455.500 L 978.500 452.500 970.500 451.930 C 954.692 450.805, 940.385 440.678, 936.004 427.513 C 933.779 420.827, 930.688 415.980, 928.677 416.028 C 928.030 416.043, 925.718 417.404, 923.540 419.051 C 916.101 424.679, 903.438 426.557, 892.340 423.678 C 884.187 421.563, 871.062 411.924, 869.020 406.552 C 867.682 403.034, 864.785 403.302, 860.253 407.362 M 141 420.520 C 136.758 423.367, 135.712 424.391, 131.937 429.388 C 127.657 435.053, 127.990 438.577, 133.438 445.265 C 141.041 454.599, 147.218 455.998, 155.887 450.353 C 160.608 447.279, 164 441.227, 164 435.877 C 164 430.914, 160.398 425.321, 154.753 421.520 C 148.718 417.455, 145.875 417.249, 141 420.520 M 189.476 420.817 C 180.526 425.266, 175.114 437.078, 180 441.500 C 181.100 442.495, 182 443.863, 182 444.539 C 182 446.964, 189.874 452.994, 193.253 453.156 C 198.343 453.399, 201.360 452.946, 202.845 451.714 C 203.597 451.089, 205.178 450.097, 206.357 449.510 C 209.343 448.021, 212.870 440.345, 212.941 435.180 C 213.017 429.587, 208.405 422.468, 204.091 421.520 C 202.483 421.167, 200.919 420.230, 200.615 419.439 C 199.817 417.360, 195.309 417.918, 189.476 420.817 M 238.500 421.051 C 233.234 424.039, 229.741 428.226, 227.926 433.724 C 225.525 440.999, 235.730 453.214, 244.370 453.405 C 252.465 453.584, 261.644 443.701, 261.314 435.162 C 261.106 429.794, 256.643 422.677, 253.170 422.175 C 251.935 421.997, 250.383 420.984, 249.721 419.925 C 248.073 417.287, 244.505 417.645, 238.500 421.051 M 769.675 487.614 C 763.231 489.055, 751.749 495.223, 749.800 498.289 C 749.377 498.955, 749.024 501.177, 749.015 503.227 C 748.994 508.351, 751.949 510.210, 759.683 509.939 C 769.189 509.606, 775.037 509.878, 783.593 511.052 C 792.465 512.269, 798.049 511.401, 802.018 508.187 C 803.760 506.776, 804.242 505.298, 804.304 501.170 C 804.378 496.279, 804.132 495.731, 800.513 492.720 C 798.384 490.949, 795.068 488.933, 793.142 488.240 C 787.500 486.210, 777.181 485.934, 769.675 487.614 M 893.054 492.547 C 885.750 494.324, 883.315 495.754, 880.879 499.695 C 878.123 504.155, 879.014 510.097, 882.827 512.685 C 885.096 514.226, 887.628 514.500, 899.569 514.500 C 913.243 514.500, 913.756 514.577, 917.798 517.250 C 921.396 519.629, 922.958 520, 929.373 520 C 936.176 520, 937.045 519.760, 939.894 517.099 C 944.100 513.170, 944.055 509.254, 939.750 504.593 C 937.962 502.658, 934.925 500.370, 933 499.508 C 931.075 498.646, 928.001 497.043, 926.169 495.945 C 924.336 494.848, 922.311 494.032, 921.669 494.133 C 921.026 494.233, 919.825 494.062, 919 493.751 C 916.022 492.631, 905.588 491.002, 902.083 491.111 C 900.112 491.171, 896.049 491.818, 893.054 492.547 M 747.885 534.776 C 746.573 535.753, 744.375 537.135, 743 537.846 C 738.626 540.109, 733 550.358, 733 556.065 C 733 560.555, 735.554 559.664, 736.947 554.688 C 737.868 551.399, 740.034 548.534, 746.084 542.604 C 750.445 538.328, 753.759 534.418, 753.448 533.915 C 752.575 532.503, 750.506 532.824, 747.885 534.776 M 882.986 542.778 C 877.935 546.691, 872 553.088, 872 554.619 C 872 555.340, 870.650 557.468, 869 559.347 C 867.350 561.226, 866 563.466, 866 564.323 C 866 567.095, 868.252 567.413, 870.152 564.909 C 871.157 563.584, 872.884 561.584, 873.990 560.465 C 875.095 559.345, 876 557.971, 876 557.410 C 876 555.977, 882.142 549.501, 884.244 548.717 C 885.876 548.109, 889.988 542.413, 889.996 540.750 C 890.004 539.128, 886.323 540.193, 882.986 542.778 M 709.035 545.934 C 708.466 546.998, 708 548.761, 708 549.851 C 708 550.941, 707.663 551.983, 707.250 552.167 C 706.837 552.350, 705.712 554.203, 704.750 556.284 C 702.793 560.514, 702.344 575.466, 703.964 582.450 C 705.063 587.190, 708.806 590.592, 710.776 588.641 C 712.419 587.013, 714.322 548.470, 712.890 545.795 C 711.646 543.471, 710.328 543.519, 709.035 545.934 M 292.461 548.990 C 289.690 549.397, 286.090 550.412, 284.461 551.245 C 282.833 552.078, 280.083 553.064, 278.351 553.437 C 274.322 554.304, 265.561 561.106, 258.790 568.625 C 251.945 576.227, 252.397 575.967, 245.998 575.985 C 237.707 576.008, 220.278 579.645, 214.845 582.486 C 212.201 583.869, 209.233 585, 208.250 585 C 204.185 585, 188.686 600.602, 187.532 605.856 C 187.168 607.509, 186.225 609.398, 185.436 610.053 C 184.607 610.741, 183.950 613.200, 183.882 615.872 C 183.657 624.673, 182.906 626.294, 178.464 627.580 C 171.895 629.482, 163.523 635.517, 157.830 642.453 C 148.742 653.526, 147.842 654.911, 146.548 659.819 C 145.856 662.441, 144.441 666.367, 143.403 668.543 C 140.991 673.599, 140.877 683.470, 143.190 687 C 144.090 688.375, 145.384 691.400, 146.064 693.722 C 146.744 696.045, 148.020 698.745, 148.900 699.723 C 149.780 700.701, 151.696 703.076, 153.158 705.001 C 154.620 706.925, 157.658 710.507, 159.908 712.960 C 164.608 718.082, 165.141 721.537, 161.909 725.909 C 159.792 728.773, 159.731 730.342, 161.191 744.500 C 161.459 747.100, 161 747.744, 157.749 749.333 C 154.764 750.791, 153.262 752.630, 150.395 758.333 C 146.904 765.278, 146.806 765.779, 147.210 774.500 C 147.595 782.813, 147.904 783.930, 151.265 789.126 C 155.394 795.512, 163.613 802.536, 168.110 803.524 C 169.774 803.890, 172.342 804.818, 173.817 805.588 C 175.293 806.358, 178.097 806.990, 180.050 806.994 C 182.002 806.997, 184.140 807.540, 184.800 808.200 C 185.733 809.133, 186 809.107, 186 808.083 C 186 807.218, 186.857 806.931, 188.503 807.245 C 192.036 807.921, 196 804.062, 196 799.948 C 196 797.728, 195.042 795.845, 192.750 793.561 C 189.854 790.674, 188.703 790.255, 182.182 789.713 C 169.414 788.652, 164.544 784.086, 164.590 773.218 C 164.632 763.136, 166.140 751.884, 167.520 751.354 C 168.806 750.860, 178 756.607, 178 757.905 C 178 758.865, 187.195 765.140, 192.500 767.800 C 200.470 771.796, 200.768 772.564, 201.155 790.073 C 201.487 805.056, 201.603 805.802, 204.211 809.742 C 205.701 811.995, 207.235 815.089, 207.619 816.619 C 208.655 820.746, 215.674 830.492, 220.398 834.363 C 225.321 838.397, 241.460 846.452, 242.872 845.579 C 243.416 845.243, 244.118 845.383, 244.432 845.890 C 245.492 847.606, 255.017 848.222, 261.809 847.015 C 268.033 845.909, 283.191 839.477, 286.882 836.377 C 287.772 835.629, 291.414 832.314, 294.976 829.009 C 301.971 822.519, 303.134 822.151, 308.782 824.636 C 314.575 827.186, 331.201 826.889, 337.450 824.125 C 340.092 822.956, 342.793 822, 343.451 822 C 344.109 822, 346.863 820.425, 349.571 818.500 C 352.278 816.575, 354.879 815, 355.350 815 C 355.821 815, 359.335 812.300, 363.160 809 C 366.985 805.700, 370.651 802.976, 371.307 802.946 C 371.963 802.917, 379.025 802.773, 387 802.626 C 399.706 802.391, 401.993 802.089, 405.485 800.179 C 407.677 798.981, 410.036 798, 410.727 798 C 411.418 798, 412.545 797.100, 413.232 796 C 413.919 794.900, 414.993 794, 415.619 794 C 416.865 794, 426 783.715, 426 782.313 C 426 781.835, 427.345 778.853, 428.988 775.686 C 430.631 772.519, 431.910 769.606, 431.829 769.214 C 431.748 768.821, 432.037 767.688, 432.469 766.695 C 433.870 763.483, 432.366 750.791, 430.076 746.500 C 426.162 739.165, 423.805 735.548, 418.999 729.500 C 414.408 723.722, 411 717.274, 411 714.364 C 411 712.735, 415.048 704.282, 420.374 694.791 C 426.933 683.102, 428.939 661.633, 425.484 640.104 C 423.614 628.454, 421.989 624.711, 415.503 617.112 C 403.507 603.058, 391.969 598, 371.908 598 C 360.139 598, 358.837 597.389, 357.532 591.250 C 357.152 589.462, 356.520 588, 356.128 588 C 355.736 588, 354.845 585.869, 354.148 583.264 C 351.372 572.886, 338.024 557.844, 327.255 552.962 C 317.953 548.744, 304.550 547.214, 292.461 548.990 M 402.500 548.903 C 397.194 549.956, 386.289 555.565, 384.747 558.034 C 384.071 559.115, 382.999 560, 382.363 560 C 381.727 560, 379.811 561.591, 378.104 563.535 C 375.450 566.557, 375 567.854, 375 572.479 C 375 576.743, 375.507 578.478, 377.393 580.670 C 379.673 583.321, 379.921 583.383, 382.643 581.976 C 384.214 581.164, 388.248 577.777, 391.608 574.448 C 398.264 567.852, 403.663 565.423, 414.086 564.333 C 420.481 563.665, 434.109 567.109, 437.166 570.166 C 438.129 571.129, 440.656 572.804, 442.782 573.889 C 447.374 576.232, 452.655 585.204, 453.630 592.320 C 454.742 600.428, 453.137 611.684, 450.407 614.928 C 446.218 619.907, 445.952 627.833, 449.902 629.948 C 452.946 631.577, 460.240 628.536, 463.691 624.199 C 467.038 619.993, 468.421 617.128, 468.081 615.106 C 467.952 614.340, 468.443 613.344, 469.173 612.893 C 470.172 612.276, 470.500 608.663, 470.500 598.287 C 470.500 584.949, 470.402 584.308, 467.500 578.587 C 461.776 567.306, 461.112 566.296, 457.518 563.406 C 455.531 561.808, 452.774 559.481, 451.392 558.235 C 450.009 556.989, 444.786 554.370, 439.785 552.416 C 431.510 549.183, 429.603 548.829, 418.596 548.486 C 411.943 548.279, 404.700 548.466, 402.500 548.903 M 162.537 560.500 C 158.438 564.075, 154.615 567, 154.042 567 C 153.469 567, 152.999 567.563, 152.999 568.250 C 152.998 568.938, 151.873 570.807, 150.499 572.406 C 145.677 578.013, 147.815 585.563, 156.681 594.236 C 158.782 596.290, 161.457 597.978, 162.628 597.986 C 166.354 598.011, 167.219 595.681, 166.975 586.275 C 166.673 574.588, 166.440 575.326, 171.196 572.900 C 175.022 570.948, 176.366 570.818, 186.446 571.425 C 201.668 572.341, 202.925 572.279, 205.674 570.478 C 209.276 568.118, 210.275 564.595, 208.529 560.416 C 206.257 554.977, 202.677 554, 185.027 554 L 169.990 554 162.537 560.500 M 824.358 560.117 C 823.318 561.416, 819.737 567.904, 819.456 569 C 819.385 569.275, 819.059 570.175, 818.732 571 C 818.405 571.825, 817.436 575.029, 816.579 578.119 C 815.721 581.210, 814.341 584.302, 813.510 584.992 C 812.680 585.681, 812 586.853, 812 587.597 C 812 589.898, 800.591 602.303, 794.902 606.189 C 787.420 611.298, 777.502 613.477, 765.509 612.645 C 754.607 611.890, 746.511 609.828, 743.562 607.058 C 742.357 605.926, 740.938 605, 740.408 605 C 739.146 605, 734.200 600.365, 730.787 595.983 C 727.219 591.402, 726.036 593.034, 726.015 602.566 C 725.993 613.007, 727.673 620.308, 731.626 626.944 C 734.741 632.172, 735.593 632.924, 739.072 633.512 C 741.475 633.918, 743 634.724, 743 635.588 C 743 636.365, 743.498 637, 744.107 637 C 744.716 637, 744.955 637.675, 744.638 638.500 C 744.322 639.325, 744.442 640, 744.906 640 C 745.370 640, 746.008 641.291, 746.324 642.868 C 746.811 645.306, 747.612 645.917, 751.650 646.933 C 754.264 647.592, 758.353 649.446, 760.737 651.055 C 765.422 654.217, 765.350 654.259, 766.822 647.450 C 767.304 645.223, 769.116 641.443, 770.849 639.050 C 772.582 636.658, 774 634.186, 774 633.558 C 774 630.585, 786.910 621, 790.915 621 C 791.527 621, 792.809 620.603, 793.764 620.117 C 806.016 613.890, 813.626 613.226, 820.904 617.750 C 827.048 621.569, 829.599 621.769, 834.720 618.832 C 840.421 615.563, 847.584 615.751, 852.717 619.306 C 855.914 621.520, 858.459 622.283, 864.770 622.919 C 869.170 623.362, 873.638 624.350, 874.699 625.113 C 880.621 629.372, 887.742 636.269, 892.024 641.894 C 896.069 647.207, 897 649.237, 897.528 653.894 C 897.878 656.977, 898.367 660.239, 898.615 661.142 C 899.257 663.478, 903.061 664.190, 905.692 662.466 C 908.422 660.677, 910.749 660.654, 913.870 662.385 C 917.070 664.159, 921.110 663.133, 925.230 659.500 C 929.627 655.623, 934.563 653, 937.459 653 C 941.222 653, 946.533 650.304, 949.085 647.098 C 950.618 645.173, 952.741 643.882, 955.003 643.499 C 958.867 642.847, 963.709 638.500, 966.366 633.297 C 967.266 631.536, 970.023 628.704, 972.493 627.005 C 975.315 625.063, 977.206 622.910, 977.584 621.208 C 978.823 615.629, 979.263 614.815, 983.907 609.509 C 986.521 606.521, 989.207 602.252, 989.875 600.022 C 990.544 597.792, 992.420 594.452, 994.045 592.601 C 996.394 589.926, 997 588.301, 997 584.677 C 997 582.170, 996.549 579.839, 995.997 579.498 C 995.327 579.084, 995.327 578.257, 995.997 577.005 C 996.549 575.975, 997 572.906, 997 570.187 C 997 565.625, 996.766 565.146, 993.970 563.987 C 989.754 562.241, 966.428 563.122, 964.526 565.099 C 963.785 565.870, 962.723 569.512, 962.165 573.192 C 961.523 577.427, 960.205 581.277, 958.575 583.674 C 957.159 585.759, 956 588.620, 956 590.033 C 956 593.525, 949.348 603.400, 942.843 609.563 C 934.361 617.600, 926.831 621.596, 917.500 623.014 C 904.422 625.001, 886.873 622.839, 879.791 618.368 C 877.728 617.066, 875.740 616, 875.373 616 C 873.840 616, 864 608.792, 864 607.669 C 864 606.996, 862.763 605.241, 861.250 603.770 C 853.031 595.772, 849.495 587.017, 848.128 571.277 C 847.251 561.189, 845.957 560.062, 834.401 559.313 C 827.458 558.863, 825.219 559.043, 824.358 560.117 M 1035.291 562.524 C 1028.224 564.750, 1024.462 568.511, 1022.398 575.413 C 1020.470 581.864, 1015.963 589.882, 1013.486 591.268 C 1011.374 592.449, 1011.651 597.953, 1014 601.500 C 1016.648 605.499, 1016.513 608.737, 1013.457 614.484 C 1011.346 618.456, 1010.964 620.370, 1011.207 625.779 C 1011.538 633.134, 1011.598 633.196, 1020.247 635.072 C 1024.839 636.068, 1026.850 636.067, 1030.247 635.069 C 1035.694 633.470, 1048.425 623.804, 1051.855 618.664 C 1055.454 613.272, 1055.407 613.353, 1059.145 606 C 1062.309 599.776, 1062.450 599.011, 1062.475 588 L 1062.500 576.500 1058.141 570.219 C 1055.744 566.765, 1052.504 563.278, 1050.941 562.469 C 1047.515 560.698, 1041.017 560.720, 1035.291 562.524 M 291.500 565.953 C 284.360 567.734, 274.500 574.010, 274.500 576.775 C 274.500 577.752, 277.579 580.246, 282.130 582.956 C 286.327 585.455, 292.924 590.450, 296.791 594.055 C 306.120 602.753, 308.394 603.400, 321.369 601.052 C 326.941 600.043, 332.923 599.439, 334.661 599.710 C 337.247 600.112, 338.129 599.732, 339.510 597.625 C 341.016 595.327, 341.052 594.481, 339.849 589.775 C 338.390 584.070, 333.485 576.122, 330.410 574.480 C 329.360 573.918, 326.492 572.165, 324.038 570.583 C 321.584 569.001, 317.309 567.103, 314.538 566.365 C 309.178 564.938, 296.481 564.711, 291.500 565.953 M 234.500 595.018 C 232.850 596.120, 228.350 597.967, 224.500 599.122 C 214.713 602.057, 212.111 603.510, 207.223 608.765 C 202.482 613.864, 201.148 617.268, 203.011 619.513 C 204.344 621.119, 208.550 621.536, 209.409 620.148 C 209.699 619.679, 212.926 619.016, 216.582 618.675 C 221.986 618.170, 224.037 618.423, 227.559 620.027 C 229.941 621.112, 232.493 622, 233.230 622 C 234.902 622, 238 616.891, 238 614.133 C 238 612.037, 241.326 601.927, 243.061 598.750 C 244.323 596.439, 242.195 592.998, 239.509 593.007 C 238.404 593.010, 236.150 593.915, 234.500 595.018 M 261.783 599.750 C 259.312 602.583, 258 605.676, 257.994 608.684 C 257.990 610.233, 257.315 612.789, 256.494 614.364 C 254.532 618.125, 254.608 619.336, 256.939 621.445 C 258.687 623.027, 259.089 623.051, 261.030 621.691 C 262.215 620.862, 263.843 619.242, 264.648 618.092 C 265.454 616.941, 266.531 616, 267.042 616 C 267.552 616, 270.164 614.650, 272.846 613 C 275.527 611.350, 279.058 610, 280.692 610 C 282.838 610, 284.034 609.305, 285.002 607.496 C 286.199 605.259, 286.107 604.743, 284.135 602.644 C 279.823 598.054, 264.943 596.128, 261.783 599.750 M 373.108 617.637 C 371.099 619.044, 370.852 619.852, 371.350 623.387 C 373.064 635.564, 374.727 639.285, 383.913 651.500 C 385.567 653.700, 387.552 656.850, 388.323 658.500 C 391.399 665.086, 398.680 667.768, 404.837 664.584 L 408 662.949 408 652.533 C 408 646.805, 407.610 641.877, 407.134 641.583 C 406.658 641.289, 406.474 639.969, 406.727 638.650 C 407.613 634.014, 396.402 620.321, 389.282 617.345 C 384.776 615.461, 375.987 615.620, 373.108 617.637 M 325.200 618.200 C 323.150 620.250, 323.754 624.800, 326.250 626.109 C 327.488 626.758, 330.177 628.788, 332.228 630.622 C 336.606 634.536, 338.685 634.194, 339.583 629.410 C 340.994 621.886, 337.497 617, 330.700 617 C 328.335 617, 325.860 617.540, 325.200 618.200 M 359.667 623.667 C 358.399 624.934, 359.008 626, 361 626 C 362.111 626, 363 625.333, 363 624.500 C 363 622.978, 360.885 622.449, 359.667 623.667 M 290.643 629.028 C 289.071 629.499, 287.046 630.553, 286.143 631.371 C 285.239 632.189, 284.171 632.909, 283.768 632.972 C 283.366 633.035, 281.468 633.742, 279.550 634.543 C 277.633 635.345, 275.465 636, 274.732 636 C 272.841 636, 271 638.083, 271 640.221 C 271 641.223, 273.475 644.598, 276.500 647.721 C 279.525 650.844, 282 653.671, 282 654.004 C 282 654.336, 283.551 656.111, 285.447 657.949 L 288.894 661.290 292.375 658.395 C 296.230 655.189, 296.724 652.912, 294.494 648.636 C 292.285 644.400, 292.627 642.753, 296.500 639 C 300.530 635.094, 300.976 631.797, 297.777 629.557 C 295.315 627.832, 294.769 627.792, 290.643 629.028 M 207.826 639.150 C 203.172 640.433, 202.644 641.883, 205.092 646.664 C 206.977 650.347, 208.245 654.283, 209.490 660.315 C 210.436 664.899, 213.840 663.492, 218.404 656.631 C 220.551 653.403, 224.022 649.578, 226.116 648.131 C 228.900 646.208, 229.934 644.776, 229.962 642.809 C 229.983 641.329, 229.662 639.921, 229.250 639.680 C 227.456 638.631, 211.167 638.229, 207.826 639.150 M 171.815 653.201 C 161.831 662.852, 160.630 665.306, 160.598 676.127 C 160.574 683.980, 160.830 685.144, 163.449 689.103 C 167.109 694.633, 175.797 702.855, 178.815 703.644 C 180.490 704.082, 181.887 703.524, 183.870 701.625 C 185.581 699.986, 187.734 699, 189.605 699 C 193.801 699, 194.993 697.367, 195.044 691.550 C 195.068 688.773, 195.722 684.720, 196.497 682.544 C 197.724 679.099, 197.709 677.937, 196.380 673.544 C 195.541 670.770, 194.187 667.375, 193.372 666 C 190.474 661.109, 188.979 656.967, 188.236 651.769 L 187.482 646.500 183.424 646.201 C 179.593 645.920, 178.944 646.311, 171.815 653.201 M 790.882 649.882 C 787.254 653.511, 787 654.149, 787 659.639 C 787 667.577, 788.347 671.727, 792.233 675.763 C 794.865 678.497, 800.017 681.694, 803 682.445 C 803.275 682.514, 804.431 683.090, 805.569 683.724 C 807.395 684.741, 808.318 684.227, 813.456 679.330 C 818.842 674.195, 819.543 673.827, 822.887 674.380 C 824.874 674.709, 829.337 674.983, 832.805 674.989 L 839.110 675 841.518 680.445 C 842.843 683.440, 844.813 686.365, 845.897 686.945 C 848.560 688.370, 861.870 688.203, 865.087 686.705 C 866.510 686.042, 869.435 683.520, 871.587 681.099 C 875.418 676.791, 875.499 676.540, 875.466 669.099 C 875.436 662.184, 875.140 661.078, 872.184 656.807 C 869.080 652.324, 865.619 650.032, 864.175 651.505 C 863.804 651.883, 863.500 654.497, 863.500 657.313 C 863.500 662.431, 863.496 662.438, 857.158 667.243 L 850.817 672.051 832.220 671.710 C 819.044 671.468, 813.508 671.023, 813.228 670.184 C 813.011 669.533, 812.189 669, 811.401 669 C 808.678 669, 799.184 661.857, 797.951 658.881 C 796.920 656.393, 797.015 655.294, 798.550 651.889 C 800.111 648.428, 800.166 647.718, 798.936 646.939 C 796.411 645.342, 794.854 645.911, 790.882 649.882 M 814.250 648.662 C 813.563 648.940, 813 650.246, 813 651.564 C 813 654.753, 814.503 655.048, 831.973 655.295 C 844.621 655.474, 846.487 655.296, 846.772 653.879 C 847.428 650.606, 820.241 646.245, 814.250 648.662 M 351.073 652.635 C 349.933 654.084, 349 656.514, 349 658.034 C 349 659.560, 347.377 663.197, 345.378 666.150 C 340.706 673.052, 340.407 678.233, 344.479 681.735 C 349.248 685.838, 351.663 683.589, 351.900 674.823 C 351.974 672.103, 352.693 670.600, 354.662 669.051 C 359.253 665.440, 361.323 665.501, 367.014 669.416 C 369.880 671.387, 372.654 673, 373.178 673 C 375.525 673, 378 670.731, 378 668.580 C 378 665.642, 375.227 663.785, 367.500 661.548 C 360.097 659.405, 359.278 658.746, 357.969 653.884 C 356.706 649.195, 354.144 648.731, 351.073 652.635 M 246.557 653.223 C 245.701 654.445, 245 655.932, 245 656.528 C 245 657.124, 243.839 659.161, 242.421 661.056 C 241.003 662.950, 238.774 666.580, 237.469 669.121 L 235.097 673.742 237.517 676.016 C 239.823 678.182, 240.426 678.258, 250.219 677.610 C 261.652 676.853, 266.535 675.653, 267.404 673.388 C 268.108 671.554, 265.975 667.192, 263.102 664.593 C 261.946 663.546, 261 662.281, 261 661.781 C 261 661.280, 259.087 658.650, 256.750 655.936 C 252.032 650.458, 249.049 649.664, 246.557 653.223 M 468.565 653.928 C 465.076 657.784, 470.143 663.970, 481.500 669.718 C 498.656 678.402, 504.179 681, 505.484 681 C 506.253 681, 507.165 681.457, 507.510 682.016 C 507.856 682.575, 508.540 682.784, 509.032 682.480 C 509.523 682.176, 511.733 683.069, 513.943 684.464 C 516.152 685.859, 518.403 687, 518.945 687 C 520.699 687, 522.150 691.039, 521.485 694.067 C 520.526 698.434, 518.066 699.268, 508.495 698.471 L 500.167 697.777 498.583 700.839 C 495.188 707.405, 496.925 710.353, 504.258 710.466 C 507.582 710.517, 510.682 711.217, 512.313 712.286 C 515.262 714.218, 519.327 721.680, 517.908 722.557 C 517.409 722.865, 517 724.400, 517 725.967 C 517 729.600, 523.594 736.528, 530.360 740.003 C 536.054 742.928, 539.670 748.194, 538.684 752.124 C 537.810 755.604, 531.281 758.664, 528.500 756.896 C 527.950 756.547, 525.700 755.704, 523.500 755.023 C 521.300 754.342, 517.925 752.773, 516 751.535 C 510.618 748.075, 505.955 745.319, 500.750 742.520 L 496 739.966 496 733.431 C 496 727.114, 495.903 726.862, 493.090 725.882 C 490.360 724.930, 485 718.629, 485 716.371 C 485 714.432, 480.273 710.914, 477.390 710.707 C 474.832 710.524, 474.465 710.859, 474.196 713.620 C 473.881 716.863, 473.843 716.827, 483.953 723.074 C 487.221 725.094, 487.819 730.465, 485.155 733.877 C 483.417 736.103, 483.058 736.174, 479.483 734.995 C 476.078 733.871, 475.523 733.931, 474.333 735.559 C 472.265 738.388, 472.619 739.192, 478.491 744.991 C 481.511 747.974, 484.494 752.007, 485.121 753.957 C 486.661 758.746, 487.601 759.753, 491.281 760.562 C 494.629 761.297, 500.889 764.962, 505 768.595 C 508.386 771.587, 516.257 774.099, 519.940 773.362 C 527.457 771.859, 534.219 775.680, 537.901 783.512 C 540.256 788.522, 553.596 805.269, 564.660 817.104 C 584.966 838.824, 600.295 850.479, 614.500 854.997 C 616.700 855.697, 620.323 857.325, 622.552 858.614 C 630.216 863.047, 654.987 862.730, 665.443 858.064 C 667.674 857.068, 671.975 855.709, 675 855.044 C 683.844 853.099, 693.354 849.869, 695.340 848.134 C 696.793 846.865, 697.047 845.694, 696.546 842.563 C 696.198 840.383, 695.466 838.062, 694.921 837.405 C 694.376 836.748, 694.017 835.826, 694.124 835.355 C 694.230 834.885, 694.052 833.825, 693.727 833 C 693.402 832.175, 692.158 828.350, 690.963 824.500 C 686.755 810.949, 683.672 802.426, 680.346 795.146 C 678.498 791.101, 676.696 786.601, 676.343 785.146 C 675.514 781.737, 668.467 769.170, 665.747 766.250 C 660.693 760.824, 652.149 766.593, 654.459 773.872 C 655.361 776.712, 652.476 779, 647.997 779 C 644.652 779, 643.493 778.320, 639.318 773.904 C 633.670 767.931, 615.047 755.023, 603.500 749.078 C 601.300 747.945, 596.350 744.783, 592.500 742.050 C 588.650 739.318, 583.704 736.276, 581.508 735.291 C 579.313 734.306, 576.790 732.825, 575.902 732 C 575.014 731.175, 572.874 729.380, 571.145 728.012 C 569.161 726.441, 567.398 723.677, 566.361 720.512 C 564.038 713.420, 557.977 701, 556.839 701 C 556.312 701, 556.160 700.550, 556.500 700 C 556.840 699.450, 556.641 699, 556.059 699 C 555.477 699, 555 698.502, 555 697.894 C 555 696.832, 553.179 694.320, 547.250 687.197 C 543.003 682.096, 534.873 677.307, 524.858 674.006 C 519.841 672.353, 514.970 671, 514.034 671 C 513.099 671, 511.996 670.663, 511.583 670.250 C 511.171 669.837, 510.533 669.479, 510.167 669.453 C 509.800 669.427, 507.250 668.248, 504.500 666.832 C 501.750 665.417, 498.375 663.930, 497 663.529 C 492.818 662.307, 483.728 657.742, 479.600 654.789 C 475.044 651.531, 471.019 651.216, 468.565 653.928 M 312.662 670.456 C 311.651 671.222, 310.981 672.670, 311.172 673.674 C 311.660 676.242, 321.044 676.857, 323.040 674.452 C 324.219 673.031, 324.074 672.560, 321.951 670.928 C 319.059 668.705, 315.229 668.511, 312.662 670.456 M 274.958 683.551 C 273.981 684.728, 273.902 685.621, 274.667 686.834 C 276.373 689.538, 278.500 688.844, 278.500 685.583 C 278.500 682.180, 276.871 681.245, 274.958 683.551 M 213.094 689.387 C 211.532 691.269, 213.494 697.592, 215.930 698.526 C 218.918 699.673, 222.193 693.423, 220.225 690.329 C 218.936 688.303, 214.481 687.715, 213.094 689.387 M 392.256 688.975 C 390.472 689.398, 388.447 690.208, 387.756 690.775 C 387.065 691.341, 384.700 692.306, 382.500 692.918 C 380.300 693.531, 377.600 694.729, 376.500 695.581 C 374.514 697.119, 374.517 697.144, 376.861 699.065 C 378.159 700.129, 380.184 701.002, 381.361 701.004 C 382.537 701.006, 384.973 701.906, 386.774 703.004 C 394.091 707.465, 399.040 704.567, 399.802 695.376 C 400.403 688.133, 399.397 687.280, 392.256 688.975 M 480.655 693.829 C 478.176 696.568, 478.546 699, 481.441 699 C 484.465 699, 485.247 697.832, 484.422 694.546 C 483.663 691.523, 482.877 691.373, 480.655 693.829 M 304.557 695.223 C 303.701 696.445, 303 697.959, 303 698.588 C 303 701.189, 298.789 704.946, 295.207 705.540 C 290.651 706.296, 285.229 708.960, 284.528 710.786 C 283.836 712.592, 285.574 715.702, 288.002 717.001 C 290.722 718.457, 294.385 717.319, 297.220 714.137 C 298.539 712.657, 301.509 710.822, 303.820 710.059 C 307.763 708.758, 308.165 708.806, 310.326 710.836 C 313.568 713.883, 314.457 713.580, 316.455 708.750 C 319.247 702.004, 319.055 700.173, 315.430 698.977 C 313.705 698.408, 311.249 696.830, 309.973 695.471 C 307.123 692.437, 306.527 692.410, 304.557 695.223 M 242.750 699.080 C 240.245 700.539, 240.592 702.859, 243.421 703.570 C 248.612 704.872, 251.483 702.626, 248.473 699.616 C 246.622 697.765, 245.232 697.635, 242.750 699.080 M 340.305 713.499 C 335.878 716.600, 333.896 721.401, 334.032 728.695 C 334.102 732.438, 333.846 737.465, 333.464 739.866 L 332.768 744.232 336.634 743.709 C 359.808 740.574, 359.577 740.734, 358.530 728.506 C 357.950 721.729, 357.435 720.064, 355.173 717.661 C 350.018 712.185, 344.419 710.618, 340.305 713.499 M 188.484 721.148 C 182.224 726.645, 180.526 732.249, 183.423 737.852 C 186.067 742.964, 199.874 754, 203.626 754 C 206.071 754, 208 751.423, 208 748.158 C 208 747.073, 209.160 743.948, 210.579 741.214 C 211.997 738.480, 213.402 734.419, 213.701 732.190 C 214.212 728.381, 213.944 727.831, 209.256 723.068 C 204.343 718.077, 204.175 718, 198.168 718 C 192.754 718, 191.667 718.353, 188.484 721.148 M 936.479 726.023 C 935.472 727.136, 932.140 728.742, 929.074 729.592 C 926.008 730.442, 922.825 731.405, 922 731.732 C 921.175 732.059, 920.275 732.406, 920 732.503 C 919.725 732.599, 917.289 733.704, 914.586 734.958 C 910.978 736.633, 907.524 737.302, 901.586 737.476 C 895.375 737.658, 892.688 738.210, 890 739.853 C 887.077 741.640, 884.944 741.993, 877.060 741.996 C 867.649 742, 857.058 743.414, 853.764 745.108 C 851.496 746.273, 848.644 746.244, 847.443 745.043 C 846.917 744.517, 841.765 743.630, 835.993 743.072 C 830.222 742.513, 823.140 741.184, 820.255 740.116 C 817.370 739.049, 814.777 738.552, 814.493 739.011 C 813.711 740.277, 817.939 746.897, 820.355 748.190 C 821.525 748.816, 825.459 751.493, 829.096 754.139 C 841.959 763.495, 863.333 766.209, 886.500 761.430 C 890.900 760.522, 895.625 759.171, 897 758.427 C 898.375 757.683, 902.956 755.477, 907.180 753.525 C 911.404 751.572, 918.558 747.168, 923.078 743.738 C 927.598 740.307, 932.306 736.936, 933.540 736.247 C 934.775 735.558, 936.047 733.948, 936.368 732.668 C 936.689 731.389, 938.088 729.825, 939.476 729.193 C 942.480 727.824, 942.980 724, 940.155 724 C 939.140 724, 937.486 724.910, 936.479 726.023 M 301.098 726.382 C 300.097 727.588, 300.254 728.254, 301.933 729.933 C 303.070 731.070, 304.364 732, 304.809 732 C 306.721 732, 309.188 729.212, 308.851 727.434 C 308.384 724.975, 302.885 724.228, 301.098 726.382 M 246.564 729.329 C 244.484 730.850, 244.631 732.616, 247.699 743 C 250.866 753.716, 252.005 755.464, 256.007 755.747 C 260.399 756.058, 263.425 753.497, 267.895 745.684 C 271.475 739.426, 271.401 737.483, 267.526 736.010 C 266.137 735.482, 265 734.625, 265 734.106 C 265 730.623, 250.081 726.758, 246.564 729.329 M 395.290 736 C 395.002 737.100, 394.236 738, 393.586 738 C 391.786 738, 385.450 745.115, 384.236 748.500 C 383.644 750.150, 382.880 756.400, 382.539 762.389 C 382.139 769.423, 381.402 774.015, 380.459 775.361 C 378.229 778.545, 378.581 783.705, 381.120 785.064 C 383.554 786.367, 399 784.335, 399 782.713 C 399 782.203, 399.675 782.045, 400.500 782.362 C 401.325 782.678, 402 782.501, 402 781.969 C 402 781.436, 402.563 780.998, 403.250 780.995 C 405.703 780.986, 411.839 774.242, 412.913 770.376 C 416.119 758.827, 412.164 746.545, 401.922 736.250 C 399.139 733.453, 395.987 733.335, 395.290 736 M 286.406 744.428 C 283.403 746.531, 281.379 753.342, 282.818 756.501 C 283.761 758.569, 284.657 759, 288.014 759 C 293.440 759, 298.946 755.553, 298.985 752.132 C 299.005 750.348, 291.647 743, 289.840 743 C 289.073 743, 287.528 743.643, 286.406 744.428 M 226.950 746.561 C 226.237 747.419, 225.459 750.474, 225.221 753.350 C 224.736 759.198, 225.518 760.345, 230.751 761.464 C 235.036 762.380, 235.786 760.431, 233.544 754.212 C 230.119 744.715, 229.285 743.747, 226.950 746.561 M 365 756.769 C 365 757.411, 364.383 757.700, 363.629 757.411 C 362.875 757.122, 361.997 757.566, 361.678 758.397 C 360.893 760.443, 354.441 763.604, 349.308 764.458 C 343.731 765.387, 342.439 767.020, 345.057 769.831 C 346.168 771.024, 347.429 772, 347.857 772 C 348.286 772, 350.375 773.547, 352.500 775.437 C 356.757 779.224, 360.718 780.682, 362.342 779.058 C 362.920 778.480, 363.690 775.642, 364.051 772.753 C 364.412 769.864, 365.316 765.365, 366.060 762.756 C 367.115 759.053, 367.147 757.747, 366.206 756.806 C 365.307 755.907, 365 755.898, 365 756.769 M 290 778.124 C 288.625 778.672, 283.780 779.004, 279.234 778.862 C 272.559 778.653, 270.642 778.929, 269.273 780.299 C 267.679 781.892, 267.845 782.269, 272.039 786.589 C 277.309 792.016, 288.133 800, 290.222 800 C 293.070 800, 295.219 796.057, 296.550 788.388 C 298.402 777.728, 296.899 775.373, 290 778.124 M 319.813 778.932 C 316.741 781.349, 311.717 796.955, 312.183 802.633 C 312.450 805.893, 312.893 806.554, 315 806.846 C 316.375 807.036, 318.063 807.654, 318.750 808.218 C 319.584 808.903, 320.416 808.913, 321.250 808.247 C 321.938 807.698, 325.894 807.041, 330.043 806.788 C 340.628 806.141, 350 800.495, 350 794.763 C 350 792.823, 344.267 787.077, 342.283 787.029 C 341.614 787.013, 339.583 785.516, 337.770 783.703 C 334.457 780.390, 327.551 777, 324.115 777 C 323.100 777, 321.164 777.870, 319.813 778.932 M 215.769 780.777 C 215.003 783.705, 216.807 795.772, 218.376 798.221 C 219.180 799.474, 220.358 802.525, 220.996 805 C 223.129 813.286, 230.219 821.906, 238.948 826.826 C 244.953 830.211, 258.601 831.054, 267.135 828.567 C 272.970 826.867, 280.240 822.602, 283.563 818.931 C 285.444 816.852, 285.444 816.798, 283.546 815.410 C 282.485 814.634, 281.022 814, 280.294 814 C 277.529 814, 268.139 807.791, 262.612 802.308 C 259.448 799.169, 254.785 793.510, 252.251 789.732 C 245.072 779.033, 245.003 779, 229.482 779 C 217.628 779, 216.184 779.187, 215.769 780.777 M 411.657 814.055 C 409.326 815.889, 409 816.858, 409 821.950 C 409 829.350, 406.870 831.818, 403.809 827.968 C 399.223 822.197, 397.916 821, 396.207 821 C 395.213 821, 393.913 820.513, 393.318 819.918 C 392.205 818.805, 389.554 819.851, 385.750 822.905 C 383.812 824.461, 383.249 832, 385.071 832 C 385.661 832, 386.774 832.631, 387.545 833.403 C 389.468 835.325, 398.307 836.441, 400.847 835.082 C 403.806 833.498, 404.389 833.695, 406.295 836.923 C 411.810 846.258, 427 836.799, 427 824.030 C 427 819.685, 423.450 814.548, 419.706 813.474 C 418.493 813.126, 416.783 812.644, 415.907 812.403 C 415.031 812.162, 413.119 812.906, 411.657 814.055 M 156.123 814.002 C 150.097 815.425, 147.538 818.117, 147.193 823.396 C 146.921 827.570, 147.238 828.420, 150.049 831.046 C 154.224 834.946, 156.799 834.772, 161.845 830.250 C 169.219 823.641, 170.745 818.518, 166.365 815.073 C 163.595 812.894, 161.669 812.693, 156.123 814.002" stroke="none" fill="#171916" fill-rule="evenodd"/>
</svg>