<svg role="img" aria-labelledby="artwork-title" shape-rendering="geometricPrecision" xmlns="http://www.w3.org/2000/svg" width="1200" height="1200" viewBox="0 0 1200 1200" version="1.1">
	<title id="artwork-title">Mascot cleaning messy code</title>
	<path d="M 909 290.862 C 909 291.337, 906.413 292.028, 903.250 292.398 C 899.732 292.810, 896.053 294.028, 893.771 295.536 C 891.721 296.891, 889.694 298, 889.267 298 C 888.840 298, 886.243 300.236, 883.496 302.968 C 877.954 308.479, 877.158 308.781, 874.847 306.250 C 870.350 301.324, 866.417 298.659, 859.315 295.727 C 851.903 292.666, 850.879 292.506, 839.460 292.618 C 827.996 292.731, 827.086 292.896, 820.460 296.066 C 809.687 301.218, 800.133 310.340, 796.297 319.135 L 795.148 321.769 780.800 321.635 C 767.547 321.510, 766.244 321.663, 763.734 323.637 C 762.240 324.812, 759.545 326.050, 757.745 326.388 C 755.946 326.726, 753.629 328.126, 752.597 329.501 C 751.564 330.875, 750.082 332, 749.302 332 C 747.757 332, 739 340.440, 739 341.929 C 739 342.433, 737.673 344.173, 736.051 345.795 C 734.429 347.417, 732.829 350.039, 732.495 351.622 C 732.161 353.205, 731.013 356.425, 729.944 358.777 C 728.875 361.129, 728 365.041, 728 367.470 C 728 372.399, 725.611 374.985, 721.027 375.018 C 719.637 375.028, 716.475 376.408, 714 378.085 C 704.625 384.436, 698.967 391.072, 694.692 400.727 C 691.930 406.965, 691.685 408.449, 691.596 419.519 C 691.503 431.217, 691.589 431.719, 694.844 438.333 C 696.905 442.521, 699.112 445.550, 700.594 446.225 C 704.280 447.904, 703.965 453.708, 700 457.187 L 697 459.820 697 471.770 C 697 484.786, 697.414 485.959, 705.129 494.785 C 706.708 496.591, 708.034 498.391, 708.075 498.785 C 708.116 499.178, 708.228 504.016, 708.325 509.536 C 708.495 519.269, 708.598 519.690, 711.750 523.513 C 715.788 528.411, 715.942 531.459, 712.250 533.377 C 709.182 534.970, 706.312 538.544, 700.777 547.666 C 697.590 552.918, 696.860 555.255, 695.856 563.422 C 694.468 574.719, 696.025 590.773, 699.036 596.212 C 700.037 598.020, 701.941 601.750, 703.266 604.500 C 704.592 607.250, 706.424 610.118, 707.338 610.872 C 708.252 611.627, 709 612.595, 709 613.022 C 709 613.450, 710.575 615.375, 712.500 617.300 C 716.231 621.031, 716.382 621.671, 716.085 632.500 C 715.864 640.578, 719.693 656.741, 722.834 660.989 C 723.907 662.440, 726.837 667.649, 729.346 672.564 C 733.220 680.154, 735.848 683.499, 746.789 694.766 C 757.463 705.758, 760.426 708.250, 764.080 709.308 C 770.795 711.252, 770.562 716.073, 763.681 717.558 C 757.287 718.937, 742.159 728.430, 730.864 738.150 C 727.765 740.818, 724.826 743, 724.335 743 C 723.844 743, 721.112 745.475, 718.265 748.500 C 715.417 751.525, 712.684 754, 712.190 754 C 711.696 754, 708.564 756.813, 705.230 760.250 C 701.895 763.688, 697.330 768.015, 695.084 769.866 C 692.838 771.717, 691 773.755, 691 774.393 C 691 775.032, 689.763 776.728, 688.250 778.162 C 686.737 779.596, 684.920 781.496, 684.211 782.384 C 682.564 784.448, 679.449 784.458, 677.789 782.406 C 677.080 781.529, 675.375 779.686, 674 778.311 L 671.500 775.810 670.899 718.655 C 670.569 687.220, 670.119 602.100, 669.899 529.500 L 669.500 397.500 667.364 394 C 666.189 392.075, 664.904 389.432, 664.507 388.126 C 664.111 386.820, 662.281 384.429, 660.441 382.814 C 658.601 381.199, 656.846 379.091, 656.541 378.131 C 656.237 377.170, 652.539 374.611, 648.324 372.442 L 640.660 368.500 377.580 368.500 L 114.500 368.500 109.500 371.119 C 106.750 372.559, 103.263 374.237, 101.750 374.848 C 100.237 375.458, 99 376.604, 99 377.395 C 99 378.186, 98.614 378.983, 98.141 379.167 C 96.197 379.921, 88 387.397, 88 388.415 C 88 389.021, 86.763 391.762, 85.250 394.508 L 82.500 399.500 82.181 425 C 82.006 439.025, 81.443 450.928, 80.931 451.450 C 79.617 452.791, 79.685 579, 81 579 C 81.658 579, 82 606.147, 82 658.441 C 82 710.323, 81.653 738.096, 81 738.500 C 79.729 739.285, 79.617 825, 80.887 825 C 81.374 825, 81.981 831.188, 82.235 838.750 C 82.677 851.877, 82.847 852.794, 85.990 859 C 91.475 869.827, 98.559 876.039, 110.050 880.100 L 116.500 882.379 248 882.085 C 393.060 881.760, 450.011 880.533, 454.429 877.638 C 457.605 875.558, 457.623 874.837, 454.589 871.306 C 452.225 868.554, 451.913 868.488, 438.339 867.851 C 430.728 867.493, 417.750 866.650, 409.500 865.978 C 398.463 865.077, 358.142 864.808, 256.871 864.957 L 119.242 865.160 114.263 863.018 C 111.525 861.840, 107.668 859.217, 105.691 857.188 C 98.388 849.693, 98.955 866.064, 99.022 664.604 C 99.078 494.820, 99.191 483.140, 100.791 481.736 C 102.300 480.411, 132.060 480.227, 355.334 480.166 C 494.393 480.128, 610.144 479.801, 612.557 479.439 C 617.387 478.715, 622 474.982, 622 471.798 C 622 469.396, 620.464 466.464, 617.822 463.822 C 615.799 461.799, 615.300 461.794, 358.216 461.345 C 216.548 461.097, 100.269 460.667, 99.819 460.388 C 99.369 460.110, 99 448.290, 99 434.122 C 99 402.384, 99.430 400.350, 107.493 393.916 C 110.522 391.499, 113 389.224, 113 388.860 C 113 386.139, 128.968 385.951, 378.500 385.728 C 628.365 385.505, 634.584 385.546, 637.991 387.400 C 642.598 389.908, 649.874 397.616, 651.774 402 C 652.929 404.666, 653.242 408.835, 653.087 419.500 C 652.975 427.200, 653.430 439.232, 654.099 446.238 C 655.214 457.925, 655.166 459.305, 653.517 462.963 C 652.031 466.258, 651.861 468.126, 652.537 473.725 C 652.987 477.451, 653.356 482.075, 653.358 484 C 653.360 485.925, 653.745 524.850, 654.213 570.500 C 655.509 696.687, 655.630 763.999, 654.562 764 C 653.369 764, 647.016 759.703, 647.007 758.890 C 647.003 758.554, 645.871 756.616, 644.491 754.583 C 643.112 752.549, 641.510 748.774, 640.931 746.193 C 640.353 743.612, 639.072 740.601, 638.085 739.500 C 637.098 738.400, 635.300 735.690, 634.089 733.477 L 631.887 729.454 634.644 724.521 C 637.355 719.671, 638.352 716, 636.958 716 C 636.569 716, 635.973 714.613, 635.634 712.919 C 634.841 708.957, 632.980 706.606, 621.199 694.687 C 610.222 683.580, 603.912 679.484, 595.829 678.217 C 591.146 677.482, 589.690 676.721, 586.869 673.530 C 585.016 671.434, 582.716 668.134, 581.758 666.197 C 580.799 664.259, 579.337 661.925, 578.508 661.008 C 577.678 660.092, 577 659.016, 577 658.617 C 577 658.218, 575.652 656.453, 574.005 654.696 C 572.357 652.938, 571.007 651.022, 571.005 650.437 C 570.984 645.697, 549.883 635.021, 539 634.245 C 533.551 633.856, 531.611 634.189, 527 636.302 C 523.975 637.688, 519.713 639.156, 517.529 639.564 C 515.345 639.972, 511.295 641.295, 508.529 642.504 C 505.763 643.713, 502.349 644.982, 500.942 645.322 C 499.535 645.663, 496.610 646.715, 494.442 647.660 C 492.274 648.605, 490.275 649.443, 490 649.521 C 489.725 649.599, 487.475 650.571, 485 651.680 C 482.525 652.789, 478.700 654.276, 476.500 654.983 C 471.213 656.684, 464.759 660.407, 457.938 665.690 C 449.327 672.362, 446.681 676.521, 443.854 687.833 C 441.667 696.584, 441.524 705.482, 443.156 731.174 C 444.232 748.110, 444.174 750.764, 442.528 759.674 C 441.531 765.078, 440.301 770.029, 439.796 770.676 C 439.291 771.323, 438.977 772.448, 439.097 773.176 C 439.217 773.904, 439.065 775.175, 438.759 776 C 438.041 777.935, 435.431 788.745, 432.504 801.903 C 430.368 811.500, 430.298 812.724, 431.595 817.704 C 432.368 820.672, 433.655 824.366, 434.454 825.912 C 436.208 829.304, 447.174 839, 449.256 839 C 450.072 839, 453.611 839.938, 457.120 841.084 C 462.182 842.737, 465.123 843.065, 471.352 842.672 C 475.671 842.399, 480.446 842.608, 481.964 843.137 C 484.678 844.083, 487 847.561, 487 850.679 C 487 851.551, 487.944 853.791, 489.098 855.658 C 491.042 858.804, 491.081 859.228, 489.624 861.450 C 487.833 864.185, 486.766 864.578, 478.616 865.507 C 471.660 866.300, 468 869.193, 468 873.898 C 468 878.798, 470.867 880, 482.548 880 C 491.749 880, 492.835 880.201, 494.711 882.250 C 495.843 883.488, 497.065 885.473, 497.424 886.662 C 497.784 887.851, 500.199 890.536, 502.789 892.628 C 505.380 894.720, 507.725 896.709, 508 897.048 C 508.275 897.386, 511.425 898.135, 515 898.713 C 521.648 899.787, 533 898.601, 533 896.833 C 533 896.375, 533.873 896, 534.941 896 C 536.009 896, 537.183 895.513, 537.551 894.917 C 537.919 894.322, 540.083 892.970, 542.360 891.914 C 544.637 890.858, 549.650 887.750, 553.500 885.009 L 560.500 880.024 579.500 880.639 C 591.602 881.030, 601.874 880.835, 607.793 880.101 C 612.904 879.467, 617.703 879.298, 618.457 879.724 C 619.212 880.151, 623.952 884.325, 628.991 889 C 638.033 897.388, 649.843 906.459, 653.250 907.631 C 654.212 907.962, 655 908.608, 655 909.067 C 655 909.526, 670.104 909.898, 688.563 909.895 C 718.318 909.889, 722.449 909.696, 724.964 908.194 C 734.527 902.484, 737.799 900.795, 740.250 900.303 C 742.828 899.785, 743 899.967, 743 903.220 C 743 910.547, 731.005 909.973, 883.806 909.961 L 1020.986 909.951 1022.637 907.431 C 1024.014 905.330, 1024.178 903.336, 1023.624 895.455 L 1022.960 886 1028.421 886 C 1031.424 886, 1034.187 885.507, 1034.559 884.904 C 1034.932 884.302, 1036.758 883.986, 1038.618 884.204 C 1040.478 884.421, 1042 884.239, 1042 883.799 C 1042 883.360, 1043.463 882.997, 1045.250 882.994 C 1047.037 882.991, 1050.075 882.552, 1052 882.019 C 1053.925 881.485, 1060.607 880.601, 1066.848 880.055 C 1073.089 879.508, 1082.007 878.089, 1086.665 876.901 C 1098.562 873.866, 1099.985 874.593, 1100.042 883.729 C 1100.098 892.659, 1102.174 906.306, 1103.769 908.224 C 1105.736 910.590, 1115.754 910.327, 1117.067 907.876 C 1117.741 906.615, 1117.697 900.206, 1116.931 888.294 C 1115.807 870.821, 1115.820 870.565, 1117.896 868.883 C 1119.881 867.276, 1120 866.245, 1120 850.673 C 1120 840.038, 1119.627 834.042, 1118.950 833.817 C 1118.373 833.624, 1117.447 830.099, 1116.893 825.983 C 1116.338 821.868, 1114.786 815.274, 1113.442 811.332 C 1112.099 807.390, 1111 803.290, 1111 802.222 C 1111 801.153, 1109.810 798.529, 1108.355 796.390 C 1106.900 794.250, 1105.301 790.925, 1104.803 789 C 1103.696 784.727, 1098.224 773.241, 1095.990 770.500 C 1095.093 769.400, 1092.374 765.150, 1089.948 761.056 C 1085.190 753.028, 1063.022 729.761, 1057.500 727 C 1055.850 726.175, 1054.050 724.958, 1053.500 724.296 C 1052.221 722.756, 1035.376 714.370, 1031.750 713.467 C 1030.237 713.091, 1029 712.307, 1029 711.725 C 1029 711.143, 1028.721 710.945, 1028.381 711.286 C 1028.040 711.626, 1027.108 711.251, 1026.310 710.452 C 1025.511 709.654, 1023.960 709, 1022.864 709 C 1021.768 709, 1018.762 708.126, 1016.185 707.058 C 1011.038 704.925, 998.771 702.185, 992.500 701.767 C 986.977 701.398, 986.584 698.451, 991.485 694.148 C 993.456 692.416, 995.439 691, 995.891 691 C 997.006 691, 1004 680.123, 1004 678.389 C 1004 677.628, 1005.552 675.287, 1007.450 673.187 C 1009.347 671.087, 1012.398 666.473, 1014.229 662.934 L 1017.559 656.500 1028.213 656.304 C 1036.718 656.148, 1039.679 655.694, 1042.894 654.054 C 1045.108 652.924, 1047.588 652, 1048.405 652 C 1049.221 652, 1051.601 650.427, 1053.694 648.505 C 1055.787 646.582, 1058.059 645.007, 1058.742 645.005 C 1059.426 645.002, 1062.949 641.992, 1066.571 638.316 C 1074.477 630.293, 1080.400 618.854, 1081.492 609.500 C 1081.877 606.200, 1082.650 602.943, 1083.208 602.263 C 1083.767 601.582, 1083.968 600.359, 1083.656 599.545 C 1083.343 598.730, 1083.518 597.798, 1084.044 597.473 C 1085.260 596.721, 1085.304 586.306, 1084.094 585.558 C 1083.596 585.250, 1083.423 584.098, 1083.711 582.999 C 1083.998 581.900, 1083.797 581, 1083.264 581 C 1082.732 581, 1081.824 578.155, 1081.248 574.678 C 1080.598 570.758, 1078.992 566.392, 1077.020 563.187 C 1074.041 558.345, 1073.917 557.779, 1075.064 554.259 C 1075.738 552.191, 1077.350 549.228, 1078.645 547.673 C 1079.940 546.119, 1081 544.460, 1081 543.988 C 1081 543.516, 1081.525 541.863, 1082.166 540.315 C 1082.808 538.767, 1083.408 537.275, 1083.500 537 C 1083.592 536.725, 1084.192 535.233, 1084.834 533.685 C 1086.339 530.050, 1086.290 527.679, 1084.575 521.236 L 1083.173 515.971 1087.885 510.736 C 1095.488 502.287, 1098.793 496.501, 1099.570 490.285 C 1100.513 482.741, 1099.547 468.833, 1097.869 465.774 C 1094.753 460.094, 1090.704 454.727, 1087.034 451.412 L 1083.134 447.888 1085.294 444.225 C 1087.147 441.086, 1087.511 438.663, 1087.844 427.271 C 1088.278 412.407, 1087.213 406.230, 1083.441 401.748 C 1082.099 400.152, 1081 398.179, 1081 397.363 C 1081 395.100, 1066.386 381.029, 1062.726 379.767 C 1060.951 379.156, 1058.308 377.782, 1056.850 376.714 C 1055.004 375.361, 1052.578 374.774, 1048.850 374.778 C 1040.094 374.789, 1040.001 374.714, 1039.990 367.683 C 1039.983 363.208, 1039.292 360.022, 1037.490 356.151 C 1036.121 353.209, 1035 350.151, 1035 349.357 C 1035 348.563, 1033.848 346.695, 1032.441 345.206 C 1031.033 343.718, 1029.298 341.137, 1028.584 339.472 C 1026.959 335.676, 1017.635 327.195, 1014.129 326.324 C 1012.683 325.965, 1010.278 324.772, 1008.784 323.673 C 1005.382 321.169, 988.468 320.160, 980 321.955 C 976.975 322.596, 973.237 323.373, 971.694 323.682 C 968.221 324.377, 964.497 321.237, 963.626 316.878 C 963.297 315.237, 961.697 312.774, 960.068 311.404 C 958.439 310.033, 956.859 308.144, 956.556 307.206 C 956.253 306.268, 954.654 304.733, 953.003 303.797 C 951.351 302.860, 949.974 301.510, 949.942 300.797 C 949.855 298.850, 937.075 292.875, 931.703 292.270 C 929.116 291.978, 927 291.348, 927 290.870 C 927 290.391, 922.950 290, 918 290 C 913.050 290, 909 290.388, 909 290.862 M 908.598 308.165 C 907.553 308.772, 904.373 309.876, 901.533 310.617 C 896.414 311.954, 888 318.314, 888 320.846 C 888 323.030, 891.727 321.993, 895.982 318.626 C 898.756 316.431, 900.938 315.433, 902.226 315.769 C 903.314 316.054, 904.575 315.687, 905.028 314.955 C 906.208 313.046, 925.736 312.955, 926.909 314.853 C 927.366 315.592, 928.586 316.009, 929.620 315.779 C 930.683 315.543, 933.513 316.803, 936.134 318.681 C 938.683 320.506, 941.217 322, 941.765 322 C 942.314 322, 943.970 323.583, 945.446 325.519 C 948.064 328.950, 950 329.343, 950 326.441 C 950 324.816, 943.244 317.736, 940.076 316.041 C 938.934 315.430, 937.999 314.383, 937.998 313.715 C 937.995 311.933, 921.340 306.980, 915.500 307.024 C 912.750 307.044, 909.644 307.558, 908.598 308.165 M 821.784 313.983 C 813.059 321.907, 811.789 323.525, 812.221 326.161 C 812.591 328.418, 812.673 328.387, 814.543 325.298 C 815.609 323.537, 817.468 321.848, 818.674 321.546 C 819.880 321.243, 821.139 320.138, 821.471 319.090 C 821.981 317.485, 823.341 316.407, 826 315.503 C 832.626 313.248, 833.891 311, 828.534 311 C 826.089 311, 824.102 311.878, 821.784 313.983 M 852.500 313 C 852.840 313.550, 854.243 314, 855.618 314 C 857.030 314, 857.849 313.565, 857.500 313 C 857.160 312.450, 855.757 312, 854.382 312 C 852.970 312, 852.151 312.435, 852.500 313 M 981.250 338.648 C 980.013 338.918, 979 339.499, 979 339.939 C 979 340.380, 976.953 340.971, 974.451 341.253 C 971.948 341.535, 969.599 342.068, 969.230 342.437 C 967.956 343.711, 971.413 344.867, 974.453 344.184 C 978.480 343.280, 989.163 343.424, 995.907 344.474 C 1000.820 345.239, 1001.973 345.964, 1008.531 352.408 C 1012.500 356.309, 1016.047 360.472, 1016.413 361.660 C 1016.778 362.848, 1017.735 364.365, 1018.539 365.032 C 1020.978 367.057, 1020.373 359.743, 1017.750 355.497 C 1010.939 344.473, 1002.151 338.981, 990.500 338.466 C 986.650 338.296, 982.487 338.378, 981.250 338.648 M 771.570 339.887 C 771.269 340.374, 769.432 341.072, 767.487 341.436 C 762.636 342.346, 756.155 346.926, 750.807 353.224 C 747.029 357.671, 746.159 359.521, 745.266 365 C 744.684 368.575, 744.558 371.874, 744.986 372.332 C 746.258 373.693, 750.086 370.683, 749.859 368.500 C 749.331 363.416, 755.434 354.587, 763.892 348.199 C 767.647 345.364, 777.496 343.617, 785.056 344.446 C 788.111 344.781, 790.920 344.747, 791.297 344.370 C 792.635 343.031, 789.706 341, 786.437 341 C 784.611 341, 782.840 340.550, 782.500 340 C 781.736 338.764, 772.324 338.666, 771.570 339.887 M 1045.639 393.775 C 1045.302 394.320, 1047.210 395.705, 1049.879 396.852 C 1052.547 398, 1055.454 400.044, 1056.339 401.394 C 1057.223 402.744, 1058.866 404.140, 1059.990 404.497 C 1061.114 404.854, 1062.678 406.688, 1063.466 408.573 C 1064.254 410.458, 1065.371 412, 1065.949 412 C 1067.621 412, 1067.166 407.383, 1065.345 405.872 C 1064.435 405.118, 1063.079 403.038, 1062.332 401.250 C 1061.584 399.462, 1060.446 398, 1059.801 398 C 1059.156 398, 1057.695 397.122, 1056.553 396.050 C 1054.199 393.839, 1046.581 392.251, 1045.639 393.775 M 717.486 397.750 C 716.526 399.262, 714.637 401.689, 713.287 403.142 C 711.762 404.784, 710.959 406.677, 711.166 408.142 C 711.653 411.580, 714.237 411.025, 715.209 407.273 C 715.669 405.498, 716.888 403.595, 717.917 403.044 C 719.387 402.258, 722 397.334, 722 395.351 C 722 393.879, 718.894 395.530, 717.486 397.750 M 136.942 409.820 C 133.811 411.187, 128.201 418.515, 127.995 421.510 C 127.484 428.900, 128 430.984, 131 433.658 C 132.650 435.128, 134 436.876, 134 437.543 C 134 441.033, 142.651 443.614, 147.435 441.551 C 152.184 439.502, 159.022 431.837, 160.011 427.452 C 161.163 422.344, 159.491 418.598, 153.670 413.250 C 149.412 409.338, 148.626 409.006, 143.772 409.070 C 140.873 409.109, 137.799 409.446, 136.942 409.820 M 180.753 412.750 C 175.385 417.483, 175.164 417.798, 174.385 421.846 C 173.455 426.680, 175.474 432.248, 179.948 437.188 C 183.658 441.285, 184.124 441.497, 189.301 441.449 C 194.194 441.404, 195.075 441.048, 197.961 437.949 C 205.431 429.928, 206.635 427.509, 206.149 421.500 C 206.060 420.400, 203.811 417.137, 201.150 414.250 C 196.410 409.106, 196.197 409, 190.659 409 C 185.549 409, 184.597 409.360, 180.753 412.750 M 227.529 413.080 C 219.468 420.511, 219.054 428.998, 226.375 436.747 C 232.119 442.826, 236.854 443.494, 242.500 439.020 C 250.918 432.349, 253.136 424.427, 248.500 417.595 C 247.125 415.569, 246 413.487, 246 412.969 C 246 411.538, 239.194 409, 235.356 409 C 232.767 409, 230.898 409.974, 227.529 413.080 M 805.218 412.856 C 804.279 415.283, 798.331 422, 797.119 422 C 796.602 422, 795.120 423.258, 793.826 424.795 C 790.010 429.330, 778.868 434, 771.863 434 C 766.436 434, 765.870 434.211, 764.975 436.565 C 764.439 437.976, 763.993 440.563, 763.985 442.315 C 763.965 446.375, 763.592 446.925, 754.979 455.588 L 747.807 462.802 746.443 475.838 C 745.693 483.008, 744.340 490.590, 743.437 492.687 C 741.626 496.892, 739.592 524.864, 740.990 526.344 C 742.340 527.772, 745.448 526.606, 746.468 524.289 C 747.815 521.227, 753.378 520.695, 779.225 521.153 L 800.500 521.530 807.418 524.876 C 813.880 528.002, 817.075 530.743, 825.723 540.578 C 828.528 543.770, 829.304 544.140, 831.723 543.440 C 837.308 541.825, 849.258 542.625, 854.737 544.982 L 859.921 547.212 863.409 545.056 C 865.327 543.871, 867.154 542.091, 867.468 541.102 C 868.211 538.759, 874.095 534.143, 881 530.488 L 886.500 527.576 910.628 527.187 C 933.072 526.825, 935.071 526.938, 939.281 528.800 C 941.769 529.901, 946.212 531.502, 949.153 532.357 C 953.377 533.586, 956.051 535.391, 961.885 540.956 L 969.271 548 982.635 548.194 C 989.986 548.301, 997.462 548.414, 999.250 548.444 C 1002.169 548.494, 1002.531 548.184, 1002.803 545.390 C 1003.016 543.207, 1002.344 541.374, 1000.553 539.245 C 999.038 537.445, 998 534.972, 998 533.165 C 998 531.489, 997.550 529.840, 997 529.500 C 995.203 528.389, 995.858 517.670, 997.993 513.251 C 999.089 510.983, 1000.439 508.847, 1000.993 508.505 C 1002.887 507.334, 1001.998 506.105, 996.725 502.605 C 992.219 499.615, 984.603 491.274, 984.452 489.164 C 984.426 488.799, 983.415 486.925, 982.206 485 C 978.622 479.295, 978.802 468.437, 982.562 463.508 C 985.199 460.050, 985.752 457.013, 983.750 456.979 C 969.187 456.732, 965.189 456.253, 961.500 454.312 C 955.662 451.239, 944.630 442.163, 943.690 439.659 C 943.244 438.472, 942.017 436.582, 940.962 435.459 C 939.874 434.302, 938.705 431.054, 938.261 427.959 C 937.309 421.310, 935.413 420.608, 928.872 424.482 C 921.561 428.813, 918.533 429.891, 911.881 430.534 C 898.609 431.817, 887.384 427.247, 876.468 416.117 C 873.736 413.331, 870.886 411.040, 870.135 411.026 C 869.384 411.012, 867.359 412.490, 865.635 414.312 C 863.911 416.133, 859.575 418.946, 856 420.562 C 849.922 423.309, 848.689 423.500, 837 423.500 L 824.500 423.500 817.843 419.716 C 814.181 417.634, 810.458 414.822, 809.569 413.466 C 807.644 410.527, 806.197 410.324, 805.218 412.856 M 778 492.132 C 774.975 492.627, 771.366 493.861, 769.981 494.875 C 768.595 495.889, 766.509 497.021, 765.345 497.390 C 763.003 498.134, 758 504.753, 758 507.108 C 758 507.933, 759.537 510.098, 761.417 511.919 C 764.389 514.800, 765.506 515.231, 770.001 515.231 C 772.844 515.231, 775.557 514.841, 776.031 514.365 C 776.517 513.878, 782.675 513.905, 790.123 514.426 C 802.564 515.297, 803.565 515.230, 806.926 513.303 C 814.397 509.020, 814.539 502.214, 807.281 496.267 C 801.239 491.316, 791.454 489.934, 778 492.132 M 900.278 496.502 C 896.661 497.501, 893.800 499.200, 890.975 502.025 C 887.209 505.791, 886.918 506.467, 887.197 510.803 C 887.640 517.675, 890.726 518.989, 906.500 519.022 C 913.100 519.036, 920.075 519.469, 922 519.983 C 923.925 520.497, 927.975 521.620, 931 522.478 C 935.361 523.715, 937.527 523.820, 941.459 522.985 C 954.194 520.280, 952.689 511.415, 937.867 501.836 C 928.913 496.048, 911.080 493.518, 900.278 496.502 M 581.682 506.799 C 580.730 507.851, 579.485 511.589, 578.915 515.106 C 578.346 518.623, 577.377 522.625, 576.761 524 C 576.146 525.375, 575.573 526.725, 575.488 527 C 573.750 532.599, 567.837 540.334, 563.623 542.520 C 562.255 543.231, 559.642 544.130, 557.817 544.519 C 552.681 545.614, 546.302 548.769, 545.618 550.553 C 542.903 557.628, 547.463 563.091, 557.410 564.682 C 565.836 566.029, 571.892 572.011, 573.929 581 C 574.615 584.025, 575.811 587.918, 576.588 589.651 C 577.365 591.384, 578 593.259, 578 593.818 C 578 594.377, 578.884 596.896, 579.964 599.417 C 581.778 603.649, 582.205 604, 585.530 604 C 589.977 604, 592.990 602.480, 593.033 600.215 C 593.051 599.272, 593.979 596.025, 595.096 593 C 596.214 589.975, 597.731 585.146, 598.469 582.270 C 600.513 574.300, 610.519 564.022, 616.250 564.005 C 617.212 564.002, 618 563.550, 618 563 C 618 562.450, 618.900 562, 620 562 C 621.100 562, 622 561.602, 622 561.117 C 622 560.631, 622.854 560.010, 623.898 559.737 C 624.942 559.464, 626.546 558.096, 627.463 556.696 C 630.677 551.791, 625.546 546.084, 616.465 544.464 C 614.284 544.075, 611.081 542.902, 609.347 541.856 C 604.962 539.214, 599.186 532.596, 598.366 529.275 C 597.989 527.749, 596.890 524.925, 595.924 523 C 594.959 521.075, 593.861 517.118, 593.485 514.208 C 592.766 508.647, 591.156 506.787, 585.956 505.511 C 584.151 505.068, 582.910 505.442, 581.682 506.799 M 752.769 542.250 C 751.541 543.487, 749.657 544.950, 748.581 545.500 C 747.506 546.050, 746.220 548.075, 745.724 550 C 745.228 551.925, 743.962 554.305, 742.911 555.289 C 740.921 557.152, 740.299 562.449, 741.951 563.470 C 742.474 563.793, 743.459 562.200, 744.140 559.929 C 744.820 557.657, 746.371 555.147, 747.587 554.351 C 748.803 553.554, 750.336 551.603, 750.994 550.015 C 751.652 548.427, 753.719 546.087, 755.588 544.814 C 757.457 543.541, 758.989 541.938, 758.993 541.250 C 759.004 539.210, 755.173 539.826, 752.769 542.250 M 582.315 545.750 C 581.363 547.263, 579.215 549.702, 577.542 551.171 L 574.500 553.842 578.750 558.209 C 581.087 560.611, 583 563.136, 583 563.820 C 583 565.373, 586.824 566.859, 589.213 566.234 C 590.196 565.977, 591 565.126, 591 564.344 C 591 563.561, 592.800 561.156, 595 559 C 599.686 554.406, 599.900 553.443, 596.427 552.571 C 594.619 552.117, 593.268 550.599, 591.880 547.463 C 590.191 543.644, 589.484 543, 586.976 543 C 584.866 543, 583.562 543.770, 582.315 545.750 M 887.557 549.851 C 882.037 554.413, 875.780 563.494, 876.202 566.333 C 876.634 569.249, 878.835 569.544, 879.919 566.831 C 880.718 564.831, 886.916 557.622, 893.989 550.465 C 899.392 544.997, 894.048 544.488, 887.557 549.851 M 715.513 555.962 C 713.230 562.815, 712.912 565.218, 713.228 573.212 C 713.430 578.320, 714.405 585.425, 715.395 589 C 718.380 599.784, 719.980 599.767, 721.137 588.941 C 721.548 585.089, 722.549 580.605, 723.361 578.977 C 724.200 577.297, 724.441 575.772, 723.919 575.450 C 723.414 575.138, 723 569.704, 723 563.375 C 723 557.047, 722.534 550.998, 721.965 549.934 C 719.972 546.211, 718.212 547.855, 715.513 555.962 M 152.713 554.500 C 148.553 556.218, 147 558.123, 147 561.512 C 147 567.006, 149.608 569.105, 157.547 570 C 161.371 570.432, 185.200 570.721, 210.500 570.642 C 261.221 570.485, 259.973 570.641, 262.092 564.220 C 263.297 560.571, 261.743 557.003, 258.101 555.054 C 255.506 553.665, 156.002 553.142, 152.713 554.500 M 399 559.062 C 358.575 559.428, 323.840 560.068, 321.811 560.485 C 316.550 561.565, 313.787 564.843, 314.183 569.537 C 314.824 577.152, 312.314 576.831, 376 577.441 C 446.171 578.113, 483.204 577.225, 485.617 574.812 C 488.185 572.244, 488.661 563.891, 486.353 561.890 C 483.913 559.774, 478.354 557.950, 475.101 558.198 C 473.670 558.307, 439.425 558.695, 399 559.062 M 836.486 561.592 C 835.092 562.315, 833.752 562.815, 833.508 562.703 C 833.264 562.591, 832.215 563.228, 831.177 564.117 C 829.906 565.205, 829.063 567.724, 828.600 571.822 C 827.941 577.642, 823.616 587.894, 819.262 593.953 C 815.373 599.366, 803.019 610.648, 798.404 613 C 794.067 615.211, 791.998 615.540, 780.500 615.844 C 768.027 616.173, 757 614.856, 757 613.037 C 757 612.586, 755.290 611.533, 753.199 610.696 C 751.109 609.860, 746.844 606.661, 743.721 603.588 C 740.598 600.515, 737.599 598, 737.057 598 C 734.860 598, 734.216 602.006, 734.744 612.365 L 735.298 623.218 740.117 626.680 C 743.730 629.275, 745.094 630.983, 745.567 633.505 C 746.338 637.615, 748.535 639.725, 752.500 640.166 C 754.969 640.441, 755.904 641.347, 757.787 645.288 C 759.213 648.273, 761.096 650.520, 762.787 651.255 C 764.279 651.902, 766.869 653.442, 768.543 654.677 C 772.354 657.488, 775.790 656.829, 776.594 653.131 C 779.522 639.677, 790.710 626.687, 803.086 622.373 C 805.059 621.685, 809.192 619.970, 812.272 618.561 C 819.468 615.270, 822.267 615.337, 829 618.961 C 835.358 622.382, 838.083 622.613, 845.763 620.380 C 853.039 618.265, 859.482 619.062, 866.574 622.954 C 869.626 624.629, 873.558 626.003, 875.312 626.006 C 881.923 626.017, 885.694 627.936, 892.648 634.828 C 902.266 644.358, 903.505 646.383, 906.037 656.711 C 907.987 664.659, 908.595 665.932, 910.691 666.459 C 912.303 666.863, 913.947 666.400, 915.646 665.064 C 917.650 663.488, 919.098 663.189, 922.485 663.653 C 926.996 664.271, 933 661.838, 933 659.391 C 933 657.624, 935.484 657, 942.525 657 C 947.967 657, 949.112 656.678, 950.445 654.776 C 953.188 650.859, 960.152 646, 963.022 646 C 964.931 646, 966.525 645.014, 968.277 642.750 C 969.661 640.962, 973.991 636.244, 977.901 632.265 C 981.811 628.286, 984.935 624.686, 984.844 624.265 C 984.504 622.704, 987.165 617.562, 989.544 615.184 C 990.895 613.833, 992 611.944, 992 610.986 C 992 610.028, 992.675 608.685, 993.500 608 C 994.325 607.315, 995 605.550, 995 604.078 C 995 602.605, 995.540 600.860, 996.200 600.200 C 996.860 599.540, 997.047 599, 996.616 599 C 996.185 599, 997.185 597.292, 998.838 595.204 C 1001.733 591.550, 1001.857 590.974, 1002.172 579.756 C 1002.385 572.193, 1002.114 567.717, 1001.400 567.002 C 1000.606 566.207, 997.970 566.192, 991.926 566.950 C 987.321 567.528, 981.178 568, 978.276 568 C 971.013 568, 969 570.084, 969 577.605 C 969 581.479, 968.281 584.643, 966.669 587.855 C 965.387 590.410, 964.029 593.737, 963.650 595.250 C 963.272 596.763, 962.521 598, 961.983 598 C 961.444 598, 959.765 599.932, 958.252 602.293 C 951.865 612.257, 940.530 619.883, 928.967 621.996 C 925.410 622.646, 921.825 623.413, 921 623.700 C 915.852 625.493, 895.834 622.804, 885.539 618.938 C 875.353 615.112, 865.609 603.463, 860.496 589 C 860.399 588.725, 859.572 586.827, 858.660 584.782 C 857.650 582.520, 856.994 578.409, 856.985 574.282 C 856.976 570.552, 856.639 567.016, 856.235 566.425 C 853.570 562.525, 840.740 559.385, 836.486 561.592 M 1039.414 566.792 C 1031.516 571.163, 1026.639 578.136, 1024.483 588.140 C 1023.393 593.199, 1021.318 596.684, 1019.040 597.279 C 1016.088 598.051, 1016.328 603.430, 1019.500 607.589 C 1023.114 612.328, 1022.918 618.390, 1018.943 624.784 C 1015.426 630.443, 1015.642 633.880, 1019.684 636.529 C 1022.364 638.284, 1031.851 639.655, 1034.443 638.660 C 1035.311 638.327, 1036.354 637.987, 1036.760 637.903 C 1037.167 637.820, 1039.381 636.458, 1041.680 634.876 C 1043.979 633.294, 1046.229 631.994, 1046.680 631.988 C 1048.238 631.964, 1056 624.075, 1056 622.515 C 1056 621.655, 1057.083 620.539, 1058.407 620.035 C 1060.032 619.417, 1061.026 618.044, 1061.464 615.810 C 1061.821 613.989, 1063.251 610.168, 1064.642 607.317 C 1066.994 602.496, 1067.146 601.310, 1066.818 590.317 C 1066.485 579.197, 1066.289 578.227, 1063.482 573.873 C 1061.751 571.187, 1058.823 568.355, 1056.500 567.121 C 1051.601 564.517, 1043.796 564.367, 1039.414 566.792 M 342 598.695 C 326.325 598.867, 312.825 599.323, 312 599.709 C 311.175 600.096, 298.950 600.890, 284.834 601.475 C 261.985 602.421, 258.939 602.745, 257.084 604.424 C 252.994 608.125, 255.417 615.546, 261.686 618.521 C 265.244 620.209, 267.641 620.246, 303.480 619.166 C 324.391 618.536, 358.375 617.535, 379 616.941 C 399.625 616.348, 417.889 615.662, 419.588 615.417 C 424.374 614.725, 431 609.154, 431 605.821 C 431 602.150, 428.559 601, 420.766 601 C 417.006 601, 413.889 600.488, 413.151 599.750 C 411.791 598.388, 394.109 598.125, 342 598.695 M 148.128 633.345 C 147.514 634.085, 146.724 636.131, 146.372 637.891 C 145.913 640.186, 144.213 642.278, 140.366 645.283 C 137.415 647.588, 135 649.817, 135 650.237 C 135 650.657, 134.351 651, 133.559 651 C 131.707 651, 129.908 658.943, 131.338 660.808 C 131.890 661.527, 133.916 662.774, 135.840 663.578 C 137.765 664.382, 139.964 665.931, 140.727 667.020 C 141.489 668.109, 142.754 669, 143.538 669 C 144.321 669, 145.236 670.237, 145.571 671.750 C 147.642 681.103, 148.664 682.143, 154.883 681.230 C 158.176 680.747, 159.220 679.384, 160.418 674 C 160.930 671.701, 162.354 670.061, 171.760 660.931 C 173.553 659.191, 175.285 656.713, 175.608 655.425 C 176.381 652.345, 172.725 647.201, 168.511 645.440 C 165.225 644.067, 161.339 639.588, 159.238 634.750 C 158.194 632.348, 157.486 632, 153.644 632 C 151.178 632, 148.754 632.591, 148.128 633.345 M 804 649 C 802.900 650.100, 801.550 651, 801 651 C 800.450 651, 800 651.900, 800 653 C 800 654.100, 799.663 655, 799.250 655 C 797.941 654.999, 798.760 670.490, 800.258 674.076 C 803.177 681.061, 817.176 687.535, 821.179 683.750 C 829.081 676.279, 830.113 675.755, 835.408 676.525 C 838.208 676.932, 842.750 677.318, 845.500 677.383 L 850.500 677.500 853.112 682.981 C 856.158 689.372, 857.130 689.779, 868.257 689.314 C 875.926 688.993, 876.058 688.942, 879.747 684.859 C 885.759 678.203, 885.935 677.810, 885.968 670.904 C 886.004 663.531, 884.611 659.917, 880.049 655.547 C 876.490 652.137, 875.523 652.700, 875.436 658.228 C 875.364 662.834, 873.060 665.269, 864.661 669.618 C 859.964 672.051, 859.378 672.109, 844.661 671.616 C 826.104 670.995, 820.041 669.876, 813.916 665.946 C 808.141 662.240, 807.710 661.221, 808.561 653.274 C 809.138 647.886, 809.005 647, 807.616 647 C 806.727 647, 805.100 647.900, 804 649 M 531.326 652.003 C 529.031 652.480, 525.881 653.513, 524.326 654.299 C 522.772 655.086, 519.025 656.528, 516 657.504 C 510.617 659.240, 506.053 661.087, 497 665.192 C 494.525 666.314, 490.608 667.805, 488.296 668.505 C 483.247 670.032, 472.577 676.006, 468.720 679.463 C 467.191 680.834, 464.788 684.249, 463.380 687.052 C 460.186 693.410, 459.112 706.684, 459.781 731.500 C 460.283 750.126, 458.490 768.650, 454.947 781.434 C 453.876 785.298, 453 789.841, 453 791.530 C 453 793.218, 452.612 795.028, 452.138 795.550 C 450.104 797.791, 448.056 809.617, 449.067 813.280 C 450.027 816.757, 454.040 820.993, 456.385 821.006 C 456.998 821.010, 458.649 821.612, 460.053 822.345 C 462.944 823.853, 480.923 825.362, 482.588 824.236 C 484.591 822.880, 484.946 818.583, 483.516 813.018 C 482.736 809.983, 481.616 802.550, 481.028 796.500 C 479.783 783.694, 478.337 775.390, 476.818 772.322 C 476.225 771.124, 475.961 768.987, 476.231 767.572 C 476.501 766.157, 476.427 765, 476.066 765 C 475.704 765, 474.827 760.388, 474.117 754.750 C 473.406 749.112, 472.191 740.450, 471.416 735.500 C 469.245 721.621, 469.498 715.820, 472.396 713.098 C 475.817 709.884, 479.593 710.626, 483.320 715.244 C 486.158 718.762, 486.394 719.729, 487.227 731.244 C 487.714 737.985, 488.482 744.400, 488.932 745.500 C 491.326 751.348, 493.052 759.694, 493.924 769.633 C 494.946 781.270, 495.399 783.920, 497.492 790.500 C 498.192 792.700, 499.089 799.450, 499.485 805.500 C 499.881 811.550, 500.642 817.036, 501.176 817.690 C 501.709 818.345, 502.043 819.695, 501.917 820.690 C 501.791 821.686, 502.234 823.836, 502.902 825.468 C 503.570 827.101, 504.564 833.401, 505.110 839.468 C 505.657 845.536, 507.279 856.500, 508.716 863.834 C 511.014 875.566, 511.634 877.369, 513.877 878.834 C 517.092 880.936, 525.808 880.815, 531.917 878.584 C 535.880 877.137, 551.144 866.380, 556.633 861.166 C 559.208 858.721, 564.745 857.228, 571.500 857.159 C 574.250 857.130, 578.469 856.408, 580.876 855.554 C 583.282 854.699, 586.063 854, 587.054 854 C 592.382 854, 593.773 846.399, 589.059 843.042 C 587.442 841.890, 585.804 839.958, 585.420 838.748 C 585.036 837.538, 583.171 834.693, 581.276 832.426 C 578.565 829.183, 576.753 828.056, 572.771 827.137 C 569.988 826.494, 565.715 824.738, 563.275 823.234 C 557.243 819.517, 546.789 810.352, 545.218 807.405 C 544.513 806.082, 543.500 805, 542.968 805 C 541.283 805, 541.922 810.631, 543.891 813.134 C 544.930 814.456, 546.360 817.469, 547.067 819.830 C 547.958 822.802, 549.938 825.570, 553.506 828.831 C 559.368 834.189, 560.781 838.195, 558.626 843.352 C 555.513 850.803, 549.801 852.280, 545.185 846.827 C 542.555 843.720, 537.769 836, 538.472 836 C 538.668 836, 537.517 833.293, 535.914 829.984 C 534.311 826.675, 532.987 823.413, 532.970 822.734 C 532.917 820.567, 526.456 802.255, 525.218 800.762 C 522.728 797.762, 516.238 784.083, 515.545 780.373 C 515.147 778.243, 514.490 776.050, 514.086 775.500 C 510.680 770.870, 509.996 756.159, 512.960 751.299 C 515.048 747.873, 519.606 745, 522.950 745 C 526.710 745, 525.095 742.007, 517.126 734.207 C 512.795 729.968, 508.070 724.435, 506.626 721.912 C 503.351 716.190, 503.091 709.074, 505.973 703.984 C 507.058 702.068, 508.702 699, 509.626 697.167 C 510.550 695.334, 512.290 693.460, 513.492 693.003 C 514.694 692.546, 516.861 690.766, 518.308 689.046 C 521.416 685.352, 531.022 682.369, 543.044 681.365 C 551.126 680.690, 553.843 681.500, 560.683 686.618 C 564.970 689.826, 567.782 689.704, 569.094 686.253 C 570.155 683.462, 570.102 682.960, 567.904 675 C 565.930 667.847, 557.581 657.419, 551.555 654.577 C 545.717 651.824, 537.328 650.757, 531.326 652.003 M 822.168 652.297 C 819.998 654.913, 823.290 655.699, 839.627 656.467 C 852.993 657.096, 855.146 656.974, 858.127 655.422 L 861.500 653.665 858.500 652.766 C 856.850 652.271, 848.292 651.612, 839.483 651.300 C 825.713 650.813, 823.284 650.953, 822.168 652.297 M 380.343 662.057 C 379.627 662.773, 352.782 663.276, 296.893 663.618 C 251.577 663.896, 213.591 664.303, 212.480 664.523 C 206.290 665.748, 203.833 673.924, 208.310 678.401 L 210.620 680.710 279.060 681.390 C 316.702 681.764, 352.900 682.417, 359.500 682.840 C 372.777 683.692, 378.459 682.697, 382.962 678.734 C 387.152 675.046, 389.219 674.341, 393.500 675.139 C 400.058 676.362, 414.457 676.143, 415.800 674.800 C 416.460 674.140, 417 673.985, 417 674.455 C 417 674.925, 417.900 674.495, 419 673.500 C 421.774 670.990, 421.620 665.931, 418.686 663.174 C 416.491 661.113, 415.462 661, 398.886 661 C 387.937 661, 381.005 661.395, 380.343 662.057 M 588.250 692.662 C 584.217 694.290, 589.249 700.943, 597.207 704.504 C 601.569 706.456, 605.603 709.419, 610.353 714.160 C 614.123 717.922, 618.012 721, 618.996 721 C 622.640 721, 621.915 718.065, 616.966 712.782 C 614.245 709.877, 610.102 705.159, 607.760 702.299 C 605.417 699.438, 603.182 697.075, 602.794 697.049 C 602.406 697.022, 600.431 695.875, 598.405 694.500 C 594.964 692.165, 591.179 691.480, 588.250 692.662 M 539.056 698.433 C 538.093 699.593, 538.403 700.192, 540.683 701.576 C 542.232 702.517, 544.746 704.142, 546.268 705.187 C 547.790 706.232, 551.053 707.951, 553.518 709.008 C 555.983 710.064, 558 711.405, 558 711.986 C 558 712.567, 559.237 713.586, 560.750 714.249 C 562.263 714.912, 565.862 716.941, 568.750 718.758 C 573.588 721.802, 574 722.361, 574 725.876 C 574 730.753, 571.603 733, 566.399 733 C 563.083 733, 561.665 732.258, 557.478 728.333 C 549.108 720.487, 544.179 717.050, 539.926 716.095 C 536.513 715.328, 533.752 713.752, 531 711 C 530.346 710.346, 526.850 708.154, 525.213 707.372 C 523.218 706.420, 520 709.989, 520 713.155 C 520 717.273, 528.139 724.990, 538.592 730.782 C 539.864 731.487, 541.763 733.155, 542.813 734.489 C 543.862 735.823, 547.371 738.346, 550.610 740.097 C 558.535 744.380, 559.654 745.483, 560.336 749.683 C 561.159 754.757, 559.680 757, 555.512 757 C 552.028 757, 547 755.228, 547 754 C 547 752.551, 542.438 751.294, 540.194 752.124 C 537.934 752.960, 537.925 753.025, 539.694 755.409 C 540.688 756.747, 543.866 759.284, 546.758 761.048 C 549.649 762.811, 553.362 765.787, 555.008 767.661 C 557.655 770.677, 557.996 771.785, 557.968 777.285 C 557.935 783.679, 556.498 787, 553.762 787 C 551.106 787, 550.007 789.286, 551.598 791.503 C 555.018 796.270, 560.453 802, 561.556 802 C 562.216 802, 563.344 802.710, 564.065 803.578 C 565.269 805.029, 574.625 810.344, 576.167 810.453 C 576.533 810.479, 577.171 810.837, 577.583 811.250 C 577.996 811.663, 580.254 812, 582.602 812 C 584.949 812, 587.982 812.423, 589.341 812.940 C 592.239 814.041, 599 823.757, 599 826.819 C 599 827.980, 600.255 830.409, 601.790 832.215 C 603.324 834.022, 605.069 836.637, 605.667 838.027 C 606.265 839.417, 607.689 841.667, 608.832 843.027 C 609.975 844.387, 613.708 848.875, 617.127 853 C 625.856 863.530, 638.265 876.154, 646.500 882.881 C 652.600 887.864, 664.875 894.939, 667.579 895.031 C 668.086 895.049, 671.189 896.399, 674.475 898.031 C 679.342 900.450, 681.715 901, 687.277 901 C 694.473 901, 707.581 898.487, 708.548 896.922 C 708.862 896.415, 709.896 896, 710.848 896 C 712.525 896, 713.904 895.349, 724.500 889.558 C 744.287 878.743, 743.776 879.343, 744.183 866.424 C 744.490 856.652, 744.416 856.245, 741.698 852.924 C 734.316 843.902, 732 840.711, 732 839.560 C 732 838.873, 731.140 837.532, 730.090 836.581 C 729.039 835.631, 727.884 833.673, 727.522 832.231 C 727.160 830.789, 725.544 828.106, 723.932 826.270 C 722.319 824.433, 721 822.537, 721 822.056 C 721 821.216, 712.541 810.532, 705.751 802.796 C 702.687 799.305, 700.156 798.178, 698.685 799.649 C 698.328 800.005, 699.626 802.058, 701.570 804.209 C 704.711 807.686, 705.071 808.643, 704.802 812.803 C 704.541 816.853, 704.107 817.672, 701.583 818.877 C 697.330 820.907, 695.389 819.778, 683.749 808.500 C 670.328 795.496, 662.450 789, 660.102 789 C 659.656 789, 658.163 787.987, 656.784 786.750 C 655.405 785.513, 653.588 784.050, 652.746 783.500 C 637.489 773.527, 633.720 770.438, 631.003 765.682 C 629.413 762.897, 627.810 758.792, 627.443 756.559 C 627.075 754.327, 626.320 751.938, 625.764 751.250 C 625.209 750.563, 625.105 750, 625.533 750 C 625.960 750, 625.618 749.212, 624.771 748.250 C 623.925 747.288, 622.328 744.700, 621.223 742.500 C 620.117 740.300, 618.265 737.643, 617.106 736.595 C 615.948 735.547, 615 734.182, 615 733.561 C 615 731.804, 609.661 729.074, 604.203 728.039 C 600.838 727.400, 598.278 726.124, 596.204 724.050 C 594.526 722.372, 592.280 721, 591.212 721 C 590.144 721, 588.197 720.182, 586.885 719.183 C 585.573 718.183, 583.090 716.800, 581.367 716.110 C 579.645 715.420, 576.973 713.537, 575.430 711.927 C 573.888 710.317, 572.148 708.997, 571.563 708.994 C 570.978 708.990, 569.150 708.269, 567.500 707.390 C 565.850 706.512, 562.719 705.152, 560.543 704.368 C 558.366 703.584, 554.502 701.605, 551.955 699.971 C 546.896 696.725, 541.052 696.028, 539.056 698.433 M 205.500 724 C 205.117 724.620, 196.039 725, 181.590 725 C 167.231 725, 157.088 725.422, 155.143 726.100 C 151.568 727.346, 150.434 730.171, 151.414 735.394 C 152.490 741.127, 152.850 741.151, 233.940 740.897 C 273.848 740.773, 310.666 740.361, 315.758 739.983 C 327.048 739.145, 329.252 737.721, 328.798 731.559 C 328.549 728.182, 328.005 727.282, 325.500 726.102 C 323.850 725.325, 322.350 724.309, 322.167 723.845 C 321.692 722.643, 302.248 722.789, 301.500 724 C 301.111 724.630, 290.009 725, 271.500 725 C 252.991 725, 241.889 724.630, 241.500 724 C 241.126 723.395, 234.009 723, 223.500 723 C 212.991 723, 205.874 723.395, 205.500 724 M 946.479 725.024 C 945.495 726.111, 944.191 727, 943.580 727 C 942.970 727, 940.791 727.900, 938.739 729 C 936.686 730.100, 934.287 731, 933.408 731 C 932.528 731, 928.525 732.558, 924.513 734.462 C 918.543 737.295, 916.673 737.767, 914.211 737.060 C 912.556 736.586, 910.819 736.527, 910.351 736.930 C 909.883 737.333, 907.502 738.233, 905.059 738.929 C 902.616 739.625, 899.466 740.675, 898.059 741.261 C 896.652 741.848, 892.125 742.419, 888 742.530 C 883.875 742.641, 878.700 743.158, 876.500 743.679 C 874.167 744.231, 864.950 744.341, 854.384 743.942 C 837.961 743.322, 835.993 743.054, 833.329 741.085 C 830.174 738.753, 827 739.107, 827 741.791 C 827 745.844, 846.804 760, 852.475 760 C 853.314 760, 854 760.399, 854 760.887 C 854 761.375, 858.564 762.356, 864.142 763.067 C 872.305 764.107, 875.960 764.117, 882.871 763.118 C 887.594 762.435, 891.693 761.511, 891.979 761.064 C 892.266 760.617, 894.075 759.928, 896 759.534 C 908.995 756.871, 914.741 754.435, 927.134 746.336 C 930.783 743.951, 934.068 742, 934.433 742 C 935.660 742, 950 726.719, 950 725.411 C 950 723.160, 948.331 722.976, 946.479 725.024 M 359.612 742.876 C 358.678 743.908, 357.645 746.495, 357.315 748.626 C 355.801 758.400, 351.021 763.472, 341.432 765.479 C 332.501 767.347, 330.500 769.926, 332.961 776.398 C 333.837 778.701, 336.340 780.740, 345.366 786.500 C 350.678 789.890, 354.614 794.620, 356.987 800.468 C 359.376 806.355, 361.216 808, 365.411 808 C 368.214 808, 370.429 805.309, 371.586 800.500 C 372.564 796.436, 377.932 787, 379.267 787 C 379.858 787, 381.080 786.333, 381.980 785.518 C 382.881 784.703, 385.577 783, 387.972 781.733 C 393.860 778.620, 394.657 777.135, 393.146 772.093 C 392.472 769.842, 391.439 768, 390.851 768 C 390.264 768, 386.909 765.890, 383.396 763.311 C 376.825 758.486, 372 752.708, 372 749.664 C 372 748.714, 371.348 746.375, 370.551 744.468 C 369.249 741.352, 368.707 741, 365.206 741 C 362.666 741, 360.719 741.653, 359.612 742.876 M 529.015 771.250 C 529.030 776.684, 530.578 781.038, 532.750 781.754 C 534.294 782.264, 534.498 772.441, 533.025 768.565 C 531.241 763.874, 528.998 765.376, 529.015 771.250 M 359.208 775.676 C 358.216 776.074, 358.187 776.520, 359.081 777.597 C 361.142 780.081, 368.162 778.689, 366.569 776.112 C 365.872 774.984, 361.568 774.729, 359.208 775.676 M 150.819 777.536 C 149.344 778.337, 147.839 779.933, 147.474 781.083 C 146.421 784.398, 147.876 789.863, 150.132 791.071 C 151.539 791.824, 166.731 792.129, 198.815 792.049 C 249.262 791.924, 249.227 791.928, 250.574 786.560 C 251.483 782.941, 250.186 780.084, 246.661 777.935 C 243.661 776.106, 241.209 776.009, 198.500 776.044 C 161.050 776.074, 153.050 776.324, 150.819 777.536" stroke="none" fill="#171916" fill-rule="evenodd"/>
</svg>