<svg role="img" aria-labelledby="artwork-title" shape-rendering="geometricPrecision" xmlns="http://www.w3.org/2000/svg" width="1200" height="1200" viewBox="0 0 1200 1200" version="1.1">
	<title id="artwork-title">Mascot holding a reusable component</title>
	<path d="M 925.370 286.030 C 924.804 286.596, 920.776 287.775, 916.420 288.649 C 907.995 290.340, 902.395 293.181, 895.523 299.250 C 893.187 301.313, 890.279 303, 889.060 303 C 887.841 303, 885.092 301.313, 882.952 299.250 C 880.812 297.188, 877.732 294.482, 876.107 293.238 C 872.553 290.515, 859.399 287.037, 852.578 287.015 C 844.352 286.990, 830.846 289.921, 826.946 292.579 C 824.992 293.910, 822.879 295, 822.252 295 C 820.127 295, 808.192 307.887, 807.016 311.452 C 805.759 315.260, 801.781 319, 798.987 319 C 798.029 319, 795.629 318.325, 793.654 317.500 C 789.139 315.613, 782.654 315.583, 776.928 317.422 C 774.493 318.204, 770.860 319.116, 768.855 319.448 C 766.851 319.780, 763.526 321.390, 761.468 323.026 C 759.409 324.661, 757.357 326, 756.907 326 C 755.906 326, 746.352 335.663, 743.224 339.839 C 741.973 341.511, 740.236 344.585, 739.364 346.672 C 738.492 348.759, 736.928 351.547, 735.889 352.868 C 734.564 354.553, 734 356.890, 734 360.701 C 734 367.614, 731.031 373.425, 727.772 372.889 C 727.073 372.773, 725.233 373.201, 723.685 373.840 C 722.137 374.478, 720.481 375, 720.007 375 C 717.986 375, 705.543 388.744, 703.326 393.424 C 702.004 396.216, 699.927 399.770, 698.711 401.323 C 696.644 403.963, 696.500 405.166, 696.500 419.823 L 696.500 435.500 699.750 438.856 C 701.538 440.701, 703 443.085, 703 444.154 C 703 445.222, 704.125 447.138, 705.500 448.412 C 708.565 451.253, 708.572 451.531, 705.682 454.966 C 699.874 461.868, 700.093 486.694, 706.018 493.181 C 709.958 497.495, 711.202 502.691, 710.404 511.502 C 709.770 518.493, 709.898 519.247, 712.306 522.748 C 717.619 530.469, 717.755 536.031, 712.703 538.951 C 709.708 540.682, 703.010 549.671, 702.982 551.997 C 702.972 552.824, 701.661 555.421, 700.070 557.769 C 696.563 562.944, 695.340 573.568, 696.430 589.399 C 697.021 597.971, 697.562 600.239, 700.062 604.609 C 701.678 607.433, 703 610.303, 703 610.988 C 703 611.672, 704.575 614.378, 706.500 617 C 708.425 619.622, 710 622.240, 710 622.817 C 710 623.393, 710.859 624.138, 711.910 624.471 C 715.824 625.714, 716.498 627.877, 716.558 639.404 C 716.608 648.832, 717.041 651.763, 719.440 658.900 C 720.994 663.521, 723.276 668.792, 724.513 670.615 C 725.750 672.437, 727.061 675.922, 727.427 678.359 C 728.065 682.617, 731.552 688.105, 738 694.998 C 739.375 696.469, 742.750 700.326, 745.500 703.570 C 752.784 712.162, 760.889 719.616, 765.781 722.221 C 768.920 723.892, 769.987 725.033, 769.781 726.500 C 769.555 728.107, 768.517 728.608, 764.500 729.048 C 761.389 729.388, 758.031 730.616, 755.610 732.298 C 753.471 733.784, 751.131 735, 750.411 735 C 749.691 735, 743.391 738.825, 736.413 743.500 C 729.435 748.175, 723.391 752, 722.983 752 C 722.575 752, 720.431 753.688, 718.219 755.750 C 716.007 757.813, 712.015 760.837, 709.348 762.471 C 703.459 766.080, 693.821 773.306, 692.049 775.441 C 689.897 778.034, 685.480 777.359, 682.658 774.005 C 681.272 772.358, 679.832 769.996, 679.457 768.755 C 679.083 767.515, 677.660 765.512, 676.296 764.304 C 674.931 763.096, 674.108 761.634, 674.467 761.054 C 674.825 760.474, 674.641 760, 674.059 760 C 673.477 760, 673 759.462, 673 758.804 C 673 757.524, 668.765 750.835, 665.803 747.439 C 664.815 746.305, 662.627 742.705, 660.941 739.439 C 658.294 734.308, 657.751 731.877, 656.950 721.573 C 655.932 708.484, 655.708 707.347, 652.986 701.500 C 651.962 699.300, 650.364 695.700, 649.435 693.500 C 648.505 691.300, 647.169 688.825, 646.465 688 C 645.762 687.175, 644.682 684.606, 644.066 682.292 C 643.450 679.978, 642.490 677.803, 641.932 677.458 C 641.375 677.114, 639.756 674.957, 638.335 672.666 C 634.164 665.942, 619.617 652.266, 613.611 649.422 C 610.666 648.028, 607.411 646.111, 606.378 645.162 C 605.345 644.214, 602.700 642.888, 600.500 642.216 C 592.454 639.758, 591.653 638.454, 591.381 627.353 C 591.248 621.934, 590.632 594.133, 590.012 565.574 C 588.956 516.904, 588.764 513.478, 586.956 510.939 C 585.895 509.449, 584.169 506.228, 583.120 503.781 C 581.376 499.711, 568.899 486, 566.940 486 C 566.495 486, 564.863 485.475, 563.315 484.834 C 561.767 484.192, 560.275 483.618, 560 483.558 C 559.725 483.497, 558.169 482.560, 556.543 481.474 C 553.624 479.525, 551.548 479.505, 392.543 479.891 C 181.969 480.401, 122.847 481.050, 120.652 482.872 C 119.744 483.627, 119 483.910, 119 483.500 C 119 483.090, 118.438 483.202, 117.750 483.747 C 117.063 484.293, 114.700 485.054, 112.500 485.439 C 102.333 487.218, 90.425 499.567, 86.012 512.906 C 84.102 518.682, 83.081 520.467, 81.750 520.361 C 80.097 520.230, 80 524.545, 80 598.111 C 80 649.370, 80.342 676, 81 676 C 81.550 676, 82.073 674.538, 82.162 672.750 C 82.251 670.962, 82.688 672.875, 83.134 677 C 83.579 681.125, 84.197 709.925, 84.507 741 C 84.817 772.075, 85.537 800.425, 86.107 804 C 87.955 815.594, 96.827 827.233, 110.148 835.539 L 116.500 839.500 200.500 839.507 C 246.700 839.511, 344.800 839.256, 418.500 838.941 L 552.500 838.368 560.500 835.624 C 564.900 834.115, 569.175 832.119, 570 831.190 C 570.825 830.260, 572.750 828.941, 574.278 828.258 C 575.806 827.576, 577.317 826.338, 577.635 825.509 C 578.495 823.266, 581.747 823.683, 583.422 826.250 C 584.229 827.487, 585.362 830.618, 585.939 833.207 C 586.517 835.795, 588.341 840.046, 589.995 842.652 C 591.648 845.259, 593.010 848.091, 593.022 848.946 C 593.035 849.801, 594.375 853.200, 596 856.500 C 597.625 859.800, 598.965 863.028, 598.978 863.673 C 598.990 864.319, 600.074 866.122, 601.386 867.682 C 602.698 869.241, 604.498 872.088, 605.386 874.008 C 607.753 879.129, 612.174 886.216, 614.759 889.036 C 616.002 890.391, 619.101 893.862, 621.646 896.750 C 624.191 899.638, 626.887 902, 627.637 902 C 628.387 902, 629 902.635, 629 903.412 C 629 904.189, 631.813 906.776, 635.250 909.162 L 641.500 913.500 680.015 913.500 L 718.530 913.500 725.515 910.026 C 729.357 908.116, 733.490 905.697, 734.699 904.650 C 737.774 901.989, 740 903.149, 740 907.412 C 740 914.501, 729.492 914, 878.157 914 C 967.103 914, 1012.773 913.657, 1014.567 912.974 C 1017.084 912.017, 1017.224 911.653, 1016.658 907.520 C 1015.800 901.262, 1017.007 900.438, 1028.166 899.662 C 1033.300 899.305, 1041.775 898.364, 1047 897.571 C 1052.225 896.778, 1064.374 895.641, 1073.998 895.043 C 1094.703 893.758, 1094 893.418, 1094 904.723 C 1094 913.285, 1094.235 913.500, 1103.596 913.500 C 1112.861 913.500, 1113.389 912.734, 1112.568 900.480 C 1111.932 890.987, 1112.018 890.294, 1114.049 888.456 C 1118.617 884.321, 1119.326 881.381, 1118.677 869.260 C 1118.060 857.746, 1117.554 854.106, 1114.124 836.500 C 1111.491 822.985, 1108.899 812.607, 1108.006 812 C 1107.601 811.725, 1106.930 810.375, 1106.514 809 C 1105.236 804.773, 1096.839 787.520, 1095.886 787.165 C 1095.392 786.980, 1095.244 786.414, 1095.557 785.908 C 1095.870 785.401, 1095.443 784.724, 1094.608 784.403 C 1093.773 784.083, 1091.775 781.498, 1090.169 778.660 C 1088.563 775.822, 1084.605 770.712, 1081.374 767.304 C 1074.755 760.322, 1058.212 746, 1056.767 746 C 1056.246 746, 1055.073 745.094, 1054.160 743.987 C 1052.707 742.225, 1039.490 734.806, 1027.500 729.023 C 1021.190 725.979, 1004.180 720.003, 1001.727 719.968 C 998.688 719.925, 995.618 717.437, 996.327 715.591 C 996.645 714.763, 998.706 712.948, 1000.908 711.558 C 1005.158 708.875, 1019.936 692.361, 1019.976 690.250 C 1019.989 689.563, 1020.464 689, 1021.031 689 C 1021.599 689, 1022.336 688.212, 1022.671 687.250 C 1024.834 681.026, 1029.493 671.199, 1031.047 669.582 C 1032.466 668.106, 1033.207 667.927, 1034.261 668.802 C 1036.052 670.288, 1046.361 671.485, 1048.689 670.477 C 1049.685 670.046, 1051.248 669.783, 1052.161 669.894 C 1053.075 670.005, 1054.114 669.624, 1054.470 669.048 C 1054.827 668.472, 1055.806 668, 1056.647 668 C 1057.957 668, 1066.092 663.720, 1072.403 659.709 C 1073.450 659.044, 1075.865 656.813, 1077.770 654.750 C 1079.674 652.688, 1081.847 651, 1082.597 651 C 1083.348 651, 1084.244 649.875, 1084.589 648.500 C 1084.934 647.125, 1085.731 645.985, 1086.358 645.966 C 1088.076 645.915, 1096.157 631.459, 1098.917 623.500 C 1104.100 608.555, 1101.418 584.570, 1093.523 575.265 C 1089.109 570.062, 1088.701 567.690, 1091.546 563.756 C 1092.841 561.965, 1095.600 557.800, 1097.677 554.500 C 1101.396 548.591, 1101.458 548.326, 1101.797 537 L 1102.140 525.500 1107.957 519.500 C 1114.508 512.743, 1115.311 511.418, 1118.051 502.840 C 1121.391 492.386, 1120.326 477.326, 1115.601 468.194 C 1114.660 466.376, 1112.078 463.001, 1109.863 460.694 C 1102.863 453.404, 1102.380 452.340, 1104.652 449.198 C 1109.608 442.346, 1110.285 439.357, 1109.773 426.578 C 1109.306 414.899, 1109.164 414.269, 1105.490 407.500 C 1101.097 399.409, 1095.521 392.570, 1090.405 389 C 1088.434 387.625, 1085.353 385.274, 1083.558 383.776 C 1080.473 381.200, 1071.028 378, 1066.512 378 C 1065.375 378, 1063.445 377.299, 1062.223 376.443 C 1060.327 375.116, 1060 373.962, 1060 368.610 C 1060 365.158, 1059.668 362.002, 1059.263 361.596 C 1058.857 361.191, 1058.505 360.328, 1058.480 359.679 C 1058.455 359.031, 1057.383 356.250, 1056.099 353.500 C 1054.814 350.750, 1053.029 346.925, 1052.132 345 C 1049.766 339.926, 1035.812 326, 1033.093 326 C 1031.880 326, 1029.599 324.590, 1028.025 322.867 L 1025.163 319.733 1011.010 319.224 C 1001.102 318.868, 995.198 319.113, 991.330 320.041 C 987.450 320.972, 985.312 321.059, 984.152 320.334 C 982.599 319.365, 981.995 318.413, 978.785 311.889 C 976.446 307.137, 971.992 301, 970.881 301 C 970.280 301, 968.931 299.911, 967.884 298.580 C 965.085 295.021, 957.456 291.009, 949.513 288.917 C 945.670 287.905, 942.370 286.610, 942.180 286.039 C 941.727 284.680, 926.728 284.672, 925.370 286.030 M 925.500 304.026 C 922.750 304.316, 918.475 305.543, 916 306.754 C 913.525 307.965, 911.050 308.972, 910.500 308.992 C 909.950 309.012, 905.909 312.384, 901.521 316.485 C 894.982 322.596, 893.778 324.172, 894.853 325.221 C 895.924 326.265, 896.668 325.903, 898.905 323.250 C 900.412 321.462, 902.097 320, 902.649 320 C 903.200 320, 904.659 318.928, 905.890 317.618 C 907.333 316.081, 910.156 314.836, 913.841 314.111 C 916.983 313.493, 921.227 312.090, 923.273 310.994 C 927.998 308.461, 934.864 308.416, 939.193 310.889 C 941.012 311.928, 944.197 313.076, 946.271 313.439 C 948.346 313.802, 951.555 315.426, 953.403 317.049 C 955.252 318.672, 957.489 320, 958.374 320 C 959.260 320, 960.775 321.637, 961.742 323.639 C 962.709 325.640, 963.950 327.102, 964.500 326.889 C 966.108 326.264, 965.034 321.712, 962.930 320.238 C 961.869 319.495, 961 318.214, 961 317.392 C 961 316.570, 959.458 315.254, 957.573 314.466 C 955.688 313.678, 953.872 312.174, 953.539 311.122 C 953.174 309.972, 951.650 308.966, 949.716 308.599 C 947.947 308.264, 945.150 307.273, 943.500 306.397 C 939.685 304.371, 931.927 303.350, 925.500 304.026 M 839 305.923 C 837.075 306.933, 834.011 308.080, 832.190 308.472 C 830.035 308.936, 828.571 309.997, 827.996 311.511 C 827.509 312.791, 825.866 314.437, 824.345 315.169 C 822.473 316.069, 821.362 317.557, 820.912 319.767 C 819.945 324.509, 821.311 324.554, 825.662 319.922 C 827.773 317.675, 830.850 315.146, 832.500 314.304 C 834.150 313.461, 836.625 311.725, 838 310.446 C 840.013 308.573, 842.057 307.996, 848.500 307.480 C 858.276 306.697, 860.324 306.124, 857.500 304.963 C 853.712 303.405, 842.714 303.976, 839 305.923 M 817.183 326.217 C 815.753 327.647, 815.611 331, 816.981 331 C 818.001 331, 819.570 326.237, 818.803 325.470 C 818.563 325.230, 817.834 325.566, 817.183 326.217 M 780 335 C 780 335.550, 779.212 336.002, 778.250 336.004 C 776.126 336.009, 766.892 340.559, 765.500 342.287 C 764.950 342.969, 763.263 344.319, 761.750 345.287 C 760.237 346.254, 759 347.574, 759 348.218 C 759 348.863, 757.816 350.626, 756.369 352.136 C 754.545 354.040, 753.702 356.050, 753.619 358.691 C 753.450 364.097, 756.092 363.790, 757.861 358.198 C 758.682 355.605, 760.414 353.022, 762.221 351.698 C 763.870 350.489, 765.592 348.532, 766.047 347.348 C 766.537 346.077, 768.437 344.696, 770.688 343.975 C 772.785 343.303, 775.508 341.835, 776.740 340.712 C 778.483 339.123, 780.757 338.568, 786.990 338.207 C 791.395 337.952, 795 337.351, 795 336.872 C 795 336.392, 794.325 336, 793.500 336 C 792.675 336, 792 335.550, 792 335 C 792 334.444, 789.333 334, 786 334 C 782.667 334, 780 334.444, 780 335 M 999.500 338.163 C 988.817 340.822, 987.368 341.374, 989.956 341.794 C 991.307 342.014, 994.127 341.679, 996.224 341.051 C 999.282 340.135, 1001.070 340.214, 1005.268 341.452 C 1008.146 342.301, 1012.301 343.434, 1014.503 343.970 C 1019.736 345.243, 1033.229 358.032, 1035.604 363.969 C 1037.673 369.139, 1039.565 368.663, 1039.300 363.039 C 1039.048 357.666, 1033.355 349.043, 1027 344.407 C 1019.865 339.202, 1007.031 336.288, 999.500 338.163 M 725.072 393.750 C 722.772 396.363, 720.244 399.208, 719.455 400.074 C 717.655 402.049, 716.377 408, 717.753 408 C 719.173 408, 720.620 405.937, 721.351 402.869 C 721.698 401.416, 722.874 400.005, 723.981 399.715 C 725.082 399.427, 726.741 397.871, 727.667 396.257 C 728.593 394.644, 730.256 392.913, 731.361 392.412 C 734.379 391.043, 734.588 389, 731.711 389 C 730.034 389, 727.927 390.508, 725.072 393.750 M 1047.250 395.644 C 1044.770 396.681, 1046.076 398, 1049.583 398 C 1052.003 398, 1053.033 397.594, 1052.755 396.750 C 1052.312 395.403, 1049.281 394.794, 1047.250 395.644 M 1062.431 396.112 C 1061.556 397.527, 1063.794 398.965, 1066.900 398.985 C 1069.485 399.001, 1078 407.129, 1078 409.579 C 1078 410.332, 1079.313 411.627, 1080.917 412.457 C 1082.785 413.423, 1084.072 415.049, 1084.496 416.983 C 1085.426 421.215, 1088 420.941, 1088 416.610 C 1088 414.165, 1086.747 411.517, 1083.502 407.110 C 1081.028 403.750, 1078.621 401, 1078.153 401 C 1077.684 401, 1075.321 399.658, 1072.900 398.018 C 1068.412 394.977, 1063.666 394.113, 1062.431 396.112 M 876.623 416 C 873.960 418.200, 870.931 420, 869.891 420 C 868.851 420, 868 420.438, 868 420.974 C 868 424.639, 849.600 427.827, 839.011 425.997 C 832.205 424.820, 821.848 419.744, 818.760 416.070 C 817.803 414.931, 816.228 414.015, 815.260 414.033 C 813.242 414.071, 809 417.324, 809 418.832 C 809 419.975, 799.958 427.984, 798.658 427.994 C 798.194 427.997, 796.686 428.888, 795.306 429.974 C 793.926 431.059, 791.263 432.235, 789.388 432.587 C 787.512 432.939, 785.731 433.626, 785.430 434.113 C 784.674 435.337, 777.262 435.234, 776.493 433.989 C 775.616 432.569, 772.198 435.145, 769.861 438.989 C 768.810 440.716, 767.465 444.397, 766.870 447.170 C 765.738 452.448, 765.236 453.134, 757.979 459.308 L 753.503 463.117 752.921 471.308 C 752.552 476.499, 751.566 481.149, 750.230 484 C 748.846 486.951, 747.575 493.147, 746.536 502 C 745.665 509.425, 744.513 517.419, 743.976 519.764 C 743.056 523.783, 742.630 531, 743.312 531 C 743.484 531, 745.621 530.025, 748.062 528.833 C 755.950 524.980, 787.424 524.506, 806.563 527.952 C 816.383 529.719, 829 539.535, 832.832 548.386 C 834.068 551.241, 834.141 551.263, 839.790 550.453 C 848.166 549.252, 858.689 549.736, 864.234 551.578 C 870.200 553.559, 873.690 552.813, 875.254 549.222 C 876.540 546.272, 882.551 540, 884.093 540 C 884.615 540, 886.912 538.763, 889.196 537.250 C 893.130 534.645, 894.067 534.482, 906.925 534.164 C 914.391 533.979, 920.927 533.417, 921.450 532.914 C 922.667 531.743, 928 531.717, 928 532.882 C 928 533.367, 931.938 534.087, 936.750 534.482 C 941.563 534.878, 947.300 536.007, 949.500 536.991 C 951.700 537.974, 955.803 539.088, 958.618 539.465 C 964.085 540.198, 967.221 542.348, 975.657 551.151 L 980.115 555.801 993.807 556.461 C 1001.338 556.823, 1008.435 557.577, 1009.577 558.136 C 1010.719 558.695, 1013.194 559.006, 1015.077 558.826 C 1017.973 558.550, 1018.549 558.075, 1018.817 555.743 C 1019.009 554.075, 1018.318 551.948, 1017.067 550.358 C 1015.930 548.913, 1015 547.035, 1015 546.186 C 1015 545.336, 1014.028 541.764, 1012.840 538.247 C 1010.743 532.037, 1010.730 531.699, 1012.385 526.447 C 1013.322 523.474, 1014.344 518.889, 1014.656 516.258 L 1015.222 511.476 1009.535 506.988 C 1006.407 504.520, 1002.977 500.925, 1001.913 499 C 998.995 493.719, 997.593 491.568, 996.604 490.851 C 996.112 490.494, 995.964 489.536, 996.276 488.723 C 996.588 487.909, 996.381 486.781, 995.815 486.215 C 994.535 484.935, 994.191 472.216, 995.363 469.500 C 996.680 466.447, 996.646 461.077, 995.307 460.564 C 994.651 460.312, 992.708 460.510, 990.990 461.003 C 987.695 461.948, 985.819 461.489, 978 457.821 C 975.525 456.660, 971.952 454.988, 970.060 454.105 C 968.168 453.222, 963.913 449.847, 960.605 446.604 C 955.505 441.605, 954.203 439.567, 952.045 433.198 C 948.640 423.151, 947.805 422.763, 939.974 427.598 L 933.653 431.500 920.576 431.500 C 907.813 431.500, 907.365 431.425, 901.863 428.385 C 896.591 425.472, 886 415.193, 886 412.989 C 886 410.712, 881.130 412.275, 876.623 416 M 788.500 494.152 C 786.850 494.699, 784.600 495.529, 783.500 495.996 C 782.400 496.464, 779.524 497.072, 777.108 497.347 C 771.126 498.029, 764.759 502.710, 763.788 507.141 C 762.530 512.877, 763.743 516.006, 767.850 517.618 C 769.857 518.406, 772.230 519.457, 773.122 519.954 C 774.014 520.450, 775.139 520.500, 775.622 520.064 C 778.597 517.380, 792.398 516.239, 799.500 518.090 C 811.124 521.120, 810.808 521.150, 815.603 516.556 C 821.270 511.126, 821.583 507.119, 816.750 501.843 C 810.048 494.526, 797.598 491.137, 788.500 494.152 M 908.758 501.805 C 897.286 505.799, 893.752 511.461, 897.630 519.633 C 900.191 525.030, 901.864 525.500, 918.500 525.500 C 932.975 525.500, 933.798 525.613, 942.006 528.726 C 950.336 531.884, 950.615 531.920, 955.454 530.464 C 961.385 528.679, 961.965 527.901, 961.985 521.699 C 961.998 517.423, 961.590 516.521, 958.250 513.447 C 956.188 511.548, 953.600 509.720, 952.500 509.383 C 951.400 509.046, 949.533 507.886, 948.350 506.805 C 945.435 504.140, 927.680 499.026, 921.500 499.072 C 918.744 499.092, 913.026 500.319, 908.758 501.805 M 245.500 500.972 L 122.500 501.500 118 503.674 C 112.712 506.230, 108.259 511.393, 104.769 519.016 L 102.258 524.500 103.121 626.887 C 103.691 694.571, 104.333 729.696, 105.016 730.519 C 105.686 731.326, 106.022 744.067, 105.975 766.796 C 105.892 806.473, 105.748 805.593, 113.595 813.346 C 122.250 821.897, 111.439 821.180, 230.365 821.092 C 288.739 821.048, 363.950 820.751, 397.500 820.431 C 431.050 820.110, 479.875 819.758, 506 819.647 L 553.500 819.446 557.730 816.723 C 560.057 815.225, 562.341 814, 562.806 814 C 564.247 814, 567.708 809.724, 570.413 804.601 L 573 799.702 573 764.785 C 573 742.177, 572.628 729.173, 571.944 727.895 C 571.363 726.809, 568.379 724.733, 565.313 723.281 C 556.440 719.080, 548.297 708.736, 546.402 699.258 C 544.832 691.408, 555.775 675.795, 563.785 674.457 C 572.833 672.945, 572.479 673.404, 572.685 662.914 C 572.889 652.488, 571.310 577.665, 570.112 541 C 569.509 522.556, 569.001 516.843, 567.749 514.448 C 566.034 511.167, 558.801 504.085, 554.894 501.862 C 552.153 500.303, 461.812 500.043, 245.500 500.972 M 354 543.709 C 349.722 545.283, 345.400 552.891, 343.018 563.046 C 342.314 566.046, 341.235 569.132, 340.619 569.904 C 340.004 570.676, 339.637 571.351, 339.803 571.404 C 339.970 571.457, 339.400 573.192, 338.536 575.259 C 337.672 577.327, 336.327 581.827, 335.547 585.259 C 334.768 588.692, 333.200 594.157, 332.065 597.405 C 330.929 600.653, 330 604.114, 330 605.096 C 330 606.078, 329.543 607.165, 328.984 607.510 C 328.425 607.856, 328.205 608.523, 328.495 608.992 C 328.786 609.462, 328.159 611.344, 327.102 613.173 C 326.045 615.003, 324.637 619.188, 323.973 622.474 C 323.309 625.759, 321.468 632.383, 319.883 637.195 C 318.297 642.006, 317 646.855, 317 647.971 C 317 649.087, 316.622 650, 316.161 650 C 314.842 650, 313.153 654.405, 309.937 666.230 C 308.300 672.252, 306.148 678.859, 305.156 680.914 C 303.566 684.204, 303.509 685.106, 304.673 688.470 C 306.319 693.224, 307.720 694.943, 310.948 696.171 C 317.379 698.615, 323.908 693.318, 325.897 684.042 C 326.464 681.399, 327.816 677.720, 328.902 675.868 C 329.987 674.016, 331.407 669.350, 332.057 665.500 C 332.708 661.650, 334.044 656.700, 335.027 654.500 C 336.009 652.300, 337.292 647.903, 337.877 644.730 C 338.461 641.556, 340.035 637.056, 341.375 634.730 C 342.714 632.403, 344.131 628.025, 344.524 625 C 344.916 621.975, 346.103 617.794, 347.161 615.708 C 348.218 613.623, 349.540 609.348, 350.098 606.208 C 350.657 603.069, 352 599.264, 353.083 597.754 C 354.167 596.244, 355.768 591.744, 356.642 587.754 C 357.516 583.764, 358.884 579.458, 359.682 578.184 C 360.480 576.911, 361.575 573.086, 362.116 569.684 C 362.665 566.230, 364.181 561.854, 365.550 559.771 C 369.052 554.441, 368.724 551.489, 364.118 546.882 C 360.383 543.147, 357.763 542.326, 354 543.709 M 757.500 548.002 C 751.450 550.649, 739.622 569, 743.965 569 C 744.495 569, 745.423 568.078, 746.026 566.952 C 746.628 565.826, 748.162 564.509, 749.434 564.025 C 750.771 563.517, 752.038 561.955, 752.437 560.323 C 752.817 558.770, 755.446 555.138, 758.280 552.250 C 762.272 548.182, 762.989 547.014, 761.466 547.063 C 760.385 547.098, 758.600 547.521, 757.500 548.002 M 721.104 553.714 C 718.236 556.037, 713.674 574.385, 714.320 581 C 714.920 587.141, 717.651 600.985, 718.413 601.747 C 719.643 602.977, 720.993 600.322, 721.611 595.460 C 721.958 592.732, 722.948 589.938, 723.812 589.250 C 724.676 588.563, 724.959 587.993, 724.441 587.985 C 723.924 587.976, 724.175 587.543, 725 587.021 C 727.269 585.587, 727.145 552.652, 724.870 552.213 C 724.020 552.050, 722.326 552.725, 721.104 553.714 M 899.944 555.533 C 895.260 558.977, 888 566.863, 888 568.507 C 888 569.244, 886.875 571.184, 885.500 572.818 C 880.814 578.387, 883.320 580.041, 888.825 575.013 C 890.623 573.370, 892.572 570.656, 893.156 568.983 C 893.739 567.309, 895.518 565.266, 897.108 564.444 C 898.699 563.622, 900 562.514, 900 561.983 C 900 561.452, 901.391 559.688, 903.092 558.062 C 904.793 556.437, 905.891 554.633, 905.533 554.054 C 904.578 552.509, 903.763 552.725, 899.944 555.533 M 261.500 562.532 C 259.850 563.284, 252.031 569.773, 244.124 576.950 C 236.217 584.128, 229.354 590, 228.874 590 C 228.393 590, 227.109 590.788, 226.019 591.750 C 222.871 594.531, 218.048 598.607, 210.310 605.026 C 201.270 612.525, 200.001 614.364, 199.995 619.973 C 199.991 624.349, 200.264 624.758, 208.213 632.250 C 212.736 636.513, 216.900 640.012, 217.468 640.026 C 218.036 640.040, 220.695 642.290, 223.378 645.026 C 226.060 647.762, 228.650 650, 229.133 650 C 229.615 650, 233.270 652.813, 237.255 656.251 C 241.240 659.689, 246.147 663.731, 248.160 665.233 C 250.173 666.735, 253.548 669.594, 255.659 671.585 C 263.235 678.730, 267.752 679.646, 272.777 675.056 C 275.463 672.603, 276 671.388, 276 667.759 C 276 662.305, 277.494 663.774, 235.750 628.194 C 230.938 624.093, 227 620.188, 227 619.518 C 227 618.848, 229.808 615.870, 233.240 612.900 C 236.671 609.930, 240.384 606.557, 241.490 605.405 C 243.211 603.611, 248.995 598.654, 258.879 590.500 C 262.089 587.851, 265.490 584.786, 271.250 579.348 C 277.471 573.474, 277.790 569.424, 272.429 564.368 C 268.603 560.760, 266.251 560.365, 261.500 562.532 M 402.531 562.663 C 397.625 564.429, 397.035 565.330, 397.015 571.070 C 397.001 575.436, 397.317 575.944, 404.146 582.500 C 408.076 586.273, 414.938 592.427, 419.396 596.175 C 423.853 599.923, 430.086 605.354, 433.246 608.244 C 436.407 611.133, 439.557 613.669, 440.246 613.879 C 445.577 615.502, 446.557 621.473, 442.040 624.812 C 440.413 626.015, 438.725 626.996, 438.290 626.992 C 437.856 626.987, 435.201 629.350, 432.391 632.242 C 429.581 635.134, 424.975 639.300, 422.155 641.500 C 419.336 643.700, 417.022 646.032, 417.014 646.683 C 417.006 647.333, 416.199 648.119, 415.221 648.430 C 414.242 648.740, 409.740 652.483, 405.216 656.747 C 397.204 664.298, 396.991 664.621, 396.995 669.146 C 396.999 673.210, 397.443 674.182, 400.535 676.896 C 404.657 680.516, 408.842 680.937, 411.500 678 C 412.495 676.900, 413.803 676, 414.405 676 C 415.008 676, 422.953 669.138, 432.061 660.750 C 450.062 644.174, 454.381 640.324, 460.952 635 C 471.438 626.503, 473 624.501, 473 619.556 C 473 615.316, 472.588 614.558, 467.750 609.888 C 464.863 607.100, 460.925 603.632, 459 602.180 C 451.884 596.812, 438.343 585.812, 433.216 581.236 C 430.310 578.642, 427.124 576.220, 426.135 575.854 C 425.146 575.488, 423.165 573.797, 421.733 572.095 C 420.301 570.393, 418.843 569, 418.494 569 C 418.145 569, 415.724 567.200, 413.115 565 C 407.883 560.588, 408.136 560.644, 402.531 562.663 M 841.819 568.973 C 839.251 570.576, 834.322 580.370, 833.574 585.355 C 832.100 595.184, 823.202 608.540, 813.006 616.229 C 803.840 623.140, 796.718 625.201, 782 625.202 C 772.889 625.202, 768.280 624.756, 765 623.557 C 756.732 620.535, 741 609.358, 741 606.506 C 741 605.812, 740.382 604.732, 739.626 604.105 C 738.554 603.215, 737.929 603.462, 736.778 605.233 C 735.650 606.966, 735.377 610.064, 735.618 618.383 C 735.909 628.405, 736.114 629.390, 738.217 630.845 C 741.686 633.245, 744.740 637.021, 747.240 642 C 748.650 644.808, 750.718 647.108, 752.738 648.118 C 757.418 650.456, 758.719 651.744, 759.480 654.791 C 760.541 659.044, 762.814 660.987, 765.985 660.353 C 768.292 659.892, 769.198 660.393, 771.492 663.400 C 774.467 667.302, 777.379 668.028, 778.870 665.242 C 779.388 664.275, 780.487 660.895, 781.314 657.729 C 784.147 646.879, 799.389 633, 808.471 633 C 810.973 633, 816.307 630.586, 819.885 627.834 C 821.197 626.825, 823.812 626, 825.697 626 C 829.055 626, 840.176 630.533, 840.833 632.170 C 841.290 633.306, 846.378 633.221, 847.550 632.057 C 848.072 631.539, 850.511 630.665, 852.968 630.115 C 858.709 628.830, 866.336 630.392, 870.747 633.756 C 873.187 635.617, 876.081 636.503, 882.253 637.277 C 891.520 638.440, 894.375 640.037, 902.219 648.443 C 904.814 651.224, 908.055 654.625, 909.420 656 C 912.842 659.448, 915 665.068, 915 670.534 C 915 678.062, 916.218 679.367, 922.550 678.623 C 925.902 678.229, 928.877 678.443, 930.531 679.196 C 932.978 680.311, 933.397 680.122, 936.387 676.561 L 939.608 672.725 946.054 673.376 L 952.500 674.028 954.882 670.122 C 956.997 666.657, 957.932 666.076, 963.186 664.960 C 968.478 663.837, 969.427 663.240, 972.106 659.345 C 973.756 656.948, 976.769 654.135, 978.802 653.094 C 980.949 651.994, 983.730 649.246, 985.433 646.540 C 987.046 643.977, 990.425 640.156, 992.942 638.049 C 996.564 635.016, 998.209 632.527, 1000.833 626.109 C 1002.656 621.649, 1004.514 618, 1004.960 618 C 1005.407 618, 1007.683 614.784, 1010.018 610.852 L 1014.265 603.705 1014.765 590.585 C 1015.361 574.971, 1015.101 574.464, 1007.264 575.950 C 1004.499 576.474, 999.125 576.643, 995.323 576.324 C 985.553 575.505, 983.478 577.375, 981.067 589.170 C 980.023 594.280, 978.427 598.913, 977.152 600.534 C 975.969 602.038, 975 603.780, 975 604.403 C 975 605.027, 973.184 607.734, 970.965 610.419 C 968.746 613.105, 966.609 615.797, 966.215 616.401 C 963.999 619.807, 952.682 628.675, 947.478 631.083 C 941.400 633.896, 928.931 636.998, 923.692 636.999 C 922.148 637, 916.510 636.093, 911.163 634.986 C 897.176 632.087, 887.748 626.923, 879.991 617.909 C 876.696 614.081, 874 610.480, 874 609.908 C 874 609.335, 872.865 607.379, 871.478 605.561 C 869.048 602.375, 868.538 600.164, 865.404 579.279 C 864.926 576.095, 860.249 569.418, 859.218 570.449 C 858.924 570.743, 858.132 570.524, 857.457 569.964 C 855.669 568.480, 843.813 567.729, 841.819 568.973 M 1054 576.590 C 1047.425 579.430, 1038 591.079, 1038 596.365 C 1038 597.153, 1036.650 600.363, 1035 603.500 C 1031.713 609.748, 1031.240 612.771, 1033.416 613.606 C 1035.436 614.381, 1036.407 622.857, 1034.896 626.521 C 1034.220 628.159, 1033.589 629.725, 1033.493 630 C 1033.398 630.275, 1032.515 632.300, 1031.532 634.500 C 1029.396 639.280, 1029.190 645.651, 1031.114 647.460 C 1031.876 648.177, 1035.018 649.684, 1038.096 650.810 C 1044.108 653.009, 1048.962 652.622, 1055.083 649.457 C 1059.262 647.296, 1069 639.861, 1069 638.831 C 1069 638.347, 1070.125 637.523, 1071.500 637 C 1072.875 636.477, 1074 635.545, 1074 634.929 C 1074 634.312, 1075.672 630.364, 1077.716 626.154 L 1081.432 618.500 1081.466 604.337 C 1081.498 591.156, 1081.343 589.962, 1079.231 587.102 C 1077.983 585.412, 1076.539 582.917, 1076.022 581.558 C 1073.934 576.066, 1061.636 573.292, 1054 576.590 M 594.529 660.614 C 592.953 662.190, 592.559 666.750, 593.647 670.814 C 594.077 672.418, 596.188 674.036, 600.526 676.086 C 607.566 679.412, 615.008 686.691, 614.985 690.228 C 614.964 693.549, 612.816 697.176, 610.334 698.082 C 608.172 698.872, 607.408 698.557, 595.826 692.111 C 591.992 689.977, 590.415 689.739, 581.093 689.889 C 567.460 690.108, 565.597 690.991, 565.188 697.428 C 564.898 702.009, 565.129 702.564, 568.620 705.670 C 572.279 708.925, 572.568 709, 581.459 709 C 594.788 709, 595.436 709.620, 594.716 721.683 C 594.408 726.840, 594.537 732.386, 595.002 734.007 C 595.467 735.628, 598.807 739.785, 602.424 743.246 C 608.651 749.203, 609 749.780, 609 754.114 C 609 757.451, 608.447 759.190, 606.958 760.538 C 604.979 762.329, 604.753 762.330, 599.566 760.567 C 596.623 759.567, 593.717 759.057, 593.108 759.433 C 592.369 759.890, 592 765.677, 592 776.809 C 591.999 796.095, 594.522 811.687, 598.719 818.343 C 600.052 820.457, 600.900 822.819, 600.603 823.593 C 600.306 824.367, 600.499 825, 601.031 825 C 601.564 825, 602 826.157, 602 827.572 C 602 828.986, 603.091 832.024, 604.426 834.322 C 605.760 836.620, 607.161 840.192, 607.539 842.261 C 607.917 844.330, 608.650 846.284, 609.167 846.603 C 609.684 846.923, 611.409 850.026, 613 853.500 C 614.591 856.974, 616.334 860.088, 616.873 860.422 C 617.413 860.755, 618.402 862.709, 619.072 864.764 C 619.742 866.819, 621.346 869.850, 622.637 871.500 C 636.693 889.468, 642.814 894.985, 653.263 899.104 C 655.967 900.170, 659.602 901.779, 661.340 902.681 C 663.423 903.761, 666.481 904.240, 670.309 904.087 C 673.836 903.945, 676.715 904.348, 677.636 905.113 C 678.855 906.125, 679.306 906.123, 679.936 905.104 C 680.434 904.297, 682.496 903.930, 685.609 904.092 C 688.299 904.233, 691.400 903.875, 692.500 903.297 C 693.600 902.719, 698.698 901.047, 703.829 899.582 C 708.961 898.117, 714.804 896.037, 716.815 894.959 C 718.825 893.882, 720.819 893, 721.246 893 C 722.141 893, 730.128 887.911, 736.280 883.420 C 740.004 880.701, 740.486 879.900, 740.380 876.601 C 740.294 873.921, 739.408 871.963, 737.248 869.682 C 735.592 867.932, 733.677 864.700, 732.992 862.500 C 732.307 860.300, 731.186 857.825, 730.501 857 C 729.815 856.175, 728.704 853.145, 728.032 850.267 C 727.359 847.389, 725.502 843.390, 723.904 841.380 C 722.307 839.370, 721 837.228, 721 836.621 C 721 834.958, 713.946 820.787, 711.979 818.500 C 711.033 817.400, 709.638 815.326, 708.879 813.890 C 705.894 808.242, 701.185 802.892, 700.360 804.213 C 699.036 806.333, 699.109 807.846, 700.595 809.079 C 703.179 811.223, 702.316 816.556, 698.923 819.411 C 697.231 820.835, 695.443 822, 694.950 822 C 692.988 822, 685.132 812.924, 683.980 809.326 C 683.305 807.222, 681.961 804.600, 680.992 803.500 C 680.023 802.400, 678.901 800.375, 678.500 799 C 678.099 797.625, 676.973 795.600, 675.998 794.500 C 675.023 793.400, 673.281 790.618, 672.127 788.318 C 670.973 786.018, 669.585 783.862, 669.043 783.526 C 668.501 783.191, 667.181 780.938, 666.111 778.519 C 665.041 776.100, 663.228 773.535, 662.083 772.820 C 660.937 772.104, 660 770.899, 660 770.141 C 660 769.384, 658.650 767.226, 657 765.347 C 655.350 763.468, 654 761.314, 654 760.560 C 654 759.227, 649.056 752.584, 644.991 748.454 C 642.064 745.481, 641.040 740.831, 641.055 730.579 C 641.068 720.858, 639.887 714.166, 637.944 712.966 C 637.284 712.557, 637.034 711.754, 637.388 711.181 C 637.743 710.607, 637.626 709.887, 637.130 709.580 C 636.633 709.273, 635.928 707.428, 635.562 705.480 C 635.197 703.532, 633.796 700.314, 632.449 698.330 C 631.102 696.345, 630 694.016, 630 693.154 C 630 691.123, 622.845 680.725, 617.598 675.131 C 613.346 670.597, 600.788 660.833, 597.779 659.721 C 596.803 659.360, 595.396 659.747, 594.529 660.614 M 806.859 661.012 C 801.234 663.984, 800.130 668.338, 802.113 679.725 C 803.338 686.762, 806.389 691.379, 810.494 692.409 C 811.868 692.754, 814.957 694.421, 817.358 696.113 C 821.197 698.819, 821.974 699.033, 823.805 697.890 C 824.949 697.175, 826.145 695.560, 826.461 694.301 C 827.350 690.756, 833.392 688.580, 839 689.785 C 841.475 690.316, 845.972 690.836, 848.993 690.941 C 854.993 691.148, 857.991 692.964, 858.014 696.405 C 858.057 703.051, 860.737 704.780, 867.396 702.459 C 869.653 701.673, 873.300 701.016, 875.500 701.001 C 882.250 700.953, 883.669 700.081, 888.070 693.276 C 892.001 687.197, 892.294 686.264, 892.294 679.810 C 892.294 672.971, 892.234 672.814, 887.939 668.438 C 884.534 664.968, 882.865 664, 880.292 664 C 876.738 664, 876.118 665.261, 878.500 667.643 C 882.390 671.533, 879.254 678.062, 871.175 682.894 L 865.500 686.287 849.500 686.394 C 834.523 686.493, 833.180 686.346, 828.500 684.089 C 825.750 682.763, 823.260 681.638, 822.967 681.589 C 822.674 681.540, 820.087 679.813, 817.217 677.752 C 812.744 674.538, 812 673.534, 812 670.713 C 812 668.903, 812.900 665.658, 814 663.500 C 815.100 661.342, 816 659.447, 816 659.289 C 816 658.260, 809.885 659.413, 806.859 661.012 M 835 661.680 C 828.970 662.300, 827 662.990, 827 664.484 C 827 666.833, 830.442 668, 837.375 668 C 840.954 668, 844.160 668.450, 844.500 669 C 845.624 670.819, 858.237 670.158, 860.856 668.143 L 863.213 666.331 860.356 665.162 C 851.888 661.698, 844.581 660.695, 835 661.680 M 239.500 736 C 183.793 736.387, 166.996 736.788, 165.273 737.773 C 158.519 741.633, 160.271 750.783, 168.200 753.057 C 172.009 754.150, 319.514 754.321, 424.500 753.354 L 494.500 752.710 498.250 748.813 C 500.313 746.669, 502 744.560, 502 744.125 C 502 743.689, 500.483 741.578, 498.629 739.433 L 495.258 735.534 403.379 735.517 C 352.846 735.508, 279.100 735.725, 239.500 736 M 947.204 744.350 C 945.410 745.673, 941.817 747.298, 939.221 747.959 C 936.624 748.621, 932.475 750.022, 930 751.073 C 927.525 752.125, 923.261 753.463, 920.525 754.047 C 917.789 754.631, 915.243 755.607, 914.867 756.215 C 914.492 756.823, 910.430 757.517, 905.842 757.757 C 901.254 757.997, 895.578 758.823, 893.230 759.592 C 889.853 760.697, 884.098 760.875, 865.730 760.440 L 842.500 759.891 836.197 756.367 C 831.134 753.536, 829.610 753.079, 828.447 754.044 C 825.866 756.186, 826.887 758.478, 833.250 764.825 C 840.175 771.732, 845.156 774.910, 853.155 777.521 C 856.095 778.481, 858.950 779.530, 859.500 779.852 C 860.050 780.175, 861.470 780.313, 862.654 780.160 C 863.839 780.007, 865.104 780.358, 865.464 780.941 C 866.364 782.399, 890 782.383, 890 780.925 C 890 780.333, 891.237 779.948, 892.750 780.068 C 894.263 780.189, 896.175 780.019, 897 779.692 C 897.825 779.364, 901.875 778.101, 906 776.884 C 919.058 773.032, 926.718 768.675, 943.596 755.500 C 948.775 751.457, 953.500 746.017, 953.500 744.097 C 953.500 741.619, 950.756 741.729, 947.204 744.350 M 230.882 776.882 C 228.316 779.448, 227 781.668, 227 783.428 C 227 786.685, 231.063 790.982, 234.205 791.048 C 248.287 791.340, 351.725 790.650, 368.339 790.153 C 389.712 789.514, 390.219 789.450, 392.089 787.139 C 395.433 783.008, 393.933 774.754, 389.628 773.598 C 388.458 773.284, 353.135 773.021, 311.132 773.014 L 234.765 773 230.882 776.882" stroke="none" fill="#171916" fill-rule="evenodd"/>
</svg>