<svg role="img" aria-labelledby="artwork-title" shape-rendering="geometricPrecision" xmlns="http://www.w3.org/2000/svg" width="1200" height="1200" viewBox="0 0 1200 1200" version="1.1">
	<title id="artwork-title">Mascot building a design system component</title>
	<path d="M 118.826 334.624 C 117.355 335.401, 113.543 336.560, 110.356 337.201 C 97.385 339.805, 86.964 351.261, 82.792 367.500 C 82.227 369.700, 81.368 372.281, 80.882 373.236 C 79.406 376.143, 79.745 827.345, 81.225 828.825 C 82.192 829.792, 82.192 830.464, 81.225 832.011 C 79.744 834.383, 79.630 837.653, 81 838.500 C 81.550 838.840, 82 840.641, 82 842.502 C 82 847.839, 86.734 859.350, 90.384 862.887 L 93.633 866.037 130.566 865.172 C 150.880 864.696, 167.801 864.467, 168.170 864.663 C 168.538 864.859, 261.463 864.989, 374.670 864.952 C 530.838 864.901, 582.784 864.589, 589.964 863.660 L 599.429 862.437 587.964 861.186 C 579.108 860.220, 524.283 859.953, 347 860.011 C 220.775 860.053, 116.015 859.782, 114.199 859.408 C 112.155 858.988, 108.762 856.677, 105.287 853.338 C 100.548 848.785, 99.558 847.210, 98.925 843.223 C 98.513 840.625, 98.124 748.421, 98.061 638.325 C 97.973 483.542, 98.219 437.983, 99.148 437.409 C 99.808 437.001, 218.507 436.505, 362.924 436.308 C 507.341 436.110, 639.450 435.552, 656.500 435.069 C 677.525 434.472, 687.902 434.520, 688.750 435.217 C 689.731 436.024, 690.012 454.141, 690.057 519.372 C 690.088 565.093, 690.483 614.650, 690.934 629.500 C 691.817 658.546, 691.218 701.030, 689.894 703.171 C 688.690 705.119, 687.050 703.077, 684.890 696.942 C 682.693 690.704, 677.020 683.150, 669.077 675.887 C 658.810 666.498, 653.094 663.009, 643.959 660.554 C 638.277 659.028, 637.232 658.159, 623.853 643.841 C 617.415 636.950, 607.062 629, 604.528 629 C 603.308 629, 601.533 629.859, 600.583 630.909 C 594.789 637.310, 584.097 635.360, 588.462 628.698 C 590.093 626.209, 590.535 626.087, 595.877 626.645 L 601.557 627.239 603.459 623.707 L 605.361 620.175 602.006 616.337 C 597.015 610.629, 591.797 608, 585.457 608 C 582.521 608, 579.847 608.438, 579.517 608.973 C 579.186 609.509, 577.394 610.668, 575.535 611.550 C 571.302 613.559, 568.628 619.502, 569.608 624.724 C 570.310 628.464, 576.155 634.994, 581.080 637.542 C 584.204 639.157, 585.224 641.257, 584.428 644.431 C 583.570 647.848, 586.816 658.012, 590.100 662.191 C 591.695 664.222, 593 666.173, 593 666.528 C 593 667.693, 599.446 676.366, 601.964 678.589 C 604.148 680.518, 604.293 681.063, 603.235 683.382 C 602.580 684.822, 601.335 686, 600.470 686 C 599.606 686, 598.257 687.534, 597.474 689.408 C 596.691 691.283, 595.692 692.970, 595.255 693.158 C 594.818 693.346, 592.782 696.051, 590.730 699.169 C 588.017 703.293, 587 705.911, 587 708.771 C 587 711.044, 585.945 714.685, 584.500 717.404 C 582.305 721.533, 582 723.347, 582 732.294 C 582 741.924, 582.191 742.866, 585.487 749.491 C 591.228 761.028, 609.197 777.938, 621 782.910 C 624.025 784.184, 627.175 785.557, 628 785.961 C 628.825 786.365, 629.888 788.452, 630.362 790.598 C 630.836 792.744, 632.298 796.756, 633.612 799.514 C 634.925 802.272, 636 805.310, 636 806.264 C 636 807.219, 636.525 808, 637.167 808 C 637.808 808, 638.036 808.297, 637.673 808.660 C 637.310 809.023, 637.858 809.912, 638.890 810.636 C 639.923 811.359, 641.051 813.459, 641.397 815.302 C 641.743 817.145, 642.695 819.518, 643.513 820.576 C 644.332 821.634, 645.902 824.300, 647.004 826.500 C 649.164 830.814, 653.015 836.537, 655.472 839.084 C 656.312 839.955, 657 841.229, 657 841.916 C 657 843.660, 663.173 851.269, 671.064 859.250 L 677.737 866 684.243 866 C 698.199 866, 700.521 863.618, 691.967 858.075 C 684.680 853.353, 665.092 829.816, 665.028 825.705 C 665.013 824.717, 663.987 822.888, 662.750 821.641 C 661.513 820.393, 659.694 817.826, 658.708 815.936 C 657.723 814.046, 655.381 809.800, 653.504 806.500 C 646.875 794.846, 643.744 787.866, 642.628 782.249 C 641.686 777.503, 640.941 776.192, 638.102 774.284 C 636.233 773.028, 633.758 772, 632.602 772 C 627.375 772, 609.115 757.568, 601.175 747.162 C 599.054 744.381, 598.826 743.507, 599.814 741.926 C 601.257 739.615, 601.381 735, 600 735 C 599.450 735, 599 734.248, 599 733.329 C 599 732.410, 598.281 730.863, 597.402 729.892 C 595.253 727.517, 596.233 726.305, 600.948 725.509 C 606.024 724.651, 607.400 722.948, 606.574 718.544 C 606.140 716.230, 605.005 714.525, 603.182 713.448 C 600.336 711.767, 599.441 707.020, 601.820 706.227 C 603.337 705.721, 609 709.787, 609 711.381 C 609 712.066, 610.350 713.919, 612 715.500 C 616.062 719.391, 615.902 722.731, 611.397 728.123 C 608.269 731.867, 607.863 732.943, 608.313 736.295 C 609.160 742.609, 615.474 747.422, 619.844 745.084 C 623.370 743.197, 626.342 743.886, 632.760 748.079 C 637.797 751.371, 639.568 752.034, 641.932 751.515 C 645.386 750.756, 646.584 749.504, 647.554 745.639 C 648.207 743.039, 647.607 742.165, 640.688 735.645 L 633.107 728.500 632.430 721.310 C 631.477 711.182, 632.076 709.527, 637.235 708.034 C 639.649 707.336, 642.471 705.588, 643.736 704.009 C 647.115 699.791, 645.427 696.336, 636.886 689.985 C 627.739 683.184, 607.297 663.493, 605.314 659.574 C 604.459 657.883, 603.056 655.699, 602.198 654.720 C 601.339 653.742, 600.634 651.492, 600.631 649.720 C 600.626 646.808, 600.941 646.469, 603.922 646.178 C 606.133 645.963, 607.924 646.498, 609.359 647.804 C 610.537 648.874, 612.513 650.272, 613.750 650.910 C 614.987 651.548, 616 652.537, 616 653.106 C 616 653.676, 619.848 658.102, 624.552 662.941 C 632.599 671.220, 634.772 672.741, 646 677.956 C 648.475 679.106, 652.401 681.188, 654.725 682.584 C 661.430 686.612, 673.029 701.563, 674.442 708 C 674.503 708.275, 675.426 709.808, 676.493 711.406 C 678.097 713.808, 678.528 716.706, 678.970 728.093 C 679.497 741.658, 679.552 741.923, 682.440 744.937 C 684.054 746.622, 685.852 748.013, 686.437 748.029 C 687.664 748.063, 694 753.627, 694 754.671 C 694 755.359, 697.698 759.342, 709.511 771.377 C 716.872 778.876, 725.059 788.473, 727.529 792.500 C 732.432 800.493, 737.471 802.321, 741.826 797.686 C 744.536 794.801, 744.596 791.573, 742 788.273 C 739.759 785.424, 739.344 781.975, 741.250 782.047 C 741.938 782.073, 744.525 784.558, 747 787.570 C 749.475 790.581, 753.649 795.622, 756.275 798.772 C 761.633 805.200, 769 815.657, 769 816.836 C 769 817.261, 770.438 819.834, 772.196 822.554 C 773.954 825.274, 776.092 828.722, 776.946 830.215 C 783.543 841.744, 785 844.469, 785 845.283 C 785 848.179, 775.122 856.669, 768.564 859.409 C 764.383 861.156, 763.940 863.647, 767.565 865.025 C 769.185 865.641, 817.927 865.993, 899.815 865.982 L 1029.500 865.964 1033.900 862.982 C 1037.702 860.406, 1039.215 860, 1045.013 860 C 1048.705 860, 1055.275 859.123, 1059.613 858.050 C 1063.951 856.978, 1072.112 855.789, 1077.750 855.407 C 1083.388 855.026, 1088 854.441, 1088 854.107 C 1087.999 853.773, 1090.088 853.537, 1092.640 853.581 C 1098.026 853.676, 1100 855.573, 1100 860.656 C 1100 862.980, 1100.622 864.263, 1102.146 865.078 C 1104.878 866.540, 1113.938 865.718, 1115.058 863.907 C 1115.522 863.155, 1115.633 859.053, 1115.304 854.791 C 1114.748 847.571, 1114.888 846.768, 1117.353 843.042 C 1120.020 839.012, 1120.945 832.421, 1119.121 830.450 C 1118.637 829.928, 1117.468 823.218, 1116.524 815.541 C 1115.579 807.863, 1113.950 799.409, 1112.903 796.754 C 1111.856 794.099, 1111 791.162, 1111 790.227 C 1111 789.293, 1109.921 786.272, 1108.602 783.514 C 1104.324 774.567, 1101.264 767.571, 1100.156 764.203 C 1099.559 762.389, 1097.143 758.337, 1094.786 755.198 C 1092.428 752.059, 1089.277 747.693, 1087.781 745.496 C 1083.869 739.745, 1070.426 726.837, 1064 722.661 C 1060.975 720.695, 1057.293 718.158, 1055.817 717.023 C 1054.341 715.887, 1051.416 714.339, 1049.317 713.582 C 1042.939 711.281, 1031.598 705.946, 1029.987 704.488 C 1029.153 703.733, 1026.677 702.670, 1024.485 702.126 C 1022.293 701.582, 1018.700 700.451, 1016.500 699.612 C 1014.300 698.774, 1010.662 698.068, 1008.417 698.044 C 1006.171 698.020, 1004.064 697.731, 1003.736 697.402 C 1002.807 696.474, 1004.067 694, 1005.469 694 C 1007.530 694, 1014.286 688.143, 1017.500 683.570 C 1019.150 681.222, 1022.372 676.871, 1024.659 673.901 C 1026.947 670.930, 1029.353 666.475, 1030.007 664 C 1030.661 661.525, 1031.657 658.938, 1032.220 658.250 C 1033.504 656.684, 1037.125 656.644, 1040.451 658.160 C 1042.404 659.049, 1044.334 659.024, 1048.748 658.048 C 1051.912 657.349, 1054.950 656.416, 1055.500 655.974 C 1056.050 655.532, 1056.950 655.054, 1057.500 654.913 C 1058.754 654.590, 1067.771 648.685, 1070.665 646.291 C 1075.038 642.674, 1084.561 630.253, 1086.645 625.446 C 1088.988 620.044, 1092.033 607.146, 1092.013 602.708 C 1091.988 597.330, 1088.874 584.475, 1086.946 581.790 C 1085.876 580.300, 1085 578.613, 1085 578.040 C 1085 577.468, 1084.523 577, 1083.941 577 C 1083.359 577, 1083.160 576.550, 1083.500 576 C 1083.840 575.450, 1083.641 575, 1083.059 575 C 1081.018 575, 1082.031 571.799, 1085.379 567.668 C 1091.593 560.005, 1093.433 555.302, 1093.468 547 L 1093.500 539.500 1098 535 C 1100.505 532.495, 1104.162 527.113, 1106.250 522.861 C 1109.618 515.999, 1110 514.420, 1110 507.353 C 1110 497.900, 1107.542 492.336, 1099.892 484.469 C 1097.202 481.701, 1095 479.044, 1095 478.563 C 1095 478.082, 1096.238 476.071, 1097.750 474.094 C 1100.437 470.582, 1100.500 470.192, 1100.500 456.974 L 1100.500 443.448 1096.279 436.474 C 1089.311 424.961, 1076.341 414.890, 1066.500 413.352 C 1061.110 412.510, 1059.703 411.233, 1060.389 407.806 C 1060.698 406.262, 1060.437 403.762, 1059.809 402.250 C 1059.181 400.737, 1058.592 399.275, 1058.500 399 C 1058.408 398.725, 1057.808 397.233, 1057.166 395.685 C 1056.525 394.137, 1056 392.683, 1056 392.454 C 1056 391.399, 1048.525 380.408, 1047.318 379.689 C 1046.570 379.242, 1046.219 378.455, 1046.538 377.939 C 1046.857 377.422, 1046.690 377, 1046.168 377 C 1045.645 377, 1043.040 375.200, 1040.377 373 C 1037.715 370.800, 1035.027 369, 1034.403 369 C 1033.780 369, 1031.983 367.987, 1030.411 366.750 C 1027.760 364.664, 1026.639 364.512, 1015.026 364.669 C 1008.137 364.761, 1000.700 364.986, 998.500 365.169 C 994.528 365.498, 994.478 365.458, 991.397 359.506 C 987.649 352.267, 978.821 343.321, 974.153 342.032 C 972.289 341.517, 970.029 340.455, 969.132 339.671 C 966.308 337.204, 951.977 335.723, 943.204 336.990 C 934.356 338.269, 924.872 342.437, 920.553 346.944 C 916.964 350.691, 914.106 350.819, 910.924 347.376 C 909.591 345.932, 905.125 343.140, 901 341.170 C 893.755 337.711, 893.126 337.592, 882.500 337.662 C 872.304 337.730, 871.061 337.958, 865.492 340.776 C 858.748 344.188, 846.667 355.116, 845.110 359.212 C 843.369 363.790, 840.195 365.151, 833.927 364.007 C 822.493 361.920, 809.051 365.199, 799.676 372.363 C 795.547 375.519, 788.004 385.103, 787.994 387.207 C 787.990 387.918, 787.279 389.850, 786.414 391.500 C 785.548 393.150, 784.687 396.750, 784.499 399.500 C 784.312 402.250, 784.123 404.789, 784.080 405.142 C 784.036 405.494, 782.863 406.069, 781.473 406.417 C 774.359 408.203, 762.952 417.251, 758.045 425 C 755.149 429.573, 751 442.894, 751 447.617 C 751 451.978, 755.914 466.612, 758.018 468.517 C 760.668 470.915, 760.515 474.778, 757.500 481.596 C 752.748 492.342, 754.676 503.063, 763.104 512.743 C 765.793 515.832, 765.917 516.412, 765.722 524.921 C 765.537 532.957, 765.742 534.096, 767.758 536.242 C 770.257 538.902, 770.695 543.162, 768.678 545.179 C 767.951 545.905, 765.702 547.625, 763.682 549 C 761.610 550.410, 759.547 552.883, 758.953 554.670 C 758.372 556.414, 757.283 558.350, 756.532 558.974 C 754.727 560.472, 751.598 578.073, 752.297 582.793 C 752.599 584.832, 753.357 590.002, 753.981 594.283 C 755.366 603.781, 758.762 610.966, 764.840 617.255 L 769.436 622.011 769.214 629.451 C 768.916 639.427, 770.610 650.674, 773.026 654.769 C 774.112 656.609, 775.527 660.226, 776.171 662.807 C 777.121 666.617, 781.245 673.508, 784.066 676 C 784.377 676.275, 786.055 678.592, 787.794 681.149 C 789.534 683.705, 793.207 687.755, 795.958 690.149 C 808.856 701.369, 813.268 705.758, 812.650 706.757 C 812.283 707.352, 809.726 708.322, 806.969 708.913 C 798.294 710.774, 785.242 718.308, 770.499 729.965 C 766.649 733.009, 761.607 736.784, 759.296 738.353 C 756.986 739.922, 754.388 742.285, 753.524 743.603 C 752.661 744.921, 751.519 746, 750.988 746 C 749.256 746, 738.122 755.011, 731.889 761.458 L 725.797 767.759 716.649 758.817 L 707.500 749.875 707 560.688 L 706.500 371.500 704.184 363.729 C 702.910 359.455, 700.885 354.928, 699.684 353.669 C 698.483 352.410, 695.749 349.269, 693.609 346.690 C 691.469 344.110, 689.125 342, 688.398 342 C 687.672 342, 686.273 341.152, 685.289 340.116 C 684.305 339.081, 681.925 337.919, 680 337.534 C 674.792 336.495, 670 334.705, 670 333.799 C 670 333.360, 546.588 333.048, 395.750 333.106 C 161.624 333.197, 121.109 333.419, 118.826 334.624 M 112.330 353.797 C 109.123 355.473, 105.514 358.573, 102.830 361.956 L 98.500 367.411 98.158 391.813 C 97.914 409.187, 98.145 416.545, 98.958 417.358 C 99.809 418.209, 171.586 418.500, 380.300 418.500 C 645.160 418.500, 660.664 418.596, 663.500 420.247 C 667.878 422.796, 687.647 422.529, 689.053 419.901 C 689.578 418.920, 690 406.757, 690 392.600 L 690 367.069 687 364 C 685.350 362.312, 684 360.514, 684 360.004 C 684 358.458, 679.966 355.204, 675.369 353.043 C 671.023 351.001, 670.944 351, 394.261 351.047 L 117.500 351.094 112.330 353.797 M 938.281 354.050 C 934.151 354.782, 932.116 355.881, 928.531 359.316 C 926.039 361.704, 924 364.008, 924 364.437 C 924 365.689, 929.316 364.015, 931.500 362.075 C 934.195 359.680, 936.964 358.671, 940.151 358.921 C 941.609 359.036, 943.098 358.651, 943.460 358.065 C 944.328 356.661, 955.688 356.686, 956.558 358.094 C 956.930 358.696, 958.283 358.988, 959.565 358.743 C 961.258 358.419, 963.538 359.626, 967.892 363.149 C 975.021 368.917, 977.548 369.532, 975.659 365.040 C 974.375 361.988, 969.755 358.079, 964.500 355.601 C 960.638 353.779, 945.019 352.855, 938.281 354.050 M 868.198 355.050 C 864.465 356.548, 858.038 362.357, 858.018 364.250 C 857.990 366.961, 860.179 366.355, 866.337 361.945 C 869.452 359.715, 872 358.150, 872 358.468 C 872 358.786, 873.121 358.312, 874.491 357.414 C 875.862 356.516, 876.735 355.380, 876.432 354.891 C 875.733 353.759, 871.197 353.847, 868.198 355.050 M 894 355.878 C 894 357.353, 896.845 359.214, 898.005 358.497 C 898.785 358.015, 898.763 357.419, 897.926 356.411 C 896.633 354.853, 894 354.496, 894 355.878 M 135.083 372.344 C 133.204 373.530, 129.941 376.135, 127.833 378.132 C 124.467 381.322, 124 382.328, 124 386.379 C 124 390.291, 124.560 391.614, 127.675 395.062 C 134.673 402.808, 140.890 403.669, 147.556 397.817 C 154.030 392.132, 154.550 382.711, 148.685 377.361 C 145.475 374.433, 139.329 369.919, 138.790 370.094 C 138.631 370.146, 136.962 371.159, 135.083 372.344 M 177.340 372.974 C 170.314 377.464, 167.999 380.977, 168.005 387.144 C 168.009 391.841, 168.429 392.956, 171.416 396.209 C 177.590 402.931, 184.993 402.706, 191.750 395.592 C 195.574 391.565, 196 390.621, 196 386.169 C 196 380.303, 194.718 378.532, 187 373.735 L 181.500 370.316 177.340 372.974 M 224 370.946 C 224 371.411, 222.232 372.666, 220.070 373.735 C 214.863 376.312, 211.213 380.814, 210.450 385.602 C 209.908 389.006, 210.271 390.077, 213.308 394.050 C 215.278 396.627, 218.545 399.393, 220.842 400.429 C 224.707 402.172, 225.101 402.177, 229.199 400.540 C 234.744 398.325, 235.810 397.389, 237.558 393.207 C 240.065 387.207, 239.450 382.503, 235.599 378.241 C 232.219 374.500, 224 369.330, 224 370.946 M 822 379 C 822 380.187, 823.737 380.187, 826.500 379 C 828.176 378.280, 827.974 378.129, 825.250 378.070 C 823.462 378.032, 822 378.450, 822 379 M 1009 379.065 C 1002.849 379.965, 998 381.926, 998 383.514 C 998 385.441, 999.837 385.757, 1005.286 384.766 C 1013.072 383.351, 1022.268 385.732, 1029.250 390.972 C 1032.412 393.346, 1035 395.639, 1035 396.067 C 1035 396.496, 1036.428 398.274, 1038.173 400.019 C 1039.976 401.822, 1041.653 404.770, 1042.058 406.846 L 1042.770 410.500 1042.853 406 C 1042.900 403.469, 1042.294 400.651, 1041.468 399.559 C 1040.661 398.491, 1040 396.840, 1040 395.890 C 1040 393.812, 1033.201 386, 1031.393 386 C 1030.689 386, 1029.501 385.126, 1028.753 384.058 C 1026.805 381.277, 1014.734 378.225, 1009 379.065 M 813.121 381.705 C 811.140 382.492, 804 389.580, 804 390.761 C 804 391.308, 803.334 392.308, 802.521 392.983 C 799.811 395.232, 797.882 400.153, 799.124 401.650 C 800.899 403.788, 801.757 403.268, 803.082 399.250 C 804.648 394.505, 810.599 387.317, 813.583 386.568 C 816.050 385.949, 819 383.422, 819 381.929 C 819 380.936, 815.402 380.800, 813.121 381.705 M 778.648 424.509 C 773.232 428.921, 771 431.672, 771 433.934 C 771 436.024, 773.983 434.953, 775.694 432.250 C 777.803 428.917, 781.821 424.877, 784.388 423.507 C 786.374 422.448, 786.798 420.766, 785.213 420.238 C 784.697 420.066, 781.743 421.988, 778.648 424.509 M 1064.720 430.613 C 1063.304 432.030, 1064.052 433.124, 1067.391 434.519 C 1071.286 436.146, 1076.532 441.090, 1078.942 445.403 C 1081.358 449.729, 1083.139 449.954, 1082.323 445.830 C 1081.674 442.552, 1077.261 436, 1075.702 436 C 1075.263 436, 1073.891 434.906, 1072.652 433.569 C 1070.281 431.011, 1065.940 429.394, 1064.720 430.613 M 904.687 444.037 C 902.350 447.373, 890.756 452.692, 882.952 454.008 C 871.825 455.885, 863.826 454.082, 855.408 447.800 C 852.607 445.710, 850.049 444, 849.723 444 C 849.397 444, 846.716 446.415, 843.764 449.366 C 836.952 456.178, 829.102 460.676, 822.587 461.501 C 814.972 462.465, 814.319 462.791, 813.007 466.283 C 812.342 468.052, 811.422 470.400, 810.962 471.500 C 810.502 472.600, 809.874 474.400, 809.566 475.500 C 809.258 476.600, 806.979 479.731, 804.503 482.458 C 800.255 487.136, 800 487.744, 800 493.208 C 800 496.394, 799.592 499, 799.094 499 C 798.595 499, 798.423 499.902, 798.712 501.005 C 799 502.108, 798.788 503.571, 798.241 504.255 C 796.468 506.472, 794.183 518.247, 793.512 528.616 C 792.779 539.963, 793.429 541.179, 798.626 538.186 C 801.037 536.798, 804.719 536.530, 821.500 536.526 C 841.132 536.521, 841.621 536.572, 848.088 539.302 C 855.839 542.574, 863.293 548.982, 865.474 554.250 C 867.175 558.358, 866.749 558.237, 878.775 558.007 C 882.777 557.931, 888.576 558.433, 891.661 559.124 C 897.266 560.378, 897.275 560.376, 899.910 557.440 C 903.179 553.797, 910.453 548, 911.754 548 C 912.286 548, 914.471 546.789, 916.610 545.310 C 920.481 542.633, 920.591 542.620, 939.018 542.560 C 956.588 542.503, 957.678 542.612, 960.319 544.684 C 962.047 546.040, 965.266 547.121, 968.802 547.534 C 975.576 548.324, 980.755 551.301, 987 557.993 L 991.500 562.815 1006.809 563.334 C 1019.725 563.773, 1022.208 563.623, 1022.686 562.376 C 1022.998 561.563, 1022.240 559.820, 1021.002 558.502 C 1016.538 553.751, 1015.792 541.706, 1019.510 534.419 L 1022.020 529.500 1018.267 526.500 C 1004.973 515.871, 1000.078 503.748, 1004.921 493.444 C 1008.335 486.182, 1007.889 485.677, 997.960 485.582 C 990.045 485.506, 988.996 485.244, 983.611 482 C 975.385 477.045, 965 463.789, 965 458.244 C 965 452.910, 962.616 451.557, 959.425 455.083 C 956.302 458.534, 950.992 460.186, 941.219 460.745 C 933.568 461.182, 931.197 460.951, 927.719 459.426 C 922.340 457.068, 917.005 452.604, 912.477 446.673 C 908.556 441.539, 906.842 440.959, 904.687 444.037 M 166.354 487.692 C 165.174 487.923, 163.532 488.874, 162.704 489.806 C 161.096 491.616, 154.891 506.017, 154.864 508 C 154.861 508.275, 154.261 509.175, 153.532 510 C 152.803 510.825, 151.292 514.425, 150.174 518 C 147.699 525.915, 145.055 533.642, 143.672 537 C 143.106 538.375, 142.578 539.725, 142.500 540 C 142.357 540.501, 141.501 542.517, 137.780 551.118 C 136.679 553.662, 136.060 556.615, 136.402 557.692 C 139.134 566.298, 150.518 566.005, 152.616 557.275 C 152.983 555.749, 154.758 552.464, 156.560 549.977 L 159.838 545.453 169.977 545.624 C 178.081 545.760, 180.505 546.147, 182.058 547.552 C 183.126 548.519, 184 549.902, 184 550.626 C 184 551.351, 185.081 554.386, 186.401 557.373 C 188.998 563.243, 191.096 564.577, 196.031 563.493 C 201.652 562.259, 202.556 555.789, 198.500 545.808 C 197.125 542.424, 196 538.896, 196 537.967 C 196 537.039, 194.836 534.563, 193.412 532.466 C 191.989 530.369, 190.473 526.593, 190.043 524.076 C 189.613 521.559, 188.313 517.475, 187.153 515 C 185.993 512.525, 185.034 509.191, 185.022 507.591 C 185.010 505.992, 183.325 501.339, 181.278 497.252 C 176.644 488.001, 173.867 486.222, 166.354 487.692 M 393.403 492.954 C 342.587 493.531, 342 493.590, 342 498.122 C 342 499.155, 341.550 500, 341 500 C 338.780 500, 340.217 503.064, 343.672 505.699 L 347.345 508.500 399.068 508.500 C 448.527 508.500, 450.883 508.417, 452.895 506.595 C 455.610 504.138, 455.823 497.038, 453.250 494.763 C 450.679 492.490, 446.185 492.354, 393.403 492.954 M 497 499.699 C 491.373 501.808, 489.962 509.435, 494.633 512.495 C 497.063 514.088, 502.400 514.212, 564.189 514.115 C 612.534 514.039, 631.722 513.690, 633.307 512.859 C 637.604 510.604, 638.740 505.633, 635.839 501.786 L 634.115 499.500 566.307 499.318 C 529.013 499.218, 497.825 499.390, 497 499.699 M 224.450 506.879 C 223.928 507.363, 221.801 508.301, 219.725 508.965 C 213.532 510.944, 210 514.552, 210 518.898 C 210 520.944, 210.563 523.362, 211.250 524.273 C 213.058 526.667, 220.381 526.870, 222.894 524.596 C 225.180 522.527, 231.445 522.045, 233.202 523.802 C 235.151 525.751, 232.818 527.122, 226.231 527.898 C 222.944 528.286, 219.073 529.378, 217.628 530.324 C 216.182 531.271, 215 531.727, 215 531.336 C 215 530.064, 208.860 536.426, 207.411 539.200 C 205.348 543.149, 205.722 549.846, 208.284 554.855 C 212.549 563.191, 224.997 566.685, 233.739 562 C 238.342 559.533, 238.657 559.532, 243.229 561.983 C 247.224 564.124, 249.225 563.850, 252.750 560.677 C 255.714 558.009, 255.596 554.498, 252.416 550.718 C 250.275 548.174, 249.874 546.779, 250.075 542.574 C 250.208 539.783, 250.246 533.386, 250.159 528.358 C 250.008 519.650, 249.846 519.024, 246.750 515.162 C 244.460 512.305, 242.023 510.612, 238.500 509.431 C 235.750 508.509, 233.072 507.359, 232.550 506.877 C 231.319 505.740, 225.679 505.742, 224.450 506.879 M 828.882 511.016 C 821.738 512.223, 812.385 515.961, 809.907 518.599 C 806.975 521.720, 807.005 526.312, 809.979 529.477 C 811.250 530.831, 812.644 531.720, 813.076 531.453 C 813.508 531.186, 814.144 531.425, 814.490 531.984 C 815.269 533.244, 819.681 533.326, 820.442 532.094 C 820.750 531.596, 821.851 531.410, 822.888 531.681 C 823.926 531.952, 825.077 531.685, 825.446 531.087 C 825.816 530.489, 827.865 530, 830 530 C 832.135 530, 834.184 530.489, 834.554 531.087 C 834.923 531.685, 836.074 531.952, 837.112 531.681 C 838.149 531.410, 839.250 531.596, 839.558 532.094 C 840.325 533.335, 847.732 533.243, 848.510 531.984 C 848.856 531.425, 849.528 531.208, 850.004 531.502 C 851.154 532.213, 856 525.791, 856 523.557 C 856 519.044, 852.877 515.218, 847.063 512.609 C 841.102 509.933, 837.271 509.598, 828.882 511.016 M 169.035 513.934 C 168.466 514.998, 168 516.366, 168 516.975 C 168 517.583, 167.064 519.347, 165.920 520.895 C 163.379 524.332, 163.619 529.316, 166.350 529.834 C 167.367 530.027, 169.730 529.898, 171.600 529.547 C 175.272 528.858, 176.003 526.556, 174.064 521.797 C 173.549 520.534, 172.853 517.813, 172.518 515.750 C 171.847 511.614, 170.619 510.974, 169.035 513.934 M 932.841 515.975 C 928.558 517.269, 920.963 522.967, 919.942 525.653 C 918.534 529.356, 918.764 530.614, 921.411 533.694 C 923.805 536.481, 923.924 536.504, 938.709 537.043 C 951.866 537.523, 954.020 537.849, 957.253 539.847 C 960.160 541.644, 961.688 541.963, 964.705 541.403 C 969.371 540.537, 972.724 538.445, 973.533 535.895 C 974.948 531.439, 964.291 520.569, 957.500 519.542 C 956.950 519.459, 955.208 518.843, 953.629 518.174 C 951.064 517.087, 939.059 514.937, 936.500 515.106 C 935.950 515.142, 934.304 515.533, 932.841 515.975 M 222.801 544.537 C 221.856 546.611, 221.939 547.368, 223.257 548.685 C 224.661 550.090, 225.452 550.133, 229.415 549.024 C 238.332 546.527, 238.394 542, 229.510 542 C 224.536 542, 223.837 542.264, 222.801 544.537 M 348.270 547.692 C 345.508 548.239, 341.998 552.549, 342.005 555.385 C 342.008 556.548, 343.090 558.850, 344.411 560.500 L 346.812 563.500 469.156 563.643 C 538.837 563.725, 592.802 563.401, 594.524 562.890 C 596.417 562.329, 598.230 560.728, 599.371 558.610 C 601.107 555.386, 601.111 555.099, 599.455 552.572 C 598.499 551.113, 596.896 549.479, 595.892 548.942 C 594.088 547.977, 352.972 546.759, 348.270 547.692 M 803.327 554.285 C 800.602 555.809, 794 564.370, 794 566.381 C 794 569.259, 795.761 568.945, 796.358 565.960 C 796.689 564.306, 797.756 562.648, 798.730 562.277 C 801.116 561.365, 807 555.582, 807 554.149 C 807 552.708, 806.089 552.742, 803.327 554.285 M 772.179 560.690 C 769.215 566.302, 767.746 575.288, 768.213 584.968 C 768.689 594.853, 769.759 598, 772.647 598 C 775.081 598, 775.732 593.971, 776.121 576.517 C 776.462 561.217, 776.333 559.502, 774.817 559.207 C 773.892 559.027, 772.705 559.694, 772.179 560.690 M 920.683 562.750 C 915.392 566.710, 909.106 577, 911.977 577 C 912.882 577, 927.328 562.370, 927.833 560.942 C 928.517 559.010, 924.231 560.094, 920.683 562.750 M 872.308 574.466 C 869.800 575.557, 868.873 576.780, 867.981 580.177 C 864.907 591.886, 862.649 598.101, 861.151 598.975 C 860.243 599.505, 859.938 599.953, 860.473 599.970 C 861.007 599.986, 860.445 600.701, 859.223 601.557 C 858 602.413, 857 603.711, 857 604.440 C 857 606.523, 849.587 612.691, 844.300 615.007 C 841.660 616.163, 838.417 617.647, 837.092 618.305 C 835.576 619.057, 830.021 619.468, 822.092 619.413 C 809.926 619.330, 809.297 619.219, 803.506 616.132 C 800.210 614.375, 795.613 611.074, 793.291 608.795 C 788.154 603.753, 787.628 604.472, 788.144 615.831 C 788.515 623.996, 789.373 625.726, 796.954 633.591 C 798.062 634.741, 799.645 637.299, 800.470 639.275 C 801.618 642.022, 803.383 643.620, 807.968 646.064 C 812.427 648.440, 814.256 650.067, 815.103 652.408 C 817.213 658.242, 824.291 655.569, 823.927 649.075 C 823.645 644.032, 825.026 641.307, 831.144 634.834 C 836.385 629.290, 843.141 625.015, 846.710 624.985 C 847.695 624.977, 850.300 624.321, 852.500 623.529 C 858.165 621.488, 864.633 621.672, 870.894 624.051 C 875.933 625.966, 876.544 625.999, 880.165 624.551 C 885.690 622.340, 892.158 622.550, 895.327 625.043 C 896.829 626.224, 900.154 627.332, 903.212 627.670 C 908.500 628.255, 914.385 631.364, 923.266 638.267 C 928.797 642.565, 933.113 652.041, 932.812 659.224 C 932.667 662.686, 933.079 665.391, 933.902 666.382 C 935.102 667.828, 935.504 667.777, 938.227 665.839 C 941.279 663.665, 943.744 663.389, 950 664.519 C 953.025 665.065, 953.899 664.733, 956.437 662.075 C 958.975 659.418, 960.076 659, 964.538 659 C 969.434 659, 969.935 658.748, 974.175 654.144 C 977.389 650.655, 979.691 649.093, 982.355 648.593 C 985.164 648.066, 986.792 646.882, 989.081 643.699 C 990.742 641.390, 994.121 638.020, 996.590 636.212 C 999.059 634.403, 1001.542 631.703, 1002.109 630.212 C 1002.676 628.720, 1004.926 625.133, 1007.109 622.240 C 1009.293 619.348, 1011.981 615.073, 1013.083 612.740 C 1014.185 610.408, 1015.803 607.186, 1016.679 605.581 C 1017.555 603.975, 1018.367 599.925, 1018.484 596.581 C 1018.602 593.236, 1019.050 588.374, 1019.481 585.776 C 1020.222 581.307, 1020.126 580.998, 1017.705 580.078 C 1016.296 579.542, 1010.822 579.250, 1005.539 579.427 C 994.060 579.812, 992.556 580.755, 991.571 588.175 C 990.715 594.632, 986.120 603.809, 979.892 611.500 C 970.373 623.257, 962.102 627.791, 948.594 628.658 C 936.419 629.439, 923.423 627.755, 917.169 624.586 C 912.105 622.019, 903.038 612.834, 900.304 607.500 C 899.458 605.850, 897.902 603.553, 896.846 602.396 C 895.790 601.239, 894.538 598.089, 894.064 595.396 C 892.208 584.853, 890.768 578.436, 889.892 576.799 C 888.042 573.341, 877.968 572.005, 872.308 574.466 M 1055.060 579.395 C 1053.169 580.079, 1051.444 581.169, 1051.227 581.819 C 1051.010 582.469, 1050.216 583, 1049.462 583 C 1047.784 583, 1041 591.689, 1041 593.840 C 1041 594.694, 1039.763 597.179, 1038.250 599.362 C 1035.628 603.147, 1035.498 603.892, 1035.461 615.416 C 1035.427 626.261, 1035.185 627.885, 1033.108 631.258 C 1030.192 635.992, 1030.732 637.346, 1036.568 639.927 C 1043.205 642.863, 1047.896 642.599, 1054.100 638.941 C 1060.842 634.966, 1066 631.009, 1066 629.811 C 1066 629.288, 1067.310 626.957, 1068.910 624.630 C 1073.532 617.913, 1076.276 607.411, 1075.851 598.064 C 1075.531 591.018, 1075.164 589.768, 1072.404 586.339 C 1068.601 581.614, 1063.403 577.975, 1060.602 578.076 C 1059.446 578.118, 1056.952 578.711, 1055.060 579.395 M 144.868 610.333 C 142.320 611.525, 138.945 614.049, 137.368 615.942 L 134.500 619.384 134.770 633.780 C 134.960 643.920, 135.467 649.003, 136.484 650.969 C 138.308 654.497, 143.346 658.774, 146.827 659.750 C 148.297 660.163, 172.244 660.500, 200.041 660.500 C 246.490 660.500, 250.799 660.358, 253.256 658.750 C 254.726 657.788, 256.620 657, 257.465 657 C 258.309 657, 259 656.475, 259 655.833 C 259 655.192, 259.235 654.901, 259.521 655.188 C 259.808 655.475, 262.255 653.566, 264.959 650.946 C 270.661 645.421, 271.375 642.978, 270.854 630.761 C 270.524 623.014, 270.249 622.104, 266.821 617.436 C 264.591 614.398, 261.397 611.554, 258.711 610.213 C 254.301 608.010, 254.039 608, 201.890 608.083 C 150.336 608.165, 149.426 608.201, 144.868 610.333 M 355.012 610.437 C 351.873 611.100, 349.352 612.596, 346.403 615.544 C 338.063 623.884, 338.597 620.421, 338.883 664.309 L 339.138 703.402 341.819 707.360 C 346.326 714.013, 348.866 715.299, 358.496 715.804 C 363.194 716.051, 367.281 716.646, 367.578 717.126 C 368.302 718.297, 504.520 718.265, 506.764 717.094 C 507.719 716.595, 510.300 715.691, 512.500 715.084 C 519.079 713.270, 525 706.867, 525 701.566 C 525 700.155, 525.450 699, 526 699 C 527.272 699, 527.313 693.713, 526.051 692.450 C 525.502 691.901, 524.975 677.366, 524.801 658 C 524.502 624.741, 524.483 624.473, 522.129 620.686 C 519.431 616.346, 514.111 612.646, 508.333 611.090 C 503.220 609.713, 361.303 609.109, 355.012 610.437 M 152.417 623.858 C 149.026 624.490, 148 626.142, 148 630.972 C 148 634.640, 148.674 636.630, 151.006 639.850 C 152.660 642.132, 154.572 644.017, 155.256 644.038 C 169.905 644.489, 247.580 643.685, 247.964 643.078 C 248.259 642.612, 249.352 642.067, 250.394 641.866 C 251.436 641.665, 253.157 640.335, 254.219 638.910 C 256.576 635.751, 255.932 630.668, 252.670 626.677 L 250.500 624.023 202.417 623.761 C 175.972 623.618, 153.472 623.661, 152.417 623.858 M 357.485 627.259 L 354.859 629.518 354.906 646.509 C 354.932 655.854, 354.981 666.200, 355.015 669.500 C 355.049 672.800, 354.796 680.527, 354.452 686.670 L 353.827 697.841 356.619 699.670 C 359.261 701.402, 363.396 701.500, 433.551 701.500 C 494.921 701.500, 507.976 701.264, 509.346 700.128 C 510.828 698.898, 511 695.075, 511 663.434 L 511 628.113 508.777 626.557 C 506.815 625.182, 497.986 625, 433.333 625 L 360.112 625 357.485 627.259 M 844.301 649.937 C 839.121 653.129, 837.866 661.511, 841.243 670.360 C 842.223 672.930, 853.123 682, 855.231 682 C 855.689 682, 856.344 681.266, 856.688 680.370 C 857.033 679.473, 858.931 677.252, 860.907 675.434 C 865.052 671.621, 864.796 671.026, 857.276 667 C 854.677 665.609, 851.748 663.027, 850.669 661.177 L 848.731 657.855 851.012 654.771 C 854.995 649.383, 850.478 646.130, 844.301 649.937 M 477.340 650.180 C 475.984 650.836, 474.783 652.804, 474.112 655.471 C 473.055 659.668, 472.983 659.724, 467.771 660.349 C 464.872 660.698, 442.378 660.987, 417.785 660.991 C 374.605 661, 373.035 661.066, 372.035 662.934 C 370.146 666.465, 370.806 671.469, 373.494 673.994 L 375.988 676.338 429.566 676.419 L 483.143 676.500 487.181 672.172 C 490.654 668.448, 491.131 667.407, 490.594 664.721 C 490.251 663.004, 489.583 661.352, 489.111 661.050 C 488.638 660.747, 487.926 658.925, 487.527 657 C 486.019 649.705, 482.791 647.543, 477.340 650.180 M 866.500 650.655 C 863.449 651.478, 862.537 652.738, 863.849 654.318 C 864.524 655.132, 866.062 655.520, 867.512 655.242 C 868.887 654.980, 870.571 655.183, 871.256 655.695 C 871.940 656.207, 875.237 656.734, 878.583 656.866 C 885.824 657.153, 888.289 655.477, 885.002 652.502 C 882.970 650.663, 870.926 649.461, 866.500 650.655 M 905.477 656.329 C 905.257 656.973, 904.947 659.066, 904.789 660.981 C 904.529 664.108, 903.841 664.843, 898.004 668.231 C 893.897 670.614, 890.221 672.006, 888.004 672.015 C 882.036 672.041, 881.139 673.393, 884.813 676.826 C 886.566 678.463, 888 680.692, 888 681.779 C 888 682.866, 888.597 684.251, 889.327 684.856 C 891.246 686.449, 903.292 685.109, 906.928 682.898 C 913.155 679.111, 916.324 667.515, 912.943 660.889 C 910.433 655.969, 906.434 653.526, 905.477 656.329 M 139.250 674.750 C 133.459 682.191, 132.189 697.021, 136.851 702.763 C 138.073 704.269, 139.309 706.175, 139.598 707 C 139.887 707.825, 142.458 709.515, 145.312 710.756 C 150.479 713.003, 150.714 713.012, 202.815 713.006 C 253.676 713, 255.264 712.942, 259.993 710.908 C 264.128 709.129, 265.923 707.416, 266.183 705 C 266.213 704.725, 266.859 703.612, 267.618 702.527 C 269.584 699.721, 269.324 696.047, 266.873 692 C 264.270 687.703, 258.889 682.025, 257.405 682.011 C 256.803 682.005, 255.495 681.100, 254.500 680 C 252.680 677.989, 246 677.107, 246 678.878 C 246 680.694, 248.945 686.709, 250.442 687.952 C 252.309 689.502, 252.501 694.359, 250.750 695.743 C 249.298 696.889, 159.325 698.418, 154.164 697.384 C 149.334 696.416, 148.481 693.791, 149.621 683.411 C 150.710 673.500, 149.785 671, 145.027 671 C 142.909 671, 141.412 671.971, 139.250 674.750 M 612.097 693.303 C 610.857 694.543, 610.654 698.963, 611.765 700.548 C 612.999 702.308, 618.722 706, 620.217 706 C 622.293 706, 630 702.100, 630 701.049 C 630 700.054, 625.172 696, 623.987 696 C 623.579 696, 621.502 695.245, 619.372 694.323 C 614.284 692.120, 613.404 691.996, 612.097 693.303 M 966.139 719.033 C 964.841 720.115, 962.803 721, 961.612 721 C 960.420 721, 958.542 721.632, 957.439 722.405 C 953.944 724.853, 938.165 729.765, 937.128 728.728 C 936.595 728.195, 935.584 728.143, 934.837 728.611 C 934.102 729.071, 933.050 729.484, 932.500 729.528 C 931.950 729.573, 930.150 730.219, 928.500 730.963 C 926.745 731.756, 921.320 732.402, 915.430 732.520 C 909.891 732.632, 903.008 733.326, 900.132 734.063 C 895.796 735.174, 894.359 735.178, 891.702 734.084 C 889.941 733.359, 884.173 732.461, 878.885 732.089 C 871.997 731.605, 868.805 730.948, 867.629 729.772 C 863.506 725.648, 859 726.711, 861.097 731.313 C 862.512 734.419, 872.890 743.416, 877.938 745.913 C 890.546 752.151, 913.961 752.639, 931.017 747.021 C 936.233 745.303, 940.950 743.330, 941.500 742.637 C 942.050 741.943, 943.280 741.083, 944.234 740.726 C 947.446 739.521, 963.481 727.219, 965.609 724.327 C 967.507 721.749, 969.618 716.949, 968.817 717.033 C 968.643 717.052, 967.438 717.952, 966.139 719.033 M 391.430 746.965 C 390.291 747.426, 388.530 749.085, 387.516 750.651 C 386.502 752.218, 381.876 757.293, 377.237 761.930 L 368.801 770.359 363.090 769.180 C 354.257 767.355, 351.587 767.649, 348.194 770.819 C 344.460 774.307, 343.625 779.009, 344.163 793.537 L 344.553 804.076 348.482 807.675 C 350.643 809.655, 354.006 811.714, 355.956 812.251 C 357.905 812.788, 360.738 814.107, 362.250 815.182 C 363.762 816.257, 365 816.791, 365 816.368 C 365 815.946, 365.540 816.140, 366.200 816.800 C 366.928 817.528, 370.467 818, 375.200 818 C 381.667 818, 383.342 817.658, 385 816 C 386.100 814.900, 387.401 814, 387.892 814 C 388.382 814, 391.070 811.945, 393.863 809.433 C 399.895 804.010, 400.987 800.880, 400.994 788.993 C 401.001 779.184, 400.047 775.047, 397.098 772.098 C 394.443 769.443, 394.312 764.438, 396.863 763.073 C 400.901 760.912, 402.165 751.314, 398.926 747.411 C 397.634 745.855, 394.616 745.675, 391.430 746.965 M 159.500 750.458 C 151.612 752.821, 150 753.415, 150 753.955 C 150 754.304, 147.776 756.285, 145.058 758.358 C 142.340 760.431, 138.854 764.236, 137.312 766.813 C 134.624 771.308, 134.509 772.037, 134.505 784.572 C 134.500 797.161, 134.601 797.797, 137.250 801.800 C 138.762 804.086, 140 806.352, 140 806.834 C 140 807.596, 151.658 816.339, 153 816.582 C 153.275 816.632, 154.211 816.990, 155.080 817.378 C 155.950 817.766, 180.493 817.952, 209.621 817.792 L 262.582 817.500 265.806 815 C 278.088 805.478, 280.239 801.350, 280.799 786.229 C 281.198 775.468, 281.090 774.699, 278.399 769.229 C 274.954 762.227, 265.050 752.386, 260.049 750.997 C 256.926 750.130, 162.289 749.622, 159.500 750.458 M 430.210 763.114 C 425.026 764.633, 423.153 772.153, 427 776 C 428.941 777.941, 430.333 778, 473.865 778 C 517.740 778, 518.788 777.954, 521.365 775.927 C 524.392 773.547, 525.005 767.757, 522.581 764.441 C 521.218 762.576, 519.458 762.493, 477.331 762.325 C 451.577 762.222, 432.143 762.547, 430.210 763.114 M 378.901 780.125 C 374.734 785.386, 370.958 787.054, 366.118 785.771 C 364.128 785.244, 361.375 784.742, 360 784.656 C 357.654 784.510, 357.504 784.793, 357.563 789.250 C 357.614 793.080, 358.194 794.605, 360.563 797.123 C 366.341 803.267, 375.283 804.810, 381.882 800.803 C 383.872 799.594, 385.831 798.132, 386.235 797.553 C 387.120 796.284, 387.251 779.817, 386.393 777.582 C 385.335 774.825, 382.277 775.863, 378.901 780.125 M 202.655 779.829 C 200.874 781.797, 200.461 787.599, 201.935 789.930 C 203.203 791.932, 206.709 791.979, 208.485 790.017 C 211.260 786.950, 211.452 782.499, 208.910 780.131 C 206.110 777.523, 204.799 777.459, 202.655 779.829 M 174.425 783.443 C 174.088 784.787, 174.106 786.362, 174.465 786.943 C 175.550 788.699, 180.572 788.131, 182.466 786.037 C 185.160 783.061, 183.762 781, 179.050 781 C 175.629 781, 174.948 781.360, 174.425 783.443 M 232.163 781.878 C 231.427 782.345, 230.977 783.800, 231.163 785.113 C 231.606 788.248, 236.475 789.116, 237.239 786.196 C 238.234 782.390, 235.297 779.892, 232.163 781.878 M 431.269 794.065 C 428.941 794.375, 426.759 794.908, 426.419 795.248 C 425.103 796.564, 425.872 803.201, 427.555 805.061 C 429.205 806.884, 430.849 807, 455.033 807 C 483.065 807, 482.424 807.132, 483.628 801.111 C 484.135 798.573, 483.776 797.389, 481.884 795.372 L 479.500 792.830 457.500 793.165 C 445.400 793.349, 433.596 793.754, 431.269 794.065 M 641.500 862 L 625.500 862.577 638.599 862.789 C 645.804 862.905, 655.141 863.291, 659.349 863.647 C 666.048 864.213, 667 864.089, 667 862.647 C 667 861.319, 666.079 861.041, 662.250 861.211 C 659.638 861.328, 650.300 861.682, 641.500 862" stroke="none" fill="#171916" fill-rule="evenodd"/>
</svg>