<svg role="img" aria-labelledby="artwork-title" shape-rendering="geometricPrecision" xmlns="http://www.w3.org/2000/svg" width="1200" height="1200" viewBox="0 0 1200 1200" version="1.1">
	<title id="artwork-title">Mascot deploying an application</title>
	<path d="M 914.657 295.676 C 913.808 296.526, 899.980 300.969, 898.130 300.987 C 895.651 301.011, 887.822 306.405, 882.396 311.828 C 876.182 318.038, 875.448 318.021, 868.459 311.513 C 865.851 309.084, 862.318 306.799, 860.609 306.435 C 858.899 306.071, 855.612 304.924, 853.305 303.887 C 847.326 301.198, 832.958 301.258, 826 304 C 823.209 305.100, 819.797 306, 818.418 306 C 817.038 306, 814.819 307.090, 813.487 308.422 C 812.154 309.755, 810.179 311.126, 809.096 311.469 C 806.050 312.436, 796.156 323.675, 793.791 328.855 C 789.977 337.209, 788.084 338.335, 782.636 335.494 C 779.573 333.896, 768.472 333.427, 767.588 334.857 C 767.297 335.329, 764.864 335.974, 762.182 336.292 C 751.421 337.566, 736.881 348.813, 729.217 361.791 C 724.401 369.946, 724.090 370.919, 723.881 378.500 C 723.654 386.699, 722.790 388.592, 718.922 389.366 C 717.144 389.721, 713.342 391.569, 710.475 393.473 C 704.755 397.269, 695 407.375, 695 409.504 C 695 410.242, 693.811 412.260, 692.357 413.988 C 689.407 417.493, 686.079 429.639, 686.051 437 C 686.025 443.977, 689.306 455.148, 692.344 458.426 C 693.805 460.002, 695 461.764, 695 462.341 C 695 462.918, 696.201 464.644, 697.669 466.176 C 700.542 469.176, 700.629 468.506, 696.364 476.318 C 694.450 479.824, 694.138 499.968, 695.927 504.500 C 696.579 506.150, 699.449 509.876, 702.306 512.781 L 707.500 518.062 708 529.807 C 708.437 540.061, 708.788 541.918, 710.768 544.433 C 713.751 548.224, 712.995 550.412, 706.805 555.896 C 700.585 561.407, 696.646 569.691, 694.551 581.671 C 692.618 592.719, 692.617 597.091, 694.546 608.983 C 696.372 620.242, 699.538 627.223, 706.573 635.500 C 715.056 645.481, 715.052 645.471, 714.801 656.593 C 714.613 664.911, 714.917 667.222, 716.697 671 C 717.863 673.475, 719.539 678.063, 720.421 681.195 C 722.216 687.571, 725.735 696.186, 726.869 696.980 C 729.126 698.559, 735.144 707.820, 736.014 711.053 C 737.029 714.820, 742.835 721, 745.360 721 C 746.070 721, 748.937 723.813, 751.732 727.250 C 759.052 736.255, 761.138 737.943, 766.611 739.293 C 770.838 740.337, 771.500 740.839, 771.500 743 C 771.500 745.138, 770.993 745.540, 768 745.778 C 764.508 746.054, 744.527 755.630, 736 761.114 C 733.525 762.705, 730.222 764.793, 728.661 765.754 C 727.099 766.714, 721.304 770.875, 715.784 775 C 710.263 779.125, 704.887 783, 703.836 783.611 C 702.785 784.222, 700.929 785.622, 699.713 786.723 C 695.072 790.920, 693.944 790.452, 682.608 779.626 L 672 769.495 672 763.783 C 672 758.194, 670.736 753.226, 667.320 745.395 C 666.386 743.253, 665.555 741.275, 665.474 741 C 665.393 740.725, 665.064 739.825, 664.743 739 C 664.421 738.175, 663.633 734.350, 662.992 730.500 C 660.544 715.812, 648.608 699.074, 637.860 695.257 C 633.769 693.804, 632.423 693.739, 628.433 694.807 C 625.873 695.491, 622.916 697.052, 621.860 698.276 C 618.694 701.947, 612 711.823, 612 712.823 C 612 713.336, 611.372 714.276, 610.605 714.913 C 609.512 715.820, 608.081 715.406, 604.012 713.007 C 601.154 711.322, 596.944 709.496, 594.658 708.950 C 592.371 708.403, 587.800 707.261, 584.500 706.410 C 566.404 701.747, 562.123 701.051, 551.500 701.050 C 533.740 701.048, 528.250 703.260, 522.055 712.914 C 518.041 719.169, 518.283 725.154, 522.737 729.820 C 523.430 730.546, 524.271 732.233, 524.607 733.570 C 524.942 734.906, 525.658 736, 526.198 736 C 526.738 736, 527.927 736.882, 528.840 737.959 C 530.714 740.171, 537.751 742.996, 543 743.644 C 552.458 744.812, 553 745.013, 553 747.358 C 553 748.605, 551.702 750.869, 550.116 752.389 C 548.316 754.113, 546.995 756.629, 546.604 759.076 C 546.259 761.234, 545.460 763, 544.829 763 C 544.198 763, 541.841 761.059, 539.591 758.686 C 537.341 756.314, 533.587 753.545, 531.250 752.534 C 528.913 751.523, 527 750.386, 527 750.006 C 527 749.626, 523.041 748.345, 518.202 747.158 L 509.403 745 323.986 745 L 138.568 745 128.614 747.131 C 121.952 748.558, 116.758 750.377, 112.911 752.631 C 109.750 754.484, 106.768 756, 106.285 756 C 105.026 756, 98.408 763.152, 97.638 765.345 C 97.282 766.360, 96.143 767.411, 95.108 767.682 C 94.072 767.953, 92.415 770.048, 91.425 772.337 C 90.435 774.627, 89.014 777.233, 88.267 778.129 C 87.520 779.025, 86.124 782.625, 85.166 786.129 C 83.812 791.078, 83.041 792.434, 81.712 792.206 C 80.140 791.936, 80 793.661, 80 813.219 C 80 834.178, 80.036 834.542, 82.191 835.513 C 83.745 836.213, 84.711 837.981, 85.513 841.596 C 86.135 844.398, 87.624 848.068, 88.822 849.750 C 90.020 851.432, 91 853.249, 91 853.787 C 91 854.325, 94.938 858.791, 99.750 863.712 C 107.007 871.131, 109.992 873.390, 117.238 876.948 C 123.077 879.814, 126.818 881.077, 128.512 880.753 C 129.907 880.486, 131.289 880.658, 131.583 881.134 C 132.286 882.271, 508.714 882.271, 509.417 881.134 C 509.711 880.658, 511.035 880.475, 512.359 880.728 C 513.683 880.981, 515.070 880.696, 515.442 880.094 C 515.814 879.492, 516.968 879, 518.006 879 C 521.043 879, 529.054 874.329, 535.131 869.016 C 544.777 860.581, 554.249 844.466, 557.061 831.704 C 557.764 828.517, 558.642 825.721, 559.013 825.492 C 560.152 824.788, 567 827.030, 567 828.106 C 567 828.663, 567.412 828.864, 567.915 828.553 C 568.418 828.242, 568.980 828.390, 569.165 828.882 C 569.349 829.374, 573.100 831.677, 577.500 834 C 584.044 837.456, 586.774 838.317, 592.500 838.730 C 600.480 839.307, 604.090 841.712, 606.095 847.788 C 607.528 852.130, 611.536 859.729, 616.492 867.500 C 622.672 877.190, 626.931 882.475, 637.905 894.068 C 643.320 899.788, 647.545 903.355, 649.780 904.092 C 654.236 905.563, 675.637 904.847, 678.811 903.121 C 682.171 901.294, 681.164 900.018, 674.437 897.583 C 663.914 893.772, 644.545 877.195, 636.368 865 C 631.418 857.618, 630.563 856.426, 628.468 854 C 625.344 850.381, 621.189 842.427, 619.922 837.640 C 618.030 830.490, 614.704 824.256, 611.896 822.598 C 610.241 821.620, 606.901 821, 603.287 821 C 595.440 821, 593.678 819.681, 595.032 814.818 C 595.831 811.947, 596.773 810.900, 599.312 810.062 C 608.184 807.134, 611.740 799.226, 608.053 790.624 C 606.924 787.989, 606 784.927, 606 783.818 C 606 780.341, 602.848 774.973, 599.915 773.456 C 595.339 771.090, 589.334 771.575, 586.359 774.550 C 583.398 777.511, 583.665 780.142, 587.502 785.787 C 590.006 789.473, 589.788 791.271, 586.507 793.995 C 585.162 795.110, 584.331 795.051, 581.348 793.629 C 579.392 792.696, 575.701 791.685, 573.146 791.382 C 570.591 791.078, 567.825 790.572, 567 790.256 C 566.175 789.941, 565.206 789.740, 564.846 789.809 C 563.599 790.051, 561.647 786.858, 561.539 784.400 C 561.427 781.832, 561.616 781.736, 569.113 780.538 C 573.514 779.835, 576.570 776.826, 575.463 774.287 C 575.034 773.304, 574.740 772.206, 574.809 771.846 C 574.988 770.925, 572.533 769.014, 568.738 767.118 C 565.902 765.701, 565.514 765.032, 565.616 761.727 C 565.682 759.577, 566.543 757.054, 567.616 755.864 C 569.308 753.986, 570.162 753.847, 576 754.495 C 589.905 756.038, 591.740 755.357, 592.687 748.297 C 593.153 744.819, 592.872 744.044, 590.448 742.138 C 588.923 740.938, 586.511 739.704, 585.088 739.395 C 583.664 739.086, 581.825 738.572, 581 738.253 C 580.175 737.934, 579.275 737.595, 579 737.500 C 578.725 737.405, 577.825 737.033, 577 736.672 C 576.175 736.312, 573.475 735.376, 571 734.592 C 568.525 733.807, 562.736 731.778, 558.136 730.083 C 553.535 728.387, 548.765 727, 547.535 727 C 546.305 727, 543.881 726.506, 542.149 725.902 C 536.048 723.775, 539.433 717, 546.597 717 C 554.070 717, 584.459 722.611, 587.470 724.547 C 588.586 725.265, 592.248 726.556, 595.607 727.417 C 602.504 729.183, 609.860 732.947, 614.927 737.304 C 626.832 747.539, 636.946 741.116, 629.346 728.147 C 625.912 722.288, 625.796 716.770, 629.043 713.745 C 630.336 712.541, 632.107 711.556, 632.979 711.556 C 635.879 711.556, 641.759 717.900, 642.493 721.822 C 642.872 723.845, 644.041 727.388, 645.091 729.695 C 646.141 732.002, 647.010 735.152, 647.022 736.695 C 647.047 739.833, 650.187 747.380, 651.912 748.446 C 652.528 748.827, 652.762 749.577, 652.430 750.113 C 652.099 750.649, 652.381 751.755, 653.058 752.570 C 653.810 753.476, 654.481 758.729, 654.783 766.074 L 655.278 778.095 658.889 781.495 C 660.875 783.365, 664.050 785.932, 665.945 787.200 C 668.941 789.205, 681.075 802.323, 686.266 809.170 C 687.238 810.452, 689.527 813.367, 691.354 815.650 C 693.180 817.932, 695.207 821.082, 695.858 822.650 C 697.128 825.708, 701.928 829, 705.116 829 C 708.508 829, 711.760 826.093, 712.443 822.452 C 712.799 820.553, 713.408 819.014, 713.795 819.032 C 715.179 819.094, 717.957 821.710, 717.318 822.349 C 716.960 822.707, 717.192 823, 717.833 823 C 718.475 823, 719 823.837, 719 824.860 C 719 825.884, 720.131 828.388, 721.513 830.425 C 722.896 832.462, 724.650 835.619, 725.411 837.442 C 726.173 839.265, 727.292 841.062, 727.898 841.437 C 728.504 841.812, 729 842.799, 729 843.630 C 729 844.462, 729.675 845.818, 730.500 846.643 C 731.325 847.468, 732 849.011, 732 850.071 C 732 851.132, 732.388 852, 732.863 852 C 733.338 852, 734.531 854.587, 735.516 857.750 C 738.375 866.937, 742.115 874.095, 744.662 875.256 C 747.682 876.632, 747.728 880.389, 744.750 882.507 C 743.513 883.388, 739.575 885.944, 736 888.189 C 732.425 890.433, 728.563 893.116, 727.417 894.152 C 726.151 895.296, 722.058 896.611, 716.981 897.503 C 703.861 899.810, 703.502 902.129, 715.965 904.063 C 720.068 904.699, 727.590 905.038, 732.680 904.815 C 740.513 904.473, 742.295 904.072, 744.282 902.205 C 747.323 899.348, 749.523 899.421, 753.182 902.500 L 756.153 905 898.327 904.991 C 1034.239 904.982, 1069.032 904.410, 1085.099 901.917 C 1091.176 900.974, 1092.607 901.060, 1095.768 902.560 C 1100.621 904.863, 1107.298 905.533, 1110.825 904.073 C 1112.442 903.403, 1114.402 901.380, 1115.340 899.414 C 1116.251 897.502, 1117.673 895.679, 1118.499 895.362 C 1120.738 894.503, 1120.723 854.033, 1118.482 850.613 C 1117.647 849.338, 1116.477 844.292, 1115.882 839.398 C 1115.287 834.504, 1113.720 827.926, 1112.400 824.780 C 1111.080 821.634, 1109.998 818.259, 1109.996 817.280 C 1109.993 816.301, 1108.645 813.475, 1107 811 C 1105.355 808.525, 1104.007 805.810, 1104.004 804.966 C 1103.999 803.204, 1098.053 793.472, 1095.166 790.500 C 1094.097 789.400, 1092.540 787.143, 1091.707 785.484 C 1089.437 780.968, 1066.505 759.128, 1058.500 753.859 C 1052.035 749.603, 1032.137 739.586, 1026 737.497 C 1025.725 737.404, 1024.825 737.048, 1024 736.707 C 1017.771 734.131, 1009.585 731.847, 1004.719 731.327 C 1001.539 730.987, 998.656 730.253, 998.312 729.696 C 997.968 729.139, 1000.457 726.087, 1003.843 722.915 C 1007.229 719.742, 1010 716.722, 1010 716.204 C 1010 715.686, 1013.825 711.332, 1018.500 706.529 C 1023.175 701.726, 1027 697.199, 1027 696.470 C 1027 695.740, 1027.707 694.436, 1028.571 693.571 C 1029.436 692.707, 1029.886 692, 1029.571 692 C 1029.257 692, 1029.900 691.100, 1031 690 C 1032.210 688.790, 1033 686.667, 1033 684.622 C 1033 679.591, 1034.950 678.583, 1044.861 678.487 C 1056.449 678.376, 1063.995 675.580, 1074.477 667.514 C 1084.120 660.094, 1095.251 645.660, 1098.134 636.837 C 1098.733 635.002, 1100.169 631.475, 1101.324 629 C 1103.150 625.086, 1103.426 622.612, 1103.440 610 L 1103.457 595.500 1099.848 588 C 1097.863 583.875, 1095.285 579.643, 1094.119 578.595 C 1090.950 575.746, 1091.325 571.021, 1095 567.500 C 1096.650 565.919, 1098 564.139, 1098 563.545 C 1098 562.951, 1099.237 560.672, 1100.750 558.482 C 1103.421 554.615, 1103.500 554.107, 1103.500 540.876 L 1103.500 527.252 1107.750 523.127 C 1110.088 520.858, 1112 518.534, 1112 517.961 C 1112 517.388, 1112.869 515.700, 1113.932 514.210 C 1117.013 509.887, 1118.164 499.022, 1116.602 489 C 1114.752 477.127, 1111.836 471.474, 1103.750 464.086 C 1098.446 459.239, 1097.887 456.814, 1101.250 453.234 C 1103.374 450.973, 1103.499 450.017, 1103.485 436.169 C 1103.470 421.984, 1103.379 421.352, 1100.747 417 C 1099.249 414.525, 1098.019 411.813, 1098.012 410.973 C 1098.005 410.133, 1096.763 408.319, 1095.250 406.942 C 1093.737 405.565, 1091.206 402.757, 1089.625 400.702 C 1086.344 396.436, 1080.747 392.203, 1073.500 388.505 C 1070.750 387.102, 1067.375 385.296, 1066 384.491 C 1064.612 383.680, 1060.969 383.023, 1057.809 383.015 C 1054.679 383.007, 1051.825 382.525, 1051.466 381.945 C 1051.107 381.364, 1050.664 377.806, 1050.480 374.038 C 1050.249 369.291, 1049.356 365.515, 1047.573 361.747 C 1046.158 358.755, 1045 355.799, 1045 355.179 C 1045 354.559, 1042.237 350.842, 1038.861 346.918 C 1031.218 338.038, 1021.068 330.426, 1015.731 329.573 C 1013.564 329.226, 1010.510 328.281, 1008.945 327.471 C 1004.187 325.011, 991.576 325.531, 984 328.500 C 980.491 329.875, 976.660 331, 975.485 331 C 972.964 331, 969.817 327.751, 968.087 323.363 C 966.837 320.190, 955.823 308.540, 952.374 306.741 C 951.343 306.204, 948.925 304.723, 947 303.452 C 945.075 302.180, 941.712 300.814, 939.527 300.416 C 935.085 299.608, 926.351 296.684, 925.330 295.664 C 924.459 294.793, 915.530 294.803, 914.657 295.676 M 907.680 316.967 C 900.498 319.262, 895.589 322.451, 889.327 328.890 C 881.841 336.587, 879.542 339.942, 880.855 341.255 C 881.680 342.080, 882.584 341.800, 884.301 340.187 C 885.581 338.984, 887.050 337.994, 887.564 337.988 C 888.079 337.981, 889.454 336.518, 890.621 334.738 C 894.046 329.508, 902.662 324.987, 911.590 323.734 C 926.974 321.575, 940.224 325.894, 949.348 336.042 C 951.800 338.769, 954.074 341, 954.403 341 C 956.309 341, 954.459 335.563, 951.219 331.642 C 944.627 323.665, 939.433 319.925, 931.409 317.377 C 922.519 314.554, 915.607 314.434, 907.680 316.967 M 830.257 319.660 C 823.704 320.601, 810.015 331.476, 810.005 335.750 C 809.998 338.952, 811.384 338.555, 815.713 334.116 C 817.796 331.980, 820.623 329.890, 821.996 329.471 C 823.369 329.052, 824.956 328.075, 825.523 327.300 C 828.912 322.665, 852.291 323.115, 855.628 327.879 C 857.326 330.304, 860.667 330.731, 860.667 328.523 C 860.667 327.710, 859.167 326.550, 857.333 325.945 C 855.500 325.340, 854 324.313, 854 323.663 C 854 321.266, 849.502 319.751, 841.568 319.476 C 837.131 319.321, 832.041 319.405, 830.257 319.660 M 316.678 343.593 C 312.376 344.370, 307.876 345.542, 306.678 346.197 C 305.480 346.852, 303.307 347.271, 301.849 347.129 C 300.391 346.986, 298.902 347.349, 298.540 347.935 C 298.178 348.521, 297.022 349, 295.971 349 C 294.919 349, 291.600 350.125, 288.594 351.500 C 285.588 352.875, 282.485 354, 281.699 354 C 280.913 354, 279.057 354.954, 277.575 356.120 C 276.093 357.286, 272.994 358.662, 270.690 359.178 C 268.385 359.694, 265.375 361.158, 264 362.431 C 262.625 363.705, 260.325 365.366, 258.889 366.123 C 250.389 370.606, 239.181 380.739, 228.357 393.728 C 218.822 405.169, 217.643 406.791, 214.532 412.750 C 213.024 415.637, 211.339 418, 210.788 418 C 210.237 418, 210.045 418.675, 210.362 419.500 C 210.678 420.325, 210.501 421, 209.969 421 C 209.436 421, 209 421.734, 209 422.632 C 209 423.530, 208.108 425.707, 207.019 427.470 C 205.929 429.233, 204.387 433.561, 203.593 437.088 C 202.799 440.615, 201.461 445.300, 200.619 447.500 C 199.777 449.700, 199.068 452.738, 199.044 454.250 C 199.020 455.762, 198.523 457, 197.941 457 C 197.359 457, 197.146 457.427, 197.469 457.949 C 198.178 459.097, 194.370 459.729, 182.695 460.403 C 174.132 460.896, 167 462.610, 167 464.173 C 167 464.597, 164.424 465.693, 161.275 466.608 C 158.126 467.524, 154.414 469.037, 153.025 469.971 C 138.210 479.937, 128.006 487.804, 127.269 489.826 C 126.934 490.747, 124.037 494.485, 120.830 498.134 C 117.624 501.782, 115 505.200, 115 505.729 C 115 506.257, 114.141 507.467, 113.091 508.417 C 112.042 509.367, 110.607 511.575, 109.903 513.322 C 109.199 515.070, 107.585 517.890, 106.316 519.588 C 105.048 521.286, 103.567 525.010, 103.026 527.863 C 102.485 530.717, 101.080 536.219, 99.904 540.091 C 97.952 546.515, 97.805 548.806, 98.221 566.315 C 98.559 580.593, 99.081 586.523, 100.258 589.500 C 101.129 591.700, 102.383 595.975, 103.045 599 C 103.707 602.025, 105.250 605.850, 106.473 607.500 C 107.696 609.150, 109.248 612.181, 109.921 614.236 C 110.595 616.291, 111.570 618.234, 112.088 618.554 C 112.606 618.875, 113.688 620.710, 114.491 622.633 C 116.042 626.346, 117.441 628.060, 128.500 639.810 C 136.090 647.874, 143.594 653.841, 148.790 655.944 C 150.599 656.676, 152.624 658.024, 153.290 658.938 C 153.955 659.852, 156.075 661.205, 158 661.943 C 159.925 662.681, 163.300 664.082, 165.500 665.056 C 167.700 666.030, 174 667.809, 179.500 669.010 C 185 670.210, 190.480 671.658, 191.678 672.227 C 192.876 672.795, 195.024 673.037, 196.452 672.764 C 197.880 672.492, 199.289 672.658, 199.583 673.134 C 200.144 674.042, 283.284 674.382, 284.187 673.480 C 284.473 673.194, 327.297 672.973, 379.351 672.990 C 440.588 673.009, 474.614 672.667, 475.748 672.021 C 476.711 671.472, 482.969 669.923, 489.654 668.580 C 496.339 667.237, 503.634 665.207, 505.864 664.069 C 508.095 662.931, 510.532 662, 511.280 662 C 512.028 662, 514.152 660.650, 516 659 C 517.848 657.350, 519.795 656, 520.327 656 C 525.077 656, 552.697 630.210, 556.500 622.223 C 557.600 619.913, 558.837 618.018, 559.250 618.011 C 559.663 618.005, 560 617.325, 560 616.500 C 560 615.675, 560.498 615, 561.107 615 C 561.716 615, 561.955 614.325, 561.638 613.500 C 561.322 612.675, 561.388 612, 561.786 612 C 563.807 612, 568.223 596.482, 571.605 577.500 C 573.641 566.074, 572.983 547.440, 570.210 538 C 569.160 534.425, 567.816 528.955, 567.223 525.845 C 566.631 522.736, 564.982 518.348, 563.560 516.095 C 562.138 513.843, 561.259 512, 561.606 512 C 561.953 512, 561.156 510.538, 559.835 508.750 C 558.513 506.962, 556.930 504.341, 556.317 502.924 C 554.695 499.178, 543.223 485.969, 536.390 479.980 C 529.331 473.794, 523.897 470.055, 518.500 467.671 C 516.300 466.700, 513.825 465.482, 513 464.965 C 508.162 461.934, 505.350 460.812, 500.225 459.869 C 497.076 459.289, 493.988 458.394, 493.363 457.879 C 492.738 457.364, 488.979 456.324, 485.010 455.568 C 481.040 454.812, 477.473 453.812, 477.082 453.346 C 476.409 452.546, 473.836 442.462, 472.437 435.148 C 472.085 433.305, 471.006 431.006, 470.041 430.041 C 469.075 429.075, 467.569 426.184, 466.694 423.616 C 465.819 421.048, 464.180 417.773, 463.052 416.338 C 461.923 414.904, 461 412.906, 461 411.898 C 461 410.891, 459.425 408.492, 457.500 406.567 C 455.575 404.642, 454 402.370, 454 401.519 C 454 399.101, 427.866 373.413, 422.748 370.800 C 420.269 369.535, 415.061 366.363, 411.174 363.750 C 407.287 361.137, 403.477 359, 402.708 359 C 401.939 359, 400.521 358.128, 399.556 357.062 C 398.591 355.995, 395.581 354.647, 392.868 354.065 C 390.154 353.483, 386.167 352.105, 384.007 351.003 C 381.847 349.902, 379.188 349, 378.099 349 C 377.009 349, 375.822 348.521, 375.460 347.935 C 375.098 347.349, 373.609 346.975, 372.151 347.104 C 370.693 347.233, 367.700 346.545, 365.500 345.576 C 357.194 341.916, 331.690 340.880, 316.678 343.593 M 983.583 346.750 C 983.171 347.163, 982.533 347.527, 982.167 347.561 C 980.225 347.738, 974 351.038, 974 351.890 C 974 353.925, 976.132 354.022, 984.231 352.354 C 992.198 350.714, 992.893 350.721, 1000.813 352.519 C 1009.756 354.549, 1017.735 359.438, 1021.348 365.103 C 1022.365 366.696, 1023.542 368, 1023.965 368 C 1024.836 368, 1029.402 378.047, 1029.121 379.344 C 1029.020 379.808, 1029.514 379.990, 1030.219 379.748 C 1031.059 379.460, 1031.492 377.384, 1031.478 373.718 C 1031.460 369.312, 1030.983 367.636, 1029.225 365.813 C 1027.999 364.541, 1025.092 361.312, 1022.766 358.637 C 1020.441 355.963, 1017.629 353.376, 1016.519 352.890 C 1015.408 352.403, 1013.825 351.553, 1013 351.002 C 1010.515 349.340, 1005.608 347.674, 1003.839 347.892 C 1002.925 348.004, 1001.886 347.624, 1001.530 347.048 C 1000.793 345.856, 984.744 345.589, 983.583 346.750 M 767.443 352.402 C 766.343 353.173, 763.600 354.300, 761.350 354.906 C 758.425 355.693, 755.214 358.015, 750.094 363.044 C 746.155 366.914, 743.187 370.494, 743.500 370.999 C 743.812 371.505, 743.655 372.724, 743.151 373.709 C 740.520 378.845, 739.818 380.929, 740.305 382.151 C 740.614 382.927, 740.876 382.568, 740.921 381.307 C 740.968 379.993, 742.177 378.418, 743.936 377.379 C 745.551 376.425, 747.122 374.649, 747.428 373.432 C 748.411 369.515, 757.549 361.255, 764.706 357.814 C 772.759 353.942, 781.426 353.265, 784.724 356.250 C 787.085 358.387, 788 358.464, 788 356.525 C 788 352.507, 771.903 349.278, 767.443 352.402 M 963.250 357.250 C 963.479 357.938, 964.492 358.500, 965.500 358.500 C 966.508 358.500, 967.521 357.938, 967.750 357.250 C 968.014 356.458, 967.189 356, 965.500 356 C 963.811 356, 962.986 356.458, 963.250 357.250 M 310.320 366.559 C 303.622 367.840, 296.197 369.905, 293.820 371.149 C 291.444 372.392, 289.275 373.469, 289 373.541 C 287.323 373.982, 284.049 375.709, 281.110 377.702 C 279.246 378.966, 277.061 380, 276.255 380 C 275.448 380, 273.374 381.111, 271.644 382.469 C 269.915 383.826, 266.500 386.414, 264.056 388.219 C 257.198 393.283, 237.318 413.485, 235.026 417.718 C 233.900 419.798, 232.573 422.175, 232.077 423 C 230.386 425.811, 223.557 440.496, 223.474 441.500 C 223.365 442.813, 221.284 448.009, 219.928 450.350 C 219.340 451.368, 218.433 456.318, 217.914 461.350 C 216.723 472.896, 216.593 473.272, 212.571 476.804 C 209.314 479.663, 208.928 479.742, 195.868 480.195 C 185.392 480.559, 181.527 481.092, 178 482.661 C 175.525 483.761, 172.150 484.999, 170.500 485.412 C 167.555 486.148, 158.275 491.356, 152.644 495.432 C 145.201 500.821, 129 518.624, 129 521.414 C 129 522.073, 127.917 524.079, 126.594 525.873 C 124.880 528.195, 123.841 531.574, 122.985 537.604 C 122.324 542.263, 121.125 546.733, 120.320 547.537 C 119.515 548.342, 119.227 549.007, 119.679 549.015 C 120.130 549.024, 119.836 549.450, 119.025 549.963 C 117.848 550.708, 117.545 553.582, 117.525 564.198 C 117.502 576.357, 117.697 577.817, 119.796 581.193 C 121.059 583.224, 122.525 587.573, 123.054 590.857 C 123.583 594.140, 125.362 599.387, 127.008 602.515 C 128.654 605.643, 130 608.784, 130 609.495 C 130 610.205, 130.654 611.037, 131.453 611.344 C 132.253 611.650, 134.709 614.736, 136.911 618.201 C 141.356 625.194, 144.939 628.886, 149.629 631.310 C 151.350 632.199, 152.986 633.522, 153.266 634.251 C 153.546 634.979, 159.788 638.573, 167.137 642.238 C 188.643 652.960, 178.096 652.383, 340 651.692 C 459.027 651.185, 477.451 650.908, 483.925 649.532 C 488.009 648.664, 491.900 647.498, 492.570 646.942 C 493.241 646.385, 494.174 646.015, 494.645 646.119 C 495.657 646.344, 502.450 643.565, 506 641.475 C 507.375 640.665, 510.407 639.026, 512.737 637.831 C 515.067 636.636, 517.235 634.835, 517.554 633.829 C 517.873 632.823, 518.802 632, 519.618 632 C 521.366 632, 526.846 626.345, 531.247 620 C 532.963 617.525, 534.848 615.169, 535.434 614.765 C 536.020 614.361, 536.102 614.024, 535.615 614.015 C 535.128 614.007, 535.806 613.154, 537.121 612.119 C 538.436 611.085, 540.119 608.561, 540.860 606.510 C 541.602 604.460, 543.286 601.193, 544.604 599.251 C 545.956 597.259, 547 594.257, 547 592.360 C 547 590.512, 547.477 589, 548.059 589 C 548.641 589, 548.836 588.544, 548.492 587.987 C 548.148 587.430, 549.064 584.525, 550.528 581.533 C 553.100 576.275, 553.177 575.612, 552.825 561.796 C 552.522 549.872, 552.135 546.919, 550.492 544 C 549.409 542.075, 548.474 540.050, 548.415 539.500 C 548.355 538.950, 548.051 537.825, 547.739 537 C 547.426 536.175, 546.949 533.894, 546.677 531.930 C 546.406 529.967, 545.018 526.641, 543.592 524.541 C 542.166 522.440, 541 519.953, 541 519.015 C 541 518.077, 540.100 516.495, 539 515.500 C 537.900 514.505, 537 513.085, 537 512.345 C 537 511.605, 536.523 511, 535.941 511 C 535.359 511, 535.160 510.550, 535.500 510 C 535.840 509.450, 535.738 509, 535.275 509 C 534.811 509, 533.634 507.650, 532.659 506 C 530.360 502.108, 521.624 493, 520.190 493 C 519.580 493, 518.050 491.902, 516.790 490.560 C 514.017 487.605, 499.855 480.251, 495.289 479.394 C 493.480 479.055, 492 478.351, 492 477.830 C 492 477.308, 491.547 477.162, 490.992 477.505 C 490.438 477.847, 489.322 477.465, 488.512 476.655 C 487.560 475.703, 483.941 474.960, 478.270 474.553 C 473.447 474.206, 468.057 473.698, 466.293 473.424 C 462.628 472.854, 459 468.875, 459 465.424 C 459 464.156, 458.507 462.813, 457.904 462.441 C 457.301 462.068, 456.998 460.466, 457.231 458.882 C 457.463 457.297, 457.392 456, 457.071 456 C 456.411 456, 454.630 451.078, 452.367 443 C 451.519 439.975, 450.247 436.825, 449.539 436 C 448.832 435.175, 447.729 432.867, 447.089 430.871 C 446.449 428.875, 445.083 426.480, 444.054 425.549 C 443.025 424.617, 441.620 422.425, 440.932 420.678 C 440.244 418.930, 438.678 416.375, 437.453 415 C 436.227 413.625, 434.919 411.488, 434.545 410.250 C 434.171 409.012, 433.299 408, 432.607 408 C 431.915 408, 428.976 405.075, 426.075 401.500 C 423.175 397.925, 420.433 395, 419.982 395 C 419.532 395, 417.388 393.407, 415.219 391.459 C 410.228 386.978, 398.946 379.007, 397.555 378.978 C 396.975 378.966, 395.375 378.076, 394 377 C 392.625 375.924, 390.488 375.034, 389.250 375.022 C 388.012 375.010, 387 374.600, 387 374.111 C 387 373.622, 386.438 373.261, 385.750 373.309 C 385.063 373.356, 382.025 372.248, 379 370.845 C 375.975 369.443, 370.768 368.019, 367.430 367.682 C 364.091 367.344, 358.709 366.378, 355.470 365.534 C 346.463 363.188, 325.458 363.665, 310.320 366.559 M 1033.152 403.693 C 1031.698 404.810, 1031.679 405.087, 1033 406.005 C 1033.825 406.578, 1035.625 406.775, 1037 406.443 C 1050.664 403.137, 1062.267 405.283, 1068.983 412.359 C 1077.305 421.127, 1080 425.084, 1080 428.536 C 1080 430.376, 1080.472 432.173, 1081.048 432.530 C 1081.624 432.886, 1081.962 434.108, 1081.798 435.246 C 1081.634 436.383, 1082.009 437.488, 1082.631 437.701 C 1085.477 438.674, 1085.276 422.704, 1082.428 421.611 C 1081.677 421.323, 1080.351 419.380, 1079.481 417.294 C 1077.646 412.894, 1072.285 407, 1070.118 407 C 1069.299 407, 1067.551 405.988, 1066.233 404.750 C 1063.980 402.634, 1062.971 402.498, 1049.320 402.462 C 1039.072 402.435, 1034.318 402.797, 1033.152 403.693 M 723.590 405.901 C 722.643 406.947, 720.291 408.098, 718.362 408.460 C 715.658 408.967, 714.620 409.791, 713.830 412.059 C 713.266 413.677, 712.375 415, 711.851 415 C 710.589 415, 707.771 421.820, 708.527 423.044 C 709.513 424.639, 710.822 424.127, 712.195 421.610 C 714.209 417.922, 723.370 407.147, 724.559 407.069 C 725.141 407.031, 726.491 406.339, 727.559 405.532 C 729.465 404.090, 729.462 404.063, 727.405 404.032 C 726.253 404.014, 724.536 404.855, 723.590 405.901 M 867.767 429.553 C 863.765 434.155, 854.809 439.288, 846.633 441.665 C 833.422 445.506, 827.192 444.748, 817.107 438.071 C 807.490 431.704, 806.522 431.147, 804.943 431.073 C 804.086 431.033, 801.980 432.994, 800.262 435.431 C 797.212 439.758, 786.490 448.992, 784.500 449.006 C 783.950 449.009, 782.158 449.712, 780.518 450.567 C 778.840 451.442, 775.683 452.009, 773.300 451.862 C 770.971 451.719, 768.750 451.916, 768.366 452.301 C 767.981 452.685, 766.857 453, 765.869 453 C 763.664 453, 762.271 455.453, 761.407 460.857 C 760.785 464.744, 758.777 467.711, 752.447 474.095 C 748.691 477.882, 747.001 481.684, 746.992 486.364 C 746.982 491.948, 745.108 503.165, 743.952 504.558 C 743.438 505.177, 743.314 505.981, 743.677 506.344 C 744.040 506.706, 743.851 508.015, 743.257 509.252 C 741.603 512.697, 740.138 522.372, 739.470 534.250 C 738.866 544.998, 738.867 545, 741.183 544.994 C 742.457 544.990, 744.839 544.289, 746.475 543.436 C 748.112 542.583, 750.249 542.093, 751.224 542.348 C 752.200 542.604, 753.250 542.404, 753.558 541.906 C 753.866 541.408, 755.216 541, 756.559 541 C 759.385 541, 759.944 538.028, 757.500 536 C 755.284 534.161, 755.669 529.659, 758.250 527.241 C 761.228 524.451, 764.619 523.241, 776 520.907 C 787.810 518.485, 788.630 518.227, 790.520 516.337 C 791.371 515.486, 794.601 514.575, 797.790 514.285 C 803.278 513.788, 803.726 513.928, 808.015 517.498 C 813.015 521.659, 813.828 523.061, 813.930 527.698 C 814.042 532.805, 807.480 538, 800.916 538 C 799.934 538, 797.909 538.464, 796.417 539.032 C 793.829 540.016, 793.791 540.126, 795.591 541.443 C 796.629 542.202, 797.840 542.599, 798.283 542.325 C 798.725 542.052, 799.630 542.265, 800.294 542.798 C 800.957 543.332, 802.975 544.084, 804.777 544.470 C 810.582 545.711, 817.330 550.225, 824.559 557.700 C 832.051 565.447, 833.071 565.845, 839.500 563.529 C 844.694 561.658, 851.482 561.696, 856.500 563.625 C 864.627 566.749, 864.690 566.735, 871.338 560.345 C 881.411 550.664, 882.763 549.882, 897.130 545.429 C 901.918 543.945, 904.594 541.770, 903.603 540.167 C 903.290 539.660, 901.027 538.741, 898.574 538.123 C 890.482 536.085, 888.269 528.173, 894.119 522.190 C 898.566 517.641, 903.257 517.817, 923 523.269 C 926.025 524.105, 931.795 525.333, 935.821 525.998 C 940.044 526.695, 943.359 527.771, 943.654 528.540 C 943.935 529.274, 944.744 529.652, 945.452 529.380 C 946.159 529.109, 948.372 530.428, 950.369 532.311 C 954.504 536.212, 955.067 539.725, 952 542.500 C 948.680 545.504, 949.455 547.771, 954.250 549.083 C 961.422 551.046, 966.951 554.242, 973.766 560.366 C 980.139 566.091, 980.402 566.217, 984.787 565.616 C 987.258 565.277, 995.420 565, 1002.925 565 C 1015.905 565, 1016.571 564.902, 1016.571 563 C 1016.571 561.900, 1016.262 561, 1015.884 561 C 1015.505 561, 1014.676 559.763, 1014.041 558.250 C 1013.405 556.737, 1012.012 553.925, 1010.944 552 C 1008.261 547.163, 1008.288 535.894, 1010.999 528.761 C 1012.099 525.867, 1012.999 523.170, 1012.999 522.767 C 1013 522.364, 1010.816 520.927, 1008.147 519.574 C 1003.786 517.365, 989.854 503.853, 990.191 502.160 C 990.264 501.797, 989.813 500.268, 989.190 498.761 C 988.568 497.255, 987.766 493.174, 987.409 489.693 C 986.892 484.646, 987.124 482.667, 988.552 479.931 C 990.610 475.989, 991.041 472.156, 989.536 471.186 C 988.966 470.819, 984.900 470.433, 980.500 470.327 C 970.529 470.088, 961.607 467.371, 957.027 463.179 C 955.117 461.430, 953.033 460, 952.396 460 C 949.965 460, 941.032 445.859, 941.009 441.973 C 940.983 437.605, 934.728 433.940, 933.364 437.494 C 933.048 438.316, 932.435 438.769, 932 438.500 C 931.565 438.231, 930.968 438.640, 930.674 439.408 C 929.493 442.484, 919.004 445.325, 908.500 445.415 C 899.487 445.492, 897.940 445.225, 892.824 442.713 C 887.843 440.267, 880.091 433.716, 876.211 428.675 C 874.309 426.204, 870.318 426.619, 867.767 429.553 M 324.715 463.909 C 317.679 470.394, 299.040 489.736, 271.250 519.389 C 262.499 528.727, 262 529.495, 262 533.631 C 262 537.431, 262.533 538.519, 266.076 541.958 C 268.318 544.133, 270.937 546.162, 271.896 546.467 C 274.624 547.333, 281.378 544.555, 282.649 542.043 C 283.281 540.794, 285.081 538.927, 286.649 537.893 C 288.217 536.859, 289.058 536.010, 288.518 536.007 C 287.978 536.003, 289.215 534.859, 291.268 533.464 C 293.321 532.069, 295 530.378, 295 529.705 C 295 529.033, 296.831 526.912, 299.070 524.991 C 304.301 520.504, 305.750 519.013, 309.969 513.782 C 313.159 509.827, 319.325 505.659, 320.398 506.732 C 320.647 506.980, 320.897 530.514, 320.955 559.028 C 321.022 592.295, 321.435 611.948, 322.107 613.876 C 323.469 617.783, 329.049 622, 332.857 622 C 336.664 622, 341.561 617.940, 342.846 613.717 C 343.669 611.010, 345.476 529.495, 345.039 514.738 C 344.800 506.691, 346.711 507.431, 358.751 520.052 C 364.663 526.249, 371.483 533.160, 373.907 535.410 C 376.331 537.659, 379.803 540.962, 381.624 542.750 C 386.536 547.574, 390.463 547.254, 396.514 541.538 C 400.417 537.851, 401.323 536.316, 401.731 532.694 C 402.341 527.282, 404.579 529.895, 365.485 490.357 C 331.319 455.803, 332.604 456.637, 324.715 463.909 M 755.201 561.512 C 749.442 564.013, 742.019 572.517, 742.007 576.628 C 742.003 577.798, 741.325 579.315, 740.500 580 C 738.961 581.277, 738.352 586.433, 739.811 585.833 C 741.417 585.173, 747.749 577.453, 748.399 575.364 C 748.764 574.189, 751.748 570.745, 755.031 567.712 C 762.882 560.457, 762.945 558.147, 755.201 561.512 M 897.095 567.083 C 892.740 569.738, 886.082 576.654, 884.908 579.743 C 883.809 582.633, 883.713 587.013, 884.750 586.967 C 886.205 586.902, 890 583.162, 890 581.791 C 890 581.028, 892.476 577.806, 895.503 574.631 C 904.231 565.474, 904.895 562.328, 897.095 567.083 M 716.662 570.990 C 715.230 572.691, 713.625 576.463, 712.938 579.740 C 710.375 591.963, 711.921 615.947, 715.576 620.662 C 716.954 622.441, 717.048 622.437, 718.500 620.559 C 719.325 619.491, 719.998 617.241, 719.995 615.559 C 719.992 613.876, 720.756 610.362, 721.693 607.750 C 723.311 603.234, 723.305 602.749, 721.563 597.904 C 719.494 592.151, 719.758 578.707, 722.036 573.780 C 723.049 571.590, 723.047 570.761, 722.025 569.530 C 720.247 567.388, 719.528 567.584, 716.662 570.990 M 1057.726 580.459 C 1056.200 581.255, 1054.625 581.998, 1054.226 582.110 C 1049.451 583.450, 1041.233 595.048, 1038.631 604.119 C 1037.745 607.210, 1036.341 610.302, 1035.510 610.992 C 1033.584 612.590, 1033.580 617.059, 1035.500 621.654 C 1037.497 626.434, 1037.391 630.831, 1035.022 641.551 C 1032.199 654.317, 1032.149 654.090, 1038.590 657.789 C 1041.664 659.555, 1045.148 661, 1046.331 661 C 1049.006 661, 1062.515 654.465, 1066.327 651.327 C 1067.881 650.047, 1069.794 649, 1070.577 649 C 1071.360 649, 1072 648.480, 1072 647.844 C 1072 647.209, 1073.237 645.074, 1074.750 643.099 C 1080.060 636.169, 1083.835 627.419, 1084.939 619.487 C 1087.359 602.081, 1086.013 595.415, 1078.528 587.749 C 1070.446 579.470, 1063.971 577.202, 1057.726 580.459 M 836.518 585.923 C 834.013 587.621, 833.338 589.017, 832.297 594.653 C 829.781 608.287, 818.539 625.124, 806.146 633.816 C 796.989 640.240, 784.264 642.349, 769 639.973 C 761.552 638.814, 751 635.206, 751 633.819 C 751 633.304, 750.597 633.131, 750.105 633.435 C 749.612 633.740, 748.952 633.316, 748.636 632.494 C 748.321 631.672, 747.411 631, 746.615 631 C 745.819 631, 743.742 629.200, 742 627 C 736.582 620.159, 734.997 621.707, 735.006 633.832 C 735.013 643.666, 736.172 647.673, 740.461 652.684 C 742.369 654.913, 743.724 656.943, 743.471 657.195 C 742.373 658.293, 750.231 665.794, 754.190 667.426 C 757.432 668.764, 759.019 670.209, 760.432 673.115 C 761.962 676.261, 763.114 677.218, 766.414 678.086 C 768.661 678.677, 771.553 680.274, 772.840 681.634 C 775.838 684.802, 777.344 684.249, 778.082 679.708 C 778.613 676.442, 779.607 674.566, 785.346 666 C 786.268 664.625, 788.147 661.813, 789.523 659.750 C 790.899 657.688, 792.512 656, 793.108 656 C 793.704 656, 795.522 655.053, 797.148 653.895 C 798.774 652.737, 802.400 650.950, 805.206 649.925 C 808.011 648.899, 811.250 647.203, 812.403 646.155 C 815.785 643.082, 818.935 641.819, 823.356 641.765 C 827.872 641.710, 839.046 644.823, 840.250 646.473 C 840.763 647.175, 841.237 647.173, 841.750 646.467 C 842.881 644.909, 852.864 642.648, 858.319 642.713 C 861.591 642.752, 865.123 643.753, 869.319 645.829 C 872.719 647.510, 878.200 649.400, 881.500 650.028 C 884.800 650.656, 889.300 652.300, 891.500 653.682 C 895.270 656.050, 909 669.704, 909 671.086 C 909 671.437, 910.350 673.424, 912 675.500 C 914.417 678.541, 915 680.233, 915 684.203 C 915 692.734, 917.188 694.592, 923.300 691.250 C 925.419 690.091, 928.695 689.500, 933 689.500 C 939.016 689.500, 939.736 689.258, 942.673 686.250 C 945.520 683.334, 946.432 683, 951.552 683 C 956.673 683, 957.656 682.640, 961.150 679.483 C 963.291 677.549, 966.868 675.236, 969.099 674.344 C 971.444 673.406, 973.518 671.768, 974.014 670.464 C 974.486 669.223, 977.606 666.473, 980.947 664.354 C 984.905 661.843, 987.242 659.629, 987.652 658 C 988.813 653.385, 991.077 649.921, 993.548 648.982 C 994.897 648.469, 996 647.541, 996 646.919 C 996 646.297, 997.125 644.452, 998.500 642.818 C 999.883 641.174, 1001 638.577, 1001 637.005 C 1001 635.085, 1002.459 632.454, 1005.500 628.891 C 1008.701 625.141, 1010.001 622.736, 1010.003 620.560 C 1010.004 618.840, 1011.535 614.963, 1013.498 611.708 C 1016.839 606.166, 1016.921 605.809, 1015.378 603.454 C 1014.081 601.475, 1013.900 599.560, 1014.451 593.676 C 1015.258 585.071, 1014.197 583.365, 1008.683 584.400 C 1006.847 584.744, 1001.329 585.074, 996.422 585.132 C 991.515 585.190, 986.750 585.630, 985.834 586.109 C 983.969 587.085, 981.388 594.174, 980.414 601 C 980.060 603.475, 978.719 607.075, 977.432 609 C 976.145 610.925, 974.403 614.159, 973.560 616.186 C 972.717 618.213, 970.980 621.414, 969.700 623.300 C 966.163 628.513, 955.892 637.992, 953.035 638.681 C 951.641 639.017, 949.348 640.096, 947.939 641.079 C 946.530 642.063, 944.055 643.175, 942.439 643.552 C 940.823 643.929, 938.375 644.960, 937 645.843 C 934.254 647.607, 913.482 648.858, 910.252 647.454 C 909.289 647.035, 907.792 646.777, 906.928 646.879 C 906.063 646.982, 904.038 646.379, 902.428 645.539 C 900.817 644.699, 898.825 644.004, 898 643.994 C 897.175 643.984, 894.542 642.856, 892.148 641.488 C 889.754 640.120, 887.207 639, 886.487 639 C 885.767 639, 884.013 637.615, 882.589 635.923 C 881.165 634.231, 880 633.025, 880 633.243 C 880 634.550, 870.855 624.803, 869.026 621.546 C 866.233 616.574, 862 604.910, 862 602.188 C 862 601.050, 861.519 599.821, 860.931 599.458 C 860.337 599.090, 859.982 596.541, 860.132 593.720 C 860.373 589.184, 860.106 588.422, 857.633 586.575 C 853.514 583.500, 840.678 583.104, 836.518 585.923 M 836 675.126 C 831.773 676.359, 829.537 678.352, 830.262 680.240 C 830.971 682.087, 858.610 684.479, 862.436 683.024 C 867.547 681.081, 864.692 678.048, 857.718 678.014 C 856.188 678.006, 853.392 677.355, 851.506 676.567 C 846.657 674.541, 840.096 673.931, 836 675.126 M 807.358 677.268 C 806.180 678.496, 804.431 680.138, 803.471 680.917 C 801.965 682.141, 801.809 683.499, 802.329 690.866 C 802.842 698.147, 803.354 699.982, 805.818 703.384 C 807.601 705.845, 810.119 707.859, 812.399 708.649 C 814.430 709.352, 817.257 710.844, 818.681 711.964 C 822.977 715.343, 825.615 714.660, 827.859 709.586 C 830.558 703.484, 831.983 702.961, 843.933 703.689 C 855.661 704.403, 857.559 705.393, 861.054 712.612 C 863.211 717.067, 863.400 717.196, 866.891 716.619 C 868.876 716.291, 872.847 716.017, 875.715 716.011 C 880.160 716.002, 881.475 715.522, 884.614 712.766 C 889.270 708.678, 891 704.542, 891 697.500 C 891 690.829, 889.306 686.496, 885.183 682.620 C 880.924 678.616, 879 679.603, 879 685.791 C 879 690.396, 878.782 690.788, 874.750 693.441 C 872.413 694.979, 868.802 696.470, 866.726 696.754 C 864.650 697.038, 862.711 697.659, 862.417 698.135 C 861.593 699.468, 844.262 699.181, 842.048 697.798 C 840.527 696.848, 839.587 696.883, 837.562 697.967 C 835.625 699.004, 834.451 699.072, 832.750 698.247 C 831.513 697.647, 828.527 696.881, 826.115 696.544 C 823.704 696.208, 820.606 695.048, 819.230 693.967 C 817.855 692.885, 816.186 692, 815.520 692 C 813.242 692, 811 688.347, 811 684.638 C 811 681.464, 811.501 680.637, 814.499 678.868 C 818.691 676.395, 818.215 674.993, 813.191 675.018 C 810.695 675.030, 808.806 675.759, 807.358 677.268 M 953 755.979 C 951.625 756.270, 948.700 757.459, 946.500 758.622 C 944.300 759.785, 940.362 761.049, 937.750 761.430 C 935.138 761.811, 933 762.572, 933 763.120 C 933 763.669, 932.550 763.840, 932 763.500 C 931.450 763.160, 930.997 763.246, 930.994 763.691 C 930.977 765.774, 923.935 768.275, 916 769.016 C 910.805 769.501, 905.945 770.602, 903.500 771.848 C 899.946 773.660, 897.327 773.917, 880 774.154 C 854.903 774.499, 842.781 773.742, 839.554 771.628 C 836.225 769.446, 832 769.477, 832 771.684 C 832 774.639, 841.744 782.973, 848.825 786.074 C 852.496 787.682, 856.175 789.373, 857 789.833 C 857.825 790.293, 861.497 791.475, 865.160 792.459 C 871.497 794.161, 872.613 794.167, 888.130 792.579 C 897.099 791.660, 904.739 790.422, 905.107 789.826 C 905.475 789.231, 906.238 789.029, 906.803 789.378 C 907.367 789.727, 907.980 789.651, 908.165 789.209 C 908.349 788.767, 912.325 786.935, 917 785.138 C 921.675 783.340, 927.291 781.112, 929.480 780.185 C 933.405 778.524, 953.728 762.149, 955.317 759.368 C 956.718 756.917, 955.688 755.411, 953 755.979 M 138 764.250 C 138 764.663, 136.455 765, 134.566 765 C 127.834 765, 111 773.968, 111 777.554 C 111 778.316, 109.650 779.938, 108 781.158 C 106.350 782.378, 105 784.219, 105 785.250 C 105 786.281, 103.842 789.571, 102.427 792.563 C 99.998 797.697, 99.852 798.914, 99.815 814.251 C 99.777 829.721, 99.900 830.764, 102.378 836 C 103.809 839.025, 104.985 842.063, 104.990 842.750 C 105.011 845.389, 116.841 855.796, 123.605 859.127 L 130.458 862.500 319.530 862.500 L 508.603 862.500 515.294 859.104 C 519.985 856.723, 523.707 853.785, 527.743 849.276 C 533.839 842.465, 535.451 839.677, 535.065 836.612 C 534.934 835.574, 535.429 834.353, 536.164 833.898 C 538.088 832.709, 538.101 795.030, 536.177 792.713 C 535.449 791.836, 534.956 790.305, 535.081 789.310 C 535.322 787.387, 534.459 784.467, 532.921 782 C 532.406 781.175, 531.455 779.375, 530.807 778 C 529.249 774.692, 522.923 768, 521.354 768 C 520.672 768, 518.585 767.098, 516.716 765.995 C 513.351 764.009, 511.460 763.987, 325.659 763.745 C 222.446 763.610, 138 763.837, 138 764.250 M 141.416 785.072 C 139.720 785.567, 135.856 788.567, 132.830 791.739 C 127.901 796.907, 127.155 798.274, 125.664 804.876 C 123.495 814.479, 123.538 815.434, 126.558 824.995 C 128.594 831.441, 129.615 833.283, 131.558 834.022 C 132.901 834.533, 134 835.435, 134 836.026 C 134 836.618, 135.688 837.765, 137.750 838.576 C 139.813 839.387, 142.306 840.504, 143.291 841.059 C 144.276 841.614, 145.482 841.820, 145.972 841.518 C 146.461 841.215, 147.144 841.425, 147.490 841.984 C 148.354 843.382, 329.638 843.395, 330.502 841.997 C 330.907 841.341, 331.868 841.394, 333.284 842.152 C 335.932 843.569, 485.255 842.419, 487.863 840.961 C 488.763 840.458, 491.347 839.586, 493.604 839.024 C 498.742 837.744, 508 828.480, 508 824.619 C 508 823.243, 508.457 821.835, 509.016 821.490 C 509.575 821.144, 509.793 820.474, 509.500 820 C 509.207 819.526, 509.425 818.856, 509.984 818.510 C 512.041 817.239, 511.130 806.424, 508.530 801.247 C 506.090 796.388, 498.666 788.573, 493.938 785.886 C 491.889 784.721, 463.809 784.474, 318 784.337 C 217.755 784.242, 143.198 784.553, 141.416 785.072 M 330.889 800.642 C 330.269 801.383, 330.513 803.311, 331.585 806.142 C 333.630 811.545, 333.676 813.259, 331.938 819.304 C 330.738 823.477, 330.750 824.231, 332.028 825.043 C 332.838 825.558, 334.099 825.759, 334.832 825.489 C 335.564 825.220, 369.989 824.988, 411.332 824.973 L 486.500 824.946 489.905 822.122 C 492.876 819.658, 493.370 818.581, 493.776 813.685 C 494.152 809.157, 493.835 807.436, 492.138 804.786 C 490.981 802.979, 490.026 801.870, 490.017 802.321 C 490.008 802.773, 489.293 802.436, 488.429 801.571 C 487.075 800.218, 482.329 799.965, 454.179 799.750 C 377.239 799.161, 331.851 799.490, 330.889 800.642 M 567.500 805.442 C 565.526 806.976, 565.536 807.028, 568.306 809.498 C 572.602 813.329, 578 812.416, 578 807.859 C 578 805.732, 577.437 805.358, 572.992 804.535 C 570.553 804.083, 568.897 804.357, 567.500 805.442" stroke="none" fill="#171916" fill-rule="evenodd"/>
</svg>